<svg height="104" viewBox="0 0 26 26" width="104" xmlns="http://www.w3.org/2000/svg"><path d="m7 0c-2.203125 0-4 1.796875-4 4v18c0 2.203125 1.796875 4 4 4h12c2.203125 0 4-1.796875 4-4v-14c0-1.0625-.972656-2.070312-2.71875-3.78125-.242187-.238281-.503906-.503906-.75-.75s-.511719-.476562-.75-.71875c-1.710937-1.746094-2.71875-2.75-3.78125-2.75zm0 2h7.28125c.722656.183594.71875 1.050781.71875 1.9375v3.0625c0 .550781.449219 1 1 1h3c.996094 0 2 .003906 2 1v13c0 1.105469-.894531 2-2 2h-12c-1.105469 0-2-.894531-2-2v-18c0-1.105469.894531-2 2-2zm.8125 8c-.550781.050781-.957031.542969-.90625 1.09375s.542969.957031 1.09375.90625h10c.359375.003906.695313-.183594.878906-.496094.179688-.3125.179688-.695312 0-1.007812-.183593-.3125-.519531-.5-.878906-.496094h-10c-.03125 0-.0625 0-.09375 0s-.0625 0-.09375 0zm0 4c-.550781.050781-.957031.542969-.90625 1.09375s.542969.957031 1.09375.90625h8c.359375.003906.695313-.183594.878906-.496094.179688-.3125.179688-.695312 0-1.007812-.183593-.3125-.519531-.5-.878906-.496094h-8c-.03125 0-.0625 0-.09375 0s-.0625 0-.09375 0zm0 4c-.550781.050781-.957031.542969-.90625 1.09375s.542969.957031 1.09375.90625h10c.359375.003906.695313-.183594.878906-.496094.179688-.3125.179688-.695312 0-1.007812-.183593-.3125-.519531-.5-.878906-.496094h-10c-.03125 0-.0625 0-.09375 0s-.0625 0-.09375 0z" fill="#92cc41"/></svg>