<?xml version="1.0" encoding="iso-8859-1"?>
<!-- Generator: Adobe Illustrator 19.0.0, SVG Export Plug-In . SVG Version: 6.00 Build 0)  -->
<svg version="1.1" id="Capa_1" xmlns="http://www.w3.org/2000/svg" xmlns:xlink="http://www.w3.org/1999/xlink" x="0px" y="0px"
	 viewBox="0 0 436.907 436.907" style="enable-background:new 0 0 436.907 436.907;" xml:space="preserve">
<circle style="fill:#E05B49;" cx="218.453" cy="218.453" r="218.453"/>
<g style="opacity:0.1;">
	<path d="M145.376,105.021c-4.209,0-7.62,3.412-7.62,7.62v211.625c0,1.935,0.744,3.681,1.931,5.025l-0.015,0.014l0.152,0.152
		c0.117,0.125,0.236,0.244,0.361,0.361l105.357,105.357c85.262-10.554,155.279-70.189,180.879-149.798L246.066,105.021H145.376z"/>
</g>
<path style="fill:#EBF0F3;" d="M145.376,105.021h100.689l53.085,53.085v166.16c0,4.209-3.412,7.62-7.62,7.62H145.376
	c-4.209,0-7.62-3.412-7.62-7.62V112.641C137.756,108.432,141.168,105.021,145.376,105.021z"/>
<path style="fill:#E1E6E9;" d="M253.686,158.106c-4.209,0-7.62-3.412-7.62-7.62v-45.465l53.085,53.085H253.686z"/>
<g>
	<rect x="153.59" y="176.951" style="fill:#D5D6DB;" width="129.741" height="5.762"/>
	<rect x="153.59" y="198.56" style="fill:#D5D6DB;" width="129.741" height="5.762"/>
	<rect x="153.59" y="220.201" style="fill:#D5D6DB;" width="129.741" height="5.762"/>
	<rect x="153.59" y="241.807" style="fill:#D5D6DB;" width="129.741" height="5.762"/>
	<rect x="153.59" y="263.448" style="fill:#D5D6DB;" width="129.741" height="5.762"/>
	<rect x="153.59" y="285.088" style="fill:#D5D6DB;" width="129.741" height="5.762"/>
	<rect x="153.59" y="306.729" style="fill:#D5D6DB;" width="129.741" height="5.762"/>
	<rect x="155.034" y="115.907" style="fill:#D5D6DB;" width="40.387" height="46.933"/>
</g>
<g>
</g>
<g>
</g>
<g>
</g>
<g>
</g>
<g>
</g>
<g>
</g>
<g>
</g>
<g>
</g>
<g>
</g>
<g>
</g>
<g>
</g>
<g>
</g>
<g>
</g>
<g>
</g>
<g>
</g>
</svg>
