<svg enable-background="new 0 0 436.907 436.907" viewBox="0 0 436.907 436.907" xmlns="http://www.w3.org/2000/svg"><circle cx="218.453" cy="218.453" fill="#e05b49" r="218.453"/><path d="m145.376 105.021c-4.209 0-7.62 3.412-7.62 7.62v211.625c0 1.935.744 3.681 1.931 5.025l-.015.014.152.152c.117.125.236.244.361.361l105.357 105.357c85.262-10.554 155.279-70.189 180.879-149.798l-180.355-180.356z" opacity=".1"/><path d="m145.376 105.021h100.689l53.085 53.085v166.16c0 4.209-3.412 7.62-7.62 7.62h-146.154c-4.209 0-7.62-3.412-7.62-7.62v-211.625c0-4.209 3.412-7.62 7.62-7.62z" fill="#ebf0f3"/><path d="m253.686 158.106c-4.209 0-7.62-3.412-7.62-7.62v-45.465l53.085 53.085z" fill="#e1e6e9"/><g fill="#d5d6db"><path d="m153.59 176.951h129.741v5.762h-129.741z"/><path d="m153.59 198.56h129.741v5.762h-129.741z"/><path d="m153.59 220.201h129.741v5.762h-129.741z"/><path d="m153.59 241.807h129.741v5.762h-129.741z"/><path d="m153.59 263.448h129.741v5.762h-129.741z"/><path d="m153.59 285.088h129.741v5.762h-129.741z"/><path d="m153.59 306.729h129.741v5.762h-129.741z"/><path d="m155.034 115.907h40.387v46.933h-40.387z"/></g></svg>