<svg height="24" width="24" xmlns="http://www.w3.org/2000/svg"><path d="m-1-1h582v402h-582z" fill="none"/><circle cx="12" cy="12" fill="#434a54" r="11"/><path d="m14.3127 18.9411c0-.2826.01-1.2066.01-2.3545 0-.8004-.2742-1.3226-.5819-1.5889 1.9105-.2124 3.9176-.938 3.9176-4.2333 0-.9367-.3329-1.7021-.883-2.3029.0891-.2161.3829-1.0888-.0841-2.2706 0 0-.7195-.2306-2.3571.8795-.6857-.1902-1.4202-.2854-2.1494-.2887-.7292.0032-1.4632.0985-2.1475.2887-1.6396-1.1101-2.3601-.8795-2.3601-.8795-.4658 1.1818-.1722 2.0544-.0831 2.2706-.5489.6008-.8841 1.3663-.8841 2.3029 0 3.2875 2.0034 4.0232 3.909 4.2402-.2453.2143-.4677.5927-.5447 1.1473-.4896.2192-1.7315.5984-2.4967-.7133 0 0-.4537-.8236-1.3152-.8842 0 0-.8371-.0109-.0587.5216 0 0 .5623.2636.9526 1.2554 0 0 .5037 1.5313 2.8907 1.0123.0036.7169.0116 1.3928.0116 1.5974 0 .0718-.016.1475-.0512.2149.7377.2252 1.5197.3474 2.3302.3474.7172 0 1.4119-.0961 2.0735-.2739-.069-.082-.0984-.1889-.0984-.2884z" fill="#fff"/><path d="m4.2218 19.7782c1.9906 1.9906 4.7406 3.2218 7.7782 3.2218 6.0751 0 11-4.9249 11-11 0-3.0376-1.2312-5.7876-3.2218-7.7782z" fill="#231f20" opacity=".1"/></svg>