<svg height="24" width="24" xmlns="http://www.w3.org/2000/svg"><path d="m-1-1h582v402h-582z" fill="none"/><circle cx="12" cy="12" fill="#f07" r="11"/><path d="m12.0139 7.3301c1.5255 0 1.7062.0058 2.3086.0333.557.0254.8595.1185 1.0609.1967.2667.1036.457.2275.6569.4274s.3238.3902.4274.6569c.0782.2013.1713.5039.1967 1.0609.0275.6025.0333.7831.0333 2.3086s-.0058 1.7062-.0333 2.3086c-.0254.5571-.1185.8596-.1967 1.0609-.1036.2666-.2274.457-.4274.6569-.1999.1999-.3902.3237-.6569.4274-.2013.0782-.5039.1713-1.0609.1967-.6024.0275-.783.0333-2.3086.0333s-1.7063-.0058-2.3086-.0333c-.557-.0254-.8595-.1185-1.0609-.1967-.2667-.1036-.457-.2275-.6569-.4274s-.3237-.3903-.4274-.6569c-.0782-.2013-.1713-.5039-.1967-1.0609-.0275-.6024-.0333-.7831-.0333-2.3086s.0058-1.7062.0333-2.3086c.0254-.557.1185-.8595.1967-1.0609.1036-.2667.2275-.457.4274-.6569s.3902-.3237.6569-.4274c.2013-.0782.5039-.1713 1.0609-.1967.6024-.0275.7831-.0333 2.3086-.0333m0-1.0294c-1.5516 0-1.7462.0065-2.3556.0344-.6081.0278-1.0234.1243-1.3868.2656-.3757.146-.6943.3413-1.0119.659-.3176.3176-.513.6363-.659 1.0119-.1413.3634-.2378.7787-.2656 1.3869-.0278.6094-.0344.8039-.0344 2.3555 0 1.5517.0065 1.7462.0344 2.3556.0277.6081.1243 1.0234.2656 1.3869.146.3757.3413.6943.659 1.0119.3176.3176.6362.513 1.0119.659.3634.1412.7787.2378 1.3868.2656.6094.0278.8039.0344 2.3556.0344 1.5516 0 1.7462-.0066 2.3556-.0344.6081-.0278 1.0234-.1243 1.3868-.2656.3757-.146.6943-.3413 1.0119-.659.3176-.3176.513-.6363.659-1.0119.1413-.3634.2378-.7787.2656-1.3869.0278-.6094.0344-.8039.0344-2.3556 0-1.5516-.0065-1.7461-.0344-2.3555-.0277-.6081-.1243-1.0234-.2656-1.3869-.146-.3757-.3413-.6943-.659-1.0119-.3176-.3176-.6362-.513-1.0119-.659-.3634-.1412-.7787-.2378-1.3868-.2656-.6094-.0279-.804-.0344-2.3556-.0344m0 2.7794c-1.6203 0-2.9338 1.3135-2.9338 2.9338s1.3135 2.9338 2.9338 2.9338 2.9338-1.3135 2.9338-2.9338-1.3135-2.9338-2.9338-2.9338m0 4.8382c-1.0518 0-1.9044-.8526-1.9044-1.9044s.8526-1.9044 1.9044-1.9044 1.9044.8526 1.9044 1.9044-.8526 1.9044-1.9044 1.9044m3.7353-4.9541c0-.3787-.3069-.6856-.6856-.6856-.3786 0-.6856.3069-.6856.6856 0 .3786.307.6856.6856.6856.3787 0 .6856-.307.6856-.6856" fill="#fff"/><path d="m4.2218 19.7782c1.9906 1.9906 4.7406 3.2218 7.7782 3.2218 6.0751 0 11-4.9249 11-11 0-3.0376-1.2312-5.7876-3.2218-7.7782z" fill="#231f20" opacity=".1"/></svg>