<svg height="24" width="24" xmlns="http://www.w3.org/2000/svg"><path d="m-1-1h582v402h-582z" fill="none"/><circle cx="12" cy="12" fill="#0173b2" r="11"/><path d="m8.0989 5.8956c-.8304 0-1.3752.5449-1.3752 1.2615 0 .7009.5264 1.2502 1.3411 1.2502h.0113c.8466 0 1.3752-.5493 1.3752-1.2502-.0157-.7167-.5219-1.2615-1.3524-1.2615zm7.1601 3.3527c-1.2928 0-1.8604.7069-2.1821 1.2047v.0227h-.0227c.004-.0062.0187-.0164.0227-.0227v-1.0342h-2.4322c.0319.6851 0 7.2965 0 7.2965h2.4322v-4.0801c0-.2182.0153-.435.0796-.591.1754-.436.5684-.8865 1.2388-.8865.8782 0 1.2388.6665 1.2388 1.648v3.9096h2.4208v-4.1824c0-2.2426-1.1993-3.2846-2.7959-3.2846zm-8.3875.1705v7.2965h2.4322v-7.2965z" fill="#fff"/><path d="m4.2218 19.7782c1.9906 1.9906 4.7406 3.2218 7.7782 3.2218 6.0751 0 11-4.9249 11-11 0-3.0376-1.2312-5.7876-3.2218-7.7782z" fill="#231f20" opacity=".1"/></svg>