<?xml version="1.0" encoding="UTF-8"?>
<svg version="1.1" xmlns="http://www.w3.org/2000/svg" xmlns:xlink="http://www.w3.org/1999/xlink">
<defs>

</defs>
<symbol id="i-close-circle" viewBox="0 0 24 24" xmlns="http://www.w3.org/2000/svg"><path fill="#92cc41" d="M12 2C6.5 2 2 6.5 2 12s4.5 10 10 10 10-4.5 10-10S17.5 2 12 2zm4.9 13.5l-1.4 1.4-3.5-3.5-3.5 3.5-1.4-1.4 3.5-3.5-3.5-3.5 1.4-1.4 3.5 3.5 3.5-3.5 1.4 1.4-3.5 3.5z"/></symbol>
<symbol id="i-close" viewBox="0 0 512 512" xmlns="http://www.w3.org/2000/svg"><path fill="#92cc41" d="M437.5 386.6L306.9 256l130.6-130.6c14.1-14.1 14.1-36.8 0-50.9s-36.8-14.1-50.9 0L256 205.1 125.4 74.5c-14.1-14.1-36.8-14.1-50.9 0s-14.1 36.8 0 50.9L205.1 256 74.5 386.6c-14.1 14.1-14.1 36.8 0 50.9s36.8 14.1 50.9 0L256 306.9l130.6 130.6c14.1 14.1 36.8 14.1 50.9 0 14-14.1 14-36.9 0-50.9z"/></symbol>
<symbol id="i-document" viewBox="0 0 26 26" xmlns="http://www.w3.org/2000/svg"><path fill="#92cc41" d="M7 0C4.797 0 3 1.797 3 4v18c0 2.203 1.797 4 4 4h12c2.203 0 4-1.797 4-4V8c0-1.063-.973-2.07-2.719-3.781-.242-.239-.504-.504-.75-.75s-.511-.477-.75-.719C17.071 1.004 16.063 0 15 0zm0 2h7.281c.723.184.719 1.05.719 1.938V7c0 .55.45 1 1 1h3c.996 0 2 .004 2 1v13c0 1.105-.895 2-2 2H7c-1.105 0-2-.895-2-2V4c0-1.105.895-2 2-2zm.813 8c-.551.05-.958.543-.907 1.094S7.45 12.05 8 12h10c.36.004.695-.184.879-.496a1.01 1.01 0 000-1.008c-.184-.312-.52-.5-.879-.496H7.813zm0 4c-.551.05-.958.543-.907 1.094S7.45 16.05 8 16h8c.36.004.695-.184.879-.496a1.01 1.01 0 000-1.008c-.184-.312-.52-.5-.879-.496H7.813zm0 4c-.551.05-.958.543-.907 1.094S7.45 20.05 8 20h10c.36.004.695-.184.879-.496a1.01 1.01 0 000-1.008c-.184-.312-.52-.5-.879-.496H7.813z"/></symbol>
<symbol id="i-external" viewBox="0 0 511.626 511.627" xmlns="http://www.w3.org/2000/svg"><g fill="#92cc41"><path d="M392.857 292.354h-18.274c-2.669 0-4.859.855-6.563 2.573-1.718 1.708-2.573 3.897-2.573 6.563v91.361c0 12.563-4.47 23.315-13.415 32.262-8.945 8.945-19.701 13.414-32.264 13.414H82.224c-12.562 0-23.317-4.469-32.264-13.414-8.945-8.946-13.417-19.698-13.417-32.262V155.31c0-12.562 4.471-23.313 13.417-32.259 8.947-8.947 19.702-13.418 32.264-13.418h200.994c2.669 0 4.859-.859 6.57-2.57 1.711-1.713 2.566-3.9 2.566-6.567V82.221c0-2.662-.855-4.853-2.566-6.563-1.711-1.713-3.901-2.568-6.57-2.568H82.224c-22.648 0-42.016 8.042-58.102 24.125C8.042 113.297 0 132.665 0 155.313v237.542c0 22.647 8.042 42.018 24.123 58.095 16.086 16.084 35.454 24.13 58.102 24.13h237.543c22.647 0 42.017-8.046 58.101-24.13 16.085-16.077 24.127-35.447 24.127-58.095v-91.358c0-2.669-.856-4.859-2.574-6.57-1.713-1.718-3.903-2.573-6.565-2.573z"/><path d="M506.199 41.971c-3.617-3.617-7.905-5.424-12.85-5.424H347.171c-4.948 0-9.233 1.807-12.847 5.424-3.617 3.615-5.428 7.898-5.428 12.847s1.811 9.233 5.428 12.85l50.247 50.248-186.147 186.151c-1.906 1.903-2.856 4.093-2.856 6.563 0 2.479.953 4.668 2.856 6.571l32.548 32.544c1.903 1.903 4.093 2.852 6.567 2.852s4.665-.948 6.567-2.852l186.148-186.148 50.251 50.248c3.614 3.617 7.898 5.426 12.847 5.426s9.233-1.809 12.851-5.426c3.617-3.616 5.424-7.898 5.424-12.847V54.818c-.001-4.952-1.814-9.232-5.428-12.847z"/></g></symbol>
<symbol id="i-file" xmlns="http://www.w3.org/2000/svg" viewBox="0 0 436.907 436.907"><circle cx="218.453" cy="218.453" r="218.453" fill="#e05b49"/><path d="M145.376 105.021a7.62 7.62 0 00-7.62 7.62v211.625c0 1.935.744 3.681 1.931 5.025l-.015.014.152.152c.117.125.236.244.361.361l105.357 105.357c85.262-10.554 155.279-70.189 180.879-149.798L246.066 105.021h-100.69z" opacity=".1"/><path d="M145.376 105.021h100.689l53.085 53.085v166.16a7.62 7.62 0 01-7.62 7.62H145.376a7.62 7.62 0 01-7.62-7.62V112.641a7.62 7.62 0 017.62-7.62z" fill="#ebf0f3"/><path d="M253.686 158.106a7.62 7.62 0 01-7.62-7.62v-45.465l53.085 53.085h-45.465z" fill="#e1e6e9"/><g fill="#d5d6db"><path d="M153.59 176.951h129.741v5.762H153.59zM153.59 198.56h129.741v5.762H153.59zM153.59 220.201h129.741v5.762H153.59zM153.59 241.807h129.741v5.762H153.59zM153.59 263.448h129.741v5.762H153.59zM153.59 285.088h129.741v5.762H153.59zM153.59 306.729h129.741v5.762H153.59zM155.034 115.907h40.387v46.933h-40.387z"/></g></symbol>
<symbol id="i-github" xmlns="http://www.w3.org/2000/svg" viewBox="0 0 24 24"><path d="M-1-1h582v402H-1z" fill="none"/><circle cx="12" cy="12" fill="#434a54" r="11"/><path d="M14.313 18.941c0-.283.01-1.207.01-2.354 0-.8-.275-1.323-.582-1.59 1.91-.212 3.917-.937 3.917-4.233 0-.936-.333-1.702-.883-2.303.09-.216.383-1.088-.084-2.27 0 0-.72-.23-2.357.88a8.242 8.242 0 00-2.15-.29 8.216 8.216 0 00-2.147.29c-1.64-1.11-2.36-.88-2.36-.88-.466 1.182-.172 2.054-.083 2.27a3.32 3.32 0 00-.884 2.303c0 3.288 2.003 4.024 3.909 4.24-.245.215-.468.593-.545 1.148-.49.22-1.731.598-2.496-.713 0 0-.454-.824-1.316-.885 0 0-.837-.01-.058.522 0 0 .562.264.952 1.255 0 0 .504 1.532 2.891 1.013.004.717.012 1.392.012 1.597a.468.468 0 01-.052.215 7.967 7.967 0 004.404.073.45.45 0 01-.098-.288z" fill="#fff"/><path d="M4.222 19.778A10.966 10.966 0 0012 23c6.075 0 11-4.925 11-11 0-3.038-1.231-5.788-3.222-7.778z" fill="#231f20" opacity=".1"/></symbol>
<symbol id="i-instagram" xmlns="http://www.w3.org/2000/svg" viewBox="0 0 24 24"><path d="M-1-1h582v402H-1z" fill="none"/><circle cx="12" cy="12" fill="#f07" r="11"/><path d="M12.014 7.33c1.525 0 1.706.006 2.309.033.556.026.859.119 1.06.197.267.104.457.228.657.427s.324.39.428.657c.078.202.171.504.196 1.061.028.603.034.783.034 2.309s-.006 1.706-.034 2.309c-.025.557-.118.86-.196 1.06a1.77 1.77 0 01-.428.657c-.2.2-.39.324-.657.428-.2.078-.504.171-1.06.196-.603.028-.784.034-2.31.034s-1.705-.006-2.308-.034c-.557-.025-.86-.118-1.06-.196-.267-.104-.458-.228-.658-.428s-.323-.39-.427-.657c-.078-.2-.171-.504-.197-1.06-.027-.603-.033-.784-.033-2.31s.006-1.705.033-2.308c.026-.557.119-.86.197-1.06.104-.267.228-.458.427-.658s.39-.323.657-.427c.202-.078.504-.171 1.061-.197.603-.027.783-.033 2.309-.033m0-1.03c-1.552 0-1.746.007-2.356.035-.608.028-1.023.124-1.387.266a2.8 2.8 0 00-1.011.659 2.801 2.801 0 00-.66 1.012c-.14.363-.237.778-.265 1.386-.028.61-.034.804-.034 2.356 0 1.552.006 1.746.034 2.356.028.608.124 1.023.266 1.386a2.8 2.8 0 00.659 1.012 2.8 2.8 0 001.011.66c.364.14.78.237 1.387.265.61.028.804.034 2.356.034 1.551 0 1.746-.006 2.355-.034.609-.028 1.024-.124 1.387-.266a2.8 2.8 0 001.012-.659c.318-.317.513-.636.66-1.012.14-.363.237-.778.265-1.386.028-.61.034-.804.034-2.356 0-1.552-.006-1.746-.034-2.356-.028-.608-.125-1.023-.266-1.386a2.8 2.8 0 00-.659-1.012 2.8 2.8 0 00-1.012-.66c-.363-.14-.778-.237-1.387-.265-.609-.028-.804-.034-2.355-.034m0 2.78a2.934 2.934 0 100 5.867 2.934 2.934 0 000-5.868m0 4.838a1.904 1.904 0 110-3.808 1.904 1.904 0 010 3.808m3.735-4.954a.686.686 0 10-1.37 0 .686.686 0 001.37 0" fill="#fff"/><path d="M4.222 19.778A10.966 10.966 0 0012 23c6.075 0 11-4.925 11-11 0-3.038-1.231-5.788-3.222-7.778z" fill="#231f20" opacity=".1"/></symbol>
<symbol id="i-left-arrow" viewBox="0 0 492 492" xmlns="http://www.w3.org/2000/svg"><path fill="#92cc41" d="M464.344 207.418l.768.168H135.888l103.496-103.724c5.068-5.064 7.848-11.924 7.848-19.124s-2.78-14.012-7.848-19.088L223.28 49.538c-5.064-5.064-11.812-7.864-19.008-7.864-7.2 0-13.952 2.78-19.016 7.844L7.844 226.914C2.76 231.998-.02 238.77 0 245.974c-.02 7.244 2.76 14.02 7.844 19.096l177.412 177.412c5.064 5.06 11.812 7.844 19.016 7.844 7.196 0 13.944-2.788 19.008-7.844l16.104-16.112c5.068-5.056 7.848-11.808 7.848-19.008 0-7.196-2.78-13.592-7.848-18.652L134.72 284.406h329.992c14.828 0 27.288-12.78 27.288-27.6v-22.788c0-14.82-12.828-26.6-27.656-26.6z"/></symbol>
<symbol id="i-linkedin" xmlns="http://www.w3.org/2000/svg" viewBox="0 0 24 24"><path d="M-1-1h582v402H-1z" fill="none"/><circle cx="12" cy="12" fill="#0173b2" r="11"/><path d="M8.099 5.896c-.83 0-1.375.545-1.375 1.261 0 .701.526 1.25 1.34 1.25h.012c.847 0 1.375-.549 1.375-1.25C9.436 6.44 8.93 5.896 8.1 5.896zm7.16 3.352c-1.293 0-1.86.707-2.182 1.205v.023h-.023c.004-.006.019-.017.023-.023V9.419h-2.432c.032.685 0 7.296 0 7.296h2.432v-4.08c0-.218.015-.435.08-.59.175-.437.568-.887 1.238-.887.878 0 1.24.666 1.24 1.648v3.91h2.42v-4.183c0-2.243-1.2-3.285-2.796-3.285zm-8.387.17v7.297h2.432V9.42z" fill="#fff"/><path d="M4.222 19.778A10.966 10.966 0 0012 23c6.075 0 11-4.925 11-11 0-3.038-1.231-5.788-3.222-7.778z" fill="#231f20" opacity=".1"/></symbol>
<symbol id="i-menu" xmlns="http://www.w3.org/2000/svg" viewBox="0 0 32 32"><path d="M-1-1h582v402H-1z" fill="none"/><path d="M4 10h24a2 2 0 000-4H4a2 2 0 000 4zm24 4H4a2 2 0 000 4h24a2 2 0 000-4zm0 8H4a2 2 0 000 4h24a2 2 0 000-4z" fill="#92cc41"/></symbol>
<symbol id="i-nklogo" viewBox="0 0 144 114" xmlns="http://www.w3.org/2000/svg"><g fill="#92cc41"><path d="M77.82 108.25L27.74 60.59v37.17H5.33V5.22l50.08 47.53V11.16h22.41zM84.31 42.91L118.52 8.7l19.39 19.57L109 58.16l29.33 28.67-19.82 20.93-34.2-34.21z"/></g></symbol>
<symbol id="i-right-arrow" viewBox="0 0 492.004 492.004" xmlns="http://www.w3.org/2000/svg"><path fill="#92cc41" d="M484.14 226.886L306.46 49.202c-5.072-5.072-11.832-7.856-19.04-7.856-7.216 0-13.972 2.788-19.044 7.856l-16.132 16.136c-5.068 5.064-7.86 11.828-7.86 19.04 0 7.208 2.792 14.2 7.86 19.264L355.9 207.526H26.58C11.732 207.526 0 219.15 0 234.002v22.812c0 14.852 11.732 27.648 26.58 27.648h330.496L252.248 388.926c-5.068 5.072-7.86 11.652-7.86 18.864 0 7.204 2.792 13.88 7.86 18.948l16.132 16.084c5.072 5.072 11.828 7.836 19.044 7.836 7.208 0 13.968-2.8 19.04-7.872l177.68-177.68c5.084-5.088 7.88-11.88 7.86-19.1.016-7.244-2.776-14.04-7.864-19.12z"/></symbol>
<symbol id="i-natekelley" viewBox="0 0 336 77.75" xmlns="http://www.w3.org/2000/svg"><path d="M18 3h298v15h15v41h-13v14H18V60H3V18h15z" fill="#92cc41"/><g fill="#fff"><path d="M24.35 49.1V25.44h6.76v3.38h3.38v3.38h3.38v3.38h3.39V25.44H48V49.1h-6.74v-6.76h-3.39V39h-3.38v-3.42h-3.38V49.1zM50.45 49.1V32.2h3.38v-3.38h3.38v-3.38h10.14v3.38h3.38v3.38h3.38v16.9h-6.76v-6.76H57.21v6.76zM57.21 39h10.14v-6.8H64v-3.38h-3.41v3.38h-3.38zM86.69 49.1V28.82h-6.76v-3.38h20.28v3.38h-6.76V49.1zM102.65 49.1V25.44h23.66v3.38h-16.9v6.76h13.52V39h-13.52v6.76h16.9v3.34zM154.84 49.1V25.44h6.77v10.14H165V32.2h3.38v-3.38h3.38v-3.38h6.76v3.38h-3.38v3.38h-3.38v3.38h-3.38V39h3.38v3.38h3.38v3.38h3.38v3.34h-10.15v-3.38H165v-3.38h-3.38v6.76zM180.94 49.1V25.44h23.67v3.38H187.7v6.76h13.53V39H187.7v6.76h16.91v3.34zM210.42 49.1V25.44h6.76v20.28h13.53v3.38zM236.52 49.1V25.44h6.76v20.28h13.52v3.38zM259.24 49.1V25.44h23.66v3.38H266v6.76h13.52V39H266v6.76h16.9v3.34zM295.48 49.1V39h-3.38v-3.42h-3.38V25.44h6.76v10.14h6.76V25.44H309v10.14h-3.38V39h-3.38v10.1z"/></g></symbol>
</svg>