<svg height="291" viewBox="0 0 582 291" width="582" xmlns="http://www.w3.org/2000/svg"><circle cx="376.61" cy="271.11" fill="#bb3c85" r="9.8"/><path d="m529.1 192-38.25 30s-58.61 19.81-122.26 16l-256.21-3.87s-55-19-48.68-59.73l1.75-86.82s.71-35.75 42.21-32.36c0 0 30.31 8.27 24.1 41.35 0 0-14.41 27.81 27.08 31.2 0 0 33.34-4.44 28.47-37.74 0 0 12.62-76.39-78.63-85.88 0 0-85.65-11.94-98.73 87.42l-2.15 107.25s6.87 71.66 123 84.22l238.2 4.78s129.19 10.18 189.13-42.82l12.38-31z" fill="#d54989"/><g fill="#bb3c85"><circle cx="436.47" cy="270.73" r="5.01"/><circle cx="68.47" cy="224.73" r="5.01"/><circle cx="157.47" cy="91.73" r="5.01"/><path d="m257.64 246a21.08 21.08 0 0 1 12.05 38.37c-3.41 2.39-7.21.63-11.69.63-2.51 0-7.77.8-10 0-8.13-2.93-11.44-8.79-11.44-17.92a21.08 21.08 0 0 1 21.08-21.08z"/><circle cx="27.61" cy="154.11" r="9.8"/><circle cx="104.61" cy="32.11" r="9.8"/></g></svg>