<svg height="498" viewBox="0 0 383 498" width="383" xmlns="http://www.w3.org/2000/svg"><path d="m347.45 358s-49.92 39.35-86.26 7c-33.46-29.75-62.11-131.93-67.39-150.38-.54-1.88-7.3-19.39-8.12-21.17-7.31-15.86-45-87-119.41-55 0 0-98.48 39.16-39.09 154.65 0 0 43.79 84.61 124.82 47.4 0 0 16.7-4 10.18-26.77 0 0-6.78-18.12-25.25-13.5 0 0-61.8 34.61-86.36-52.6 0 0-19.86-47.66 34.32-70.24 0 0 55.12-27.18 85.25 84.62 1.61 6 4.77 15.55 6.93 21.34l27 72.1s39.93 90.55 134.64 57.43l28.36-10.61z" fill="#f16da9"/><path d="m135 33.71c-27.85 18.06-32.4 41.7-32.41 41.75l-.19 1 .76-.64a95.62 95.62 0 0 1 8.89-6.82 172.19 172.19 0 0 0 -5.15 34c0 .94-.21 1.75-.24 2.49a3.8 3.8 0 0 1 -.18 1.18 3.72 3.72 0 0 1 -.88 1.32c-.33.38-2.21 1.75-2.21 1.76l-.87.64-.66.45-.44-1.84c-3.73-17.43-5.86-28.41-7.29-36.64-1.52-8.81-2.23-14.49-3.21-21.61 2.22 1.25 9 5.13 9 5.13l.72.42-.21-.81a140.84 140.84 0 0 0 -13.77-32.49c-1.32-2.27-2.58-4.24-3.77-5.93-4-5.72-7.41-10.18-7.57-10.39l-.41-.53-.2.63c-.08.26-1.79 5.6-3.65 12.34-.54 2-1.08 4.26-1.54 6.85a139.87 139.87 0 0 0 -2 35.22l.06.83.54-.62s5.09-5.94 6.76-7.86c1.47 7 2.71 12.62 4.24 21.43 1.42 8.23 3.09 19.29 5.43 37l.21 1.88c-.66-.14-1.84-.52-1.84-.52s-2.24-.66-2.68-.9a4.06 4.06 0 0 1 -1.27-.95 3.73 3.73 0 0 1 -.56-1.05c-.29-.69-.72-1.4-1.06-2.27a172.81 172.81 0 0 0 -16.29-30.3 94.18 94.18 0 0 1 10.69 3.35l.93.35-.51-.85s-12.25-20.79-44.55-28.44l-1-.25.7.81s4.77 5.54 10.33 12.9 11.9 16.56 15.08 23.82c3 6.73 12.25 28.61 15.59 47.92.33 1.95.61 3.85.81 5.73l.68.07s.68-2.16 1.57-4.69a64.91 64.91 0 0 1 2.44-6.14l15.08 49.24.68-.14-4.11-38.11 76.84 344.35 6.59-1.15-57.82-347.63 8.92 37.27.69-.09-2.33-51.45a62.08 62.08 0 0 1 4.36 5c1.69 2.09 3 3.89 3 3.89l.62-.29c-.44-1.83-.83-3.73-1.16-5.67-3.34-19.31-1.93-43-1.41-50.38.56-7.9 3.47-18.7 6.24-27.5s5.4-15.62 5.4-15.63l.39-1-.9.59m-24.9 175.26-14.68-50.74 5.73-1 5.74-1zm-3.56-58.73.3 4.26-6 1-6 1-1.16-4.12v-.17l12.78-2.22zm-11.78.07-.55-3.21 2.08-.37 3-.51 3-.51 2.09-.37.56 3.23zm10.63-6.92-6.43 1.11-6.44 1.11-.76-4.41 12.85-2.23zm24.64-101.63c-11.17 25.83-10.7 52.2-9.38 77.83v.75l-3.84-2.37-14 10.49 1.47 8.66-6.4 1.1-6.4 1.11-1.54-8.65-16.71-5.18-2.87 3.53-.21-.73c-7.36-24.58-15.78-49.58-35-70.15l-.29-.31.41.11c1.25.36 2.42.73 3.56 1.09 10.15 3.34 16.51 7.44 25.36 16.08l2 1.71c-2-.55-4.77-1.35-7.44-1.83-1-.17-2.75-.37-2.75-.37.46.53 1.36 1.61 1.69 2 7.11 9 13.82 26.23 17.12 34.72l1 2.52a3 3 0 0 0 .78 1.1 2.94 2.94 0 0 0 1.1.62l5 1.32 2.38.63a2.34 2.34 0 0 0 .88 0 1.76 1.76 0 0 0 1.2-.79.47.47 0 0 0 .07-.12 2.37 2.37 0 0 0 .32-1.58c-.06-.76-.14-1.54-.22-2.36-.24-2.38-.55-5-.92-7.81-1.95-14.84-5.49-34.42-7.66-46.4-.72-3.95-1.34-7.38-1.78-10 .65-1 1.68-2.43 2-2.86a18.46 18.46 0 0 0 -2.53 1.92c-.61.52-1.28 1.14-2 1.87a39.48 39.48 0 0 0 -3 3.56q-.37.48-.75 1l-.22.31v-.38c.18-8.14.26-14.31 1-20.28a74.85 74.85 0 0 1 1.23-7.65c.81-3.7 1.71-9 3.35-13.46v-.17l.12.14c3 3.68 5.66 8.34 7.67 11.55a77 77 0 0 1 3.76 6.76c2.65 5.4 4.8 11.18 7.71 18.78l.13.36-.31-.21c-.35-.24-.69-.47-1-.68a39.22 39.22 0 0 0 -4.02-2.27c-.92-.44-1.76-.8-2.5-1.09a19.51 19.51 0 0 0 -3-1l2.82 2c.45 2.59 1 6 1.67 10 2 12 5.22 31.63 8.37 46.27.59 2.76 1.18 5.35 1.75 7.67.2.79.4 1.55.59 2.29a2.43 2.43 0 0 0 .82 1.39s.07.06.12.09a1.74 1.74 0 0 0 1.39.33 2.23 2.23 0 0 0 .81-.34l2-1.4 4.27-2.92a2.93 2.93 0 0 0 .83-.95 2.78 2.78 0 0 0 .37-1.3c0-.75.06-1.66.08-2.7.26-9.11.79-27.57 4.46-38.46.17-.5.67-1.82.91-2.47 0 0-1.63.78-2.46 1.26-2.36 1.35-4.71 3-6.4 4.23l1.34-2.3c5.44-11.1 10-17.11 18.5-23.66.94-.73 1.92-1.47 3-2.22l.35-.25z" fill="#4c3837" stroke="#4c3837" stroke-miterlimit="10"/><g fill="#ffc629" opacity=".88"><path d="m126.78 43.88c-8.45 6.55-13.06 12.55-18.5 23.65l-1.34 2.3c1.7-1.19 4-2.87 6.4-4.23.83-.48 2.46-1.26 2.46-1.26-.24.65-.74 2-.91 2.48-3.67 10.88-4.2 29.34-4.46 38.45 0 1-.06 1.95-.08 2.7a2.78 2.78 0 0 1 -.37 1.3 3.11 3.11 0 0 1 -.83 1l-6.3 4.3a2 2 0 0 1 -.81.35 1.78 1.78 0 0 1 -1.39-.33s-.08-.07-.12-.09a2.43 2.43 0 0 1 -.82-1.39c-.19-.73-.39-1.5-.59-2.29-.57-2.32-1.16-4.91-1.75-7.67-3.19-14.66-6.44-34.28-8.37-46.29-.65-4-1.22-7.41-1.67-10l-2.82-2a19.53 19.53 0 0 1 3 1c.75.3 1.58.66 2.5 1.1a40.05 40.05 0 0 1 3.99 2.12l1 .68.31.22-.13-.36c-2.9-7.6-5.06-13.39-7.72-18.78a74.18 74.18 0 0 0 -3.75-6.75c-2-3.21-4.62-7.88-7.67-11.56l-.04-.14v.17c-1.7 4.49-2.6 9.77-3.41 13.44a74 74 0 0 0 -1.26 7.61c-.7 6-.78 12.15-1 20.29v.38l.22-.3c.25-.34.5-.68.75-1a39.48 39.48 0 0 1 3.08-3.52c.71-.72 1.38-1.35 2-1.88a20 20 0 0 1 2.53-1.91c-.29.42-1.32 1.91-2 2.87.44 2.59 1.06 6 1.78 10 2.18 12 5.71 31.55 7.66 46.4.37 2.8.68 5.42.92 7.81.08.81.15 1.59.22 2.35a2.37 2.37 0 0 1 -.32 1.58.83.83 0 0 1 -.07.13 1.74 1.74 0 0 1 -1.2.78 2.12 2.12 0 0 1 -.88-.06l-2.38-.53-5-1.32a3 3 0 0 1 -1.09-.62 2.69 2.69 0 0 1 -.78-1.1c-.28-.69-.61-1.54-1-2.51-3.3-8.5-10-25.71-17.12-34.73-.33-.41-1.23-1.5-1.69-2 0 0 1.8.2 2.75.36 2.67.49 5.45 1.3 7.45 1.84l-2-1.71c-8.9-8.67-15.27-12.78-25.42-16.11-1.14-.37-2.32-.74-3.55-1.09l-.42-.12.29.31c19.2 20.57 27.62 45.58 35 70.16l.21.72 2.87-3.53 16.71 5.18 1.54 8.65 6.4-1.11 6.4-1.1-1.47-8.66 14-10.49 3.88 2.35v-.74c-1.32-25.64-1.79-52 9.38-77.84l.18-.39-.35.25c-1 .75-2 1.49-3 2.23"/><path d="m91.65 141.21.76 4.41 6.43-1.11 6.44-1.11-.76-4.41z"/><path d="m95.32 158.26 23.35 98.58-11.88-100.56-5.74.99z"/><path d="m100 151.17-6.39 1.11-.03.01.05.17 1.15 4.12 5.98-1.04 5.97-1.03-.3-4.26-.01-.19-.03.01z"/><path d="m104.75 148.57-.56-3.22-2.08.37-5.92 1.02-2.09.36.56 3.23z"/></g><path d="m66.27 138.4s-98.48 39.16-39.09 154.65c0 0 43.79 84.61 124.82 47.4 0 0 16.7-4 10.18-26.77 0 0-6.78-18.12-25.25-13.5 0 0-61.8 34.61-86.36-52.6 0 0-19.86-47.66 34.32-70.24" fill="#f16da9"/></svg>