<svg height="307" viewBox="0 0 552 307" width="552" xmlns="http://www.w3.org/2000/svg"><path d="m19 248s173 56 306 40c0 0 131-5 185-71 0 0 60-67-16-165 0 0-61.74-87.36-177.5-19.5-116 68-113 92-113 92s-22.32 71.28 66-3c0 0 82-61 111-58 0 0 88-10 88 79 0 0 1 94-210 90 0 0-180-16-212-40s-27.5 55.5-27.5 55.5z" fill="#d54989"/><path d="m510 216s60-67-16-165c0 0-74-87-188-19-77.88 46.46-74 72-74 72s-17 60 50 8c0 0 69.5-52.5 98.5-49.5 0 0 88-10 88 79" fill="#d54989"/><g fill="#bb3c85"><circle cx="147.28" cy="260.72" r="10.72"/><circle cx="467.28" cy="217.72" r="10.72"/><circle cx="252.28" cy="101.72" r="5.72"/><circle cx="311.28" cy="47.72" r="5.72"/><circle cx="509.28" cy="163.72" r="5.72"/><circle cx="456.16" cy="48.23" r="8.78"/><circle cx="68.61" cy="221.11" r="9.8"/></g></svg>