<svg height="345" viewBox="0 0 539 345" width="539" xmlns="http://www.w3.org/2000/svg"><g fill="#bb3c85"><path d="m510.36 276.59s-64.42 40.3-102.47 17.92c-35.05-20.61-53.89-103.34-57.48-118.26-.36-1.52-5.77-15.44-6.47-16.83-6.3-12.45-40.26-67.61-132.47-30.18 0 0-93.62 61.72-133.24-23.9 0 0-23.88-96.73-61.95-89.46 0 0-23.17 5.48-5 64.88 0 0 13.69 41.89 26.7 54 0 0 7.16 13.89 33.86 39.38 0 0 31.81 35.4 155.86-14.4 0 0 68.78-30.7 88 60a149.14 149.14 0 0 0 5.06 17.14l21.29 57.44s33.89 71.36 150 30.13l34.95-12.99z"/><circle cx="423.47" cy="314.73" r="5.01"/></g></svg>