<svg height="299" viewBox="0 0 536 299" width="536" xmlns="http://www.w3.org/2000/svg"><path d="m8 252s173 56 306 40c0 0 131-5 185-71 0 0 60-67-16-165 0 0-61.74-87.36-177.5-19.5-116 68-92.5 96.5-92.5 96.5s-42.82 66.78 45.5-7.5c0 0 82-61 111-58 0 0 88-10 88 79 0 0 1 94-210 90 0 0-180-16-212-40s-27.5 55.5-27.5 55.5z" fill="#d54989"/><circle cx="136.28" cy="264.72" fill="#bb3c85" r="10.72"/><circle cx="456.28" cy="221.72" fill="#bb3c85" r="10.72"/><circle cx="498.28" cy="167.72" fill="#bb3c85" r="5.72"/><circle cx="57.61" cy="225.11" fill="#bb3c85" r="9.8"/><g fill="#1a1a1a" opacity=".08"><path d="m191.06 138.25h234.98v120.17h-234.98z" transform="matrix(.9961947 -.08715574 .08715574 .9961947 -16.12 27.66)"/><rect height="25.75" rx="3.32" transform="matrix(1 -.09 .09 1 -21.32 28.35)" width="249.47" x="189.06" y="245.32"/><circle cx="205.22" cy="267.7" r="2.67"/><path d="m186.99 138.43h234.98v26.82h-234.98z" opacity=".25" transform="matrix(.9961947 -.08715574 .08715574 .9961947 -12.08 27.13)"/><rect height="25.75" rx="3.32" transform="matrix(.9961947 -.08715574 .08715574 .9961947 -8.23 26.62)" width="249.47" x="175.87" y="94.6"/><rect height="25.75" rx="3.32" transform="matrix(.9961947 -.08715574 .08715574 .9961947 -10.46 26.92)" width="249.47" x="178.11" y="120.26"/><path d="m177.75 134.49.38 4.31 248.52-21.8-.38-4.3a3.32 3.32 0 0 0 -3.6-3l-241.9 21.17a3.32 3.32 0 0 0 -3.02 3.62z"/><path d="m415.46 94.75a2.66 2.66 0 1 0 2.88 2.42 2.67 2.67 0 0 0 -2.88-2.42z"/><path d="m417.7 120.4a2.67 2.67 0 1 0 2.89 2.43 2.66 2.66 0 0 0 -2.89-2.43z"/><path d="m360.52 125.41a2.66 2.66 0 1 0 2.88 2.42 2.67 2.67 0 0 0 -2.88-2.42z"/><path d="m249 109.32a2.66 2.66 0 1 0 2.88 2.43 2.67 2.67 0 0 0 -2.88-2.43z"/><path d="m191.79 114.33a2.67 2.67 0 1 0 2.89 2.42 2.66 2.66 0 0 0 -2.89-2.42z"/><circle cx="251.45" cy="137.63" r="2.67"/><circle cx="194.27" cy="142.64" r="2.67"/><path d="m428.65 245.46a2.66 2.66 0 1 0 2.89 2.43 2.66 2.66 0 0 0 -2.89-2.43z"/><path d="m371.46 250.47a2.67 2.67 0 1 0 2.89 2.42 2.67 2.67 0 0 0 -2.89-2.42z"/><circle cx="313.79" cy="258.19" r="2.67"/><circle cx="262.4" cy="262.69" r="2.67"/></g><path d="m195.2 136.18h234.98v120.17h-234.98z" fill="#6c534f" transform="matrix(.9961947 -.08715574 .08715574 .9961947 -15.92 28.02)"/><rect fill="#a06b52" height="25.75" rx="3.32" transform="matrix(1 -.09 .09 1 -20.95 28.6)" width="249.47" x="192.16" y="241.18"/><path d="m189.59 134.31h234.98v15.29h-234.98z" fill="#8c7261" opacity=".25" transform="matrix(.9961947 -.08715574 .08715574 .9961947 -11.21 27.32)"/><rect fill="#a06b52" height="25.75" rx="3.32" transform="matrix(.9961947 -.08715574 .08715574 .9961947 -7.85 26.88)" width="249.47" x="178.97" y="90.47"/><rect fill="#a06b52" height="25.75" rx="3.32" transform="matrix(.9961947 -.08715574 .08715574 .9961947 -10.08 27.17)" width="249.47" x="181.21" y="116.12"/><path d="m180.86 130.35.37 4.31 248.52-21.75-.38-4.31a3.32 3.32 0 0 0 -3.59-3l-241.91 21.16a3.32 3.32 0 0 0 -3.01 3.59z" fill="#875a45"/><path d="m418.56 90.61a2.66 2.66 0 1 0 2.89 2.39 2.66 2.66 0 0 0 -2.89-2.39z" fill="#c49a6c"/><path d="m361.37 95.62a2.67 2.67 0 1 0 2.89 2.38 2.66 2.66 0 0 0 -2.89-2.38z" fill="#c49a6c"/><path d="m420.8 116.26a2.67 2.67 0 1 0 2.89 2.43 2.67 2.67 0 0 0 -2.89-2.43z" fill="#c49a6c"/><path d="m363.62 121.27a2.66 2.66 0 1 0 2.89 2.42 2.66 2.66 0 0 0 -2.89-2.42z" fill="#c49a6c"/><path d="m252.08 105.18a2.67 2.67 0 1 0 2.89 2.43 2.67 2.67 0 0 0 -2.89-2.43z" fill="#c49a6c"/><path d="m194.89 110.19a2.67 2.67 0 1 0 2.89 2.42 2.67 2.67 0 0 0 -2.89-2.42z" fill="#c49a6c"/><circle cx="254.56" cy="133.49" fill="#c49a6c" r="2.67"/><circle cx="197.37" cy="138.5" fill="#c49a6c" r="2.67"/><g fill="#ba9b4d" opacity=".2"><path d="m231.84 182.18a7.38 7.38 0 0 1 6.11-4.75 7.58 7.58 0 0 1 5.26 1.59c1.38 1.13 2.1 2.4 2.72 4.87l7.76 29.49a12.83 12.83 0 0 1 .5 2.56 7.38 7.38 0 0 1 -6.54 8.17 7 7 0 0 1 -7.8-5.14l-2.45-8.56-2.13 8.51c-1.1 4.33-3.51 6.75-7 7.09s-6.12-1.37-8-5.54l-3.68-8-.59 7.53c-.33 4.53-2.89 7.53-6.7 7.9-4.34.43-7.72-2.75-8.16-7.64a14.9 14.9 0 0 1 0-1.89l2.4-30.28c.33-4.54 2.76-7.52 6.57-7.9a8 8 0 0 1 7.8 4.44l8 14.77z"/><path d="m264.5 207.75a7.16 7.16 0 0 1 7.66 6.56 7.33 7.33 0 0 1 -6.35 8 7.07 7.07 0 0 1 -7.6-6.65 7.15 7.15 0 0 1 6.29-7.91z"/><path d="m276.37 210.24a6.87 6.87 0 0 1 6.05-7.63 7.56 7.56 0 0 1 5.41 1.72c3.44 2.27 3.86 2.51 4.93 2.4a1.88 1.88 0 0 0 1.69-2.21 2.2 2.2 0 0 0 -1.31-1.84 12 12 0 0 0 -3.06-1c-1.24-.3-2.48-.6-3.72-1-6.69-1.73-10.29-5.81-10.87-12.3-.81-9.06 5.31-15.93 15-16.88 8-.79 14.68 3.06 15.2 8.78.33 3.7-1.84 6.59-5.18 6.91-2 .2-3.66-.34-6.31-2.05-1.65-1.18-2.42-1.45-3.22-1.37a1.83 1.83 0 0 0 -1.57 2c.12 1.4 1.11 1.93 4.69 2.77a28.07 28.07 0 0 1 9.92 4c2.95 2.1 5.06 6.11 5.45 10.51a16.54 16.54 0 0 1 -3.21 11.5c-2.72 3.44-6.59 5.36-12.06 5.9-9.49.86-17.2-3.58-17.83-10.21z"/><path d="m320.84 202.21a7.16 7.16 0 0 1 7.66 6.57 7.32 7.32 0 0 1 -6.35 8 7.07 7.07 0 0 1 -7.6-6.64 7.16 7.16 0 0 1 6.29-7.93z"/></g><g fill="#c49a6c"><path d="m213.3 268a1.76 1.76 0 0 1 -1.92-1.64 2 2 0 0 1 .15-1l2.8-7.5a1.78 1.78 0 0 1 1.55-1.21 1.81 1.81 0 0 1 1.77.95l4 7a1.82 1.82 0 0 1 .28.84 1.8 1.8 0 0 1 -1.66 1.93c-.83.07-1.35-.28-2-1.35l-3.32.28c-.29 1.14-.79 1.62-1.65 1.7zm3.71-4.42-.66-1.26-.44 1.35z"/><path d="m231 263.58a2.37 2.37 0 0 1 .44 1.13 1.77 1.77 0 0 1 -1.65 1.91 1.69 1.69 0 0 1 -1.55-.71l-1.69-2.34.13 1.49a1.76 1.76 0 0 1 -1.61 1.95 1.82 1.82 0 0 1 -1.46-.54 2.39 2.39 0 0 1 -.55-1.49l-.56-6.69a1.88 1.88 0 0 1 .46-1.65 2.1 2.1 0 0 1 1.59-.61l1.49-.12a6.13 6.13 0 0 1 1.76 0 3.9 3.9 0 0 1 2.24 6.37zm-4.71-3.17h.15.24c.54 0 .8-.25.77-.64s-.35-.57-.88-.51h-.38z"/><path d="m236.47 264a2 2 0 0 1 -.33 1.5 1.84 1.84 0 0 1 -2.67.26 2 2 0 0 1 -.58-1.47l-.56-6.72c-.08-.91 0-1.25.32-1.68a1.68 1.68 0 0 1 1.27-.7 1.83 1.83 0 0 1 1.38.46 2.14 2.14 0 0 1 .61 1.62z"/><path d="m239 258.17a1.64 1.64 0 0 1 -1.92-1.49 1.62 1.62 0 0 1 .45-1.3 2 2 0 0 1 1.35-.54l4.79-.4a2.28 2.28 0 0 1 1.54.21 1.58 1.58 0 0 1 .81 1.26 1.87 1.87 0 0 1 -.41 1.3l-2.83 4.84 1.79-.14a2.12 2.12 0 0 1 1.51.23 1.6 1.6 0 0 1 .78 1.28 1.68 1.68 0 0 1 -.51 1.37 2 2 0 0 1 -1.43.48l-5.28.44a1.68 1.68 0 0 1 -1.93-1.54 2 2 0 0 1 .25-1.07l3-5.09z"/><path d="m252.34 253.45a5.72 5.72 0 1 1 -5.25 6.11 5.72 5.72 0 0 1 5.25-6.11zm.67 7.85a2.18 2.18 0 0 0 2-2.33 2.14 2.14 0 0 0 -2.31-1.92 2.11 2.11 0 0 0 -2 2.26 2.16 2.16 0 0 0 2.3 1.99z"/><path d="m265.72 254.73a2.13 2.13 0 0 1 .21-1.44 1.79 1.79 0 0 1 1.4-.91 1.81 1.81 0 0 1 1.42.54 2 2 0 0 1 .54 1.4l.56 6.64a2.3 2.3 0 0 1 -.26 1.66 1.78 1.78 0 0 1 -1.34.79 1.71 1.71 0 0 1 -1.48-.62l-3.14-3.39.19 2.28a1.93 1.93 0 0 1 -.29 1.46 1.78 1.78 0 0 1 -1.33.77 1.83 1.83 0 0 1 -1.49-.58 2.27 2.27 0 0 1 -.5-1.5l-.57-6.87a1.79 1.79 0 0 1 1.71-2.08 1.64 1.64 0 0 1 1.39.61l3.15 3.26z"/><path d="m273 263a1.77 1.77 0 0 1 -1.93-1.64 2.17 2.17 0 0 1 .15-1l2.8-7.5a1.8 1.8 0 0 1 1.56-1.21 1.84 1.84 0 0 1 1.77 1l4 7a2 2 0 0 1 .29.84 1.81 1.81 0 0 1 -1.66 1.93c-.83.07-1.35-.28-1.95-1.35l-3.32.28c-.39 1.11-.89 1.59-1.71 1.65zm3.71-4.42-.66-1.26-.45 1.35z"/><path d="m287.22 259.25a1.64 1.64 0 0 1 1.5-1.77 1.92 1.92 0 0 1 1.31.42c.83.54.94.59 1.2.57a.43.43 0 0 0 .41-.51.49.49 0 0 0 -.31-.43 2.72 2.72 0 0 0 -.74-.25c-.3-.07-.61-.15-.91-.24a3.09 3.09 0 0 1 -2.62-2.89c-.18-2.12 1.33-3.71 3.69-3.9 2-.17 3.58.75 3.69 2.08a1.4 1.4 0 0 1 -1.28 1.6 2.34 2.34 0 0 1 -1.53-.49c-.4-.28-.59-.35-.78-.33a.43.43 0 0 0 -.39.46c0 .32.26.45 1.13.66a7 7 0 0 1 2.41.94 3.38 3.38 0 0 1 1.31 2.47 3.75 3.75 0 0 1 -.81 2.67 4 4 0 0 1 -3 1.35c-2.27.19-4.15-.86-4.28-2.41z"/><path d="m297.6 253.3a1.68 1.68 0 0 1 -2-1.51 1.72 1.72 0 0 1 .8-1.57c.36-.2.51-.23 1.92-.34l3.62-.31a8.57 8.57 0 0 1 1.22-.07 1.64 1.64 0 0 1 1.61 1.51 1.82 1.82 0 0 1 -.48 1.34 2 2 0 0 1 -1.35.5l-.8.07.45 5.41a2.51 2.51 0 0 1 -.19 1.41 1.74 1.74 0 0 1 -1.42.93 1.81 1.81 0 0 1 -1.54-.62 2.22 2.22 0 0 1 -.43-1.39l-.46-5.44z"/><path d="m306.5 260.21a1.77 1.77 0 0 1 -1.93-1.64 2.33 2.33 0 0 1 .15-1l2.8-7.5a1.81 1.81 0 0 1 1.56-1.21 1.84 1.84 0 0 1 1.77.95l4 7a1.8 1.8 0 0 1 -1.38 2.77c-.83.07-1.35-.28-1.95-1.35l-3.32.28c-.34 1.15-.84 1.63-1.7 1.7zm3.71-4.42-.66-1.26-.45 1.35z"/><path d="m315.7 251.79a1.75 1.75 0 0 1 -1.39-.36 1.67 1.67 0 0 1 .2-2.72c.36-.2.51-.23 1.92-.34l3.62-.31a8.57 8.57 0 0 1 1.22-.07 1.65 1.65 0 0 1 1.61 1.51 1.87 1.87 0 0 1 -.48 1.34 2 2 0 0 1 -1.36.5l-.79.07.45 5.41a2.42 2.42 0 0 1 -.2 1.41 1.71 1.71 0 0 1 -1.41.93 1.84 1.84 0 0 1 -1.55-.62 2.29 2.29 0 0 1 -.42-1.39l-.46-5.44z"/><path d="m329.72 254.82a2 2 0 0 1 1.53.28 1.67 1.67 0 0 1 .69 1.22 1.73 1.73 0 0 1 -.48 1.35c-.33.33-.63.43-1.45.5l-2.78.23a3.47 3.47 0 0 1 -1.38 0 1.66 1.66 0 0 1 -1.14-1.22 4.6 4.6 0 0 1 -.15-1.07l-.49-5.89a2.68 2.68 0 0 1 .05-1.38 1.59 1.59 0 0 1 .78-1 3.2 3.2 0 0 1 1.54-.31l2.15-.18a4.57 4.57 0 0 1 1.37 0 1.59 1.59 0 0 1 1.37 1.46 1.72 1.72 0 0 1 -.48 1.37 1.9 1.9 0 0 1 -1.33.5l-1.79.15.06.75 1.42-.12a1.3 1.3 0 0 1 1.55 1.17 1.32 1.32 0 0 1 -.38 1.06 1.6 1.6 0 0 1 -1.09.37l-1.29.11.07.81z"/><path d="m341.3 252.65c.06.78.46 1.23 1.08 1.18s.94-.54.88-1.29l-.36-4.33c-.07-.8 0-1.05.27-1.47a1.81 1.81 0 0 1 1.32-.8 1.92 1.92 0 0 1 1.46.54c.38.37.48.69.56 1.67l.33 3.86a4.81 4.81 0 0 1 -.86 3.5 4.6 4.6 0 0 1 -8.3-2.74l-.31-3.82c-.09-1-.05-1.3.23-1.73a2 2 0 0 1 1.36-.82 1.9 1.9 0 0 1 1.36.46 2 2 0 0 1 .62 1.51z"/><path d="m354.14 247.35a2.13 2.13 0 0 1 .21-1.44 1.76 1.76 0 0 1 2.82-.37 2.07 2.07 0 0 1 .55 1.4l.55 6.64a2.36 2.36 0 0 1 -.25 1.66 1.82 1.82 0 0 1 -1.35.79 1.72 1.72 0 0 1 -1.48-.62l-3.13-3.41.19 2.28a1.93 1.93 0 0 1 -.29 1.46 1.79 1.79 0 0 1 -1.33.77 1.82 1.82 0 0 1 -1.49-.58 2.22 2.22 0 0 1 -.51-1.5l-.57-6.87a1.79 1.79 0 0 1 1.71-2.08 1.66 1.66 0 0 1 1.4.61l3.14 3.26z"/><path d="m363.57 253.37a2 2 0 0 1 -.33 1.5 1.91 1.91 0 0 1 -1.29.72 1.93 1.93 0 0 1 -1.38-.46 1.91 1.91 0 0 1 -.58-1.46l-.57-6.73c-.07-.91 0-1.24.32-1.68a1.78 1.78 0 0 1 1.27-.7 1.84 1.84 0 0 1 1.39.46 2.14 2.14 0 0 1 .61 1.62z"/><path d="m371.17 244.83a1.82 1.82 0 0 1 1.57-1.25 1.79 1.79 0 0 1 1.94 1.61 2 2 0 0 1 -.13.87l-2.76 7.49a1.86 1.86 0 0 1 -1.65 1.35 1.8 1.8 0 0 1 -1.78-1l-3.94-6.9a2.27 2.27 0 0 1 -.34-1 1.8 1.8 0 0 1 1.67-1.89 1.85 1.85 0 0 1 1.85 1.14l2.07 3.93z"/><path d="m381.49 250.5a2 2 0 0 1 1.53.28 1.67 1.67 0 0 1 .69 1.22 1.77 1.77 0 0 1 -.47 1.35 2 2 0 0 1 -1.46.5l-2.78.23a3.47 3.47 0 0 1 -1.38 0 1.63 1.63 0 0 1 -1.13-1.22 3.86 3.86 0 0 1 -.16-1.07l-.49-5.89a2.68 2.68 0 0 1 .05-1.38 1.59 1.59 0 0 1 .78-1 3.2 3.2 0 0 1 1.54-.31l2.15-.18a4.21 4.21 0 0 1 1.37 0 1.59 1.59 0 0 1 1.37 1.46 1.72 1.72 0 0 1 -.48 1.37 1.93 1.93 0 0 1 -1.33.5l-1.79.15.06.75 1.42-.12a1.3 1.3 0 0 1 1.55 1.17 1.32 1.32 0 0 1 -.38 1.06 1.6 1.6 0 0 1 -1.09.37l-1.28.11.06.81z"/><path d="m392.88 250.07a2.18 2.18 0 0 1 .44 1.13 1.75 1.75 0 0 1 -1.64 1.91 1.68 1.68 0 0 1 -1.55-.71l-1.69-2.34.12 1.49a1.75 1.75 0 0 1 -1.6 1.95 1.82 1.82 0 0 1 -1.46-.54 2.37 2.37 0 0 1 -.55-1.49l-.56-6.69a1.91 1.91 0 0 1 .45-1.65 2.1 2.1 0 0 1 1.59-.61l1.5-.12a6.13 6.13 0 0 1 1.76 0 3.9 3.9 0 0 1 3.16 3.5 3.84 3.84 0 0 1 -.93 2.87zm-4.7-3.17h.14.25c.54 0 .8-.25.76-.64s-.34-.57-.88-.51h-.37z"/><path d="m394.42 250.3a1.61 1.61 0 0 1 1.49-1.76 1.89 1.89 0 0 1 1.31.41c.83.54.94.6 1.2.58a.44.44 0 0 0 .41-.52.5.5 0 0 0 -.31-.43 3.63 3.63 0 0 0 -.74-.25c-.3-.07-.61-.14-.91-.23a3.12 3.12 0 0 1 -2.62-2.9c-.17-2.12 1.33-3.7 3.69-3.9 2-.16 3.58.75 3.69 2.09a1.4 1.4 0 0 1 -1.28 1.6 2.3 2.3 0 0 1 -1.53-.5c-.4-.28-.59-.34-.78-.33a.43.43 0 0 0 -.39.46c0 .33.27.45 1.14.66a7 7 0 0 1 2.4.95 3.38 3.38 0 0 1 1.31 2.46 3.78 3.78 0 0 1 -.81 2.68 4.08 4.08 0 0 1 -3 1.34c-2.27.2-4.15-.86-4.27-2.41z"/><path d="m407.54 249.7a2 2 0 0 1 -.34 1.5 1.87 1.87 0 0 1 -1.28.72 1.91 1.91 0 0 1 -1.38-.46 2 2 0 0 1 -.54-1.46l-.56-6.73c-.07-.91 0-1.24.32-1.68a1.78 1.78 0 0 1 1.27-.7 1.82 1.82 0 0 1 1.38.46 2.14 2.14 0 0 1 .59 1.65z"/><path d="m410.06 243.91a1.75 1.75 0 0 1 -1.39-.36 1.69 1.69 0 0 1 -.61-1.14 1.73 1.73 0 0 1 .8-1.58c.37-.19.51-.22 1.93-.34l3.61-.3a6 6 0 0 1 1.23-.07 1.63 1.63 0 0 1 1.6 1.51 1.79 1.79 0 0 1 -.48 1.33 2 2 0 0 1 -1.35.51l-.8.06.45 5.41a2.41 2.41 0 0 1 -.19 1.41 1.71 1.71 0 0 1 -1.42.94 1.79 1.79 0 0 1 -1.54-.63 2.2 2.2 0 0 1 -.43-1.39l-.45-5.44z"/><path d="m424.78 248.11a2.33 2.33 0 0 1 -.2 1.4 1.81 1.81 0 0 1 -1.43 1 1.84 1.84 0 0 1 -1.57-.71 2.37 2.37 0 0 1 -.42-1.35l-.16-2.45-2.71-3.36a1.88 1.88 0 0 1 -.45-1.06 1.77 1.77 0 0 1 1.63-1.89 2 2 0 0 1 1.65.71l1.4 1.57 1.17-1.83a2 2 0 0 1 1.45-.93 1.81 1.81 0 0 1 1.94 1.63 2 2 0 0 1 -.24 1.07l-2.22 3.84z"/></g><g fill="#ba9b4d" opacity=".2"><path d="m354.36 192.6c.31 3.35 2 5.22 4.5 5s3.82-2.36 3.53-5.57l-1.73-18.55c-.31-3.41-.14-4.48 1-6.29a7.34 7.34 0 0 1 5.4-3.51 7.66 7.66 0 0 1 6 2.21c1.56 1.6 2 3 2.41 7.14l1.53 16.49c.59 6.28-.46 11-3.32 15a18.18 18.18 0 0 1 -29.34 1.72c-3.1-3.63-4.27-6.82-4.84-12.95l-1.5-16.29c-.41-4.39-.25-5.53.86-7.4a7.78 7.78 0 0 1 5.53-3.59 7.56 7.56 0 0 1 5.63 1.89c1.62 1.45 2.31 3.14 2.62 6.42z"/><path d="m384.11 176.35c-2.42-2.78-3.39-4.51-3.56-6.33a7.85 7.85 0 0 1 6.77-8.42c2.4-.25 4.58.72 6.53 2.85l5.34 6.07 3.93-6.31c2-3.3 3.62-4.59 6.09-4.84a7.59 7.59 0 0 1 8.18 6.84 10.88 10.88 0 0 1 -1.8 6.09l-5.93 10.11 9.42 10.79a8.81 8.81 0 0 1 2.08 4.92 7.53 7.53 0 0 1 -6.51 8.34 7.25 7.25 0 0 1 -6.31-2.67l-6.77-7.61-5.25 8.76c-1.58 2.56-3.22 3.71-5.69 4a7.51 7.51 0 0 1 -8.05-6.85 8.83 8.83 0 0 1 1.25-5.41l7.28-12.35z"/></g><path d="m233.93 180.07a7.37 7.37 0 0 1 6.1-4.76 7.58 7.58 0 0 1 5.26 1.6c1.39 1.13 2.1 2.39 2.73 4.87l7.76 29.49a12.88 12.88 0 0 1 .5 2.55 7.41 7.41 0 0 1 -6.54 8.18 7.05 7.05 0 0 1 -7.8-5.15l-2.45-8.55-2.14 8.51c-1.09 4.33-3.5 6.75-7 7.09s-6.12-1.37-8-5.55l-3.68-8-.54 7.51c-.34 4.54-2.9 7.54-6.7 7.91-4.34.43-7.72-2.76-8.16-7.64a17.16 17.16 0 0 1 0-1.9l2.41-30.28c.33-4.54 2.76-7.52 6.56-7.89a8 8 0 0 1 7.81 4.44l8 14.76z" fill="#ba9b4d"/><path d="m266.59 205.63a7.16 7.16 0 0 1 7.66 6.57 7.32 7.32 0 0 1 -6.36 8 7.08 7.08 0 0 1 -7.6-6.64 7.16 7.16 0 0 1 6.3-7.93z" fill="#ba9b4d"/><path d="m278.46 208.13a6.85 6.85 0 0 1 6.05-7.63 7.57 7.57 0 0 1 5.41 1.72c3.43 2.26 3.86 2.5 4.93 2.4a1.87 1.87 0 0 0 1.68-2.21 2.15 2.15 0 0 0 -1.31-1.84 11.79 11.79 0 0 0 -3.05-1c-1.24-.3-2.48-.6-3.72-1-6.69-1.73-10.29-5.81-10.87-12.3-.81-9.07 5.3-15.93 15-16.88 8-.79 14.69 3.06 15.2 8.78.34 3.69-1.83 6.58-5.17 6.91-2 .2-3.67-.34-6.31-2.06-1.66-1.17-2.42-1.45-3.22-1.37a1.84 1.84 0 0 0 -1.58 2c.13 1.39 1.12 1.93 4.7 2.77a27.83 27.83 0 0 1 9.91 3.95c3 2.11 5.07 6.12 5.46 10.51a16.6 16.6 0 0 1 -3.21 11.51c-2.73 3.43-6.59 5.36-12.07 5.9-9.5.91-17.24-3.54-17.83-10.16z" fill="#ba9b4d"/><path d="m322.93 200.1a7.16 7.16 0 0 1 7.66 6.56 7.33 7.33 0 0 1 -6.36 8 7.08 7.08 0 0 1 -7.6-6.65 7.16 7.16 0 0 1 6.3-7.91z" fill="#ba9b4d"/><path d="m356.44 190.49c.31 3.35 2 5.22 4.51 5s3.82-2.36 3.52-5.57l-1.72-18.54c-.32-3.42-.15-4.49 1-6.3a7.36 7.36 0 0 1 5.4-3.5 7.64 7.64 0 0 1 6 2.2c1.57 1.6 2 3 2.42 7.15l1.53 16.52c.58 6.27-.47 11-3.32 15a18.18 18.18 0 0 1 -29.35 1.72c-3.09-3.62-4.27-6.81-4.84-12.95l-1.52-16.38c-.4-4.39-.24-5.53.87-7.41a7.76 7.76 0 0 1 5.52-3.58 7.53 7.53 0 0 1 5.64 1.89c1.61 1.45 2.31 3.14 2.61 6.42z" fill="#ba9b4d"/><path d="m386.19 174.23c-2.41-2.78-3.38-4.51-3.55-6.32a7.86 7.86 0 0 1 6.76-8.43 7.6 7.6 0 0 1 6.53 2.86l5.35 6.07 3.93-6.31c2-3.3 3.61-4.59 6.08-4.84a7.57 7.57 0 0 1 8.18 6.83 10.78 10.78 0 0 1 -1.79 6.1l-5.93 10.1 9.42 10.79a8.79 8.79 0 0 1 2.07 4.93 7.51 7.51 0 0 1 -6.5 8.33 7.24 7.24 0 0 1 -6.31-2.66l-6.77-7.62-5.25 8.77c-1.58 2.55-3.22 3.71-5.69 4a7.52 7.52 0 0 1 -8.05-6.86 8.82 8.82 0 0 1 1.25-5.4l7.27-12.35z" fill="#ba9b4d"/><path d="m314.17 121.69c-5.41.48-9.54 3.73-9.23 7.27l4 46c.31 3.53 5 6 10.36 5.55s9.54-3.73 9.23-7.27l-4-46c-.32-3.53-4.95-6.02-10.36-5.55z" fill="#a7a9ac"/><path d="m316.43 150.28a1.59 1.59 0 0 0 -1.43 1.72l1.18 13.51a1.59 1.59 0 1 0 3.17-.28l-1.18-13.51a1.6 1.6 0 0 0 -1.74-1.44z" fill="#8c7261"/><path d="m328.55 182.11-18.91 1.65-1.19-13.55a9.49 9.49 0 1 1 18.91-1.66zm-16.25-1.53 13.07-1.14-.93-10.63a6.56 6.56 0 0 0 -13.07 1.19z" fill="#bcbec0"/><path d="m324.28 174-11.85 1a5.39 5.39 0 0 0 -4.89 5.83l.75 8.52a11.34 11.34 0 0 0 12.27 10.3 11.32 11.32 0 0 0 10.29-12.27l-.74-8.53a5.38 5.38 0 0 0 -5.83-4.85z" fill="#898077"/><path d="m320.18 184.86a1.89 1.89 0 1 0 -2.94-1.39 1.91 1.91 0 0 0 1.11 1.55l-.73 4.3 2-.17 2-.18z" fill="#231f20"/><path d="m498 222s60-67-16-165c0 0-74-87-188-19-77.88 46.46-74 72-74 72s-17 60 50 8c0 0 69.5-52.5 98.5-49.5 0 0 88-10 88 79" fill="#d54989"/><circle cx="243.28" cy="111.72" fill="#bb3c85" r="5.72"/><circle cx="302.28" cy="57.72" fill="#bb3c85" r="5.72"/><circle cx="447.16" cy="58.23" fill="#bb3c85" r="8.78"/></svg>