<svg height="513" viewBox="0 0 346 513" width="346" xmlns="http://www.w3.org/2000/svg"><circle cx="318.83" cy="495.07" fill="#bb3c85" r="6.63"/><circle cx="276.57" cy="465.1" fill="#bb3c85" r="5.33"/><path d="m311.11 429.14s-54 27.39-97.88 14.66c0 0-53.81-9-44.48-72.11l37.61-254.53s12.87-73-63.84-103.07c0 0-56.11-14.53-83.32 14.74 0 0-32.12 20.22-38.44 63l-13.24 89.58s-3.61 24.43 17.05 25.4c0 0 20.06 5.05 24-21.42l14.12-95.71s12.12-39.82 57.52-37.27c0 0 52.64 9.86 44.52 64.84l-38.82 262.67s-13 45.93 36.84 88.67c0 0 25.8 22.54 114.56 27.34l52.94 7.82z" fill="#d54989"/><g fill="#bb3c85"><circle cx="151.61" cy="437.11" r="9.8"/><path d="m166.78 249.76a12.88 12.88 0 0 0 17.06 16.5 195.9 195.9 0 0 0 3.07-22.95c-.77-.53-2.54-.48-3.49-.85a12.8 12.8 0 0 0 -16.64 7.3z"/><circle cx="176.47" cy="88.73" r="5.01"/><circle cx="32.47" cy="130.73" r="5.01"/><circle cx="103.47" cy="32.73" r="5.01"/><circle cx="239.78" cy="474.62" r="4.47"/></g></svg>