<svg height="403" viewBox="0 0 441 403" width="441" xmlns="http://www.w3.org/2000/svg"><path d="m80 277-73 120 427-4-79.79-114.63c-.73-.82-67.21-21.26-67.21-31.37 0-2-4.31-4-5.09-4h-113.91c-15 23-42.85 20.52-80 32z" fill="#d54989"/><circle cx="236.64" cy="361.08" fill="#bb3c85" r="21.08"/><path d="m224.73 172.61a106.61 106.61 0 0 1 -104.07-83.28 107.93 107.93 0 0 0 -2.58 23.38 106.65 106.65 0 0 0 213.3 0 107.93 107.93 0 0 0 -2.58-23.38 106.61 106.61 0 0 1 -104.07 83.28z" fill="#d54989"/><path d="m224.73 172.61a106.61 106.61 0 0 0 104.07-83.28 106.66 106.66 0 0 0 -208.14 0 106.69 106.69 0 0 0 104.07 83.28z" fill="#f16da9"/><g fill="#d54989"><path d="m284.52 247.16h-119.58a35.5 35.5 0 0 1 -35.5-35.5 35.5 35.5 0 0 1 35.5-35.5h119.58a35.5 35.5 0 0 1 35.5 35.5 35.5 35.5 0 0 1 -35.5 35.5z"/><circle cx="227.36" cy="136.52" r="7.06"/><circle cx="285.87" cy="107.7" r="9.43"/><circle cx="240.89" cy="169.7" r="12.77"/><circle cx="177.92" cy="166.36" r="10.4"/><circle cx="145.98" cy="140.23" r="8.56"/></g><g fill="#bb3c85"><circle cx="286.14" cy="107.59" r="4.85"/><circle cx="239.92" cy="175.95" r="9.59"/><circle cx="213.85" cy="204.49" r="10.34"/><circle cx="263.94" cy="229.86" r="6.79"/><circle cx="278.97" cy="187.8" r="9.26"/></g><circle cx="168.15" cy="211.63" fill="#fff" r="24.43"/><circle cx="161.17" cy="214.42" fill="#033155" r="6.28"/><path d="m163.26 185.81-12.56 6.98-9.77 18.14 51.64-1.39-8.37-18.15-9.77-5.58z" fill="#7a2c68"/><path d="m165.04 234.81-12.76-4.08-10.31-11.64 51.63-1.42-7.81 12.47-9.59 4.16z" fill="#7a2c68"/><circle cx="167.45" cy="210.93" fill="none" r="24.43" stroke="#9b3273" stroke-miterlimit="10" stroke-width="5"/><circle cx="282.87" cy="213.02" fill="#fff" r="24.43"/><circle cx="275.89" cy="215.82" fill="#033155" r="6.28"/><path d="m277.99 187.2-12.56 6.98-9.77 18.15 51.64-1.4-8.38-18.14-9.77-5.59z" fill="#7a2c68"/><path d="m279.77 236.21-12.76-4.08-10.31-11.64 51.63-1.42-7.82 12.46-9.59 4.17z" fill="#7a2c68"/><circle cx="282.18" cy="212.33" fill="none" r="24.43" stroke="#9b3273" stroke-miterlimit="10" stroke-width="5"/><path d="m208 263.82c12.67-6 28.53-3.26 41 2 5.85 2.47 11-6.14 5-8.64-16.06-6.79-34.75-9.69-51-2-5.82 2.75-.75 11.37 5 8.64z" fill="#7a2c68"/><g fill="#bb3c85"><circle cx="129.83" cy="336.07" r="6.63"/><circle cx="340.78" cy="344.62" r="4.47"/><circle cx="281.16" cy="296.23" r="8.78"/><path d="m340.83 283.84a9.08 9.08 0 0 0 9-8 102 102 0 0 1 -17.4-4.31 9.3 9.3 0 0 0 -.64 3.28 9.06 9.06 0 0 0 9.04 9.03z"/><circle cx="87.57" cy="306.1" r="5.33"/><circle cx="188.61" cy="300.11" r="9.8"/></g><g fill="#fff" fill-rule="evenodd" opacity=".22"><path d="m227.51 11.48a94.75 94.75 0 0 0 -9.68 1.06c-42.65 6.93-79 41.55-83.76 78.77v.07c0 1 .2 12.06 7.84 10.06 8-2.1 7-20.62 30.24-28.65s31.14-15.2 29.45-31.47 11.93-20.87 21.12-22.32 10.03-6.93 4.79-7.52z"/><path d="m233.27 29.26c-1.07-3.42-6.06-4.47-11.15-2.33s-8.36 6.65-7.29 10.08 6.07 4.47 11.17 2.33 8.34-6.65 7.27-10.08z"/><path d="m187.74 83.82c-2.22-4.48-9.59-5.11-16.46-1.41s-10.66 10.33-8.44 14.81 9.58 5.1 16.46 1.4 10.7-10.33 8.44-14.8z"/></g><circle cx="171.27" cy="123.74" fill="#d54989" r="12.39"/><circle cx="170.46" cy="124.97" fill="#bb3c85" r="5.55"/><circle cx="219.84" cy="86" fill="#d54989" r="9.43"/><circle cx="223.83" cy="85.89" fill="#bb3c85" r="3.93"/><circle cx="274.01" cy="63.34" fill="#d54989" r="18.85"/><g fill="#bb3c85"><circle cx="276.11" cy="64.2" r="8.46"/><path d="m126.29 285.44a12.88 12.88 0 0 0 9.21-21.87 196.92 196.92 0 0 0 -22.5 5.43c-.22.92.47 2.54.47 3.56a12.8 12.8 0 0 0 12.82 12.88z"/><circle cx="76.47" cy="348.73" r="5.01"/></g></svg>