<svg height="427" viewBox="0 0 363 427" width="363" xmlns="http://www.w3.org/2000/svg"><path d="m12.76 359s75.39 14.1 98.85-34.32c21.61-44.6.58-156.64-3.09-176.92-.38-2.07-1.94-22.15-2-24.25-.1-18.76 4.78-105.21 103.45-109.91 0 0 128.88-9.22 122.84 130.3 0 0-4.74 102.34-113.36 105.11 0 0-20.47 4.15-25-20.92 0 0-1.85-20.68 20.92-25 0 0 86.05 3.88 68.22-91.8 0 0-2.64-55.36-74.08-51.28 0 0-74.85.09-50.5 122.1 1.3 6.5 2.75 17.25 3.34 23.85l7.37 82.29s2.56 106.32-119 119.51l-36.78 3.24z" fill="#d54989"/><g fill="#bb3c85"><path d="m26.83 372.84a9.08 9.08 0 0 0 9-8 102 102 0 0 1 -17.4-4.31 9.3 9.3 0 0 0 -.64 3.28 9.06 9.06 0 0 0 9.04 9.03z"/><circle cx="138.28" cy="303.72" r="10.72"/><circle cx="241.28" cy="227.72" r="10.72"/><circle cx="311.28" cy="157.72" r="5.72"/><path d="m138.78 109.76a12.88 12.88 0 0 0 7.35 16.66c3.27 1.26 4.89 1.85 7.87.58 1.74-8.44 0-14 4.91-23.69-.77-.53-2.54-.48-3.49-.85a12.8 12.8 0 0 0 -16.64 7.3z"/></g></svg>