<svg height="197" viewBox="0 0 259 197" width="259" xmlns="http://www.w3.org/2000/svg"><path d="m17.54 56.02h227.16v116.17h-227.16z" fill="#6c534f" transform="matrix(.9961947 -.08715574 .08715574 .9961947 -9.45 11.87)"/><rect fill="#a06b52" height="24.89" rx="3.21" transform="matrix(.9961947 -.08715574 .08715574 .9961947 -14.48 12.53)" width="241.16" x="15.61" y="159.53"/><circle cx="31.23" cy="181.16" fill="#c49a6c" r="2.58"/><g fill="#ba9b4d"><g opacity=".23"><path d="m43.53 158.29a11.82 11.82 0 0 1 -12.91-10.93 15.14 15.14 0 0 1 1-6.45l18.5-50.19a12 12 0 0 1 10.36-8.15 12.26 12.26 0 0 1 11.84 6.31l27.12 46.75a12.54 12.54 0 0 1 1.92 5.64 12.05 12.05 0 0 1 -11 12.92c-5.55.49-9-1.84-13.06-8.94l-22.2 1.94c-2.47 7.34-5.8 10.59-11.57 11.1zm24.7-29.69-4.46-8.38-2.93 9z"/><path d="m106.45 135.56a10.81 10.81 0 0 1 9.93-11.83c2.94-.26 5.52.5 8.79 2.74 5.57 3.57 6.27 3.95 8 3.79a3 3 0 0 0 2.77-3.42 3.42 3.42 0 0 0 -2.12-2.88c-.69-.38-1-.57-5-1.65-2-.48-4-1-6.05-1.55-10.88-2.78-16.71-9.18-17.59-19.3-1.18-14.14 8.82-24.78 24.61-26.16 13.06-1.14 23.9 4.93 24.68 13.85.5 5.77-3.05 10.24-8.49 10.72-3.27.29-6-.57-10.27-3.27-2.68-1.85-3.93-2.29-5.23-2.17a2.88 2.88 0 0 0 -2.58 3.07c.19 2.18 1.8 3 7.62 4.38 6.36 1.31 12.49 3.73 16.11 6.27 4.79 3.3 8.19 9.59 8.79 16.44a25 25 0 0 1 -5.34 17.9c-4.47 5.33-10.79 8.29-19.71 9.07-15.45 1.35-28.02-5.66-28.92-16z"/><path d="m192 114.15c.46 5.23 3.13 8.17 7.26 7.81s6.26-3.62 5.83-8.62l-2.54-28.95c-.46-5.33-.17-7 1.78-9.8a12 12 0 0 1 8.84-5.38 12.76 12.76 0 0 1 9.74 3.53c2.53 2.52 3.26 4.65 3.83 11.18l2.26 25.79c.86 9.79-.92 17.07-5.63 23.41a30.39 30.39 0 0 1 -47.83 2.21c-5-5.7-6.85-10.69-7.69-20.27l-2.24-25.57c-.6-6.85-.32-8.63 1.51-11.53a12.05 12.05 0 0 1 18.21-2.47c2.61 2.29 3.72 4.93 4.17 10.05z"/></g><path d="m47.19 156.44a11.82 11.82 0 0 1 -12.91-10.93 15 15 0 0 1 1-6.45l18.49-50.19a12 12 0 0 1 10.36-8.14 12.26 12.26 0 0 1 11.87 6.27l27.11 46.74a12.49 12.49 0 0 1 1.92 5.65 12 12 0 0 1 -11 12.91c-5.55.49-9-1.84-13.06-8.94l-22.2 1.94c-2.48 7.38-5.77 10.64-11.58 11.14zm24.7-29.68-4.46-8.38-2.94 9z"/><path d="m110.1 133.72a10.83 10.83 0 0 1 9.9-11.84c2.94-.25 5.53.51 8.79 2.74 5.58 3.57 6.27 3.95 8 3.8a3 3 0 0 0 2.81-3.42 3.4 3.4 0 0 0 -2.12-2.89c-.69-.38-1-.57-5-1.65-2-.48-4-1-6.06-1.55-10.88-2.78-16.7-9.17-17.59-19.29-1.24-14.15 8.8-24.78 24.57-26.17 13.06-1.14 23.9 4.93 24.68 13.85.51 5.77-3.05 10.25-8.49 10.72-3.26.29-6-.57-10.26-3.27-2.69-1.84-3.93-2.28-5.24-2.17a2.9 2.9 0 0 0 -2.58 3.08c.19 2.17 1.8 3 7.62 4.38 6.36 1.3 12.5 3.73 16.12 6.26 4.78 3.31 8.18 9.59 8.78 16.44a25 25 0 0 1 -5.34 17.91c-4.42 5.35-10.69 8.29-19.69 9.07-15.43 1.35-28-5.66-28.9-16z"/><path d="m195.61 112.31c.46 5.22 3.13 8.17 7.27 7.81s6.26-3.62 5.82-8.63l-2.53-28.94c-.47-5.33-.18-7 1.77-9.81a12.07 12.07 0 0 1 8.85-5.38 12.8 12.8 0 0 1 9.74 3.54c2.52 2.52 3.25 4.65 3.83 11.18l2.25 25.78c.86 9.8-.91 17.08-5.62 23.41a30.39 30.39 0 0 1 -47.83 2.21c-5-5.7-6.86-10.69-7.7-20.26l-2.24-25.57c-.6-6.86-.31-8.64 1.52-11.54a12 12 0 0 1 18.2-2.47c2.61 2.29 3.72 4.94 4.17 10z"/></g><path d="m13.61 56.19h227.16v25.93h-227.16z" fill="#8c7261" opacity=".25" transform="matrix(.9961947 -.08715574 .08715574 .9961947 -5.55 11.35)"/><rect fill="#a06b52" height="24.89" rx="3.21" transform="matrix(.9961947 -.08715574 .08715574 .9961947 -1.82 10.86)" width="241.16" x="2.85" y="13.83"/><rect fill="#a06b52" height="24.89" rx="3.21" transform="matrix(.9961947 -.08715574 .08715574 .9961947 -3.98 11.15)" width="241.16" x="5.02" y="38.63"/><path d="m4.68 52.39.32 4.16 240.24-21-.36-4.16a3.21 3.21 0 0 0 -3.48-2.92l-233.81 20.44a3.21 3.21 0 0 0 -2.91 3.48z" fill="#875a45"/><path d="m122.89 20.08c-4.92.43-8.68 3.39-8.4 6.61l3.66 41.85c.28 3.22 4.5 5.49 9.43 5s8.68-3.34 8.42-6.54l-3.67-41.85c-.33-3.24-4.52-5.5-9.44-5.07z" fill="#a7a9ac"/><g fill="#c49a6c"><path d="m234.47 14a2.57 2.57 0 1 0 2.79 2.34 2.58 2.58 0 0 0 -2.79-2.34z"/><path d="m179.18 18.81a2.57 2.57 0 1 0 2.8 2.34 2.58 2.58 0 0 0 -2.8-2.34z"/><path d="m236.64 38.77a2.57 2.57 0 1 0 2.79 2.34 2.58 2.58 0 0 0 -2.79-2.34z"/><path d="m181.36 43.61a2.57 2.57 0 1 0 2.79 2.39 2.58 2.58 0 0 0 -2.79-2.39z"/><path d="m73.53 28.06a2.57 2.57 0 1 0 2.79 2.34 2.56 2.56 0 0 0 -2.79-2.34z"/><path d="m18.25 32.9a2.57 2.57 0 1 0 2.75 2.34 2.56 2.56 0 0 0 -2.75-2.34z"/><circle cx="75.93" cy="55.42" r="2.58"/><circle cx="20.64" cy="60.26" r="2.58"/><path d="m247.22 159.67a2.57 2.57 0 1 0 2.78 2.33 2.56 2.56 0 0 0 -2.78-2.33z"/><path d="m191.94 164.51a2.57 2.57 0 1 0 2.79 2.34 2.56 2.56 0 0 0 -2.79-2.34z"/><circle cx="136.19" cy="171.97" r="2.58"/><circle cx="86.51" cy="176.32" r="2.58"/></g><path d="m137 84.07-17.21 1.51-1.08-12.34a8.64 8.64 0 1 1 17.21-1.51zm-14.79-1.39 11.9-1-.87-9.68a6 6 0 1 0 -11.89 1z" fill="#bcbec0"/><path d="m133.1 76.71-10.79.94a4.9 4.9 0 0 0 -4.45 5.3l.68 7.76a10.31 10.31 0 0 0 11.17 9.37 10.31 10.31 0 0 0 9.37-11.17l-.68-7.76a4.89 4.89 0 0 0 -5.3-4.44z" fill="#898077"/><path d="m129.37 86.58a1.72 1.72 0 0 0 .74-1.57 1.72 1.72 0 1 0 -2.41 1.71l-.7 3.92 1.84-.16 1.83-.16z" fill="#231f20"/><path d="m126 53.1a1.45 1.45 0 0 0 -1.32 1.57l1.03 12.33a1.45 1.45 0 0 0 2.89-.25l-1.08-12.3a1.45 1.45 0 0 0 -1.52-1.35z" fill="#8c7261"/></svg>