<svg height="345" viewBox="0 0 576 345" width="576" xmlns="http://www.w3.org/2000/svg"><path d="m24.94 273.55s46.24 48 87.26 25.55c37.79-20.66 79.41-110.56 87-126.77.78-1.65 9.8-16.65 10.85-18.15 9.39-13.33 56.44-72.05 128.64-25.62 0 0 66.27 73.23 127.48-18.67 0 0 50.3-105 82.54-94.86 0 0 19.3 7.35-14.77 71.64 0 0-24.8 45.29-40.15 57.84 0 0-10.59 14.86-42.28 41.36 0 0-39.26 37.12-136.54-24.73 0 0-53-37.69-97.33 60.94-2.36 5.26-6.75 13.6-9.66 18.57l-36.29 62s-51.8 76.54-144.51 24.57l-27.64-16.22z" fill="#bb3c85"/></svg>