<svg height="1024" viewBox="0 0 1280 1024" width="1280" xmlns="http://www.w3.org/2000/svg"><path d="m480 579-73 120 427-4-79.79-114.63c-.73-.82-67.21-21.26-67.21-31.37 0-2-4.31-4-5.09-4h-113.91c-15 23-42.85 20.52-80 32z" fill="#d54989"/><circle cx="636.64" cy="663.08" fill="#bb3c85" r="21.08"/><path d="m624.73 474.61a106.61 106.61 0 0 1 -104.07-83.28 107.93 107.93 0 0 0 -2.58 23.38 106.65 106.65 0 0 0 213.3 0 107.93 107.93 0 0 0 -2.58-23.38 106.61 106.61 0 0 1 -104.07 83.28z" fill="#d54989"/><path d="m624.73 474.61a106.61 106.61 0 0 0 104.07-83.28 106.66 106.66 0 0 0 -208.14-.05 106.69 106.69 0 0 0 104.07 83.33z" fill="#f16da9"/><g fill="#d54989"><path d="m684.52 549.16h-119.58a35.5 35.5 0 0 1 -35.5-35.5 35.5 35.5 0 0 1 35.5-35.5h119.58a35.5 35.5 0 0 1 35.5 35.5 35.5 35.5 0 0 1 -35.5 35.5z"/><circle cx="627.36" cy="438.52" r="7.06"/><circle cx="685.87" cy="409.7" r="9.43"/><circle cx="640.89" cy="471.7" r="12.77"/><circle cx="577.92" cy="468.36" r="10.4"/><circle cx="545.98" cy="442.23" r="8.56"/></g><g fill="#bb3c85"><circle cx="686.14" cy="409.59" r="4.85"/><circle cx="639.92" cy="477.95" r="9.59"/><circle cx="613.85" cy="506.49" r="10.34"/><circle cx="663.94" cy="531.86" r="6.79"/><circle cx="678.97" cy="489.8" r="9.26"/></g><circle cx="568.15" cy="513.63" fill="#fff" r="24.43"/><circle cx="561.17" cy="516.42" fill="#033155" r="6.28"/><path d="m563.26 487.81-12.56 6.98-9.77 18.14 51.64-1.39-8.37-18.15-9.77-5.58z" fill="#7a2c68"/><path d="m565.04 536.81-12.76-4.08-10.31-11.64 51.63-1.42-7.81 12.47-9.59 4.16z" fill="#7a2c68"/><circle cx="567.45" cy="512.93" fill="none" r="24.43" stroke="#9b3273" stroke-miterlimit="10" stroke-width="5"/><circle cx="682.87" cy="515.02" fill="#fff" r="24.43"/><circle cx="675.89" cy="517.82" fill="#033155" r="6.28"/><path d="m677.99 489.2-12.56 6.98-9.77 18.15 51.64-1.4-8.38-18.14-9.77-5.59z" fill="#7a2c68"/><path d="m679.77 538.21-12.76-4.08-10.31-11.64 51.63-1.42-7.82 12.46-9.59 4.17z" fill="#7a2c68"/><circle cx="682.18" cy="514.33" fill="none" r="24.43" stroke="#9b3273" stroke-miterlimit="10" stroke-width="5"/><path d="m608 565.82c12.67-6 28.53-3.26 41 2 5.85 2.47 11-6.14 5-8.64-16.06-6.79-34.75-9.69-51-2-5.82 2.75-.75 11.37 5 8.64z" fill="#7a2c68"/><g fill="#bb3c85"><circle cx="476.47" cy="650.73" r="5.01"/><circle cx="529.83" cy="638.07" r="6.63"/><circle cx="740.78" cy="646.62" r="4.47"/><circle cx="681.16" cy="598.23" r="8.78"/><path d="m740.83 585.84a9.08 9.08 0 0 0 9-8 102 102 0 0 1 -17.4-4.31 9.3 9.3 0 0 0 -.64 3.28 9.06 9.06 0 0 0 9.04 9.03z"/><path d="m526.29 587.44a12.88 12.88 0 0 0 9.21-21.87 196.92 196.92 0 0 0 -22.5 5.43c-.22.92.47 2.54.47 3.56a12.8 12.8 0 0 0 12.82 12.88z"/><circle cx="487.57" cy="608.1" r="5.33"/><circle cx="588.61" cy="602.11" r="9.8"/></g><g fill="#fff" fill-rule="evenodd" opacity=".22"><path d="m627.51 313.48a94.75 94.75 0 0 0 -9.68 1.06c-42.65 6.93-79 41.55-83.76 78.77v.07c0 1 .2 12.06 7.84 10.06 8-2.1 7-20.62 30.24-28.65s31.14-15.2 29.45-31.47 11.93-20.88 21.12-22.37 10.03-6.88 4.79-7.47z"/><path d="m633.27 331.26c-1.07-3.42-6.06-4.47-11.15-2.33s-8.36 6.65-7.29 10.08 6.07 4.47 11.17 2.33 8.34-6.65 7.27-10.08z"/><path d="m587.74 385.82c-2.22-4.48-9.59-5.11-16.46-1.41s-10.66 10.33-8.44 14.81 9.58 5.1 16.46 1.4 10.7-10.33 8.44-14.8z"/></g><circle cx="571.27" cy="425.74" fill="#d54989" r="12.39"/><circle cx="570.46" cy="426.97" fill="#bb3c85" r="5.55"/><circle cx="619.84" cy="388" fill="#d54989" r="9.43"/><circle cx="623.83" cy="387.89" fill="#bb3c85" r="3.93"/><circle cx="674.01" cy="365.34" fill="#d54989" r="18.85"/><circle cx="676.11" cy="366.2" fill="#bb3c85" r="8.46"/><path d="m819.53 583.36h221.69v113.38h-221.69z" fill="#6c534f" transform="matrix(.9961947 -.08715574 .08715574 .9961947 -52.27 83.57)"/><rect fill="#a06b52" height="24.29" rx="3.13" transform="matrix(.9961947 -.08715574 .08715574 .9961947 -57.18 84.22)" width="235.36" x="817.64" y="684.38"/><circle cx="832.89" cy="705.49" fill="#c49a6c" r="2.51"/><g fill="#ba9b4d" opacity=".23"><path d="m844.9 683.17a11.55 11.55 0 0 1 -12.6-10.67 14.56 14.56 0 0 1 1-6.29l18.07-49a11.73 11.73 0 0 1 10.11-8 12 12 0 0 1 11.52 6.23l26.46 45.62a12.2 12.2 0 0 1 1.87 5.5 11.76 11.76 0 0 1 -10.77 12.61c-5.42.47-8.83-1.8-12.75-8.73l-21.66 1.9c-2.37 7.16-5.62 10.33-11.25 10.83zm24.11-29-4.36-8.17-2.87 8.81z"/><path d="m906.3 661a10.56 10.56 0 0 1 9.7-11.56c2.87-.25 5.39.49 8.58 2.68 5.44 3.48 6.11 3.85 7.81 3.7a2.88 2.88 0 0 0 2.71-3.34 3.34 3.34 0 0 0 -2.07-2.82c-.67-.36-1-.55-4.85-1.6-2-.47-3.93-.94-5.91-1.52-10.61-2.71-16.3-8.95-17.16-18.83-1.21-13.8 8.58-24.18 24-25.53 12.74-1.12 23.32 4.81 24.08 13.51.49 5.63-3 10-8.29 10.47-3.18.28-5.82-.56-10-3.19-2.62-1.81-3.83-2.24-5.11-2.12a2.82 2.82 0 0 0 -2.52 3c.19 2.12 1.76 2.95 7.44 4.27 6.21 1.28 12.19 3.64 15.73 6.11 4.67 3.23 8 9.36 8.57 16a24.37 24.37 0 0 1 -5.21 17.47c-4.36 5.2-10.53 8.09-19.24 8.86-15.11 1.37-27.38-5.48-28.26-15.56z"/><path d="m989.75 640.1c.45 5.1 3 8 7.09 7.62s6.11-3.53 5.68-8.42l-2.47-28.25c-.46-5.2-.17-6.83 1.73-9.56a11.7 11.7 0 0 1 8.64-5.25 12.45 12.45 0 0 1 9.5 3.44c2.46 2.46 3.18 4.54 3.74 10.91l2.2 25.17c.84 9.56-.89 16.66-5.49 22.84a29.66 29.66 0 0 1 -46.68 2.16c-4.87-5.56-6.69-10.43-7.51-19.78l-2.18-24.98c-.59-6.69-.31-8.43 1.47-11.26a11.77 11.77 0 0 1 17.77-2.41c2.55 2.24 3.63 4.82 4.07 9.81z"/></g><path d="m848.46 681.37a11.54 11.54 0 0 1 -12.59-10.67 14.55 14.55 0 0 1 .94-6.29l18.08-49a11.73 11.73 0 0 1 10.11-7.93 12 12 0 0 1 11.56 6.15l26.44 45.62a12.4 12.4 0 0 1 1.87 5.51 11.77 11.77 0 0 1 -10.78 12.61c-5.41.47-8.82-1.8-12.74-8.73l-21.67 1.9c-2.34 7.16-5.59 10.33-11.22 10.83zm24.11-29-4.35-8.18-2.87 8.81z" fill="#ba9b4d"/><path d="m909.87 659.19a10.55 10.55 0 0 1 9.68-11.55c2.87-.25 5.4.49 8.59 2.68 5.44 3.48 6.11 3.85 7.81 3.7a2.89 2.89 0 0 0 2.7-3.34 3.32 3.32 0 0 0 -2.06-2.82c-.68-.37-1-.55-4.85-1.61-2-.47-3.94-.94-5.91-1.51-10.62-2.71-16.3-9-17.17-18.83-1.2-13.8 8.59-24.18 24-25.53 12.74-1.12 23.31 4.8 24.08 13.51.49 5.63-3 10-8.29 10.46-3.18.28-5.83-.56-10-3.18-2.61-1.81-3.83-2.24-5.1-2.13a2.83 2.83 0 0 0 -2.52 3c.18 2.12 1.75 3 7.43 4.27 6.21 1.27 12.2 3.64 15.73 6.11 4.67 3.23 8 9.36 8.58 16.05a24.42 24.42 0 0 1 -5.25 17.53c-4.36 5.2-10.52 8.09-19.23 8.85-15.09 1.27-27.34-5.57-28.22-15.66z" fill="#ba9b4d"/><path d="m993.32 638.3c.44 5.09 3 8 7.08 7.61s6.12-3.53 5.69-8.41l-2.47-28.25c-.46-5.2-.17-6.83 1.73-9.57a11.74 11.74 0 0 1 8.63-5.25 12.51 12.51 0 0 1 9.51 3.45c2.46 2.46 3.18 4.54 3.73 10.91l2.21 25.17c.83 9.56-.9 16.66-5.49 22.84a29.66 29.66 0 0 1 -46.68 2.2c-4.88-5.56-6.69-10.43-7.51-19.78l-2.19-24.95c-.58-6.69-.31-8.43 1.48-11.26a11.76 11.76 0 0 1 17.76-2.41c2.55 2.24 3.64 4.82 4.07 9.81z" fill="#ba9b4d"/><path d="m815.69 583.53h221.69v25.31h-221.69z" fill="#8c7261" opacity=".25" transform="matrix(.9961947 -.08715574 .08715574 .9961947 -48.46 83.07)"/><rect fill="#a06b52" height="24.29" rx="3.13" transform="matrix(.9961947 -.08715574 .08715574 .9961947 -44.82 82.59)" width="235.36" x="805.2" y="542.19"/><rect fill="#a06b52" height="24.29" rx="3.13" transform="matrix(.9961947 -.08715574 .08715574 .9961947 -46.93 82.87)" width="235.36" x="807.32" y="566.39"/><path d="m807 579.82.35 4.06 234.46-20.52-.35-4.07a3.13 3.13 0 0 0 -3.4-2.84l-228.22 20a3.13 3.13 0 0 0 -2.84 3.37z" fill="#875a45"/><path d="m922.35 548.29c-4.81.42-8.48 3.31-8.2 6.45l3.57 40.84c.28 3.15 4.39 5.36 9.2 4.93s8.47-3.31 8.2-6.45l-3.58-40.84c-.27-3.15-4.39-5.36-9.19-4.93z" fill="#a7a9ac"/><g fill="#c49a6c"><path d="m1031.24 542.33a2.51 2.51 0 1 0 2.72 2.28 2.51 2.51 0 0 0 -2.72-2.28z"/><path d="m977.28 547.05a2.51 2.51 0 1 0 2.73 2.28 2.51 2.51 0 0 0 -2.73-2.28z"/><path d="m1033.35 566.53a2.51 2.51 0 1 0 2.73 2.28 2.51 2.51 0 0 0 -2.73-2.28z"/><path d="m979.4 571.25a2.51 2.51 0 1 0 2.73 2.29 2.51 2.51 0 0 0 -2.73-2.29z"/><path d="m874.17 556.07a2.52 2.52 0 1 0 2.73 2.29 2.53 2.53 0 0 0 -2.73-2.29z"/><path d="m820.22 560.8a2.51 2.51 0 1 0 2.73 2.28 2.5 2.5 0 0 0 -2.73-2.28z"/><circle cx="876.51" cy="582.78" r="2.51"/><circle cx="822.56" cy="587.5" r="2.51"/><path d="m1043.68 684.51a2.51 2.51 0 1 0 2.73 2.29 2.51 2.51 0 0 0 -2.73-2.29z"/><path d="m989.73 689.24a2.51 2.51 0 1 0 2.73 2.28 2.5 2.5 0 0 0 -2.73-2.28z"/><circle cx="935.32" cy="696.52" r="2.51"/><circle cx="886.84" cy="700.77" r="2.51"/></g><path d="m936.1 610.74-16.8 1.47-1.06-12a8.43 8.43 0 1 1 16.76-1.51zm-14.44-1.36 11.61-1-.82-9.45a5.83 5.83 0 0 0 -11.61 1z" fill="#bcbec0"/><path d="m932.31 603.55-10.53.92a4.78 4.78 0 0 0 -4.34 5.18l.66 7.57a10.05 10.05 0 0 0 10.9 9.14 10.05 10.05 0 0 0 9.14-10.9l-.66-7.57a4.77 4.77 0 0 0 -5.17-4.34z" fill="#898077"/><path d="m928.66 613.19a1.68 1.68 0 1 0 -2.61-1.25 1.69 1.69 0 0 0 1 1.39l-.65 3.82 1.79-.16 1.79-.16z" fill="#231f20"/><path d="m925.33 580.51a1.41 1.41 0 0 0 -1.28 1.54l1.05 12a1.42 1.42 0 0 0 2.82-.24l-1-12a1.43 1.43 0 0 0 -1.59-1.3z" fill="#8c7261"/></svg>