<?xml version="1.0" encoding="UTF-8"?>
<svg version="1.1" xmlns="http://www.w3.org/2000/svg" xmlns:xlink="http://www.w3.org/1999/xlink">
<defs>

</defs>
<symbol id="i-nate-sprites-responsive" viewBox="0 0 1724 369" xmlns="http://www.w3.org/2000/svg"><path d="M40.5 136.5h14v40h-14z" fill="#1b1464"/><path d="M24.5 163.5h30v13h-30z" fill="#8c6239"/><path d="M65.5 137.5h14v39h-14z" fill="#1b1464"/><path d="M65.5 163.5h29v13h-29z" fill="#8c6239"/><path d="M79.5 95.5v44h-39v-45c-21 8.53-21 28-21 28l-15-3c7-35 36-42 36-42h35l5 1s28.6 6 35.5 41l-14.79 3s-1-18.47-21.71-27" fill="#fff"/><circle cx="10" cy="127" fill="#f9d0a7" r="9.5"/><circle cx="110" cy="127" fill="#f9d0a7" r="9.5"/><path d="M54.99 77.5l4.51 10h5l6-10z" fill="#006837"/><path d="M59.5 87.5l-3 41 5.59 7.34a.53.53 0 00.88 0l4.53-7.38-3-41z" fill="#009245"/><path d="M54.5 77.5l4.42 8.07a.8.8 0 01-1.17.91l-15.7-9zM65.07 85.48l4.93-8h9.5l-14 8.42a.32.32 0 01-.43-.42z" fill="#e6e6e6"/><ellipse cx="60.61" cy="48.14" fill="#f9d0a7" rx="32.39" ry="32.14"/><circle cx="29.95" cy="54.78" fill="#f9d0a7" r="6.45"/><path d="M79 67.23c0 2.63-3.36 4.77-7.5 4.77S64 69.86 64 67.23 67.86 66 72 66s7-1.41 7 1.23z" fill="#fff"/><path d="M92.36 43.31c-.5-5.47-1.35-6.86-2.26-11.77a1.09 1.09 0 00-.58-.78L66.76 19.15a1 1 0 00-.63-.11l-22.37 2.81h-10.3a1.09 1.09 0 00-.81 1.81 1.08 1.08 0 01-.24 1.64c-2 1.21-5.73 4.39-3.93 10.72a1.17 1.17 0 00.09.24c.44.8-.73 4.45.47 17.23a1.37 1.37 0 002.71.15c2.11-10.18 9.64-21.75 14.07-25.73a1.06 1.06 0 01.92-.23l39.75 5.43a1.08 1.08 0 01.51.26c.54.51 1.72 5.17 2.76 10.3a1.31 1.31 0 002.6-.36z" fill="#d1a44a"/><path d="M61.59 38.82C59 38.65 38.68 35.08 33 25c0 0 6-17 23-20 0 0 10.46-1.7 23.2 7.7.37.28 5.86 6.35 6.12 6.73 1.92 2.73 6.2 9.82 11.94 11.87a.3.3 0 01-.06.58c-5 .54-21 2-29.24-.84l9.36 5.22a.2.2 0 01-.1.38c-4.14-.39-20.88-2-23.17-3.79l7.6 5.79a.1.1 0 01-.06.18z" fill="#ddae47"/><rect fill="#fff" height="16" rx="8" stroke="#000" stroke-miterlimit="10" stroke-width="2" width="20" x="72" y="39"/><rect fill="#fff" height="16" rx="8" stroke="#000" stroke-miterlimit="10" stroke-width="2" width="20" x="47" y="39"/><path d="M67 47h5" fill="none" stroke="#000" stroke-miterlimit="10" stroke-width="2"/><circle cx="60.5" cy="46.5" r="1.5"/><circle cx="84.5" cy="46.5" r="1.5"/><path d="M609.831 102.408l11.802 7.53-21.515 33.72-11.802-7.53z" fill="#1b1464"/><path d="M569.826 108.979l25.29 16.137-6.992 10.959-25.29-16.137z" fill="#8c6239"/><path d="M627.976 121.91l11.76 7.56-21.06 32.76-11.76-7.56z" fill="#1b1464"/><path d="M623.513 156.43l-15.748 24.351-12.36-7.993 15.747-24.352z" fill="#8c6239"/><path d="M661 94l-22 38-35-20 12-20 8-15c-6 11-1 2-1 2v-1a1 1 0 001-1l2-3 3-4 30 9h23s11 0 27-1v15s-13 2-33.5 1.5" fill="#fff"/><circle cx="714.5" cy="85.5" fill="#f9d0a7" r="9.5"/><path d="M643 75.63l.14 10.97 4.58 2L659 79z" fill="#006837"/><path d="M643.14 86.6L624 123l2.19 9a.53.53 0 00.79.39l7.1-5 13.64-38.79z" fill="#009245"/><path d="M642.55 75.44l.83 9.16a.8.8 0 01-1.44.37l-10.8-14.51zM649.05 87l10-8h9l-18.72 8.56a.32.32 0 01-.28-.56z" fill="#e6e6e6"/><ellipse cx="656.61" cy="47.14" fill="#f9d0a7" rx="32.39" ry="32.14"/><circle cx="625.95" cy="53.78" fill="#f9d0a7" r="6.45"/><path d="M675 66.23c0 2.63-3.36 4.77-7.5 4.77s-7.5-2.14-7.5-4.77 3.86-1.23 8-1.23 7-1.41 7 1.23z" fill="#fff"/><path d="M688.36 42.31c-.5-5.47-1.35-6.86-2.26-11.77a1.09 1.09 0 00-.58-.78l-22.76-11.61a1 1 0 00-.63-.11l-22.37 2.81h-10.3a1.09 1.09 0 00-.81 1.81 1.08 1.08 0 01-.24 1.64c-2 1.21-5.73 4.39-3.93 10.72a1.17 1.17 0 00.09.24c.44.8-.73 4.45.47 17.23a1.37 1.37 0 002.71.15c2.11-10.18 9.64-21.75 14.07-25.73a1.06 1.06 0 01.92-.23l39.75 5.43a1.08 1.08 0 01.51.26c.54.51 1.72 5.17 2.76 10.3a1.31 1.31 0 002.6-.36z" fill="#d1a44a"/><path d="M657.59 37.82C655 37.65 634.68 34.08 629 24c0 0 6-17 23-20 0 0 10.46-1.7 23.2 7.7.37.28 5.86 6.35 6.12 6.73 1.92 2.73 6.2 9.82 11.94 11.87a.3.3 0 01-.06.58c-5 .54-21 2-29.24-.84l9.36 5.22a.2.2 0 01-.1.38c-4.14-.39-20.88-2-23.17-3.79l7.6 5.79a.1.1 0 01-.06.18z" fill="#ddae47"/><rect fill="#fff" height="16" rx="8" stroke="#000" stroke-miterlimit="10" stroke-width="2" width="20" x="668" y="38"/><rect fill="#fff" height="16" rx="8" stroke="#000" stroke-miterlimit="10" stroke-width="2" width="20" x="643" y="38"/><path d="M663 46h5" fill="none" stroke="#000" stroke-miterlimit="10" stroke-width="2"/><circle cx="656.5" cy="45.5" r="1.5"/><circle cx="680.5" cy="45.5" r="1.5"/><path d="M783.188 115.625l25.114 14.5-6.5 11.258-25.114-14.5z" fill="#8c6239"/><path d="M804.856 108.18l12.13 6.991-19.976 34.655-12.13-6.991z" fill="#1b1464"/><path d="M772.131 164.431l15-25.98 11.796 6.81-15 25.98z" fill="#8c6239"/><path d="M823.31 154.89L790 135l6-11 21.59 12.8 13.1-22.69 12.12 7z" fill="#1b1464"/><path d="M860.45 91.34L837.68 129l-33.37-20.2L822 75h-6a341.54 341.54 0 00-36 0l1-12c26-1 34 0 34 0h12l35 12 4 2 3 2a16.65 16.65 0 00-5 6l-2 4s0 1-1.55 2.34" fill="#fff"/><circle cx="774.5" cy="69.5" fill="#f9d0a7" r="9.5"/><path d="M841.86 70.05l-.5 10.96 4.46 2.26 9.88-6.21z" fill="#006837"/><path d="M841.36 81l-21.21 35.21 1.66 9.08a.54.54 0 00.77.43l7.42-4.52 15.86-37.93z" fill="#009245"/><path d="M841.43 69.83l.29 9.19a.79.79 0 01-1.45.29l-9.95-15.11zM847.25 81.73l8-4.89L866 77l-18.56 5.32a.32.32 0 01-.19-.59z" fill="#e6e6e6"/><ellipse cx="857.61" cy="45.14" fill="#f9d0a7" rx="32.39" ry="32.14"/><circle cx="826.95" cy="51.78" fill="#f9d0a7" r="6.45"/><path d="M876 64.23c0 2.63-3.36 4.77-7.5 4.77s-7.5-2.14-7.5-4.77 3.86-1.23 8-1.23 7-1.41 7 1.23z" fill="#fff"/><path d="M889.36 40.31c-.5-5.47-1.35-6.86-2.26-11.77a1.09 1.09 0 00-.58-.78l-22.76-11.61a1 1 0 00-.63-.11l-22.37 2.81h-10.3a1.09 1.09 0 00-.81 1.81 1.08 1.08 0 01-.24 1.64c-2 1.21-5.73 4.39-3.93 10.72a1.17 1.17 0 00.09.24c.44.8-.73 4.45.47 17.23a1.37 1.37 0 002.71.15c2.11-10.18 9.64-21.75 14.07-25.73a1.06 1.06 0 01.92-.23l39.75 5.43a1.08 1.08 0 01.51.26c.54.51 1.72 5.17 2.76 10.3a1.31 1.31 0 002.6-.36z" fill="#d1a44a"/><path d="M858.59 35.82C856 35.65 835.68 32.08 830 22c0 0 6-17 23-20 0 0 10.46-1.7 23.2 7.7.37.28 5.86 6.35 6.12 6.73 1.92 2.73 6.2 9.82 11.94 11.87a.3.3 0 01-.06.58c-5 .54-21 2-29.24-.84l9.36 5.22a.2.2 0 01-.1.38c-4.14-.39-20.88-2-23.17-3.79l7.6 5.79a.1.1 0 01-.06.18z" fill="#ddae47"/><rect fill="#fff" height="16" rx="8" stroke="#000" stroke-miterlimit="10" stroke-width="2" width="20" x="869" y="36"/><rect fill="#fff" height="16" rx="8" stroke="#000" stroke-miterlimit="10" stroke-width="2" width="20" x="844" y="36"/><path d="M864 44h5" fill="none" stroke="#000" stroke-miterlimit="10" stroke-width="2"/><circle cx="857.5" cy="43.5" r="1.5"/><circle cx="881.5" cy="43.5" r="1.5"/><path d="M995.314 172.337l15.462-24.534 11.734 7.395-15.462 24.534z" fill="#8c6239"/><path d="M1004.851 108.179l12.13 6.991-19.976 34.655-12.13-6.991z" fill="#1b1464"/><path d="M972.722 160.575l15-26.1 12.17 6.995-15 26.1z" fill="#8c6239"/><path d="M1023.31 154.89L1021 158l-12-8 8.59-13.2 13.1-22.69 12.12 7z" fill="#1b1464"/><path d="M1060.45 91.34L1037.68 129l-33.37-20.19L1022 75h-6a341.54 341.54 0 00-36 0l1-12c26-1 34 0 34 0h12l35 12 4 2 3 2a16.65 16.65 0 00-5 6l-2 4s0 1-1.55 2.34" fill="#fff"/><circle cx="974.5" cy="69.5" fill="#f9d0a7" r="9.5"/><path d="M1041.86 70.05l-.5 10.96 4.46 2.26 9.88-6.21z" fill="#006837"/><path d="M1041.36 81l-21.21 35.21 1.66 9.08a.54.54 0 00.77.43l7.38-4.53 15.86-37.93z" fill="#009245"/><path d="M1041.43 69.83l.29 9.19a.79.79 0 01-1.45.29l-10-15.11zM1047.25 81.73l8-4.89L1066 77l-18.56 5.32a.32.32 0 01-.19-.59z" fill="#e6e6e6"/><ellipse cx="1057.61" cy="45.14" fill="#f9d0a7" rx="32.39" ry="32.14"/><circle cx="1026.95" cy="51.78" fill="#f9d0a7" r="6.45"/><path d="M1076 64.23c0 2.63-3.36 4.77-7.5 4.77s-7.5-2.14-7.5-4.77 3.86-1.23 8-1.23 7-1.41 7 1.23z" fill="#fff"/><path d="M1089.36 40.31c-.5-5.47-1.35-6.86-2.26-11.77a1.09 1.09 0 00-.58-.78l-22.76-11.61a1 1 0 00-.63-.11l-22.37 2.81h-10.3a1.09 1.09 0 00-.81 1.81 1.08 1.08 0 01-.24 1.64c-2 1.21-5.73 4.39-3.93 10.72a1.17 1.17 0 00.09.24c.44.8-.73 4.45.47 17.23a1.37 1.37 0 002.71.15c2.11-10.18 9.64-21.75 14.07-25.73a1.06 1.06 0 01.92-.23l39.75 5.43a1.08 1.08 0 01.51.26c.54.51 1.72 5.17 2.76 10.3a1.31 1.31 0 002.6-.36z" fill="#d1a44a"/><path d="M1058.59 35.82c-2.59-.17-22.91-3.74-28.59-13.82 0 0 6-17 23-20 0 0 10.46-1.7 23.2 7.7.37.28 5.86 6.35 6.12 6.73 1.92 2.73 6.2 9.82 11.94 11.87a.3.3 0 01-.06.58c-5 .54-21 2-29.24-.84l9.36 5.22a.2.2 0 01-.1.38c-4.14-.39-20.88-2-23.17-3.79l7.6 5.79a.1.1 0 01-.06.18z" fill="#ddae47"/><rect fill="#fff" height="16" rx="8" stroke="#000" stroke-miterlimit="10" stroke-width="2" width="20" x="1069" y="36"/><rect fill="#fff" height="16" rx="8" stroke="#000" stroke-miterlimit="10" stroke-width="2" width="20" x="1044" y="36"/><path d="M1064 44h5" fill="none" stroke="#000" stroke-miterlimit="10" stroke-width="2"/><circle cx="1057.5" cy="43.5" r="1.5"/><circle cx="1081.5" cy="43.5" r="1.5"/><path d="M1111.403 368.707l-15.462-24.534 11.734-7.395 15.462 24.534z" fill="#8c6239"/><path d="M1133.586 331.824l-12.13 6.991-19.975-34.655 12.129-6.991z" fill="#1b1464"/><path d="M1134.217 360.43l-15-25.982 12.116-6.995 15 25.981z" fill="#8c6239"/><path d="M1095.15 343.89l2.31 3.11 12-8-8.58-13.2-13.1-22.69-12.13 7z" fill="#1b1464"/><path d="M1058 280.34l22.79 37.66 33.37-20.19-17.7-33.8h6a341.54 341.54 0 0136 0l-1-12c-26-1-34 0-34 0h-12l-35 12-4 2-3 2a16.65 16.65 0 015 6l2 4s0 1 1.56 2.34" fill="#fff"/><circle cx="1143.96" cy="258.5" fill="#f9d0a7" r="9.5"/><path d="M1076.6 259.05l.5 10.96-4.46 2.26-9.87-6.21z" fill="#006837"/><path d="M1077.1 270l21.22 35.21-1.67 9.08a.53.53 0 01-.76.43l-7.38-4.53-15.87-37.93z" fill="#009245"/><path d="M1077 258.83l-.3 9.19a.8.8 0 001.46.29l9.94-15.11zM1071.22 270.73l-8-4.89-10.75.16 18.56 5.32a.32.32 0 00.19-.59z" fill="#e6e6e6"/><ellipse cx="1060.86" cy="234.14" fill="#f9d0a7" rx="32.39" ry="32.14"/><circle cx="1091.52" cy="240.78" fill="#f9d0a7" r="6.45"/><path d="M1042.46 253.23c0 2.63 3.36 4.77 7.5 4.77s7.5-2.14 7.5-4.77-3.85-1.23-8-1.23-7-1.41-7 1.23z" fill="#fff"/><path d="M1029.1 229.31c.51-5.47 1.36-6.86 2.27-11.77a1.07 1.07 0 01.57-.78l22.76-11.61a1.07 1.07 0 01.63-.11l22.37 2.81h10.3a1.09 1.09 0 01.82 1.81 1.08 1.08 0 00.23 1.64c2 1.21 5.74 4.39 3.94 10.72a1.22 1.22 0 01-.1.24c-.43.8.73 4.45-.47 17.23a1.37 1.37 0 01-2.7.15c-2.11-10.18-9.64-21.75-14.07-25.73a1.07 1.07 0 00-.93-.23l-39.72 5.44a1.11 1.11 0 00-.52.26c-.53.51-1.71 5.17-2.76 10.3a1.31 1.31 0 01-2.62-.37z" fill="#d1a44a"/><path d="M1059.88 224.82c2.59-.17 22.9-3.74 28.58-13.82 0 0-6-17-23-20 0 0-10.46-1.7-23.2 7.7-.37.28-5.85 6.35-6.12 6.73-1.91 2.73-6.19 9.82-11.94 11.87a.3.3 0 00.07.58c5 .54 21 2 29.23-.84l-9.36 5.22a.2.2 0 00.1.38c4.14-.39 20.88-2 23.18-3.79l-7.61 5.79a.1.1 0 00.07.18z" fill="#ddae47"/><rect fill="#fff" height="16" rx="8" stroke="#000" stroke-miterlimit="10" stroke-width="2" transform="rotate(180 1039.465 233)" width="20" x="1029.46" y="225"/><rect fill="#fff" height="16" rx="8" stroke="#000" stroke-miterlimit="10" stroke-width="2" transform="rotate(180 1064.465 233)" width="20" x="1054.46" y="225"/><path d="M1054.46 233h-5" fill="none" stroke="#000" stroke-miterlimit="10" stroke-width="2"/><circle cx="1060.96" cy="232.5" r="1.5"/><circle cx="1036.96" cy="232.5" r="1.5"/><path d="M436.5 134.5h14v40h-14z" fill="#1b1464"/><path d="M436 162h30v13h-30z" fill="#8c6239"/><path d="M461.5 135.5h14v39h-14z" fill="#1b1464"/><path d="M461.5 161.5h29v13h-29z" fill="#8c6239"/><path d="M475.5 93.5v44h-39v-45C430 110 439 134 439 134l-15 5c-18-56 12.5-63.5 12.5-63.5h35l5 1 3.5.5s1 38 20 42l-9 10s-18-1-15.5-35.5" fill="#fff"/><circle cx="432.5" cy="138.5" fill="#f9d0a7" r="9.5"/><circle cx="500.5" cy="128.5" fill="#f9d0a7" r="9.5"/><path d="M450.99 75.5l4.51 10h5l6-10z" fill="#006837"/><path d="M455.5 85.5l-3 41 5.59 7.34a.53.53 0 00.88 0l4.53-7.38-3-41z" fill="#009245"/><path d="M450.5 75.5l4.42 8.07a.8.8 0 01-1.17.91l-15.7-9zM461.07 83.48l4.93-8h9.5l-14 8.42a.32.32 0 01-.43-.42z" fill="#e6e6e6"/><ellipse cx="456.61" cy="46.14" fill="#f9d0a7" rx="32.39" ry="32.14"/><circle cx="425.95" cy="52.78" fill="#f9d0a7" r="6.45"/><path d="M475 65.23c0 2.63-3.36 4.77-7.5 4.77s-7.5-2.14-7.5-4.77 3.86-1.23 8-1.23 7-1.41 7 1.23z" fill="#fff"/><path d="M488.36 41.31c-.5-5.47-1.35-6.86-2.26-11.77a1.09 1.09 0 00-.58-.78l-22.76-11.61a1 1 0 00-.63-.11l-22.37 2.81h-10.3a1.09 1.09 0 00-.81 1.81 1.08 1.08 0 01-.24 1.64c-2 1.21-5.73 4.39-3.93 10.72a1.17 1.17 0 00.09.24c.44.8-.73 4.45.47 17.23a1.37 1.37 0 002.71.15c2.11-10.18 9.64-21.75 14.07-25.73a1.06 1.06 0 01.92-.23l39.75 5.43a1.08 1.08 0 01.51.26c.54.51 1.72 5.17 2.76 10.3a1.31 1.31 0 002.6-.36z" fill="#d1a44a"/><path d="M457.59 36.82C455 36.65 434.68 33.08 429 23c0 0 6-17 23-20 0 0 10.46-1.7 23.2 7.7.37.28 5.86 6.35 6.12 6.73 1.92 2.73 6.2 9.82 11.94 11.87a.3.3 0 01-.06.58c-5 .54-21 2-29.24-.84l9.36 5.22a.2.2 0 01-.1.38c-4.14-.39-20.88-2-23.17-3.79l7.6 5.79a.1.1 0 01-.06.18z" fill="#ddae47"/><rect fill="#fff" height="16" rx="8" stroke="#000" stroke-miterlimit="10" stroke-width="2" width="20" x="468" y="37"/><rect fill="#fff" height="16" rx="8" stroke="#000" stroke-miterlimit="10" stroke-width="2" width="20" x="443" y="37"/><path d="M463 45h5" fill="none" stroke="#000" stroke-miterlimit="10" stroke-width="2"/><circle cx="456.5" cy="44.5" r="1.5"/><circle cx="480.5" cy="44.5" r="1.5"/><path d="M230 158v-14h11v-10l21 3v21z" fill="#1b1464"/><path d="M218 174v-30h13v30z" fill="#8c6239"/><path d="M302 135v14h-46v-15z" fill="#1b1464"/><path d="M296 149v-29h13v29z" fill="#8c6239"/><path d="M280 90l-.5 46.5h-39v-45C232 77 202 91 202 91l-6-12c27-18 46-6 46-6l2 1h1l30.5.5 5 1S303 84 321 69l8 12s-28.79 20-49.5 11.5" fill="#fff"/><circle cx="193.5" cy="87.5" fill="#f9d0a7" r="9.5"/><circle cx="327.5" cy="72.5" fill="#f9d0a7" r="9.5"/><path d="M254.99 74.5l4.51 10h5l6-10z" fill="#006837"/><path d="M259.5 84.5l-3 41 5.59 7.34a.53.53 0 00.88 0l4.53-7.38-3-41z" fill="#009245"/><path d="M254.5 74.5l4.42 8.07a.8.8 0 01-1.17.91L244 74zM265.07 82.48l4.93-8 8 .5-12.49 7.92a.32.32 0 01-.44-.42z" fill="#e6e6e6"/><ellipse cx="260.61" cy="45.14" fill="#f9d0a7" rx="32.39" ry="32.14"/><circle cx="229.95" cy="51.78" fill="#f9d0a7" r="6.45"/><path d="M279 64.23c0 2.63-3.36 4.77-7.5 4.77s-7.5-2.14-7.5-4.77 3.86-1.23 8-1.23 7-1.41 7 1.23z" fill="#fff"/><path d="M292.36 40.31c-.5-5.47-1.35-6.86-2.26-11.77a1.09 1.09 0 00-.58-.78l-22.76-11.61a1 1 0 00-.63-.11l-22.37 2.81h-10.3a1.09 1.09 0 00-.81 1.81 1.08 1.08 0 01-.24 1.64c-2 1.21-5.73 4.39-3.93 10.72a1.17 1.17 0 00.09.24c.44.8-.73 4.45.47 17.23a1.37 1.37 0 002.71.15c2.11-10.18 9.64-21.75 14.07-25.73a1.06 1.06 0 01.92-.23l39.75 5.43a1.08 1.08 0 01.51.26c.54.51 1.72 5.17 2.76 10.3a1.31 1.31 0 002.6-.36z" fill="#d1a44a"/><path d="M261.59 35.82C259 35.65 238.68 32.08 233 22c0 0 6-17 23-20 0 0 10.46-1.7 23.2 7.7.37.28 5.86 6.35 6.12 6.73 1.92 2.73 6.2 9.82 11.94 11.87a.3.3 0 01-.06.58c-5 .54-21 2-29.24-.84l9.36 5.22a.2.2 0 01-.1.38c-4.14-.39-20.88-2-23.17-3.79l7.6 5.79a.1.1 0 01-.06.18z" fill="#ddae47"/><rect fill="#fff" height="16" rx="8" stroke="#000" stroke-miterlimit="10" stroke-width="2" width="20" x="272" y="36"/><rect fill="#fff" height="16" rx="8" stroke="#000" stroke-miterlimit="10" stroke-width="2" width="20" x="247" y="36"/><path d="M267 44h5" fill="none" stroke="#000" stroke-miterlimit="10" stroke-width="2"/><circle cx="260.5" cy="43.5" r="1.5"/><circle cx="284.5" cy="43.5" r="1.5"/><path d="M1218.04 151.19l-.49-13.99 45.45-.2 1 13z" fill="#1b1464"/><path d="M1229.894 120.747l1.053 29.982-12.992.456-1.053-29.982z" fill="#8c6239"/><path d="M1308.49 134.22l.92 13.97L1264 150l-4-13z" fill="#1b1464"/><path d="M1291.077 145.714l-2.03-29 13-.91 2.03 29z" fill="#8c6239"/><path d="M1280.5 92.5v44h-39v-45C1224 71 1198 79 1198 79l-5-13a44.49 44.49 0 0148.5 8.5l31.5.5h8s11-15 46-10l-6 14s-23-2-40.5 13.5" fill="#fff"/><circle cx="1190.5" cy="74.5" fill="#f9d0a7" r="9.5"/><circle cx="1330.5" cy="73.5" fill="#f9d0a7" r="9.5"/><path d="M1255.99 74.5l4.51 10h5l6-10z" fill="#006837"/><path d="M1260.5 84.5l-3 41 5.59 7.34a.53.53 0 00.88 0l4.53-7.38-3-41z" fill="#009245"/><path d="M1255.5 74.5l4.42 8.07a.8.8 0 01-1.17.91l-15.7-9zM1266.07 82.48l4.93-8h9.5l-14 8.42a.32.32 0 01-.43-.42z" fill="#e6e6e6"/><ellipse cx="1261.61" cy="45.14" fill="#f9d0a7" rx="32.39" ry="32.14"/><circle cx="1230.95" cy="51.78" fill="#f9d0a7" r="6.45"/><path d="M1280 64.23c0 2.63-3.36 4.77-7.5 4.77s-7.5-2.14-7.5-4.77 3.86-1.23 8-1.23 7-1.41 7 1.23z" fill="#fff"/><path d="M1293.36 40.31c-.5-5.47-1.35-6.86-2.26-11.77a1.09 1.09 0 00-.58-.78l-22.76-11.61a1 1 0 00-.63-.11l-22.37 2.81h-10.3a1.09 1.09 0 00-.81 1.81 1.08 1.08 0 01-.24 1.64c-2 1.21-5.73 4.39-3.93 10.72a1.17 1.17 0 00.09.24c.44.8-.73 4.45.47 17.23a1.37 1.37 0 002.71.15c2.11-10.18 9.64-21.75 14.07-25.73a1.06 1.06 0 01.92-.23l39.75 5.43a1.08 1.08 0 01.51.26c.54.51 1.72 5.17 2.76 10.3a1.31 1.31 0 002.6-.36z" fill="#d1a44a"/><path d="M1262.59 35.82c-2.59-.17-22.91-3.74-28.59-13.82 0 0 6-17 23-20 0 0 10.46-1.7 23.2 7.7.37.28 5.86 6.35 6.12 6.73 1.92 2.73 6.2 9.82 11.94 11.87a.3.3 0 01-.06.58c-5 .54-21 2-29.24-.84l9.36 5.22a.2.2 0 01-.1.38c-4.14-.39-20.88-2-23.17-3.79l7.6 5.79a.1.1 0 01-.06.18z" fill="#ddae47"/><rect fill="#fff" height="16" rx="8" stroke="#000" stroke-miterlimit="10" stroke-width="2" width="20" x="1273" y="36"/><rect fill="#fff" height="16" rx="8" stroke="#000" stroke-miterlimit="10" stroke-width="2" width="20" x="1248" y="36"/><path d="M1268 44h5" fill="none" stroke="#000" stroke-miterlimit="10" stroke-width="2"/><circle cx="1261.5" cy="43.5" r="1.5"/><circle cx="1285.5" cy="43.5" r="1.5"/><path d="M1411.59 147.52l-.08-14 45.44 1.15.61 13.02z" fill="#1b1464"/><path d="M1424.508 117.452l.167 30-13 .072-.167-30z" fill="#8c6239"/><path d="M1503.49 134.22l.92 13.97L1456 148l-1-13z" fill="#1b1464"/><path d="M1485.227 145.294l-2.03-29 13-.91 2.03 29z" fill="#8c6239"/><path d="M1475.5 92.5v44h-39v-45C1419 71 1393 79 1393 79l-5-13a44.49 44.49 0 0148.5 8.5l31.5.5h8s11-15 46-10l-6 14s-23-2-40.5 13.5" fill="#fff"/><circle cx="1385.5" cy="74.5" fill="#f9d0a7" r="9.5"/><circle cx="1525.5" cy="73.5" fill="#f9d0a7" r="9.5"/><path d="M1450.99 74.5l4.51 10h5l6-10z" fill="#006837"/><path d="M1455.5 84.5l-3 41 5.59 7.34a.53.53 0 00.88 0l4.53-7.38-3-41z" fill="#009245"/><path d="M1450.5 74.5l4.42 8.07a.8.8 0 01-1.17.91l-15.7-9zM1461.07 82.48l4.93-8h9.5l-14 8.42a.32.32 0 01-.43-.42z" fill="#e6e6e6"/><ellipse cx="1456.61" cy="45.14" fill="#f9d0a7" rx="32.39" ry="32.14"/><circle cx="1425.95" cy="51.78" fill="#f9d0a7" r="6.45"/><path d="M1475 64.23c0 2.63-3.36 4.77-7.5 4.77s-7.5-2.14-7.5-4.77 3.86-1.23 8-1.23 7-1.41 7 1.23z" fill="#fff"/><path d="M1488.36 40.31c-.5-5.47-1.35-6.86-2.26-11.77a1.09 1.09 0 00-.58-.78l-22.76-11.61a1 1 0 00-.63-.11l-22.37 2.81h-10.3a1.09 1.09 0 00-.81 1.81 1.08 1.08 0 01-.24 1.64c-2 1.21-5.73 4.39-3.93 10.72a1.17 1.17 0 00.09.24c.44.8-.73 4.45.47 17.23a1.37 1.37 0 002.71.15c2.11-10.18 9.64-21.75 14.07-25.73a1.06 1.06 0 01.92-.23l39.75 5.43a1.08 1.08 0 01.51.26c.54.51 1.72 5.17 2.76 10.3a1.31 1.31 0 002.6-.36z" fill="#d1a44a"/><path d="M1457.59 35.82c-2.59-.17-22.91-3.74-28.59-13.82 0 0 6-17 23-20 0 0 10.46-1.7 23.2 7.7.37.28 5.86 6.35 6.12 6.73 1.92 2.73 6.2 9.82 11.94 11.87a.3.3 0 01-.06.58c-5 .54-21 2-29.24-.84l9.36 5.22a.2.2 0 01-.1.38c-4.14-.39-20.88-2-23.17-3.79l7.6 5.79a.1.1 0 01-.06.18z" fill="#ddae47"/><rect fill="#fff" height="16" rx="8" stroke="#000" stroke-miterlimit="10" stroke-width="2" width="20" x="1468" y="36"/><rect fill="#fff" height="16" rx="8" stroke="#000" stroke-miterlimit="10" stroke-width="2" width="20" x="1443" y="36"/><path d="M1463 44h5" fill="none" stroke="#000" stroke-miterlimit="10" stroke-width="2"/><circle cx="1456.5" cy="43.5" r="1.5"/><circle cx="1480.5" cy="43.5" r="1.5"/><path d="M1640.5 133.5h14v40h-14z" fill="#1b1464"/><path d="M1624.5 160.5h30v13h-30z" fill="#8c6239"/><path d="M1665.5 134.5h14v39h-14z" fill="#1b1464"/><path d="M1665.5 160.5h29v13h-29z" fill="#8c6239"/><path d="M1679.5 92.5v44h-39v-45C1603 68 1605 44 1605 44h12c9 17 23.5 30.5 23.5 30.5l27.5.5 12.5.5A63.92 63.92 0 001704 44l12 2s-13 42-36.5 46.5" fill="#fff"/><circle cx="1610.5" cy="38.5" fill="#f9d0a7" r="9.5"/><circle cx="1710.5" cy="38.5" fill="#f9d0a7" r="9.5"/><path d="M1654.99 74.5l4.51 10h5l6-10z" fill="#006837"/><path d="M1659.5 84.5l-3 41 5.59 7.34a.53.53 0 00.88 0l4.53-7.38-3-41z" fill="#009245"/><path d="M1654.5 74.5l4.42 8.07a.8.8 0 01-1.17.91l-15.7-9zM1665.07 82.48l4.93-8h9.5l-14 8.42a.32.32 0 01-.43-.42z" fill="#e6e6e6"/><ellipse cx="1660.61" cy="45.14" fill="#f9d0a7" rx="32.39" ry="32.14"/><circle cx="1629.95" cy="51.78" fill="#f9d0a7" r="6.45"/><path d="M1678 64.23c0 2.63-2.36 4.77-6.5 4.77s-6.5-2.14-6.5-4.77 2.86-5.23 7-5.23 6 2.59 6 5.23z" fill="#fff"/><path d="M1692.36 40.31c-.5-5.47-1.35-6.86-2.26-11.77a1.09 1.09 0 00-.58-.78l-22.76-11.61a1 1 0 00-.63-.11l-22.37 2.81h-10.3a1.09 1.09 0 00-.81 1.81 1.08 1.08 0 01-.24 1.64c-2 1.21-5.73 4.39-3.93 10.72a1.17 1.17 0 00.09.24c.44.8-.73 4.45.47 17.23a1.37 1.37 0 002.71.15c2.11-10.18 9.64-21.75 14.07-25.73a1.06 1.06 0 01.92-.23l39.75 5.43a1.08 1.08 0 01.51.26c.54.51 1.72 5.17 2.76 10.3a1.31 1.31 0 002.6-.36z" fill="#d1a44a"/><path d="M1661.59 35.82c-2.59-.17-22.91-3.74-28.59-13.82 0 0 6-17 23-20 0 0 10.46-1.7 23.2 7.7.37.28 5.86 6.35 6.12 6.73 1.92 2.73 6.2 9.82 11.94 11.87a.3.3 0 01-.06.58c-5 .54-21 2-29.24-.84l9.36 5.22a.2.2 0 01-.1.38c-4.14-.39-20.88-2-23.17-3.79l7.6 5.79a.1.1 0 01-.06.18z" fill="#ddae47"/><g stroke-miterlimit="10"><rect fill="#f9d0a7" height="16" rx="8" stroke="#000" stroke-width="2" width="20" x="1672" y="36"/><rect fill="#f9d0a7" height="16" rx="8" stroke="#000" stroke-width="2" width="20" x="1647" y="36"/><path d="M1667 44h5" fill="none" stroke="#000" stroke-width="2"/><path d="M1647.5 44.5l18.5-.5M1673 44.5h18" stroke="#b79274"/></g><path d="M79.5 362.5h-14v-40h14z" fill="#1b1464"/><path d="M95.5 362.5h-30v-13h30z" fill="#8c6239"/><path d="M54.5 362.5h-14v-39h14z" fill="#1b1464"/><path d="M54.5 362.5h-29v-13h29z" fill="#8c6239"/><path d="M40.5 281.5v44h39v-45c21 8.53 21 28 21 28l15-3c-7-35-36-42-36-42h-35l-5 1s-28.6 6-35.5 41l14.79 3s1-18.47 21.71-27" fill="#fff"/><circle cx="110" cy="313" fill="#f9d0a7" r="9.5"/><circle cx="10" cy="313" fill="#f9d0a7" r="9.5"/><path d="M65.01 263.5l-4.51 10h-5l-6-10z" fill="#006837"/><path d="M60.5 273.5l3 41-5.59 7.34a.53.53 0 01-.88 0l-4.53-7.34 3-41z" fill="#009245"/><path d="M65.5 263.5l-4.42 8.07a.8.8 0 001.17.91l15.7-9zM54.93 271.48l-4.93-8h-9.5l14 8.42a.32.32 0 00.43-.42z" fill="#e6e6e6"/><ellipse cx="59.39" cy="234.14" fill="#f9d0a7" rx="32.39" ry="32.14"/><circle cx="90.05" cy="240.78" fill="#f9d0a7" r="6.45"/><path d="M41 253.23c0 2.63 3.36 4.77 7.5 4.77s7.5-2.14 7.5-4.77-3.86-1.23-8-1.23-7-1.41-7 1.23z" fill="#fff"/><path d="M27.64 229.31c.5-5.47 1.35-6.86 2.26-11.77a1.09 1.09 0 01.58-.78l22.76-11.61a1 1 0 01.63-.11l22.37 2.81h10.3a1.09 1.09 0 01.81 1.81 1.08 1.08 0 00.24 1.64c2 1.21 5.73 4.39 3.93 10.72a1.17 1.17 0 01-.09.24c-.44.8.73 4.45-.47 17.23a1.37 1.37 0 01-2.71.15c-2.11-10.18-9.64-21.75-14.07-25.73a1.06 1.06 0 00-.92-.23l-39.75 5.43a1.08 1.08 0 00-.51.26c-.54.51-1.72 5.17-2.76 10.3a1.31 1.31 0 01-2.6-.36z" fill="#d1a44a"/><path d="M58.41 224.82C61 224.65 81.32 221.08 87 211c0 0-6-17-23-20 0 0-10.46-1.7-23.2 7.7-.37.28-5.86 6.35-6.12 6.73-1.92 2.73-6.2 9.82-11.94 11.87a.3.3 0 00.06.58c5 .54 21 2 29.24-.84l-9.36 5.22a.2.2 0 00.1.38c4.14-.39 20.88-2 23.17-3.79l-7.6 5.79a.1.1 0 00.06.18z" fill="#ddae47"/><rect fill="#fff" height="16" rx="8" stroke="#000" stroke-miterlimit="10" stroke-width="2" transform="rotate(180 38 233)" width="20" x="28" y="225"/><rect fill="#fff" height="16" rx="8" stroke="#000" stroke-miterlimit="10" stroke-width="2" transform="rotate(180 63 233)" width="20" x="53" y="225"/><path d="M53 233h-5" fill="none" stroke="#000" stroke-miterlimit="10" stroke-width="2"/><circle cx="59.5" cy="232.5" r="1.5"/><circle cx="35.5" cy="232.5" r="1.5"/><path d="M733.048 325.514l-11.76 7.56-21.6-33.6 11.76-7.56z" fill="#1b1464"/><path d="M757.008 306.968l-25.29 16.136-6.993-10.959 25.29-16.137z" fill="#8c6239"/><path d="M713.617 343.474l-11.756 7.602-21.178-32.749 11.756-7.602z" fill="#1b1464"/><path d="M708.699 335.42l15.748 24.352-12.36 7.994-15.749-24.352z" fill="#8c6239"/><path d="M658.86 281l22 38 35-20-12-20-8-15c6 11 1 2 1 2v-1a1 1 0 01-1-1l-2-3-3-4-30 9h-23s-11 0-27-1v15s13 2 33.5 1.5" fill="#fff"/><circle cx="605.36" cy="272.5" fill="#f9d0a7" r="9.5"/><path d="M676.86 262.63l-.14 10.97-4.58 2-11.28-9.6z" fill="#006837"/><path d="M676.72 273.6l19.15 36.4-2.19 9a.53.53 0 01-.79.39l-7.11-4.95-13.64-38.84z" fill="#009245"/><path d="M677.31 262.44l-.83 9.16a.8.8 0 001.43.37l10.81-14.51zM670.81 274l-9.95-8h-9l18.72 8.56a.32.32 0 00.23-.56z" fill="#e6e6e6"/><ellipse cx="663.25" cy="234.14" fill="#f9d0a7" rx="32.39" ry="32.14"/><circle cx="693.91" cy="240.78" fill="#f9d0a7" r="6.45"/><path d="M644.86 253.23c0 2.63 3.36 4.77 7.5 4.77s7.5-2.14 7.5-4.77-3.86-1.23-8-1.23-7-1.41-7 1.23z" fill="#fff"/><path d="M631.49 229.31c.51-5.47 1.36-6.86 2.27-11.77a1.09 1.09 0 01.58-.78l22.76-11.61a1 1 0 01.63-.11l22.37 2.81h10.3a1.09 1.09 0 01.81 1.81 1.09 1.09 0 00.23 1.64c2 1.21 5.74 4.39 3.94 10.72a1.17 1.17 0 01-.09.24c-.44.8.72 4.45-.47 17.23a1.37 1.37 0 01-2.71.15c-2.11-10.17-9.64-21.74-14.11-25.72a1.07 1.07 0 00-.93-.23l-39.74 5.43a1.08 1.08 0 00-.51.26c-.54.51-1.72 5.17-2.77 10.3a1.31 1.31 0 01-2.56-.37z" fill="#d1a44a"/><path d="M662.27 224.82c2.59-.17 22.9-3.74 28.59-13.82 0 0-6-17-23-20 0 0-10.46-1.7-23.2 7.7-.37.28-5.86 6.35-6.12 6.73-1.92 2.73-6.2 9.82-11.94 11.87a.3.3 0 00.06.58c5 .54 21 2 29.23-.84l-9.35 5.22a.2.2 0 00.1.38c4.13-.39 20.88-2 23.17-3.79l-7.6 5.79a.1.1 0 00.06.18z" fill="#ddae47"/><rect fill="#fff" height="16" rx="8" stroke="#000" stroke-miterlimit="10" stroke-width="2" transform="rotate(180 641.86 233)" width="20" x="631.86" y="225"/><rect fill="#fff" height="16" rx="8" stroke="#000" stroke-miterlimit="10" stroke-width="2" transform="rotate(180 666.86 233)" width="20" x="656.86" y="225"/><path d="M656.86 233h-5" fill="none" stroke="#000" stroke-miterlimit="10" stroke-width="2"/><circle cx="663.36" cy="232.5" r="1.5"/><circle cx="639.36" cy="232.5" r="1.5"/><path d="M941.772 315.876l-25.114 14.5-6.5-11.258 25.114-14.5z" fill="#8c6239"/><path d="M933.59 331.815l-12.129 6.991-19.976-34.655 12.13-6.991z" fill="#1b1464"/><path d="M934.535 360.24l-15-25.98 11.795-6.81 15 25.98z" fill="#8c6239"/><path d="M895.15 343.89L928.47 324l-6-11-21.59 12.8-13.1-22.69-12.13 7z" fill="#1b1464"/><path d="M858 280.34L880.79 318l33.37-20.19-17.7-33.81h6a341.54 341.54 0 0136 0l-1-12c-26-1-34 0-34 0h-12l-35 12-4 2-3 2a16.65 16.65 0 015 6l2 4s0 1 1.56 2.34" fill="#fff"/><circle cx="943.96" cy="258.5" fill="#f9d0a7" r="9.5"/><path d="M876.6 259.05l.5 10.96-4.46 2.26-9.87-6.21z" fill="#006837"/><path d="M877.1 270l21.22 35.21-1.67 9.08a.53.53 0 01-.76.43l-7.38-4.53-15.87-37.93z" fill="#009245"/><path d="M877 258.83l-.3 9.19a.8.8 0 001.46.29l9.94-15.11zM871.22 270.73l-8-4.89-10.75.16 18.53 5.32a.32.32 0 00.22-.59z" fill="#e6e6e6"/><ellipse cx="860.86" cy="234.14" fill="#f9d0a7" rx="32.39" ry="32.14"/><circle cx="891.52" cy="240.78" fill="#f9d0a7" r="6.45"/><path d="M842.46 253.23c0 2.63 3.36 4.77 7.5 4.77s7.5-2.14 7.5-4.77-3.85-1.23-8-1.23-7-1.41-7 1.23z" fill="#fff"/><path d="M829.1 229.31c.51-5.47 1.36-6.86 2.27-11.77a1.07 1.07 0 01.57-.78l22.76-11.61a1.07 1.07 0 01.63-.11l22.37 2.81H888a1.09 1.09 0 01.82 1.81 1.08 1.08 0 00.23 1.64c2 1.21 5.74 4.39 3.94 10.72a1.22 1.22 0 01-.1.24c-.43.8.73 4.45-.47 17.23a1.37 1.37 0 01-2.7.15c-2.11-10.18-9.64-21.75-14.07-25.73a1.07 1.07 0 00-.93-.23L835 219.12a1.11 1.11 0 00-.52.26c-.53.51-1.71 5.17-2.76 10.3a1.31 1.31 0 01-2.62-.37z" fill="#d1a44a"/><path d="M859.88 224.82c2.59-.17 22.9-3.74 28.58-13.82 0 0-6-17-23-20 0 0-10.46-1.7-23.2 7.7-.37.28-5.85 6.35-6.12 6.73-1.91 2.73-6.19 9.82-11.94 11.87a.3.3 0 00.07.58c5 .54 21 2 29.23-.84l-9.36 5.22a.2.2 0 00.1.38c4.14-.39 20.88-2 23.18-3.79l-7.61 5.79a.1.1 0 00.07.18z" fill="#ddae47"/><rect fill="#fff" height="16" rx="8" stroke="#000" stroke-miterlimit="10" stroke-width="2" transform="rotate(180 839.465 233)" width="20" x="829.46" y="225"/><rect fill="#fff" height="16" rx="8" stroke="#000" stroke-miterlimit="10" stroke-width="2" transform="rotate(180 864.465 233)" width="20" x="854.46" y="225"/><path d="M854.46 233h-5" fill="none" stroke="#000" stroke-miterlimit="10" stroke-width="2"/><circle cx="860.96" cy="232.5" r="1.5"/><circle cx="836.96" cy="232.5" r="1.5"/><path d="M483.81 362.5h-14v-40h14z" fill="#1b1464"/><path d="M484.31 363h-30v-13h30z" fill="#8c6239"/><path d="M458.81 362.5h-14v-39h14z" fill="#1b1464"/><path d="M458.81 362.5h-29v-13h29z" fill="#8c6239"/><path d="M444.82 281.5v44h39v-45c6.5 17.5-2.5 41.5-2.5 41.5l15 5c18-56-12.5-63.5-12.5-63.5h-35l-5 1-3.5.5s-1 38-20 42l9 10s18-1 15.5-35.5" fill="#fff"/><circle cx="487.82" cy="326.5" fill="#f9d0a7" r="9.5"/><circle cx="419.82" cy="316.5" fill="#f9d0a7" r="9.5"/><path d="M469.33 263.5l-4.52 10h-5l-6-10z" fill="#006837"/><path d="M464.82 273.5l3 41-5.59 7.34a.53.53 0 01-.88 0l-4.53-7.38 3-41z" fill="#009245"/><path d="M469.82 263.5l-4.42 8.07a.79.79 0 001.16.91l15.71-9zM459.24 271.48l-4.92-8h-9.5l14 8.42a.32.32 0 00.42-.42z" fill="#e6e6e6"/><ellipse cx="463.71" cy="234.14" fill="#f9d0a7" rx="32.39" ry="32.14"/><circle cx="494.37" cy="240.78" fill="#f9d0a7" r="6.45"/><path d="M445.32 253.23c0 2.63 3.35 4.77 7.5 4.77s7.5-2.14 7.5-4.77-3.86-1.23-8-1.23-7-1.41-7 1.23z" fill="#fff"/><path d="M432 229.31c.51-5.47 1.36-6.86 2.27-11.77a1.07 1.07 0 01.57-.78l22.76-11.61a1.07 1.07 0 01.63-.11l22.37 2.81h10.3a1.09 1.09 0 01.82 1.81 1.08 1.08 0 00.23 1.64c2 1.21 5.74 4.39 3.94 10.72a1.22 1.22 0 01-.1.24c-.43.8.73 4.45-.47 17.23a1.37 1.37 0 01-2.7.15c-2.11-10.18-9.64-21.75-14.07-25.73a1.07 1.07 0 00-.93-.23l-39.74 5.43a1.08 1.08 0 00-.51.26c-.54.51-1.72 5.17-2.77 10.3a1.31 1.31 0 01-2.6-.36z" fill="#d1a44a"/><path d="M462.73 224.82c2.59-.17 22.9-3.74 28.59-13.82 0 0-6-17-23-20 0 0-10.47-1.7-23.21 7.7-.37.28-5.85 6.35-6.12 6.73-1.91 2.73-6.19 9.82-11.93 11.87a.3.3 0 00.06.58c5 .54 21 2 29.23-.84l-9.35 5.22a.2.2 0 00.11.38c4.13-.39 20.88-2 23.17-3.79l-7.61 5.79a.1.1 0 00.06.18z" fill="#ddae47"/><rect fill="#fff" height="16" rx="8" stroke="#000" stroke-miterlimit="10" stroke-width="2" transform="rotate(180 442.315 233)" width="20" x="432.32" y="225"/><rect fill="#fff" height="16" rx="8" stroke="#000" stroke-miterlimit="10" stroke-width="2" transform="rotate(180 467.315 233)" width="20" x="457.32" y="225"/><path d="M457.32 233h-5" fill="none" stroke="#000" stroke-miterlimit="10" stroke-width="2"/><circle cx="463.82" cy="232.5" r="1.5"/><circle cx="439.82" cy="232.5" r="1.5"/><path d="M291 347v-14h-11v-10l-21 3v21z" fill="#1b1464"/><path d="M290 363v-30h13v30z" fill="#8c6239"/><path d="M219 324v14h46v-15z" fill="#1b1464"/><path d="M212 338v-29h13v29z" fill="#8c6239"/><path d="M241 279l.5 46.5h39v-45C289 266 319 280 319 280l6-12c-27-18-46-6-46-6l-2 1h-1l-30.5.5-5 1S218 273 200 258l-8 12s28.79 20 49.5 11.5" fill="#fff"/><circle cx="327.5" cy="276.5" fill="#f9d0a7" r="9.5"/><circle cx="193.5" cy="261.5" fill="#f9d0a7" r="9.5"/><path d="M266.01 263.5l-4.51 10h-5l-6-10z" fill="#006837"/><path d="M261.5 273.5l3 41-5.59 7.34a.53.53 0 01-.88 0l-4.53-7.38 3-41z" fill="#009245"/><path d="M266.5 263.5l-4.42 8.07a.8.8 0 001.17.91L277 263zM255.93 271.48l-4.93-8-8 .5 12.49 7.92a.32.32 0 00.44-.42z" fill="#e6e6e6"/><ellipse cx="260.39" cy="234.14" fill="#f9d0a7" rx="32.39" ry="32.14"/><circle cx="291.05" cy="240.78" fill="#f9d0a7" r="6.45"/><path d="M242 253.23c0 2.63 3.36 4.77 7.5 4.77s7.5-2.14 7.5-4.77-3.86-1.23-8-1.23-7-1.41-7 1.23z" fill="#fff"/><path d="M228.64 229.31c.5-5.47 1.35-6.86 2.26-11.77a1.09 1.09 0 01.58-.78l22.76-11.61a1 1 0 01.63-.11l22.37 2.81h10.3a1.09 1.09 0 01.81 1.81 1.08 1.08 0 00.24 1.64c2 1.21 5.73 4.39 3.93 10.72a1.17 1.17 0 01-.09.24c-.44.8.73 4.45-.47 17.23a1.37 1.37 0 01-2.71.15c-2.11-10.18-9.64-21.75-14.07-25.73a1.06 1.06 0 00-.92-.23l-39.75 5.43a1.08 1.08 0 00-.51.26c-.54.51-1.72 5.17-2.76 10.3a1.31 1.31 0 01-2.6-.36z" fill="#d1a44a"/><path d="M259.41 224.82c2.59-.17 22.91-3.74 28.59-13.82 0 0-6-17-23-20 0 0-10.46-1.7-23.2 7.7-.37.28-5.86 6.35-6.12 6.73-1.92 2.73-6.2 9.82-11.94 11.87a.3.3 0 00.06.58c5 .54 21 2 29.24-.84l-9.36 5.22a.2.2 0 00.1.38c4.14-.39 20.88-2 23.17-3.79l-7.6 5.79a.1.1 0 00.06.18z" fill="#ddae47"/><rect fill="#fff" height="16" rx="8" stroke="#000" stroke-miterlimit="10" stroke-width="2" transform="rotate(180 239 233)" width="20" x="229" y="225"/><rect fill="#fff" height="16" rx="8" stroke="#000" stroke-miterlimit="10" stroke-width="2" transform="rotate(180 264 233)" width="20" x="254" y="225"/><path d="M254 233h-5" fill="none" stroke="#000" stroke-miterlimit="10" stroke-width="2"/><circle cx="260.5" cy="232.5" r="1.5"/><circle cx="236.5" cy="232.5" r="1.5"/><path d="M1302.96 340.19l.49-13.99-45.45-.2-1 13z" fill="#1b1464"/><path d="M1304.112 310.231l-1.053 29.982-12.992-.456 1.053-29.982z" fill="#8c6239"/><path d="M1212.51 323.22l-.92 13.97L1257 339l4-13z" fill="#1b1464"/><path d="M1211.538 337.168l1.902-28.938 12.972.853-1.902 28.937z" fill="#8c6239"/><path d="M1240.5 281.5v44h39v-45C1297 260 1323 268 1323 268l5-13a44.49 44.49 0 00-48.5 8.5l-31.5.5h-8s-11-15-46-10l6 14s23-2 40.5 13.5" fill="#fff"/><circle cx="1330.5" cy="263.5" fill="#f9d0a7" r="9.5"/><circle cx="1190.5" cy="262.5" fill="#f9d0a7" r="9.5"/><path d="M1265.01 263.5l-4.51 10h-5l-6-10z" fill="#006837"/><path d="M1260.5 273.5l3 41-5.59 7.34a.53.53 0 01-.88 0l-4.53-7.38 3-41z" fill="#009245"/><path d="M1265.5 263.5l-4.42 8.07a.8.8 0 001.17.91l15.7-9zM1254.93 271.48l-4.93-8h-9.5l14 8.42a.32.32 0 00.43-.42z" fill="#e6e6e6"/><ellipse cx="1259.39" cy="234.14" fill="#f9d0a7" rx="32.39" ry="32.14"/><circle cx="1290.05" cy="240.78" fill="#f9d0a7" r="6.45"/><path d="M1241 253.23c0 2.63 3.36 4.77 7.5 4.77s7.5-2.14 7.5-4.77-3.86-1.23-8-1.23-7-1.41-7 1.23z" fill="#fff"/><path d="M1227.64 229.31c.5-5.47 1.35-6.86 2.26-11.77a1.09 1.09 0 01.58-.78l22.76-11.61a1 1 0 01.63-.11l22.37 2.81h10.3a1.09 1.09 0 01.81 1.81 1.08 1.08 0 00.24 1.64c2 1.21 5.73 4.39 3.93 10.72a1.17 1.17 0 01-.09.24c-.44.8.73 4.45-.47 17.23a1.37 1.37 0 01-2.71.15c-2.11-10.18-9.64-21.75-14.07-25.73a1.06 1.06 0 00-.92-.23l-39.75 5.43a1.08 1.08 0 00-.51.26c-.54.51-1.72 5.17-2.76 10.3a1.31 1.31 0 01-2.6-.36z" fill="#d1a44a"/><path d="M1258.41 224.82c2.59-.17 22.91-3.74 28.59-13.82 0 0-6-17-23-20 0 0-10.46-1.7-23.2 7.7-.37.28-5.86 6.35-6.12 6.73-1.92 2.73-6.2 9.82-11.94 11.87a.3.3 0 00.06.58c5 .54 21 2 29.24-.84l-9.36 5.22a.2.2 0 00.1.38c4.14-.39 20.88-2 23.17-3.79l-7.6 5.79a.1.1 0 00.06.18z" fill="#ddae47"/><rect fill="#fff" height="16" rx="8" stroke="#000" stroke-miterlimit="10" stroke-width="2" transform="rotate(180 1238 233)" width="20" x="1228" y="225"/><rect fill="#fff" height="16" rx="8" stroke="#000" stroke-miterlimit="10" stroke-width="2" transform="rotate(180 1263 233)" width="20" x="1253" y="225"/><path d="M1253 233h-5" fill="none" stroke="#000" stroke-miterlimit="10" stroke-width="2"/><circle cx="1259.5" cy="232.5" r="1.5"/><circle cx="1235.5" cy="232.5" r="1.5"/><path d="M1503.41 336.52l.08-14-45.44 1.15-.61 13.02z" fill="#1b1464"/><path d="M1503.478 306.508l-.168 30-13-.073.168-30z" fill="#8c6239"/><path d="M1411.51 323.22l-.92 13.97L1459 337l1-13z" fill="#1b1464"/><path d="M1410.528 337.166l1.902-28.937 12.972.852-1.902 28.938z" fill="#8c6239"/><path d="M1439.5 281.5v44h39v-45C1496 260 1522 268 1522 268l5-13a44.49 44.49 0 00-48.5 8.5l-31.5.5h-8s-11-15-46-10l6 14s23-2 40.5 13.5" fill="#fff"/><circle cx="1529.5" cy="263.5" fill="#f9d0a7" r="9.5"/><circle cx="1389.5" cy="262.5" fill="#f9d0a7" r="9.5"/><path d="M1464.01 263.5l-4.51 10h-5l-6-10z" fill="#006837"/><path d="M1459.5 273.5l3 41-5.59 7.34a.53.53 0 01-.88 0l-4.53-7.38 3-41z" fill="#009245"/><path d="M1464.5 263.5l-4.42 8.07a.8.8 0 001.17.91l15.7-9zM1453.93 271.48l-4.93-8h-9.5l14 8.42a.32.32 0 00.43-.42z" fill="#e6e6e6"/><ellipse cx="1458.39" cy="234.14" fill="#f9d0a7" rx="32.39" ry="32.14"/><circle cx="1489.05" cy="240.78" fill="#f9d0a7" r="6.45"/><path d="M1440 253.23c0 2.63 3.36 4.77 7.5 4.77s7.5-2.14 7.5-4.77-3.86-1.23-8-1.23-7-1.41-7 1.23z" fill="#fff"/><path d="M1426.64 229.31c.5-5.47 1.35-6.86 2.26-11.77a1.09 1.09 0 01.58-.78l22.76-11.61a1 1 0 01.63-.11l22.37 2.81h10.3a1.09 1.09 0 01.81 1.81 1.08 1.08 0 00.24 1.64c2 1.21 5.73 4.39 3.93 10.72a1.17 1.17 0 01-.09.24c-.44.8.73 4.45-.47 17.23a1.37 1.37 0 01-2.71.15c-2.11-10.18-9.64-21.75-14.07-25.73a1.06 1.06 0 00-.92-.23l-39.75 5.43a1.08 1.08 0 00-.51.26c-.54.51-1.72 5.17-2.76 10.3a1.31 1.31 0 01-2.6-.36z" fill="#d1a44a"/><path d="M1457.41 224.82c2.59-.17 22.91-3.74 28.59-13.82 0 0-6-17-23-20 0 0-10.46-1.7-23.2 7.7-.37.28-5.86 6.35-6.12 6.73-1.92 2.73-6.2 9.82-11.94 11.87a.3.3 0 00.06.58c5 .54 21 2 29.24-.84l-9.36 5.22a.2.2 0 00.1.38c4.14-.39 20.88-2 23.17-3.79l-7.6 5.79a.1.1 0 00.06.18z" fill="#ddae47"/><rect fill="#fff" height="16" rx="8" stroke="#000" stroke-miterlimit="10" stroke-width="2" transform="rotate(180 1437 233)" width="20" x="1427" y="225"/><rect fill="#fff" height="16" rx="8" stroke="#000" stroke-miterlimit="10" stroke-width="2" transform="rotate(180 1462 233)" width="20" x="1452" y="225"/><path d="M1452 233h-5" fill="none" stroke="#000" stroke-miterlimit="10" stroke-width="2"/><circle cx="1458.5" cy="232.5" r="1.5"/><circle cx="1434.5" cy="232.5" r="1.5"/><path d="M1679.5 362.5h-14v-40h14z" fill="#1b1464"/><path d="M1695.5 362.5h-30v-13h30z" fill="#8c6239"/><path d="M1654.5 362.5h-14v-39h14z" fill="#1b1464"/><path d="M1654.5 362.5h-29v-13h29z" fill="#8c6239"/><path d="M1640.5 281.5v44h39v-45C1717 257 1715 233 1715 233h-12c-9 17-23.5 30.5-23.5 30.5l-27.5.5-12.5.5A63.92 63.92 0 011616 233l-12 2s13 42 36.5 46.5" fill="#fff"/><circle cx="1709.5" cy="227.5" fill="#f9d0a7" r="9.5"/><circle cx="1609.5" cy="227.5" fill="#f9d0a7" r="9.5"/><path d="M1665.01 263.5l-4.51 10h-5l-6-10z" fill="#006837"/><path d="M1660.5 273.5l3 41-5.59 7.34a.53.53 0 01-.88 0l-4.53-7.38 3-41z" fill="#009245"/><path d="M1665.5 263.5l-4.42 8.07a.8.8 0 001.17.91l15.7-9zM1654.93 271.48l-4.93-8h-9.5l14 8.42a.32.32 0 00.43-.42z" fill="#e6e6e6"/><ellipse cx="1659.39" cy="234.14" fill="#f9d0a7" rx="32.39" ry="32.14"/><circle cx="1690.05" cy="240.78" fill="#f9d0a7" r="6.45"/><path d="M1642 253.23c0 2.63 2.36 4.77 6.5 4.77s6.5-2.14 6.5-4.77-2.86-5.23-7-5.23-6 2.59-6 5.23z" fill="#fff"/><path d="M1627.64 229.31c.5-5.47 1.35-6.86 2.26-11.77a1.09 1.09 0 01.58-.78l22.76-11.61a1 1 0 01.63-.11l22.37 2.81h10.3a1.09 1.09 0 01.81 1.81 1.08 1.08 0 00.24 1.64c2 1.21 5.73 4.39 3.93 10.72a1.17 1.17 0 01-.09.24c-.44.8.73 4.45-.47 17.23a1.37 1.37 0 01-2.71.15c-2.11-10.18-9.64-21.75-14.07-25.73a1.06 1.06 0 00-.92-.23l-39.75 5.43a1.08 1.08 0 00-.51.26c-.54.51-1.72 5.17-2.76 10.3a1.31 1.31 0 01-2.6-.36z" fill="#d1a44a"/><path d="M1658.41 224.82c2.59-.17 22.91-3.74 28.59-13.82 0 0-6-17-23-20 0 0-10.46-1.7-23.2 7.7-.37.28-5.86 6.35-6.12 6.73-1.92 2.73-6.2 9.82-11.94 11.87a.3.3 0 00.06.58c5 .54 21 2 29.24-.84l-9.36 5.22a.2.2 0 00.1.38c4.14-.39 20.88-2 23.17-3.79l-7.6 5.79a.1.1 0 00.06.18z" fill="#ddae47"/><rect fill="#f9d0a7" height="16" rx="8" stroke="#000" stroke-miterlimit="10" stroke-width="2" transform="rotate(180 1638 233)" width="20" x="1628" y="225"/><rect fill="#f9d0a7" height="16" rx="8" stroke="#000" stroke-miterlimit="10" stroke-width="2" transform="rotate(180 1663 233)" width="20" x="1653" y="225"/><path d="M1653 233h-5" fill="none" stroke="#000" stroke-miterlimit="10" stroke-width="2"/><path d="M1672.5 233.5l-18.5-.5M1647 233.5h-18" stroke="#b79274" stroke-miterlimit="10"/></symbol>
</svg>