<?xml version="1.0" encoding="UTF-8"?>
<svg version="1.1" xmlns="http://www.w3.org/2000/svg" xmlns:xlink="http://www.w3.org/1999/xlink">
<defs>

</defs>
<symbol id="i-octopus-01" viewBox="0 0 1280 1024" xmlns="http://www.w3.org/2000/svg"><path d="M480 579l-73 120 427-4-79.79-114.63c-.73-.82-67.21-21.26-67.21-31.37 0-2-4.31-4-5.09-4H568c-15 23-42.85 20.52-80 32z" fill="#d54989"/><circle cx="636.64" cy="663.08" fill="#bb3c85" r="21.08"/><path d="M624.73 474.61a106.61 106.61 0 01-104.07-83.28 107.93 107.93 0 00-2.58 23.38 106.65 106.65 0 00213.3 0 107.93 107.93 0 00-2.58-23.38 106.61 106.61 0 01-104.07 83.28z" fill="#d54989"/><path d="M624.73 474.61a106.61 106.61 0 00104.07-83.28 106.66 106.66 0 00-208.14-.05 106.69 106.69 0 00104.07 83.33z" fill="#f16da9"/><path d="M684.52 549.16H564.94a35.5 35.5 0 01-35.5-35.5 35.5 35.5 0 0135.5-35.5h119.58a35.5 35.5 0 0135.5 35.5 35.5 35.5 0 01-35.5 35.5z" fill="#d54989"/><circle cx="627.36" cy="438.52" fill="#d54989" r="7.06"/><circle cx="685.87" cy="409.7" fill="#d54989" r="9.43"/><circle cx="640.89" cy="471.7" fill="#d54989" r="12.77"/><circle cx="577.92" cy="468.36" fill="#d54989" r="10.4"/><circle cx="545.98" cy="442.23" fill="#d54989" r="8.56"/><circle cx="686.14" cy="409.59" fill="#bb3c85" r="4.85"/><circle cx="639.92" cy="477.95" fill="#bb3c85" r="9.59"/><circle cx="613.85" cy="506.49" fill="#bb3c85" r="10.34"/><circle cx="663.94" cy="531.86" fill="#bb3c85" r="6.79"/><circle cx="678.97" cy="489.8" fill="#bb3c85" r="9.26"/><circle cx="568.15" cy="513.63" fill="#fff" r="24.43"/><circle cx="561.17" cy="516.42" fill="#033155" r="6.28"/><path d="M563.26 487.81l-12.56 6.98-9.77 18.14 51.64-1.39-8.37-18.15-9.77-5.58zM565.04 536.81l-12.76-4.08-10.31-11.64 51.63-1.42-7.81 12.47-9.59 4.16z" fill="#7a2c68"/><circle cx="567.45" cy="512.93" fill="none" r="24.43" stroke="#9b3273" stroke-miterlimit="10" stroke-width="5"/><circle cx="682.87" cy="515.02" fill="#fff" r="24.43"/><circle cx="675.89" cy="517.82" fill="#033155" r="6.28"/><path d="M677.99 489.2l-12.56 6.98-9.77 18.15 51.64-1.4-8.38-18.14-9.77-5.59zM679.77 538.21l-12.76-4.08-10.31-11.64 51.63-1.42-7.82 12.46-9.59 4.17z" fill="#7a2c68"/><circle cx="682.18" cy="514.33" fill="none" r="24.43" stroke="#9b3273" stroke-miterlimit="10" stroke-width="5"/><path d="M608 565.82c12.67-6 28.53-3.26 41 2 5.85 2.47 11-6.14 5-8.64-16.06-6.79-34.75-9.69-51-2-5.82 2.75-.75 11.37 5 8.64z" fill="#7a2c68"/><g fill="#bb3c85"><circle cx="476.47" cy="650.73" r="5.01"/><circle cx="529.83" cy="638.07" r="6.63"/><circle cx="740.78" cy="646.62" r="4.47"/><circle cx="681.16" cy="598.23" r="8.78"/><path d="M740.83 585.84a9.08 9.08 0 009-8 102 102 0 01-17.4-4.31 9.3 9.3 0 00-.64 3.28 9.06 9.06 0 009.04 9.03zM526.29 587.44a12.88 12.88 0 009.21-21.87A196.92 196.92 0 00513 571c-.22.92.47 2.54.47 3.56a12.8 12.8 0 0012.82 12.88z"/><circle cx="487.57" cy="608.1" r="5.33"/><circle cx="588.61" cy="602.11" r="9.8"/></g><g fill="#fff" fill-rule="evenodd" opacity=".22"><path d="M627.51 313.48a94.75 94.75 0 00-9.68 1.06c-42.65 6.93-79 41.55-83.76 78.77v.07c0 1 .2 12.06 7.84 10.06 8-2.1 7-20.62 30.24-28.65s31.14-15.2 29.45-31.47 11.93-20.88 21.12-22.37 10.03-6.88 4.79-7.47z"/><path d="M633.27 331.26c-1.07-3.42-6.06-4.47-11.15-2.33s-8.36 6.65-7.29 10.08 6.07 4.47 11.17 2.33 8.34-6.65 7.27-10.08zM587.74 385.82c-2.22-4.48-9.59-5.11-16.46-1.41s-10.66 10.33-8.44 14.81 9.58 5.1 16.46 1.4 10.7-10.33 8.44-14.8z"/></g><circle cx="571.27" cy="425.74" fill="#d54989" r="12.39"/><circle cx="570.46" cy="426.97" fill="#bb3c85" r="5.55"/><circle cx="619.84" cy="388" fill="#d54989" r="9.43"/><circle cx="623.83" cy="387.89" fill="#bb3c85" r="3.93"/><circle cx="674.01" cy="365.34" fill="#d54989" r="18.85"/><circle cx="676.11" cy="366.2" fill="#bb3c85" r="8.46"/><path d="M814.985 593.283l220.846-19.321 9.882 112.948-220.847 19.322z" fill="#6c534f"/><rect fill="#a06b52" height="24.29" rx="3.13" transform="rotate(-5 935.888 696.929)" width="235.36" x="817.64" y="684.38"/><circle cx="832.89" cy="705.49" fill="#c49a6c" r="2.51"/><g fill="#ba9b4d" opacity=".23"><path d="M844.9 683.17a11.55 11.55 0 01-12.6-10.67 14.56 14.56 0 011-6.29l18.07-49a11.73 11.73 0 0110.11-8 12 12 0 0111.52 6.23l26.46 45.62a12.2 12.2 0 011.87 5.5 11.76 11.76 0 01-10.77 12.61c-5.42.47-8.83-1.8-12.75-8.73l-21.66 1.9c-2.37 7.16-5.62 10.33-11.25 10.83zm24.11-29l-4.36-8.17-2.87 8.81zM906.3 661a10.56 10.56 0 019.7-11.56c2.87-.25 5.39.49 8.58 2.68 5.44 3.48 6.11 3.85 7.81 3.7a2.88 2.88 0 002.71-3.34 3.34 3.34 0 00-2.07-2.82c-.67-.36-1-.55-4.85-1.6-2-.47-3.93-.94-5.91-1.52-10.61-2.71-16.3-8.95-17.16-18.83-1.21-13.8 8.58-24.18 24-25.53 12.74-1.12 23.32 4.81 24.08 13.51.49 5.63-3 10-8.29 10.47-3.18.28-5.82-.56-10-3.19-2.62-1.81-3.83-2.24-5.11-2.12a2.82 2.82 0 00-2.52 3c.19 2.12 1.76 2.95 7.44 4.27 6.21 1.28 12.19 3.64 15.73 6.11 4.67 3.23 8 9.36 8.57 16a24.37 24.37 0 01-5.21 17.47c-4.36 5.2-10.53 8.09-19.24 8.86-15.11 1.37-27.38-5.48-28.26-15.56zM989.75 640.1c.45 5.1 3 8 7.09 7.62s6.11-3.53 5.68-8.42l-2.47-28.25c-.46-5.2-.17-6.83 1.73-9.56a11.7 11.7 0 018.64-5.25 12.45 12.45 0 019.5 3.44c2.46 2.46 3.18 4.54 3.74 10.91l2.2 25.17c.84 9.56-.89 16.66-5.49 22.84a29.66 29.66 0 01-46.68 2.16c-4.87-5.56-6.69-10.43-7.51-19.78L964 616c-.59-6.69-.31-8.43 1.47-11.26a11.77 11.77 0 0117.77-2.41c2.55 2.24 3.63 4.82 4.07 9.81z"/></g><path d="M848.46 681.37a11.54 11.54 0 01-12.59-10.67 14.55 14.55 0 01.94-6.29l18.08-49a11.73 11.73 0 0110.11-7.93 12 12 0 0111.56 6.15L903 659.25a12.4 12.4 0 011.87 5.51 11.77 11.77 0 01-10.78 12.61c-5.41.47-8.82-1.8-12.74-8.73l-21.67 1.9c-2.34 7.16-5.59 10.33-11.22 10.83zm24.11-29l-4.35-8.18-2.87 8.81zM909.87 659.19a10.55 10.55 0 019.68-11.55c2.87-.25 5.4.49 8.59 2.68 5.44 3.48 6.11 3.85 7.81 3.7a2.89 2.89 0 002.7-3.34 3.32 3.32 0 00-2.06-2.82c-.68-.37-1-.55-4.85-1.61-2-.47-3.94-.94-5.91-1.51-10.62-2.71-16.3-9-17.17-18.83-1.2-13.8 8.59-24.18 24-25.53 12.74-1.12 23.31 4.8 24.08 13.51.49 5.63-3 10-8.29 10.46-3.18.28-5.83-.56-10-3.18-2.61-1.81-3.83-2.24-5.1-2.13a2.83 2.83 0 00-2.52 3c.18 2.12 1.75 3 7.43 4.27 6.21 1.27 12.2 3.64 15.73 6.11 4.67 3.23 8 9.36 8.58 16.05a24.42 24.42 0 01-5.25 17.53c-4.36 5.2-10.52 8.09-19.23 8.85-15.09 1.27-27.34-5.57-28.22-15.66zM993.32 638.3c.44 5.09 3 8 7.08 7.61s6.12-3.53 5.69-8.41l-2.47-28.25c-.46-5.2-.17-6.83 1.73-9.57a11.74 11.74 0 018.63-5.25 12.51 12.51 0 019.51 3.45c2.46 2.46 3.18 4.54 3.73 10.91l2.21 25.17c.83 9.56-.9 16.66-5.49 22.84a29.66 29.66 0 01-46.68 2.2c-4.88-5.56-6.69-10.43-7.51-19.78l-2.19-24.95c-.58-6.69-.31-8.43 1.48-11.26a11.76 11.76 0 0117.76-2.41c2.55 2.24 3.64 4.82 4.07 9.81z" fill="#ba9b4d"/><path d="M814.984 593.287l220.846-19.321 2.206 25.214L817.19 618.5z" fill="#8c7261" opacity=".25"/><rect fill="#a06b52" height="24.29" rx="3.13" transform="rotate(-5 923.401 554.568)" width="235.36" x="805.2" y="542.19"/><rect fill="#a06b52" height="24.29" rx="3.13" transform="rotate(-5 925.553 578.872)" width="235.36" x="807.32" y="566.39"/><path d="M807 579.82l.35 4.06 234.46-20.52-.35-4.07a3.13 3.13 0 00-3.4-2.84l-228.22 20a3.13 3.13 0 00-2.84 3.37z" fill="#875a45"/><path d="M922.35 548.29c-4.81.42-8.48 3.31-8.2 6.45l3.57 40.84c.28 3.15 4.39 5.36 9.2 4.93s8.47-3.31 8.2-6.45l-3.58-40.84c-.27-3.15-4.39-5.36-9.19-4.93z" fill="#a7a9ac"/><g fill="#c49a6c"><path d="M1031.24 542.33a2.51 2.51 0 102.72 2.28 2.51 2.51 0 00-2.72-2.28zM977.28 547.05a2.51 2.51 0 102.73 2.28 2.51 2.51 0 00-2.73-2.28zM1033.35 566.53a2.51 2.51 0 102.73 2.28 2.51 2.51 0 00-2.73-2.28zM979.4 571.25a2.51 2.51 0 102.73 2.29 2.51 2.51 0 00-2.73-2.29zM874.17 556.07a2.52 2.52 0 102.73 2.29 2.53 2.53 0 00-2.73-2.29zM820.22 560.8a2.51 2.51 0 102.73 2.28 2.5 2.5 0 00-2.73-2.28z"/><circle cx="876.51" cy="582.78" r="2.51"/><circle cx="822.56" cy="587.5" r="2.51"/><path d="M1043.68 684.51a2.51 2.51 0 102.73 2.29 2.51 2.51 0 00-2.73-2.29zM989.73 689.24a2.51 2.51 0 102.73 2.28 2.5 2.5 0 00-2.73-2.28z"/><circle cx="935.32" cy="696.52" r="2.51"/><circle cx="886.84" cy="700.77" r="2.51"/></g><path d="M936.1 610.74l-16.8 1.47-1.06-12A8.43 8.43 0 11935 598.7zm-14.44-1.36l11.61-1-.82-9.45a5.83 5.83 0 00-11.61 1z" fill="#bcbec0"/><path d="M932.31 603.55l-10.53.92a4.78 4.78 0 00-4.34 5.18l.66 7.57a10.05 10.05 0 0010.9 9.14 10.05 10.05 0 009.14-10.9l-.66-7.57a4.77 4.77 0 00-5.17-4.34z" fill="#898077"/><path d="M928.66 613.19a1.68 1.68 0 10-2.61-1.25 1.69 1.69 0 001 1.39l-.65 3.82 1.79-.16 1.79-.16z" fill="#231f20"/><path d="M925.33 580.51a1.41 1.41 0 00-1.28 1.54l1.05 12a1.42 1.42 0 002.82-.24l-1-12a1.43 1.43 0 00-1.59-1.3z" fill="#8c7261"/></symbol>
<symbol id="i-octopus-arm1" viewBox="0 0 363 427" xmlns="http://www.w3.org/2000/svg"><path d="M12.76 359s75.39 14.1 98.85-34.32c21.61-44.6.58-156.64-3.09-176.92-.38-2.07-1.94-22.15-2-24.25-.1-18.76 4.78-105.21 103.45-109.91 0 0 128.88-9.22 122.84 130.3 0 0-4.74 102.34-113.36 105.11 0 0-20.47 4.15-25-20.92 0 0-1.85-20.68 20.92-25 0 0 86.05 3.88 68.22-91.8 0 0-2.64-55.36-74.08-51.28 0 0-74.85.09-50.5 122.1 1.3 6.5 2.75 17.25 3.34 23.85l7.37 82.29s2.56 106.32-119 119.51L13.94 411z" fill="#d54989"/><g fill="#bb3c85"><path d="M26.83 372.84a9.08 9.08 0 009-8 102 102 0 01-17.4-4.31 9.3 9.3 0 00-.64 3.28 9.06 9.06 0 009.04 9.03z"/><circle cx="138.28" cy="303.72" r="10.72"/><circle cx="241.28" cy="227.72" r="10.72"/><circle cx="311.28" cy="157.72" r="5.72"/><path d="M138.78 109.76a12.88 12.88 0 007.35 16.66c3.27 1.26 4.89 1.85 7.87.58 1.74-8.44 0-14 4.91-23.69-.77-.53-2.54-.48-3.49-.85a12.8 12.8 0 00-16.64 7.3z"/></g></symbol>
<symbol id="i-octopus-arm1x1" viewBox="0 0 333 401" xmlns="http://www.w3.org/2000/svg"><path d="M4.76 349s75.39 14.1 98.85-34.32c21.61-44.6.58-156.64-3.09-176.92-.38-2.07-1.94-22.15-2-24.25C98.46 94.78 103.34 8.33 202 3.63c0 0 128.88-9.22 122.84 130.3 0 0-4.74 102.34-113.36 105.11 0 0-20.47 4.15-25-20.92 0 0-1.85-20.68 20.92-25 0 0 86.05 3.88 68.22-91.8 0 0-2.64-55.36-74.08-51.28 0 0-74.85.09-50.5 122.1 1.3 6.5 2.75 17.25 3.34 23.85l7.37 82.29s2.56 106.32-119 119.51L5.94 401z" fill="#d54989"/></symbol>
<symbol id="i-octopus-arm2" viewBox="0 0 582 291" xmlns="http://www.w3.org/2000/svg"><circle cx="376.61" cy="271.11" fill="#bb3c85" r="9.8"/><path d="M529.1 192l-38.25 30s-58.61 19.81-122.26 16l-256.21-3.87s-55-19-48.68-59.73l1.75-86.82s.71-35.75 42.21-32.36c0 0 30.31 8.27 24.1 41.35 0 0-14.41 27.81 27.08 31.2 0 0 33.34-4.44 28.47-37.74 0 0 12.62-76.39-78.63-85.88 0 0-85.65-11.94-98.73 87.42L7.8 198.82s6.87 71.66 123 84.22l238.2 4.78S498.19 298 558.13 245l12.38-31z" fill="#d54989"/><g fill="#bb3c85"><circle cx="436.47" cy="270.73" r="5.01"/><circle cx="68.47" cy="224.73" r="5.01"/><circle cx="157.47" cy="91.73" r="5.01"/><path d="M257.64 246a21.08 21.08 0 0112.05 38.37c-3.41 2.39-7.21.63-11.69.63-2.51 0-7.77.8-10 0-8.13-2.93-11.44-8.79-11.44-17.92A21.08 21.08 0 01257.64 246z"/><circle cx="27.61" cy="154.11" r="9.8"/><circle cx="104.61" cy="32.11" r="9.8"/></g></symbol>
<symbol id="i-octopus-arm2x2" viewBox="0 0 363 643" xmlns="http://www.w3.org/2000/svg"><path d="M-.24 592s75.39 14.1 98.85-34.32c21.61-44.6.58-156.64-3.09-176.92-.38-2.07-1.94-22.15-2-24.25-.1-18.76 4.78-105.21 103.45-109.91 0 0 111 24.37 107-102.63 0 0-23-132 14-144 0 0 23-6 34 77 0 0 7 59 1 81 0 0 0 21-12 67 0 0-12 61-144.48 68 0 0-74.85.09-50.5 122.1 1.3 6.5 2.75 17.25 3.34 23.85l7.37 82.29s2.56 106.32-119 119.51L.94 644z" fill="#d54989"/></symbol>
<symbol id="i-octopus-arm3" viewBox="0 0 383 498" xmlns="http://www.w3.org/2000/svg"><path d="M347.45 358s-49.92 39.35-86.26 7c-33.46-29.75-62.11-131.93-67.39-150.38-.54-1.88-7.3-19.39-8.12-21.17-7.31-15.86-45-87-119.41-55 0 0-98.48 39.16-39.09 154.65 0 0 43.79 84.61 124.82 47.4 0 0 16.7-4 10.18-26.77 0 0-6.78-18.12-25.25-13.5 0 0-61.8 34.61-86.36-52.6 0 0-19.86-47.66 34.32-70.24 0 0 55.12-27.18 85.25 84.62 1.61 6 4.77 15.55 6.93 21.34l27 72.1S244 446 338.71 412.88l28.36-10.61z" fill="#f16da9"/><path d="M135 33.71c-27.85 18.06-32.4 41.7-32.41 41.75l-.19 1 .76-.64a95.62 95.62 0 018.89-6.82 172.19 172.19 0 00-5.15 34c0 .94-.21 1.75-.24 2.49a3.8 3.8 0 01-.18 1.18 3.72 3.72 0 01-.88 1.32c-.33.38-2.21 1.75-2.21 1.76l-.87.64-.66.45-.44-1.84c-3.73-17.43-5.86-28.41-7.29-36.64-1.52-8.81-2.23-14.49-3.21-21.61 2.22 1.25 9 5.13 9 5.13l.72.42-.21-.81A140.84 140.84 0 0086.66 23c-1.32-2.27-2.58-4.24-3.77-5.93-4-5.72-7.41-10.18-7.57-10.39l-.41-.53-.2.63c-.08.26-1.79 5.6-3.65 12.34-.54 2-1.08 4.26-1.54 6.85a139.87 139.87 0 00-2 35.22l.06.83.54-.62s5.09-5.94 6.76-7.86c1.47 7 2.71 12.62 4.24 21.43 1.42 8.23 3.09 19.29 5.43 37l.21 1.88c-.66-.14-1.84-.52-1.84-.52s-2.24-.66-2.68-.9a4.06 4.06 0 01-1.27-.95 3.73 3.73 0 01-.56-1.05c-.29-.69-.72-1.4-1.06-2.27a172.81 172.81 0 00-16.29-30.3 94.18 94.18 0 0110.69 3.35l.93.35-.51-.85S59.92 59.92 27.62 52.27l-1-.25.7.81s4.77 5.54 10.33 12.9 11.9 16.56 15.08 23.82c3 6.73 12.25 28.61 15.59 47.92.33 1.95.61 3.85.81 5.73l.68.07s.68-2.16 1.57-4.69a64.91 64.91 0 012.44-6.14l15.08 49.24.68-.14-4.11-38.11 76.84 344.35 6.59-1.15L111.08 139l8.92 37.27.69-.09-2.33-51.45a62.08 62.08 0 014.36 5c1.69 2.09 3 3.89 3 3.89l.62-.29a86.02 86.02 0 01-1.16-5.67c-3.34-19.31-1.93-43-1.41-50.38.56-7.9 3.47-18.7 6.24-27.5s5.4-15.62 5.4-15.63l.39-1-.9.59M110 209l-14.68-50.74 5.73-1 5.74-1zm-3.56-58.73l.3 4.26-6 1-6 1-1.16-4.12v-.17l12.78-2.22zm-11.78.07l-.55-3.21 2.08-.37 3-.51 3-.51 2.09-.37.56 3.23zm10.63-6.92l-6.43 1.11-6.44 1.11-.76-4.41 12.85-2.23zm24.64-101.63c-11.17 25.83-10.7 52.2-9.38 77.83v.75l-3.84-2.37-14 10.49 1.47 8.66-6.4 1.1-6.4 1.11-1.54-8.65-16.71-5.18-2.87 3.53-.21-.73c-7.36-24.58-15.78-49.58-35-70.15l-.29-.31.41.11c1.25.36 2.42.73 3.56 1.09 10.15 3.34 16.51 7.44 25.36 16.08l2 1.71c-2-.55-4.77-1.35-7.44-1.83-1-.17-2.75-.37-2.75-.37.46.53 1.36 1.61 1.69 2 7.11 9 13.82 26.23 17.12 34.72l1 2.52a3 3 0 00.78 1.1 2.94 2.94 0 001.1.62l5 1.32 2.38.63a2.34 2.34 0 00.88 0 1.76 1.76 0 001.2-.79.47.47 0 00.07-.12 2.37 2.37 0 00.32-1.58c-.06-.76-.14-1.54-.22-2.36-.24-2.38-.55-5-.92-7.81-1.95-14.84-5.49-34.42-7.66-46.4-.72-3.95-1.34-7.38-1.78-10 .65-1 1.68-2.43 2-2.86a18.46 18.46 0 00-2.53 1.92c-.61.52-1.28 1.14-2 1.87a39.48 39.48 0 00-3 3.56q-.37.48-.75 1l-.22.31v-.38c.18-8.14.26-14.31 1-20.28A74.85 74.85 0 0172.59 26c.81-3.7 1.71-9 3.35-13.46v-.17l.12.14c3 3.68 5.66 8.34 7.67 11.55a77 77 0 013.76 6.76c2.65 5.4 4.8 11.18 7.71 18.78l.13.36-.31-.21c-.35-.24-.69-.47-1-.68A39.22 39.22 0 0090 46.8c-.92-.44-1.76-.8-2.5-1.09a19.51 19.51 0 00-3-1l2.82 2c.45 2.59 1 6 1.67 10 2 12 5.22 31.63 8.37 46.27.59 2.76 1.18 5.35 1.75 7.67.2.79.4 1.55.59 2.29a2.43 2.43 0 00.82 1.39s.07.06.12.09a1.74 1.74 0 001.39.33 2.23 2.23 0 00.81-.34l2-1.4 4.27-2.92a2.93 2.93 0 00.83-.95 2.78 2.78 0 00.37-1.3c0-.75.06-1.66.08-2.7.26-9.11.79-27.57 4.46-38.46.17-.5.67-1.82.91-2.47 0 0-1.63.78-2.46 1.26-2.36 1.35-4.71 3-6.4 4.23l1.34-2.3c5.44-11.1 10-17.11 18.5-23.66.94-.73 1.92-1.47 3-2.22l.35-.25z" fill="#4c3837" stroke="#4c3837" stroke-miterlimit="10"/><g fill="#ffc629" opacity=".88"><path d="M126.78 43.88c-8.45 6.55-13.06 12.55-18.5 23.65l-1.34 2.3c1.7-1.19 4-2.87 6.4-4.23.83-.48 2.46-1.26 2.46-1.26-.24.65-.74 2-.91 2.48-3.67 10.88-4.2 29.34-4.46 38.45 0 1-.06 1.95-.08 2.7a2.78 2.78 0 01-.37 1.3 3.11 3.11 0 01-.83 1l-6.3 4.3a2 2 0 01-.81.35 1.78 1.78 0 01-1.39-.33s-.08-.07-.12-.09a2.43 2.43 0 01-.82-1.39c-.19-.73-.39-1.5-.59-2.29-.57-2.32-1.16-4.91-1.75-7.67-3.19-14.66-6.44-34.28-8.37-46.29-.65-4-1.22-7.41-1.67-10l-2.82-2a19.53 19.53 0 013 1c.75.3 1.58.66 2.5 1.1A40.05 40.05 0 0194 49.08l1 .68.31.22-.13-.36c-2.9-7.6-5.06-13.39-7.72-18.78a74.18 74.18 0 00-3.75-6.75c-2-3.21-4.62-7.88-7.67-11.56l-.04-.14v.17c-1.7 4.49-2.6 9.77-3.41 13.44a74 74 0 00-1.26 7.61c-.7 6-.78 12.15-1 20.29v.38l.22-.3c.25-.34.5-.68.75-1a39.48 39.48 0 013.08-3.52c.71-.72 1.38-1.35 2-1.88a20 20 0 012.53-1.91c-.29.42-1.32 1.91-2 2.87.44 2.59 1.06 6 1.78 10 2.18 12 5.71 31.55 7.66 46.4.37 2.8.68 5.42.92 7.81.08.81.15 1.59.22 2.35a2.37 2.37 0 01-.32 1.58.83.83 0 01-.07.13 1.74 1.74 0 01-1.2.78 2.12 2.12 0 01-.88-.06l-2.38-.53-5-1.32a3 3 0 01-1.09-.62 2.69 2.69 0 01-.78-1.1c-.28-.69-.61-1.54-1-2.51-3.3-8.5-10-25.71-17.12-34.73-.33-.41-1.23-1.5-1.69-2 0 0 1.8.2 2.75.36 2.67.49 5.45 1.3 7.45 1.84l-2-1.71c-8.9-8.67-15.27-12.78-25.42-16.11-1.14-.37-2.32-.74-3.55-1.09l-.42-.12.29.31c19.2 20.57 27.62 45.58 35 70.16l.21.72 2.87-3.53 16.71 5.18 1.54 8.65 6.4-1.11 6.4-1.1-1.47-8.66 14-10.49 3.88 2.35v-.74c-1.32-25.64-1.79-52 9.38-77.84l.18-.39-.35.25c-1 .75-2 1.49-3 2.23M91.65 141.21l.76 4.41 6.43-1.11 6.44-1.11-.76-4.41zM95.32 158.26l23.35 98.58-11.88-100.56-5.74.99zM100 151.17l-6.39 1.11-.03.01.05.17 1.15 4.12 5.98-1.04 5.97-1.03-.3-4.26-.01-.19-.03.01zM104.75 148.57l-.56-3.22-2.08.37-5.92 1.02-2.09.36.56 3.23z"/></g><path d="M66.27 138.4s-98.48 39.16-39.09 154.65c0 0 43.79 84.61 124.82 47.4 0 0 16.7-4 10.18-26.77 0 0-6.78-18.12-25.25-13.5 0 0-61.8 34.61-86.36-52.6 0 0-19.86-47.66 34.32-70.24" fill="#f16da9"/></symbol>
<symbol id="i-octopus-arm4" viewBox="0 0 539 345" xmlns="http://www.w3.org/2000/svg"><g fill="#bb3c85"><path d="M510.36 276.59s-64.42 40.3-102.47 17.92C372.84 273.9 354 191.17 350.41 176.25c-.36-1.52-5.77-15.44-6.47-16.83-6.3-12.45-40.26-67.61-132.47-30.18 0 0-93.62 61.72-133.24-23.9 0 0-23.88-96.73-61.95-89.46 0 0-23.17 5.48-5 64.88 0 0 13.69 41.89 26.7 54 0 0 7.16 13.89 33.86 39.38 0 0 31.81 35.4 155.86-14.4 0 0 68.78-30.7 88 60a149.14 149.14 0 005.06 17.14l21.29 57.44s33.89 71.36 150 30.13L527 311.46z"/><circle cx="423.47" cy="314.73" r="5.01"/></g></symbol>
<symbol id="i-octopus-arm5" viewBox="0 0 346 513" xmlns="http://www.w3.org/2000/svg"><circle cx="318.83" cy="495.07" fill="#bb3c85" r="6.63"/><circle cx="276.57" cy="465.1" fill="#bb3c85" r="5.33"/><path d="M311.11 429.14s-54 27.39-97.88 14.66c0 0-53.81-9-44.48-72.11l37.61-254.53s12.87-73-63.84-103.07c0 0-56.11-14.53-83.32 14.74 0 0-32.12 20.22-38.44 63L7.52 181.41s-3.61 24.43 17.05 25.4c0 0 20.06 5.05 24-21.42l14.12-95.71s12.12-39.82 57.52-37.27c0 0 52.64 9.86 44.52 64.84l-38.82 262.67s-13 45.93 36.84 88.67c0 0 25.8 22.54 114.56 27.34l52.94 7.82z" fill="#d54989"/><g fill="#bb3c85"><circle cx="151.61" cy="437.11" r="9.8"/><path d="M166.78 249.76a12.88 12.88 0 0017.06 16.5 195.9 195.9 0 003.07-22.95c-.77-.53-2.54-.48-3.49-.85a12.8 12.8 0 00-16.64 7.3z"/><circle cx="176.47" cy="88.73" r="5.01"/><circle cx="32.47" cy="130.73" r="5.01"/><circle cx="103.47" cy="32.73" r="5.01"/><circle cx="239.78" cy="474.62" r="4.47"/></g></symbol>
<symbol id="i-octopus-arm6" viewBox="0 0 552 307" xmlns="http://www.w3.org/2000/svg"><path d="M19 248s173 56 306 40c0 0 131-5 185-71 0 0 60-67-16-165 0 0-61.74-87.36-177.5-19.5-116 68-113 92-113 92s-22.32 71.28 66-3c0 0 82-61 111-58 0 0 88-10 88 79 0 0 1 94-210 90 0 0-180-16-212-40S19 248 19 248z" fill="#d54989"/><path d="M510 216s60-67-16-165c0 0-74-87-188-19-77.88 46.46-74 72-74 72s-17 60 50 8c0 0 69.5-52.5 98.5-49.5 0 0 88-10 88 79" fill="#d54989"/><g fill="#bb3c85"><circle cx="147.28" cy="260.72" r="10.72"/><circle cx="467.28" cy="217.72" r="10.72"/><circle cx="252.28" cy="101.72" r="5.72"/><circle cx="311.28" cy="47.72" r="5.72"/><circle cx="509.28" cy="163.72" r="5.72"/><circle cx="456.16" cy="48.23" r="8.78"/><circle cx="68.61" cy="221.11" r="9.8"/></g></symbol>
<symbol id="i-octopus-arm7" viewBox="0 0 576 345" xmlns="http://www.w3.org/2000/svg"><path d="M24.94 273.55s46.24 48 87.26 25.55c37.79-20.66 79.41-110.56 87-126.77.78-1.65 9.8-16.65 10.85-18.15 9.39-13.33 56.44-72.05 128.64-25.62 0 0 66.27 73.23 127.48-18.67 0 0 50.3-105 82.54-94.86 0 0 19.3 7.35-14.77 71.64 0 0-24.8 45.29-40.15 57.84 0 0-10.59 14.86-42.28 41.36 0 0-39.26 37.12-136.54-24.73 0 0-53-37.69-97.33 60.94-2.36 5.26-6.75 13.6-9.66 18.57l-36.29 62s-51.8 76.54-144.51 24.57L-.46 311z" fill="#bb3c85"/></symbol>
<symbol id="i-octopus-arm8" viewBox="0 0 660 417" xmlns="http://www.w3.org/2000/svg"><path d="M189.86 347.34s58.35 8 131.58-6.76c0 0 92.06-11.25 104.3-80.15L431 169s-7.39-96.26 92.41-97.52c0 0 57 .69 57.48-38.76 0 0-5.4-24.73 31.68-26.74 0 0 31.36.37 28.06 37.32 0 0-3.71 71.47-120.73 82.39 0 0-57.19 14.1-35.78 130.26 0 0-3.47 101.73-136.08 128.82 0 0-100.66 38.45-176.56 14.57-73.15-23-156.27-23.8-156.27-23.8l17.12-34.24z" fill="#f16da9"/></symbol>
<symbol id="i-octopus-chest" viewBox="0 0 259 197" xmlns="http://www.w3.org/2000/svg"><path d="M12.906 66.148L239.2 46.35l10.125 115.728-226.295 19.798z" fill="#6c534f"/><rect fill="#a06b52" height="24.89" rx="3.21" transform="rotate(-5 136.252 172.088)" width="241.16" x="15.61" y="159.53"/><circle cx="31.23" cy="181.16" fill="#c49a6c" r="2.58"/><g fill="#ba9b4d"><g opacity=".23"><path d="M43.53 158.29a11.82 11.82 0 01-12.91-10.93 15.14 15.14 0 011-6.45l18.5-50.19a12 12 0 0110.36-8.15 12.26 12.26 0 0111.84 6.31l27.12 46.75a12.54 12.54 0 011.92 5.64 12.05 12.05 0 01-11 12.92c-5.55.49-9-1.84-13.06-8.94l-22.2 1.94c-2.47 7.34-5.8 10.59-11.57 11.1zm24.7-29.69l-4.46-8.38-2.93 9zM106.45 135.56a10.81 10.81 0 019.93-11.83c2.94-.26 5.52.5 8.79 2.74 5.57 3.57 6.27 3.95 8 3.79a3 3 0 002.77-3.42 3.42 3.42 0 00-2.12-2.88c-.69-.38-1-.57-5-1.65-2-.48-4-1-6.05-1.55-10.88-2.78-16.71-9.18-17.59-19.3C104 87.32 114 76.68 129.79 75.3c13.06-1.14 23.9 4.93 24.68 13.85.5 5.77-3.05 10.24-8.49 10.72-3.27.29-6-.57-10.27-3.27-2.68-1.85-3.93-2.29-5.23-2.17a2.88 2.88 0 00-2.58 3.07c.19 2.18 1.8 3 7.62 4.38 6.36 1.31 12.49 3.73 16.11 6.27 4.79 3.3 8.19 9.59 8.79 16.44a25 25 0 01-5.34 17.9c-4.47 5.33-10.79 8.29-19.71 9.07-15.45 1.35-28.02-5.66-28.92-16zM192 114.15c.46 5.23 3.13 8.17 7.26 7.81s6.26-3.62 5.83-8.62l-2.54-28.95c-.46-5.33-.17-7 1.78-9.8a12 12 0 018.84-5.38 12.76 12.76 0 019.74 3.53c2.53 2.52 3.26 4.65 3.83 11.18l2.26 25.79c.86 9.79-.92 17.07-5.63 23.41a30.39 30.39 0 01-47.83 2.21c-5-5.7-6.85-10.69-7.69-20.27l-2.24-25.57c-.6-6.85-.32-8.63 1.51-11.53a12.05 12.05 0 0118.21-2.47c2.61 2.29 3.72 4.93 4.17 10.05z"/></g><path d="M47.19 156.44a11.82 11.82 0 01-12.91-10.93 15 15 0 011-6.45l18.49-50.19a12 12 0 0110.36-8.14A12.26 12.26 0 0176 87l27.11 46.74a12.49 12.49 0 011.92 5.65 12 12 0 01-11 12.91c-5.55.49-9-1.84-13.06-8.94l-22.2 1.94c-2.48 7.38-5.77 10.64-11.58 11.14zm24.7-29.68l-4.46-8.38-2.94 9zM110.1 133.72a10.83 10.83 0 019.9-11.84c2.94-.25 5.53.51 8.79 2.74 5.58 3.57 6.27 3.95 8 3.8a3 3 0 002.81-3.42 3.4 3.4 0 00-2.12-2.89c-.69-.38-1-.57-5-1.65-2-.48-4-1-6.06-1.55-10.88-2.78-16.7-9.17-17.59-19.29-1.24-14.15 8.8-24.78 24.57-26.17 13.06-1.14 23.9 4.93 24.68 13.85.51 5.77-3.05 10.25-8.49 10.72-3.26.29-6-.57-10.26-3.27-2.69-1.84-3.93-2.28-5.24-2.17a2.9 2.9 0 00-2.58 3.08c.19 2.17 1.8 3 7.62 4.38 6.36 1.3 12.5 3.73 16.12 6.26 4.78 3.31 8.18 9.59 8.78 16.44a25 25 0 01-5.34 17.91c-4.42 5.35-10.69 8.29-19.69 9.07-15.43 1.35-28-5.66-28.9-16zM195.61 112.31c.46 5.22 3.13 8.17 7.27 7.81s6.26-3.62 5.82-8.63l-2.53-28.94c-.47-5.33-.18-7 1.77-9.81a12.07 12.07 0 018.85-5.38 12.8 12.8 0 019.74 3.54c2.52 2.52 3.25 4.65 3.83 11.18l2.25 25.78c.86 9.8-.91 17.08-5.62 23.41a30.39 30.39 0 01-47.83 2.21c-5-5.7-6.86-10.69-7.7-20.26l-2.24-25.57c-.6-6.86-.31-8.64 1.52-11.54a12 12 0 0118.2-2.47c2.61 2.29 3.72 4.94 4.17 10z"/></g><path d="M12.905 66.14l226.296-19.798 2.26 25.831L15.165 91.971z" fill="#8c7261" opacity=".25"/><rect fill="#a06b52" height="24.89" rx="3.21" transform="rotate(-5 123.457 26.272)" width="241.16" x="2.85" y="13.83"/><rect fill="#a06b52" height="24.89" rx="3.21" transform="rotate(-5 125.698 51.153)" width="241.16" x="5.02" y="38.63"/><path d="M4.68 52.39L5 56.55l240.24-21-.36-4.16a3.21 3.21 0 00-3.48-2.92L7.59 48.91a3.21 3.21 0 00-2.91 3.48z" fill="#875a45"/><path d="M122.89 20.08c-4.92.43-8.68 3.39-8.4 6.61l3.66 41.85c.28 3.22 4.5 5.49 9.43 5S136.26 70.2 136 67l-3.67-41.85c-.33-3.24-4.52-5.5-9.44-5.07z" fill="#a7a9ac"/><g fill="#c49a6c"><path d="M234.47 14a2.57 2.57 0 102.79 2.34 2.58 2.58 0 00-2.79-2.34zM179.18 18.81a2.57 2.57 0 102.8 2.34 2.58 2.58 0 00-2.8-2.34zM236.64 38.77a2.57 2.57 0 102.79 2.34 2.58 2.58 0 00-2.79-2.34zM181.36 43.61a2.57 2.57 0 102.79 2.39 2.58 2.58 0 00-2.79-2.39zM73.53 28.06a2.57 2.57 0 102.79 2.34 2.56 2.56 0 00-2.79-2.34zM18.25 32.9A2.57 2.57 0 1021 35.24a2.56 2.56 0 00-2.75-2.34z"/><circle cx="75.93" cy="55.42" r="2.58"/><circle cx="20.64" cy="60.26" r="2.58"/><path d="M247.22 159.67A2.57 2.57 0 10250 162a2.56 2.56 0 00-2.78-2.33zM191.94 164.51a2.57 2.57 0 102.79 2.34 2.56 2.56 0 00-2.79-2.34z"/><circle cx="136.19" cy="171.97" r="2.58"/><circle cx="86.51" cy="176.32" r="2.58"/></g><path d="M137 84.07l-17.21 1.51-1.08-12.34a8.64 8.64 0 1117.21-1.51zm-14.79-1.39l11.9-1-.87-9.68a6 6 0 10-11.89 1z" fill="#bcbec0"/><path d="M133.1 76.71l-10.79.94a4.9 4.9 0 00-4.45 5.3l.68 7.76a10.31 10.31 0 0011.17 9.37 10.31 10.31 0 009.37-11.17l-.68-7.76a4.89 4.89 0 00-5.3-4.44z" fill="#898077"/><path d="M129.37 86.58a1.72 1.72 0 00.74-1.57 1.72 1.72 0 10-2.41 1.71l-.7 3.92 1.84-.16 1.83-.16z" fill="#231f20"/><path d="M126 53.1a1.45 1.45 0 00-1.32 1.57L125.71 67a1.45 1.45 0 002.89-.25l-1.08-12.3A1.45 1.45 0 00126 53.1z" fill="#8c7261"/></symbol>
<symbol id="i-octopus-head" viewBox="0 0 441 403" xmlns="http://www.w3.org/2000/svg"><path d="M80 277L7 397l427-4-79.79-114.63c-.73-.82-67.21-21.26-67.21-31.37 0-2-4.31-4-5.09-4H168c-15 23-42.85 20.52-80 32z" fill="#d54989"/><circle cx="236.64" cy="361.08" fill="#bb3c85" r="21.08"/><path d="M224.73 172.61a106.61 106.61 0 01-104.07-83.28 107.93 107.93 0 00-2.58 23.38 106.65 106.65 0 00213.3 0 107.93 107.93 0 00-2.58-23.38 106.61 106.61 0 01-104.07 83.28z" fill="#d54989"/><path d="M224.73 172.61A106.61 106.61 0 00328.8 89.33a106.66 106.66 0 00-208.14 0 106.69 106.69 0 00104.07 83.28z" fill="#f16da9"/><g fill="#d54989"><path d="M284.52 247.16H164.94a35.5 35.5 0 01-35.5-35.5 35.5 35.5 0 0135.5-35.5h119.58a35.5 35.5 0 0135.5 35.5 35.5 35.5 0 01-35.5 35.5z"/><circle cx="227.36" cy="136.52" r="7.06"/><circle cx="285.87" cy="107.7" r="9.43"/><circle cx="240.89" cy="169.7" r="12.77"/><circle cx="177.92" cy="166.36" r="10.4"/><circle cx="145.98" cy="140.23" r="8.56"/></g><circle cx="286.14" cy="107.59" fill="#bb3c85" r="4.85"/><circle cx="239.92" cy="175.95" fill="#bb3c85" r="9.59"/><circle cx="213.85" cy="204.49" fill="#bb3c85" r="10.34"/><circle cx="263.94" cy="229.86" fill="#bb3c85" r="6.79"/><circle cx="278.97" cy="187.8" fill="#bb3c85" r="9.26"/><circle cx="168.15" cy="211.63" fill="#fff" r="24.43"/><circle cx="161.17" cy="214.42" fill="#033155" r="6.28"/><path d="M163.26 185.81l-12.56 6.98-9.77 18.14 51.64-1.39-8.37-18.15-9.77-5.58zM165.04 234.81l-12.76-4.08-10.31-11.64 51.63-1.42-7.81 12.47-9.59 4.16z" fill="#7a2c68"/><circle cx="167.45" cy="210.93" fill="none" r="24.43" stroke="#9b3273" stroke-miterlimit="10" stroke-width="5"/><circle cx="282.87" cy="213.02" fill="#fff" r="24.43"/><circle cx="275.89" cy="215.82" fill="#033155" r="6.28"/><path d="M277.99 187.2l-12.56 6.98-9.77 18.15 51.64-1.4-8.38-18.14-9.77-5.59zM279.77 236.21l-12.76-4.08-10.31-11.64 51.63-1.42-7.82 12.46-9.59 4.17z" fill="#7a2c68"/><circle cx="282.18" cy="212.33" fill="none" r="24.43" stroke="#9b3273" stroke-miterlimit="10" stroke-width="5"/><path d="M208 263.82c12.67-6 28.53-3.26 41 2 5.85 2.47 11-6.14 5-8.64-16.06-6.79-34.75-9.69-51-2-5.82 2.75-.75 11.37 5 8.64z" fill="#7a2c68"/><g fill="#bb3c85"><circle cx="129.83" cy="336.07" r="6.63"/><circle cx="340.78" cy="344.62" r="4.47"/><circle cx="281.16" cy="296.23" r="8.78"/><path d="M340.83 283.84a9.08 9.08 0 009-8 102 102 0 01-17.4-4.31 9.3 9.3 0 00-.64 3.28 9.06 9.06 0 009.04 9.03z"/><circle cx="87.57" cy="306.1" r="5.33"/><circle cx="188.61" cy="300.11" r="9.8"/></g><g fill="#fff" fill-rule="evenodd" opacity=".22"><path d="M227.51 11.48a94.75 94.75 0 00-9.68 1.06c-42.65 6.93-79 41.55-83.76 78.77v.07c0 1 .2 12.06 7.84 10.06 8-2.1 7-20.62 30.24-28.65s31.14-15.2 29.45-31.47S213.53 20.45 222.72 19s10.03-6.93 4.79-7.52z"/><path d="M233.27 29.26c-1.07-3.42-6.06-4.47-11.15-2.33s-8.36 6.65-7.29 10.08 6.07 4.47 11.17 2.33 8.34-6.65 7.27-10.08zM187.74 83.82c-2.22-4.48-9.59-5.11-16.46-1.41s-10.66 10.33-8.44 14.81 9.58 5.1 16.46 1.4 10.7-10.33 8.44-14.8z"/></g><circle cx="171.27" cy="123.74" fill="#d54989" r="12.39"/><circle cx="170.46" cy="124.97" fill="#bb3c85" r="5.55"/><circle cx="219.84" cy="86" fill="#d54989" r="9.43"/><circle cx="223.83" cy="85.89" fill="#bb3c85" r="3.93"/><circle cx="274.01" cy="63.34" fill="#d54989" r="18.85"/><circle cx="276.11" cy="64.2" fill="#bb3c85" r="8.46"/><path d="M126.29 285.44a12.88 12.88 0 009.21-21.87A196.92 196.92 0 00113 269c-.22.92.47 2.54.47 3.56a12.8 12.8 0 0012.82 12.88z" fill="#bb3c85"/><circle cx="76.47" cy="348.73" fill="#bb3c85" r="5.01"/></symbol>
</svg>