<?xml version="1.0" encoding="UTF-8"?>
<svg version="1.1" xmlns="http://www.w3.org/2000/svg" xmlns:xlink="http://www.w3.org/1999/xlink">
<defs>

</defs>
<symbol id="i-world-space-rocket1" xmlns="http://www.w3.org/2000/svg" viewBox="0 0 485 584"><g data-name="Layer 7"><path d="M113.71 405.87c16.44-8.95 55.58-25.18 83.55-25.91.59.13 1.19.2 1.78.32l23.55-110c-15.84 3-66.76 15.74-95.75 60.56-34.63 53.51-32.9 85.78-13.13 75z" fill="#8a302e"/><path d="M384.76 463.37c19.36-49.15.69-97.51-6.3-112.68l-76.63 83.75c.31-.31.62-.62.92-.94.23.21.44.46.67.67 15.92 23 25.65 64.83 28 83.55 2.76 22.34 30 4.95 53.37-54.35z" fill="#ceb15d"/><path d="M245.21 418.05c-.35-.17-.66-.35-1-.53v.06c-32.61-16.94-42.26-31.08-45-36.61q-2.37 13.45-4.88 27.77s3.17 14.46 38.81 32.77 49.43 12.58 49.43 12.58l19.24-19.65.44-.47.06-.06c-6.26 1-23.79 1.26-57.08-15.86z" fill="#54648b"/><path d="M384.75 463.31c19.37-49.15.69-97.51-6.29-112.67l-76.63 83.75.91-.95c.24.21.44.46.68.67 15.92 23 25.65 64.83 28 83.54 2.77 22.35 30 5 53.37-54.34z" fill="#8a302e"/><path d="M433 250.44c3.8-12.08 6.81-23.64 9.17-34.65 16.53-77.07.81-127.78-5.9-144.55a38.3 38.3 0 01-11.92-3.46v.08c-.16-.07-.32-.13-.48-.21s-.51-.22-.76-.35a38.5 38.5 0 01-8.48-5.95c-16.15 4.18-54.55 17.59-97.72 57.13a360.18 360.18 0 00-44.52 49.4c-24 32-38.7 64.72-49.63 102.37h-.17l-15 70.28-8.59 39.75.3.05c0 .21-.08.43-.11.64 2.59 5.33 11.64 18.59 41.3 34.66 1.51.83 3 1.65 4.67 2.48C278.5 435.22 296 435 302.27 434l76.19-83.29C402.82 319.74 421 288.68 433 250.44z" fill="#c4c4c3"/><path d="M447.87 39.88c1.47-7.69.37-12.22-1.83-13.36a3.21 3.21 0 00-.36-.08c-1.63-.57-4.2.19-7.41 2.63a34.85 34.85 0 00-4.18 3.78c-5.32 5.57-13 16.77-19 28.35l-.41.13a38.87 38.87 0 008.48 6l.77.34a38.6 38.6 0 0012.37 3.63v-.15c5.15-10.34 9.27-21.36 11.06-28.87.2-.83.4-1.66.54-2.4z" fill="#9a3f3e"/><path d="M375.16 161.57a47 47 0 101.82.69c-.59-.31-1.2-.44-1.8-.72z" fill="#59595b"/><path d="M423.54 67.5l.33.15.2.08-.18-.08-.34-.15a3.49 3.49 0 01.34.15l.19.08-.19-.08a2.41 2.41 0 00-.33-.15z" fill="#a4a6a9"/></g></symbol>
<symbol id="i-world-space-rocket2-left" xmlns="http://www.w3.org/2000/svg" viewBox="0 0 485 584"><g data-name="Layer 7"><path d="M380 160a55.5 55.5 0 00-73.76 25.45c-14.1 28.11-3.16 62.69 24.55 77.22a55.52 55.52 0 0075.66-24.56 57.34 57.34 0 005.35-16.34c4.11-24.08-7.35-49.18-29.85-61-.63-.33-1.28-.48-1.93-.79z" fill="#59595b"/><path d="M382 275.57c5.8-14.25-4.83-23.76-4.83-23.76l.26.31h-40.82l-4.89.64-7.72 3.81-2.9 14.25" fill="#fff"/><path fill="#006837" d="M360.52 252.12l-5.26 11.07h-5.83l-6.99-11.07h18.08z"/><path d="M361.09 252.12l-5.15 8.93a.92.92 0 001.36 1l18.31-9.95zM348.77 261l-5.77-8.88h-11l16.3 9.32a.37.37 0 00.47-.44z" fill="#e6e6e6"/><ellipse cx="353.97" cy="219.6" rx="37.76" ry="35.6" fill="#f9d0a7"/><ellipse cx="389.72" cy="226.95" rx="7.52" ry="7.14" fill="#f9d0a7"/><path d="M317 214.25c.59-6.05 1.58-7.6 2.64-13a1.22 1.22 0 01.67-.86l26.49-12.89a1.31 1.31 0 01.73-.13l26.08 3.12h12a1.2 1.2 0 01.95 2 1.16 1.16 0 00.27 1.82c2.34 1.33 6.69 4.86 4.59 11.87a.85.85 0 01-.11.26c-.51.9.85 4.94-.55 19.09a1.61 1.61 0 01-3.15.17c-2.46-11.28-11.24-24.1-16.41-28.5a1.24 1.24 0 00-1.07-.25l-46.34 6a1.21 1.21 0 00-.6.29c-.63.56-2 5.72-3.22 11.4a1.54 1.54 0 01-2.97-.39z" fill="#d1a44a"/><path d="M352.83 209.28c3-.18 26.7-4.15 33.33-15.31 0 0-7-18.82-26.82-22.15 0 0-12.19-1.88-27 8.54-.43.3-6.83 7-7.13 7.44-2.24 3-7.22 10.88-13.92 13.15a.33.33 0 00.07.64c5.81.61 24.44 2.21 34.08-.93l-10.91 5.79a.22.22 0 00.12.41c4.83-.43 24.35-2.26 27-4.19l-8.86 6.41a.11.11 0 00.04.2z" fill="#ddae47"/><rect x="317.37" y="209.48" width="23.32" height="17.72" rx="8" transform="rotate(-180 329.03 218.34)" fill="#fff" stroke="#000" stroke-miterlimit="10" stroke-width="2"/><rect x="346.52" y="209.48" width="23.32" height="17.72" rx="8" transform="rotate(-180 358.18 218.34)" fill="#fff" stroke="#000" stroke-miterlimit="10" stroke-width="2"/><path fill="none" stroke="#000" stroke-miterlimit="10" stroke-width="2" d="M346.52 218.34h-5.83"/><ellipse cx="354.1" cy="217.78" rx="1.75" ry="1.66"/><ellipse cx="326.12" cy="217.78" rx="1.75" ry="1.66"/><path d="M223.76 270.68a1.82 1.82 0 00.93-1.21c.25-1.19.67-2.34 1-3.51.74-2.38 1.52-4.74 2.24-7.13 1-3.42 2.25-6.77 3.42-10.14q2.44-7.06 5.27-14c1.13-2.76 2.24-5.53 3.42-8.26 1.05-2.43 2.2-4.81 3.28-7.21 1.51-3.35 3.13-6.65 4.83-9.9 2.06-3.94 4.17-7.86 6.39-11.72 2-3.47 4.06-6.91 6.21-10.29 1.55-2.43 3.13-4.85 4.74-7.24q5-7.41 10.46-14.51c2.35-3.06 4.79-6 7.19-9.07q2.88-3.6 5.92-7.09c1.54-1.76 3-3.57 4.56-5.35.06-.08.13-.15.19-.22 1.47-1.58 3-3.12 4.38-4.75 2.17-2.52 4.64-4.77 6.89-7.22 1.16-1.26 2.29-2.55 3.55-3.7 2.59-2.39 5-4.91 7.61-7.33 2.06-2 4.17-3.85 6.3-5.72 2.65-2.31 5.3-4.62 8-6.84 4.81-3.93 9.69-7.75 14.74-11.36 3.38-2.42 6.76-4.84 10.25-7.1 4-2.57 8-5.1 12.12-7.44 3.1-1.77 6.2-3.53 9.39-5.14 1.62-.81 3.19-1.73 4.82-2.5 4.21-2 8.41-3.94 12.71-5.71 5.07-2.09 10.22-3.92 15.43-5.59 1.86-.59 3.75-1.09 5.63-1.63.28-.08.55-.19.82-.28a.86.86 0 00.37.75c.87.71 1.72 1.46 2.62 2.13a38.44 38.44 0 0015 6.7 8.69 8.69 0 003.48.37c.6 1.65 1.22 3.3 1.8 5 1.49 4.29 2.85 8.61 4 13 .64 2.55 1.3 5.1 1.87 7.67.61 2.75 1.16 5.52 1.67 8.3.39 2 .68 4.13 1 6.19.14.87.25 1.74.37 2.61.17 1.25.31 2.51.52 3.75.18 1.06.25 2.13.35 3.2.12 1.3.42 2.6.47 3.9.07 1.81.48 3.59.37 5.4a1.09 1.09 0 00.08.43.46.46 0 00.47.27v.59a.52.52 0 00-.29.46V136a.6.6 0 00.27.48v26.42s-.11.07-.1.1a.93.93 0 00.1.2v.58c-.08.12-.23.23-.23.35v4c0 .11.16.22.25.33v.88c-.47 0-.55.33-.56.7-.05 1.41-.13 2.82-.26 4.23-.2 2.09-.39 4.17-.6 6.26-.17 1.75-.34 3.49-.6 5.23s-.42 3.67-.64 5.51c-.11.87-.24 1.74-.38 2.61-.25 1.53-.58 3.06-.74 4.61-.22 2.09-.7 4.13-1 6.2-.37 2.31-.91 4.59-1.34 6.89-.82 4.41-1.85 8.77-2.88 13.14s-2.12 8.42-3.26 12.61c-1.26 4.62-2.63 9.2-4.06 13.77q-2.35 7.47-5.12 14.82-2.34 6.24-5 12.37c-1.21 2.83-2.45 5.65-3.79 8.43-1.91 4-3.86 7.92-5.91 11.81s-4.06 7.47-6.22 11.14-4.36 7.3-6.66 10.87q-4.87 7.62-10.07 14.96-2.57 3.57-5.21 7.08c-1.88 2.5-3.79 5-5.7 7.45a2.11 2.11 0 00-.57 1.31c-.19 0-.39-.07-.55.09l-.91 1-13 14.19q-5.06 5.52-10.12 11.05l-14.56 15.93c-2.57 2.82-5.16 5.63-7.74 8.45l-17.62 19.25c-3.5 3.83-7 7.65-10.52 11.48a4.88 4.88 0 00-.64.8c-.09.14 0 .37-.06.56-.35 0-.59.21-.89.31-1.13-.09-2.23.27-3.36.27-2.05 0-4.09 0-6.15-.2s-3.89-.41-5.81-.75a97.65 97.65 0 01-12.93-3.2 170.87 170.87 0 01-21.78-8.67c-4.51-2.14-8.93-4.44-13.3-6.86a180.86 180.86 0 01-17.16-10.71 101.44 101.44 0 01-13.07-10.87 52.34 52.34 0 01-8.14-10c-.37-.63-.76-1.25-1.13-1.87l-.09-1.09a3.6 3.6 0 01.15-1.3l4.65-21.79 6.48-30.24q3.31-15.48 6.65-31l4.68-21.78c.2-1 .41-1.91.6-2.87.07-.27.15-.63-.24-.84zm131-113.7a57.39 57.39 0 00-9.06.7 54.33 54.33 0 00-17.31 6.22 52.37 52.37 0 00-17 15.47 53.13 53.13 0 00-9.66 27.17 47.5 47.5 0 00.28 10 54.49 54.49 0 002.86 11.8 52.42 52.42 0 0029.09 30.4 53.05 53.05 0 0019.4 4.07c1.52 0 3-.1 4.54-.18a44.27 44.27 0 006-.75 53.14 53.14 0 0015.1-5.38 52.48 52.48 0 0018.75-16.77 53.13 53.13 0 007.46-16 51.76 51.76 0 001.91-13 50 50 0 00-.2-5.86 56.56 56.56 0 00-1-6.37 52.43 52.43 0 00-15.87-27.86 51.44 51.44 0 00-10.71-7.64c-1.12-.59-2.34-1-3.5-1.51a51.17 51.17 0 00-21.07-4.49z" fill="#c4c4c3"/><path d="M200.79 380.52a1.31 1.31 0 01-.43.06 18.84 18.84 0 00-5.56 0c-2.09.16-4.18.39-6.27.66q-5.53.74-11 1.95a261.2 261.2 0 00-55.17 19.51c-2.39 1.13-4.72 2.37-7.06 3.59a18.36 18.36 0 01-5.21 1.92 7.81 7.81 0 01-2.77 0 6.15 6.15 0 01-4.3-3 12.6 12.6 0 01-1.55-4.7c0-.34-.08-.68-.15-1a.68.68 0 00-.43-.54v-4.41c.55-.26.47-.8.53-1.27.17-1.26.3-2.52.51-3.78a85.59 85.59 0 013.81-14.14 178.4 178.4 0 0111.63-25.62c3.86-7.09 8-14 12.52-20.72a124.6 124.6 0 0130-30.78A154.58 154.58 0 01195.23 279a171.3 171.3 0 0126.23-7.87c.76-.17 1.53-.3 2.3-.45.39.21.31.57.24.9-.19 1-.4 1.91-.6 2.87l-4.68 21.78-6.65 31-6.48 30.24-4.65 21.79a3.6 3.6 0 00-.15 1.26z" fill="#8a302e"/><path d="M438 71.48a8.69 8.69 0 01-3.48-.37 38.44 38.44 0 01-15-6.7c-.9-.67-1.75-1.42-2.62-2.13a.86.86 0 01-.37-.75 4.44 4.44 0 00.92-1.47 169.51 169.51 0 0112.37-19.7 75.82 75.82 0 015.75-7 34.29 34.29 0 014.33-3.93 13.9 13.9 0 015-2.65c.07 0 .11-.14.16-.22h1.76a4.17 4.17 0 012.91 3.34c0 .14.06.29.09.43a21.87 21.87 0 01.11 7.44 46.88 46.88 0 01-1.49 7 142.84 142.84 0 01-7.32 19.93c-1.01 2.3-2.12 4.52-3.12 6.78z" fill="#9b403f"/><path d="M343.09 527l-.9.56h-3.52l-.6-.57a3.42 3.42 0 01.71.13 5 5 0 003.31 0 2.15 2.15 0 011-.12z" fill="#c4c4c3"/><path d="M343.09 527a2.15 2.15 0 00-1 .16 5 5 0 01-3.31 0 3.42 3.42 0 00-.71-.13 7.45 7.45 0 01-3.88-4.2 15.49 15.49 0 01-1.1-4.09 258 258 0 00-8.38-38.74 214.89 214.89 0 00-9.85-27.43 113.46 113.46 0 00-9.16-17 4.22 4.22 0 00-1.1-1.35c0-.19 0-.42.06-.56a4.88 4.88 0 01.64-.8c3.5-3.83 7-7.65 10.52-11.48L333.45 402c2.58-2.82 5.17-5.63 7.74-8.45l14.56-15.93q5.06-5.53 10.12-11.05l13-14.19.91-1c.16-.16.36-.1.55-.09 1.2 2.89 2.45 5.76 3.58 8.67a168.39 168.39 0 018.47 30c.85 4.57 1.46 9.17 1.91 13.8s.65 9 .65 13.49a135.74 135.74 0 01-.94 16.11 122.57 122.57 0 01-7.69 30.5 254.47 254.47 0 01-13.85 29.77 140.7 140.7 0 01-12.13 18.7 71.23 71.23 0 01-7.25 8.08 41.32 41.32 0 01-3.92 3.31 21.86 21.86 0 01-6.07 3.28z" fill="#8a302e"/><path d="M303.71 434.45a49.59 49.59 0 01-3.53 3.72c-5 5.15-10.08 10.28-15.1 15.44a3.91 3.91 0 01-2.24 1.25 29 29 0 01-3.93.45 51.77 51.77 0 01-12.53-1.31 105.16 105.16 0 01-18.95-6.17 178.1 178.1 0 01-29.11-15.5 91 91 0 01-13.65-10.88 45.88 45.88 0 01-6.33-7.51 23.36 23.36 0 01-2-3.61 3.74 3.74 0 01-.26-2.14c.37-2 .7-3.95 1-5.93l2.52-14.31c.32-1.83.63-3.66 1-5.49a6.27 6.27 0 01.26-.84c.37.62.76 1.24 1.13 1.87a52.34 52.34 0 008.14 10 101.44 101.44 0 0013.07 10.87A180.86 180.86 0 00240.38 415c4.37 2.42 8.79 4.72 13.3 6.86a170.87 170.87 0 0021.78 8.67 97.65 97.65 0 0012.93 3.2c1.92.34 3.86.57 5.81.75s4.1.21 6.15.2c1.13.04 2.23-.32 3.36-.23z" fill="#55658b"/><ellipse cx="338.09" cy="240" rx="5.72" ry="5" fill="#fff"/></g></symbol>
<symbol id="i-world-space-rocket2-right" xmlns="http://www.w3.org/2000/svg" viewBox="0 0 485 584"><g data-name="Layer 7"><path d="M380 160a55.5 55.5 0 00-73.76 25.45c-14.1 28.11-3.16 62.69 24.55 77.22a55.52 55.52 0 0075.66-24.56 57.34 57.34 0 005.35-16.34c4.11-24.08-7.35-49.18-29.85-61-.63-.33-1.28-.48-1.93-.79z" fill="#59595b"/><path d="M328.22 275.57a21.76 21.76 0 014.78-23.76l-.25.31h40.11l4.81.64 7.6 3.81 2.85 14.25" fill="#fff"/><path fill="#006837" d="M349.32 252.12l5.17 11.07h5.73l6.88-11.07h-17.78z"/><path d="M348.76 252.12l5.07 8.93a.91.91 0 01-1.34 1l-18-9.95zM360.88 261l5.64-8.84h10.89l-16 9.32a.36.36 0 01-.53-.48z" fill="#e6e6e6"/><ellipse cx="355.76" cy="219.6" rx="37.12" ry="35.6" fill="#f9d0a7"/><ellipse cx="320.62" cy="226.95" rx="7.39" ry="7.14" fill="#f9d0a7"/><path d="M392.15 214.25c-.58-6.05-1.55-7.6-2.59-13a1.23 1.23 0 00-.66-.86l-26.09-12.89a1.27 1.27 0 00-.72-.13l-25.63 3.12h-11.81a1.2 1.2 0 00-.93 2 1.18 1.18 0 01-.27 1.82c-2.3 1.33-6.57 4.86-4.51 11.87a1.19 1.19 0 00.11.26c.5.9-.84 4.94.54 19.09a1.57 1.57 0 003.09.17c2.42-11.28 11.05-24.1 16.13-28.5a1.23 1.23 0 011.06-.25l45.55 6a1.22 1.22 0 01.59.29c.61.56 2 5.72 3.17 11.4a1.5 1.5 0 002.97-.39z" fill="#d1a44a"/><path d="M356.88 209.28c-3-.18-26.24-4.15-32.76-15.31 0 0 6.88-18.82 26.36-22.15 0 0 12-1.88 26.59 8.54.43.3 6.71 7 7 7.44 2.2 3 7.1 10.88 13.69 13.15a.33.33 0 01-.08.64c-5.71.61-24 2.21-33.5-.93l10.73 5.79a.22.22 0 01-.12.41c-4.74-.43-23.93-2.26-26.56-4.19l8.72 6.41a.11.11 0 01-.07.2z" fill="#ddae47"/><rect x="368.82" y="209.48" width="22.92" height="17.72" rx="8" fill="#fff" stroke="#000" stroke-miterlimit="10" stroke-width="2"/><rect x="340.17" y="209.48" width="22.92" height="17.72" rx="8" fill="#fff" stroke="#000" stroke-miterlimit="10" stroke-width="2"/><path fill="none" stroke="#000" stroke-miterlimit="10" stroke-width="2" d="M363.09 218.34h5.73"/><ellipse cx="355.64" cy="217.78" rx="1.72" ry="1.66"/><ellipse cx="383.14" cy="217.78" rx="1.72" ry="1.66"/><ellipse cx="371.38" cy="240" rx="5.63" ry="5" fill="#fff"/><path d="M223.76 270.68a1.82 1.82 0 00.93-1.21c.25-1.19.67-2.34 1-3.51.74-2.38 1.52-4.74 2.24-7.13 1-3.42 2.25-6.77 3.42-10.14q2.44-7.06 5.27-14c1.13-2.76 2.24-5.53 3.42-8.26 1.05-2.43 2.2-4.81 3.28-7.21 1.51-3.35 3.13-6.65 4.83-9.9 2.06-3.94 4.17-7.86 6.39-11.72 2-3.47 4.06-6.91 6.21-10.29 1.55-2.43 3.13-4.85 4.74-7.24q5-7.41 10.46-14.51c2.35-3.06 4.79-6 7.19-9.07q2.88-3.6 5.92-7.09c1.54-1.76 3-3.57 4.56-5.35.06-.08.13-.15.19-.22 1.47-1.58 3-3.12 4.38-4.75 2.17-2.52 4.64-4.77 6.89-7.22 1.16-1.26 2.29-2.55 3.55-3.7 2.59-2.39 5-4.91 7.61-7.33 2.06-2 4.17-3.85 6.3-5.72 2.65-2.31 5.3-4.62 8-6.84 4.81-3.93 9.69-7.75 14.74-11.36 3.38-2.42 6.76-4.84 10.25-7.1 4-2.57 8-5.1 12.12-7.44 3.1-1.77 6.2-3.53 9.39-5.14 1.62-.81 3.19-1.73 4.82-2.5 4.21-2 8.41-3.94 12.71-5.71 5.07-2.09 10.22-3.92 15.43-5.59 1.86-.59 3.75-1.09 5.63-1.63.28-.08.55-.19.82-.28a.86.86 0 00.37.75c.87.71 1.72 1.46 2.62 2.13a38.44 38.44 0 0015 6.7 8.69 8.69 0 003.48.37c.6 1.65 1.22 3.3 1.8 5 1.49 4.29 2.85 8.61 4 13 .64 2.55 1.3 5.1 1.87 7.67.61 2.75 1.16 5.52 1.67 8.3.39 2 .68 4.13 1 6.19.14.87.25 1.74.37 2.61.17 1.25.31 2.51.52 3.75.18 1.06.25 2.13.35 3.2.12 1.3.42 2.6.47 3.9.07 1.81.48 3.59.37 5.4a1.09 1.09 0 00.08.43.46.46 0 00.47.27v.59a.52.52 0 00-.29.46V136a.6.6 0 00.27.48v26.42s-.11.07-.1.1a.93.93 0 00.1.2v.58c-.08.12-.23.23-.23.35v4c0 .11.16.22.25.33v.88c-.47 0-.55.33-.56.7-.05 1.41-.13 2.82-.26 4.23-.2 2.09-.39 4.17-.6 6.26-.17 1.75-.34 3.49-.6 5.23s-.42 3.67-.64 5.51c-.11.87-.24 1.74-.38 2.61-.25 1.53-.58 3.06-.74 4.61-.22 2.09-.7 4.13-1 6.2-.37 2.31-.91 4.59-1.34 6.89-.82 4.41-1.85 8.77-2.88 13.14s-2.12 8.42-3.26 12.61c-1.26 4.62-2.63 9.2-4.06 13.77q-2.35 7.47-5.12 14.82-2.34 6.24-5 12.37c-1.21 2.83-2.45 5.65-3.79 8.43-1.91 4-3.86 7.92-5.91 11.81s-4.06 7.47-6.22 11.14-4.36 7.3-6.66 10.87q-4.87 7.62-10.07 14.96-2.57 3.57-5.21 7.08c-1.88 2.5-3.79 5-5.7 7.45a2.11 2.11 0 00-.57 1.31c-.19 0-.39-.07-.55.09l-.91 1-13 14.19q-5.06 5.52-10.12 11.05l-14.56 15.93c-2.57 2.82-5.16 5.63-7.74 8.45l-17.62 19.25c-3.5 3.83-7 7.65-10.52 11.48a4.88 4.88 0 00-.64.8c-.09.14 0 .37-.06.56-.35 0-.59.21-.89.31-1.13-.09-2.23.27-3.36.27-2.05 0-4.09 0-6.15-.2s-3.89-.41-5.81-.75a97.65 97.65 0 01-12.93-3.2 170.87 170.87 0 01-21.78-8.67c-4.51-2.14-8.93-4.44-13.3-6.86a180.86 180.86 0 01-17.16-10.71 101.44 101.44 0 01-13.07-10.87 52.34 52.34 0 01-8.14-10c-.37-.63-.76-1.25-1.13-1.87l-.09-1.09a3.6 3.6 0 01.15-1.3l4.65-21.79 6.48-30.24q3.31-15.48 6.65-31l4.68-21.78c.2-1 .41-1.91.6-2.87.07-.27.15-.63-.24-.84zm131-113.7a57.39 57.39 0 00-9.06.7 54.33 54.33 0 00-17.31 6.22 52.37 52.37 0 00-17 15.47 53.13 53.13 0 00-9.66 27.17 47.5 47.5 0 00.28 10 54.49 54.49 0 002.86 11.8 52.42 52.42 0 0029.09 30.4 53.05 53.05 0 0019.4 4.07c1.52 0 3-.1 4.54-.18a44.27 44.27 0 006-.75 53.14 53.14 0 0015.1-5.38 52.48 52.48 0 0018.75-16.77 53.13 53.13 0 007.46-16 51.76 51.76 0 001.91-13 50 50 0 00-.2-5.86 56.56 56.56 0 00-1-6.37 52.43 52.43 0 00-15.87-27.86 51.44 51.44 0 00-10.71-7.64c-1.12-.59-2.34-1-3.5-1.51a51.17 51.17 0 00-21.07-4.49z" fill="#c4c4c3"/><path d="M200.79 380.52a1.31 1.31 0 01-.43.06 18.84 18.84 0 00-5.56 0c-2.09.16-4.18.39-6.27.66q-5.53.74-11 1.95a261.2 261.2 0 00-55.17 19.51c-2.39 1.13-4.72 2.37-7.06 3.59a18.36 18.36 0 01-5.21 1.92 7.81 7.81 0 01-2.77 0 6.15 6.15 0 01-4.3-3 12.6 12.6 0 01-1.55-4.7c0-.34-.08-.68-.15-1a.68.68 0 00-.43-.54v-4.41c.55-.26.47-.8.53-1.27.17-1.26.3-2.52.51-3.78a85.59 85.59 0 013.81-14.14 178.4 178.4 0 0111.63-25.62c3.86-7.09 8-14 12.52-20.72a124.6 124.6 0 0130-30.78A154.58 154.58 0 01195.23 279a171.3 171.3 0 0126.23-7.87c.76-.17 1.53-.3 2.3-.45.39.21.31.57.24.9-.19 1-.4 1.91-.6 2.87l-4.68 21.78-6.65 31-6.48 30.24-4.65 21.79a3.6 3.6 0 00-.15 1.26z" fill="#8a302e"/><path d="M438 71.48a8.69 8.69 0 01-3.48-.37 38.44 38.44 0 01-15-6.7c-.9-.67-1.75-1.42-2.62-2.13a.86.86 0 01-.37-.75 4.44 4.44 0 00.92-1.47 169.51 169.51 0 0112.37-19.7 75.82 75.82 0 015.75-7 34.29 34.29 0 014.33-3.93 13.9 13.9 0 015-2.65c.07 0 .11-.14.16-.22h1.76a4.17 4.17 0 012.91 3.34c0 .14.06.29.09.43a21.87 21.87 0 01.11 7.44 46.88 46.88 0 01-1.49 7 142.84 142.84 0 01-7.32 19.93c-1.01 2.3-2.12 4.52-3.12 6.78z" fill="#9b403f"/><path d="M343.09 527l-.9.56h-3.52l-.6-.57a3.42 3.42 0 01.71.13 5 5 0 003.31 0 2.15 2.15 0 011-.12z" fill="#c4c4c3"/><path d="M343.09 527a2.15 2.15 0 00-1 .16 5 5 0 01-3.31 0 3.42 3.42 0 00-.71-.13 7.45 7.45 0 01-3.88-4.2 15.49 15.49 0 01-1.1-4.09 258 258 0 00-8.38-38.74 214.89 214.89 0 00-9.85-27.43 113.46 113.46 0 00-9.16-17 4.22 4.22 0 00-1.1-1.35c0-.19 0-.42.06-.56a4.88 4.88 0 01.64-.8c3.5-3.83 7-7.65 10.52-11.48L333.45 402c2.58-2.82 5.17-5.63 7.74-8.45l14.56-15.93q5.06-5.53 10.12-11.05l13-14.19.91-1c.16-.16.36-.1.55-.09 1.2 2.89 2.45 5.76 3.58 8.67a168.39 168.39 0 018.47 30c.85 4.57 1.46 9.17 1.91 13.8s.65 9 .65 13.49a135.74 135.74 0 01-.94 16.11 122.57 122.57 0 01-7.69 30.5 254.47 254.47 0 01-13.85 29.77 140.7 140.7 0 01-12.13 18.7 71.23 71.23 0 01-7.25 8.08 41.32 41.32 0 01-3.92 3.31 21.86 21.86 0 01-6.07 3.28z" fill="#8a302e"/><path d="M303.71 434.45a49.59 49.59 0 01-3.53 3.72c-5 5.15-10.08 10.28-15.1 15.44a3.91 3.91 0 01-2.24 1.25 29 29 0 01-3.93.45 51.77 51.77 0 01-12.53-1.31 105.16 105.16 0 01-18.95-6.17 178.1 178.1 0 01-29.11-15.5 91 91 0 01-13.65-10.88 45.88 45.88 0 01-6.33-7.51 23.36 23.36 0 01-2-3.61 3.74 3.74 0 01-.26-2.14c.37-2 .7-3.95 1-5.93l2.52-14.31c.32-1.83.63-3.66 1-5.49a6.27 6.27 0 01.26-.84c.37.62.76 1.24 1.13 1.87a52.34 52.34 0 008.14 10 101.44 101.44 0 0013.07 10.87A180.86 180.86 0 00240.38 415c4.37 2.42 8.79 4.72 13.3 6.86a170.87 170.87 0 0021.78 8.67 97.65 97.65 0 0012.93 3.2c1.92.34 3.86.57 5.81.75s4.1.21 6.15.2c1.13.04 2.23-.32 3.36-.23z" fill="#55658b"/></g></symbol>
<symbol id="i-world-space-rocket2" xmlns="http://www.w3.org/2000/svg" viewBox="0 0 485 584"><g data-name="Layer 7"><path d="M259.46 539.51c33.71-36.6 10.4-84.4 7.45-90.05a2 2 0 00-.88-.86l-6.27-3.2-22.35-11.4-22.34-11.45-6.26-3.22a2 2 0 00-1.22-.21c-6.3.91-58.73 9.92-68.73 58.65a2.1 2.1 0 003.21 2.17c6.87-4.45 20.92-13 29.24-14.54a2.1 2.1 0 011.85 3.48c-7.26 8.48-25.07 33-20.14 64.79 6.15 39.62 12.79 40.06 12.79 40.06l.38-.75-.38.75s4.27 5.12 40-13c28.68-14.55 38.18-43.35 40.83-54.2a2.1 2.1 0 013.91-.52c3.63 7.63 4.87 24 5.28 32.22a2.11 2.11 0 003.64 1.34z" fill="#b07736"/><path d="M257.72 510.37c24.57-25.13 5.18-60.18 2.75-64.33a1.58 1.58 0 00-.71-.64L237.41 434l-22.34-11.45a1.61 1.61 0 00-.93-.2c-4.8.45-44.57 5.2-50.62 39.82a1.72 1.72 0 002.53 1.65c5.1-3 15.56-8.66 21.87-9.47a1.61 1.61 0 011.54 2.55c-5.28 5.85-18.09 22.87-13.28 45.82 6 28.61 11.09 29.14 11.09 29.14s3 3.35 25.4-6q2.24-.93 4.73-2c21.44-9.5 27.77-29.83 29.44-37.53a1.61 1.61 0 013-.25c3 5.6 4.51 17.4 5.08 23.28a1.72 1.72 0 002.83 1.08z" fill="#d4aa42"/><path d="M113.71 405.87c16.44-8.95 55.58-25.18 83.55-25.91.59.13 1.19.2 1.78.32l23.55-110c-15.84 3-66.76 15.74-95.75 60.56-34.63 53.51-32.9 85.78-13.13 75z" fill="#8a302e"/><path d="M384.76 463.37c19.36-49.15.69-97.51-6.3-112.68l-76.63 83.75c.31-.31.62-.62.92-.94.23.21.44.46.67.67 15.92 23 25.65 64.83 28 83.55 2.76 22.34 30 4.95 53.37-54.35z" fill="#ceb15d"/><path d="M245.21 418.05c-.35-.17-.66-.35-1-.53v.06c-32.61-16.94-42.26-31.08-45-36.61q-2.37 13.45-4.88 27.77s3.17 14.46 38.81 32.77 49.43 12.58 49.43 12.58l19.24-19.65.44-.47.06-.06c-6.26 1-23.79 1.26-57.08-15.86z" fill="#54648b"/><path d="M384.75 463.31c19.37-49.15.69-97.51-6.29-112.67l-76.63 83.75.91-.95c.24.21.44.46.68.67 15.92 23 25.65 64.83 28 83.54 2.77 22.35 30 5 53.37-54.34z" fill="#8a302e"/><path d="M433 250.44c3.8-12.08 6.81-23.64 9.17-34.65 16.53-77.07.81-127.78-5.9-144.55a38.3 38.3 0 01-11.92-3.46v.08c-.16-.07-.32-.13-.48-.21s-.51-.22-.76-.35a38.5 38.5 0 01-8.48-5.95c-16.15 4.18-54.55 17.59-97.72 57.13a360.18 360.18 0 00-44.52 49.4c-24 32-38.7 64.72-49.63 102.37h-.17l-15 70.28-8.59 39.75.3.05c0 .21-.08.43-.11.64 2.59 5.33 11.64 18.59 41.3 34.66 1.51.83 3 1.65 4.67 2.48C278.5 435.22 296 435 302.27 434l76.19-83.29C402.82 319.74 421 288.68 433 250.44z" fill="#c4c4c3"/><path d="M447.87 39.88c1.47-7.69.37-12.22-1.83-13.36a3.21 3.21 0 00-.36-.08c-1.63-.57-4.2.19-7.41 2.63a34.85 34.85 0 00-4.18 3.78c-5.32 5.57-13 16.77-19 28.35l-.41.13a38.87 38.87 0 008.48 6l.77.34a38.6 38.6 0 0012.37 3.63v-.15c5.15-10.34 9.27-21.36 11.06-28.87.2-.83.4-1.66.54-2.4z" fill="#9a3f3e"/><path d="M375.16 161.57a47 47 0 101.82.69c-.59-.31-1.2-.44-1.8-.72z" fill="#59595b"/><path d="M423.54 67.5l.33.15.2.08-.18-.08-.34-.15a3.49 3.49 0 01.34.15l.19.08-.19-.08a2.41 2.41 0 00-.33-.15z" fill="#a4a6a9"/></g></symbol>
<symbol id="i-world-space-rocket3-left-copy" xmlns="http://www.w3.org/2000/svg" viewBox="0 0 485 584"><g data-name="Layer 7"><path d="M260.46 538.51c33.71-36.6 10.4-84.4 7.45-90.05a2 2 0 00-.88-.86l-6.27-3.2-22.35-11.4-22.34-11.45-6.26-3.22a2 2 0 00-1.22-.21c-6.3.91-58.73 9.92-68.73 58.65a2.1 2.1 0 003.21 2.17c6.87-4.45 20.92-13 29.24-14.54a2.1 2.1 0 011.85 3.48c-7.26 8.48-25.07 33-20.14 64.79 6.15 39.62 12.79 40.06 12.79 40.06l.38-.75-.38.75s4.27 5.12 40-13c28.68-14.55 38.18-43.35 40.83-54.2a2.1 2.1 0 013.91-.52c3.63 7.63 4.87 24 5.28 32.22a2.11 2.11 0 003.64 1.34z" fill="#b07736"/><path d="M258.72 509.37c24.57-25.13 5.18-60.18 2.75-64.33a1.58 1.58 0 00-.71-.64L238.41 433l-22.34-11.45a1.61 1.61 0 00-.93-.2c-4.8.45-44.57 5.2-50.62 39.82a1.72 1.72 0 002.53 1.65c5.1-3 15.56-8.66 21.87-9.47a1.61 1.61 0 011.54 2.55c-5.28 5.85-18.09 22.87-13.28 45.82 6 28.61 11.09 29.14 11.09 29.14s3 3.35 25.4-6q2.24-.93 4.73-2c21.44-9.5 27.77-29.83 29.44-37.53a1.61 1.61 0 013-.25c3 5.6 4.51 17.4 5.08 23.28a1.72 1.72 0 002.83 1.08z" fill="#d4aa42"/><path d="M380 160a55.5 55.5 0 00-73.76 25.45c-14.1 28.11-3.16 62.69 24.55 77.22a55.52 55.52 0 0075.66-24.56 57.34 57.34 0 005.35-16.34c4.11-24.08-7.35-49.18-29.85-61-.63-.33-1.28-.48-1.93-.79z" fill="#59595b"/><path d="M382 275.57c5.8-14.25-4.83-23.76-4.83-23.76l.26.31h-40.82l-4.89.64-7.72 3.81-2.9 14.25" fill="#fff"/><path fill="#006837" d="M360.52 252.12l-5.26 11.07h-5.83l-6.99-11.07h18.08z"/><path d="M361.09 252.12l-5.15 8.93a.92.92 0 001.36 1l18.31-9.95zM348.77 261l-5.77-8.88h-11l16.3 9.32a.37.37 0 00.47-.44z" fill="#e6e6e6"/><ellipse cx="353.97" cy="219.6" rx="37.76" ry="35.6" fill="#f9d0a7"/><ellipse cx="389.72" cy="226.95" rx="7.52" ry="7.14" fill="#f9d0a7"/><path d="M317 214.25c.59-6.05 1.58-7.6 2.64-13a1.22 1.22 0 01.67-.86l26.49-12.89a1.31 1.31 0 01.73-.13l26.08 3.12h12a1.2 1.2 0 01.95 2 1.16 1.16 0 00.27 1.82c2.34 1.33 6.69 4.86 4.59 11.87a.85.85 0 01-.11.26c-.51.9.85 4.94-.55 19.09a1.61 1.61 0 01-3.15.17c-2.46-11.28-11.24-24.1-16.41-28.5a1.24 1.24 0 00-1.07-.25l-46.34 6a1.21 1.21 0 00-.6.29c-.63.56-2 5.72-3.22 11.4a1.54 1.54 0 01-2.97-.39z" fill="#d1a44a"/><path d="M352.83 209.28c3-.18 26.7-4.15 33.33-15.31 0 0-7-18.82-26.82-22.15 0 0-12.19-1.88-27 8.54-.43.3-6.83 7-7.13 7.44-2.24 3-7.22 10.88-13.92 13.15a.33.33 0 00.07.64c5.81.61 24.44 2.21 34.08-.93l-10.91 5.79a.22.22 0 00.12.41c4.83-.43 24.35-2.26 27-4.19l-8.86 6.41a.11.11 0 00.04.2z" fill="#ddae47"/><rect x="317.37" y="209.48" width="23.32" height="17.72" rx="8" transform="rotate(-180 329.03 218.34)" fill="#fff" stroke="#000" stroke-miterlimit="10" stroke-width="2"/><rect x="346.52" y="209.48" width="23.32" height="17.72" rx="8" transform="rotate(-180 358.18 218.34)" fill="#fff" stroke="#000" stroke-miterlimit="10" stroke-width="2"/><path fill="none" stroke="#000" stroke-miterlimit="10" stroke-width="2" d="M346.52 218.34h-5.83"/><ellipse cx="354.1" cy="217.78" rx="1.75" ry="1.66"/><ellipse cx="326.12" cy="217.78" rx="1.75" ry="1.66"/><path d="M223.76 270.68a1.82 1.82 0 00.93-1.21c.25-1.19.67-2.34 1-3.51.74-2.38 1.52-4.74 2.24-7.13 1-3.42 2.25-6.77 3.42-10.14q2.44-7.06 5.27-14c1.13-2.76 2.24-5.53 3.42-8.26 1.05-2.43 2.2-4.81 3.28-7.21 1.51-3.35 3.13-6.65 4.83-9.9 2.06-3.94 4.17-7.86 6.39-11.72 2-3.47 4.06-6.91 6.21-10.29 1.55-2.43 3.13-4.85 4.74-7.24q5-7.41 10.46-14.51c2.35-3.06 4.79-6 7.19-9.07q2.88-3.6 5.92-7.09c1.54-1.76 3-3.57 4.56-5.35.06-.08.13-.15.19-.22 1.47-1.58 3-3.12 4.38-4.75 2.17-2.52 4.64-4.77 6.89-7.22 1.16-1.26 2.29-2.55 3.55-3.7 2.59-2.39 5-4.91 7.61-7.33 2.06-2 4.17-3.85 6.3-5.72 2.65-2.31 5.3-4.62 8-6.84 4.81-3.93 9.69-7.75 14.74-11.36 3.38-2.42 6.76-4.84 10.25-7.1 4-2.57 8-5.1 12.12-7.44 3.1-1.77 6.2-3.53 9.39-5.14 1.62-.81 3.19-1.73 4.82-2.5 4.21-2 8.41-3.94 12.71-5.71 5.07-2.09 10.22-3.92 15.43-5.59 1.86-.59 3.75-1.09 5.63-1.63.28-.08.55-.19.82-.28a.86.86 0 00.37.75c.87.71 1.72 1.46 2.62 2.13a38.44 38.44 0 0015 6.7 8.69 8.69 0 003.48.37c.6 1.65 1.22 3.3 1.8 5 1.49 4.29 2.85 8.61 4 13 .64 2.55 1.3 5.1 1.87 7.67.61 2.75 1.16 5.52 1.67 8.3.39 2 .68 4.13 1 6.19.14.87.25 1.74.37 2.61.17 1.25.31 2.51.52 3.75.18 1.06.25 2.13.35 3.2.12 1.3.42 2.6.47 3.9.07 1.81.48 3.59.37 5.4a1.09 1.09 0 00.08.43.46.46 0 00.47.27v.59a.52.52 0 00-.29.46V136a.6.6 0 00.27.48v26.42s-.11.07-.1.1a.93.93 0 00.1.2v.58c-.08.12-.23.23-.23.35v4c0 .11.16.22.25.33v.88c-.47 0-.55.33-.56.7-.05 1.41-.13 2.82-.26 4.23-.2 2.09-.39 4.17-.6 6.26-.17 1.75-.34 3.49-.6 5.23s-.42 3.67-.64 5.51c-.11.87-.24 1.74-.38 2.61-.25 1.53-.58 3.06-.74 4.61-.22 2.09-.7 4.13-1 6.2-.37 2.31-.91 4.59-1.34 6.89-.82 4.41-1.85 8.77-2.88 13.14s-2.12 8.42-3.26 12.61c-1.26 4.62-2.63 9.2-4.06 13.77q-2.35 7.47-5.12 14.82-2.34 6.24-5 12.37c-1.21 2.83-2.45 5.65-3.79 8.43-1.91 4-3.86 7.92-5.91 11.81s-4.06 7.47-6.22 11.14-4.36 7.3-6.66 10.87q-4.87 7.62-10.07 14.96-2.57 3.57-5.21 7.08c-1.88 2.5-3.79 5-5.7 7.45a2.11 2.11 0 00-.57 1.31c-.19 0-.39-.07-.55.09l-.91 1-13 14.19q-5.06 5.52-10.12 11.05l-14.56 15.93c-2.57 2.82-5.16 5.63-7.74 8.45l-17.62 19.25c-3.5 3.83-7 7.65-10.52 11.48a4.88 4.88 0 00-.64.8c-.09.14 0 .37-.06.56-.35 0-.59.21-.89.31-1.13-.09-2.23.27-3.36.27-2.05 0-4.09 0-6.15-.2s-3.89-.41-5.81-.75a97.65 97.65 0 01-12.93-3.2 170.87 170.87 0 01-21.78-8.67c-4.51-2.14-8.93-4.44-13.3-6.86a180.86 180.86 0 01-17.16-10.71 101.44 101.44 0 01-13.07-10.87 52.34 52.34 0 01-8.14-10c-.37-.63-.76-1.25-1.13-1.87l-.09-1.09a3.6 3.6 0 01.15-1.3l4.65-21.79 6.48-30.24q3.31-15.48 6.65-31l4.68-21.78c.2-1 .41-1.91.6-2.87.07-.27.15-.63-.24-.84zm131-113.7a57.39 57.39 0 00-9.06.7 54.33 54.33 0 00-17.31 6.22 52.37 52.37 0 00-17 15.47 53.13 53.13 0 00-9.66 27.17 47.5 47.5 0 00.28 10 54.49 54.49 0 002.86 11.8 52.42 52.42 0 0029.09 30.4 53.05 53.05 0 0019.4 4.07c1.52 0 3-.1 4.54-.18a44.27 44.27 0 006-.75 53.14 53.14 0 0015.1-5.38 52.48 52.48 0 0018.75-16.77 53.13 53.13 0 007.46-16 51.76 51.76 0 001.91-13 50 50 0 00-.2-5.86 56.56 56.56 0 00-1-6.37 52.43 52.43 0 00-15.87-27.86 51.44 51.44 0 00-10.71-7.64c-1.12-.59-2.34-1-3.5-1.51a51.17 51.17 0 00-21.07-4.49z" fill="#c4c4c3"/><path d="M200.79 380.52a1.31 1.31 0 01-.43.06 18.84 18.84 0 00-5.56 0c-2.09.16-4.18.39-6.27.66q-5.53.74-11 1.95a261.2 261.2 0 00-55.17 19.51c-2.39 1.13-4.72 2.37-7.06 3.59a18.36 18.36 0 01-5.21 1.92 7.81 7.81 0 01-2.77 0 6.15 6.15 0 01-4.3-3 12.6 12.6 0 01-1.55-4.7c0-.34-.08-.68-.15-1a.68.68 0 00-.43-.54v-4.41c.55-.26.47-.8.53-1.27.17-1.26.3-2.52.51-3.78a85.59 85.59 0 013.81-14.14 178.4 178.4 0 0111.63-25.62c3.86-7.09 8-14 12.52-20.72a124.6 124.6 0 0130-30.78A154.58 154.58 0 01195.23 279a171.3 171.3 0 0126.23-7.87c.76-.17 1.53-.3 2.3-.45.39.21.31.57.24.9-.19 1-.4 1.91-.6 2.87l-4.68 21.78-6.65 31-6.48 30.24-4.65 21.79a3.6 3.6 0 00-.15 1.26z" fill="#8a302e"/><path d="M438 71.48a8.69 8.69 0 01-3.48-.37 38.44 38.44 0 01-15-6.7c-.9-.67-1.75-1.42-2.62-2.13a.86.86 0 01-.37-.75 4.44 4.44 0 00.92-1.47 169.51 169.51 0 0112.37-19.7 75.82 75.82 0 015.75-7 34.29 34.29 0 014.33-3.93 13.9 13.9 0 015-2.65c.07 0 .11-.14.16-.22h1.76a4.17 4.17 0 012.91 3.34c0 .14.06.29.09.43a21.87 21.87 0 01.11 7.44 46.88 46.88 0 01-1.49 7 142.84 142.84 0 01-7.32 19.93c-1.01 2.3-2.12 4.52-3.12 6.78z" fill="#9b403f"/><path d="M343.09 527l-.9.56h-3.52l-.6-.57a3.42 3.42 0 01.71.13 5 5 0 003.31 0 2.15 2.15 0 011-.12z" fill="#c4c4c3"/><path d="M343.09 527a2.15 2.15 0 00-1 .16 5 5 0 01-3.31 0 3.42 3.42 0 00-.71-.13 7.45 7.45 0 01-3.88-4.2 15.49 15.49 0 01-1.1-4.09 258 258 0 00-8.38-38.74 214.89 214.89 0 00-9.85-27.43 113.46 113.46 0 00-9.16-17 4.22 4.22 0 00-1.1-1.35c0-.19 0-.42.06-.56a4.88 4.88 0 01.64-.8c3.5-3.83 7-7.65 10.52-11.48L333.45 402c2.58-2.82 5.17-5.63 7.74-8.45l14.56-15.93q5.06-5.53 10.12-11.05l13-14.19.91-1c.16-.16.36-.1.55-.09 1.2 2.89 2.45 5.76 3.58 8.67a168.39 168.39 0 018.47 30c.85 4.57 1.46 9.17 1.91 13.8s.65 9 .65 13.49a135.74 135.74 0 01-.94 16.11 122.57 122.57 0 01-7.69 30.5 254.47 254.47 0 01-13.85 29.77 140.7 140.7 0 01-12.13 18.7 71.23 71.23 0 01-7.25 8.08 41.32 41.32 0 01-3.92 3.31 21.86 21.86 0 01-6.07 3.28z" fill="#8a302e"/><path d="M303.71 434.45a49.59 49.59 0 01-3.53 3.72c-5 5.15-10.08 10.28-15.1 15.44a3.91 3.91 0 01-2.24 1.25 29 29 0 01-3.93.45 51.77 51.77 0 01-12.53-1.31 105.16 105.16 0 01-18.95-6.17 178.1 178.1 0 01-29.11-15.5 91 91 0 01-13.65-10.88 45.88 45.88 0 01-6.33-7.51 23.36 23.36 0 01-2-3.61 3.74 3.74 0 01-.26-2.14c.37-2 .7-3.95 1-5.93l2.52-14.31c.32-1.83.63-3.66 1-5.49a6.27 6.27 0 01.26-.84c.37.62.76 1.24 1.13 1.87a52.34 52.34 0 008.14 10 101.44 101.44 0 0013.07 10.87A180.86 180.86 0 00240.38 415c4.37 2.42 8.79 4.72 13.3 6.86a170.87 170.87 0 0021.78 8.67 97.65 97.65 0 0012.93 3.2c1.92.34 3.86.57 5.81.75s4.1.21 6.15.2c1.13.04 2.23-.32 3.36-.23z" fill="#55658b"/><ellipse cx="338.09" cy="240" rx="5.72" ry="5" fill="#fff"/></g></symbol>
<symbol id="i-world-space-rocket3-right-copy" xmlns="http://www.w3.org/2000/svg" viewBox="0 0 485 584"><g data-name="Layer 7"><path d="M260.46 535.51c33.71-36.6 10.4-84.4 7.45-90.05a2 2 0 00-.88-.86l-6.27-3.2-22.35-11.4-22.34-11.45-6.26-3.22a2 2 0 00-1.22-.21c-6.3.91-58.73 9.92-68.73 58.65a2.1 2.1 0 003.21 2.17c6.87-4.45 20.92-13 29.24-14.54a2.1 2.1 0 011.85 3.48c-7.26 8.48-25.07 33-20.14 64.79 6.15 39.62 12.79 40.06 12.79 40.06l.38-.75-.38.75s4.27 5.12 40-13c28.68-14.55 38.18-43.35 40.83-54.2a2.1 2.1 0 013.91-.52c3.63 7.63 4.87 24 5.28 32.22a2.11 2.11 0 003.64 1.34z" fill="#b07736"/><path d="M258.72 506.37c24.57-25.13 5.18-60.18 2.75-64.33a1.58 1.58 0 00-.71-.64L238.41 430l-22.34-11.45a1.61 1.61 0 00-.93-.2c-4.8.45-44.57 5.2-50.62 39.82a1.72 1.72 0 002.53 1.65c5.1-3 15.56-8.66 21.87-9.47a1.61 1.61 0 011.54 2.55c-5.28 5.85-18.09 22.87-13.28 45.82 6 28.61 11.09 29.14 11.09 29.14s3 3.35 25.4-6q2.24-.93 4.73-2c21.44-9.5 27.77-29.83 29.44-37.53a1.61 1.61 0 013-.25c3 5.6 4.51 17.4 5.08 23.28a1.72 1.72 0 002.83 1.08z" fill="#d4aa42"/><path d="M380 160a55.5 55.5 0 00-73.76 25.45c-14.1 28.11-3.16 62.69 24.55 77.22a55.52 55.52 0 0075.66-24.56 57.34 57.34 0 005.35-16.34c4.11-24.08-7.35-49.18-29.85-61-.63-.33-1.28-.48-1.93-.79z" fill="#59595b"/><path d="M328.22 275.57a21.76 21.76 0 014.78-23.76l-.25.31h40.11l4.81.64 7.6 3.81 2.85 14.25" fill="#fff"/><path fill="#006837" d="M349.32 252.12l5.17 11.07h5.73l6.88-11.07h-17.78z"/><path d="M348.76 252.12l5.07 8.93a.91.91 0 01-1.34 1l-18-9.95zM360.88 261l5.64-8.84h10.89l-16 9.32a.36.36 0 01-.53-.48z" fill="#e6e6e6"/><ellipse cx="355.76" cy="219.6" rx="37.12" ry="35.6" fill="#f9d0a7"/><ellipse cx="320.62" cy="226.95" rx="7.39" ry="7.14" fill="#f9d0a7"/><path d="M392.15 214.25c-.58-6.05-1.55-7.6-2.59-13a1.23 1.23 0 00-.66-.86l-26.09-12.89a1.27 1.27 0 00-.72-.13l-25.63 3.12h-11.81a1.2 1.2 0 00-.93 2 1.18 1.18 0 01-.27 1.82c-2.3 1.33-6.57 4.86-4.51 11.87a1.19 1.19 0 00.11.26c.5.9-.84 4.94.54 19.09a1.57 1.57 0 003.09.17c2.42-11.28 11.05-24.1 16.13-28.5a1.23 1.23 0 011.06-.25l45.55 6a1.22 1.22 0 01.59.29c.61.56 2 5.72 3.17 11.4a1.5 1.5 0 002.97-.39z" fill="#d1a44a"/><path d="M356.88 209.28c-3-.18-26.24-4.15-32.76-15.31 0 0 6.88-18.82 26.36-22.15 0 0 12-1.88 26.59 8.54.43.3 6.71 7 7 7.44 2.2 3 7.1 10.88 13.69 13.15a.33.33 0 01-.08.64c-5.71.61-24 2.21-33.5-.93l10.73 5.79a.22.22 0 01-.12.41c-4.74-.43-23.93-2.26-26.56-4.19l8.72 6.41a.11.11 0 01-.07.2z" fill="#ddae47"/><rect x="368.82" y="209.48" width="22.92" height="17.72" rx="8" fill="#fff" stroke="#000" stroke-miterlimit="10" stroke-width="2"/><rect x="340.17" y="209.48" width="22.92" height="17.72" rx="8" fill="#fff" stroke="#000" stroke-miterlimit="10" stroke-width="2"/><path fill="none" stroke="#000" stroke-miterlimit="10" stroke-width="2" d="M363.09 218.34h5.73"/><ellipse cx="355.64" cy="217.78" rx="1.72" ry="1.66"/><ellipse cx="383.14" cy="217.78" rx="1.72" ry="1.66"/><ellipse cx="371.38" cy="240" rx="5.63" ry="5" fill="#fff"/><path d="M223.76 270.68a1.82 1.82 0 00.93-1.21c.25-1.19.67-2.34 1-3.51.74-2.38 1.52-4.74 2.24-7.13 1-3.42 2.25-6.77 3.42-10.14q2.44-7.06 5.27-14c1.13-2.76 2.24-5.53 3.42-8.26 1.05-2.43 2.2-4.81 3.28-7.21 1.51-3.35 3.13-6.65 4.83-9.9 2.06-3.94 4.17-7.86 6.39-11.72 2-3.47 4.06-6.91 6.21-10.29 1.55-2.43 3.13-4.85 4.74-7.24q5-7.41 10.46-14.51c2.35-3.06 4.79-6 7.19-9.07q2.88-3.6 5.92-7.09c1.54-1.76 3-3.57 4.56-5.35.06-.08.13-.15.19-.22 1.47-1.58 3-3.12 4.38-4.75 2.17-2.52 4.64-4.77 6.89-7.22 1.16-1.26 2.29-2.55 3.55-3.7 2.59-2.39 5-4.91 7.61-7.33 2.06-2 4.17-3.85 6.3-5.72 2.65-2.31 5.3-4.62 8-6.84 4.81-3.93 9.69-7.75 14.74-11.36 3.38-2.42 6.76-4.84 10.25-7.1 4-2.57 8-5.1 12.12-7.44 3.1-1.77 6.2-3.53 9.39-5.14 1.62-.81 3.19-1.73 4.82-2.5 4.21-2 8.41-3.94 12.71-5.71 5.07-2.09 10.22-3.92 15.43-5.59 1.86-.59 3.75-1.09 5.63-1.63.28-.08.55-.19.82-.28a.86.86 0 00.37.75c.87.71 1.72 1.46 2.62 2.13a38.44 38.44 0 0015 6.7 8.69 8.69 0 003.48.37c.6 1.65 1.22 3.3 1.8 5 1.49 4.29 2.85 8.61 4 13 .64 2.55 1.3 5.1 1.87 7.67.61 2.75 1.16 5.52 1.67 8.3.39 2 .68 4.13 1 6.19.14.87.25 1.74.37 2.61.17 1.25.31 2.51.52 3.75.18 1.06.25 2.13.35 3.2.12 1.3.42 2.6.47 3.9.07 1.81.48 3.59.37 5.4a1.09 1.09 0 00.08.43.46.46 0 00.47.27v.59a.52.52 0 00-.29.46V136a.6.6 0 00.27.48v26.42s-.11.07-.1.1a.93.93 0 00.1.2v.58c-.08.12-.23.23-.23.35v4c0 .11.16.22.25.33v.88c-.47 0-.55.33-.56.7-.05 1.41-.13 2.82-.26 4.23-.2 2.09-.39 4.17-.6 6.26-.17 1.75-.34 3.49-.6 5.23s-.42 3.67-.64 5.51c-.11.87-.24 1.74-.38 2.61-.25 1.53-.58 3.06-.74 4.61-.22 2.09-.7 4.13-1 6.2-.37 2.31-.91 4.59-1.34 6.89-.82 4.41-1.85 8.77-2.88 13.14s-2.12 8.42-3.26 12.61c-1.26 4.62-2.63 9.2-4.06 13.77q-2.35 7.47-5.12 14.82-2.34 6.24-5 12.37c-1.21 2.83-2.45 5.65-3.79 8.43-1.91 4-3.86 7.92-5.91 11.81s-4.06 7.47-6.22 11.14-4.36 7.3-6.66 10.87q-4.87 7.62-10.07 14.96-2.57 3.57-5.21 7.08c-1.88 2.5-3.79 5-5.7 7.45a2.11 2.11 0 00-.57 1.31c-.19 0-.39-.07-.55.09l-.91 1-13 14.19q-5.06 5.52-10.12 11.05l-14.56 15.93c-2.57 2.82-5.16 5.63-7.74 8.45l-17.62 19.25c-3.5 3.83-7 7.65-10.52 11.48a4.88 4.88 0 00-.64.8c-.09.14 0 .37-.06.56-.35 0-.59.21-.89.31-1.13-.09-2.23.27-3.36.27-2.05 0-4.09 0-6.15-.2s-3.89-.41-5.81-.75a97.65 97.65 0 01-12.93-3.2 170.87 170.87 0 01-21.78-8.67c-4.51-2.14-8.93-4.44-13.3-6.86a180.86 180.86 0 01-17.16-10.71 101.44 101.44 0 01-13.07-10.87 52.34 52.34 0 01-8.14-10c-.37-.63-.76-1.25-1.13-1.87l-.09-1.09a3.6 3.6 0 01.15-1.3l4.65-21.79 6.48-30.24q3.31-15.48 6.65-31l4.68-21.78c.2-1 .41-1.91.6-2.87.07-.27.15-.63-.24-.84zm131-113.7a57.39 57.39 0 00-9.06.7 54.33 54.33 0 00-17.31 6.22 52.37 52.37 0 00-17 15.47 53.13 53.13 0 00-9.66 27.17 47.5 47.5 0 00.28 10 54.49 54.49 0 002.86 11.8 52.42 52.42 0 0029.09 30.4 53.05 53.05 0 0019.4 4.07c1.52 0 3-.1 4.54-.18a44.27 44.27 0 006-.75 53.14 53.14 0 0015.1-5.38 52.48 52.48 0 0018.75-16.77 53.13 53.13 0 007.46-16 51.76 51.76 0 001.91-13 50 50 0 00-.2-5.86 56.56 56.56 0 00-1-6.37 52.43 52.43 0 00-15.87-27.86 51.44 51.44 0 00-10.71-7.64c-1.12-.59-2.34-1-3.5-1.51a51.17 51.17 0 00-21.07-4.49z" fill="#c4c4c3"/><path d="M200.79 380.52a1.31 1.31 0 01-.43.06 18.84 18.84 0 00-5.56 0c-2.09.16-4.18.39-6.27.66q-5.53.74-11 1.95a261.2 261.2 0 00-55.17 19.51c-2.39 1.13-4.72 2.37-7.06 3.59a18.36 18.36 0 01-5.21 1.92 7.81 7.81 0 01-2.77 0 6.15 6.15 0 01-4.3-3 12.6 12.6 0 01-1.55-4.7c0-.34-.08-.68-.15-1a.68.68 0 00-.43-.54v-4.41c.55-.26.47-.8.53-1.27.17-1.26.3-2.52.51-3.78a85.59 85.59 0 013.81-14.14 178.4 178.4 0 0111.63-25.62c3.86-7.09 8-14 12.52-20.72a124.6 124.6 0 0130-30.78A154.58 154.58 0 01195.23 279a171.3 171.3 0 0126.23-7.87c.76-.17 1.53-.3 2.3-.45.39.21.31.57.24.9-.19 1-.4 1.91-.6 2.87l-4.68 21.78-6.65 31-6.48 30.24-4.65 21.79a3.6 3.6 0 00-.15 1.26z" fill="#8a302e"/><path d="M438 71.48a8.69 8.69 0 01-3.48-.37 38.44 38.44 0 01-15-6.7c-.9-.67-1.75-1.42-2.62-2.13a.86.86 0 01-.37-.75 4.44 4.44 0 00.92-1.47 169.51 169.51 0 0112.37-19.7 75.82 75.82 0 015.75-7 34.29 34.29 0 014.33-3.93 13.9 13.9 0 015-2.65c.07 0 .11-.14.16-.22h1.76a4.17 4.17 0 012.91 3.34c0 .14.06.29.09.43a21.87 21.87 0 01.11 7.44 46.88 46.88 0 01-1.49 7 142.84 142.84 0 01-7.32 19.93c-1.01 2.3-2.12 4.52-3.12 6.78z" fill="#9b403f"/><path d="M343.09 527l-.9.56h-3.52l-.6-.57a3.42 3.42 0 01.71.13 5 5 0 003.31 0 2.15 2.15 0 011-.12z" fill="#c4c4c3"/><path d="M343.09 527a2.15 2.15 0 00-1 .16 5 5 0 01-3.31 0 3.42 3.42 0 00-.71-.13 7.45 7.45 0 01-3.88-4.2 15.49 15.49 0 01-1.1-4.09 258 258 0 00-8.38-38.74 214.89 214.89 0 00-9.85-27.43 113.46 113.46 0 00-9.16-17 4.22 4.22 0 00-1.1-1.35c0-.19 0-.42.06-.56a4.88 4.88 0 01.64-.8c3.5-3.83 7-7.65 10.52-11.48L333.45 402c2.58-2.82 5.17-5.63 7.74-8.45l14.56-15.93q5.06-5.53 10.12-11.05l13-14.19.91-1c.16-.16.36-.1.55-.09 1.2 2.89 2.45 5.76 3.58 8.67a168.39 168.39 0 018.47 30c.85 4.57 1.46 9.17 1.91 13.8s.65 9 .65 13.49a135.74 135.74 0 01-.94 16.11 122.57 122.57 0 01-7.69 30.5 254.47 254.47 0 01-13.85 29.77 140.7 140.7 0 01-12.13 18.7 71.23 71.23 0 01-7.25 8.08 41.32 41.32 0 01-3.92 3.31 21.86 21.86 0 01-6.07 3.28z" fill="#8a302e"/><path d="M303.71 434.45a49.59 49.59 0 01-3.53 3.72c-5 5.15-10.08 10.28-15.1 15.44a3.91 3.91 0 01-2.24 1.25 29 29 0 01-3.93.45 51.77 51.77 0 01-12.53-1.31 105.16 105.16 0 01-18.95-6.17 178.1 178.1 0 01-29.11-15.5 91 91 0 01-13.65-10.88 45.88 45.88 0 01-6.33-7.51 23.36 23.36 0 01-2-3.61 3.74 3.74 0 01-.26-2.14c.37-2 .7-3.95 1-5.93l2.52-14.31c.32-1.83.63-3.66 1-5.49a6.27 6.27 0 01.26-.84c.37.62.76 1.24 1.13 1.87a52.34 52.34 0 008.14 10 101.44 101.44 0 0013.07 10.87A180.86 180.86 0 00240.38 415c4.37 2.42 8.79 4.72 13.3 6.86a170.87 170.87 0 0021.78 8.67 97.65 97.65 0 0012.93 3.2c1.92.34 3.86.57 5.81.75s4.1.21 6.15.2c1.13.04 2.23-.32 3.36-.23z" fill="#55658b"/></g></symbol>
<symbol id="i-world-space-rocket3" xmlns="http://www.w3.org/2000/svg" viewBox="0 0 485 584"><g data-name="Layer 7"><path d="M259.46 539.51c33.71-36.6 10.4-84.4 7.45-90.05a2 2 0 00-.88-.86l-6.27-3.2-22.35-11.4-22.34-11.45-6.26-3.22a2 2 0 00-1.22-.21c-6.3.91-58.73 9.92-68.73 58.65a2.1 2.1 0 003.21 2.17c6.87-4.45 20.92-13 29.24-14.54a2.1 2.1 0 011.85 3.48c-7.26 8.48-25.07 33-20.14 64.79 6.15 39.62 12.79 40.06 12.79 40.06l.38-.75-.38.75s4.27 5.12 40-13c28.68-14.55 38.18-43.35 40.83-54.2a2.1 2.1 0 013.91-.52c3.63 7.63 4.87 24 5.28 32.22a2.11 2.11 0 003.64 1.34z" fill="#b07736"/><path d="M257.72 510.37c24.57-25.13 5.18-60.18 2.75-64.33a1.58 1.58 0 00-.71-.64L237.41 434l-22.34-11.45a1.61 1.61 0 00-.93-.2c-4.8.45-44.57 5.2-50.62 39.82a1.72 1.72 0 002.53 1.65c5.1-3 15.56-8.66 21.87-9.47a1.61 1.61 0 011.54 2.55c-5.28 5.85-18.09 22.87-13.28 45.82 6 28.61 11.09 29.14 11.09 29.14s3 3.35 25.4-6q2.24-.93 4.73-2c21.44-9.5 27.77-29.83 29.44-37.53a1.61 1.61 0 013-.25c3 5.6 4.51 17.4 5.08 23.28a1.72 1.72 0 002.83 1.08z" fill="#d4aa42"/><path d="M113.71 405.87c16.44-8.95 55.58-25.18 83.55-25.91.59.13 1.19.2 1.78.32l23.55-110c-15.84 3-66.76 15.74-95.75 60.56-34.63 53.51-32.9 85.78-13.13 75z" fill="#8a302e"/><path d="M384.76 463.37c19.36-49.15.69-97.51-6.3-112.68l-76.63 83.75c.31-.31.62-.62.92-.94.23.21.44.46.67.67 15.92 23 25.65 64.83 28 83.55 2.76 22.34 30 4.95 53.37-54.35z" fill="#ceb15d"/><path d="M245.21 418.05c-.35-.17-.66-.35-1-.53v.06c-32.61-16.94-42.26-31.08-45-36.61q-2.37 13.45-4.88 27.77s3.17 14.46 38.81 32.77 49.43 12.58 49.43 12.58l19.24-19.65.44-.47.06-.06c-6.26 1-23.79 1.26-57.08-15.86z" fill="#54648b"/><path d="M384.75 463.31c19.37-49.15.69-97.51-6.29-112.67l-76.63 83.75.91-.95c.24.21.44.46.68.67 15.92 23 25.65 64.83 28 83.54 2.77 22.35 30 5 53.37-54.34z" fill="#8a302e"/><path d="M433 250.44c3.8-12.08 6.81-23.64 9.17-34.65 16.53-77.07.81-127.78-5.9-144.55a38.3 38.3 0 01-11.92-3.46v.08c-.16-.07-.32-.13-.48-.21s-.51-.22-.76-.35a38.5 38.5 0 01-8.48-5.95c-16.15 4.18-54.55 17.59-97.72 57.13a360.18 360.18 0 00-44.52 49.4c-24 32-38.7 64.72-49.63 102.37h-.17l-15 70.28-8.59 39.75.3.05c0 .21-.08.43-.11.64 2.59 5.33 11.64 18.59 41.3 34.66 1.51.83 3 1.65 4.67 2.48C278.5 435.22 296 435 302.27 434l76.19-83.29C402.82 319.74 421 288.68 433 250.44z" fill="#c4c4c3"/><path d="M447.87 39.88c1.47-7.69.37-12.22-1.83-13.36a3.21 3.21 0 00-.36-.08c-1.63-.57-4.2.19-7.41 2.63a34.85 34.85 0 00-4.18 3.78c-5.32 5.57-13 16.77-19 28.35l-.41.13a38.87 38.87 0 008.48 6l.77.34a38.6 38.6 0 0012.37 3.63v-.15c5.15-10.34 9.27-21.36 11.06-28.87.2-.83.4-1.66.54-2.4z" fill="#9a3f3e"/><path d="M375.16 161.57a47 47 0 101.82.69c-.59-.31-1.2-.44-1.8-.72z" fill="#59595b"/><path d="M423.54 67.5l.33.15.2.08-.18-.08-.34-.15a3.49 3.49 0 01.34.15l.19.08-.19-.08a2.41 2.41 0 00-.33-.15z" fill="#a4a6a9"/></g></symbol>
</svg>