<?xml version="1.0" encoding="UTF-8"?>
<svg version="1.1" xmlns="http://www.w3.org/2000/svg" xmlns:xlink="http://www.w3.org/1999/xlink">
<defs>

</defs>
<symbol id="i-close-circle" viewBox="0 0 24 24" xmlns="http://www.w3.org/2000/svg"><path fill="#92cc41" d="M12 2C6.5 2 2 6.5 2 12s4.5 10 10 10 10-4.5 10-10S17.5 2 12 2zm4.9 13.5l-1.4 1.4-3.5-3.5-3.5 3.5-1.4-1.4 3.5-3.5-3.5-3.5 1.4-1.4 3.5 3.5 3.5-3.5 1.4 1.4-3.5 3.5z"/></symbol>
<symbol id="i-close" viewBox="0 0 512 512" xmlns="http://www.w3.org/2000/svg"><path fill="#92cc41" d="M437.5 386.6L306.9 256l130.6-130.6c14.1-14.1 14.1-36.8 0-50.9s-36.8-14.1-50.9 0L256 205.1 125.4 74.5c-14.1-14.1-36.8-14.1-50.9 0s-14.1 36.8 0 50.9L205.1 256 74.5 386.6c-14.1 14.1-14.1 36.8 0 50.9s36.8 14.1 50.9 0L256 306.9l130.6 130.6c14.1 14.1 36.8 14.1 50.9 0 14-14.1 14-36.9 0-50.9z"/></symbol>
<symbol id="i-github" xmlns="http://www.w3.org/2000/svg" viewBox="0 0 24 24"><path d="M-1-1h582v402H-1z" fill="none"/><circle cx="12" cy="12" fill="#434a54" r="11"/><path d="M14.313 18.941c0-.283.01-1.207.01-2.354 0-.8-.275-1.323-.582-1.59 1.91-.212 3.917-.937 3.917-4.233 0-.936-.333-1.702-.883-2.303.09-.216.383-1.088-.084-2.27 0 0-.72-.23-2.357.88a8.242 8.242 0 00-2.15-.29 8.216 8.216 0 00-2.147.29c-1.64-1.11-2.36-.88-2.36-.88-.466 1.182-.172 2.054-.083 2.27a3.32 3.32 0 00-.884 2.303c0 3.288 2.003 4.024 3.909 4.24-.245.215-.468.593-.545 1.148-.49.22-1.731.598-2.496-.713 0 0-.454-.824-1.316-.885 0 0-.837-.01-.058.522 0 0 .562.264.952 1.255 0 0 .504 1.532 2.891 1.013.004.717.012 1.392.012 1.597a.468.468 0 01-.052.215 7.967 7.967 0 004.404.073.45.45 0 01-.098-.288z" fill="#fff"/><path d="M4.222 19.778A10.966 10.966 0 0012 23c6.075 0 11-4.925 11-11 0-3.038-1.231-5.788-3.222-7.778z" fill="#231f20" opacity=".1"/></symbol>
<symbol id="i-instagram" xmlns="http://www.w3.org/2000/svg" viewBox="0 0 24 24"><path d="M-1-1h582v402H-1z" fill="none"/><circle cx="12" cy="12" fill="#f07" r="11"/><path d="M12.014 7.33c1.525 0 1.706.006 2.309.033.556.026.859.119 1.06.197.267.104.457.228.657.427s.324.39.428.657c.078.202.171.504.196 1.061.028.603.034.783.034 2.309s-.006 1.706-.034 2.309c-.025.557-.118.86-.196 1.06a1.77 1.77 0 01-.428.657c-.2.2-.39.324-.657.428-.2.078-.504.171-1.06.196-.603.028-.784.034-2.31.034s-1.705-.006-2.308-.034c-.557-.025-.86-.118-1.06-.196-.267-.104-.458-.228-.658-.428s-.323-.39-.427-.657c-.078-.2-.171-.504-.197-1.06-.027-.603-.033-.784-.033-2.31s.006-1.705.033-2.308c.026-.557.119-.86.197-1.06.104-.267.228-.458.427-.658s.39-.323.657-.427c.202-.078.504-.171 1.061-.197.603-.027.783-.033 2.309-.033m0-1.03c-1.552 0-1.746.007-2.356.035-.608.028-1.023.124-1.387.266a2.8 2.8 0 00-1.011.659 2.801 2.801 0 00-.66 1.012c-.14.363-.237.778-.265 1.386-.028.61-.034.804-.034 2.356 0 1.552.006 1.746.034 2.356.028.608.124 1.023.266 1.386a2.8 2.8 0 00.659 1.012 2.8 2.8 0 001.011.66c.364.14.78.237 1.387.265.61.028.804.034 2.356.034 1.551 0 1.746-.006 2.355-.034.609-.028 1.024-.124 1.387-.266a2.8 2.8 0 001.012-.659c.318-.317.513-.636.66-1.012.14-.363.237-.778.265-1.386.028-.61.034-.804.034-2.356 0-1.552-.006-1.746-.034-2.356-.028-.608-.125-1.023-.266-1.386a2.8 2.8 0 00-.659-1.012 2.8 2.8 0 00-1.012-.66c-.363-.14-.778-.237-1.387-.265-.609-.028-.804-.034-2.355-.034m0 2.78a2.934 2.934 0 100 5.867 2.934 2.934 0 000-5.868m0 4.838a1.904 1.904 0 110-3.808 1.904 1.904 0 010 3.808m3.735-4.954a.686.686 0 10-1.37 0 .686.686 0 001.37 0" fill="#fff"/><path d="M4.222 19.778A10.966 10.966 0 0012 23c6.075 0 11-4.925 11-11 0-3.038-1.231-5.788-3.222-7.778z" fill="#231f20" opacity=".1"/></symbol>
<symbol id="i-linkedin" xmlns="http://www.w3.org/2000/svg" viewBox="0 0 24 24"><path d="M-1-1h582v402H-1z" fill="none"/><circle cx="12" cy="12" fill="#0173b2" r="11"/><path d="M8.099 5.896c-.83 0-1.375.545-1.375 1.261 0 .701.526 1.25 1.34 1.25h.012c.847 0 1.375-.549 1.375-1.25C9.436 6.44 8.93 5.896 8.1 5.896zm7.16 3.352c-1.293 0-1.86.707-2.182 1.205v.023h-.023c.004-.006.019-.017.023-.023V9.419h-2.432c.032.685 0 7.296 0 7.296h2.432v-4.08c0-.218.015-.435.08-.59.175-.437.568-.887 1.238-.887.878 0 1.24.666 1.24 1.648v3.91h2.42v-4.183c0-2.243-1.2-3.285-2.796-3.285zm-8.387.17v7.297h2.432V9.42z" fill="#fff"/><path d="M4.222 19.778A10.966 10.966 0 0012 23c6.075 0 11-4.925 11-11 0-3.038-1.231-5.788-3.222-7.778z" fill="#231f20" opacity=".1"/></symbol>
<symbol id="i-menu" xmlns="http://www.w3.org/2000/svg" viewBox="0 0 32 32"><path d="M-1-1h582v402H-1z" fill="none"/><path d="M4 10h24a2 2 0 000-4H4a2 2 0 000 4zm24 4H4a2 2 0 000 4h24a2 2 0 000-4zm0 8H4a2 2 0 000 4h24a2 2 0 000-4z" fill="#92cc41"/></symbol>
<symbol id="i-natekelley" viewBox="0 0 336 77.75" xmlns="http://www.w3.org/2000/svg"><path d="M18 3h298v15h15v41h-13v14H18V60H3V18h15z" fill="#92cc41"/><g fill="#fff"><path d="M24.35 49.1V25.44h6.76v3.38h3.38v3.38h3.38v3.38h3.39V25.44H48V49.1h-6.74v-6.76h-3.39V39h-3.38v-3.42h-3.38V49.1zM50.45 49.1V32.2h3.38v-3.38h3.38v-3.38h10.14v3.38h3.38v3.38h3.38v16.9h-6.76v-6.76H57.21v6.76zM57.21 39h10.14v-6.8H64v-3.38h-3.41v3.38h-3.38zM86.69 49.1V28.82h-6.76v-3.38h20.28v3.38h-6.76V49.1zM102.65 49.1V25.44h23.66v3.38h-16.9v6.76h13.52V39h-13.52v6.76h16.9v3.34zM154.84 49.1V25.44h6.77v10.14H165V32.2h3.38v-3.38h3.38v-3.38h6.76v3.38h-3.38v3.38h-3.38v3.38h-3.38V39h3.38v3.38h3.38v3.38h3.38v3.34h-10.15v-3.38H165v-3.38h-3.38v6.76zM180.94 49.1V25.44h23.67v3.38H187.7v6.76h13.53V39H187.7v6.76h16.91v3.34zM210.42 49.1V25.44h6.76v20.28h13.53v3.38zM236.52 49.1V25.44h6.76v20.28h13.52v3.38zM259.24 49.1V25.44h23.66v3.38H266v6.76h13.52V39H266v6.76h16.9v3.34zM295.48 49.1V39h-3.38v-3.42h-3.38V25.44h6.76v10.14h6.76V25.44H309v10.14h-3.38V39h-3.38v10.1z"/></g></symbol>
</svg>