<?xml version="1.0" encoding="UTF-8"?>
<svg version="1.1" xmlns="http://www.w3.org/2000/svg" xmlns:xlink="http://www.w3.org/1999/xlink">
<defs>

</defs>
<symbol id="i-cheering-left" viewBox="0 0 157 180" xmlns="http://www.w3.org/2000/svg"><path d="M101.5 173h-14v-40h14z" fill="#1b1464"/><path d="M117.5 173h-30v-13h30z" fill="#8c6239"/><path d="M76.5 173h-14v-39h14z" fill="#1b1464"/><path d="M76.5 173h-29v-13h29z" fill="#8c6239"/><path d="M62.5 92v44h39V91C139 67.5 137 43.5 137 43.5h-12c-9 17-23.5 30.5-23.5 30.5l-27.5.5-12.5.5A63.92 63.92 0 0138 43.5l-12 2s13 42 36.5 46.5" fill="#fff"/><circle cx="131.5" cy="38" fill="#f9d0a7" r="9.5"/><circle cx="31.5" cy="38" fill="#f9d0a7" r="9.5"/><path d="M87.01 74L82.5 84h-5l-6-10z" fill="#006837"/><path d="M82.5 84l3 41-5.59 7.34a.53.53 0 01-.88 0L74.5 125l3-41z" fill="#009245"/><path d="M87.5 74l-4.42 8.07a.8.8 0 001.17.91L100 74zM76.93 82L72 74h-9.5l14 8.42a.32.32 0 00.43-.42z" fill="#e6e6e6"/><ellipse cx="81.39" cy="44.64" fill="#f9d0a7" rx="32.39" ry="32.14"/><circle cx="112.05" cy="51.28" fill="#f9d0a7" r="6.45"/><path d="M64 63.73c0 2.63 2.36 4.77 6.5 4.77s6.5-2.14 6.5-4.77-2.86-5.23-7-5.23-6 2.59-6 5.23z" fill="#fff"/><path d="M49.64 39.81C50.14 34.34 51 33 51.9 28a1.09 1.09 0 01.58-.78l22.76-11.57a1 1 0 01.63-.11l22.37 2.81h10.3a1.09 1.09 0 01.81 1.81 1.08 1.08 0 00.24 1.64c2 1.21 5.73 4.39 3.93 10.72a1.17 1.17 0 01-.09.24c-.44.8.73 4.45-.47 17.23a1.37 1.37 0 01-2.71.15C108.14 40 100.61 28.4 96.18 24.42a1.06 1.06 0 00-.92-.23l-39.75 5.43a1.08 1.08 0 00-.51.26c-.54.51-1.72 5.17-2.76 10.3a1.31 1.31 0 01-2.6-.37z" fill="#d1a44a"/><path d="M80.41 35.32C83 35.15 103.32 31.58 109 21.5c0 0-6-17-23-20 0 0-10.46-1.7-23.2 7.7-.37.28-5.86 6.35-6.12 6.73-1.92 2.73-6.2 9.82-11.94 11.87a.3.3 0 00.06.58c5 .54 21 2 29.24-.84l-9.36 5.22a.2.2 0 00.1.38c4.14-.39 20.88-2 23.17-3.79l-7.6 5.79a.1.1 0 00.06.18z" fill="#ddae47"/><g stroke-miterlimit="10"><rect fill="#f9d0a7" height="16" rx="8" stroke="#000" stroke-width="2" width="20" x="76" y="35.5"/><rect fill="#f9d0a7" height="16" rx="8" stroke="#000" stroke-width="2" width="20" x="51" y="35.5"/><path d="M71 43.5h5" fill="none" stroke="#000" stroke-width="2"/><path d="M51.5 44l18.5-.5M77 44h18" stroke="#b79274"/></g><path d="M51 43.27a5.7 5.7 0 00.2 1.49.64.64 0 00.13.26.44.44 0 00.66-.13 1.23 1.23 0 00.14-.76 1.86 1.86 0 00-.1-.7.7.7 0 00-.51-.45.46.46 0 00-.51.51"/></symbol>
<symbol id="i-cheering-left-blink" viewBox="0 0 157 180" xmlns="http://www.w3.org/2000/svg"><path d="M101.5 173h-14v-40h14z" fill="#1b1464"/><path d="M117.5 173h-30v-13h30z" fill="#8c6239"/><path d="M76.5 173h-14v-39h14z" fill="#1b1464"/><path d="M76.5 173h-29v-13h29z" fill="#8c6239"/><path d="M62.5 92v44h39V91C139 67.5 137 43.5 137 43.5h-12c-9 17-23.5 30.5-23.5 30.5l-27.5.5-12.5.5A63.92 63.92 0 0138 43.5l-12 2s13 42 36.5 46.5" fill="#fff"/><circle cx="131.5" cy="38" fill="#f9d0a7" r="9.5"/><circle cx="31.5" cy="38" fill="#f9d0a7" r="9.5"/><path d="M87.01 74L82.5 84h-5l-6-10z" fill="#006837"/><path d="M82.5 84l3 41-5.59 7.34a.53.53 0 01-.88 0L74.5 125l3-41z" fill="#009245"/><path d="M87.5 74l-4.42 8.07a.8.8 0 001.17.91L100 74zM76.93 82L72 74h-9.5l14 8.42a.32.32 0 00.43-.42z" fill="#e6e6e6"/><ellipse cx="81.39" cy="44.64" fill="#f9d0a7" rx="32.39" ry="32.14"/><circle cx="112.05" cy="51.28" fill="#f9d0a7" r="6.45"/><path d="M64 63.73c0 2.63 2.36 4.77 6.5 4.77s6.5-2.14 6.5-4.77-2.86-5.23-7-5.23-6 2.59-6 5.23z" fill="#fff"/><path d="M49.64 39.81C50.14 34.34 51 33 51.9 28a1.09 1.09 0 01.58-.78l22.76-11.57a1 1 0 01.63-.11l22.37 2.81h10.3a1.09 1.09 0 01.81 1.81 1.08 1.08 0 00.24 1.64c2 1.21 5.73 4.39 3.93 10.72a1.17 1.17 0 01-.09.24c-.44.8.73 4.45-.47 17.23a1.37 1.37 0 01-2.71.15C108.14 40 100.61 28.4 96.18 24.42a1.06 1.06 0 00-.92-.23l-39.75 5.43a1.08 1.08 0 00-.51.26c-.54.51-1.72 5.17-2.76 10.3a1.31 1.31 0 01-2.6-.37z" fill="#d1a44a"/><path d="M80.41 35.32C83 35.15 103.32 31.58 109 21.5c0 0-6-17-23-20 0 0-10.46-1.7-23.2 7.7-.37.28-5.86 6.35-6.12 6.73-1.92 2.73-6.2 9.82-11.94 11.87a.3.3 0 00.06.58c5 .54 21 2 29.24-.84l-9.36 5.22a.2.2 0 00.1.38c4.14-.39 20.88-2 23.17-3.79l-7.6 5.79a.1.1 0 00.06.18z" fill="#ddae47"/><g stroke-miterlimit="10"><rect fill="#f9d0a7" height="16" rx="8" stroke="#000" stroke-width="2" width="20" x="76" y="35.5"/><rect fill="#f9d0a7" height="16" rx="8" stroke="#000" stroke-width="2" width="20" x="51" y="35.5"/><path d="M71 43.5h5" fill="none" stroke="#000" stroke-width="2"/><path d="M51.5 44l18.5-.5M77 44h18" stroke="#b79274"/></g><path d="M51 43.27a5.7 5.7 0 00.2 1.49.64.64 0 00.13.26.44.44 0 00.66-.13 1.23 1.23 0 00.14-.76 1.86 1.86 0 00-.1-.7.7.7 0 00-.51-.45.46.46 0 00-.51.51"/></symbol>
<symbol id="i-cheering-right" viewBox="0 0 157 180" xmlns="http://www.w3.org/2000/svg"><path d="M58.5 133h14v40h-14z" fill="#1b1464"/><path d="M42.5 160h30v13h-30z" fill="#8c6239"/><path d="M83.5 134h14v39h-14z" fill="#1b1464"/><path d="M83.5 160h29v13h-29z" fill="#8c6239"/><path d="M97.5 92v44h-39V91C21 67.5 23 43.5 23 43.5h12C44 60.5 58.5 74 58.5 74l27.5.5 12.5.5A63.92 63.92 0 00122 43.5l12 2s-13 42-36.5 46.5" fill="#fff"/><circle cx="28.5" cy="38" fill="#f9d0a7" r="9.5"/><circle cx="128.5" cy="38" fill="#f9d0a7" r="9.5"/><path d="M72.99 74l4.51 10h5l6-10z" fill="#006837"/><path d="M77.5 84l-3 41 5.59 7.34a.53.53 0 00.88 0L85.5 125l-3-41z" fill="#009245"/><path d="M72.5 74l4.42 8.07a.8.8 0 01-1.17.91l-15.7-9zM83.07 82L88 74h9.5l-14 8.42a.32.32 0 01-.43-.42z" fill="#e6e6e6"/><ellipse cx="78.61" cy="44.64" fill="#f9d0a7" rx="32.39" ry="32.14"/><circle cx="47.95" cy="51.28" fill="#f9d0a7" r="6.45"/><path d="M96 63.73c0 2.63-2.36 4.77-6.5 4.77S83 66.36 83 63.73s2.86-5.23 7-5.23 6 2.59 6 5.23z" fill="#fff"/><path d="M110.36 39.81C109.86 34.34 109 33 108.1 28a1.09 1.09 0 00-.58-.78L84.76 15.65a1 1 0 00-.63-.11l-22.37 2.81h-10.3a1.09 1.09 0 00-.81 1.81 1.08 1.08 0 01-.24 1.64c-2 1.21-5.73 4.39-3.93 10.72a1.17 1.17 0 00.09.24c.44.8-.73 4.45.47 17.23a1.37 1.37 0 002.71.15C51.86 40 59.39 28.4 63.82 24.42a1.06 1.06 0 01.92-.23l39.75 5.43a1.08 1.08 0 01.51.26c.54.51 1.72 5.17 2.76 10.3a1.31 1.31 0 002.6-.37z" fill="#d1a44a"/><path d="M79.59 35.32C77 35.15 56.68 31.58 51 21.5c0 0 6-17 23-20 0 0 10.46-1.7 23.2 7.7.37.28 5.86 6.35 6.12 6.73 1.92 2.73 6.2 9.82 11.94 11.87a.3.3 0 01-.06.58c-5 .54-21 2-29.24-.84l9.36 5.22a.2.2 0 01-.1.38c-4.14-.39-20.88-2-23.17-3.79l7.6 5.79a.1.1 0 01-.06.18z" fill="#ddae47"/><g stroke-miterlimit="10"><rect fill="#f9d0a7" height="16" rx="8" stroke="#000" stroke-width="2" width="20" x="90" y="35.5"/><rect fill="#f9d0a7" height="16" rx="8" stroke="#000" stroke-width="2" width="20" x="65" y="35.5"/><path d="M85 43.5h5" fill="none" stroke="#000" stroke-width="2"/><path d="M65.5 44l18.5-.5M91 44h18" stroke="#b79274"/></g></symbol>
<symbol id="i-cheering-right-blink" viewBox="0 0 157 180" xmlns="http://www.w3.org/2000/svg"><path d="M58.5 133h14v40h-14z" fill="#1b1464"/><path d="M42.5 160h30v13h-30z" fill="#8c6239"/><path d="M83.5 134h14v39h-14z" fill="#1b1464"/><path d="M83.5 160h29v13h-29z" fill="#8c6239"/><path d="M97.5 92v44h-39V91C21 67.5 23 43.5 23 43.5h12C44 60.5 58.5 74 58.5 74l27.5.5 12.5.5A63.92 63.92 0 00122 43.5l12 2s-13 42-36.5 46.5" fill="#fff"/><circle cx="28.5" cy="38" fill="#f9d0a7" r="9.5"/><circle cx="128.5" cy="38" fill="#f9d0a7" r="9.5"/><path d="M72.99 74l4.51 10h5l6-10z" fill="#006837"/><path d="M77.5 84l-3 41 5.59 7.34a.53.53 0 00.88 0L85.5 125l-3-41z" fill="#009245"/><path d="M72.5 74l4.42 8.07a.8.8 0 01-1.17.91l-15.7-9zM83.07 82L88 74h9.5l-14 8.42a.32.32 0 01-.43-.42z" fill="#e6e6e6"/><ellipse cx="78.61" cy="44.64" fill="#f9d0a7" rx="32.39" ry="32.14"/><circle cx="47.95" cy="51.28" fill="#f9d0a7" r="6.45"/><path d="M96 63.73c0 2.63-2.36 4.77-6.5 4.77S83 66.36 83 63.73s2.86-5.23 7-5.23 6 2.59 6 5.23z" fill="#fff"/><path d="M110.36 39.81C109.86 34.34 109 33 108.1 28a1.09 1.09 0 00-.58-.78L84.76 15.65a1 1 0 00-.63-.11l-22.37 2.81h-10.3a1.09 1.09 0 00-.81 1.81 1.08 1.08 0 01-.24 1.64c-2 1.21-5.73 4.39-3.93 10.72a1.17 1.17 0 00.09.24c.44.8-.73 4.45.47 17.23a1.37 1.37 0 002.71.15C51.86 40 59.39 28.4 63.82 24.42a1.06 1.06 0 01.92-.23l39.75 5.43a1.08 1.08 0 01.51.26c.54.51 1.72 5.17 2.76 10.3a1.31 1.31 0 002.6-.37z" fill="#d1a44a"/><path d="M79.59 35.32C77 35.15 56.68 31.58 51 21.5c0 0 6-17 23-20 0 0 10.46-1.7 23.2 7.7.37.28 5.86 6.35 6.12 6.73 1.92 2.73 6.2 9.82 11.94 11.87a.3.3 0 01-.06.58c-5 .54-21 2-29.24-.84l9.36 5.22a.2.2 0 01-.1.38c-4.14-.39-20.88-2-23.17-3.79l7.6 5.79a.1.1 0 01-.06.18z" fill="#ddae47"/><g stroke-miterlimit="10"><rect fill="#f9d0a7" height="16" rx="8" stroke="#000" stroke-width="2" width="20" x="90" y="35.5"/><rect fill="#f9d0a7" height="16" rx="8" stroke="#000" stroke-width="2" width="20" x="65" y="35.5"/><path d="M85 43.5h5" fill="none" stroke="#000" stroke-width="2"/><path d="M65.5 44l18.5-.5M91 44h18" stroke="#b79274"/></g></symbol>
<symbol id="i-facing-left" viewBox="0 0 157 180" xmlns="http://www.w3.org/2000/svg"><path d="M99.81 173h-14v-40h14z" fill="#1b1464"/><path d="M100.31 173.5h-30v-13h30z" fill="#8c6239"/><path d="M74.81 173h-14v-39h14z" fill="#1b1464"/><path d="M74.81 173h-29v-13h29z" fill="#8c6239"/><path d="M60.82 92v44h39V91c6.5 17.5-2.5 41.5-2.5 41.5l15 5c18-56-12.5-63.5-12.5-63.5h-35l-5 1-3.5.5s-1 38-20 42l9 10s18-1 15.5-35.5" fill="#fff"/><circle cx="103.82" cy="137" fill="#f9d0a7" r="9.5"/><circle cx="35.82" cy="127" fill="#f9d0a7" r="9.5"/><path d="M85.33 74l-4.52 10h-5l-6-10z" fill="#006837"/><path d="M80.82 84l3 41-5.59 7.34a.53.53 0 01-.88 0L72.82 125l3-41z" fill="#009245"/><path d="M85.82 74l-4.42 8.07a.79.79 0 001.16.91l15.71-9zM75.24 82l-4.92-8h-9.5l14 8.42a.32.32 0 00.42-.42z" fill="#e6e6e6"/><ellipse cx="79.71" cy="44.64" fill="#f9d0a7" rx="32.39" ry="32.14"/><circle cx="110.37" cy="51.28" fill="#f9d0a7" r="6.45"/><path d="M61.32 63.73c0 2.63 3.35 4.77 7.5 4.77s7.5-2.14 7.5-4.77-3.86-1.23-8-1.23-7-1.41-7 1.23z" fill="#fff"/><path d="M48 39.81c.46-5.47 1.31-6.81 2.22-11.81a1.07 1.07 0 01.57-.78l22.76-11.57a1.07 1.07 0 01.63-.11l22.37 2.81h10.3a1.09 1.09 0 01.82 1.81 1.08 1.08 0 00.23 1.64c2 1.21 5.74 4.39 3.94 10.72a1.22 1.22 0 01-.1.24c-.43.8.73 4.45-.47 17.23a1.37 1.37 0 01-2.7.15C106.46 40 98.93 28.4 94.5 24.42a1.07 1.07 0 00-.93-.23l-39.74 5.43a1.08 1.08 0 00-.51.26c-.54.51-1.72 5.17-2.77 10.3a1.31 1.31 0 01-2.55-.37z" fill="#d1a44a"/><path d="M78.73 35.32c2.59-.17 22.9-3.74 28.59-13.82 0 0-6-17-23-20 0 0-10.47-1.7-23.21 7.7-.37.28-5.85 6.35-6.12 6.73-1.91 2.73-6.19 9.82-11.93 11.87a.3.3 0 00.06.58c5 .54 21 2 29.23-.84L63 32.76a.2.2 0 00.11.38c4.13-.39 20.88-2 23.17-3.79l-7.61 5.79a.1.1 0 00.06.18z" fill="#ddae47"/><g stroke="#000" stroke-miterlimit="10" stroke-width="2"><rect fill="#fff" height="16" rx="8" width="20" x="75" y="35.5"/><rect fill="#fff" height="16" rx="8" width="20" x="50" y="35.5"/><path d="M70 43.5h5" fill="none"/></g><circle cx="56.5" cy="43" r="1.5"/><circle cx="80.5" cy="43" r="1.5"/></symbol>
<symbol id="i-facing-left-blink" viewBox="0 0 157 180" xmlns="http://www.w3.org/2000/svg"><path d="M99.81 173h-14v-40h14z" fill="#1b1464"/><path d="M100.31 173.5h-30v-13h30z" fill="#8c6239"/><path d="M74.81 173h-14v-39h14z" fill="#1b1464"/><path d="M74.81 173h-29v-13h29z" fill="#8c6239"/><path d="M60.82 92v44h39V91c6.5 17.5-2.5 41.5-2.5 41.5l15 5c18-56-12.5-63.5-12.5-63.5h-35l-5 1-3.5.5s-1 38-20 42l9 10s18-1 15.5-35.5" fill="#fff"/><circle cx="103.82" cy="137" fill="#f9d0a7" r="9.5"/><circle cx="35.82" cy="127" fill="#f9d0a7" r="9.5"/><path d="M85.33 74l-4.52 10h-5l-6-10z" fill="#006837"/><path d="M80.82 84l3 41-5.59 7.34a.53.53 0 01-.88 0L72.82 125l3-41z" fill="#009245"/><path d="M85.82 74l-4.42 8.07a.79.79 0 001.16.91l15.71-9zM75.24 82l-4.92-8h-9.5l14 8.42a.32.32 0 00.42-.42z" fill="#e6e6e6"/><ellipse cx="79.71" cy="44.64" fill="#f9d0a7" rx="32.39" ry="32.14"/><circle cx="110.37" cy="51.28" fill="#f9d0a7" r="6.45"/><path d="M61.32 63.73c0 2.63 3.35 4.77 7.5 4.77s7.5-2.14 7.5-4.77-3.86-1.23-8-1.23-7-1.41-7 1.23z" fill="#fff"/><path d="M48 39.81c.46-5.47 1.31-6.81 2.22-11.81a1.07 1.07 0 01.57-.78l22.76-11.57a1.07 1.07 0 01.63-.11l22.37 2.81h10.3a1.09 1.09 0 01.82 1.81 1.08 1.08 0 00.23 1.64c2 1.21 5.74 4.39 3.94 10.72a1.22 1.22 0 01-.1.24c-.43.8.73 4.45-.47 17.23a1.37 1.37 0 01-2.7.15C106.46 40 98.93 28.4 94.5 24.42a1.07 1.07 0 00-.93-.23l-39.74 5.43a1.08 1.08 0 00-.51.26c-.54.51-1.72 5.17-2.77 10.3a1.31 1.31 0 01-2.55-.37z" fill="#d1a44a"/><path d="M78.73 35.32c2.59-.17 22.9-3.74 28.59-13.82 0 0-6-17-23-20 0 0-10.47-1.7-23.21 7.7-.37.28-5.85 6.35-6.12 6.73-1.91 2.73-6.19 9.82-11.93 11.87a.3.3 0 00.06.58c5 .54 21 2 29.23-.84L63 32.76a.2.2 0 00.11.38c4.13-.39 20.88-2 23.17-3.79l-7.61 5.79a.1.1 0 00.06.18z" fill="#ddae47"/><g stroke-miterlimit="10"><rect fill="#f9d0a7" height="16" rx="8" stroke="#000" stroke-width="2" width="20" x="75" y="35.5"/><rect fill="#f9d0a7" height="16" rx="8" stroke="#000" stroke-width="2" width="20" x="50" y="35.5"/><path d="M70 43.5h5" fill="none" stroke="#000" stroke-width="2"/><path d="M50.5 44l18.5-.5M76 44h18" stroke="#b79274"/></g><path d="M50 43.27a5.7 5.7 0 00.2 1.49.64.64 0 00.13.26.44.44 0 00.66-.13 1.23 1.23 0 00.14-.76 1.86 1.86 0 00-.1-.7.7.7 0 00-.51-.45.46.46 0 00-.51.51"/></symbol>
<symbol id="i-facing-right" viewBox="0 0 157 180" xmlns="http://www.w3.org/2000/svg"><path d="M58.5 133h14v40h-14z" fill="#1b1464"/><path d="M58 160.5h30v13H58z" fill="#8c6239"/><path d="M83.5 134h14v39h-14z" fill="#1b1464"/><path d="M83.5 160h29v13h-29z" fill="#8c6239"/><path d="M97.5 92v44h-39V91C52 108.5 61 132.5 61 132.5l-15 5C28 81.5 58.5 74 58.5 74h35l5 1 3.5.5s1 38 20 42l-9 10s-18-1-15.5-35.5" fill="#fff"/><circle cx="54.5" cy="137" fill="#f9d0a7" r="9.5"/><circle cx="122.5" cy="127" fill="#f9d0a7" r="9.5"/><path d="M72.99 74l4.51 10h5l6-10z" fill="#006837"/><path d="M77.5 84l-3 41 5.59 7.34a.53.53 0 00.88 0L85.5 125l-3-41z" fill="#009245"/><path d="M72.5 74l4.42 8.07a.8.8 0 01-1.17.91l-15.7-9zM83.07 82L88 74h9.5l-14 8.42a.32.32 0 01-.43-.42z" fill="#e6e6e6"/><ellipse cx="78.61" cy="44.64" fill="#f9d0a7" rx="32.39" ry="32.14"/><circle cx="47.95" cy="51.28" fill="#f9d0a7" r="6.45"/><path d="M97 63.73c0 2.63-3.36 4.77-7.5 4.77S82 66.36 82 63.73s3.86-1.23 8-1.23 7-1.41 7 1.23z" fill="#fff"/><path d="M110.36 39.81C109.86 34.34 109 33 108.1 28a1.09 1.09 0 00-.58-.78L84.76 15.65a1 1 0 00-.63-.11l-22.37 2.81h-10.3a1.09 1.09 0 00-.81 1.81 1.08 1.08 0 01-.24 1.64c-2 1.21-5.73 4.39-3.93 10.72a1.17 1.17 0 00.09.24c.44.8-.73 4.45.47 17.23a1.37 1.37 0 002.71.15C51.86 40 59.39 28.4 63.82 24.42a1.06 1.06 0 01.92-.23l39.75 5.43a1.08 1.08 0 01.51.26c.54.51 1.72 5.17 2.76 10.3a1.31 1.31 0 002.6-.37z" fill="#d1a44a"/><path d="M79.59 35.32C77 35.15 56.68 31.58 51 21.5c0 0 6-17 23-20 0 0 10.46-1.7 23.2 7.7.37.28 5.86 6.35 6.12 6.73 1.92 2.73 6.2 9.82 11.94 11.87a.3.3 0 01-.06.58c-5 .54-21 2-29.24-.84l9.36 5.22a.2.2 0 01-.1.38c-4.14-.39-20.88-2-23.17-3.79l7.6 5.79a.1.1 0 01-.06.18z" fill="#ddae47"/><g stroke="#000" stroke-miterlimit="10" stroke-width="2"><rect fill="#fff" height="16" rx="8" width="20" x="90" y="35.5"/><rect fill="#fff" height="16" rx="8" width="20" x="65" y="35.5"/><path d="M85 43.5h5" fill="none"/></g><circle cx="78.5" cy="43" r="1.5"/><circle cx="102.5" cy="43" r="1.5"/></symbol>
<symbol id="i-facing-right-blink" viewBox="0 0 157 180" xmlns="http://www.w3.org/2000/svg"><path d="M58.5 133h14v40h-14z" fill="#1b1464"/><path d="M58 160.5h30v13H58z" fill="#8c6239"/><path d="M83.5 134h14v39h-14z" fill="#1b1464"/><path d="M83.5 160h29v13h-29z" fill="#8c6239"/><path d="M97.5 92v44h-39V91C52 108.5 61 132.5 61 132.5l-15 5C28 81.5 58.5 74 58.5 74h35l5 1 3.5.5s1 38 20 42l-9 10s-18-1-15.5-35.5" fill="#fff"/><circle cx="54.5" cy="137" fill="#f9d0a7" r="9.5"/><circle cx="122.5" cy="127" fill="#f9d0a7" r="9.5"/><path d="M72.99 74l4.51 10h5l6-10z" fill="#006837"/><path d="M77.5 84l-3 41 5.59 7.34a.53.53 0 00.88 0L85.5 125l-3-41z" fill="#009245"/><path d="M72.5 74l4.42 8.07a.8.8 0 01-1.17.91l-15.7-9zM83.07 82L88 74h9.5l-14 8.42a.32.32 0 01-.43-.42z" fill="#e6e6e6"/><ellipse cx="78.61" cy="44.64" fill="#f9d0a7" rx="32.39" ry="32.14"/><circle cx="47.95" cy="51.28" fill="#f9d0a7" r="6.45"/><path d="M97 63.73c0 2.63-3.36 4.77-7.5 4.77S82 66.36 82 63.73s3.86-1.23 8-1.23 7-1.41 7 1.23z" fill="#fff"/><path d="M110.36 39.81C109.86 34.34 109 33 108.1 28a1.09 1.09 0 00-.58-.78L84.76 15.65a1 1 0 00-.63-.11l-22.37 2.81h-10.3a1.09 1.09 0 00-.81 1.81 1.08 1.08 0 01-.24 1.64c-2 1.21-5.73 4.39-3.93 10.72a1.17 1.17 0 00.09.24c.44.8-.73 4.45.47 17.23a1.37 1.37 0 002.71.15C51.86 40 59.39 28.4 63.82 24.42a1.06 1.06 0 01.92-.23l39.75 5.43a1.08 1.08 0 01.51.26c.54.51 1.72 5.17 2.76 10.3a1.31 1.31 0 002.6-.37z" fill="#d1a44a"/><path d="M79.59 35.32C77 35.15 56.68 31.58 51 21.5c0 0 6-17 23-20 0 0 10.46-1.7 23.2 7.7.37.28 5.86 6.35 6.12 6.73 1.92 2.73 6.2 9.82 11.94 11.87a.3.3 0 01-.06.58c-5 .54-21 2-29.24-.84l9.36 5.22a.2.2 0 01-.1.38c-4.14-.39-20.88-2-23.17-3.79l7.6 5.79a.1.1 0 01-.06.18z" fill="#ddae47"/><g stroke-miterlimit="10"><rect fill="#f9d0a7" height="16" rx="8" stroke="#000" stroke-width="2" width="20" x="89" y="35.5"/><rect fill="#f9d0a7" height="16" rx="8" stroke="#000" stroke-width="2" width="20" x="64" y="35.5"/><path d="M84 43.5h5" fill="none" stroke="#000" stroke-width="2"/><path d="M64.5 44l18.5-.5M90 44h18" stroke="#b79274"/></g><path d="M64 43.27a5.7 5.7 0 00.2 1.49.64.64 0 00.13.26.44.44 0 00.66-.13 1.23 1.23 0 00.14-.76 1.86 1.86 0 00-.1-.7.7.7 0 00-.51-.45.46.46 0 00-.51.51"/></symbol>
<symbol id="i-jumping-left" viewBox="0 0 157 180" xmlns="http://www.w3.org/2000/svg"><path d="M122.41 147.02l.08-14-45.44 1.15-.61 13.02z" fill="#1b1464"/><path d="M122.568 117.018l-.168 30-13-.074.168-29.999z" fill="#8c6239"/><path d="M30.51 133.72l-.92 13.97L78 147.5l1-13z" fill="#1b1464"/><path d="M29.594 147.677l1.902-28.938 12.972.853-1.902 28.937z" fill="#8c6239"/><path d="M58.5 92v44h39V91C115 70.5 141 78.5 141 78.5l5-13A44.49 44.49 0 0097.5 74l-31.5.5h-8s-11-15-46-10l6 14s23-2 40.5 13.5" fill="#fff"/><circle cx="147.5" cy="74" fill="#f9d0a7" r="9.5"/><circle cx="9.5" cy="73" fill="#f9d0a7" r="9.5"/><path d="M83.01 74L78.5 84h-5l-6-10z" fill="#006837"/><path d="M78.5 84l3 41-5.59 7.34a.53.53 0 01-.88 0L70.5 125l3-41z" fill="#009245"/><path d="M83.5 74l-4.42 8.07a.8.8 0 001.17.91L96 74zM72.93 82L68 74h-9.5l14 8.42a.32.32 0 00.43-.42z" fill="#e6e6e6"/><ellipse cx="77.39" cy="44.64" fill="#f9d0a7" rx="32.39" ry="32.14"/><circle cx="108.05" cy="51.28" fill="#f9d0a7" r="6.45"/><path d="M59 63.73c0 2.63 3.36 4.77 7.5 4.77s7.5-2.14 7.5-4.77-3.86-1.23-8-1.23-7-1.41-7 1.23z" fill="#fff"/><path d="M45.64 39.81C46.14 34.34 47 33 47.9 28a1.09 1.09 0 01.58-.78l22.76-11.57a1 1 0 01.63-.11l22.37 2.81h10.3a1.09 1.09 0 01.81 1.81 1.08 1.08 0 00.24 1.64c2 1.21 5.73 4.39 3.93 10.72a1.17 1.17 0 01-.09.24c-.44.8.73 4.45-.47 17.23a1.37 1.37 0 01-2.71.15C104.14 40 96.61 28.4 92.18 24.42a1.06 1.06 0 00-.92-.23l-39.75 5.43a1.08 1.08 0 00-.51.26c-.54.51-1.72 5.17-2.76 10.3a1.31 1.31 0 01-2.6-.37z" fill="#d1a44a"/><path d="M76.41 35.32C79 35.15 99.32 31.58 105 21.5c0 0-6-17-23-20 0 0-10.46-1.7-23.2 7.7-.37.28-5.86 6.35-6.12 6.73-1.92 2.73-6.2 9.82-11.94 11.87a.3.3 0 00.06.58c5 .54 21 2 29.24-.84l-9.36 5.22a.2.2 0 00.1.38c4.14-.39 20.88-2 23.17-3.79l-7.6 5.79a.1.1 0 00.06.18z" fill="#ddae47"/><g stroke="#000" stroke-miterlimit="10" stroke-width="2"><rect fill="#fff" height="16" rx="8" width="20" x="73" y="35.5"/><rect fill="#fff" height="16" rx="8" width="20" x="48" y="35.5"/><path d="M68 43.5h5" fill="none"/></g><circle cx="54.5" cy="43" r="1.5"/><circle cx="78.5" cy="43" r="1.5"/></symbol>
<symbol id="i-jumping-left-blink" viewBox="0 0 157 180" xmlns="http://www.w3.org/2000/svg"><path d="M122.41 147.02l.08-14-45.44 1.15-.61 13.02z" fill="#1b1464"/><path d="M122.568 117.018l-.168 30-13-.074.168-29.999z" fill="#8c6239"/><path d="M30.51 133.72l-.92 13.97L78 147.5l1-13z" fill="#1b1464"/><path d="M29.594 147.677l1.902-28.938 12.972.853-1.902 28.937z" fill="#8c6239"/><path d="M58.5 92v44h39V91C115 70.5 141 78.5 141 78.5l5-13A44.49 44.49 0 0097.5 74l-31.5.5h-8s-11-15-46-10l6 14s23-2 40.5 13.5" fill="#fff"/><circle cx="147.5" cy="74" fill="#f9d0a7" r="9.5"/><circle cx="9.5" cy="73" fill="#f9d0a7" r="9.5"/><path d="M83.01 74L78.5 84h-5l-6-10z" fill="#006837"/><path d="M78.5 84l3 41-5.59 7.34a.53.53 0 01-.88 0L70.5 125l3-41z" fill="#009245"/><path d="M83.5 74l-4.42 8.07a.8.8 0 001.17.91L96 74zM72.93 82L68 74h-9.5l14 8.42a.32.32 0 00.43-.42z" fill="#e6e6e6"/><ellipse cx="77.39" cy="44.64" fill="#f9d0a7" rx="32.39" ry="32.14"/><circle cx="108.05" cy="51.28" fill="#f9d0a7" r="6.45"/><path d="M59 63.73c0 2.63 3.36 4.77 7.5 4.77s7.5-2.14 7.5-4.77-3.86-1.23-8-1.23-7-1.41-7 1.23z" fill="#fff"/><path d="M45.64 39.81C46.14 34.34 47 33 47.9 28a1.09 1.09 0 01.58-.78l22.76-11.57a1 1 0 01.63-.11l22.37 2.81h10.3a1.09 1.09 0 01.81 1.81 1.08 1.08 0 00.24 1.64c2 1.21 5.73 4.39 3.93 10.72a1.17 1.17 0 01-.09.24c-.44.8.73 4.45-.47 17.23a1.37 1.37 0 01-2.71.15C104.14 40 96.61 28.4 92.18 24.42a1.06 1.06 0 00-.92-.23l-39.75 5.43a1.08 1.08 0 00-.51.26c-.54.51-1.72 5.17-2.76 10.3a1.31 1.31 0 01-2.6-.37z" fill="#d1a44a"/><path d="M76.41 35.32C79 35.15 99.32 31.58 105 21.5c0 0-6-17-23-20 0 0-10.46-1.7-23.2 7.7-.37.28-5.86 6.35-6.12 6.73-1.92 2.73-6.2 9.82-11.94 11.87a.3.3 0 00.06.58c5 .54 21 2 29.24-.84l-9.36 5.22a.2.2 0 00.1.38c4.14-.39 20.88-2 23.17-3.79l-7.6 5.79a.1.1 0 00.06.18z" fill="#ddae47"/><g stroke-miterlimit="10"><rect fill="#f9d0a7" height="16" rx="8" stroke="#000" stroke-width="2" width="20" x="72" y="35.5"/><rect fill="#f9d0a7" height="16" rx="8" stroke="#000" stroke-width="2" width="20" x="47" y="35.5"/><path d="M67 43.5h5" fill="none" stroke="#000" stroke-width="2"/><path d="M47.5 44l18.5-.5M73 44h18" stroke="#b79274"/></g><path d="M47 43.27a5.7 5.7 0 00.2 1.49.64.64 0 00.13.26.44.44 0 00.66-.13 1.23 1.23 0 00.14-.76 1.86 1.86 0 00-.1-.7.7.7 0 00-.51-.45.46.46 0 00-.51.51"/></symbol>
<symbol id="i-jumping-right" viewBox="0 0 157 180" xmlns="http://www.w3.org/2000/svg"><path d="M34.59 146.02l-.08-14 45.44 1.15.61 13.02z" fill="#1b1464"/><path d="M47.417 115.955l.168 30-13 .072-.168-30z" fill="#8c6239"/><path d="M126.49 132.72l.92 13.97L79 146.5l-1-13z" fill="#1b1464"/><path d="M114.442 147.544l-1.902-28.937 12.972-.853 1.902 28.938z" fill="#8c6239"/><path d="M98.5 91v44h-39V90C42 69.5 16 77.5 16 77.5l-5-13A44.49 44.49 0 0159.5 73l31.5.5h8s11-15 46-10l-6 14s-23-2-40.5 13.5" fill="#fff"/><circle cx="9.5" cy="73" fill="#f9d0a7" r="9.5"/><circle cx="147.5" cy="72" fill="#f9d0a7" r="9.5"/><path d="M73.99 73l4.51 10h5l6-10z" fill="#006837"/><path d="M78.5 83l-3 41 5.59 7.34a.53.53 0 00.88 0L86.5 124l-3-41z" fill="#009245"/><path d="M73.5 73l4.42 8.07a.8.8 0 01-1.17.91l-15.7-9zM84.07 81L89 73h9.5l-14 8.42a.32.32 0 01-.43-.42z" fill="#e6e6e6"/><ellipse cx="79.61" cy="43.64" fill="#f9d0a7" rx="32.39" ry="32.14"/><circle cx="48.95" cy="50.28" fill="#f9d0a7" r="6.45"/><path d="M98 62.73c0 2.63-3.36 4.77-7.5 4.77S83 65.36 83 62.73s3.86-1.23 8-1.23 7-1.41 7 1.23z" fill="#fff"/><path d="M111.36 38.81C110.86 33.34 110 32 109.1 27a1.09 1.09 0 00-.58-.78L85.76 14.65a1 1 0 00-.63-.11l-22.37 2.81h-10.3a1.09 1.09 0 00-.81 1.81 1.08 1.08 0 01-.24 1.64c-2 1.21-5.73 4.39-3.93 10.72a1.17 1.17 0 00.09.24c.44.8-.73 4.45.47 17.23a1.37 1.37 0 002.71.15C52.86 39 60.39 27.4 64.82 23.42a1.06 1.06 0 01.92-.23l39.75 5.43a1.08 1.08 0 01.51.26c.54.51 1.72 5.17 2.76 10.3a1.31 1.31 0 002.6-.37z" fill="#d1a44a"/><path d="M80.59 34.32C78 34.15 57.68 30.58 52 20.5c0 0 6-17 23-20 0 0 10.46-1.7 23.2 7.7.37.28 5.86 6.35 6.12 6.73 1.92 2.73 6.2 9.82 11.94 11.87a.3.3 0 01-.06.58c-5 .54-21 2-29.24-.84l9.36 5.22a.2.2 0 01-.1.38c-4.14-.39-20.88-2-23.17-3.79l7.6 5.79a.1.1 0 01-.06.18z" fill="#ddae47"/><g stroke="#000" stroke-miterlimit="10" stroke-width="2"><rect fill="#fff" height="16" rx="8" width="20" x="91" y="34.5"/><rect fill="#fff" height="16" rx="8" width="20" x="66" y="34.5"/><path d="M86 42.5h5" fill="none"/></g><circle cx="79.5" cy="42" r="1.5"/><circle cx="103.5" cy="42" r="1.5"/></symbol>
<symbol id="i-jumping-right-blink" viewBox="0 0 157 180" xmlns="http://www.w3.org/2000/svg"><path d="M34.59 146.02l-.08-14 45.44 1.15.61 13.02z" fill="#1b1464"/><path d="M47.417 115.955l.168 30-13 .072-.168-30z" fill="#8c6239"/><path d="M126.49 132.72l.92 13.97L79 146.5l-1-13z" fill="#1b1464"/><path d="M114.442 147.544l-1.902-28.937 12.972-.853 1.902 28.938z" fill="#8c6239"/><path d="M98.5 91v44h-39V90C42 69.5 16 77.5 16 77.5l-5-13A44.49 44.49 0 0159.5 73l31.5.5h8s11-15 46-10l-6 14s-23-2-40.5 13.5" fill="#fff"/><circle cx="9.5" cy="73" fill="#f9d0a7" r="9.5"/><circle cx="147.5" cy="72" fill="#f9d0a7" r="9.5"/><path d="M73.99 73l4.51 10h5l6-10z" fill="#006837"/><path d="M78.5 83l-3 41 5.59 7.34a.53.53 0 00.88 0L86.5 124l-3-41z" fill="#009245"/><path d="M73.5 73l4.42 8.07a.8.8 0 01-1.17.91l-15.7-9zM84.07 81L89 73h9.5l-14 8.42a.32.32 0 01-.43-.42z" fill="#e6e6e6"/><ellipse cx="79.61" cy="43.64" fill="#f9d0a7" rx="32.39" ry="32.14"/><circle cx="48.95" cy="50.28" fill="#f9d0a7" r="6.45"/><path d="M98 62.73c0 2.63-3.36 4.77-7.5 4.77S83 65.36 83 62.73s3.86-1.23 8-1.23 7-1.41 7 1.23z" fill="#fff"/><path d="M111.36 38.81C110.86 33.34 110 32 109.1 27a1.09 1.09 0 00-.58-.78L85.76 14.65a1 1 0 00-.63-.11l-22.37 2.81h-10.3a1.09 1.09 0 00-.81 1.81 1.08 1.08 0 01-.24 1.64c-2 1.21-5.73 4.39-3.93 10.72a1.17 1.17 0 00.09.24c.44.8-.73 4.45.47 17.23a1.37 1.37 0 002.71.15C52.86 39 60.39 27.4 64.82 23.42a1.06 1.06 0 01.92-.23l39.75 5.43a1.08 1.08 0 01.51.26c.54.51 1.72 5.17 2.76 10.3a1.31 1.31 0 002.6-.37z" fill="#d1a44a"/><path d="M80.59 34.32C78 34.15 57.68 30.58 52 20.5c0 0 6-17 23-20 0 0 10.46-1.7 23.2 7.7.37.28 5.86 6.35 6.12 6.73 1.92 2.73 6.2 9.82 11.94 11.87a.3.3 0 01-.06.58c-5 .54-21 2-29.24-.84l9.36 5.22a.2.2 0 01-.1.38c-4.14-.39-20.88-2-23.17-3.79l7.6 5.79a.1.1 0 01-.06.18z" fill="#ddae47"/><g stroke-miterlimit="10"><rect fill="#f9d0a7" height="16" rx="8" stroke="#000" stroke-width="2" width="20" x="90" y="34.5"/><rect fill="#f9d0a7" height="16" rx="8" stroke="#000" stroke-width="2" width="20" x="65" y="34.5"/><path d="M85 42.5h5" fill="none" stroke="#000" stroke-width="2"/><path d="M65.5 43l18.5-.5M91 43h18" stroke="#b79274"/></g><path d="M65 42.27a5.7 5.7 0 00.2 1.49.64.64 0 00.13.26.44.44 0 00.66-.13 1.23 1.23 0 00.14-.76 1.86 1.86 0 00-.1-.7.7.7 0 00-.51-.45.46.46 0 00-.51.51"/></symbol>
<symbol id="i-jumpingpeak-left" viewBox="0 0 157 180" xmlns="http://www.w3.org/2000/svg"><path d="M122.41 147.02l.08-14-45.44 1.15-.61 13.02z" fill="#1b1464"/><path d="M122.568 117.018l-.168 30-13-.074.168-29.999z" fill="#8c6239"/><path d="M30.51 133.72l-.92 13.97L78 147.5l1-13z" fill="#1b1464"/><path d="M29.594 147.677l1.902-28.938 12.972.853-1.902 28.937z" fill="#8c6239"/><path d="M58.5 92v44h39V91C115 70.5 141 78.5 141 78.5l5-13A44.49 44.49 0 0097.5 74l-31.5.5h-8s-11-15-46-10l6 14s23-2 40.5 13.5" fill="#fff"/><g fill="#f9d0a7"><circle cx="147.5" cy="74" r="9.5"/><circle cx="9.5" cy="73" r="9.5"/><ellipse cx="77.39" cy="44.64" rx="32.39" ry="32.14"/><circle cx="108.05" cy="51.28" r="6.45"/></g><path d="M59 63.73c0 2.63 3.36 4.77 7.5 4.77s7.5-2.14 7.5-4.77-3.86-1.23-8-1.23-7-1.41-7 1.23z" fill="#fff"/><path d="M45.64 39.81C46.14 34.34 47 33 47.9 28a1.09 1.09 0 01.58-.78l22.76-11.57a1 1 0 01.63-.11l22.37 2.81h10.3a1.09 1.09 0 01.81 1.81 1.08 1.08 0 00.24 1.64c2 1.21 5.73 4.39 3.93 10.72a1.17 1.17 0 01-.09.24c-.44.8.73 4.45-.47 17.23a1.37 1.37 0 01-2.71.15C104.14 40 96.61 28.4 92.18 24.42a1.06 1.06 0 00-.92-.23l-39.75 5.43a1.08 1.08 0 00-.51.26c-.54.51-1.72 5.17-2.76 10.3a1.31 1.31 0 01-2.6-.37z" fill="#d1a44a"/><path d="M76.41 35.32C79 35.15 99.32 31.58 105 21.5c0 0-6-17-23-20 0 0-10.46-1.7-23.2 7.7-.37.28-5.86 6.35-6.12 6.73-1.92 2.73-6.2 9.82-11.94 11.87a.3.3 0 00.06.58c5 .54 21 2 29.24-.84l-9.36 5.22a.2.2 0 00.1.38c4.14-.39 20.88-2 23.17-3.79l-7.6 5.79a.1.1 0 00.06.18z" fill="#ddae47"/><path d="M83.01 74.5l-4.51 10h-5l-6-10z" fill="#006837"/><path d="M83.5 74.5l-4.42 8.07a.8.8 0 001.17.91L98 73.5zM72.93 82.48L68 74.5h-9.5l14 8.42a.32.32 0 00.43-.44z" fill="#e6e6e6"/><path d="M78.5 84.5L117 51l-.09-8.16c-.1.16-.74.15-.91.16-.46 0-.44.12-.86.34L108 47 73.5 84.5z" fill="#009245"/><rect fill="#fff" height="16" rx="8" stroke="#000" stroke-miterlimit="10" stroke-width="2" width="20" x="73" y="35.5"/><rect fill="#fff" height="16" rx="8" stroke="#000" stroke-miterlimit="10" stroke-width="2" width="20" x="48" y="35.5"/><path d="M68 43.5h5" fill="none" stroke="#000" stroke-miterlimit="10" stroke-width="2"/><circle cx="54.5" cy="43" r="1.5"/><circle cx="78.5" cy="43" r="1.5"/></symbol>
<symbol id="i-jumpingpeak-left-blink" viewBox="0 0 157 180" xmlns="http://www.w3.org/2000/svg"><path d="M122.41 147.02l.08-14-45.44 1.15-.61 13.02z" fill="#1b1464"/><path d="M122.568 117.018l-.168 30-13-.074.168-29.999z" fill="#8c6239"/><path d="M30.51 133.72l-.92 13.97L78 147.5l1-13z" fill="#1b1464"/><path d="M29.594 147.677l1.902-28.938 12.972.853-1.902 28.937z" fill="#8c6239"/><path d="M58.5 92v44h39V91C115 70.5 141 78.5 141 78.5l5-13A44.49 44.49 0 0097.5 74l-31.5.5h-8s-11-15-46-10l6 14s23-2 40.5 13.5" fill="#fff"/><circle cx="147.5" cy="74" fill="#f9d0a7" r="9.5"/><circle cx="9.5" cy="73" fill="#f9d0a7" r="9.5"/><ellipse cx="77.39" cy="44.64" fill="#f9d0a7" rx="32.39" ry="32.14"/><circle cx="108.05" cy="51.28" fill="#f9d0a7" r="6.45"/><path d="M59 63.73c0 2.63 3.36 4.77 7.5 4.77s7.5-2.14 7.5-4.77-3.86-1.23-8-1.23-7-1.41-7 1.23z" fill="#fff"/><path d="M45.64 39.81C46.14 34.34 47 33 47.9 28a1.09 1.09 0 01.58-.78l22.76-11.57a1 1 0 01.63-.11l22.37 2.81h10.3a1.09 1.09 0 01.81 1.81 1.08 1.08 0 00.24 1.64c2 1.21 5.73 4.39 3.93 10.72a1.17 1.17 0 01-.09.24c-.44.8.73 4.45-.47 17.23a1.37 1.37 0 01-2.71.15C104.14 40 96.61 28.4 92.18 24.42a1.06 1.06 0 00-.92-.23l-39.75 5.43a1.08 1.08 0 00-.51.26c-.54.51-1.72 5.17-2.76 10.3a1.31 1.31 0 01-2.6-.37z" fill="#d1a44a"/><path d="M76.41 35.32C79 35.15 99.32 31.58 105 21.5c0 0-6-17-23-20 0 0-10.46-1.7-23.2 7.7-.37.28-5.86 6.35-6.12 6.73-1.92 2.73-6.2 9.82-11.94 11.87a.3.3 0 00.06.58c5 .54 21 2 29.24-.84l-9.36 5.22a.2.2 0 00.1.38c4.14-.39 20.88-2 23.17-3.79l-7.6 5.79a.1.1 0 00.06.18z" fill="#ddae47"/><path d="M83.01 74.5l-4.51 10h-5l-6-10z" fill="#006837"/><path d="M83.5 74.5l-4.42 8.07a.8.8 0 001.17.91L98 73.5zM72.93 82.48L68 74.5h-9.5l14 8.42a.32.32 0 00.43-.44z" fill="#e6e6e6"/><path d="M78.5 84.5L117 51l-.09-8.16c-.1.16-.74.15-.91.16-.46 0-.44.12-.86.34L108 47 73.5 84.5z" fill="#009245"/><g stroke-miterlimit="10"><rect fill="#f9d0a7" height="16" rx="8" stroke="#000" stroke-width="2" width="20" x="72" y="35.5"/><rect fill="#f9d0a7" height="16" rx="8" stroke="#000" stroke-width="2" width="20" x="47" y="35.5"/><path d="M67 43.5h5" fill="none" stroke="#000" stroke-width="2"/><path d="M47.5 44l18.5-.5M73 44h18" stroke="#b79274"/></g><path d="M47 43.27a5.7 5.7 0 00.2 1.49.64.64 0 00.13.26.44.44 0 00.66-.13 1.23 1.23 0 00.14-.76 1.86 1.86 0 00-.1-.7.7.7 0 00-.51-.45.46.46 0 00-.51.51"/></symbol>
<symbol id="i-jumpingpeak-right" viewBox="0 0 157 180" xmlns="http://www.w3.org/2000/svg"><path d="M34.59 147.02l-.08-14 45.44 1.15.61 13.02z" fill="#1b1464"/><path d="M47.417 116.95l.168 30-13 .073-.168-30z" fill="#8c6239"/><path d="M126.49 133.72l.92 13.97L79 147.5l-1-13z" fill="#1b1464"/><path d="M114.45 148.549l-1.902-28.938 12.972-.852 1.902 28.937z" fill="#8c6239"/><path d="M98.5 92v44h-39V91C42 70.5 16 78.5 16 78.5l-5-13A44.49 44.49 0 0159.5 74l31.5.5h8s11-15 46-10l-6 14s-23-2-40.5 13.5" fill="#fff"/><g fill="#f9d0a7"><circle cx="10.5" cy="74" r="9.5"/><circle cx="146.5" cy="73" r="9.5"/><ellipse cx="79.61" cy="44.64" rx="32.39" ry="32.14"/><circle cx="48.95" cy="51.28" r="6.45"/></g><path d="M98 63.73c0 2.63-3.36 4.77-7.5 4.77S83 66.36 83 63.73s3.86-1.23 8-1.23 7-1.41 7 1.23z" fill="#fff"/><path d="M111.36 39.81C110.86 34.34 110 33 109.1 28a1.09 1.09 0 00-.58-.78L85.76 15.65a1 1 0 00-.63-.11l-22.37 2.81h-10.3a1.09 1.09 0 00-.81 1.81 1.08 1.08 0 01-.24 1.64c-2 1.21-5.73 4.39-3.93 10.72a1.17 1.17 0 00.09.24c.44.8-.73 4.45.47 17.23a1.37 1.37 0 002.71.15C52.86 40 60.39 28.4 64.82 24.42a1.06 1.06 0 01.92-.23l39.75 5.43a1.08 1.08 0 01.51.26c.54.51 1.72 5.17 2.76 10.3a1.31 1.31 0 002.6-.37z" fill="#d1a44a"/><path d="M80.59 35.32C78 35.15 57.68 31.58 52 21.5c0 0 6-17 23-20 0 0 10.46-1.7 23.2 7.7.37.28 5.86 6.35 6.12 6.73 1.92 2.73 6.2 9.82 11.94 11.87a.3.3 0 01-.06.58c-5 .54-21 2-29.24-.84l9.36 5.22a.2.2 0 01-.1.38c-4.14-.39-20.88-2-23.17-3.79l7.6 5.79a.1.1 0 01-.06.18z" fill="#ddae47"/><rect fill="#fff" height="16" rx="8" stroke="#000" stroke-miterlimit="10" stroke-width="2" width="20" x="91" y="35.5"/><rect fill="#fff" height="16" rx="8" stroke="#000" stroke-miterlimit="10" stroke-width="2" width="20" x="66" y="35.5"/><path d="M86 43.5h5" fill="none" stroke="#000" stroke-miterlimit="10" stroke-width="2"/><circle cx="79.5" cy="43" r="1.5"/><circle cx="103.5" cy="43" r="1.5"/><path d="M73.49 74.5l4.51 10h5l6-10z" fill="#006837"/><path d="M73 74.5l4.42 8.07a.8.8 0 01-1.17.91l-15.7-9zM83.57 82.48l4.93-8H98l-14 8.44a.32.32 0 01-.43-.44z" fill="#e6e6e6"/><path d="M78 84.5L39.5 51l.09-8.16c.1.16.74.15.91.16.46 0 .44.12.86.34L48.5 47 83 84.5z" fill="#009245"/></symbol>
<symbol id="i-jumpingpeak-right-blink" viewBox="0 0 157 180" xmlns="http://www.w3.org/2000/svg"><path d="M34.59 147.02l-.08-14 45.44 1.15.61 13.02z" fill="#1b1464"/><path d="M47.417 116.95l.168 30-13 .073-.168-30z" fill="#8c6239"/><path d="M126.49 133.72l.92 13.97L79 147.5l-1-13z" fill="#1b1464"/><path d="M114.45 148.549l-1.902-28.938 12.972-.852 1.902 28.937z" fill="#8c6239"/><path d="M98.5 92v44h-39V91C42 70.5 16 78.5 16 78.5l-5-13A44.49 44.49 0 0159.5 74l31.5.5h8s11-15 46-10l-6 14s-23-2-40.5 13.5" fill="#fff"/><circle cx="10.5" cy="74" fill="#f9d0a7" r="9.5"/><circle cx="146.5" cy="73" fill="#f9d0a7" r="9.5"/><ellipse cx="79.61" cy="44.64" fill="#f9d0a7" rx="32.39" ry="32.14"/><circle cx="48.95" cy="51.28" fill="#f9d0a7" r="6.45"/><path d="M98 63.73c0 2.63-3.36 4.77-7.5 4.77S83 66.36 83 63.73s3.86-1.23 8-1.23 7-1.41 7 1.23z" fill="#fff"/><path d="M111.36 39.81C110.86 34.34 110 33 109.1 28a1.09 1.09 0 00-.58-.78L85.76 15.65a1 1 0 00-.63-.11l-22.37 2.81h-10.3a1.09 1.09 0 00-.81 1.81 1.08 1.08 0 01-.24 1.64c-2 1.21-5.73 4.39-3.93 10.72a1.17 1.17 0 00.09.24c.44.8-.73 4.45.47 17.23a1.37 1.37 0 002.71.15C52.86 40 60.39 28.4 64.82 24.42a1.06 1.06 0 01.92-.23l39.75 5.43a1.08 1.08 0 01.51.26c.54.51 1.72 5.17 2.76 10.3a1.31 1.31 0 002.6-.37z" fill="#d1a44a"/><path d="M80.59 35.32C78 35.15 57.68 31.58 52 21.5c0 0 6-17 23-20 0 0 10.46-1.7 23.2 7.7.37.28 5.86 6.35 6.12 6.73 1.92 2.73 6.2 9.82 11.94 11.87a.3.3 0 01-.06.58c-5 .54-21 2-29.24-.84l9.36 5.22a.2.2 0 01-.1.38c-4.14-.39-20.88-2-23.17-3.79l7.6 5.79a.1.1 0 01-.06.18z" fill="#ddae47"/><path d="M73.49 74.5l4.51 10h5l6-10z" fill="#006837"/><path d="M73 74.5l4.42 8.07a.8.8 0 01-1.17.91l-15.7-9zM83.57 82.48l4.93-8H98l-14 8.44a.32.32 0 01-.43-.44z" fill="#e6e6e6"/><path d="M78 84.5L39.5 51l.09-8.16c.1.16.74.15.91.16.46 0 .44.12.86.34L48.5 47 83 84.5z" fill="#009245"/><g stroke-miterlimit="10"><rect fill="#f9d0a7" height="16" rx="8" stroke="#000" stroke-width="2" width="20" x="90" y="35.5"/><rect fill="#f9d0a7" height="16" rx="8" stroke="#000" stroke-width="2" width="20" x="65" y="35.5"/><path d="M85 43.5h5" fill="none" stroke="#000" stroke-width="2"/><path d="M65.5 44l18.5-.5M91 44h18" stroke="#b79274"/></g><path d="M65 43.27a5.7 5.7 0 00.2 1.49.64.64 0 00.13.26.44.44 0 00.66-.13 1.23 1.23 0 00.14-.76 1.86 1.86 0 00-.1-.7.7.7 0 00-.51-.45.46.46 0 00-.51.51"/></symbol>
<symbol id="i-standing-left" viewBox="0 0 157 180" xmlns="http://www.w3.org/2000/svg"><path d="M92.5 173h-14v-40h14z" fill="#1b1464"/><path d="M108.5 173h-30v-13h30z" fill="#8c6239"/><path d="M67.5 173h-14v-39h14z" fill="#1b1464"/><path d="M67.5 173h-29v-13h29z" fill="#8c6239"/><path d="M53.5 92v44h39V91c21 8.53 21 28 21 28l15-3c-7-35-36-42-36-42h-35l-5 1S23.9 81 17 116l14.79 3s1-18.47 21.71-27" fill="#fff"/><circle cx="123" cy="123.5" fill="#f9d0a7" r="9.5"/><circle cx="23" cy="123.5" fill="#f9d0a7" r="9.5"/><path d="M78.01 74L73.5 84h-5l-6-10z" fill="#006837"/><path d="M73.5 84l3 41-5.59 7.34a.53.53 0 01-.88 0L65.5 125l3-41z" fill="#009245"/><path d="M78.5 74l-4.42 8.07a.8.8 0 001.17.91L91 74zM67.93 82L63 74h-9.5l14 8.42a.32.32 0 00.43-.42z" fill="#e6e6e6"/><ellipse cx="72.39" cy="44.64" fill="#f9d0a7" rx="32.39" ry="32.14"/><circle cx="103.05" cy="51.28" fill="#f9d0a7" r="6.45"/><path d="M54 63.73c0 2.63 3.36 4.77 7.5 4.77s7.5-2.14 7.5-4.77-3.86-1.23-8-1.23-7-1.41-7 1.23z" fill="#fff"/><path d="M40.64 39.81C41.14 34.34 42 33 42.9 28a1.09 1.09 0 01.58-.78l22.76-11.57a1 1 0 01.63-.11l22.37 2.81h10.3a1.09 1.09 0 01.81 1.81 1.08 1.08 0 00.24 1.64c2 1.21 5.73 4.39 3.93 10.72a1.17 1.17 0 01-.09.24c-.44.8.73 4.45-.47 17.23a1.37 1.37 0 01-2.71.15C99.14 40 91.61 28.4 87.18 24.42a1.06 1.06 0 00-.92-.23l-39.75 5.43a1.08 1.08 0 00-.51.26c-.54.51-1.72 5.17-2.76 10.3a1.31 1.31 0 01-2.6-.37z" fill="#d1a44a"/><path d="M71.41 35.32C74 35.15 94.32 31.58 100 21.5c0 0-6-17-23-20 0 0-10.46-1.7-23.2 7.7-.37.28-5.86 6.35-6.12 6.73-1.92 2.73-6.2 9.82-11.94 11.87a.3.3 0 00.06.58c5 .54 21 2 29.24-.84l-9.36 5.22a.2.2 0 00.1.38c4.14-.39 20.88-2 23.17-3.79l-7.6 5.79a.1.1 0 00.06.18z" fill="#ddae47"/><g stroke="#000" stroke-miterlimit="10" stroke-width="2"><rect fill="#fff" height="16" rx="8" width="20" x="67" y="35.5"/><rect fill="#fff" height="16" rx="8" width="20" x="42" y="35.5"/><path d="M62 43.5h5" fill="none"/></g><circle cx="48.5" cy="43" r="1.5"/><circle cx="72.5" cy="43" r="1.5"/></symbol>
<symbol id="i-standing-left-blink" viewBox="0 0 157 180" xmlns="http://www.w3.org/2000/svg"><path d="M92.5 173h-14v-40h14z" fill="#1b1464"/><path d="M108.5 173h-30v-13h30z" fill="#8c6239"/><path d="M67.5 173h-14v-39h14z" fill="#1b1464"/><path d="M67.5 173h-29v-13h29z" fill="#8c6239"/><path d="M53.5 92v44h39V91c21 8.53 21 28 21 28l15-3c-7-35-36-42-36-42h-35l-5 1S23.9 81 17 116l14.79 3s1-18.47 21.71-27" fill="#fff"/><circle cx="123" cy="123.5" fill="#f9d0a7" r="9.5"/><circle cx="23" cy="123.5" fill="#f9d0a7" r="9.5"/><path d="M78.01 74L73.5 84h-5l-6-10z" fill="#006837"/><path d="M73.5 84l3 41-5.59 7.34a.53.53 0 01-.88 0L65.5 125l3-41z" fill="#009245"/><path d="M78.5 74l-4.42 8.07a.8.8 0 001.17.91L91 74zM67.93 82L63 74h-9.5l14 8.42a.32.32 0 00.43-.42z" fill="#e6e6e6"/><ellipse cx="72.39" cy="44.64" fill="#f9d0a7" rx="32.39" ry="32.14"/><circle cx="103.05" cy="51.28" fill="#f9d0a7" r="6.45"/><path d="M54 63.73c0 2.63 3.36 4.77 7.5 4.77s7.5-2.14 7.5-4.77-3.86-1.23-8-1.23-7-1.41-7 1.23z" fill="#fff"/><path d="M40.64 39.81C41.14 34.34 42 33 42.9 28a1.09 1.09 0 01.58-.78l22.76-11.57a1 1 0 01.63-.11l22.37 2.81h10.3a1.09 1.09 0 01.81 1.81 1.08 1.08 0 00.24 1.64c2 1.21 5.73 4.39 3.93 10.72a1.17 1.17 0 01-.09.24c-.44.8.73 4.45-.47 17.23a1.37 1.37 0 01-2.71.15C99.14 40 91.61 28.4 87.18 24.42a1.06 1.06 0 00-.92-.23l-39.75 5.43a1.08 1.08 0 00-.51.26c-.54.51-1.72 5.17-2.76 10.3a1.31 1.31 0 01-2.6-.37z" fill="#d1a44a"/><path d="M71.41 35.32C74 35.15 94.32 31.58 100 21.5c0 0-6-17-23-20 0 0-10.46-1.7-23.2 7.7-.37.28-5.86 6.35-6.12 6.73-1.92 2.73-6.2 9.82-11.94 11.87a.3.3 0 00.06.58c5 .54 21 2 29.24-.84l-9.36 5.22a.2.2 0 00.1.38c4.14-.39 20.88-2 23.17-3.79l-7.6 5.79a.1.1 0 00.06.18z" fill="#ddae47"/><g stroke-miterlimit="10"><rect fill="#f9d0a7" height="16" rx="8" stroke="#000" stroke-width="2" width="20" x="67" y="35.5"/><rect fill="#f9d0a7" height="16" rx="8" stroke="#000" stroke-width="2" width="20" x="42" y="35.5"/><path d="M62 43.5h5" fill="none" stroke="#000" stroke-width="2"/><path d="M42.5 44l18.5-.5M68 44h18" stroke="#b79274"/></g><path d="M42 43.27a5.7 5.7 0 00.2 1.49.64.64 0 00.13.26.44.44 0 00.66-.13 1.23 1.23 0 00.14-.76 1.86 1.86 0 00-.1-.7.7.7 0 00-.51-.45.46.46 0 00-.51.51"/></symbol>
<symbol id="i-standing-right" viewBox="0 0 157 180" xmlns="http://www.w3.org/2000/svg"><path d="M58.5 133h14v40h-14z" fill="#1b1464"/><path d="M42.5 160h30v13h-30z" fill="#8c6239"/><path d="M83.5 134h14v39h-14z" fill="#1b1464"/><path d="M83.5 160h29v13h-29z" fill="#8c6239"/><path d="M97.5 92v44h-39V91c-21 8.53-21 28-21 28l-15-3c7-35 36-42 36-42h35l5 1s28.6 6 35.5 41l-14.79 3s-1-18.47-21.71-27" fill="#fff"/><circle cx="28" cy="123.5" fill="#f9d0a7" r="9.5"/><circle cx="128" cy="123.5" fill="#f9d0a7" r="9.5"/><path d="M72.99 74l4.51 10h5l6-10z" fill="#006837"/><path d="M77.5 84l-3 41 5.59 7.34a.53.53 0 00.88 0L85.5 125l-3-41z" fill="#009245"/><path d="M72.5 74l4.42 8.07a.8.8 0 01-1.17.91l-15.7-9zM83.07 82L88 74h9.5l-14 8.42a.32.32 0 01-.43-.42z" fill="#e6e6e6"/><ellipse cx="78.61" cy="44.64" fill="#f9d0a7" rx="32.39" ry="32.14"/><circle cx="47.95" cy="51.28" fill="#f9d0a7" r="6.45"/><path d="M97 63.73c0 2.63-3.36 4.77-7.5 4.77S82 66.36 82 63.73s3.86-1.23 8-1.23 7-1.41 7 1.23z" fill="#fff"/><path d="M110.36 39.81C109.86 34.34 109 33 108.1 28a1.09 1.09 0 00-.58-.78L84.76 15.65a1 1 0 00-.63-.11l-22.37 2.81h-10.3a1.09 1.09 0 00-.81 1.81 1.08 1.08 0 01-.24 1.64c-2 1.21-5.73 4.39-3.93 10.72a1.17 1.17 0 00.09.24c.44.8-.73 4.45.47 17.23a1.37 1.37 0 002.71.15C51.86 40 59.39 28.4 63.82 24.42a1.06 1.06 0 01.92-.23l39.75 5.43a1.08 1.08 0 01.51.26c.54.51 1.72 5.17 2.76 10.3a1.31 1.31 0 002.6-.37z" fill="#d1a44a"/><path d="M79.59 35.32C77 35.15 56.68 31.58 51 21.5c0 0 6-17 23-20 0 0 10.46-1.7 23.2 7.7.37.28 5.86 6.35 6.12 6.73 1.92 2.73 6.2 9.82 11.94 11.87a.3.3 0 01-.06.58c-5 .54-21 2-29.24-.84l9.36 5.22a.2.2 0 01-.1.38c-4.14-.39-20.88-2-23.17-3.79l7.6 5.79a.1.1 0 01-.06.18z" fill="#ddae47"/><g stroke="#000" stroke-miterlimit="10" stroke-width="2"><rect fill="#fff" height="16" rx="8" width="20" x="90" y="35.5"/><rect fill="#fff" height="16" rx="8" width="20" x="65" y="35.5"/><path d="M85 43.5h5" fill="none"/></g><circle cx="78.5" cy="43" r="1.5"/><circle cx="102.5" cy="43" r="1.5"/></symbol>
<symbol id="i-standing-right-blink" viewBox="0 0 157 180" xmlns="http://www.w3.org/2000/svg"><path d="M58.5 133h14v40h-14z" fill="#1b1464"/><path d="M42.5 160h30v13h-30z" fill="#8c6239"/><path d="M83.5 134h14v39h-14z" fill="#1b1464"/><path d="M83.5 160h29v13h-29z" fill="#8c6239"/><path d="M97.5 92v44h-39V91c-21 8.53-21 28-21 28l-15-3c7-35 36-42 36-42h35l5 1s28.6 6 35.5 41l-14.79 3s-1-18.47-21.71-27" fill="#fff"/><circle cx="28" cy="123.5" fill="#f9d0a7" r="9.5"/><circle cx="128" cy="123.5" fill="#f9d0a7" r="9.5"/><path d="M72.99 74l4.51 10h5l6-10z" fill="#006837"/><path d="M77.5 84l-3 41 5.59 7.34a.53.53 0 00.88 0L85.5 125l-3-41z" fill="#009245"/><path d="M72.5 74l4.42 8.07a.8.8 0 01-1.17.91l-15.7-9zM83.07 82L88 74h9.5l-14 8.42a.32.32 0 01-.43-.42z" fill="#e6e6e6"/><ellipse cx="78.61" cy="44.64" fill="#f9d0a7" rx="32.39" ry="32.14"/><circle cx="47.95" cy="51.28" fill="#f9d0a7" r="6.45"/><path d="M97 63.73c0 2.63-3.36 4.77-7.5 4.77S82 66.36 82 63.73s3.86-1.23 8-1.23 7-1.41 7 1.23z" fill="#fff"/><path d="M110.36 39.81C109.86 34.34 109 33 108.1 28a1.09 1.09 0 00-.58-.78L84.76 15.65a1 1 0 00-.63-.11l-22.37 2.81h-10.3a1.09 1.09 0 00-.81 1.81 1.08 1.08 0 01-.24 1.64c-2 1.21-5.73 4.39-3.93 10.72a1.17 1.17 0 00.09.24c.44.8-.73 4.45.47 17.23a1.37 1.37 0 002.71.15C51.86 40 59.39 28.4 63.82 24.42a1.06 1.06 0 01.92-.23l39.75 5.43a1.08 1.08 0 01.51.26c.54.51 1.72 5.17 2.76 10.3a1.31 1.31 0 002.6-.37z" fill="#d1a44a"/><path d="M79.59 35.32C77 35.15 56.68 31.58 51 21.5c0 0 6-17 23-20 0 0 10.46-1.7 23.2 7.7.37.28 5.86 6.35 6.12 6.73 1.92 2.73 6.2 9.82 11.94 11.87a.3.3 0 01-.06.58c-5 .54-21 2-29.24-.84l9.36 5.22a.2.2 0 01-.1.38c-4.14-.39-20.88-2-23.17-3.79l7.6 5.79a.1.1 0 01-.06.18z" fill="#ddae47"/><g stroke-miterlimit="10"><rect fill="#f9d0a7" height="16" rx="8" stroke="#000" stroke-width="2" width="20" x="89" y="35.5"/><rect fill="#f9d0a7" height="16" rx="8" stroke="#000" stroke-width="2" width="20" x="64" y="35.5"/><path d="M84 43.5h5" fill="none" stroke="#000" stroke-width="2"/><path d="M64.5 44l18.5-.5M90 44h18" stroke="#b79274"/></g><path d="M64 43.27a5.7 5.7 0 00.2 1.49.64.64 0 00.13.26.44.44 0 00.66-.13 1.23 1.23 0 00.14-.76 1.86 1.86 0 00-.1-.7.7.7 0 00-.51-.45.46.46 0 00-.51.51"/></symbol>
<symbol id="i-swimming-left" viewBox="0 0 157 180" xmlns="http://www.w3.org/2000/svg"><path d="M133.508 133.61l-11.802 7.53-21.515-33.72 11.802-7.531z" fill="#1b1464"/><path d="M133.71 133.55L156 119.41l-6.99-10.96-22.29 14.14z" fill="#8c6239"/><path d="M115.62 153.989l-11.755 7.602-21.179-32.748 11.756-7.603z" fill="#1b1464"/><path d="M110.724 145.918l15.748 24.351-12.36 7.994-15.748-24.352z" fill="#8c6239"/><path d="M60.86 91.5l22 38 35-20-12-20-8-15c6 11 1 2 1 2v-1a1 1 0 01-1-1l-2-3-3-4-30 9h-23s-11 0-27-1v15s13 2 33.5 1.5z" fill="#fff"/><circle cx="10.36" cy="83" fill="#f9d0a7" r="9.5"/><path d="M78.86 73.13l-.14 10.97-4.58 2-11.28-9.6z" fill="#006837"/><path d="M78.72 84.1l19.15 36.38-2.19 9a.53.53 0 01-.79.39l-7.11-5L74.14 86.1z" fill="#009245"/><path d="M79.31 72.94l-.83 9.16a.8.8 0 001.43.37L90.72 68zM72.81 84.48l-10-8h-9l18.72 8.56a.32.32 0 00.28-.56z" fill="#e6e6e6"/><ellipse cx="65.25" cy="44.64" fill="#f9d0a7" rx="32.39" ry="32.14"/><circle cx="95.91" cy="51.28" fill="#f9d0a7" r="6.45"/><path d="M46.86 63.73c0 2.63 3.36 4.77 7.5 4.77s7.5-2.14 7.5-4.77-3.86-1.23-8-1.23-7-1.41-7 1.23z" fill="#fff"/><path d="M33.49 39.81C34 34.34 34.85 33 35.76 28a1.09 1.09 0 01.58-.78L59.1 15.65a1 1 0 01.63-.11l22.37 2.81h10.3a1.09 1.09 0 01.81 1.81 1.09 1.09 0 00.23 1.64c2 1.21 5.74 4.39 3.94 10.72a1.17 1.17 0 01-.09.24c-.44.8.72 4.45-.47 17.23a1.37 1.37 0 01-2.71.15C92 40 84.47 28.4 80 24.42a1.07 1.07 0 00-.93-.23l-39.7 5.43a1.08 1.08 0 00-.51.26c-.54.51-1.72 5.17-2.77 10.3a1.31 1.31 0 01-2.6-.37z" fill="#d1a44a"/><path d="M64.27 35.32c2.59-.17 22.9-3.74 28.59-13.82 0 0-6-17-23-20 0 0-10.46-1.7-23.2 7.7-.37.28-5.86 6.35-6.12 6.73-1.92 2.73-6.2 9.82-11.94 11.87a.3.3 0 00.06.58c5 .54 21 2 29.23-.84l-9.35 5.22a.2.2 0 00.1.38c4.13-.39 20.88-2 23.17-3.79l-7.6 5.79a.1.1 0 00.06.18z" fill="#ddae47"/><g stroke="#000" stroke-miterlimit="10" stroke-width="2"><rect fill="#fff" height="16" rx="8" width="20" x="61" y="35.5"/><rect fill="#fff" height="16" rx="8" width="20" x="36" y="35.5"/><path d="M56 43.5h5" fill="none"/></g><circle cx="42.5" cy="43" r="1.5"/><circle cx="66.5" cy="43" r="1.5"/></symbol>
<symbol id="i-swimming-left-blink" viewBox="0 0 157 180" xmlns="http://www.w3.org/2000/svg"><path d="M133.508 133.61l-11.802 7.53-21.515-33.72 11.802-7.531z" fill="#1b1464"/><path d="M133.71 133.55L156 119.41l-6.99-10.96-22.29 14.14z" fill="#8c6239"/><path d="M115.62 153.989l-11.755 7.602-21.179-32.748 11.756-7.603z" fill="#1b1464"/><path d="M110.724 145.918l15.748 24.351-12.36 7.994-15.748-24.352z" fill="#8c6239"/><path d="M60.86 91.5l22 38 35-20-12-20-8-15c6 11 1 2 1 2v-1a1 1 0 01-1-1l-2-3-3-4-30 9h-23s-11 0-27-1v15s13 2 33.5 1.5z" fill="#fff"/><circle cx="10.36" cy="83" fill="#f9d0a7" r="9.5"/><path d="M78.86 73.13l-.14 10.97-4.58 2-11.28-9.6z" fill="#006837"/><path d="M78.72 84.1l19.15 36.38-2.19 9a.53.53 0 01-.79.39l-7.11-5L74.14 86.1z" fill="#009245"/><path d="M79.31 72.94l-.83 9.16a.8.8 0 001.43.37L90.72 68zM72.81 84.48l-10-8h-9l18.72 8.56a.32.32 0 00.28-.56z" fill="#e6e6e6"/><ellipse cx="65.25" cy="44.64" fill="#f9d0a7" rx="32.39" ry="32.14"/><circle cx="95.91" cy="51.28" fill="#f9d0a7" r="6.45"/><path d="M46.86 63.73c0 2.63 3.36 4.77 7.5 4.77s7.5-2.14 7.5-4.77-3.86-1.23-8-1.23-7-1.41-7 1.23z" fill="#fff"/><path d="M33.49 39.81C34 34.34 34.85 33 35.76 28a1.09 1.09 0 01.58-.78L59.1 15.65a1 1 0 01.63-.11l22.37 2.81h10.3a1.09 1.09 0 01.81 1.81 1.09 1.09 0 00.23 1.64c2 1.21 5.74 4.39 3.94 10.72a1.17 1.17 0 01-.09.24c-.44.8.72 4.45-.47 17.23a1.37 1.37 0 01-2.71.15C92 40 84.47 28.4 80 24.42a1.07 1.07 0 00-.93-.23l-39.7 5.43a1.08 1.08 0 00-.51.26c-.54.51-1.72 5.17-2.77 10.3a1.31 1.31 0 01-2.6-.37z" fill="#d1a44a"/><path d="M64.27 35.32c2.59-.17 22.9-3.74 28.59-13.82 0 0-6-17-23-20 0 0-10.46-1.7-23.2 7.7-.37.28-5.86 6.35-6.12 6.73-1.92 2.73-6.2 9.82-11.94 11.87a.3.3 0 00.06.58c5 .54 21 2 29.23-.84l-9.35 5.22a.2.2 0 00.1.38c4.13-.39 20.88-2 23.17-3.79l-7.6 5.79a.1.1 0 00.06.18z" fill="#ddae47"/><g stroke-miterlimit="10"><rect fill="#f9d0a7" height="16" rx="8" stroke="#000" stroke-width="2" width="20" x="61" y="35.5"/><rect fill="#f9d0a7" height="16" rx="8" stroke="#000" stroke-width="2" width="20" x="36" y="35.5"/><path d="M56 43.5h5" fill="none" stroke="#000" stroke-width="2"/><path d="M36.5 44l18.5-.5M62 44h18" stroke="#b79274"/></g><path d="M36 43.27a5.7 5.7 0 00.2 1.49.64.64 0 00.13.26.44.44 0 00.66-.13 1.23 1.23 0 00.14-.76 1.86 1.86 0 00-.1-.7.7.7 0 00-.51-.45.46.46 0 00-.51.51"/></symbol>
<symbol id="i-swimming-right" viewBox="0 0 157 180" xmlns="http://www.w3.org/2000/svg"><path d="M44.852 99.873l11.802 7.53-21.516 33.722-11.802-7.53z" fill="#1b1464"/><path d="M23.15 133.55L.86 119.41l6.99-10.96 22.29 14.14z" fill="#8c6239"/><path d="M62.796 121.14l11.76 7.56-21.06 32.76-11.76-7.56z" fill="#1b1464"/><path d="M58.493 153.918L42.745 178.27l-12.36-7.993 15.747-24.352z" fill="#8c6239"/><path d="M96 91.5l-22 38-35-20 12-20 8-15c-6 11-1 2-1 2v-1a1 1 0 001-1l2-3 3-4 30 9h23s11 0 27-1v15s-13 2-33.5 1.5" fill="#fff"/><circle cx="146.5" cy="83" fill="#f9d0a7" r="9.5"/><path d="M78 73.13l.14 10.97 4.58 2L94 76.5z" fill="#006837"/><path d="M78.14 84.1L59 120.48l2.19 9a.53.53 0 00.79.39l7.1-5L82.72 86.1z" fill="#009245"/><path d="M77.55 72.94l.83 9.16a.8.8 0 01-1.44.37L66.14 68zM84.05 84.48l10-8h9l-18.77 8.58a.32.32 0 01-.23-.58z" fill="#e6e6e6"/><ellipse cx="91.61" cy="44.64" fill="#f9d0a7" rx="32.39" ry="32.14"/><circle cx="60.95" cy="51.28" fill="#f9d0a7" r="6.45"/><path d="M110 63.73c0 2.63-3.36 4.77-7.5 4.77S95 66.36 95 63.73s3.86-1.23 8-1.23 7-1.41 7 1.23z" fill="#fff"/><path d="M123.36 39.81C122.86 34.34 122 33 121.1 28a1.09 1.09 0 00-.58-.78L97.76 15.65a1 1 0 00-.63-.11l-22.37 2.81h-10.3a1.09 1.09 0 00-.81 1.81 1.08 1.08 0 01-.24 1.64c-2 1.21-5.73 4.39-3.93 10.72a1.17 1.17 0 00.09.24c.44.8-.73 4.45.47 17.23a1.37 1.37 0 002.71.15C64.86 40 72.39 28.4 76.82 24.42a1.06 1.06 0 01.92-.23l39.75 5.43a1.08 1.08 0 01.51.26c.54.51 1.72 5.17 2.76 10.3a1.31 1.31 0 002.6-.37z" fill="#d1a44a"/><path d="M92.59 35.32C90 35.15 69.68 31.58 64 21.5c0 0 6-17 23-20 0 0 10.46-1.7 23.2 7.7.37.28 5.86 6.35 6.12 6.73 1.92 2.73 6.2 9.82 11.94 11.87a.3.3 0 01-.06.58c-5 .54-21 2-29.24-.84l9.36 5.22a.2.2 0 01-.1.38c-4.14-.39-20.88-2-23.17-3.79l7.6 5.79a.1.1 0 01-.06.18z" fill="#ddae47"/><g stroke="#000" stroke-miterlimit="10" stroke-width="2"><rect fill="#fff" height="16" rx="8" width="20" x="103" y="35.5"/><rect fill="#fff" height="16" rx="8" width="20" x="78" y="35.5"/><path d="M98 43.5h5" fill="none"/></g><circle cx="91.5" cy="43" r="1.5"/><circle cx="115.5" cy="43" r="1.5"/></symbol>
<symbol id="i-swimming-right-blink" viewBox="0 0 157 180" xmlns="http://www.w3.org/2000/svg"><path d="M44.852 99.873l11.802 7.53-21.516 33.722-11.802-7.53z" fill="#1b1464"/><path d="M23.15 133.55L.86 119.41l6.99-10.96 22.29 14.14z" fill="#8c6239"/><path d="M62.796 121.14l11.76 7.56-21.06 32.76-11.76-7.56z" fill="#1b1464"/><path d="M58.493 153.918L42.745 178.27l-12.36-7.993 15.747-24.352z" fill="#8c6239"/><path d="M96 91.5l-22 38-35-20 12-20 8-15c-6 11-1 2-1 2v-1a1 1 0 001-1l2-3 3-4 30 9h23s11 0 27-1v15s-13 2-33.5 1.5" fill="#fff"/><circle cx="146.5" cy="83" fill="#f9d0a7" r="9.5"/><path d="M78 73.13l.14 10.97 4.58 2L94 76.5z" fill="#006837"/><path d="M78.14 84.1L59 120.48l2.19 9a.53.53 0 00.79.39l7.1-5L82.72 86.1z" fill="#009245"/><path d="M77.55 72.94l.83 9.16a.8.8 0 01-1.44.37L66.14 68zM84.05 84.48l10-8h9l-18.77 8.58a.32.32 0 01-.23-.58z" fill="#e6e6e6"/><ellipse cx="91.61" cy="44.64" fill="#f9d0a7" rx="32.39" ry="32.14"/><circle cx="60.95" cy="51.28" fill="#f9d0a7" r="6.45"/><path d="M110 63.73c0 2.63-3.36 4.77-7.5 4.77S95 66.36 95 63.73s3.86-1.23 8-1.23 7-1.41 7 1.23z" fill="#fff"/><path d="M123.36 39.81C122.86 34.34 122 33 121.1 28a1.09 1.09 0 00-.58-.78L97.76 15.65a1 1 0 00-.63-.11l-22.37 2.81h-10.3a1.09 1.09 0 00-.81 1.81 1.08 1.08 0 01-.24 1.64c-2 1.21-5.73 4.39-3.93 10.72a1.17 1.17 0 00.09.24c.44.8-.73 4.45.47 17.23a1.37 1.37 0 002.71.15C64.86 40 72.39 28.4 76.82 24.42a1.06 1.06 0 01.92-.23l39.75 5.43a1.08 1.08 0 01.51.26c.54.51 1.72 5.17 2.76 10.3a1.31 1.31 0 002.6-.37z" fill="#d1a44a"/><path d="M92.59 35.32C90 35.15 69.68 31.58 64 21.5c0 0 6-17 23-20 0 0 10.46-1.7 23.2 7.7.37.28 5.86 6.35 6.12 6.73 1.92 2.73 6.2 9.82 11.94 11.87a.3.3 0 01-.06.58c-5 .54-21 2-29.24-.84l9.36 5.22a.2.2 0 01-.1.38c-4.14-.39-20.88-2-23.17-3.79l7.6 5.79a.1.1 0 01-.06.18z" fill="#ddae47"/><g stroke-miterlimit="10"><rect fill="#f9d0a7" height="16" rx="8" stroke="#000" stroke-width="2" width="20" x="102" y="35.5"/><rect fill="#f9d0a7" height="16" rx="8" stroke="#000" stroke-width="2" width="20" x="77" y="35.5"/><path d="M97 43.5h5" fill="none" stroke="#000" stroke-width="2"/><path d="M77.5 44l18.5-.5M103 44h18" stroke="#b79274"/></g><path d="M77 43.27a5.7 5.7 0 00.2 1.49.64.64 0 00.13.26.44.44 0 00.66-.13 1.23 1.23 0 00.14-.76 1.86 1.86 0 00-.1-.7.7.7 0 00-.51-.45.46.46 0 00-.51.51"/></symbol>
<symbol id="i-swimmingback-left" viewBox="0 0 157 180" xmlns="http://www.w3.org/2000/svg"><path d="M133.781 126.378l-25.115 14.5-6.5-11.258 25.115-14.5z" fill="#8c6239"/><path d="M125.586 142.321l-12.129 6.992-19.976-34.655 12.13-6.992z" fill="#1b1464"/><path d="M126.533 170.75l-15-25.982 11.796-6.81 15 25.981z" fill="#8c6239"/><path d="M87.15 154.39l33.32-19.89-6-11-21.59 12.8-13.1-22.69-12.13 7z" fill="#1b1464"/><path d="M50 90.84l22.77 37.65 33.37-20.19-17.68-33.8h6a341.54 341.54 0 0136 0l-1-12c-26-1-34 0-34 0h-12l-35 12-4 2-3 2a16.65 16.65 0 015 6l2 4s0 1 1.56 2.34" fill="#fff"/><circle cx="135.96" cy="69" fill="#f9d0a7" r="9.5"/><path d="M68.6 69.55l.5 10.96-4.46 2.26-9.87-6.21z" fill="#006837"/><path d="M69.1 80.51l21.22 35.21-1.67 9.08a.53.53 0 01-.76.43l-7.38-4.53-15.87-37.93z" fill="#009245"/><path d="M69 69.33l-.3 9.19a.8.8 0 001.46.29l9.98-15.11zM63.22 81.23l-8-4.89-10.75.16L63 81.82a.32.32 0 00.22-.59z" fill="#e6e6e6"/><ellipse cx="52.86" cy="44.64" fill="#f9d0a7" rx="32.39" ry="32.14"/><circle cx="83.52" cy="51.28" fill="#f9d0a7" r="6.45"/><path d="M34.46 63.73c0 2.63 3.36 4.77 7.5 4.77s7.5-2.14 7.5-4.77-3.85-1.23-8-1.23-7-1.41-7 1.23z" fill="#fff"/><path d="M21.1 39.81c.51-5.47 1.36-6.81 2.27-11.81a1.07 1.07 0 01.57-.78L46.7 15.65a1.07 1.07 0 01.63-.11l22.37 2.81H80a1.09 1.09 0 01.82 1.81 1.08 1.08 0 00.23 1.64c2 1.21 5.74 4.39 3.94 10.72a1.22 1.22 0 01-.1.24c-.43.8.73 4.45-.47 17.23a1.37 1.37 0 01-2.7.15C79.61 40 72.08 28.4 67.65 24.42a1.07 1.07 0 00-.93-.23L27 29.62a1.11 1.11 0 00-.52.26c-.53.51-1.71 5.17-2.76 10.3a1.31 1.31 0 01-2.62-.37z" fill="#d1a44a"/><path d="M51.88 35.32c2.59-.17 22.9-3.74 28.58-13.82 0 0-6-17-23-20 0 0-10.46-1.7-23.2 7.7-.37.28-5.85 6.35-6.12 6.73C26.23 18.66 22 25.75 16.2 27.8a.3.3 0 00.07.58c5 .54 21 2 29.23-.84l-9.36 5.22a.2.2 0 00.1.38c4.14-.39 20.88-2 23.18-3.79l-7.61 5.79a.1.1 0 00.07.18z" fill="#ddae47"/><g stroke="#000" stroke-miterlimit="10" stroke-width="2"><rect fill="#fff" height="16" rx="8" width="20" x="49" y="35.5"/><rect fill="#fff" height="16" rx="8" width="20" x="24" y="35.5"/><path d="M44 43.5h5" fill="none"/></g><circle cx="30.5" cy="43" r="1.5"/><circle cx="54.5" cy="43" r="1.5"/></symbol>
<symbol id="i-swimmingback-left-blink" viewBox="0 0 157 180" xmlns="http://www.w3.org/2000/svg"><path d="M133.781 126.378l-25.115 14.5-6.5-11.258 25.115-14.5z" fill="#8c6239"/><path d="M125.586 142.321l-12.129 6.992-19.976-34.655 12.13-6.992z" fill="#1b1464"/><path d="M126.533 170.75l-15-25.982 11.796-6.81 15 25.981z" fill="#8c6239"/><path d="M87.15 154.39l33.32-19.89-6-11-21.59 12.8-13.1-22.69-12.13 7z" fill="#1b1464"/><path d="M50 90.84l22.77 37.65 33.37-20.19-17.68-33.8h6a341.54 341.54 0 0136 0l-1-12c-26-1-34 0-34 0h-12l-35 12-4 2-3 2a16.65 16.65 0 015 6l2 4s0 1 1.56 2.34" fill="#fff"/><circle cx="135.96" cy="69" fill="#f9d0a7" r="9.5"/><path d="M68.6 69.55l.5 10.96-4.46 2.26-9.87-6.21z" fill="#006837"/><path d="M69.1 80.51l21.22 35.21-1.67 9.08a.53.53 0 01-.76.43l-7.38-4.53-15.87-37.93z" fill="#009245"/><path d="M69 69.33l-.3 9.19a.8.8 0 001.46.29l9.98-15.11zM63.22 81.23l-8-4.89-10.75.16L63 81.82a.32.32 0 00.22-.59z" fill="#e6e6e6"/><ellipse cx="52.86" cy="44.64" fill="#f9d0a7" rx="32.39" ry="32.14"/><circle cx="83.52" cy="51.28" fill="#f9d0a7" r="6.45"/><path d="M34.46 63.73c0 2.63 3.36 4.77 7.5 4.77s7.5-2.14 7.5-4.77-3.85-1.23-8-1.23-7-1.41-7 1.23z" fill="#fff"/><path d="M21.1 39.81c.51-5.47 1.36-6.81 2.27-11.81a1.07 1.07 0 01.57-.78L46.7 15.65a1.07 1.07 0 01.63-.11l22.37 2.81H80a1.09 1.09 0 01.82 1.81 1.08 1.08 0 00.23 1.64c2 1.21 5.74 4.39 3.94 10.72a1.22 1.22 0 01-.1.24c-.43.8.73 4.45-.47 17.23a1.37 1.37 0 01-2.7.15C79.61 40 72.08 28.4 67.65 24.42a1.07 1.07 0 00-.93-.23L27 29.62a1.11 1.11 0 00-.52.26c-.53.51-1.71 5.17-2.76 10.3a1.31 1.31 0 01-2.62-.37z" fill="#d1a44a"/><path d="M51.88 35.32c2.59-.17 22.9-3.74 28.58-13.82 0 0-6-17-23-20 0 0-10.46-1.7-23.2 7.7-.37.28-5.85 6.35-6.12 6.73C26.23 18.66 22 25.75 16.2 27.8a.3.3 0 00.07.58c5 .54 21 2 29.23-.84l-9.36 5.22a.2.2 0 00.1.38c4.14-.39 20.88-2 23.18-3.79l-7.61 5.79a.1.1 0 00.07.18z" fill="#ddae47"/><g stroke-miterlimit="10"><rect fill="#f9d0a7" height="16" rx="8" stroke="#000" stroke-width="2" width="20" x="48" y="35.5"/><rect fill="#f9d0a7" height="16" rx="8" stroke="#000" stroke-width="2" width="20" x="23" y="35.5"/><path d="M43 43.5h5" fill="none" stroke="#000" stroke-width="2"/><path d="M23.5 44l18.5-.5M49 44h18" stroke="#b79274"/></g><path d="M23 43.27a5.7 5.7 0 00.2 1.49.64.64 0 00.13.26.44.44 0 00.66-.13 1.23 1.23 0 00.14-.76 1.86 1.86 0 00-.1-.7.7.7 0 00-.51-.45.46.46 0 00-.51.51"/></symbol>
<symbol id="i-swimmingback-right" viewBox="0 0 157 180" xmlns="http://www.w3.org/2000/svg"><path d="M31.197 115.122l25.114 14.5-6.5 11.258-25.114-14.5z" fill="#8c6239"/><path d="M52.853 107.671l12.129 6.992-19.976 34.655-12.13-6.992z" fill="#1b1464"/><path d="M20.128 163.933l15-25.981 11.796 6.81-15 25.98z" fill="#8c6239"/><path d="M71.31 154.39L38 134.5l6-11 21.59 12.8 13.1-22.69 12.12 7z" fill="#1b1464"/><path d="M108.45 90.84L86 128.5l-33.69-20.2L70 74.5h-6a341.54 341.54 0 00-36 0l1-12c26-1 34 0 34 0h12l35 12 4 2 3 2a16.65 16.65 0 00-5 6l-2 4s0 1-1.55 2.34" fill="#fff"/><circle cx="22.5" cy="69" fill="#f9d0a7" r="9.5"/><path d="M89.86 69.55l-.5 10.96 4.46 2.26 9.88-6.21z" fill="#006837"/><path d="M89.36 80.51l-21.21 35.21 1.66 9.08a.54.54 0 00.77.43L78 120.7l15.82-37.93z" fill="#009245"/><path d="M89.43 69.33l.29 9.19a.79.79 0 01-1.45.29l-10-15.11zM95.25 81.23l8-4.89 10.75.16-18.56 5.32a.32.32 0 01-.19-.59z" fill="#e6e6e6"/><ellipse cx="105.61" cy="44.64" fill="#f9d0a7" rx="32.39" ry="32.14"/><circle cx="74.95" cy="51.28" fill="#f9d0a7" r="6.45"/><path d="M124 63.73c0 2.63-3.36 4.77-7.5 4.77s-7.5-2.14-7.5-4.77 3.86-1.23 8-1.23 7-1.41 7 1.23z" fill="#fff"/><path d="M137.36 39.81C136.86 34.34 136 33 135.1 28a1.09 1.09 0 00-.58-.78l-22.76-11.57a1 1 0 00-.63-.11l-22.37 2.81h-10.3a1.09 1.09 0 00-.81 1.81 1.08 1.08 0 01-.24 1.64c-2 1.21-5.73 4.39-3.93 10.72a1.17 1.17 0 00.09.24c.44.8-.73 4.45.47 17.23a1.37 1.37 0 002.71.15C78.86 40 86.39 28.4 90.82 24.42a1.06 1.06 0 01.92-.23l39.75 5.43a1.08 1.08 0 01.51.26c.54.51 1.72 5.17 2.76 10.3a1.31 1.31 0 002.6-.37z" fill="#d1a44a"/><path d="M106.59 35.32C104 35.15 83.68 31.58 78 21.5c0 0 6-17 23-20 0 0 10.46-1.7 23.2 7.7.37.28 5.86 6.35 6.12 6.73 1.92 2.73 6.2 9.82 11.94 11.87a.3.3 0 01-.06.58c-5 .54-21 2-29.24-.84l9.36 5.22a.2.2 0 01-.1.38c-4.14-.39-20.88-2-23.17-3.79l7.6 5.79a.1.1 0 01-.06.18z" fill="#ddae47"/><g stroke="#000" stroke-miterlimit="10" stroke-width="2"><rect fill="#fff" height="16" rx="8" width="20" x="117" y="35.5"/><rect fill="#fff" height="16" rx="8" width="20" x="92" y="35.5"/><path d="M112 43.5h5" fill="none"/></g><circle cx="105.5" cy="43" r="1.5"/><circle cx="129.5" cy="43" r="1.5"/></symbol>
<symbol id="i-swimmingback-right-blink" viewBox="0 0 157 180" xmlns="http://www.w3.org/2000/svg"><path d="M31.197 115.122l25.114 14.5-6.5 11.258-25.114-14.5z" fill="#8c6239"/><path d="M52.853 107.671l12.129 6.992-19.976 34.655-12.13-6.992z" fill="#1b1464"/><path d="M20.128 163.933l15-25.981 11.796 6.81-15 25.98z" fill="#8c6239"/><path d="M71.31 154.39L38 134.5l6-11 21.59 12.8 13.1-22.69 12.12 7z" fill="#1b1464"/><path d="M108.45 90.84L86 128.5l-33.69-20.2L70 74.5h-6a341.54 341.54 0 00-36 0l1-12c26-1 34 0 34 0h12l35 12 4 2 3 2a16.65 16.65 0 00-5 6l-2 4s0 1-1.55 2.34" fill="#fff"/><circle cx="22.5" cy="69" fill="#f9d0a7" r="9.5"/><path d="M89.86 69.55l-.5 10.96 4.46 2.26 9.88-6.21z" fill="#006837"/><path d="M89.36 80.51l-21.21 35.21 1.66 9.08a.54.54 0 00.77.43L78 120.7l15.82-37.93z" fill="#009245"/><path d="M89.43 69.33l.29 9.19a.79.79 0 01-1.45.29l-10-15.11zM95.25 81.23l8-4.89 10.75.16-18.56 5.32a.32.32 0 01-.19-.59z" fill="#e6e6e6"/><ellipse cx="105.61" cy="44.64" fill="#f9d0a7" rx="32.39" ry="32.14"/><circle cx="74.95" cy="51.28" fill="#f9d0a7" r="6.45"/><path d="M124 63.73c0 2.63-3.36 4.77-7.5 4.77s-7.5-2.14-7.5-4.77 3.86-1.23 8-1.23 7-1.41 7 1.23z" fill="#fff"/><path d="M137.36 39.81C136.86 34.34 136 33 135.1 28a1.09 1.09 0 00-.58-.78l-22.76-11.57a1 1 0 00-.63-.11l-22.37 2.81h-10.3a1.09 1.09 0 00-.81 1.81 1.08 1.08 0 01-.24 1.64c-2 1.21-5.73 4.39-3.93 10.72a1.17 1.17 0 00.09.24c.44.8-.73 4.45.47 17.23a1.37 1.37 0 002.71.15C78.86 40 86.39 28.4 90.82 24.42a1.06 1.06 0 01.92-.23l39.75 5.43a1.08 1.08 0 01.51.26c.54.51 1.72 5.17 2.76 10.3a1.31 1.31 0 002.6-.37z" fill="#d1a44a"/><path d="M106.59 35.32C104 35.15 83.68 31.58 78 21.5c0 0 6-17 23-20 0 0 10.46-1.7 23.2 7.7.37.28 5.86 6.35 6.12 6.73 1.92 2.73 6.2 9.82 11.94 11.87a.3.3 0 01-.06.58c-5 .54-21 2-29.24-.84l9.36 5.22a.2.2 0 01-.1.38c-4.14-.39-20.88-2-23.17-3.79l7.6 5.79a.1.1 0 01-.06.18z" fill="#ddae47"/><g stroke-miterlimit="10"><rect fill="#f9d0a7" height="16" rx="8" stroke="#000" stroke-width="2" width="20" x="116" y="35.5"/><rect fill="#f9d0a7" height="16" rx="8" stroke="#000" stroke-width="2" width="20" x="91" y="35.5"/><path d="M111 43.5h5" fill="none" stroke="#000" stroke-width="2"/><path d="M91.5 44l18.5-.5M117 44h18" stroke="#b79274"/></g><path d="M91 43.27a5.7 5.7 0 00.2 1.49.64.64 0 00.13.26.44.44 0 00.66-.13 1.23 1.23 0 00.14-.76 1.86 1.86 0 00-.1-.7.7.7 0 00-.51-.45.46.46 0 00-.51.51"/></symbol>
<symbol id="i-swimmingdone-left" viewBox="0 0 157 180" xmlns="http://www.w3.org/2000/svg"><path d="M103.352 179.336l-15.37-24.65 11.79-7.351 15.37 24.65z" fill="#8c6239"/><path d="M124.583 142.322l-12.13 6.992-19.975-34.655 12.129-6.992z" fill="#1b1464"/><path d="M125.215 170.929l-15-25.981 12.116-6.995 15 25.98z" fill="#8c6239"/><path d="M86.15 154.39l2.32 3.11 12-8-8.59-13.2-13.1-22.69-12.13 7z" fill="#1b1464"/><path d="M49 90.84l22 37.66 34.16-20.2-17.7-33.8h6a341.54 341.54 0 0136 0l-1-12c-26-1-34 0-34 0h-12l-35 12-4 2-3 2a16.65 16.65 0 015 6l2 4s0 1 1.56 2.34" fill="#fff"/><circle cx="134.96" cy="69" fill="#f9d0a7" r="9.5"/><path d="M67.6 69.55l.5 10.96-4.46 2.26-9.87-6.21z" fill="#006837"/><path d="M68.1 80.51l21.22 35.21-1.67 9.08a.53.53 0 01-.76.43l-7.38-4.53-15.87-37.93z" fill="#009245"/><path d="M68 69.33l-.3 9.19a.8.8 0 001.46.29l9.98-15.11zM62.22 81.23l-8-4.89-10.75.16L62 81.82a.32.32 0 00.22-.59z" fill="#e6e6e6"/><ellipse cx="51.86" cy="44.64" fill="#f9d0a7" rx="32.39" ry="32.14"/><circle cx="82.52" cy="51.28" fill="#f9d0a7" r="6.45"/><path d="M33.46 63.73c0 2.63 3.36 4.77 7.5 4.77s7.5-2.14 7.5-4.77-3.85-1.23-8-1.23-7-1.41-7 1.23z" fill="#fff"/><path d="M20.1 39.81c.51-5.47 1.36-6.81 2.27-11.81a1.07 1.07 0 01.57-.78L45.7 15.65a1.07 1.07 0 01.63-.11l22.37 2.81H79a1.09 1.09 0 01.82 1.81 1.08 1.08 0 00.23 1.64c2 1.21 5.74 4.39 3.94 10.72a1.22 1.22 0 01-.1.24c-.43.8.73 4.45-.47 17.23a1.37 1.37 0 01-2.7.15C78.61 40 71.08 28.4 66.65 24.42a1.07 1.07 0 00-.93-.23L26 29.62a1.11 1.11 0 00-.52.26c-.53.51-1.71 5.17-2.76 10.3a1.31 1.31 0 01-2.62-.37z" fill="#d1a44a"/><path d="M50.88 35.32c2.59-.17 22.9-3.74 28.58-13.82 0 0-6-17-23-20 0 0-10.46-1.7-23.2 7.7-.37.28-5.85 6.35-6.12 6.73C25.23 18.66 21 25.75 15.2 27.8a.3.3 0 00.07.58c5 .54 21 2 29.23-.84l-9.36 5.22a.2.2 0 00.1.38c4.14-.39 20.88-2 23.18-3.79l-7.61 5.79a.1.1 0 00.07.18z" fill="#ddae47"/><g stroke="#000" stroke-miterlimit="10" stroke-width="2"><rect fill="#fff" height="16" rx="8" width="20" x="48" y="35.5"/><rect fill="#fff" height="16" rx="8" width="20" x="23" y="35.5"/><path d="M43 43.5h5" fill="none"/></g><circle cx="29.5" cy="43" r="1.5"/><circle cx="53.5" cy="43" r="1.5"/></symbol>
<symbol id="i-swimmingdone-left-blink" viewBox="0 0 157 180" xmlns="http://www.w3.org/2000/svg"><path d="M103.352 179.336l-15.37-24.65 11.79-7.351 15.37 24.65z" fill="#8c6239"/><path d="M124.583 142.322l-12.13 6.992-19.975-34.655 12.129-6.992z" fill="#1b1464"/><path d="M125.215 170.929l-15-25.981 12.116-6.995 15 25.98z" fill="#8c6239"/><path d="M86.15 154.39l2.32 3.11 12-8-8.59-13.2-13.1-22.69-12.13 7z" fill="#1b1464"/><path d="M49 90.84l22 37.66 34.16-20.2-17.7-33.8h6a341.54 341.54 0 0136 0l-1-12c-26-1-34 0-34 0h-12l-35 12-4 2-3 2a16.65 16.65 0 015 6l2 4s0 1 1.56 2.34" fill="#fff"/><circle cx="134.96" cy="69" fill="#f9d0a7" r="9.5"/><path d="M67.6 69.55l.5 10.96-4.46 2.26-9.87-6.21z" fill="#006837"/><path d="M68.1 80.51l21.22 35.21-1.67 9.08a.53.53 0 01-.76.43l-7.38-4.53-15.87-37.93z" fill="#009245"/><path d="M68 69.33l-.3 9.19a.8.8 0 001.46.29l9.98-15.11zM62.22 81.23l-8-4.89-10.75.16L62 81.82a.32.32 0 00.22-.59z" fill="#e6e6e6"/><ellipse cx="51.86" cy="44.64" fill="#f9d0a7" rx="32.39" ry="32.14"/><circle cx="82.52" cy="51.28" fill="#f9d0a7" r="6.45"/><path d="M33.46 63.73c0 2.63 3.36 4.77 7.5 4.77s7.5-2.14 7.5-4.77-3.85-1.23-8-1.23-7-1.41-7 1.23z" fill="#fff"/><path d="M20.1 39.81c.51-5.47 1.36-6.81 2.27-11.81a1.07 1.07 0 01.57-.78L45.7 15.65a1.07 1.07 0 01.63-.11l22.37 2.81H79a1.09 1.09 0 01.82 1.81 1.08 1.08 0 00.23 1.64c2 1.21 5.74 4.39 3.94 10.72a1.22 1.22 0 01-.1.24c-.43.8.73 4.45-.47 17.23a1.37 1.37 0 01-2.7.15C78.61 40 71.08 28.4 66.65 24.42a1.07 1.07 0 00-.93-.23L26 29.62a1.11 1.11 0 00-.52.26c-.53.51-1.71 5.17-2.76 10.3a1.31 1.31 0 01-2.62-.37z" fill="#d1a44a"/><path d="M50.88 35.32c2.59-.17 22.9-3.74 28.58-13.82 0 0-6-17-23-20 0 0-10.46-1.7-23.2 7.7-.37.28-5.85 6.35-6.12 6.73C25.23 18.66 21 25.75 15.2 27.8a.3.3 0 00.07.58c5 .54 21 2 29.23-.84l-9.36 5.22a.2.2 0 00.1.38c4.14-.39 20.88-2 23.18-3.79l-7.61 5.79a.1.1 0 00.07.18z" fill="#ddae47"/><g stroke-miterlimit="10"><rect fill="#f9d0a7" height="16" rx="8" stroke="#000" stroke-width="2" width="20" x="47" y="35.5"/><rect fill="#f9d0a7" height="16" rx="8" stroke="#000" stroke-width="2" width="20" x="22" y="35.5"/><path d="M42 43.5h5" fill="none" stroke="#000" stroke-width="2"/><path d="M22.5 44l18.5-.5M48 44h18" stroke="#b79274"/></g><path d="M22 43.27a5.7 5.7 0 00.2 1.49.64.64 0 00.13.26.44.44 0 00.66-.13 1.23 1.23 0 00.14-.76 1.86 1.86 0 00-.1-.7.7.7 0 00-.51-.45.46.46 0 00-.51.51"/></symbol>
<symbol id="i-swimmingdone-right" viewBox="0 0 157 180" xmlns="http://www.w3.org/2000/svg"><path d="M47.274 171.805l15.462-24.534 11.734 7.395L59.008 179.2z" fill="#8c6239"/><path d="M56.848 107.679l12.13 6.991-19.976 34.655-12.13-6.991z" fill="#1b1464"/><path d="M24.13 163.935l15-25.98 12.116 6.994-15 25.98z" fill="#8c6239"/><path d="M75.31 154.39L73 157.5l-12-8 8.59-13.2 13.1-22.69 12.12 7z" fill="#1b1464"/><path d="M112.45 90.84L90 128.5l-33.69-20.2L74 74.5h-6a341.54 341.54 0 00-36 0l1-12c26-1 34 0 34 0h12l35 12 4 2 3 2a16.65 16.65 0 00-5 6l-2 4s0 1-1.55 2.34" fill="#fff"/><circle cx="26.5" cy="69" fill="#f9d0a7" r="9.5"/><path d="M93.86 69.55l-.5 10.96 4.46 2.26 9.88-6.21z" fill="#006837"/><path d="M93.36 80.51l-21.21 35.21 1.66 9.08a.54.54 0 00.77.43L82 120.7l15.82-37.93z" fill="#009245"/><path d="M93.43 69.33l.29 9.19a.79.79 0 01-1.45.29l-10-15.11zM99.25 81.23l8-4.89 10.75.16-18.56 5.32a.32.32 0 01-.19-.59z" fill="#e6e6e6"/><ellipse cx="109.61" cy="44.64" fill="#f9d0a7" rx="32.39" ry="32.14"/><circle cx="78.95" cy="51.28" fill="#f9d0a7" r="6.45"/><path d="M128 63.73c0 2.63-3.36 4.77-7.5 4.77s-7.5-2.14-7.5-4.77 3.86-1.23 8-1.23 7-1.41 7 1.23z" fill="#fff"/><path d="M141.36 39.81C140.86 34.34 140 33 139.1 28a1.09 1.09 0 00-.58-.78l-22.76-11.57a1 1 0 00-.63-.11l-22.37 2.81h-10.3a1.09 1.09 0 00-.81 1.81 1.08 1.08 0 01-.24 1.64c-2 1.21-5.73 4.39-3.93 10.72a1.17 1.17 0 00.09.24c.44.8-.73 4.45.47 17.23a1.37 1.37 0 002.71.15C82.86 40 90.39 28.4 94.82 24.42a1.06 1.06 0 01.92-.23l39.75 5.43a1.08 1.08 0 01.51.26c.54.51 1.72 5.17 2.76 10.3a1.31 1.31 0 002.6-.37z" fill="#d1a44a"/><path d="M110.59 35.32C108 35.15 87.68 31.58 82 21.5c0 0 6-17 23-20 0 0 10.46-1.7 23.2 7.7.37.28 5.86 6.35 6.12 6.73 1.92 2.73 6.2 9.82 11.94 11.87a.3.3 0 01-.06.58c-5 .54-21 2-29.24-.84l9.36 5.22a.2.2 0 01-.1.38c-4.14-.39-20.88-2-23.17-3.79l7.6 5.79a.1.1 0 01-.06.18z" fill="#ddae47"/><g stroke="#000" stroke-miterlimit="10" stroke-width="2"><rect fill="#fff" height="16" rx="8" width="20" x="121" y="35.5"/><rect fill="#fff" height="16" rx="8" width="20" x="96" y="35.5"/><path d="M116 43.5h5" fill="none"/></g><circle cx="109.5" cy="43" r="1.5"/><circle cx="133.5" cy="43" r="1.5"/></symbol>
<symbol id="i-swimmingdone-right-blink" viewBox="0 0 157 180" xmlns="http://www.w3.org/2000/svg"><path d="M47.274 171.805l15.462-24.534 11.734 7.395L59.008 179.2z" fill="#8c6239"/><path d="M56.848 107.679l12.13 6.991-19.976 34.655-12.13-6.991z" fill="#1b1464"/><path d="M24.13 163.935l15-25.98 12.116 6.994-15 25.98z" fill="#8c6239"/><path d="M75.31 154.39L73 157.5l-12-8 8.59-13.2 13.1-22.69 12.12 7z" fill="#1b1464"/><path d="M112.45 90.84L90 128.5l-33.69-20.2L74 74.5h-6a341.54 341.54 0 00-36 0l1-12c26-1 34 0 34 0h12l35 12 4 2 3 2a16.65 16.65 0 00-5 6l-2 4s0 1-1.55 2.34" fill="#fff"/><circle cx="26.5" cy="69" fill="#f9d0a7" r="9.5"/><path d="M93.86 69.55l-.5 10.96 4.46 2.26 9.88-6.21z" fill="#006837"/><path d="M93.36 80.51l-21.21 35.21 1.66 9.08a.54.54 0 00.77.43L82 120.7l15.82-37.93z" fill="#009245"/><path d="M93.43 69.33l.29 9.19a.79.79 0 01-1.45.29l-10-15.11zM99.25 81.23l8-4.89 10.75.16-18.56 5.32a.32.32 0 01-.19-.59z" fill="#e6e6e6"/><ellipse cx="109.61" cy="44.64" fill="#f9d0a7" rx="32.39" ry="32.14"/><circle cx="78.95" cy="51.28" fill="#f9d0a7" r="6.45"/><path d="M128 63.73c0 2.63-3.36 4.77-7.5 4.77s-7.5-2.14-7.5-4.77 3.86-1.23 8-1.23 7-1.41 7 1.23z" fill="#fff"/><path d="M141.36 39.81C140.86 34.34 140 33 139.1 28a1.09 1.09 0 00-.58-.78l-22.76-11.57a1 1 0 00-.63-.11l-22.37 2.81h-10.3a1.09 1.09 0 00-.81 1.81 1.08 1.08 0 01-.24 1.64c-2 1.21-5.73 4.39-3.93 10.72a1.17 1.17 0 00.09.24c.44.8-.73 4.45.47 17.23a1.37 1.37 0 002.71.15C82.86 40 90.39 28.4 94.82 24.42a1.06 1.06 0 01.92-.23l39.75 5.43a1.08 1.08 0 01.51.26c.54.51 1.72 5.17 2.76 10.3a1.31 1.31 0 002.6-.37z" fill="#d1a44a"/><path d="M110.59 35.32C108 35.15 87.68 31.58 82 21.5c0 0 6-17 23-20 0 0 10.46-1.7 23.2 7.7.37.28 5.86 6.35 6.12 6.73 1.92 2.73 6.2 9.82 11.94 11.87a.3.3 0 01-.06.58c-5 .54-21 2-29.24-.84l9.36 5.22a.2.2 0 01-.1.38c-4.14-.39-20.88-2-23.17-3.79l7.6 5.79a.1.1 0 01-.06.18z" fill="#ddae47"/><g stroke-miterlimit="10"><rect fill="#f9d0a7" height="16" rx="8" stroke="#000" stroke-width="2" width="20" x="120" y="35.5"/><rect fill="#f9d0a7" height="16" rx="8" stroke="#000" stroke-width="2" width="20" x="95" y="35.5"/><path d="M115 43.5h5" fill="none" stroke="#000" stroke-width="2"/><path d="M95.5 44l18.5-.5M121 44h18" stroke="#b79274"/></g><path d="M95 43.27a5.7 5.7 0 00.2 1.49.64.64 0 00.13.26.44.44 0 00.66-.13 1.23 1.23 0 00.14-.76 1.86 1.86 0 00-.1-.7.7.7 0 00-.51-.45.46.46 0 00-.51.51"/></symbol>
<symbol id="i-walking-left" viewBox="0 0 157 180" xmlns="http://www.w3.org/2000/svg"><path d="M109 156.5v-14H98v-10l-21 3v21z" fill="#1b1464"/><path d="M108 172.5v-30h13v30z" fill="#8c6239"/><path d="M37 133.5v14h46v-15z" fill="#1b1464"/><path d="M30 147.5v-29h13v29z" fill="#8c6239"/><path d="M59 88.5l.5 46.5h39V90c8.5-14.5 38.5-.5 38.5-.5l6-12c-27-18-46-6-46-6l-2 1h-1l-30.5.5-5 1S36 82.5 18 67.5l-8 12s28.79 20 49.5 11.5" fill="#fff"/><circle cx="145.5" cy="86" fill="#f9d0a7" r="9.5"/><circle cx="11.5" cy="71" fill="#f9d0a7" r="9.5"/><path d="M84.01 73L79.5 83h-5l-6-10z" fill="#006837"/><path d="M79.5 83l3 41-5.59 7.34a.53.53 0 01-.88 0L71.5 124l3-41z" fill="#009245"/><path d="M84.5 73l-4.42 8.07a.8.8 0 001.17.91L95 72.5zM73.93 81L69 73l-8 .5 12.49 7.92a.32.32 0 00.44-.42z" fill="#e6e6e6"/><ellipse cx="78.39" cy="43.64" fill="#f9d0a7" rx="32.39" ry="32.14"/><circle cx="109.05" cy="50.28" fill="#f9d0a7" r="6.45"/><path d="M60 62.73c0 2.63 3.36 4.77 7.5 4.77s7.5-2.14 7.5-4.77-3.86-1.23-8-1.23-7-1.41-7 1.23z" fill="#fff"/><path d="M46.64 38.81C47.14 33.34 48 32 48.9 27a1.09 1.09 0 01.58-.78l22.76-11.57a1 1 0 01.63-.11l22.37 2.81h10.3a1.09 1.09 0 01.81 1.81 1.08 1.08 0 00.24 1.64c2 1.21 5.73 4.39 3.93 10.72a1.17 1.17 0 01-.09.24c-.44.8.73 4.45-.47 17.23a1.37 1.37 0 01-2.71.15C105.14 39 97.61 27.4 93.18 23.42a1.06 1.06 0 00-.92-.23l-39.75 5.43a1.08 1.08 0 00-.51.26c-.54.51-1.72 5.17-2.76 10.3a1.31 1.31 0 01-2.6-.37z" fill="#d1a44a"/><path d="M77.41 34.32C80 34.15 100.32 30.58 106 20.5c0 0-6-17-23-20 0 0-10.46-1.7-23.2 7.7-.37.28-5.86 6.35-6.12 6.73-1.92 2.73-6.2 9.82-11.94 11.87a.3.3 0 00.06.58c5 .54 21 2 29.24-.84l-9.36 5.22a.2.2 0 00.1.38c4.14-.39 20.88-2 23.17-3.79l-7.6 5.79a.1.1 0 00.06.18z" fill="#ddae47"/><g stroke="#000" stroke-miterlimit="10" stroke-width="2"><rect fill="#fff" height="16" rx="8" width="20" x="73" y="35.5"/><rect fill="#fff" height="16" rx="8" width="20" x="48" y="35.5"/><path d="M68 43.5h5" fill="none"/></g><circle cx="54.5" cy="43" r="1.5"/><circle cx="78.5" cy="43" r="1.5"/></symbol>
<symbol id="i-walking-left-blink" viewBox="0 0 157 180" xmlns="http://www.w3.org/2000/svg"><path d="M109 156.5v-14H98v-10l-21 3v21z" fill="#1b1464"/><path d="M108 172.5v-30h13v30z" fill="#8c6239"/><path d="M37 133.5v14h46v-15z" fill="#1b1464"/><path d="M30 147.5v-29h13v29z" fill="#8c6239"/><path d="M59 88.5l.5 46.5h39V90c8.5-14.5 38.5-.5 38.5-.5l6-12c-27-18-46-6-46-6l-2 1h-1l-30.5.5-5 1S36 82.5 18 67.5l-8 12s28.79 20 49.5 11.5" fill="#fff"/><circle cx="145.5" cy="86" fill="#f9d0a7" r="9.5"/><circle cx="11.5" cy="71" fill="#f9d0a7" r="9.5"/><path d="M84.01 73L79.5 83h-5l-6-10z" fill="#006837"/><path d="M79.5 83l3 41-5.59 7.34a.53.53 0 01-.88 0L71.5 124l3-41z" fill="#009245"/><path d="M84.5 73l-4.42 8.07a.8.8 0 001.17.91L95 72.5zM73.93 81L69 73l-8 .5 12.49 7.92a.32.32 0 00.44-.42z" fill="#e6e6e6"/><ellipse cx="78.39" cy="43.64" fill="#f9d0a7" rx="32.39" ry="32.14"/><circle cx="109.05" cy="50.28" fill="#f9d0a7" r="6.45"/><path d="M60 62.73c0 2.63 3.36 4.77 7.5 4.77s7.5-2.14 7.5-4.77-3.86-1.23-8-1.23-7-1.41-7 1.23z" fill="#fff"/><path d="M46.64 38.81C47.14 33.34 48 32 48.9 27a1.09 1.09 0 01.58-.78l22.76-11.57a1 1 0 01.63-.11l22.37 2.81h10.3a1.09 1.09 0 01.81 1.81 1.08 1.08 0 00.24 1.64c2 1.21 5.73 4.39 3.93 10.72a1.17 1.17 0 01-.09.24c-.44.8.73 4.45-.47 17.23a1.37 1.37 0 01-2.71.15C105.14 39 97.61 27.4 93.18 23.42a1.06 1.06 0 00-.92-.23l-39.75 5.43a1.08 1.08 0 00-.51.26c-.54.51-1.72 5.17-2.76 10.3a1.31 1.31 0 01-2.6-.37z" fill="#d1a44a"/><path d="M77.41 34.32C80 34.15 100.32 30.58 106 20.5c0 0-6-17-23-20 0 0-10.46-1.7-23.2 7.7-.37.28-5.86 6.35-6.12 6.73-1.92 2.73-6.2 9.82-11.94 11.87a.3.3 0 00.06.58c5 .54 21 2 29.24-.84l-9.36 5.22a.2.2 0 00.1.38c4.14-.39 20.88-2 23.17-3.79l-7.6 5.79a.1.1 0 00.06.18z" fill="#ddae47"/><g stroke-miterlimit="10"><rect fill="#f9d0a7" height="16" rx="8" stroke="#000" stroke-width="2" width="20" x="73" y="35.5"/><rect fill="#f9d0a7" height="16" rx="8" stroke="#000" stroke-width="2" width="20" x="48" y="35.5"/><path d="M68 43.5h5" fill="none" stroke="#000" stroke-width="2"/><path d="M48.5 44l18.5-.5M74 44h18" stroke="#b79274"/></g><path d="M48 43.27a5.7 5.7 0 00.2 1.49.64.64 0 00.13.26.44.44 0 00.66-.13 1.23 1.23 0 00.14-.76 1.86 1.86 0 00-.1-.7.7.7 0 00-.51-.45.46.46 0 00-.51.51"/></symbol>
<symbol id="i-walking-right" viewBox="0 0 157 180" xmlns="http://www.w3.org/2000/svg"><path d="M48 157.5v-14h11v-10l21 3v21z" fill="#1b1464"/><path d="M36 173.5v-30h13v30z" fill="#8c6239"/><path d="M120 134.5v14H74v-15z" fill="#1b1464"/><path d="M114 148.5v-29h13v29z" fill="#8c6239"/><path d="M98 89.5l-.5 46.5h-39V91C50 76.5 20 90.5 20 90.5l-6-12c27-18 46-6 46-6l2 1h1l30.5.5 5 1s22.5 8.5 40.5-6.5l8 12s-28.79 20-49.5 11.5" fill="#fff"/><circle cx="11.5" cy="87" fill="#f9d0a7" r="9.5"/><circle cx="145.5" cy="72" fill="#f9d0a7" r="9.5"/><path d="M72.99 74l4.51 10h5l6-10z" fill="#006837"/><path d="M77.5 84l-3 41 5.59 7.34a.53.53 0 00.88 0L85.5 125l-3-41z" fill="#009245"/><path d="M72.5 74l4.42 8.07a.8.8 0 01-1.17.91L62 73.5zM83.07 82L88 74l8 .5-12.49 7.92a.32.32 0 01-.44-.42z" fill="#e6e6e6"/><ellipse cx="78.61" cy="44.64" fill="#f9d0a7" rx="32.39" ry="32.14"/><circle cx="47.95" cy="51.28" fill="#f9d0a7" r="6.45"/><path d="M97 63.73c0 2.63-3.36 4.77-7.5 4.77S82 66.36 82 63.73s3.86-1.23 8-1.23 7-1.41 7 1.23z" fill="#fff"/><path d="M110.36 39.81C109.86 34.34 109 33 108.1 28a1.09 1.09 0 00-.58-.78L84.76 15.65a1 1 0 00-.63-.11l-22.37 2.81h-10.3a1.09 1.09 0 00-.81 1.81 1.08 1.08 0 01-.24 1.64c-2 1.21-5.73 4.39-3.93 10.72a1.17 1.17 0 00.09.24c.44.8-.73 4.45.47 17.23a1.37 1.37 0 002.71.15C51.86 40 59.39 28.4 63.82 24.42a1.06 1.06 0 01.92-.23l39.75 5.43a1.08 1.08 0 01.51.26c.54.51 1.72 5.17 2.76 10.3a1.31 1.31 0 002.6-.37z" fill="#d1a44a"/><path d="M79.59 35.32C77 35.15 56.68 31.58 51 21.5c0 0 6-17 23-20 0 0 10.46-1.7 23.2 7.7.37.28 5.86 6.35 6.12 6.73 1.92 2.73 6.2 9.82 11.94 11.87a.3.3 0 01-.06.58c-5 .54-21 2-29.24-.84l9.36 5.22a.2.2 0 01-.1.38c-4.14-.39-20.88-2-23.17-3.79l7.6 5.79a.1.1 0 01-.06.18z" fill="#ddae47"/><g stroke="#000" stroke-miterlimit="10" stroke-width="2"><rect fill="#fff" height="16" rx="8" width="20" x="90" y="35.5"/><rect fill="#fff" height="16" rx="8" width="20" x="65" y="35.5"/><path d="M85 43.5h5" fill="none"/></g><circle cx="78.5" cy="43" r="1.5"/><circle cx="102.5" cy="43" r="1.5"/></symbol>
<symbol id="i-walking-right-blink" viewBox="0 0 157 180" xmlns="http://www.w3.org/2000/svg"><path d="M48 157.5v-14h11v-10l21 3v21z" fill="#1b1464"/><path d="M36 173.5v-30h13v30z" fill="#8c6239"/><path d="M120 134.5v14H74v-15z" fill="#1b1464"/><path d="M114 148.5v-29h13v29z" fill="#8c6239"/><path d="M98 89.5l-.5 46.5h-39V91C50 76.5 20 90.5 20 90.5l-6-12c27-18 46-6 46-6l2 1h1l30.5.5 5 1s22.5 8.5 40.5-6.5l8 12s-28.79 20-49.5 11.5" fill="#fff"/><circle cx="11.5" cy="87" fill="#f9d0a7" r="9.5"/><circle cx="145.5" cy="72" fill="#f9d0a7" r="9.5"/><path d="M72.99 74l4.51 10h5l6-10z" fill="#006837"/><path d="M77.5 84l-3 41 5.59 7.34a.53.53 0 00.88 0L85.5 125l-3-41z" fill="#009245"/><path d="M72.5 74l4.42 8.07a.8.8 0 01-1.17.91L62 73.5zM83.07 82L88 74l8 .5-12.49 7.92a.32.32 0 01-.44-.42z" fill="#e6e6e6"/><ellipse cx="78.61" cy="44.64" fill="#f9d0a7" rx="32.39" ry="32.14"/><circle cx="47.95" cy="51.28" fill="#f9d0a7" r="6.45"/><path d="M97 63.73c0 2.63-3.36 4.77-7.5 4.77S82 66.36 82 63.73s3.86-1.23 8-1.23 7-1.41 7 1.23z" fill="#fff"/><path d="M110.36 39.81C109.86 34.34 109 33 108.1 28a1.09 1.09 0 00-.58-.78L84.76 15.65a1 1 0 00-.63-.11l-22.37 2.81h-10.3a1.09 1.09 0 00-.81 1.81 1.08 1.08 0 01-.24 1.64c-2 1.21-5.73 4.39-3.93 10.72a1.17 1.17 0 00.09.24c.44.8-.73 4.45.47 17.23a1.37 1.37 0 002.71.15C51.86 40 59.39 28.4 63.82 24.42a1.06 1.06 0 01.92-.23l39.75 5.43a1.08 1.08 0 01.51.26c.54.51 1.72 5.17 2.76 10.3a1.31 1.31 0 002.6-.37z" fill="#d1a44a"/><path d="M79.59 35.32C77 35.15 56.68 31.58 51 21.5c0 0 6-17 23-20 0 0 10.46-1.7 23.2 7.7.37.28 5.86 6.35 6.12 6.73 1.92 2.73 6.2 9.82 11.94 11.87a.3.3 0 01-.06.58c-5 .54-21 2-29.24-.84l9.36 5.22a.2.2 0 01-.1.38c-4.14-.39-20.88-2-23.17-3.79l7.6 5.79a.1.1 0 01-.06.18z" fill="#ddae47"/><g stroke-miterlimit="10"><rect fill="#f9d0a7" height="16" rx="8" stroke="#000" stroke-width="2" width="20" x="89" y="35.5"/><rect fill="#f9d0a7" height="16" rx="8" stroke="#000" stroke-width="2" width="20" x="64" y="35.5"/><path d="M84 43.5h5" fill="none" stroke="#000" stroke-width="2"/><path d="M64.5 44l18.5-.5M90 44h18" stroke="#b79274"/></g><path d="M64 43.27a5.7 5.7 0 00.2 1.49.64.64 0 00.13.26.44.44 0 00.66-.13 1.23 1.23 0 00.14-.76 1.86 1.86 0 00-.1-.7.7.7 0 00-.51-.45.46.46 0 00-.51.51"/></symbol>
</svg>