<?xml version="1.0" encoding="UTF-8"?>
<svg version="1.1" xmlns="http://www.w3.org/2000/svg" xmlns:xlink="http://www.w3.org/1999/xlink">
<defs>

</defs>
<symbol id="i-natekelley" viewBox="0 0 336 77.75" xmlns="http://www.w3.org/2000/svg"><path d="M18 3h298v15h15v41h-13v14H18V60H3V18h15z" fill="#92cc41"/><g fill="#fff"><path d="M24.35 49.1V25.44h6.76v3.38h3.38v3.38h3.38v3.38h3.39V25.44H48V49.1h-6.74v-6.76h-3.39V39h-3.38v-3.42h-3.38V49.1zM50.45 49.1V32.2h3.38v-3.38h3.38v-3.38h10.14v3.38h3.38v3.38h3.38v16.9h-6.76v-6.76H57.21v6.76zM57.21 39h10.14v-6.8H64v-3.38h-3.41v3.38h-3.38zM86.69 49.1V28.82h-6.76v-3.38h20.28v3.38h-6.76V49.1zM102.65 49.1V25.44h23.66v3.38h-16.9v6.76h13.52V39h-13.52v6.76h16.9v3.34zM154.84 49.1V25.44h6.77v10.14H165V32.2h3.38v-3.38h3.38v-3.38h6.76v3.38h-3.38v3.38h-3.38v3.38h-3.38V39h3.38v3.38h3.38v3.38h3.38v3.34h-10.15v-3.38H165v-3.38h-3.38v6.76zM180.94 49.1V25.44h23.67v3.38H187.7v6.76h13.53V39H187.7v6.76h16.91v3.34zM210.42 49.1V25.44h6.76v20.28h13.53v3.38zM236.52 49.1V25.44h6.76v20.28h13.52v3.38zM259.24 49.1V25.44h23.66v3.38H266v6.76h13.52V39H266v6.76h16.9v3.34zM295.48 49.1V39h-3.38v-3.42h-3.38V25.44h6.76v10.14h6.76V25.44H309v10.14h-3.38V39h-3.38v10.1z"/></g></symbol>
<symbol id="i-world-grass-bucket" viewBox="0 0 126 83" xmlns="http://www.w3.org/2000/svg"><path d="M17.96 8.24L15.18 6.2-.41 36.99l3.71 1.29z" fill="#00709c"/><path d="M110.74 45.26a74.29 74.29 0 00-9.74 9.88l-3.26-39a18 18 0 014.9-.68c9.62 0 17.44 7.58 17.44 16.88 0 4.61-4.11 8.27-9.32 12.91zm-8.12-35.73a23.47 23.47 0 00-5.4.63L96.36-.11H40l10 11.2-2.87 23.44L19 24.13 18 8.24 3.3 38.28l13.24-8.71 28.62 21.26-2.9 23.93a7.8 7.8 0 007.79 7.75h44.79a7.79 7.79 0 007.78-7.75l-.81-9.76a11.25 11.25 0 00.64-1.11c2.86-5.87 7.63-10.11 12.23-14.21C120.51 44.51 126 39.62 126 32.35c0-12.58-10.49-22.82-23.38-22.82z" fill="#0082b5"/><path d="M84.2 41.2a11.51 11.51 0 11-11.51-11.51A11.51 11.51 0 0184.2 41.2z" fill="#00709c"/></symbol>
<symbol id="i-world-grass-bush1" viewBox="0 0 359 213" xmlns="http://www.w3.org/2000/svg"><path d="M287.87 97.73a48 48 0 00-4.82.24v-.24a72.21 72.21 0 00-140-24.9 56.22 56.22 0 00-67.62 40.58 38.51 38.51 0 1013.77 52.78 56.17 56.17 0 0086-5.68 72.28 72.28 0 0066.54 2.5 48.94 48.94 0 1046.13-65.28z" fill="#6eb64a"/></symbol>
<symbol id="i-world-grass-bush2" viewBox="0 0 1233 448" xmlns="http://www.w3.org/2000/svg"><path d="M1154.59 239.26a93.67 93.67 0 00-85.88-131 94.52 94.52 0 00-17.11 1.56 68.14 68.14 0 00-63.76-44.13 69.17 69.17 0 00-8.44.52 81.59 81.59 0 00-159.34 16 59.6 59.6 0 00-108.24 49 85.15 85.15 0 00-130.52 51.9l-2.32-.32q.24-3.19.24-6.45a86.56 86.56 0 00-169.83-23.63 177.69 177.69 0 00-158.93 22.66 89.49 89.49 0 00-163.08 29.09 80.33 80.33 0 00-42.11 128.45A55.34 55.34 0 10113 411h1038v-8.48a82.3 82.3 0 003.59-163.26z" fill="#5f9a3b"/></symbol>
<symbol id="i-world-grass-chicken" viewBox="0 0 115 143" xmlns="http://www.w3.org/2000/svg"><path d="M83.21 27a3 3 0 113-3 3 3 0 01-3 3zm13.25 8.67c-.17-2.38-3-2.06-3.75-3.41a5.08 5.08 0 00-.09-1.92l.08-.09c-3.53.33-1.31-3.84.88-4.83l-.08-.05s.41-3.63-2-4.47c0 0-2.46-2.7-.73-5 0 0 1.09-2 .35-2.75 0 0-1.64-.07-2.2 2.52 0 0 1-4-1.54-4.16 0 0-1.63-.38-1.13 2.55 0 0-3.08-2.62-4.4-1.36 0 0-2.82 3.36 1.75 6.76a9.08 9.08 0 00-1.92.34c-4.28 1.59-6.1 5.67-6.49 9.12-.71 6.51 6.81 10.68 11.3 8.95 1.24-.48 3.61-1.25 4.77-1.83a2.89 2.89 0 000 .71c.22 3 5.41 2.14 5.23-1.09z" fill="#ad4525"/><path d="M41.59 68.84c.23-.21.45-.43.67-.65 0-.14-.09-.28-.13-.42l-.17.08c-.12.34-.25.67-.37 1zm.54-1.07c0-.07-.05-.14-.07-.21 0 .1-.06.19-.1.29z" fill="none" stroke="#433a16" stroke-miterlimit="10"/><path d="M93.58 25.41c-1.57.71-3.16 3.06-2.62 4.21a5 5 0 014.64.15 8.92 8.92 0 01.89.16 5.63 5.63 0 00-2.91-4.52z" fill="#e5d11d"/><path d="M91 29.62c.21.45.75.72 1.74.62.23-.22 1-.74 2.9-.47a5 5 0 00-4.64-.15z" fill="#c0b11b"/><path d="M94 46.49s-.62-7.67-3-9.24l.26-.5a2.89 2.89 0 010-.71c-1.16.58-3.53 1.35-4.77 1.83C82 39.6 74.48 35.43 75.22 29c.39-3.45 2.21-7.53 6.49-9.12-3.51.94-11 4.49-15.06 17.82a104.69 104.69 0 01-4 13.26 5.68 5.68 0 019.38 2.61 5.59 5.59 0 012.48-.58 5.69 5.69 0 015.36 3.8 5.68 5.68 0 017.32.58 5.65 5.65 0 014-1.65 5.79 5.79 0 011.51.2A5.66 5.66 0 0196.9 54a5.56 5.56 0 012 .37 39 39 0 00-4.9-7.88z" fill="#fffffd"/><path d="M48.88 132.73s-7.88-1.34-7.57-1.56a18.11 18.11 0 001.48-2.39l-3 .11s.17-8.68.12-9.48a.47.47 0 00.17.07 13.78 13.78 0 01-1.28-1.13c-.29.58-.87.87-1 1.6a4.37 4.37 0 01-1.3-2 5.41 5.41 0 01-2.31-.24l.15.16s1.41 8.47 1.32 9-7.66 1.29-7.26 1.73 5.19.08 5.19.08-.1 5 3.66 4.46l7.22 7.12-3.18-6.87 7.59-.62zM63.81 134.38l5.72-.84-8.67-2.23-5.79-14.88a1.64 1.64 0 01-.37 0c-.14.29-.58.72-.87 1.15-.29-.29-.86-.14-1.15-.43V117a8.24 8.24 0 00-1.1.9l3.54 9.53s-6.48 2.45-5.48 2.47 6.5-.12 6.19.1 2.33 10.17 2.33 10.17l.58-7.43 11 6.9-6-5.31z" fill="#fbf49c"/><path d="M75.94 75.73c-10.06 8.67-29 6-33.68-7.54-.22.22-.44.44-.67.65-2.77 6.9-7.53 10.85-15.35 12.67-4.22.89-7.58-.1-11-.6a3.31 3.31 0 001.64.93s-2 13.81 4.71 18.5c0 0 1.11 7.52 10.92 9.59 0 0-.64 5.36 1.68 7.75a5.41 5.41 0 002.31.24 4.37 4.37 0 001.3 2c.14-.73.72-1 1-1.6a13.78 13.78 0 001.28 1.13c1.16.29 7.88-.23 11.45-1.66v.13a8.24 8.24 0 011.1-.9v.15c.29.29.86.14 1.15.43.29-.43.73-.86.87-1.15a1.64 1.64 0 00.37 0l-.11-.28s8.49-3.58 11.81-9.41a7.52 7.52 0 014.17-3.76s21.33.88 29.36-11.48a53.23 53.23 0 002.37-11.07c-8.28 5.28-23.49 4.43-26.68-4.68z" fill="#f2f2f2"/><path d="M101.76 62.67a5.7 5.7 0 01-6.36 2.53 5.68 5.68 0 01-8.18.18 5.68 5.68 0 01-9.36-2.15 5.66 5.66 0 01-8.79-3.09 5.59 5.59 0 01-2.48.58A5.68 5.68 0 0160.91 55v-.46c-.12.37-1 2.47-4.67 2.15 0 0-11.47.33-18.31-2.51 0 0-5.12-3.59-4.87-11.56a11.8 11.8 0 00-1-2.7c-.63.12-1.25.21-1.8.29-4.58 1.1-8.65.65-12.5 3.15C12.91 55.94 30.27 71 41.84 66.48v.29c.07.27.14.53.22.79 0 .07 0 .14.07.21s.09.28.13.42C46.9 81.7 65.88 84.4 75.94 75.73c3.19 9.11 18.4 10 26.68 4.68a52.56 52.56 0 00-.86-17.74z" fill="#fffffd"/><path d="M41.84 66.77v-.29C30.27 71 12.91 55.94 17.76 43.39a3.64 3.64 0 00-.35.24 6.14 6.14 0 01-.63 1.66s-5.86 2.37-4.68 8.37c0 0-.13.21-.32.59.56 14.16 18.81 18.54 30.22 13.6 0-.1.07-.19.1-.29-.08-.26-.15-.52-.22-.79z" fill="#e6e6e6"/><path d="M11.78 54.25c-.78 1.45-2.58 5.32-1.73 8.39a7.22 7.22 0 00-1.23 2.65C13 77.55 32 77.64 41.59 68.84c.12-.32.25-.65.37-1-11.37 4.94-29.62.56-30.18-13.6z" fill="#fffffd"/><path d="M8.82 65.29a3.57 3.57 0 00.77 3.26s-2 3.14 2 5.39c0 0 1.48 4.85 3.69 7 3.42.5 6.78 1.49 11 .6 7.82-1.82 12.58-5.77 15.35-12.67C32 77.64 13 77.55 8.82 65.29zM101.71 62.74a5.69 5.69 0 01-6.31 2.46 5.68 5.68 0 01-8.18.18 5.68 5.68 0 01-9.36-2.15 5.66 5.66 0 01-8.79-3.09 5.59 5.59 0 01-2.48.58 5.69 5.69 0 01-5.68-5.52q-.18.33-.36.63v.53a5.78 5.78 0 008.3 5.2 5.79 5.79 0 008.94 3.15 5.77 5.77 0 009.52 2.18 5.77 5.77 0 008.32-.19 5.89 5.89 0 001.53.21 5.79 5.79 0 004.94-2.79c-.11-.46-.23-.92-.35-1.38z" fill="#e6e6e6"/><path d="M98.91 54.41a5.56 5.56 0 00-2-.37 5.66 5.66 0 00-4.17 1.83 5.79 5.79 0 00-1.51-.2 5.65 5.65 0 00-4 1.65 5.68 5.68 0 00-7.32-.58 5.69 5.69 0 00-5.36-3.8 5.59 5.59 0 00-2.48.58 5.68 5.68 0 00-9.38-2.61 23.85 23.85 0 01-1.69 3.6.32.32 0 000 .06v.63a5.69 5.69 0 005.68 5.52 5.59 5.59 0 002.48-.58 5.66 5.66 0 008.79 3.09 5.68 5.68 0 009.36 2.15 5.68 5.68 0 008.18-.18 5.69 5.69 0 006.31-2.46l.05-.07A41.52 41.52 0 0099 54.41z" fill="#f2f2f2"/><path d="M86.92 24.36a3.71 3.71 0 11-3.71-3.71 3.71 3.71 0 013.71 3.71z" fill="#973c1d"/><path d="M83.21 22.12c.83 0 1.5.42 1.5.94s-.71.94-1.5.94-1.49-.42-1.49-.94.67-.94 1.49-.94zm0 4.87a3 3 0 10-3-3 3 3 0 003 3z" fill="#231f20"/><path d="M83.21 24c.83 0 1.5-.42 1.5-.94s-.67-.94-1.5-.94-1.49.42-1.49.94.67.94 1.49.94z" fill="#828487"/></symbol>
<symbol id="i-world-grass-cloud" viewBox="0 0 182 123" xmlns="http://www.w3.org/2000/svg"><path d="M30 123h123s21 1 27-29c0 0 2-28-32-31 0 0 11-46-32-60 0 0-31-8-50 22 0 0-38-11-36 28 0 0-30 4-30 35 0 0-3 28 30 35z" fill="#fefefe"/></symbol>
<symbol id="i-world-grass-coolstuff" viewBox="0 0 195 154" xmlns="http://www.w3.org/2000/svg"><rect fill="#fff" height="96.9" rx="12" stroke="#1a1a1a" stroke-miterlimit="10" stroke-width="6" transform="matrix(.94 -.35 .35 .94 -21.39 41.03)" width="144.71" x="30.11" y="31.05"/><g fill="#0f0f0f"><path d="M77.79 78.47a10.76 10.76 0 01-5.69 4.86 10.52 10.52 0 110-19.78c2 .67 3.18 1.67 3.63 2.91a3.31 3.31 0 01-2 4.23 3 3 0 01-2.22-.06L70.29 70a3.93 3.93 0 10-.48 7.2 4.08 4.08 0 002.32-2.24l.41-.91a3.27 3.27 0 011.82-1.68 3.39 3.39 0 014.21 1.93c.43 1.09.13 2.53-.78 4.17zM85.15 56.28a10.52 10.52 0 11-6.4 13.35 10.51 10.51 0 016.4-13.35zm4.93 13.61a4 4 0 002.36-5.06A3.93 3.93 0 0085 67.47a4 4 0 005.08 2.42zM106.88 48.45a10.52 10.52 0 11-6.4 13.36 10.53 10.53 0 016.4-13.36zm4.94 13.62a4 4 0 002.36-5.07 3.94 3.94 0 00-7.42 2.63 4 4 0 005.06 2.44zM133.36 54.16a3.7 3.7 0 012.41-.23 3.09 3.09 0 012 1.89 3.34 3.34 0 01-.16 2.58 3.3 3.3 0 01-2 1.53l-5.94 2.14a3.36 3.36 0 01-3 0c-1.06-.57-1.3-1-2.24-3.56l-3.82-10.63c-.77-2.12 0-3.95 1.81-4.62a3.37 3.37 0 012.84.26c.84.56 1.19 1.07 1.83 2.85l3.21 8.94zM72.6 116.06a3 3 0 011.81-3.85 3.53 3.53 0 012.54.12c1.73.55 1.94.6 2.39.44a.81.81 0 00.5-1.1.94.94 0 00-.77-.62 5.54 5.54 0 00-1.44-.09h-1.72c-3.08 0-5.08-1.26-6-3.89-1.32-3.68.6-7.21 4.7-8.69 3.39-1.22 6.7-.37 7.53 2a2.57 2.57 0 01-1.5 3.45 4.28 4.28 0 01-3-.15c-.84-.3-1.2-.33-1.54-.21a.79.79 0 00-.47 1c.2.57.69.68 2.33.63a12.87 12.87 0 014.73.53 6.24 6.24 0 013.49 3.76 6.86 6.86 0 01-.17 5.14 7.46 7.46 0 01-4.6 3.79c-4 1.41-7.84.42-8.81-2.26zM88.19 100.55a3.19 3.19 0 01-2.64 0 3.1 3.1 0 01-1.62-1.74 3.16 3.16 0 01.67-3.18c.55-.52.8-.64 3.25-1.53l6.28-2.25a11.47 11.47 0 012.14-.71 3 3 0 013.56 1.91 3.28 3.28 0 01-.21 2.6 3.66 3.66 0 01-2.16 1.54l-1.38.5 3.37 9.39a4.39 4.39 0 01.33 2.59 3.14 3.14 0 01-2.06 2.33 3.34 3.34 0 01-3-.37 4.16 4.16 0 01-1.43-2.27L89.86 100zM110.77 98.27c.49 1.35 1.4 2 2.48 1.56s1.41-1.4.94-2.7l-2.71-7.52c-.5-1.39-.54-1.85-.21-2.73a3.26 3.26 0 012-2 3.51 3.51 0 012.84.25c.85.49 1.19 1 1.8 2.71l2.42 6.69a8.87 8.87 0 01.14 6.63 8.35 8.35 0 01-12.56 3.94c-1.73-1.16-2.58-2.36-3.47-4.85L102 93.56c-.64-1.78-.69-2.27-.41-3.17a3.32 3.32 0 014.67-1.94 3.66 3.66 0 011.81 2.38zM130.28 95.36c.66 1.84.74 2.23.55 3.12a3.28 3.28 0 01-5.38 1.75c-.59-.59-.78-.93-1.4-2.66l-3.92-10.88c-.6-1.67-.54-2.65.22-3.66a3.64 3.64 0 011.33-1 16.06 16.06 0 011.62-.64L127 80c2-.73 2.45-.82 3.31-.65a2.93 2.93 0 012.18 1.9 3.06 3.06 0 01-2.27 4.17l-3.13 1.13.46 1.3 1.93-.69a3.74 3.74 0 012.14-.36 2.27 2.27 0 011.71 1.49c.53 1.47-.13 2.64-1.92 3.28l-2.23.8zM144.38 90.28c.66 1.84.74 2.23.55 3.13a3.26 3.26 0 01-5.37 1.74c-.6-.58-.79-.93-1.41-2.66l-3.91-10.88c-.61-1.67-.54-2.65.21-3.65a3.54 3.54 0 011.33-1c.24-.12.8-.35 1.62-.65l3.73-1.31c2-.74 2.45-.82 3.31-.65a2.88 2.88 0 012.18 1.89 3.42 3.42 0 01-.16 2.65 3.38 3.38 0 01-2.1 1.52l-3.14 1.13.47 1.3 1.92-.69a3.71 3.71 0 012.14-.35 2.29 2.29 0 011.72 1.48c.52 1.47-.14 2.64-1.92 3.28l-2.24.81z"/></g></symbol>
<symbol id="i-world-grass-coolstuffall" viewBox="0 0 254 167" xmlns="http://www.w3.org/2000/svg"><rect fill="#fff" height="96.9" rx="12" stroke="#1a1a1a" stroke-miterlimit="10" stroke-width="6" transform="rotate(-20.55 106.491 79.5)" width="144.71" x="34.11" y="31.05"/><g fill="#0f0f0f"><path d="M81.79 78.47a10.76 10.76 0 01-5.69 4.86 10.52 10.52 0 110-19.78c2 .67 3.18 1.67 3.63 2.91a3.31 3.31 0 01-2 4.23 3 3 0 01-2.22-.06L74.29 70a3.93 3.93 0 10-.48 7.2 4.08 4.08 0 002.32-2.24l.41-.91a3.27 3.27 0 011.82-1.68 3.39 3.39 0 014.21 1.93c.43 1.09.13 2.53-.78 4.17zM89.15 56.28a10.52 10.52 0 11-6.4 13.35 10.51 10.51 0 016.4-13.35zm4.93 13.61a4 4 0 002.36-5.06A3.93 3.93 0 0089 67.47a4 4 0 005.08 2.42zM110.88 48.45a10.52 10.52 0 11-6.4 13.36 10.53 10.53 0 016.4-13.36zm4.94 13.62a4 4 0 002.36-5.07 3.94 3.94 0 00-7.42 2.63 4 4 0 005.06 2.44zM137.36 54.16a3.7 3.7 0 012.41-.23 3.09 3.09 0 012 1.89 3.34 3.34 0 01-.16 2.58 3.3 3.3 0 01-2 1.53l-5.94 2.14a3.36 3.36 0 01-3 0c-1.06-.57-1.3-1-2.24-3.56l-3.82-10.63c-.77-2.12 0-3.95 1.81-4.62a3.37 3.37 0 012.84.26c.84.56 1.19 1.07 1.83 2.85l3.21 8.94zM76.6 116.06a3 3 0 011.81-3.85 3.53 3.53 0 012.54.12c1.73.55 1.94.6 2.39.44a.81.81 0 00.5-1.1.94.94 0 00-.77-.62 5.54 5.54 0 00-1.44-.09h-1.72c-3.08 0-5.08-1.26-6-3.89-1.32-3.68.6-7.21 4.7-8.69 3.39-1.22 6.7-.37 7.53 2a2.57 2.57 0 01-1.5 3.45 4.28 4.28 0 01-3-.15c-.84-.3-1.2-.33-1.54-.21a.79.79 0 00-.47 1c.2.57.69.68 2.33.63a12.87 12.87 0 014.73.53 6.24 6.24 0 013.49 3.76 6.86 6.86 0 01-.17 5.14 7.46 7.46 0 01-4.6 3.79c-4 1.41-7.84.42-8.81-2.26zM92.19 100.55a3.19 3.19 0 01-2.64 0 3.1 3.1 0 01-1.62-1.74 3.16 3.16 0 01.67-3.18c.55-.52.8-.64 3.25-1.53l6.28-2.25a11.47 11.47 0 012.14-.71 3 3 0 013.56 1.91 3.28 3.28 0 01-.21 2.6 3.66 3.66 0 01-2.16 1.54l-1.38.5 3.37 9.39a4.39 4.39 0 01.33 2.59 3.14 3.14 0 01-2.06 2.34 3.34 3.34 0 01-3-.37 4.16 4.16 0 01-1.43-2.27L93.86 100zM114.77 98.27c.49 1.35 1.4 2 2.48 1.56s1.41-1.4.94-2.7l-2.71-7.52c-.5-1.39-.54-1.85-.21-2.73a3.26 3.26 0 012-2 3.51 3.51 0 012.84.25c.85.49 1.19 1 1.8 2.71l2.42 6.69a8.87 8.87 0 01.14 6.63 8.35 8.35 0 01-12.56 3.94c-1.73-1.16-2.58-2.36-3.47-4.85L106 93.56c-.64-1.78-.69-2.27-.41-3.17a3.32 3.32 0 014.67-1.94 3.66 3.66 0 011.81 2.38zM134.28 95.36c.66 1.84.74 2.23.55 3.12a3.28 3.28 0 01-5.38 1.75c-.59-.59-.78-.93-1.4-2.66l-3.92-10.88c-.6-1.67-.54-2.65.22-3.66a3.64 3.64 0 011.33-1 16.06 16.06 0 011.62-.64L131 80c2-.73 2.45-.82 3.31-.65a2.93 2.93 0 012.18 1.9 3.06 3.06 0 01-2.27 4.17l-3.13 1.13.46 1.3 1.93-.69a3.74 3.74 0 012.14-.36 2.27 2.27 0 011.71 1.49c.53 1.47-.13 2.64-1.92 3.28l-2.23.8zM148.38 90.28c.66 1.84.74 2.23.55 3.13a3.26 3.26 0 01-5.37 1.74c-.6-.58-.79-.93-1.41-2.66l-3.91-10.88c-.61-1.67-.54-2.65.21-3.65a3.54 3.54 0 011.33-1c.24-.12.8-.35 1.62-.65l3.73-1.31c2-.74 2.45-.82 3.31-.65a2.88 2.88 0 012.18 1.89 3.42 3.42 0 01-.16 2.65 3.38 3.38 0 01-2.1 1.52l-3.14 1.13.47 1.3 1.92-.69a3.71 3.71 0 012.14-.35 2.29 2.29 0 011.72 1.48c.52 1.47-.14 2.64-1.92 3.28l-2.24.81z"/></g><path d="M162.87 77.21l2.4-1.27.51-.17a5.76 5.76 0 016.85 2.69c1.07 1.91 2.1 3.85 3.14 5.78.92 1.68 1.83 3.37 2.74 5.05l.2.34.18-.08 3-1.63a9.81 9.81 0 011.29-.66 4.2 4.2 0 014.53.9l.18.16h.08l3.08-1.67a15.11 15.11 0 011.44-.75 4.26 4.26 0 014.67 1l.18.17.2-.1 3.21-1.74a6.55 6.55 0 011.2-.56 4.29 4.29 0 015 2.08l2.87 5.29q1.59 2.96 3.18 5.9a1.7 1.7 0 00.15.22l2.3 4.31c0 .13.09.26.12.39.07.41.16.81.2 1.22.15 1.29.27 2.58.41 3.87q1 9.43 2 18.89a1.62 1.62 0 010 .44 4.21 4.21 0 01-2.11 2.92c-1.2.67-2.41 1.31-3.62 2l-4.9 2.66-5.88 3.14-3.12 1.7a1.58 1.58 0 00-.15.12l-2.74 1.46h-.19a4.3 4.3 0 01-5.31-2.09l-2.85-5.19a2 2 0 00-.74-.77l-9.31-5.69-13.8-8.43a5.72 5.72 0 01-1.8-1.73c-.09-.13-.2-.25-.3-.38l-.09-.17c-.05-.16-.09-.31-.15-.46a5.69 5.69 0 01.19-4.84c.36-.73.76-1.44 1.18-2.14a5.52 5.52 0 013.3-2.53 5.62 5.62 0 014.48.51c1.14.62 2.27 1.26 3.4 1.89l.23.11a.57.57 0 00-.08-.24L172 105.7l-3.54-6.53q-1.32-2.44-2.66-4.89l-3.3-6.1c-.43-.8-.88-1.61-1.31-2.42a10.75 10.75 0 01-.87-1.85 5.8 5.8 0 012-6.3zm17.53 15.55l.07.16 2.29 4.21 1.68 3.09c.28.51.56 1 .82 1.52a1.75 1.75 0 01-2.75 2.09 2.38 2.38 0 01-.48-.66q-1.82-3.32-3.61-6.65l-2.58-4.75-3.62-6.67q-1.32-2.46-2.66-4.9a2.22 2.22 0 00-3-.92l-1.26.68a7.22 7.22 0 00-.77.43 2.27 2.27 0 00-.64 3l1.84 3.38 2.49 4.57q1.77 3.28 3.55 6.55l2.64 4.88 3.17 5.83 1.84 3.41c.23.44.47.88.71 1.32a1.45 1.45 0 010 1.44 1.77 1.77 0 01-2.43.79l-.2-.11-1.69-1-7.21-4a2.24 2.24 0 00-3.14.89l-.96 1.66a2.26 2.26 0 00.85 3.1L189 130.36a2.56 2.56 0 01.95 1l2.91 5.38c.18.32.35.64.53.95a.71.71 0 00.78.34 1.79 1.79 0 00.32-.13l3.7-2 4.62-2.5 6.65-3.61 4.82-2.61a.71.71 0 00.44-.86q-.94-9-1.9-18c-.12-1.16-.24-2.32-.37-3.48a3.53 3.53 0 00-.4-1.33q-1.2-2.19-2.38-4.38-2.24-4.11-4.46-8.24c-.42-.77-.84-1.53-1.24-2.3a.81.81 0 00-1.2-.35c-.33.2-.68.38-1 .56l-2.43 1.32-.16.11a1.59 1.59 0 00.08.18l1 1.89c.47.86.94 1.72 1.4 2.58a8.13 8.13 0 01.56 1.1 1.73 1.73 0 01-1.93 2.29 1.79 1.79 0 01-1.31-1L195.54 91l-.79-1.48a.74.74 0 00-.75-.42 1.07 1.07 0 00-.39.14l-3.73 2a1.36 1.36 0 00-.17.12 2.42 2.42 0 00.12.23l2.56 4.72c.42.78.85 1.54 1.25 2.33a1.75 1.75 0 01-3.11 1.61c-.44-.76-.85-1.54-1.27-2.31-1-1.8-1.95-3.61-2.92-5.41l-.92-1.66a.73.73 0 00-1-.32l-.22.11-3.57 2z"/><path d="M180.4 92.76l.2-.12 3.57-2 .22-.11a.73.73 0 011 .32l.92 1.66c1 1.8 1.94 3.61 2.92 5.41.42.77.83 1.55 1.27 2.31a1.75 1.75 0 003.11-1.61c-.4-.79-.83-1.55-1.25-2.33l-2.56-4.72a2.42 2.42 0 01-.12-.23 1.36 1.36 0 01.17-.12l3.73-2a1.07 1.07 0 01.39-.14.74.74 0 01.75.42l.79 1.48 3.4 6.26a1.79 1.79 0 001.31 1 1.73 1.73 0 001.93-2.29 8.13 8.13 0 00-.56-1.1c-.46-.86-.93-1.72-1.4-2.58l-1-1.89a1.59 1.59 0 01-.08-.18l.16-.11 2.43-1.32c.34-.18.69-.36 1-.56a.81.81 0 011.2.35c.4.77.82 1.53 1.24 2.3q2.24 4.13 4.46 8.24l2.38 4.38a3.53 3.53 0 01.4 1.33c.13 1.16.25 2.32.37 3.48q.94 9 1.9 18a.71.71 0 01-.44.86l-4.82 2.61-6.65 3.61-4.62 2.5-3.7 2a1.79 1.79 0 01-.32.13.71.71 0 01-.78-.34c-.18-.31-.35-.63-.53-.95l-2.91-5.38a2.56 2.56 0 00-.95-1l-23.58-14.23a2.26 2.26 0 01-.85-3.1l.93-1.68a2.24 2.24 0 013.14-.89l7.21 4 1.69 1 .2.11a1.77 1.77 0 002.43-.79 1.45 1.45 0 000-1.44c-.24-.44-.48-.88-.71-1.32l-1.84-3.41-3.17-5.83-2.64-4.88q-1.78-3.27-3.55-6.55l-2.49-4.57-1.84-3.38a2.27 2.27 0 01.64-3 7.22 7.22 0 01.77-.43l1.26-.68a2.22 2.22 0 013 .92q1.33 2.44 2.66 4.9l3.62 6.67 2.58 4.75q1.8 3.33 3.61 6.65a2.38 2.38 0 00.48.66 1.75 1.75 0 002.75-2.09c-.26-.51-.54-1-.82-1.52l-1.68-3.09-2.29-4.21z" fill="#fff"/></symbol>
<symbol id="i-world-grass-coral1" viewBox="0 0 685 518" xmlns="http://www.w3.org/2000/svg"><path d="M685 368v150H485v-50.43h-49.93V218.14h-200v100.3h49.67v193.09c0 2.16.18 4.31.27 6.47H85a14.77 14.77 0 00.26-2v-94.86a18.73 18.73 0 00-.52-3.17H35V118h50.37V68H185V18h300v50.39h99.87v50H635V368z" fill="#184087"/></symbol>
<symbol id="i-world-grass-coral2" viewBox="0 0 494 617" xmlns="http://www.w3.org/2000/svg"><path d="M481.87 318v298.89H33.37V392.75h75.26V93.81h74.24V19h149.5a33 33 0 00-.39 3.69v140.39c0 1.68.22 3.35.39 5.94h74.73V318z" fill="#184087"/></symbol>
<symbol id="i-world-grass-coral3" viewBox="0 0 998 645" xmlns="http://www.w3.org/2000/svg"><g fill="#184087"><path d="M54 480.55h589.03V645H54z"/><path d="M989.87 346v298.89h-448.5V420.75h75.26V121.81h74.24V47h149.5a33 33 0 00-.39 3.69v140.39c0 1.68.22 3.35.39 5.94h74.73V346zM107 360h97v204h-97z"/></g></symbol>
<symbol id="i-world-grass-deer" viewBox="0 0 206 254" xmlns="http://www.w3.org/2000/svg"><path d="M60.75 48.17q0-.77-.06-1.53a24.73 24.73 0 006.66-17v-6.39a2 2 0 00-2-1.95 2 2 0 00-1.93 2v6.36a21 21 0 01-3.79 12.06A18.89 18.89 0 0041.9 29.3a15 15 0 01-12.7-7.09 9.43 9.43 0 007.59-6.82A1.92 1.92 0 0034.93 13h-.07A1.93 1.93 0 0033 14.41a5.52 5.52 0 01-5.28 4h-.19a15.07 15.07 0 01-.53-4.02V13a2 2 0 10-4 0v1.42A19.07 19.07 0 0024.22 21a.76.76 0 00.08.21 19.1 19.1 0 002.59 4.6h-4.07a7 7 0 01-7-7 2 2 0 10-3.92 0 10.93 10.93 0 0010.92 10.91h8.1a18.77 18.77 0 0011 3.52 14.89 14.89 0 0114.84 15v13.03h3.92v-13.1zM84.18 61.19v-13A14.91 14.91 0 0199 33.22a18.77 18.77 0 0011-3.52h8.1a10.93 10.93 0 0010.92-10.92 2 2 0 10-3.92 0 7 7 0 01-7 7h-4a19.41 19.41 0 002.58-4.6 2 2 0 00.09-.22 19 19 0 001.23-6.59V13a2 2 0 00-2-2 2 2 0 00-2 2v1.36a14.31 14.31 0 01-.57 4.05h-.19a5.5 5.5 0 01-5.28-4 1.93 1.93 0 00-1.86-1.46h-.07a1.94 1.94 0 00-1.86 2.44 9.37 9.37 0 007.59 6.82 15 15 0 01-12.7 7.09 18.88 18.88 0 00-17.7 12.42 20.88 20.88 0 01-3.8-12.06V23.3a2 2 0 10-3.92-.07v6.43a24.8 24.8 0 006.66 17q-.06.77-.06 1.53v13.1h3.92v-.06z" fill="#ad966e"/><path d="M175.9 126.26a12.36 12.36 0 000-17.5l-14.56 14.57a38.19 38.19 0 0110.66 6.89z" fill="#5a5138"/><path d="M122.07 172.35a34.29 34.29 0 0032.1 22.24v43.13l-4 6.45h10.39l3.94-6.41h-9.12H167l-4.58-10.07 1.59-34.24a9.92 9.92 0 00-9.9-10.39v-6a35.34 35.34 0 01-2.16-4.67zM63.51 172.33v65.37l-4 6.44H70l4-6.4h-9.12H76.4l-4.6-10.14 2.39-55.21h-9.83a6.07 6.07 0 01-.85 0z" fill="#49412e"/><path d="M105.93 120.28A20.18 20.18 0 0087.36 108h-.44V79.4a16.38 16.38 0 01-8.34 14.29v3.56h-16.2v-3.56a16.43 16.43 0 01-8.33-14.29v82.69a10.28 10.28 0 009.44 10.24h27.73v65.37l-4 6.44h10.45l3.94-6.4h-9.12 11.62l-4.6-10.14 2.4-55.21h5.64v-44.18a20.14 20.14 0 00-1.62-7.93z" fill="#5a5138"/><path d="M102.22 46a15.3 15.3 0 00-15.3 15.31A15.32 15.32 0 00102.22 46z" fill="#6b5a40"/><path d="M62.4 93.67v-2.61a8.1 8.1 0 1116.2 0v2.61a16.42 16.42 0 008.34-14.29V61.25H54.07a15.3 15.3 0 00-15.31-15.31 15.3 15.3 0 0015.31 15.31v18.13a16.43 16.43 0 008.33 14.29zm18-26.1a6 6 0 11-6 6 6 6 0 015.98-6zm-25.74 6a6 6 0 116 6 6 6 0 01-6.02-6.02z" fill="#6b5a40"/><path d="M70.5 83a8.1 8.1 0 00-8.1 8.1v6.17h16.2v-6.21A8.1 8.1 0 0070.5 83zm3.57 1.87L70.5 87.9l-3.56-3.07z" fill="#ad966e"/><path d="M66.6 73.55a6 6 0 10-6 6 6 6 0 006-6zm-7.95 0a2 2 0 112 2 2 2 0 01-2-2z" fill="#5a5138"/><path d="M62.6 73.55a2 2 0 10-2 2 2 2 0 002-2z" fill="#322e20"/><path d="M80.38 79.53a6 6 0 10-6-6 6 6 0 006 6zm0-8a2 2 0 11-2 2 2 2 0 012-1.96z" fill="#5a5138"/><g fill="#322e20"><path d="M80.38 75.52a2 2 0 10-2-2 2 2 0 002 2zM74.07 84.83h-7.13l3.56 3.09zM83.35 250.55h10.37l4-6.45H87.3z"/></g><path d="M192 237.7h5l-4.58-10.07 1.58-34.25a9.93 9.93 0 00-9.9-10.38v-25.09a37.63 37.63 0 00-37.64-37.63h-40.53a20.14 20.14 0 011.62 7.93v44.14H152a35.34 35.34 0 002.16 4.67 34.3 34.3 0 0029.94 17.57v43.13l-4 6.45h10.38l3.95-6.41h-9.12H192z" fill="#6b5a40"/></symbol>
<symbol id="i-world-grass-educationbanner" viewBox="0 0 712 135" xmlns="http://www.w3.org/2000/svg"><path d="M562.54 104.85s59 4.8 139.68 23.15l-32.33-40.48 32.33-13.87S639.31 50.3 562.54 46.6z" fill="#ea212d"/><path d="M613.28 90.92l-50.75 13.93V70.18l34.52 5.09z" fill="#9c0f17"/><path d="M144.62 104.85S85.67 109.65 4.93 128l32.33-40.48L4.93 73.65S67.84 50.3 144.62 46.6z" fill="#ea212d"/><path d="M93.88 90.92l50.74 13.93V70.18l-34.52 5.09z" fill="#9c0f17"/><path d="M613.28 90.92a1168.67 1168.67 0 00-519.66 0V33.23a1169 1169 0 01519.66 0z" fill="#ea212d"/><g fill="#fff"><path d="M278.32 41.15c1.85-.14 2.68 0 3.62.7a4 4 0 011.62 2.91A4.19 4.19 0 01282.4 48c-.8.75-1.52 1-3.45 1.15l-6.61.49a8.31 8.31 0 01-3.27-.11 3.91 3.91 0 01-2.67-2.91 10.29 10.29 0 01-.34-2.54l-1-14c-.16-2.16-.14-2.43.15-3.27a3.84 3.84 0 011.89-2.28c.94-.45 1.13-.51 3.64-.69l5.1-.38a11.17 11.17 0 013.26-.05 3.79 3.79 0 013.21 3.49 4.06 4.06 0 01-1.16 3.23 4.52 4.52 0 01-3.18 1.17l-4.25.32.13 1.78 3.37-.25c2.08-.16 3.53 1 3.66 2.79a3.19 3.19 0 01-.94 2.52 3.77 3.77 0 01-2.58.85l-3.05.23.14 1.93zM295.37 22.17a13.26 13.26 0 019.54 2.75 12.88 12.88 0 014.8 9.35 12.89 12.89 0 01-9.49 13.19 26.31 26.31 0 01-4.36.55l-3.59.21c-2 .11-2.83 0-3.64-.49a3.8 3.8 0 01-1.91-2.22 10.53 10.53 0 01-.31-2.78l-.81-14.19c-.12-2.16-.13-2.4 0-3 .51-1.89 2-2.95 4.52-3.09zm-.58 17.95c2.94-.2 3.63-.36 4.6-1.11a5.2 5.2 0 001.85-4.22 5 5 0 00-3-4.29 7.19 7.19 0 00-3.31-.36h-.7zM321.54 35.94c.07 1.86 1 3 2.43 2.89s2.28-1.17 2.22-2.95l-.39-10.29c-.07-1.9.07-2.49.81-3.45a4.24 4.24 0 013.23-1.74 4.48 4.48 0 013.38 1.42c.85.94 1.08 1.71 1.16 4l.34 9.17c.13 3.49-.63 6-2.41 8.19a10.78 10.78 0 01-17-.06c-1.67-2.11-2.24-3.91-2.36-7.32l-.34-9.1c-.09-2.44 0-3.06.74-4.06a4.57 4.57 0 013.31-1.79 4.51 4.51 0 013.18 1.24c.89.86 1.23 1.82 1.3 3.64zM360.67 43.05a13.9 13.9 0 01-9 3.55A13.56 13.56 0 11360 22.49c2.12 1.63 3.19 3.36 3.22 5.06a4.27 4.27 0 01-4.22 4.33 3.86 3.86 0 01-2.69-1l-1.26-1.34a5.06 5.06 0 10-3.58 8.58 5.19 5.19 0 003.76-1.77l.88-.94a4.22 4.22 0 012.92-1.28 4.36 4.36 0 014.33 4.11c.04 1.55-.9 3.19-2.69 4.81zM369.27 46a4.19 4.19 0 01-4.19-4.29 5.12 5.12 0 01.56-2.24l8.21-17.1a4.26 4.26 0 013.93-2.53 4.34 4.34 0 014 2.62l8 17.41a4.33 4.33 0 01.49 2.06 4.28 4.28 0 01-4.33 4.19c-2 0-3.13-1-4.31-3.6l-7.9-.05C372.61 45 371.32 46 369.27 46zm9.73-9.68l-1.29-3.11-1.34 3.09zM393 28.12a4.15 4.15 0 01-3.18-1.21 4 4 0 01-1.13-2.85 4.09 4.09 0 012.3-3.51c.9-.36 1.25-.39 4.62-.31l8.6.23a16.72 16.72 0 012.9.15 3.87 3.87 0 013.39 4 4.29 4.29 0 01-1.48 3 4.72 4.72 0 01-3.31.84l-1.9-.05-.34 12.86a5.63 5.63 0 01-.82 3.27 4 4 0 01-3.57 1.85 4.28 4.28 0 01-3.48-1.88 5.3 5.3 0 01-.65-3.38l.34-12.94zM421.24 42.25a4.72 4.72 0 01-1.24 3.44 4.33 4.33 0 01-6.35-.19 4.61 4.61 0 01-.93-3.61l.68-16c.09-2.17.32-2.94 1.25-3.87a4.1 4.1 0 013.19-1.25 4.27 4.27 0 013.16 1.51c.81 1 1 1.9.95 4zM439.4 21.5A13.56 13.56 0 11425 34a13.56 13.56 0 0114.4-12.5zm-1.15 18.64a5.12 5.12 0 005.39-4.78 5.07 5.07 0 00-10.12-.69 5.13 5.13 0 004.73 5.47zM470.7 29.66a5.11 5.11 0 011.08-3.28 4.21 4.21 0 016.75.31 4.89 4.89 0 01.68 3.49l-1.47 15.74c-.19 2-.46 2.87-1.28 3.77A4.21 4.21 0 01473 51a4.07 4.07 0 01-3.19-2.05l-5.91-9.23-.51 5.4a4.64 4.64 0 01-1.28 3.31 4.3 4.3 0 01-3.42 1.24 4.37 4.37 0 01-3.24-2c-.6-1-.72-1.82-.55-3.71l1.52-16.28a4.26 4.26 0 014.86-4.13 3.84 3.84 0 013 2l6 8.92z"/></g></symbol>
<symbol id="i-world-grass-garden" viewBox="0 0 244 80" xmlns="http://www.w3.org/2000/svg"><circle cx="42.39" cy="26.67" fill="#f29224" r="12.5"/><circle cx="95.57" cy="26.67" fill="#ea5d4a" r="12.5"/><circle cx="148.75" cy="26.67" fill="#f29224" r="12.5"/><circle cx="201.93" cy="26.67" fill="#ea5d4a" r="12.5"/><path d="M22.86 38.73h198.6v29.3H22.86z" fill="#613a14"/><g fill="#764f1f"><path d="M.1 55.97h244.12v24.12H.1zM.1 26.67h244.12v24.12H.1z"/><path d="M15.62 9.36H30.1v70.73H15.62zM65.27 9.36h14.48v70.73H65.27zM114.92 9.36h14.48v70.73h-14.48zM164.57 9.36h14.48v70.73h-14.48zM214.22 9.36h14.48v70.73h-14.48z"/></g></symbol>
<symbol id="i-world-grass-hand" viewBox="0 0 96 77" xmlns="http://www.w3.org/2000/svg"><path d="M23.87 8.21l2.4-1.27.51-.17a5.76 5.76 0 016.85 2.69c1.07 1.91 2.1 3.85 3.14 5.78.92 1.68 1.83 3.37 2.74 5l.2.34.18-.08 3-1.63a9.81 9.81 0 011.29-.66 4.2 4.2 0 014.53.9l.18.16h.08l3.08-1.67a15.11 15.11 0 011.44-.75 4.26 4.26 0 014.67 1.05l.18.17.2-.1 3.21-1.74a6.55 6.55 0 011.2-.56 4.29 4.29 0 015 2.08l2.87 5.29Q72.41 26 74 28.94a1.7 1.7 0 00.15.22l2.3 4.31c0 .13.09.26.12.39.07.41.16.81.2 1.22.15 1.29.27 2.58.41 3.87l2 18.89a1.62 1.62 0 010 .44 4.21 4.21 0 01-2.11 2.92c-1.2.67-2.41 1.31-3.62 2l-4.9 2.66L62.67 69l-3.12 1.7a1.58 1.58 0 00-.15.12l-2.74 1.46h-.19a4.3 4.3 0 01-5.31-2.09L48.31 65a2 2 0 00-.74-.77l-9.31-5.69-13.8-8.43a5.72 5.72 0 01-1.8-1.73c-.09-.13-.2-.25-.3-.38l-.09-.17c-.05-.16-.09-.31-.15-.46a5.69 5.69 0 01.19-4.84c.36-.73.76-1.44 1.18-2.14a5.52 5.52 0 013.3-2.53 5.62 5.62 0 014.48.51c1.14.62 2.27 1.26 3.4 1.89l.23.11a.57.57 0 00-.08-.24L33 36.7l-3.54-6.53q-1.32-2.45-2.66-4.89l-3.3-6.1c-.43-.8-.88-1.61-1.31-2.42a10.75 10.75 0 01-.87-1.85 5.8 5.8 0 012-6.3zM41.4 23.76l.07.16 2.29 4.21 1.68 3.09c.28.51.56 1 .82 1.52a1.75 1.75 0 01-2.75 2.09 2.38 2.38 0 01-.48-.66q-1.81-3.32-3.61-6.65l-2.58-4.75-3.62-6.67q-1.32-2.46-2.66-4.9a2.22 2.22 0 00-3-.92l-1.29.72a7.22 7.22 0 00-.77.43 2.27 2.27 0 00-.64 3l1.84 3.38 2.49 4.57q1.81 3.22 3.55 6.48l2.64 4.88 3.17 5.83L40.39 43c.23.44.47.88.71 1.32a1.45 1.45 0 010 1.44 1.77 1.77 0 01-2.43.79l-.2-.11-1.69-1-7.21-4a2.24 2.24 0 00-3.14.89L25.5 44a2.26 2.26 0 00.85 3.1L50 61.36a2.56 2.56 0 01.95 1l2.91 5.38c.18.32.35.64.53 1a.71.71 0 00.78.34 1.79 1.79 0 00.32-.13l3.7-2 4.62-2.5 6.65-3.61 4.82-2.61a.71.71 0 00.44-.86l-1.9-18c-.12-1.16-.24-2.32-.37-3.48a3.53 3.53 0 00-.4-1.33q-1.2-2.19-2.38-4.38-2.27-4.18-4.5-8.34c-.42-.77-.84-1.53-1.24-2.3a.81.81 0 00-1.2-.35c-.33.2-.68.38-1 .56l-2.43 1.32-.16.11a1.59 1.59 0 00.08.18l1 1.89c.47.86.94 1.72 1.4 2.58a8.13 8.13 0 01.56 1.1 1.73 1.73 0 01-1.93 2.29 1.79 1.79 0 01-1.31-.95L56.54 22l-.79-1.48a.74.74 0 00-.75-.42 1.07 1.07 0 00-.39.14l-3.73 2a1.36 1.36 0 00-.17.12 2.42 2.42 0 00.12.23l2.56 4.72c.42.78.85 1.54 1.25 2.33a1.75 1.75 0 01-3.11 1.61c-.44-.76-.85-1.54-1.27-2.31-1-1.8-1.95-3.61-2.92-5.41l-.92-1.66a.73.73 0 00-1-.32l-.22.11-3.6 1.98z"/><path d="M41.4 23.76l.2-.12 3.57-1.95.22-.11a.73.73 0 011 .32l.92 1.66c1 1.8 1.94 3.61 2.92 5.41.42.77.83 1.55 1.27 2.31a1.75 1.75 0 003.11-1.61c-.4-.79-.83-1.55-1.25-2.33l-2.56-4.72a2.42 2.42 0 01-.12-.23 1.36 1.36 0 01.17-.12l3.73-2a1.07 1.07 0 01.39-.14.74.74 0 01.75.42l.82 1.45 3.4 6.26a1.79 1.79 0 001.31.95 1.73 1.73 0 001.93-2.29 8.13 8.13 0 00-.56-1.1c-.46-.86-.93-1.72-1.4-2.58l-1-1.89a1.59 1.59 0 01-.08-.18l.16-.11 2.43-1.32c.34-.18.69-.36 1-.56a.81.81 0 011.2.35c.4.77.82 1.53 1.24 2.3q2.23 4.13 4.46 8.24l2.38 4.38a3.53 3.53 0 01.4 1.33c.13 1.16.25 2.32.37 3.48q.94 9 1.9 18a.71.71 0 01-.44.86l-4.82 2.61-6.65 3.61-4.62 2.5-3.7 2a1.79 1.79 0 01-.32.13.71.71 0 01-.78-.34c-.18-.31-.35-.63-.53-1l-2.91-5.38a2.56 2.56 0 00-.95-1L26.35 47.1a2.26 2.26 0 01-.85-3.1l.93-1.68a2.24 2.24 0 013.14-.89l7.21 4 1.69 1 .2.11a1.77 1.77 0 002.43-.79 1.45 1.45 0 000-1.44c-.24-.44-.48-.88-.71-1.32l-1.84-3.41-3.17-5.83-2.64-4.88q-1.74-3.28-3.55-6.56l-2.49-4.57-1.84-3.38a2.27 2.27 0 01.64-3 7.22 7.22 0 01.77-.43l1.26-.68a2.22 2.22 0 013 .92q1.34 2.45 2.66 4.9l3.62 6.67 2.58 4.75q1.8 3.33 3.61 6.65a2.38 2.38 0 00.48.66 1.75 1.75 0 002.75-2.09c-.26-.51-.54-1-.82-1.52l-1.68-3.09-2.29-4.21z" fill="#fff"/></symbol>
<symbol id="i-world-grass-house" viewBox="0 0 624 491" xmlns="http://www.w3.org/2000/svg"><path d="M131.21 49.07l-14.8 18.96L14.48 198.86-.2 217.58l.12.12h355.73L472.38 68.03l14.79-18.96z" fill="#7a4c3f"/><path d="M355.65 217.7H-.08l12.13 11.9h355.74z" fill="#663f34"/><path d="M197.55 4h92v16.41h-92z" fill="#7f4f41"/><path d="M208.53 20.41v65.18l34.9 36.64V20.41z" fill="#70463a"/><path d="M243.43 20.41v101.82h.11l34.91-36.64V20.41z" fill="#7f4f41"/><path d="M470.18 98.19l16.99-21.72 119.05 152.67h6.35L490.06 72.77z" fill="#6b4338"/><path d="M606.22 201.63L501.97 68.03l-14.8-18.96-14.79 18.96L355.65 217.7l12.14 11.9L470.18 98.19l19.88-25.42 122.51 156.37 8.44-8.44z" fill="#945b4c"/><path d="M367.79 229.6H14.48v13.41l353.31 4.5z" fill="#dbcb95"/><path d="M14.48 243.01V488.6h353.31V247.51z" fill="#f0dea4"/><path d="M606.22 246.94v-17.8L487.17 76.47 367.79 229.6v13.06l119.38-152.9z" fill="#dbcb95"/><path d="M487.17 89.76l-119.38 152.9V488.6h238.43V246.94z" fill="#ffeeb0"/><path d="M58.74 288.43H177.2v123.32H58.74z" fill="#ccbd8c"/><path d="M72.61 306.22h39.87v96.39H72.61zM121.38 306.22h46.81v96.39h-46.81z" fill="#0082b5"/><path d="M67.76 297.44v105.29h4.85v-96.5h39.87v96.5h8.9v-96.5h46.81v-8.79z" fill="#00709c"/><path d="M204.94 288.43H323.4v123.32H204.94zM429.16 288.43h118.46V488.6H429.16z" fill="#ccbd8c"/><path d="M218.81 306.22h39.87v96.39h-39.87zM267.58 306.22h46.81v96.39h-46.81z" fill="#0082b5"/><path d="M214.07 297.44v105.29h4.74v-96.5h39.88v96.5h8.89v-96.5h46.81v-8.79z" fill="#00709c"/><path d="M449.15 178.28h75.7v78.82h-75.7z" fill="#ccbd8c"/><path d="M457.93 189.73h25.54v61.6h-25.54zM489.14 189.73h29.93v61.6h-29.93z" fill="#0082b5"/><path d="M454.93 184.06v67.27h3v-61.6h25.55v61.6h5.66v-61.6h29.93v-5.67z" fill="#00709c"/><g fill="#70463a"><path d="M67.87 171.47a19.61 19.61 0 0039.07 0zM146.23 171.47a19.61 19.61 0 0039.07 0zM224.59 171.47a19.6 19.6 0 0039.06 0zM303 171.47a19.6 19.6 0 0039.06 0zM107.05 133.44a19.61 19.61 0 0039.07 0zM185.41 133.44a19.61 19.61 0 0039.07 0zM263.77 133.44a19.6 19.6 0 0039.06 0zM342.24 133.44a19.61 19.61 0 0039.07 0zM146.23 95.42a19.61 19.61 0 0039.07 0zM303 95.42a19.6 19.6 0 0039.06 0zM381.42 95.42a19.61 19.61 0 0039.07 0z"/></g><path d="M437.25 302.41h91.65V488.6h-91.65z" fill="#816c4a"/><path d="M455.39 317.32h55.82v149.21h-55.82z" fill="#69573c"/><path d="M511.21 317.32v149.2h-55.82v-149.2h-3.12V469.3h61.72V317.32z" fill="#5e4f36"/><path d="M468.1 404.58a3 3 0 01-3 3h-18.72a3 3 0 01-3-3 3 3 0 013-3h18.72a2.91 2.91 0 013 3z" fill="#3f4247"/><path d="M536.87 288.43h10.63V488.6h-10.63z" fill="#f0dfa6"/></symbol>
<symbol id="i-world-grass-introduction" viewBox="0 0 702 126" xmlns="http://www.w3.org/2000/svg"><path d="M562.54 102.85s59 4.8 139.68 23.15l-32.33-40.48 32.33-13.87S639.31 48.3 562.54 44.6z" fill="#ea212d"/><path d="M613.28 88.92l-50.75 13.93V68.18l34.52 5.09z" fill="#9c0f17"/><path d="M144.62 102.85S85.67 107.65 4.93 126l32.33-40.48L4.93 71.65S67.84 48.3 144.62 44.6z" fill="#ea212d"/><path d="M93.88 88.92l50.74 13.93V68.18l-34.52 5.09z" fill="#9c0f17"/><path d="M613.28 88.92a1168.67 1168.67 0 00-519.66 0V31.23a1169 1169 0 01519.66 0z" fill="#ea212d"/><g fill="#fff"><path d="M239.3 45.75a4.72 4.72 0 01-.72 3.58 4.33 4.33 0 01-6.31.72c-.9-.81-1.26-1.66-1.45-3.44L229.2 30.7c-.22-2.16-.11-2.95.68-4a4.11 4.11 0 013-1.71 4.33 4.33 0 013.3 1c.94.88 1.3 1.73 1.51 3.81zM256.17 28a5.1 5.1 0 01.48-3.42 4.19 4.19 0 016.68-.9 4.82 4.82 0 011.31 3.3L266 42.76c.18 2 .07 2.91-.58 3.94a4.17 4.17 0 01-3.18 1.87 4.08 4.08 0 01-3.51-1.44l-7.48-8 .48 5.41a4.68 4.68 0 01-.63 3.46 4.3 4.3 0 01-6.69.47c-.78-.9-1-1.65-1.21-3.55l-1.44-16.28a4.27 4.27 0 014-4.95 3.87 3.87 0 013.32 1.42l7.49 7.7zM272.24 29.65a4.19 4.19 0 01-3.29-.9 4 4 0 01-1.39-2.75 4.07 4.07 0 011.95-3.71c.86-.45 1.21-.52 4.57-.75l8.58-.6a17.08 17.08 0 012.9-.13 3.87 3.87 0 013.75 3.62 4.25 4.25 0 01-1.18 3.15 4.73 4.73 0 01-3.22 1.16l-1.89.13.9 12.83a5.65 5.65 0 01-.5 3.33 4.06 4.06 0 01-3.42 2.2 4.3 4.3 0 01-3.64-1.53 5.31 5.31 0 01-1-3.31l-.91-12.9zM312.07 38.38a5.27 5.27 0 011 2.71 4.15 4.15 0 01-4 4.4 4 4 0 01-3.63-1.79l-3.83-5.65.19 3.52a4.17 4.17 0 01-4 4.52 4.35 4.35 0 01-3.41-1.37 5.65 5.65 0 01-1.2-3.59l-.84-15.89c-.1-1.86.23-2.93 1.19-3.87s1.76-1.22 3.81-1.33l3.55-.19a15.7 15.7 0 014.1.15 9.26 9.26 0 017.25 8.54 9.14 9.14 0 01-2.4 6.72zm-10.93-7.83H302.07c1.28 0 1.91-.53 1.86-1.46s-.77-1.39-2-1.29a8.21 8.21 0 01-.9 0zM328.6 18a13.56 13.56 0 11-13.15 13.84A13.57 13.57 0 01328.6 18zm.65 18.66a5.12 5.12 0 004.9-5.27 5.07 5.07 0 00-10.14.29 5.13 5.13 0 005.24 5.01zM356.08 18.05a13.29 13.29 0 019.41 3.2 12.85 12.85 0 014.35 9.56 12.86 12.86 0 01-10.1 12.72 25.28 25.28 0 01-4.37.36h-3.6c-2 0-2.83-.12-3.61-.66a3.75 3.75 0 01-1.81-2.3 10.84 10.84 0 01-.18-2.79L346 24c0-2.17 0-2.41.17-3 .6-1.86 2.17-2.85 4.65-2.87zM354.67 36c2.94-.06 3.64-.19 4.64-.89a5.19 5.19 0 002.05-4.13 5 5 0 00-2.79-4.43 7.33 7.33 0 00-3.3-.5h-.7zM381.59 33.06c0 1.85.81 3 2.29 3s2.33-1.06 2.35-2.84l.13-10.3c0-1.9.18-2.48 1-3.4a4.27 4.27 0 013.31-1.59 4.53 4.53 0 013.33 1.6c.81 1 1 1.76 1 4.08l-.11 9.18c0 3.49-.93 6-2.81 8.06A10.77 10.77 0 01375 40c-1.57-2.19-2.05-4-2-7.43l.12-9.1c0-2.44.19-3.05.94-4a4.26 4.26 0 016.51-.23c.84.9 1.13 1.87 1.11 3.69zM420.3 42.14a13.91 13.91 0 01-9.15 3.08 13.56 13.56 0 111-27.09 13.39 13.39 0 018.52 3.45c2 1.74 3 3.52 2.95 5.22a4.27 4.27 0 01-4.41 4.1 3.84 3.84 0 01-2.63-1.14l-1.19-1.4a5.06 5.06 0 10-4 8.38 5.27 5.27 0 003.86-1.56l.92-.9a4.28 4.28 0 013-1.13 4.37 4.37 0 014.11 4.33c-.08 1.52-1.11 3.14-2.98 4.66zM429 27.44a4.18 4.18 0 01-3.14-1.31 4 4 0 011.39-6.32c.91-.34 1.26-.35 4.63-.15l8.58.51a18.53 18.53 0 012.89.25 3.87 3.87 0 013.25 4.08 4.26 4.26 0 01-1.57 3 4.73 4.73 0 01-3.34.73l-1.9-.11-.79 12.81a5.72 5.72 0 01-.93 3.24 4.07 4.07 0 01-3.64 1.72 4.31 4.31 0 01-3.41-2 5.32 5.32 0 01-.53-3.41l.77-12.91zM456.68 42.54a4.73 4.73 0 01-1.35 3.39 4.32 4.32 0 01-6.34-.42c-.74-.95-.94-1.86-.81-3.64l1.25-15.95c.17-2.16.43-2.92 1.39-3.81a4.09 4.09 0 013.24-1.11 4.32 4.32 0 013.06 1.6c.77 1 1 1.94.81 4zM475.6 22.46a13.56 13.56 0 11-14.88 12 13.56 13.56 0 0114.88-12zm-1.85 18.59a5.13 5.13 0 005.57-4.58 5.07 5.07 0 00-10.09-1.06 5.13 5.13 0 004.52 5.64zM506.61 31.86a5.13 5.13 0 011.22-3.23 4.19 4.19 0 016.72.59 4.83 4.83 0 01.55 3.51L513 48.4c-.28 2-.58 2.85-1.44 3.71a4.2 4.2 0 01-3.56 1.13 4.07 4.07 0 01-3.1-2.18l-5.5-9.46-.72 5.4a4.68 4.68 0 01-1.42 3.24 4.28 4.28 0 01-3.47 1.1 4.38 4.38 0 01-3.16-2.11c-.56-1.05-.65-1.84-.39-3.72l2.18-16.2a4.26 4.26 0 015-3.94 3.88 3.88 0 012.92 2.11l5.6 9.16z"/></g></symbol>
<symbol id="i-world-grass-natekelley" viewBox="0 0 1086 454" xmlns="http://www.w3.org/2000/svg"><clipPath id="a"><path d="M109.72 118.5h976.29V454H109.72z"/></clipPath><path d="M685.48 14.4l-250 256.66h105.7L780.37 14.4z" fill="#da4f0c"/><path d="M672.31 55.65l-250 256.66H528L767.2 55.65z" fill="#da4f0c"/><path d="M686.28-.36L274 435l102 2L686.28 96z" fill="#f26522"/><g fill="#da4f0c"><path d="M644.23 11.76l-250 256.67h30.7L672.7 13.8zM617 95.14L286 435h32L642.89 97.05zM685.48 95.14L357 432h134L780.37 95.14z"/></g><path d="M616.94 11.93L286.79 351.85 269 459 616.07 96.6zM588 .52L235.21 352.63h16.58L588 13.78z" fill="#f26522"/><path d="M544.17 82.85L274.84 352.72h37.35L558.84 97.84z" fill="#da4f0c"/><path d="M531.81 3.16L237 295.69h81L533.57 81z" fill="#f26522"/><path d="M533.57 20.71L179 352.63h96.32L533.57 96.39z" fill="#f26522"/><path d="M509.94 6.5L93 437h105L558 40.71z" fill="#da4f0c"/><path d="M464.23 27.73L66 453l44-7L464.23 96.39z" fill="#f26522"/><path d="M422.1.52L69.34 352.63h96.31L422.11 97.27z" fill="#f26522"/><path d="M387.07 31.07l-359 362.81L73 453 438.65 81.08zM589.81 11.76L253.52 349.05l46.39 2.51 317.3-339.8z" fill="#da4f0c"/><path d="M537.08 64.59L184 437l90-2 263.08-273.66z" fill="#f26522"/><path d="M535.4 94.26L207.6 435h30.71l321.2-337.95z" fill="#da4f0c"/><path d="M352.77-.36L0 351.76h96.32L352.77 96.39z" fill="#f26522"/><g fill="#f7941d"><path d="M352.48 97.28V.52h27.65v13.83H394v13.82h13.82V42h13.78V.52h27.64v96.76H421.6V69.64h-13.83V55.82H394V42h-13.87v55.28zM463.07 97.28V28.17h13.82V14.35h13.82V.52h41.47v13.83H546v13.82h13.82v69.11h-27.64V69.64h-41.47v27.64zm27.64-41.46h41.47V28.17h-13.82V14.35h-13.82v13.82h-13.83zM615.12 97.28V14.35h-27.65V.52h82.94v13.83h-27.64v82.93zM684.24 97.28V.52H781v13.83h-69.12V42h55.3v13.82h-55.3v27.64H781v13.82z"/></g><g clip-path="url(#a)"><path d="M1059.45 118.5L722.32 455l92-31.87 245.08-244z" fill="#9e0039"/><path d="M972.22 163.8L709.8 420.93h74.74l268-257.13z" fill="#7a0026"/><path d="M1008.65 153.63L703.56 445.07l42.66 13.31 276.08-304.75zM873.25 170.51L610.83 427.64H699l268-257.13z" fill="#7a0026"/><path d="M885.83 130.25L623.41 387.38h88.16l268-257.13z" fill="#7a0026"/><path d="M887.5 117.67L550.38 454.16h92l245.08-244zM1005.77 117.67L668.65 454.16l92-52 245.08-244z" fill="#9e0039"/><path d="M794.41 209.93L532 467.06h74.74l268-257.13zM991.51 170.51L729.09 427.64h74.74l268-257.13z" fill="#7a0026"/><path d="M885.83 209.93L623.41 467.06h88.16l268-257.13z" fill="#7a0026"/><path d="M964.67 209.93L702.26 467.06h88.15l268-257.13z" fill="#7a0026"/><path d="M688.72 117.67L351.6 454.16h92l245.08-244zM794.4 117.67L457.28 454.16h92.05l245.08-244zM1036.8 165.47L699.68 502l92-51.63 245.08-244zM1020.86 154.57L683.74 491.06l56.75-37.85 280.37-281.59z" fill="#9e0039"/><g fill="#7a0026"><path d="M596.46 130.25L279.64 455.12h69.92l313-324.87z"/><path d="M581.37 170.51L264.54 495.38h69.92l313-324.87z"/><path d="M596.46 209.93L279.64 534.8H337l325.58-324.87zM1054.42 157.93L737.59 482.79h21.27l325.6-324.86zM687.05 209.93L420.17 477.38l79.2-10.32 268-257.13z"/></g><path d="M570.46 117.67L233.34 454.16h92l245.08-244z" fill="#9e0039"/><path d="M531 117.67L193.92 454.16h104.63L531 210.12z" fill="#9e0039"/><path d="M463.94 201.54L158.6 455h92L489 211.41zM517.62 209.93L276.36 456.65h26.29l253.51-246.72z" fill="#7a0026"/><path d="M543.5 130.77L226.87 454.13l11.19.84 319.75-325z" fill="#7a0026"/><path d="M503.36 159.6L252 413h38l241-253.4z" fill="#7a0026"/><g fill="#f26d7d"><path d="M463.67 211v-92.5h26.42v39.64h13.21v-13.22h13.21v-13.2h13.21V118.5h26.42v13.22h-13.21v13.2h-13.21v13.22h-13.21v13.21h13.21v13.21h13.21v13.21h13.21V211h-39.63v-13.23H503.3v-13.21h-13.21V211zM569.35 211v-92.5h92.47v13.22h-66.05v26.42h52.84v13.21h-52.84v26.42h66.05V211zM688.24 211v-92.5h26.42v79.27h52.84V211zM793.92 211v-92.5h26.42v79.27h52.84V211zM886.39 211v-92.5h92.47v13.22h-66.05v26.42h52.84v13.21h-52.84v26.42h66.05V211zM1031.7 211v-39.65h-13.21v-13.21h-13.21V118.5h26.42v39.64h26.42V118.5h26.42v39.64h-13.21v13.21h-13.21V211z"/></g><path d="M463.94 117.67L126.82 454.16h92.05L464 210.12z" fill="#9e0039"/></g></symbol>
<symbol id="i-world-grass-portfoliobanner" viewBox="0 0 696 126" xmlns="http://www.w3.org/2000/svg"><path d="M556.54 102.85s59 4.8 139.68 23.15l-32.33-40.48 32.33-13.87S633.31 48.3 556.54 44.6z" fill="#ea212d"/><path d="M607.28 88.92l-50.75 13.93V68.18l34.52 5.09z" fill="#9c0f17"/><path d="M138.62 102.85S79.67 107.65-1.07 126l32.33-40.48-32.33-13.87S61.84 48.3 138.62 44.6z" fill="#ea212d"/><path d="M87.88 88.92l50.74 13.93V68.18l-34.52 5.09z" fill="#9c0f17"/><path d="M607.28 88.92a1168.67 1168.67 0 00-519.66 0V31.23a1169 1169 0 01519.66 0z" fill="#ea212d"/><g fill="#fff"><path d="M194.55 36.84a4.17 4.17 0 01-3.32-.73 4 4 0 01-1.53-2.66 4.09 4.09 0 011.76-3.81c.84-.49 1.18-.57 4.53-1l8.53-1a16 16 0 012.9-.27 3.86 3.86 0 013.92 3.42 4.27 4.27 0 01-1 3.21 4.75 4.75 0 01-3.15 1.32l-1.89.22 1.54 12.77a5.6 5.6 0 01-.34 3.36 4 4 0 01-3.28 2.33 4.33 4.33 0 01-3.72-1.34 5.37 5.37 0 01-1.13-3.26l-1.55-12.85zM224.51 46.06c.18 2.13.12 2.68-.36 3.66a4.26 4.26 0 01-7.05.73c-.67-.86-.9-1.58-1.1-3.5l-1.61-15.49c-.19-1.81-.08-2.6.52-3.56a4.32 4.32 0 013.18-2 4.51 4.51 0 013.61 1.31c.79.85 1 1.37 1.22 3.57l.38 3.62 5.16-.54-.36-3.5c-.21-2-.14-2.83.49-3.87a4.11 4.11 0 013.11-2 4.38 4.38 0 013.55 1.27 5.27 5.27 0 011.29 3.41l1.62 15.57a5.53 5.53 0 01-.35 3.42 4.23 4.23 0 01-6.94 1.07c-.75-.86-1-1.57-1.19-3.61l-.38-3.7-5.17.53zM254.27 40.56c1.86-.16 2.69 0 3.64.65a4 4 0 011.65 2.89 4.19 4.19 0 01-1.12 3.21c-.79.77-1.51 1-3.44 1.19l-6.59.58a8.26 8.26 0 01-3.28-.07 4 4 0 01-2.7-2.87 10.09 10.09 0 01-.37-2.54l-1.22-14c-.18-2.16-.17-2.43.11-3.27a3.77 3.77 0 011.86-2.3c.93-.47 1.12-.53 3.63-.75l5.09-.44a11.28 11.28 0 013.26-.09 3.8 3.8 0 013.21 3.48 4 4 0 01-1.11 3.25 4.58 4.58 0 01-3.16 1.21l-4.25.37.16 1.77 3.35-.29c2.09-.18 3.54.93 3.7 2.75a3.17 3.17 0 01-.9 2.53 3.86 3.86 0 01-2.57.88l-3 .27.17 1.93zM282.46 41.73c.19 2.94-1.39 5-3.94 5.18a4.27 4.27 0 01-3.68-1.71c-.72-1-.83-1.42-1-4l-1-15.07c-.12-1.86.1-2.72.93-3.71a4.46 4.46 0 013.4-1.49l3.55-.23c4.14-.26 6 .09 8 1.47a9.2 9.2 0 01.82 14.73 9.08 9.08 0 01-5.87 2.24l-1.43.09zm-.66-10.4c2.05 0 2.8-.45 2.73-1.6 0-.86-.86-1.31-2.14-1.23l-.77.05zM308.49 18.57a13.56 13.56 0 11-13 14 13.56 13.56 0 0113-14zm.85 18.65a5.12 5.12 0 004.85-5.33 5.08 5.08 0 00-10.14.41 5.13 5.13 0 005.29 4.92zM345.28 37.17a5.28 5.28 0 01.88 2.73 4.17 4.17 0 01-4.16 4.28 4 4 0 01-3.57-1.9l-3.65-5.76.08 3.52a4.19 4.19 0 01-4.09 4.4A4.34 4.34 0 01327.4 43a5.52 5.52 0 01-1.09-3.62l-.37-15.91c0-1.86.32-2.92 1.31-3.83s1.79-1.16 3.85-1.21l3.56-.08a15.8 15.8 0 014.15.29 9.24 9.24 0 017 8.75 9.11 9.11 0 01-2.6 6.65zM334.59 29H335.52c1.28 0 1.93-.47 1.91-1.4s-.73-1.41-2-1.35a6.8 6.8 0 01-.89 0zM352.13 25.94a4.17 4.17 0 01-3.22-1.11 4 4 0 011-6.4c.89-.39 1.24-.43 4.61-.44h8.6A15.8 15.8 0 01366 18a3.86 3.86 0 013.5 3.85 4.24 4.24 0 01-1.38 3.07 4.73 4.73 0 01-3.29.95h-1.9l.07 12.89a5.63 5.63 0 01-.72 3.29 4.06 4.06 0 01-3.52 2 4.28 4.28 0 01-3.53-1.76 5.25 5.25 0 01-.75-3.37l-.06-12.94zM380.26 38.11c0 2.52-.12 3-.76 4a4.21 4.21 0 01-7.27-.33c-.45-1-.52-1.48-.49-3.85L372 23c0-2.28.55-3.43 1.92-4.31a4.67 4.67 0 012.06-.63c.35 0 1.13-.06 2.25 0l5.11.07c2.79 0 3.33.13 4.29.72a3.74 3.74 0 011.78 3.28 4.47 4.47 0 01-1.4 3.12 4.43 4.43 0 01-3.23.88l-4.3-.06v1.78h2.64a4.81 4.81 0 012.74.54 3 3 0 011.4 2.58c0 2-1.36 3.12-3.8 3.08h-3.06zM404.41 18.07A13.56 13.56 0 11390.35 31a13.56 13.56 0 0114.06-12.93zm-.63 18.66A5.13 5.13 0 00409 31.8a5.07 5.07 0 00-10.14-.4 5.13 5.13 0 004.92 5.33zM433.39 38a4.78 4.78 0 013 1 4 4 0 011.43 3.27A4 4 0 01433.1 46l-8.1-.51a4.28 4.28 0 01-3.51-1.57c-1-1.22-1.06-1.81-.84-5.36L421.5 24c.17-2.9 1.95-4.7 4.5-4.54a4.31 4.31 0 013.23 1.74c.72 1.09.86 1.88.72 4.31l-.74 12.22zM449 42.41a4.73 4.73 0 01-1.35 3.39 4.55 4.55 0 01-3.24 1.2 4.5 4.5 0 01-3.06-1.6 4.59 4.59 0 01-.81-3.64l1.22-15.95c.17-2.16.42-2.92 1.38-3.81a4.09 4.09 0 013.24-1.15 4.28 4.28 0 013.06 1.59c.78 1 1 1.94.82 4zM467.92 22.3a13.55 13.55 0 11-14.85 12 13.57 13.57 0 0114.85-12zm-1.8 18.58a5.12 5.12 0 005.55-4.58 5.07 5.07 0 00-10.09-1 5.12 5.12 0 004.54 5.58zM509.87 27.48a13.56 13.56 0 11-15.42 11.26 13.57 13.57 0 0115.42-11.26zM507.16 46a5.12 5.12 0 005.77-4.31 5.07 5.07 0 00-10-1.54 5.13 5.13 0 004.23 5.85zM531.38 52c-.45 2.48-.61 3-1.4 3.84a4.22 4.22 0 01-7.13-1.53c-.28-1-.27-1.55.15-3.87l2.67-14.68c.41-2.25 1.11-3.3 2.61-3.93a4.37 4.37 0 012.13-.28 22.49 22.49 0 012.23.32l5 .92c2.75.5 3.26.67 4.11 1.41a3.74 3.74 0 011.25 3.49 3.94 3.94 0 01-5.22 3.18l-4.23-.76-.32 1.75 2.59.47a4.84 4.84 0 012.62 1 2.94 2.94 0 011 2.77c-.36 2-1.86 2.85-4.26 2.42l-3-.55z"/></g></symbol>
<symbol id="i-world-grass-raccoon" viewBox="0 0 203 183" xmlns="http://www.w3.org/2000/svg"><path d="M196 52.5V45a37.41 37.41 0 00-3.28-15.34l-34.9 22.84z" fill="#4a4947"/><path d="M160.67 55.37v4.15a35 35 0 002.75 13.69H196V52.5h-38.2a2.88 2.88 0 012.87 2.87zM121.38 93.93h33.55v20.71h-33.55z" fill="#faf0dd"/><path d="M121.38 114.64h33.55v20.7h-33.55zM121.38 176.79a33.53 33.53 0 0031-20.71h-31z" fill="#4a4947"/><path d="M121.38 156.06h31a33.2 33.2 0 002.55-12.84v-7.86h-33.55z" fill="#faf0dd"/><path d="M121.38 73.23h33.55v20.7h-33.55zM163.42 73.23A35.33 35.33 0 00196 94.85V73.23z" fill="#4a4947"/><path d="M154.93 55.37a2.87 2.87 0 012.87-2.87h-36.42v20.71h33.55z" fill="#faf0dd"/><path d="M172.58 10.36a37.5 37.5 0 00-29.3.66l14.54 41.48z" fill="#4a4947"/><path d="M192.72 29.66a37.48 37.48 0 00-20.14-19.3L157.82 52.5z" fill="#faf0dd"/><path d="M157.8 52.5l-33.53-21.94A37.34 37.34 0 00121.36 45v7.5z" fill="#4a4947"/><path d="M143.28 11a37.49 37.49 0 00-19 19.54l33.54 21.96z" fill="#faf0dd"/><path d="M36.21 124.14v52.63h52.63a52.65 52.65 0 00-52.63-52.63z" fill="#9e978c"/><path d="M48.18 114.3a5.36 5.36 0 00-5.35 5.34v9a5.35 5.35 0 0010.69 0v-9a5.35 5.35 0 00-5.34-5.34zM37.58 163.23h-.86a13.54 13.54 0 00-13.54 13.54h27.94a13.54 13.54 0 00-13.54-13.54z" fill="#4a4947"/><path d="M52.29 69.31v46.51l37.05-37.06a77 77 0 00-37.05-9.45z" fill="#9e978c"/><path d="M89.34 78.76l-37.05 37.06v61h77.3v-30.21a77.29 77.29 0 00-40.25-67.85z" fill="#d1cfbf"/><path d="M20.2 34a20.61 20.61 0 000 29.18l5.31 5.31L40.1 53.93zM94.15 34l-19.9 19.9 14.59 14.62 5.31-5.31a20.63 20.63 0 000-29.21z" fill="#8c847e"/><path d="M90.94 71.22a19.94 19.94 0 01-20 20H43.38a20 20 0 110-39.9H71a20 20 0 0120 19.95z" fill="#faf0dd"/><path d="M51.57 65.71L47.3 58.3a5.18 5.18 0 00-9 0l-4.25 7.41a5.17 5.17 0 004.48 7.76h8.55a5.16 5.16 0 004.49-7.76z" fill="#4a4947"/><circle cx="42.83" cy="65.52" fill="#fcb419" r="3.66"/><path d="M42.83 67.11a1.59 1.59 0 111.6-1.59 1.59 1.59 0 01-1.6 1.59z" fill="#353535"/><path d="M62.77 65.71l4.28-7.41a5.17 5.17 0 019 0l4.28 7.41a5.18 5.18 0 01-4.49 7.76h-8.59a5.17 5.17 0 01-4.48-7.76z" fill="#4a4947"/><circle cx="71.53" cy="65.52" fill="#fcb419" r="3.66"/><path d="M71.53 67.11a1.59 1.59 0 10-1.6-1.59 1.59 1.59 0 001.6 1.59z" fill="#353535"/><path d="M57.18 91a12.09 12.09 0 01-12.09-12.1V76a12.1 12.1 0 0124.19 0v2.85A12.1 12.1 0 0157.18 91z" fill="#4a4947"/><path d="M59.23 66.34h-4.09a3 3 0 100 5.93h4.09a3 3 0 000-5.93z" fill="#353535"/><path d="M77 124.14v52.63h52.62A52.62 52.62 0 0077 124.14z" fill="#9e978c"/><g fill="#4a4947"><path d="M78.32 163.23h-.87a13.54 13.54 0 00-13.54 13.54h28a13.53 13.53 0 00-13.59-13.54zM69.93 114.3a5.35 5.35 0 00-5.34 5.34v9a5.35 5.35 0 0010.69 0v-9a5.35 5.35 0 00-5.35-5.34z"/></g></symbol>
<symbol id="i-world-grass-seaplant" viewBox="0 0 118 197" xmlns="http://www.w3.org/2000/svg"><path d="M62.31 28.67s9.09 10.76 7.52 28-5 39.8-7.52 56.63 2.34 71.36 2.34 71.36L70 185.7s8.91-53.75 8.1-69.6 6-54-1-71.63-14.79-15.8-14.79-15.8z" fill="#579835"/><path d="M62.31 60.05c0 .54-16.57 82.16 0 125.65l4.14-2.88s1.8-66.94 1-85.9a211.41 211.41 0 00-5.14-36.87z" fill="#407928"/><path d="M62.31 185.7l-10.63 1.13s-3.87-24.83-4.14-46.06-6.48-52.4-8-79.68S55.83 4 55.83 4 52.22 42.67 54 64s4.69 45.92 3.38 67.48 4.93 54.22 4.93 54.22z" fill="#579835"/><path d="M34.35 181.24s-12.51-18.14-16.66-33 .27-30.34 5.23-35c0 0-.05 9.46 5.67 21.52s14.27 33.59 9.59 50.92zM45.83 182.82a386.41 386.41 0 01-9.18-53.21c-2.07-20.76 2.61-37 8.55-44.93 0 0 2.84 29.62 6 47.81s2.8 50.33 2.8 50.33z" fill="#407928"/><path d="M39.21 181.24s-4.14-34.26-7.79-49S21.56 96.61 23.14 80s10.4-26.16 10.4-26.16.32 26.52 2.61 39.35 7.29 36.42 9 47.09 0 40 0 40z" fill="#579835"/><path d="M75.05 90.57s-11.93 33.72-12.7 54.57S65 188.4 65 188.4l5.14-2.65s7.79-32 10.31-50.65-5.4-44.53-5.4-44.53z" fill="#407928"/><path d="M94.23 56.63c0-.86-15.85 31.2-18.42 54.83s-7 71.36-7 71.36L75 184.4s3.65-25.44 8.29-38.14S97.6 93.19 94.23 56.63z" fill="#579835"/><path d="M96.57 99c-.59-.85-2 19.27-10 36.51S72.39 171 74.24 185.75h3.38s14-18.73 18.95-41.83 4.95-37.41 0-44.92z" fill="#407928"/><path d="M28.05 178.5c-1.89 1.71 1.57 16.07 3.1 17.38s54.48 1.3 56.32 0 4.69-15.31 3.11-17.38-59.92-2.34-62.53 0z" fill="#b16b63"/></symbol>
<symbol id="i-world-grass-speechbubble" viewBox="0 0 555 379" xmlns="http://www.w3.org/2000/svg"><path d="M83 261c11.42 3.72 44.9 13.36 45.07 25.37.28 19.49-9.25 66-19.07 77.63-16 19 72-25 86-76 8.41-30.62 120.05-8.79 172-3 18.73 2.09 61.45-.36 77-11 41.89-28.68 92.16-106.49 79-173C505 10 260 6 260 6S-26.43 5.67 10 167c14 62 27 79 73 94z" fill="#fff"/></symbol>
<symbol id="i-world-grass-sunflowers" viewBox="0 0 325 276" xmlns="http://www.w3.org/2000/svg"><g fill="#548731"><path d="M47.57 75.21h4.39v193.7h-4.39z"/><path d="M79.26 127.25c6.16-7 6.65-33 6.65-33S60.13 98 54 105a16.86 16.86 0 0025.29 22.29zM44.05 95.87c-7-6.16-33-6.65-33-6.65s3.73 25.78 10.72 31.94a16.85 16.85 0 0022.28-25.29z"/></g><path d="M76.68 60.84c7.32-.26 15-.71 15-.71s-6.79-3.65-13.33-7c7-2.23 14.22-4.76 14.22-4.76S85 46.74 77.82 45.33c6.1-4 12.39-8.45 12.39-8.45s-7.7.44-15 1c4.77-5.55 9.63-11.49 9.63-11.49s-7.29 2.51-14.16 5.07c3.08-6.63 6.14-13.67 6.14-13.67s-6.33 4.4-12.24 8.73c1.16-7.22 2.19-14.83 2.19-14.83s-4.89 6-9.41 11.73c-.85-7.27-1.92-14.87-1.92-14.87s-2.59 5.92-5.16 12.13c-2.28-6.3-4.6-12.31-4.6-12.31S44.26 16 43.1 23.23c-4.25-6-8.86-12.1-8.86-12.1s.7 7.68 1.54 15C30.08 21.52 24 16.86 24 16.86s2.76 7.2 5.55 14c-6.76-2.86-13.9-5.7-13.9-5.7s4.61 6.18 9.14 11.94c-7.26-.91-14.9-1.69-14.9-1.69s6.12 4.69 12.05 9c-7.24 1.09-14.8 2.42-14.8 2.42s7.16 2.85 14 5.4c-6.67 3-13.59 6.35-13.59 6.35s7.67.79 15 1.38c-5.6 4.71-11.35 9.8-11.35 9.8S18.82 68.45 26 67c-4.1 6.06-8.25 12.52-8.25 12.52s7-3.33 13.49-6.66c-2.31 7-4.55 14.29-4.55 14.29s5.79-5.09 11.17-10.07c-.33 7.31-.49 15-.49 15s4.19-6.47 8-12.73C47.06 86.48 49 93.91 49 93.91s2.27-7.37 4.26-14.43c3.54 6.4 7.42 13 7.42 13s.18-7.71.17-15C66 82.67 71.52 88 71.52 88s-1.92-7.48-3.92-14.53c6.4 3.61 13.14 7.23 13.14 7.23S76.86 74 73 67.79c7.11 1.73 14.61 3.38 14.61 3.38s-5.53-5.36-10.93-10.33zm-27-.3a6.51 6.51 0 00-1.4.12 6.72 6.72 0 00-1.17-.49 6.1 6.1 0 00-1.38-.26 6.62 6.62 0 00-1-.8 6.92 6.92 0 00-1.25-.62 6.66 6.66 0 00-.75-1 6.53 6.53 0 00-1-.94 6.66 6.66 0 00-.44-1.2 6.81 6.81 0 00-.74-1.19 6.85 6.85 0 00-.09-1.27 7.5 7.5 0 00-.39-1.35 6.34 6.34 0 00.25-1.24 6.64 6.64 0 000-1.41 6 6 0 00.59-1.13 7.32 7.32 0 00.37-1.35 7.71 7.71 0 00.87-.93 6.16 6.16 0 00.72-1.2 6.09 6.09 0 001.13-.7 6.3 6.3 0 001-1 6.27 6.27 0 001.23-.34 6.6 6.6 0 001.24-.64 6.83 6.83 0 001.28 0 6.32 6.32 0 001.15-.22 6.61 6.61 0 001 .23 6.08 6.08 0 001.41 0 6 6 0 001.11.62 6.7 6.7 0 001.34.42 6.38 6.38 0 00.9.9 6.75 6.75 0 001.17.77 6.85 6.85 0 00.63 1.11 6.18 6.18 0 00.92 1 6.76 6.76 0 00.29 1.24 7.41 7.41 0 00.6 1.27 7.63 7.63 0 00-.05 1.27 6.42 6.42 0 00.24 1.39 6.23 6.23 0 00-.55 2.6 7.25 7.25 0 00-.71 1.06 6.53 6.53 0 00-.52 1.3 6.8 6.8 0 00-1 .82 6.89 6.89 0 00-.86 1.11 8 8 0 00-1.16.53 7.37 7.37 0 00-1.13.84 6.88 6.88 0 00-1.25.19 6.54 6.54 0 00-1.32.5 6.48 6.48 0 00-1.23-.01z" fill="#f28f30"/><path d="M77.78 57.09c7.21-1.25 14.75-2.75 14.75-2.75s-7.23-2.69-14.16-5.08c6.6-3.16 13.44-6.65 13.44-6.65s-7.69-.63-15-1c5.49-4.84 11.13-10 11.13-10S80.36 33 73.2 34.58c4-6.15 8-12.7 8-12.7s-6.88 3.49-13.33 7c2.15-7 4.22-14.39 4.22-14.39s-5.69 5.19-10.96 10.28c.17-7.31.16-15 .16-15s-4 6.57-7.73 12.9c-1.83-7.07-3.92-14.46-3.92-14.46s-1.77 6.22-3.47 12.72C43.05 15 39.94 9.36 39.94 9.36s-.37 7.7-.55 15C34.38 19.07 29 13.61 29 13.61s1.74 7.51 3.57 14.61c-6.28-3.76-13-7.54-13-7.54s3.71 6.76 7.4 13.09C19.92 31.86 12.46 30 12.46 30s5.41 5.5 10.68 10.6c-7.31.07-15 .34-15 .34s6.7 3.82 13.16 7.29C14.29 50.33 7 52.67 7 52.67s7.48 1.85 14.64 3.44C15.43 60 9 64.25 9 64.25s7.7-.26 15-.67c-4.9 5.43-9.91 11.25-9.91 11.25s7.35-2.34 14.28-4.73c-3.24 6.56-6.48 13.52-6.48 13.52s6.44-4.24 12.46-8.43C33.06 82.39 31.84 90 31.84 90s5-5.84 9.7-11.5c.67 7.29 1.55 14.91 1.55 14.91s3.27-7 6.21-13.7c2.62 6.83 5.55 13.93 5.55 13.93s1.24-7.64 2.25-14.9c4.38 5.86 9.12 11.9 9.12 11.9s-.87-7.64-1.88-14.92c5.81 4.45 12 9 12 9s-2.92-7.14-5.86-13.85c6.8 2.7 14 5.37 14 5.37s-4.75-6.08-9.41-11.74c7.3.72 14.93 1.33 14.93 1.33s-6.2-4.56-12.22-8.74zM51 60.45a6.82 6.82 0 00-1.37.31 6.93 6.93 0 00-1.23-.32 6.62 6.62 0 00-1.4-.08 7.84 7.84 0 00-1-.65 6.73 6.73 0 00-1.33-.45 6.36 6.36 0 00-.88-.92 7 7 0 00-1.16-.8 6.68 6.68 0 00-.63-1.12 6.79 6.79 0 00-.9-1.08 6.67 6.67 0 00-.26-1.24 6.82 6.82 0 00-.57-1.29 7.53 7.53 0 00.08-1.27 7.06 7.06 0 00-.2-1.39 6.67 6.67 0 00.61-2.59 6 6 0 00.73-1 6.55 6.55 0 00.51-1.32 6.87 6.87 0 001-.81 7 7 0 00.89-1.08 7 7 0 001.17-.51 6.28 6.28 0 001.14-.8 7 7 0 001.27-.17 7.23 7.23 0 001.11-.37 6.92 6.92 0 001 .09 6.37 6.37 0 001.42-.15 6.53 6.53 0 001.19.46 6 6 0 001.38.23 6.27 6.27 0 001 .77 6.66 6.66 0 001.27.6 6.82 6.82 0 00.77 1 6.54 6.54 0 001.06.92 6.21 6.21 0 00.46 1.19 6.76 6.76 0 00.77 1.17 6.91 6.91 0 00.12 1.27 6.54 6.54 0 00.42 1.34 7.26 7.26 0 00-.23 1.25 6.5 6.5 0 000 1.4 7.2 7.2 0 00-.56 1.15 7.32 7.32 0 00-.34 1.36 6.47 6.47 0 00-.85 1 6.67 6.67 0 00-.7 1.21 6.49 6.49 0 00-1.07.69 6.25 6.25 0 00-1 1 6.69 6.69 0 00-1.21.36 6.41 6.41 0 00-1.24.67 6.76 6.76 0 00-1.24-.03z" fill="#fab722"/><circle cx="49.95" cy="51.1" fill="#71441d" r="20.82"/><g fill="#548731"><path d="M158.77 75.21h4.39v193.7h-4.39z"/><path d="M190.46 127.25c6.16-7 6.65-33 6.65-33S171.33 98 165.17 105a16.86 16.86 0 0025.29 22.29z"/><path d="M155.25 95.87c-7-6.16-33-6.65-33-6.65S126 115 133 121.16a16.85 16.85 0 0022.28-25.29z"/></g><path d="M187.88 60.84c7.32-.26 15-.71 15-.71s-6.79-3.65-13.33-7c7-2.23 14.22-4.76 14.22-4.76s-7.53-1.66-14.73-3.07c6.1-4 12.4-8.45 12.4-8.45s-7.7.44-15 1c4.77-5.55 9.63-11.49 9.63-11.49s-7.29 2.51-14.16 5.07c3.09-6.56 6.09-13.6 6.09-13.6s-6.33 4.4-12.24 8.73c1.16-7.22 2.19-14.83 2.19-14.83s-4.89 6-9.41 11.73c-.84-7.27-1.92-14.87-1.92-14.87s-2.59 5.92-5.16 12.13c-2.28-6.3-4.6-12.31-4.6-12.31s-1.4 7.59-2.56 14.82c-4.25-6-8.86-12.1-8.86-12.1s.7 7.68 1.54 15c-5.7-4.58-11.81-9.24-11.81-9.24s2.76 7.2 5.55 14c-6.72-2.89-13.87-5.73-13.87-5.73s4.61 6.18 9.14 11.94c-7.26-.91-14.9-1.69-14.9-1.69s6.12 4.69 12 9c-7.24 1.09-14.8 2.42-14.8 2.42s7.16 2.85 14 5.4c-6.67 3-13.59 6.35-13.59 6.35s7.67.79 15 1.38c-5.6 4.71-11.35 9.8-11.35 9.8S130 68.45 137.21 67c-4.1 6.06-8.25 12.52-8.25 12.52s6.95-3.33 13.49-6.66c-2.31 7-4.55 14.29-4.55 14.29s5.79-5.09 11.17-10.07c-.33 7.31-.49 15-.49 15s4.19-6.47 8-12.73c1.67 7.13 3.6 14.56 3.6 14.56s2.27-7.37 4.26-14.43c3.54 6.4 7.42 13 7.42 13s.18-7.71.17-15C177.19 82.67 182.72 88 182.72 88s-1.92-7.47-3.92-14.52c6.36 3.61 13.14 7.23 13.14 7.23s-3.88-6.67-7.73-12.91c7.11 1.73 14.61 3.38 14.61 3.38s-5.54-5.37-10.94-10.34zm-26.95-.3a6.51 6.51 0 00-1.4.12 6.41 6.41 0 00-1.17-.49 6.1 6.1 0 00-1.38-.26 6.62 6.62 0 00-1-.8 6.92 6.92 0 00-1.25-.62 7.31 7.31 0 00-.74-1 7.07 7.07 0 00-1-.94 6.66 6.66 0 00-.44-1.2 6.81 6.81 0 00-.74-1.19 6.85 6.85 0 00-.09-1.27 7.5 7.5 0 00-.39-1.35 6.34 6.34 0 00.25-1.24 6.64 6.64 0 000-1.41 6 6 0 00.59-1.13 7.32 7.32 0 00.37-1.35 7.71 7.71 0 00.87-.93 6.75 6.75 0 00.73-1.2 6.38 6.38 0 001.08-.66 6.3 6.3 0 001-1 6.27 6.27 0 001.23-.34 6.6 6.6 0 001.24-.64 6.83 6.83 0 001.28 0 6.32 6.32 0 001.15-.22 6.46 6.46 0 001 .23 6 6 0 001.4 0 6 6 0 001.11.62 6.7 6.7 0 001.34.42 7 7 0 00.9.9 6.75 6.75 0 001.17.77 6.85 6.85 0 00.63 1.11 6.18 6.18 0 00.92 1 6.06 6.06 0 00.3 1.24 6.17 6.17 0 00.6 1.27 6 6 0 000 1.27 5.85 5.85 0 00.23 1.39 6.23 6.23 0 00-.55 2.6 6.39 6.39 0 00-1.23 2.36 6.8 6.8 0 00-1 .82 6.89 6.89 0 00-.86 1.11 8 8 0 00-1.16.53 6.82 6.82 0 00-1.12.84 6.86 6.86 0 00-1.26.19 6.23 6.23 0 00-1.31.5 6.59 6.59 0 00-1.3-.05z" fill="#f28f30"/><path d="M189 57.09c7.21-1.25 14.75-2.75 14.75-2.75s-7.23-2.69-14.16-5.08c6.6-3.16 13.44-6.65 13.44-6.65s-7.69-.63-15-1c5.5-4.84 11.13-10 11.13-10s-7.57 1.48-14.72 3.07c4-6.15 8-12.7 8-12.7s-6.88 3.49-13.33 7c2.15-7 4.22-14.39 4.22-14.39s-5.67 5.23-10.94 10.32c.17-7.31.16-15 .16-15s-4 6.57-7.73 12.9c-1.83-7.08-3.92-14.47-3.92-14.47s-1.77 6.22-3.47 12.72c-3.12-5.94-6.23-11.57-6.23-11.57s-.37 7.7-.55 15c-5-5.32-10.41-10.78-10.41-10.78s1.73 7.51 3.56 14.61c-6.28-3.76-13-7.54-13-7.54s3.72 6.76 7.4 13.09c-7.08-2.01-14.54-3.87-14.54-3.87s5.41 5.5 10.68 10.6c-7.31.07-15 .34-15 .34s6.7 3.82 13.16 7.29c-7 2.07-14.33 4.41-14.33 4.41s7.48 1.85 14.64 3.44c-6.19 3.89-12.59 8.14-12.59 8.14s7.71-.26 15-.67c-4.91 5.43-9.92 11.25-9.92 11.25s7.35-2.34 14.29-4.73c-3.25 6.56-6.48 13.52-6.48 13.52s6.43-4.24 12.45-8.43C144.26 82.39 143 90 143 90s5.05-5.84 9.7-11.5c.67 7.29 1.55 14.91 1.55 14.91s3.27-7 6.21-13.7c2.62 6.83 5.55 13.93 5.55 13.93s1.24-7.61 2.25-14.87c4.38 5.86 9.12 11.9 9.12 11.9s-.87-7.66-1.87-14.92c5.8 4.45 12 9 12 9s-2.92-7.14-5.86-13.85c6.8 2.7 14 5.37 14 5.37s-4.75-6.08-9.41-11.74c7.28.75 14.94 1.36 14.94 1.36S195 61.27 189 57.09zm-26.74 3.36a7 7 0 00-1.37.31 6.93 6.93 0 00-1.23-.32 6.62 6.62 0 00-1.4-.08 7.84 7.84 0 00-1.09-.65 6.73 6.73 0 00-1.33-.45 6.36 6.36 0 00-.88-.92 7 7 0 00-1.16-.8 6.68 6.68 0 00-.59-1.12 6.79 6.79 0 00-.9-1.08 6.67 6.67 0 00-.31-1.24 6.82 6.82 0 00-.57-1.29 7.53 7.53 0 00.08-1.27 7.06 7.06 0 00-.2-1.39 6.67 6.67 0 00.61-2.59 6 6 0 00.73-1 6.55 6.55 0 00.56-1.28 6.87 6.87 0 001-.81 6.47 6.47 0 00.89-1.08 7 7 0 001.17-.51 6.73 6.73 0 001.15-.8 7 7 0 001.26-.17 6.88 6.88 0 001.11-.37 6.92 6.92 0 001 .09 6.37 6.37 0 001.39-.15 6.82 6.82 0 001.19.46 6 6 0 001.38.23 5.93 5.93 0 001 .77 6.31 6.31 0 001.26.6 6.82 6.82 0 00.77 1 6.54 6.54 0 001.06.92 6.21 6.21 0 00.46 1.19 6.76 6.76 0 00.77 1.17 6.91 6.91 0 00.12 1.27 6.54 6.54 0 00.42 1.34 6.36 6.36 0 00-.19 2.65 7.17 7.17 0 00-.55 1.15 6.64 6.64 0 00-.35 1.36 6.47 6.47 0 00-.85 1 6.67 6.67 0 00-.7 1.21 6.49 6.49 0 00-1.07.69 5.8 5.8 0 00-1 1 6.79 6.79 0 00-1.22.36 6.41 6.41 0 00-1.24.67 6.76 6.76 0 00-1.2-.07z" fill="#fab722"/><circle cx="161.15" cy="51.1" fill="#71441d" r="20.82"/><path d="M269.97 75.21h4.39v193.7h-4.39z" fill="#548731"/><path d="M301.67 127.25c6.15-7 6.64-33 6.64-33S282.53 98 276.37 105a16.86 16.86 0 0025.3 22.29z" fill="#548731"/><path d="M266.45 95.87c-7-6.16-33-6.65-33-6.65s3.77 25.78 10.76 31.94a16.85 16.85 0 1022.28-25.29z" fill="#548731"/><path d="M299.08 60.84c7.32-.26 15-.71 15-.71s-6.79-3.65-13.33-7c7-2.23 14.22-4.76 14.22-4.76s-7.53-1.66-14.73-3.07c6.1-4 12.4-8.45 12.4-8.45s-7.7.44-15 1c4.77-5.55 9.63-11.49 9.63-11.49s-7.27 2.58-14.19 5.14c3.08-6.63 6.14-13.67 6.14-13.67s-6.33 4.4-12.24 8.73c1.16-7.22 2.19-14.83 2.19-14.83s-4.89 6-9.41 11.73c-.84-7.27-1.92-14.87-1.92-14.87s-2.59 5.92-5.16 12.13c-2.28-6.3-4.6-12.31-4.6-12.31s-1.42 7.59-2.58 14.82c-4.25-6-8.86-12.1-8.86-12.1s.7 7.68 1.54 15c-5.7-4.58-11.81-9.24-11.81-9.24s2.76 7.2 5.55 14c-6.73-2.86-13.87-5.68-13.87-5.68s4.61 6.18 9.14 11.94c-7.26-.91-14.9-1.69-14.9-1.69s6.12 4.69 12.05 9c-7.24 1.09-14.8 2.42-14.8 2.42s7.16 2.85 14 5.4c-6.67 3-13.59 6.35-13.59 6.35s7.67.79 15 1.38c-5.59 4.71-11.35 9.8-11.35 9.8s7.6-1.32 14.8-2.75c-4.11 6.06-8.26 12.52-8.26 12.52s7-3.33 13.49-6.66c-2.31 7-4.55 14.29-4.55 14.29s5.79-5.09 11.17-10.07c-.33 7.31-.49 15-.49 15s4.19-6.47 8-12.73c1.67 7.13 3.6 14.56 3.6 14.56s2.27-7.37 4.26-14.43c3.54 6.4 7.42 13 7.42 13s.18-7.71.17-15C288.39 82.67 293.92 88 293.92 88S292 80.52 290 73.47c6.37 3.61 13.14 7.23 13.14 7.23s-3.88-6.67-7.72-12.91c7.1 1.73 14.6 3.38 14.6 3.38s-5.54-5.36-10.94-10.33zm-26.95-.3a6.51 6.51 0 00-1.4.12 6.41 6.41 0 00-1.17-.49 6.1 6.1 0 00-1.38-.26 7.06 7.06 0 00-1-.8 7.35 7.35 0 00-1.26-.62 7.31 7.31 0 00-.74-1 7.07 7.07 0 00-1-.94 6.66 6.66 0 00-.44-1.2 6.26 6.26 0 00-.74-1.19 6.85 6.85 0 00-.09-1.27 7.5 7.5 0 00-.39-1.35 6.34 6.34 0 00.25-1.24 6.64 6.64 0 000-1.41 6 6 0 00.59-1.13 7.32 7.32 0 00.37-1.35 7 7 0 00.87-.93 6.75 6.75 0 00.73-1.2 6.38 6.38 0 001.08-.66 6.3 6.3 0 001-1 6.27 6.27 0 001.23-.34 6.6 6.6 0 001.24-.64 6.84 6.84 0 001.28 0 6.32 6.32 0 001.15-.22 6.73 6.73 0 001 .23 6 6 0 001.4 0 6 6 0 001.11.62 6.7 6.7 0 001.34.42 7 7 0 00.9.9 6.82 6.82 0 001.18.77 6.12 6.12 0 00.62 1.11 6.18 6.18 0 00.92 1 6.06 6.06 0 00.3 1.24 6.17 6.17 0 00.6 1.27 6 6 0 00-.05 1.27 6.41 6.41 0 00.23 1.39 6.23 6.23 0 00-.55 2.6 6.39 6.39 0 00-1.23 2.36 6.8 6.8 0 00-1 .82 6.89 6.89 0 00-.86 1.11 8 8 0 00-1.16.53A7.28 7.28 0 00276 60a6.86 6.86 0 00-1.26.19 6.45 6.45 0 00-1.31.5 6.59 6.59 0 00-1.3-.15z" fill="#f28f30"/><path d="M300.18 57.09c7.21-1.25 14.75-2.75 14.75-2.75s-7.23-2.69-14.16-5.08c6.6-3.16 13.44-6.65 13.44-6.65s-7.69-.63-15-1c5.5-4.84 11.13-10 11.13-10s-7.57 1.48-14.72 3.07c4-6.15 8-12.7 8-12.7s-6.89 3.49-13.34 7c2.15-7 4.23-14.39 4.23-14.39s-5.68 5.23-11 10.32c.17-7.31.16-15 .16-15s-4 6.57-7.73 12.9C274.13 15.6 272 8.21 272 8.21s-1.77 6.22-3.47 12.72c-3.12-5.94-6.23-11.57-6.23-11.57s-.37 7.7-.54 15c-5-5.32-10.42-10.78-10.42-10.78s1.73 7.51 3.56 14.61c-6.28-3.76-13-7.54-13-7.54s3.72 6.76 7.4 13.09c-6.98-1.88-14.44-3.74-14.44-3.74s5.41 5.5 10.68 10.6c-7.31.07-15 .34-15 .34s6.7 3.82 13.16 7.29c-7 2.07-14.33 4.41-14.33 4.41s7.49 1.85 14.64 3.44c-6.19 3.89-12.59 8.14-12.59 8.14s7.71-.26 15-.67c-4.91 5.43-9.91 11.25-9.91 11.25s7.35-2.34 14.28-4.73c-3.25 6.56-6.48 13.52-6.48 13.52s6.43-4.24 12.46-8.43c-1.34 7.2-2.57 14.78-2.57 14.78s5.05-5.84 9.7-11.5c.67 7.29 1.55 14.91 1.55 14.91s3.27-7 6.21-13.7c2.62 6.83 5.55 13.93 5.55 13.93s1.24-7.61 2.25-14.87c4.38 5.86 9.12 11.9 9.12 11.9s-.87-7.66-1.87-14.92c5.8 4.45 12 9 12 9s-2.92-7.14-5.86-13.85c6.8 2.7 14 5.37 14 5.37s-4.75-6.08-9.41-11.74c7.28.75 14.94 1.36 14.94 1.36s-6.18-4.56-12.2-8.74zm-26.74 3.36a7 7 0 00-1.37.31 6.93 6.93 0 00-1.23-.32 6.62 6.62 0 00-1.4-.08 7.84 7.84 0 00-1.09-.65 6.73 6.73 0 00-1.33-.45 6.36 6.36 0 00-.88-.92 7 7 0 00-1.16-.8 6.68 6.68 0 00-.59-1.12 6.29 6.29 0 00-.9-1.08 6 6 0 00-.26-1.24 6.82 6.82 0 00-.57-1.29 7.53 7.53 0 00.08-1.27 7.06 7.06 0 00-.2-1.39A6.84 6.84 0 00263 49a6.62 6.62 0 00.18-1.39 6.69 6.69 0 00.74-1 6.5 6.5 0 00.55-1.28 6.87 6.87 0 001-.81 6.47 6.47 0 00.89-1.08 6.82 6.82 0 002.28-1.44 7 7 0 001.26-.17 6.57 6.57 0 001.1-.33 7 7 0 001 .09 6.37 6.37 0 001.39-.15 6.82 6.82 0 001.19.46 6 6 0 001.38.23 5.93 5.93 0 001 .77 6.31 6.31 0 001.26.6 6.82 6.82 0 00.77 1 6.54 6.54 0 001.06.92 7 7 0 00.46 1.19 6.76 6.76 0 00.77 1.17 6.91 6.91 0 00.12 1.27 6.54 6.54 0 00.42 1.34 6.36 6.36 0 00-.19 2.65 7.17 7.17 0 00-.55 1.15 6.64 6.64 0 00-.35 1.36 7.09 7.09 0 00-.85 1 6.67 6.67 0 00-.7 1.21 6.49 6.49 0 00-1.07.69 5.8 5.8 0 00-1 1 6.79 6.79 0 00-1.22.36 6.41 6.41 0 00-1.24.67 6.76 6.76 0 00-1.21-.03z" fill="#fab722"/><circle cx="272.35" cy="51.1" fill="#71441d" r="20.82"/></symbol>
<symbol id="i-world-grass-tree1" viewBox="0 0 259 433" xmlns="http://www.w3.org/2000/svg"><path d="M34 325V87c1.75-1.44 1.32-3.63 1.75-5.47 9.6-41.29 35-67.19 75.83-78.2 3.13-.84 6.52-.6 9.42-2.33h26c.64 1.42 2 .87 3.05 1.08q61.62 12.27 80.52 72.16C232 78.76 232 83.64 234 88v237c-2.74 3.06-5.29 6.17-10.11 6.07s-7.4-2.91-9.83-6.37c-6.9 8.63-12.79 8.63-20.35 0-2.19 3.84-5.17 6.31-9.84 6.32s-7.38-2.92-9.83-6.35c-6.89 8.69-12.84 8.67-20 .31-6.77 7.64-10.71 8.07-18.37 1.79-1.32-1.08-2-1.08-3.28 0-7.67 6.28-11.61 5.85-18.37-1.79-2.73 3.06-5.29 6.16-10.11 6.06s-7.39-2.92-9.83-6.37c-6.88 8.63-12.75 8.63-20.28.12-2.34 3.61-5.19 6.27-9.91 6.24s-7.38-2.93-9.82-6.37c-6.89 8.7-12.89 8.68-20.07.34z" fill="#8dc53f"/><path d="M154 325v106h-40V325c6.76 7.64 10.7 8.07 18.37 1.79 1.32-1.08 2-1.08 3.28 0 7.65 6.29 11.59 5.86 18.35-1.79z" fill="#a57c52"/></symbol>
<symbol id="i-world-grass-tree2" viewBox="0 0 140 185" xmlns="http://www.w3.org/2000/svg"><path d="M140 59v75c-7.28 8.44-12.79 8.43-20.21-.22-2.34 3.58-5.11 6.29-9.85 6.29s-7.42-2.85-10-6.64c-3.48 6.37-8.52 7.83-14.81 5.72a9 9 0 01-1.87-1.63c-2.16-3.37-3.75-3.15-6.49-.14-3.76 4.14-10.3 3.73-14.19-.68-2.18-2.46-3.33-2.61-5.07.1a13.13 13.13 0 01-2.56 2.35c-6.47 2.33-11.5.36-15-5.81-2.14 3.77-4.53 6.08-8.33 6.64-5.43.81-8.83-2.31-11.67-6.43-6.25 8.78-12.83 8.78-19.95.45V58c1.81-.94 1.37-2.88 1.78-4.36Q13 12.57 54.09 1.65c1.63-.44 3.73.2 4.91-1.65h22c.68 1.67 2.29 1 3.46 1.28q43.38 10.89 54.26 54.26c.28 1.17-.39 2.78 1.28 3.46z" fill="#39b44a"/><path d="M55 185l-.09-45.85a13.13 13.13 0 002.56-2.35c1.74-2.71 2.89-2.56 5.07-.1 3.89 4.41 10.43 4.82 14.19.68 2.74-3 4.33-3.23 6.49.14a9 9 0 001.87 1.63L85 185z" fill="#a57c52"/></symbol>
<symbol id="i-world-grass-tree3" viewBox="0 0 140 95" xmlns="http://www.w3.org/2000/svg"><path d="M59 0h22c.68 1.67 2.29 1 3.46 1.28q43.38 10.91 54.26 54.26c.29 1.17-.39 2.78 1.28 3.46v20c-7.3 8.44-12.78 8.43-20.21-.22-2.34 3.58-5.11 6.29-9.85 6.28s-7.42-2.84-10-6.63c-3.48 6.36-8.52 7.83-14.81 5.72a9 9 0 01-1.87-1.63c-2.16-3.37-3.76-3.14-6.49-.14-3.76 4.13-10.3 3.73-14.19-.67-2.17-2.46-3.32-2.62-5.07.09a13.45 13.45 0 01-2.56 2.35q-9.7 3.5-15.08-5.91c-2 4-4.53 6.14-8.28 6.73-5.43.85-8.83-2.31-11.67-6.42C13.69 87.32 7.13 87.32 0 79V58c1.81-.94 1.38-2.88 1.78-4.36Q13 12.57 54.1 1.65c1.63-.43 3.72.2 4.9-1.65z" fill="#3ab54b"/><path d="M55 95l-.09-10.85a13.45 13.45 0 002.56-2.35c1.75-2.71 2.9-2.55 5.07-.09 3.89 4.4 10.43 4.8 14.19.67 2.73-3 4.33-3.23 6.49.14a9 9 0 001.87 1.63L85 95z" fill="#a57c52"/></symbol>
<symbol id="i-world-grass-tree4" viewBox="0 0 200 300" xmlns="http://www.w3.org/2000/svg"><path d="M87 0h26c.64 1.42 2 .87 3.06 1.08q61.6 12.27 80.51 72.16C198 77.76 198 82.64 200 87v107c-2.74 3.06-5.29 6.17-10.11 6.07s-7.4-2.9-9.83-6.36c-6.9 8.62-12.79 8.62-20.28.1-2.34 3.62-5.19 6.28-9.91 6.25s-7.38-2.93-9.83-6.36c-6.9 8.69-12.84 8.67-20 .31-6.77 7.64-10.71 8.07-18.37 1.79-1.32-1.08-2-1.08-3.28 0-7.7 6.28-11.64 5.85-18.39-1.8-2.73 3.06-5.29 6.16-10.11 6.06s-7.39-2.92-9.83-6.36c-6.88 8.62-12.75 8.62-20.35 0-2.19 3.83-5.16 6.3-9.83 6.31s-7.39-2.92-9.83-6.36c-6.86 8.67-12.86 8.65-20 .31V86c1.75-1.44 1.32-3.63 1.75-5.47 9.6-41.29 35-67.19 75.83-78.2C80.71 1.49 84.1 1.73 87 0z" fill="#8dc53f"/><path d="M120 194v106H80V194c6.76 7.64 10.7 8.07 18.37 1.79 1.32-1.08 2-1.08 3.28 0 7.65 6.29 11.59 5.86 18.35-1.79z" fill="#a57c52"/></symbol>
<symbol id="i-world-grass-wheelbarrow" viewBox="0 0 273 116" xmlns="http://www.w3.org/2000/svg"><path d="M270.42 89.39a23.76 23.76 0 11-23.76-23.76 23.76 23.76 0 0123.76 23.76z" fill="#f29010"/><path d="M210.75 66.21c-4.68 4.63-13.89 8.41-20.47 8.41H114c-6.58 0-13.93-5-16.34-11.13l-16.91-42.9c-2.41-6.13 1-11.14 7.59-11.14h167.81c6.58 0 8.14 3.79 3.46 8.42z" fill="#ea212d"/><g fill="#333"><path d="M246.66 68.21a21.18 21.18 0 1021.18 21.18 21.2 21.2 0 00-21.18-21.18zm0 47.52A26.34 26.34 0 11273 89.39a26.37 26.37 0 01-26.34 26.34zM270.15 12.06c0 2.81-3.13 5.1-7 5.1H79.49c-3.86 0-7-2.29-7-5.1 0-2.82 3.13-5.1 7-5.1h183.67c3.86 0 7 2.28 7 5.1z"/><path d="M246.66 92.71a3.41 3.41 0 01-1.24-.24L207 77l-102.74-1.94-67.52-59.68H3.66a3.32 3.32 0 010-6.64h35.59l67.58 59.71 101.51 1.88 39.57 16a3.32 3.32 0 01-1.25 6.4z"/><path d="M112.47 109.73a9 9 0 01-2.28-.29c-6.42-1.74-9.63-9-9.54-21.64a103.2 103.2 0 011.63-16.67 3.32 3.32 0 116.53 1.25c-2.19 11.42-2.7 29.06 3.12 30.64s22-14.71 33.67-30.67a3.33 3.33 0 115.4 3.94c-6 8.15-25.59 33.44-38.49 33.44z"/></g><g fill="#f29010"><path d="M156.62 43.74a7.53 7.53 0 11-7.53-7.53 7.53 7.53 0 017.53 7.53zM185.33 43.74a7.53 7.53 0 11-7.53-7.53 7.53 7.53 0 017.53 7.53zM216.53 43.74a7.53 7.53 0 11-7.53-7.53 7.53 7.53 0 017.53 7.53z"/></g></symbol>
</svg>