<svg xmlns="http://www.w3.org/2000/svg" viewBox="0 0 157 180">
  <title>Nate_Sprites</title>
  <g id="Layer_2" data-name="Layer 2">
    <g>
      <polygon points="34.59 146.02 34.51 132.02 79.95 133.17 80.56 146.19 34.59 146.02" style="fill: #1b1464"/>
      <rect x="26" y="124.49" width="30" height="13" transform="translate(171.76 89.26) rotate(89.68)" style="fill: #8c6239"/>
      <polygon points="126.49 132.72 127.41 146.69 79 146.5 78 133.5 126.49 132.72" style="fill: #1b1464"/>
      <rect x="105.47" y="126.15" width="29" height="13" transform="translate(-4.52 261.06) rotate(-93.76)" style="fill: #8c6239"/>
    </g>
    <g>
      <path d="M98.5,91v44h-39V90h0C42,69.5,16,77.5,16,77.5l-5-13A44.49,44.49,0,0,1,59.5,73h0l31.5.5h8s11-15,46-10l-6,14s-23-2-40.5,13.5" style="fill: #fff"/>
      <circle cx="9.5" cy="73" r="9.5" style="fill: #f9d0a7"/>
      <circle cx="147.5" cy="72" r="9.5" style="fill: #f9d0a7"/>
    </g>
    <g>
      <polygon points="73.99 73 78.5 83 83.5 83 89.5 73 73.99 73" style="fill: #006837"/>
      <path d="M78.5,83l-3,41,5.59,7.34a.53.53,0,0,0,.88,0L86.5,124l-3-41Z" style="fill: #009245"/>
      <path d="M73.5,73l4.42,8.07a.8.8,0,0,1-1.17.91l-15.7-9Z" style="fill: #e6e6e6"/>
      <path d="M84.07,81,89,73h9.5l-14,8.42A.32.32,0,0,1,84.07,81Z" style="fill: #e6e6e6"/>
    </g>
    <g>
      <ellipse cx="79.61" cy="43.64" rx="32.39" ry="32.14" style="fill: #f9d0a7"/>
      <circle cx="48.95" cy="50.28" r="6.45" style="fill: #f9d0a7"/>
      <path d="M98,62.73c0,2.63-3.36,4.77-7.5,4.77S83,65.36,83,62.73s3.86-1.23,8-1.23S98,60.09,98,62.73Z" style="fill: #fff"/>
    </g>
    <g>
      <path d="M111.36,38.81C110.86,33.34,110,32,109.1,27a1.09,1.09,0,0,0-.58-.78L85.76,14.65a1,1,0,0,0-.63-.11L62.76,17.35H52.46a1.09,1.09,0,0,0-.81,1.81h0a1.08,1.08,0,0,1-.24,1.64c-2,1.21-5.73,4.39-3.93,10.72a1.17,1.17,0,0,0,.09.24c.44.8-.73,4.45.47,17.23a1.37,1.37,0,0,0,2.71.15C52.86,39,60.39,27.4,64.82,23.42a1.06,1.06,0,0,1,.92-.23l39.75,5.43a1.08,1.08,0,0,1,.51.26c.54.51,1.72,5.17,2.76,10.3A1.31,1.31,0,0,0,111.36,38.81Z" style="fill: #d1a44a"/>
      <path d="M80.59,34.32C78,34.15,57.68,30.58,52,20.5c0,0,6-17,23-20,0,0,10.46-1.7,23.2,7.7.37.28,5.86,6.35,6.12,6.73,1.92,2.73,6.2,9.82,11.94,11.87a.3.3,0,0,1-.06.58c-5,.54-21,2-29.24-.84l9.36,5.22a.2.2,0,0,1-.1.38c-4.14-.39-20.88-2-23.17-3.79l7.6,5.79A.1.1,0,0,1,80.59,34.32Z" style="fill: #ddae47"/>
    </g>
    <g>
      <g>
        <rect x="91" y="34.5" width="20" height="16" rx="8" style="fill: #fff;stroke: #000;stroke-miterlimit: 10;stroke-width: 2px"/>
        <rect x="66" y="34.5" width="20" height="16" rx="8" style="fill: #fff;stroke: #000;stroke-miterlimit: 10;stroke-width: 2px"/>
        <line x1="86" y1="42.5" x2="91" y2="42.5" style="fill: none;stroke: #000;stroke-miterlimit: 10;stroke-width: 2px"/>
      </g>
      <circle cx="79.5" cy="42" r="1.5"/>
      <circle cx="103.5" cy="42" r="1.5"/>
    </g>
  </g>
</svg>
