<svg xmlns="http://www.w3.org/2000/svg" viewBox="0 0 157 180">
  <title>Nate_Sprites</title>
  <g id="Layer_2" data-name="Layer 2">
    <g>
      <polygon points="34.59 147.02 34.51 133.02 79.95 134.17 80.56 147.19 34.59 147.02" style="fill: #1b1464"/>
      <rect x="26" y="125.49" width="30" height="13" transform="translate(172.76 90.25) rotate(89.68)" style="fill: #8c6239"/>
      <polygon points="126.49 133.72 127.41 147.69 79 147.5 78 134.5 126.49 133.72" style="fill: #1b1464"/>
      <rect x="105.47" y="127.15" width="29" height="13" transform="translate(-5.51 262.13) rotate(-93.76)" style="fill: #8c6239"/>
    </g>
    <g>
      <path d="M98.5,92v44h-39V91h0C42,70.5,16,78.5,16,78.5l-5-13A44.49,44.49,0,0,1,59.5,74h0l31.5.5h8s11-15,46-10l-6,14s-23-2-40.5,13.5" style="fill: #fff"/>
      <circle cx="10.5" cy="74" r="9.5" style="fill: #f9d0a7"/>
      <circle cx="146.5" cy="73" r="9.5" style="fill: #f9d0a7"/>
    </g>
    <g>
      <ellipse cx="79.61" cy="44.64" rx="32.39" ry="32.14" style="fill: #f9d0a7"/>
      <circle cx="48.95" cy="51.28" r="6.45" style="fill: #f9d0a7"/>
      <path d="M98,63.73c0,2.63-3.36,4.77-7.5,4.77S83,66.36,83,63.73s3.86-1.23,8-1.23S98,61.09,98,63.73Z" style="fill: #fff"/>
    </g>
    <g>
      <path d="M111.36,39.81C110.86,34.34,110,33,109.1,28a1.09,1.09,0,0,0-.58-.78L85.76,15.65a1,1,0,0,0-.63-.11L62.76,18.35H52.46a1.09,1.09,0,0,0-.81,1.81h0a1.08,1.08,0,0,1-.24,1.64c-2,1.21-5.73,4.39-3.93,10.72a1.17,1.17,0,0,0,.09.24c.44.8-.73,4.45.47,17.23a1.37,1.37,0,0,0,2.71.15C52.86,40,60.39,28.4,64.82,24.42a1.06,1.06,0,0,1,.92-.23l39.75,5.43a1.08,1.08,0,0,1,.51.26c.54.51,1.72,5.17,2.76,10.3A1.31,1.31,0,0,0,111.36,39.81Z" style="fill: #d1a44a"/>
      <path d="M80.59,35.32C78,35.15,57.68,31.58,52,21.5c0,0,6-17,23-20,0,0,10.46-1.7,23.2,7.7.37.28,5.86,6.35,6.12,6.73,1.92,2.73,6.2,9.82,11.94,11.87a.3.3,0,0,1-.06.58c-5,.54-21,2-29.24-.84l9.36,5.22a.2.2,0,0,1-.1.38c-4.14-.39-20.88-2-23.17-3.79l7.6,5.79A.1.1,0,0,1,80.59,35.32Z" style="fill: #ddae47"/>
    </g>
    <g>
      <g>
        <rect x="91" y="35.5" width="20" height="16" rx="8" style="fill: #fff;stroke: #000;stroke-miterlimit: 10;stroke-width: 2px"/>
        <rect x="66" y="35.5" width="20" height="16" rx="8" style="fill: #fff;stroke: #000;stroke-miterlimit: 10;stroke-width: 2px"/>
        <line x1="86" y1="43.5" x2="91" y2="43.5" style="fill: none;stroke: #000;stroke-miterlimit: 10;stroke-width: 2px"/>
      </g>
      <circle cx="79.5" cy="43" r="1.5"/>
      <circle cx="103.5" cy="43" r="1.5"/>
    </g>
    <g>
      <polygon points="73.49 74.5 78 84.5 83 84.5 89 74.5 73.49 74.5" style="fill: #006837"/>
      <path d="M73,74.5l4.42,8.07a.8.8,0,0,1-1.17.91l-15.7-9Z" style="fill: #e6e6e6"/>
      <path d="M83.57,82.48l4.93-8H98L84,82.92A.32.32,0,0,1,83.57,82.48Z" style="fill: #e6e6e6"/>
      <path d="M78,84.5,39.5,51l.09-8.16c.1.16.74.15.91.16.46,0,.44.12.86.34L48.5,47,83,84.5Z" style="fill: #009245"/>
    </g>
  </g>
</svg>
