<svg xmlns="http://www.w3.org/2000/svg" viewBox="0 0 157 180">
  <title>Nate_Sprites</title>
  <g id="Layer_2" data-name="Layer 2">
    <g>
      <rect x="85.82" y="133" width="14" height="40" transform="translate(185.63 306) rotate(-180)" style="fill: #1b1464"/>
      <rect x="70.32" y="160.5" width="30" height="13" transform="translate(170.63 334) rotate(-180)" style="fill: #8c6239"/>
      <rect x="60.82" y="134" width="14" height="39" transform="translate(135.63 307) rotate(-180)" style="fill: #1b1464"/>
      <rect x="45.82" y="160" width="29" height="13" transform="translate(120.63 333) rotate(-180)" style="fill: #8c6239"/>
    </g>
    <g>
      <path d="M60.82,92v44h39V91h0c6.5,17.5-2.5,41.5-2.5,41.5l15,5c18-56-12.5-63.5-12.5-63.5h-35l-5,1-3.5.5s-1,38-20,42l9,10s18-1,15.5-35.5" style="fill: #fff"/>
      <circle cx="103.82" cy="137" r="9.5" style="fill: #f9d0a7"/>
      <circle cx="35.82" cy="127" r="9.5" style="fill: #f9d0a7"/>
    </g>
    <g>
      <polygon points="85.33 74 80.81 84 75.81 84 69.81 74 85.33 74" style="fill: #006837"/>
      <path d="M80.82,84l3,41-5.59,7.34a.53.53,0,0,1-.88,0L72.82,125l3-41Z" style="fill: #009245"/>
      <path d="M85.82,74,81.4,82.07a.79.79,0,0,0,1.16.91l15.71-9Z" style="fill: #e6e6e6"/>
      <path d="M75.24,82l-4.92-8h-9.5l14,8.42A.32.32,0,0,0,75.24,82Z" style="fill: #e6e6e6"/>
    </g>
    <g>
      <ellipse cx="79.71" cy="44.64" rx="32.39" ry="32.14" style="fill: #f9d0a7"/>
      <circle cx="110.37" cy="51.28" r="6.45" style="fill: #f9d0a7"/>
      <path d="M61.32,63.73c0,2.63,3.35,4.77,7.5,4.77s7.5-2.14,7.5-4.77-3.86-1.23-8-1.23S61.32,61.09,61.32,63.73Z" style="fill: #fff"/>
    </g>
    <g>
      <path d="M48,39.81C48.46,34.34,49.31,33,50.22,28a1.07,1.07,0,0,1,.57-.78L73.55,15.65a1.07,1.07,0,0,1,.63-.11l22.37,2.81h10.3a1.09,1.09,0,0,1,.82,1.81h0a1.08,1.08,0,0,0,.23,1.64c2,1.21,5.74,4.39,3.94,10.72a1.22,1.22,0,0,1-.1.24c-.43.8.73,4.45-.47,17.23a1.37,1.37,0,0,1-2.7.15C106.46,40,98.93,28.4,94.5,24.42a1.07,1.07,0,0,0-.93-.23L53.83,29.62a1.08,1.08,0,0,0-.51.26c-.54.51-1.72,5.17-2.77,10.3A1.31,1.31,0,0,1,48,39.81Z" style="fill: #d1a44a"/>
      <path d="M78.73,35.32c2.59-.17,22.9-3.74,28.59-13.82,0,0-6-17-23-20,0,0-10.47-1.7-23.21,7.7-.37.28-5.85,6.35-6.12,6.73-1.91,2.73-6.19,9.82-11.93,11.87a.3.3,0,0,0,.06.58c5,.54,21,2,29.23-.84L63,32.76a.2.2,0,0,0,.11.38c4.13-.39,20.88-2,23.17-3.79l-7.61,5.79A.1.1,0,0,0,78.73,35.32Z" style="fill: #ddae47"/>
    </g>
    <g>
      <g>
        <rect x="48.32" y="35.5" width="20" height="16" rx="8" transform="translate(116.63 87) rotate(180)" style="fill: #fff;stroke: #000;stroke-miterlimit: 10;stroke-width: 2px"/>
        <rect x="73.32" y="35.5" width="20" height="16" rx="8" transform="translate(166.63 87) rotate(-180)" style="fill: #fff;stroke: #000;stroke-miterlimit: 10;stroke-width: 2px"/>
        <line x1="73.32" y1="43.5" x2="68.32" y2="43.5" style="fill: none;stroke: #000;stroke-miterlimit: 10;stroke-width: 2px"/>
      </g>
      <circle cx="79.82" cy="43" r="1.5"/>
      <circle cx="55.82" cy="43" r="1.5"/>
    </g>
  </g>
</svg>
