<svg xmlns="http://www.w3.org/2000/svg" viewBox="0 0 157 180">
  <title>Nate_Sprites</title>
  <g id="Layer_2" data-name="Layer 2">
    <g>
      <rect x="78.5" y="133" width="14" height="40" transform="translate(171 306) rotate(-180)" style="fill: #1b1464"/>
      <rect x="78.5" y="160" width="30" height="13" transform="translate(187 333) rotate(-180)" style="fill: #8c6239"/>
      <rect x="53.5" y="134" width="14" height="39" transform="translate(121 307) rotate(-180)" style="fill: #1b1464"/>
      <rect x="38.5" y="160" width="29" height="13" transform="translate(106 333) rotate(-180)" style="fill: #8c6239"/>
    </g>
    <g>
      <path d="M53.5,92v44h39V91h0c21,8.53,21,28,21,28l15-3c-7-35-36-42-36-42h-35l-5,1h0S23.9,81,17,116l14.79,3s1-18.47,21.71-27" style="fill: #fff"/>
      <circle cx="123" cy="123.5" r="9.5" style="fill: #f9d0a7"/>
      <circle cx="23" cy="123.5" r="9.5" style="fill: #f9d0a7"/>
    </g>
    <g>
      <polygon points="78.01 74 73.5 84 68.5 84 62.5 74 78.01 74" style="fill: #006837"/>
      <path d="M73.5,84l3,41-5.59,7.34a.53.53,0,0,1-.88,0L65.5,125l3-41Z" style="fill: #009245"/>
      <path d="M78.5,74l-4.42,8.07a.8.8,0,0,0,1.17.91L91,74Z" style="fill: #e6e6e6"/>
      <path d="M67.93,82,63,74H53.5l14,8.42A.32.32,0,0,0,67.93,82Z" style="fill: #e6e6e6"/>
    </g>
    <g>
      <ellipse cx="72.39" cy="44.64" rx="32.39" ry="32.14" style="fill: #f9d0a7"/>
      <circle cx="103.05" cy="51.28" r="6.45" style="fill: #f9d0a7"/>
      <path d="M54,63.73c0,2.63,3.36,4.77,7.5,4.77S69,66.36,69,63.73s-3.86-1.23-8-1.23S54,61.09,54,63.73Z" style="fill: #fff"/>
    </g>
    <g>
      <path d="M40.64,39.81C41.14,34.34,42,33,42.9,28a1.09,1.09,0,0,1,.58-.78L66.24,15.65a1,1,0,0,1,.63-.11l22.37,2.81h10.3a1.09,1.09,0,0,1,.81,1.81h0a1.08,1.08,0,0,0,.24,1.64c2,1.21,5.73,4.39,3.93,10.72a1.17,1.17,0,0,1-.09.24c-.44.8.73,4.45-.47,17.23a1.37,1.37,0,0,1-2.71.15C99.14,40,91.61,28.4,87.18,24.42a1.06,1.06,0,0,0-.92-.23L46.51,29.62a1.08,1.08,0,0,0-.51.26c-.54.51-1.72,5.17-2.76,10.3A1.31,1.31,0,0,1,40.64,39.81Z" style="fill: #d1a44a"/>
      <path d="M71.41,35.32C74,35.15,94.32,31.58,100,21.5c0,0-6-17-23-20,0,0-10.46-1.7-23.2,7.7-.37.28-5.86,6.35-6.12,6.73-1.92,2.73-6.2,9.82-11.94,11.87a.3.3,0,0,0,.06.58c5,.54,21,2,29.24-.84l-9.36,5.22a.2.2,0,0,0,.1.38c4.14-.39,20.88-2,23.17-3.79l-7.6,5.79A.1.1,0,0,0,71.41,35.32Z" style="fill: #ddae47"/>
    </g>
    <g>
      <g>
        <rect x="41" y="35.5" width="20" height="16" rx="8" transform="translate(102 87) rotate(180)" style="fill: #fff;stroke: #000;stroke-miterlimit: 10;stroke-width: 2px"/>
        <rect x="66" y="35.5" width="20" height="16" rx="8" transform="translate(152 87) rotate(-180)" style="fill: #fff;stroke: #000;stroke-miterlimit: 10;stroke-width: 2px"/>
        <line x1="66" y1="43.5" x2="61" y2="43.5" style="fill: none;stroke: #000;stroke-miterlimit: 10;stroke-width: 2px"/>
      </g>
      <circle cx="72.5" cy="43" r="1.5"/>
      <circle cx="48.5" cy="43" r="1.5"/>
    </g>
  </g>
</svg>
