<svg xmlns="http://www.w3.org/2000/svg" viewBox="0 0 157 180">
  <title>Nate_Sprites</title>
  <g id="Layer_2" data-name="Layer 2">
    <g>
      <rect x="26" y="121.5" width="29" height="13" transform="translate(69.43 -3.1) rotate(30)" style="fill: #8c6239"/>
      <rect x="41.93" y="108.5" width="14" height="40" transform="translate(70.71 -7.27) rotate(29.96)" style="fill: #1b1464"/>
      <rect x="18.53" y="147.54" width="30" height="13.62" transform="translate(-116.91 106.21) rotate(-60)" style="fill: #8c6239"/>
      <polygon points="71.31 154.39 38 134.5 44 123.5 65.59 136.3 78.69 113.61 90.81 120.61 71.31 154.39" style="fill: #1b1464"/>
    </g>
    <g>
      <path d="M108.45,90.84,85.68,128.49,52.31,108.3,70,74.5H64a341.54,341.54,0,0,0-36,0l1-12c26-1,34,0,34,0H75l35,12,4,2,3,2a16.65,16.65,0,0,0-5,6l-2,4s0,1-1.55,2.34" style="fill: #fff"/>
      <circle cx="22.5" cy="69" r="9.5" style="fill: #f9d0a7"/>
    </g>
    <g>
      <polygon points="89.86 69.55 89.36 80.51 93.82 82.77 103.7 76.56 89.86 69.55" style="fill: #006837"/>
      <path d="M89.36,80.51,68.15,115.72l1.66,9.08a.54.54,0,0,0,.77.43L78,120.7,93.82,82.77Z" style="fill: #009245"/>
      <path d="M89.43,69.33l.29,9.19a.79.79,0,0,1-1.45.29l-10-15.11Z" style="fill: #e6e6e6"/>
      <path d="M95.25,81.23l8-4.89L114,76.5,95.44,81.82A.32.32,0,0,1,95.25,81.23Z" style="fill: #e6e6e6"/>
    </g>
    <g>
      <ellipse cx="105.61" cy="44.64" rx="32.39" ry="32.14" style="fill: #f9d0a7"/>
      <circle cx="74.95" cy="51.28" r="6.45" style="fill: #f9d0a7"/>
      <path d="M124,63.73c0,2.63-3.36,4.77-7.5,4.77s-7.5-2.14-7.5-4.77,3.86-1.23,8-1.23S124,61.09,124,63.73Z" style="fill: #fff"/>
    </g>
    <g>
      <path d="M137.36,39.81C136.86,34.34,136,33,135.1,28a1.09,1.09,0,0,0-.58-.78L111.76,15.65a1,1,0,0,0-.63-.11L88.76,18.35H78.46a1.09,1.09,0,0,0-.81,1.81h0a1.08,1.08,0,0,1-.24,1.64c-2,1.21-5.73,4.39-3.93,10.72a1.17,1.17,0,0,0,.09.24c.44.8-.73,4.45.47,17.23a1.37,1.37,0,0,0,2.71.15C78.86,40,86.39,28.4,90.82,24.42a1.06,1.06,0,0,1,.92-.23l39.75,5.43a1.08,1.08,0,0,1,.51.26c.54.51,1.72,5.17,2.76,10.3A1.31,1.31,0,0,0,137.36,39.81Z" style="fill: #d1a44a"/>
      <path d="M106.59,35.32C104,35.15,83.68,31.58,78,21.5c0,0,6-17,23-20,0,0,10.46-1.7,23.2,7.7.37.28,5.86,6.35,6.12,6.73,1.92,2.73,6.2,9.82,11.94,11.87a.3.3,0,0,1-.06.58c-5,.54-21,2-29.24-.84l9.36,5.22a.2.2,0,0,1-.1.38c-4.14-.39-20.88-2-23.17-3.79l7.6,5.79A.1.1,0,0,1,106.59,35.32Z" style="fill: #ddae47"/>
    </g>
    <g>
      <g>
        <rect x="117" y="35.5" width="20" height="16" rx="8" style="fill: #fff;stroke: #000;stroke-miterlimit: 10;stroke-width: 2px"/>
        <rect x="92" y="35.5" width="20" height="16" rx="8" style="fill: #fff;stroke: #000;stroke-miterlimit: 10;stroke-width: 2px"/>
        <line x1="112" y1="43.5" x2="117" y2="43.5" style="fill: none;stroke: #000;stroke-miterlimit: 10;stroke-width: 2px"/>
      </g>
      <circle cx="105.5" cy="43" r="1.5"/>
      <circle cx="129.5" cy="43" r="1.5"/>
    </g>
  </g>
</svg>
