<svg xmlns="http://www.w3.org/2000/svg" viewBox="0 0 157 180">
  <title>Nate_Sprites</title>
  <g id="Layer_2" data-name="Layer 2">
    <g>
      <rect x="33" y="100.5" width="14" height="40" transform="translate(71.09 -2.6) rotate(32.54)" style="fill: #1b1464"/>
      <polygon points="23.15 133.55 0.86 119.41 7.85 108.45 30.14 122.59 23.15 133.55" style="fill: #8c6239"/>
      <rect x="50.7" y="121.93" width="14" height="39" transform="matrix(0.84, 0.54, -0.54, 0.84, 86.05, -8.66)" style="fill: #1b1464"/>
      <rect x="29.94" y="154.73" width="29" height="14.72" transform="translate(204.68 212.8) rotate(122.89)" style="fill: #8c6239"/>
    </g>
    <g>
      <path d="M96,91.5l-22,38-35-20,12-20,8-15c-6,11-1,2-1,2v-1a1,1,0,0,0,1-1l2-3,3-4,30,9h23s11,0,27-1v15s-13,2-33.5,1.5" style="fill: #fff"/>
      <circle cx="146.5" cy="83" r="9.5" style="fill: #f9d0a7"/>
    </g>
    <g>
      <polygon points="78 73.13 78.14 84.1 82.72 86.1 94 76.5 78 73.13" style="fill: #006837"/>
      <path d="M78.14,84.1,59,120.48l2.19,9a.53.53,0,0,0,.79.39l7.1-5L82.72,86.1Z" style="fill: #009245"/>
      <path d="M77.55,72.94l.83,9.16a.8.8,0,0,1-1.44.37L66.14,68Z" style="fill: #e6e6e6"/>
      <path d="M84.05,84.48l10-8h9L84.28,85.06A.32.32,0,0,1,84.05,84.48Z" style="fill: #e6e6e6"/>
    </g>
    <g>
      <ellipse cx="91.61" cy="44.64" rx="32.39" ry="32.14" style="fill: #f9d0a7"/>
      <circle cx="60.95" cy="51.28" r="6.45" style="fill: #f9d0a7"/>
      <path d="M110,63.73c0,2.63-3.36,4.77-7.5,4.77S95,66.36,95,63.73s3.86-1.23,8-1.23S110,61.09,110,63.73Z" style="fill: #fff"/>
    </g>
    <g>
      <path d="M123.36,39.81C122.86,34.34,122,33,121.1,28a1.09,1.09,0,0,0-.58-.78L97.76,15.65a1,1,0,0,0-.63-.11L74.76,18.35H64.46a1.09,1.09,0,0,0-.81,1.81h0a1.08,1.08,0,0,1-.24,1.64c-2,1.21-5.73,4.39-3.93,10.72a1.17,1.17,0,0,0,.09.24c.44.8-.73,4.45.47,17.23a1.37,1.37,0,0,0,2.71.15C64.86,40,72.39,28.4,76.82,24.42a1.06,1.06,0,0,1,.92-.23l39.75,5.43a1.08,1.08,0,0,1,.51.26c.54.51,1.72,5.17,2.76,10.3A1.31,1.31,0,0,0,123.36,39.81Z" style="fill: #d1a44a"/>
      <path d="M92.59,35.32C90,35.15,69.68,31.58,64,21.5c0,0,6-17,23-20,0,0,10.46-1.7,23.2,7.7.37.28,5.86,6.35,6.12,6.73,1.92,2.73,6.2,9.82,11.94,11.87a.3.3,0,0,1-.06.58c-5,.54-21,2-29.24-.84l9.36,5.22a.2.2,0,0,1-.1.38c-4.14-.39-20.88-2-23.17-3.79l7.6,5.79A.1.1,0,0,1,92.59,35.32Z" style="fill: #ddae47"/>
    </g>
    <g>
      <g>
        <rect x="103" y="35.5" width="20" height="16" rx="8" style="fill: #fff;stroke: #000;stroke-miterlimit: 10;stroke-width: 2px"/>
        <rect x="78" y="35.5" width="20" height="16" rx="8" style="fill: #fff;stroke: #000;stroke-miterlimit: 10;stroke-width: 2px"/>
        <line x1="98" y1="43.5" x2="103" y2="43.5" style="fill: none;stroke: #000;stroke-miterlimit: 10;stroke-width: 2px"/>
      </g>
      <circle cx="91.5" cy="43" r="1.5"/>
      <circle cx="115.5" cy="43" r="1.5"/>
    </g>
  </g>
</svg>
