<svg xmlns="http://www.w3.org/2000/svg" viewBox="0 0 157 180">
  <title>Nate_Sprites</title>
  <g id="Layer_2" data-name="Layer 2">
    <g>
      <rect x="103.46" y="121.5" width="29" height="13" transform="translate(284.13 179.87) rotate(150)" style="fill: #8c6239"/>
      <rect x="102.53" y="108.5" width="14" height="40" transform="translate(268.6 185.12) rotate(150.04)" style="fill: #1b1464"/>
      <rect x="109.94" y="147.54" width="30" height="13.62" transform="translate(53.73 339.73) rotate(-120)" style="fill: #8c6239"/>
      <polygon points="87.15 154.39 120.47 134.5 114.47 123.5 92.88 136.3 79.78 113.61 67.65 120.61 87.15 154.39" style="fill: #1b1464"/>
    </g>
    <g>
      <path d="M50,90.84l22.77,37.65,33.37-20.19L88.46,74.5h6a341.54,341.54,0,0,1,36,0l-1-12c-26-1-34,0-34,0h-12l-35,12-4,2-3,2a16.65,16.65,0,0,1,5,6l2,4s0,1,1.56,2.34" style="fill: #fff"/>
      <circle cx="135.96" cy="69" r="9.5" style="fill: #f9d0a7"/>
    </g>
    <g>
      <polygon points="68.6 69.55 69.1 80.51 64.64 82.77 54.77 76.56 68.6 69.55" style="fill: #006837"/>
      <path d="M69.1,80.51l21.22,35.21-1.67,9.08a.53.53,0,0,1-.76.43l-7.38-4.53L64.64,82.77Z" style="fill: #009245"/>
      <path d="M69,69.33l-.3,9.19a.8.8,0,0,0,1.46.29L80.14,63.7Z" style="fill: #e6e6e6"/>
      <path d="M63.22,81.23l-8-4.89-10.75.16L63,81.82A.32.32,0,0,0,63.22,81.23Z" style="fill: #e6e6e6"/>
    </g>
    <g>
      <ellipse cx="52.86" cy="44.64" rx="32.39" ry="32.14" style="fill: #f9d0a7"/>
      <circle cx="83.52" cy="51.28" r="6.45" style="fill: #f9d0a7"/>
      <path d="M34.46,63.73c0,2.63,3.36,4.77,7.5,4.77s7.5-2.14,7.5-4.77-3.85-1.23-8-1.23S34.46,61.09,34.46,63.73Z" style="fill: #fff"/>
    </g>
    <g>
      <path d="M21.1,39.81C21.61,34.34,22.46,33,23.37,28a1.07,1.07,0,0,1,.57-.78L46.7,15.65a1.07,1.07,0,0,1,.63-.11L69.7,18.35H80a1.09,1.09,0,0,1,.82,1.81h0a1.08,1.08,0,0,0,.23,1.64c2,1.21,5.74,4.39,3.94,10.72a1.22,1.22,0,0,1-.1.24c-.43.8.73,4.45-.47,17.23a1.37,1.37,0,0,1-2.7.15C79.61,40,72.08,28.4,67.65,24.42a1.07,1.07,0,0,0-.93-.23L27,29.62a1.11,1.11,0,0,0-.52.26c-.53.51-1.71,5.17-2.76,10.3A1.31,1.31,0,0,1,21.1,39.81Z" style="fill: #d1a44a"/>
      <path d="M51.88,35.32c2.59-.17,22.9-3.74,28.58-13.82,0,0-6-17-23-20,0,0-10.46-1.7-23.2,7.7-.37.28-5.85,6.35-6.12,6.73C26.23,18.66,22,25.75,16.2,27.8a.3.3,0,0,0,.07.58c5,.54,21,2,29.23-.84l-9.36,5.22a.2.2,0,0,0,.1.38c4.14-.39,20.88-2,23.18-3.79l-7.61,5.79A.1.1,0,0,0,51.88,35.32Z" style="fill: #ddae47"/>
    </g>
    <g>
      <g>
        <rect x="21.46" y="35.5" width="20" height="16" rx="8" transform="translate(62.93 87) rotate(180)" style="fill: #fff;stroke: #000;stroke-miterlimit: 10;stroke-width: 2px"/>
        <rect x="46.46" y="35.5" width="20" height="16" rx="8" transform="translate(112.93 87) rotate(-180)" style="fill: #fff;stroke: #000;stroke-miterlimit: 10;stroke-width: 2px"/>
        <line x1="46.46" y1="43.5" x2="41.46" y2="43.5" style="fill: none;stroke: #000;stroke-miterlimit: 10;stroke-width: 2px"/>
      </g>
      <circle cx="52.96" cy="43" r="1.5"/>
      <circle cx="28.96" cy="43" r="1.5"/>
    </g>
  </g>
</svg>
