<svg xmlns="http://www.w3.org/2000/svg" viewBox="0 0 157 180">
  <title>Nate_Sprites</title>
  <g id="Layer_2" data-name="Layer 2">
    <g>
      <rect x="109.86" y="100.5" width="14" height="40" transform="translate(280.18 159.24) rotate(147.46)" style="fill: #1b1464"/>
      <polygon points="133.71 133.55 156 119.41 149.01 108.45 126.72 122.59 133.71 133.55" style="fill: #8c6239"/>
      <rect x="92.16" y="121.93" width="14" height="39" transform="translate(259.22 206.33) rotate(147.11)" style="fill: #1b1464"/>
      <rect x="97.92" y="154.73" width="29" height="14.72" transform="translate(187.48 -20.33) rotate(57.11)" style="fill: #8c6239"/>
    </g>
    <g>
      <path d="M60.86,91.5l22,38,35-20-12-20-8-15c6,11,1,2,1,2v-1a1,1,0,0,1-1-1l-2-3-3-4-30,9h-23s-11,0-27-1v15s13,2,33.5,1.5Z" style="fill: #fff"/>
      <circle cx="10.36" cy="83" r="9.5" style="fill: #f9d0a7"/>
    </g>
    <g>
      <polygon points="78.86 73.13 78.72 84.1 74.14 86.1 62.86 76.5 78.86 73.13" style="fill: #006837"/>
      <path d="M78.72,84.1l19.15,36.38-2.19,9a.53.53,0,0,1-.79.39l-7.11-5L74.14,86.1Z" style="fill: #009245"/>
      <path d="M79.31,72.94l-.83,9.16a.8.8,0,0,0,1.43.37L90.72,68Z" style="fill: #e6e6e6"/>
      <path d="M72.81,84.48l-10-8h-9l18.72,8.56A.32.32,0,0,0,72.81,84.48Z" style="fill: #e6e6e6"/>
    </g>
    <g>
      <ellipse cx="65.25" cy="44.64" rx="32.39" ry="32.14" style="fill: #f9d0a7"/>
      <circle cx="95.91" cy="51.28" r="6.45" style="fill: #f9d0a7"/>
      <path d="M46.86,63.73c0,2.63,3.36,4.77,7.5,4.77s7.5-2.14,7.5-4.77-3.86-1.23-8-1.23S46.86,61.09,46.86,63.73Z" style="fill: #fff"/>
    </g>
    <g>
      <path d="M33.49,39.81C34,34.34,34.85,33,35.76,28a1.09,1.09,0,0,1,.58-.78L59.1,15.65a1,1,0,0,1,.63-.11L82.1,18.35H92.4a1.09,1.09,0,0,1,.81,1.81h0a1.09,1.09,0,0,0,.23,1.64c2,1.21,5.74,4.39,3.94,10.72a1.17,1.17,0,0,1-.09.24c-.44.8.72,4.45-.47,17.23a1.37,1.37,0,0,1-2.71.15C92,40,84.47,28.4,80,24.42a1.07,1.07,0,0,0-.93-.23L39.37,29.62a1.08,1.08,0,0,0-.51.26c-.54.51-1.72,5.17-2.77,10.3A1.31,1.31,0,0,1,33.49,39.81Z" style="fill: #d1a44a"/>
      <path d="M64.27,35.32c2.59-.17,22.9-3.74,28.59-13.82,0,0-6-17-23-20,0,0-10.46-1.7-23.2,7.7-.37.28-5.86,6.35-6.12,6.73-1.92,2.73-6.2,9.82-11.94,11.87a.3.3,0,0,0,.06.58c5,.54,21,2,29.23-.84l-9.35,5.22a.2.2,0,0,0,.1.38c4.13-.39,20.88-2,23.17-3.79l-7.6,5.79A.1.1,0,0,0,64.27,35.32Z" style="fill: #ddae47"/>
    </g>
    <g>
      <g>
        <rect x="33.86" y="35.5" width="20" height="16" rx="8" transform="translate(87.72 87) rotate(-180)" style="fill: #fff;stroke: #000;stroke-miterlimit: 10;stroke-width: 2px"/>
        <rect x="58.86" y="35.5" width="20" height="16" rx="8" transform="translate(137.72 87) rotate(-180)" style="fill: #fff;stroke: #000;stroke-miterlimit: 10;stroke-width: 2px"/>
        <line x1="58.86" y1="43.5" x2="53.86" y2="43.5" style="fill: none;stroke: #000;stroke-miterlimit: 10;stroke-width: 2px"/>
      </g>
      <circle cx="65.36" cy="43" r="1.5"/>
      <circle cx="41.36" cy="43" r="1.5"/>
    </g>
  </g>
</svg>
