<svg xmlns="http://www.w3.org/2000/svg" viewBox="0 0 157 180">
  <title>Nate_Sprites</title>
  <g id="Layer_2" data-name="Layer 2">
    <g>
      <polygon points="109 156.5 109 142.5 98 142.5 98 132.5 77 135.5 77 156.5 109 156.5" style="fill: #1b1464"/>
      <rect x="99.5" y="151" width="30" height="13" transform="translate(-43 272) rotate(-90)" style="fill: #8c6239"/>
      <polygon points="37 133.5 37 147.5 83 147.5 83 132.5 37 133.5" style="fill: #1b1464"/>
      <rect x="22" y="126.5" width="29" height="13" transform="translate(-96.5 169.5) rotate(-90)" style="fill: #8c6239"/>
    </g>
    <g>
      <path d="M59,88.5l.5,46.5h39V90h0c8.5-14.5,38.5-.5,38.5-.5l6-12c-27-18-46-6-46-6l-2,1H94L63.5,73l-5,1h0S36,82.5,18,67.5l-8,12s28.79,20,49.5,11.5" style="fill: #fff"/>
      <circle cx="145.5" cy="86" r="9.5" style="fill: #f9d0a7"/>
      <circle cx="11.5" cy="71" r="9.5" style="fill: #f9d0a7"/>
    </g>
    <g>
      <polygon points="84.01 73 79.5 83 74.5 83 68.5 73 84.01 73" style="fill: #006837"/>
      <path d="M79.5,83l3,41-5.59,7.34a.53.53,0,0,1-.88,0L71.5,124l3-41Z" style="fill: #009245"/>
      <path d="M84.5,73l-4.42,8.07a.8.8,0,0,0,1.17.91L95,72.5Z" style="fill: #e6e6e6"/>
      <path d="M73.93,81,69,73l-8,.5,12.49,7.92A.32.32,0,0,0,73.93,81Z" style="fill: #e6e6e6"/>
    </g>
    <g>
      <ellipse cx="78.39" cy="43.64" rx="32.39" ry="32.14" style="fill: #f9d0a7"/>
      <circle cx="109.05" cy="50.28" r="6.45" style="fill: #f9d0a7"/>
      <path d="M60,62.73c0,2.63,3.36,4.77,7.5,4.77S75,65.36,75,62.73s-3.86-1.23-8-1.23S60,60.09,60,62.73Z" style="fill: #fff"/>
    </g>
    <g>
      <path d="M46.64,38.81C47.14,33.34,48,32,48.9,27a1.09,1.09,0,0,1,.58-.78L72.24,14.65a1,1,0,0,1,.63-.11l22.37,2.81h10.3a1.09,1.09,0,0,1,.81,1.81h0a1.08,1.08,0,0,0,.24,1.64c2,1.21,5.73,4.39,3.93,10.72a1.17,1.17,0,0,1-.09.24c-.44.8.73,4.45-.47,17.23a1.37,1.37,0,0,1-2.71.15C105.14,39,97.61,27.4,93.18,23.42a1.06,1.06,0,0,0-.92-.23L52.51,28.62a1.08,1.08,0,0,0-.51.26c-.54.51-1.72,5.17-2.76,10.3A1.31,1.31,0,0,1,46.64,38.81Z" style="fill: #d1a44a"/>
      <path d="M77.41,34.32C80,34.15,100.32,30.58,106,20.5c0,0-6-17-23-20,0,0-10.46-1.7-23.2,7.7-.37.28-5.86,6.35-6.12,6.73-1.92,2.73-6.2,9.82-11.94,11.87a.3.3,0,0,0,.06.58c5,.54,21,2,29.24-.84l-9.36,5.22a.2.2,0,0,0,.1.38c4.14-.39,20.88-2,23.17-3.79l-7.6,5.79A.1.1,0,0,0,77.41,34.32Z" style="fill: #ddae47"/>
    </g>
    <g>
      <g>
        <rect x="47" y="34.5" width="20" height="16" rx="8" transform="translate(114 85) rotate(-180)" style="fill: #fff;stroke: #000;stroke-miterlimit: 10;stroke-width: 2px"/>
        <rect x="72" y="34.5" width="20" height="16" rx="8" transform="translate(164 85) rotate(-180)" style="fill: #fff;stroke: #000;stroke-miterlimit: 10;stroke-width: 2px"/>
        <line x1="72" y1="42.5" x2="67" y2="42.5" style="fill: none;stroke: #000;stroke-miterlimit: 10;stroke-width: 2px"/>
      </g>
      <circle cx="78.5" cy="42" r="1.5"/>
      <circle cx="54.5" cy="42" r="1.5"/>
    </g>
  </g>
</svg>
