<svg xmlns="http://www.w3.org/2000/svg" viewBox="0 0 157 180">
  <title>Nate_Sprites</title>
  <g id="Layer_2" data-name="Layer 2">
    <g>
      <polygon points="48 157.5 48 143.5 59 143.5 59 133.5 80 136.5 80 157.5 48 157.5" style="fill: #1b1464"/>
      <rect x="27.5" y="152" width="30" height="13" transform="translate(-116 201) rotate(-90)" style="fill: #8c6239"/>
      <polygon points="120 134.5 120 148.5 74 148.5 74 133.5 120 134.5" style="fill: #1b1464"/>
      <rect x="106" y="127.5" width="29" height="13" transform="translate(-13.5 254.5) rotate(-90)" style="fill: #8c6239"/>
    </g>
    <g>
      <path d="M98,89.5,97.5,136h-39V91h0C50,76.5,20,90.5,20,90.5l-6-12c27-18,46-6,46-6l2,1h1l30.5.5,5,1h0S121,83.5,139,68.5l8,12s-28.79,20-49.5,11.5" style="fill: #fff"/>
      <circle cx="11.5" cy="87" r="9.5" style="fill: #f9d0a7"/>
      <circle cx="145.5" cy="72" r="9.5" style="fill: #f9d0a7"/>
    </g>
    <g>
      <polygon points="72.99 74 77.5 84 82.5 84 88.5 74 72.99 74" style="fill: #006837"/>
      <path d="M77.5,84l-3,41,5.59,7.34a.53.53,0,0,0,.88,0L85.5,125l-3-41Z" style="fill: #009245"/>
      <path d="M72.5,74l4.42,8.07a.8.8,0,0,1-1.17.91L62,73.5Z" style="fill: #e6e6e6"/>
      <path d="M83.07,82,88,74l8,.5L83.51,82.42A.32.32,0,0,1,83.07,82Z" style="fill: #e6e6e6"/>
    </g>
    <g>
      <ellipse cx="78.61" cy="44.64" rx="32.39" ry="32.14" style="fill: #f9d0a7"/>
      <circle cx="47.95" cy="51.28" r="6.45" style="fill: #f9d0a7"/>
      <path d="M97,63.73c0,2.63-3.36,4.77-7.5,4.77S82,66.36,82,63.73s3.86-1.23,8-1.23S97,61.09,97,63.73Z" style="fill: #fff"/>
    </g>
    <g>
      <path d="M110.36,39.81C109.86,34.34,109,33,108.1,28a1.09,1.09,0,0,0-.58-.78L84.76,15.65a1,1,0,0,0-.63-.11L61.76,18.35H51.46a1.09,1.09,0,0,0-.81,1.81h0a1.08,1.08,0,0,1-.24,1.64c-2,1.21-5.73,4.39-3.93,10.72a1.17,1.17,0,0,0,.09.24c.44.8-.73,4.45.47,17.23a1.37,1.37,0,0,0,2.71.15C51.86,40,59.39,28.4,63.82,24.42a1.06,1.06,0,0,1,.92-.23l39.75,5.43a1.08,1.08,0,0,1,.51.26c.54.51,1.72,5.17,2.76,10.3A1.31,1.31,0,0,0,110.36,39.81Z" style="fill: #d1a44a"/>
      <path d="M79.59,35.32C77,35.15,56.68,31.58,51,21.5c0,0,6-17,23-20,0,0,10.46-1.7,23.2,7.7.37.28,5.86,6.35,6.12,6.73,1.92,2.73,6.2,9.82,11.94,11.87a.3.3,0,0,1-.06.58c-5,.54-21,2-29.24-.84l9.36,5.22a.2.2,0,0,1-.1.38c-4.14-.39-20.88-2-23.17-3.79l7.6,5.79A.1.1,0,0,1,79.59,35.32Z" style="fill: #ddae47"/>
    </g>
    <g>
      <g>
        <rect x="90" y="35.5" width="20" height="16" rx="8" style="fill: #fff;stroke: #000;stroke-miterlimit: 10;stroke-width: 2px"/>
        <rect x="65" y="35.5" width="20" height="16" rx="8" style="fill: #fff;stroke: #000;stroke-miterlimit: 10;stroke-width: 2px"/>
        <line x1="85" y1="43.5" x2="90" y2="43.5" style="fill: none;stroke: #000;stroke-miterlimit: 10;stroke-width: 2px"/>
      </g>
      <circle cx="78.5" cy="43" r="1.5"/>
      <circle cx="102.5" cy="43" r="1.5"/>
    </g>
  </g>
</svg>
