<svg height="513.09" viewBox="0 0 232.08 513.09" width="232.08" xmlns="http://www.w3.org/2000/svg"><path d="m116.63 216.92s4.16 47.43-17.34 92.33c-10.4 21.71-13.81 36.54 12.54 97.06 21 48.18-18.16 103.4-18.16 103.4" fill="none" stroke="#1d1d1b" stroke-miterlimit="10" stroke-width="3"/><g opacity=".89"><path d="m115.4 12.1c16.79 0 45.21 49.65 45.21 49.65s56 11.69 61.2 27.66-33.26 58.34-33.26 58.34 6.19 56.87-7.39 66.75-65.76-13.6-65.76-13.6-52.18 23.46-65.76 13.6-7.39-66.75-7.39-66.75-38.44-42.38-33.25-58.34 61.19-27.66 61.19-27.66 28.42-49.65 45.21-49.65" fill="#4a61aa"/><path d="m106.08 222.22c-4.76.57 4.81-16.63 9.61-16.63s12.78 13 9.6 16.63c-3.61 4.09-3.5-1.9-19.21 0" fill="#4a61aa"/><g fill="#fff"><path d="m144.43 64.09c-1.73 1.45-12.54-3.38-21-13.44s-12.82-20.35-9.69-23 12.53 3.37 21 13.43 12.82 20.35 9.7 23"/><path d="m157.24 73c.74-2 13.27-2.27 26.65 2.89s23.11 12.19 21.8 15.75-13.26 2.27-26.64-2.88-23.14-12.22-21.81-15.76"/></g></g></svg>