<svg id="Layer_1" data-name="Layer 1" xmlns="http://www.w3.org/2000/svg" width="232.08" height="513.09" viewBox="0 0 232.08 513.09"><title>Balloons</title><path d="M116.63,216.92s4.16,47.43-17.34,92.33c-10.4,21.71-13.81,36.54,12.54,97.06,21,48.18-18.16,103.4-18.16,103.4" style="fill:none;stroke:#1d1d1b;stroke-miterlimit:10;stroke-width:3px"/><g style="opacity:0.89"><path d="M115.4,12.1c16.79,0,45.21,49.65,45.21,49.65s56,11.69,61.2,27.66-33.26,58.34-33.26,58.34,6.19,56.87-7.39,66.75-65.76-13.6-65.76-13.6-52.18,23.46-65.76,13.6-7.39-66.75-7.39-66.75S3.81,105.37,9,89.41,70.19,61.75,70.19,61.75,98.61,12.1,115.4,12.1" style="fill:#a3195b"/><path d="M106.08,222.22c-4.76.57,4.81-16.63,9.61-16.63s12.78,13,9.6,16.63c-3.61,4.09-3.5-1.9-19.21,0" style="fill:#a3195b"/><path d="M144.43,64.09c-1.73,1.45-12.54-3.38-21-13.44s-12.82-20.35-9.69-23,12.53,3.37,21,13.43,12.82,20.35,9.7,23" style="fill:#fff"/><path d="M157.24,73c.74-2,13.27-2.27,26.65,2.89S207,88.08,205.69,91.64s-13.26,2.27-26.64-2.88S155.91,76.54,157.24,73" style="fill:#fff"/></g></svg>