<svg height="573.33" viewBox="0 0 216.7 573.33" width="216.7" xmlns="http://www.w3.org/2000/svg"><path d="m109.3 266.57s4.16 47.43-17.3 92.33c-10.44 21.71-13.85 36.54 12.5 97.1 21 48.18-18.16 103.41-18.16 103.41" fill="none" stroke="#1d1d1b" stroke-miterlimit="10" stroke-width="3"/><g opacity=".86"><path d="m202.09 106.8.06-.72c.07-1 .14-2 .18-3 .06-1.28.1-2.55.1-3.77a92.3 92.3 0 0 0 -184.6-.06c0 1.22 0 2.49.09 3.77 0 1 .11 2 .19 3 0 .24 0 .48.05.72q.15 1.82.36 3.6c6 52.58 50.36 143.86 91.56 143.88s85.63-91.22 91.65-143.82c.14-1.19.27-2.39.36-3.6" fill="#a45099"/><path d="m100.75 273.64c-4.76.58 4.81-16.63 9.61-16.63s12.78 13 9.6 16.64c-3.62 4.09-3.5-1.9-19.21 0" fill="#a45099"/><g fill="#fff"><path d="m162.93 46.7c-2 4-14.74 6.72-22.19-2-9.22-10.8-17.07-12.43-15.11-16.39s11.9-3.06 22.2 2 17.06 12.42 15.1 16.39"/><path d="m181.63 74.64c-2.34 2-8.58-1.36-13.93-7.56s-7.79-12.87-5.44-14.89 8.58 1.36 13.93 7.56 7.79 12.87 5.44 14.89"/></g></g></svg>