<svg height="512.92" viewBox="0 0 216.7 512.92" width="216.7" xmlns="http://www.w3.org/2000/svg"><path d="m105.45 208.93s4.16 47.44-17.34 92.34c-10.4 21.73-13.81 36.53 12.54 97.06 21 48.18-18.16 103.4-18.16 103.4" fill="none" stroke="#1d1d1b" stroke-miterlimit="10" stroke-width="3"/><g opacity=".87"><path d="m198.86 105.44a92.3 92.3 0 1 1 -91.37-93.22 92.31 92.31 0 0 1 91.37 93.22" fill="#5eb135"/><path d="m96.11 216.39c-4.77.52 5-16.59 9.77-16.54s12.65 13.16 9.44 16.73c-3.66 4-3.48-1.93-19.21-.19" fill="#5eb135"/><g fill="#fff"><path d="m163.56 53.9c-2 3.94-14.81 6.57-22.18-2.24-9.1-10.9-16.94-12.59-14.94-16.54s11.92-2.95 22.18 2.24 16.94 12.64 14.94 16.54"/><path d="m182 82c-2.36 2-8.56-1.45-13.85-7.7s-7.66-12.94-5.3-14.94 8.57 1.44 13.86 7.7 7.64 12.94 5.29 14.94"/></g></g></svg>