<svg id="Layer_1" data-name="Layer 1" xmlns="http://www.w3.org/2000/svg" width="216.7" height="512.92" viewBox="0 0 216.7 512.92"><title>Balloons</title><path d="M105.45,208.93s4.16,47.44-17.34,92.34C77.71,323,74.3,337.8,100.65,398.33c21,48.18-18.16,103.4-18.16,103.4" style="fill:none;stroke:#1d1d1b;stroke-miterlimit:10;stroke-width:3px"/><g style="opacity:0.87"><path d="M198.86,105.44a92.3,92.3,0,1,1-91.37-93.22,92.31,92.31,0,0,1,91.37,93.22" style="fill:#ef982e"/><path d="M96.11,216.39c-4.77.52,5-16.59,9.77-16.54s12.65,13.16,9.44,16.73c-3.66,4-3.48-1.93-19.21-.19" style="fill:#ef982e"/><path d="M163.56,53.9c-2,3.94-14.81,6.57-22.18-2.24-9.1-10.9-16.94-12.59-14.94-16.54s11.92-2.95,22.18,2.24S165.56,50,163.56,53.9" style="fill:#fff"/><path d="M182,82c-2.36,2-8.56-1.45-13.85-7.7s-7.66-12.94-5.3-14.94,8.57,1.44,13.86,7.7S184.35,80,182,82" style="fill:#fff"/></g></svg>