<svg height="77.75" viewBox="0 0 336 77.75" width="336" xmlns="http://www.w3.org/2000/svg"><path d="m18 3h298v15h15v41h-13v14h-300v-13h-15v-42h15z" fill="#92cc41"/><g fill="#fff"><path d="m24.35 49.1v-23.66h6.76v3.38h3.38v3.38h3.38v3.38h3.39v-10.14h6.74v23.66h-6.74v-6.76h-3.39v-3.34h-3.38v-3.42h-3.38v13.52z"/><path d="m50.45 49.1v-16.9h3.38v-3.38h3.38v-3.38h10.14v3.38h3.38v3.38h3.38v16.9h-6.76v-6.76h-10.14v6.76zm6.76-10.1h10.14v-6.8h-3.35v-3.38h-3.41v3.38h-3.38z"/><path d="m86.69 49.1v-20.28h-6.76v-3.38h20.28v3.38h-6.76v20.28z"/><path d="m102.65 49.1v-23.66h23.66v3.38h-16.9v6.76h13.52v3.42h-13.52v6.76h16.9v3.34z"/><path d="m154.84 49.1v-23.66h6.77v10.14h3.39v-3.38h3.38v-3.38h3.38v-3.38h6.76v3.38h-3.38v3.38h-3.38v3.38h-3.38v3.42h3.38v3.38h3.38v3.38h3.38v3.34h-10.15v-3.38h-3.37v-3.38h-3.38v6.76z"/><path d="m180.94 49.1v-23.66h23.67v3.38h-16.91v6.76h13.53v3.42h-13.53v6.76h16.91v3.34z"/><path d="m210.42 49.1v-23.66h6.76v20.28h13.53v3.38z"/><path d="m236.52 49.1v-23.66h6.76v20.28h13.52v3.38z"/><path d="m259.24 49.1v-23.66h23.66v3.38h-16.9v6.76h13.52v3.42h-13.52v6.76h16.9v3.34z"/><path d="m295.48 49.1v-10.1h-3.38v-3.42h-3.38v-10.14h6.76v10.14h6.76v-10.14h6.76v10.14h-3.38v3.42h-3.38v10.1z"/></g></svg>