<svg height="12500" viewBox="0 0 10494 12500" width="10494" xmlns="http://www.w3.org/2000/svg"><g fill="#e6e6e6"><path d="m2115.62 7689.32 5.33 9.4a1 1 0 0 1 -1.41 1.07l-18.94-10.47z"/><path d="m2128.37 7698.62 5.94-9.3h11.45l-16.86 9.81a.38.38 0 0 1 -.53-.51z"/><path d="m5455.91 6756.49 16.98 7.62-16.98 7.62-7.62 16.98-7.62-16.98-16.97-7.62 16.97-7.62 7.62-16.98z"/><path d="m4892.91 6526.49 16.98 7.62-16.98 7.62-7.62 16.98-7.62-16.98-16.97-7.62 16.97-7.62 7.62-16.98z"/><path d="m5455.91 6307.49 16.98 7.62-16.98 7.62-7.62 16.98-7.62-16.98-16.97-7.62 16.97-7.62 7.62-16.98z"/><path d="m4451.91 6124.49 16.98 7.62-16.98 7.62-7.62 16.98-7.62-16.98-16.97-7.62 16.97-7.62 7.62-16.98z"/><path d="m4367.91 6473.49 16.98 7.62-16.98 7.62-7.62 16.98-7.62-16.98-16.97-7.62 16.97-7.62 7.62-16.98z"/><path d="m3577.91 6389.49 16.98 7.62-16.98 7.62-7.62 16.98-7.62-16.98-16.97-7.62 16.97-7.62 7.62-16.98z"/><path d="m3884.91 5944.49 16.98 7.62-16.98 7.62-7.62 16.98-7.62-16.98-16.97-7.62 16.97-7.62 7.62-16.98z"/><path d="m4318.91 5615.49 16.98 7.62-16.98 7.62-7.62 16.98-7.62-16.98-16.97-7.62 16.97-7.62 7.62-16.98z"/><path d="m3249.91 6231.49 16.98 7.62-16.98 7.62-7.62 16.98-7.62-16.98-16.97-7.62 16.97-7.62 7.62-16.98z"/><path d="m2761.91 6036.49 16.98 7.62-16.98 7.62-7.62 16.98-7.62-16.98-16.97-7.62 16.97-7.62 7.62-16.98z"/><path d="m1895.91 6124.49 16.98 7.62-16.98 7.62-7.62 16.98-7.62-16.98-16.97-7.62 16.97-7.62 7.62-16.98z"/><path d="m1427.91 5586.49 16.98 7.62-16.98 7.62-7.62 16.98-7.62-16.98-16.97-7.62 16.97-7.62 7.62-16.98z"/><path d="m1752.91 5305.49 16.98 7.62-16.98 7.62-7.62 16.98-7.62-16.98-16.97-7.62 16.97-7.62 7.62-16.98z"/><path d="m509.91 6526.49 16.98 7.62-16.98 7.62-7.62 16.98-7.62-16.98-16.97-7.62 16.97-7.62 7.62-16.98z"/><path d="m1080.91 6492.49 16.98 7.62-16.98 7.62-7.62 16.98-7.62-16.98-16.97-7.62 16.97-7.62 7.62-16.98z"/><path d="m1427.91 6159.49 16.98 7.62-16.98 7.62-7.62 16.98-7.62-16.98-16.97-7.62 16.97-7.62 7.62-16.98z"/><path d="m841.91 5616.49 16.98 7.62-16.98 7.62-7.62 16.98-7.62-16.98-16.97-7.62 16.97-7.62 7.62-16.98z"/><path d="m534.91 5159.49 16.98 7.62-16.98 7.62-7.62 16.98-7.62-16.98-16.97-7.62 16.97-7.62 7.62-16.98z"/><path d="m1103.91 5117.49 16.98 7.62-16.98 7.62-7.62 16.98-7.62-16.98-16.97-7.62 16.97-7.62 7.62-16.98z"/><path d="m2321.91 6631.49 16.98 7.62-16.98 7.62-7.62 16.98-7.62-16.98-16.97-7.62 16.97-7.62 7.62-16.98z"/><path d="m3146.91 6916.49 16.98 7.62-16.98 7.62-7.62 16.98-7.62-16.98-16.97-7.62 16.97-7.62 7.62-16.98z"/><path d="m5406.91 7838.49 16.98 7.62-16.98 7.62-7.62 16.98-7.62-16.98-16.97-7.62 16.97-7.62 7.62-16.98z"/><path d="m4843.91 7608.49 16.98 7.62-16.98 7.62-7.62 16.98-7.62-16.98-16.97-7.62 16.97-7.62 7.62-16.98z"/><path d="m5406.91 7389.49 16.98 7.62-16.98 7.62-7.62 16.98-7.62-16.98-16.97-7.62 16.97-7.62 7.62-16.98z"/><path d="m4402.91 7206.49 16.98 7.62-16.98 7.62-7.62 16.98-7.62-16.98-16.97-7.62 16.97-7.62 7.62-16.98z"/><path d="m4318.91 7555.49 16.98 7.62-16.98 7.62-7.62 16.98-7.62-16.98-16.97-7.62 16.97-7.62 7.62-16.98z"/><path d="m6070.91 7680.49 16.98 7.62-16.98 7.62-7.62 16.98-7.62-16.98-16.97-7.62 16.97-7.62 7.62-16.98z"/><path d="m5507.91 7450.49 16.98 7.62-16.98 7.62-7.62 16.98-7.62-16.98-16.97-7.62 16.97-7.62 7.62-16.98z"/><path d="m6070.91 7231.49 16.98 7.62-16.98 7.62-7.62 16.98-7.62-16.98-16.97-7.62 16.97-7.62 7.62-16.98z"/><path d="m5066.91 7048.49 16.98 7.62-16.98 7.62-7.62 16.98-7.62-16.98-16.97-7.62 16.97-7.62 7.62-16.98z"/><path d="m4982.91 7397.49 16.98 7.62-16.98 7.62-7.62 16.98-7.62-16.98-16.97-7.62 16.97-7.62 7.62-16.98z"/><path d="m3528.91 7471.49 16.98 7.62-16.98 7.62-7.62 16.98-7.62-16.98-16.97-7.62 16.97-7.62 7.62-16.98z"/><path d="m3200.91 7313.49 16.98 7.62-16.98 7.62-7.62 16.98-7.62-16.98-16.97-7.62 16.97-7.62 7.62-16.98z"/><path d="m2712.91 7118.49 16.98 7.62-16.98 7.62-7.62 16.98-7.62-16.98-16.97-7.62 16.97-7.62 7.62-16.98z"/><path d="m1846.91 7206.49 16.98 7.62-16.98 7.62-7.62 16.98-7.62-16.98-16.97-7.62 16.97-7.62 7.62-16.98z"/><path d="m460.91 7608.49 16.98 7.62-16.98 7.62-7.62 16.98-7.62-16.98-16.97-7.62 16.97-7.62 7.62-16.98z"/><path d="m1031.91 7574.49 16.98 7.62-16.98 7.62-7.62 16.98-7.62-16.98-16.97-7.62 16.97-7.62 7.62-16.98z"/><path d="m1378.91 7241.49 16.98 7.62-16.98 7.62-7.62 16.98-7.62-16.98-16.97-7.62 16.97-7.62 7.62-16.98z"/><path d="m2272.91 7713.49 16.98 7.62-16.98 7.62-7.62 16.98-7.62-16.98-16.97-7.62 16.97-7.62 7.62-16.98z"/><path d="m3097.91 7998.49 16.98 7.62-16.98 7.62-7.62 16.98-7.62-16.98-16.97-7.62 16.97-7.62 7.62-16.98z"/><path d="m2242.91 5651.49 16.98 7.62-16.98 7.62-7.62 16.98-7.62-16.98-16.97-7.62 16.97-7.62 7.62-16.98z"/><path d="m2744.91 5352.49 16.98 7.62-16.98 7.62-7.62 16.98-7.62-16.98-16.97-7.62 16.97-7.62 7.62-16.98z"/><path d="m3249.91 5377.49 16.98 7.62-16.98 7.62-7.62 16.98-7.62-16.98-16.97-7.62 16.97-7.62 7.62-16.98z"/><path d="m4197.91 4988.49 16.98 7.62-16.98 7.62-7.62 16.98-7.62-16.98-16.97-7.62 16.97-7.62 7.62-16.98z"/><path d="m3577.91 4911.49 16.98 7.62-16.98 7.62-7.62 16.98-7.62-16.98-16.97-7.62 16.97-7.62 7.62-16.98z"/><path d="m3909.91 4719.49 16.98 7.62-16.98 7.62-7.62 16.98-7.62-16.98-16.97-7.62 16.97-7.62 7.62-16.98z"/><path d="m3352.91 3882.49 16.98 7.62-16.98 7.62-7.62 16.98-7.62-16.98-16.97-7.62 16.97-7.62 7.62-16.98z"/><path d="m3055.91 4519.49 16.98 7.62-16.98 7.62-7.62 16.98-7.62-16.98-16.97-7.62 16.97-7.62 7.62-16.98z"/><path d="m4510.91 4140.49 16.98 7.62-16.98 7.62-7.62 16.98-7.62-16.98-16.97-7.62 16.97-7.62 7.62-16.98z"/><path d="m4831.91 4724.49 16.98 7.62-16.98 7.62-7.62 16.98-7.62-16.98-16.97-7.62 16.97-7.62 7.62-16.98z"/><path d="m4668.91 5233.49 16.98 7.62-16.98 7.62-7.62 16.98-7.62-16.98-16.97-7.62 16.97-7.62 7.62-16.98z"/><path d="m5526.91 4753.49 16.98 7.62-16.98 7.62-7.62 16.98-7.62-16.98-16.97-7.62 16.97-7.62 7.62-16.98z"/><path d="m5141.91 4205.49 16.98 7.62-16.98 7.62-7.62 16.98-7.62-16.98-16.97-7.62 16.97-7.62 7.62-16.98z"/><path d="m5698.91 3957.49 16.98 7.62-16.98 7.62-7.62 16.98-7.62-16.98-16.97-7.62 16.97-7.62 7.62-16.98z"/><path d="m5039.91 3704.49 16.98 7.62-16.98 7.62-7.62 16.98-7.62-16.98-16.97-7.62 16.97-7.62 7.62-16.98z"/><path d="m4510.91 3611.49 16.98 7.62-16.98 7.62-7.62 16.98-7.62-16.98-16.97-7.62 16.97-7.62 7.62-16.98z"/><path d="m3806.91 3913.49 16.98 7.62-16.98 7.62-7.62 16.98-7.62-16.98-16.97-7.62 16.97-7.62 7.62-16.98z"/><path d="m4000.91 3339.49 16.98 7.62-16.98 7.62-7.62 16.98-7.62-16.98-16.97-7.62 16.97-7.62 7.62-16.98z"/><path d="m4806.91 3203.49 16.98 7.62-16.98 7.62-7.62 16.98-7.62-16.98-16.97-7.62 16.97-7.62 7.62-16.98z"/><path d="m6682.91 1885.49 16.98 7.62-16.98 7.62-7.62 16.98-7.62-16.98-16.97-7.62 16.97-7.62 7.62-16.98z"/><path d="m6172.91 1613.49 16.98 7.62-16.98 7.62-7.62 16.98-7.62-16.98-16.97-7.62 16.97-7.62 7.62-16.98z"/><path d="m6978.91 1477.49 16.98 7.62-16.98 7.62-7.62 16.98-7.62-16.98-16.97-7.62 16.97-7.62 7.62-16.98z"/><path d="m6978.91 8455.49 16.98 7.62-16.98 7.62-7.62 16.98-7.62-16.98-16.97-7.62 16.97-7.62 7.62-16.98z"/><path d="m6468.91 8183.49 16.98 7.62-16.98 7.62-7.62 16.98-7.62-16.98-16.97-7.62 16.97-7.62 7.62-16.98z"/><path d="m7274.91 8047.49 16.98 7.62-16.98 7.62-7.62 16.98-7.62-16.98-16.97-7.62 16.97-7.62 7.62-16.98z"/><path d="m5477.91 3519.49 16.98 7.62-16.98 7.62-7.62 16.98-7.62-16.98-16.97-7.62 16.97-7.62 7.62-16.98z"/><path d="m5743.91 3010.49 16.98 7.62-16.98 7.62-7.62 16.98-7.62-16.98-16.97-7.62 16.97-7.62 7.62-16.98z"/><path d="m6069.91 3457.49 16.98 7.62-16.98 7.62-7.62 16.98-7.62-16.98-16.97-7.62 16.97-7.62 7.62-16.98z"/><path d="m6357.91 2788.49 16.98 7.62-16.98 7.62-7.62 16.98-7.62-16.98-16.97-7.62 16.97-7.62 7.62-16.98z"/><path d="m5866.91 2548.49 16.98 7.62-16.98 7.62-7.62 16.98-7.62-16.98-16.97-7.62 16.97-7.62 7.62-16.98z"/><path d="m6324.91 2161.49 16.98 7.62-16.98 7.62-7.62 16.98-7.62-16.98-16.97-7.62 16.97-7.62 7.62-16.98z"/><path d="m5166.91 2763.49 16.98 7.62-16.98 7.62-7.62 16.98-7.62-16.98-16.97-7.62 16.97-7.62 7.62-16.98z"/><path d="m5304.91 3222.49 16.98 7.62-16.98 7.62-7.62 16.98-7.62-16.98-16.97-7.62 16.97-7.62 7.62-16.98z"/><path d="m6193.91 4143.49 16.98 7.62-16.98 7.62-7.62 16.98-7.62-16.98-16.97-7.62 16.97-7.62 7.62-16.98z"/><path d="m6459.91 3634.49 16.98 7.62-16.98 7.62-7.62 16.98-7.62-16.98-16.97-7.62 16.97-7.62 7.62-16.98z"/><path d="m6020.91 3846.49 16.98 7.62-16.98 7.62-7.62 16.98-7.62-16.98-16.97-7.62 16.97-7.62 7.62-16.98z"/><path d="m5673.91 2254.49 16.98 7.62-16.98 7.62-7.62 16.98-7.62-16.98-16.97-7.62 16.97-7.62 7.62-16.98z"/><path d="m5551.91 1661.49 16.98 7.62-16.98 7.62-7.62 16.98-7.62-16.98-16.97-7.62 16.97-7.62 7.62-16.98z"/><path d="m5380.91 2086.49 16.98 7.62-16.98 7.62-7.62 16.98-7.62-16.98-16.97-7.62 16.97-7.62 7.62-16.98z"/><path d="m5215.91 2107.49 16.98 7.62-16.98 7.62-7.62 16.98-7.62-16.98-16.97-7.62 16.97-7.62 7.62-16.98z"/><path d="m6299.91 1367.49 16.98 7.62-16.98 7.62-7.62 16.98-7.62-16.98-16.97-7.62 16.97-7.62 7.62-16.98z"/><path d="m6006.91 1199.49 16.98 7.62-16.98 7.62-7.62 16.98-7.62-16.98-16.97-7.62 16.97-7.62 7.62-16.98z"/><path d="m5841.91 1220.49 16.98 7.62-16.98 7.62-7.62 16.98-7.62-16.98-16.97-7.62 16.97-7.62 7.62-16.98z"/><path d="m4515.91 1841.49 16.98 7.62-16.98 7.62-7.62 16.98-7.62-16.98-16.97-7.62 16.97-7.62 7.62-16.98z"/><path d="m4056.91 1557.49 16.98 7.62-16.98 7.62-7.62 16.98-7.62-16.98-16.97-7.62 16.97-7.62 7.62-16.98z"/><path d="m4296.91 2186.49 16.98 7.62-16.98 7.62-7.62 16.98-7.62-16.98-16.97-7.62 16.97-7.62 7.62-16.98z"/><path d="m5011.91 1361.49 16.98 7.62-16.98 7.62-7.62 16.98-7.62-16.98-16.97-7.62 16.97-7.62 7.62-16.98z"/><path d="m4552.91 1077.49 16.98 7.62-16.98 7.62-7.62 16.98-7.62-16.98-16.97-7.62 16.97-7.62 7.62-16.98z"/><path d="m4792.91 1706.49 16.98 7.62-16.98 7.62-7.62 16.98-7.62-16.98-16.97-7.62 16.97-7.62 7.62-16.98z"/><path d="m4219.91 2738.49 16.98 7.62-16.98 7.62-7.62 16.98-7.62-16.98-16.97-7.62 16.97-7.62 7.62-16.98z"/><path d="m3706.91 2474.49 16.98 7.62-16.98 7.62-7.62 16.98-7.62-16.98-16.97-7.62 16.97-7.62 7.62-16.98z"/><path d="m3249.91 3064.49 16.98 7.62-16.98 7.62-7.62 16.98-7.62-16.98-16.97-7.62 16.97-7.62 7.62-16.98z"/><path d="m2655.91 3666.49 16.98 7.62-16.98 7.62-7.62 16.98-7.62-16.98-16.97-7.62 16.97-7.62 7.62-16.98z"/><path d="m2296.91 4435.49 16.98 7.62-16.98 7.62-7.62 16.98-7.62-16.98-16.97-7.62 16.97-7.62 7.62-16.98z"/><path d="m2570.91 4875.49 16.98 7.62-16.98 7.62-7.62 16.98-7.62-16.98-16.97-7.62 16.97-7.62 7.62-16.98z"/><path d="m1777.91 4781.49 16.98 7.62-16.98 7.62-7.62 16.98-7.62-16.98-16.97-7.62 16.97-7.62 7.62-16.98z"/><path d="m890.91 2667.49 16.98 7.62-16.98 7.62-7.62 16.98-7.62-16.98-16.97-7.62 16.97-7.62 7.62-16.98z"/><path d="m226.91 2236.49 16.98 7.62-16.98 7.62-7.62 16.98-7.62-16.98-16.97-7.62 16.97-7.62 7.62-16.98z"/><path d="m559.91 1909.49 16.98 7.62-16.98 7.62-7.62 16.98-7.62-16.98-16.97-7.62 16.97-7.62 7.62-16.98z"/><path d="m201.91 1077.49 16.98 7.62-16.98 7.62-7.62 16.98-7.62-16.98-16.97-7.62 16.97-7.62 7.62-16.98z"/><path d="m732.91 1386.49 16.98 7.62-16.98 7.62-7.62 16.98-7.62-16.98-16.97-7.62 16.97-7.62 7.62-16.98z"/><path d="m1529.91 4115.49 16.98 7.62-16.98 7.62-7.62 16.98-7.62-16.98-16.97-7.62 16.97-7.62 7.62-16.98z"/><path d="m1287.91 3432.49 16.98 7.62-16.98 7.62-7.62 16.98-7.62-16.98-16.97-7.62 16.97-7.62 7.62-16.98z"/><path d="m1055.91 4561.49 16.98 7.62-16.98 7.62-7.62 16.98-7.62-16.98-16.97-7.62 16.97-7.62 7.62-16.98z"/><path d="m371.91 4435.49 16.98 7.62-16.98 7.62-7.62 16.98-7.62-16.98-16.97-7.62 16.97-7.62 7.62-16.98z"/><path d="m484.91 3729.49 16.98 7.62-16.98 7.62-7.62 16.98-7.62-16.98-16.97-7.62 16.97-7.62 7.62-16.98z"/><path d="m1983.91 3636.49 16.98 7.62-16.98 7.62-7.62 16.98-7.62-16.98-16.97-7.62 16.97-7.62 7.62-16.98z"/><path d="m2455.91 2882.49 16.98 7.62-16.98 7.62-7.62 16.98-7.62-16.98-16.97-7.62 16.97-7.62 7.62-16.98z"/><path d="m1578.91 2523.49 16.98 7.62-16.98 7.62-7.62 16.98-7.62-16.98-16.97-7.62 16.97-7.62 7.62-16.98z"/><path d="m2573.91 2211.49 16.98 7.62-16.98 7.62-7.62 16.98-7.62-16.98-16.97-7.62 16.97-7.62 7.62-16.98z"/><path d="m3160.91 1686.49 16.98 7.62-16.98 7.62-7.62 16.98-7.62-16.98-16.97-7.62 16.97-7.62 7.62-16.98z"/><path d="m3681.91 1269.49 16.98 7.62-16.98 7.62-7.62 16.98-7.62-16.98-16.97-7.62 16.97-7.62 7.62-16.98z"/><path d="m2869.91 1174.49 16.98 7.62-16.98 7.62-7.62 16.98-7.62-16.98-16.97-7.62 16.97-7.62 7.62-16.98z"/><path d="m2372.91 1367.49 16.98 7.62-16.98 7.62-7.62 16.98-7.62-16.98-16.97-7.62 16.97-7.62 7.62-16.98z"/><path d="m1238.91 2086.49 16.98 7.62-16.98 7.62-7.62 16.98-7.62-16.98-16.97-7.62 16.97-7.62 7.62-16.98z"/><path d="m2082.91 1934.49 16.98 7.62-16.98 7.62-7.62 16.98-7.62-16.98-16.97-7.62 16.97-7.62 7.62-16.98z"/><path d="m6464.91 6268.49 16.98 7.62-16.98 7.62-7.62 16.98-7.62-16.98-16.97-7.62 16.97-7.62 7.62-16.98z"/><path d="m5792.91 6238.49 16.98 7.62-16.98 7.62-7.62 16.98-7.62-16.98-16.97-7.62 16.97-7.62 7.62-16.98z"/><path d="m5576.91 5676.49 16.98 7.62-16.98 7.62-7.62 16.98-7.62-16.98-16.97-7.62 16.97-7.62 7.62-16.98z"/><path d="m6264.91 5484.49 16.98 7.62-16.98 7.62-7.62 16.98-7.62-16.98-16.97-7.62 16.97-7.62 7.62-16.98z"/><path d="m6382.91 4813.49 16.98 7.62-16.98 7.62-7.62 16.98-7.62-16.98-16.97-7.62 16.97-7.62 7.62-16.98z"/><path d="m5891.91 4536.49 16.98 7.62-16.98 7.62-7.62 16.98-7.62-16.98-16.97-7.62 16.97-7.62 7.62-16.98z"/><path d="m1420.91 1392.49 16.98 7.62-16.98 7.62-7.62 16.98-7.62-16.98-16.97-7.62 16.97-7.62 7.62-16.98z"/><path d="m3801.91 2024.49 16.98 7.62-16.98 7.62-7.62 16.98-7.62-16.98-16.97-7.62 16.97-7.62 7.62-16.98z"/><path d="m4985.91 5352.49 16.98 7.62-16.98 7.62-7.62 16.98-7.62-16.98-16.97-7.62 16.97-7.62 7.62-16.98z"/><path d="m4985.91 5931.49 16.98 7.62-16.98 7.62-7.62 16.98-7.62-16.98-16.97-7.62 16.97-7.62 7.62-16.98z"/><path d="m2201.62 11685 5.33 9.4a1 1 0 0 1 -1.41 1.07l-18.94-10.47z"/><path d="m2214.37 11694.3 5.94-9.3h11.45l-16.86 9.81a.38.38 0 0 1 -.53-.51z"/><path d="m5541.91 10752.17 16.98 7.62-16.98 7.62-7.62 16.98-7.62-16.98-16.97-7.62 16.97-7.62 7.62-16.98z"/><path d="m4978.91 10522.17 16.98 7.62-16.98 7.62-7.62 16.98-7.62-16.98-16.97-7.62 16.97-7.62 7.62-16.98z"/><path d="m5541.91 10303.17 16.98 7.62-16.98 7.62-7.62 16.98-7.62-16.98-16.97-7.62 16.97-7.62 7.62-16.98z"/><path d="m4537.91 10120.17 16.98 7.62-16.98 7.62-7.62 16.98-7.62-16.98-16.97-7.62 16.97-7.62 7.62-16.98z"/><path d="m4453.91 10469.17 16.98 7.62-16.98 7.62-7.62 16.98-7.62-16.98-16.97-7.62 16.97-7.62 7.62-16.98z"/><path d="m3663.91 10385.17 16.98 7.62-16.98 7.62-7.62 16.98-7.62-16.98-16.97-7.62 16.97-7.62 7.62-16.98z"/><path d="m3970.91 9940.17 16.98 7.62-16.98 7.62-7.62 16.98-7.62-16.98-16.97-7.62 16.97-7.62 7.62-16.98z"/><path d="m4404.91 9611.17 16.98 7.62-16.98 7.62-7.62 16.98-7.62-16.98-16.97-7.62 16.97-7.62 7.62-16.98z"/><path d="m3335.91 10227.17 16.98 7.62-16.98 7.62-7.62 16.98-7.62-16.98-16.97-7.62 16.97-7.62 7.62-16.98z"/><path d="m2847.91 10032.17 16.98 7.62-16.98 7.62-7.62 16.98-7.62-16.98-16.97-7.62 16.97-7.62 7.62-16.98z"/><path d="m1981.91 10120.17 16.98 7.62-16.98 7.62-7.62 16.98-7.62-16.98-16.97-7.62 16.97-7.62 7.62-16.98z"/><path d="m1513.91 9582.17 16.98 7.62-16.98 7.62-7.62 16.98-7.62-16.98-16.97-7.62 16.97-7.62 7.62-16.98z"/><path d="m1838.91 9301.17 16.98 7.62-16.98 7.62-7.62 16.98-7.62-16.98-16.97-7.62 16.97-7.62 7.62-16.98z"/><path d="m595.91 10522.17 16.98 7.62-16.98 7.62-7.62 16.98-7.62-16.98-16.97-7.62 16.97-7.62 7.62-16.98z"/><path d="m1166.91 10488.17 16.98 7.62-16.98 7.62-7.62 16.98-7.62-16.98-16.97-7.62 16.97-7.62 7.62-16.98z"/><path d="m1513.91 10155.17 16.98 7.62-16.98 7.62-7.62 16.98-7.62-16.98-16.97-7.62 16.97-7.62 7.62-16.98z"/><path d="m927.91 9612.17 16.98 7.62-16.98 7.62-7.62 16.98-7.62-16.98-16.97-7.62 16.97-7.62 7.62-16.98z"/><path d="m620.91 9155.17 16.98 7.62-16.98 7.62-7.62 16.98-7.62-16.98-16.97-7.62 16.97-7.62 7.62-16.98z"/><path d="m1189.91 9113.17 16.98 7.62-16.98 7.62-7.62 16.98-7.62-16.98-16.97-7.62 16.97-7.62 7.62-16.98z"/><path d="m2407.91 10627.17 16.98 7.62-16.98 7.62-7.62 16.98-7.62-16.98-16.97-7.62 16.97-7.62 7.62-16.98z"/><path d="m3232.91 10912.17 16.98 7.62-16.98 7.62-7.62 16.98-7.62-16.98-16.97-7.62 16.97-7.62 7.62-16.98z"/><path d="m5492.91 11834.17 16.98 7.62-16.98 7.62-7.62 16.98-7.62-16.98-16.97-7.62 16.97-7.62 7.62-16.98z"/><path d="m4929.91 11604.17 16.98 7.62-16.98 7.62-7.62 16.98-7.62-16.98-16.97-7.62 16.97-7.62 7.62-16.98z"/><path d="m5492.91 11385.17 16.98 7.62-16.98 7.62-7.62 16.98-7.62-16.98-16.97-7.62 16.97-7.62 7.62-16.98z"/><path d="m4488.91 11202.17 16.98 7.62-16.98 7.62-7.62 16.98-7.62-16.98-16.97-7.62 16.97-7.62 7.62-16.98z"/><path d="m4404.91 11551.17 16.98 7.62-16.98 7.62-7.62 16.98-7.62-16.98-16.97-7.62 16.97-7.62 7.62-16.98z"/><path d="m6156.91 11676.17 16.98 7.62-16.98 7.62-7.62 16.98-7.62-16.98-16.97-7.62 16.97-7.62 7.62-16.98z"/><path d="m5593.91 11446.17 16.98 7.62-16.98 7.62-7.62 16.98-7.62-16.98-16.97-7.62 16.97-7.62 7.62-16.98z"/><path d="m6156.91 11227.17 16.98 7.62-16.98 7.62-7.62 16.98-7.62-16.98-16.97-7.62 16.97-7.62 7.62-16.98z"/><path d="m5152.91 11044.17 16.98 7.62-16.98 7.62-7.62 16.98-7.62-16.98-16.97-7.62 16.97-7.62 7.62-16.98z"/><path d="m5068.91 11393.17 16.98 7.62-16.98 7.62-7.62 16.98-7.62-16.98-16.97-7.62 16.97-7.62 7.62-16.98z"/><path d="m3614.91 11467.17 16.98 7.62-16.98 7.62-7.62 16.98-7.62-16.98-16.97-7.62 16.97-7.62 7.62-16.98z"/><path d="m3286.91 11309.17 16.98 7.62-16.98 7.62-7.62 16.98-7.62-16.98-16.97-7.62 16.97-7.62 7.62-16.98z"/><path d="m2798.91 11114.17 16.98 7.62-16.98 7.62-7.62 16.98-7.62-16.98-16.97-7.62 16.97-7.62 7.62-16.98z"/><path d="m1932.91 11202.17 16.98 7.62-16.98 7.62-7.62 16.98-7.62-16.98-16.97-7.62 16.97-7.62 7.62-16.98z"/><path d="m546.91 11604.17 16.98 7.62-16.98 7.62-7.62 16.98-7.62-16.98-16.97-7.62 16.97-7.62 7.62-16.98z"/><path d="m1117.91 11570.17 16.98 7.62-16.98 7.62-7.62 16.98-7.62-16.98-16.97-7.62 16.97-7.62 7.62-16.98z"/><path d="m1464.91 11237.17 16.98 7.62-16.98 7.62-7.62 16.98-7.62-16.98-16.97-7.62 16.97-7.62 7.62-16.98z"/><path d="m2358.91 11709.17 16.98 7.62-16.98 7.62-7.62 16.98-7.62-16.98-16.97-7.62 16.97-7.62 7.62-16.98z"/><path d="m3183.91 11994.17 16.98 7.62-16.98 7.62-7.62 16.98-7.62-16.98-16.97-7.62 16.97-7.62 7.62-16.98z"/><path d="m2328.91 9647.17 16.98 7.62-16.98 7.62-7.62 16.98-7.62-16.98-16.97-7.62 16.97-7.62 7.62-16.98z"/><path d="m2830.91 9348.17 16.98 7.62-16.98 7.62-7.62 16.98-7.62-16.98-16.97-7.62 16.97-7.62 7.62-16.98z"/><path d="m3335.91 9373.17 16.98 7.62-16.98 7.62-7.62 16.98-7.62-16.98-16.97-7.62 16.97-7.62 7.62-16.98z"/><path d="m4283.91 8984.17 16.98 7.62-16.98 7.62-7.62 16.98-7.62-16.98-16.97-7.62 16.97-7.62 7.62-16.98z"/><path d="m3663.91 8907.17 16.98 7.62-16.98 7.62-7.62 16.98-7.62-16.98-16.97-7.62 16.97-7.62 7.62-16.98z"/><path d="m3995.91 8715.17 16.98 7.62-16.98 7.62-7.62 16.98-7.62-16.98-16.97-7.62 16.97-7.62 7.62-16.98z"/><path d="m3141.91 8515.17 16.98 7.62-16.98 7.62-7.62 16.98-7.62-16.98-16.97-7.62 16.97-7.62 7.62-16.98z"/><path d="m4917.91 8720.17 16.98 7.62-16.98 7.62-7.62 16.98-7.62-16.98-16.97-7.62 16.97-7.62 7.62-16.98z"/><path d="m4754.91 9229.17 16.98 7.62-16.98 7.62-7.62 16.98-7.62-16.98-16.97-7.62 16.97-7.62 7.62-16.98z"/><path d="m5612.91 8749.17 16.98 7.62-16.98 7.62-7.62 16.98-7.62-16.98-16.97-7.62 16.97-7.62 7.62-16.98z"/><path d="m2382.91 8431.17 16.98 7.62-16.98 7.62-7.62 16.98-7.62-16.98-16.97-7.62 16.97-7.62 7.62-16.98z"/><path d="m2656.91 8871.17 16.98 7.62-16.98 7.62-7.62 16.98-7.62-16.98-16.97-7.62 16.97-7.62 7.62-16.98z"/><path d="m1863.91 8777.17 16.98 7.62-16.98 7.62-7.62 16.98-7.62-16.98-16.97-7.62 16.97-7.62 7.62-16.98z"/><path d="m1141.91 8557.17 16.98 7.62-16.98 7.62-7.62 16.98-7.62-16.98-16.97-7.62 16.97-7.62 7.62-16.98z"/><path d="m457.91 8431.17 16.98 7.62-16.98 7.62-7.62 16.98-7.62-16.98-16.97-7.62 16.97-7.62 7.62-16.98z"/><path d="m6550.91 10264.17 16.98 7.62-16.98 7.62-7.62 16.98-7.62-16.98-16.97-7.62 16.97-7.62 7.62-16.98z"/><path d="m5878.91 10234.17 16.98 7.62-16.98 7.62-7.62 16.98-7.62-16.98-16.97-7.62 16.97-7.62 7.62-16.98z"/><path d="m5662.91 9672.17 16.98 7.62-16.98 7.62-7.62 16.98-7.62-16.98-16.97-7.62 16.97-7.62 7.62-16.98z"/><path d="m6350.91 9480.17 16.98 7.62-16.98 7.62-7.62 16.98-7.62-16.98-16.97-7.62 16.97-7.62 7.62-16.98z"/><path d="m6468.91 8809.17 16.98 7.62-16.98 7.62-7.62 16.98-7.62-16.98-16.97-7.62 16.97-7.62 7.62-16.98z"/><path d="m5977.91 8532.17 16.98 7.62-16.98 7.62-7.62 16.98-7.62-16.98-16.97-7.62 16.97-7.62 7.62-16.98z"/><path d="m5071.91 9348.17 16.98 7.62-16.98 7.62-7.62 16.98-7.62-16.98-16.97-7.62 16.97-7.62 7.62-16.98z"/><path d="m5071.91 9927.17 16.98 7.62-16.98 7.62-7.62 16.98-7.62-16.98-16.97-7.62 16.97-7.62 7.62-16.98z"/><path d="m8132.91 6827.49 16.98 7.62-16.98 7.62-7.62 16.98-7.62-16.98-16.97-7.62 16.97-7.62 7.62-16.98z"/><path d="m7569.91 6597.49 16.98 7.62-16.98 7.62-7.62 16.98-7.62-16.98-16.97-7.62 16.97-7.62 7.62-16.98z"/><path d="m8132.91 6378.49 16.98 7.62-16.98 7.62-7.62 16.98-7.62-16.98-16.97-7.62 16.97-7.62 7.62-16.98z"/><path d="m7128.91 6195.49 16.98 7.62-16.98 7.62-7.62 16.98-7.62-16.98-16.97-7.62 16.97-7.62 7.62-16.98z"/><path d="m7044.91 6544.49 16.98 7.62-16.98 7.62-7.62 16.98-7.62-16.98-16.97-7.62 16.97-7.62 7.62-16.98z"/><path d="m6995.91 5686.49 16.98 7.62-16.98 7.62-7.62 16.98-7.62-16.98-16.97-7.62 16.97-7.62 7.62-16.98z"/><path d="m8083.91 7909.49 16.98 7.62-16.98 7.62-7.62 16.98-7.62-16.98-16.97-7.62 16.97-7.62 7.62-16.98z"/><path d="m7520.91 7679.49 16.98 7.62-16.98 7.62-7.62 16.98-7.62-16.98-16.97-7.62 16.97-7.62 7.62-16.98z"/><path d="m8083.91 7460.49 16.98 7.62-16.98 7.62-7.62 16.98-7.62-16.98-16.97-7.62 16.97-7.62 7.62-16.98z"/><path d="m7079.91 7277.49 16.98 7.62-16.98 7.62-7.62 16.98-7.62-16.98-16.97-7.62 16.97-7.62 7.62-16.98z"/><path d="m6995.91 7626.49 16.98 7.62-16.98 7.62-7.62 16.98-7.62-16.98-16.97-7.62 16.97-7.62 7.62-16.98z"/><path d="m8747.91 7751.49 16.98 7.62-16.98 7.62-7.62 16.98-7.62-16.98-16.97-7.62 16.97-7.62 7.62-16.98z"/><path d="m8184.91 7521.49 16.98 7.62-16.98 7.62-7.62 16.98-7.62-16.98-16.97-7.62 16.97-7.62 7.62-16.98z"/><path d="m8747.91 7302.49 16.98 7.62-16.98 7.62-7.62 16.98-7.62-16.98-16.97-7.62 16.97-7.62 7.62-16.98z"/><path d="m7743.91 7119.49 16.98 7.62-16.98 7.62-7.62 16.98-7.62-16.98-16.97-7.62 16.97-7.62 7.62-16.98z"/><path d="m7659.91 7468.49 16.98 7.62-16.98 7.62-7.62 16.98-7.62-16.98-16.97-7.62 16.97-7.62 7.62-16.98z"/><path d="m7187.91 4211.49 16.98 7.62-16.98 7.62-7.62 16.98-7.62-16.98-16.97-7.62 16.97-7.62 7.62-16.98z"/><path d="m7508.91 4795.49 16.98 7.62-16.98 7.62-7.62 16.98-7.62-16.98-16.97-7.62 16.97-7.62 7.62-16.98z"/><path d="m7345.91 5304.49 16.98 7.62-16.98 7.62-7.62 16.98-7.62-16.98-16.97-7.62 16.97-7.62 7.62-16.98z"/><path d="m8203.91 4824.49 16.98 7.62-16.98 7.62-7.62 16.98-7.62-16.98-16.97-7.62 16.97-7.62 7.62-16.98z"/><path d="m7818.91 4276.49 16.98 7.62-16.98 7.62-7.62 16.98-7.62-16.98-16.97-7.62 16.97-7.62 7.62-16.98z"/><path d="m8375.91 4028.49 16.98 7.62-16.98 7.62-7.62 16.98-7.62-16.98-16.97-7.62 16.97-7.62 7.62-16.98z"/><path d="m7716.91 3775.49 16.98 7.62-16.98 7.62-7.62 16.98-7.62-16.98-16.97-7.62 16.97-7.62 7.62-16.98z"/><path d="m7187.91 3682.49 16.98 7.62-16.98 7.62-7.62 16.98-7.62-16.98-16.97-7.62 16.97-7.62 7.62-16.98z"/><path d="m7483.91 3274.49 16.98 7.62-16.98 7.62-7.62 16.98-7.62-16.98-16.97-7.62 16.97-7.62 7.62-16.98z"/><path d="m8154.91 3590.49 16.98 7.62-16.98 7.62-7.62 16.98-7.62-16.98-16.97-7.62 16.97-7.62 7.62-16.98z"/><path d="m8420.91 3081.49 16.98 7.62-16.98 7.62-7.62 16.98-7.62-16.98-16.97-7.62 16.97-7.62 7.62-16.98z"/><path d="m8746.91 3528.49 16.98 7.62-16.98 7.62-7.62 16.98-7.62-16.98-16.97-7.62 16.97-7.62 7.62-16.98z"/><path d="m9034.91 2859.49 16.98 7.62-16.98 7.62-7.62 16.98-7.62-16.98-16.97-7.62 16.97-7.62 7.62-16.98z"/><path d="m8543.91 2619.49 16.98 7.62-16.98 7.62-7.62 16.98-7.62-16.98-16.97-7.62 16.97-7.62 7.62-16.98z"/><path d="m9001.91 2232.49 16.98 7.62-16.98 7.62-7.62 16.98-7.62-16.98-16.97-7.62 16.97-7.62 7.62-16.98z"/><path d="m7843.91 2834.49 16.98 7.62-16.98 7.62-7.62 16.98-7.62-16.98-16.97-7.62 16.97-7.62 7.62-16.98z"/><path d="m7981.91 3293.49 16.98 7.62-16.98 7.62-7.62 16.98-7.62-16.98-16.97-7.62 16.97-7.62 7.62-16.98z"/><path d="m8870.91 4214.49 16.98 7.62-16.98 7.62-7.62 16.98-7.62-16.98-16.97-7.62 16.97-7.62 7.62-16.98z"/><path d="m9136.91 3705.49 16.98 7.62-16.98 7.62-7.62 16.98-7.62-16.98-16.97-7.62 16.97-7.62 7.62-16.98z"/><path d="m8697.91 3917.49 16.98 7.62-16.98 7.62-7.62 16.98-7.62-16.98-16.97-7.62 16.97-7.62 7.62-16.98z"/><path d="m8350.91 2325.49 16.98 7.62-16.98 7.62-7.62 16.98-7.62-16.98-16.97-7.62 16.97-7.62 7.62-16.98z"/><path d="m8228.91 1732.49 16.98 7.62-16.98 7.62-7.62 16.98-7.62-16.98-16.97-7.62 16.97-7.62 7.62-16.98z"/><path d="m8057.91 2157.49 16.98 7.62-16.98 7.62-7.62 16.98-7.62-16.98-16.97-7.62 16.97-7.62 7.62-16.98z"/><path d="m7892.91 2178.49 16.98 7.62-16.98 7.62-7.62 16.98-7.62-16.98-16.97-7.62 16.97-7.62 7.62-16.98z"/><path d="m8976.91 1438.49 16.98 7.62-16.98 7.62-7.62 16.98-7.62-16.98-16.97-7.62 16.97-7.62 7.62-16.98z"/><path d="m9526.91 1841.49 16.98 7.62-16.98 7.62-7.62 16.98-7.62-16.98-16.97-7.62 16.97-7.62 7.62-16.98z"/><path d="m9351.91 1270.49 16.98 7.62-16.98 7.62-7.62 16.98-7.62-16.98-16.97-7.62 16.97-7.62 7.62-16.98z"/><path d="m9683.91 1052.49 16.98 7.62-16.98 7.62-7.62 16.98-7.62-16.98-16.97-7.62 16.97-7.62 7.62-16.98z"/><path d="m8683.91 1270.49 16.98 7.62-16.98 7.62-7.62 16.98-7.62-16.98-16.97-7.62 16.97-7.62 7.62-16.98z"/><path d="m8518.91 1291.49 16.98 7.62-16.98 7.62-7.62 16.98-7.62-16.98-16.97-7.62 16.97-7.62 7.62-16.98z"/><path d="m7192.91 1912.49 16.98 7.62-16.98 7.62-7.62 16.98-7.62-16.98-16.97-7.62 16.97-7.62 7.62-16.98z"/><path d="m6973.91 2257.49 16.98 7.62-16.98 7.62-7.62 16.98-7.62-16.98-16.97-7.62 16.97-7.62 7.62-16.98z"/><path d="m7688.91 1432.49 16.98 7.62-16.98 7.62-7.62 16.98-7.62-16.98-16.97-7.62 16.97-7.62 7.62-16.98z"/><path d="m7229.91 1148.49 16.98 7.62-16.98 7.62-7.62 16.98-7.62-16.98-16.97-7.62 16.97-7.62 7.62-16.98z"/><path d="m7469.91 1777.49 16.98 7.62-16.98 7.62-7.62 16.98-7.62-16.98-16.97-7.62 16.97-7.62 7.62-16.98z"/><path d="m6896.91 2809.49 16.98 7.62-16.98 7.62-7.62 16.98-7.62-16.98-16.97-7.62 16.97-7.62 7.62-16.98z"/><path d="m9141.91 6339.49 16.98 7.62-16.98 7.62-7.62 16.98-7.62-16.98-16.97-7.62 16.97-7.62 7.62-16.98z"/><path d="m8469.91 6309.49 16.98 7.62-16.98 7.62-7.62 16.98-7.62-16.98-16.97-7.62 16.97-7.62 7.62-16.98z"/><path d="m8253.91 5747.49 16.98 7.62-16.98 7.62-7.62 16.98-7.62-16.98-16.97-7.62 16.97-7.62 7.62-16.98z"/><path d="m8941.91 5555.49 16.98 7.62-16.98 7.62-7.62 16.98-7.62-16.98-16.97-7.62 16.97-7.62 7.62-16.98z"/><path d="m9059.91 4884.49 16.98 7.62-16.98 7.62-7.62 16.98-7.62-16.98-16.97-7.62 16.97-7.62 7.62-16.98z"/><path d="m8568.91 4607.49 16.98 7.62-16.98 7.62-7.62 16.98-7.62-16.98-16.97-7.62 16.97-7.62 7.62-16.98z"/><path d="m7662.91 5423.49 16.98 7.62-16.98 7.62-7.62 16.98-7.62-16.98-16.97-7.62 16.97-7.62 7.62-16.98z"/><path d="m7662.91 6002.49 16.98 7.62-16.98 7.62-7.62 16.98-7.62-16.98-16.97-7.62 16.97-7.62 7.62-16.98z"/><path d="m8218.91 10823.17 16.98 7.62-16.98 7.62-7.62 16.98-7.62-16.98-16.97-7.62 16.97-7.62 7.62-16.98z"/><path d="m7655.91 10593.17 16.98 7.62-16.98 7.62-7.62 16.98-7.62-16.98-16.97-7.62 16.97-7.62 7.62-16.98z"/><path d="m8218.91 10374.17 16.98 7.62-16.98 7.62-7.62 16.98-7.62-16.98-16.97-7.62 16.97-7.62 7.62-16.98z"/><path d="m7214.91 10191.17 16.98 7.62-16.98 7.62-7.62 16.98-7.62-16.98-16.97-7.62 16.97-7.62 7.62-16.98z"/><path d="m7130.91 10540.17 16.98 7.62-16.98 7.62-7.62 16.98-7.62-16.98-16.97-7.62 16.97-7.62 7.62-16.98z"/><path d="m7081.91 9682.17 16.98 7.62-16.98 7.62-7.62 16.98-7.62-16.98-16.97-7.62 16.97-7.62 7.62-16.98z"/><path d="m8169.91 11905.17 16.98 7.62-16.98 7.62-7.62 16.98-7.62-16.98-16.97-7.62 16.97-7.62 7.62-16.98z"/><path d="m7606.91 11675.17 16.98 7.62-16.98 7.62-7.62 16.98-7.62-16.98-16.97-7.62 16.97-7.62 7.62-16.98z"/><path d="m7165.91 11273.17 16.98 7.62-16.98 7.62-7.62 16.98-7.62-16.98-16.97-7.62 16.97-7.62 7.62-16.98z"/><path d="m7081.91 11622.17 16.98 7.62-16.98 7.62-7.62 16.98-7.62-16.98-16.97-7.62 16.97-7.62 7.62-16.98z"/><path d="m8833.91 11298.17 16.98 7.62-16.98 7.62-7.62 16.98-7.62-16.98-16.97-7.62 16.97-7.62 7.62-16.98z"/><path d="m7829.91 11115.17 16.98 7.62-16.98 7.62-7.62 16.98-7.62-16.98-16.97-7.62 16.97-7.62 7.62-16.98z"/><path d="m7745.91 11464.17 16.98 7.62-16.98 7.62-7.62 16.98-7.62-16.98-16.97-7.62 16.97-7.62 7.62-16.98z"/><path d="m9332.91 11967.17 16.98 7.62-16.98 7.62-7.62 16.98-7.62-16.98-16.97-7.62 16.97-7.62 7.62-16.98z"/><path d="m9332.91 11518.17 16.98 7.62-16.98 7.62-7.62 16.98-7.62-16.98-16.97-7.62 16.97-7.62 7.62-16.98z"/><path d="m8328.91 11335.17 16.98 7.62-16.98 7.62-7.62 16.98-7.62-16.98-16.97-7.62 16.97-7.62 7.62-16.98z"/><path d="m8244.91 11684.17 16.98 7.62-16.98 7.62-7.62 16.98-7.62-16.98-16.97-7.62 16.97-7.62 7.62-16.98z"/><path d="m9996.91 11809.17 16.98 7.62-16.98 7.62-7.62 16.98-7.62-16.98-16.97-7.62 16.97-7.62 7.62-16.98z"/><path d="m9433.91 11579.17 16.98 7.62-16.98 7.62-7.62 16.98-7.62-16.98-16.97-7.62 16.97-7.62 7.62-16.98z"/><path d="m9996.91 11360.17 16.98 7.62-16.98 7.62-7.62 16.98-7.62-16.98-16.97-7.62 16.97-7.62 7.62-16.98z"/><path d="m8908.91 11526.17 16.98 7.62-16.98 7.62-7.62 16.98-7.62-16.98-16.97-7.62 16.97-7.62 7.62-16.98z"/><path d="m6960.91 9055.17 16.98 7.62-16.98 7.62-7.62 16.98-7.62-16.98-16.97-7.62 16.97-7.62 7.62-16.98z"/><path d="m7594.91 8791.17 16.98 7.62-16.98 7.62-7.62 16.98-7.62-16.98-16.97-7.62 16.97-7.62 7.62-16.98z"/><path d="m7431.91 9300.17 16.98 7.62-16.98 7.62-7.62 16.98-7.62-16.98-16.97-7.62 16.97-7.62 7.62-16.98z"/><path d="m8289.91 8820.17 16.98 7.62-16.98 7.62-7.62 16.98-7.62-16.98-16.97-7.62 16.97-7.62 7.62-16.98z"/><path d="m9227.91 10335.17 16.98 7.62-16.98 7.62-7.62 16.98-7.62-16.98-16.97-7.62 16.97-7.62 7.62-16.98z"/><path d="m8555.91 10305.17 16.98 7.62-16.98 7.62-7.62 16.98-7.62-16.98-16.97-7.62 16.97-7.62 7.62-16.98z"/><path d="m8339.91 9743.17 16.98 7.62-16.98 7.62-7.62 16.98-7.62-16.98-16.97-7.62 16.97-7.62 7.62-16.98z"/><path d="m9027.91 9551.17 16.98 7.62-16.98 7.62-7.62 16.98-7.62-16.98-16.97-7.62 16.97-7.62 7.62-16.98z"/><path d="m9145.91 8880.17 16.98 7.62-16.98 7.62-7.62 16.98-7.62-16.98-16.97-7.62 16.97-7.62 7.62-16.98z"/><path d="m9828.91 10992.17 16.98 7.62-16.98 7.62-7.62 16.98-7.62-16.98-16.97-7.62 16.97-7.62 7.62-16.98z"/><path d="m9628.91 10208.17 16.98 7.62-16.98 7.62-7.62 16.98-7.62-16.98-16.97-7.62 16.97-7.62 7.62-16.98z"/><path d="m9746.91 9537.17 16.98 7.62-16.98 7.62-7.62 16.98-7.62-16.98-16.97-7.62 16.97-7.62 7.62-16.98z"/><path d="m9658.91 8701.17 16.98 7.62-16.98 7.62-7.62 16.98-7.62-16.98-16.97-7.62 16.97-7.62 7.62-16.98z"/><path d="m9458.91 7917.17 16.98 7.62-16.98 7.62-7.62 16.98-7.62-16.98-16.97-7.62 16.97-7.62 7.62-16.98z"/><path d="m9576.91 7246.17 16.98 7.62-16.98 7.62-7.62 16.98-7.62-16.98-16.97-7.62 16.97-7.62 7.62-16.98z"/><path d="m9783.91 6705.17 16.98 7.62-16.98 7.62-7.62 16.98-7.62-16.98-16.97-7.62 16.97-7.62 7.62-16.98z"/><path d="m9583.91 5921.17 16.98 7.62-16.98 7.62-7.62 16.98-7.62-16.98-16.97-7.62 16.97-7.62 7.62-16.98z"/><path d="m9701.91 5250.17 16.98 7.62-16.98 7.62-7.62 16.98-7.62-16.98-16.97-7.62 16.97-7.62 7.62-16.98z"/><path d="m9583.91 5091.17 16.98 7.62-16.98 7.62-7.62 16.98-7.62-16.98-16.97-7.62 16.97-7.62 7.62-16.98z"/><path d="m9383.91 4307.17 16.98 7.62-16.98 7.62-7.62 16.98-7.62-16.98-16.97-7.62 16.97-7.62 7.62-16.98z"/><path d="m9501.91 3636.17 16.98 7.62-16.98 7.62-7.62 16.98-7.62-16.98-16.97-7.62 16.97-7.62 7.62-16.98z"/><path d="m10137.91 4709.17 16.98 7.62-16.98 7.62-7.62 16.98-7.62-16.98-16.97-7.62 16.97-7.62 7.62-16.98z"/><path d="m9937.91 3925.17 16.98 7.62-16.98 7.62-7.62 16.98-7.62-16.98-16.97-7.62 16.97-7.62 7.62-16.98z"/><path d="m10055.91 3254.17 16.98 7.62-16.98 7.62-7.62 16.98-7.62-16.98-16.97-7.62 16.97-7.62 7.62-16.98z"/><path d="m9166.91 3339.17 16.98 7.62-16.98 7.62-7.62 16.98-7.62-16.98-16.97-7.62 16.97-7.62 7.62-16.98z"/><path d="m9376.91 2827.17 16.98 7.62-16.98 7.62-7.62 16.98-7.62-16.98-16.97-7.62 16.97-7.62 7.62-16.98z"/><path d="m9658.91 2986.17 16.98 7.62-16.98 7.62-7.62 16.98-7.62-16.98-16.97-7.62 16.97-7.62 7.62-16.98z"/><path d="m9494.91 2156.17 16.98 7.62-16.98 7.62-7.62 16.98-7.62-16.98-16.97-7.62 16.97-7.62 7.62-16.98z"/><path d="m10062.91 2776.17 16.98 7.62-16.98 7.62-7.62 16.98-7.62-16.98-16.97-7.62 16.97-7.62 7.62-16.98z"/><path d="m9862.91 1992.17 16.98 7.62-16.98 7.62-7.62 16.98-7.62-16.98-16.97-7.62 16.97-7.62 7.62-16.98z"/><path d="m9980.91 1321.17 16.98 7.62-16.98 7.62-7.62 16.98-7.62-16.98-16.97-7.62 16.97-7.62 7.62-16.98z"/><path d="m7127.91 873.49 16.98 7.62-16.98 7.62-7.62 16.98-7.62-16.98-16.97-7.62 16.97-7.62 7.62-16.98z"/><path d="m6448.91 763.49 16.98 7.62-16.98 7.62-7.62 16.98-7.62-16.98-16.97-7.62 16.97-7.62 7.62-16.98z"/><path d="m6155.91 595.49 16.98 7.62-16.98 7.62-7.62 16.98-7.62-16.98-16.97-7.62 16.97-7.62 7.62-16.98z"/><path d="m5990.91 616.49 16.98 7.62-16.98 7.62-7.62 16.98-7.62-16.98-16.97-7.62 16.97-7.62 7.62-16.98z"/><path d="m5160.91 757.49 16.98 7.62-16.98 7.62-7.62 16.98-7.62-16.98-16.97-7.62 16.97-7.62 7.62-16.98z"/><path d="m4701.91 473.49 16.98 7.62-16.98 7.62-7.62 16.98-7.62-16.98-16.97-7.62 16.97-7.62 7.62-16.98z"/><path d="m350.91 473.49 16.98 7.62-16.98 7.62-7.62 16.98-7.62-16.98-16.97-7.62 16.97-7.62 7.62-16.98z"/><path d="m881.91 782.49 16.98 7.62-16.98 7.62-7.62 16.98-7.62-16.98-16.97-7.62 16.97-7.62 7.62-16.98z"/><path d="m3830.91 665.49 16.98 7.62-16.98 7.62-7.62 16.98-7.62-16.98-16.97-7.62 16.97-7.62 7.62-16.98z"/><path d="m3018.91 570.49 16.98 7.62-16.98 7.62-7.62 16.98-7.62-16.98-16.97-7.62 16.97-7.62 7.62-16.98z"/><path d="m2521.91 763.49 16.98 7.62-16.98 7.62-7.62 16.98-7.62-16.98-16.97-7.62 16.97-7.62 7.62-16.98z"/><path d="m1569.91 788.49 16.98 7.62-16.98 7.62-7.62 16.98-7.62-16.98-16.97-7.62 16.97-7.62 7.62-16.98z"/><path d="m9125.91 834.49 16.98 7.62-16.98 7.62-7.62 16.98-7.62-16.98-16.97-7.62 16.97-7.62 7.62-16.98z"/><path d="m9500.91 666.49 16.98 7.62-16.98 7.62-7.62 16.98-7.62-16.98-16.97-7.62 16.97-7.62 7.62-16.98z"/><path d="m9832.91 448.49 16.98 7.62-16.98 7.62-7.62 16.98-7.62-16.98-16.97-7.62 16.97-7.62 7.62-16.98z"/><path d="m8832.91 666.49 16.98 7.62-16.98 7.62-7.62 16.98-7.62-16.98-16.97-7.62 16.97-7.62 7.62-16.98z"/><path d="m8667.91 687.49 16.98 7.62-16.98 7.62-7.62 16.98-7.62-16.98-16.97-7.62 16.97-7.62 7.62-16.98z"/><path d="m7837.91 828.49 16.98 7.62-16.98 7.62-7.62 16.98-7.62-16.98-16.97-7.62 16.97-7.62 7.62-16.98z"/><path d="m7378.91 544.49 16.98 7.62-16.98 7.62-7.62 16.98-7.62-16.98-16.97-7.62 16.97-7.62 7.62-16.98z"/><path d="m10129.91 717.17 16.98 7.62-16.98 7.62-7.62 16.98-7.62-16.98-16.97-7.62 16.97-7.62 7.62-16.98z"/><path d="m8654.91 8603.17 16.98 7.62-16.98 7.62-7.62 16.98-7.62-16.98-16.97-7.62 16.97-7.62 7.62-16.98z"/><path d="m7748.91 9419.17 16.98 7.62-16.98 7.62-7.62 16.98-7.62-16.98-16.97-7.62 16.97-7.62 7.62-16.98z"/><path d="m7748.91 9998.17 16.98 7.62-16.98 7.62-7.62 16.98-7.62-16.98-16.97-7.62 16.97-7.62 7.62-16.98z"/></g></svg>