<svg id="Layer_1" data-name="Layer 1" xmlns="http://www.w3.org/2000/svg" width="10494" height="12500" viewBox="0 0 10494 12500"><title>Stars</title><path d="M2115.62,7689.32l5.33,9.4a1,1,0,0,1-1.41,1.07l-18.94-10.47Z" style="fill:#e6e6e6"/><path d="M2128.37,7698.62l5.94-9.3h11.45l-16.86,9.81A.38.38,0,0,1,2128.37,7698.62Z" style="fill:#e6e6e6"/><polygon points="5455.91 6756.49 5472.89 6764.11 5455.91 6771.73 5448.29 6788.71 5440.67 6771.73 5423.7 6764.11 5440.67 6756.49 5448.29 6739.51 5455.91 6756.49" style="fill:#e6e6e6"/><polygon points="4892.91 6526.49 4909.89 6534.11 4892.91 6541.73 4885.29 6558.71 4877.67 6541.73 4860.7 6534.11 4877.67 6526.49 4885.29 6509.51 4892.91 6526.49" style="fill:#e6e6e6"/><polygon points="5455.91 6307.49 5472.89 6315.11 5455.91 6322.73 5448.29 6339.71 5440.67 6322.73 5423.7 6315.11 5440.67 6307.49 5448.29 6290.51 5455.91 6307.49" style="fill:#e6e6e6"/><polygon points="4451.91 6124.49 4468.89 6132.11 4451.91 6139.73 4444.29 6156.71 4436.67 6139.73 4419.7 6132.11 4436.67 6124.49 4444.29 6107.51 4451.91 6124.49" style="fill:#e6e6e6"/><polygon points="4367.91 6473.49 4384.89 6481.11 4367.91 6488.73 4360.29 6505.71 4352.67 6488.73 4335.7 6481.11 4352.67 6473.49 4360.29 6456.51 4367.91 6473.49" style="fill:#e6e6e6"/><polygon points="3577.91 6389.49 3594.89 6397.11 3577.91 6404.73 3570.29 6421.71 3562.67 6404.73 3545.7 6397.11 3562.67 6389.49 3570.29 6372.51 3577.91 6389.49" style="fill:#e6e6e6"/><polygon points="3884.91 5944.49 3901.89 5952.11 3884.91 5959.73 3877.29 5976.71 3869.67 5959.73 3852.7 5952.11 3869.67 5944.49 3877.29 5927.51 3884.91 5944.49" style="fill:#e6e6e6"/><polygon points="4318.91 5615.49 4335.89 5623.11 4318.91 5630.73 4311.29 5647.71 4303.67 5630.73 4286.7 5623.11 4303.67 5615.49 4311.29 5598.51 4318.91 5615.49" style="fill:#e6e6e6"/><polygon points="3249.91 6231.49 3266.89 6239.11 3249.91 6246.73 3242.29 6263.71 3234.67 6246.73 3217.7 6239.11 3234.67 6231.49 3242.29 6214.51 3249.91 6231.49" style="fill:#e6e6e6"/><polygon points="2761.91 6036.49 2778.89 6044.11 2761.91 6051.73 2754.29 6068.71 2746.67 6051.73 2729.7 6044.11 2746.67 6036.49 2754.29 6019.51 2761.91 6036.49" style="fill:#e6e6e6"/><polygon points="1895.91 6124.49 1912.89 6132.11 1895.91 6139.73 1888.29 6156.71 1880.67 6139.73 1863.7 6132.11 1880.67 6124.49 1888.29 6107.51 1895.91 6124.49" style="fill:#e6e6e6"/><polygon points="1427.91 5586.49 1444.89 5594.11 1427.91 5601.73 1420.29 5618.71 1412.67 5601.73 1395.7 5594.11 1412.67 5586.49 1420.29 5569.51 1427.91 5586.49" style="fill:#e6e6e6"/><polygon points="1752.91 5305.49 1769.89 5313.11 1752.91 5320.73 1745.29 5337.71 1737.67 5320.73 1720.7 5313.11 1737.67 5305.49 1745.29 5288.51 1752.91 5305.49" style="fill:#e6e6e6"/><polygon points="509.91 6526.49 526.89 6534.11 509.91 6541.73 502.29 6558.71 494.67 6541.73 477.7 6534.11 494.67 6526.49 502.29 6509.51 509.91 6526.49" style="fill:#e6e6e6"/><polygon points="1080.91 6492.49 1097.89 6500.11 1080.91 6507.73 1073.29 6524.71 1065.67 6507.73 1048.7 6500.11 1065.67 6492.49 1073.29 6475.51 1080.91 6492.49" style="fill:#e6e6e6"/><polygon points="1427.91 6159.49 1444.89 6167.11 1427.91 6174.73 1420.29 6191.71 1412.67 6174.73 1395.7 6167.11 1412.67 6159.49 1420.29 6142.51 1427.91 6159.49" style="fill:#e6e6e6"/><polygon points="841.91 5616.49 858.89 5624.11 841.91 5631.73 834.29 5648.71 826.67 5631.73 809.7 5624.11 826.67 5616.49 834.29 5599.51 841.91 5616.49" style="fill:#e6e6e6"/><polygon points="534.91 5159.49 551.89 5167.11 534.91 5174.73 527.29 5191.71 519.67 5174.73 502.7 5167.11 519.67 5159.49 527.29 5142.51 534.91 5159.49" style="fill:#e6e6e6"/><polygon points="1103.91 5117.49 1120.89 5125.11 1103.91 5132.73 1096.29 5149.71 1088.67 5132.73 1071.7 5125.11 1088.67 5117.49 1096.29 5100.51 1103.91 5117.49" style="fill:#e6e6e6"/><polygon points="2321.91 6631.49 2338.89 6639.11 2321.91 6646.73 2314.29 6663.71 2306.67 6646.73 2289.7 6639.11 2306.67 6631.49 2314.29 6614.51 2321.91 6631.49" style="fill:#e6e6e6"/><polygon points="3146.91 6916.49 3163.89 6924.11 3146.91 6931.73 3139.29 6948.71 3131.67 6931.73 3114.7 6924.11 3131.67 6916.49 3139.29 6899.51 3146.91 6916.49" style="fill:#e6e6e6"/><polygon points="5406.91 7838.49 5423.89 7846.11 5406.91 7853.73 5399.29 7870.71 5391.67 7853.73 5374.7 7846.11 5391.67 7838.49 5399.29 7821.51 5406.91 7838.49" style="fill:#e6e6e6"/><polygon points="4843.91 7608.49 4860.89 7616.11 4843.91 7623.73 4836.29 7640.71 4828.67 7623.73 4811.7 7616.11 4828.67 7608.49 4836.29 7591.51 4843.91 7608.49" style="fill:#e6e6e6"/><polygon points="5406.91 7389.49 5423.89 7397.11 5406.91 7404.73 5399.29 7421.71 5391.67 7404.73 5374.7 7397.11 5391.67 7389.49 5399.29 7372.51 5406.91 7389.49" style="fill:#e6e6e6"/><polygon points="4402.91 7206.49 4419.89 7214.11 4402.91 7221.73 4395.29 7238.71 4387.67 7221.73 4370.7 7214.11 4387.67 7206.49 4395.29 7189.51 4402.91 7206.49" style="fill:#e6e6e6"/><polygon points="4318.91 7555.49 4335.89 7563.11 4318.91 7570.73 4311.29 7587.71 4303.67 7570.73 4286.7 7563.11 4303.67 7555.49 4311.29 7538.51 4318.91 7555.49" style="fill:#e6e6e6"/><polygon points="6070.91 7680.49 6087.89 7688.11 6070.91 7695.73 6063.29 7712.71 6055.67 7695.73 6038.7 7688.11 6055.67 7680.49 6063.29 7663.51 6070.91 7680.49" style="fill:#e6e6e6"/><polygon points="5507.91 7450.49 5524.89 7458.11 5507.91 7465.73 5500.29 7482.71 5492.67 7465.73 5475.7 7458.11 5492.67 7450.49 5500.29 7433.51 5507.91 7450.49" style="fill:#e6e6e6"/><polygon points="6070.91 7231.49 6087.89 7239.11 6070.91 7246.73 6063.29 7263.71 6055.67 7246.73 6038.7 7239.11 6055.67 7231.49 6063.29 7214.51 6070.91 7231.49" style="fill:#e6e6e6"/><polygon points="5066.91 7048.49 5083.89 7056.11 5066.91 7063.73 5059.29 7080.71 5051.67 7063.73 5034.7 7056.11 5051.67 7048.49 5059.29 7031.51 5066.91 7048.49" style="fill:#e6e6e6"/><polygon points="4982.91 7397.49 4999.89 7405.11 4982.91 7412.73 4975.29 7429.71 4967.67 7412.73 4950.7 7405.11 4967.67 7397.49 4975.29 7380.51 4982.91 7397.49" style="fill:#e6e6e6"/><polygon points="3528.91 7471.49 3545.89 7479.11 3528.91 7486.73 3521.29 7503.71 3513.67 7486.73 3496.7 7479.11 3513.67 7471.49 3521.29 7454.51 3528.91 7471.49" style="fill:#e6e6e6"/><polygon points="3200.91 7313.49 3217.89 7321.11 3200.91 7328.73 3193.29 7345.71 3185.67 7328.73 3168.7 7321.11 3185.67 7313.49 3193.29 7296.51 3200.91 7313.49" style="fill:#e6e6e6"/><polygon points="2712.91 7118.49 2729.89 7126.11 2712.91 7133.73 2705.29 7150.71 2697.67 7133.73 2680.7 7126.11 2697.67 7118.49 2705.29 7101.51 2712.91 7118.49" style="fill:#e6e6e6"/><polygon points="1846.91 7206.49 1863.89 7214.11 1846.91 7221.73 1839.29 7238.71 1831.67 7221.73 1814.7 7214.11 1831.67 7206.49 1839.29 7189.51 1846.91 7206.49" style="fill:#e6e6e6"/><polygon points="460.91 7608.49 477.89 7616.11 460.91 7623.73 453.29 7640.71 445.67 7623.73 428.7 7616.11 445.67 7608.49 453.29 7591.51 460.91 7608.49" style="fill:#e6e6e6"/><polygon points="1031.91 7574.49 1048.89 7582.11 1031.91 7589.73 1024.29 7606.71 1016.67 7589.73 999.7 7582.11 1016.67 7574.49 1024.29 7557.51 1031.91 7574.49" style="fill:#e6e6e6"/><polygon points="1378.91 7241.49 1395.89 7249.11 1378.91 7256.73 1371.29 7273.71 1363.67 7256.73 1346.7 7249.11 1363.67 7241.49 1371.29 7224.51 1378.91 7241.49" style="fill:#e6e6e6"/><polygon points="2272.91 7713.49 2289.89 7721.11 2272.91 7728.73 2265.29 7745.71 2257.67 7728.73 2240.7 7721.11 2257.67 7713.49 2265.29 7696.51 2272.91 7713.49" style="fill:#e6e6e6"/><polygon points="3097.91 7998.49 3114.89 8006.11 3097.91 8013.73 3090.29 8030.71 3082.67 8013.73 3065.7 8006.11 3082.67 7998.49 3090.29 7981.51 3097.91 7998.49" style="fill:#e6e6e6"/><polygon points="2242.91 5651.49 2259.89 5659.11 2242.91 5666.73 2235.29 5683.71 2227.67 5666.73 2210.7 5659.11 2227.67 5651.49 2235.29 5634.51 2242.91 5651.49" style="fill:#e6e6e6"/><polygon points="2744.91 5352.49 2761.89 5360.11 2744.91 5367.73 2737.29 5384.71 2729.67 5367.73 2712.7 5360.11 2729.67 5352.49 2737.29 5335.51 2744.91 5352.49" style="fill:#e6e6e6"/><polygon points="3249.91 5377.49 3266.89 5385.11 3249.91 5392.73 3242.29 5409.71 3234.67 5392.73 3217.7 5385.11 3234.67 5377.49 3242.29 5360.51 3249.91 5377.49" style="fill:#e6e6e6"/><polygon points="4197.91 4988.49 4214.89 4996.11 4197.91 5003.73 4190.29 5020.71 4182.67 5003.73 4165.7 4996.11 4182.67 4988.49 4190.29 4971.51 4197.91 4988.49" style="fill:#e6e6e6"/><polygon points="3577.91 4911.49 3594.89 4919.11 3577.91 4926.73 3570.29 4943.71 3562.67 4926.73 3545.7 4919.11 3562.67 4911.49 3570.29 4894.51 3577.91 4911.49" style="fill:#e6e6e6"/><polygon points="3909.91 4719.49 3926.89 4727.11 3909.91 4734.73 3902.29 4751.71 3894.67 4734.73 3877.7 4727.11 3894.67 4719.49 3902.29 4702.51 3909.91 4719.49" style="fill:#e6e6e6"/><polygon points="3352.91 3882.49 3369.89 3890.11 3352.91 3897.73 3345.29 3914.71 3337.67 3897.73 3320.7 3890.11 3337.67 3882.49 3345.29 3865.51 3352.91 3882.49" style="fill:#e6e6e6"/><polygon points="3055.91 4519.49 3072.89 4527.11 3055.91 4534.73 3048.29 4551.71 3040.67 4534.73 3023.7 4527.11 3040.67 4519.49 3048.29 4502.51 3055.91 4519.49" style="fill:#e6e6e6"/><polygon points="4510.91 4140.49 4527.89 4148.11 4510.91 4155.73 4503.29 4172.71 4495.67 4155.73 4478.7 4148.11 4495.67 4140.49 4503.29 4123.51 4510.91 4140.49" style="fill:#e6e6e6"/><polygon points="4831.91 4724.49 4848.89 4732.11 4831.91 4739.73 4824.29 4756.71 4816.67 4739.73 4799.7 4732.11 4816.67 4724.49 4824.29 4707.51 4831.91 4724.49" style="fill:#e6e6e6"/><polygon points="4668.91 5233.49 4685.89 5241.11 4668.91 5248.73 4661.29 5265.71 4653.67 5248.73 4636.7 5241.11 4653.67 5233.49 4661.29 5216.51 4668.91 5233.49" style="fill:#e6e6e6"/><polygon points="5526.91 4753.49 5543.89 4761.11 5526.91 4768.73 5519.29 4785.71 5511.67 4768.73 5494.7 4761.11 5511.67 4753.49 5519.29 4736.51 5526.91 4753.49" style="fill:#e6e6e6"/><polygon points="5141.91 4205.49 5158.89 4213.11 5141.91 4220.73 5134.29 4237.71 5126.67 4220.73 5109.7 4213.11 5126.67 4205.49 5134.29 4188.51 5141.91 4205.49" style="fill:#e6e6e6"/><polygon points="5698.91 3957.49 5715.89 3965.11 5698.91 3972.73 5691.29 3989.71 5683.67 3972.73 5666.7 3965.11 5683.67 3957.49 5691.29 3940.51 5698.91 3957.49" style="fill:#e6e6e6"/><polygon points="5039.91 3704.49 5056.89 3712.11 5039.91 3719.73 5032.29 3736.71 5024.67 3719.73 5007.7 3712.11 5024.67 3704.49 5032.29 3687.51 5039.91 3704.49" style="fill:#e6e6e6"/><polygon points="4510.91 3611.49 4527.89 3619.11 4510.91 3626.73 4503.29 3643.71 4495.67 3626.73 4478.7 3619.11 4495.67 3611.49 4503.29 3594.51 4510.91 3611.49" style="fill:#e6e6e6"/><polygon points="3806.91 3913.49 3823.89 3921.11 3806.91 3928.73 3799.29 3945.71 3791.67 3928.73 3774.7 3921.11 3791.67 3913.49 3799.29 3896.51 3806.91 3913.49" style="fill:#e6e6e6"/><polygon points="4000.91 3339.49 4017.89 3347.11 4000.91 3354.73 3993.29 3371.71 3985.67 3354.73 3968.7 3347.11 3985.67 3339.49 3993.29 3322.51 4000.91 3339.49" style="fill:#e6e6e6"/><polygon points="4806.91 3203.49 4823.89 3211.11 4806.91 3218.73 4799.29 3235.71 4791.67 3218.73 4774.7 3211.11 4791.67 3203.49 4799.29 3186.51 4806.91 3203.49" style="fill:#e6e6e6"/><polygon points="6682.91 1885.49 6699.89 1893.11 6682.91 1900.73 6675.29 1917.71 6667.67 1900.73 6650.7 1893.11 6667.67 1885.49 6675.29 1868.51 6682.91 1885.49" style="fill:#e6e6e6"/><polygon points="6172.91 1613.49 6189.89 1621.11 6172.91 1628.73 6165.29 1645.71 6157.67 1628.73 6140.7 1621.11 6157.67 1613.49 6165.29 1596.51 6172.91 1613.49" style="fill:#e6e6e6"/><polygon points="6978.91 1477.49 6995.89 1485.11 6978.91 1492.73 6971.29 1509.71 6963.67 1492.73 6946.7 1485.11 6963.67 1477.49 6971.29 1460.51 6978.91 1477.49" style="fill:#e6e6e6"/><polygon points="6978.91 8455.49 6995.89 8463.11 6978.91 8470.73 6971.29 8487.71 6963.67 8470.73 6946.7 8463.11 6963.67 8455.49 6971.29 8438.51 6978.91 8455.49" style="fill:#e6e6e6"/><polygon points="6468.91 8183.49 6485.89 8191.11 6468.91 8198.73 6461.29 8215.71 6453.67 8198.73 6436.7 8191.11 6453.67 8183.49 6461.29 8166.51 6468.91 8183.49" style="fill:#e6e6e6"/><polygon points="7274.91 8047.49 7291.89 8055.11 7274.91 8062.73 7267.29 8079.71 7259.67 8062.73 7242.7 8055.11 7259.67 8047.49 7267.29 8030.51 7274.91 8047.49" style="fill:#e6e6e6"/><polygon points="5477.91 3519.49 5494.89 3527.11 5477.91 3534.73 5470.29 3551.71 5462.67 3534.73 5445.7 3527.11 5462.67 3519.49 5470.29 3502.51 5477.91 3519.49" style="fill:#e6e6e6"/><polygon points="5743.91 3010.49 5760.89 3018.11 5743.91 3025.73 5736.29 3042.71 5728.67 3025.73 5711.7 3018.11 5728.67 3010.49 5736.29 2993.51 5743.91 3010.49" style="fill:#e6e6e6"/><polygon points="6069.91 3457.49 6086.89 3465.11 6069.91 3472.73 6062.29 3489.71 6054.67 3472.73 6037.7 3465.11 6054.67 3457.49 6062.29 3440.51 6069.91 3457.49" style="fill:#e6e6e6"/><polygon points="6357.91 2788.49 6374.89 2796.11 6357.91 2803.73 6350.29 2820.71 6342.67 2803.73 6325.7 2796.11 6342.67 2788.49 6350.29 2771.51 6357.91 2788.49" style="fill:#e6e6e6"/><polygon points="5866.91 2548.49 5883.89 2556.11 5866.91 2563.73 5859.29 2580.71 5851.67 2563.73 5834.7 2556.11 5851.67 2548.49 5859.29 2531.51 5866.91 2548.49" style="fill:#e6e6e6"/><polygon points="6324.91 2161.49 6341.89 2169.11 6324.91 2176.73 6317.29 2193.71 6309.67 2176.73 6292.7 2169.11 6309.67 2161.49 6317.29 2144.51 6324.91 2161.49" style="fill:#e6e6e6"/><polygon points="5166.91 2763.49 5183.89 2771.11 5166.91 2778.73 5159.29 2795.71 5151.67 2778.73 5134.7 2771.11 5151.67 2763.49 5159.29 2746.51 5166.91 2763.49" style="fill:#e6e6e6"/><polygon points="5304.91 3222.49 5321.89 3230.11 5304.91 3237.73 5297.29 3254.71 5289.67 3237.73 5272.7 3230.11 5289.67 3222.49 5297.29 3205.51 5304.91 3222.49" style="fill:#e6e6e6"/><polygon points="6193.91 4143.49 6210.89 4151.11 6193.91 4158.73 6186.29 4175.71 6178.67 4158.73 6161.7 4151.11 6178.67 4143.49 6186.29 4126.51 6193.91 4143.49" style="fill:#e6e6e6"/><polygon points="6459.91 3634.49 6476.89 3642.11 6459.91 3649.73 6452.29 3666.71 6444.67 3649.73 6427.7 3642.11 6444.67 3634.49 6452.29 3617.51 6459.91 3634.49" style="fill:#e6e6e6"/><polygon points="6020.91 3846.49 6037.89 3854.11 6020.91 3861.73 6013.29 3878.71 6005.67 3861.73 5988.7 3854.11 6005.67 3846.49 6013.29 3829.51 6020.91 3846.49" style="fill:#e6e6e6"/><polygon points="5673.91 2254.49 5690.89 2262.11 5673.91 2269.73 5666.29 2286.71 5658.67 2269.73 5641.7 2262.11 5658.67 2254.49 5666.29 2237.51 5673.91 2254.49" style="fill:#e6e6e6"/><polygon points="5551.91 1661.49 5568.89 1669.11 5551.91 1676.73 5544.29 1693.71 5536.67 1676.73 5519.7 1669.11 5536.67 1661.49 5544.29 1644.51 5551.91 1661.49" style="fill:#e6e6e6"/><polygon points="5380.91 2086.49 5397.89 2094.11 5380.91 2101.73 5373.29 2118.71 5365.67 2101.73 5348.7 2094.11 5365.67 2086.49 5373.29 2069.51 5380.91 2086.49" style="fill:#e6e6e6"/><polygon points="5215.91 2107.49 5232.89 2115.11 5215.91 2122.73 5208.29 2139.71 5200.67 2122.73 5183.7 2115.11 5200.67 2107.49 5208.29 2090.51 5215.91 2107.49" style="fill:#e6e6e6"/><polygon points="6299.91 1367.49 6316.89 1375.11 6299.91 1382.73 6292.29 1399.71 6284.67 1382.73 6267.7 1375.11 6284.67 1367.49 6292.29 1350.51 6299.91 1367.49" style="fill:#e6e6e6"/><polygon points="6006.91 1199.49 6023.89 1207.11 6006.91 1214.73 5999.29 1231.71 5991.67 1214.73 5974.7 1207.11 5991.67 1199.49 5999.29 1182.51 6006.91 1199.49" style="fill:#e6e6e6"/><polygon points="5841.91 1220.49 5858.89 1228.11 5841.91 1235.73 5834.29 1252.71 5826.67 1235.73 5809.7 1228.11 5826.67 1220.49 5834.29 1203.51 5841.91 1220.49" style="fill:#e6e6e6"/><polygon points="4515.91 1841.49 4532.89 1849.11 4515.91 1856.73 4508.29 1873.71 4500.67 1856.73 4483.7 1849.11 4500.67 1841.49 4508.29 1824.51 4515.91 1841.49" style="fill:#e6e6e6"/><polygon points="4056.91 1557.49 4073.89 1565.11 4056.91 1572.73 4049.29 1589.71 4041.67 1572.73 4024.7 1565.11 4041.67 1557.49 4049.29 1540.51 4056.91 1557.49" style="fill:#e6e6e6"/><polygon points="4296.91 2186.49 4313.89 2194.11 4296.91 2201.73 4289.29 2218.71 4281.67 2201.73 4264.7 2194.11 4281.67 2186.49 4289.29 2169.51 4296.91 2186.49" style="fill:#e6e6e6"/><polygon points="5011.91 1361.49 5028.89 1369.11 5011.91 1376.73 5004.29 1393.71 4996.67 1376.73 4979.7 1369.11 4996.67 1361.49 5004.29 1344.51 5011.91 1361.49" style="fill:#e6e6e6"/><polygon points="4552.91 1077.49 4569.89 1085.11 4552.91 1092.73 4545.29 1109.71 4537.67 1092.73 4520.7 1085.11 4537.67 1077.49 4545.29 1060.51 4552.91 1077.49" style="fill:#e6e6e6"/><polygon points="4792.91 1706.49 4809.89 1714.11 4792.91 1721.73 4785.29 1738.71 4777.67 1721.73 4760.7 1714.11 4777.67 1706.49 4785.29 1689.51 4792.91 1706.49" style="fill:#e6e6e6"/><polygon points="4219.91 2738.49 4236.89 2746.11 4219.91 2753.73 4212.29 2770.71 4204.67 2753.73 4187.7 2746.11 4204.67 2738.49 4212.29 2721.51 4219.91 2738.49" style="fill:#e6e6e6"/><polygon points="3706.91 2474.49 3723.89 2482.11 3706.91 2489.73 3699.29 2506.71 3691.67 2489.73 3674.7 2482.11 3691.67 2474.49 3699.29 2457.51 3706.91 2474.49" style="fill:#e6e6e6"/><polygon points="3249.91 3064.49 3266.89 3072.11 3249.91 3079.73 3242.29 3096.71 3234.67 3079.73 3217.7 3072.11 3234.67 3064.49 3242.29 3047.51 3249.91 3064.49" style="fill:#e6e6e6"/><polygon points="2655.91 3666.49 2672.89 3674.11 2655.91 3681.73 2648.29 3698.71 2640.67 3681.73 2623.7 3674.11 2640.67 3666.49 2648.29 3649.51 2655.91 3666.49" style="fill:#e6e6e6"/><polygon points="2296.91 4435.49 2313.89 4443.11 2296.91 4450.73 2289.29 4467.71 2281.67 4450.73 2264.7 4443.11 2281.67 4435.49 2289.29 4418.51 2296.91 4435.49" style="fill:#e6e6e6"/><polygon points="2570.91 4875.49 2587.89 4883.11 2570.91 4890.73 2563.29 4907.71 2555.67 4890.73 2538.7 4883.11 2555.67 4875.49 2563.29 4858.51 2570.91 4875.49" style="fill:#e6e6e6"/><polygon points="1777.91 4781.49 1794.89 4789.11 1777.91 4796.73 1770.29 4813.71 1762.67 4796.73 1745.7 4789.11 1762.67 4781.49 1770.29 4764.51 1777.91 4781.49" style="fill:#e6e6e6"/><polygon points="890.91 2667.49 907.89 2675.11 890.91 2682.73 883.29 2699.71 875.67 2682.73 858.7 2675.11 875.67 2667.49 883.29 2650.51 890.91 2667.49" style="fill:#e6e6e6"/><polygon points="226.91 2236.49 243.89 2244.11 226.91 2251.73 219.29 2268.71 211.67 2251.73 194.7 2244.11 211.67 2236.49 219.29 2219.51 226.91 2236.49" style="fill:#e6e6e6"/><polygon points="559.91 1909.49 576.89 1917.11 559.91 1924.73 552.29 1941.71 544.67 1924.73 527.7 1917.11 544.67 1909.49 552.29 1892.51 559.91 1909.49" style="fill:#e6e6e6"/><polygon points="201.91 1077.49 218.89 1085.11 201.91 1092.73 194.29 1109.71 186.67 1092.73 169.7 1085.11 186.67 1077.49 194.29 1060.51 201.91 1077.49" style="fill:#e6e6e6"/><polygon points="732.91 1386.49 749.89 1394.11 732.91 1401.73 725.29 1418.71 717.67 1401.73 700.7 1394.11 717.67 1386.49 725.29 1369.51 732.91 1386.49" style="fill:#e6e6e6"/><polygon points="1529.91 4115.49 1546.89 4123.11 1529.91 4130.73 1522.29 4147.71 1514.67 4130.73 1497.7 4123.11 1514.67 4115.49 1522.29 4098.51 1529.91 4115.49" style="fill:#e6e6e6"/><polygon points="1287.91 3432.49 1304.89 3440.11 1287.91 3447.73 1280.29 3464.71 1272.67 3447.73 1255.7 3440.11 1272.67 3432.49 1280.29 3415.51 1287.91 3432.49" style="fill:#e6e6e6"/><polygon points="1055.91 4561.49 1072.89 4569.11 1055.91 4576.73 1048.29 4593.71 1040.67 4576.73 1023.7 4569.11 1040.67 4561.49 1048.29 4544.51 1055.91 4561.49" style="fill:#e6e6e6"/><polygon points="371.91 4435.49 388.89 4443.11 371.91 4450.73 364.29 4467.71 356.67 4450.73 339.7 4443.11 356.67 4435.49 364.29 4418.51 371.91 4435.49" style="fill:#e6e6e6"/><polygon points="484.91 3729.49 501.89 3737.11 484.91 3744.73 477.29 3761.71 469.67 3744.73 452.7 3737.11 469.67 3729.49 477.29 3712.51 484.91 3729.49" style="fill:#e6e6e6"/><polygon points="1983.91 3636.49 2000.89 3644.11 1983.91 3651.73 1976.29 3668.71 1968.67 3651.73 1951.7 3644.11 1968.67 3636.49 1976.29 3619.51 1983.91 3636.49" style="fill:#e6e6e6"/><polygon points="2455.91 2882.49 2472.89 2890.11 2455.91 2897.73 2448.29 2914.71 2440.67 2897.73 2423.7 2890.11 2440.67 2882.49 2448.29 2865.51 2455.91 2882.49" style="fill:#e6e6e6"/><polygon points="1578.91 2523.49 1595.89 2531.11 1578.91 2538.73 1571.29 2555.71 1563.67 2538.73 1546.7 2531.11 1563.67 2523.49 1571.29 2506.51 1578.91 2523.49" style="fill:#e6e6e6"/><polygon points="2573.91 2211.49 2590.89 2219.11 2573.91 2226.73 2566.29 2243.71 2558.67 2226.73 2541.7 2219.11 2558.67 2211.49 2566.29 2194.51 2573.91 2211.49" style="fill:#e6e6e6"/><polygon points="3160.91 1686.49 3177.89 1694.11 3160.91 1701.73 3153.29 1718.71 3145.67 1701.73 3128.7 1694.11 3145.67 1686.49 3153.29 1669.51 3160.91 1686.49" style="fill:#e6e6e6"/><polygon points="3681.91 1269.49 3698.89 1277.11 3681.91 1284.73 3674.29 1301.71 3666.67 1284.73 3649.7 1277.11 3666.67 1269.49 3674.29 1252.51 3681.91 1269.49" style="fill:#e6e6e6"/><polygon points="2869.91 1174.49 2886.89 1182.11 2869.91 1189.73 2862.29 1206.71 2854.67 1189.73 2837.7 1182.11 2854.67 1174.49 2862.29 1157.51 2869.91 1174.49" style="fill:#e6e6e6"/><polygon points="2372.91 1367.49 2389.89 1375.11 2372.91 1382.73 2365.29 1399.71 2357.67 1382.73 2340.7 1375.11 2357.67 1367.49 2365.29 1350.51 2372.91 1367.49" style="fill:#e6e6e6"/><polygon points="1238.91 2086.49 1255.89 2094.11 1238.91 2101.73 1231.29 2118.71 1223.67 2101.73 1206.7 2094.11 1223.67 2086.49 1231.29 2069.51 1238.91 2086.49" style="fill:#e6e6e6"/><polygon points="2082.91 1934.49 2099.89 1942.11 2082.91 1949.73 2075.29 1966.71 2067.67 1949.73 2050.7 1942.11 2067.67 1934.49 2075.29 1917.51 2082.91 1934.49" style="fill:#e6e6e6"/><polygon points="6464.91 6268.49 6481.89 6276.11 6464.91 6283.73 6457.29 6300.71 6449.67 6283.73 6432.7 6276.11 6449.67 6268.49 6457.29 6251.51 6464.91 6268.49" style="fill:#e6e6e6"/><polygon points="5792.91 6238.49 5809.89 6246.11 5792.91 6253.73 5785.29 6270.71 5777.67 6253.73 5760.7 6246.11 5777.67 6238.49 5785.29 6221.51 5792.91 6238.49" style="fill:#e6e6e6"/><polygon points="5576.91 5676.49 5593.89 5684.11 5576.91 5691.73 5569.29 5708.71 5561.67 5691.73 5544.7 5684.11 5561.67 5676.49 5569.29 5659.51 5576.91 5676.49" style="fill:#e6e6e6"/><polygon points="6264.91 5484.49 6281.89 5492.11 6264.91 5499.73 6257.29 5516.71 6249.67 5499.73 6232.7 5492.11 6249.67 5484.49 6257.29 5467.51 6264.91 5484.49" style="fill:#e6e6e6"/><polygon points="6382.91 4813.49 6399.89 4821.11 6382.91 4828.73 6375.29 4845.71 6367.67 4828.73 6350.7 4821.11 6367.67 4813.49 6375.29 4796.51 6382.91 4813.49" style="fill:#e6e6e6"/><polygon points="5891.91 4536.49 5908.89 4544.11 5891.91 4551.73 5884.29 4568.71 5876.67 4551.73 5859.7 4544.11 5876.67 4536.49 5884.29 4519.51 5891.91 4536.49" style="fill:#e6e6e6"/><polygon points="1420.91 1392.49 1437.89 1400.11 1420.91 1407.73 1413.29 1424.71 1405.67 1407.73 1388.7 1400.11 1405.67 1392.49 1413.29 1375.51 1420.91 1392.49" style="fill:#e6e6e6"/><polygon points="3801.91 2024.49 3818.89 2032.11 3801.91 2039.73 3794.29 2056.71 3786.67 2039.73 3769.7 2032.11 3786.67 2024.49 3794.29 2007.51 3801.91 2024.49" style="fill:#e6e6e6"/><polygon points="4985.91 5352.49 5002.89 5360.11 4985.91 5367.73 4978.29 5384.71 4970.67 5367.73 4953.7 5360.11 4970.67 5352.49 4978.29 5335.51 4985.91 5352.49" style="fill:#e6e6e6"/><polygon points="4985.91 5931.49 5002.89 5939.11 4985.91 5946.73 4978.29 5963.71 4970.67 5946.73 4953.7 5939.11 4970.67 5931.49 4978.29 5914.51 4985.91 5931.49" style="fill:#e6e6e6"/><path d="M2201.62,11685l5.33,9.4a1,1,0,0,1-1.41,1.07L2186.6,11685Z" style="fill:#e6e6e6"/><path d="M2214.37,11694.3l5.94-9.3h11.45l-16.86,9.81A.38.38,0,0,1,2214.37,11694.3Z" style="fill:#e6e6e6"/><polygon points="5541.91 10752.17 5558.89 10759.79 5541.91 10767.41 5534.29 10784.39 5526.67 10767.41 5509.7 10759.79 5526.67 10752.17 5534.29 10735.19 5541.91 10752.17" style="fill:#e6e6e6"/><polygon points="4978.91 10522.17 4995.89 10529.79 4978.91 10537.41 4971.29 10554.39 4963.67 10537.41 4946.7 10529.79 4963.67 10522.17 4971.29 10505.19 4978.91 10522.17" style="fill:#e6e6e6"/><polygon points="5541.91 10303.17 5558.89 10310.79 5541.91 10318.41 5534.29 10335.39 5526.67 10318.41 5509.7 10310.79 5526.67 10303.17 5534.29 10286.19 5541.91 10303.17" style="fill:#e6e6e6"/><polygon points="4537.91 10120.17 4554.89 10127.79 4537.91 10135.41 4530.29 10152.39 4522.67 10135.41 4505.7 10127.79 4522.67 10120.17 4530.29 10103.19 4537.91 10120.17" style="fill:#e6e6e6"/><polygon points="4453.91 10469.17 4470.89 10476.79 4453.91 10484.41 4446.29 10501.39 4438.67 10484.41 4421.7 10476.79 4438.67 10469.17 4446.29 10452.19 4453.91 10469.17" style="fill:#e6e6e6"/><polygon points="3663.91 10385.17 3680.89 10392.79 3663.91 10400.41 3656.29 10417.39 3648.67 10400.41 3631.7 10392.79 3648.67 10385.17 3656.29 10368.19 3663.91 10385.17" style="fill:#e6e6e6"/><polygon points="3970.91 9940.17 3987.89 9947.79 3970.91 9955.41 3963.29 9972.39 3955.67 9955.41 3938.7 9947.79 3955.67 9940.17 3963.29 9923.19 3970.91 9940.17" style="fill:#e6e6e6"/><polygon points="4404.91 9611.17 4421.89 9618.79 4404.91 9626.41 4397.29 9643.39 4389.67 9626.41 4372.7 9618.79 4389.67 9611.17 4397.29 9594.19 4404.91 9611.17" style="fill:#e6e6e6"/><polygon points="3335.91 10227.17 3352.89 10234.79 3335.91 10242.41 3328.29 10259.39 3320.67 10242.41 3303.7 10234.79 3320.67 10227.17 3328.29 10210.19 3335.91 10227.17" style="fill:#e6e6e6"/><polygon points="2847.91 10032.17 2864.89 10039.79 2847.91 10047.41 2840.29 10064.39 2832.67 10047.41 2815.7 10039.79 2832.67 10032.17 2840.29 10015.19 2847.91 10032.17" style="fill:#e6e6e6"/><polygon points="1981.91 10120.17 1998.89 10127.79 1981.91 10135.41 1974.29 10152.39 1966.67 10135.41 1949.7 10127.79 1966.67 10120.17 1974.29 10103.19 1981.91 10120.17" style="fill:#e6e6e6"/><polygon points="1513.91 9582.17 1530.89 9589.79 1513.91 9597.41 1506.29 9614.39 1498.67 9597.41 1481.7 9589.79 1498.67 9582.17 1506.29 9565.19 1513.91 9582.17" style="fill:#e6e6e6"/><polygon points="1838.91 9301.17 1855.89 9308.79 1838.91 9316.41 1831.29 9333.39 1823.67 9316.41 1806.7 9308.79 1823.67 9301.17 1831.29 9284.19 1838.91 9301.17" style="fill:#e6e6e6"/><polygon points="595.91 10522.17 612.89 10529.79 595.91 10537.41 588.29 10554.39 580.67 10537.41 563.7 10529.79 580.67 10522.17 588.29 10505.19 595.91 10522.17" style="fill:#e6e6e6"/><polygon points="1166.91 10488.17 1183.89 10495.79 1166.91 10503.41 1159.29 10520.39 1151.67 10503.41 1134.7 10495.79 1151.67 10488.17 1159.29 10471.19 1166.91 10488.17" style="fill:#e6e6e6"/><polygon points="1513.91 10155.17 1530.89 10162.79 1513.91 10170.41 1506.29 10187.39 1498.67 10170.41 1481.7 10162.79 1498.67 10155.17 1506.29 10138.19 1513.91 10155.17" style="fill:#e6e6e6"/><polygon points="927.91 9612.17 944.89 9619.79 927.91 9627.41 920.29 9644.39 912.67 9627.41 895.7 9619.79 912.67 9612.17 920.29 9595.19 927.91 9612.17" style="fill:#e6e6e6"/><polygon points="620.91 9155.17 637.89 9162.79 620.91 9170.41 613.29 9187.39 605.67 9170.41 588.7 9162.79 605.67 9155.17 613.29 9138.19 620.91 9155.17" style="fill:#e6e6e6"/><polygon points="1189.91 9113.17 1206.89 9120.79 1189.91 9128.41 1182.29 9145.39 1174.67 9128.41 1157.7 9120.79 1174.67 9113.17 1182.29 9096.19 1189.91 9113.17" style="fill:#e6e6e6"/><polygon points="2407.91 10627.17 2424.89 10634.79 2407.91 10642.41 2400.29 10659.39 2392.67 10642.41 2375.7 10634.79 2392.67 10627.17 2400.29 10610.19 2407.91 10627.17" style="fill:#e6e6e6"/><polygon points="3232.91 10912.17 3249.89 10919.79 3232.91 10927.41 3225.29 10944.39 3217.67 10927.41 3200.7 10919.79 3217.67 10912.17 3225.29 10895.19 3232.91 10912.17" style="fill:#e6e6e6"/><polygon points="5492.91 11834.17 5509.89 11841.79 5492.91 11849.41 5485.29 11866.39 5477.67 11849.41 5460.7 11841.79 5477.67 11834.17 5485.29 11817.19 5492.91 11834.17" style="fill:#e6e6e6"/><polygon points="4929.91 11604.17 4946.89 11611.79 4929.91 11619.41 4922.29 11636.39 4914.67 11619.41 4897.7 11611.79 4914.67 11604.17 4922.29 11587.19 4929.91 11604.17" style="fill:#e6e6e6"/><polygon points="5492.91 11385.17 5509.89 11392.79 5492.91 11400.41 5485.29 11417.39 5477.67 11400.41 5460.7 11392.79 5477.67 11385.17 5485.29 11368.19 5492.91 11385.17" style="fill:#e6e6e6"/><polygon points="4488.91 11202.17 4505.89 11209.79 4488.91 11217.41 4481.29 11234.39 4473.67 11217.41 4456.7 11209.79 4473.67 11202.17 4481.29 11185.19 4488.91 11202.17" style="fill:#e6e6e6"/><polygon points="4404.91 11551.17 4421.89 11558.79 4404.91 11566.41 4397.29 11583.39 4389.67 11566.41 4372.7 11558.79 4389.67 11551.17 4397.29 11534.19 4404.91 11551.17" style="fill:#e6e6e6"/><polygon points="6156.91 11676.17 6173.89 11683.79 6156.91 11691.41 6149.29 11708.39 6141.67 11691.41 6124.7 11683.79 6141.67 11676.17 6149.29 11659.19 6156.91 11676.17" style="fill:#e6e6e6"/><polygon points="5593.91 11446.17 5610.89 11453.79 5593.91 11461.41 5586.29 11478.39 5578.67 11461.41 5561.7 11453.79 5578.67 11446.17 5586.29 11429.19 5593.91 11446.17" style="fill:#e6e6e6"/><polygon points="6156.91 11227.17 6173.89 11234.79 6156.91 11242.41 6149.29 11259.39 6141.67 11242.41 6124.7 11234.79 6141.67 11227.17 6149.29 11210.19 6156.91 11227.17" style="fill:#e6e6e6"/><polygon points="5152.91 11044.17 5169.89 11051.79 5152.91 11059.41 5145.29 11076.39 5137.67 11059.41 5120.7 11051.79 5137.67 11044.17 5145.29 11027.19 5152.91 11044.17" style="fill:#e6e6e6"/><polygon points="5068.91 11393.17 5085.89 11400.79 5068.91 11408.41 5061.29 11425.39 5053.67 11408.41 5036.7 11400.79 5053.67 11393.17 5061.29 11376.19 5068.91 11393.17" style="fill:#e6e6e6"/><polygon points="3614.91 11467.17 3631.89 11474.79 3614.91 11482.41 3607.29 11499.39 3599.67 11482.41 3582.7 11474.79 3599.67 11467.17 3607.29 11450.19 3614.91 11467.17" style="fill:#e6e6e6"/><polygon points="3286.91 11309.17 3303.89 11316.79 3286.91 11324.41 3279.29 11341.39 3271.67 11324.41 3254.7 11316.79 3271.67 11309.17 3279.29 11292.19 3286.91 11309.17" style="fill:#e6e6e6"/><polygon points="2798.91 11114.17 2815.89 11121.79 2798.91 11129.41 2791.29 11146.39 2783.67 11129.41 2766.7 11121.79 2783.67 11114.17 2791.29 11097.19 2798.91 11114.17" style="fill:#e6e6e6"/><polygon points="1932.91 11202.17 1949.89 11209.79 1932.91 11217.41 1925.29 11234.39 1917.67 11217.41 1900.7 11209.79 1917.67 11202.17 1925.29 11185.19 1932.91 11202.17" style="fill:#e6e6e6"/><polygon points="546.91 11604.17 563.89 11611.79 546.91 11619.41 539.29 11636.39 531.67 11619.41 514.7 11611.79 531.67 11604.17 539.29 11587.19 546.91 11604.17" style="fill:#e6e6e6"/><polygon points="1117.91 11570.17 1134.89 11577.79 1117.91 11585.41 1110.29 11602.39 1102.67 11585.41 1085.7 11577.79 1102.67 11570.17 1110.29 11553.19 1117.91 11570.17" style="fill:#e6e6e6"/><polygon points="1464.91 11237.17 1481.89 11244.79 1464.91 11252.41 1457.29 11269.39 1449.67 11252.41 1432.7 11244.79 1449.67 11237.17 1457.29 11220.19 1464.91 11237.17" style="fill:#e6e6e6"/><polygon points="2358.91 11709.17 2375.89 11716.79 2358.91 11724.41 2351.29 11741.39 2343.67 11724.41 2326.7 11716.79 2343.67 11709.17 2351.29 11692.19 2358.91 11709.17" style="fill:#e6e6e6"/><polygon points="3183.91 11994.17 3200.89 12001.79 3183.91 12009.41 3176.29 12026.39 3168.67 12009.41 3151.7 12001.79 3168.67 11994.17 3176.29 11977.19 3183.91 11994.17" style="fill:#e6e6e6"/><polygon points="2328.91 9647.17 2345.89 9654.79 2328.91 9662.41 2321.29 9679.39 2313.67 9662.41 2296.7 9654.79 2313.67 9647.17 2321.29 9630.19 2328.91 9647.17" style="fill:#e6e6e6"/><polygon points="2830.91 9348.17 2847.89 9355.79 2830.91 9363.41 2823.29 9380.39 2815.67 9363.41 2798.7 9355.79 2815.67 9348.17 2823.29 9331.19 2830.91 9348.17" style="fill:#e6e6e6"/><polygon points="3335.91 9373.17 3352.89 9380.79 3335.91 9388.41 3328.29 9405.39 3320.67 9388.41 3303.7 9380.79 3320.67 9373.17 3328.29 9356.19 3335.91 9373.17" style="fill:#e6e6e6"/><polygon points="4283.91 8984.17 4300.89 8991.79 4283.91 8999.41 4276.29 9016.39 4268.67 8999.41 4251.7 8991.79 4268.67 8984.17 4276.29 8967.19 4283.91 8984.17" style="fill:#e6e6e6"/><polygon points="3663.91 8907.17 3680.89 8914.79 3663.91 8922.41 3656.29 8939.39 3648.67 8922.41 3631.7 8914.79 3648.67 8907.17 3656.29 8890.19 3663.91 8907.17" style="fill:#e6e6e6"/><polygon points="3995.91 8715.17 4012.89 8722.79 3995.91 8730.41 3988.29 8747.39 3980.67 8730.41 3963.7 8722.79 3980.67 8715.17 3988.29 8698.19 3995.91 8715.17" style="fill:#e6e6e6"/><polygon points="3141.91 8515.17 3158.89 8522.79 3141.91 8530.41 3134.29 8547.39 3126.67 8530.41 3109.7 8522.79 3126.67 8515.17 3134.29 8498.19 3141.91 8515.17" style="fill:#e6e6e6"/><polygon points="4917.91 8720.17 4934.89 8727.79 4917.91 8735.41 4910.29 8752.39 4902.67 8735.41 4885.7 8727.79 4902.67 8720.17 4910.29 8703.19 4917.91 8720.17" style="fill:#e6e6e6"/><polygon points="4754.91 9229.17 4771.89 9236.79 4754.91 9244.41 4747.29 9261.39 4739.67 9244.41 4722.7 9236.79 4739.67 9229.17 4747.29 9212.19 4754.91 9229.17" style="fill:#e6e6e6"/><polygon points="5612.91 8749.17 5629.89 8756.79 5612.91 8764.41 5605.29 8781.39 5597.67 8764.41 5580.7 8756.79 5597.67 8749.17 5605.29 8732.19 5612.91 8749.17" style="fill:#e6e6e6"/><polygon points="2382.91 8431.17 2399.89 8438.79 2382.91 8446.41 2375.29 8463.39 2367.67 8446.41 2350.7 8438.79 2367.67 8431.17 2375.29 8414.19 2382.91 8431.17" style="fill:#e6e6e6"/><polygon points="2656.91 8871.17 2673.89 8878.79 2656.91 8886.41 2649.29 8903.39 2641.67 8886.41 2624.7 8878.79 2641.67 8871.17 2649.29 8854.19 2656.91 8871.17" style="fill:#e6e6e6"/><polygon points="1863.91 8777.17 1880.89 8784.79 1863.91 8792.41 1856.29 8809.39 1848.67 8792.41 1831.7 8784.79 1848.67 8777.17 1856.29 8760.19 1863.91 8777.17" style="fill:#e6e6e6"/><polygon points="1141.91 8557.17 1158.89 8564.79 1141.91 8572.41 1134.29 8589.39 1126.67 8572.41 1109.7 8564.79 1126.67 8557.17 1134.29 8540.19 1141.91 8557.17" style="fill:#e6e6e6"/><polygon points="457.91 8431.17 474.89 8438.79 457.91 8446.41 450.29 8463.39 442.67 8446.41 425.7 8438.79 442.67 8431.17 450.29 8414.19 457.91 8431.17" style="fill:#e6e6e6"/><polygon points="6550.91 10264.17 6567.89 10271.79 6550.91 10279.41 6543.29 10296.39 6535.67 10279.41 6518.7 10271.79 6535.67 10264.17 6543.29 10247.19 6550.91 10264.17" style="fill:#e6e6e6"/><polygon points="5878.91 10234.17 5895.89 10241.79 5878.91 10249.41 5871.29 10266.39 5863.67 10249.41 5846.7 10241.79 5863.67 10234.17 5871.29 10217.19 5878.91 10234.17" style="fill:#e6e6e6"/><polygon points="5662.91 9672.17 5679.89 9679.79 5662.91 9687.41 5655.29 9704.39 5647.67 9687.41 5630.7 9679.79 5647.67 9672.17 5655.29 9655.19 5662.91 9672.17" style="fill:#e6e6e6"/><polygon points="6350.91 9480.17 6367.89 9487.79 6350.91 9495.41 6343.29 9512.39 6335.67 9495.41 6318.7 9487.79 6335.67 9480.17 6343.29 9463.19 6350.91 9480.17" style="fill:#e6e6e6"/><polygon points="6468.91 8809.17 6485.89 8816.79 6468.91 8824.41 6461.29 8841.39 6453.67 8824.41 6436.7 8816.79 6453.67 8809.17 6461.29 8792.19 6468.91 8809.17" style="fill:#e6e6e6"/><polygon points="5977.91 8532.17 5994.89 8539.79 5977.91 8547.41 5970.29 8564.39 5962.67 8547.41 5945.7 8539.79 5962.67 8532.17 5970.29 8515.19 5977.91 8532.17" style="fill:#e6e6e6"/><polygon points="5071.91 9348.17 5088.89 9355.79 5071.91 9363.41 5064.29 9380.39 5056.67 9363.41 5039.7 9355.79 5056.67 9348.17 5064.29 9331.19 5071.91 9348.17" style="fill:#e6e6e6"/><polygon points="5071.91 9927.17 5088.89 9934.79 5071.91 9942.41 5064.29 9959.39 5056.67 9942.41 5039.7 9934.79 5056.67 9927.17 5064.29 9910.19 5071.91 9927.17" style="fill:#e6e6e6"/><polygon points="8132.91 6827.49 8149.89 6835.11 8132.91 6842.73 8125.29 6859.71 8117.67 6842.73 8100.7 6835.11 8117.67 6827.49 8125.29 6810.51 8132.91 6827.49" style="fill:#e6e6e6"/><polygon points="7569.91 6597.49 7586.89 6605.11 7569.91 6612.73 7562.29 6629.71 7554.67 6612.73 7537.7 6605.11 7554.67 6597.49 7562.29 6580.51 7569.91 6597.49" style="fill:#e6e6e6"/><polygon points="8132.91 6378.49 8149.89 6386.11 8132.91 6393.73 8125.29 6410.71 8117.67 6393.73 8100.7 6386.11 8117.67 6378.49 8125.29 6361.51 8132.91 6378.49" style="fill:#e6e6e6"/><polygon points="7128.91 6195.49 7145.89 6203.11 7128.91 6210.73 7121.29 6227.71 7113.67 6210.73 7096.7 6203.11 7113.67 6195.49 7121.29 6178.51 7128.91 6195.49" style="fill:#e6e6e6"/><polygon points="7044.91 6544.49 7061.89 6552.11 7044.91 6559.73 7037.29 6576.71 7029.67 6559.73 7012.7 6552.11 7029.67 6544.49 7037.29 6527.51 7044.91 6544.49" style="fill:#e6e6e6"/><polygon points="6995.91 5686.49 7012.89 5694.11 6995.91 5701.73 6988.29 5718.71 6980.67 5701.73 6963.7 5694.11 6980.67 5686.49 6988.29 5669.51 6995.91 5686.49" style="fill:#e6e6e6"/><polygon points="8083.91 7909.49 8100.89 7917.11 8083.91 7924.73 8076.29 7941.71 8068.67 7924.73 8051.7 7917.11 8068.67 7909.49 8076.29 7892.51 8083.91 7909.49" style="fill:#e6e6e6"/><polygon points="7520.91 7679.49 7537.89 7687.11 7520.91 7694.73 7513.29 7711.71 7505.67 7694.73 7488.7 7687.11 7505.67 7679.49 7513.29 7662.51 7520.91 7679.49" style="fill:#e6e6e6"/><polygon points="8083.91 7460.49 8100.89 7468.11 8083.91 7475.73 8076.29 7492.71 8068.67 7475.73 8051.7 7468.11 8068.67 7460.49 8076.29 7443.51 8083.91 7460.49" style="fill:#e6e6e6"/><polygon points="7079.91 7277.49 7096.89 7285.11 7079.91 7292.73 7072.29 7309.71 7064.67 7292.73 7047.7 7285.11 7064.67 7277.49 7072.29 7260.51 7079.91 7277.49" style="fill:#e6e6e6"/><polygon points="6995.91 7626.49 7012.89 7634.11 6995.91 7641.73 6988.29 7658.71 6980.67 7641.73 6963.7 7634.11 6980.67 7626.49 6988.29 7609.51 6995.91 7626.49" style="fill:#e6e6e6"/><polygon points="8747.91 7751.49 8764.89 7759.11 8747.91 7766.73 8740.29 7783.71 8732.67 7766.73 8715.7 7759.11 8732.67 7751.49 8740.29 7734.51 8747.91 7751.49" style="fill:#e6e6e6"/><polygon points="8184.91 7521.49 8201.89 7529.11 8184.91 7536.73 8177.29 7553.71 8169.67 7536.73 8152.7 7529.11 8169.67 7521.49 8177.29 7504.51 8184.91 7521.49" style="fill:#e6e6e6"/><polygon points="8747.91 7302.49 8764.89 7310.11 8747.91 7317.73 8740.29 7334.71 8732.67 7317.73 8715.7 7310.11 8732.67 7302.49 8740.29 7285.51 8747.91 7302.49" style="fill:#e6e6e6"/><polygon points="7743.91 7119.49 7760.89 7127.11 7743.91 7134.73 7736.29 7151.71 7728.67 7134.73 7711.7 7127.11 7728.67 7119.49 7736.29 7102.51 7743.91 7119.49" style="fill:#e6e6e6"/><polygon points="7659.91 7468.49 7676.89 7476.11 7659.91 7483.73 7652.29 7500.71 7644.67 7483.73 7627.7 7476.11 7644.67 7468.49 7652.29 7451.51 7659.91 7468.49" style="fill:#e6e6e6"/><polygon points="7187.91 4211.49 7204.89 4219.11 7187.91 4226.73 7180.29 4243.71 7172.67 4226.73 7155.7 4219.11 7172.67 4211.49 7180.29 4194.51 7187.91 4211.49" style="fill:#e6e6e6"/><polygon points="7508.91 4795.49 7525.89 4803.11 7508.91 4810.73 7501.29 4827.71 7493.67 4810.73 7476.7 4803.11 7493.67 4795.49 7501.29 4778.51 7508.91 4795.49" style="fill:#e6e6e6"/><polygon points="7345.91 5304.49 7362.89 5312.11 7345.91 5319.73 7338.29 5336.71 7330.67 5319.73 7313.7 5312.11 7330.67 5304.49 7338.29 5287.51 7345.91 5304.49" style="fill:#e6e6e6"/><polygon points="8203.91 4824.49 8220.89 4832.11 8203.91 4839.73 8196.29 4856.71 8188.67 4839.73 8171.7 4832.11 8188.67 4824.49 8196.29 4807.51 8203.91 4824.49" style="fill:#e6e6e6"/><polygon points="7818.91 4276.49 7835.89 4284.11 7818.91 4291.73 7811.29 4308.71 7803.67 4291.73 7786.7 4284.11 7803.67 4276.49 7811.29 4259.51 7818.91 4276.49" style="fill:#e6e6e6"/><polygon points="8375.91 4028.49 8392.89 4036.11 8375.91 4043.73 8368.29 4060.71 8360.67 4043.73 8343.7 4036.11 8360.67 4028.49 8368.29 4011.51 8375.91 4028.49" style="fill:#e6e6e6"/><polygon points="7716.91 3775.49 7733.89 3783.11 7716.91 3790.73 7709.29 3807.71 7701.67 3790.73 7684.7 3783.11 7701.67 3775.49 7709.29 3758.51 7716.91 3775.49" style="fill:#e6e6e6"/><polygon points="7187.91 3682.49 7204.89 3690.11 7187.91 3697.73 7180.29 3714.71 7172.67 3697.73 7155.7 3690.11 7172.67 3682.49 7180.29 3665.51 7187.91 3682.49" style="fill:#e6e6e6"/><polygon points="7483.91 3274.49 7500.89 3282.11 7483.91 3289.73 7476.29 3306.71 7468.67 3289.73 7451.7 3282.11 7468.67 3274.49 7476.29 3257.51 7483.91 3274.49" style="fill:#e6e6e6"/><polygon points="8154.91 3590.49 8171.89 3598.11 8154.91 3605.73 8147.29 3622.71 8139.67 3605.73 8122.7 3598.11 8139.67 3590.49 8147.29 3573.51 8154.91 3590.49" style="fill:#e6e6e6"/><polygon points="8420.91 3081.49 8437.89 3089.11 8420.91 3096.73 8413.29 3113.71 8405.67 3096.73 8388.7 3089.11 8405.67 3081.49 8413.29 3064.51 8420.91 3081.49" style="fill:#e6e6e6"/><polygon points="8746.91 3528.49 8763.89 3536.11 8746.91 3543.73 8739.29 3560.71 8731.67 3543.73 8714.7 3536.11 8731.67 3528.49 8739.29 3511.51 8746.91 3528.49" style="fill:#e6e6e6"/><polygon points="9034.91 2859.49 9051.89 2867.11 9034.91 2874.73 9027.29 2891.71 9019.67 2874.73 9002.7 2867.11 9019.67 2859.49 9027.29 2842.51 9034.91 2859.49" style="fill:#e6e6e6"/><polygon points="8543.91 2619.49 8560.89 2627.11 8543.91 2634.73 8536.29 2651.71 8528.67 2634.73 8511.7 2627.11 8528.67 2619.49 8536.29 2602.51 8543.91 2619.49" style="fill:#e6e6e6"/><polygon points="9001.91 2232.49 9018.89 2240.11 9001.91 2247.73 8994.29 2264.71 8986.67 2247.73 8969.7 2240.11 8986.67 2232.49 8994.29 2215.51 9001.91 2232.49" style="fill:#e6e6e6"/><polygon points="7843.91 2834.49 7860.89 2842.11 7843.91 2849.73 7836.29 2866.71 7828.67 2849.73 7811.7 2842.11 7828.67 2834.49 7836.29 2817.51 7843.91 2834.49" style="fill:#e6e6e6"/><polygon points="7981.91 3293.49 7998.89 3301.11 7981.91 3308.73 7974.29 3325.71 7966.67 3308.73 7949.7 3301.11 7966.67 3293.49 7974.29 3276.51 7981.91 3293.49" style="fill:#e6e6e6"/><polygon points="8870.91 4214.49 8887.89 4222.11 8870.91 4229.73 8863.29 4246.71 8855.67 4229.73 8838.7 4222.11 8855.67 4214.49 8863.29 4197.51 8870.91 4214.49" style="fill:#e6e6e6"/><polygon points="9136.91 3705.49 9153.89 3713.11 9136.91 3720.73 9129.29 3737.71 9121.67 3720.73 9104.7 3713.11 9121.67 3705.49 9129.29 3688.51 9136.91 3705.49" style="fill:#e6e6e6"/><polygon points="8697.91 3917.49 8714.89 3925.11 8697.91 3932.73 8690.29 3949.71 8682.67 3932.73 8665.7 3925.11 8682.67 3917.49 8690.29 3900.51 8697.91 3917.49" style="fill:#e6e6e6"/><polygon points="8350.91 2325.49 8367.89 2333.11 8350.91 2340.73 8343.29 2357.71 8335.67 2340.73 8318.7 2333.11 8335.67 2325.49 8343.29 2308.51 8350.91 2325.49" style="fill:#e6e6e6"/><polygon points="8228.91 1732.49 8245.89 1740.11 8228.91 1747.73 8221.29 1764.71 8213.67 1747.73 8196.7 1740.11 8213.67 1732.49 8221.29 1715.51 8228.91 1732.49" style="fill:#e6e6e6"/><polygon points="8057.91 2157.49 8074.89 2165.11 8057.91 2172.73 8050.29 2189.71 8042.67 2172.73 8025.7 2165.11 8042.67 2157.49 8050.29 2140.51 8057.91 2157.49" style="fill:#e6e6e6"/><polygon points="7892.91 2178.49 7909.89 2186.11 7892.91 2193.73 7885.29 2210.71 7877.67 2193.73 7860.7 2186.11 7877.67 2178.49 7885.29 2161.51 7892.91 2178.49" style="fill:#e6e6e6"/><polygon points="8976.91 1438.49 8993.89 1446.11 8976.91 1453.73 8969.29 1470.71 8961.67 1453.73 8944.7 1446.11 8961.67 1438.49 8969.29 1421.51 8976.91 1438.49" style="fill:#e6e6e6"/><polygon points="9526.91 1841.49 9543.89 1849.11 9526.91 1856.73 9519.29 1873.71 9511.67 1856.73 9494.7 1849.11 9511.67 1841.49 9519.29 1824.51 9526.91 1841.49" style="fill:#e6e6e6"/><polygon points="9351.91 1270.49 9368.89 1278.11 9351.91 1285.73 9344.29 1302.71 9336.67 1285.73 9319.7 1278.11 9336.67 1270.49 9344.29 1253.51 9351.91 1270.49" style="fill:#e6e6e6"/><polygon points="9683.91 1052.49 9700.89 1060.11 9683.91 1067.73 9676.29 1084.71 9668.67 1067.73 9651.7 1060.11 9668.67 1052.49 9676.29 1035.51 9683.91 1052.49" style="fill:#e6e6e6"/><polygon points="8683.91 1270.49 8700.89 1278.11 8683.91 1285.73 8676.29 1302.71 8668.67 1285.73 8651.7 1278.11 8668.67 1270.49 8676.29 1253.51 8683.91 1270.49" style="fill:#e6e6e6"/><polygon points="8518.91 1291.49 8535.89 1299.11 8518.91 1306.73 8511.29 1323.71 8503.67 1306.73 8486.7 1299.11 8503.67 1291.49 8511.29 1274.51 8518.91 1291.49" style="fill:#e6e6e6"/><polygon points="7192.91 1912.49 7209.89 1920.11 7192.91 1927.73 7185.29 1944.71 7177.67 1927.73 7160.7 1920.11 7177.67 1912.49 7185.29 1895.51 7192.91 1912.49" style="fill:#e6e6e6"/><polygon points="6973.91 2257.49 6990.89 2265.11 6973.91 2272.73 6966.29 2289.71 6958.67 2272.73 6941.7 2265.11 6958.67 2257.49 6966.29 2240.51 6973.91 2257.49" style="fill:#e6e6e6"/><polygon points="7688.91 1432.49 7705.89 1440.11 7688.91 1447.73 7681.29 1464.71 7673.67 1447.73 7656.7 1440.11 7673.67 1432.49 7681.29 1415.51 7688.91 1432.49" style="fill:#e6e6e6"/><polygon points="7229.91 1148.49 7246.89 1156.11 7229.91 1163.73 7222.29 1180.71 7214.67 1163.73 7197.7 1156.11 7214.67 1148.49 7222.29 1131.51 7229.91 1148.49" style="fill:#e6e6e6"/><polygon points="7469.91 1777.49 7486.89 1785.11 7469.91 1792.73 7462.29 1809.71 7454.67 1792.73 7437.7 1785.11 7454.67 1777.49 7462.29 1760.51 7469.91 1777.49" style="fill:#e6e6e6"/><polygon points="6896.91 2809.49 6913.89 2817.11 6896.91 2824.73 6889.29 2841.71 6881.67 2824.73 6864.7 2817.11 6881.67 2809.49 6889.29 2792.51 6896.91 2809.49" style="fill:#e6e6e6"/><polygon points="9141.91 6339.49 9158.89 6347.11 9141.91 6354.73 9134.29 6371.71 9126.67 6354.73 9109.7 6347.11 9126.67 6339.49 9134.29 6322.51 9141.91 6339.49" style="fill:#e6e6e6"/><polygon points="8469.91 6309.49 8486.89 6317.11 8469.91 6324.73 8462.29 6341.71 8454.67 6324.73 8437.7 6317.11 8454.67 6309.49 8462.29 6292.51 8469.91 6309.49" style="fill:#e6e6e6"/><polygon points="8253.91 5747.49 8270.89 5755.11 8253.91 5762.73 8246.29 5779.71 8238.67 5762.73 8221.7 5755.11 8238.67 5747.49 8246.29 5730.51 8253.91 5747.49" style="fill:#e6e6e6"/><polygon points="8941.91 5555.49 8958.89 5563.11 8941.91 5570.73 8934.29 5587.71 8926.67 5570.73 8909.7 5563.11 8926.67 5555.49 8934.29 5538.51 8941.91 5555.49" style="fill:#e6e6e6"/><polygon points="9059.91 4884.49 9076.89 4892.11 9059.91 4899.73 9052.29 4916.71 9044.67 4899.73 9027.7 4892.11 9044.67 4884.49 9052.29 4867.51 9059.91 4884.49" style="fill:#e6e6e6"/><polygon points="8568.91 4607.49 8585.89 4615.11 8568.91 4622.73 8561.29 4639.71 8553.67 4622.73 8536.7 4615.11 8553.67 4607.49 8561.29 4590.51 8568.91 4607.49" style="fill:#e6e6e6"/><polygon points="7662.91 5423.49 7679.89 5431.11 7662.91 5438.73 7655.29 5455.71 7647.67 5438.73 7630.7 5431.11 7647.67 5423.49 7655.29 5406.51 7662.91 5423.49" style="fill:#e6e6e6"/><polygon points="7662.91 6002.49 7679.89 6010.11 7662.91 6017.73 7655.29 6034.71 7647.67 6017.73 7630.7 6010.11 7647.67 6002.49 7655.29 5985.51 7662.91 6002.49" style="fill:#e6e6e6"/><polygon points="8218.91 10823.17 8235.89 10830.79 8218.91 10838.41 8211.29 10855.39 8203.67 10838.41 8186.7 10830.79 8203.67 10823.17 8211.29 10806.19 8218.91 10823.17" style="fill:#e6e6e6"/><polygon points="7655.91 10593.17 7672.89 10600.79 7655.91 10608.41 7648.29 10625.39 7640.67 10608.41 7623.7 10600.79 7640.67 10593.17 7648.29 10576.19 7655.91 10593.17" style="fill:#e6e6e6"/><polygon points="8218.91 10374.17 8235.89 10381.79 8218.91 10389.41 8211.29 10406.39 8203.67 10389.41 8186.7 10381.79 8203.67 10374.17 8211.29 10357.19 8218.91 10374.17" style="fill:#e6e6e6"/><polygon points="7214.91 10191.17 7231.89 10198.79 7214.91 10206.41 7207.29 10223.39 7199.67 10206.41 7182.7 10198.79 7199.67 10191.17 7207.29 10174.19 7214.91 10191.17" style="fill:#e6e6e6"/><polygon points="7130.91 10540.17 7147.89 10547.79 7130.91 10555.41 7123.29 10572.39 7115.67 10555.41 7098.7 10547.79 7115.67 10540.17 7123.29 10523.19 7130.91 10540.17" style="fill:#e6e6e6"/><polygon points="7081.91 9682.17 7098.89 9689.79 7081.91 9697.41 7074.29 9714.39 7066.67 9697.41 7049.7 9689.79 7066.67 9682.17 7074.29 9665.19 7081.91 9682.17" style="fill:#e6e6e6"/><polygon points="8169.91 11905.17 8186.89 11912.79 8169.91 11920.41 8162.29 11937.39 8154.67 11920.41 8137.7 11912.79 8154.67 11905.17 8162.29 11888.19 8169.91 11905.17" style="fill:#e6e6e6"/><polygon points="7606.91 11675.17 7623.89 11682.79 7606.91 11690.41 7599.29 11707.39 7591.67 11690.41 7574.7 11682.79 7591.67 11675.17 7599.29 11658.19 7606.91 11675.17" style="fill:#e6e6e6"/><polygon points="7165.91 11273.17 7182.89 11280.79 7165.91 11288.41 7158.29 11305.39 7150.67 11288.41 7133.7 11280.79 7150.67 11273.17 7158.29 11256.19 7165.91 11273.17" style="fill:#e6e6e6"/><polygon points="7081.91 11622.17 7098.89 11629.79 7081.91 11637.41 7074.29 11654.39 7066.67 11637.41 7049.7 11629.79 7066.67 11622.17 7074.29 11605.19 7081.91 11622.17" style="fill:#e6e6e6"/><polygon points="8833.91 11298.17 8850.89 11305.79 8833.91 11313.41 8826.29 11330.39 8818.67 11313.41 8801.7 11305.79 8818.67 11298.17 8826.29 11281.19 8833.91 11298.17" style="fill:#e6e6e6"/><polygon points="7829.91 11115.17 7846.89 11122.79 7829.91 11130.41 7822.29 11147.39 7814.67 11130.41 7797.7 11122.79 7814.67 11115.17 7822.29 11098.19 7829.91 11115.17" style="fill:#e6e6e6"/><polygon points="7745.91 11464.17 7762.89 11471.79 7745.91 11479.41 7738.29 11496.39 7730.67 11479.41 7713.7 11471.79 7730.67 11464.17 7738.29 11447.19 7745.91 11464.17" style="fill:#e6e6e6"/><polygon points="9332.91 11967.17 9349.89 11974.79 9332.91 11982.41 9325.29 11999.39 9317.67 11982.41 9300.7 11974.79 9317.67 11967.17 9325.29 11950.19 9332.91 11967.17" style="fill:#e6e6e6"/><polygon points="9332.91 11518.17 9349.89 11525.79 9332.91 11533.41 9325.29 11550.39 9317.67 11533.41 9300.7 11525.79 9317.67 11518.17 9325.29 11501.19 9332.91 11518.17" style="fill:#e6e6e6"/><polygon points="8328.91 11335.17 8345.89 11342.79 8328.91 11350.41 8321.29 11367.39 8313.67 11350.41 8296.7 11342.79 8313.67 11335.17 8321.29 11318.19 8328.91 11335.17" style="fill:#e6e6e6"/><polygon points="8244.91 11684.17 8261.89 11691.79 8244.91 11699.41 8237.29 11716.39 8229.67 11699.41 8212.7 11691.79 8229.67 11684.17 8237.29 11667.19 8244.91 11684.17" style="fill:#e6e6e6"/><polygon points="9996.91 11809.17 10013.89 11816.79 9996.91 11824.41 9989.29 11841.39 9981.67 11824.41 9964.7 11816.79 9981.67 11809.17 9989.29 11792.19 9996.91 11809.17" style="fill:#e6e6e6"/><polygon points="9433.91 11579.17 9450.89 11586.79 9433.91 11594.41 9426.29 11611.39 9418.67 11594.41 9401.7 11586.79 9418.67 11579.17 9426.29 11562.19 9433.91 11579.17" style="fill:#e6e6e6"/><polygon points="9996.91 11360.17 10013.89 11367.79 9996.91 11375.41 9989.29 11392.39 9981.67 11375.41 9964.7 11367.79 9981.67 11360.17 9989.29 11343.19 9996.91 11360.17" style="fill:#e6e6e6"/><polygon points="8908.91 11526.17 8925.89 11533.79 8908.91 11541.41 8901.29 11558.39 8893.67 11541.41 8876.7 11533.79 8893.67 11526.17 8901.29 11509.19 8908.91 11526.17" style="fill:#e6e6e6"/><polygon points="6960.91 9055.17 6977.89 9062.79 6960.91 9070.41 6953.29 9087.39 6945.67 9070.41 6928.7 9062.79 6945.67 9055.17 6953.29 9038.19 6960.91 9055.17" style="fill:#e6e6e6"/><polygon points="7594.91 8791.17 7611.89 8798.79 7594.91 8806.41 7587.29 8823.39 7579.67 8806.41 7562.7 8798.79 7579.67 8791.17 7587.29 8774.19 7594.91 8791.17" style="fill:#e6e6e6"/><polygon points="7431.91 9300.17 7448.89 9307.79 7431.91 9315.41 7424.29 9332.39 7416.67 9315.41 7399.7 9307.79 7416.67 9300.17 7424.29 9283.19 7431.91 9300.17" style="fill:#e6e6e6"/><polygon points="8289.91 8820.17 8306.89 8827.79 8289.91 8835.41 8282.29 8852.39 8274.67 8835.41 8257.7 8827.79 8274.67 8820.17 8282.29 8803.19 8289.91 8820.17" style="fill:#e6e6e6"/><polygon points="9227.91 10335.17 9244.89 10342.79 9227.91 10350.41 9220.29 10367.39 9212.67 10350.41 9195.7 10342.79 9212.67 10335.17 9220.29 10318.19 9227.91 10335.17" style="fill:#e6e6e6"/><polygon points="8555.91 10305.17 8572.89 10312.79 8555.91 10320.41 8548.29 10337.39 8540.67 10320.41 8523.7 10312.79 8540.67 10305.17 8548.29 10288.19 8555.91 10305.17" style="fill:#e6e6e6"/><polygon points="8339.91 9743.17 8356.89 9750.79 8339.91 9758.41 8332.29 9775.39 8324.67 9758.41 8307.7 9750.79 8324.67 9743.17 8332.29 9726.19 8339.91 9743.17" style="fill:#e6e6e6"/><polygon points="9027.91 9551.17 9044.89 9558.79 9027.91 9566.41 9020.29 9583.39 9012.67 9566.41 8995.7 9558.79 9012.67 9551.17 9020.29 9534.19 9027.91 9551.17" style="fill:#e6e6e6"/><polygon points="9145.91 8880.17 9162.89 8887.79 9145.91 8895.41 9138.29 8912.39 9130.67 8895.41 9113.7 8887.79 9130.67 8880.17 9138.29 8863.19 9145.91 8880.17" style="fill:#e6e6e6"/><polygon points="9828.91 10992.17 9845.89 10999.79 9828.91 11007.41 9821.29 11024.39 9813.67 11007.41 9796.7 10999.79 9813.67 10992.17 9821.29 10975.19 9828.91 10992.17" style="fill:#e6e6e6"/><polygon points="9628.91 10208.17 9645.89 10215.79 9628.91 10223.41 9621.29 10240.39 9613.67 10223.41 9596.7 10215.79 9613.67 10208.17 9621.29 10191.19 9628.91 10208.17" style="fill:#e6e6e6"/><polygon points="9746.91 9537.17 9763.89 9544.79 9746.91 9552.41 9739.29 9569.39 9731.67 9552.41 9714.7 9544.79 9731.67 9537.17 9739.29 9520.19 9746.91 9537.17" style="fill:#e6e6e6"/><polygon points="9658.91 8701.17 9675.89 8708.79 9658.91 8716.41 9651.29 8733.39 9643.67 8716.41 9626.7 8708.79 9643.67 8701.17 9651.29 8684.19 9658.91 8701.17" style="fill:#e6e6e6"/><polygon points="9458.91 7917.17 9475.89 7924.79 9458.91 7932.41 9451.29 7949.39 9443.67 7932.41 9426.7 7924.79 9443.67 7917.17 9451.29 7900.19 9458.91 7917.17" style="fill:#e6e6e6"/><polygon points="9576.91 7246.17 9593.89 7253.79 9576.91 7261.41 9569.29 7278.39 9561.67 7261.41 9544.7 7253.79 9561.67 7246.17 9569.29 7229.19 9576.91 7246.17" style="fill:#e6e6e6"/><polygon points="9783.91 6705.17 9800.89 6712.79 9783.91 6720.41 9776.29 6737.39 9768.67 6720.41 9751.7 6712.79 9768.67 6705.17 9776.29 6688.19 9783.91 6705.17" style="fill:#e6e6e6"/><polygon points="9583.91 5921.17 9600.89 5928.79 9583.91 5936.41 9576.29 5953.39 9568.67 5936.41 9551.7 5928.79 9568.67 5921.17 9576.29 5904.19 9583.91 5921.17" style="fill:#e6e6e6"/><polygon points="9701.91 5250.17 9718.89 5257.79 9701.91 5265.41 9694.29 5282.39 9686.67 5265.41 9669.7 5257.79 9686.67 5250.17 9694.29 5233.19 9701.91 5250.17" style="fill:#e6e6e6"/><polygon points="9583.91 5091.17 9600.89 5098.79 9583.91 5106.41 9576.29 5123.39 9568.67 5106.41 9551.7 5098.79 9568.67 5091.17 9576.29 5074.19 9583.91 5091.17" style="fill:#e6e6e6"/><polygon points="9383.91 4307.17 9400.89 4314.79 9383.91 4322.41 9376.29 4339.39 9368.67 4322.41 9351.7 4314.79 9368.67 4307.17 9376.29 4290.19 9383.91 4307.17" style="fill:#e6e6e6"/><polygon points="9501.91 3636.17 9518.89 3643.79 9501.91 3651.41 9494.29 3668.39 9486.67 3651.41 9469.7 3643.79 9486.67 3636.17 9494.29 3619.19 9501.91 3636.17" style="fill:#e6e6e6"/><polygon points="10137.91 4709.17 10154.89 4716.79 10137.91 4724.41 10130.29 4741.39 10122.67 4724.41 10105.7 4716.79 10122.67 4709.17 10130.29 4692.19 10137.91 4709.17" style="fill:#e6e6e6"/><polygon points="9937.91 3925.17 9954.89 3932.79 9937.91 3940.41 9930.29 3957.39 9922.67 3940.41 9905.7 3932.79 9922.67 3925.17 9930.29 3908.19 9937.91 3925.17" style="fill:#e6e6e6"/><polygon points="10055.91 3254.17 10072.89 3261.79 10055.91 3269.41 10048.29 3286.39 10040.67 3269.41 10023.7 3261.79 10040.67 3254.17 10048.29 3237.19 10055.91 3254.17" style="fill:#e6e6e6"/><polygon points="9166.91 3339.17 9183.89 3346.79 9166.91 3354.41 9159.29 3371.39 9151.67 3354.41 9134.7 3346.79 9151.67 3339.17 9159.29 3322.19 9166.91 3339.17" style="fill:#e6e6e6"/><polygon points="9376.91 2827.17 9393.89 2834.79 9376.91 2842.41 9369.29 2859.39 9361.67 2842.41 9344.7 2834.79 9361.67 2827.17 9369.29 2810.19 9376.91 2827.17" style="fill:#e6e6e6"/><polygon points="9658.91 2986.17 9675.89 2993.79 9658.91 3001.41 9651.29 3018.39 9643.67 3001.41 9626.7 2993.79 9643.67 2986.17 9651.29 2969.19 9658.91 2986.17" style="fill:#e6e6e6"/><polygon points="9494.91 2156.17 9511.89 2163.79 9494.91 2171.41 9487.29 2188.39 9479.67 2171.41 9462.7 2163.79 9479.67 2156.17 9487.29 2139.19 9494.91 2156.17" style="fill:#e6e6e6"/><polygon points="10062.91 2776.17 10079.89 2783.79 10062.91 2791.41 10055.29 2808.39 10047.67 2791.41 10030.7 2783.79 10047.67 2776.17 10055.29 2759.19 10062.91 2776.17" style="fill:#e6e6e6"/><polygon points="9862.91 1992.17 9879.89 1999.79 9862.91 2007.41 9855.29 2024.39 9847.67 2007.41 9830.7 1999.79 9847.67 1992.17 9855.29 1975.19 9862.91 1992.17" style="fill:#e6e6e6"/><polygon points="9980.91 1321.17 9997.89 1328.79 9980.91 1336.41 9973.29 1353.39 9965.67 1336.41 9948.7 1328.79 9965.67 1321.17 9973.29 1304.19 9980.91 1321.17" style="fill:#e6e6e6"/><polygon points="7127.91 873.49 7144.89 881.11 7127.91 888.73 7120.29 905.71 7112.67 888.73 7095.7 881.11 7112.67 873.49 7120.29 856.51 7127.91 873.49" style="fill:#e6e6e6"/><polygon points="6448.91 763.49 6465.89 771.11 6448.91 778.73 6441.29 795.71 6433.67 778.73 6416.7 771.11 6433.67 763.49 6441.29 746.51 6448.91 763.49" style="fill:#e6e6e6"/><polygon points="6155.91 595.49 6172.89 603.11 6155.91 610.73 6148.29 627.71 6140.67 610.73 6123.7 603.11 6140.67 595.49 6148.29 578.51 6155.91 595.49" style="fill:#e6e6e6"/><polygon points="5990.91 616.49 6007.89 624.11 5990.91 631.73 5983.29 648.71 5975.67 631.73 5958.7 624.11 5975.67 616.49 5983.29 599.51 5990.91 616.49" style="fill:#e6e6e6"/><polygon points="5160.91 757.49 5177.89 765.11 5160.91 772.73 5153.29 789.71 5145.67 772.73 5128.7 765.11 5145.67 757.49 5153.29 740.51 5160.91 757.49" style="fill:#e6e6e6"/><polygon points="4701.91 473.49 4718.89 481.11 4701.91 488.73 4694.29 505.71 4686.67 488.73 4669.7 481.11 4686.67 473.49 4694.29 456.51 4701.91 473.49" style="fill:#e6e6e6"/><polygon points="350.91 473.49 367.89 481.11 350.91 488.73 343.29 505.71 335.67 488.73 318.7 481.11 335.67 473.49 343.29 456.51 350.91 473.49" style="fill:#e6e6e6"/><polygon points="881.91 782.49 898.89 790.11 881.91 797.73 874.29 814.71 866.67 797.73 849.7 790.11 866.67 782.49 874.29 765.51 881.91 782.49" style="fill:#e6e6e6"/><polygon points="3830.91 665.49 3847.89 673.11 3830.91 680.73 3823.29 697.71 3815.67 680.73 3798.7 673.11 3815.67 665.49 3823.29 648.51 3830.91 665.49" style="fill:#e6e6e6"/><polygon points="3018.91 570.49 3035.89 578.11 3018.91 585.73 3011.29 602.71 3003.67 585.73 2986.7 578.11 3003.67 570.49 3011.29 553.51 3018.91 570.49" style="fill:#e6e6e6"/><polygon points="2521.91 763.49 2538.89 771.11 2521.91 778.73 2514.29 795.71 2506.67 778.73 2489.7 771.11 2506.67 763.49 2514.29 746.51 2521.91 763.49" style="fill:#e6e6e6"/><polygon points="1569.91 788.49 1586.89 796.11 1569.91 803.73 1562.29 820.71 1554.67 803.73 1537.7 796.11 1554.67 788.49 1562.29 771.51 1569.91 788.49" style="fill:#e6e6e6"/><polygon points="9125.91 834.49 9142.89 842.11 9125.91 849.73 9118.29 866.71 9110.67 849.73 9093.7 842.11 9110.67 834.49 9118.29 817.51 9125.91 834.49" style="fill:#e6e6e6"/><polygon points="9500.91 666.49 9517.89 674.11 9500.91 681.73 9493.29 698.71 9485.67 681.73 9468.7 674.11 9485.67 666.49 9493.29 649.51 9500.91 666.49" style="fill:#e6e6e6"/><polygon points="9832.91 448.49 9849.89 456.11 9832.91 463.73 9825.29 480.71 9817.67 463.73 9800.7 456.11 9817.67 448.49 9825.29 431.51 9832.91 448.49" style="fill:#e6e6e6"/><polygon points="8832.91 666.49 8849.89 674.11 8832.91 681.73 8825.29 698.71 8817.67 681.73 8800.7 674.11 8817.67 666.49 8825.29 649.51 8832.91 666.49" style="fill:#e6e6e6"/><polygon points="8667.91 687.49 8684.89 695.11 8667.91 702.73 8660.29 719.71 8652.67 702.73 8635.7 695.11 8652.67 687.49 8660.29 670.51 8667.91 687.49" style="fill:#e6e6e6"/><polygon points="7837.91 828.49 7854.89 836.11 7837.91 843.73 7830.29 860.71 7822.67 843.73 7805.7 836.11 7822.67 828.49 7830.29 811.51 7837.91 828.49" style="fill:#e6e6e6"/><polygon points="7378.91 544.49 7395.89 552.11 7378.91 559.73 7371.29 576.71 7363.67 559.73 7346.7 552.11 7363.67 544.49 7371.29 527.51 7378.91 544.49" style="fill:#e6e6e6"/><polygon points="10129.91 717.17 10146.89 724.79 10129.91 732.41 10122.29 749.39 10114.67 732.41 10097.7 724.79 10114.67 717.17 10122.29 700.19 10129.91 717.17" style="fill:#e6e6e6"/><polygon points="8654.91 8603.17 8671.89 8610.79 8654.91 8618.41 8647.29 8635.39 8639.67 8618.41 8622.7 8610.79 8639.67 8603.17 8647.29 8586.19 8654.91 8603.17" style="fill:#e6e6e6"/><polygon points="7748.91 9419.17 7765.89 9426.79 7748.91 9434.41 7741.29 9451.39 7733.67 9434.41 7716.7 9426.79 7733.67 9419.17 7741.29 9402.19 7748.91 9419.17" style="fill:#e6e6e6"/><polygon points="7748.91 9998.17 7765.89 10005.79 7748.91 10013.41 7741.29 10030.39 7733.67 10013.41 7716.7 10005.79 7733.67 9998.17 7741.29 9981.19 7748.91 9998.17" style="fill:#e6e6e6"/></svg>