<svg height="458" viewBox="0 0 179 458" width="179" xmlns="http://www.w3.org/2000/svg"><g fill="none" stroke-miterlimit="10"><path d="m25.09 58.32 131.28-52.99" stroke="#fff" stroke-width="1.8"/><path d="m32.28 78.75 125.4-29.9" stroke="#fff" stroke-width="1.8"/><path d="m32.28 99.98 128.01-6.73" stroke="#fff" stroke-width="1.8"/><path d="m32.28 121.97 128.01 15.1" stroke="#fff" stroke-width="1.8"/><path d="m32.28 142.4 128.01 38.78" stroke="#fff" stroke-width="1.8"/><path d="m32.28 163.71 128.01 61.28" stroke="#fff" stroke-width="1.8"/><g stroke-width=".75"><path d="m33.37 164.77-2.19-109.34" stroke="#e6e6e6"/><path d="m41.43 168.09-2.28-113.91" stroke="#fff"/><path d="m50.63 173.14-2.49-124.12" stroke="#fff"/><path d="m60.86 177.8-5.02-131.89" stroke="#fff"/><path d="m68.85 180.82-4.35-138.41" stroke="#fff"/><path d="m77.11 185.27-2.94-146.76" stroke="#fff"/><path d="m86.58 189.26-3.09-154.51" stroke="#fff"/><path d="m94.98 194.35-3.26-162.53" stroke="#fff"/><path d="m104.19 197.24-3.4-169.48" stroke="#fff"/><path d="m113.3 201.24-2.98-177.37" stroke="#fff"/><path d="m120.92 205.64-3.1-184.75" stroke="#fff"/><path d="m130.13 210.09-3.25-192.86" stroke="#fff"/><path d="m138.28 212.98-3.98-198.74" stroke="#fff"/><path d="m147.63 218.42-4.16-207.88" stroke="#fff"/></g></g><g fill="#5b5b5b"><path d="m21.77 347.81-3.97-293.63h10.32l2.78 295.82z"/><path d="m151.58 0h11.32l6.1 441.4h-11.32z"/></g></svg>