<svg height="242" viewBox="0 0 156 242" width="156" xmlns="http://www.w3.org/2000/svg"><path d="m73 206.58s7.51-149.14 42.57-134.2c0 0 7.43 2.16 0 17.41s-29.41 43.06-42.57 116.79z" fill="#5f9f4e"/><path d="m68.67 206.58s-7.51-109.68-42.58-98.73c0 0-7.43 1.59 0 12.78s29.48 31.71 42.58 85.95z" fill="#5f9f4e"/><g fill="#70bc5d"><path d="m82.4 219.44s7.51-109.68 42.6-98.73c0 0 7.43 1.59 0 12.78-7.45 11.34-29.49 31.79-42.6 85.95z"/><path d="m68.51 209.93s20.13-173.74-23.25-163.27c0 0-9 1-3.35 20.13s25.72 55.43 26.6 143.14z"/><path d="m75.78 209.93s-15.1-203.13 28.03-192.11c0 0 9 1 2.8 23.49s-27.32 65.82-30.83 168.62z"/></g><path d="m97.58 192.76s-38.34 3.67-32.75 27.24c3.12 13.18 21.09 15.49 32.11 16.29 8.23.56 16.78 1.84 24.84.08 14.3-3.11 21.49-16.45 14.54-29.79-10.54-20.29-38.74-13.82-38.74-13.82z" fill="#999"/><path d="m48.3 187s-48.57 10.47-33.71 36.43c7.35 12.86 25.88 14.54 39.14 13.9 11-.56 41.22-3.12 35.7-20.21-1.27-4.07-4.23-7.51-7.18-10.62-8.79-9.11-19.34-22.61-33.95-19.5z" fill="#b3b3b3"/></svg>