<svg xmlns="http://www.w3.org/2000/svg" width="1025" height="573" viewBox="0 0 1025 573"><title>World_Space</title><g id="Layer_7" data-name="Layer 7"><circle cx="316.5" cy="167.5" r="6" style="fill:#666"/><circle cx="577" cy="182" r="6" style="fill:#666"/><line x1="316.6" y1="132" x2="316.6" y2="161" style="fill:none;stroke:#333;stroke-miterlimit:10;stroke-width:5px"/><circle cx="316.5" cy="167.5" r="7" style="fill:none;stroke:#333;stroke-miterlimit:10;stroke-width:5px"/><line x1="577.4" y1="137" x2="577.4" y2="176" style="fill:none;stroke:#333;stroke-miterlimit:10;stroke-width:5px"/><circle cx="577.5" cy="182.5" r="7" style="fill:none;stroke:#333;stroke-miterlimit:10;stroke-width:5px"/><rect x="409.92" y="-109.47" width="68.59" height="434.75" transform="translate(332.83 551.26) rotate(-89.55)" style="fill:#c1272d"/><line x1="218.46" y1="72.23" x2="647.78" y2="75.6" style="fill:#c1272d"/><path d="M665.74,146.76l.56-70.39a1,1,0,0,0-.22-.5l-.16-.14c0-.06-.11-.09-.16-.15a.76.76,0,0,0-.27-.14,1.23,1.23,0,0,0-.38-.19,3.45,3.45,0,0,0-.6-.22l-.49-.16c-.27-.06-.54-.12-.81-.16s-.27-.06-.44-.08h-.16a7.93,7.93,0,0,0-1-.06c-.16,0-.32,0-.54,0H661L509.62,73.35,353.36,72.13l-129.66-1a5.24,5.24,0,0,0-1.47,0h0l-.27,0a7.79,7.79,0,0,0-1,.17,2.35,2.35,0,0,0-.43.13l-.66.22a2,2,0,0,1-.38.17l-.27.14c-.06.05-.11.11-.17.15s-.16.13-.22.19a.5.5,0,0,0-.16.36s-.06.08-.06.14L218,141.9M665.77,143,288.28,103.35,233.46,74.72l110.08.87Zm54.77,35L233,137.49l55.26-27.76Zm20.72.16,67.4-28,67,29.07Zm140.16,8.19-66-39,66.52-27.65L504,136.41Zm-13.38-.1L358,135.27l.44-56.38ZM347.71,134.4l-53.25-27.79,53.68-26.95Zm166.5,12.51.08-10.53.44-56.13,63.74,28.57ZM498.66,76.8l-67.39,28L364.32,75.75Zm21.21,63,65.21-28,64.77,29Zm-291.64,5.59M655.34,148m-63.65-39.1,64.18-27.56-.44,56.13ZM585.13,106,520.36,77l129.93,1ZM228.76,78.7,282,106.49l-53.67,27Z" style="fill:#7a2727"/><rect x="657.83" y="78.34" width="270.03" height="429.34" style="fill:#c1272d"/><path d="M930.23,82.11v0c0-.11-.08-.17-.11-.27a4.71,4.71,0,0,0-.35-1,3.39,3.39,0,0,0-.27-.43l-.46-.66a1.63,1.63,0,0,1-.35-.38,2.26,2.26,0,0,1-.27-.27,2.2,2.2,0,0,1-.31-.16l-.39-.22a1.63,1.63,0,0,0-.73-.16c-.08,0-.15-.06-.27-.06H795L765.79,9.5A3.68,3.68,0,0,0,762.66,7H690a3.58,3.58,0,0,0-3.12,2.5L656.54,80.92a4.94,4.94,0,0,0-.27.87.65.65,0,0,0-.08.27v0s0,.06,0,.06c-.07.43-.11.92-.15,1.36V521c0,.16,0,.32,0,.54s0,.65.11,1v.16a2.9,2.9,0,0,0,.16.38,6.85,6.85,0,0,0,.31.82,3,3,0,0,0,.31.49,6.23,6.23,0,0,0,.42.6,2.76,2.76,0,0,0,.39.38c.07.05.19.21.27.27l.3.16c.08.06.2.11.27.16a3.09,3.09,0,0,0,1,.22H792.87c.07,0,.15-.05.23-.05s.15.05.23.05H926.61a3.34,3.34,0,0,0,1-.22c.08-.05.19-.1.27-.16s.19-.11.31-.16a.87.87,0,0,0,.27-.27,1.52,1.52,0,0,0,.38-.38,3,3,0,0,0,.43-.6c.11-.17.19-.33.31-.49a6.77,6.77,0,0,0,.3-.82c0-.16.12-.27.16-.43v-.17a4,4,0,0,0,.11-1c0-.16,0-.32,0-.54V83.58A2.65,2.65,0,0,0,930.23,82.11Zm-63.72,66.3,56.59-55V203.45ZM663.33,224.18l57.28,67.22-57.28,67.17Zm0-20.73V93.37l56.59,55Zm69.4-55,56.59-55V203.45Zm64.38,55V93.37l56.59,55Zm-14.24,14.91-56.55,66.3-56.55-66.3ZM671.35,208.08l54.93-53.47,54.94,53.47ZM732,291.4l57.29-67.17V358.57Zm65.08-67.22,57.28,67.17-57.28,67.22Zm-70.79,73.91,56.55,66.3H669.77Zm133.78,0,56.55,66.3H803.55Zm0-13.38-56.55-66.35H916.69Zm-55-76.63,54.93-53.47L915,208.08ZM782.64,374.67l-56.32,64-56.32-64Zm21.14,0H916.42l-56.32,64Zm119.32-16.1L865.81,291.4l57.29-67.17Zm-191,86.7,57.21-65V510.21Zm65-65,57.21,65-57.21,65ZM726.32,142.16,671.39,88.69h109.9Zm-63,238.12,57.21,65-57.21,65Zm63,71.57,56.32,64H670Zm133.78,0,56.32,64H803.78Zm5.79-6.58,57.21-65V510.21ZM915,88.69,860.1,142.16,805.17,88.69Zm-223-71.36h68.55l26,61.14H666.11Z" style="fill:#7a2727"/><rect x="86" y="80" width="137.65" height="434.75" style="fill:#c1272d"/><path d="M80.33,519.2H221.61a3.34,3.34,0,0,0,1-.22c.08-.05.19-.1.27-.16s.19-.11.31-.16a.87.87,0,0,0,.27-.27,1.52,1.52,0,0,0,.38-.38,3,3,0,0,0,.43-.6c.11-.17.19-.33.31-.49a6.77,6.77,0,0,0,.3-.82c0-.16.12-.27.16-.43v-.17a4,4,0,0,0,.11-1c0-.16,0-.32,0-.54V76.58a2.65,2.65,0,0,0,0-1.47v0c0-.11-.08-.17-.11-.27a4.71,4.71,0,0,0-.35-1,3.39,3.39,0,0,0-.27-.43l-.46-.66a1.63,1.63,0,0,1-.35-.38,2.26,2.26,0,0,1-.27-.27,2.2,2.2,0,0,1-.31-.16l-.39-.22a1.63,1.63,0,0,0-.73-.16c-.08,0-.15-.06-.27-.06H83M87.87,519.2m73.64-377.79,56.59-55V196.45Zm-69.4,55V86.37l56.59,55Zm0,20.73,57.28,67.17L92.11,351.57ZM77.87,357.39m77.23-66.3,56.55,66.3H98.55Zm0-13.38L98.55,211.36H211.69Zm-55-76.63,54.93-53.47L210,201.08ZM77.64,367.67m21.14,0H211.42l-56.32,64Zm119.32-16.1L160.81,284.4l57.29-67.17Zm-126,21.71,57.21,65-57.21,65ZM76.29,81.69m1.35,427.12,77.46-64,56.32,64H98.78Zm5.79-6.58,57.21-65V503.21ZM210,81.69,155.1,135.16,100.17,81.69Z" style="fill:#7a2727"/><rect x="12" y="484" width="1003" height="79" rx="12" style="fill:#841825"/><rect x="279.9" y="177.5" width="330.02" height="99.43" transform="translate(12.59 -23.13) rotate(3.02)" style="fill:#c1272d"/><path d="M302.41,198.12a3,3,0,0,1-2.28-.93,2.93,2.93,0,0,1-.76-2.08,3,3,0,0,1,1.73-2.49c.66-.24.91-.26,3.34-.13l6.2.33a13.19,13.19,0,0,1,2.09.16,2.79,2.79,0,0,1,2.36,2.93,3,3,0,0,1-1.12,2.15,3.41,3.41,0,0,1-2.41.54l-1.36-.07-.49,9.27a4.1,4.1,0,0,1-.66,2.35,2.94,2.94,0,0,1-2.61,1.26A3.13,3.13,0,0,1,304,210a3.91,3.91,0,0,1-.4-2.46l.49-9.32Z" style="fill:#7a2727"/><path d="M322.58,208.28a4.17,4.17,0,0,1-.66,2.57,3.07,3.07,0,0,1-5.11-.27,4.16,4.16,0,0,1-.4-2.62l.6-11.22a3.46,3.46,0,0,1,.77-2.48,3.07,3.07,0,0,1,2.49-1.08,3.23,3.23,0,0,1,2.42,1.34c.47.69.56,1.09.48,2.68l-.14,2.63,3.74.19.13-2.54c.08-1.48.22-2,.79-2.7a3,3,0,0,1,2.44-1.08,3.14,3.14,0,0,1,2.39,1.31,3.8,3.8,0,0,1,.54,2.57l-.6,11.28a3.88,3.88,0,0,1-.63,2.4,3,3,0,0,1-5.06,0,3.92,3.92,0,0,1-.45-2.71l.14-2.68-3.74-.2Z" style="fill:#7a2727"/><path d="M337.25,213a3,3,0,0,1-2.88-3.23,4,4,0,0,1,.47-1.6l6.49-12.06a3.08,3.08,0,0,1,2.92-1.69,3.15,3.15,0,0,1,2.78,2l5.2,12.82a3.09,3.09,0,0,1-3,4.38c-1.42-.08-2.22-.79-3-2.74l-5.69-.3C339.69,212.41,338.73,213.11,337.25,213Zm7.32-6.64-.83-2.28-1.07,2.18Z" style="fill:#7a2727"/><path d="M365.49,199.35a3.67,3.67,0,0,1,.68-2.4,3.09,3.09,0,0,1,2.59-1.21A3,3,0,0,1,371,197a3.49,3.49,0,0,1,.6,2.5l-.6,11.39a4,4,0,0,1-.82,2.76,3,3,0,0,1-2.46,1,2.94,2.94,0,0,1-2.36-1.38l-4.53-6.48-.21,3.91a3.4,3.4,0,0,1-.82,2.42,3.11,3.11,0,0,1-4.83-.34,3.76,3.76,0,0,1-.5-2.66l.62-11.78a3.07,3.07,0,0,1,3.38-3.13,2.81,2.81,0,0,1,2.23,1.35l4.57,6.26Z" style="fill:#7a2727"/><path d="M384.26,198a3,3,0,0,1,2.61-1.29,3.14,3.14,0,0,1,2.94,3.23,2.91,2.91,0,0,1-.56,1.6l-3.37,4.38,3.54,5.06a2.51,2.51,0,0,1,.5,1.71,3.13,3.13,0,0,1-3.23,3,2.81,2.81,0,0,1-2.11-1l-4.29-6.08-.17,3.21c-.12,2.15-1.42,3.48-3.26,3.38s-3.06-1.53-2.94-3.68l.63-11.95c.11-2,1.41-3.37,3.25-3.27a3.11,3.11,0,0,1,2.26,1.15,3.17,3.17,0,0,1,.68,2.48l-.15,3Z" style="fill:#7a2727"/><path d="M391.18,211.48a2.78,2.78,0,0,1,2.94-2.64,3.2,3.2,0,0,1,2.13,1c1.29,1.1,1.45,1.22,1.9,1.25a.76.76,0,0,0,.82-.77.87.87,0,0,0-.43-.81,5,5,0,0,0-1.2-.59c-.5-.2-1-.39-1.48-.62-2.66-1.09-3.91-2.92-3.77-5.51.19-3.63,3.12-6,7.16-5.76,3.35.18,5.88,2.11,5.76,4.39a2.4,2.4,0,0,1-2.53,2.42,4,4,0,0,1-2.49-1.2c-.61-.56-.91-.72-1.25-.73a.73.73,0,0,0-.76.68c0,.56.35.83,1.77,1.39a11.85,11.85,0,0,1,3.87,2.16,5.8,5.8,0,0,1,1.64,4.48,6.41,6.41,0,0,1-2,4.35,7,7,0,0,1-5.32,1.59C394,216.36,391,214.14,391.18,211.48Z" style="fill:#7a2727"/><path d="M421.5,213.14c-.1,1.81-.18,2.17-.66,2.88a3,3,0,0,1-2.64,1.28,3,3,0,0,1-2.6-1.73,5.19,5.19,0,0,1-.25-2.78l.57-10.75c.09-1.65.5-2.47,1.51-3.06a3.22,3.22,0,0,1,1.5-.39,13.7,13.7,0,0,1,1.62,0l3.69.19c2,.11,2.4.18,3.07.64a2.71,2.71,0,0,1,1.19,2.41,2.86,2.86,0,0,1-3.45,2.76l-3.1-.16-.06,1.28,1.89.1a3.49,3.49,0,0,1,2,.47,2.12,2.12,0,0,1,.93,1.9c-.07,1.45-1.06,2.21-2.82,2.11l-2.21-.11Z" style="fill:#7a2727"/><path d="M439.17,199.15a9.78,9.78,0,1,1-10.31,9.14A9.78,9.78,0,0,1,439.17,199.15Zm-.68,13.46a3.7,3.7,0,0,0,3.85-3.49,3.66,3.66,0,0,0-7.31-.42A3.71,3.71,0,0,0,438.49,212.61Z" style="fill:#7a2727"/><path d="M464.32,214.73a3.71,3.71,0,0,1,.48,2,3,3,0,0,1-3.23,2.85,2.85,2.85,0,0,1-2.46-1.55l-2.32-4.35-.13,2.54a3,3,0,0,1-3.18,2.94,3.12,3.12,0,0,1-2.34-1.25,4,4,0,0,1-.59-2.66l.6-11.47a3.24,3.24,0,0,1,1.15-2.69,3.61,3.61,0,0,1,2.84-.66l2.57.14a11.33,11.33,0,0,1,3,.43,6.7,6.7,0,0,1,4.55,6.68,6.6,6.6,0,0,1-2.24,4.64Zm-7.24-6.46h.25l.42,0c.92.08,1.41-.23,1.44-.9s-.44-1.06-1.37-1.08c-.14,0-.36,0-.64-.06Z" style="fill:#7a2727"/><path d="M487.62,203.92a3.1,3.1,0,0,1,2.95-1.75,3,3,0,0,1,2.91,3.18,3.24,3.24,0,0,1-.41,1.43l-6.43,12.06a3.18,3.18,0,0,1-3.1,1.91,3.12,3.12,0,0,1-2.8-2.05l-5.08-12.64a3.93,3.93,0,0,1-.35-1.7,3.09,3.09,0,0,1,3.28-2.82,3.18,3.18,0,0,1,2.87,2.36l2.59,7.14Z" style="fill:#7a2727"/><path d="M500.86,218.11a3.39,3.39,0,0,1-.91,2.47,3.2,3.2,0,0,1-2.34.91,3.25,3.25,0,0,1-2.24-1.09,3.37,3.37,0,0,1-.65-2.61l.61-11.53c.08-1.57.25-2.12.93-2.78a3,3,0,0,1,2.32-.89,3.1,3.1,0,0,1,2.23,1.1,3.66,3.66,0,0,1,.66,2.89Z" style="fill:#7a2727"/><path d="M512.8,216.39a3.48,3.48,0,0,1,2.53.83,2.9,2.9,0,0,1,.89,2.23,3,3,0,0,1-1.12,2.18,3.38,3.38,0,0,1-2.58.51l-4.77-.25a5.89,5.89,0,0,1-2.33-.38,2.82,2.82,0,0,1-1.65-2.32,7.42,7.42,0,0,1,0-1.85l.53-10.11a4.73,4.73,0,0,1,.41-2.33,2.71,2.71,0,0,1,1.56-1.45c.71-.25.85-.27,2.67-.17l3.68.19a7.84,7.84,0,0,1,2.34.27,2.74,2.74,0,0,1,2,2.79,3,3,0,0,1-1.13,2.21,3.29,3.29,0,0,1-2.38.54l-3.07-.16-.07,1.29,2.43.12a2.23,2.23,0,0,1,2.37,2.34,2.3,2.3,0,0,1-.9,1.72,2.77,2.77,0,0,1-1.92.37l-2.21-.12-.07,1.4Z" style="fill:#7a2727"/><path d="M528,206.47a3,3,0,0,1,3.11-2.16,3.05,3.05,0,0,1,2.91,2.56l1.47,5,2.32-5.11a3.23,3.23,0,0,1,3.12-2,3,3,0,0,1,2.91,3.2,3.91,3.91,0,0,1-.44,1.43l-5,11.78c-.67,1.58-1.69,2.31-3.09,2.24a3.06,3.06,0,0,1-2.86-2.5l-1.74-6.22-2.36,6a3,3,0,0,1-3.06,2.22,3,3,0,0,1-2.79-2.27L518.36,208a4.18,4.18,0,0,1-.29-1.44,3,3,0,0,1,3.26-2.77c1.42.08,2.44,1,3,2.65l1.73,4.83Z" style="fill:#7a2727"/><path d="M551.25,220.77a3.44,3.44,0,0,1-.92,2.47,3.2,3.2,0,0,1-2.34.91,3.25,3.25,0,0,1-2.24-1.09,3.37,3.37,0,0,1-.65-2.61l.61-11.54c.09-1.56.25-2.11.93-2.77a2.94,2.94,0,0,1,2.32-.89,3.11,3.11,0,0,1,2.24,1.1,3.7,3.7,0,0,1,.65,2.89Z" style="fill:#7a2727"/><path d="M565.12,209.88a3.67,3.67,0,0,1,.68-2.4,3.06,3.06,0,0,1,2.59-1.2,3,3,0,0,1,2.28,1.24,3.46,3.46,0,0,1,.6,2.49l-.6,11.39a4,4,0,0,1-.82,2.76,3,3,0,0,1-4.82-.37l-4.53-6.48-.21,3.91a3.32,3.32,0,0,1-.83,2.42,3.09,3.09,0,0,1-2.43,1,3.15,3.15,0,0,1-2.39-1.33,3.79,3.79,0,0,1-.51-2.66l.63-11.78a3.08,3.08,0,0,1,3.38-3.13,2.82,2.82,0,0,1,2.23,1.35l4.56,6.26Z" style="fill:#7a2727"/><path d="M584.23,219.51c-1.65-.08-2.58-1-2.51-2.37s1.16-2.21,3.11-2.07l2,.13c2.14.17,2.72.37,3.3,1.13a3.86,3.86,0,0,1,.64,2.75l-.11,1.58a6.11,6.11,0,0,1-.31,2,6,6,0,0,1-3.22,2.77,9.55,9.55,0,0,1-4.47.86,9.79,9.79,0,1,1,1-19.55,10.22,10.22,0,0,1,5.14,1.76,3.42,3.42,0,0,1,1.78,3,3.14,3.14,0,0,1-3.29,2.9,2.15,2.15,0,0,1-.8-.18l-1.33-.8a4.88,4.88,0,0,0-1.93-.6,3.66,3.66,0,0,0-.28,7.32,3.64,3.64,0,0,0,2.16-.59Z" style="fill:#7a2727"/><path d="M319.91,221.87a4.37,4.37,0,0,1,4-2.16,4.7,4.7,0,0,1,3,1.36,4.62,4.62,0,0,1,1.21,3l2.13,17.36a7.33,7.33,0,0,1,.08,1.49,4.26,4.26,0,0,1-4.54,4.05,4.22,4.22,0,0,1-4.19-3.59l-.73-5-2,4.63c-1,2.35-2.64,3.51-4.72,3.4s-3.5-1.31-4.29-3.84l-1.51-4.85-.94,4.2c-.58,2.54-2.34,4-4.62,3.89-2.6-.14-4.34-2.24-4.19-5a9.79,9.79,0,0,1,.14-1.07l3.94-16.93c.58-2.53,2.26-4,4.54-3.89a4.82,4.82,0,0,1,4.24,3.19l3.5,9.06Z" style="fill:#7a2727"/><path d="M346.09,242.59a5.59,5.59,0,0,1-.94,3.32,4.37,4.37,0,0,1-3.79,1.88,4.47,4.47,0,0,1-3.57-2.23,5.66,5.66,0,0,1-.58-3.44l.31-5.92-5.46-9.08a4.58,4.58,0,0,1-.74-2.72,4.35,4.35,0,0,1,4.59-4.06,4.8,4.8,0,0,1,3.77,2.29l2.86,4.28,3.47-4.07a4.85,4.85,0,0,1,3.82-1.76,4.43,4.43,0,0,1,4.17,4.59,4.67,4.67,0,0,1-.93,2.52l-6.67,8.6Z" style="fill:#7a2727"/><path d="M376.55,244.56c-.16,3-2,5-4.67,4.84a4.37,4.37,0,0,1-3.57-2.19c-.63-1.12-.68-1.56-.54-4.24l.82-15.61c.1-1.92.43-2.78,1.4-3.69a4.6,4.6,0,0,1,3.67-1.13l3.68.19c4.28.23,6.1.8,8.06,2.47a9.52,9.52,0,0,1-.93,15.24,9.38,9.38,0,0,1-6.3,1.59l-1.48-.07Zm.57-10.77c2.11.24,2.94-.12,3-1.32.05-.88-.73-1.45-2.05-1.52l-.8,0Z" style="fill:#7a2727"/><path d="M405.66,223.58a14,14,0,1,1-14.78,13.11A14,14,0,0,1,405.66,223.58Zm-1,19.29a5.3,5.3,0,0,0,5.52-5,5.25,5.25,0,0,0-10.48-.6A5.31,5.31,0,0,0,404.68,242.87Z" style="fill:#7a2727"/><path d="M441.71,245.91a5.54,5.54,0,0,1,.69,2.88,4.31,4.31,0,0,1-4.63,4.09,4.11,4.11,0,0,1-3.54-2.23l-3.32-6.23-.19,3.64a4.31,4.31,0,0,1-4.56,4.21,4.48,4.48,0,0,1-3.35-1.78,5.8,5.8,0,0,1-.84-3.82l.86-16.44c.1-1.92.56-3,1.65-3.85s1.94-1.06,4.06-.95l3.68.2a16.09,16.09,0,0,1,4.26.62,9.57,9.57,0,0,1,3.32,16.23Zm-10.39-9.26.36,0,.6,0c1.32.11,2-.33,2.08-1.29s-.65-1.52-2-1.55a9.15,9.15,0,0,1-.92-.09Z" style="fill:#7a2727"/><path d="M449.43,234.76a4.3,4.3,0,0,1-3.26-1.34,4.08,4.08,0,0,1,1.39-6.54c.94-.35,1.3-.38,4.78-.19l8.88.47a16.92,16.92,0,0,1,3,.24,4,4,0,0,1,3.39,4.19,4.37,4.37,0,0,1-1.61,3.08,4.81,4.81,0,0,1-3.45.78l-2-.1-.7,13.28A5.84,5.84,0,0,1,459,252a4.19,4.19,0,0,1-3.75,1.81,4.45,4.45,0,0,1-3.54-2,5.53,5.53,0,0,1-.58-3.52l.71-13.37Z" style="fill:#7a2727"/><path d="M477.77,248.77c-.13,2.6-.24,3.12-.94,4.13a4.37,4.37,0,0,1-7.51-.64c-.42-1-.48-1.55-.35-4l.81-15.41c.13-2.36.71-3.53,2.16-4.37a4.57,4.57,0,0,1,2.16-.57c.36,0,1.16,0,2.32,0l5.29.28c2.88.15,3.43.26,4.4.91a3.86,3.86,0,0,1,1.7,3.46,4.58,4.58,0,0,1-1.57,3.17,4.49,4.49,0,0,1-3.37.78l-4.44-.23-.1,1.84,2.72.14a5.1,5.1,0,0,1,2.82.67,3,3,0,0,1,1.34,2.72c-.11,2.08-1.54,3.17-4,3l-3.17-.17Z" style="fill:#7a2727"/><path d="M503.1,228.72a14,14,0,1,1-14.77,13.11A14,14,0,0,1,503.1,228.72Zm-1,19.29a5.3,5.3,0,0,0,5.52-5,5.25,5.25,0,0,0-10.48-.6A5.31,5.31,0,0,0,502.12,248Z" style="fill:#7a2727"/><path d="M532.69,249.42a5,5,0,0,1,3.08,1,4.11,4.11,0,0,1,1.51,3.37,4.44,4.44,0,0,1-1.53,3.09,4.38,4.38,0,0,1-3.29.83l-8.4-.45a4.46,4.46,0,0,1-3.65-1.59c-1-1.26-1.11-1.87-.91-5.55l.79-15c.16-3,2-4.87,4.63-4.73a4.47,4.47,0,0,1,3.35,1.78c.74,1.12.9,1.93.77,4.45l-.67,12.65Z" style="fill:#7a2727"/><path d="M549,253.65a4.86,4.86,0,0,1-1.32,3.54,4.59,4.59,0,0,1-3.35,1.31,4.65,4.65,0,0,1-3.21-1.57c-.79-1-1-1.9-.93-3.74l.87-16.53c.12-2.24.37-3,1.34-4a4.25,4.25,0,0,1,3.31-1.27,4.43,4.43,0,0,1,3.21,1.58c.83,1,1.06,2,1,4.14Z" style="fill:#7a2727"/><path d="M567.54,232.12a14,14,0,1,1-14.77,13.11A14,14,0,0,1,567.54,232.12Zm-1,19.29a5.29,5.29,0,0,0,5.52-5,5.25,5.25,0,0,0-10.48-.6A5.31,5.31,0,0,0,566.56,251.41Z" style="fill:#7a2727"/><path d="M584.78,238.29c.15-2.84,2.06-4.71,4.7-4.57A4.48,4.48,0,0,1,593,235.8a4.84,4.84,0,0,1,.56,3l-.44,8.45c-.16,2.92-1.94,4.71-4.58,4.57a4.79,4.79,0,0,1-3.51-1.83,5,5,0,0,1-.68-3.16Zm3.71,14.2a4.14,4.14,0,0,1,3.94,4.38,4.08,4.08,0,0,1-4.34,3.94,4.26,4.26,0,0,1-4-4.42A4.18,4.18,0,0,1,588.49,252.49Z" style="fill:#7a2727"/><path d="M304.53,199.33a3,3,0,0,1-2.27-.93,2.86,2.86,0,0,1,1-4.57c.65-.25.91-.26,3.34-.13l6.19.32a11.07,11.07,0,0,1,2.09.17,2.79,2.79,0,0,1,2.37,2.92,3.11,3.11,0,0,1-1.12,2.16,3.41,3.41,0,0,1-2.41.54l-1.37-.07-.49,9.27a4.15,4.15,0,0,1-.65,2.34,3,3,0,0,1-2.62,1.27,3.11,3.11,0,0,1-2.47-1.42,3.86,3.86,0,0,1-.4-2.46l.49-9.32Z" style="fill:#fff"/><path d="M324.71,209.49a4.09,4.09,0,0,1-.67,2.57,3,3,0,0,1-2.61,1.23,3,3,0,0,1-2.5-1.5,4.24,4.24,0,0,1-.39-2.62l.59-11.23a3.49,3.49,0,0,1,.78-2.48,3.08,3.08,0,0,1,2.49-1.07,3.25,3.25,0,0,1,2.42,1.33c.47.7.56,1.1.48,2.69l-.14,2.62,3.74.2.13-2.54c.08-1.48.22-2,.79-2.7a2.93,2.93,0,0,1,2.43-1.08,3.18,3.18,0,0,1,2.4,1.3,3.89,3.89,0,0,1,.54,2.58l-.6,11.28a4,4,0,0,1-.63,2.4,3.06,3.06,0,0,1-5.07,0,4,4,0,0,1-.44-2.72l.14-2.68-3.74-.19Z" style="fill:#fff"/><path d="M339.38,214.24A3,3,0,0,1,336.5,211a3.72,3.72,0,0,1,.47-1.6l6.49-12.06a3.06,3.06,0,0,1,2.92-1.69,3.12,3.12,0,0,1,2.77,2l5.21,12.82a3.19,3.19,0,0,1,.28,1.49,3.08,3.08,0,0,1-3.26,2.88c-1.42-.07-2.22-.78-3-2.73l-5.69-.3C341.82,213.61,340.86,214.32,339.38,214.24Zm7.32-6.64-.83-2.28-1.07,2.18Z" style="fill:#fff"/><path d="M367.61,200.56a3.73,3.73,0,0,1,.69-2.4,3.08,3.08,0,0,1,2.59-1.21,3,3,0,0,1,2.28,1.24,3.49,3.49,0,0,1,.6,2.5l-.6,11.39a4,4,0,0,1-.82,2.75,3,3,0,0,1-2.46,1,2.92,2.92,0,0,1-2.36-1.38L363,208l-.21,3.91a3.37,3.37,0,0,1-.83,2.42,3.1,3.1,0,0,1-4.82-.34,3.78,3.78,0,0,1-.51-2.65l.62-11.79a3.08,3.08,0,0,1,3.39-3.12,2.79,2.79,0,0,1,2.22,1.35l4.57,6.26Z" style="fill:#fff"/><path d="M386.38,199.2a3,3,0,0,1,2.62-1.29,3.14,3.14,0,0,1,2.94,3.23,2.88,2.88,0,0,1-.56,1.59L388,207.12l3.54,5.06a2.54,2.54,0,0,1,.5,1.7,3.13,3.13,0,0,1-3.24,3,2.82,2.82,0,0,1-2.1-1l-4.3-6.07-.17,3.21c-.11,2.15-1.41,3.48-3.25,3.38s-3.06-1.53-2.95-3.68l.63-12c.11-2,1.41-3.37,3.26-3.27a3.09,3.09,0,0,1,2.26,1.15,3.19,3.19,0,0,1,.68,2.47l-.16,3Z" style="fill:#fff"/><path d="M393.31,212.69a2.76,2.76,0,0,1,2.94-2.64,3.27,3.27,0,0,1,2.13,1c1.29,1.11,1.45,1.23,1.89,1.25a.76.76,0,0,0,.83-.77.86.86,0,0,0-.43-.8,5.87,5.87,0,0,0-1.2-.6c-.5-.19-1-.39-1.48-.61-2.66-1.09-3.91-2.92-3.77-5.52.19-3.63,3.11-6,7.16-5.75,3.35.18,5.88,2.1,5.76,4.39a2.4,2.4,0,0,1-2.54,2.42,4,4,0,0,1-2.48-1.2c-.61-.56-.91-.72-1.25-.74a.74.74,0,0,0-.76.69c0,.56.34.83,1.77,1.38a11.69,11.69,0,0,1,3.86,2.17,5.76,5.76,0,0,1,1.64,4.48,6.38,6.38,0,0,1-2,4.34,7,7,0,0,1-5.32,1.6C396.11,217.57,393.17,215.34,393.31,212.69Z" style="fill:#fff"/><path d="M423.62,214.35c-.09,1.81-.17,2.17-.65,2.87a3,3,0,0,1-5.24-.44,5.23,5.23,0,0,1-.25-2.79l.57-10.74c.08-1.65.49-2.47,1.5-3.06a3.43,3.43,0,0,1,1.51-.4c.25,0,.81,0,1.62,0l3.69.2c2,.1,2.39.18,3.07.64a2.68,2.68,0,0,1,1.19,2.41,3.19,3.19,0,0,1-1.1,2.21,3.15,3.15,0,0,1-2.35.55l-3.1-.17L424,207l1.9.1a3.4,3.4,0,0,1,2,.47,2.1,2.1,0,0,1,.94,1.89c-.08,1.45-1.07,2.21-2.83,2.12l-2.2-.11Z" style="fill:#fff"/><path d="M441.3,200.36A9.78,9.78,0,1,1,431,209.5,9.78,9.78,0,0,1,441.3,200.36Zm-.69,13.46a3.72,3.72,0,0,0,3.86-3.5,3.67,3.67,0,0,0-7.32-.41A3.71,3.71,0,0,0,440.61,213.82Z" style="fill:#fff"/><path d="M466.45,215.93a3.85,3.85,0,0,1,.48,2,3,3,0,0,1-3.23,2.85,2.89,2.89,0,0,1-2.47-1.56l-2.31-4.35-.14,2.54a3,3,0,0,1-3.17,2.94,3.12,3.12,0,0,1-2.35-1.24,4,4,0,0,1-.59-2.66l.61-11.48a3.21,3.21,0,0,1,1.15-2.68,3.55,3.55,0,0,1,2.83-.66l2.57.13a11.27,11.27,0,0,1,3,.44,6.67,6.67,0,0,1,4.54,6.68,6.57,6.57,0,0,1-2.23,4.64Zm-7.25-6.45h.25l.42,0c.92.08,1.42-.23,1.45-.9s-.45-1.06-1.37-1.08c-.14,0-.36,0-.64-.06Z" style="fill:#fff"/><path d="M489.75,205.13a3.1,3.1,0,0,1,2.95-1.75,3,3,0,0,1,2.91,3.17,3.42,3.42,0,0,1-.41,1.44l-6.44,12.06a3.19,3.19,0,0,1-5.9-.14l-5.07-12.64a4.12,4.12,0,0,1-.36-1.7,3.11,3.11,0,0,1,3.29-2.82,3.17,3.17,0,0,1,2.87,2.36l2.59,7.13Z" style="fill:#fff"/><path d="M503,219.32a3.41,3.41,0,0,1-.91,2.47,3.26,3.26,0,0,1-2.35.91,3.22,3.22,0,0,1-2.23-1.1,3.27,3.27,0,0,1-.65-2.61l.61-11.53c.08-1.56.25-2.11.93-2.77a2.92,2.92,0,0,1,2.31-.89,3.07,3.07,0,0,1,2.24,1.1,3.66,3.66,0,0,1,.66,2.89Z" style="fill:#fff"/><path d="M514.92,217.6a3.47,3.47,0,0,1,2.54.83,2.89,2.89,0,0,1,.89,2.23,3,3,0,0,1-1.13,2.18,3.41,3.41,0,0,1-2.57.51l-4.78-.25a5.93,5.93,0,0,1-2.33-.38,2.83,2.83,0,0,1-1.64-2.32,7.42,7.42,0,0,1,0-1.85l.53-10.11a4.73,4.73,0,0,1,.4-2.33,2.82,2.82,0,0,1,1.56-1.46,5.46,5.46,0,0,1,2.67-.16l3.69.19a8.13,8.13,0,0,1,2.34.26,2.77,2.77,0,0,1,2,2.8,2.91,2.91,0,0,1-1.13,2.2,3.26,3.26,0,0,1-2.38.55l-3.07-.16-.07,1.28,2.43.13a2.23,2.23,0,0,1,2.37,2.34,2.29,2.29,0,0,1-.9,1.71,2.74,2.74,0,0,1-1.93.38l-2.2-.12-.08,1.4Z" style="fill:#fff"/><path d="M530.11,207.67a3,3,0,0,1,3.11-2.15,3.05,3.05,0,0,1,2.92,2.56l1.47,5,2.31-5.11a3.26,3.26,0,0,1,3.13-2,3,3,0,0,1,2.91,3.21,3.91,3.91,0,0,1-.44,1.43l-5,11.77c-.68,1.59-1.69,2.32-3.09,2.25a3.07,3.07,0,0,1-2.86-2.5L532.78,216l-2.36,6a3,3,0,0,1-3,2.22,3,3,0,0,1-2.79-2.28l-4.09-12.67a4.22,4.22,0,0,1-.29-1.44,3,3,0,0,1,3.25-2.77c1.42.07,2.44,1,3,2.65l1.73,4.82Z" style="fill:#fff"/><path d="M553.37,222a3.41,3.41,0,0,1-.91,2.47,3.11,3.11,0,0,1-4.58-.19,3.3,3.3,0,0,1-.65-2.61l.61-11.53c.08-1.56.25-2.11.93-2.78a3,3,0,0,1,2.31-.88,3,3,0,0,1,2.24,1.1,3.66,3.66,0,0,1,.66,2.89Z" style="fill:#fff"/><path d="M567.24,211.09a3.73,3.73,0,0,1,.69-2.4,3,3,0,0,1,4.87,0,3.49,3.49,0,0,1,.6,2.5l-.6,11.39a4,4,0,0,1-.82,2.76,3,3,0,0,1-2.46,1,3,3,0,0,1-2.37-1.38l-4.52-6.48-.21,3.91a3.4,3.4,0,0,1-.83,2.42,3.12,3.12,0,0,1-2.43,1,3.17,3.17,0,0,1-2.4-1.33,3.86,3.86,0,0,1-.5-2.66l.62-11.78a3.09,3.09,0,0,1,3.39-3.13,2.79,2.79,0,0,1,2.22,1.35l4.57,6.26Z" style="fill:#fff"/><path d="M586.36,220.72c-1.65-.09-2.58-1-2.51-2.37s1.15-2.21,3.11-2.08l2,.14c2.14.17,2.72.37,3.3,1.12a3.86,3.86,0,0,1,.63,2.75l-.11,1.59a6.26,6.26,0,0,1-.3,2,6,6,0,0,1-3.23,2.77,9.5,9.5,0,0,1-4.47.86,9.79,9.79,0,1,1,1-19.55,10.25,10.25,0,0,1,5.14,1.76,3.42,3.42,0,0,1,1.77,3,3.12,3.12,0,0,1-3.28,2.91,2.26,2.26,0,0,1-.81-.18l-1.33-.8a5,5,0,0,0-1.92-.61,3.66,3.66,0,0,0-.28,7.32,3.57,3.57,0,0,0,2.16-.58Z" style="fill:#fff"/><path d="M322,223.08a4.38,4.38,0,0,1,4-2.16,4.7,4.7,0,0,1,3,1.36,4.56,4.56,0,0,1,1.2,3l2.14,17.37a7.3,7.3,0,0,1,.08,1.49,4.28,4.28,0,0,1-4.55,4.05,4.21,4.21,0,0,1-4.18-3.59l-.74-5.06-2,4.63c-1,2.36-2.63,3.52-4.71,3.41s-3.5-1.31-4.29-3.84l-1.51-4.85-.94,4.2c-.58,2.54-2.34,4-4.62,3.89-2.61-.14-4.34-2.24-4.19-5a9.48,9.48,0,0,1,.14-1.07l3.94-16.93c.57-2.54,2.26-4,4.54-3.89a4.82,4.82,0,0,1,4.24,3.19l3.5,9.05Z" style="fill:#fff"/><path d="M348.22,243.8a5.59,5.59,0,0,1-.94,3.32,4.38,4.38,0,0,1-3.79,1.88,4.47,4.47,0,0,1-3.57-2.23,5.52,5.52,0,0,1-.58-3.44l.31-5.93-5.46-9.07a4.54,4.54,0,0,1-.74-2.73,4.34,4.34,0,0,1,4.59-4,4.8,4.8,0,0,1,3.77,2.29l2.86,4.28,3.47-4.07a4.79,4.79,0,0,1,3.82-1.76,4.43,4.43,0,0,1,4.17,4.59,4.75,4.75,0,0,1-.93,2.52L348.52,238Z" style="fill:#fff"/><path d="M378.68,245.76c-.16,3-2,5-4.67,4.85a4.43,4.43,0,0,1-3.58-2.19c-.62-1.12-.68-1.56-.54-4.24l.83-15.61c.1-1.92.43-2.78,1.4-3.69a4.6,4.6,0,0,1,3.67-1.14l3.68.2c4.28.22,6.09.8,8,2.47a9.53,9.53,0,0,1-.92,15.24,9.43,9.43,0,0,1-6.3,1.59l-1.48-.08Zm.57-10.76c2.11.23,2.93-.12,3-1.33,0-.88-.73-1.44-2.05-1.51l-.8,0Z" style="fill:#fff"/><path d="M407.78,224.79A14,14,0,1,1,393,237.89,14,14,0,0,1,407.78,224.79Zm-1,19.29a5.31,5.31,0,0,0,5.52-5,5.25,5.25,0,0,0-10.48-.59A5.31,5.31,0,0,0,406.81,244.08Z" style="fill:#fff"/><path d="M443.83,247.12a5.33,5.33,0,0,1,.69,2.88,4.3,4.3,0,0,1-4.63,4.09,4.1,4.1,0,0,1-3.53-2.23L433,245.62l-.19,3.64a4.33,4.33,0,0,1-4.56,4.22,4.5,4.5,0,0,1-3.36-1.78,5.8,5.8,0,0,1-.84-3.82l.87-16.45c.1-1.92.56-3,1.65-3.84s1.94-1.06,4.06-1l3.68.19a16.51,16.51,0,0,1,4.26.63,9.58,9.58,0,0,1,6.52,9.57,9.47,9.47,0,0,1-3.2,6.65Zm-10.38-9.26.36,0,.6,0c1.32.11,2-.33,2.07-1.29s-.64-1.52-2-1.55a9.15,9.15,0,0,1-.92-.09Z" style="fill:#fff"/><path d="M451.56,236a4.3,4.3,0,0,1-3.26-1.34,4.16,4.16,0,0,1-1.09-3,4.21,4.21,0,0,1,2.47-3.56c.95-.36,1.31-.38,4.79-.19l8.88.46a19.8,19.8,0,0,1,3,.24,4,4,0,0,1,3.39,4.19,4.43,4.43,0,0,1-1.61,3.09,4.91,4.91,0,0,1-3.45.78l-2-.1-.7,13.28a5.92,5.92,0,0,1-.94,3.36,4.2,4.2,0,0,1-3.75,1.81,4.45,4.45,0,0,1-3.54-2,5.55,5.55,0,0,1-.58-3.52l.71-13.37Z" style="fill:#fff"/><path d="M479.9,250c-.14,2.6-.25,3.12-.94,4.12a4.36,4.36,0,0,1-7.51-.63c-.43-1-.48-1.55-.35-4l.81-15.41c.13-2.36.71-3.53,2.16-4.38a4.8,4.8,0,0,1,2.15-.57c.37,0,1.17,0,2.33,0l5.28.28c2.88.15,3.44.26,4.41.91a3.9,3.9,0,0,1,1.7,3.46,4.09,4.09,0,0,1-4.94,4l-4.44-.23-.1,1.84,2.72.14a5.06,5.06,0,0,1,2.81.67,3,3,0,0,1,1.34,2.72c-.11,2.08-1.53,3.17-4.05,3l-3.16-.17Z" style="fill:#fff"/><path d="M505.23,229.93A14,14,0,1,1,490.45,243,14,14,0,0,1,505.23,229.93Zm-1,19.29a5.3,5.3,0,0,0,5.52-5,5.25,5.25,0,0,0-10.48-.59A5.31,5.31,0,0,0,504.25,249.22Z" style="fill:#fff"/><path d="M534.82,250.63a4.9,4.9,0,0,1,3.08,1,4.14,4.14,0,0,1,1.51,3.37,4.07,4.07,0,0,1-4.82,3.91l-8.41-.44a4.41,4.41,0,0,1-3.64-1.6c-1-1.25-1.11-1.86-.91-5.54l.79-15c.16-3,2-4.87,4.62-4.74a4.53,4.53,0,0,1,3.36,1.79c.74,1.12.9,1.93.77,4.45l-.67,12.64Z" style="fill:#fff"/><path d="M551.08,254.86a4.87,4.87,0,0,1-1.31,3.54,4.46,4.46,0,0,1-6.56-.26c-.8-1-1-1.9-.93-3.74l.87-16.53c.12-2.24.36-3,1.34-4a4.21,4.21,0,0,1,3.31-1.27,4.46,4.46,0,0,1,3.21,1.57c.83,1.05,1.06,2,1,4.15Z" style="fill:#fff"/><path d="M569.67,233.33a14,14,0,1,1-14.78,13.1A14,14,0,0,1,569.67,233.33Zm-1,19.29a5.3,5.3,0,0,0,5.52-5,5.25,5.25,0,0,0-10.48-.59A5.31,5.31,0,0,0,568.69,252.62Z" style="fill:#fff"/><path d="M586.91,239.5c.15-2.84,2.05-4.71,4.69-4.57a4.51,4.51,0,0,1,3.55,2.07,4.87,4.87,0,0,1,.56,3l-.45,8.45c-.15,2.92-1.93,4.71-4.57,4.57a4.84,4.84,0,0,1-3.52-1.83,5,5,0,0,1-.67-3.17Zm3.7,14.2a4.15,4.15,0,0,1,3.95,4.38,4.09,4.09,0,0,1-4.35,3.94,4.26,4.26,0,0,1-4-4.42A4.18,4.18,0,0,1,590.61,253.7Z" style="fill:#fff"/><path d="M606,282.5l-111.81-5.9-177-9.34-40.76-2.15,3,3,4.59-87,.65-12.3-3,3,111.82,5.9,177,9.34,40.75,2.15-3-3-4.59,87L603,285.5c-.2,3.86,5.8,3.85,6,0l4.59-87,.65-12.3a3,3,0,0,0-3-3l-111.81-5.9-177-9.34-40.76-2.15a3.06,3.06,0,0,0-3,3l-4.59,87-.65,12.3a3.06,3.06,0,0,0,3,3L388.27,277l177,9.34L606,288.5C609.88,288.7,609.87,282.7,606,282.5Z" style="fill:#7a2727"/></g></svg>