<svg height="1137" viewBox="0 0 1772 1137" width="1772" xmlns="http://www.w3.org/2000/svg"><g fill-rule="evenodd"><path d="m1236.17 1000.25 6.91-185.86 64.32-84.89-71.58-79.71-31.64-252.43-12.45-15.04-36.82 98.55-97.34 219.24-33.37-221.31-79.36-57.58-51.87-184.65-74.69 79.53-65.7 159.59-70.89-168.92 34.75-115.15-24.72-91.46-49.1-53.78-441.62 547.62 144 27 299.35 48.5 125.52 44.61 115.15 179.98 150.42 128.12 143.85 2.42z" fill="#556985"/><path d="m939.65 438.51-139.35 389.71-70.37-94.57 109.44-104.61z" fill="#2e4256"/><path d="m675.64 680.74 76.94-205.05-49.62-118.27 24.72 100.8-52.04 118.09-33.37 28.18-66.91 155.61z" fill="#2e4256"/><path d="m682 307-169.72 473.26-83.68-198.83z" fill="#425872"/><path d="m1015 487.27-221.13 402s78.67 22.48 77.8 18.16 143.33-420.16 143.33-420.16z" fill="#425872"/><g fill="#627b99"><path d="m893 236.57s-209.38 545.49-211.28 549-24.38-56-24.38-56l95.27-253.81 65.7-159.59z"/><path d="m716.44 191.62-34.75 115.15-294.69 320.23z"/><path d="m694.31 110.01-49.1-17.81-491.21 611.8-89-39 577.62-618.62z"/></g><path d="m1057.57 700.11 97.34-219.24-51.01-111.52-132.78-83.68-78.15-49.1 51.87 184.65 79.36 57.58z" fill="#1a3049"/><path d="m839.37 1000.25 86.45-204.53 131.75-95.61 134.16-317.79 12.45 15.04-148 434.32-68.12 63.28-54.11 100.28 38.03-137.11 43.05-50.48 33.03-72.79-109.45 86.44-69.15 203.33z" fill="#627b99"/><path d="m1243.08 814.39-219.23 229.26s52.22 25.07 56.88 23c5.02-1.91 162.35-252.26 162.35-252.26z" fill="#425872"/><path d="m1243.08 814.39-6.91 185.86 477.37-204.53-100.63-71.24-140.74-65.7-86.45-118.26-181.54-143.16 31.64 252.43 71.58 79.71z" fill="#1a3049"/><path d="m1362.73 647.2 331.96 266.26-102.18 10.37z" fill="#122335"/><path d="m1318.99 594.12 153.18 64.66 140.74 65.7 140.22 96.82-49.28 16.08-138.14-107.88z" fill="#223c56"/><path d="m1307.4 729.5 237.73 242.74-108.06 66.57-193.99-224.42z" fill="#122335"/><path d="m752.58 475.69 65.7-159.59-70.2-154.39-56.36-61.55 24.72 91.46-34.75 115.15z" fill="#1a3049"/><path d="m226.8 1095h788.23l164.26-70.37-143.85-2.42-150.42-128.12-115.15-179.98-125.52-44.61-123.63-103.74-255.72 41.24-74-41z" fill="#627b99"/><path d="m442.92 633.37-38.04 25.41-95.09 28.19h-82.99v408.03h1050.69l-98.2-70.37-143.85-2.42-150.42-128.12-115.15-179.98-125.52-44.61-123.63-103.74z" fill="#1a3049"/><path d="m1472.17 658.78-92.67-123.27-175.32-138.15 4.67 36.66 171.17 142.29z" fill="#223c56"/><path d="m769.87 714.11 37.34 150.94 114.11 182.06 139.36 47.89 72.79-36.31-135.03-28.87-172.9-176.36-14.18-74.51z" fill="#122335"/><path d="m442.92 633.37-43.22 25.41 60.86 126.74 158.71 51.86 97.17 257.62h122.93l-182.06-273.7-155.61-66.04z" fill="#122335"/><path d="m226.8 686.97h82.99l58.78 188.45 165.98 219.58h-81.95l-142.81-210.93-32.85-169.96z" fill="#122335"/></g></svg>