<svg xmlns="http://www.w3.org/2000/svg" width="2724" height="1833" viewBox="0 0 2724 1833"><title>World_Space</title><g id="Layer_7" data-name="Layer 7"><rect x="48" y="918" width="2617" height="894" style="fill:#4e4e51"/><polygon points="486.8 678.85 365 938 539 994 679 1040 762 1055 874 1045 1069.8 1030.37 1281.96 1084.38 1111 750.63 1392.86 556.57 1512.98 204 1217.8 417.76 902.32 477.05 691.79 574.52 486.8 678.85" style="fill:#4e4e51;fill-rule:evenodd"/><polygon points="954.18 673.04 907.65 694.15 843.89 747.11 750.62 792.33 814 938 954.18 673.04" style="fill:#5c5c5e;fill-rule:evenodd"/><polygon points="870.75 831.44 954.18 672.04 999.89 844.46 926.1 938.23 870.75 831.44" style="fill:#343435;fill-rule:evenodd"/><polygon points="601.6 680.08 904.98 518.22 1202.83 427.79 935.12 546.37 645 805 601.6 680.08" style="fill:#343435;fill-rule:evenodd"/><path d="M1392.86,556.57,1111,750.63l171.17,333.75,161.73,41.17,43.67-16L2145,986c87.12-26.57,125-25.41,265-43L1780.29,488.84,1513,204Z" style="fill:#4e4e51;fill-rule:evenodd"/><polygon points="2144.56 825.4 1787.88 511.18 2098.03 860.76 2144.56 825.4" style="fill:#343435;fill-rule:evenodd"/><polygon points="1546.6 471.25 1921.59 1039.29 2067.14 1012.89 1546.6 471.25" style="fill:#343435;fill-rule:evenodd"/><polygon points="1392.86 556.57 1718.8 1130.47 1574.69 1151.58 1111 750.63 1392.86 556.57" style="fill:#3d3d3f;fill-rule:evenodd"/><polygon points="1300.41 620.26 1681.28 1084.38 1392.86 556.57 1300.41 620.26" style="fill:#343435;fill-rule:evenodd"/><polygon points="954.18 673.04 1234.4 499.39 1407.83 334.02 1239.73 535.81 974.88 751.33 954.18 673.04" style="fill:#5c5c5e;fill-rule:evenodd"/><polygon points="1512.98 204 1116.12 535.46 1217.8 417.76 1512.98 204" style="fill:#5c5c5e;fill-rule:evenodd"/></g></svg>