<svg height="425" viewBox="0 0 518 425" width="518" xmlns="http://www.w3.org/2000/svg"><g fill="#427212"><path d="m94.6 119.79-26.84 19.35a4.89 4.89 0 0 0 -.36 7.23l105.2 112c3.82 4.08 9.52-.73 6.62-5.59l-78.35-131.35a4.38 4.38 0 0 0 -6.27-1.64z"/><path d="m46.69 165.2-15.58 30.58a5.12 5.12 0 0 0 2.6 6.91l136.71 55.31c5 2 8-5.13 3.52-8.31l-121.14-85.88a4.05 4.05 0 0 0 -6.11 1.39z"/><path d="m199.22 100.15 31 10a4.21 4.21 0 0 1 2.66 5.33l-49.43 137.82c-1.56 4.35-8 2.36-7.44-2.29l18.43-147.82a3.62 3.62 0 0 1 4.78-3.04z"/><path d="m302.17 152.61 20.44 26.85a3.94 3.94 0 0 1 -.8 5.75l-141.53 74.4c-3.8 2.39-8.11-3.12-5-6.35l121.13-101.26a3.81 3.81 0 0 1 5.76.61z"/><path d="m344 225.66-11.4-23.31a1 1 0 0 0 -1.24-.48l-153.68 56.13a.89.89 0 0 0 .59 1.68l165-32.78a.85.85 0 0 0 .73-1.24z"/><path d="m134.65 95.19-22.07 9.81a1 1 0 0 0 -.42 1.25l65.51 150.62a1.52 1.52 0 0 0 3-.73l-44.84-160.14a.92.92 0 0 0 -1.18-.81z"/><path d="m23.38 212.19-2.38 25.21a1.11 1.11 0 0 0 .83 1.09l153.37 21.26c1.89.49 2.6-2.28.79-3l-151.42-45.16a.8.8 0 0 0 -1.19.6z"/><path d="m26.3 267.84 6.11 25.07a1 1 0 0 0 1.12.75l148-34.15c1.89-.2 1.63-3.11-.28-3.2l-154 10.53a.83.83 0 0 0 -.95 1z"/><path d="m37.91 304.13 11.49 23.24a1 1 0 0 0 1.24.47l134.06-69.67c1.76-.65.87-3.47-1-3.09l-145.16 47.84a.85.85 0 0 0 -.63 1.21z"/><path d="m175.75 90.34-24.11 3.25a.94.94 0 0 0 -.73 1.07l26.32 160.81c.19 2 3 2.08 3.08.1l-3.59-164.17a1 1 0 0 0 -.97-1.06z"/><path d="m257 117.18 25.83 21.23a4.1 4.1 0 0 1 .6 5.87l-97 105.09c-3.06 3.32-8.47-1-6.23-5l71.2-126.31a3.69 3.69 0 0 1 5.6-.88z"/><path d="m207.26 404-8.36.95a1.12 1.12 0 0 1 -1.18-.94l-25-153.78a1 1 0 0 1 .83-1.16l8.37-1a1.09 1.09 0 0 1 1.17.94l25 153.77a1 1 0 0 1 -.83 1.22z"/><path d="m315.49 31.78-32.71 5c-2.7.41-4.43 3.43-3.61 6.28l42.64 147.61c1.55 5.37 8.81 3.68 8.44-2l-9.93-152.58a4.37 4.37 0 0 0 -4.83-4.31z"/><path d="m252.15 50.39-27.8 20.12a5.14 5.14 0 0 0 -.83 7.34l96.48 111.5c3.52 4.06 9.46-.92 6.91-5.79l-68.68-131.63a4.06 4.06 0 0 0 -6.08-1.54z"/><path d="m417.57 61.94 23.07 23.06a4.22 4.22 0 0 1 -.06 6l-106.8 100.11c-3.37 3.16-8.21-1.55-5.58-5.43l83.73-123.2a3.62 3.62 0 0 1 5.64-.54z"/><path d="m485.33 155.54 6 33.21a3.94 3.94 0 0 1 -3.33 4.75l-159.89 1.77c-4.46.4-5.79-6.46-1.53-7.91l153.92-35a3.8 3.8 0 0 1 4.83 3.18z"/><path d="m489.27 239.6.5-25.92a1 1 0 0 0 -.89-1l-162.36-20.06a.89.89 0 0 0 -.24 1.77l161.87 46a.84.84 0 0 0 1.12-.79z"/><path d="m362.34 28.12-24.09-1.36a1 1 0 0 0 -.94.92l-10.31 163.92a1.52 1.52 0 0 0 3 .69l33-162.94a.91.91 0 0 0 -.66-1.23z"/><path d="m210 81.6-13.6 21.4a1.09 1.09 0 0 0 .24 1.35l126.86 88.74c1.45 1.29 3.35-.84 2.09-2.35l-114.26-109.13a.8.8 0 0 0 -1.33-.01z"/><path d="m187.25 132.48-6 25.09a1 1 0 0 0 .65 1.18l147.26 37c1.78.69 2.88-2 1.21-3l-141.86-60.75a.83.83 0 0 0 -1.26.48z"/><path d="m181.06 170.07-.36 25.93a1 1 0 0 0 .89 1l151.08-1c1.87.22 2.36-2.69.53-3.2l-151-23.53a.85.85 0 0 0 -1.14.8z"/><path d="m401.15 42.52-22.95-8.09a.94.94 0 0 0 -1.13.62l-49.81 155.15c-.74 1.86 1.71 3.22 2.69 1.5l71.58-147.8a.94.94 0 0 0 -.38-1.38z"/><path d="m461.29 103.44 13.32 30.67a4.08 4.08 0 0 1 -2.13 5.49l-134.18 49.4c-4.23 1.56-7.08-4.76-3.28-7.28l120.84-80.07a3.69 3.69 0 0 1 5.43 1.79z"/><path d="m286.32 336.14-7.88-3a1.1 1.1 0 0 1 -.61-1.37l47.76-148.29a1 1 0 0 1 1.28-.66l7.88 3a1.12 1.12 0 0 1 .62 1.37l-47.77 148.29a1 1 0 0 1 -1.28.66z"/></g></svg>