<svg height="600" viewBox="0 0 2353 600" width="2353" xmlns="http://www.w3.org/2000/svg" xmlns:xlink="http://www.w3.org/1999/xlink"><radialGradient id="a" cx="199.55" cy="288.57" gradientUnits="userSpaceOnUse" r="64.08"><stop offset="0" stop-color="#cc4c3d"/><stop offset=".21" stop-color="#ca4a3b" stop-opacity=".74"/><stop offset=".48" stop-color="#c74738" stop-opacity=".43"/><stop offset=".72" stop-color="#c64536" stop-opacity=".2"/><stop offset=".9" stop-color="#c44334" stop-opacity=".05"/><stop offset="1" stop-color="#c44334" stop-opacity="0"/></radialGradient><radialGradient id="b" cx="523.55" cy="288.57" r="64.08" xlink:href="#a"/><radialGradient id="c" cx="847.55" cy="288.57" r="64.08" xlink:href="#a"/><radialGradient id="d" cx="1166.55" cy="288.57" r="64.08" xlink:href="#a"/><radialGradient id="e" cx="1487.55" cy="290.57" r="64.08" xlink:href="#a"/><radialGradient id="f" cx="1803.55" cy="289.57" r="64.08" xlink:href="#a"/><path d="m36 38h322v515h-322z" fill="#8e8e8e" stroke="#3d3d3f" stroke-miterlimit="10" stroke-width="6"/><path d="m55 53.06h272v470.75h-272z" fill="#636363"/><path d="m64 58.71h272v470.75h-272z" fill="#a5a5a5" opacity=".78"/><g fill="#636363"><ellipse cx="90.5" cy="82.72" opacity=".56" rx="5.5" ry="5.18"/><ellipse cx="165.5" cy="82.72" opacity=".56" rx="5.5" ry="5.18"/><ellipse cx="89.5" cy="149.57" opacity=".56" rx="5.5" ry="5.18"/><ellipse cx="89.5" cy="223" opacity=".56" rx="5.5" ry="5.18"/><ellipse cx="89.5" cy="287.03" opacity=".56" rx="5.5" ry="5.18"/><ellipse cx="89.5" cy="351.99" opacity=".56" rx="5.5" ry="5.18"/><ellipse cx="89.5" cy="423.54" opacity=".56" rx="5.5" ry="5.18"/><ellipse cx="89.5" cy="500.75" opacity=".56" rx="5.5" ry="5.18"/><ellipse cx="302.5" cy="151.45" opacity=".56" rx="5.5" ry="5.18"/><ellipse cx="302.5" cy="224.89" opacity=".56" rx="5.5" ry="5.18"/><ellipse cx="302.5" cy="288.91" opacity=".56" rx="5.5" ry="5.18"/><ellipse cx="302.5" cy="353.87" opacity=".56" rx="5.5" ry="5.18"/><ellipse cx="302.5" cy="425.43" opacity=".56" rx="5.5" ry="5.18"/><ellipse cx="302.5" cy="501.69" opacity=".56" rx="5.5" ry="5.18"/><ellipse cx="236.5" cy="82.72" opacity=".56" rx="5.5" ry="5.18"/><ellipse cx="161.5" cy="501.69" opacity=".56" rx="5.5" ry="5.18"/><ellipse cx="232.5" cy="501.69" opacity=".56" rx="5.5" ry="5.18"/><ellipse cx="302.5" cy="82.72" opacity=".56" rx="5.5" ry="5.18"/></g><circle cx="200.5" cy="286.5" fill="#505164" r="19.62" stroke="#000" stroke-miterlimit="10"/><circle cx="202.88" cy="286.5" fill="#e2744b" r="17.24"/><ellipse cx="204.96" cy="276.82" fill="#ea9a81" rx="5.05" ry="3.99"/><path d="m190.57 298.56s10.63 12.14 25.14-.55c0-.01-14.87-6.41-25.14.55z" fill="#db5f42"/><circle cx="202.88" cy="286.5" fill="none" r="17.24" stroke="#000" stroke-miterlimit="10"/><ellipse cx="199.55" cy="288.57" fill="url(#a)" rx="65.55" ry="62.57"/><path d="m360 38h322v515h-322z" fill="#8e8e8e" stroke="#3d3d3f" stroke-miterlimit="10" stroke-width="6"/><path d="m379 53.06h272v470.75h-272z" fill="#636363"/><path d="m388 58.71h272v470.75h-272z" fill="#a5a5a5" opacity=".78"/><ellipse cx="414.5" cy="82.72" fill="#636363" opacity=".56" rx="5.5" ry="5.18"/><ellipse cx="489.5" cy="82.72" fill="#636363" opacity=".56" rx="5.5" ry="5.18"/><ellipse cx="413.5" cy="149.57" fill="#636363" opacity=".56" rx="5.5" ry="5.18"/><ellipse cx="413.5" cy="223" fill="#636363" opacity=".56" rx="5.5" ry="5.18"/><ellipse cx="413.5" cy="287.03" fill="#636363" opacity=".56" rx="5.5" ry="5.18"/><ellipse cx="413.5" cy="351.99" fill="#636363" opacity=".56" rx="5.5" ry="5.18"/><ellipse cx="413.5" cy="423.54" fill="#636363" opacity=".56" rx="5.5" ry="5.18"/><ellipse cx="413.5" cy="500.75" fill="#636363" opacity=".56" rx="5.5" ry="5.18"/><ellipse cx="626.5" cy="151.45" fill="#636363" opacity=".56" rx="5.5" ry="5.18"/><ellipse cx="626.5" cy="224.89" fill="#636363" opacity=".56" rx="5.5" ry="5.18"/><ellipse cx="626.5" cy="288.91" fill="#636363" opacity=".56" rx="5.5" ry="5.18"/><ellipse cx="626.5" cy="353.87" fill="#636363" opacity=".56" rx="5.5" ry="5.18"/><ellipse cx="626.5" cy="425.43" fill="#636363" opacity=".56" rx="5.5" ry="5.18"/><ellipse cx="626.5" cy="501.69" fill="#636363" opacity=".56" rx="5.5" ry="5.18"/><ellipse cx="560.5" cy="82.72" fill="#636363" opacity=".56" rx="5.5" ry="5.18"/><ellipse cx="485.5" cy="501.69" fill="#636363" opacity=".56" rx="5.5" ry="5.18"/><ellipse cx="556.5" cy="501.69" fill="#636363" opacity=".56" rx="5.5" ry="5.18"/><ellipse cx="626.5" cy="82.72" fill="#636363" opacity=".56" rx="5.5" ry="5.18"/><circle cx="524.5" cy="286.5" fill="#505164" r="19.62" stroke="#000" stroke-miterlimit="10"/><circle cx="526.88" cy="286.5" fill="#e2744b" r="17.24"/><ellipse cx="528.96" cy="276.82" fill="#ea9a81" rx="5.05" ry="3.99"/><path d="m514.57 298.56s10.63 12.14 25.14-.55c0-.01-14.87-6.41-25.14.55z" fill="#db5f42"/><circle cx="526.88" cy="286.5" fill="none" r="17.24" stroke="#000" stroke-miterlimit="10"/><ellipse cx="523.55" cy="288.57" fill="url(#b)" rx="65.55" ry="62.57"/><path d="m684 38h322v515h-322z" fill="#8e8e8e" stroke="#3d3d3f" stroke-miterlimit="10" stroke-width="6"/><path d="m703 53.06h272v470.75h-272z" fill="#636363"/><path d="m712 58.71h272v470.75h-272z" fill="#a5a5a5" opacity=".78"/><ellipse cx="738.5" cy="82.72" fill="#636363" opacity=".56" rx="5.5" ry="5.18"/><ellipse cx="813.5" cy="82.72" fill="#636363" opacity=".56" rx="5.5" ry="5.18"/><ellipse cx="737.5" cy="149.57" fill="#636363" opacity=".56" rx="5.5" ry="5.18"/><ellipse cx="737.5" cy="223" fill="#636363" opacity=".56" rx="5.5" ry="5.18"/><ellipse cx="737.5" cy="287.03" fill="#636363" opacity=".56" rx="5.5" ry="5.18"/><ellipse cx="737.5" cy="351.99" fill="#636363" opacity=".56" rx="5.5" ry="5.18"/><ellipse cx="737.5" cy="423.54" fill="#636363" opacity=".56" rx="5.5" ry="5.18"/><ellipse cx="737.5" cy="500.75" fill="#636363" opacity=".56" rx="5.5" ry="5.18"/><ellipse cx="950.5" cy="151.45" fill="#636363" opacity=".56" rx="5.5" ry="5.18"/><ellipse cx="950.5" cy="224.89" fill="#636363" opacity=".56" rx="5.5" ry="5.18"/><ellipse cx="950.5" cy="288.91" fill="#636363" opacity=".56" rx="5.5" ry="5.18"/><ellipse cx="950.5" cy="353.87" fill="#636363" opacity=".56" rx="5.5" ry="5.18"/><ellipse cx="950.5" cy="425.43" fill="#636363" opacity=".56" rx="5.5" ry="5.18"/><ellipse cx="950.5" cy="501.69" fill="#636363" opacity=".56" rx="5.5" ry="5.18"/><ellipse cx="884.5" cy="82.72" fill="#636363" opacity=".56" rx="5.5" ry="5.18"/><ellipse cx="809.5" cy="501.69" fill="#636363" opacity=".56" rx="5.5" ry="5.18"/><ellipse cx="880.5" cy="501.69" fill="#636363" opacity=".56" rx="5.5" ry="5.18"/><ellipse cx="950.5" cy="82.72" fill="#636363" opacity=".56" rx="5.5" ry="5.18"/><circle cx="848.5" cy="286.5" fill="#505164" r="19.62" stroke="#000" stroke-miterlimit="10"/><circle cx="850.88" cy="286.5" fill="#e2744b" r="17.24"/><ellipse cx="852.96" cy="276.82" fill="#ea9a81" rx="5.05" ry="3.99"/><path d="m838.57 298.56s10.63 12.14 25.14-.55c0-.01-14.87-6.41-25.14.55z" fill="#db5f42"/><circle cx="850.88" cy="286.5" fill="none" r="17.24" stroke="#000" stroke-miterlimit="10"/><ellipse cx="847.55" cy="288.57" fill="url(#c)" rx="65.55" ry="62.57"/><path d="m1006 38h322v515h-322z" fill="#8e8e8e" stroke="#3d3d3f" stroke-miterlimit="10" stroke-width="6"/><path d="m1025 53.06h272v470.75h-272z" fill="#636363"/><path d="m1034 58.71h272v470.75h-272z" fill="#a5a5a5" opacity=".78"/><ellipse cx="1060.5" cy="82.72" fill="#636363" opacity=".56" rx="5.5" ry="5.18"/><ellipse cx="1135.5" cy="82.72" fill="#636363" opacity=".56" rx="5.5" ry="5.18"/><ellipse cx="1059.5" cy="149.57" fill="#636363" opacity=".56" rx="5.5" ry="5.18"/><ellipse cx="1059.5" cy="223" fill="#636363" opacity=".56" rx="5.5" ry="5.18"/><ellipse cx="1059.5" cy="287.03" fill="#636363" opacity=".56" rx="5.5" ry="5.18"/><ellipse cx="1059.5" cy="351.99" fill="#636363" opacity=".56" rx="5.5" ry="5.18"/><ellipse cx="1059.5" cy="423.54" fill="#636363" opacity=".56" rx="5.5" ry="5.18"/><ellipse cx="1059.5" cy="500.75" fill="#636363" opacity=".56" rx="5.5" ry="5.18"/><ellipse cx="1272.5" cy="151.45" fill="#636363" opacity=".56" rx="5.5" ry="5.18"/><ellipse cx="1272.5" cy="224.89" fill="#636363" opacity=".56" rx="5.5" ry="5.18"/><ellipse cx="1272.5" cy="288.91" fill="#636363" opacity=".56" rx="5.5" ry="5.18"/><ellipse cx="1272.5" cy="353.87" fill="#636363" opacity=".56" rx="5.5" ry="5.18"/><ellipse cx="1272.5" cy="425.43" fill="#636363" opacity=".56" rx="5.5" ry="5.18"/><ellipse cx="1272.5" cy="501.69" fill="#636363" opacity=".56" rx="5.5" ry="5.18"/><ellipse cx="1206.5" cy="82.72" fill="#636363" opacity=".56" rx="5.5" ry="5.18"/><ellipse cx="1131.5" cy="501.69" fill="#636363" opacity=".56" rx="5.5" ry="5.18"/><ellipse cx="1202.5" cy="501.69" fill="#636363" opacity=".56" rx="5.5" ry="5.18"/><ellipse cx="1272.5" cy="82.72" fill="#636363" opacity=".56" rx="5.5" ry="5.18"/><path d="m1328 38h322v515h-322z" fill="#8e8e8e" stroke="#3d3d3f" stroke-miterlimit="10" stroke-width="6"/><path d="m1347 53.06h272v470.75h-272z" fill="#636363"/><path d="m1356 58.71h272v470.75h-272z" fill="#a5a5a5" opacity=".78"/><ellipse cx="1382.5" cy="82.72" fill="#636363" opacity=".56" rx="5.5" ry="5.18"/><ellipse cx="1457.5" cy="82.72" fill="#636363" opacity=".56" rx="5.5" ry="5.18"/><ellipse cx="1381.5" cy="149.57" fill="#636363" opacity=".56" rx="5.5" ry="5.18"/><ellipse cx="1381.5" cy="223" fill="#636363" opacity=".56" rx="5.5" ry="5.18"/><ellipse cx="1381.5" cy="287.03" fill="#636363" opacity=".56" rx="5.5" ry="5.18"/><ellipse cx="1381.5" cy="351.99" fill="#636363" opacity=".56" rx="5.5" ry="5.18"/><ellipse cx="1381.5" cy="423.54" fill="#636363" opacity=".56" rx="5.5" ry="5.18"/><ellipse cx="1381.5" cy="500.75" fill="#636363" opacity=".56" rx="5.5" ry="5.18"/><ellipse cx="1594.5" cy="151.45" fill="#636363" opacity=".56" rx="5.5" ry="5.18"/><ellipse cx="1594.5" cy="224.89" fill="#636363" opacity=".56" rx="5.5" ry="5.18"/><ellipse cx="1594.5" cy="288.91" fill="#636363" opacity=".56" rx="5.5" ry="5.18"/><ellipse cx="1594.5" cy="353.87" fill="#636363" opacity=".56" rx="5.5" ry="5.18"/><ellipse cx="1594.5" cy="425.43" fill="#636363" opacity=".56" rx="5.5" ry="5.18"/><ellipse cx="1594.5" cy="501.69" fill="#636363" opacity=".56" rx="5.5" ry="5.18"/><ellipse cx="1528.5" cy="82.72" fill="#636363" opacity=".56" rx="5.5" ry="5.18"/><ellipse cx="1453.5" cy="501.69" fill="#636363" opacity=".56" rx="5.5" ry="5.18"/><ellipse cx="1524.5" cy="501.69" fill="#636363" opacity=".56" rx="5.5" ry="5.18"/><ellipse cx="1594.5" cy="82.72" fill="#636363" opacity=".56" rx="5.5" ry="5.18"/><path d="m1642 38h322v515h-322z" fill="#8e8e8e" stroke="#3d3d3f" stroke-miterlimit="10" stroke-width="6"/><path d="m1661 53.06h272v470.75h-272z" fill="#636363"/><path d="m1670 58.71h272v470.75h-272z" fill="#a5a5a5" opacity=".78"/><ellipse cx="1696.5" cy="82.72" fill="#636363" opacity=".56" rx="5.5" ry="5.18"/><ellipse cx="1771.5" cy="82.72" fill="#636363" opacity=".56" rx="5.5" ry="5.18"/><ellipse cx="1695.5" cy="149.57" fill="#636363" opacity=".56" rx="5.5" ry="5.18"/><ellipse cx="1695.5" cy="223" fill="#636363" opacity=".56" rx="5.5" ry="5.18"/><ellipse cx="1695.5" cy="287.03" fill="#636363" opacity=".56" rx="5.5" ry="5.18"/><ellipse cx="1695.5" cy="351.99" fill="#636363" opacity=".56" rx="5.5" ry="5.18"/><ellipse cx="1695.5" cy="423.54" fill="#636363" opacity=".56" rx="5.5" ry="5.18"/><ellipse cx="1695.5" cy="500.75" fill="#636363" opacity=".56" rx="5.5" ry="5.18"/><ellipse cx="1908.5" cy="151.45" fill="#636363" opacity=".56" rx="5.5" ry="5.18"/><ellipse cx="1908.5" cy="224.89" fill="#636363" opacity=".56" rx="5.5" ry="5.18"/><ellipse cx="1908.5" cy="288.91" fill="#636363" opacity=".56" rx="5.5" ry="5.18"/><ellipse cx="1908.5" cy="353.87" fill="#636363" opacity=".56" rx="5.5" ry="5.18"/><ellipse cx="1908.5" cy="425.43" fill="#636363" opacity=".56" rx="5.5" ry="5.18"/><ellipse cx="1908.5" cy="501.69" fill="#636363" opacity=".56" rx="5.5" ry="5.18"/><ellipse cx="1842.5" cy="82.72" fill="#636363" opacity=".56" rx="5.5" ry="5.18"/><ellipse cx="1767.5" cy="501.69" fill="#636363" opacity=".56" rx="5.5" ry="5.18"/><ellipse cx="1838.5" cy="501.69" fill="#636363" opacity=".56" rx="5.5" ry="5.18"/><ellipse cx="1908.5" cy="82.72" fill="#636363" opacity=".56" rx="5.5" ry="5.18"/><path d="m1964 38h322v515h-322z" fill="#8e8e8e" stroke="#3d3d3f" stroke-miterlimit="10" stroke-width="6"/><path d="m1983 53.06h272v470.75h-272z" fill="#636363"/><path d="m1992 58.71h272v470.75h-272z" fill="#a5a5a5" opacity=".78"/><ellipse cx="2018.5" cy="82.72" fill="#636363" opacity=".56" rx="5.5" ry="5.18"/><ellipse cx="2093.5" cy="82.72" fill="#636363" opacity=".56" rx="5.5" ry="5.18"/><ellipse cx="2017.5" cy="149.57" fill="#636363" opacity=".56" rx="5.5" ry="5.18"/><ellipse cx="2017.5" cy="223" fill="#636363" opacity=".56" rx="5.5" ry="5.18"/><ellipse cx="2017.5" cy="287.03" fill="#636363" opacity=".56" rx="5.5" ry="5.18"/><ellipse cx="2017.5" cy="351.99" fill="#636363" opacity=".56" rx="5.5" ry="5.18"/><ellipse cx="2017.5" cy="423.54" fill="#636363" opacity=".56" rx="5.5" ry="5.18"/><ellipse cx="2017.5" cy="500.75" fill="#636363" opacity=".56" rx="5.5" ry="5.18"/><ellipse cx="2230.5" cy="151.45" fill="#636363" opacity=".56" rx="5.5" ry="5.18"/><ellipse cx="2230.5" cy="224.89" fill="#636363" opacity=".56" rx="5.5" ry="5.18"/><ellipse cx="2230.5" cy="288.91" fill="#636363" opacity=".56" rx="5.5" ry="5.18"/><ellipse cx="2230.5" cy="353.87" fill="#636363" opacity=".56" rx="5.5" ry="5.18"/><ellipse cx="2230.5" cy="425.43" fill="#636363" opacity=".56" rx="5.5" ry="5.18"/><ellipse cx="2230.5" cy="501.69" fill="#636363" opacity=".56" rx="5.5" ry="5.18"/><ellipse cx="2164.5" cy="82.72" fill="#636363" opacity=".56" rx="5.5" ry="5.18"/><ellipse cx="2089.5" cy="501.69" fill="#636363" opacity=".56" rx="5.5" ry="5.18"/><ellipse cx="2160.5" cy="501.69" fill="#636363" opacity=".56" rx="5.5" ry="5.18"/><ellipse cx="2230.5" cy="82.72" fill="#636363" opacity=".56" rx="5.5" ry="5.18"/><path d="m1146.52 315.69v-7.6h-7.59v-7.59h15.19v7.59h22.78v-15.18h-22.78v-7.6h7.59v-7.59h7.59v-7.6h-22.78v-7.59h45.56v7.59h-7.59v7.6h-7.59v7.59h7.59v7.6h7.59v15.18h-7.59v7.6z" fill="#505164" stroke="#000" stroke-miterlimit="10"/><path d="m1150 317.19v-7.6h-7.59v-7.59h15.19v7.59h22.78v-15.18h-22.78v-7.6h7.59v-7.59h7.59v-7.6h-22.78v-7.62h45.56v7.59h-7.56v7.6h-7.59v7.59h7.59v7.6h7.59v15.18h-7.59v7.6z" fill="#e2744b"/><path d="m1150 314h38v3h-38z" fill="#db5f42"/><path d="m1150 264h46v3h-46z" fill="#ea9a81"/><path d="m1150 317.19v-7.6h-7.59v-7.59h15.19v7.59h22.78v-15.18h-22.78v-7.6h7.59v-7.59h7.59v-7.6h-22.78v-7.62h45.56v7.59h-7.56v7.6h-7.59v7.59h7.59v7.6h7.59v15.18h-7.59v7.6z" fill="none" stroke="#000" stroke-miterlimit="10"/><path d="m1454.93 312.69v-15.19h7.59v-7.59h7.6v-7.6h15.18v-7.59h7.6v-7.6h-22.78v7.6h-15.19v-7.6h7.59v-7.59h38v7.59h7.59v15.19h-7.59v7.6h-7.59v7.59h-15.19v7.59h30.37v7.6z" fill="#505164" stroke="#000" stroke-miterlimit="10"/><path d="m1458.43 314.19v-15.19h7.57v-7.59h7.6v-7.6h15.18v-7.59h7.6v-7.6h-22.78v7.6h-15.19v-7.6h7.59v-7.62h38v7.59h7.59v15.19h-7.59v7.6h-7.59v7.62h-15.19v7.59h30.37v7.6z" fill="#e2744b"/><path d="m1466 261h38v3h-38z" fill="#ea9a81"/><path d="m1458 311h54v3h-54z" fill="#db5f42"/><path d="m1458.43 314.19v-15.19h7.57v-7.59h7.6v-7.6h15.18v-7.59h7.6v-7.6h-22.78v7.6h-15.19v-7.6h7.59v-7.62h38v7.59h7.59v15.19h-7.59v7.6h-7.59v7.62h-15.19v7.59h30.37v7.6z" fill="none" stroke="#000" stroke-miterlimit="10"/><path d="m1778.52 314.69v-7.6h15.19v-30.37h-7.59v-7.6h7.59v-7.59h15.19v45.56h15.18v7.6z" fill="#505164" stroke="#000" stroke-miterlimit="10"/><path d="m1781.52 316.69v-7.6h15.19v-30.37h-7.59v-7.6h7.59v-7.59h15.19v45.56h15.18v7.6z" fill="#e2744b"/><path d="m1797 264h15v3h-15z" fill="#ea9a81"/><path d="m1781 314h46v3h-46z" fill="#db5f42"/><path d="m1781.52 316.69v-7.6h15.19v-30.37h-7.59v-7.6h7.59v-7.59h15.19v45.56h15.18v7.6z" fill="none" stroke="#000" stroke-miterlimit="10"/><path d="m2057.93 273.83v-25.3h21.68v3.61h3.61v7.23h-3.61v3.63h3.61v7.23h-3.61v3.62zm7.23-14.46h10.84v-7.23h-10.84zm0 10.84h10.84v-7.21h-10.84z" fill="#505164" stroke="#000" stroke-miterlimit="10"/><path d="m2090.45 273.83v-3.62h7.23v-18.07h-3.62v-3.61h10.85v21.68h7.22v3.62z" fill="#505164" stroke="#000" stroke-miterlimit="10"/><path d="m2119.36 273.83v-3.62h-3.61v-3.61h3.61v-3.6h14.45v-3.61h-14.45v-3.61h18.07v3.61h3.57v14.46zm3.61-3.62h10.84v-3.61h-10.81z" fill="#505164" stroke="#000" stroke-miterlimit="10"/><path d="m2144.65 273.83v-3.62h18.07v-3.61h-14.45v-3.6h-3.62v-3.61h3.62v-3.61h18.07v3.61h-14.46v3.61h14.46v3.62h3.66v3.61h-3.61v3.62z" fill="#505164" stroke="#000" stroke-miterlimit="10"/><path d="m2184.4 273.83v-14.46h-7.22v-3.61h7.22v-7.23h7.23v7.23h7.23v3.61h-7.23v14.46z" fill="#505164" stroke="#000" stroke-miterlimit="10"/><path d="m2060.07 275v-25.28h21.68v3.61h3.62v7.23h-3.62v3.61h3.62v7.23h-3.62v3.6zm7.23-14.45h10.84v-7.23h-10.84zm0 10.84h10.84v-7.23h-10.84z" fill="#e2744b"/><path d="m2092.59 275v-3.6h7.23v-18.07h-3.61v-3.61h10.84v21.68h7.22v3.6z" fill="#e2744b"/><path d="m2121.5 275v-3.6h-3.61v-3.61h3.61v-3.62h14.5v-3.61h-14.5v-3.56h18.07v3.61h3.61v14.39zm3.61-3.61h10.89v-3.61h-10.85z" fill="#e2744b"/><path d="m2146.8 275v-3.6h18.06v-3.61h-14.45v-3.62h-3.61v-3.61h3.61v-3.56h18.07v3.61h-14.48v3.61h14.46v3.62h3.61v3.61h-3.61v3.55z" fill="#e2744b"/><path d="m2186.55 275v-14.44h-7.23v-3.56h7.23v-7.23h7.22v7.23h7.23v3.61h-7.23v14.39z" fill="#e2744b"/><path d="m2060.07 275v-25.28h21.68v3.61h3.62v7.23h-3.62v3.61h3.62v7.23h-3.62v3.6zm7.23-14.45h10.84v-7.23h-10.84zm0 10.84h10.84v-7.23h-10.84z" fill="none" stroke="#000" stroke-miterlimit="10" stroke-width="1.3"/><path d="m2092.59 275v-3.6h7.23v-18.07h-3.61v-3.61h10.84v21.68h7.22v3.6z" fill="none" stroke="#000" stroke-miterlimit="10" stroke-width="1.3"/><path d="m2121.5 275v-3.6h-3.61v-3.61h3.61v-3.62h14.5v-3.61h-14.5v-3.56h18.07v3.61h3.61v14.39zm3.61-3.61h10.89v-3.61h-10.85z" fill="none" stroke="#000" stroke-miterlimit="10" stroke-width="1.3"/><path d="m2146.8 275v-3.6h18.06v-3.61h-14.45v-3.62h-3.61v-3.61h3.61v-3.56h18.07v3.61h-14.48v3.61h14.46v3.62h3.61v3.61h-3.61v3.55z" fill="none" stroke="#000" stroke-miterlimit="10" stroke-width="1.3"/><path d="m2186.55 275v-14.44h-7.23v-3.56h7.23v-7.23h7.22v7.23h7.23v3.61h-7.23v14.39z" fill="none" stroke="#000" stroke-miterlimit="10" stroke-width="1.3"/><path d="m2064.25 323.68v-5.94h-5.94v-29.67h5.94v-5.93h29.67v5.93h5.94v29.67h-5.94v5.94zm5.93-5.94h17.82v-29.67h-17.81z" fill="#505164" stroke="#000" stroke-miterlimit="10"/><path d="m2123.59 323.68v-23.74h-11.86v-5.94h11.86v-5.93h5.94v-5.93h17.8v5.93h-11.87v5.93h11.87v5.94h-11.87v23.74z" fill="#505164" stroke="#000" stroke-miterlimit="10"/><path d="m2171.07 323.68v-23.74h-11.87v-5.94h11.87v-5.93h5.93v-5.93h17.81v5.93h-11.87v5.93h11.87v5.94h-11.87v23.74z" fill="#505164" stroke="#000" stroke-miterlimit="10"/><path d="m2067.77 326v-5.93h-5.93v-29.66h5.93v-5.93h29.67v5.93h5.94v29.68h-5.94v5.91zm5.94-5.93h17.8v-29.66h-17.8z" fill="#e2744b"/><path d="m2127.12 326v-23.72h-11.87v-5.93h11.87v-5.94h5.93v-5.93h17.8v5.93h-11.85v5.94h11.87v5.93h-11.87v23.72z" fill="#e2744b"/><path d="m2174.59 326v-23.72h-11.87v-5.93h11.87v-5.94h5.94v-5.93h17.8v5.93h-11.87v5.94h11.87v5.93h-11.87v23.72z" fill="#e2744b"/><path d="m2067.77 326v-5.93h-5.93v-29.66h5.93v-5.93h29.67v5.93h5.94v29.68h-5.94v5.91zm5.94-5.93h17.8v-29.66h-17.8z" fill="none" stroke="#000" stroke-miterlimit="10" stroke-width="1.3"/><path d="m2127.12 326v-23.72h-11.87v-5.93h11.87v-5.94h5.93v-5.93h17.8v5.93h-11.85v5.94h11.87v5.93h-11.87v23.72z" fill="none" stroke="#000" stroke-miterlimit="10" stroke-width="1.3"/><path d="m2174.59 326v-23.72h-11.87v-5.93h11.87v-5.94h5.94v-5.93h17.8v5.93h-11.87v5.94h11.87v5.93h-11.87v23.72z" fill="none" stroke="#000" stroke-miterlimit="10" stroke-width="1.3"/><ellipse cx="1166.55" cy="288.57" fill="url(#d)" rx="65.55" ry="62.57"/><ellipse cx="1487.55" cy="290.57" fill="url(#e)" rx="65.55" ry="62.57"/><ellipse cx="1803.55" cy="289.57" fill="url(#f)" rx="65.55" ry="62.57"/></svg>