<svg xmlns="http://www.w3.org/2000/svg" width="234" height="225" viewBox="0 0 234 225"><title>World_Space</title><g id="Layer_7" data-name="Layer 7"><path d="M69.06,22.13c.66-.34,1.32-.69,2-1-.66.33-1.32.68-2,1Z" style="fill:#71d0f6"/><path d="M60.28,27.26,62.22,26l-1.94,1.25Z" style="fill:#71d0f6"/><path d="M65.26,24.2c.65-.37,1.31-.73,2-1.09-.66.36-1.32.72-2,1.09Z" style="fill:#71d0f6"/><path d="M160.59,19.09c1.81.79,3.57,1.63,5.31,2.52-1.74-.88-3.5-1.73-5.31-2.52" style="fill:#71d0f6"/><path d="M132,161.94c.63-.9,1.7-1.21,2.12-2.49,6.79,3.33,12.35,13.77,8.17,21.29-4.54,8.15-7.92,1.23-9.9-5.68a79.06,79.06,0,0,1-2-9.38l1.65-3.74m-56.66,50.8A105.79,105.79,0,0,0,165.93,21.62Q168.52,23,171,24.39c2,3.94,1.37,10,2.07,13.76,1.36,7.18.62,4.94,5.64,9.54C189,57.06,190.31,61,191.51,73.74c5,2.1,7.14,9.69,8.27,14.77,1.45,6.45-1.16,6.46-5.56,11.43,3.86,1.2,7.85,2.67,5.87,7l1.14.81c-9.47,8.13,3,11.1,2,20.35-5.76,5.05-9.85-.08-13.94-5.2-3.13-3.92-6.26-7.83-10.16-7.21-5.27.83-.35,15.82-9.34,11.12-3.54-1.85-5.63-11.29-8-14.32-1.27-1.64-5.55-4.66-7.28-5.84.13.09-1.92-.86-3.8-1.8s-3.71-1.94-2.81-1.8c-2.28-.36-6.29-.73-8.34,1.46-3,3.25.94,18.44-8.42,10.64-2.76-2.31-1.36-9.21-2.56-12.8-.72-2.14-5.12-11.16-7-12.06-6.23-2.92-8.32,3.31-13.76,6.52-7.61,4.49-10.46,2.5-14.56-1.93a10.58,10.58,0,0,0-1.38,6.4c4.41,2.39,9.18,3.07,13.48,5.33-.77.69-1.36,2.55-2.08,3.26,8.06,4.08,12.61,14.32,7.9,22.4-2.7,4.63-5.48,2.83-6.06,9.11-.21,2.28,1,7,1.73,9.24,2.41,7.44,7.45,11.45,8.53,19.13,1.15,8.12,2.5,20.36,11.1,24.7-2.83,16.9-23-1-28.74-5.44-4.42-3.43-9.44-8.8-14.7-11.16-7.67-3.44-11.54-3.57-16.12-11.58C63.34,160,63,154.87,55.08,152.18c-7.1-2.41-15.85-1.9-20.9-9.4-5.55-8.22,2.92-11.82,2.63-20.08-.27-7.82-4.73-8.3,1-16.53,1.24-1.76,5.44-5.12,5.85-7.17.69-3.39-2.63-5.42-1.57-8.73,2-6.28,10.76-7.08,15.44-8.18,9.54-2.21,7.82-.61,14.82,4.32,5.38,3.8,8.54,2.1,12.41.8-4.74-3.83-9.06-8.39-.83-11.43A91.49,91.49,0,0,1,69.87,70.2c-.15-.47-.8-3.5-.9-4,2.81-6.28,15.79-3.66,19-11.13C91.46,47.15,84.18,41,98.34,43.44c3.09-5,.07-9.15-4.87-10.92a18.29,18.29,0,0,0-7.81-.65,17.32,17.32,0,0,1-5.86-.24c-1.89-.52-1.66-3.59-5.87-3.49-2.34.05-3.51,2.82-5.13,3.14-4.88,1-7.4.77-12.08-1.62.62-.44,1.25-.86,1.88-1.29A105.78,105.78,0,0,0,75.35,212.74" style="fill:#71d0f6"/><path d="M68.8,31.28c1.62-.32,2.79-3.09,5.13-3.14,4.21-.1,4,3,5.87,3.49a17.32,17.32,0,0,0,5.86.24,18.29,18.29,0,0,1,7.81.65c4.94,1.77,8,5.91,4.87,10.92C84.18,41,91.46,47.15,88,55.09c-3.25,7.47-16.23,4.85-19,11.13.1.48.75,3.51.9,4A91.49,91.49,0,0,0,84,75.78c-8.23,3-3.91,7.6.83,11.43-3.87,1.3-7,3-12.41-.8-7-4.93-5.28-6.53-14.82-4.32-4.68,1.1-13.43,1.9-15.44,8.18-1.06,3.31,2.26,5.34,1.57,8.73-.41,2-4.61,5.41-5.85,7.17-5.76,8.23-1.3,8.71-1,16.53.29,8.26-8.18,11.86-2.63,20.08,5,7.5,13.8,7,20.9,9.4,7.9,2.69,8.26,7.86,11.84,14.12,4.58,8,8.45,8.14,16.12,11.58,5.26,2.36,10.28,7.73,14.7,11.16,5.78,4.47,25.91,22.34,28.74,5.44-8.6-4.34-10-16.58-11.1-24.7-1.08-7.68-6.12-11.69-8.53-19.13-.71-2.22-1.94-7-1.73-9.24.58-6.28,3.36-4.48,6.06-9.11,4.71-8.08.16-18.32-7.9-22.4.72-.71,1.31-2.57,2.08-3.26-4.3-2.26-9.07-2.94-13.48-5.33a10.58,10.58,0,0,1,1.38-6.4c4.1,4.43,6.95,6.42,14.56,1.93,5.44-3.21,7.53-9.44,13.76-6.52,1.89.9,6.29,9.92,7,12.06,1.2,3.59-.2,10.49,2.56,12.8,9.36,7.8,5.38-7.39,8.42-10.64,2.05-2.19,6.06-1.82,8.34-1.46-.9-.14.87.83,2.81,1.8s3.93,1.89,3.8,1.8c1.73,1.18,6,4.2,7.28,5.84,2.34,3,4.43,12.47,8,14.32,9,4.7,4.07-10.29,9.34-11.12,3.9-.62,7,3.29,10.16,7.21,4.09,5.12,8.18,10.25,13.94,5.2,1-9.25-11.45-12.22-2-20.35l-1.14-.81c2-4.36-2-5.83-5.87-7,4.4-5,7-5,5.56-11.43-1.13-5.08-3.24-12.67-8.27-14.77-1.2-12.75-2.53-16.68-12.79-26-5-4.6-4.28-2.36-5.64-9.54-.7-3.72-.05-9.82-2.07-13.76q-2.49-1.44-5.08-2.77h0c-1.74-.89-3.5-1.73-5.31-2.52-1.48-.66-3-1.26-4.47-1.84L155,16.82c-1.48-.55-3-1.09-4.47-1.57l-.26-.08c-1.43-.46-2.85-.88-4.29-1.27l-1.18-.32c-1.49-.4-3-.77-4.47-1.09l-.55-.11c-1.34-.28-2.68-.53-4-.77l-1.28-.21c-1.46-.23-2.93-.44-4.39-.61l-.85-.08q-1.86-.2-3.72-.33l-1.41-.1c-1.42-.08-2.84-.14-4.26-.16h-1.15c-1.12,0-2.25,0-3.37,0-.52,0-1,0-1.55,0-1.37.05-2.73.13-4.09.24-.48,0-1,.09-1.43.13-1,.09-2,.2-3,.33-.57.07-1.13.13-1.69.21-1.31.18-2.61.38-3.9.61L98,12c-.9.17-1.78.35-2.67.55L93.5,13c-1.23.29-2.46.61-3.68.95L88,14.48q-1.18.35-2.34.72l-1.92.63c-1.16.4-2.32.82-3.46,1.25-.66.25-1.3.52-2,.78s-1.37.56-2,.86-1.33.56-2,.86c-1.09.49-2.17,1-3.25,1.53-.66.33-1.32.68-2,1l-1.83,1c-.66.36-1.32.72-2,1.09-1,.59-2,1.19-3,1.81l-1.94,1.25q-.86.54-1.68,1.11c-.63.43-1.26.85-1.88,1.29,4.68,2.39,7.2,2.59,12.08,1.62" style="fill:#1cb78d"/><path d="M142.3,180.74c4.18-7.52-1.38-18-8.17-21.29-.42,1.28-1.49,1.59-2.12,2.49l-1.65,3.74a79.06,79.06,0,0,0,2,9.38c2,6.91,5.36,13.83,9.9,5.68" style="fill:#1cb78d"/></g></svg>