<svg height="83" viewBox="0 0 94 83" width="94" xmlns="http://www.w3.org/2000/svg"><path d="m46.84 73a31.35 31.35 0 1 1 31.36-31.07 31.35 31.35 0 0 1 -31.36 31.07zm28.25-23.92a.14.14 0 0 0 .1-.16l.16-.53a28.65 28.65 0 0 0 .71-8.89 14.12 14.12 0 0 0 -.58-3.8 19.92 19.92 0 0 0 -.71-3 28.88 28.88 0 0 0 -3.88-7.8 4.76 4.76 0 0 0 -.89-1.17 7.19 7.19 0 0 0 -1.21-1.48 2.12 2.12 0 0 0 -.27-.34 28.71 28.71 0 0 0 -11.13-7.57 10.17 10.17 0 0 0 -3-.88 4.76 4.76 0 0 0 -1-.34 31 31 0 0 0 -5.62-.66c-.23 0-.5-.1-.71.11a.71.71 0 0 0 -.26-.05.86.86 0 0 1 -.13 0 27.28 27.28 0 0 0 -11.08 2.24 26.61 26.61 0 0 0 -7.59 4.67 9.82 9.82 0 0 0 -1.88 1.82c-.26.08-.39.29-.58.47a29.16 29.16 0 0 0 -5.09 7.49c-.13.29-.39.56-.37.93a4.5 4.5 0 0 0 -.63 1.74 2.42 2.42 0 0 0 -.24.42 27.79 27.79 0 0 0 -1.5 7.78 29.91 29.91 0 0 0 1 9.55 26.26 26.26 0 0 0 2.08 5.2c.11.23.19.47.29.68a29.1 29.1 0 0 0 7.2 8.79 20.54 20.54 0 0 0 3.83 2.61 13.17 13.17 0 0 0 3.06 1.5 2.28 2.28 0 0 0 1 .53 27.93 27.93 0 0 0 6.83 1.74l2.66.24a26.51 26.51 0 0 0 6.76-.48c9.47-2 16.35-7.33 20.78-15.9.08-.16.19-.29.13-.48.4-.29.4-.76.56-1.13a14.81 14.81 0 0 0 1.18-3.72c-.07-.11-.01-.11.02-.13z" fill="#333"/><path d="m35.13 68.36a14.52 14.52 0 0 1 -3.06-1.51c-.06-.21-.11-.39-.16-.6a26.54 26.54 0 0 1 -1.66-6.76 50.76 50.76 0 0 1 1.39-15c.85-3.77 1.82-7.49 4-10.79.21-.32 0-.4-.21-.48-1-.31-1.9-.68-2.85-1a22.56 22.56 0 0 0 -6.45-1.22c-1.08 0-1.11 0-1.5 1a53.67 53.67 0 0 0 -3.63 14.6c-.26 2.71-.26 5.43-.29 8.17a26.67 26.67 0 0 1 -2.08-5.19c.13-.11.07-.27.1-.43a49.28 49.28 0 0 1 2.72-14.24c.47-1.29 1-2.58 1.53-3.88a10 10 0 0 0 -3.62.82 5.14 5.14 0 0 1 .64-1.74 10.69 10.69 0 0 1 1.18-.37 19.57 19.57 0 0 1 9.1.08 40.55 40.55 0 0 1 13.27 5.57 14.35 14.35 0 0 1 5.17 5.38c.16.31.32.18.5.08l6-4a.41.41 0 0 0 .18-.58 9 9 0 0 0 -.95-2 23.34 23.34 0 0 0 -5.72-5.54 43.53 43.53 0 0 0 -10-5.12 37.53 37.53 0 0 0 -7.33-2.21 25 25 0 0 0 -5.33-.16 11.1 11.1 0 0 1 1.93-1.84 31.24 31.24 0 0 1 4.33.18 38.81 38.81 0 0 1 7.75 2.42 42.84 42.84 0 0 1 11.32 6.05c2.45 1.93 4.75 4 5.8 7.1.14.42.35.16.5.05 1.14-.76 2.27-1.53 3.35-2.32a22.6 22.6 0 0 0 4.41-4.27c.13-.19.29-.32.18-.61a21.66 21.66 0 0 0 -3.64-6 27.86 27.86 0 0 0 -9.63-7.13c-1.73-.87-3.58-1.59-5.37-2.3.21-.19.47-.11.71-.11a34.34 34.34 0 0 1 5.62.66 3.81 3.81 0 0 1 1 .34c0 .19.26.19.39.27a29 29 0 0 1 7.84 5.59 18.71 18.71 0 0 1 4.44 6.91 17.32 17.32 0 0 0 1.68-3.95 9.52 9.52 0 0 1 1.22 1.47 18.59 18.59 0 0 1 -4.22 7.57 34.19 34.19 0 0 1 -7.55 5.94c-.45.26-.66.79-1.16.92a5.28 5.28 0 0 0 -1.63.9c-1.34.92-2.78 1.92-4.23 2.69a11.48 11.48 0 0 1 -3.85 1.66c-.37 0-.5.16-.58.48a68.53 68.53 0 0 0 -1.85 9.57c0 .45 0 .53.45.34 2.85-1.34 5.91-2.13 8.86-3.21a36.21 36.21 0 0 0 8-3.75 35.71 35.71 0 0 0 12.31-13.14 1.48 1.48 0 0 0 .32-1 19.1 19.1 0 0 1 .71 3c-3.58 6.34-8.48 11.51-15.06 14.62a82 82 0 0 1 -15.27 5.54c-.45.11-.61.29-.63.74 0 .87-.14 1.71-.19 2.58a49 49 0 0 0 0 6.18c0 .21-.11.58.34.47a10.3 10.3 0 0 0 1.82-.45c1.32-.63 2.74-1.05 4.12-1.55 9.15-3.27 17.72-7.47 24.53-14.67a13.25 13.25 0 0 1 -1.24 3.72c-.16.4-.18.87-.55 1.13-.27 0-.4.22-.58.35a51.18 51.18 0 0 1 -6 4.32 84.09 84.09 0 0 1 -16.59 7.55c-1.63.58-3.27 1.16-5 1.58-.39.11-.47.24-.34.61.29.81.55 1.63.82 2.42l-2.66-.23c.08-.24-.08-.4-.16-.58a16.68 16.68 0 0 1 -1-4.22 62.29 62.29 0 0 1 .16-8.31c.08-1.69 0-3.41.84-5a.66.66 0 0 0 .05-.32 51.11 51.11 0 0 1 1.9-7.81 10.41 10.41 0 0 1 1.3-2.79c.21-.29.76-.4.63-.82a3 3 0 0 0 -.69-1c-.13-.16-.29-.32-.42-.45a25 25 0 0 0 -7.38-5 .77.77 0 0 0 -1.19.37 22.76 22.76 0 0 0 -1.9 4.64 63.1 63.1 0 0 0 -2.48 13.85 29.18 29.18 0 0 0 .47 9.08 42.93 42.93 0 0 0 2 6.09z" fill="#333"/><g fill="#fcfcfc"><path d="m47 12.54c1.84.71 3.66 1.43 5.43 2.3a28.09 28.09 0 0 1 9.63 7.16 21.1 21.1 0 0 1 3.61 6c.11.29 0 .42-.18.61a22 22 0 0 1 -4.41 4.27c-1.11.79-2.24 1.56-3.35 2.32-.16.11-.37.37-.5-.05-1.03-3.15-3.35-5.15-5.8-7.15a42.85 42.85 0 0 0 -11.32-6.1 42.4 42.4 0 0 0 -7.81-2.37 25.9 25.9 0 0 0 -4.3-.16 26.8 26.8 0 0 1 7.57-4.69 27.34 27.34 0 0 1 11.08-2.24.07.07 0 0 0 .13 0z"/><path d="m74.74 32.69c.11.4-.15.69-.31 1a35.84 35.84 0 0 1 -12.29 13.14 38.81 38.81 0 0 1 -8 3.75c-3 1.08-6 1.87-8.87 3.22-.42.18-.5.1-.44-.35a65.17 65.17 0 0 1 1.84-9.57c.08-.32.24-.42.58-.48a10.83 10.83 0 0 0 3.85-1.66c1.45-.82 2.85-1.77 4.25-2.69a5.58 5.58 0 0 1 1.64-.9c.5-.13.71-.65 1.16-.92a35.67 35.67 0 0 0 7.54-5.93 18.19 18.19 0 0 0 4.22-7.57 3.81 3.81 0 0 1 .92 1.16 27.13 27.13 0 0 1 3.91 7.8z"/><path d="m35.13 68.36a49 49 0 0 1 -2.09-6 28.58 28.58 0 0 1 -.47-9.08 64.85 64.85 0 0 1 2.48-13.85 22.76 22.76 0 0 1 1.95-4.68c.29-.53.58-.68 1.18-.37a24.92 24.92 0 0 1 7.39 5 5.76 5.76 0 0 1 .42.45 4 4 0 0 1 .69 1c.13.42-.43.53-.64.82a11.38 11.38 0 0 0 -1.29 2.79 50 50 0 0 0 -1.9 7.81v.32c-.87 1.55-.77 3.27-.85 5a57.63 57.63 0 0 0 -.07 8.31 18.07 18.07 0 0 0 1 4.22.91.91 0 0 1 .16.58 25.46 25.46 0 0 1 -6.81-1.74 3.21 3.21 0 0 1 -1.15-.58z"/><path d="m75 49.15c-6.77 7.18-15.37 11.37-24.5 14.67a43.37 43.37 0 0 0 -4.11 1.56 11.26 11.26 0 0 1 -1.82.45c-.45.1-.32-.27-.34-.48a47.05 47.05 0 0 1 .05-6.17c0-.87.16-1.72.18-2.59a.69.69 0 0 1 .64-.74 81.46 81.46 0 0 0 15.27-5.54c6.63-3.11 11.47-8.25 15.06-14.61a14.52 14.52 0 0 1 .57 3.8 28.65 28.65 0 0 1 -.71 8.89c0 .18-.11.37-.16.53a.66.66 0 0 1 -.11.16s-.02.02-.02.07z"/><path d="m20.78 54.75c0-2.72 0-5.46.29-8.18a52.94 52.94 0 0 1 3.58-14.67c.4-1 .43-1 1.51-1a22.14 22.14 0 0 1 6.43 1.34c.95.29 1.9.66 2.85 1 .24.08.42.16.21.47-2.16 3.3-3.14 7-4 10.79a51.24 51.24 0 0 0 -1.4 15 26.06 26.06 0 0 0 1.66 6.75 3.89 3.89 0 0 1 .16.61 21.15 21.15 0 0 1 -3.82-2.61 29 29 0 0 1 -7.2-8.79 2.54 2.54 0 0 1 -.27-.71z"/><path d="m26.08 21.19a27.9 27.9 0 0 1 5.33.16 35.61 35.61 0 0 1 7.33 2.22 41.64 41.64 0 0 1 10 5.12 22.94 22.94 0 0 1 5.72 5.53 8.61 8.61 0 0 1 .95 2 .41.41 0 0 1 -.18.58c-2 1.31-4 2.66-6 4-.18.13-.34.24-.5-.08a14.14 14.14 0 0 0 -5.17-5.38 39.49 39.49 0 0 0 -13.27-5.57 19.71 19.71 0 0 0 -9.1-.08c-.39.08-.79.27-1.18.37-.06-.37.21-.6.37-.92a28.67 28.67 0 0 1 5.09-7.49 1.56 1.56 0 0 1 .61-.46z"/><path d="m45.65 70.84c-.26-.82-.53-1.64-.82-2.43-.13-.37 0-.5.35-.61 1.68-.42 3.32-1 5-1.58a84.14 84.14 0 0 0 16.6-7.54 48.77 48.77 0 0 0 6-4.33c.16-.13.32-.37.58-.34.05.18 0 .31-.13.47a29.07 29.07 0 0 1 -20.83 15.91 26.38 26.38 0 0 1 -6.75.45z"/><path d="m19.4 31.8a9.77 9.77 0 0 1 3.6-.8c-.56 1.32-1.06 2.58-1.53 3.88a49.4 49.4 0 0 0 -2.7 14.22.51.51 0 0 1 -.1.42 29.51 29.51 0 0 1 -1-9.55 28.07 28.07 0 0 1 1.5-7.78c.05-.13.15-.26.23-.39z"/><path d="m68.7 22.25a19.07 19.07 0 0 1 -1.68 4 18.67 18.67 0 0 0 -4.51-6.92 28.55 28.55 0 0 0 -7.84-5.59c-.13-.08-.34 0-.39-.26a10.87 10.87 0 0 1 3 .87 29.16 29.16 0 0 1 11.13 7.57 2.09 2.09 0 0 1 .29.33z"/></g><path d="m46.76 12.46a.07.07 0 0 1 -.13 0s.08 0 .13 0z" fill="#4c4c4c"/><path d="m75.09 49.08a.39.39 0 0 1 .1-.16c.03.08-.02.13-.1.16z" fill="#4c4c4c"/><path d="m45.24 20.93.53 5.81-4.05.57 9.84 13.49 8.69-12.36-4.25-1.11.6-5.79a31 31 0 0 1 15.4 7.83l-2.8 4.44-3.72-3-4.75 6.79c-2.15 3.1-4.31 6.18-6.45 9.29a2.4 2.4 0 0 0 -.38 1.21v6.57l4.39-.81 1.22 5.52a39.18 39.18 0 0 1 -20.75.19l.92-5.57 4.22.74c0-1.77-.08-3.42 0-5.06a5.19 5.19 0 0 0 -1.19-3.81c-3.52-4.57-7-9.23-10.43-13.86-.17-.24-.35-.46-.62-.81l-3.35 2.76-2.91-4.37c1.99-3.71 14.81-9.32 19.84-8.66z" fill="#2e3192" opacity=".98"/></svg>