<svg xmlns="http://www.w3.org/2000/svg" xmlns:xlink="http://www.w3.org/1999/xlink" width="4615" height="1495" viewBox="0 0 4615 1495"><defs><clipPath id="clip-path"><rect width="4615" height="632.4" style="fill:#4e4e51"/></clipPath><radialGradient id="radial-gradient" cx="-20.45" cy="334.57" r="64.08" gradientUnits="userSpaceOnUse"><stop offset="0" stop-color="#cc4c3d"/><stop offset="0.21" stop-color="#ca4a3b" stop-opacity="0.74"/><stop offset="0.48" stop-color="#c74738" stop-opacity="0.43"/><stop offset="0.72" stop-color="#c64536" stop-opacity="0.2"/><stop offset="0.9" stop-color="#c44334" stop-opacity="0.05"/><stop offset="1" stop-color="#c44334" stop-opacity="0"/></radialGradient><radialGradient id="radial-gradient-2" cx="303.55" cy="334.57" r="64.08" xlink:href="#radial-gradient"/><radialGradient id="radial-gradient-3" cx="627.55" cy="334.57" r="64.08" xlink:href="#radial-gradient"/><radialGradient id="radial-gradient-4" cx="946.55" cy="334.57" r="64.08" xlink:href="#radial-gradient"/><radialGradient id="radial-gradient-5" cx="1267.55" cy="336.57" r="64.08" xlink:href="#radial-gradient"/><radialGradient id="radial-gradient-6" cx="1583.55" cy="335.57" r="64.08" xlink:href="#radial-gradient"/></defs><title>World_Space</title><g id="Layer_6" data-name="Layer 6"><path d="M197.22,187.17,145.36,210a57.3,57.3,0,0,1-22-4.17,75.9,75.9,0,0,0-7.93-2.79l-27.31-7.73C72.49,190.88,59,182.15,49.9,170.5h0C34.07,150.33,6,159.22-22.22,162.65l-57.11,6.93c-23.08,2.8-46.37-3.8-62.86-17.81l-4.15-3.52c-18.4-15.63-45.11-21.92-70.36-16.56l-68.65,14.59c-30.37,6.45-62.24-4-79.61-26.16l-42.83-54.58A37.29,37.29,0,0,1-416,42.49h0c-1-10.12,0-16.92,0-28C-416,10-417.41,1-416,.93c16-.85,31.81,0,48.91,0H535.09C562.1.93,584,19.54,584,42.49V76.64c0,23-21.9,41.55-48.91,41.55l-76,9.8a17.18,17.18,0,0,1-6.47-.41c-9.22-2.41-27.66-11.94-39.66-11.94-55.41,0-57.81,4.19-75,46.74-6.67,16.5-42,11.89-55,17-4.13,1.62-17.16,7.27-21.44,8.57h0a49.62,49.62,0,0,1-32.46-1.31h0A41.79,41.79,0,0,0,197.22,187.17Z" style="fill:#3d3d3f"/><path d="M1161,0c-5.31-5.83,4.88,105.14-1.64,99.48s-22.76-10.93-38.06-9.38c-16,1.6-20,9.05-21.3,15.31-2.48,11.21-5,22.43-7.53,33.65-.92,4.3-4.29,9.59-15.73,10.17-7.93.37-15.82-2-19.48-4.76s-4.1-5.87-4.65-8.89a83.58,83.58,0,0,0-8.31-23.3c-2.47-4.65-5.82-9.55-14.85-13s-25.89-4.59-33.28-1c-5.34,2.59-4,6.34-3.9,9.72s-3,7.38-11.82,7.94C963.18,117,957.78,105,940.26,103.32A43.27,43.27,0,0,0,918.45,107c-5.13,2.44-8.79,5.39-15.29,7.33-16.06,4.79-42.32,1.59-60.92,5-17,3.15-23,10.83-34.27,16.49-21.78,10.95-62.47,13.82-92.2,21.77-24.87,6.65-41.19,16.68-57,26.45-103.76,3.81-82.39-72.69-127-51.9C498,147.93,462.29,126.73,460,125c-8.66-6.56,75-131.46,97.11-123.37a19.06,19.06,0,0,0,6.26,1.07" style="fill:#3d3d3f"/><path d="M618.22,186.17,566.36,209a57.3,57.3,0,0,1-22-4.17,75.9,75.9,0,0,0-7.93-2.79l-27.31-7.73c-15.62-4.43-29.07-13.16-38.21-24.81h0c-15.83-20.17-43.88-11.28-72.12-7.85l-57.11,6.93c-23.08,2.8-46.37-3.8-62.86-17.81l-4.15-3.52c-18.4-15.63-45.11-21.92-70.36-16.56l-68.65,14.59c-30.37,6.45-62.24-4-79.61-26.16L13.21,64.54A37.29,37.29,0,0,1,5,41.49H5c-1-10.12,0-16.92,0-28C5,9,3.59,0,5-.07c16-.85,31.81,0,48.91,0H956.09c27,0,48.91,18.61,48.91,41.56V75.64c0,23-21.9,41.55-48.91,41.55l-76,9.8a17.18,17.18,0,0,1-6.47-.41c-9.22-2.41-27.66-11.94-39.66-11.94-55.41,0-57.81,4.19-75,46.74-6.67,16.5-42,11.89-55,17-4.13,1.62-17.16,7.27-21.44,8.57h0a49.62,49.62,0,0,1-32.46-1.31h0A41.79,41.79,0,0,0,618.22,186.17Z" style="fill:#3d3d3f"/><path d="M2115,3.33c-3.59-3.77,0,88.37-47,150.4-1.08,1.43-43.59,33.11-43.55,34.8.06,2.47-1.47,4.82-7.06,5.77-6.26,1.07-14.29-.52-18.37-2.79s-5.25-5-6.42-7.62c-8.3-17.69-14.73-7.87-40-23.67-12.32-7.65-27.84-15.38-50-18.61s-51.17.48-53.71,8.95c-1.09,3.78,2.91,7.64,3.82,11.49s-3.53,8.32-13.67,8.76a42.9,42.9,0,0,1-21.84-5.33c-14.6-8.17-18.6-18-22.32-27.44s-7.92-19.32-22.92-27.4-44-13.68-66.55-10c-17.36,2.8-25.53,9.88-34.75,16s-23.86,12.32-43.34,11.6c-16.11,0-29.21-6.2-34.51-12s-5.89-12-12.41-17.7-22.76-10.93-38.06-9.38c-16,1.6-20,9.05-21.3,15.31-2.48,11.21-5,22.43-7.53,33.65-.92,4.3-4.29,9.59-15.73,10.17-7.93.37-15.82-2-19.48-4.76s-4.1-5.87-4.65-8.89a83.58,83.58,0,0,0-8.31-23.3c-2.47-4.65-5.82-9.55-14.85-13s-25.89-4.59-33.28-1c-5.34,2.59-4,6.34-3.9,9.72s-3,7.38-11.82,7.94c-17.27,1.11-22.67-10.85-40.19-12.57a43.27,43.27,0,0,0-21.81,3.68c-5.13,2.44-8.79,5.39-15.29,7.33-16.06,4.79-42.32,1.59-60.92,5-17,3.15-23,10.83-34.27,16.49-21.78,10.95-62.47,13.82-92.2,21.77-24.87,6.65-41.19,16.68-57,26.45-103.76,3.81-82.39-72.69-127-51.9C919,146.93,883.29,125.73,881,124,872.34,117.43,956-7.47,978.11.62a19.06,19.06,0,0,0,6.26,1.07Z" style="fill:#3d3d3f"/></g></svg>