<svg height="249" viewBox="0 0 360 249" width="360" xmlns="http://www.w3.org/2000/svg"><g fill="#ffd400"><path d="m85.85 157.8c.08.24.15.49.24.73.24.7.51 1.38.78 2.08-.36-.94-.68-1.89-1-2.84z"/><path d="m203.61 28.22q4.27 1 8.39 2.43-4.11-1.39-8.39-2.43"/><path d="m277.85 145.18c-.11.55-.24 1.1-.36 1.65.12-.55.25-1.1.36-1.65"/><path d="m213.54 31.18c.81.29 1.61.59 2.4.89-.79-.31-1.59-.6-2.4-.89"/><path d="m276.86 149.49c-.14.56-.28 1.12-.43 1.68.15-.56.29-1.12.43-1.68"/><path d="m117.41 99.94c24.73-8.24 44-20.15 60.45-40.29 7.32-9.16 13.73-18.32 13.73-31.14 0-.84 0-1.66 0-2.45q3.1.36 6.17.92a99.32 99.32 0 0 0 -24.86-1.28c-2.57 6.3-4.21 13.81-7.9 19.3-6.42 10.08-14.66 15.57-24.73 22-6.37 3.54-36.75 22.35-53.64 23.15a99.82 99.82 0 0 0 -5.44 21.73c.23-1.72.5-3.43.82-5.13 13.25-3.76 30.35-5.27 35.36-6.78"/><path d="m80.77 134.54c.18 2 .44 3.91.74 5.84.06.42.14.83.21 1.25.17 1 .38 2 .58 3-.22-1.1-.44-2.2-.63-3.32 11.93-4.93 32.89-6.4 38.49-7.52 21.06-2.75 44.88-10.07 61.36-24.73 17.4-14.61 38.48-32.93 49.48-53.06a35.57 35.57 0 0 0 4.41-13.82l-.14-.1a100.67 100.67 0 0 0 -17.82-9.4c.81.33 1.61.65 2.41 1a55.43 55.43 0 0 0 -2.6 5.84c-17.4 42.13-46.71 69.6-90.67 81.51-7 1.91-30.43 7.81-46.18 6.9 0 .77 0 1.54.08 2.31.08 1.44.16 2.88.3 4.32"/><path d="m165.56 26.47c1.7-.25 3.43-.46 5.17-.62-1.74.16-3.47.37-5.17.62z"/><path d="m275.49 154.39c-.17.58-.36 1.16-.55 1.74.19-.58.38-1.16.55-1.74"/><path d="m199.46 27.3c.83.16 1.65.34 2.46.52-.81-.18-1.63-.36-2.46-.52"/><path d="m82.63 146.41c.07.29.13.58.2.87s.22.82.32 1.24c-.17-.71-.37-1.41-.52-2.13z"/><path d="m104.1 189.79a99.62 99.62 0 0 1 -12.83-19.19 99.56 99.56 0 0 0 16.88 23.66 157.33 157.33 0 0 0 20.75-4.4 161.7 161.7 0 0 1 -24.8-.07z"/><path d="m266.69 111.85c-1 1.45-2 2.87-3 4.28 5.1-4.49 9.67-8.89 13.63-13.14q-.69-3.06-1.56-6c-3.86 5.82-7.27 12.62-9.09 14.9"/><path d="m160.45 27.35c1.55-.31 3.12-.57 4.69-.81-1.57.24-3.14.5-4.69.81z"/><path d="m255.83 60.26c-4.18 8-8.12 16.31-13.87 23.2-10.07 13.74-22 27.47-34.8 38.46-17.4 15.57-43 25.65-65 30.22-10.8 1.45-38.56 10.8-55.29 8.51a100.48 100.48 0 0 0 4.41 9.93c13.56-4.91 38.7-6.18 46.3-7.44 21.06-3.67 42.13-12.83 61.36-23.82 14.79-9 56.23-36.07 68.81-61.85a99 99 0 0 1 8 19.47 99.15 99.15 0 0 0 -28.86-45.78 102.07 102.07 0 0 1 8.91 9.1"/><path d="m172.39 196.39a36.57 36.57 0 0 0 5.47-1.2c27.43-9.19 78.93-27.19 100.74-54.08v.1q.76-4.74 1.07-9.58a512.6 512.6 0 0 1 -67 44.37c-13.59 7.59-27.09 14.4-40.23 20.39"/><path d="m273.92 159.11c-.21.57-.42 1.13-.64 1.69.22-.56.43-1.12.64-1.69"/><path d="m125.66 56c8-5.83 17.73-16 24.92-26.12a100.29 100.29 0 0 1 9.83-2.5 99.67 99.67 0 0 0 -65.84 46.43c1-1.62 2-3.21 3.05-4.77 11.67-5.64 24.42-10.8 28-13.06z"/><path d="m272.33 163.19c-.22.54-.45 1.1-.68 1.64.23-.54.46-1.1.68-1.64"/><path d="m246.11 50.4c-.29-.25-.59-.47-.88-.72.3.26.63.5.93.77v-.05"/><path d="m84.56 153.8c-.16-.56-.34-1.12-.49-1.68.15.56.33 1.12.49 1.68z"/><path d="m80.39 122.38c0-1.71.13-3.42.26-5.11-.13 1.69-.22 3.4-.26 5.11z"/><path d="m91.84 78.67c.71-1.33 1.44-2.65 2.2-3.94-.76 1.29-1.49 2.61-2.2 3.94z"/><path d="m80.39 127.87c0-1.77 0-3.53 0-5.28z"/><path d="m177.86 217.17a207.42 207.42 0 0 1 -28.52 2.92 99.83 99.83 0 0 0 120.72-51.79l-.05.12c-27.37 22.46-60 42.19-92.15 48.75"/><path d="m138.25 215.72q-1.49-.67-2.94-1.41 1.45.74 2.94 1.41z"/><path d="m86.69 90.09c.64-1.71 1.35-3.41 2.09-5.09q-1.12 2.52-2.09 5.09z"/><path d="m80.67 117.06c.14-1.71.32-3.4.54-5.09-.22 1.69-.4 3.38-.54 5.09z"/><path d="m149.09 220q-3.19-1-6.3-2.31 3.11 1.26 6.3 2.31z"/><path d="m132 212.56c1 .54 2 1.05 3 1.56-1-.51-2-1-3-1.57z"/><path d="m142 217.38c-1-.4-1.91-.82-2.85-1.24.94.42 1.89.84 2.85 1.24z"/><path d="m89.29 83.88c.6-1.33 1.23-2.64 1.9-3.94-.67 1.3-1.3 2.61-1.9 3.94z"/></g><path d="m126.57 121c44-11.91 73.27-39.38 90.67-81.51a55.43 55.43 0 0 1 2.6-5.84c-.8-.35-1.6-.67-2.41-1l-1.49-.59c-.79-.3-1.59-.6-2.4-.89l-1.54-.52q-4.11-1.39-8.39-2.43l-1.69-.4c-.81-.18-1.63-.36-2.46-.52l-1.74-.3q-3.06-.56-6.17-.92v2.45c0 12.82-6.41 22-13.73 31.14-16.49 20.14-35.72 32.05-60.45 40.29-5 1.51-22.11 3-35.36 6.78-.32 1.7-.59 3.41-.82 5.13v.12c-.22 1.69-.4 3.38-.54 5.09v.21c-.13 1.69-.22 3.4-.26 5.11v.21 5.28c15.75.91 39.17-5 46.18-6.9" fill="#fbad18"/><path d="m272.33 163.19c.33-.79.65-1.59.95-2.39.22-.56.43-1.12.64-1.69.36-1 .7-2 1-3 .19-.58.38-1.16.55-1.74.33-1.06.64-2.14.94-3.22.15-.56.29-1.12.43-1.68.22-.88.43-1.77.63-2.66.12-.55.25-1.1.36-1.65.27-1.32.51-2.64.73-4v-.1c-21.77 26.94-73.27 44.94-100.7 54.13a36.57 36.57 0 0 1 -5.47 1.2c-14 6.35-27.53 11.75-40.41 16.16 1 .54 2 1.06 3 1.57l.36.19q1.45.74 2.94 1.41l.9.42c.94.42 1.89.84 2.85 1.24l.79.31q3.11 1.26 6.3 2.31l.24.09a207.42 207.42 0 0 0 28.52-2.92c32.15-6.56 64.78-26.29 92.15-48.75l.05-.12c.55-1.15 1.08-2.3 1.59-3.47.23-.54.46-1.1.68-1.64" fill="#fbad18"/><path d="m165 45c3.65-5.48 5.29-13 7.86-19.29-.73.05-1.45.08-2.17.15-1.74.16-3.47.37-5.17.62l-.42.07c-1.57.24-3.14.5-4.69.81a100.29 100.29 0 0 0 -9.83 2.5c-7.19 10.14-16.97 20.29-24.92 26.14-3.66 2.24-16.37 7.4-28.04 13-1.06 1.56-2.07 3.15-3.05 4.77-.18.3-.35.61-.53.92-.76 1.29-1.49 2.61-2.2 3.94-.22.42-.44.84-.65 1.27-.67 1.3-1.3 2.61-1.9 3.94-.17.38-.35.75-.51 1.12-.74 1.68-1.45 3.38-2.09 5.09 16.89-.8 47.27-19.61 53.64-23.15 10.07-6.41 18.31-11.9 24.73-22z" fill="#fbad18"/><path d="m181.52 109.1c-16.48 14.66-40.3 22-61.36 24.73-5.6 1.12-26.56 2.59-38.49 7.52.19 1.12.41 2.22.63 3.32.12.57.21 1.15.33 1.72.15.72.35 1.42.52 2.13.29 1.21.58 2.41.92 3.6.15.56.33 1.12.49 1.68.41 1.34.83 2.68 1.29 4 .32.95.64 1.9 1 2.84 16.73 2.29 44.49-7.06 55.29-8.51 22-4.57 47.62-14.65 65-30.22 12.82-11 24.73-24.72 34.8-38.46 5.75-6.89 9.69-15.23 13.87-23.2a102.07 102.07 0 0 0 -8.91-9.1l-.71-.67h-.05c-.3-.27-.63-.51-.93-.77a99.69 99.69 0 0 0 -9.85-7.52 35.57 35.57 0 0 1 -4.36 13.81c-11 20.15-32.05 38.47-49.45 53.12" fill="#fbad18"/><path d="m275.78 97a99 99 0 0 0 -8-19.47c-12.58 25.78-54 52.85-68.81 61.85-19.23 11-40.3 20.15-61.36 23.82-7.6 1.26-32.74 2.53-46.3 7.44a99.62 99.62 0 0 0 12.83 19.19 161.7 161.7 0 0 0 24.8.07c21.42-5.92 47.28-16.73 73.83-31.56 24.13-13.49 45.13-28.23 61-42.17 1-1.41 2-2.83 3-4.28 1.82-2.28 5.23-9.08 9.09-14.9" fill="#fbad18"/><path d="m172.39 196.39c13.14-6 26.64-12.8 40.23-20.39a512.6 512.6 0 0 0 67-44.37c46.13-36.41 71.55-72.43 60.82-91.63-10.44-18.66-52.25-16.58-105.19 2.06l.14.1a99.69 99.69 0 0 1 9.85 7.52c.29.25.59.47.88.72l.1.09.71.67a99.9 99.9 0 0 1 8.82 9l.15.16c19.38-3.59 33.25-1.94 37.63 5.89 4.55 8.13-1.91 21.47-16.18 36.78-4 4.25-8.53 8.65-13.63 13.14-15.85 13.94-36.85 28.68-61 42.17-26.55 14.83-52.41 25.64-73.83 31.56a157.33 157.33 0 0 1 -20.75 4.4c-16.12 2.15-27.53.08-31.42-6.9-3.74-6.68 0-16.88 9.34-28.8-.09-.24-.16-.49-.24-.73-.46-1.32-.88-2.66-1.29-4-.16-.56-.34-1.12-.49-1.68-.34-1.19-.63-2.39-.92-3.6-.1-.42-.23-.83-.32-1.24s-.13-.58-.2-.87c-.12-.57-.21-1.15-.33-1.72-.2-1-.41-2-.58-3-.07-.42-.15-.83-.21-1.25-.3-1.93-.56-3.87-.74-5.84-.14-1.44-.22-2.88-.3-4.32-39.62 33.5-60.58 65.62-50.66 83.36 10.22 18.29 50.66 16.63 102.15-1 12.88-4.41 26.44-9.81 40.41-16.16" fill="#fff579"/><g fill="#d4b005"><path d="m263.71 116.13c1-1.41 2-2.83 3-4.28 1.82-2.28 5.23-9.08 9.09-14.9q.87 3 1.56 6c-4 4.25-8.53 8.65-13.63 13.14"/><path d="m275.78 96.94c0-.16-.09-.32-.14-.48.05.16.09.32.14.48"/><path d="m275.64 96.46a.14.14 0 0 1 0-.07.14.14 0 0 0 0 .07"/><path d="m215.94 32.07c-.79-.3-1.59-.6-2.4-.89.81.29 1.61.58 2.4.89"/><path d="m212 30.65q-4.11-1.39-8.39-2.43 4.27 1 8.39 2.43"/><path d="m246.12 50.42-.7-.58c.23.19.47.37.69.56"/></g></svg>