<svg height="433" viewBox="0 0 259 433" width="259" xmlns="http://www.w3.org/2000/svg"><path d="m34 325v-238c1.75-1.44 1.32-3.63 1.75-5.47 9.6-41.29 35-67.19 75.83-78.2 3.13-.84 6.52-.6 9.42-2.33h26c.64 1.42 2 .87 3.05 1.08q61.62 12.27 80.52 72.16c1.43 4.52 1.43 9.4 3.43 13.76v237c-2.74 3.06-5.29 6.17-10.11 6.07s-7.4-2.91-9.83-6.37c-6.9 8.63-12.79 8.63-20.35 0-2.19 3.84-5.17 6.31-9.84 6.32s-7.38-2.92-9.83-6.35c-6.89 8.69-12.84 8.67-20 .31-6.77 7.64-10.71 8.07-18.37 1.79-1.32-1.08-2-1.08-3.28 0-7.67 6.28-11.61 5.85-18.37-1.79-2.73 3.06-5.29 6.16-10.11 6.06s-7.39-2.92-9.83-6.37c-6.88 8.63-12.75 8.63-20.28.12-2.34 3.61-5.19 6.27-9.91 6.24s-7.38-2.93-9.82-6.37c-6.89 8.7-12.89 8.68-20.07.34z" fill="#8dc53f"/><path d="m154 325q0 53 0 106h-40q0-53 0-106c6.76 7.64 10.7 8.07 18.37 1.79 1.32-1.08 2-1.08 3.28 0 7.65 6.29 11.59 5.86 18.35-1.79z" fill="#a57c52"/></svg>