<svg xmlns="http://www.w3.org/2000/svg" width="6733" height="559" viewBox="0 0 6733 559"><title>World_Cave</title><g id="Layer_7" data-name="Layer 7"><path d="M669.44,233.72l9.92-19.25c2.81-5.44,16.42-5.12,18.43.44l29.91,82.74c2.08,5.77,16.43,5.81,18.6,0l36.61-97.22c2.08-5.52,15.62-5.82,18.41-.4l19.81,38.44c2.69,5.21,15.55,5.21,18.24,0L905.6,110c1.81-3.49-2.76-7-9.11-7H596.56c-6.36,0-10.92,3.51-9.12,7l63.77,123.72C653.89,238.93,666.76,238.93,669.44,233.72Z" style="fill:#454547"/><path d="M1466.44,254.47l9.92-28.34c2.81-8,16.42-7.54,18.43.64L1524.7,348.6c2.08,8.5,16.43,8.55,18.6.06l36.61-143.15c2.08-8.13,15.62-8.56,18.41-.58l19.81,56.59c2.69,7.67,15.55,7.67,18.24,0L1702.6,72.31c1.81-5.15-2.76-10.31-9.11-10.31H1393.56c-6.36,0-10.92,5.16-9.12,10.31l63.77,182.16C1450.89,262.14,1463.75,262.14,1466.44,254.47Z" style="fill:#454547"/><path d="M1874.08,265.47l5.79-28.34c1.63-8,9.57-7.54,10.74.64l17.44,121.83c1.21,8.5,9.58,8.55,10.84.06l21.35-143.15c1.21-8.13,9.1-8.56,10.73-.58l11.55,56.59c1.57,7.67,9.07,7.67,10.63,0l38.62-189.21c1-5.14-1.61-10.31-5.32-10.31H1831.59c-3.71,0-6.37,5.17-5.32,10.31l37.18,182.16C1865,273.14,1872.52,273.14,1874.08,265.47Z" style="fill:#454547"/><path d="M2003.08,209.47l5.79-28.34c1.63-8,9.57-7.54,10.74.64l17.44,121.83c1.21,8.5,9.58,8.55,10.84.06l21.35-143.15c1.21-8.13,9.1-8.56,10.73-.58l11.55,56.59c1.57,7.67,9.07,7.67,10.63,0l38.62-189.21c1.05-5.15-1.61-10.31-5.32-10.31H1960.59c-3.71,0-6.37,5.16-5.32,10.31l37.18,182.16C1994,217.14,2001.52,217.14,2003.08,209.47Z" style="fill:#454547"/><path d="M2611,199.77l13-22.05c3.67-6.24,21.51-5.87,24.15.5l39.19,94.8c2.73,6.61,21.53,6.65,24.37.05l48-111.4c2.72-6.32,20.46-6.66,24.12-.45l26,44c3.52,6,20.38,6,23.9,0L2920.48,58c2.36-4-3.62-8-11.95-8h-393c-8.32,0-14.31,4-12,8l83.56,141.74C2590.64,205.74,2607.5,205.74,2611,199.77Z" style="fill:#454547"/><path d="M2901.31,303.82,2907,269.1c1.61-9.82,9.42-9.23,10.57.79l17.15,149.27c1.2,10.41,9.43,10.47,10.68.07l21-175.39c1.19-10,8.95-10.49,10.56-.72l11.36,69.34c1.54,9.4,8.92,9.4,10.46,0l38-231.82c1-6.31-1.58-12.64-5.23-12.64h-172c-3.64,0-6.26,6.33-5.23,12.64l36.58,223.18C2892.39,313.22,2899.77,313.22,2901.31,303.82Z" style="fill:#454547"/><path d="M3600.38,372.82l6.91-34.72c1.95-9.82,11.42-9.23,12.82.79l20.81,149.26c1.45,10.42,11.44,10.48,12.95.08l25.47-175.39c1.45-10,10.87-10.49,12.82-.72l13.78,69.34c1.87,9.4,10.82,9.4,12.69,0l46.09-231.82c1.26-6.31-1.92-12.64-6.34-12.64H3549.66c-4.42,0-7.59,6.33-6.34,12.64l44.37,223.18C3589.56,382.22,3598.51,382.22,3600.38,372.82Z" style="fill:#454547"/><path d="M97.08,254.47l5.79-28.34c1.63-8,9.57-7.54,10.74.64L131.05,348.6c1.21,8.5,9.58,8.55,10.84.06l21.35-143.15c1.21-8.13,9.1-8.56,10.73-.58l11.55,56.59c1.57,7.67,9.07,7.67,10.63,0L234.77,72.31c1-5.15-1.61-10.31-5.32-10.31H54.59c-3.71,0-6.37,5.16-5.32,10.31L86.45,254.47C88,262.14,95.52,262.14,97.08,254.47Z" style="fill:#454547"/></g><g id="Layer_6" data-name="Layer 6"><path d="M618.22,186.17,566.36,209a57.3,57.3,0,0,1-22-4.17,75.9,75.9,0,0,0-7.93-2.79l-27.31-7.73c-15.62-4.43-29.07-13.16-38.21-24.81h0c-15.83-20.17-43.88-11.28-72.12-7.85l-57.11,6.93c-23.08,2.8-46.37-3.8-62.86-17.81l-4.15-3.52c-18.4-15.63-45.11-21.92-70.36-16.56l-68.65,14.59c-30.37,6.45-62.24-4-79.61-26.16L13.21,64.54A37.29,37.29,0,0,1,5,41.49H5c-1-10.12,0-16.92,0-28C5,9,3.59,0,5-.07c16-.85,31.81,0,48.91,0H956.09c27,0,48.91,18.61,48.91,41.56V75.64c0,23-21.9,41.55-48.91,41.55l-76,9.8a17.18,17.18,0,0,1-6.47-.41c-9.22-2.41-27.66-11.94-39.66-11.94-55.41,0-57.81,4.19-75,46.74-6.67,16.5-42,11.89-55,17-4.13,1.62-17.16,7.27-21.44,8.57h0a49.62,49.62,0,0,1-32.46-1.31h0A41.79,41.79,0,0,0,618.22,186.17Z" style="fill:#3d3d3f"/><path d="M2115,3.33c-3.59-3.77,0,88.37-47,150.4-1.08,1.43-43.59,33.11-43.55,34.8.06,2.47-1.47,4.82-7.06,5.77-6.26,1.07-14.29-.52-18.37-2.79s-5.25-5-6.42-7.62c-8.3-17.69-14.73-7.87-40-23.67-12.32-7.65-27.84-15.38-50-18.61s-51.17.48-53.71,8.95c-1.09,3.78,2.91,7.64,3.82,11.49s-3.53,8.32-13.67,8.76a42.9,42.9,0,0,1-21.84-5.33c-14.6-8.17-18.6-18-22.32-27.44s-7.92-19.32-22.92-27.4-44-13.68-66.55-10c-17.36,2.8-25.53,9.88-34.75,16s-23.86,12.32-43.34,11.6c-16.11,0-29.21-6.2-34.51-12s-5.89-12-12.41-17.7-22.76-10.93-38.06-9.38c-16,1.6-20,9.05-21.3,15.31-2.48,11.21-5,22.43-7.53,33.65-.92,4.3-4.29,9.59-15.73,10.17-7.93.37-15.82-2-19.48-4.76s-4.1-5.87-4.65-8.89a83.58,83.58,0,0,0-8.31-23.3c-2.47-4.65-5.82-9.55-14.85-13s-25.89-4.59-33.28-1c-5.34,2.59-4,6.34-3.9,9.72s-3,7.38-11.82,7.94c-17.27,1.11-22.67-10.85-40.19-12.57a43.27,43.27,0,0,0-21.81,3.68c-5.13,2.44-8.79,5.39-15.29,7.33-16.06,4.79-42.32,1.59-60.92,5-17,3.15-23,10.83-34.27,16.49-21.78,10.95-62.47,13.82-92.2,21.77-24.87,6.65-41.19,16.68-57,26.45-103.76,3.81-82.39-72.69-127-51.9C919,146.93,883.29,125.73,881,124,872.34,117.43,956-7.47,978.11.62a19.06,19.06,0,0,0,6.26,1.07Z" style="fill:#3d3d3f"/><path d="M2729.41,175.45l14.94-4.38c10-2.94,16-12.47,13.59-21.9-4-15.61.55-22.14,9.88-36.1,37-55.36,169.36-31.69,248-25C3039.5,90,3131,158.72,3124,136V10C3119.67-4.12,3026.92-.07,3012.15-.07H2070.61A33.61,33.61,0,0,0,2037,33.54V52.08a33.61,33.61,0,0,0,19.8,30.64l40.28,18.16a31.44,31.44,0,0,0,3,1.2,78.27,78.27,0,0,0,56.22-2.82l15.58-7a78.06,78.06,0,0,1,67.16,1.77h0c25.41,13.09,56.86,10.92,79.86-5.51l13-9.28a77.23,77.23,0,0,1,56.36-13.1L2407,69c45.55,7,87.58,17.24,120.23,47.28h0a47.11,47.11,0,0,0,23.39,11.51h0l38.41,6.44c12.65,2.33,45.21,4.3,51.81,14.26a24.65,24.65,0,0,0,12.06,9.47L2697,174.34A51.85,51.85,0,0,0,2729.41,175.45Z" style="fill:#3d3d3f"/><path d="M3651.22,187.17,3599.36,210a57.3,57.3,0,0,1-22-4.17,75.9,75.9,0,0,0-7.93-2.79l-27.31-7.73c-15.62-4.43-29.07-13.16-38.21-24.81h0c-15.83-20.17-43.88-11.28-72.12-7.85l-57.11,6.93c-23.08,2.8-46.37-3.8-62.86-17.81l-4.15-3.52c-18.4-15.63-45.11-21.92-70.36-16.56l-68.65,14.59c-30.37,6.45-62.24-4-79.61-26.16l-42.83-54.58A37.29,37.29,0,0,1,3038,42.49h0c-1-10.12,0-16.92,0-28,0-4.52-1.41-13.52,0-13.6,16-.85,31.81,0,48.91,0h902.18c27,0,48.91,18.61,48.91,41.56V76.64c0,23-21.9,41.55-48.91,41.55l-76,9.8a17.18,17.18,0,0,1-6.47-.41c-9.22-2.41-27.66-11.94-39.66-11.94-55.41,0-57.81,4.19-75,46.74-6.67,16.5-42,11.89-55,17-4.13,1.62-17.16,7.27-21.44,8.57h0a49.62,49.62,0,0,1-32.46-1.31h0A41.79,41.79,0,0,0,3651.22,187.17Z" style="fill:#3d3d3f"/><path d="M4615,0c-5.31-5.83,4.88,105.14-1.64,99.48s-22.76-10.93-38.06-9.38c-16,1.6-20,9.05-21.3,15.31-2.48,11.21-4.95,22.43-7.53,33.65-.92,4.3-4.29,9.59-15.73,10.17-7.93.37-15.82-2-19.48-4.76s-4.1-5.87-4.65-8.89a83.58,83.58,0,0,0-8.31-23.3c-2.47-4.65-5.82-9.55-14.85-13s-25.89-4.59-33.28-1c-5.34,2.59-4,6.34-3.9,9.72s-3,7.38-11.82,7.94c-17.27,1.11-22.67-10.85-40.19-12.57a43.27,43.27,0,0,0-21.81,3.68c-5.13,2.44-8.79,5.39-15.29,7.33-16.06,4.79-42.32,1.59-60.92,5-17,3.15-23,10.83-34.27,16.49-21.78,10.95-62.47,13.82-92.2,21.77-24.87,6.65-41.19,16.68-57,26.45-103.76,3.81-82.39-72.69-127-51.9-33.81,15.77-69.52-5.43-71.81-7.17-8.66-6.56,75-131.46,97.11-123.37a19.06,19.06,0,0,0,6.26,1.07" style="fill:#3d3d3f"/></g></svg>