<svg height="454" viewBox="0 0 1086 454" width="1086" xmlns="http://www.w3.org/2000/svg" xmlns:xlink="http://www.w3.org/1999/xlink"><clipPath id="a"><path d="m109.72 118.5h976.29v335.5h-976.29z"/></clipPath><path d="m685.48 14.4-250 256.66h105.7l239.19-256.66z" fill="#da4f0c"/><path d="m672.31 55.65-250 256.66h105.69l239.2-256.66z" fill="#da4f0c"/><path d="m686.28-.36-412.28 435.36 102 2 310.28-341z" fill="#f26522"/><path d="m644.23 11.76-250 256.67h30.7l247.77-254.63z" fill="#da4f0c"/><path d="m617 95.14-331 339.86h32l324.89-337.95z" fill="#da4f0c"/><path d="m685.48 95.14-328.48 336.86h134l289.37-336.86z" fill="#da4f0c"/><path d="m616.94 11.93-330.15 339.92-17.79 107.15 347.07-362.4z" fill="#f26522"/><path d="m588 .52-352.79 352.11h16.58l336.21-338.85z" fill="#f26522"/><path d="m544.17 82.85-269.33 269.87h37.35l246.65-254.88z" fill="#da4f0c"/><path d="m531.81 3.16-294.81 292.53h81l215.57-214.69z" fill="#f26522"/><path d="m533.57 20.71-354.57 331.92h96.32l258.25-256.24z" fill="#f26522"/><path d="m509.94 6.5-416.94 430.5h105l360-396.29z" fill="#da4f0c"/><path d="m464.23 27.73-398.23 425.27 44-7 354.23-349.61z" fill="#f26522"/><path d="m422.1.52-352.76 352.11h96.31l256.46-255.36z" fill="#f26522"/><path d="m387.07 31.07-359 362.81 44.93 59.12 365.65-371.92z" fill="#da4f0c"/><path d="m589.81 11.76-336.29 337.29 46.39 2.51 317.3-339.8z" fill="#da4f0c"/><path d="m537.08 64.59-353.08 372.41 90-2 263.08-273.66z" fill="#f26522"/><path d="m535.4 94.26-327.8 340.74h30.71l321.2-337.95z" fill="#da4f0c"/><path d="m352.77-.36-352.77 352.12h96.32l256.45-255.37z" fill="#f26522"/><g fill="#f7941d"><path d="m352.48 97.28v-96.76h27.65v13.83h13.87v13.82h13.82v13.83h13.78v-41.48h27.64v96.76h-27.64v-27.64h-13.83v-13.82h-13.77v-13.82h-13.87v55.28z"/><path d="m463.07 97.28v-69.11h13.82v-13.82h13.82v-13.83h41.47v13.83h13.82v13.82h13.82v69.11h-27.64v-27.64h-41.47v27.64zm27.64-41.46h41.47v-27.65h-13.82v-13.82h-13.82v13.82h-13.83z"/><path d="m615.12 97.28v-82.93h-27.65v-13.83h82.94v13.83h-27.64v82.93z"/><path d="m684.24 97.28v-96.76h96.76v13.83h-69.12v27.65h55.3v13.82h-55.3v27.64h69.12v13.82z"/></g><g clip-path="url(#a)"><path d="m1059.45 118.5-337.13 336.5 92-31.87 245.08-244z" fill="#9e0039"/><path d="m972.22 163.8-262.42 257.13h74.74l268-257.13z" fill="#7a0026"/><path d="m1008.65 153.63-305.09 291.44 42.66 13.31 276.08-304.75z" fill="#7a0026"/><path d="m873.25 170.51-262.42 257.13h88.17l268-257.13z" fill="#7a0026"/><path d="m885.83 130.25-262.42 257.13h88.16l268-257.13z" fill="#7a0026"/><path d="m887.5 117.67-337.12 336.49h92l245.08-244z" fill="#9e0039"/><path d="m1005.77 117.67-337.12 336.49 92-52 245.08-244z" fill="#9e0039"/><path d="m794.41 209.93-262.41 257.13h74.74l268-257.13z" fill="#7a0026"/><path d="m991.51 170.51-262.42 257.13h74.74l268-257.13z" fill="#7a0026"/><path d="m885.83 209.93-262.42 257.13h88.16l268-257.13z" fill="#7a0026"/><path d="m964.67 209.93-262.41 257.13h88.15l268-257.13z" fill="#7a0026"/><path d="m688.72 117.67-337.12 336.49h92l245.08-244z" fill="#9e0039"/><path d="m794.4 117.67-337.12 336.49h92.05l245.08-244z" fill="#9e0039"/><path d="m1036.8 165.47-337.12 336.53 92-51.63 245.08-244z" fill="#9e0039"/><path d="m1020.86 154.57-337.12 336.49 56.75-37.85 280.37-281.59z" fill="#9e0039"/><path d="m596.46 130.25-316.82 324.87h69.92l313-324.87z" fill="#7a0026"/><path d="m581.37 170.51-316.83 324.87h69.92l313-324.87z" fill="#7a0026"/><path d="m596.46 209.93-316.82 324.87h57.36l325.58-324.87z" fill="#7a0026"/><path d="m1054.42 157.93-316.83 324.86h21.27l325.6-324.86z" fill="#7a0026"/><path d="m687.05 209.93-266.88 267.45 79.2-10.32 268-257.13z" fill="#7a0026"/><path d="m570.46 117.67-337.12 336.49h92l245.08-244z" fill="#9e0039"/><path d="m531 117.67-337.08 336.49h104.63l232.45-244.04z" fill="#9e0039"/><path d="m463.94 201.54-305.34 253.46h92l238.4-243.59z" fill="#7a0026"/><path d="m517.62 209.93-241.26 246.72h26.29l253.51-246.72z" fill="#7a0026"/><path d="m543.5 130.77-316.63 323.36 11.19.84 319.75-325z" fill="#7a0026"/><path d="m503.36 159.6-251.36 253.4h38l241-253.4z" fill="#7a0026"/><g fill="#f26d7d"><path d="m463.67 211v-92.5h26.42v39.64h13.21v-13.22h13.21v-13.2h13.21v-13.22h26.42v13.22h-13.21v13.2h-13.21v13.22h-13.21v13.21h13.21v13.21h13.21v13.21h13.21v13.23h-39.63v-13.23h-13.21v-13.21h-13.21v26.44z"/><path d="m569.35 211v-92.5h92.47v13.22h-66.05v26.42h52.84v13.21h-52.84v26.42h66.05v13.23z"/><path d="m688.24 211v-92.5h26.42v79.27h52.84v13.23z"/><path d="m793.92 211v-92.5h26.42v79.27h52.84v13.23z"/><path d="m886.39 211v-92.5h92.47v13.22h-66.05v26.42h52.84v13.21h-52.84v26.42h66.05v13.23z"/><path d="m1031.7 211v-39.65h-13.21v-13.21h-13.21v-39.64h26.42v39.64h26.42v-39.64h26.42v39.64h-13.21v13.21h-13.21v39.65z"/></g><path d="m463.94 117.67-337.12 336.49h92.05l245.13-244.04z" fill="#9e0039"/></g></svg>