<svg xmlns="http://www.w3.org/2000/svg" width="183" height="187" viewBox="0 0 183 187"><title>World_Space</title><g id="Layer_7" data-name="Layer 7"><path d="M21.9,121.27l.84-2.52c-.57-4,5.64-2.29,8.21,1,1.5,1.94,2.65,9.79,1.91,12.45-3.19,11.51-7.54,4.54-9.84-2.42-1.45-4.39-2.1-8.79-1.12-8.54m2.52-42.83,3.36-2.52a9.93,9.93,0,0,1,6.59-.72c-.85,5,2.73,7.64,2.48,12.43s-6.21,13.77-10.12,16.06c-18.1,10.57-12.13-22.8-2.31-25.25m16.8-36.12,7.56-5c9,4.79,2.81,11.46-4.37,15.07C29.29,60,28.69,54.49,31.91,49c2.46-4.18,7.15-8.36,9.31-6.7M65.45,91.74c-4.71-.79-11.26.53-15-3.25C46.94,84.92,48,81.86,53,81.8l6.72.84c4.42,1,7.15,4.55,5.76,9.1m-.73-22.5c2.46-6.6,11.43-10.13,17.65-7.6l5,.84c2.43,3.4,12.21,7,5.92,11.82-1.27,1-7.48.88-11.91.8-1.81,0-3.31-.06-4.07,0-7.46.38-15.74,2.52-12.63-5.84m34.45-45.4,1.68,1.68c6.39,2.85,14.31,5.29,17.45,12.6,4,9.44-.88,12.36-8.87,10.76-10.12-2-27.89-3.84-35.51-11.77C59.32,21.93,89.48,20.86,99.17,23.84M127,74.65c-.33-.13-.67-.26-1-.41l3.36.84a17.25,17.25,0,0,0-2.37-.43c4.6,1.77,10.21,1.92,13.91,6.49,1.15,1.42,4.27,7.28,2.61,9.12-2.34,2.58-5.81-1.18-8.28-1.53a45.8,45.8,0,0,0-7.16-.09c-6.26.21-13.54.42-16.39-3.66-6.44-9.21,7.78-11.2,15.31-10.33m9.08-20.57L142,50.72c5.07,3.8,27.66,18,11.76,20.16-4.64.63-11.83-4.41-15.11-6.93-2.55-2-10.09-12.87-2.53-9.87m9.37,65.36c-.08-4.84,5-21.86,8.27-19.16l5.88-3.37c10.63,7-3.66,28-14.15,22.53m-12,22a21.5,21.5,0,0,1,5.13-5.88l2.52-2.52c14.92.76.19,18.45-7.65,8.4M127.73,128c-3.15,3.42-6.38,9.09-10.9,11.55-4.93,2.68-21.32,4.15-19.21-4.71,11-1.38,7.45-7.75,8.25-15.24.72-6.66,15.58-19,19.34-12.6l5.88-1.68c1,10.7,5,13.63-3.36,22.68M125,159.7c-9.75,5.43-12.54-5.51-4.85-8.19l4.2-2.52c8.23,1.14,5.89,7.79.65,10.71M96.65,91l5.88,1.69c5.73,4.26,5.25,8.22,0,9.19-8.31,1.55-11.55-2.23-12-6C90,91.54,93.24,87.17,96.65,91m8.4,72.24c-1,8.44-5.43,4.75-10.69,4-4.31-.64-19.94-.35-18-9.05,1.17-5.15,15.16-6.8,15.22-3.32l4.2-1.68c4.63,2.65,10.12,3,9.24,10.08m-37-60.52c2.85-3.86,8.93-.17,10.12,3.4h3.36c1.74,3.42,6.84,5.92,5.08,11-2.81,8-6.9,2.32-10.12-.05-2.69-2-12-9.46-8.44-14.32m6.64,49.47c-13.53-.19-17.85-21.12-5.87-17.37.71,1.39-.68,1.06-.73,1.54l5,2.52c2.87,2,1.77,9.06,1.56,13.31M42.06,112.87,47.94,107c7.8.85,7.13,15.43,5.91,21.84-1.33,7.06-4.8,9.73-9.93,4.22-4.27-4.6-3.24-14.74-1.86-20.18m14.15,52.79c-8.42,1.05-15.32-6.56-15.83-14.15-.73-10.66,11-12.18,12.59-2.52l3.36,5c0,3.87.07,7.8-.12,11.63M55,173.53A84.73,84.73,0,1,0,11.54,61.85,84.72,84.72,0,0,0,55,173.53" style="fill:#f7901e"/><path d="M125.21,107c-3.76-6.38-18.62,5.94-19.34,12.6-.8,7.49,2.71,13.86-8.25,15.24-2.11,8.86,14.28,7.39,19.21,4.71,4.52-2.46,7.75-8.13,10.9-11.55,8.37-9,4.33-12,3.36-22.68L125.21,107" style="fill:#fdbc4d"/><path d="M111.73,85c2.85,4.08,10.13,3.87,16.39,3.66a45.8,45.8,0,0,1,7.16.09c2.47.35,5.94,4.11,8.28,1.53,1.66-1.84-1.46-7.7-2.61-9.12-3.7-4.57-9.31-4.72-13.91-6.49-7.53-.87-21.75,1.12-15.31,10.33" style="fill:#fdbc4d"/><path d="M126.05,74.24c.32.15.66.28,1,.41a17.25,17.25,0,0,1,2.37.43l-3.36-.84" style="fill:#fdbc4d"/><path d="M77.35,75.08c.76,0,2.26,0,4.07,0,4.43.08,10.64.16,11.91-.8,6.29-4.78-3.49-8.42-5.92-11.82l-5-.84c-6.22-2.53-15.19,1-17.65,7.6-3.11,8.36,5.17,6.22,12.63,5.84" style="fill:#fdbc4d"/><path d="M109.43,48.88c8,1.6,12.92-1.32,8.87-10.76-3.14-7.31-11.06-9.75-17.45-12.6l-1.68-1.68c-9.69-3-39.85-1.91-25.25,13.27,7.62,7.93,25.39,9.73,35.51,11.77" style="fill:#fdbc4d"/><path d="M44.41,52.35c7.18-3.61,13.38-10.28,4.37-15.07l-7.56,5c-5-3.83-23.48,23.44,3.19,10Z" style="fill:#fdbc4d"/><path d="M36.85,87.63c.25-4.79-3.33-7.4-2.48-12.43a9.93,9.93,0,0,0-6.59.72l-3.36,2.52c-9.82,2.45-15.79,35.82,2.31,25.25,3.91-2.29,9.87-11.26,10.12-16.06Z" style="fill:#fdbc4d"/><path d="M53.85,128.83c1.22-6.41,1.89-21-5.91-21.84l-5.88,5.88c-1.38,5.44-2.41,15.58,1.86,20.18,5.13,5.51,8.6,2.84,9.93-4.22Z" style="fill:#fdbc4d"/><path d="M50.46,88.49c3.73,3.78,10.28,2.46,15,3.25,1.39-4.55-1.34-8.12-5.76-9.1L53,81.8c-4.93,0-6,3.12-2.51,6.69Z" style="fill:#fdbc4d"/><path d="M138.65,64c3.28,2.52,10.47,7.56,15.11,6.93,15.9-2.16-6.69-16.36-11.76-20.16l-5.88,3.36c-7.56-3,0,7.91,2.53,9.87" style="fill:#fdbc4d"/><path d="M145.49,119.44c10.49,5.49,24.78-15.54,14.15-22.53l-5.88,3.37c-3.24-2.7-8.35,14.32-8.27,19.16" style="fill:#fdbc4d"/><path d="M141.17,133l-2.52,2.52a21.5,21.5,0,0,0-5.13,5.88c7.84,10,22.57-7.64,7.65-8.4" style="fill:#fdbc4d"/><path d="M31,119.78c-2.57-3.32-8.78-5-8.21-1l-.84,2.52c-2.52-.65,5.75,29.73,11,11,.74-2.66-.41-10.51-1.91-12.45Z" style="fill:#fdbc4d"/><path d="M76.49,117.07c3.22,2.37,7.31,8.1,10.12.05,1.76-5.05-3.34-7.55-5.08-11H78.17c-1.19-3.57-7.27-7.26-10.12-3.4-3.58,4.86,5.75,12.34,8.44,14.32" style="fill:#fdbc4d"/><path d="M102.57,101.91c5.21-1,5.69-4.93,0-9.19L96.65,91c-3.41-3.86-6.61.51-6.08,4.87.45,3.78,3.69,7.56,12,6" style="fill:#fdbc4d"/><path d="M73.13,138.91l-5-2.52c0-.48,1.44-.15.73-1.54-12-3.75-7.66,17.18,5.87,17.37.21-4.25,1.31-11.34-1.56-13.31Z" style="fill:#fdbc4d"/><path d="M53,149c-1.58-9.66-13.32-8.14-12.59,2.52.51,7.59,7.41,15.2,15.83,14.15.19-3.83.12-7.76.12-11.63L53,149Z" style="fill:#fdbc4d"/><path d="M95.81,153.19l-4.2,1.68c-.06-3.48-14-1.83-15.22,3.32-2,8.7,13.66,8.41,18,9.05,5.26.78,9.64,4.47,10.69-4,.88-7.12-4.61-7.43-9.24-10.08" style="fill:#fdbc4d"/><path d="M124.37,149l-4.2,2.52c-7.69,2.68-4.9,13.62,4.85,8.19,5.24-2.92,7.58-9.57-.65-10.71" style="fill:#fdbc4d"/><path d="M129.41,75.08l-.34-.09.34.09m-.34-.09a18.6,18.6,0,0,0-2-.34h0c-.33-.13-.67-.26-1-.41h0l3,.75" style="fill:#d09c40"/></g></svg>