<svg height="165" viewBox="0 0 741 165" width="741" xmlns="http://www.w3.org/2000/svg"><g fill="none"><path d="m40.06 116.6v-15.12h-15.13v-15.13h-15.13v-15.13h-15.13v-60.52h30.26v45.39h15.13v15.13h15.13v-15.13h15.13v-45.39h30.26v60.52h-15.13v15.13h-15.13v15.13h-15.13v15.12z"/><path d="m130.83 116.6v-15.12h-15.12v-90.78h30.29v90.78h45.39v-90.78h30.26v90.78h-15.17v15.12z"/><path d="m236.74 116.6v-105.9h105.9v15.13h-75.64v30.26h60.51v15.13h-60.51v30.26h75.64v15.12z"/><path d="m388 116.6v-30.25h30.26v30.25z"/><path d="m473.93 116.6v-15.12h-15.12v-15.13h30.25v15.13h45.39v-90.78h30.26v90.78h-15.13v15.12z"/><path d="m595 116.6v-15.12h-15.16v-15.13h30.26v15.13h45.38v-30.26h-60.48v-15.13h-15.16v-30.26h15.16v-15.13h75.64v15.13h15.13v15.17h-30.29v-15.17h-45.38v30.26h60.51v15.13h15.13v30.26h-15.13v15.12z"/></g><path d="m57.06 127.6v-15.12h-15.13v-15.13h-15.13v-15.13h-15.13v-60.52h30.26v45.39h15.13v15.13h15.13v-15.13h15.13v-45.39h30.26v60.52h-15.13v15.13h-15.13v15.13h-15.13v15.12z" fill="#687c21"/><path d="m147.83 127.6v-15.12h-15.12v-90.78h30.29v90.78h45.39v-90.78h30.26v90.78h-15.17v15.12z" fill="#687c21"/><path d="m253.74 127.6v-105.9h105.9v15.13h-75.64v30.26h60.51v15.13h-60.51v30.26h75.64v15.12z" fill="#687c21"/><path d="m405 127.6v-30.25h30.26v30.25z" fill="#687c21"/><path d="m490.93 127.6v-15.12h-15.12v-15.13h30.25v15.13h45.39v-90.78h30.26v90.78h-15.13v15.12z" fill="#687c21"/><path d="m612 127.6v-15.12h-15.16v-15.13h30.26v15.13h45.38v-30.26h-60.48v-15.13h-15.16v-30.26h15.16v-15.13h75.64v15.13h15.13v15.17h-30.29v-15.17h-45.38v30.26h60.51v15.13h15.13v30.26h-15.13v15.12z" fill="#687c21"/><path d="m68.06 135.6v-15.12h-15.13v-15.13h-15.13v-15.13h-15.13v-60.52h30.26v45.39h15.13v15.13h15.13v-15.13h15.13v-45.39h30.26v60.52h-15.13v15.13h-15.13v15.13h-15.13v15.12z" fill="#7da820"/><path d="m158.83 135.6v-15.12h-15.12v-90.78h30.29v90.78h45.39v-90.78h30.26v90.78h-15.17v15.12z" fill="#7da820"/><path d="m264.74 135.6v-105.9h105.9v15.13h-75.64v30.26h60.51v15.13h-60.51v30.26h75.64v15.12z" fill="#7da820"/><path d="m416 135.6v-30.25h30.26v30.25z" fill="#7da820"/><path d="m501.93 135.6v-15.12h-15.12v-15.13h30.25v15.13h45.39v-90.78h30.26v90.78h-15.13v15.12z" fill="#7da820"/><path d="m623 135.6v-15.12h-15.16v-15.13h30.26v15.13h45.38v-30.26h-60.48v-15.13h-15.16v-30.26h15.16v-15.13h75.64v15.13h15.13v15.17h-30.29v-15.17h-45.38v30.26h60.51v15.13h15.13v30.26h-15.13v15.12z" fill="#7da820"/><path d="m78.06 145.6v-15.12h-15.13v-15.13h-15.13v-15.13h-15.13v-60.52h30.26v45.39h15.13v15.13h15.13v-15.13h15.13v-45.39h30.26v60.52h-15.13v15.13h-15.13v15.13h-15.13v15.12z" fill="#90d813"/><path d="m168.83 145.6v-15.12h-15.12v-90.78h30.29v90.78h45.39v-90.78h30.26v90.78h-15.17v15.12z" fill="#90d813"/><path d="m274.74 145.6v-105.9h105.9v15.13h-75.64v30.26h60.51v15.13h-60.51v30.26h75.64v15.12z" fill="#90d813"/><path d="m426 145.6v-30.25h30.26v30.25z" fill="#90d813"/><path d="m511.93 145.6v-15.12h-15.12v-15.13h30.25v15.13h45.39v-90.78h30.26v90.78h-15.13v15.12z" fill="#90d813"/><path d="m633 145.6v-15.12h-15.16v-15.13h30.26v15.13h45.38v-30.26h-60.48v-15.13h-15.16v-30.26h15.16v-15.13h75.64v15.13h15.13v15.17h-30.29v-15.17h-45.38v30.26h60.51v15.13h15.13v30.26h-15.13v15.12z" fill="#90d813"/></svg>