<svg height="2000" viewBox="0 0 6569 7413" width="2000" xmlns="http://www.w3.org/2000/svg"><path d="m1541.09 6124.41 61.63 33.35a63.34 63.34 0 0 0 26.93-4.48 87.21 87.21 0 0 1 9.77-3.35l33.57-9a89.46 89.46 0 0 0 47.76-31.41c20.34-26.32 53.87-12.94 87.94-6.89l68.88 12.24c27.85 4.94 56.47-2.74 77.27-20.75l5.23-4.52c23.2-20.09 56-27.19 86.28-18.69l82.46 23.12c36.48 10.23 75.74-2.23 98.06-31.12l55-71.23c.43-.56.85-1.12 1.26-1.69 14.07-19.71 85.67-7.4 108.84-36.73 11.82-15 155.55-53.07 153.59-99.44l18.15-10.47c67.58 23.5 42.75-64 66.94-100.28 43.85-65.73 4.38-184.29 3.06-194.1-11.1-82.65-322.06-189.94-323.77-190.11-19.36-2-361.5 103.38-382.25 102.51l-786 395.34c-32.77-1.37-60.38 22.54-61.68 53.4l-1.93 45.93c-1.3 30.87 24.21 57 57 58.39l91.6 17a18.6 18.6 0 0 0 7.86-.21c11.33-2.77 34.24-14.65 48.79-14 67.22 2.83 69.9 8.59 88.34 66.68 7.16 22.54 50.28 18.15 65.76 25.67 4.92 2.38 20.41 10.65 25.53 12.62a54.72 54.72 0 0 0 39.45-.11 46.18 46.18 0 0 1 38.68 2.33z" fill="#3d3d3f"/></svg>