<svg height="197" viewBox="0 0 118 197" width="118" xmlns="http://www.w3.org/2000/svg"><path d="m62.31 28.67s9.09 10.76 7.52 28-5 39.8-7.52 56.63 2.34 71.36 2.34 71.36l5.35 1.04s8.91-53.75 8.1-69.6 6-54-1-71.63-14.79-15.8-14.79-15.8z" fill="#579835"/><path d="m62.31 60.05c0 .54-16.57 82.16 0 125.65l4.14-2.88s1.8-66.94 1-85.9a211.41 211.41 0 0 0 -5.14-36.87z" fill="#407928"/><path d="m62.31 185.7-10.63 1.13s-3.87-24.83-4.14-46.06-6.48-52.4-8-79.68 16.29-57.09 16.29-57.09-3.61 38.67-1.83 60 4.69 45.92 3.38 67.48 4.93 54.22 4.93 54.22z" fill="#579835"/><path d="m34.35 181.24s-12.51-18.14-16.66-33 .27-30.34 5.23-35c0 0-.05 9.46 5.67 21.52s14.27 33.59 9.59 50.92z" fill="#407928"/><path d="m45.83 182.82a386.41 386.41 0 0 1 -9.18-53.21c-2.07-20.76 2.61-37 8.55-44.93 0 0 2.84 29.62 6 47.81s2.8 50.33 2.8 50.33z" fill="#407928"/><path d="m39.21 181.24s-4.14-34.26-7.79-49-9.86-35.63-8.28-52.24 10.4-26.16 10.4-26.16.32 26.52 2.61 39.35 7.29 36.42 9 47.09 0 40 0 40z" fill="#579835"/><path d="m75.05 90.57s-11.93 33.72-12.7 54.57 2.65 43.26 2.65 43.26l5.14-2.65s7.79-32 10.31-50.65-5.4-44.53-5.4-44.53z" fill="#407928"/><path d="m94.23 56.63c0-.86-15.85 31.2-18.42 54.83s-7 71.36-7 71.36l6.19 1.58s3.65-25.44 8.29-38.14 14.31-53.07 10.94-89.63z" fill="#579835"/><path d="m96.57 99c-.59-.85-2 19.27-10 36.51s-14.18 35.49-12.33 50.24h3.38s14-18.73 18.95-41.83 4.95-37.41 0-44.92z" fill="#407928"/><path d="m28.05 178.5c-1.89 1.71 1.57 16.07 3.1 17.38s54.48 1.3 56.32 0 4.69-15.31 3.11-17.38-59.92-2.34-62.53 0z" fill="#b16b63"/></svg>