<svg height="83" viewBox="0 0 126 83" width="126" xmlns="http://www.w3.org/2000/svg"><path d="m17.96 8.24-2.78-2.04-15.59 30.79 3.71 1.29z" fill="#00709c"/><path d="m110.74 45.26a74.29 74.29 0 0 0 -9.74 9.88l-3.26-39a18 18 0 0 1 4.9-.68c9.62 0 17.44 7.58 17.44 16.88 0 4.61-4.11 8.27-9.32 12.91zm-8.12-35.73a23.47 23.47 0 0 0 -5.4.63l-.86-10.27h-56.36l10 11.2-2.87 23.44-28.13-10.4-1-15.89-14.7 30.04 13.24-8.71 28.62 21.26-2.9 23.93a7.8 7.8 0 0 0 7.79 7.75h44.79a7.79 7.79 0 0 0 7.78-7.75l-.81-9.76a11.25 11.25 0 0 0 .64-1.11c2.86-5.87 7.63-10.11 12.23-14.21 5.83-5.17 11.32-10.06 11.32-17.33 0-12.58-10.49-22.82-23.38-22.82z" fill="#0082b5"/><path d="m84.2 41.2a11.51 11.51 0 1 1 -11.51-11.51 11.51 11.51 0 0 1 11.51 11.51z" fill="#00709c"/></svg>