<svg height="172" viewBox="0 0 1286 172" width="1286" xmlns="http://www.w3.org/2000/svg"><path d="m753.41 16.09 14.94 2.29c10 1.54 16 6.53 13.59 11.47-4 8.17.55 11.59 9.88 18.9 46.74 36.61 376.18-13.75 481.18 65.25l-212-6h-1000l-37-12 98.58-41.22a145.51 145.51 0 0 1 57.76 1.22l15.58 3.66c21.35 5 46.44 4.67 67.16-.93 25.41-6.85 56.86-5.71 79.86 2.89l13 4.86c16 6 36.41 8.46 56.36 6.86l18.7-1.52c45.55-3.66 87.58-9 120.23-24.76a70.36 70.36 0 0 1 23.39-6l38.38-3.4c12.65-1.22 45.21-2.25 51.81-7.47 2.82-2.23 7-4 12.06-5l44.13-8.52a96.93 96.93 0 0 1 32.41-.58z" fill="#3d3d3f"/></svg>