<svg height="300" viewBox="0 0 200 300" width="200" xmlns="http://www.w3.org/2000/svg"><path d="m87 0h26c.64 1.42 2 .87 3.06 1.08q61.6 12.27 80.51 72.16c1.43 4.52 1.43 9.4 3.43 13.76v107c-2.74 3.06-5.29 6.17-10.11 6.07s-7.4-2.9-9.83-6.36c-6.9 8.62-12.79 8.62-20.28.1-2.34 3.62-5.19 6.28-9.91 6.25s-7.38-2.93-9.83-6.36c-6.9 8.69-12.84 8.67-20 .31-6.77 7.64-10.71 8.07-18.37 1.79-1.32-1.08-2-1.08-3.28 0-7.7 6.28-11.64 5.85-18.39-1.8-2.73 3.06-5.29 6.16-10.11 6.06s-7.39-2.92-9.83-6.36c-6.88 8.62-12.75 8.62-20.35 0-2.19 3.83-5.16 6.3-9.83 6.31s-7.39-2.92-9.83-6.36c-6.86 8.67-12.86 8.65-20 .31v-107.96c1.75-1.44 1.32-3.63 1.75-5.47 9.6-41.29 35-67.19 75.83-78.2 3.08-.84 6.47-.6 9.37-2.33z" fill="#8dc53f"/><path d="m120 194q0 53 0 106h-40q0-53 0-106c6.76 7.64 10.7 8.07 18.37 1.79 1.32-1.08 2-1.08 3.28 0 7.65 6.29 11.59 5.86 18.35-1.79z" fill="#a57c52"/></svg>