<svg xmlns="http://www.w3.org/2000/svg" width="770" height="740" viewBox="0 0 770 740"><title>World_Space</title><g id="Layer_9" data-name="Layer 9"><path d="M700.7,368c0,181.67-147.33,329-329,329a329.09,329.09,0,0,1-329-329C42.7,186.33,190,39,371.7,39A325.33,325.33,0,0,1,490.88,61.35C613.59,109.15,700.7,228.33,700.7,368Z" style="fill:#cfd1c1"/><path d="M629.73,323.72c0,175.26-142.16,317.41-317.42,317.41A316.11,316.11,0,0,1,112,570,327,327,0,0,1,42.7,368C42.7,186.33,190,39,371.7,39A325.33,325.33,0,0,1,490.88,61.35C574.69,118.46,629.73,214.67,629.73,323.72Z" style="fill:#eff0e1"/><path d="M562.89,263.51a47.82,47.82,0,0,1-33.73,58.55,47.59,47.59,0,0,1-58.55-33.72,47.82,47.82,0,0,1,73.66-51.53A48.92,48.92,0,0,1,562.89,263.51Z" style="fill:#8e9fb0"/><path d="M562.89,263.51a47.82,47.82,0,0,1-33.73,58.55,47,47,0,0,1-32.48-2.69,46.83,46.83,0,0,1-18.62-26.69,47.83,47.83,0,0,1,33.72-58.56,47.1,47.1,0,0,1,32.49,2.9A47.67,47.67,0,0,1,562.89,263.51Z" style="fill:#a1adba"/><path d="M247.34,490.5a24.86,24.86,0,0,1-17.59,30.41,24.61,24.61,0,0,1-30.21-17.59,24.87,24.87,0,0,1,17.59-30.41,24.19,24.19,0,0,1,20.69,3.72A26.62,26.62,0,0,1,247.34,490.5Z" style="fill:#8e9fb0"/><path d="M247.34,490.5a24.86,24.86,0,0,1-17.59,30.41A24.35,24.35,0,0,1,213,519.46a25.86,25.86,0,0,1-9.72-13.86,24.87,24.87,0,0,1,17.59-30.42,25.14,25.14,0,0,1,17,1.45A26.62,26.62,0,0,1,247.34,490.5Z" style="fill:#a1adba"/><path d="M265.34,216.12a24.87,24.87,0,0,1-17.58,30.42A24.39,24.39,0,0,1,231,245.09,24.13,24.13,0,0,1,217.55,229a24.87,24.87,0,0,1,17.58-30.42,24.22,24.22,0,0,1,20.7,3.73A25.1,25.1,0,0,1,265.34,216.12Z" style="fill:#8e9fb0"/><path d="M265.34,216.12a24.87,24.87,0,0,1-17.58,30.42A24.39,24.39,0,0,1,231,245.09a25.87,25.87,0,0,1-9.73-13.86,24.91,24.91,0,0,1,34.56-29A25.1,25.1,0,0,1,265.34,216.12Z" style="fill:#a1adba"/><path d="M368.6,238.68a7.22,7.22,0,0,1-5.18,8.89,8,8,0,0,1-5-.41,7.1,7.1,0,0,1-3.93-4.76,7.22,7.22,0,0,1,5.17-8.9,6.85,6.85,0,0,1,6,1A7.29,7.29,0,0,1,368.6,238.68Z" style="fill:#8e9fb0"/><path d="M368.6,238.68a7.22,7.22,0,0,1-5.18,8.89,8,8,0,0,1-5-.41,6.66,6.66,0,0,1-2.9-4.14,7.23,7.23,0,0,1,5.17-8.9,8.14,8.14,0,0,1,5,.42A7.29,7.29,0,0,1,368.6,238.68Z" style="fill:#a1adba"/><path d="M313.76,396.35a7.22,7.22,0,0,1-5.17,8.9,8.14,8.14,0,0,1-5-.42,7.1,7.1,0,0,1-3.93-4.76,7.23,7.23,0,0,1,5.18-8.9,6.86,6.86,0,0,1,6,1A6.19,6.19,0,0,1,313.76,396.35Z" style="fill:#8e9fb0"/><path d="M313.76,396.35a7.22,7.22,0,0,1-5.17,8.9,8.14,8.14,0,0,1-5-.42,6.66,6.66,0,0,1-2.89-4.14,7.21,7.21,0,0,1,5.17-8.89,8.06,8.06,0,0,1,5,.41A6.19,6.19,0,0,1,313.76,396.35Z" style="fill:#a1adba"/><path d="M436.47,105.83a7.22,7.22,0,0,1-5.18,8.9,8,8,0,0,1-5-.41,7.11,7.11,0,0,1-3.94-4.76,7.23,7.23,0,0,1,5.18-8.9,6.82,6.82,0,0,1,6,1A7.3,7.3,0,0,1,436.47,105.83Z" style="fill:#8e9fb0"/><path d="M436.47,105.83a7.22,7.22,0,0,1-5.18,8.9,8,8,0,0,1-5-.41,6.69,6.69,0,0,1-2.9-4.14,7.22,7.22,0,0,1,5.17-8.9,8.14,8.14,0,0,1,5,.42A7.3,7.3,0,0,1,436.47,105.83Z" style="fill:#a1adba"/><path d="M461.71,230.4a7.23,7.23,0,0,1-5.17,8.9,8.14,8.14,0,0,1-5-.42,7.08,7.08,0,0,1-3.93-4.76,7.21,7.21,0,0,1,5.17-8.89,6.84,6.84,0,0,1,6,1A7.28,7.28,0,0,1,461.71,230.4Z" style="fill:#8e9fb0"/><path d="M461.71,230.4a7.23,7.23,0,0,1-5.17,8.9,8.14,8.14,0,0,1-5-.42,6.67,6.67,0,0,1-2.9-4.14,7.22,7.22,0,0,1,5.18-8.89,8,8,0,0,1,5,.41A7.28,7.28,0,0,1,461.71,230.4Z" style="fill:#a1adba"/><path d="M455.5,531.88a7.22,7.22,0,0,1-5.17,8.9,8.14,8.14,0,0,1-5-.42,7.08,7.08,0,0,1-3.93-4.76,7.21,7.21,0,0,1,5.17-8.89,6.87,6.87,0,0,1,6,1A7.31,7.31,0,0,1,455.5,531.88Z" style="fill:#8e9fb0"/><path d="M455.5,531.88a7.22,7.22,0,0,1-5.17,8.9,8.14,8.14,0,0,1-5-.42,6.62,6.62,0,0,1-2.89-4.14,7.21,7.21,0,0,1,5.17-8.89,8.07,8.07,0,0,1,5,.41A7.31,7.31,0,0,1,455.5,531.88Z" style="fill:#a1adba"/><path d="M596.41,545.12a7.22,7.22,0,0,1-5.17,8.9,8.14,8.14,0,0,1-5-.41,7.12,7.12,0,0,1-3.93-4.76,7.22,7.22,0,0,1,5.18-8.9,6.85,6.85,0,0,1,6,1A10.07,10.07,0,0,1,596.41,545.12Z" style="fill:#6c7986"/><path d="M596.41,545.12a7.22,7.22,0,0,1-5.17,8.9,8.14,8.14,0,0,1-5-.41,6.71,6.71,0,0,1-2.89-4.14,7.22,7.22,0,0,1,5.17-8.9,8.14,8.14,0,0,1,5,.41A10.07,10.07,0,0,1,596.41,545.12Z" style="fill:#7d8690"/><path d="M392.81,660.58a7.23,7.23,0,0,1-5.18,8.9,8.11,8.11,0,0,1-5-.41,7.1,7.1,0,0,1-3.93-4.76,7.22,7.22,0,0,1,5.17-8.9,6.85,6.85,0,0,1,6,1A7.36,7.36,0,0,1,392.81,660.58Z" style="fill:#6c7986"/><path d="M392.81,660.58a7.23,7.23,0,0,1-5.18,8.9,8.11,8.11,0,0,1-5-.41,6.69,6.69,0,0,1-2.9-4.14,7.22,7.22,0,0,1,5.17-8.9,8.14,8.14,0,0,1,5,.41A7.36,7.36,0,0,1,392.81,660.58Z" style="fill:#7d8690"/><path d="M565.38,473.94a24.88,24.88,0,0,1-17.59,30.42A24.39,24.39,0,0,1,531,502.91a24.13,24.13,0,0,1-13.45-16.14,24.87,24.87,0,0,1,17.59-30.42,24.2,24.2,0,0,1,20.69,3.73A23.22,23.22,0,0,1,565.38,473.94Z" style="fill:#8e9fb0"/><path d="M565.38,473.94a24.88,24.88,0,0,1-17.59,30.42A24.39,24.39,0,0,1,531,502.91a25.87,25.87,0,0,1-9.73-13.86,24.91,24.91,0,0,1,34.56-29A23.22,23.22,0,0,1,565.38,473.94Z" style="fill:#a1adba"/><path d="M434.6,426.35A24.87,24.87,0,0,1,417,456.77a24.43,24.43,0,0,1-16.77-1.45,24.14,24.14,0,0,1-13.44-16.14,24.87,24.87,0,0,1,17.58-30.42,24.19,24.19,0,0,1,20.69,3.73A26.63,26.63,0,0,1,434.6,426.35Z" style="fill:#8e9fb0"/><path d="M434.6,426.35A24.87,24.87,0,0,1,417,456.77a24.43,24.43,0,0,1-16.77-1.45,25.86,25.86,0,0,1-9.72-13.86,24.91,24.91,0,0,1,34.55-29A26.63,26.63,0,0,1,434.6,426.35Z" style="fill:#a1adba"/><path d="M371.7,601.2a14,14,0,0,1-9.93,17.17,13.62,13.62,0,0,1-9.52-.83,14,14,0,1,1,13.86-24.21A12.79,12.79,0,0,1,371.7,601.2Z" style="fill:#8e9fb0"/><path d="M371.7,601.2a14,14,0,0,1-9.93,17.17,13.62,13.62,0,0,1-9.52-.83,13.29,13.29,0,0,1-5.38-7.86,14,14,0,0,1,9.93-17.17,14.9,14.9,0,0,1,9.52.82A13.34,13.34,0,0,1,371.7,601.2Z" style="fill:#a1adba"/><path d="M212,390.35A14,14,0,0,1,202,407.52a13.62,13.62,0,0,1-9.52-.83,14,14,0,1,1,13.86-24.21A15.05,15.05,0,0,1,212,390.35Z" style="fill:#8e9fb0"/><path d="M212,390.35A14,14,0,0,1,202,407.52a13.62,13.62,0,0,1-9.52-.83,13.29,13.29,0,0,1-5.38-7.86,14,14,0,0,1,9.93-17.17,14.9,14.9,0,0,1,9.52.82A15.91,15.91,0,0,1,212,390.35Z" style="fill:#a1adba"/><path d="M399.22,172.46a14.05,14.05,0,0,1-9.93,17.18,13.68,13.68,0,0,1-9.52-.83,14,14,0,0,1,2.28-26.28,14,14,0,0,1,11.58,2.07A12.74,12.74,0,0,1,399.22,172.46Z" style="fill:#8e9fb0"/><path d="M399.22,172.46a14.05,14.05,0,0,1-9.93,17.18,13.68,13.68,0,0,1-9.52-.83,13.29,13.29,0,0,1-5.38-7.86,14.05,14.05,0,0,1,9.93-17.18,14.9,14.9,0,0,1,9.52.83A13.29,13.29,0,0,1,399.22,172.46Z" style="fill:#a1adba"/><path d="M298,286.27a14.05,14.05,0,0,1-9.93,17.17,13.61,13.61,0,0,1-9.52-.83,14,14,0,1,1,13.86-24.21A14.66,14.66,0,0,1,298,286.27Z" style="fill:#8e9fb0"/><path d="M298,286.27a14.05,14.05,0,0,1-9.93,17.17,13.61,13.61,0,0,1-9.52-.83,13.24,13.24,0,0,1-5.38-7.86,14,14,0,0,1,9.93-17.17,14.9,14.9,0,0,1,9.52.82A15.5,15.5,0,0,1,298,286.27Z" style="fill:#a1adba"/><path d="M556.89,406.69A14.05,14.05,0,0,1,547,423.87a13.62,13.62,0,0,1-9.52-.83,14,14,0,1,1,13.87-24.21A13.63,13.63,0,0,1,556.89,406.69Z" style="fill:#8e9fb0"/><path d="M556.89,406.69A14.05,14.05,0,0,1,547,423.87a13.62,13.62,0,0,1-9.52-.83,13.29,13.29,0,0,1-5.38-7.86A14.05,14.05,0,0,1,542,398a15,15,0,0,1,9.52.83A14.27,14.27,0,0,1,556.89,406.69Z" style="fill:#a1adba"/><path d="M644.63,224.4a14.06,14.06,0,0,1-9.94,17.17,13.68,13.68,0,0,1-9.52-.82A14,14,0,1,1,639,216.54,15.37,15.37,0,0,1,644.63,224.4Z" style="fill:#6c7986"/><path d="M644.63,224.4a14.06,14.06,0,0,1-9.94,17.17,13.68,13.68,0,0,1-9.52-.82,13.34,13.34,0,0,1-5.38-7.87,14.06,14.06,0,0,1,9.94-17.17,14.83,14.83,0,0,1,9.52.83A16.31,16.31,0,0,1,644.63,224.4Z" style="fill:#7d8690"/><path d="M426.12,334.07a14,14,0,0,1-9.93,17.17,13.62,13.62,0,0,1-9.52-.83,14,14,0,1,1,13.86-24.21A14.59,14.59,0,0,1,426.12,334.07Z" style="fill:#8e9fb0"/><path d="M426.12,334.07a14,14,0,0,1-9.93,17.17,13.62,13.62,0,0,1-9.52-.83,13.29,13.29,0,0,1-5.38-7.86,14.05,14.05,0,0,1,9.93-17.18,15,15,0,0,1,9.52.83A15.41,15.41,0,0,1,426.12,334.07Z" style="fill:#a1adba"/><path d="M142.64,321.44a14.05,14.05,0,0,1-9.93,17.18,13.62,13.62,0,0,1-9.52-.83,14,14,0,1,1,13.86-24.21A13.6,13.6,0,0,1,142.64,321.44Z" style="fill:#8e9fb0"/><path d="M142.64,321.44a14.05,14.05,0,0,1-9.93,17.18,13.62,13.62,0,0,1-9.52-.83,13.29,13.29,0,0,1-5.38-7.86,14.05,14.05,0,0,1,9.93-17.18,15,15,0,0,1,9.52.83A14.27,14.27,0,0,1,142.64,321.44Z" style="fill:#a1adba"/><path d="M130.85,515.53a14.06,14.06,0,0,1-9.93,17.18,13.67,13.67,0,0,1-9.52-.83,14,14,0,1,1,13.86-24.21A14.6,14.6,0,0,1,130.85,515.53Z" style="fill:#8e9fb0"/><path d="M130.85,515.53a14.06,14.06,0,0,1-9.93,17.18,13.67,13.67,0,0,1-9.52-.83A13.24,13.24,0,0,1,106,524,14.05,14.05,0,0,1,116,506.84a14.9,14.9,0,0,1,9.52.83A15.43,15.43,0,0,1,130.85,515.53Z" style="fill:#a1adba"/><path d="M244,615.06a14,14,0,0,1-9.93,17.17,13.62,13.62,0,0,1-9.52-.82,14,14,0,0,1,2.28-26.28,14,14,0,0,1,11.58,2.07A16.27,16.27,0,0,1,244,615.06Z" style="fill:#8e9fb0"/><path d="M244,615.06a14,14,0,0,1-9.93,17.17,13.62,13.62,0,0,1-9.52-.82,13.34,13.34,0,0,1-5.38-7.87,14,14,0,0,1,9.93-17.17,14.9,14.9,0,0,1,9.52.83A17.34,17.34,0,0,1,244,615.06Z" style="fill:#a1adba"/><path d="M357.84,529.4a14,14,0,0,1-9.94,17.17,13.59,13.59,0,0,1-9.51-.83,14,14,0,1,1,13.86-24.21A14.32,14.32,0,0,1,357.84,529.4Z" style="fill:#8e9fb0"/><path d="M357.84,529.4a14,14,0,0,1-9.94,17.17,13.59,13.59,0,0,1-9.51-.83,13.24,13.24,0,0,1-5.38-7.86,14,14,0,0,1,9.93-17.17,14.9,14.9,0,0,1,9.52.82A15.08,15.08,0,0,1,357.84,529.4Z" style="fill:#a1adba"/><path d="M516.13,615.68a14.05,14.05,0,0,1-9.93,17.18,13.68,13.68,0,0,1-9.52-.83,14,14,0,1,1,13.86-24.21A15.07,15.07,0,0,1,516.13,615.68Z" style="fill:#6c7986"/><path d="M516.13,615.68a14.05,14.05,0,0,1-9.93,17.18,13.68,13.68,0,0,1-9.52-.83,13.28,13.28,0,0,1-5.38-7.87A14,14,0,0,1,501.23,607a14.9,14.9,0,0,1,9.52.83A15.93,15.93,0,0,1,516.13,615.68Z" style="fill:#7d8690"/><path d="M652.07,393.86A14.05,14.05,0,0,1,642.14,411a13.62,13.62,0,0,1-9.52-.83A14,14,0,1,1,646.49,386,13.54,13.54,0,0,1,652.07,393.86Z" style="fill:#6c7986"/><path d="M652.07,393.86A14.05,14.05,0,0,1,642.14,411a13.62,13.62,0,0,1-9.52-.83,13.29,13.29,0,0,1-5.38-7.86,14.06,14.06,0,0,1,9.94-17.18,14.93,14.93,0,0,1,9.51.83A14.17,14.17,0,0,1,652.07,393.86Z" style="fill:#7d8690"/><path d="M530.2,116.8A14.05,14.05,0,0,1,520.27,134a13.68,13.68,0,0,1-9.52-.83,14,14,0,1,1,13.86-24.21A13.6,13.6,0,0,1,530.2,116.8Z" style="fill:#8e9fb0"/><path d="M530.2,116.8A14.05,14.05,0,0,1,520.27,134a13.68,13.68,0,0,1-9.52-.83,13.28,13.28,0,0,1-5.38-7.87,14,14,0,0,1,9.93-17.17,14.9,14.9,0,0,1,9.52.83A14.27,14.27,0,0,1,530.2,116.8Z" style="fill:#a1adba"/><path d="M299.07,102.94a14,14,0,0,1-9.93,17.17,13.62,13.62,0,0,1-9.52-.83,14,14,0,1,1,13.86-24.21A13.66,13.66,0,0,1,299.07,102.94Z" style="fill:#8e9fb0"/><path d="M299.07,102.94a14,14,0,0,1-9.93,17.17,13.62,13.62,0,0,1-9.52-.83,13.29,13.29,0,0,1-5.38-7.86,14,14,0,0,1,9.93-17.17,14.9,14.9,0,0,1,9.52.82A14.33,14.33,0,0,1,299.07,102.94Z" style="fill:#a1adba"/></g></svg>