<svg height="230" viewBox="0 0 196 230" width="196" xmlns="http://www.w3.org/2000/svg"><path d="m123.8 118.2c4.7-6 9.5-12 14.2-18 2-2.5 4.4-4.6 6.4-7.1.8-1 1.6-2 2.4-2.9.1-.2.3-.4.2-.6s-.2-.3-.4-.4c-2.3-1.6-4.5-3.6-6.7-5.4-2.4-2-5.2-4.2-6.6-7-.4-.9-1.1-2-2-1.8-.6.1-.9.7-1.2 1.2-2 3.5-3.1 7-5.2 10.5-5.9 9.4-12.2 18.7-18.6 27.7 1.5-2.2.3-10.7.3-13.4.1-4.5.2-9 .3-13.4.2-9.3.3-18.5.4-27.8s.2-18.5.2-27.8v-14.3c0-1.9 1.3-8.5-.5-9.7a5.55 5.55 0 0 0 -2.8-.7c-6.1-.3-12.2.7-18.2 1.7a45.85 45.85 0 0 1 -9.8.9c-4.5-.2-6.2-1.4-6.7 3.2-.3 3.3.5 7.2.9 10.5 1 7.3 2.6 14.5 4.1 21.6s3.1 14.3 3.9 21.6a90.82 90.82 0 0 1 .7 10.4c0 1.2-1.1 9.2-.6 9.6a171.73 171.73 0 0 1 -27.1-26.8c-1.8-2.3-3.4-5.7-5.5-7.5-3.2-2.8-3.3-.5-4.9 3.1-2.4 5.3-4 11.3-6.9 16.3-.8 1.5-2.2 2.5-3.2 3.9-1.7 2.1-3.1 4-5.5 5.3-.7.4-1.5.9-1.4 1.6s.6.9 1.1 1.2c5 2.6 10.9 3 15.9 5.6 7.3 3.7 13.7 8.9 20.1 14 3 2.4 6.1 4.9 7.5 8.4 1.1 2.7 1.1 5.7 1.1 8.6 0 4.7-.1 9.5-.1 14.2a4.51 4.51 0 0 1 -.5 2.5c-1.3 2.1-4.5 1.1-6.5-.2a63 63 0 0 1 -11.6-9.6c-4.4-4.7-5.8-9.2-9.2-1.5-2.6 5.8-5 10.7 1.7 13.4 6.4 2.5 12.7 4.7 17.9 9.3a31 31 0 0 1 9.5 29.7l5.1 14.1a134.46 134.46 0 0 1 35.8-3c-.8-5.6-1.6-11.1-2.4-16.7-1.5-10.2-2.9-20.7-.1-30.5 2.8-9.1 8.7-16.7 14.5-24z" fill="#e38371"/><path d="m124.4 169.5s-48 4.6-41 34.1c3.9 16.5 26.4 19.4 40.2 20.4 10.3.7 21 2.3 31.1.1 17.9-3.9 26.9-20.6 18.2-37.3-13.2-25.4-48.5-17.3-48.5-17.3z" fill="#999"/><path d="m62.7 162.3s-60.8 13.1-42.2 45.6c9.2 16.1 32.4 18.2 49 17.4 13.8-.7 51.6-3.9 44.7-25.3-1.6-5.1-5.3-9.4-9-13.3-11-11.4-24.1-28.3-42.5-24.4z" fill="#b3b3b3"/><g fill="#ca4957"><ellipse cx="88.74" cy="9.01" rx="18.9" ry="5.4" transform="matrix(1 -.06 .06 1 -.36 4.95)"/><ellipse cx="34.12" cy="67.26" rx="18.9" ry="5.4" transform="matrix(.5096422 -.86038644 .86038644 .5096422 -41.14 62.34)"/><ellipse cx="42.8" cy="129.49" rx="8.2" ry="5.4" transform="matrix(.5096422 -.86038644 .86038644 .5096422 -90.43 100.33)"/><ellipse cx="138.67" cy="82.74" rx="5.4" ry="11.5" transform="matrix(.66131187 -.75011107 .75011107 .66131187 -15.1 132.03)"/><path d="m80.8 31c-2.4 0-4.7-.2-7-.4l-2.4-.2a2.16 2.16 0 1 1 .3-4.3l2.4.2c4.7.4 10 .8 14.6-.9a2.15 2.15 0 1 1 1.6 4 26 26 0 0 1 -9.5 1.6z"/><path d="m90.5 42.7h-2.6a2.15 2.15 0 0 1 .1-4.3h.1a87.44 87.44 0 0 0 19.1-1.5 2.14 2.14 0 1 1 .8 4.2 93.4 93.4 0 0 1 -17.5 1.6z"/><path d="m90.1 60.6h-12a2.2 2.2 0 1 1 0-4.4h12a2.2 2.2 0 1 1 0 4.4z"/><path d="m96.1 75a2.2 2.2 0 0 1 -2.2-2.1 2.14 2.14 0 0 1 2.1-2.2l5.9-.1a11.48 11.48 0 0 0 1.9-.1 11.63 11.63 0 0 0 1.8-.4 2.12 2.12 0 1 1 1.4 4 13.1 13.1 0 0 1 -2.7.6 18.48 18.48 0 0 1 -2.3.1z"/><path d="m52.3 75a2.28 2.28 0 0 1 -1.1-.3 2.14 2.14 0 0 1 -.8-2.9c.6-1.1 1.3-2.3 1.9-3.4l2.1-3.8a2.15 2.15 0 0 1 3.8 2l-2.1 3.8c-.6 1.2-1.3 2.4-1.9 3.5a2.14 2.14 0 0 1 -1.9 1.1z"/><path d="m48.3 95.8a2.66 2.66 0 0 1 -2.1-1 2.18 2.18 0 0 1 .4-3 2.15 2.15 0 0 1 1.5-.4 16.37 16.37 0 0 0 5.7-5.7 2.13 2.13 0 1 1 3.7 2.1 19.66 19.66 0 0 1 -7.8 7.6 2.3 2.3 0 0 1 -1.4.4z"/><path d="m67.6 92.6a1.66 1.66 0 0 1 -1.3-.5 2.2 2.2 0 0 1 -.4-3c2-2.5 3.7-5 3.6-7.5a2.14 2.14 0 0 1 2.1-2.2h.1a2.2 2.2 0 0 1 2.2 2.1c.1 4.3-2.7 7.9-4.5 10.2a2.42 2.42 0 0 1 -1.8.9z"/><path d="m106.5 96.6h-12.9a2.2 2.2 0 0 1 0-4.4h12.9a2.22 2.22 0 0 1 2.2 2.2 2.29 2.29 0 0 1 -2.2 2.2z"/><path d="m76.6 113.5a41.36 41.36 0 0 1 -7-.6 4.43 4.43 0 0 1 -3.3-1.9 2.25 2.25 0 0 1 .7-3 2.07 2.07 0 0 1 2.8.5 2 2 0 0 0 .5.1 39.3 39.3 0 0 0 14.5-.3 2.2 2.2 0 1 1 .9 4.3 46 46 0 0 1 -9.1.9z"/><path d="m97.9 117.3c-1.1 0-2.2 0-3.3-.1a2.16 2.16 0 1 1 .3-4.3 42.55 42.55 0 0 0 10.1-.5c.1-.1.3-.2.4-.3a2.21 2.21 0 0 1 2.9.9 2.56 2.56 0 0 1 0 2.1 2.78 2.78 0 0 1 -1.9 1.4 47.13 47.13 0 0 1 -8.5.8z"/><path d="m125.9 99.6a1.27 1.27 0 0 1 -.6-.1 13.51 13.51 0 0 1 -5-2.7 4.49 4.49 0 0 1 -1.6-2.6 2.16 2.16 0 0 1 1.8-2.5 2.05 2.05 0 0 1 2.4 1.6l.2.2a8.91 8.91 0 0 0 3.3 1.8 2.23 2.23 0 0 1 1.5 2.7 2 2 0 0 1 -2 1.6z"/><path d="m127.1 115.8a1.88 1.88 0 0 1 -.8-.2 23.44 23.44 0 0 1 -6.6-4.3 2.78 2.78 0 0 1 -.9-2.4 2.42 2.42 0 0 1 1.3-1.8 2.16 2.16 0 0 1 2.9 1c.1.2.1.3.2.5a15 15 0 0 0 4.8 3 2.09 2.09 0 0 1 1.1 2.8 2 2 0 0 1 -2 1.4z"/><path d="m79.5 133.6c-3.1 0-6.3 0-9.4-.1a2.15 2.15 0 1 1 .1-4.3c5.2.1 10.5.1 15.8 0a2.15 2.15 0 1 1 .1 4.3c-2.2.1-4.4.1-6.6.1z"/><path d="m98.9 149.2h-16.7a2.07 2.07 0 0 1 -2.1-2.2 2.14 2.14 0 0 1 2.2-2.1c6 0 12 .1 18 0a18.2 18.2 0 0 0 6.2-.7 2.15 2.15 0 0 1 1.6 4 21 21 0 0 1 -7.7 1z"/><path d="m87.3 166.2a62 62 0 0 1 -9.6-.7 2.18 2.18 0 0 1 .7-4.3 58.35 58.35 0 0 0 17.7 0 2.18 2.18 0 1 1 .7 4.3 60.75 60.75 0 0 1 -9.5.7z"/><path d="m55.6 140.6a2 2 0 0 1 -1.3-.4 2.2 2.2 0 0 1 -.4-3l2.9-3.8a2.14 2.14 0 0 1 3.4 2.6l-2.9 3.8a2.14 2.14 0 0 1 -1.7.8z"/><path d="m65.5 151.9a2.2 2.2 0 0 1 -1.5-.6 2.09 2.09 0 0 1 -.1-3 17 17 0 0 0 2.7-3.9 2.17 2.17 0 0 1 3.9 1.9 18 18 0 0 1 -3.5 5 2 2 0 0 1 -1.5.6z"/></g></svg>