<svg height="95" viewBox="0 0 140 95" width="140" xmlns="http://www.w3.org/2000/svg"><path d="m59 0h22c.68 1.67 2.29 1 3.46 1.28q43.38 10.91 54.26 54.26c.29 1.17-.39 2.78 1.28 3.46v20c-7.3 8.44-12.78 8.43-20.21-.22-2.34 3.58-5.11 6.29-9.85 6.28s-7.42-2.84-10-6.63c-3.48 6.36-8.52 7.83-14.81 5.72a9 9 0 0 1 -1.87-1.63c-2.16-3.37-3.76-3.14-6.49-.14-3.76 4.13-10.3 3.73-14.19-.67-2.17-2.46-3.32-2.62-5.07.09a13.45 13.45 0 0 1 -2.56 2.35q-9.7 3.5-15.08-5.91c-2 4-4.53 6.14-8.28 6.73-5.43.85-8.83-2.31-11.67-6.42-6.23 8.77-12.79 8.77-19.92.45v-21c1.81-.94 1.38-2.88 1.78-4.36q11.22-41.07 52.32-51.99c1.63-.43 3.72.2 4.9-1.65z" fill="#3ab54b"/><path d="m55 95-.09-10.85a13.45 13.45 0 0 0 2.56-2.35c1.75-2.71 2.9-2.55 5.07-.09 3.89 4.4 10.43 4.8 14.19.67 2.73-3 4.33-3.23 6.49.14a9 9 0 0 0 1.87 1.63l-.09 10.85z" fill="#a57c52"/></svg>