<svg height="532" viewBox="0 0 397 532" width="397" xmlns="http://www.w3.org/2000/svg"><path d="m186.51 481-11.72-7.27-13.18-8.14a4.74 4.74 0 0 1 -1.37-3.68 5.67 5.67 0 0 0 -.25-2 11.8 11.8 0 0 1 -.42-3 6.18 6.18 0 0 0 -.23-1.67 12.17 12.17 0 0 1 -.45-3.34 23.39 23.39 0 0 0 -.3-2.34 9.58 9.58 0 0 1 -.31-1.65c0-2.39-.94-4.64-.83-7a14.53 14.53 0 0 1 -.62-4.68 4.25 4.25 0 0 0 -.22-1.32 10.24 10.24 0 0 1 -.43-3 6.1 6.1 0 0 0 -.23-1.66 11.84 11.84 0 0 1 -.45-3 19.24 19.24 0 0 0 -.28-2 23.4 23.4 0 0 1 -.35-2.33c-.14-2.36-.94-4.65-.82-7a1.71 1.71 0 0 0 -.15-.65 9.24 9.24 0 0 1 -.42-2.66c0-.79-.22-1.56-.32-2.34s-.28-1.78-.34-2.67a12.76 12.76 0 0 0 -.41-3 8.84 8.84 0 0 1 -.27-2 12.11 12.11 0 0 0 -.38-2.67 18 18 0 0 1 -.31-2.34 13.56 13.56 0 0 0 -.28-2 12.05 12.05 0 0 1 -.4-2.66c-.05-.78-.22-1.56-.33-2.34s-.27-1.55-.32-2.33a13.1 13.1 0 0 0 -.43-3.35 7.83 7.83 0 0 1 -.25-2 12.14 12.14 0 0 0 -.4-2.67 9.55 9.55 0 0 1 -.28-2c-.12-2.36-.93-4.64-.81-7a6.08 6.08 0 0 0 -.24-1c-.26-1.78-.5-3.56-.74-5.34l1.48-4.12c.08-.21.2-.41.28-.62 1.56-3.87 3.23-7.69 4.64-11.61 1.76-4.88 3.79-9.65 5.69-14.48 1.48-3.77 3.11-7.49 4.49-11.31s2.85-7.35 4.3-11c1-2.42 2-4.81 2.88-7.23a2.86 2.86 0 0 0 .25-1.63c-.37-1.43-.41-2.9-.71-4.33-.8-3.74-1.39-7.51-2-11.28-.25-1.55-.49-3.11-.76-4.66-.35-2-.77-4-1.1-6s-.43-4.05-.92-6-.65-4-1.05-6c-.54-2.63-.9-5.31-1.39-8-.77-4.2-1.43-8.42-2.15-12.63a1.53 1.53 0 0 0 -.32-.52c-.14-.18-.58.07-.82.45l-4.76 7.82c-.71 1.16-1.39 2.33-2.11 3.47-1.75 2.76-3.55 5.49-5.28 8.26-1.55 2.49-3 5-4.55 7.52-1.42 2.3-2.94 4.54-4.35 6.85a11 11 0 0 1 -3.5 3.6c-6 3.85-11.71 8.05-17.83 11.66a4.34 4.34 0 0 0 -1.89 2.29c-2 5.27-4.08 10.51-6.13 15.75q-2.16 5.5-4.34 11c-1 2.62-2.05 5.24-3.08 7.87l-4.32 11c-1 2.62-2.15 5.21-3.09 7.87-1.56 4.47-3.5 8.79-5.15 13.22a6.33 6.33 0 0 1 -1.52 2.61c-.92-1.81-1.87-3.6-2.75-5.43q-11.5-24-23-47.92c-4.49-9.36-9-18.71-13.43-28.1a20.48 20.48 0 0 0 -4-5.78q-12.29-12.37-24.46-24.87c-2.83-2.89-2.49-2-2.49-6.21q0-15.57 0-31.16c0-.45 0-.9 0-1.35a5.41 5.41 0 0 1 1.16-3.78c2.23-3 4.36-6 6.49-9.09 1.16-1.66 2.23-3.37 3.35-5.06.06.25.13.5.19.74s-.08.68-.1 1a2.35 2.35 0 0 0 1.46 2.44 11.4 11.4 0 0 0 4.85 1.31h11.85a5.7 5.7 0 0 0 3.75-1.31 51.55 51.55 0 0 1 10.34-6.37 31.7 31.7 0 0 1 6-2.2 48.38 48.38 0 0 1 5.64-.92 2.76 2.76 0 0 1 1.33.17 1.55 1.55 0 0 1 .6.74 1 1 0 0 1 0 .66c-.26.86-.58 1.71-.83 2.58a7.62 7.62 0 0 0 -.3 1.65 4 4 0 0 0 2.49 4.11 9 9 0 0 0 3.58.92c2.82 0 5.64.06 8.46 0a6.81 6.81 0 0 0 4.86-2c2-2.14 4.66-3.51 7.17-5a15.28 15.28 0 0 1 2.82-1.1c2.23-.77 4.52-1.35 6.73-2.16a2.29 2.29 0 0 0 .53-.41h2.37s1.35 0 2 .06a1.68 1.68 0 0 1 1.39 2.48c-.4.81-.91 1.56-1.35 2.34a1.84 1.84 0 0 0 -.1 1.62 6.3 6.3 0 0 0 2.17 3 2.29 2.29 0 0 0 .87.49 22.38 22.38 0 0 0 4.3.83h12.17a5.7 5.7 0 0 0 3.18-1c.28-.18.53-.41.81-.6a34.67 34.67 0 0 1 6.28-3.94 12.86 12.86 0 0 0 1.12-.75 23.66 23.66 0 0 1 2.39-1.26 52.57 52.57 0 0 1 11-3.18 6.76 6.76 0 0 1 1.35 0 1.45 1.45 0 0 1 1.5 1.8 6.47 6.47 0 0 1 -.26 1.31c-.18.53-.47 1-.68 1.55a3.84 3.84 0 0 0 1.89 4.85 10 10 0 0 0 4.19 1.22c2.7.05 5.41.08 8.11 0a6.78 6.78 0 0 0 4.85-2.07 12.66 12.66 0 0 1 2.34-1.92c1.62-1 3.3-1.94 5-2.84a23 23 0 0 1 2.78-1.23 48.36 48.36 0 0 1 10.41-2.76 23.28 23.28 0 0 0 .6 5.69 7.05 7.05 0 0 1 .12 2v4.4a7 7 0 0 0 .14 2 21.49 21.49 0 0 1 .53 6 13.85 13.85 0 0 0 .15 3.36 28.64 28.64 0 0 1 .53 6.71 12.07 12.07 0 0 0 .18 3 18.59 18.59 0 0 1 .48 5 21.12 21.12 0 0 0 .53 6 7 7 0 0 1 .13 2v4.4a7 7 0 0 0 .13 2 21.12 21.12 0 0 1 .53 6 12.56 12.56 0 0 0 .19 3 17.31 17.31 0 0 1 .47 4.69 22.44 22.44 0 0 0 .55 6.37 7.43 7.43 0 0 1 .12 2v4.39a7.09 7.09 0 0 0 .14 2 19.84 19.84 0 0 1 .52 5.69 16.81 16.81 0 0 0 .16 3.7 27.37 27.37 0 0 1 .52 6.37 14.89 14.89 0 0 0 .2 3.36 18.63 18.63 0 0 1 .47 4.69 22.43 22.43 0 0 0 .54 6.37 7.43 7.43 0 0 1 .12 2v3.72a8.65 8.65 0 0 0 .21 2.34 15.25 15.25 0 0 1 .44 4.35v3.72a5.82 5.82 0 0 0 .66 2.59 16.84 16.84 0 0 0 -.69 5.33c.05 6.32 0 12.64 0 19q0 11.67 0 23.36a17 17 0 0 1 -.13 3c-.35 2-.79 4-1.29 5.93-.78 3.05-1.24 6.17-1.93 9.24-.76 3.4-1.35 6.83-2.11 10.23s-1.31 6.61-2 9.9c-.67 3.07-1.19 6.17-1.92 9.24-.79 3.39-1.39 6.82-2.12 10.23-.65 3.07-1.2 6.17-1.9 9.24-.81 3.5-1.45 7-2.17 10.56s-1.41 6.82-2.13 10.23c-.39 1.87-.84 3.72-1.21 5.6-.67 3.3-1.24 6.62-2 9.9a48.74 48.74 0 0 0 -1.48 9.28z" fill="#c7dff0"/><path d="m209.73 320.77a5.82 5.82 0 0 1 -.66-2.59c0-1.24 0-2.48 0-3.72a15.25 15.25 0 0 0 -.44-4.35 8.65 8.65 0 0 1 -.21-2.34c0-1.24 0-2.48 0-3.72a7.43 7.43 0 0 0 -.12-2 22.43 22.43 0 0 1 -.54-6.37 18.63 18.63 0 0 0 -.47-4.69 14.89 14.89 0 0 1 -.2-3.36 27.37 27.37 0 0 0 -.52-6.37 16.81 16.81 0 0 1 -.16-3.7 19.84 19.84 0 0 0 -.52-5.69 7.09 7.09 0 0 1 -.14-2c0-1.46 0-2.92 0-4.39a7.43 7.43 0 0 0 -.12-2 22.44 22.44 0 0 1 -.55-6.37 17.31 17.31 0 0 0 -.47-4.69 12.56 12.56 0 0 1 -.19-3 21.12 21.12 0 0 0 -.53-6 7 7 0 0 1 -.13-2c0-1.47 0-2.93 0-4.4a7 7 0 0 0 -.13-2 21.12 21.12 0 0 1 -.53-6 18.59 18.59 0 0 0 -.48-5 12.07 12.07 0 0 1 -.18-3 28.64 28.64 0 0 0 -.53-6.71 13.85 13.85 0 0 1 -.15-3.36 21.49 21.49 0 0 0 -.53-6 7 7 0 0 1 -.14-2c0-1.47 0-2.93 0-4.4a7.05 7.05 0 0 0 -.12-2 23.28 23.28 0 0 1 -.6-5.69 19.21 19.21 0 0 1 2 .15 1.33 1.33 0 0 1 1 1.79c-.17.42-.35.83-.54 1.24s-.52 1-.75 1.51a3.57 3.57 0 0 0 1.06 4.54 3.71 3.71 0 0 0 1.76.93 21.66 21.66 0 0 0 5.33.71c5.18-.07 10.36 0 15.55 0a17.19 17.19 0 0 0 2 0 8.25 8.25 0 0 0 4.36-1.61c1.13-.92 2.37-1.7 3.58-2.52a44.74 44.74 0 0 1 15.13-6.46 10.87 10.87 0 0 1 4-.08 1.21 1.21 0 0 1 .91 1.25 8.19 8.19 0 0 1 -.25 1.31c-.26.87-.61 1.7-.85 2.57a3.34 3.34 0 0 0 1.9 4.21 10.84 10.84 0 0 0 5.17 1.36l2.36-.08.53.12a27.32 27.32 0 0 0 .28 3c.56 2.64 1.23 5.25 1.8 7.89.74 3.4 1.52 6.79 2.24 10.2.89 4.29 2.1 8.51 3 12.79.79 3.62 1.61 7.23 2.36 10.86.91 4.4 2.12 8.74 3.12 13.12 1.19 5.15 2.24 10.32 3.49 15.45.26 1.09.45 2.2.69 3.3a7 7 0 0 0 .36 1.29c.84 2 1.64 4 2.59 5.87 5.69 11.52 11.48 23 17 34.59 3.33 7 6.92 13.93 10.37 20.9.6 1.21 1.08 2.48 1.64 3.7a23.7 23.7 0 0 0 1.39 2.7c.2.32.74.43 1.13.64a6.77 6.77 0 0 1 -1.26 2.35q-9 14.28-18.08 28.55-9.21 14.57-18.39 29.14l-11.9 18.86c-.54.86-1.09 1.71-1.68 2.53a3.17 3.17 0 0 1 -.79.58 1.28 1.28 0 0 1 -1.29-1.29 20.07 20.07 0 0 0 -.32-3 15.8 15.8 0 0 1 -.46-3.34 4.85 4.85 0 0 0 -.17-1.33 11.85 11.85 0 0 1 -.5-3.34 19.2 19.2 0 0 0 -.33-2 12.69 12.69 0 0 1 -.29-2c0-2.5-.88-4.88-.86-7.37a12.35 12.35 0 0 1 -.58-4 3.32 3.32 0 0 0 -.16-1 11.44 11.44 0 0 1 -.49-3.34c-.05-.66-.23-1.32-.34-2a12.34 12.34 0 0 1 -.28-2c0-2.49-.86-4.88-.87-7.37a14.66 14.66 0 0 1 -.58-4c-.15-1.45-.53-2.87-.68-4.33-.23-2.12-.69-4.22-.75-6.36a7.42 7.42 0 0 0 -.23-1 13.58 13.58 0 0 1 -.29-2c-.08-2.25-.87-4.42-.84-6.69a12.79 12.79 0 0 1 -.58-4.34 4.91 4.91 0 0 0 -.19-1.33c-.68-2.17-.31-4.51-1.08-6.66.06-2.38-.91-4.65-.81-7a19.8 19.8 0 0 1 -.66-4.34c-.12-1.45-.65-2.84-.68-4.33a1.77 1.77 0 0 0 -1.4-1.7c-1.62-.49-3.25-.94-4.86-1.44q-6.94-2.16-13.88-4.35c-.21-.07-.42-.17-.64-.23-4.15-1.05-8.22-2.38-12.3-3.66-2.29-.97-4.59-1.67-6.86-2.2z" fill="#93c9e6"/><path d="m87.88 364.74a6.33 6.33 0 0 0 1.52-2.61c1.65-4.43 3.59-8.75 5.15-13.22.94-2.66 2-5.25 3.09-7.87l4.36-11.04c1-2.63 2.05-5.25 3.08-7.87q2.17-5.51 4.34-11c2.05-5.24 4.12-10.48 6.13-15.75a4.34 4.34 0 0 1 1.89-2.29c6.12-3.61 11.86-7.81 17.83-11.66a11 11 0 0 0 3.5-3.6c1.41-2.31 2.93-4.55 4.35-6.85 1.54-2.49 3-5 4.55-7.52 1.73-2.77 3.53-5.5 5.28-8.26.72-1.14 1.4-2.31 2.11-3.47l4.74-7.79c.24-.38.68-.63.82-.45a1.53 1.53 0 0 1 .32.52c.72 4.21 1.38 8.43 2.15 12.63.49 2.65.85 5.33 1.39 8 .4 2 .56 4 1.05 6s.59 4 .92 6 .75 4 1.1 6c.27 1.55.51 3.11.76 4.66.61 3.77 1.2 7.54 2 11.28.3 1.43.34 2.9.71 4.33a2.86 2.86 0 0 1 -.25 1.63c-.93 2.42-1.93 4.81-2.88 7.23-1.45 3.66-3 7.3-4.3 11s-3 7.54-4.49 11.31c-1.9 4.83-3.93 9.6-5.69 14.48-1.41 3.92-3.08 7.74-4.64 11.61-.08.21-.2.41-.28.62l-1.49 4.05c.24 1.78.48 3.56.74 5.34a6.08 6.08 0 0 1 .24 1c-.12 2.39.69 4.67.81 7a9.55 9.55 0 0 0 .28 2 12.14 12.14 0 0 1 .4 2.67 7.83 7.83 0 0 0 .25 2 13.1 13.1 0 0 1 .43 3.35c0 .78.21 1.55.32 2.33s.28 1.56.33 2.34a12.05 12.05 0 0 0 .4 2.66 13.56 13.56 0 0 1 .28 2 18 18 0 0 0 .31 2.34 12.11 12.11 0 0 1 .38 2.67 8.84 8.84 0 0 0 .27 2 12.76 12.76 0 0 1 .41 3c.06.89.22 1.78.34 2.67s.27 1.55.32 2.34a9.24 9.24 0 0 0 .42 2.66 1.71 1.71 0 0 1 .15.65c-.12 2.39.68 4.68.82 7a23.4 23.4 0 0 0 .35 2.33 19.24 19.24 0 0 1 .28 2 11.84 11.84 0 0 0 .45 3 6.1 6.1 0 0 1 .23 1.66 10.24 10.24 0 0 0 .43 3 4.25 4.25 0 0 1 .22 1.32 14.53 14.53 0 0 0 .62 4.68c-.11 2.39.87 4.64.83 7a9.58 9.58 0 0 0 .31 1.65 23.39 23.39 0 0 1 .3 2.34 12.17 12.17 0 0 0 .45 3.34 6.18 6.18 0 0 1 .23 1.67 11.8 11.8 0 0 0 .42 3 5.67 5.67 0 0 1 .25 2 4.74 4.74 0 0 0 1.37 3.68 2.1 2.1 0 0 0 -1.54.54c-.73.86-1.49 1.7-2.17 2.59q-7.78 10.2-15.55 20.42-5.94 7.79-11.92 15.54c-.41.53-.86 1-1.3 1.56a.5.5 0 0 1 -.82-.09 11.2 11.2 0 0 1 -.52-1.24c-2.1-6.65-4.17-13.32-6.27-20-.37-1.18-.82-2.33-1.24-3.49l-.72-.8v.06c.34-2.09-.45-4-1-5.95-1.37-5.22-2.85-10.4-4.28-15.61-.23-.86-.43-1.74-.67-2.61q-1.45-5.37-2.92-10.73-1.6-5.85-3.2-11.71c-1-3.47-1.92-6.93-2.86-10.4-1.06-3.91-2.1-7.82-3.16-11.72-1-3.69-2-7.37-3-11.06s-2-7.38-3-11.06q-1.84-6.84-3.73-13.66c-.42-1.52-.91-3-1.41-4.51a3.13 3.13 0 0 0 -.58-.8 9 9 0 0 0 -1.31-4.68 12.53 12.53 0 0 1 -.59-1.38z" fill="#93c9e6"/><path d="m209.73 320.77c2.31.53 4.57 1.22 6.83 1.94 4.08 1.28 8.15 2.61 12.3 3.66.22.06.43.16.64.23q6.94 2.17 13.88 4.35c1.61.5 3.24.95 4.86 1.44a1.77 1.77 0 0 1 1.4 1.7c0 1.49.56 2.88.68 4.33a19.8 19.8 0 0 0 .66 4.34c-.1 2.38.87 4.65.81 7 .77 2.15.4 4.49 1.08 6.66a4.91 4.91 0 0 1 .19 1.33 12.79 12.79 0 0 0 .58 4.34c0 2.27.76 4.44.84 6.69a13.58 13.58 0 0 0 .29 2 7.42 7.42 0 0 1 .23 1c.06 2.14.52 4.24.75 6.36.15 1.46.53 2.88.68 4.33a14.66 14.66 0 0 0 .58 4c0 2.49.87 4.88.87 7.37a12.34 12.34 0 0 0 .28 2c.11.67.29 1.33.34 2a11.44 11.44 0 0 0 .49 3.34 3.32 3.32 0 0 1 .16 1 12.35 12.35 0 0 0 .58 4c0 2.49.88 4.87.86 7.37a12.69 12.69 0 0 0 .29 2 19.2 19.2 0 0 1 .33 2 11.85 11.85 0 0 0 .5 3.34 4.85 4.85 0 0 1 .17 1.33 15.8 15.8 0 0 0 .46 3.34 20.07 20.07 0 0 1 .32 3 1.28 1.28 0 0 0 1.29 1.29l-1.67 4.65c-.28.18-.65.29-.82.55-.7 1-1.36 2.07-2 3.14-.52.87-1 1.78-1.48 2.66-1.35 2.35-2.72 4.68-4.06 7s-2.52 4.53-3.8 6.79c-.94 1.67-1.9 3.33-2.86 5-1.36 2.34-2.75 4.66-4.09 7s-2.51 4.54-3.79 6.8c-1 1.77-2 3.52-3 5.27-1.36 2.34-2.73 4.67-4.07 7s-2.52 4.54-3.79 6.8q-1.41 2.51-2.87 5c-1.3 2.24-2.64 4.46-3.93 6.71s-2.51 4.54-3.79 6.8c-1 1.86-2.13 3.71-3.2 5.57l-4.27 7.41c-1.07 1.85-2.11 3.73-3.23 5.56a20.8 20.8 0 0 1 -1.65 2.12 10.53 10.53 0 0 1 -1.35-3.07q-5.14-13.61-10.23-27.26-3.45-9.18-6.9-18.36c-.24-.63-.38-1.3-.56-1.95a48.74 48.74 0 0 1 1.56-9.29c.8-3.28 1.37-6.6 2-9.9.37-1.88.82-3.73 1.21-5.6q1.08-5.12 2.13-10.23c.72-3.52 1.36-7.06 2.17-10.56.7-3.07 1.25-6.17 1.9-9.24.73-3.41 1.33-6.84 2.12-10.23.73-3.07 1.25-6.17 1.92-9.24.72-3.29 1.3-6.61 2-9.9s1.35-6.83 2.11-10.23c.69-3.07 1.15-6.19 1.93-9.24.5-2 .94-3.94 1.29-5.93a17 17 0 0 0 .13-3q0-11.69 0-23.36c0-6.32 0-12.64 0-19a16.84 16.84 0 0 1 .72-5.32z" fill="#d2e5f2"/><path d="m200.19 190.62a48.36 48.36 0 0 0 -10.41 2.76 23 23 0 0 0 -2.78 1.23c-1.68.9-3.36 1.83-5 2.84a12.66 12.66 0 0 0 -2.34 1.92 6.78 6.78 0 0 1 -4.85 2.07c-2.7.08-5.41.05-8.11 0a10 10 0 0 1 -4.19-1.22 3.84 3.84 0 0 1 -1.89-4.85c.21-.52.5-1 .68-1.55a6.47 6.47 0 0 0 .26-1.31 1.45 1.45 0 0 0 -1.5-1.8 6.76 6.76 0 0 0 -1.35 0 52.57 52.57 0 0 0 -11 3.18 23.66 23.66 0 0 0 -2.39 1.26 12.86 12.86 0 0 1 -1.12.75 34.67 34.67 0 0 0 -6.28 3.94c-.28.19-.53.42-.81.6a5.7 5.7 0 0 1 -3.18 1c-4.05 0-8.11 0-12.17 0a22.38 22.38 0 0 1 -4.3-.83 2.29 2.29 0 0 1 -.87-.49 6.3 6.3 0 0 1 -2.17-3 1.84 1.84 0 0 1 .1-1.62c.44-.78 1-1.53 1.35-2.34a1.68 1.68 0 0 0 -1.39-2.48c-.67-.05-1.35-.06-2-.06s-1.58 0-2.37 0c0-2.47-.23-5 .62-7.37a.91.91 0 0 0 0-.33c0-2.14.94-4.18.8-6.34a1.56 1.56 0 0 1 .16-.66 8.64 8.64 0 0 0 .44-3 6.15 6.15 0 0 1 .22-1.66c.6-1.83.47-3.78 1-5.63.37-1.26.1-2.67.55-4s.15-2.91.74-4.31a6.44 6.44 0 0 0 .17-1.67c.09-.78.2-1.55.31-2.33s.26-1.55.35-2.32a6.57 6.57 0 0 1 .15-1.68c.75-1.8.31-3.82 1.07-5.62a6 6 0 0 0 .15-1.67 5.71 5.71 0 0 1 .16-1.67c.71-1.81.39-3.8 1.07-5.62a2.08 2.08 0 0 0 -.64-2.17 10.28 10.28 0 0 0 -1.21-1.17c-1.53-1.14-3.09-2.25-4.65-3.34a77.66 77.66 0 0 1 -7.18-5c-4.45-2.85-8.79-5.87-13.09-8.94a42.65 42.65 0 0 1 -4.12-2.93 3 3 0 0 0 -1.88-.66c.1-.44.2-.88.31-1.32a1.85 1.85 0 0 1 1-1.31c.91-.43 1.83-.87 2.75-1.29l19.43-8.81 1.85-.84a2.6 2.6 0 0 0 1.56-1.66c.63-1.92 1.35-3.83 2-5.74q9.94-28.26 19.86-56.53a18.32 18.32 0 0 1 3.32-5.82c7-8.31 13.84-16.69 20.76-25a8.83 8.83 0 0 1 2.29-2.43c.11 0 .36.15.55.23a6.06 6.06 0 0 0 .17 2.68 8.55 8.55 0 0 1 .42 2.66 7.25 7.25 0 0 0 .16 1.68c.63 2.51.72 5.1 1.19 7.64a30.13 30.13 0 0 1 .79 5.67 13.49 13.49 0 0 1 .62 4.32 2.09 2.09 0 0 0 .11.67c.55 1.28.32 2.69.68 4a17.53 17.53 0 0 1 .56 4 5.78 5.78 0 0 0 .16 1 54.65 54.65 0 0 1 1.24 7.67 3.78 3.78 0 0 0 .13 1c.72 2.26.45 4.7 1.16 7-.13 1.39.66 2.64.65 4 0 2.38 1 4.63.84 7 .74 2.06.56 4.22.65 6.35a19.33 19.33 0 0 1 -1.61-1.21c-1.79-1.7-3.39-3.62-5.55-4.92a7.08 7.08 0 0 1 -1.22-1.22c-1.12-1.11-2.29-2.18-3.34-3.36a41.13 41.13 0 0 0 -5.42-4.54 1.11 1.11 0 0 0 -1.49.37c-.82 1.6-1.67 3.19-2.39 4.83-1 2.17-1.69 4.41-2.73 6.55-1.53 3.14-2.95 6.33-4.4 9.5-.19.41-.28.86-.46 1.27-1.06 2.48-2 5-3.22 7.44-1.41 2.81-2.64 5.72-3.94 8.59-.13.31-.17.66-.31 1-1.07 2.48-2 5-3.23 7.43-1.37 2.71-2.55 5.52-3.81 8.29-.09.2-.16.42-.24.63a61.47 61.47 0 0 1 -3.3 7.76c-.21.4-.36.83-.53 1.24a1.3 1.3 0 0 0 .87 1.6 10.45 10.45 0 0 0 1.67.21 16.7 16.7 0 0 1 5.35.54 6.37 6.37 0 0 0 2 .14 9.91 9.91 0 0 1 3.67.45 3.05 3.05 0 0 0 1 .19 19.41 19.41 0 0 1 6 .67 3.75 3.75 0 0 0 1 0 14.17 14.17 0 0 1 5.34.57 66 66 0 0 1 7.7.77 15.93 15.93 0 0 1 4.34.53 6.37 6.37 0 0 0 2 .16h4.74c2 1.85 4.48 3 6.77 4.35 3.06 1.87 6.15 3.7 9.29 5.45 3.71 2.07 7.32 4.35 11 6.54.05 1.69.08 3.38.13 5.07a9.58 9.58 0 0 0 .18 2.35 19.46 19.46 0 0 1 .48 5 13.7 13.7 0 0 0 .2 3 24.35 24.35 0 0 1 .49 5.37 15.08 15.08 0 0 0 .24 3 20.11 20.11 0 0 1 .42 4.37 19.62 19.62 0 0 0 .25 3.69 25.78 25.78 0 0 1 .44 4.7 24 24 0 0 0 .3 3.7 20 20 0 0 1 .36 3.69 20.61 20.61 0 0 0 .56 5.69 7.25 7.25 0 0 1 .11 1.69z" fill="#fdfdfe"/><path d="m264.58 201.54-.53-.12a12.31 12.31 0 0 0 -.55-3c-.4-1.16-.67-2.38-1-3.58-1.26-4.67-2.52-9.36-3.79-14-1-3.59-2-7.18-2.94-10.77q-1.59-5.87-3.2-11.74c-.92-3.37-1.89-6.73-2.8-10.1-1-3.81-2-7.65-3-11.44q-3-10.74-5.89-21.53a6.53 6.53 0 0 0 -.61-1.17 25.23 25.23 0 0 0 -2.72-2c-3.28-1.76-6.45-3.69-9.68-5.53-3.91-2.24-7.84-4.43-11.78-6.61a7.32 7.32 0 0 1 -3-3.07c-2.71-5.19-5.44-10.38-8.15-15.57a30.07 30.07 0 0 0 -1.41-2.7c-2.11-3.21-3.56-6.78-5.38-10.15a5.76 5.76 0 0 1 -.6-2.6c1.83-4.37 3.65-8.74 5.5-13.09q8.82-20.7 17.66-41.38c.35-.82.8-1.6 1.2-2.4.22.25.54.47.64.76a25 25 0 0 1 .79 2.59q1.58 6.23 3.13 12.45c1.81 7.33 3.73 14.62 5.62 21.93 3 11.67 5.89 23.38 8.8 35.07 1 4.12.75 3.41 4.12 5.15a7 7 0 0 0 .93.42 55.33 55.33 0 0 1 6.47 2.94c2.15 1 4.33 1.92 6.47 2.91 3.89 1.8 7.76 3.65 11.66 5.44 1.33.62 2.69 1.17 4.07 1.67a7 7 0 0 0 1.66.18 6.13 6.13 0 0 0 2.36 1.86q7.35 3.81 14.69 7.65l14.37 7.52c.8.41 1.57.88 2.35 1.33a3 3 0 0 1 -.21 1.65c-.88 1.58-1.75 3.16-2.67 4.71q-5.7 9.6-11.43 19.18a3.59 3.59 0 0 0 -.59 2.25 21.65 21.65 0 0 0 .42 2.66c.24 1 .61 1.94.88 2.92 1.17 4.12 2.32 8.24 3.49 12.36 1.08 3.8 2.21 7.58 3.28 11.38 1.5 5.31 3 10.62 4.45 16a96.76 96.76 0 0 1 2.29 9.51c-1 0-2 0-3.05 0a32.7 32.7 0 0 1 -7.38-.6 4.94 4.94 0 0 1 -3.07-1.88 6 6 0 0 1 -1-2.83c-.11-.59.43-1 .7-1.48a16 16 0 0 0 .88-1.82 1.66 1.66 0 0 0 -1.24-2.07 9.75 9.75 0 0 0 -3.69.12c-1.64.41-3.29.75-4.91 1.22a25.43 25.43 0 0 0 -3.8 1.4 52.92 52.92 0 0 0 -10.95 6.63 5.57 5.57 0 0 1 -3.74 1.31c-1.41-.02-2.77.04-4.12.06z" fill="#feffff"/><path d="m264.58 201.54c1.35 0 2.71-.08 4.06-.07a5.57 5.57 0 0 0 3.74-1.31 52.92 52.92 0 0 1 10.95-6.63 25.43 25.43 0 0 1 3.8-1.4c1.62-.47 3.27-.81 4.91-1.22a9.75 9.75 0 0 1 3.69-.12 1.66 1.66 0 0 1 1.24 2.07 16 16 0 0 1 -.88 1.82c-.27.48-.81.89-.7 1.48a6 6 0 0 0 1 2.83 4.94 4.94 0 0 0 3.07 1.88 32.7 32.7 0 0 0 7.38.6h3.05.75a12.93 12.93 0 0 0 .57 4c.4 1.16.58 2.4.88 3.6.94 3.83 1.73 7.69 2.87 11.45 1.44 4.75 2.5 9.58 3.77 14.36 1.6 6 2.82 12.05 4.67 18a21.75 21.75 0 0 1 .64 2.62 3.73 3.73 0 0 1 0 1.66 15.84 15.84 0 0 0 -.49 4.69 13.66 13.66 0 0 1 -.27 3 17.64 17.64 0 0 0 -.4 4 16.22 16.22 0 0 1 -.26 3.36 18.87 18.87 0 0 0 -.42 4 15.48 15.48 0 0 1 -.23 3.35 18.94 18.94 0 0 0 -.45 4.36 12.59 12.59 0 0 1 -.2 3 19.12 19.12 0 0 0 -.48 4.69 13.66 13.66 0 0 1 -.27 3 17.69 17.69 0 0 0 -.4 4 15.57 15.57 0 0 1 -.26 3.36 18.87 18.87 0 0 0 -.42 4 15.61 15.61 0 0 1 -.23 3.36 19.36 19.36 0 0 0 -.45 4.35 12.59 12.59 0 0 1 -.21 3 19.61 19.61 0 0 0 -.47 4.69 13.66 13.66 0 0 1 -.27 3 16.48 16.48 0 0 0 -.4 3.69 13.88 13.88 0 0 1 -.19 3.36 20.32 20.32 0 0 0 -.49 5 18.35 18.35 0 0 1 -.45 4.36 12.79 12.79 0 0 0 -.13 4.7c0 .3.32.57.49.86a2 2 0 0 1 -.66 1.36c-.39-.21-.93-.32-1.13-.64a23.7 23.7 0 0 1 -1.39-2.7c-.56-1.22-1-2.49-1.64-3.7-3.45-7-7-13.87-10.37-20.9-5.49-11.61-11.28-23.07-17-34.59-.95-1.91-1.75-3.9-2.59-5.87a7 7 0 0 1 -.36-1.29c-.24-1.1-.43-2.21-.69-3.3-1.25-5.13-2.3-10.3-3.49-15.45-1-4.38-2.21-8.72-3.12-13.12-.75-3.63-1.57-7.24-2.36-10.86-.94-4.28-2.15-8.5-3-12.79-.72-3.41-1.5-6.8-2.24-10.2-.57-2.64-1.24-5.25-1.8-7.89a27.32 27.32 0 0 1 -.27-2.86z" fill="#caddea"/><path d="m197.49 65.88a5.76 5.76 0 0 0 .6 2.6c1.82 3.37 3.27 6.94 5.38 10.15a30.07 30.07 0 0 1 1.41 2.7c2.71 5.19 5.44 10.38 8.15 15.57a7.32 7.32 0 0 0 3 3.07c3.94 2.18 7.87 4.37 11.78 6.61 3.23 1.84 6.4 3.77 9.68 5.53a25.23 25.23 0 0 1 2.72 2c-3.55 1.72-6.93 3.73-10.3 5.75-2.21 1.33-4.5 2.55-6.76 3.8l-7.68 4.22-.29.17c-2.22 1.32-4.43 2.66-6.67 3.93s-4.77 2.54-7.06 3.94c-1.44.89-2.9 1.72-4.39 2.52a7.37 7.37 0 0 0 -1 .85c-3.65-2.19-7.26-4.47-11-6.54-3.14-1.75-6.23-3.58-9.29-5.45-2.29-1.4-4.77-2.5-6.77-4.35 0-1.12 0-2.25.05-3.37a22 22 0 0 1 .52-6.35 8.25 8.25 0 0 0 .12-2.34c0-3.71 0-7.41.05-11.12a9.46 9.46 0 0 1 .18-2.67 16.05 16.05 0 0 0 .46-4.67c0-2.92 0-5.84 0-8.76 0-2.13-.18-4.27.54-6.34a2.15 2.15 0 0 0 .07-.67c0-2.69 0-5.39 0-8.08 0-.4-.35-.8-.53-1.2-.09-2.13.09-4.29-.65-6.35.12-2.39-.87-4.64-.84-7 0-1.35-.78-2.6-.65-4-.71-2.26-.44-4.7-1.16-7a3.78 3.78 0 0 1 -.13-1 54.65 54.65 0 0 0 -1.18-7.64 5.78 5.78 0 0 1 -.16-1 17.53 17.53 0 0 0 -.56-4c-.36-1.29-.13-2.7-.68-4a2.09 2.09 0 0 1 -.11-.67 13.49 13.49 0 0 0 -.62-4.32 30.13 30.13 0 0 0 -.79-5.67c-.47-2.54-.56-5.13-1.19-7.64a7.25 7.25 0 0 1 -.16-1.68 8.55 8.55 0 0 0 -.42-2.66 6.06 6.06 0 0 1 -.16-2.68 4.08 4.08 0 0 1 1.4 1.43q9.23 12.33 18.45 24.66a17.13 17.13 0 0 1 2.17 4.18q6.51 16.74 12.98 33.45a10.06 10.06 0 0 0 .69 1.53c.16.25.53.38.8.56z" fill="#c5e7f6"/><path d="m85.36 110.63a3 3 0 0 1 1.88.66 42.65 42.65 0 0 0 4.12 2.93c4.3 3.07 8.64 6.09 13.09 8.94a77.66 77.66 0 0 0 7.18 5c1.56 1.09 3.12 2.2 4.65 3.34a10.28 10.28 0 0 1 1.21 1.17 2.08 2.08 0 0 1 .64 2.17c-.68 1.82-.36 3.81-1.07 5.62a5.71 5.71 0 0 0 -.16 1.67 6 6 0 0 1 -.15 1.67c-.76 1.8-.32 3.82-1.07 5.62a6.57 6.57 0 0 0 -.15 1.68c-.09.77-.23 1.55-.35 2.32s-.22 1.55-.31 2.33a6.44 6.44 0 0 1 -.17 1.67c-.59 1.4-.28 2.93-.74 4.31s-.18 2.73-.55 4c-.55 1.85-.42 3.8-1 5.63a6.15 6.15 0 0 0 -.22 1.66 8.64 8.64 0 0 1 -.44 3 1.56 1.56 0 0 0 -.16.66c.14 2.16-.75 4.2-.8 6.34a.91.91 0 0 1 0 .33c-.85 2.4-.59 4.9-.62 7.37a2.29 2.29 0 0 1 -.53.41c-2.21.81-4.5 1.39-6.73 2.16a15.28 15.28 0 0 0 -2.82 1.1c-2.51 1.51-5.12 2.88-7.17 5a6.81 6.81 0 0 1 -4.86 2c-2.82.1-5.64 0-8.46 0a9 9 0 0 1 -3.58-.92 4 4 0 0 1 -2.43-4.07 7.62 7.62 0 0 1 .3-1.65c.25-.87.57-1.72.83-2.58a1 1 0 0 0 0-.66 1.55 1.55 0 0 0 -.6-.74 2.76 2.76 0 0 0 -1.33-.17 48.38 48.38 0 0 0 -5.64.92 31.7 31.7 0 0 0 -6 2.2 51.55 51.55 0 0 0 -10.34 6.37 5.7 5.7 0 0 1 -3.81 1.41c-4 0-7.9 0-11.85 0a11.4 11.4 0 0 1 -4.85-1.31 2.35 2.35 0 0 1 -1.46-2.44c0-.33.07-.67.1-1h15.55s3.71.55 7.81-3.51a4.23 4.23 0 0 0 .44-.51c1.54-2.08 3.05-4.17 4.59-6.24 2.36-3.15 4.73-6.28 7.09-9.42a22.31 22.31 0 0 0 2.75-4.24 1.42 1.42 0 0 0 -.38-1.82v-.67c1.06-3.33 2.15-6.65 3.18-10q7.26-23.61 14.49-47.21c.23-.83.59-1.66.9-2.5z" fill="#f0f9ff"/><path d="m316.71 346.5c-.17-.29-.46-.56-.49-.86a12.79 12.79 0 0 1 .13-4.7 18.35 18.35 0 0 0 .45-4.36 20.32 20.32 0 0 1 .49-5 13.88 13.88 0 0 0 .19-3.36 16.48 16.48 0 0 1 .4-3.69 13.66 13.66 0 0 0 .27-3 19.61 19.61 0 0 1 .47-4.69 12.59 12.59 0 0 0 .21-3 19.36 19.36 0 0 1 .45-4.35 15.61 15.61 0 0 0 .23-3.36 18.87 18.87 0 0 1 .42-4 15.57 15.57 0 0 0 .26-3.36 17.69 17.69 0 0 1 .4-4 13.66 13.66 0 0 0 .27-3 19.12 19.12 0 0 1 .48-4.69 12.59 12.59 0 0 0 .2-3 18.94 18.94 0 0 1 .45-4.36 15.48 15.48 0 0 0 .23-3.35 18.87 18.87 0 0 1 .42-4 16.22 16.22 0 0 0 .26-3.36 17.64 17.64 0 0 1 .4-4 13.66 13.66 0 0 0 .27-3 15.84 15.84 0 0 1 .49-4.69 3.73 3.73 0 0 0 0-1.66 21.75 21.75 0 0 0 -.64-2.62c-1.85-5.91-3.07-12-4.67-18-1.27-4.78-2.33-9.61-3.77-14.36-1.14-3.76-1.93-7.62-2.87-11.45-.3-1.2-.48-2.44-.88-3.6a12.93 12.93 0 0 1 -.57-4h4.73a5.62 5.62 0 0 0 4-1.56 18.52 18.52 0 0 1 1.77-1.55 50 50 0 0 1 8.42-4.94 35.11 35.11 0 0 1 11-2.83 5.34 5.34 0 0 0 .53.16c0 .43.08.85.11 1.28a1.62 1.62 0 0 0 .8 1.31c.05.68.11 1.36.16 2a1.38 1.38 0 0 0 -.83 1 3.12 3.12 0 0 0 .52 2.22 1.86 1.86 0 0 0 1.33.9c.1.39.2.77.29 1.16a4.06 4.06 0 0 0 -.08 1.33 20.58 20.58 0 0 1 .52 5.69 9.89 9.89 0 0 0 .19 2.68 18.13 18.13 0 0 1 .48 5 12.07 12.07 0 0 0 .19 3 21 21 0 0 1 .5 5.35 12.58 12.58 0 0 0 .23 3 18.26 18.26 0 0 1 .44 4.35 16.77 16.77 0 0 0 .22 3.69 22.44 22.44 0 0 1 .46 4.68 18.88 18.88 0 0 0 .28 3.69 20 20 0 0 1 .39 4 17.3 17.3 0 0 0 .19 3.69 18 18 0 0 1 .47 5.36c-.09 2.17.59 4.21.9 6.31.05.29.39.53.6.8a9.09 9.09 0 0 0 -1.47 2.6q-5.07 13.25-10.16 26.49l-7.39 19.23q-4.11 10.73-8.21 21.45c-1.58 4.1-3.17 8.2-4.74 12.29a1.83 1.83 0 0 1 -.79 1.04z" fill="#93c9e6"/><path d="m276.21 100.52a7 7 0 0 1 -1.66-.18c-1.38-.5-2.74-1-4.07-1.67-3.9-1.79-7.77-3.64-11.66-5.44-2.14-1-4.32-1.92-6.47-2.91a55.33 55.33 0 0 0 -6.47-2.94 7 7 0 0 1 -.88-.38c-3.37-1.74-3.09-1-4.12-5.15-2.91-11.69-5.79-23.4-8.8-35.07-1.89-7.31-3.81-14.6-5.62-21.93q-1.54-6.22-3.13-12.45a25 25 0 0 0 -.79-2.59c-.1-.29-.42-.51-.64-.76a1.88 1.88 0 0 1 .64-1.5 1.28 1.28 0 0 1 .6-.26 1.72 1.72 0 0 1 .65.16c5.24 2.05 10.47 4.13 15.73 6.14a3.61 3.61 0 0 1 2.15 2c1.55 3.37 3.14 6.73 4.72 10.1q4.65 9.95 9.29 19.89 1.2 2.61 2.21 5.3 8.66 23.01 17.33 46.12a8.38 8.38 0 0 1 .99 3.52z" fill="#c5e7f6"/><path d="m340.57 190.62a35.11 35.11 0 0 0 -11 2.83 50 50 0 0 0 -8.42 4.94 18.52 18.52 0 0 0 -1.77 1.55 5.62 5.62 0 0 1 -4 1.56c-1.58 0-3.15 0-4.73 0h-.75a96.76 96.76 0 0 0 -2.3-9.5c-1.44-5.34-3-10.65-4.45-16-1.07-3.8-2.2-7.58-3.28-11.38-1.17-4.12-2.32-8.24-3.49-12.36-.27-1-.64-1.93-.88-2.92a21.65 21.65 0 0 1 -.42-2.66 3.59 3.59 0 0 1 .59-2.25q5.73-9.57 11.43-19.18c.92-1.55 1.79-3.13 2.67-4.71a3 3 0 0 0 .21-1.65 1.22 1.22 0 0 1 1 .81l3.17 7.08q7.29 16.3 14.59 32.61c.09.21.2.4.28.61a1.84 1.84 0 0 0 1.23 1.06 8.25 8.25 0 0 1 .93.38l-.31.14c-.83.41-1 .66-.8 1.18 1.78 4.7 3.54 9.4 5.33 14.1 1 2.6 2.05 5.19 3 7.8.77 1.97 1.45 3.97 2.17 5.96z" fill="#b1ddf0"/><path d="m349.46 263.35c-.21-.27-.55-.51-.6-.8-.31-2.1-1-4.14-.9-6.31a18 18 0 0 0 -.47-5.36 17.3 17.3 0 0 1 -.19-3.69 20 20 0 0 0 -.39-4 18.88 18.88 0 0 1 -.28-3.69 22.44 22.44 0 0 0 -.46-4.68 16.77 16.77 0 0 1 -.22-3.69 18.26 18.26 0 0 0 -.44-4.35 12.58 12.58 0 0 1 -.23-3 21 21 0 0 0 -.5-5.35 12.07 12.07 0 0 1 -.19-3 18.13 18.13 0 0 0 -.48-5 9.89 9.89 0 0 1 -.19-2.68 20.58 20.58 0 0 0 -.52-5.69 4.06 4.06 0 0 1 .08-1.33c1.1.18 2.19.37 3.29.54a11.75 11.75 0 0 0 1.65.25c2.46 0 4.92.07 7.38 0a6.73 6.73 0 0 0 4.8-2 9.52 9.52 0 0 1 2.31-1.91c3.17-1.64 6.07-3.8 9.55-4.81a7.26 7.26 0 0 1 .64 1.15q2.82 8.15 5.62 16.28 4 11.82 8.1 23.63c.75 2.21.75 2.23-1.15 3.61l-28.2 20.38c-2.1 1.52-4.19 3-6.3 4.55-.55.26-1.17.6-1.71.95z" fill="#c7dff0"/><path d="m205.58 531.65a20.8 20.8 0 0 0 1.65-2.12c1.12-1.83 2.16-3.71 3.23-5.56l4.23-7.32c1.07-1.86 2.15-3.71 3.2-5.57 1.28-2.26 2.51-4.55 3.79-6.8s2.63-4.47 3.93-6.71q1.45-2.49 2.87-5c1.27-2.26 2.51-4.54 3.79-6.8s2.71-4.68 4.07-7c1-1.75 2-3.5 3-5.27 1.28-2.26 2.51-4.54 3.79-6.8s2.73-4.67 4.09-7c1-1.66 1.92-3.32 2.86-5 1.28-2.26 2.52-4.54 3.8-6.79s2.71-4.68 4.06-7c.51-.88 1-1.79 1.48-2.66.63-1.07 1.29-2.12 2-3.14.17-.26.54-.37.82-.55a3.2 3.2 0 0 1 -.14 1.65c-1.51 6.36-3 12.72-4.5 19.08q-4.53 19.06-9.06 38.14-3 12.64-6 25.32c-.6 2.52-1.2 5-1.77 7.57a1.91 1.91 0 0 1 -1.63 1.5 8.68 8.68 0 0 1 -1 .2c-4.25.53-8.5 1-12.74 1.6-3.9.52-7.79 1.14-11.69 1.69-2.23.32-4.47.59-6.7.87a1.42 1.42 0 0 1 -1.43-.53z" fill="#93c9e6"/><path d="m89.8 370.93a3.13 3.13 0 0 1 .58.8c.5 1.49 1 3 1.41 4.51q1.89 6.83 3.73 13.66c1 3.68 2 7.37 3 11.06s2 7.37 3 11.06c1.06 3.9 2.1 7.81 3.16 11.72.94 3.47 1.91 6.93 2.86 10.4q1.61 5.85 3.2 11.71 1.45 5.37 2.92 10.73c.24.87.44 1.75.67 2.61 1.43 5.21 2.91 10.39 4.28 15.61.51 1.94 1.3 3.86 1 5.95a11.84 11.84 0 0 1 -1.35-1l-29-28.3-.72-.72a2.31 2.31 0 0 1 -.78-1.8c0-.56 0-1.12 0-1.69.08-4.62.06-9.24.28-13.85.4-8.56.31-17.13.68-25.68.38-8.78.39-17.57.67-26.35.03-3.46.25-6.95.41-10.43z" fill="#d2e5f2"/><path d="m372.46 192.67c-3.48 1-6.38 3.17-9.55 4.81a9.52 9.52 0 0 0 -2.31 1.91 6.73 6.73 0 0 1 -4.8 2c-2.46.09-4.92 0-7.38 0a11.75 11.75 0 0 1 -1.65-.25c-1.1-.17-2.19-.36-3.29-.54-.09-.39-.19-.77-.29-1.16 0-.63.05-1.27.05-1.9a2.69 2.69 0 0 0 -1.07-2.19c-.05-.68-.11-1.36-.16-2a6.44 6.44 0 0 0 .49-1.2 1.54 1.54 0 0 0 -.22-.95c-.24-.43-.72-.45-1.18-.44a5.34 5.34 0 0 1 -.53-.16c-.72-2-1.4-4-2.15-6-1-2.61-2.05-5.2-3-7.8-1.79-4.7-3.55-9.4-5.33-14.1-.19-.52 0-.77.8-1.18l.31-.14 3.91.13a4 4 0 0 0 2.23.53c2.44.09 4.88.19 7.32.25.88 0 1.77-.06 2.65-.1a5 5 0 0 1 .67 0 3.32 3.32 0 0 0 1.89.53c1.88.07 3.77.16 5.65.19 1.33 0 2.66 0 4-.06h.68a2.17 2.17 0 0 1 2.54 1.66c.33 1.08.73 2.13 1.11 3.19q4.09 11.47 8.18 22.94c.16.71.27 1.36.43 2.03z" fill="#fdfdfe"/><path d="m66.78 171a1.42 1.42 0 0 1 .38 1.82 22.31 22.31 0 0 1 -2.75 4.24c-2.36 3.14-4.73 6.27-7.09 9.42-1.54 2.07-3 4.16-4.59 6.24a4.23 4.23 0 0 1 -.44.51c-4.1 4.06-2.69 3.48-7.81 3.51s-10.36 0-15.55 0c-.06-.25-.13-.5-.19-.75 1.09-3.55 2.16-7.1 3.27-10.64 1.49-4.73 3-9.44 4.51-14.16 1.23 0 2.46-.1 3.7-.11h15.47c3.7-.01 7.39-.08 11.09-.08z" fill="#fdfdfe"/><path d="m119.56 480.69.72.8a.93.93 0 0 1 -.72-.8z" fill="#d2e5f2"/><path d="m196.07 139.25a7.37 7.37 0 0 1 1-.85c1.49-.8 3-1.63 4.39-2.52 2.29-1.4 4.72-2.6 7.06-3.94s4.45-2.61 6.67-3.93l.29-.17 7.68-4.22c2.26-1.25 4.55-2.47 6.76-3.8 3.37-2 6.75-4 10.3-5.75a6.53 6.53 0 0 1 .61 1.17q2.88 10.79 5.89 21.53c1.07 3.79 2 7.63 3 11.44.91 3.37 1.88 6.73 2.8 10.1q1.62 5.87 3.2 11.74c1 3.59 2 7.18 2.94 10.77 1.27 4.67 2.53 9.36 3.79 14 .33 1.2.6 2.42 1 3.58a12.31 12.31 0 0 1 .55 3l-2.36.08a10.84 10.84 0 0 1 -5.17-1.36 3.34 3.34 0 0 1 -1.9-4.21c.24-.87.59-1.7.85-2.57a8.19 8.19 0 0 0 .25-1.31 1.21 1.21 0 0 0 -.91-1.25 10.87 10.87 0 0 0 -4 .08 44.74 44.74 0 0 0 -15.13 6.46c-1.21.82-2.45 1.6-3.58 2.52a8.25 8.25 0 0 1 -4.36 1.61 17.19 17.19 0 0 1 -2 0c-5.19 0-10.37-.05-15.55 0a21.66 21.66 0 0 1 -5.33-.71 3.71 3.71 0 0 1 -1.76-.93 3.57 3.57 0 0 1 -1.06-4.54c.23-.51.51-1 .75-1.51s.37-.82.54-1.24a1.33 1.33 0 0 0 -1-1.79 19.21 19.21 0 0 0 -2-.15 7.25 7.25 0 0 0 -.11-1.69 20.61 20.61 0 0 1 -.56-5.69 20 20 0 0 0 -.36-3.69 24 24 0 0 1 -.3-3.7 25.78 25.78 0 0 0 -.44-4.7 19.62 19.62 0 0 1 -.25-3.69 20.11 20.11 0 0 0 -.42-4.37 15.08 15.08 0 0 1 -.24-3 24.35 24.35 0 0 0 -.49-5.37 13.7 13.7 0 0 1 -.2-3 19.46 19.46 0 0 0 -.48-5 9.58 9.58 0 0 1 -.18-2.35c-.1-1.7-.13-3.39-.18-5.08z" fill="#b1ddf0"/><path d="m170.51 67.34c.18.4.52.8.53 1.2.05 2.69 0 5.39 0 8.08a2.15 2.15 0 0 1 -.07.67c-.72 2.07-.53 4.21-.54 6.34v8.76a16.05 16.05 0 0 1 -.46 4.67 9.46 9.46 0 0 0 -.18 2.67c0 3.71 0 7.41-.05 11.12a8.25 8.25 0 0 1 -.12 2.34 22 22 0 0 0 -.52 6.35c0 1.12 0 2.25-.05 3.37-1.58 0-3.16 0-4.74 0a6.37 6.37 0 0 1 -2-.16 15.93 15.93 0 0 0 -4.34-.53 66 66 0 0 0 -7.7-.77 14.17 14.17 0 0 0 -5.34-.57 3.75 3.75 0 0 1 -1 0 19.41 19.41 0 0 0 -6-.67 3.05 3.05 0 0 1 -1-.19 9.91 9.91 0 0 0 -3.67-.45 6.37 6.37 0 0 1 -2-.14 16.7 16.7 0 0 0 -5.35-.54 10.45 10.45 0 0 1 -1.67-.21 1.3 1.3 0 0 1 -.87-1.6c.17-.41.32-.84.53-1.24a61.47 61.47 0 0 0 3.3-7.76c.08-.21.15-.43.24-.63 1.26-2.77 2.44-5.58 3.81-8.29 1.22-2.42 2.16-5 3.23-7.43.14-.31.18-.66.31-1 1.3-2.87 2.53-5.78 3.94-8.59 1.22-2.43 2.16-5 3.22-7.44.18-.41.27-.86.46-1.27 1.45-3.17 2.87-6.36 4.4-9.5 1-2.14 1.77-4.38 2.73-6.55.72-1.64 1.57-3.23 2.39-4.83a1.11 1.11 0 0 1 1.49-.37 41.13 41.13 0 0 1 5.42 4.54c1.05 1.18 2.22 2.25 3.34 3.36a7.08 7.08 0 0 0 1.22 1.17c2.16 1.3 3.76 3.22 5.55 4.92a19.33 19.33 0 0 0 1.56 1.17z" fill="#f0f9ff"/><g fill="#c7dff0"><path d="m342.17 195.41a2.69 2.69 0 0 1 1.07 2.19c0 .63 0 1.27-.05 1.9a1.86 1.86 0 0 1 -1.33-.9 3.12 3.12 0 0 1 -.52-2.22 1.38 1.38 0 0 1 .83-.97z"/><path d="m341.1 190.78c.46 0 .94 0 1.18.44a1.54 1.54 0 0 1 .22.95 6.44 6.44 0 0 1 -.49 1.2 1.62 1.62 0 0 1 -.8-1.31c-.03-.43-.07-.85-.11-1.28z"/></g></svg>