<svg height="309" viewBox="0 0 193 309" width="193" xmlns="http://www.w3.org/2000/svg"><path d="m109.5 200.7s-5.8-31.6 8.2-58.2 7.6-51 7.6-51 18.4 43.9 14.2 89.9-15.3 43.1-15.3 43.1z" fill="#628013"/><path d="m58.1 261.7c13.7-35.4-3.2-65.7-27.5-117.5s0-78.7 0-78.7a141.41 141.41 0 0 0 1.7 35.6 70.29 70.29 0 0 0 20.2 38.8c10.1 10 20.1 17.1 27.2 29.8 16.7 29.9 15.3 66.2 5.4 98z" fill="#628013"/><path d="m89.4 11.6s-41 52.5-16.5 120.8 4.4 133.6 4.4 133.6h37.3s10.8-54.5-7.2-109.2-29.5-89.9-18-145.2z" fill="#92be1c"/><path d="m152.2 74.6s32.1 26.7-1.3 81.1c-24.8 40.4-46.5 106.4-46.5 106.4l-3.5-.7s48.3 14.8 45.8 5.8 3.5-31.3 25.2-108.4-19.7-84.2-19.7-84.2z" fill="#92be1c"/><path d="m126.3 243.6s-48 4.6-41 34.1c3.9 16.5 26.4 19.4 40.2 20.4 10.3.7 21 2.3 31.1.1 17.9-3.9 26.9-20.6 18.2-37.3-13.2-25.4-48.5-17.3-48.5-17.3z" fill="#999"/><path d="m64.6 236.4s-60.8 13.1-42.2 45.6c9.2 16.1 32.4 18.2 49 17.4 13.8-.7 51.6-3.9 44.7-25.3-1.6-5.1-5.3-9.4-9-13.3-10.9-11.4-24.1-28.3-42.5-24.4z" fill="#b3b3b3"/></svg>