<svg height="162.65" viewBox="0 0 410.81 162.65" width="410.81" xmlns="http://www.w3.org/2000/svg"><path d="m347.56 13.08a32.51 32.51 0 0 1 36.78 27.58l3.46 24.13a32.51 32.51 0 0 1 -27.58 36.79l-42.42 6.42-220-57.21z" fill="#755042"/><path d="m53.33 57.49 44.5-6.72 219.97 57.23-251.8 38a32.52 32.52 0 0 1 -36.79-27.6l-3.45-24.13a32.5 32.5 0 0 1 27.57-36.78z" fill="#664739"/><path d="m67.5 71.11c-11.5-14.66-8.92-33.62-2.63-52.92a32.48 32.48 0 0 1 6.51.27l294.22 44.4a32.51 32.51 0 0 1 27.57 36.79l-3.45 24.13a32.38 32.38 0 0 1 -6.39 15.22c-52.16-4.95-102.49-15.41-156.87-23.18-55.37-8.99-123.24 3.52-158.96-44.71z" fill="#895e4d"/><path d="m31.14 70.17 3.45-24.17a32.51 32.51 0 0 1 30.28-27.81c-6.29 19.3-8.87 38.26 2.63 52.92 35.72 48.23 103.59 35.72 159 44.66 54.34 7.77 104.67 18.23 156.83 23.23a32.51 32.51 0 0 1 -30.4 12.41l-294.21-44.41a32.52 32.52 0 0 1 -27.58-36.83z" fill="#805748"/><g fill="#946354"><path d="m223.3 66.78a6.86 6.86 0 0 0 5.86 7.71l137.75 18.73a6.85 6.85 0 0 0 7.71-5.86 6.85 6.85 0 0 0 -5.86-7.71l-137.76-18.74a6.85 6.85 0 0 0 -7.71 5.87z"/><path d="m75.12 56.78a6.85 6.85 0 0 0 5.88 7.71l137.73 18.73a6.84 6.84 0 0 0 7.71-5.85 6.84 6.84 0 0 0 -5.86-7.71l-137.75-18.74a6.86 6.86 0 0 0 -7.71 5.86z"/><path d="m181.55 92a6.84 6.84 0 0 0 5.86 7.71l137.75 18.74a6.85 6.85 0 0 0 7.71-5.86 6.85 6.85 0 0 0 -5.86-7.71l-137.76-18.7a6.85 6.85 0 0 0 -7.7 5.86z"/></g></svg>