<svg height="402" viewBox="0 0 450 402" width="450" xmlns="http://www.w3.org/2000/svg"><g fill="#427212"><path d="m65.59 73.49-22.66 24.81a5.11 5.11 0 0 0 .86 7.32l120.08 91c4.37 3.32 9.06-2.65 5.45-6.94l-97.41-115.81a4.14 4.14 0 0 0 -6.32-.38z"/><path d="m27 128.67-10 33.78a5.1 5.1 0 0 0 3.66 6.4l141 27.87c5.14 1 6.86-6.75 2-9l-131.04-61.72a4 4 0 0 0 -5.62 2.67z"/><path d="m163.2 32.71 31.6 3.8a4.13 4.13 0 0 1 3.46 4.8l-24.77 148.08c-.78 4.67-7.34 4-7.55-.79l-6.84-151.88a3.73 3.73 0 0 1 4.1-4.01z"/><path d="m271.21 64.53 24.17 22.79a4.14 4.14 0 0 1 .19 5.92l-124.09 103.11c-3.26 3.16-8.33-1.49-5.85-5.36l99.92-125.89a3.66 3.66 0 0 1 5.66-.57z"/><path d="m323.67 129.31-14.84-21.06a.94.94 0 0 0 -1.27-.23l-138.86 87.2a.9.9 0 0 0 .86 1.57l153.69-66.14a.9.9 0 0 0 .42-1.34z"/><path d="m100.12 40.76-19.66 14.24a1.06 1.06 0 0 0 -.2 1.34l88.24 137.74a1.51 1.51 0 0 0 2.72-1.33l-69.83-151.45a.87.87 0 0 0 -1.27-.54z"/><path d="m12.3 180.46 1.89 25.74a1 1 0 0 0 1 .93l151.44-9.62c1.9.11 2.13-2.8.26-3.2l-153.54-14.69a.82.82 0 0 0 -1.05.84z"/><path d="m24.38 235.65 10.06 23.89a1 1 0 0 0 1.21.53l137-64.06c1.79-.58 1.06-3.45-.8-3.15l-146.77 41.6a.87.87 0 0 0 -.7 1.19z"/><path d="m41.61 269.68 15 21a1 1 0 0 0 1.28.22l117.62-96.9c1.59-1 .26-3.65-1.47-2.9l-132.04 77.24a.9.9 0 0 0 -.39 1.34z"/><path d="m139 27.61-22.72 8.12a1 1 0 0 0 -.52 1.22l52.15 155.86a1.51 1.51 0 1 0 3-.51l-30.86-163.83a.9.9 0 0 0 -1.05-.86z"/><path d="m221.79 38.12 28.44 16.07a4.2 4.2 0 0 1 1.55 5.81l-76 124.88c-2.4 3.94-8.34.7-6.84-3.73l47.54-141a3.62 3.62 0 0 1 5.31-2.03z"/><rect height="159.3" rx="1" transform="matrix(.94860019 -.31647697 .31647697 .94860019 -72.84 74.31)" width="10.34" x="187.22" y="181.77"/><path d="m275.2 104-33.52 2.37a5.12 5.12 0 0 0 -4.42 5.9l24.33 148.73c.88 5.41 8.39 4.31 8.73-1.28l9.19-151.07a4.14 4.14 0 0 0 -4.31-4.65z"/><path d="m209.18 117.4-30.48 17.65a5.11 5.11 0 0 0 -1.76 7.16l83 117.35c3 4.28 9.62-.17 7.67-5.16l-52.55-135a4 4 0 0 0 -5.88-2z"/><path d="m374.05 141.7 20.28 24.52a4.14 4.14 0 0 1 -.8 5.87l-120 90.27c-3.79 2.85-8.07-2.16-4.93-5.78l99.67-114.79a3.73 3.73 0 0 1 5.78-.09z"/><path d="m430.41 239.17 1.83 33.17a4.15 4.15 0 0 1 -3.94 4.43l-160.99-10.77c-4.53 0-5-6.82-.54-7.91l159.15-22.42a3.65 3.65 0 0 1 4.49 3.5z"/><path d="m423.81 322.27 3.76-25.49a.94.94 0 0 0 -.77-1l-160.72-32.49a.89.89 0 0 0 -.46 1.72l157 57.94a.9.9 0 0 0 1.19-.68z"/><path d="m322.77 104.08-24.06-3.23a1.05 1.05 0 0 0 -1.06.84l-30.93 160.63a1.52 1.52 0 0 0 2.89.92l53.7-157.89a.86.86 0 0 0 -.54-1.27z"/><path d="m162.87 144.85-16.36 20a1.06 1.06 0 0 0 .08 1.35l116.41 97.31c1.29 1.39 3.47-.57 2.39-2.14l-101.17-116.37a.83.83 0 0 0 -1.35-.15z"/><path d="m133.61 193.18-9.16 24.24a1 1 0 0 0 .51 1.22l143.41 47.92a1.64 1.64 0 0 0 1.6-2.83l-135-70.93a.87.87 0 0 0 -1.36.38z"/><path d="m122.66 229.71-3.61 25.51a.94.94 0 0 0 .77 1l152 10.85c1.85.36 2.7-2.47.93-3.11l-148.87-34.96a.9.9 0 0 0 -1.22.71z"/><path d="m360 121.29-22.05-9.76a1 1 0 0 0 -1.22.53l-69.6 148.94a1.51 1.51 0 0 0 2.51 1.69l90.54-140a.9.9 0 0 0 -.18-1.4z"/><path d="m412.78 186 9.55 31.24a4.21 4.21 0 0 1 -2.84 5.24l-141.11 38.17c-4.45 1.21-6.52-5.24-2.39-7.42l131.56-69.43a3.63 3.63 0 0 1 5.23 2.2z"/><rect height="159.3" rx="1" transform="matrix(.91 .42 -.42 .91 161.37 -69.87)" width="10.34" x="232.47" y="247.94"/></g></svg>