<svg height="628" viewBox="0 0 536 628" width="536" xmlns="http://www.w3.org/2000/svg"><g fill="#4d4d4d"><path d="m249.23 260.28h40.77v336.39h-40.8z"/><path d="m249.23 260.28h20.25v336.39h-20.25z" opacity=".51"/><path d="m293.06 596.36h-46.85a11.48 11.48 0 0 0 -11.48 11.49v20.25h69.51v-20.25a11.23 11.23 0 0 0 -11.18-11.49z"/></g><path d="m249.23 594h40.77v2.72h-40.8z" fill="#333"/><path d="m29.51 19.09h481.76v226.07h-481.76z" fill="#1a1a1a"/><path d="m18.32 7h503.53v15.72h-503.53z" fill="#4d4d4d"/><path d="m40 28h459v211h-459z"/><g fill="#777571"><path d="m513.09 229.45h3.62v26.55h-3.62z"/><path d="m443.27 229.45h3.63v26.55h-3.63z"/><path d="m373.15 229.45h3.63v26.55h-3.63z"/><path d="m303.33 229.45h3.67v26.55h-3.63z"/><path d="m233.52 229.45h3.62v26.55h-3.62z"/><path d="m163.4 229.45h3.6v26.55h-3.6z"/><path d="m93.58 229.45h3.63v26.55h-3.63z"/><path d="m23.76 229.45h3.63v26.55h-3.63z"/></g><path d="m15.3 225.22h508.7v4.23h-508.7z" fill="#a7a39b"/><path d="m15.3 245.16h508.7v22.37h-508.7z" fill="#4d4d4d"/><path d="m15.3 258.16h508.7v4.23h-508.7z" fill="#1a1a1a"/></svg>