<svg height="245" viewBox="0 0 281 245" width="281" xmlns="http://www.w3.org/2000/svg"><path d="m130.76 105.71-5.86-5.63 8.37-8.7a5.93 5.93 0 0 0 -.16-8.38l-64.9-62.42a5.91 5.91 0 0 0 -8.37.16l-24 25a5.92 5.92 0 0 0 .16 8.35l64.9 62.42a5.92 5.92 0 0 0 8.37-.16l8.37-8.71 5.86 5.64z" fill="#ff3a61"/><path d="m54.11 36.2h13.94v44.21h-13.94z" fill="#e6e6e6" transform="matrix(.69327606 -.72067212 .72067212 .69327606 -23.28 61.91)"/><path d="m66.42 23.39h13.94v44.21h-13.94z" fill="#e6e6e6" transform="matrix(.69327606 -.72067212 .72067212 .69327606 -10.28 66.85)"/><path d="m101.04 56.69h13.94v44.21h-13.94z" fill="#e6e6e6" transform="matrix(.69327606 -.72067212 .72067212 .69327606 -23.65 102.01)"/><path d="m88.72 69.49h13.94v44.21h-13.94z" fill="#e6e6e6" transform="matrix(.69327606 -.72067212 .72067212 .69327606 -36.66 97.06)"/><path d="m156.43 130.41 5.85 5.63 8.38-8.7a5.92 5.92 0 0 1 8.37-.17l64.9 62.43a5.92 5.92 0 0 1 .16 8.37l-24 25a5.91 5.91 0 0 1 -8.37.16l-64.9-62.42a5.91 5.91 0 0 1 -.16-8.37l8.34-8.74-5.85-5.6z" fill="#ff3a61"/><g fill="#e6e6e6"><path d="m199.54 176.08h13.94v44.21h-13.94z" transform="matrix(.69327606 -.72067212 .72067212 .69327606 -79.48 209.63)"/><path d="m211.85 163.28h13.94v44.21h-13.94z" transform="matrix(.69327606 -.72067212 .72067212 .69327606 -66.48 214.57)"/><path d="m177.24 129.99h13.94v44.21h-13.94z" transform="matrix(.69327606 -.72067212 .72067212 .69327606 -53.11 179.42)"/><path d="m164.93 142.79h13.94v44.21h-13.94z" transform="matrix(.69327606 -.72067212 .72067212 .69327606 -66.11 174.47)"/><rect height="39.11" rx="3.67" transform="matrix(.69327606 -.72067212 .72067212 .69327606 -46.76 137.52)" width="68.04" x="104.15" y="104.14"/><path d="m153 70.9a28.68 28.68 0 0 0 37.39 36z"/></g><path d="m189.33 108.12-37.58-36.12a4.69 4.69 0 0 1 -.13-6.64 4.7 4.7 0 0 1 6.64-.13l37.58 36.15a4.69 4.69 0 0 1 .16 6.62 4.69 4.69 0 0 1 -6.67.12z" fill="#ff3a61"/><path d="m180.8 86.89-7.5-7.22 3.61-3.76a5.21 5.21 0 0 1 7.36-.14 5.2 5.2 0 0 1 .14 7.36z" fill="#e6e6e6"/><path d="m110.93 123.81-7.93 8.19a3.68 3.68 0 0 0 .1 5.2l22.89 22a3.67 3.67 0 0 0 5.19-.1l7.89-8.2z" fill="#ff3a61"/></svg>