<svg height="276" viewBox="0 0 325 276" width="325" xmlns="http://www.w3.org/2000/svg"><g fill="#548731"><path d="m47.57 75.21h4.39v193.7h-4.39z"/><path d="m79.26 127.25c6.16-7 6.65-33 6.65-33s-25.78 3.75-31.91 10.75a16.86 16.86 0 0 0 25.29 22.29z"/><path d="m44.05 95.87c-7-6.16-33-6.65-33-6.65s3.73 25.78 10.72 31.94a16.85 16.85 0 0 0 22.28-25.29z"/></g><path d="m76.68 60.84c7.32-.26 15-.71 15-.71s-6.79-3.65-13.33-7c7-2.23 14.22-4.76 14.22-4.76s-7.57-1.63-14.75-3.04c6.1-4 12.39-8.45 12.39-8.45s-7.7.44-15 1c4.77-5.55 9.63-11.49 9.63-11.49s-7.29 2.51-14.16 5.07c3.08-6.63 6.14-13.67 6.14-13.67s-6.33 4.4-12.24 8.73c1.16-7.22 2.19-14.83 2.19-14.83s-4.89 6-9.41 11.73c-.85-7.27-1.92-14.87-1.92-14.87s-2.59 5.92-5.16 12.13c-2.28-6.3-4.6-12.31-4.6-12.31s-1.42 7.63-2.58 14.86c-4.25-6-8.86-12.1-8.86-12.1s.7 7.68 1.54 15c-5.7-4.61-11.78-9.27-11.78-9.27s2.76 7.2 5.55 14c-6.76-2.86-13.9-5.7-13.9-5.7s4.61 6.18 9.14 11.94c-7.26-.91-14.9-1.69-14.9-1.69s6.12 4.69 12.05 9c-7.24 1.09-14.8 2.42-14.8 2.42s7.16 2.85 14 5.4c-6.67 3-13.59 6.35-13.59 6.35s7.67.79 15 1.38c-5.6 4.71-11.35 9.8-11.35 9.8s7.62-1.31 14.8-2.76c-4.1 6.06-8.25 12.52-8.25 12.52s7-3.33 13.49-6.66c-2.31 7-4.55 14.29-4.55 14.29s5.79-5.09 11.17-10.07c-.33 7.31-.49 15-.49 15s4.19-6.47 8-12.73c1.69 7.13 3.63 14.56 3.63 14.56s2.27-7.37 4.26-14.43c3.54 6.4 7.42 13 7.42 13s.18-7.71.17-15c5.15 5.19 10.67 10.52 10.67 10.52s-1.92-7.48-3.92-14.53c6.4 3.61 13.14 7.23 13.14 7.23s-3.88-6.7-7.74-12.91c7.11 1.73 14.61 3.38 14.61 3.38s-5.53-5.36-10.93-10.33zm-27-.3a6.51 6.51 0 0 0 -1.4.12 6.72 6.72 0 0 0 -1.17-.49 6.1 6.1 0 0 0 -1.38-.26 6.62 6.62 0 0 0 -1-.8 6.92 6.92 0 0 0 -1.25-.62 6.66 6.66 0 0 0 -.75-1 6.53 6.53 0 0 0 -1-.94 6.66 6.66 0 0 0 -.44-1.2 6.81 6.81 0 0 0 -.74-1.19 6.85 6.85 0 0 0 -.09-1.27 7.5 7.5 0 0 0 -.39-1.35 6.34 6.34 0 0 0 .25-1.24 6.64 6.64 0 0 0 0-1.41 6 6 0 0 0 .59-1.13 7.32 7.32 0 0 0 .37-1.35 7.71 7.71 0 0 0 .87-.93 6.16 6.16 0 0 0 .72-1.2 6.09 6.09 0 0 0 1.13-.7 6.3 6.3 0 0 0 1-1 6.27 6.27 0 0 0 1.23-.34 6.6 6.6 0 0 0 1.24-.64 6.83 6.83 0 0 0 1.28 0 6.32 6.32 0 0 0 1.15-.22 6.61 6.61 0 0 0 1 .23 6.08 6.08 0 0 0 1.41 0 6 6 0 0 0 1.11.62 6.7 6.7 0 0 0 1.34.42 6.38 6.38 0 0 0 .9.9 6.75 6.75 0 0 0 1.17.77 6.85 6.85 0 0 0 .63 1.11 6.18 6.18 0 0 0 .92 1 6.76 6.76 0 0 0 .29 1.24 7.41 7.41 0 0 0 .6 1.27 7.63 7.63 0 0 0 -.05 1.27 6.42 6.42 0 0 0 .24 1.39 6.23 6.23 0 0 0 -.55 2.6 7.25 7.25 0 0 0 -.71 1.06 6.53 6.53 0 0 0 -.52 1.3 6.8 6.8 0 0 0 -1 .82 6.89 6.89 0 0 0 -.86 1.11 8 8 0 0 0 -1.16.53 7.37 7.37 0 0 0 -1.13.84 6.88 6.88 0 0 0 -1.25.19 6.54 6.54 0 0 0 -1.32.5 6.48 6.48 0 0 0 -1.23-.01z" fill="#f28f30"/><path d="m77.78 57.09c7.21-1.25 14.75-2.75 14.75-2.75s-7.23-2.69-14.16-5.08c6.6-3.16 13.44-6.65 13.44-6.65s-7.69-.63-15-1c5.49-4.84 11.13-10 11.13-10s-7.58 1.39-14.74 2.97c4-6.15 8-12.7 8-12.7s-6.88 3.49-13.33 7c2.15-7 4.22-14.39 4.22-14.39s-5.69 5.19-10.96 10.28c.17-7.31.16-15 .16-15s-4 6.57-7.73 12.9c-1.83-7.07-3.92-14.46-3.92-14.46s-1.77 6.22-3.47 12.72c-3.12-5.93-6.23-11.57-6.23-11.57s-.37 7.7-.55 15c-5.01-5.29-10.39-10.75-10.39-10.75s1.74 7.51 3.57 14.61c-6.28-3.76-13-7.54-13-7.54s3.71 6.76 7.4 13.09c-7.05-1.91-14.51-3.77-14.51-3.77s5.41 5.5 10.68 10.6c-7.31.07-15 .34-15 .34s6.7 3.82 13.16 7.29c-7.01 2.1-14.3 4.44-14.3 4.44s7.48 1.85 14.64 3.44c-6.21 3.89-12.64 8.14-12.64 8.14s7.7-.26 15-.67c-4.9 5.43-9.91 11.25-9.91 11.25s7.35-2.34 14.28-4.73c-3.24 6.56-6.48 13.52-6.48 13.52s6.44-4.24 12.46-8.43c-1.29 7.2-2.51 14.81-2.51 14.81s5-5.84 9.7-11.5c.67 7.29 1.55 14.91 1.55 14.91s3.27-7 6.21-13.7c2.62 6.83 5.55 13.93 5.55 13.93s1.24-7.64 2.25-14.9c4.38 5.86 9.12 11.9 9.12 11.9s-.87-7.64-1.88-14.92c5.81 4.45 12 9 12 9s-2.92-7.14-5.86-13.85c6.8 2.7 14 5.37 14 5.37s-4.75-6.08-9.41-11.74c7.3.72 14.93 1.33 14.93 1.33s-6.2-4.56-12.22-8.74zm-26.78 3.36a6.82 6.82 0 0 0 -1.37.31 6.93 6.93 0 0 0 -1.23-.32 6.62 6.62 0 0 0 -1.4-.08 7.84 7.84 0 0 0 -1-.65 6.73 6.73 0 0 0 -1.33-.45 6.36 6.36 0 0 0 -.88-.92 7 7 0 0 0 -1.16-.8 6.68 6.68 0 0 0 -.63-1.12 6.79 6.79 0 0 0 -.9-1.08 6.67 6.67 0 0 0 -.26-1.24 6.82 6.82 0 0 0 -.57-1.29 7.53 7.53 0 0 0 .08-1.27 7.06 7.06 0 0 0 -.2-1.39 6.67 6.67 0 0 0 .61-2.59 6 6 0 0 0 .73-1 6.55 6.55 0 0 0 .51-1.32 6.87 6.87 0 0 0 1-.81 7 7 0 0 0 .89-1.08 7 7 0 0 0 1.17-.51 6.28 6.28 0 0 0 1.14-.8 7 7 0 0 0 1.27-.17 7.23 7.23 0 0 0 1.11-.37 6.92 6.92 0 0 0 1 .09 6.37 6.37 0 0 0 1.42-.15 6.53 6.53 0 0 0 1.19.46 6 6 0 0 0 1.38.23 6.27 6.27 0 0 0 1 .77 6.66 6.66 0 0 0 1.27.6 6.82 6.82 0 0 0 .77 1 6.54 6.54 0 0 0 1.06.92 6.21 6.21 0 0 0 .46 1.19 6.76 6.76 0 0 0 .77 1.17 6.91 6.91 0 0 0 .12 1.27 6.54 6.54 0 0 0 .42 1.34 7.26 7.26 0 0 0 -.23 1.25 6.5 6.5 0 0 0 0 1.4 7.2 7.2 0 0 0 -.56 1.15 7.32 7.32 0 0 0 -.34 1.36 6.47 6.47 0 0 0 -.85 1 6.67 6.67 0 0 0 -.7 1.21 6.49 6.49 0 0 0 -1.07.69 6.25 6.25 0 0 0 -1 1 6.69 6.69 0 0 0 -1.21.36 6.41 6.41 0 0 0 -1.24.67 6.76 6.76 0 0 0 -1.24-.03z" fill="#fab722"/><circle cx="49.95" cy="51.1" fill="#71441d" r="20.82"/><g fill="#548731"><path d="m158.77 75.21h4.39v193.7h-4.39z"/><path d="m190.46 127.25c6.16-7 6.65-33 6.65-33s-25.78 3.75-31.94 10.75a16.86 16.86 0 0 0 25.29 22.29z"/><path d="m155.25 95.87c-7-6.16-33-6.65-33-6.65s3.75 25.78 10.75 31.94a16.85 16.85 0 0 0 22.28-25.29z"/></g><path d="m187.88 60.84c7.32-.26 15-.71 15-.71s-6.79-3.65-13.33-7c7-2.23 14.22-4.76 14.22-4.76s-7.53-1.66-14.73-3.07c6.1-4 12.4-8.45 12.4-8.45s-7.7.44-15 1c4.77-5.55 9.63-11.49 9.63-11.49s-7.29 2.51-14.16 5.07c3.09-6.56 6.09-13.6 6.09-13.6s-6.33 4.4-12.24 8.73c1.16-7.22 2.19-14.83 2.19-14.83s-4.89 6-9.41 11.73c-.84-7.27-1.92-14.87-1.92-14.87s-2.59 5.92-5.16 12.13c-2.28-6.3-4.6-12.31-4.6-12.31s-1.4 7.59-2.56 14.82c-4.25-6-8.86-12.1-8.86-12.1s.7 7.68 1.54 15c-5.7-4.58-11.81-9.24-11.81-9.24s2.76 7.2 5.55 14c-6.72-2.89-13.87-5.73-13.87-5.73s4.61 6.18 9.14 11.94c-7.26-.91-14.9-1.69-14.9-1.69s6.12 4.69 12 9c-7.24 1.09-14.8 2.42-14.8 2.42s7.16 2.85 14 5.4c-6.67 3-13.59 6.35-13.59 6.35s7.67.79 15 1.38c-5.6 4.71-11.35 9.8-11.35 9.8s7.65-1.31 14.86-2.76c-4.1 6.06-8.25 12.52-8.25 12.52s6.95-3.33 13.49-6.66c-2.31 7-4.55 14.29-4.55 14.29s5.79-5.09 11.17-10.07c-.33 7.31-.49 15-.49 15s4.19-6.47 8-12.73c1.67 7.13 3.6 14.56 3.6 14.56s2.27-7.37 4.26-14.43c3.54 6.4 7.42 13 7.42 13s.18-7.71.17-15c5.16 5.19 10.69 10.52 10.69 10.52s-1.92-7.47-3.92-14.52c6.36 3.61 13.14 7.23 13.14 7.23s-3.88-6.67-7.73-12.91c7.11 1.73 14.61 3.38 14.61 3.38s-5.54-5.37-10.94-10.34zm-26.95-.3a6.51 6.51 0 0 0 -1.4.12 6.41 6.41 0 0 0 -1.17-.49 6.1 6.1 0 0 0 -1.38-.26 6.62 6.62 0 0 0 -1-.8 6.92 6.92 0 0 0 -1.25-.62 7.31 7.31 0 0 0 -.74-1 7.07 7.07 0 0 0 -1-.94 6.66 6.66 0 0 0 -.44-1.2 6.81 6.81 0 0 0 -.74-1.19 6.85 6.85 0 0 0 -.09-1.27 7.5 7.5 0 0 0 -.39-1.35 6.34 6.34 0 0 0 .25-1.24 6.64 6.64 0 0 0 0-1.41 6 6 0 0 0 .59-1.13 7.32 7.32 0 0 0 .37-1.35 7.71 7.71 0 0 0 .87-.93 6.75 6.75 0 0 0 .73-1.2 6.38 6.38 0 0 0 1.08-.66 6.3 6.3 0 0 0 1-1 6.27 6.27 0 0 0 1.23-.34 6.6 6.6 0 0 0 1.24-.64 6.83 6.83 0 0 0 1.28 0 6.32 6.32 0 0 0 1.15-.22 6.46 6.46 0 0 0 1 .23 6 6 0 0 0 1.4 0 6 6 0 0 0 1.11.62 6.7 6.7 0 0 0 1.34.42 7 7 0 0 0 .9.9 6.75 6.75 0 0 0 1.17.77 6.85 6.85 0 0 0 .63 1.11 6.18 6.18 0 0 0 .92 1 6.06 6.06 0 0 0 .3 1.24 6.17 6.17 0 0 0 .6 1.27 6 6 0 0 0 0 1.27 5.85 5.85 0 0 0 .23 1.39 6.23 6.23 0 0 0 -.55 2.6 6.39 6.39 0 0 0 -1.23 2.36 6.8 6.8 0 0 0 -1 .82 6.89 6.89 0 0 0 -.86 1.11 8 8 0 0 0 -1.16.53 6.82 6.82 0 0 0 -1.12.84 6.86 6.86 0 0 0 -1.26.19 6.23 6.23 0 0 0 -1.31.5 6.59 6.59 0 0 0 -1.3-.05z" fill="#f28f30"/><path d="m189 57.09c7.21-1.25 14.75-2.75 14.75-2.75s-7.23-2.69-14.16-5.08c6.6-3.16 13.44-6.65 13.44-6.65s-7.69-.63-15-1c5.5-4.84 11.13-10 11.13-10s-7.57 1.48-14.72 3.07c4-6.15 8-12.7 8-12.7s-6.88 3.49-13.33 7c2.15-7 4.22-14.39 4.22-14.39s-5.67 5.23-10.94 10.32c.17-7.31.16-15 .16-15s-4 6.57-7.73 12.9c-1.83-7.08-3.92-14.47-3.92-14.47s-1.77 6.22-3.47 12.72c-3.12-5.94-6.23-11.57-6.23-11.57s-.37 7.7-.55 15c-5-5.32-10.41-10.78-10.41-10.78s1.73 7.51 3.56 14.61c-6.28-3.76-13-7.54-13-7.54s3.72 6.76 7.4 13.09c-7.08-2.01-14.54-3.87-14.54-3.87s5.41 5.5 10.68 10.6c-7.31.07-15 .34-15 .34s6.7 3.82 13.16 7.29c-7 2.07-14.33 4.41-14.33 4.41s7.48 1.85 14.64 3.44c-6.19 3.89-12.59 8.14-12.59 8.14s7.71-.26 15-.67c-4.91 5.43-9.92 11.25-9.92 11.25s7.35-2.34 14.29-4.73c-3.25 6.56-6.48 13.52-6.48 13.52s6.43-4.24 12.45-8.43c-1.3 7.23-2.56 14.84-2.56 14.84s5.05-5.84 9.7-11.5c.67 7.29 1.55 14.91 1.55 14.91s3.27-7 6.21-13.7c2.62 6.83 5.55 13.93 5.55 13.93s1.24-7.61 2.25-14.87c4.38 5.86 9.12 11.9 9.12 11.9s-.87-7.66-1.87-14.92c5.8 4.45 12 9 12 9s-2.92-7.14-5.86-13.85c6.8 2.7 14 5.37 14 5.37s-4.75-6.08-9.41-11.74c7.28.75 14.94 1.36 14.94 1.36s-6.18-4.62-12.18-8.8zm-26.74 3.36a7 7 0 0 0 -1.37.31 6.93 6.93 0 0 0 -1.23-.32 6.62 6.62 0 0 0 -1.4-.08 7.84 7.84 0 0 0 -1.09-.65 6.73 6.73 0 0 0 -1.33-.45 6.36 6.36 0 0 0 -.88-.92 7 7 0 0 0 -1.16-.8 6.68 6.68 0 0 0 -.59-1.12 6.79 6.79 0 0 0 -.9-1.08 6.67 6.67 0 0 0 -.31-1.24 6.82 6.82 0 0 0 -.57-1.29 7.53 7.53 0 0 0 .08-1.27 7.06 7.06 0 0 0 -.2-1.39 6.67 6.67 0 0 0 .61-2.59 6 6 0 0 0 .73-1 6.55 6.55 0 0 0 .56-1.28 6.87 6.87 0 0 0 1-.81 6.47 6.47 0 0 0 .89-1.08 7 7 0 0 0 1.17-.51 6.73 6.73 0 0 0 1.15-.8 7 7 0 0 0 1.26-.17 6.88 6.88 0 0 0 1.11-.37 6.92 6.92 0 0 0 1 .09 6.37 6.37 0 0 0 1.39-.15 6.82 6.82 0 0 0 1.19.46 6 6 0 0 0 1.38.23 5.93 5.93 0 0 0 1 .77 6.31 6.31 0 0 0 1.26.6 6.82 6.82 0 0 0 .77 1 6.54 6.54 0 0 0 1.06.92 6.21 6.21 0 0 0 .46 1.19 6.76 6.76 0 0 0 .77 1.17 6.91 6.91 0 0 0 .12 1.27 6.54 6.54 0 0 0 .42 1.34 6.36 6.36 0 0 0 -.19 2.65 7.17 7.17 0 0 0 -.55 1.15 6.64 6.64 0 0 0 -.35 1.36 6.47 6.47 0 0 0 -.85 1 6.67 6.67 0 0 0 -.7 1.21 6.49 6.49 0 0 0 -1.07.69 5.8 5.8 0 0 0 -1 1 6.79 6.79 0 0 0 -1.22.36 6.41 6.41 0 0 0 -1.24.67 6.76 6.76 0 0 0 -1.2-.07z" fill="#fab722"/><circle cx="161.15" cy="51.1" fill="#71441d" r="20.82"/><path d="m269.97 75.21h4.39v193.7h-4.39z" fill="#548731"/><path d="m301.67 127.25c6.15-7 6.64-33 6.64-33s-25.78 3.75-31.94 10.75a16.86 16.86 0 0 0 25.3 22.29z" fill="#548731"/><path d="m266.45 95.87c-7-6.16-33-6.65-33-6.65s3.77 25.78 10.76 31.94a16.85 16.85 0 1 0 22.28-25.29z" fill="#548731"/><path d="m299.08 60.84c7.32-.26 15-.71 15-.71s-6.79-3.65-13.33-7c7-2.23 14.22-4.76 14.22-4.76s-7.53-1.66-14.73-3.07c6.1-4 12.4-8.45 12.4-8.45s-7.7.44-15 1c4.77-5.55 9.63-11.49 9.63-11.49s-7.27 2.58-14.19 5.14c3.08-6.63 6.14-13.67 6.14-13.67s-6.33 4.4-12.24 8.73c1.16-7.22 2.19-14.83 2.19-14.83s-4.89 6-9.41 11.73c-.84-7.27-1.92-14.87-1.92-14.87s-2.59 5.92-5.16 12.13c-2.28-6.3-4.6-12.31-4.6-12.31s-1.42 7.59-2.58 14.82c-4.25-6-8.86-12.1-8.86-12.1s.7 7.68 1.54 15c-5.7-4.58-11.81-9.24-11.81-9.24s2.76 7.2 5.55 14c-6.73-2.86-13.87-5.68-13.87-5.68s4.61 6.18 9.14 11.94c-7.26-.91-14.9-1.69-14.9-1.69s6.12 4.69 12.05 9c-7.24 1.09-14.8 2.42-14.8 2.42s7.16 2.85 14 5.4c-6.67 3-13.59 6.35-13.59 6.35s7.67.79 15 1.38c-5.59 4.71-11.35 9.8-11.35 9.8s7.6-1.32 14.8-2.75c-4.11 6.06-8.26 12.52-8.26 12.52s7-3.33 13.49-6.66c-2.31 7-4.55 14.29-4.55 14.29s5.79-5.09 11.17-10.07c-.33 7.31-.49 15-.49 15s4.19-6.47 8-12.73c1.67 7.13 3.6 14.56 3.6 14.56s2.27-7.37 4.26-14.43c3.54 6.4 7.42 13 7.42 13s.18-7.71.17-15c5.18 5.13 10.71 10.46 10.71 10.46s-1.92-7.48-3.92-14.53c6.37 3.61 13.14 7.23 13.14 7.23s-3.88-6.67-7.72-12.91c7.1 1.73 14.6 3.38 14.6 3.38s-5.54-5.36-10.94-10.33zm-26.95-.3a6.51 6.51 0 0 0 -1.4.12 6.41 6.41 0 0 0 -1.17-.49 6.1 6.1 0 0 0 -1.38-.26 7.06 7.06 0 0 0 -1-.8 7.35 7.35 0 0 0 -1.26-.62 7.31 7.31 0 0 0 -.74-1 7.07 7.07 0 0 0 -1-.94 6.66 6.66 0 0 0 -.44-1.2 6.26 6.26 0 0 0 -.74-1.19 6.85 6.85 0 0 0 -.09-1.27 7.5 7.5 0 0 0 -.39-1.35 6.34 6.34 0 0 0 .25-1.24 6.64 6.64 0 0 0 0-1.41 6 6 0 0 0 .59-1.13 7.32 7.32 0 0 0 .37-1.35 7 7 0 0 0 .87-.93 6.75 6.75 0 0 0 .73-1.2 6.38 6.38 0 0 0 1.08-.66 6.3 6.3 0 0 0 1-1 6.27 6.27 0 0 0 1.23-.34 6.6 6.6 0 0 0 1.24-.64 6.84 6.84 0 0 0 1.28 0 6.32 6.32 0 0 0 1.15-.22 6.73 6.73 0 0 0 1 .23 6 6 0 0 0 1.4 0 6 6 0 0 0 1.11.62 6.7 6.7 0 0 0 1.34.42 7 7 0 0 0 .9.9 6.82 6.82 0 0 0 1.18.77 6.12 6.12 0 0 0 .62 1.11 6.18 6.18 0 0 0 .92 1 6.06 6.06 0 0 0 .3 1.24 6.17 6.17 0 0 0 .6 1.27 6 6 0 0 0 -.05 1.27 6.41 6.41 0 0 0 .23 1.39 6.23 6.23 0 0 0 -.55 2.6 6.39 6.39 0 0 0 -1.23 2.36 6.8 6.8 0 0 0 -1 .82 6.89 6.89 0 0 0 -.86 1.11 8 8 0 0 0 -1.16.53 7.28 7.28 0 0 0 -1.06.94 6.86 6.86 0 0 0 -1.26.19 6.45 6.45 0 0 0 -1.31.5 6.59 6.59 0 0 0 -1.3-.15z" fill="#f28f30"/><path d="m300.18 57.09c7.21-1.25 14.75-2.75 14.75-2.75s-7.23-2.69-14.16-5.08c6.6-3.16 13.44-6.65 13.44-6.65s-7.69-.63-15-1c5.5-4.84 11.13-10 11.13-10s-7.57 1.48-14.72 3.07c4-6.15 8-12.7 8-12.7s-6.89 3.49-13.34 7c2.15-7 4.23-14.39 4.23-14.39s-5.68 5.23-11 10.32c.17-7.31.16-15 .16-15s-4 6.57-7.73 12.9c-1.81-7.21-3.94-14.6-3.94-14.6s-1.77 6.22-3.47 12.72c-3.12-5.94-6.23-11.57-6.23-11.57s-.37 7.7-.54 15c-5-5.32-10.42-10.78-10.42-10.78s1.73 7.51 3.56 14.61c-6.28-3.76-13-7.54-13-7.54s3.72 6.76 7.4 13.09c-6.98-1.88-14.44-3.74-14.44-3.74s5.41 5.5 10.68 10.6c-7.31.07-15 .34-15 .34s6.7 3.82 13.16 7.29c-7 2.07-14.33 4.41-14.33 4.41s7.49 1.85 14.64 3.44c-6.19 3.89-12.59 8.14-12.59 8.14s7.71-.26 15-.67c-4.91 5.43-9.91 11.25-9.91 11.25s7.35-2.34 14.28-4.73c-3.25 6.56-6.48 13.52-6.48 13.52s6.43-4.24 12.46-8.43c-1.34 7.2-2.57 14.78-2.57 14.78s5.05-5.84 9.7-11.5c.67 7.29 1.55 14.91 1.55 14.91s3.27-7 6.21-13.7c2.62 6.83 5.55 13.93 5.55 13.93s1.24-7.61 2.25-14.87c4.38 5.86 9.12 11.9 9.12 11.9s-.87-7.66-1.87-14.92c5.8 4.45 12 9 12 9s-2.92-7.14-5.86-13.85c6.8 2.7 14 5.37 14 5.37s-4.75-6.08-9.41-11.74c7.28.75 14.94 1.36 14.94 1.36s-6.18-4.56-12.2-8.74zm-26.74 3.36a7 7 0 0 0 -1.37.31 6.93 6.93 0 0 0 -1.23-.32 6.62 6.62 0 0 0 -1.4-.08 7.84 7.84 0 0 0 -1.09-.65 6.73 6.73 0 0 0 -1.33-.45 6.36 6.36 0 0 0 -.88-.92 7 7 0 0 0 -1.16-.8 6.68 6.68 0 0 0 -.59-1.12 6.29 6.29 0 0 0 -.9-1.08 6 6 0 0 0 -.26-1.24 6.82 6.82 0 0 0 -.57-1.29 7.53 7.53 0 0 0 .08-1.27 7.06 7.06 0 0 0 -.2-1.39 6.84 6.84 0 0 0 .46-1.15 6.62 6.62 0 0 0 .18-1.39 6.69 6.69 0 0 0 .74-1 6.5 6.5 0 0 0 .55-1.28 6.87 6.87 0 0 0 1-.81 6.47 6.47 0 0 0 .89-1.08 6.82 6.82 0 0 0 2.28-1.44 7 7 0 0 0 1.26-.17 6.57 6.57 0 0 0 1.1-.33 7 7 0 0 0 1 .09 6.37 6.37 0 0 0 1.39-.15 6.82 6.82 0 0 0 1.19.46 6 6 0 0 0 1.38.23 5.93 5.93 0 0 0 1 .77 6.31 6.31 0 0 0 1.26.6 6.82 6.82 0 0 0 .77 1 6.54 6.54 0 0 0 1.06.92 7 7 0 0 0 .46 1.19 6.76 6.76 0 0 0 .77 1.17 6.91 6.91 0 0 0 .12 1.27 6.54 6.54 0 0 0 .42 1.34 6.36 6.36 0 0 0 -.19 2.65 7.17 7.17 0 0 0 -.55 1.15 6.64 6.64 0 0 0 -.35 1.36 7.09 7.09 0 0 0 -.85 1 6.67 6.67 0 0 0 -.7 1.21 6.49 6.49 0 0 0 -1.07.69 5.8 5.8 0 0 0 -1 1 6.79 6.79 0 0 0 -1.22.36 6.41 6.41 0 0 0 -1.24.67 6.76 6.76 0 0 0 -1.21-.03z" fill="#fab722"/><circle cx="272.35" cy="51.1" fill="#71441d" r="20.82"/></svg>