<svg height="170" viewBox="0 0 279 170" width="279" xmlns="http://www.w3.org/2000/svg"><g fill="#717172"><path d="m254.73 49.75c-.43-1.11-5.54-3.1-5.54-3.1l-8.8-11.25s-16.29-1.48-17.64-1.71l-28.62-5.48-10.41-10-15.32-4.58-5.74-8.73 1.14 10.88 9.34 4.44-21 12.78-6.14-5.73-2.73-13.77-2 15.82 29 28.92c-2.48 11.29-6.25 30.4-5.61 30.14.91-.34 14.18-26 14.18-26l8.4-.17 13.6 24.56-5.51-26.17s23.11-6.88 23.58-6.21 0 27.44 0 27.44 8.1-26.33 8.77-25.43 17.43 21 17.43 21l-16.75-40.62 10.95.91 7.36 8.93.84 3.76 8.33 5.34a42.49 42.49 0 0 0 -1.11-5.97z"/><path d="m59.16 74.62 10.89 8.82-10.38-11.21c.57-.73 3.17-5.29 1.66-6.28s-5.49-2.64-8.19 0c-.73.73-1.71 3.89-.73 5.55l-3.94-.67-5.55-7.47 18.52-16.7s-32.58 25.34-41.09 31.59c5.55-3.48 20.65-12 20.65-12l5.34 6.18 7.11 2.57-1.19 23.27s4.15-11.67 4.51-11.62 7.42 16.91 7.42 15.82-5.19-17.32-5.19-17.32z"/><path d="m120.67 65c.72-1.3 2.38-5.29.88-6.07s-5.71-2.18-8.15.73c-.62.77-1.35 4-.26 5.6l-4-.31-6.14-6.95 2.18-2.7.51 1 2.16-3.3-3.11-1.66-.93 1 .83 1.72c-1.77 2-5.55 6.33-7 7.83a17.08 17.08 0 0 1 3.74-1l5.86 5.71 7.26 2 .83 23.29s3.12-12 3.48-11.93 8.87 16.18 8.76 15.15-6.69-16.81-6.69-16.81l-.72-10.53 12.75-2.77z"/></g><path d="m982.22 127.17-51.86 22.83a57.3 57.3 0 0 1 -22-4.17 75.9 75.9 0 0 0 -7.93-2.79l-27.31-7.73c-15.62-4.43-29.07-13.16-38.21-24.81-15.83-20.17-43.88-11.28-72.12-7.85l-57.11 6.93c-23.08 2.8-46.37-3.8-62.86-17.81l-4.15-3.52c-18.4-15.63-45.11-21.92-70.36-16.56l-68.66 14.59c-30.37 6.45-62.24-4-79.61-26.16l-42.83-54.58c-.33-.43-.66-.86-1-1.29-10.87-15.07-70.21-8.16-88.21-30.66-9.26-11.47-126.22-44.23-123-78.59l-14.58-8.33c-56.42 15.33-32.96-48.87-51.61-76.52-33.81-50.15 2.77-136.91 4.19-144.15 12-61 271.59-130.93 273-131 16-.85 293.9 88 311 88l633.09 317.93c27 0 48.91 18.61 48.91 41.56v34.15c0 23-21.9 41.55-48.91 41.55l-76 9.8a17.18 17.18 0 0 1 -6.47-.41c-9.22-2.41-27.66-11.94-39.66-11.94-55.41 0-57.81 4.19-75 46.74-6.67 16.5-42 11.89-55 17-4.13 1.62-17.16 7.27-21.44 8.57a49.62 49.62 0 0 1 -32.46-1.31 41.79 41.79 0 0 0 -31.84.53z" fill="#3d3d3f"/><g fill="#717172"><path d="m217.65 79.62-1.77.18a15.18 15.18 0 0 0 5.14-.33 14.77 14.77 0 0 1 3.62-.42h3.45a3 3 0 0 0 .6 0 71.2 71.2 0 0 1 9-.61 3.5 3.5 0 0 0 1-.15l-3.42-.46 3.81-.39 7.73-.75c.25 0 .5.06.75 0 .57 0 1.14-.08 1.71-.13.72-.06 1.45-.17 2.18-.19 1.09 0 1.39-.17 1.83-.9a1 1 0 0 1 .51-.27c7.33-1.43 12.09 2.07 12 6a15.08 15.08 0 0 0 .21 1.8l.44-.51c0 .67-.05 1.32-.11 2a15.75 15.75 0 0 0 .33 3.87 57.08 57.08 0 0 1 .38 5.86c0 .4.08.8.12 1.19l-.54-.64q-.08 1.28-.15 2.52h.08l.25-.48h.16a5.43 5.43 0 0 1 -.17 1.8 4.61 4.61 0 0 0 -.25 2.39c.21 2.2.58 4.39.65 6.6.09 2.71-.11 5.44-.1 8.16 0 1.69.32 3.37.19 5.06a16.45 16.45 0 0 0 0 2.43 8 8 0 0 0 .39 1.2 1.8 1.8 0 0 1 0 .69c-.08.58-.22 1.17-.25 1.75 0 .24.18.48.28.72a.21.21 0 0 1 0 .13c-.12.43-.24.86-.37 1.35l-.08-.76h-.12c-.11 1.27-.19 2.54-.31 3.81-.16 1.68-2.18 3.1-4.21 3.08a15.84 15.84 0 0 0 1.75-1.1c.7-.55 1.1-1.31.69-1.9s-.12-1.07-.17-1.6l.14.56c.3-.59-.15-2.29-.52-2.32a17.3 17.3 0 0 0 -.19-1.78 4.84 4.84 0 0 0 -.53-1.61 2.35 2.35 0 0 1 -.41-1.89 4.2 4.2 0 0 0 0-1.5c-.14-1.39-.68-2.78-.43-4.15.32-1.74-.57-3.25-.66-4.9h-.17l-.11.77h-.15a3.57 3.57 0 0 0 0-.46c0-3.09 0-6.19-.11-9.28a30.6 30.6 0 0 0 -1-6.83 29.64 29.64 0 0 1 -.53-4.42q-.43-4.31-.86-8.61c-.08-.83-.12-1.66-.2-2.49-.15-1.09-1.15-1.71-2.71-1.51l-1.51.15 2.16.16v.23l-3.89.4c-3.72.41-7.45.84-11.18 1.23-7.81.83-15.62 1.69-23.44 2.45-5.08.49-10.18.8-15.27 1.25-4.08.37-8.17.81-12.25 1.24-3.55.37-7.1.78-10.65 1.16-3.84.42-7.67.88-11.52 1.23-6.17.57-12.35 1.06-18.53 1.6q-3.3.28-6.6.61-15 1.49-29.91 3c-3.85.39-7.68.8-11.52 1.22l-15.28 1.64c-5.12.56-10.24 1.13-15.37 1.67-9.12 1-18.24 2-27.37 2.86-4.31.42-8.63.67-12.94 1-2.08.18-4.16.48-6.25.71-1.3.15-2.6.24-3.9.41-1.56.21-2.29.88-2.14 2 .7 4.91 1.44 9.81 2.11 14.72.17 1.21.09 2.44.17 3.66.24 3.87.48 7.73.77 11.59.25 3.27.56 6.54.86 9.8q.48 5.18 1 10.35a2.26 2.26 0 0 0 .52 1.21 2.76 2.76 0 0 0 2.45.59l9.78-1.06 18-1.94 17.78-1.91c1.17-.13 2.35-.3 3.52-.38 2.09-.15 4.17-.24 6.26-.39.55 0 1.29.13 1.6-.49 0-.05.32-.06.49-.08 3.64-.31 7.29-.57 10.93-.94 6-.61 12-1.32 18-1.91 3.5-.34 7-.5 10.53-.81 1.1-.09 2.18-.41 3.28-.58 1.69-.25 3.38-.52 5.09-.7 6.25-.68 12.52-1.32 18.78-2l20.21-2.15c6.06-.64 12.11-1.34 18.18-1.92 4.72-.45 9.46-.75 14.2-1.12 3.87-.3 7.75-.51 11.6-.91 6.61-.69 13.21-1.51 19.82-2.26 3.74-.43 7.49-.9 11.24-1.24a35.5 35.5 0 0 1 4.37.09c2.45.08 4.89.18 7.34.27a2 2 0 0 1 .51.06l3.94 1.56-4.62 1.12c-2.64.64-5.27 1.3-7.93 1.89-.82.18-1.72.11-2.57.21-2.91.31-5.81.67-8.71 1-2.37.26-4.76.61-7.12.65-3.29.05-6.45.77-9.68 1.08-1.51.15-3 .24-4.52.32a84.46 84.46 0 0 0 -8.73 1.21c-.86.14-1.76.12-2.63.2a41.26 41.26 0 0 0 -4.9.51 58.88 58.88 0 0 1 -9.18 1.23c-2.93.16-5.86.57-8.79.89-1.51.17-3 .42-4.54.57q-11.55 1.23-23.11 2.41-6 .61-12 1.19c-1.82.17-3.65.26-5.47.41-1.6.14-3.2.33-4.62.47h.14a2.84 2.84 0 0 1 -.56.18c-2.23-.1-4.29.63-6.43 1a14.18 14.18 0 0 1 -4.94.2 3.08 3.08 0 0 0 -.8 0c-2.79.35-5.59.73-8.39 1s-5.5.61-8.25.84c-6.56.55-13.12 1.09-19.62 2.14-1 .17-2 .17-3.06.25l-.43.07.7.25-7.14.73-.11-.07.31-.14v-.11c-.74 0-1.48.06-2.22.11s-1.2.08-1.8.18c-.29 0-.81-.16-.86.31a1.5 1.5 0 0 1 -.43.09c-2.09.19-4.17.37-6.25.58-2.35.23-4.7.53-7.06.75-1.93.18-3.86.29-5.8.43a2.36 2.36 0 0 0 -.65.08 15.45 15.45 0 0 1 -3.4.53c-3.79.41-7.57.88-11.36 1.32a58.56 58.56 0 0 1 -9 .67c-3.63-.14-6.66-1.08-8.66-3.25a6.16 6.16 0 0 1 -1.62-3.42c-.64-4.28-1.39-8.55-1.91-12.84-.4-3.33-.67-6.68-.74-10a42.45 42.45 0 0 0 -.11-5.17c-.32-2.23-.76-4.45-1.13-6.68-.09-.54-.16-1.09-.2-1.63s-.26-.79.22-1.2c.16-.13.05-.42 0-.64-.08-1.17-.11-2.35-.29-3.52s-.53-2.61-.65-3.9a2.63 2.63 0 0 0 .18-.8c-.1-1.64-.3-3.28-.32-4.93a4 4 0 0 1 .54-2.14 15 15 0 0 1 2.3-2.67 33.39 33.39 0 0 1 2.63-2.13l.13.06-.24.45a1.68 1.68 0 0 0 .3-.07 13.65 13.65 0 0 1 4.65-1 10.15 10.15 0 0 0 3.34-.74 1.61 1.61 0 0 1 .76 0 1.9 1.9 0 0 0 1.61-.25c.06-.06.25 0 .38-.06l3.66-.21c1 0 2 0 2.92-.1s1.68-.21 2.51-.36c.63-.1.74-.25.72-.78.59-.13 1.19-.29 1.79-.38a3.18 3.18 0 0 1 .85.1h.37l2.6-.23a8.39 8.39 0 0 0 1.12-.16c.39-.11.73-.25 1 0a.87.87 0 0 0 .48 0c.54-.12 1.07-.27 1.72-.43l-.49.48c1.81.32 3.56-.1 5.46-.1l-.6-.4c1.62.06 3.12.37 4.56-.23a2.21 2.21 0 0 0 2.12 0 8.1 8.1 0 0 1 1.29-.38l.06.13-.2.21a2.66 2.66 0 0 0 .41 0c3-.39 6-.82 9-1.16a62.7 62.7 0 0 1 7.06-.62 52.21 52.21 0 0 0 5.75-.42c1.59-.17 3.18-.54 4.76-.6 1.29 0 2.61-.32 3.83-.26a47 47 0 0 0 7.42-.61 3.25 3.25 0 0 0 1.59-.77 4.71 4.71 0 0 1 2.37-.93 28.68 28.68 0 0 0 3-.53l.06.14-.57.28v.13a22.46 22.46 0 0 0 4-.72c.35.17.58.38.85.39a16.85 16.85 0 0 0 2.84 0c2.26-.24 4.51-.57 6.76-.9a24.1 24.1 0 0 1 6.88-.3 5.2 5.2 0 0 0 2.21-.23 12.58 12.58 0 0 1 3.45-.57c.64 0 1.28-.24 1.93-.34a16.8 16.8 0 0 1 2.11-.23 44.44 44.44 0 0 0 8.41-1 20.67 20.67 0 0 1 3.72-.34 7.81 7.81 0 0 0 1.32-.29 4.75 4.75 0 0 1 .81-.19l16.34-1.09a37.26 37.26 0 0 0 4.75-.36c3.17-.6 6.37-.59 9.55-.92 4.1-.42 8.22-.75 12.32-1.22 1.23-.14 2.41-.15 3.62-.18 1.9 0 3.81-.33 5.72-.53 1.2-.13 2.39-.34 3.59-.41 3.34-.19 6.69-.33 10-.48l2.73-.1zm-7.59.46v-.14c-.35 0-.71.06-1.06.11-.95.11-1.9.27-2.85.35-.43 0-.88-.13-1.31-.09-2.75.28-5.49.6-8.24.91l-8.18.88a2 2 0 0 0 -.51.21 2.05 2.05 0 0 0 .53.13c1 0 1.91-.07 2.87-.13a3.49 3.49 0 0 0 1.1-.14 6 6 0 0 1 2.63-.5 16.88 16.88 0 0 0 1.73-.1c3.22-.32 6.43-.64 9.65-1 1.2-.12 2.42-.32 3.64-.49z" stroke="#4e4e51" stroke-miterlimit="10" stroke-width="2"/><path d="m47.58 132.88a4.77 4.77 0 0 1 3.07.46 4 4 0 0 1 1.94 3 4.28 4.28 0 0 1 -1 3.16 4.2 4.2 0 0 1 -3 1.28l-8.06.83a4.3 4.3 0 0 1 -3.7-1c-1.15-1.05-1.33-1.61-1.69-5.14l-1.47-14.41c-.3-2.88 1.16-4.93 3.69-5.19a4.31 4.31 0 0 1 3.45 1.2c.88 1 1.15 1.7 1.39 4.12l1.24 12.12z"/><path d="m67.18 130.88c1.84-.19 2.67 0 3.63.59a3.94 3.94 0 0 1 1.68 2.85 4.13 4.13 0 0 1 -1.06 3.21c-.78.78-1.49 1-3.4 1.24l-6.56.67a8.34 8.34 0 0 1 -3.25 0 3.92 3.92 0 0 1 -2.73-2.82 9.92 9.92 0 0 1 -.42-2.52l-1.42-13.88c-.22-2.15-.21-2.42.05-3.26a3.87 3.87 0 0 1 1.82-2.32c.92-.48 1.11-.54 3.6-.79l5.06-.52a11.08 11.08 0 0 1 3.24-.14 3.78 3.78 0 0 1 3.29 3.38 4 4 0 0 1 -1.06 3.25 4.51 4.51 0 0 1 -3.13 1.25l-4.21.43.18 1.77 3.33-.34c2.07-.22 3.54.87 3.73 2.68a3.18 3.18 0 0 1 -.87 2.52 3.7 3.7 0 0 1 -2.54.92l-3 .31.2 1.92z"/><path d="m78.79 137.86a4.18 4.18 0 0 1 -4.62-3.79 5.38 5.38 0 0 1 .31-2.28l6.28-17.79a4.23 4.23 0 0 1 3.61-2.93 4.31 4.31 0 0 1 4.21 2.16l9.81 16.36a4.36 4.36 0 0 1 .71 2 4.25 4.25 0 0 1 -3.83 4.61c-2 .2-3.2-.6-4.65-3.08l-7.82.8c-.8 2.57-1.98 3.73-4.01 3.94zm8.56-10.6-1.62-2.93-1 3.2z"/><path d="m109.59 108.67a13.21 13.21 0 0 1 9.61 2.33 12.75 12.75 0 0 1 5.19 9.08 13 13 0 0 1 -3.14 9.81 12.83 12.83 0 0 1 -5.7 3.72 25.55 25.55 0 0 1 -4.3.75l-3.57.37c-2 .2-2.81.13-3.64-.33a3.74 3.74 0 0 1 -2-2.12 10.73 10.73 0 0 1 -.43-2.74l-1.44-14.07c-.22-2.15-.25-2.38-.11-3 .42-1.9 1.9-3 4.35-3.27zm.24 17.88c2.91-.34 3.59-.53 4.51-1.32a5.17 5.17 0 0 0 1.66-4.23 5 5 0 0 0 -3.18-4.14 7.2 7.2 0 0 0 -3.31-.2l-.69.07z"/><path d="m140.46 123.37c1.84-.19 2.67 0 3.63.6a4 4 0 0 1 1.69 2.85 4.15 4.15 0 0 1 -1.07 3.21c-.77.77-1.48 1-3.4 1.23l-6.56.68a8.27 8.27 0 0 1 -3.25 0 3.88 3.88 0 0 1 -2.73-2.82 9.91 9.91 0 0 1 -.41-2.51l-1.43-13.88c-.22-2.15-.21-2.42.06-3.26a3.76 3.76 0 0 1 1.81-2.32c.92-.48 1.11-.54 3.6-.8l5.06-.51a10.67 10.67 0 0 1 3.24-.14 3.79 3.79 0 0 1 3.3 3.38 4 4 0 0 1 -1.07 3.25 4.5 4.5 0 0 1 -3.12 1.25l-4.22.43.18 1.76 3.34-.34c2.07-.21 3.53.88 3.72 2.68a3.16 3.16 0 0 1 -.87 2.53 3.73 3.73 0 0 1 -2.54.92l-3 .31.2 1.92z"/><path d="m167.32 121.86a5.26 5.26 0 0 1 1.08 2.64 4.14 4.14 0 0 1 -3.79 4.57 3.92 3.92 0 0 1 -3.69-1.6l-4.09-5.47.36 3.49a4.14 4.14 0 0 1 -3.7 4.68 4.32 4.32 0 0 1 -3.49-1.17 5.58 5.58 0 0 1 -1.36-3.51l-1.62-15.76c-.19-1.84.09-2.91 1-3.89s1.69-1.3 3.72-1.51l3.53-.36a15.88 15.88 0 0 1 4.14 0 9.2 9.2 0 0 1 7.61 8.13 9.1 9.1 0 0 1 -2.05 6.8zm-11.25-7.26h.35l.57-.06c1.27-.09 1.88-.62 1.78-1.54s-.83-1.35-2.09-1.18a8.44 8.44 0 0 1 -.89 0z"/><path d="m170.93 122.34a3.83 3.83 0 0 1 3.44-4.23 4.49 4.49 0 0 1 3.12.93c2 1.23 2.23 1.36 2.85 1.29a1 1 0 0 0 1-1.22 1.21 1.21 0 0 0 -.77-1 7 7 0 0 0 -1.76-.55c-.71-.16-1.43-.32-2.14-.52-3.86-.92-5.94-3.15-6.31-6.71-.51-5 3-8.79 8.54-9.36 4.6-.47 8.45 1.61 8.77 4.75a3.29 3.29 0 0 1 -2.94 3.83 5.43 5.43 0 0 1 -3.63-1.1c-1-.64-1.4-.78-1.86-.74a1 1 0 0 0 -.9 1.1c.08.77.65 1.06 2.71 1.51a16.35 16.35 0 0 1 5.72 2.12 8 8 0 0 1 3.19 5.76 8.85 8.85 0 0 1 -1.79 6.34c-1.55 1.91-3.77 3-6.91 3.31-5.48.54-9.95-1.85-10.33-5.51z"/><path d="m201.82 119.76c.18 2.11.12 2.66-.36 3.64a4.24 4.24 0 0 1 -7 .72c-.67-.86-.9-1.58-1.09-3.49l-1.58-15.42c-.18-1.8-.07-2.59.53-3.54a4.29 4.29 0 0 1 3.17-2 4.48 4.48 0 0 1 3.58 1.3c.78.85 1 1.37 1.21 3.56l.37 3.6 5.14-.52-.36-3.49c-.21-2-.13-2.82.5-3.85a4.06 4.06 0 0 1 3.09-2 4.33 4.33 0 0 1 3.54 1.26 5.32 5.32 0 0 1 1.28 3.4l1.58 15.49a5.46 5.46 0 0 1 -.35 3.4 4.2 4.2 0 0 1 -6.9 1.06c-.75-.85-1-1.57-1.18-3.6l-.38-3.68-5.14.53z"/><path d="m227.88 117.67a4.67 4.67 0 0 1 -.72 3.56 4.42 4.42 0 0 1 -3 1.74 4.48 4.48 0 0 1 -3.28-1c-.9-.8-1.25-1.65-1.43-3.41l-1.63-15.84c-.22-2.15-.1-2.93.68-4a4.11 4.11 0 0 1 3-1.7 4.25 4.25 0 0 1 3.28 1c.94.87 1.3 1.73 1.51 3.8z"/><path d="m240.31 116.4c.29 2.91-1.19 5-3.72 5.3a4.23 4.23 0 0 1 -3.73-1.55c-.76-1-.88-1.39-1.14-4l-1.53-15c-.19-1.84 0-2.71.78-3.72a4.43 4.43 0 0 1 3.32-1.62l3.53-.36c4.1-.42 5.91-.14 8 1.15a9.16 9.16 0 0 1 1.38 14.62 9 9 0 0 1 -5.75 2.45l-1.42.15zm-1.06-10.31c2-.1 2.77-.56 2.65-1.71-.08-.84-.9-1.26-2.17-1.13l-.76.08z"/></g></svg>