<svg height="118" viewBox="0 0 139 118" width="139" xmlns="http://www.w3.org/2000/svg"><g fill="#565656"><path d="m56.74 28.3h13.98v69.55h-13.98z" transform="matrix(.97004185 -.24293785 .24293785 .97004185 -13.41 17.37)"/><circle cx="78.6" cy="93.6" r="11.78"/><circle cx="65" cy="97.03" r="11.78"/><circle cx="62.44" cy="29.13" r="11.78"/><circle cx="48.93" cy="32.54" r="11.78"/></g><g fill="#666"><path d="m42.17 33.18h13.98v69.56h-13.98z" transform="matrix(.69012494 -.72369024 .72369024 .69012494 -33.94 56.64)"/><circle cx="78.11" cy="85.79" r="11.78"/><circle cx="68.39" cy="95.96" r="11.78"/><circle cx="29.99" cy="39.89" r="11.78"/><circle cx="20.27" cy="50.06" r="11.78"/><path d="m90.01 27.22h13.98v69.55h-13.98z" transform="matrix(1 -.09 .09 1 -5.06 8.75)"/><circle cx="106.87" cy="94.58" r="11.78"/><circle cx="92.97" cy="95.76" r="11.78"/><circle cx="101.11" cy="28.32" r="11.78"/><circle cx="87.13" cy="29.51" r="11.78"/></g></svg>