<svg height="1801" viewBox="0 0 2254 1801" width="2254" xmlns="http://www.w3.org/2000/svg" xmlns:xlink="http://www.w3.org/1999/xlink"><clipPath id="a"><path d="m1065 772h4615v632.4h-4615z"/></clipPath><path d="m1065 772h4615v632.4h-4615z" fill="#4e4e51"/><g clip-path="url(#a)"><path d="m1066.45 1404.4h4615.55v-632.56h-4615.55z" fill="#4e4e51"/></g><path d="m-3261 397h4336v1002h-4336z" fill="#e0da8c"/><path d="m1076.68 1377.28 6.38-640.91s117.12-52 141.07-263.16l-65.47.06s24.24 148.16-75.66 222.34l6.65-307.49-93 .08-13.29 629.8s-50.36-192-93.54-629.71h-31s-20.5 218.59 114.29 726l-6.64 311.2 110.26-.1z" fill="#726638"/><g fill="#a09754"><path d="m714.53 407.74s-.12.79-.48 2.51-.84 4.22-1.44 7.39c-1.2 6.6-2.76 16.37-4.45 28.78s-3.36 27.72-4.8 45.27-2.52 37.49-3.24 59.14-.48 45.28.48 70.23 3 51.08 6.12 78.14c1.44 13.47 3.49 27.2 5.65 40.92 1.08 6.87 2.4 13.86 3.6 20.73s2.64 13.86 4.08 20.86 3.13 14 4.57 21c.84 3.57 1.56 7 2.4 10.56s1.44 7.13 2.28 10.7c2.89 14.25 5.53 28.64 7.81 43.16s4.08 29 5.64 43.56 2.89 29 3.85 43.43c1.92 28.78 2.4 57.29 1.8 84.88s-2.16 54.12-4.68 79.33-5.65 48.84-9.25 70.49-7.57 41.58-11.65 59-7.93 32.6-11.53 44.88-6.61 22-8.77 28.64c-1.08 3.3-2 5.81-2.64 7.53a28.57 28.57 0 0 0 -1 2.77c-2.29 6.07-8.53 9-14.06 6.47s-8.16-9.37-5.88-15.45c.12-.26.12-.39.24-.66l.12-.26 1-2.11c.6-1.45 1.56-3.83 2.88-6.87 2.4-6.07 6-15.18 10-26.93s8.65-26.26 13.21-43 9.25-36 13.57-57.16 8.17-44.35 11.17-69 5.17-50.82 6.25-78 .84-55.31-.6-83.82-4.44-57.42-8.77-85.93c-2.16-14.26-4.68-28.52-7.45-42.64-.72-3.56-1.44-7-2.16-10.56s-1.56-7-2.28-10.56c-1.56-7-3.12-14.12-4.68-21.12-6-28.12-10.57-56.1-14.18-83.29s-6-53.73-7.68-78.81c-.48-6.34-.72-12.54-1.08-18.61s-.48-12.15-.84-18.09c-.13-5.94-.37-11.75-.49-17.55s-.24-11.36-.36-16.9c-.36-22 .12-42.24.6-60.19s1.42-33.6 2.26-46.6 1.8-23 2.4-30c.36-3.44.6-6.21.84-7.92l.36-2.78c.72-6.46 6.25-11.08 12.13-10.29s10.09 6.86 9.37 13.33c0 .4-.12.66-.12 1.06z"/><path d="m686.9 400.08s.36.93 1.21 2.64 1.8 4.1 3.12 7.4c2.76 6.46 6.48 16 11 28.11a982.49 982.49 0 0 1 31.77 102.97c5.4 21.64 10.57 45.4 14.77 70.75a807.38 807.38 0 0 1 9.61 80.26 692.55 692.55 0 0 1 .72 86.59c-.48 7.39-1 14.79-1.44 22.31-.36 3.7-.6 7.26-1 11s-.84 7.52-1.2 11.22c-1.69 14.91-4.09 29.7-7 44.35-5.77 29.3-13.45 58-20.78 86.07s-14.53 55.44-19.7 82.23c-.6 3.3-1.32 6.74-1.92 10s-1.2 6.6-1.68 9.9c-1 6.6-2 13.2-2.88 19.66-.48 3.3-.84 6.47-1.2 9.77s-.72 6.47-1.08 9.64c-.48 6.33-1.09 12.67-1.45 18.87a571.8 571.8 0 0 0 .12 70.36c.24 2.77.36 5.41.48 8l.12 1.06.13.92.12 2 .36 4c.24 2.64.48 5.15.72 7.66s.48 5 .84 7.39c1.08 9.9 2.52 19.14 4 27.72a327.63 327.63 0 0 0 10.45 43.56 164.26 164.26 0 0 0 10.35 25.51c2.76 5.41 4.56 7.39 4.08 6.73a12.72 12.72 0 0 1 -.84 16.77 10.14 10.14 0 0 1 -15.25-.93 69.78 69.78 0 0 1 -6.61-11 187.63 187.63 0 0 1 -11.41-29.7 350.41 350.41 0 0 1 -10.33-47.13c-1.44-9.11-2.64-18.87-3.6-29.17-.24-2.51-.48-5.15-.72-7.79s-.48-5.41-.6-8c-.12-1.32-.12-2.64-.24-4l-.12-2-.12-1.06v-1c-.12-2.78-.24-5.55-.36-8.45a559.72 559.72 0 0 1 1.2-73.13c.48-6.47 1.2-12.94 1.92-19.67.36-3.3.84-6.6 1.2-9.9s.84-6.73 1.44-10c1-6.73 2.16-13.47 3.37-20.33.6-3.43 1.32-6.73 1.92-10.16s1.44-6.87 2.16-10.3c5.88-27.46 13.57-55.18 21.5-83s16.09-56 22.22-84.48c3.12-14.26 5.64-28.65 7.57-43 .48-3.56 1-7.12 1.32-10.69s.72-7.26 1.08-11l.48-5.28c.12-1.85.36-3.57.36-5.42.12-3.56.36-7.26.48-10.82a677.16 677.16 0 0 0 -2.88-84.62c-2.53-27.32-6.61-53.59-11.41-78.27s-10.45-47.66-16.22-68.78a946.67 946.67 0 0 0 -33.51-99.53c-4.68-11.75-8.65-20.72-11.41-26.79-1.32-3-2.4-5.42-3.12-6.87s-1.08-2.24-1.08-2.24l-.12-.13a12.62 12.62 0 0 1 4.56-16.11c5.29-3 11.77-.79 14.65 5a1.07 1.07 0 0 0 -.12.33z"/><path d="m743.36 1334.93a5.48 5.48 0 0 1 -1.45-.13c-3.84-.93-6.36-5-5.64-9.37 22.46-120 8.17-175.3-20.06-285.39-10.09-39.34-21.62-83.83-34-140.85-11.17-51.35-14.29-109.43-9.37-172.66 4-50.43 13-104.28 26.91-160 23.66-94.91 53.8-163.55 54-164.21a6.93 6.93 0 0 1 9.61-3.7c3.61 1.85 5.05 6.6 3.37 10.56-.24.66-29.91 68.25-53.21 161.84-21.38 85.8-41.8 211.86-17.3 324.33 12.37 56.76 23.78 101.11 33.87 140.32 29 112.6 43.48 169.09 20.3 292.91a7.5 7.5 0 0 1 -7.03 6.35z"/><path d="m633.46 850.61s30.86-12.8 53.8 14.92c0 .13-29.78 14.91-53.8-14.92z"/><path d="m635 850.74s-27.15-18.74-56 3.7c-.07 0 25.63 20.56 56-3.7z"/><path d="m633.46 850.61c14.41 17.82 30.74 19.67 41.67 18.35-10.33-.26-24.26-4.22-35.31-20.07a43.75 43.75 0 0 0 -6.36 1.72z"/><path d="m635 850.74c-18.14 14.52-34.59 12.94-44.92 9.38 10.09 1.84 24.62.79 39.15-12.41a40.37 40.37 0 0 1 5.77 3.03z"/><path d="m634.3 848.63s-25.95 21.52-18.38 44.49 7.57 47.12 7.57 47.12 38.31-49.37 10.81-91.61z"/><path d="m627.81 855.23s-4.8 18.22-16.45 33.93c-1.93-12.54 4.2-24 10.21-31.95a44.08 44.08 0 0 1 6.24-1.98z"/><path d="m647.27 892.32a103.75 103.75 0 0 1 -9.49-18.87c-3-12.67-2.52-19.41-2.52-19.41a46.34 46.34 0 0 1 7.44 2.96 68.09 68.09 0 0 1 4.57 35.32z"/><path d="m627.81 855.23s-8.65 32.74-30.87 48.18c-15.61 10.83-25.34 14.39-25.34 14.39s11.65-33.53 23.42-44.48c14.53-13.73 32.79-18.09 32.79-18.09z"/><path d="m637.78 873.32s12.49 36.69 40.84 45.8c0 0-6.85-54.65-43.36-65.21.12 0-.48 6.87 2.52 19.41z"/><path d="m627.81 855.23s-4.8 18.22-16.45 33.93c-1.93-12.54 4.2-24 10.21-31.95a44.08 44.08 0 0 1 6.24-1.98z"/><path d="m647.27 892.32a103.75 103.75 0 0 1 -9.49-18.87c-3-12.67-2.52-19.41-2.52-19.41a46.34 46.34 0 0 1 7.44 2.96 68.09 68.09 0 0 1 4.57 35.32z"/><path d="m634.3 848.63s-25.95 21.52-18.38 44.49 7.57 47.12 7.57 47.12 38.31-49.37 10.81-91.61z"/><path d="m629.13 902.22c0-2-1.08-48.05 7.81-72.2 7.69-20.86 19.1-29.83 27.26-33.66 8.89-4.23 16-3.57 16.34-3.43l-.36 4c-1.08-.14-26.07-2.38-39.76 34.71-8.65 23.37-7.56 70.1-7.56 70.62z"/><path d="m614.03 871.53 1.52 2.04-20.55 18.46-1.52-2.04z"/><path d="m666.73 906.58c-5.41-10.82-22-28.38-22.22-28.51l1.68-1.85c.72.79 17 17.95 22.58 29.17z"/><path d="m669.13 863c-11.29-9.24-35.19-9.9-35.43-9.9h-.12c-17.42-3.17-31.83 1.71-32 1.85l-.72-2.51a68.66 68.66 0 0 1 33-2c1.92 0 25.1.92 36.75 10.43z"/><path d="m765.94 603.11s-32.91-2.64-47.81 31c0 .02 32.43 5.03 47.81-31z"/><path d="m764.49 603.77s21.26-26.41 54.65-13.87c0 0-19.33 27.59-54.65 13.87z"/><path d="m765.94 603.11c-9.25 21.51-24.51 28.38-35.32 30.49 9.85-3.43 22.22-11.62 28.71-30.23a47.89 47.89 0 0 1 6.61-.26z"/><path d="m764.49 603.77c21.14 8.23 36.51 1.71 45.51-4.89-9.25 4.89-23.43 8.45-40.72.13a38.29 38.29 0 0 0 -4.79 4.76z"/><path d="m764.61 601.52s30.39 12.54 29.07 37 4.81 47.66 4.81 47.66-49.49-35.69-33.88-84.66z"/><path d="m772.54 605.75s9.25 16 24.5 27.45c-1.32-12.54-10.21-21.65-18-27.45a41.13 41.13 0 0 0 -6.5 0z"/><path d="m763.41 647.33a100.55 100.55 0 0 0 4.21-21.12c-.36-13.07-2.64-19.41-2.64-19.41a51.51 51.51 0 0 0 -6.37 5.15 68.23 68.23 0 0 0 4.8 35.38z"/><path d="m772.54 605.75s16.7 28.64 42 36.69c17.78 5.55 28 5.94 28 5.94s-19.82-28.64-33.88-35.51c-17.5-8.58-36.12-7.12-36.12-7.12z"/><path d="m767.62 626.34s-2.52 39.07-27.39 56.66c0 0-7.56-54.52 24.87-76-.1-.07 2.16 6.27 2.52 19.34z"/><path d="m772.54 605.75s9.25 16 24.5 27.45c-1.32-12.54-10.21-21.65-18-27.45a41.13 41.13 0 0 0 -6.5 0z"/><path d="m763.41 647.33a100.55 100.55 0 0 0 4.21-21.12c-.36-13.07-2.64-19.41-2.64-19.41a51.51 51.51 0 0 0 -6.37 5.15 68.23 68.23 0 0 0 4.8 35.38z"/><path d="m764.61 601.52s30.39 12.54 29.07 37 4.81 47.66 4.81 47.66-49.49-35.69-33.88-84.66z"/><path d="m779.87 652.21c-.12-.4-10.45-46.07-25.34-65.34-8.77-11.35-19.46-18.35-31.59-20.73a41 41 0 0 0 -15.86-.26l-.84-3.83c.24-.13 28.59-6.73 50.93 22.18 15.37 19.93 25.7 64.94 26.06 66.92z"/><path d="m789.95 617.09 24.46 11.33-.93 2.43-24.47-11.32z"/><path d="m748.4 667.13-2.4-.53c2.52-12.54 13.69-34.19 14.17-35.11l2 1.32c.04.26-11.49 22.19-13.77 34.32z"/><path d="m734.83 626.07-1.92-1.58c8.64-12.67 30.74-20.86 32.55-21.38a71.42 71.42 0 0 1 32.18-8.45v2.64a69.86 69.86 0 0 0 -31.1 8.18l-.12.13c-.36.14-23.06 8.19-31.59 20.46z"/><path d="m591.18 811.93-2.18-3.16c28.46-23.1 66.66-7.92 68.22-7.26l-1.22 3.69c-.32-.13-38-14.91-64.82 6.73z"/><ellipse cx="590.1" cy="810.35" rx="5.53" ry="6.07"/><ellipse cx="784.31" cy="788.44" rx="5.53" ry="6.07"/><ellipse cx="662.04" cy="835.03" rx="5.53" ry="6.07"/><path d="m663.84 835h-3.6c0-14.65-11.41-22.83-11.53-23l1.92-3.3c.6.3 13.21 9.44 13.21 26.3z"/><path d="m752.24 576.31a40.81 40.81 0 0 1 -9.24-1.06l.84-3.83a39.41 39.41 0 0 0 15.13.4c10.45-2 17.54-8.71 21-19.8l3.36 1.32c-6.22 19.4-21.24 22.97-31.09 22.97z"/><path d="m783.83 519.15 9.73-14s11.89 67.72-14.17 62.57c-26.91-5.27 4.44-48.57 4.44-48.57z"/><path d="m787.56 566.54a11 11 0 0 1 -8.17 1.19c-26.79-5.28 4.44-48.58 4.44-48.58l3.37-4.88 1.08 2.77c.48 1.58 11.65 32.08-.72 49.5z"/><path d="m787.56 566.54a11 11 0 0 1 -8.17 1.19c-26.79-5.28 4.44-48.58 4.44-48.58l3.37-4.88 1.08 2.77c.48 1.58 11.65 32.08-.72 49.5z"/><path d="m779.39 567.73s-21.38-2.25-9.73-26.14c7.21-14.78 14.17-22.44 14.17-22.44s13.09 35.38-4.44 48.58z"/><path d="m754.89 823s1.68 34.06-14.78 56.63c-11.41 15.84-19.7 22.71-19.7 22.71s1-35.91 8.77-50.43c9.82-18.06 25.71-28.91 25.71-28.91z"/><path d="m769.78 836.62s22.7 30.1 52.25 28.64c0 0-22.7-49.1-60.42-46.07 0 0 1.56 6.6 8.17 17.43z"/><path d="m754.89 823s1 19-5.41 38c-5.52-11.09-3.24-24.16.12-33.93a65.42 65.42 0 0 1 5.29-4.07z"/><path d="m784.31 851a87.94 87.94 0 0 1 -14.53-14.52c-6.61-10.83-8.17-17.43-8.17-17.43a39.06 39.06 0 0 1 7.81.13c7.69 8.59 12.58 19.29 14.89 31.82z"/><path d="m759.09 814.57s-18.09 29.7-4.09 48.71 21.26 41.85 21.26 41.85 21.5-60.72-17.17-90.56z"/><path d="m766.66 865.79c-7.09-91.61-60.42-130.15-61-130.55l1.92-3.3c.6.4 14.06 10 28.71 31.28 13.45 19.67 30.15 53.33 34 102.18z"/><path d="m731.22 882.42-3.36-1.42c6.49-18.21 18.5-39.73 18.62-40l3.12 2.12c-.24.23-12.01 21.48-18.38 39.3z"/><path d="m805.09 856.42c-10.81-13.73-28.7-21.78-28.94-21.91l1.32-3.7c.72.4 19 8.45 30.26 23z"/><path d="m783.47 789.76c-18-21.52-38.67-21.52-45.52-21.52-2 0-2.88 0-3.48-.92l2.88-2.38a1.22 1.22 0 0 0 -1-.66h1.65c19.22 0 35.43 7.66 48.16 22.71z"/><path d="m769.54 1113.3c.6 24.42-6.37 42.9-16.22 56.89a103.8 103.8 0 0 1 11.66-56c2.88-.63 4.56-.89 4.56-.89z"/><path d="m800.29 1160.82c-24.14-20.46-29.19-47.52-29.19-47.52 1.44-.27 2.76-.4 4.2-.53a93.74 93.74 0 0 1 24.99 48.05z"/><path d="m769.54 1113.3s-34 3.69-56.21 41.58-16.46 53.86-16.46 53.86 74.47-17.83 72.67-95.44z"/><path d="m771 1113.3s6.85 37.09 43.24 57.29 50.21 12.27 50.21 12.27-23.81-80.12-93.45-69.56z"/><path d="m753.32 1170.19a103.8 103.8 0 0 1 11.66-56c2.88-.66 4.56-.92 4.56-.92.6 24.58-6.37 43.06-16.22 56.92z"/><path d="m800.29 1160.82c-24.14-20.46-29.19-47.52-29.19-47.52 1.44-.27 2.76-.4 4.2-.53a93.74 93.74 0 0 1 24.99 48.05z"/><path d="m770.14 1113.43s-20.54 30.23-10.33 73.79 24.86 49.78 24.86 49.78 38.44-72.86-14.53-123.55z"/><path d="m781 1195-3.6-.14c2.88-112.33-59.7-172.39-60.3-173l2.28-3c.72.66 16.46 15.58 31.95 44.75 14.37 26.98 31.18 71.73 29.67 131.39z"/><path d="m715 1189.2-3-2.25c16.09-26.4 55.85-74.45 56.21-75l1-1.06 1.2.66c.48.26 50 27.06 81.19 62.83l-2.64 2.78c-28.1-32.08-71.22-57-79-61.25-6.07 7.29-40.42 49.4-54.96 73.29z"/><path d="m655 1143.66-1.45-3.7c38-17.29 56.09-45.41 64.62-65.87 9.25-22.17 9.61-40.65 9.61-40.79h3.6c0 .8-.24 19.28-9.84 42.24-8.81 21.26-27.54 50.17-66.54 68.12z"/><path d="m643.67 1159.37-15.74 3.69s30.87-59.93 47.68-37.49c17.39 23.1-31.94 33.8-31.94 33.8z"/><path d="m668.77 1120.69c2.52.53 4.8 2 7 4.88 17.3 23.1-32.06 33.8-32.06 33.8l-5.41 1.32.84-2.91c.44-1.45 9.93-32.6 29.63-37.09z"/><path d="m668.77 1120.69c2.52.53 4.8 2 7 4.88 17.3 23.1-32.06 33.8-32.06 33.8l-5.41 1.32.84-2.91c.44-1.45 9.93-32.6 29.63-37.09z"/><path d="m675.73 1125.57s15 16.9-8 26.93c-14.18 6.07-24 7-24 7s10.75-36.43 32-33.93z"/><path d="m885.44 1161.74s1.33-4.62 5.29-5.94a26.6 26.6 0 0 1 -21.38-5.28 26.63 26.63 0 0 1 21.14-6.33c-4.09-1.19-5.53-5.68-5.53-5.68a18.34 18.34 0 0 1 7.57.26 26 26 0 0 1 12.49 6.87l4.09 3.83-3.85 4.09a28.24 28.24 0 0 1 -12.25 7.52 18.06 18.06 0 0 1 -7.57.66z"/></g><path d="m905.59 1216.48c20.62-51.48-1.13-111.48-48.59-133.85a86.8 86.8 0 0 0 -54.41-6.73c-10-28.84-35.39-47.93-63.76-47.93a64.44 64.44 0 0 0 -8.44.56c-13-46.85-58.56-73.35-101.7-59.2-31.76 10.42-54.55 40.7-57.64 76.58-15.94-31.28-52.21-42.6-81-25.29-25.57 15.38-37.11 48.63-27.23 78.51-39-28.48-91.94-17.19-118.16 25.22a96.83 96.83 0 0 0 -12.36 31.14l-2.32-.34q.24-3.47.24-7c0-51.92-38.76-94-86.57-94-38.7 0-72.69 27.9-83.26 68.34-53.56-19.74-112.58-10.6-158.93 24.61-26.46-45.35-81.75-58.82-123.46-30.1-20.28 14-34.54 36.17-39.59 61.66-42.94 12.12-68.71 59.74-57.55 106.38a90.21 90.21 0 0 0 15.44 33.13c-28.72 11.35-43.53 45.84-33.08 77s42.21 47.28 70.93 35.93a57 57 0 0 0 29.85-28.1h1038v-9.21c45.21-5.12 78-49.07 73.33-98.16-3.89-40.58-32.59-73.15-69.74-79.15z" fill="#bbb579"/><path d="m1158.69 1179.64a66.6 66.6 0 0 0 -8.69.55v-.55c0-91.41-58.26-165.53-130.18-165.56-54.64 0-103.48 43.3-122.3 108.49-53.81-16.51-108.09 24.89-121.95 93-33.12-24.58-75.65-10.39-95 31.7s-8.18 96.15 24.94 120.73 75.48 10.46 94.89-31.46c38.63 51.42 102.75 53.31 143.22 4.21a125 125 0 0 0 11.87-17.23c36.89 26.61 81.65 28.75 120 5.73 16.28 58.4 66.72 89 112.66 68.28s70-84.78 53.73-143.18c-12.47-44.78-45.8-74.72-83.19-74.71z" fill="#617320"/><path d="m-3261 1282h4329v113h-4329z" fill="#617320"/><path d="m-3265 178c-3.06 96.85 6.07 312.6 6.07 312.6s0 21.4 7.87 34.24c0 0 27.56-8.56 35.43-25.68 0 0-7.87 47.07 0 59.91 0 0 35.43-30 39.37-47.07h43.3s-3.93 42.79 15.75 47.07c0 0 19.69-12.84 31.5-51.35 0 0 55.11-30 110.23-8.56 0 0 19.68 25.68 35.43 38.52 18.9 15.4 3.94-47.08 3.94-51.36s15.74 0 19.68 0 27.56 21.4 43.3 21.4c0 0-11.81 30-7.87 38.51 0 0 23.62-4.27 35.43-30 0 0 137.79 12.84 165.35-4.28 0 0 3.93 34.23 15.74 38.51 0 0 15.75-17.11 3.94-42.79 0 0 31.5 21.4 43.31 12.84s-19.69-42.79-23.62-42.79 27.55-17.12 35.43-30c0 0 43.3 42.79 51.18 30 0 0 11.81-17.12-7.88-42.8 0 0 31.24 8.87 31.24-4l34.59 25.6s0 21.4 7.87 34.24c0 0 27.56-8.56 35.43-25.68 0 0-7.87 47.07 0 59.91 0 0 35.44-30 39.37-47.07h43.31s-3.94 42.79 15.74 47.07c0 0 19.69-12.84 31.5-51.35 0 0 55.11-30 110.23-8.56 0 0 19.68 25.68 35.43 38.52 18.9 15.4 3.94-47.08 3.94-51.36s15.74 0 19.68 0 27.56 21.4 43.31 21.4c0 0-11.81 30-7.88 38.51 0 0 23.62-4.27 35.43-30 0 0 137.79 12.84 165.35-4.28 0 0 3.94 34.23 15.75 38.51 0 0 15.74-17.11 3.93-42.79 0 0 31.5 21.4 43.31 12.84s-19.69-42.79-23.62-42.79 27.56-17.12 35.43-30c0 0 43.3 42.79 51.18 30 0 0 11.81-17.12-7.88-42.8 0 0 31.5-4.28 31.5-17.12l25.5 2.15c-3 96.85 20.24 134 20.24 134s1.47 30 9.34 42.84c0 0 27.56-8.56 35.44-25.68 0 0-7.88 47.07 0 59.91 0 0 35.43-30 39.36-47.07h43.31s-3.94 42.79 15.75 47.07c0 0 19.68-12.84 31.49-51.35 0 0 55.12-30 110.23-8.56 0 0 19.68 25.68 35.43 38.52 18.9 15.4 3.94-47.08 3.94-51.36s15.75 0 19.68 0 27.56 21.4 43.31 21.4c0 0-11.81 30-7.88 38.51 0 0 23.62-4.27 35.44-30 0 0 137.78 12.84 165.34-4.28 0 0 3.94 34.23 15.75 38.51 0 0 15.75-17.11 3.94-42.79 0 0 31.49 21.4 43.3 12.84s-19.68-42.79-23.62-42.79 27.56-17.12 35.43-30c0 0 43.31 42.79 51.18 30 0 0 11.81-17.12-7.87-42.8 0 0 31.23 8.87 31.23-4l34.59 25.6s0 21.4 7.88 34.24c0 0 27.55-8.56 35.43-25.68 0 0-7.88 47.07 0 59.91 0 0 35.43-30 39.37-47.07h43.3s-3.94 42.79 15.75 47.07c0 0 19.68-12.84 31.49-51.35 0 0 55.12-30 110.23-8.56 0 0 19.69 25.68 35.43 38.52 18.9 15.4 3.94-47.08 3.94-51.36s15.75 0 19.68 0 27.56 21.4 43.31 21.4c0 0-11.81 30-7.87 38.51 0 0 23.62-4.27 35.43-30 0 0 137.79 12.84 165.34-4.28 0 0 3.94 34.23 15.75 38.51 0 0 15.75-17.11 3.94-42.79 0 0 31.49 21.4 43.3 12.84s-19.68-42.79-23.62-42.79 27.56-17.12 35.43-30c0 0 43.31 42.79 51.18 30 0 0 11.81-17.12-7.87-42.8 0 0 54.23-46.13 54.23-59l33.67 92.6s0 21.4 7.88 34.24c0 0 27.56-8.56 35.43-25.68 0 0-7.87 47.07 0 59.91 0 0 35.43-30 39.37-47.07h43.3s-3.94 42.79 15.75 47.07c0 0 19.68-12.84 31.49-51.35 0 0 55.12-30 110.23-8.56 0 0 19.69 25.68 35.44 38.52 18.89 15.4 3.93-47.08 3.93-51.36s15.75 0 19.69 0 27.55 21.4 43.3 21.4c0 0-11.81 30-7.87 38.51 0 0 23.62-4.27 35.43-30 0 0 137.79 12.84 165.34-4.28 0 0 3.94 34.23 15.75 38.51 0 0 15.75-17.11 3.94-42.79 0 0 31.49 21.4 43.3 12.84s-19.68-42.79-23.62-42.79 27.56-17.12 35.43-30c0 0 43.31 42.79 51.18 30 0 0 11.81-17.12-7.87-42.8 0 0 31.24 8.87 31.24-4l34.59 25.6s0 21.4 7.87 34.24c0 0 27.56-8.56 35.43-25.68 0 0-7.87 47.07 0 59.91 0 0 35.43-29.95 39.37-47.07h43.3s-3.93 42.79 15.75 47.07c0 0 19.68-12.84 31.5-51.35 0 0 55.11-30 110.23-8.56 0 0 19.68 25.68 35.43 38.52 18.88 15.77 3.88-46.71 3.88-50.99s15.75 0 19.69 0 27.56 21.4 43.3 21.4c0 0-11.81 30-7.87 38.51 0 0 23.62-4.27 35.43-30 0 0 137.79 12.84 165.35-4.28 0 0 3.93 34.23 15.74 38.51 0 0 15.75-17.11 3.94-42.79 0 0 31.49 21.4 43.31 12.84s-19.69-42.79-23.63-42.79 27.56-17.12 35.44-30c0 0 43.3 42.79 51.17 30 0 0 11.81-17.12-7.87-42.8 0 0 31.5-4.28 31.5-17.12l-3.5-220.8z" fill="#79864e"/><ellipse cx="-74.5" cy="1425.5" fill="#5b5434" rx="1006.5" ry="107.5"/><path d="m765.08 862.47 5.79-28.34c1.63-8 9.57-7.54 10.74.64l17.44 121.83c1.21 8.5 9.58 8.55 10.84.06l21.35-143.15c1.21-8.13 9.1-8.56 10.73-.58l11.55 56.59c1.57 7.67 9.07 7.67 10.63 0l38.62-189.21c1.05-5.15-1.61-10.31-5.32-10.31h-174.86c-3.71 0-6.37 5.16-5.32 10.31l37.18 182.16c1.55 7.67 9.07 7.67 10.63 0z" fill="#454547"/><path d="m923.28 1011.38 8-39.08c2.25-11 13.2-10.38 14.81.9l24 168c1.68 11.72 13.21 11.79 15 .09l29.43-197.38c1.67-11.22 12.55-11.81 14.8-.81l15.92 78c2.16 10.59 12.5 10.59 14.66 0l53.25-260.88c1.45-7.1-2.22-14.22-7.33-14.22h-241.13c-5.11 0-8.78 7.12-7.33 14.22l51.26 251.16c2.16 10.62 12.5 10.62 14.66 0z" fill="#454547"/><path d="m1100.08 1062.47 5.79-28.34c1.63-8 9.57-7.54 10.74.64l17.44 121.83c1.21 8.5 9.58 8.55 10.84.06l21.35-143.15c1.21-8.13 9.1-8.56 10.73-.58l11.55 56.59c1.57 7.67 9.07 7.67 10.63 0l38.62-189.21c1-5.15-1.61-10.31-5.32-10.31h-174.86c-3.71 0-6.37 5.16-5.32 10.31l37.18 182.16c1.55 7.67 9.07 7.67 10.63 0z" fill="#454547"/><path d="m1578.22 952.17-51.86 22.83a57.3 57.3 0 0 1 -22-4.17 75.9 75.9 0 0 0 -7.93-2.79l-27.31-7.73c-15.62-4.43-29.07-13.16-38.21-24.81-15.83-20.17-43.88-11.28-72.12-7.85l-57.11 6.93c-23.08 2.8-46.37-3.8-62.86-17.81l-4.15-3.52c-18.4-15.63-45.11-21.92-70.36-16.56l-68.65 14.59c-30.37 6.45-62.24-4-79.61-26.16l-42.83-54.58c-.33-.43-.66-.86-1-1.29-10.9-15.07-70.24-8.16-88.29-30.66-9.21-11.47-126.17-44.23-123-78.59l-14.58-8.33c-56.42 15.33-33-48.87-51.61-76.52-33.74-50.15 2.84-136.91 4.26-144.15 12-61 271.59-130.93 273-131 16-.85 293.9 88 311 88l633.09 317.93c27 0 48.91 18.61 48.91 41.56v34.15c0 23-21.9 41.55-48.91 41.55l-76 9.8a17.18 17.18 0 0 1 -6.47-.41c-9.22-2.41-27.66-11.94-39.66-11.94-55.41 0-57.81 4.19-75 46.74-6.67 16.5-42 11.89-55 17-4.13 1.62-17.16 7.27-21.44 8.57a49.62 49.62 0 0 1 -32.46-1.31 41.79 41.79 0 0 0 -31.84.53z" fill="#3d3d3f"/><path d="m1173.41 1297.09 14.94 2.29c10 1.54 16 6.53 13.59 11.47-4 8.17.55 11.59 9.88 18.9 46.74 36.61 376.18-13.75 481.18 65.25l-212-6h-1000l-37-12 98.58-41.22a145.51 145.51 0 0 1 57.76 1.2l15.58 3.66c21.35 5 46.44 4.67 67.16-.93 25.41-6.85 56.86-5.71 79.86 2.89l13 4.86c16 6 36.41 8.46 56.36 6.86l18.67-1.5c45.55-3.66 87.58-9 120.23-24.76a70.36 70.36 0 0 1 23.39-6l38.41-3.37c12.65-1.22 45.21-2.25 51.81-7.47 2.82-2.23 7-4 12.06-5l44.15-8.56a96.93 96.93 0 0 1 32.39-.57z" fill="#3d3d3f"/><path d="m786.67 1018.73s42.85 150.94 59.09 188.6c16.07 37.5 179.71 186.08 179.71 186.08s-12.61 11.45-26.44 17.73-41.47 0-41.47 0-128.38-150-139.79-182.16c-11.58-32.17-49.25-210.25-49.25-210.25z" fill="#6a543f"/><path d="m696.81 934.48c-21.42-9.41-49.76 48.32-49.76 48.32s13.13 0 25.92 1.1l16.03-24.32-9 24.95a94.23 94.23 0 0 1 12.44 2c2.94.78 8.64 3.45 15.56 7.06l9.67-9.41-3.8 12.55c23.67 12.55 56.33 32 56.33 32l-2.07-21.34c.22-.11-49.89-63.5-71.32-72.91z" fill="#628339"/><path d="m790.12 961.78 19 6.75c.86-.94 1.56-1.89 2.25-2.51 3.28-3.46 12.78-13.5 23.5-25.11l-23.5-3 29.72-3.61c18-19.45 37.15-40.32 37.15-40.32s-60.65 2.35-86.4 24.63-26.09 89.44-26.09 89.44l4.49 20.39s22.29-37 35.08-54.6z" fill="#417035"/><path d="m635 1026c-37.32 29.34-23.5 86.92-23.5 86.92l23.5-12.55 8.3-38 5.7 30.63 46.31-24.48-6.91-32.32 18 26.36 63.93-33.89-2.07-21.34c.09-.05-95.81-10.72-133.26 18.67z" fill="#417035"/><path d="m863.56 938.09 38.88 24.16c22.46-3.45 49.07-6.43 49.07-6.43s-53-35-91.23-30.6-99.36 84.57-99.36 84.57l9.5 19s30.24-18.36 58.41-35l-12.61-22.13 21.42 16.79c17.11-10 32.14-18.35 37.15-20.39a81.62 81.62 0 0 1 13.31-3.3z" fill="#628339"/><path d="m1020.46 1064.55s-52.19-54.13-90-71.08-162.08 13.81-162.08 13.81l2.07 21.34 70.85 10.2v-35.15l13.31 37.19 92.61 13.33-13.13-34.67 24.37 36.24z" fill="#417035"/><path d="m768.35 1007.28 2.07 21.34s39.06 28.55 68.09 51.62l16.76-16.32-10.72 21c8.64 6.9 15.9 13 20.39 17.25 7.78 7.54 21.26 22.13 34.56 36.88l10.72-37.66-1.56 47.85c17.11 19.15 32 36.4 32 36.4s24.36-67.3-19.7-114.37c-50.49-53.48-152.61-63.99-152.61-63.99z" fill="#628339"/><path d="m699.92 1037.56c-23 16.48-69.8 77-75.85 100.1-6.22 23.07 38.19 91.32 38.19 91.32s4.66-15.85 10.88-36.56l-27.82-42.2 32.31 27.45c2.25-7.37 4.5-15.22 6.92-22.75l-25.92-17.57 28.16 10.2c7.61-24.63 14.52-46 16.25-48.64a139.14 139.14 0 0 1 10-11.14l-14.52-12.39 20.05 6.58c20-21 52-53.18 52-53.18l-2.08-21.34c-.14-.16-45.58 13.65-68.57 30.12z" fill="#628339"/><g fill="#987555"><path d="m937 1387.13c-3.11-3.76-6.57-7.84-10.2-12.24l48.2-28.24c5.19 4.87 10 9.57 14.69 13.81z"/><path d="m922 1295c3.8 3.93 7.77 7.69 11.75 11.61l-48.21 17.58c-3.11-3.93-6.22-7.69-9.16-11.61z"/><path d="m867.88 1237.92c1.9 2 3.8 4.24 5.7 6.44l-28.16 28.08c-2.42-3.29-4.67-6.43-6.91-9.41z"/><path d="m809.65 1201.05c-1-3.92-2.07-8.16-3.11-12.55l29.37-7.85c1.39 3.77 2.6 7.38 3.81 10.83z"/><path d="m816.73 1121q2.09 6.6 4.15 13.18l-26.61 2.67c-.86-3.92-1.73-7.69-2.59-11.61z"/><path d="m800.66 1067.22c1.21 4.08 2.42 8.16 3.63 12.39l-22.12 3.3c-.69-3.46-1.55-6.91-2.24-10.36z"/></g><path d="m-81.87 1401h1151.3v255h-1151.3z" fill="#665c30"/><path d="m-83 1593 50 27 48-28 47 28 48-28 49 28 46-30 50 30 48-30 48 30 47-28 50 28 46-28 49 28 48-28 48 28 48-30 50 30 46-28 48 28 48-30 49 30 48-28 48 28 45-26v-37l-43 24-50-28-47 29-50-29-47 28-48-28-49 28-48-28-48 30-48-30-49 29-48-29-46 28-50-28-47 29-48-29-48 28-48-28-49 29-48-29-47 28-49-28-47 28-50-25z" fill="#5b5434"/><path d="m-83 1620 48 28 49-28 49 28 47-28 51 28 46-28 49 28 47-28 48 28 47-28 51 28 45-28 49 28 48-28 49 28 47-28 48 28 47-28 50 28 46-28 51 28 45-28 50 28 45-26-1 34h-1151z" fill="#5b5434"/><path d="m-82 1451 50 28 48-28 47 28 48-28 49 28 46-30 50 30 48-30 48 30 47-28 50 28 46-28 49 28 48-28 48 28 48-30 50 30 46-28 48 28 48-30 49 30 48-28 48 28 44-28v-38l-42 27-50-28-47 29-50-29-47 28-48-28-49 28-48-28-48 30-48-30-49 29-48-29-46 28-50-28-47 29-48-29-48 28-48-28-49 29-48-29-47 28-49-28-47 28-50-27z" fill="#5b5434"/><path d="m-82 1482 48 25 49-28 49 28 47-28 51 28 46-28 49 28 47-28 48 28 47-28 51 28 45-28 49 28 48-28 49 28 47-28 48 28 47-28 50 28 46-28 51 28 45-28 50 28 44-25v33h-1151z" fill="#5b5434"/><path d="m-83 1548 48-25 49 28 49-28 47 28 51-28 46 28 49-28 47 28 48-28 47 28 51-28 45 28 49-28 48 28 49-28 47 28 48-28 47 28 50-28 46 28 51-28 45 28 50-28 44 34v-42h-1151z" fill="#5b5434"/><path d="m451.15 1425h-.15a17.53 17.53 0 0 0 -.73-1.69c-.67-1.34-1.33-2.69-2-4-.1-.2-.2-.38-.29-.58-.18-.4-.4-.6-.68-.57h-4.43a1.54 1.54 0 0 0 -.3 0 .43.43 0 0 0 -.28.24c-.1.18-.2.37-.29.56s-.3.65-.45 1c-.61 1.23-1.22 2.45-1.82 3.67l-.33.64a1.06 1.06 0 0 1 -.17.23.21.21 0 0 1 -.34 0 1.46 1.46 0 0 1 -.17-.24c-.08-.15-.17-.32-.25-.49-.34-.67-.67-1.34-1-2-.09-.17-.17-.34-.25-.52-.36-.84-.77-1.61-1.16-2.4a3.9 3.9 0 0 0 -.19-.35c-.1-.18-.22-.3-.37-.31a4.07 4.07 0 0 0 -.5 0h-3.83c-.12 0-.24 0-.35 0s-.47.15-.64.52l-.18.36c-.3.6-.6 1.2-.89 1.8-.11.22-.21.44-.32.67-.18.39-.37.79-.56 1.17l-.6 1.23c-.09.17-.17.34-.25.52a2.18 2.18 0 0 0 -.17.61h-.21a7 7 0 0 0 -.44-1.1l-.72-1.45-1.6-3.24c-.08-.16-.17-.33-.25-.5-.26-.49-.35-.57-.73-.59h-4.46c-.25 0-.47.14-.64.51-.08.18-.17.34-.25.5-.7 1.42-1.4 2.83-2.11 4.25l-.31.66a8.18 8.18 0 0 0 -.38 1h-.2a2.57 2.57 0 0 0 -.18-.61c-.1-.23-.2-.45-.31-.66-.41-.85-.84-1.67-1.23-2.56a2.59 2.59 0 0 0 -.14-.29l-1-2c-.09-.16-.17-.33-.26-.48s-.23-.29-.37-.3a2.83 2.83 0 0 0 -.41 0h-4.33-.15a.5.5 0 0 0 -.28.23 1.18 1.18 0 0 0 -.11.19c-.37.75-.75 1.49-1.11 2.25-.2.44-.41.89-.62 1.32l-.83 1.65-.24.51a2.33 2.33 0 0 0 -.21.69h-.13a2 2 0 0 0 -.15-.52l-.27-.59-1.47-3c-.33-.67-.67-1.33-1-2a4.32 4.32 0 0 0 -.22-.43.52.52 0 0 0 -.37-.31h-.51-3.87-.46c-.16 0-.29.14-.41.35s-.17.33-.25.5l-1.61 3.24c-.09.19-.18.39-.28.59-.19.42-.39.84-.59 1.26a9.58 9.58 0 0 0 -.4.91h-.2a2.16 2.16 0 0 0 -.17-.62l-.24-.51c-.2-.41-.4-.82-.59-1.26-.08-.18-.16-.35-.25-.51-.52-1.06-1-2.12-1.57-3.17-.05-.1-.1-.19-.14-.29-.16-.33-.35-.51-.59-.51h-4.64-.15a.5.5 0 0 0 -.28.23c-.06.11-.13.22-.19.34-.28.57-.57 1.14-.84 1.75-.12.28-.26.54-.39.81-.42.86-.85 1.73-1.28 2.59-.1.19-.19.39-.28.59a1.65 1.65 0 0 0 -.14.53h-.2a5 5 0 0 0 -.39-1l-1.32-2.66c-.33-.67-.67-1.33-1-2-.09-.2-.19-.39-.29-.58a1.28 1.28 0 0 0 -.11-.2c-.11-.18-.23-.3-.37-.31h-.51-4.12c-.38 0-.46.09-.73.59l-.1.22-1.47 3-.21.44c-.23.54-.48 1-.73 1.55l-.27.6a2 2 0 0 0 -.14.53h-.24c-.06-.16-.12-.33-.19-.48-.31-.67-.61-1.35-.93-2s-.67-1.34-1-2l-.75-1.51c-.1-.2-.2-.38-.3-.56a.48.48 0 0 0 -.37-.3h-.51-4-.2c-.18 0-.33.13-.46.37l-.22.42-2.53 5.11-.21.44a2.44 2.44 0 0 0 -.16.52h-.17a2.49 2.49 0 0 0 -.18-.6c-.1-.23-.21-.45-.32-.67-.4-.81-.8-1.63-1.21-2.45l-.45-1-.81-1.67a1.75 1.75 0 0 0 -.16-.27.45.45 0 0 0 -.27-.23 3.73 3.73 0 0 0 -.46 0h-4.28-.15a.5.5 0 0 0 -.37.3l-.3.56-.89 1.8c-.11.21-.22.42-.32.65-.32.74-.67 1.43-1 2.12l-.36.73a2.66 2.66 0 0 0 -.2.69h-.27a1.89 1.89 0 0 0 -.13-.44c-.05-.13-.11-.26-.17-.38l-2.67-5.39c-.06-.12-.13-.23-.19-.34s-.23-.29-.37-.3h-.51-3.76c-.12 0-.24 0-.36 0s-.47.15-.64.52v.07c-.65 1.3-1.29 2.6-1.93 3.9v.07c-.24.57-.5 1.1-.76 1.62a5.66 5.66 0 0 0 -.3.7h-.21a2.4 2.4 0 0 0 -.14-.53c-.09-.2-.19-.4-.28-.59l-1-2c-.12-.24-.25-.48-.36-.73-.36-.84-.77-1.61-1.16-2.41-.07-.14-.15-.27-.23-.4a.45.45 0 0 0 -.27-.23 1.76 1.76 0 0 0 -.31 0h-4.25a1.76 1.76 0 0 0 -.31 0 .48.48 0 0 0 -.27.23l-.12.2c-.38.77-.77 1.52-1.14 2.31-.29.62-.58 1.23-.88 1.83l-.71 1.44a8 8 0 0 0 -.37.83h-.2a4.89 4.89 0 0 0 -.4-1c-.34-.7-.69-1.4-1-2.09-.47-.94-.93-1.88-1.4-2.81q-.16-.33-.33-.63c-.1-.16-.21-.26-.33-.27a2.92 2.92 0 0 0 -.51 0h-3.88a3.73 3.73 0 0 0 -.46 0 .45.45 0 0 0 -.32.27l-.33.62-1.65 3.33-.9 1.92-.06.16a2.13 2.13 0 0 0 -.14.54h-.2c-.1-.28-.22-.52-.33-.76-.45-.92-.91-1.83-1.34-2.77s-.9-1.83-1.36-2.74a3.72 3.72 0 0 0 -.19-.34.44.44 0 0 0 -.28-.23 1.54 1.54 0 0 0 -.3 0h-4.29a1.76 1.76 0 0 0 -.31 0 .47.47 0 0 0 -.27.24c-.1.18-.2.36-.29.56-.24.54-.49 1-.74 1.54-.54 1.11-1.09 2.21-1.64 3.32-.11.21-.21.43-.31.66a2 2 0 0 0 -.15.52h-.21a4.32 4.32 0 0 0 -.32-.9c-.09-.17-.17-.34-.25-.5-.61-1.23-1.22-2.45-1.82-3.67l-.57-1.17a2.31 2.31 0 0 0 -.18-.35.46.46 0 0 0 -.27-.25 5.27 5.27 0 0 0 -.56 0h-4a2.85 2.85 0 0 0 -.41 0 .48.48 0 0 0 -.28.22c-.06.11-.13.22-.19.34l-1.71 3.45c0 .08-.07.15-.1.23-.21.49-.44.94-.66 1.4-.1.19-.19.38-.28.58a2.25 2.25 0 0 0 -.17.62h-.31a2.25 2.25 0 0 0 -.16-.62c0-.08-.07-.15-.1-.23-.34-.66-.67-1.35-1-2.05l-.11-.22-1.47-3c-.08-.17-.17-.33-.26-.49a.45.45 0 0 0 -.32-.27 4.38 4.38 0 0 0 -.51 0h-3.87a2.32 2.32 0 0 0 -.46 0 .44.44 0 0 0 -.33.27l-.33.62c-.65 1.32-1.31 2.65-2 4-.26.53-.51 1.09-.76 1.64 0 .1-.08.22-.12.33h-.2a2 2 0 0 0 -.15-.52c-.09-.2-.19-.4-.28-.59-.49-1-1-2-1.46-3-.34-.68-.68-1.34-1-2a3.21 3.21 0 0 0 -.25-.49.48.48 0 0 0 -.28-.24 1.54 1.54 0 0 0 -.3 0h-4.28a1.55 1.55 0 0 0 -.31 0 .46.46 0 0 0 -.28.23l-.3.55-1.14 2.3c-.09.2-.19.39-.28.59-.2.46-.41.9-.63 1.33s-.35.72-.53 1.08a5.27 5.27 0 0 0 -.33.76h-.2a2.05 2.05 0 0 0 -.2-.7c-.26-.57-.52-1.15-.79-1.7l-1.86-3.76-.22-.41c-.1-.16-.21-.26-.33-.27a2.92 2.92 0 0 0 -.51 0h-3.87a2.32 2.32 0 0 0 -.46 0c-.12 0-.23.11-.33.27s-.2.36-.29.55c-.72 1.45-1.43 2.89-2.15 4.33-.26.54-.5 1.09-.73 1.69h-.2a2 2 0 0 0 -.14-.53l-.21-.45c-.34-.7-.69-1.39-1-2.09-.12-.24-.24-.47-.36-.73-.36-.84-.77-1.61-1.16-2.4l-.22-.41a.46.46 0 0 0 -.28-.23 1.55 1.55 0 0 0 -.31 0h-4.38a1.55 1.55 0 0 0 -.31 0 .48.48 0 0 0 -.28.24l-.15.26c-.19.39-.38.77-.56 1.17s-.4.84-.6 1.24l-1.35 2.74-.32.66a2 2 0 0 0 -.14.53h-.21a3.71 3.71 0 0 0 -.15-.4c-.2-.46-.4-.92-.62-1.35-.72-1.48-1.45-2.94-2.18-4.41-.07-.14-.14-.28-.22-.41a.45.45 0 0 0 -.32-.27 2.92 2.92 0 0 0 -.51 0h-3.88a3.57 3.57 0 0 0 -.46 0 .45.45 0 0 0 -.32.27 6.25 6.25 0 0 0 -.33.63c-.48 1-1 1.92-1.43 2.89-.38.77-.75 1.56-1.12 2.35a.59.59 0 0 0 0 .08 2.25 2.25 0 0 0 -.16.62h-.3a3 3 0 0 0 -.24-.76l-.72-1.44c-.19-.39-.38-.76-.56-1.17-.44-1-.92-1.89-1.38-2.83a4 4 0 0 0 -.22-.41.46.46 0 0 0 -.28-.23 4.38 4.38 0 0 0 -.51 0h-4.17a.64.64 0 0 0 -.2 0 .49.49 0 0 0 -.28.24 4.13 4.13 0 0 0 -.22.42c-.22.51-.46 1-.7 1.47l-1.6 3.24-.31.66a3.88 3.88 0 0 0 -.3.81h-.21a2.55 2.55 0 0 0 -.12-.44c-.06-.13-.11-.25-.17-.37l-2.68-5.4-.18-.34c-.11-.18-.23-.29-.37-.3h-.56-4.1-.21a.48.48 0 0 0 -.27.23 4 4 0 0 0 -.23.41c-.61 1.22-1.22 2.43-1.82 3.67-.31.65-.62 1.33-.94 2-.08.17-.15.37-.22.55h-.21a2.09 2.09 0 0 0 -.17-.61c-.1-.23-.21-.45-.31-.67-.25-.51-.51-1-.75-1.53-.54-1.2-1.13-2.32-1.7-3.49l-.15-.27a.48.48 0 0 0 -.32-.27 2.85 2.85 0 0 0 -.41 0h-4.08-.36c-.14 0-.26.14-.36.33l-.15.28-2.43 4.9a8.15 8.15 0 0 0 -.55 1.34h-.2a6 6 0 0 0 -.43-1.11l-2-4c-.19-.38-.37-.78-.56-1.17l-.18-.35a.46.46 0 0 0 -.27-.25 1.65 1.65 0 0 0 -.31 0h-4.31a1.76 1.76 0 0 0 -.31 0 .47.47 0 0 0 -.27.24l-.12.19c-.32.65-.65 1.29-1 2s-.51 1.09-.77 1.61-.57 1.15-.85 1.73c-.1.19-.19.39-.28.59a1.65 1.65 0 0 0 -.14.53h-.21a7.89 7.89 0 0 0 -.47-1.06c-.21-.43-.43-.86-.63-1.33l-.24-.51c-.53-1.06-1-2.12-1.57-3.18-.08-.14-.15-.28-.22-.42s-.26-.34-.42-.35a5.12 5.12 0 0 0 -.56 0h-3.93c-.46 0-.52.06-.85.72l-2.37 4.75c-.12.25-.23.5-.33.77a3 3 0 0 0 -.15.64h-.3a4.32 4.32 0 0 0 -.32-.9l-.33-.65c-.73-1.5-1.49-2.94-2.19-4.49-.09-.2-.19-.38-.29-.56a.48.48 0 0 0 -.28-.24 1.54 1.54 0 0 0 -.3 0h-4.33a1.54 1.54 0 0 0 -.3 0 .46.46 0 0 0 -.28.24l-.15.26c-.17.34-.33.68-.49 1s-.32.69-.49 1l-1.53 3.1-.31.66a2 2 0 0 0 -.15.52h-.21a3.21 3.21 0 0 0 -.12-.33c-.21-.48-.42-1-.65-1.42-.72-1.48-1.45-2.94-2.18-4.4-.07-.15-.15-.28-.22-.42s-.2-.26-.33-.27a2.92 2.92 0 0 0 -.51 0h-3.87a2.32 2.32 0 0 0 -.46 0 .49.49 0 0 0 -.33.27l-.36.7c-.64 1.28-1.27 2.55-1.9 3.83-.27.55-.53 1.14-.79 1.71a3.21 3.21 0 0 0 -.12.33h-.2a2.45 2.45 0 0 0 -.15-.52c-.11-.23-.21-.45-.32-.67l-1.35-2.73c-.2-.41-.39-.84-.59-1.25l-.57-1.16a1.73 1.73 0 0 0 -.15-.27.46.46 0 0 0 -.28-.24 1.54 1.54 0 0 0 -.3 0h-4.32a1.55 1.55 0 0 0 -.31 0 .56.56 0 0 0 -.28.24 5.46 5.46 0 0 0 -.32.64c-.18.39-.37.79-.56 1.17l-1.74 3.53-.18.36a5 5 0 0 0 -.33.9h-.3a2.18 2.18 0 0 0 -.17-.72c-.1-.23-.21-.46-.31-.67-.35-.7-.7-1.4-1-2.1s-.81-1.63-1.22-2.45c-.1-.21-.22-.42-.33-.63a.45.45 0 0 0 -.32-.27 4.38 4.38 0 0 0 -.51 0h-3.83a3.55 3.55 0 0 0 -.46 0 .51.51 0 0 0 -.37.29c-.08.14-.15.28-.22.42-.21.41-.41.82-.61 1.23s-.41.81-.6 1.23c-.26.59-.53 1.14-.81 1.69s-.4.82-.61 1.23a7.56 7.56 0 0 0 -.33.76h-.21a1.65 1.65 0 0 0 -.14-.53c-.09-.2-.18-.4-.28-.59-.35-.72-.71-1.44-1.07-2.17-.13-.26-.26-.52-.39-.8-.33-.77-.7-1.47-1-2.19a2.63 2.63 0 0 0 -.2-.33c-.08-.13-.17-.22-.27-.23a4.38 4.38 0 0 0 -.51 0h-4.19a.84.84 0 0 0 -.2 0 .4.4 0 0 0 -.23.19c-.1.17-.21.35-.3.54-.84 1.68-1.67 3.37-2.51 5a6.27 6.27 0 0 0 -.4 1h-.2a9.73 9.73 0 0 0 -.51-1.26l-.9-1.8c-.47-1-1-1.92-1.43-2.88a6.25 6.25 0 0 0 -.33-.63.48.48 0 0 0 -.32-.27 4.38 4.38 0 0 0 -.51 0h-3.92a3.42 3.42 0 0 0 -.46 0 .41.41 0 0 0 -.28.23 1.64 1.64 0 0 0 -.16.26l-.67 1.38-.59 1.26c-.43.87-.86 1.73-1.28 2.6-.1.19-.19.39-.28.59a1.87 1.87 0 0 0 -.15.52h-.21c-.07-.18-.14-.38-.22-.55-.42-.84-.82-1.71-1.23-2.56-.48-1-1-2-1.47-3l-.11-.22c-.26-.5-.34-.57-.72-.59h-4.14a3.57 3.57 0 0 0 -.46 0 .47.47 0 0 0 -.32.28c-.11.2-.23.41-.33.62-.82 1.64-1.63 3.27-2.44 4.91l-.24.51a2.44 2.44 0 0 0 -.16.52h-.2a2.64 2.64 0 0 0 -.19-.6l-.28-.58c-.58-1.18-1.16-2.35-1.75-3.53-.23-.48-.47-1-.7-1.46a2.78 2.78 0 0 0 -.22-.42.46.46 0 0 0 -.27-.25 1.54 1.54 0 0 0 -.3 0h-4.33a1.54 1.54 0 0 0 -.3 0 .47.47 0 0 0 -.28.23 2.34 2.34 0 0 0 -.15.27c-.22.43-.43.85-.64 1.31s-.48 1-.73 1.53l-.86 1.72c-.16.32-.31.63-.46 1a4.49 4.49 0 0 0 -.28.83h-.31a2 2 0 0 0 -.17-.62 1.47 1.47 0 0 0 -.1-.22c-.33-.67-.66-1.35-1-2.06 0-.08-.07-.15-.1-.22l-1.47-3-.22-.42c-.12-.21-.25-.34-.41-.35h-.51-4c-.38 0-.46.09-.73.59l-.21.43-.72 1.45c-.34.7-.69 1.38-1 2.12-.09.21-.19.39-.29.59l-.5 1a5.5 5.5 0 0 0 -.29.69h-.21a1.72 1.72 0 0 0 -.14-.53c-.1-.22-.21-.44-.32-.66l-1.35-2.73c-.25-.5-.5-1-.73-1.54-.13-.28-.26-.54-.39-.8l-.15-.27a.56.56 0 0 0 -.37-.32 2.69 2.69 0 0 0 -.4 0h-4a2.83 2.83 0 0 0 -.41 0c-.14 0-.26.13-.36.31a3.48 3.48 0 0 0 -.22.43c-.31.72-.65 1.37-1 2l-1.5 3a4.69 4.69 0 0 0 -.4 1h-.2c-.06-.16-.12-.33-.19-.48-.23-.5-.45-1-.69-1.49-.68-1.4-1.38-2.79-2.07-4.18l-.18-.35c-.12-.21-.26-.34-.41-.35h-.51-3.85a3.73 3.73 0 0 0 -.46 0c-.1 0-.19.1-.28.22s-.1.17-.15.27c-.31.62-.62 1.24-.92 1.88s-.51 1.09-.77 1.62-.6 1.2-.89 1.8c-.09.17-.17.35-.25.52a2 2 0 0 0 -.14.53h-.31a2.59 2.59 0 0 0 -.21-.68c-.08-.18-.16-.35-.25-.51l-1.32-2.67c-.16-.34-.32-.69-.49-1s-.47-1-.7-1.46a2.26 2.26 0 0 0 -.16-.26.41.41 0 0 0 -.28-.23 4.38 4.38 0 0 0 -.5 0h-3.88a3.73 3.73 0 0 0 -.46 0 .48.48 0 0 0 -.32.27c-.09.16-.18.32-.26.49-.74 1.49-1.48 3-2.21 4.47-.16.31-.3.65-.44 1a2.23 2.23 0 0 0 -.16.63h-.3c-.05-.14-.1-.28-.15-.4-.29-.62-.58-1.25-.87-1.85-.63-1.29-1.26-2.56-1.89-3.83-.08-.14-.15-.28-.22-.42s-.26-.34-.42-.35h-.51-3.82a3.73 3.73 0 0 0 -.46 0c-.1 0-.19.1-.28.22a1.28 1.28 0 0 0 -.11.2c-.35.69-.7 1.37-1 2.1-.19.4-.37.79-.56 1.18-.29.58-.58 1.14-.86 1.72-.13.27-.26.54-.38.81a2.57 2.57 0 0 0 -.18.61h-.34a2.09 2.09 0 0 0 -.17-.61c-.08-.18-.16-.35-.25-.52l-.83-1.59c-.13-.27-.27-.53-.39-.81-.4-.91-.84-1.75-1.27-2.62a3.81 3.81 0 0 0 -.23-.4c-.08-.14-.17-.22-.27-.23a4.38 4.38 0 0 0 -.51 0h-3.82-.46c-.16 0-.29.14-.41.35l-.25.5-1.83 3.67c-.05.12-.11.24-.17.37l-.66 1.41a3.94 3.94 0 0 0 -.22.55h-.2a2.44 2.44 0 0 0 -.16-.52l-.24-.52-.86-1.72c-.53-1.06-1-2.12-1.58-3.17l-.25-.5c-.14-.27-.3-.42-.5-.43h-.51-3.77a3.42 3.42 0 0 0 -.46 0 .43.43 0 0 0 -.28.23 1.61 1.61 0 0 0 -.15.26c-.21.41-.41.82-.6 1.24s-.33.69-.49 1l-.72 1.44c-.27.56-.54 1.11-.82 1.66a4.88 4.88 0 0 0 -.36 1h-.3a2 2 0 0 0 -.14-.53c-.11-.25-.23-.5-.35-.74-.41-.84-.84-1.66-1.23-2.56 0-.1-.09-.19-.14-.29l-1-2c-.09-.16-.17-.33-.26-.48s-.23-.29-.37-.3h-.51-4c-.38 0-.46.09-.72.59l-.18.36c-.27.56-.55 1.11-.82 1.66-.11.22-.22.44-.32.66-.21.49-.43.95-.66 1.4l-.56 1.25-.24.52a1.65 1.65 0 0 0 -.14.53h-.31a4.93 4.93 0 0 0 -.43-1.12c-.58-1.17-1.17-2.35-1.75-3.53-.25-.5-.5-1-.74-1.54a3.36 3.36 0 0 0 -.22-.42c-.08-.13-.17-.22-.27-.23a4.38 4.38 0 0 0 -.51 0h-3.88-.41c-.15 0-.29.14-.41.35l-.22.42-2.43 4.91-.21.44a2 2 0 0 0 -.15.73h-.31c-.08-.18-.14-.38-.23-.55-.42-.83-.82-1.71-1.23-2.56-.48-1-1-2-1.46-3l-.18-.36c-.15-.31-.34-.44-.55-.44h-4.13-.46a.58.58 0 0 0 -.46.37c-.08.16-.17.32-.25.49-.27.53-.53 1.06-.79 1.59l-.42.88c-.19.39-.37.79-.56 1.18l-.64 1.29-.21.45a2.09 2.09 0 0 0 -.17.61h-.31a2.49 2.49 0 0 0 -.18-.6c-.09-.2-.19-.4-.28-.59-.47-.94-.93-1.87-1.39-2.81-.28-.55-.56-1.1-.81-1.69-.1-.23-.21-.43-.32-.65a1.28 1.28 0 0 0 -.11-.2c-.11-.18-.23-.3-.37-.31h-.51-4.08-.2a.53.53 0 0 0 -.32.28c-.13.22-.25.46-.37.7q-1.05 2.11-2.11 4.25-.29.57-.54 1.2c-.06.13-.1.27-.15.41h-.31a2.31 2.31 0 0 0 -.19-.7c-.28-.59-.55-1.19-.83-1.77-.6-1.21-1.19-2.41-1.79-3.61-.07-.14-.14-.28-.22-.42s-.25-.34-.41-.35h-.51-4.08-.2a.46.46 0 0 0 -.28.23 3 3 0 0 0 -.15.26c-.31.63-.63 1.24-.92 1.88s-.51 1.09-.78 1.62-.54 1.1-.82 1.65l-.24.51a2.33 2.33 0 0 0 -.21.69h-.31a2 2 0 0 0 -.15-.52c-.09-.2-.18-.4-.28-.59-.76-1.57-1.55-3.08-2.28-4.7-.12-.25-.24-.48-.37-.71a.52.52 0 0 0 -.41-.34h-.51-2.33v-44.13h575.5v44.12h-1.57a2.83 2.83 0 0 0 -.41 0 .49.49 0 0 0 -.32.26l-.12.2c-.32.64-.64 1.28-.95 1.94s-.48 1-.73 1.54-.6 1.19-.89 1.79c-.08.17-.17.34-.24.52a2.36 2.36 0 0 0 -.18.6h-.21a2 2 0 0 0 -.15-.52c-.09-.2-.19-.39-.28-.59-.48-1-.95-1.93-1.43-2.9-.27-.55-.55-1.1-.8-1.69-.09-.2-.19-.39-.28-.59-.18-.39-.4-.61-.68-.59-.1 0-.2 0-.3 0h-4.24a1.2 1.2 0 0 0 -.2 0 .46.46 0 0 0 -.28.24c-.09.15-.18.31-.26.47q-1.26 2.54-2.5 5.07a3.9 3.9 0 0 1 -.19.35c-.19.33-.39.34-.6 0a3.55 3.55 0 0 1 -.29-.55c-.13-.28-.25-.56-.38-.82-.66-1.33-1.31-2.65-2-4l-.18-.36c-.16-.34-.36-.48-.6-.48h-4.59a.65.65 0 0 0 -.2 0 .37.37 0 0 0 -.23.2 1.64 1.64 0 0 0 -.16.26l-.6 1.23c-.12.25-.23.51-.35.75-.52 1.06-1.05 2.12-1.57 3.17-.09.17-.17.34-.26.49a1 1 0 0 1 -.17.22.19.19 0 0 1 -.3 0 1 1 0 0 1 -.16-.22c-.09-.16-.18-.32-.26-.49-.42-.84-.84-1.68-1.25-2.53-.09-.16-.17-.33-.25-.51-.3-.7-.63-1.33-.95-2l-.15-.27a.54.54 0 0 0 -.42-.34h-.4-4.19c-.4 0-.48.07-.76.65-.57 1.16-1.16 2.28-1.7 3.5-.09.21-.19.4-.28.59l-.54 1.09-.24.52a2 2 0 0 0 -.11.68z" fill="#75a040"/><path d="m1026.58 1425h-.2a17.53 17.53 0 0 0 -.73-1.69l-2-4c-.09-.2-.19-.38-.28-.58-.19-.4-.41-.6-.68-.57h-4.45a1.54 1.54 0 0 0 -.3 0 .43.43 0 0 0 -.28.24c-.1.18-.2.37-.29.56l-.45 1-1.83 3.67c-.1.22-.21.43-.33.64a1 1 0 0 1 -.16.23.21.21 0 0 1 -.34 0 1.46 1.46 0 0 1 -.17-.24c-.09-.15-.17-.32-.26-.49l-1-2c-.08-.17-.17-.34-.24-.52-.37-.84-.78-1.61-1.17-2.4a3.9 3.9 0 0 0 -.19-.35c-.1-.18-.22-.3-.36-.31h-.51-3.83c-.12 0-.24 0-.36 0s-.47.15-.64.52l-.18.36-.9 1.8-.31.67c-.19.39-.37.79-.56 1.17s-.4.82-.61 1.23l-.24.52a2.18 2.18 0 0 0 -.17.61h-.21a5.49 5.49 0 0 0 -.44-1.1c-.23-.49-.47-1-.71-1.45l-1.61-3.24c-.08-.16-.17-.33-.25-.5-.26-.49-.35-.57-.73-.59h-4.43c-.25 0-.47.14-.64.51-.08.18-.17.34-.25.5-.7 1.42-1.41 2.83-2.11 4.25-.11.22-.21.44-.31.66a6.72 6.72 0 0 0 -.38 1h-.21a2.18 2.18 0 0 0 -.17-.61c-.1-.23-.21-.45-.31-.66-.42-.85-.85-1.67-1.24-2.56a2.59 2.59 0 0 0 -.14-.29l-1-2c-.09-.16-.17-.33-.26-.48s-.23-.29-.37-.3a2.83 2.83 0 0 0 -.41 0h-4.34-.15a.5.5 0 0 0 -.28.23 1.18 1.18 0 0 0 -.11.19c-.37.75-.75 1.49-1.11 2.25-.21.44-.41.89-.63 1.32l-.82 1.65-.25.51a3.11 3.11 0 0 0 -.21.69h-.2a2 2 0 0 0 -.15-.52c-.09-.2-.19-.4-.28-.59l-1.47-3c-.33-.67-.67-1.33-1-2a4.32 4.32 0 0 0 -.22-.43.52.52 0 0 0 -.37-.31h-.51-3.88-.46c-.16 0-.29.14-.41.35s-.17.33-.25.5c-.54 1.08-1.08 2.16-1.61 3.24-.1.19-.19.39-.28.59l-.59 1.26a7.57 7.57 0 0 0 -.4.91h-.21a2.16 2.16 0 0 0 -.16-.62c-.08-.18-.16-.35-.25-.51-.2-.41-.4-.82-.59-1.26-.08-.18-.16-.35-.25-.51-.52-1.06-1-2.12-1.57-3.17 0-.1-.1-.19-.14-.29-.16-.33-.36-.51-.59-.51h-4.64-.15a.5.5 0 0 0 -.28.23c-.06.11-.13.22-.19.34-.29.57-.58 1.14-.84 1.75l-.39.81-1.29 2.59c-.09.19-.19.39-.28.59a2 2 0 0 0 -.14.53h-.21a4.49 4.49 0 0 0 -.39-1l-1.32-2.66c-.33-.67-.67-1.33-1-2-.09-.2-.19-.39-.29-.58a1.28 1.28 0 0 0 -.11-.2c-.11-.18-.23-.3-.37-.31h-.51-4.13c-.39 0-.47.09-.73.59l-.11.22c-.48 1-1 2-1.46 3-.07.14-.15.29-.21.44-.23.54-.48 1-.73 1.55-.1.19-.19.39-.28.6a2.4 2.4 0 0 0 -.14.53h-.2c-.06-.16-.12-.33-.19-.48-.3-.67-.61-1.35-.93-2l-1-2-.75-1.51c-.09-.2-.19-.38-.29-.56s-.23-.29-.37-.3h-.51-4-.2c-.18 0-.33.13-.46.37s-.15.28-.22.42c-.85 1.7-1.7 3.41-2.54 5.11l-.21.44a2 2 0 0 0 -.15.52h-.21a2.49 2.49 0 0 0 -.18-.6c-.1-.23-.21-.45-.32-.67-.4-.81-.81-1.63-1.21-2.45l-.45-1c-.27-.56-.54-1.12-.82-1.67a1.73 1.73 0 0 0 -.15-.27.46.46 0 0 0 -.28-.23 3.57 3.57 0 0 0 -.46 0h-4.28-.16a.52.52 0 0 0 -.37.3c-.1.18-.19.37-.29.56-.3.59-.6 1.2-.89 1.8-.11.21-.22.42-.32.65-.32.74-.68 1.43-1 2.12l-.36.73a2.66 2.66 0 0 0 -.2.69h-.2a1.89 1.89 0 0 0 -.13-.44c0-.13-.11-.26-.17-.38q-1.34-2.68-2.68-5.39a3.72 3.72 0 0 0 -.19-.34.5.5 0 0 0 -.37-.3h-.51-3.77c-.12 0-.24 0-.35 0s-.47.15-.64.52a.43.43 0 0 1 0 .07l-1.92 3.9a.25.25 0 0 0 0 .07c-.24.57-.5 1.1-.76 1.62a5.66 5.66 0 0 0 -.3.7h-.2a2.4 2.4 0 0 0 -.14-.53c-.09-.2-.19-.4-.28-.59l-1-2c-.12-.24-.24-.48-.35-.73-.37-.84-.77-1.61-1.17-2.41-.07-.14-.14-.27-.22-.4a.46.46 0 0 0 -.28-.23 1.55 1.55 0 0 0 -.31 0h-4.34a1.54 1.54 0 0 0 -.3 0 .5.5 0 0 0 -.28.23l-.12.2c-.38.77-.77 1.52-1.14 2.31-.29.62-.58 1.23-.88 1.83l-.71 1.44a8 8 0 0 0 -.38.83h-.1a4.89 4.89 0 0 0 -.4-1c-.35-.7-.69-1.4-1-2.09-.46-.94-.93-1.88-1.4-2.81l-.33-.63a.45.45 0 0 0 -.33-.27 2.92 2.92 0 0 0 -.51 0h-3.88a3.42 3.42 0 0 0 -.46 0c-.12 0-.23.11-.33.27l-.33.62c-.55 1.11-1.1 2.21-1.65 3.33-.3.63-.6 1.28-.9 1.92l-.07.16a2.67 2.67 0 0 0 -.13.54h-.2a6.68 6.68 0 0 0 -.34-.76c-.45-.92-.9-1.83-1.34-2.77s-.9-1.83-1.36-2.74a2.27 2.27 0 0 0 -.19-.34.45.45 0 0 0 -.27-.23 1.76 1.76 0 0 0 -.31 0h-4.34a1.54 1.54 0 0 0 -.3 0 .46.46 0 0 0 -.28.24c-.1.18-.2.36-.29.56-.23.54-.49 1-.74 1.54-.54 1.11-1.09 2.21-1.64 3.32-.11.21-.21.43-.32.66a2 2 0 0 0 -.15.52h-.2a4.32 4.32 0 0 0 -.33-.9c-.08-.17-.16-.34-.25-.5-.61-1.23-1.21-2.45-1.82-3.67-.19-.39-.38-.78-.56-1.17a3.9 3.9 0 0 0 -.19-.35.43.43 0 0 0 -.27-.25 5.27 5.27 0 0 0 -.56 0h-4a3 3 0 0 0 -.41 0 .46.46 0 0 0 -.27.22 3.79 3.79 0 0 0 -.2.34l-1.71 3.45a2.29 2.29 0 0 0 -.1.23c-.21.49-.44.94-.67 1.4-.09.19-.19.38-.28.58a2.25 2.25 0 0 0 -.16.62h-.31a2.25 2.25 0 0 0 -.17-.62 2.29 2.29 0 0 0 -.1-.23c-.34-.66-.66-1.35-1-2.05a1.51 1.51 0 0 0 -.11-.22c-.49-1-1-2-1.46-3l-.26-.49c-.1-.16-.21-.26-.33-.27a4.38 4.38 0 0 0 -.51 0h-3.88a2.38 2.38 0 0 0 -.46 0q-.18 0-.33.27l-.33.62c-.66 1.32-1.31 2.65-2 4-.26.53-.51 1.09-.76 1.64a3.21 3.21 0 0 0 -.12.33h-.21a2 2 0 0 0 -.15-.52c-.09-.2-.18-.4-.28-.59-.48-1-1-2-1.46-3-.33-.68-.68-1.34-1-2a3.21 3.21 0 0 0 -.25-.49.48.48 0 0 0 -.28-.24 1.55 1.55 0 0 0 -.31 0h-4.33a1.65 1.65 0 0 0 -.31 0 .46.46 0 0 0 -.28.23l-.3.55-1.14 2.3c-.1.2-.19.39-.28.59-.2.46-.41.9-.63 1.33l-.54 1.08a6.68 6.68 0 0 0 -.33.76h-.2a2.3 2.3 0 0 0 -.2-.7c-.27-.57-.53-1.15-.8-1.7l-1.86-3.76c-.07-.14-.15-.28-.23-.41a.45.45 0 0 0 -.32-.27 2.92 2.92 0 0 0 -.51 0h-3.88a2.32 2.32 0 0 0 -.46 0c-.12 0-.23.11-.33.27s-.2.36-.29.55q-1.08 2.18-2.15 4.33c-.26.54-.51 1.09-.73 1.69h-.21a1.65 1.65 0 0 0 -.14-.53c-.07-.15-.13-.3-.21-.45-.34-.7-.69-1.39-1-2.09-.12-.24-.24-.47-.35-.73-.37-.84-.78-1.61-1.17-2.4-.07-.14-.15-.28-.23-.41a.45.45 0 0 0 -.27-.23 1.76 1.76 0 0 0 -.31 0h-4.34a1.54 1.54 0 0 0 -.3 0 .48.48 0 0 0 -.28.24l-.15.26-.57 1.17c-.2.41-.39.84-.59 1.24-.45.92-.91 1.83-1.36 2.74-.11.22-.21.44-.31.66a2 2 0 0 0 -.15.53h-.2c-.06-.14-.1-.28-.16-.4-.2-.46-.4-.92-.61-1.35l-2.19-4.41-.22-.41c-.1-.16-.21-.26-.33-.27a2.92 2.92 0 0 0 -.51 0h-3.88a3.57 3.57 0 0 0 -.46 0 .45.45 0 0 0 -.32.27c-.12.2-.23.41-.34.63-.48 1-1 1.92-1.43 2.89-.38.77-.75 1.56-1.12 2.35v.08a2.25 2.25 0 0 0 -.17.62h-.3a2.61 2.61 0 0 0 -.24-.76l-.72-1.44c-.19-.39-.38-.76-.56-1.17-.44-1-.92-1.89-1.38-2.83a4 4 0 0 0 -.23-.41.45.45 0 0 0 -.27-.23 4.38 4.38 0 0 0 -.51 0h-4.26-.21a.51.51 0 0 0 -.27.24 2.78 2.78 0 0 0 -.22.42c-.22.51-.46 1-.7 1.47l-1.61 3.24-.31.66a5.47 5.47 0 0 0 -.3.81h-.21a2.55 2.55 0 0 0 -.12-.44c-.06-.13-.11-.25-.17-.37l-2.68-5.4a3.72 3.72 0 0 0 -.19-.34.5.5 0 0 0 -.37-.3 5.25 5.25 0 0 0 -.56 0h-4.08-.2a.5.5 0 0 0 -.28.23 4 4 0 0 0 -.22.41c-.61 1.22-1.23 2.43-1.82 3.67-.32.65-.63 1.33-1 2-.08.17-.15.37-.22.55h-.21a2.09 2.09 0 0 0 -.17-.61c-.1-.23-.21-.45-.31-.67-.25-.51-.51-1-.75-1.53-.54-1.2-1.14-2.32-1.7-3.49 0-.09-.1-.18-.16-.27a.48.48 0 0 0 -.32-.27 2.71 2.71 0 0 0 -.41 0h-4.09a2 2 0 0 0 -.35 0 .54.54 0 0 0 -.37.33l-.15.28-2.43 4.9a8.15 8.15 0 0 0 -.55 1.34h-.2a6.77 6.77 0 0 0 -.43-1.11c-.66-1.32-1.32-2.64-2-4-.19-.38-.38-.78-.56-1.17l-.18-.35a.44.44 0 0 0 -.28-.25 1.54 1.54 0 0 0 -.3 0h-4.34a1.54 1.54 0 0 0 -.3 0 .48.48 0 0 0 -.28.24 1.18 1.18 0 0 0 -.11.19c-.33.65-.65 1.29-1 2s-.51 1.09-.78 1.61-.57 1.15-.85 1.73c-.1.19-.19.39-.28.59a1.65 1.65 0 0 0 -.14.53h-.21a9.4 9.4 0 0 0 -.47-1.06c-.22-.43-.43-.86-.63-1.33-.08-.17-.16-.34-.25-.51l-1.57-3.18-.22-.42c-.12-.22-.26-.34-.41-.35h-.57-3.93c-.47 0-.53.06-.86.72l-2.37 4.75c-.12.25-.23.5-.33.77a3 3 0 0 0 -.15.64h-.31a4.32 4.32 0 0 0 -.32-.9c-.1-.22-.21-.43-.32-.65-.73-1.5-1.49-2.94-2.2-4.49-.09-.2-.19-.38-.29-.56a.46.46 0 0 0 -.28-.24 1.54 1.54 0 0 0 -.3 0h-4.27a1.55 1.55 0 0 0 -.31 0 .51.51 0 0 0 -.28.24l-.15.26c-.16.34-.33.68-.49 1s-.32.69-.49 1l-1.53 3.1c-.11.22-.21.44-.31.66a2.44 2.44 0 0 0 -.16.52h-.2a3.21 3.21 0 0 0 -.12-.33c-.21-.48-.43-1-.65-1.42-.73-1.48-1.46-2.94-2.19-4.4-.07-.15-.14-.28-.22-.42a.45.45 0 0 0 -.33-.27 2.92 2.92 0 0 0 -.51 0h-3.88a2.38 2.38 0 0 0 -.46 0 .48.48 0 0 0 -.32.27c-.13.23-.25.46-.37.7-.64 1.28-1.27 2.55-1.9 3.83-.27.55-.53 1.14-.8 1.71a3.19 3.19 0 0 0 -.11.33h-.22a2 2 0 0 0 -.15-.52c-.1-.23-.2-.45-.31-.67l-1.36-2.73c-.2-.41-.39-.84-.59-1.25l-.57-1.16a1.73 1.73 0 0 0 -.15-.27.46.46 0 0 0 -.28-.24 1.54 1.54 0 0 0 -.3 0h-4.29a1.65 1.65 0 0 0 -.31 0 .51.51 0 0 0 -.27.24 4.28 4.28 0 0 0 -.33.64c-.18.39-.37.79-.56 1.17-.58 1.18-1.16 2.35-1.75 3.53l-.18.36a4.32 4.32 0 0 0 -.32.9h-.28a2.18 2.18 0 0 0 -.17-.72c-.1-.23-.2-.46-.31-.67-.34-.7-.69-1.4-1-2.1l-1.22-2.45c-.1-.21-.22-.42-.33-.63a.45.45 0 0 0 -.32-.27 4.38 4.38 0 0 0 -.51 0h-3.84-.46a.51.51 0 0 0 -.37.29c-.08.14-.15.28-.22.42-.21.41-.41.82-.61 1.23s-.41.81-.6 1.23c-.26.59-.54 1.14-.81 1.69s-.41.82-.61 1.23a7.58 7.58 0 0 0 -.34.76h-.28a2.4 2.4 0 0 0 -.14-.53c-.1-.2-.19-.4-.28-.59l-1.08-2.17c-.13-.26-.26-.52-.38-.8-.34-.77-.71-1.47-1.07-2.19a2.59 2.59 0 0 0 -.19-.33.41.41 0 0 0 -.28-.23 4.38 4.38 0 0 0 -.51 0h-4.19a.84.84 0 0 0 -.2 0 .37.37 0 0 0 -.23.19 4.68 4.68 0 0 0 -.3.54c-.84 1.68-1.67 3.37-2.51 5a4.89 4.89 0 0 0 -.4 1h-.24a8.49 8.49 0 0 0 -.51-1.26c-.3-.6-.6-1.2-.89-1.8l-1.44-2.88c-.1-.22-.22-.43-.33-.63a.48.48 0 0 0 -.32-.27 4.38 4.38 0 0 0 -.51 0h-3.88a3.42 3.42 0 0 0 -.46 0 .41.41 0 0 0 -.28.23 1.64 1.64 0 0 0 -.16.26l-.67 1.38c-.2.42-.39.84-.6 1.26-.42.87-.85 1.73-1.28 2.6-.1.19-.19.39-.28.59a1.87 1.87 0 0 0 -.15.52h-.2c-.08-.18-.15-.38-.23-.55-.42-.84-.82-1.71-1.23-2.56-.48-1-1-2-1.47-3 0-.07-.07-.15-.11-.22-.26-.5-.34-.57-.73-.59h-4.14a3.57 3.57 0 0 0 -.46 0 .47.47 0 0 0 -.32.28c-.12.2-.23.41-.34.62-.81 1.64-1.62 3.27-2.44 4.91l-.24.51a2.44 2.44 0 0 0 -.16.52h-.17a2.64 2.64 0 0 0 -.19-.6c-.09-.19-.18-.39-.28-.58-.58-1.18-1.17-2.35-1.75-3.53-.24-.48-.48-1-.7-1.46a4.13 4.13 0 0 0 -.22-.42.49.49 0 0 0 -.27-.25 1.65 1.65 0 0 0 -.31 0h-4.28a1.54 1.54 0 0 0 -.3 0 .47.47 0 0 0 -.28.23 2.4 2.4 0 0 0 -.16.27c-.21.43-.43.85-.63 1.31s-.49 1-.74 1.53-.57 1.15-.86 1.72l-.45 1a3.85 3.85 0 0 0 -.29.83h-.31a2.25 2.25 0 0 0 -.16-.62c0-.08-.07-.15-.11-.22-.33-.67-.66-1.35-1-2.06a1.51 1.51 0 0 0 -.11-.22c-.48-1-1-2-1.46-3-.08-.14-.15-.28-.22-.42s-.26-.34-.42-.35h-.51-4c-.39 0-.47.09-.73.59-.07.15-.14.29-.22.43-.23.49-.47 1-.71 1.45-.35.7-.7 1.38-1 2.12-.09.21-.19.39-.28.59l-.51 1a5.5 5.5 0 0 0 -.29.69h-.25a1.72 1.72 0 0 0 -.14-.53c-.1-.22-.21-.44-.32-.66l-1.35-2.73c-.25-.5-.5-1-.74-1.54-.12-.28-.26-.54-.39-.8a1.17 1.17 0 0 0 -.15-.27.52.52 0 0 0 -.36-.32 2.83 2.83 0 0 0 -.41 0h-4a2.69 2.69 0 0 0 -.4 0 .52.52 0 0 0 -.37.31c-.07.14-.15.28-.22.43-.31.72-.65 1.37-1 2l-1.5 3a4.69 4.69 0 0 0 -.4 1h-.25c-.06-.16-.12-.33-.19-.48-.23-.5-.45-1-.69-1.49l-2.07-4.18-.19-.35c-.12-.21-.25-.34-.41-.35h-.51-3.83a3.42 3.42 0 0 0 -.46 0 .44.44 0 0 0 -.28.22c0 .09-.11.17-.16.27-.31.62-.62 1.24-.92 1.88s-.51 1.09-.77 1.62-.6 1.2-.89 1.8c-.09.17-.17.35-.25.52a2 2 0 0 0 -.14.53h-.31a3 3 0 0 0 -.21-.68c-.08-.18-.17-.35-.25-.51l-1.32-2.67c-.17-.34-.33-.69-.49-1l-.71-1.46-.15-.26c-.09-.13-.18-.22-.28-.23a4.38 4.38 0 0 0 -.51 0h-3.88a3.42 3.42 0 0 0 -.46 0 .52.52 0 0 0 -.33.27l-.26.49c-.74 1.49-1.48 3-2.21 4.47-.16.31-.3.65-.44 1a2.23 2.23 0 0 0 -.16.63h-.27c-.06-.14-.1-.28-.16-.4-.28-.62-.57-1.25-.87-1.85-.62-1.29-1.26-2.56-1.89-3.83l-.22-.42c-.12-.21-.25-.34-.41-.35h-.51-3.83a3.42 3.42 0 0 0 -.46 0 .42.42 0 0 0 -.28.22l-.12.2c-.35.69-.7 1.37-1 2.1-.19.4-.37.79-.56 1.18-.29.58-.58 1.14-.86 1.72l-.39.81a2.57 2.57 0 0 0 -.18.61h-.3a2.08 2.08 0 0 0 -.18-.61l-.24-.52-.83-1.65c-.13-.27-.26-.53-.38-.81-.41-.91-.85-1.75-1.28-2.62-.07-.14-.15-.28-.22-.4a.4.4 0 0 0 -.28-.23 4.38 4.38 0 0 0 -.51 0h-3.83a3.44 3.44 0 0 0 -.46 0c-.16 0-.3.14-.42.35l-.25.5-1.83 3.67c-.06.12-.12.24-.17.37l-.66 1.41a3.94 3.94 0 0 0 -.22.55h-.21a2 2 0 0 0 -.15-.52c-.08-.18-.16-.35-.25-.52-.28-.57-.57-1.15-.86-1.72-.52-1.06-1-2.12-1.57-3.17l-.26-.5c-.14-.27-.3-.42-.5-.43h-.51-3.78a3.57 3.57 0 0 0 -.46 0 .43.43 0 0 0 -.28.23 1.61 1.61 0 0 0 -.15.26c-.21.41-.41.82-.6 1.24s-.33.69-.49 1l-.72 1.44c-.27.56-.55 1.11-.82 1.66a4.34 4.34 0 0 0 -.36 1h-.31a1.65 1.65 0 0 0 -.13-.53l-.35-.74c-.42-.84-.85-1.66-1.24-2.56 0-.1-.09-.19-.14-.29l-1-2c-.09-.16-.17-.33-.26-.48s-.23-.29-.37-.3h-.51-4c-.38 0-.46.09-.72.59l-.18.36-.82 1.66c-.11.22-.22.44-.32.66-.21.49-.43.95-.66 1.4l-.57 1.16c-.09.17-.17.34-.25.52a2.4 2.4 0 0 0 -.14.53h-.3a6.08 6.08 0 0 0 -.43-1.12c-.59-1.17-1.17-2.35-1.76-3.53-.25-.5-.5-1-.74-1.54a3.36 3.36 0 0 0 -.22-.42.41.41 0 0 0 -.28-.23 4.38 4.38 0 0 0 -.51 0h-3.88-.41c-.15 0-.29.14-.41.35l-.22.42-2.43 4.91-.21.44a2 2 0 0 0 -.16.73h-.31c-.07-.18-.14-.38-.22-.55-.42-.83-.82-1.71-1.23-2.56-.48-1-1-2-1.47-3-.06-.12-.12-.23-.18-.36-.15-.31-.34-.44-.55-.44h-4.14-.46c-.18 0-.33.12-.46.37l-.26.49-.78 1.59c-.15.29-.28.58-.42.88s-.38.79-.56 1.18l-.65 1.29-.21.45a2.09 2.09 0 0 0 -.17.61h-.31a2.49 2.49 0 0 0 -.18-.6c-.09-.2-.18-.4-.28-.59-.46-.94-.93-1.87-1.4-2.81-.27-.55-.55-1.1-.8-1.69-.1-.23-.21-.43-.32-.65l-.11-.2c-.11-.18-.23-.3-.37-.31h-.51-4.09a.69.69 0 0 0 -.2 0 .53.53 0 0 0 -.32.28c-.13.22-.25.46-.37.7q-1.06 2.11-2.11 4.25c-.19.38-.38.78-.55 1.2l-.15.41h-.3a2.3 2.3 0 0 0 -.2-.7c-.28-.59-.55-1.19-.83-1.77-.6-1.21-1.19-2.41-1.79-3.61l-.22-.42c-.12-.21-.25-.34-.41-.35h-.51-4.09a.69.69 0 0 0 -.2 0 .46.46 0 0 0 -.28.23 1.61 1.61 0 0 0 -.15.26c-.31.63-.63 1.24-.93 1.88s-.51 1.09-.77 1.62-.55 1.1-.82 1.65c-.09.17-.17.34-.25.51a2.33 2.33 0 0 0 -.21.69h-.31a2 2 0 0 0 -.15-.52c-.09-.2-.18-.4-.28-.59-.76-1.57-1.55-3.08-2.29-4.7-.11-.25-.24-.48-.36-.71s-.26-.33-.41-.34h-.51-2.39v-43.98h576.5c0 14.71 1 29.41 1 44.12h-2.58a2.69 2.69 0 0 0 -.4 0 .53.53 0 0 0 -.33.26 1.28 1.28 0 0 0 -.11.2c-.32.64-.65 1.28-1 1.94s-.48 1-.73 1.54-.59 1.19-.89 1.79l-.24.52a2.36 2.36 0 0 0 -.18.6h-.2a2.44 2.44 0 0 0 -.16-.52c-.09-.2-.19-.39-.28-.59-.48-1-1-1.93-1.43-2.9-.27-.55-.55-1.1-.81-1.69-.08-.2-.19-.39-.28-.59-.18-.39-.4-.61-.67-.59-.11 0-.21 0-.31 0h-4.24-.21a.48.48 0 0 0 -.28.24c-.09.15-.18.31-.26.47l-2.5 5.07a3.9 3.9 0 0 1 -.19.35c-.19.33-.39.34-.6 0a4.68 4.68 0 0 1 -.3-.55c-.12-.28-.24-.56-.37-.82-.66-1.33-1.32-2.65-2-4l-.19-.36c-.16-.34-.36-.48-.59-.48h-4.6a.78.78 0 0 0 -.21 0 .42.42 0 0 0 -.23.2 3 3 0 0 0 -.16.26l-.6 1.23c-.12.25-.23.51-.34.75l-1.58 3.17c-.09.17-.17.34-.26.49a1 1 0 0 1 -.17.22.19.19 0 0 1 -.3 0 1 1 0 0 1 -.17-.22l-.26-.49c-.41-.84-.83-1.68-1.25-2.53-.08-.16-.17-.33-.24-.51-.3-.7-.63-1.33-1-2 0-.09-.1-.18-.15-.27a.52.52 0 0 0 -.41-.34h-.41-4.19c-.41 0-.49.07-.77.65-.57 1.16-1.16 2.28-1.7 3.5-.09.21-.19.4-.28.59l-.39 1.29-.24.52a2 2 0 0 0 -.18.48z" fill="#75a040"/><g fill="#427212"><path d="m967.59 1216.87-16.28 17.82a3.67 3.67 0 0 0 .61 5.26l86.27 65.4c3.14 2.39 6.51-1.9 3.92-5l-70-83.23a3 3 0 0 0 -4.52-.25z"/><path d="m939.83 1256.51-7.14 24.28a3.66 3.66 0 0 0 2.63 4.59l101.32 20c3.69.72 4.93-4.86 1.44-6.49l-94.19-44.3a2.88 2.88 0 0 0 -4.06 1.92z"/><path d="m1037.71 1187.57 22.7 2.73a3 3 0 0 1 2.49 3.45l-17.79 106.39c-.57 3.35-5.28 2.86-5.43-.57l-4.91-109.11a2.68 2.68 0 0 1 2.94-2.89z"/><path d="m1115.31 1210.44 17.36 16.37a3 3 0 0 1 .14 4.25l-89.15 74.08c-2.34 2.27-6-1.07-4.2-3.85l71.78-90.45a2.62 2.62 0 0 1 4.07-.4z"/><path d="m1153 1257-10.66-15.14a.68.68 0 0 0 -.92-.16l-99.76 62.64a.64.64 0 0 0 .62 1.13l110.41-47.51a.65.65 0 0 0 .31-.96z"/><path d="m992.39 1193.36-14.12 10.22a.75.75 0 0 0 -.14 1l63.39 99a1.09 1.09 0 0 0 2-1l-50.18-108.8a.62.62 0 0 0 -.95-.42z"/><path d="m929.3 1293.72 1.36 18.5a.75.75 0 0 0 .7.66l108.8-6.91c1.36.08 1.53-2 .18-2.3l-110.29-10.55a.59.59 0 0 0 -.75.6z"/><path d="m938 1333.37 7.23 17.16a.69.69 0 0 0 .86.38l98.41-46a1.18 1.18 0 0 0 -.58-2.26l-105.42 29.89a.62.62 0 0 0 -.5.83z"/><path d="m950.36 1357.82 10.74 15.07a.66.66 0 0 0 .91.16l84.54-69.59a1.18 1.18 0 0 0 -1-2.08l-94.85 55.48a.64.64 0 0 0 -.34.96z"/><path d="m1020.28 1183.91-16.31 5.83a.72.72 0 0 0 -.38.88l37.47 112a1.09 1.09 0 0 0 2.14-.36l-22.12-117.7a.65.65 0 0 0 -.8-.65z"/><path d="m1079.8 1191.46 20.44 11.55a3 3 0 0 1 1.11 4.13l-54.59 89.72c-1.72 2.83-6 .5-4.91-2.68l34.15-101.27a2.61 2.61 0 0 1 3.8-1.45z"/><rect height="114.45" rx="1" transform="matrix(.94860019 -.31647697 .31647697 .94860019 -373.38 404.47)" width="7.43" x="1054.97" y="1294.66"/><path d="m1118.17 1238.81-24.08 1.7a3.67 3.67 0 0 0 -3.17 4.24l17.47 106.83c.64 3.89 6 3.1 6.28-.91l6.6-108.54a3 3 0 0 0 -3.1-3.32z"/><path d="m1070.74 1248.42-21.89 12.68a3.66 3.66 0 0 0 -1.27 5.14l59.66 84.31c2.17 3.07 6.91-.12 5.51-3.71l-37.76-97a2.89 2.89 0 0 0 -4.25-1.42z"/><path d="m1189.19 1265.88 14.57 17.61a3 3 0 0 1 -.57 4.22l-86.19 64.85c-2.72 2-5.79-1.55-3.54-4.15l71.61-82.47a2.67 2.67 0 0 1 4.12-.06z"/><path d="m1229.68 1335.9 1.32 23.83a3 3 0 0 1 -2.84 3.18l-115.65-7.72c-3.26 0-3.6-4.9-.39-5.68l114.34-16.11a2.62 2.62 0 0 1 3.22 2.5z"/><path d="m1224.94 1395.6 2.7-18.31a.67.67 0 0 0 -.55-.75l-115.47-23.31a.64.64 0 0 0 -.33 1.24l112.77 41.62a.64.64 0 0 0 .88-.49z"/><path d="m1152.35 1238.85-17.28-2.32a.76.76 0 0 0 -.77.6l-22.22 115.41a1.09 1.09 0 0 0 2.08.65l38.58-113.43a.62.62 0 0 0 -.39-.91z"/><path d="m1037.47 1268.14-11.75 14.34a.76.76 0 0 0 0 1l83.63 69.94c.93 1 2.49-.41 1.72-1.54l-72.68-83.63a.59.59 0 0 0 -.92-.11z"/><path d="m1016.45 1302.86-6.58 17.42a.71.71 0 0 0 .37.87l103 34.43a1.18 1.18 0 0 0 1.14-2l-97-51a.62.62 0 0 0 -.93.28z"/><path d="m1008.58 1329.11-2.59 18.32a.68.68 0 0 0 .55.75l109.22 7.79a1.18 1.18 0 0 0 .67-2.23l-107-25.13a.66.66 0 0 0 -.85.5z"/><path d="m1179.08 1251.21-15.85-7a.72.72 0 0 0 -.87.38l-50 107a1.09 1.09 0 0 0 1.81 1.21l65-100.56a.65.65 0 0 0 -.09-1.03z"/><path d="m1217 1297.69 6.86 22.45a3 3 0 0 1 -2 3.76l-101.38 27.43c-3.2.87-4.69-3.76-1.71-5.33l94.51-49.88a2.61 2.61 0 0 1 3.72 1.57z"/><rect height="114.45" rx="1" transform="matrix(.90564282 .42404136 -.42404136 .90564282 696.51 -330.7)" width="7.43" x="1087.48" y="1342.21"/></g><path d="m1067.51 1404h1153.4v114h-1153.4z" fill="#919191"/><path d="m1067.38 1454 50.09 28 48.09-28 47.08 28 48.09-28 49.09 28 46.08-30 50.09 30 48.09-30 48.09 30 47.08-28 50.09 28 46.09-28 49.09 28 48.08-28 48.09 28 48.09-30 50.09 30 46.08-28 48.09 28 48.09-30 49.09 30 48.08-28 48.09 28 44.08-28v-38l-42.08 27-50.09-28-47.08 29-50.09-29-47.09 28-48.09-28-49.08 28-48.09-28-48.09 30-48.09-30-49.09 29-48.08-29-46.09 28-50.09-28-47.08 29-48.09-29-48.09 28-48.09-28-49.08 29-48.09-29-47.09 28-49.09-28-47.08 28-50.09-27z" fill="#666"/><path d="m1067.38 1485 48.08 25 49.09-28 49.09 28 47.09-28 51.09 28 46.08-28 49.09 28 47.09-28 48.09 28 47.08-28 51.1 28 45.08-28 49.09 28 48.08-28 49.09 28 47.09-28 48.09 28 47.08-28 50.09 28 46.09-28 51.09 28 45.08-28 50.09 28 44.08-25v33h-1153.09z" fill="#666"/><path d="m1601.5 1428h-.21a15.33 15.33 0 0 0 -.72-1.69l-2-4c-.09-.2-.19-.38-.29-.58-.18-.4-.4-.6-.68-.57h-4.44a1.54 1.54 0 0 0 -.3 0 .43.43 0 0 0 -.28.24c-.1.18-.2.37-.29.56l-.45 1-1.83 3.67c-.11.22-.21.43-.33.64a1 1 0 0 1 -.16.23.21.21 0 0 1 -.34 0 1.46 1.46 0 0 1 -.17-.24c-.09-.15-.17-.32-.26-.49l-1-2c-.08-.17-.17-.34-.25-.52-.36-.84-.77-1.61-1.16-2.4a3.9 3.9 0 0 0 -.19-.35.52.52 0 0 0 -.37-.31h-.51-3.83c-.12 0-.23 0-.35 0s-.47.15-.64.52l-.18.36-.9 1.8c-.1.22-.21.44-.31.67-.19.39-.37.79-.56 1.17s-.41.82-.61 1.23l-.24.52a2.57 2.57 0 0 0 -.18.61h-.2a7 7 0 0 0 -.44-1.1l-.72-1.45-1.6-3.24c-.09-.16-.17-.33-.25-.5-.26-.49-.35-.57-.73-.59h-4.43c-.26 0-.47.14-.64.51-.08.18-.17.34-.26.5l-2.1 4.25c-.11.22-.22.44-.32.66s-.27.6-.38 1h-.2a2.58 2.58 0 0 0 -.17-.61c-.11-.23-.21-.45-.32-.66-.41-.85-.84-1.67-1.23-2.56a2.59 2.59 0 0 0 -.14-.29c-.32-.65-.64-1.3-1-2-.08-.16-.17-.33-.26-.48a.48.48 0 0 0 -.37-.3 2.69 2.69 0 0 0 -.4 0h-4.31-.15a.47.47 0 0 0 -.28.23l-.12.19c-.37.75-.74 1.49-1.1 2.25-.21.44-.42.89-.63 1.32l-.83 1.65-.24.51a2.33 2.33 0 0 0 -.21.69h-.21a2 2 0 0 0 -.15-.52c-.09-.2-.18-.4-.28-.59-.48-1-1-2-1.46-3-.34-.67-.68-1.33-1-2a2.89 2.89 0 0 0 -.22-.43c-.1-.18-.22-.3-.36-.31h-.51-3.88a3.44 3.44 0 0 0 -.46 0c-.16 0-.3.14-.41.35s-.18.33-.26.5l-1.61 3.24c-.09.19-.18.39-.28.59-.19.42-.39.84-.59 1.26a9.58 9.58 0 0 0 -.4.91h-.21a1.88 1.88 0 0 0 -.16-.62q-.12-.27-.24-.51c-.21-.41-.41-.82-.6-1.26-.07-.18-.16-.35-.24-.51-.53-1.06-1.05-2.12-1.58-3.17 0-.1-.09-.19-.14-.29-.16-.33-.35-.51-.59-.51h-4.6-.16a.48.48 0 0 0 -.27.23 3.72 3.72 0 0 0 -.19.34c-.29.57-.58 1.14-.85 1.75-.12.28-.26.54-.39.81-.43.86-.86 1.73-1.28 2.59-.1.19-.19.39-.28.59a2 2 0 0 0 -.15.53h-.2a5 5 0 0 0 -.4-1l-1.32-2.66c-.33-.67-.67-1.33-1-2-.09-.2-.19-.39-.29-.58a1.28 1.28 0 0 0 -.11-.2.52.52 0 0 0 -.37-.31h-.51-4.13c-.38 0-.46.09-.73.59l-.1.22-1.47 3-.21.44c-.23.54-.48 1-.73 1.55a5.46 5.46 0 0 0 -.27.6 1.65 1.65 0 0 0 -.14.53h-.21l-.18-.48c-.31-.67-.62-1.35-.94-2s-.67-1.34-1-2l-.75-1.51c-.1-.2-.2-.38-.3-.56a.48.48 0 0 0 -.37-.3h-.51-4-.2c-.18 0-.33.13-.46.37s-.15.28-.22.42c-.85 1.7-1.69 3.41-2.54 5.11l-.21.44a2 2 0 0 0 -.15.52h-.21a2.49 2.49 0 0 0 -.18-.6c-.1-.23-.21-.45-.31-.67-.41-.81-.82-1.63-1.22-2.45l-.45-1c-.27-.56-.54-1.12-.82-1.67a1.73 1.73 0 0 0 -.15-.27.44.44 0 0 0 -.28-.23 3.42 3.42 0 0 0 -.46 0h-4.33-.16a.52.52 0 0 0 -.37.3c-.1.18-.19.37-.29.56-.3.59-.6 1.2-.89 1.8-.11.21-.22.42-.32.65-.32.74-.68 1.43-1 2.12l-.36.73a2.66 2.66 0 0 0 -.2.69h-.2a1.89 1.89 0 0 0 -.13-.44c0-.13-.11-.26-.17-.38q-1.34-2.68-2.68-5.39a3.72 3.72 0 0 0 -.19-.34.5.5 0 0 0 -.37-.3h-.51-3.77c-.12 0-.24 0-.35 0s-.47.15-.64.52v.07l-1.92 3.9a.25.25 0 0 0 0 .07c-.24.57-.5 1.1-.76 1.62a5.66 5.66 0 0 0 -.3.7h-.2a2 2 0 0 0 -.15-.53l-.27-.59-1-2c-.12-.24-.24-.48-.35-.73-.37-.84-.77-1.61-1.17-2.41-.07-.14-.14-.27-.22-.4a.46.46 0 0 0 -.28-.23 1.65 1.65 0 0 0 -.31 0h-4.34a1.54 1.54 0 0 0 -.3 0 .47.47 0 0 0 -.28.23l-.12.2c-.38.77-.77 1.52-1.14 2.31-.29.62-.58 1.23-.88 1.83l-.72 1.44a8 8 0 0 0 -.37.83h-.1a4.89 4.89 0 0 0 -.4-1c-.35-.7-.69-1.4-1-2.09-.47-.94-.93-1.88-1.4-2.81q-.16-.33-.33-.63c-.1-.16-.21-.26-.33-.27a2.92 2.92 0 0 0 -.51 0h-3.88a3.42 3.42 0 0 0 -.46 0 .45.45 0 0 0 -.33.27l-.33.62c-.55 1.11-1.1 2.21-1.65 3.33-.31.63-.6 1.28-.9 1.92a1.11 1.11 0 0 0 -.07.16 2.14 2.14 0 0 0 -.13.54h-.21a5.27 5.27 0 0 0 -.33-.76c-.45-.92-.9-1.83-1.34-2.77s-.9-1.83-1.36-2.74a3.72 3.72 0 0 0 -.19-.34.44.44 0 0 0 -.28-.23 1.54 1.54 0 0 0 -.3 0h-4.49a1.76 1.76 0 0 0 -.31 0 .47.47 0 0 0 -.27.24c-.1.18-.2.36-.29.56-.24.54-.49 1-.74 1.54-.55 1.11-1.1 2.21-1.64 3.32-.11.21-.22.43-.32.66a2 2 0 0 0 -.15.52h-.21a4.32 4.32 0 0 0 -.32-.9l-.25-.5c-.61-1.23-1.22-2.45-1.82-3.67l-.57-1.17-.18-.35a.46.46 0 0 0 -.27-.25 5.46 5.46 0 0 0 -.56 0h-4a2.85 2.85 0 0 0 -.41 0 .48.48 0 0 0 -.28.22 3.72 3.72 0 0 0 -.19.34l-1.71 3.45a2.4 2.4 0 0 0 -.11.23c-.21.49-.43.94-.66 1.4-.1.19-.19.38-.28.58a2.25 2.25 0 0 0 -.17.62h-.3a2.66 2.66 0 0 0 -.17-.62c0-.08-.07-.15-.1-.23-.34-.66-.67-1.35-1-2.05l-.11-.22-1.47-3c-.08-.17-.17-.33-.26-.49a.45.45 0 0 0 -.32-.27 4.38 4.38 0 0 0 -.51 0h-3.89a2.45 2.45 0 0 0 -.46 0 .43.43 0 0 0 -.32.27c-.12.2-.23.41-.33.62-.66 1.32-1.32 2.65-2 4-.26.53-.51 1.09-.76 1.64 0 .1-.08.22-.12.33h-.2a2 2 0 0 0 -.15-.52c-.09-.2-.19-.4-.28-.59l-1.47-3c-.33-.68-.67-1.34-1-2a4.48 4.48 0 0 0 -.26-.49.46.46 0 0 0 -.28-.24 1.54 1.54 0 0 0 -.3 0h-4.23a1.54 1.54 0 0 0 -.3 0 .44.44 0 0 0 -.28.23 5.86 5.86 0 0 0 -.3.55c-.39.77-.77 1.54-1.15 2.3-.09.2-.19.39-.28.59-.2.46-.41.9-.63 1.33s-.35.72-.53 1.08a6.68 6.68 0 0 0 -.34.76h-.2a2.3 2.3 0 0 0 -.2-.7c-.26-.57-.52-1.15-.8-1.7-.61-1.26-1.24-2.51-1.86-3.76-.07-.14-.14-.28-.22-.41a.45.45 0 0 0 -.33-.27 2.92 2.92 0 0 0 -.51 0h-3.88a2.38 2.38 0 0 0 -.46 0 .45.45 0 0 0 -.32.27 5.86 5.86 0 0 0 -.3.55c-.72 1.45-1.43 2.89-2.15 4.33-.26.54-.51 1.09-.73 1.69h-.23a1.65 1.65 0 0 0 -.14-.53c-.06-.15-.13-.3-.2-.45l-1-2.09c-.12-.24-.24-.47-.35-.73-.37-.84-.78-1.61-1.17-2.4l-.22-.41a.46.46 0 0 0 -.28-.23 1.65 1.65 0 0 0 -.31 0h-4.33a1.55 1.55 0 0 0 -.31 0 .51.51 0 0 0 -.28.24l-.15.26-.57 1.17c-.19.41-.39.84-.59 1.24-.45.92-.91 1.83-1.36 2.74l-.31.66a2 2 0 0 0 -.15.53h-.2a3.7 3.7 0 0 0 -.16-.4c-.2-.46-.4-.92-.61-1.35l-2.19-4.41c-.07-.14-.14-.28-.22-.41a.45.45 0 0 0 -.33-.27 2.92 2.92 0 0 0 -.51 0h-3.88a3.57 3.57 0 0 0 -.46 0 .45.45 0 0 0 -.32.27c-.12.2-.23.41-.34.63-.47 1-1 1.92-1.43 2.89-.38.77-.75 1.56-1.12 2.35v.08a2.25 2.25 0 0 0 -.17.62h-.3a2.61 2.61 0 0 0 -.24-.76l-.72-1.44c-.19-.39-.38-.76-.56-1.17-.44-1-.92-1.89-1.38-2.83a4 4 0 0 0 -.23-.41.45.45 0 0 0 -.27-.23 4.38 4.38 0 0 0 -.51 0h-4.23-.21a.51.51 0 0 0 -.27.24 2.78 2.78 0 0 0 -.22.42c-.22.51-.46 1-.7 1.47l-1.61 3.24-.31.66a3.88 3.88 0 0 0 -.3.81h-.28a2.55 2.55 0 0 0 -.12-.44c-.06-.13-.11-.25-.17-.37q-1.35-2.7-2.68-5.4c-.06-.12-.13-.23-.19-.34s-.23-.29-.37-.3a5.25 5.25 0 0 0 -.56 0h-4.08a.69.69 0 0 0 -.2 0 .5.5 0 0 0 -.28.23c-.08.13-.15.26-.23.41-.6 1.22-1.22 2.43-1.82 3.67-.31.65-.62 1.33-.94 2-.08.17-.15.37-.22.55h-.14a2.09 2.09 0 0 0 -.17-.61c-.1-.23-.21-.45-.31-.67-.25-.51-.51-1-.75-1.53-.55-1.2-1.14-2.32-1.71-3.49 0-.09-.1-.18-.15-.27a.48.48 0 0 0 -.32-.27 2.85 2.85 0 0 0 -.41 0h-4.09-.36c-.14 0-.26.14-.36.33l-.15.28c-.81 1.63-1.62 3.27-2.44 4.9a9.13 9.13 0 0 0 -.54 1.34h-.2a6 6 0 0 0 -.44-1.11l-2-4-.57-1.17a2.31 2.31 0 0 0 -.18-.35.46.46 0 0 0 -.27-.25 1.55 1.55 0 0 0 -.31 0h-4.27a1.54 1.54 0 0 0 -.3 0 .46.46 0 0 0 -.28.24l-.12.19c-.32.65-.65 1.29-1 2s-.51 1.09-.77 1.61l-.86 1.73c-.09.19-.18.39-.28.59a2.4 2.4 0 0 0 -.14.53h-.2a9.42 9.42 0 0 0 -.48-1.06c-.21-.43-.42-.86-.62-1.33l-.25-.51c-.52-1.06-1-2.12-1.58-3.18-.07-.14-.14-.28-.22-.42s-.25-.34-.41-.35a5.25 5.25 0 0 0 -.56 0h-3.93c-.46 0-.52.06-.85.72l-2.37 4.75c-.12.25-.23.5-.33.77a2.5 2.5 0 0 0 -.15.64h-.3a4.32 4.32 0 0 0 -.32-.9c-.11-.22-.22-.43-.32-.65-.74-1.5-1.5-2.94-2.2-4.49a5 5 0 0 0 -.3-.56.44.44 0 0 0 -.27-.24 1.55 1.55 0 0 0 -.31 0h-4.33a1.54 1.54 0 0 0 -.3 0 .46.46 0 0 0 -.28.24 2.2 2.2 0 0 0 -.15.26c-.17.34-.33.68-.5 1l-.48 1-1.53 3.1c-.11.22-.22.44-.32.66a2 2 0 0 0 -.15.52h-.24c0-.11-.07-.23-.11-.33-.22-.48-.43-1-.66-1.42-.72-1.48-1.45-2.94-2.18-4.4-.07-.15-.15-.28-.23-.42a.45.45 0 0 0 -.32-.27 2.92 2.92 0 0 0 -.51 0h-3.89a2.45 2.45 0 0 0 -.46 0 .48.48 0 0 0 -.32.27c-.13.23-.25.46-.37.7-.63 1.28-1.27 2.55-1.9 3.83-.27.55-.53 1.14-.79 1.71a3.21 3.21 0 0 0 -.12.33h-.21a2.46 2.46 0 0 0 -.14-.52c-.11-.23-.21-.45-.32-.67l-1.35-2.73-.6-1.25c-.18-.39-.37-.78-.56-1.16a1.75 1.75 0 0 0 -.16-.27.47.47 0 0 0 -.27-.24 1.65 1.65 0 0 0 -.31 0h-4.33a1.54 1.54 0 0 0 -.3 0 .49.49 0 0 0 -.28.24c-.12.19-.22.42-.33.64-.18.39-.37.79-.56 1.17-.58 1.18-1.16 2.35-1.75 3.53l-.17.36a4.32 4.32 0 0 0 -.33.9h-.3a2.17 2.17 0 0 0 -.18-.72c-.1-.23-.2-.46-.31-.67-.34-.7-.69-1.4-1-2.1s-.81-1.63-1.21-2.45c-.11-.21-.22-.42-.34-.63a.45.45 0 0 0 -.32-.27 4.38 4.38 0 0 0 -.51 0h-3.84-.46a.51.51 0 0 0 -.37.29l-.22.42-.61 1.23c-.2.41-.41.81-.6 1.23-.26.59-.54 1.14-.81 1.69l-.61 1.23a7.58 7.58 0 0 0 -.34.76h-.2a2 2 0 0 0 -.14-.53c-.09-.2-.19-.4-.28-.59l-1.08-2.17c-.13-.26-.26-.52-.38-.8-.34-.77-.71-1.47-1.06-2.19a2.63 2.63 0 0 0 -.2-.33.41.41 0 0 0 -.28-.23 4.38 4.38 0 0 0 -.51 0h-4.19a.84.84 0 0 0 -.2 0 .4.4 0 0 0 -.23.19c-.1.17-.21.35-.3.54-.84 1.68-1.67 3.37-2.51 5a4.89 4.89 0 0 0 -.4 1h-.21a8.49 8.49 0 0 0 -.51-1.26c-.3-.6-.6-1.2-.89-1.8l-1.44-2.88c-.1-.22-.22-.43-.33-.63a.48.48 0 0 0 -.32-.27 4.38 4.38 0 0 0 -.51 0h-3.97a3.42 3.42 0 0 0 -.45 0 .41.41 0 0 0 -.28.23 1.64 1.64 0 0 0 -.16.26l-.67 1.38c-.2.42-.39.84-.6 1.26-.42.87-.85 1.73-1.28 2.6-.1.19-.19.39-.28.59a1.87 1.87 0 0 0 -.15.52h-.2c-.08-.18-.15-.38-.23-.55-.42-.84-.82-1.71-1.23-2.56-.49-1-1-2-1.47-3l-.11-.22c-.26-.5-.34-.57-.73-.59h-4.14a3.57 3.57 0 0 0 -.46 0 .47.47 0 0 0 -.32.28c-.12.2-.23.41-.34.62-.81 1.64-1.62 3.27-2.44 4.91l-.24.51a2.44 2.44 0 0 0 -.16.52h-.2a2.64 2.64 0 0 0 -.19-.6l-.28-.58c-.58-1.18-1.17-2.35-1.75-3.53-.24-.48-.48-1-.7-1.46a4.13 4.13 0 0 0 -.22-.42.48.48 0 0 0 -.28-.25 1.54 1.54 0 0 0 -.3 0h-4.33a1.65 1.65 0 0 0 -.31 0 .48.48 0 0 0 -.27.23 2.4 2.4 0 0 0 -.16.27c-.21.43-.43.85-.63 1.31s-.49 1-.74 1.53l-.86 1.72c-.15.32-.31.63-.46 1a5.36 5.36 0 0 0 -.29.83h-.3a2.25 2.25 0 0 0 -.17-.62 1.47 1.47 0 0 0 -.1-.22c-.34-.67-.67-1.35-1-2.06l-.11-.22-1.47-3c-.07-.14-.14-.28-.22-.42s-.25-.34-.41-.35h-.51-4c-.38 0-.46.09-.72.59l-.22.43c-.24.49-.48 1-.71 1.45-.35.7-.7 1.38-1 2.12-.09.21-.19.39-.29.59l-.5 1a4.33 4.33 0 0 0 -.29.69h-.21a2.05 2.05 0 0 0 -.15-.53c-.1-.22-.2-.44-.31-.66-.45-.91-.9-1.82-1.36-2.73-.25-.5-.5-1-.73-1.54-.12-.28-.26-.54-.39-.8l-.15-.27a.54.54 0 0 0 -.37-.32 2.69 2.69 0 0 0 -.4 0h-4a2.83 2.83 0 0 0 -.41 0c-.14 0-.26.13-.36.31s-.15.28-.22.43c-.31.72-.65 1.37-1 2l-1.5 3a4.69 4.69 0 0 0 -.4 1h-.21l-.18-.48-.72-1.43c-.69-1.4-1.39-2.79-2.08-4.18l-.18-.35c-.12-.21-.26-.34-.42-.35h-.51-3.81a3.73 3.73 0 0 0 -.46 0c-.1 0-.19.1-.28.22l-.15.27c-.31.62-.63 1.24-.93 1.88s-.5 1.09-.77 1.62-.59 1.2-.89 1.8l-.24.52a2 2 0 0 0 -.15.53h-.3a2.59 2.59 0 0 0 -.22-.68q-.12-.27-.24-.51c-.45-.89-.89-1.78-1.33-2.67-.17-.34-.32-.69-.49-1s-.47-1-.71-1.46a2.2 2.2 0 0 0 -.15-.26.43.43 0 0 0 -.28-.23 4.38 4.38 0 0 0 -.51 0h-3.9a3.57 3.57 0 0 0 -.46 0 .48.48 0 0 0 -.32.27c-.09.16-.18.32-.26.49l-2.22 4.47c-.15.31-.29.65-.44 1a1.94 1.94 0 0 0 -.15.63h-.31c0-.14-.1-.28-.15-.4-.29-.62-.58-1.25-.87-1.85-.63-1.29-1.27-2.56-1.9-3.83-.07-.14-.14-.28-.22-.42s-.25-.34-.41-.35h-.51-3.78a3.57 3.57 0 0 0 -.46 0 .44.44 0 0 0 -.28.22l-.12.2c-.35.69-.7 1.37-1 2.1-.18.4-.37.79-.56 1.18-.28.58-.58 1.14-.86 1.72-.13.27-.26.54-.38.81a2.57 2.57 0 0 0 -.18.61h-.31a2.09 2.09 0 0 0 -.17-.61c-.08-.18-.17-.35-.25-.52l-.82-1.65c-.13-.27-.27-.53-.39-.81-.4-.91-.85-1.75-1.27-2.62-.08-.14-.15-.28-.23-.4a.4.4 0 0 0 -.28-.23 4.38 4.38 0 0 0 -.51 0h-3.93a3.44 3.44 0 0 0 -.46 0c-.16 0-.3.14-.41.35s-.18.33-.26.5l-1.83 3.67c0 .12-.11.24-.17.37l-.66 1.41a3.94 3.94 0 0 0 -.22.55h-.21a2 2 0 0 0 -.15-.52l-.24-.52-.86-1.72-1.58-3.17-.26-.5c-.14-.27-.3-.42-.5-.43h-.51-3.78a3.57 3.57 0 0 0 -.46 0 .43.43 0 0 0 -.28.23 1.61 1.61 0 0 0 -.15.26l-.6 1.24c-.17.34-.33.69-.49 1l-.72 1.44c-.27.56-.55 1.11-.82 1.66a4.34 4.34 0 0 0 -.36 1h-.31a1.65 1.65 0 0 0 -.13-.53c-.12-.25-.23-.5-.35-.74-.42-.84-.85-1.66-1.24-2.56 0-.1-.09-.19-.14-.29l-1-2c-.09-.16-.17-.33-.26-.48s-.23-.29-.37-.3h-.51-4c-.38 0-.46.09-.72.59l-.18.36-.82 1.66c-.11.22-.22.44-.32.66-.21.49-.43.95-.66 1.4l-.57 1.16c-.09.17-.17.34-.25.52a2.4 2.4 0 0 0 -.14.53h-.3a6.08 6.08 0 0 0 -.43-1.12c-.59-1.17-1.17-2.35-1.76-3.53-.25-.5-.5-1-.74-1.54-.07-.15-.14-.28-.22-.42a.41.41 0 0 0 -.28-.23 4.38 4.38 0 0 0 -.51 0h-3.81-.41c-.16 0-.29.14-.41.35l-.22.42-2.43 4.91c-.08.14-.14.29-.21.44a1.82 1.82 0 0 0 -.16.73h-.31c-.07-.18-.14-.38-.22-.55-.42-.83-.83-1.71-1.24-2.56-.48-1-1-2-1.46-3-.06-.12-.12-.23-.18-.36-.15-.31-.34-.44-.55-.44h-4.2-.46c-.18 0-.33.12-.46.37l-.26.49c-.26.53-.52 1.06-.79 1.59l-.42.88c-.18.39-.37.79-.56 1.18l-.64 1.29-.21.45a2.09 2.09 0 0 0 -.17.61h-.31a2.49 2.49 0 0 0 -.18-.6c-.09-.2-.19-.4-.28-.59l-1.4-2.81c-.27-.55-.55-1.1-.81-1.69-.09-.23-.21-.43-.31-.65l-.12-.2a.52.52 0 0 0 -.37-.31h-.51-4.08a.64.64 0 0 0 -.2 0 .52.52 0 0 0 -.33.28c-.12.22-.25.46-.36.7-.71 1.41-1.41 2.83-2.12 4.25q-.29.57-.54 1.2c-.06.13-.1.27-.15.41h-.31a2.31 2.31 0 0 0 -.19-.7c-.28-.59-.55-1.19-.84-1.77-.59-1.21-1.19-2.41-1.78-3.61-.08-.14-.15-.28-.22-.42s-.26-.34-.42-.35h-.51-4.08-.21a.45.45 0 0 0 -.27.23 1.64 1.64 0 0 0 -.16.26c-.31.63-.63 1.24-.92 1.88s-.51 1.09-.78 1.62l-.82 1.65-.25.51a3.11 3.11 0 0 0 -.21.69h-.3a2 2 0 0 0 -.15-.52c-.09-.2-.19-.4-.28-.59-.76-1.57-1.56-3.08-2.29-4.7-.12-.25-.24-.48-.36-.71a.54.54 0 0 0 -.42-.34h-.51-2.33v-44.04h576.54v44.12h-1.57a2.83 2.83 0 0 0 -.41 0 .49.49 0 0 0 -.32.26l-.12.2c-.32.64-.65 1.28-1 1.94s-.49 1-.74 1.54-.59 1.19-.89 1.79l-.24.52a2.36 2.36 0 0 0 -.18.6h-.2a2.44 2.44 0 0 0 -.16-.52c-.09-.2-.18-.39-.28-.59-.48-1-.95-1.93-1.43-2.9-.27-.55-.55-1.1-.8-1.69-.09-.2-.19-.39-.29-.59-.18-.39-.4-.61-.67-.59-.1 0-.21 0-.31 0h-4.24-.21a.48.48 0 0 0 -.28.24c-.09.15-.18.31-.26.47l-2.5 5.07-.18.35c-.2.33-.4.34-.61 0a3.55 3.55 0 0 1 -.29-.55c-.13-.28-.25-.56-.38-.82-.66-1.33-1.32-2.65-2-4l-.19-.36c-.16-.34-.36-.48-.59-.48h-4.6a.78.78 0 0 0 -.21 0 .42.42 0 0 0 -.23.2 3 3 0 0 0 -.16.26l-.6 1.23c-.12.25-.23.51-.34.75l-1.58 3.17c-.09.17-.17.34-.26.49a1 1 0 0 1 -.17.22.19.19 0 0 1 -.3 0 1 1 0 0 1 -.17-.22l-.26-.49c-.41-.84-.83-1.68-1.25-2.53-.08-.16-.17-.33-.24-.51-.3-.7-.63-1.33-1-2 0-.09-.1-.18-.15-.27a.52.52 0 0 0 -.41-.34h-.41-4.19c-.41 0-.49.07-.77.65-.57 1.16-1.16 2.28-1.7 3.5-.09.21-.19.4-.28.59l-.54 1.09-.24.52a1.65 1.65 0 0 0 .01.68z" fill="#494949"/><path d="m2179 1428h-.21a17.53 17.53 0 0 0 -.73-1.69l-2-4c-.09-.2-.19-.38-.28-.58-.19-.4-.41-.6-.69-.57h-4.45a1.54 1.54 0 0 0 -.3 0 .43.43 0 0 0 -.28.24c-.1.18-.2.37-.29.56l-.45 1-1.83 3.67-.33.64a1.06 1.06 0 0 1 -.17.23.21.21 0 0 1 -.34 0 2.49 2.49 0 0 1 -.17-.24c-.08-.15-.17-.32-.25-.49l-1-2c-.08-.17-.17-.34-.24-.52-.37-.84-.78-1.61-1.17-2.4a3.9 3.9 0 0 0 -.19-.35.52.52 0 0 0 -.37-.31h-.51-3.83c-.12 0-.24 0-.36 0s-.47.15-.64.52c-.06.13-.12.24-.18.36l-.9 1.8c-.11.22-.21.44-.31.67-.19.39-.37.79-.56 1.17s-.41.82-.61 1.23c-.09.17-.17.34-.25.52a2.18 2.18 0 0 0 -.17.61h-.21a5.49 5.49 0 0 0 -.44-1.1c-.23-.49-.47-1-.71-1.45l-1.61-3.24c-.09-.16-.17-.33-.25-.5-.26-.49-.35-.57-.73-.59h-4.44c-.26 0-.47.14-.64.51-.09.18-.17.34-.26.5-.7 1.42-1.4 2.83-2.11 4.25l-.31.66a6.72 6.72 0 0 0 -.38 1h-.21a2.18 2.18 0 0 0 -.17-.61c-.1-.23-.21-.45-.32-.66-.41-.85-.84-1.67-1.23-2.56a2.59 2.59 0 0 0 -.14-.29c-.32-.65-.64-1.3-1-2-.08-.16-.17-.33-.26-.48a.48.48 0 0 0 -.37-.3 2.73 2.73 0 0 0 -.41 0h-4.34-.15a.47.47 0 0 0 -.28.23l-.12.19c-.37.75-.74 1.49-1.1 2.25-.21.44-.42.89-.64 1.32l-.82 1.65-.25.51a3.11 3.11 0 0 0 -.21.69h-.2a2 2 0 0 0 -.15-.52c-.09-.2-.19-.4-.28-.59l-1.47-3c-.34-.67-.68-1.33-1-2a4.32 4.32 0 0 0 -.22-.43c-.1-.18-.22-.3-.37-.31h-.51-3.88a3.44 3.44 0 0 0 -.46 0c-.16 0-.3.14-.42.35s-.17.33-.25.5c-.54 1.08-1.08 2.16-1.61 3.24-.1.19-.19.39-.28.59-.2.42-.4.84-.59 1.26a9.58 9.58 0 0 0 -.41.91h-.2a2.16 2.16 0 0 0 -.17-.62q-.12-.27-.24-.51c-.21-.41-.41-.82-.6-1.26-.07-.18-.16-.35-.24-.51-.53-1.06-1.05-2.12-1.58-3.17 0-.1-.1-.19-.14-.29-.16-.33-.36-.51-.59-.51h-4.66-.15a.5.5 0 0 0 -.28.23c-.06.11-.13.22-.19.34-.29.57-.58 1.14-.85 1.75-.12.28-.25.54-.38.81l-1.29 2.59c-.1.19-.19.39-.28.59a2 2 0 0 0 -.15.53h-.2a5 5 0 0 0 -.39-1c-.45-.88-.89-1.77-1.33-2.66-.33-.67-.67-1.33-1-2a6.19 6.19 0 0 0 -.28-.58 1.28 1.28 0 0 0 -.11-.2c-.11-.18-.23-.3-.37-.31h-.51-4.14c-.39 0-.47.09-.73.59l-.11.22-1.47 3-.21.44c-.23.54-.48 1-.73 1.55q-.14.29-.27.6a2 2 0 0 0 -.14.53h-.21l-.18-.48c-.31-.67-.62-1.35-.94-2l-1-2-.75-1.51c-.1-.2-.19-.38-.29-.56a.51.51 0 0 0 -.38-.3h-.51-4-.2a.6.6 0 0 0 -.47.37l-.22.42c-.84 1.7-1.69 3.41-2.54 5.11l-.21.44a2 2 0 0 0 -.15.52h-.21a2.49 2.49 0 0 0 -.18-.6c-.1-.23-.21-.45-.32-.67-.4-.81-.81-1.63-1.21-2.45-.16-.31-.3-.64-.46-1l-.81-1.67a1.75 1.75 0 0 0 -.16-.27.45.45 0 0 0 -.27-.23 3.73 3.73 0 0 0 -.46 0h-4.3-.15a.5.5 0 0 0 -.37.3l-.3.56c-.3.59-.59 1.2-.89 1.8-.11.21-.22.42-.32.65-.32.74-.68 1.43-1 2.12l-.36.73a2.66 2.66 0 0 0 -.2.69h-.21a1.89 1.89 0 0 0 -.12-.44c0-.13-.11-.26-.17-.38-.89-1.79-1.79-3.59-2.68-5.39-.06-.12-.13-.23-.19-.34s-.23-.29-.37-.3h-.51-3.78c-.12 0-.24 0-.36 0s-.47.15-.64.52a.43.43 0 0 1 0 .07l-1.92 3.9a.25.25 0 0 0 0 .07c-.24.57-.5 1.1-.77 1.62a5.67 5.67 0 0 0 -.29.7h-.21a1.65 1.65 0 0 0 -.14-.53c-.09-.2-.18-.4-.28-.59l-1-2-.36-.73c-.36-.84-.77-1.61-1.16-2.41-.07-.14-.15-.27-.23-.4a.46.46 0 0 0 -.28-.23 1.55 1.55 0 0 0 -.31 0h-4.34a1.65 1.65 0 0 0 -.31 0 .5.5 0 0 0 -.28.23 2 2 0 0 0 -.11.2c-.39.77-.78 1.52-1.15 2.31-.29.62-.58 1.23-.88 1.83l-.72 1.44a8 8 0 0 0 -.37.83h-.1a6.27 6.27 0 0 0 -.4-1l-1-2.09c-.46-.94-.93-1.88-1.4-2.81q-.16-.33-.33-.63a.45.45 0 0 0 -.33-.27 2.92 2.92 0 0 0 -.51 0h-3.89a3.57 3.57 0 0 0 -.46 0c-.12 0-.23.11-.33.27l-.33.62-1.65 3.33c-.31.63-.61 1.28-.91 1.92l-.06.16a2.13 2.13 0 0 0 -.14.54h-.2a6.68 6.68 0 0 0 -.33-.76c-.46-.92-.91-1.83-1.35-2.77s-.9-1.83-1.36-2.74a3.72 3.72 0 0 0 -.19-.34.44.44 0 0 0 -.28-.23 1.54 1.54 0 0 0 -.3 0h-4.35a1.54 1.54 0 0 0 -.3 0 .46.46 0 0 0 -.28.24c-.1.18-.2.36-.29.56-.24.54-.49 1-.74 1.54l-1.65 3.32c-.11.21-.21.43-.31.66a2 2 0 0 0 -.15.52h-.21a4.32 4.32 0 0 0 -.33-.9c-.08-.17-.16-.34-.25-.5-.61-1.23-1.22-2.45-1.82-3.67l-.57-1.17-.18-.35a.44.44 0 0 0 -.28-.25 5.09 5.09 0 0 0 -.56 0h-4a2.85 2.85 0 0 0 -.41 0 .48.48 0 0 0 -.28.22 3.72 3.72 0 0 0 -.19.34l-1.72 3.45c0 .08-.07.15-.1.23-.21.49-.44.94-.67 1.4l-.28.58a2.25 2.25 0 0 0 -.16.62h-.31a2.25 2.25 0 0 0 -.17-.62 2.29 2.29 0 0 0 -.1-.23c-.34-.66-.67-1.35-1-2.05 0-.08-.07-.15-.11-.22l-1.47-3c-.08-.17-.17-.33-.26-.49a.45.45 0 0 0 -.32-.27 4.38 4.38 0 0 0 -.52 0h-3.89a2.45 2.45 0 0 0 -.46 0 .43.43 0 0 0 -.32.27c-.12.2-.23.41-.34.62-.65 1.32-1.31 2.65-2 4-.26.53-.51 1.09-.76 1.64a3.21 3.21 0 0 0 -.12.33h-.21a2 2 0 0 0 -.15-.52c-.09-.2-.18-.4-.28-.59l-1.47-3c-.33-.68-.67-1.34-1-2a4.48 4.48 0 0 0 -.26-.49.46.46 0 0 0 -.28-.24 1.54 1.54 0 0 0 -.3 0h-4.35a1.76 1.76 0 0 0 -.31 0 .42.42 0 0 0 -.27.23 5.86 5.86 0 0 0 -.3.55l-1.15 2.3c-.1.2-.19.39-.28.59-.2.46-.42.9-.63 1.33l-.54 1.08a5.27 5.27 0 0 0 -.33.76h-.21a2.05 2.05 0 0 0 -.2-.7c-.26-.57-.52-1.15-.8-1.7-.61-1.26-1.24-2.51-1.86-3.76l-.22-.41c-.1-.16-.21-.26-.33-.27a2.92 2.92 0 0 0 -.51 0h-3.89a2.38 2.38 0 0 0 -.46 0c-.12 0-.23.11-.33.27s-.2.36-.29.55l-2.16 4.33c-.26.54-.51 1.09-.73 1.69h-.2a2.4 2.4 0 0 0 -.14-.53l-.21-.45-1-2.09c-.12-.24-.24-.47-.35-.73-.37-.84-.78-1.61-1.17-2.4-.07-.14-.15-.28-.23-.41a.44.44 0 0 0 -.28-.23 1.54 1.54 0 0 0 -.3 0h-4.35a1.54 1.54 0 0 0 -.3 0 .48.48 0 0 0 -.28.24 2.2 2.2 0 0 0 -.15.26l-.57 1.17c-.2.41-.39.84-.6 1.24-.45.92-.9 1.83-1.36 2.74l-.31.66a2 2 0 0 0 -.15.53h-.2a3.7 3.7 0 0 0 -.16-.4c-.2-.46-.4-.92-.61-1.35l-2.19-4.41c-.07-.14-.15-.28-.23-.41a.45.45 0 0 0 -.32-.27 2.92 2.92 0 0 0 -.51 0h-3.89a3.42 3.42 0 0 0 -.46 0 .45.45 0 0 0 -.33.27q-.17.3-.33.63c-.48 1-1 1.92-1.43 2.89-.38.77-.75 1.56-1.13 2.35v.08a2 2 0 0 0 -.16.62h-.31a2.61 2.61 0 0 0 -.24-.76l-.72-1.44c-.19-.39-.38-.76-.56-1.17-.44-1-.92-1.89-1.38-2.83-.08-.15-.15-.28-.23-.41a.46.46 0 0 0 -.28-.23 4.38 4.38 0 0 0 -.51 0h-4.24a.69.69 0 0 0 -.2 0 .49.49 0 0 0 -.28.24 4.13 4.13 0 0 0 -.22.42c-.22.51-.46 1-.7 1.47-.53 1.08-1.07 2.16-1.61 3.24l-.31.66a3.88 3.88 0 0 0 -.3.81h-.21a2.55 2.55 0 0 0 -.12-.44c-.06-.13-.11-.25-.17-.37l-2.69-5.4a3.72 3.72 0 0 0 -.19-.34.5.5 0 0 0 -.37-.3 5.12 5.12 0 0 0 -.56 0h-4.08-.21a.53.53 0 0 0 -.28.23c-.07.13-.15.26-.22.41-.61 1.22-1.22 2.43-1.83 3.67-.31.65-.62 1.33-.94 2-.08.17-.15.37-.22.55h-.33a2.09 2.09 0 0 0 -.17-.61c-.1-.23-.21-.45-.32-.67-.25-.51-.51-1-.74-1.53-.55-1.2-1.14-2.32-1.71-3.49l-.15-.27c-.1-.15-.21-.26-.33-.27a2.71 2.71 0 0 0 -.41 0h-4.09-.36a.55.55 0 0 0 -.37.33 2.44 2.44 0 0 0 -.14.28l-2.45 4.9a9.13 9.13 0 0 0 -.54 1.34h-.22a5.35 5.35 0 0 0 -.43-1.11l-2-4c-.19-.38-.38-.78-.56-1.17a3.9 3.9 0 0 0 -.19-.35.43.43 0 0 0 -.27-.25 1.55 1.55 0 0 0 -.31 0h-4.24a1.54 1.54 0 0 0 -.3 0 .48.48 0 0 0 -.28.24l-.12.19c-.32.65-.65 1.29-1 2s-.51 1.09-.77 1.61l-.86 1.73c-.09.19-.19.39-.28.59a2 2 0 0 0 -.14.53h-.2a9.42 9.42 0 0 0 -.48-1.06c-.21-.43-.43-.86-.63-1.33l-.24-.51c-.53-1.06-1.06-2.12-1.58-3.18-.08-.14-.15-.28-.22-.42s-.26-.34-.42-.35a5.25 5.25 0 0 0 -.56 0h-3.92c-.47 0-.53.06-.86.72l-2.37 4.75c-.12.25-.24.5-.34.77a3 3 0 0 0 -.15.64h-.3a5 5 0 0 0 -.33-.9c-.1-.22-.21-.43-.32-.65-.73-1.5-1.5-2.94-2.2-4.49a5 5 0 0 0 -.3-.56.44.44 0 0 0 -.27-.24 1.65 1.65 0 0 0 -.31 0h-4.34a1.54 1.54 0 0 0 -.3 0 .46.46 0 0 0 -.28.24 2.2 2.2 0 0 0 -.15.26c-.17.34-.33.68-.5 1l-.48 1-1.54 3.1c-.11.22-.21.44-.31.66a2.44 2.44 0 0 0 -.16.52h-.2a3.21 3.21 0 0 0 -.12-.33c-.22-.48-.43-1-.65-1.42-.73-1.48-1.46-2.94-2.19-4.4l-.23-.42a.45.45 0 0 0 -.32-.27 2.92 2.92 0 0 0 -.51 0h-3.97a2.45 2.45 0 0 0 -.46 0 .48.48 0 0 0 -.32.27c-.13.23-.25.46-.37.7-.63 1.28-1.27 2.55-1.9 3.83-.27.55-.54 1.14-.8 1.71l-.12.33h-.2a2 2 0 0 0 -.15-.52c-.1-.23-.21-.45-.31-.67-.46-.91-.91-1.82-1.36-2.73l-.6-1.25c-.18-.39-.37-.78-.56-1.16a1.75 1.75 0 0 0 -.16-.27.47.47 0 0 0 -.27-.24 1.76 1.76 0 0 0 -.31 0h-4.34a1.76 1.76 0 0 0 -.31 0 .51.51 0 0 0 -.27.24c-.12.19-.22.42-.33.64-.18.39-.37.79-.56 1.17-.58 1.18-1.17 2.35-1.75 3.53l-.18.36a4.32 4.32 0 0 0 -.32.9h-.31a2.18 2.18 0 0 0 -.17-.72c-.1-.23-.21-.46-.32-.67-.34-.7-.69-1.4-1-2.1l-1.22-2.45c-.1-.21-.22-.42-.33-.63a.45.45 0 0 0 -.32-.27 4.38 4.38 0 0 0 -.51 0h-3.87-.46a.51.51 0 0 0 -.37.29c-.08.14-.15.28-.22.42-.21.41-.41.82-.61 1.23s-.41.81-.61 1.23c-.26.59-.53 1.14-.81 1.69s-.4.82-.61 1.23a7.56 7.56 0 0 0 -.33.76h-.21a2 2 0 0 0 -.14-.53c-.09-.2-.19-.4-.28-.59l-1.08-2.17c-.13-.26-.26-.52-.38-.8-.34-.77-.71-1.47-1.07-2.19a2.59 2.59 0 0 0 -.19-.33.41.41 0 0 0 -.28-.23 4.38 4.38 0 0 0 -.51 0h-4.2a.73.73 0 0 0 -.2 0 .35.35 0 0 0 -.23.19c-.11.17-.21.35-.31.54-.83 1.68-1.67 3.37-2.51 5a5.5 5.5 0 0 0 -.4 1h-.21a8.49 8.49 0 0 0 -.51-1.26c-.3-.6-.6-1.2-.89-1.8l-1.44-2.88-.33-.63a.49.49 0 0 0 -.33-.27 4.38 4.38 0 0 0 -.51 0h-3.89a3.73 3.73 0 0 0 -.46 0c-.1 0-.19.1-.28.23a3 3 0 0 0 -.15.26l-.68 1.38-.59 1.26-1.29 2.6c-.09.19-.19.39-.28.59a1.87 1.87 0 0 0 -.15.52h-.2c-.08-.18-.15-.38-.23-.55-.42-.84-.82-1.71-1.23-2.56-.49-1-1-2-1.48-3l-.11-.22c-.26-.5-.34-.57-.73-.59h-4.14a3.42 3.42 0 0 0 -.46 0 .47.47 0 0 0 -.33.28l-.33.62-2.45 4.91-.24.51a2.44 2.44 0 0 0 -.16.52h-.2a2.64 2.64 0 0 0 -.19-.6l-.28-.58c-.59-1.18-1.17-2.35-1.75-3.53-.24-.48-.48-1-.71-1.46a2.78 2.78 0 0 0 -.22-.42.46.46 0 0 0 -.27-.25 1.55 1.55 0 0 0 -.31 0h-4.34a1.54 1.54 0 0 0 -.3 0 .47.47 0 0 0 -.28.23 2.34 2.34 0 0 0 -.15.27c-.22.43-.44.85-.64 1.31s-.49 1-.74 1.53-.57 1.15-.86 1.72c-.15.32-.31.63-.46 1a4.48 4.48 0 0 0 -.29.83h-.3a2.25 2.25 0 0 0 -.17-.62c0-.08-.07-.15-.1-.22-.34-.67-.67-1.35-1-2.06 0-.08-.07-.15-.1-.22l-1.47-3-.22-.42c-.12-.21-.26-.34-.42-.35h-.51-4c-.39 0-.47.09-.73.59-.07.15-.14.29-.22.43-.23.49-.47 1-.71 1.45-.35.7-.7 1.38-1 2.12-.09.21-.19.39-.29.59l-.5 1a5.5 5.5 0 0 0 -.3.69h-.2a2.05 2.05 0 0 0 -.15-.53l-.31-.66c-.46-.91-.91-1.82-1.36-2.73-.25-.5-.5-1-.74-1.54-.12-.28-.26-.54-.39-.8a1.73 1.73 0 0 0 -.15-.27.52.52 0 0 0 -.36-.32h-.41-4a2.69 2.69 0 0 0 -.4 0 .52.52 0 0 0 -.37.31c-.08.14-.15.28-.22.43-.31.72-.65 1.37-1 2-.5 1-1 2-1.51 3a5.25 5.25 0 0 0 -.39 1h-.21c-.06-.16-.12-.33-.19-.48-.23-.5-.45-1-.69-1.49q-1-2.1-2.08-4.18l-.18-.35c-.12-.21-.26-.34-.42-.35h-.51-3.83a3.42 3.42 0 0 0 -.46 0 .42.42 0 0 0 -.28.22 2.4 2.4 0 0 0 -.16.27c-.31.62-.63 1.24-.92 1.88l-.78 1.62c-.3.6-.6 1.2-.89 1.8-.09.17-.17.35-.25.52a2 2 0 0 0 -.14.53h-.31a3 3 0 0 0 -.21-.68c-.08-.18-.17-.35-.25-.51-.44-.89-.88-1.78-1.33-2.67-.16-.34-.32-.69-.49-1s-.47-1-.71-1.46a2.2 2.2 0 0 0 -.15-.26.41.41 0 0 0 -.28-.23 4.38 4.38 0 0 0 -.51 0h-3.89a3.73 3.73 0 0 0 -.46 0 .48.48 0 0 0 -.32.27c-.09.16-.18.32-.26.49l-2.22 4.47c-.16.31-.3.65-.44 1a2.23 2.23 0 0 0 -.16.63h-.31a3.71 3.71 0 0 0 -.15-.4c-.29-.62-.57-1.25-.87-1.85-.63-1.29-1.26-2.56-1.9-3.83-.07-.14-.14-.28-.22-.42s-.25-.34-.41-.35h-.51-3.84a3.57 3.57 0 0 0 -.46 0 .44.44 0 0 0 -.28.22l-.12.2c-.35.69-.7 1.37-1 2.1-.19.4-.37.79-.56 1.18-.29.58-.58 1.14-.86 1.72-.14.27-.26.54-.39.81a2.57 2.57 0 0 0 -.18.61h-.31a2.09 2.09 0 0 0 -.17-.61l-.24-.52c-.28-.55-.56-1.1-.83-1.65-.13-.27-.27-.53-.39-.81-.4-.91-.85-1.75-1.27-2.62-.08-.14-.15-.28-.23-.4a.4.4 0 0 0 -.28-.23 4.38 4.38 0 0 0 -.51 0h-3.84a3.55 3.55 0 0 0 -.46 0c-.16 0-.3.14-.41.35s-.18.33-.26.5l-1.83 3.67-.18.37-.66 1.41a3.94 3.94 0 0 0 -.22.55h-.2a3.22 3.22 0 0 0 -.15-.52l-.25-.52-.86-1.72-1.58-3.17-.26-.5c-.14-.27-.3-.42-.5-.43h-.51-3.79a3.57 3.57 0 0 0 -.46 0 .43.43 0 0 0 -.28.23 1.61 1.61 0 0 0 -.15.26c-.21.41-.41.82-.61 1.24s-.32.69-.49 1-.47 1-.71 1.44l-.83 1.66a4.88 4.88 0 0 0 -.36 1h-.3a2 2 0 0 0 -.14-.53c-.12-.25-.23-.5-.35-.74-.42-.84-.85-1.66-1.24-2.56 0-.1-.09-.19-.14-.29-.32-.65-.64-1.3-1-2l-.25-.48a.51.51 0 0 0 -.38-.3h-.51-4c-.38 0-.46.09-.72.59a3 3 0 0 0 -.18.36l-.83 1.66-.31.66c-.21.49-.44.95-.67 1.4l-.57 1.16-.24.52a1.65 1.65 0 0 0 -.14.53h-.31a6.08 6.08 0 0 0 -.43-1.12c-.59-1.17-1.18-2.35-1.76-3.53-.25-.5-.51-1-.74-1.54-.07-.15-.14-.28-.22-.42a.43.43 0 0 0 -.28-.23 4.38 4.38 0 0 0 -.51 0h-3.89a2.83 2.83 0 0 0 -.41 0c-.16 0-.3.14-.41.35s-.15.28-.22.42c-.82 1.64-1.63 3.27-2.44 4.91l-.21.44a2 2 0 0 0 -.16.73h-.31c-.07-.18-.14-.38-.22-.55-.42-.83-.83-1.71-1.24-2.56-.48-1-1-2-1.47-3l-.18-.36c-.15-.31-.34-.44-.55-.44h-4.14-.46a.58.58 0 0 0 -.47.37c-.08.16-.17.32-.25.49-.27.53-.53 1.06-.79 1.59l-.42.88c-.19.39-.37.79-.56 1.18l-.65 1.29-.21.45a2.09 2.09 0 0 0 -.17.61h-.31a2.49 2.49 0 0 0 -.18-.6c-.09-.2-.19-.4-.28-.59l-1.4-2.81c-.28-.55-.55-1.1-.81-1.69-.1-.23-.21-.43-.32-.65a1.28 1.28 0 0 0 -.11-.2c-.11-.18-.23-.3-.37-.31h-.51-4.09-.21a.53.53 0 0 0 -.32.28c-.13.22-.25.46-.37.7-.71 1.41-1.41 2.83-2.12 4.25q-.29.57-.54 1.2c-.06.13-.1.27-.15.41h-.31a2.31 2.31 0 0 0 -.19-.7l-.84-1.77c-.59-1.21-1.19-2.41-1.79-3.61l-.22-.42c-.12-.21-.25-.34-.41-.35a4.41 4.41 0 0 0 -.52 0h-4.09-.2a.46.46 0 0 0 -.28.23 1.61 1.61 0 0 0 -.15.26c-.32.63-.63 1.24-.93 1.88s-.51 1.09-.78 1.62-.54 1.1-.82 1.65l-.25.51a3.11 3.11 0 0 0 -.21.69h-.31a2 2 0 0 0 -.14-.52c-.09-.2-.19-.4-.28-.59-.77-1.57-1.56-3.08-2.3-4.7-.11-.25-.24-.48-.36-.71a.54.54 0 0 0 -.42-.34h-.5-2.35v-43.98h577.55v44.12h-1.58a2.69 2.69 0 0 0 -.4 0 .53.53 0 0 0 -.33.26 1.28 1.28 0 0 0 -.11.2c-.32.64-.65 1.28-1 1.94s-.49 1-.74 1.54l-.89 1.79-.24.52a2.36 2.36 0 0 0 -.18.6h-.2a2.44 2.44 0 0 0 -.16-.52c-.09-.2-.19-.39-.28-.59-.48-1-1-1.93-1.43-2.9-.28-.55-.55-1.1-.81-1.69-.09-.2-.19-.39-.28-.59-.18-.39-.4-.61-.68-.59-.1 0-.2 0-.31 0h-4.25a1.38 1.38 0 0 0 -.2 0 .46.46 0 0 0 -.28.24c-.09.15-.18.31-.26.47q-1.26 2.54-2.51 5.07a3.9 3.9 0 0 1 -.19.35c-.19.33-.4.34-.6 0a4.68 4.68 0 0 1 -.3-.55c-.12-.28-.25-.56-.38-.82-.65-1.33-1.31-2.65-2-4l-.18-.36c-.17-.34-.37-.48-.6-.48h-4.61a.65.65 0 0 0 -.2 0 .41.41 0 0 0 -.24.2 1.61 1.61 0 0 0 -.15.26c-.21.41-.41.82-.61 1.23-.11.25-.22.51-.34.75l-1.58 3.17c-.09.17-.17.34-.26.49a1 1 0 0 1 -.17.22.19.19 0 0 1 -.3 0 1 1 0 0 1 -.17-.22l-.26-.49c-.42-.84-.84-1.68-1.25-2.53-.09-.16-.17-.33-.25-.51-.3-.7-.63-1.33-1-2l-.15-.27a.54.54 0 0 0 -.42-.34h-.41-4.2c-.41 0-.49.07-.77.65-.57 1.16-1.16 2.28-1.7 3.5-.09.21-.19.4-.28.59l-.54 1.09-.24.52a1.65 1.65 0 0 0 -.09.68z" fill="#494949"/><path d="m2219.6 1404h1153.4v114h-1153.4z" fill="#919191"/><path d="m2219.47 1454 50.09 28 48.09-28 47.08 28 48.09-28 49.09 28 46.08-30 50.1 30 48.08-30 48.09 30 47.08-28 50.1 28 46.08-28 49.09 28 48.09-28 48.08 28 48.09-30 50.09 30 46.09-28 48.08 28 48.09-30 49.09 30 48.09-28 48.08 28 44.09-28v-38l-42.08 27-50.09-28-47.09 29-50.09-29-47.08 28-48.09-28-49.09 28-48.09-28-48.09 30-48.08-30-49.09 29-48.09-29-46.08 28-50.1-28-47.08 29-48.09-29-48.08 28-48.09-28-49.09 29-48.09-29-47.08 28-49.09-28-47.09 28-50.09-27z" fill="#666"/><path d="m2219.47 1485 48.09 25 49.09-28 49.09 28 47.08-28 51.09 28 46.09-28 49.09 28 47.08-28 48.09 28 47.08-28 51.1 28 45.08-28 49.09 28 48.09-28 49.09 28 47.08-28 48.09 28 47.08-28 50.1 28 46.08-28 51.09 28 45.08-28 50.09 28 44.09-25v33h-1153.1z" fill="#666"/><path d="m2753.59 1428h-.2a17.53 17.53 0 0 0 -.73-1.69l-2-4c-.09-.2-.19-.38-.28-.58-.19-.4-.41-.6-.68-.57h-4.45a1.54 1.54 0 0 0 -.3 0 .45.45 0 0 0 -.28.24c-.1.18-.2.37-.29.56l-.45 1-1.83 3.67c-.1.22-.21.43-.32.64a1.06 1.06 0 0 1 -.17.23.21.21 0 0 1 -.34 0 1.46 1.46 0 0 1 -.17-.24c-.09-.15-.17-.32-.26-.49-.33-.67-.66-1.34-1-2-.08-.17-.17-.34-.24-.52-.37-.84-.78-1.61-1.17-2.4l-.18-.35c-.11-.18-.23-.3-.37-.31h-.51-3.83c-.12 0-.24 0-.36 0s-.47.15-.64.52l-.18.36c-.3.6-.6 1.2-.89 1.8-.11.22-.21.44-.32.67-.19.39-.37.79-.56 1.17s-.4.82-.61 1.23l-.24.52a2.18 2.18 0 0 0 -.17.61h-.21a5.49 5.49 0 0 0 -.44-1.1c-.24-.49-.47-1-.71-1.45l-1.61-3.24c-.08-.16-.17-.33-.25-.5-.26-.49-.35-.57-.73-.59h-4.43c-.25 0-.47.14-.64.51-.08.18-.17.34-.25.5-.71 1.42-1.41 2.83-2.11 4.25-.11.22-.21.44-.31.66a6.72 6.72 0 0 0 -.38 1h-.21a2.18 2.18 0 0 0 -.17-.61c-.1-.23-.21-.45-.32-.66-.41-.85-.84-1.67-1.23-2.56a2.59 2.59 0 0 0 -.14-.29l-1-2c-.09-.16-.17-.33-.26-.48s-.23-.29-.37-.3h-.41-4.34-.15a.5.5 0 0 0 -.28.23l-.12.19c-.37.75-.74 1.49-1.1 2.25-.21.44-.41.89-.63 1.32l-.82 1.65c-.09.17-.17.34-.25.51a3.11 3.11 0 0 0 -.21.69h-.2a2 2 0 0 0 -.15-.52c-.09-.2-.19-.4-.28-.59l-1.47-3c-.33-.67-.67-1.33-1-2a4.3 4.3 0 0 0 -.21-.43c-.11-.18-.23-.3-.37-.31h-.51-3.88a3.55 3.55 0 0 0 -.46 0c-.16 0-.3.14-.41.35s-.17.33-.26.5c-.53 1.08-1.07 2.16-1.61 3.24l-.27.59c-.2.42-.4.84-.59 1.26a9.58 9.58 0 0 0 -.41.91h-.2a2.16 2.16 0 0 0 -.17-.62l-.24-.51c-.2-.41-.41-.82-.59-1.26-.08-.18-.16-.35-.25-.51-.52-1.06-1.05-2.12-1.57-3.17l-.15-.29c-.16-.33-.35-.51-.59-.51h-4.64-.15a.47.47 0 0 0 -.28.23 3.72 3.72 0 0 0 -.19.34c-.29.57-.58 1.14-.85 1.75-.12.28-.25.54-.38.81l-1.29 2.59c-.1.19-.19.39-.28.59a1.65 1.65 0 0 0 -.14.53h-.21a5 5 0 0 0 -.39-1c-.44-.88-.88-1.77-1.33-2.66-.33-.67-.67-1.33-1-2-.09-.2-.19-.39-.28-.58l-.12-.2c-.1-.18-.22-.3-.36-.31h-.51-4.14c-.38 0-.46.09-.72.59a2.26 2.26 0 0 0 -.11.22l-1.47 3-.21.44c-.23.54-.48 1-.73 1.55l-.27.6a2 2 0 0 0 -.14.53h-.21c-.06-.16-.11-.33-.18-.48-.31-.67-.61-1.35-.94-2s-.67-1.34-1-2l-.75-1.51c-.1-.2-.2-.38-.3-.56a.48.48 0 0 0 -.37-.3h-.51-4-.21a.6.6 0 0 0 -.46.37l-.22.42c-.85 1.7-1.69 3.41-2.54 5.11l-.21.44a3.22 3.22 0 0 0 -.15.52h-.2a3 3 0 0 0 -.19-.6c-.1-.23-.2-.45-.31-.67-.41-.81-.81-1.63-1.22-2.45l-.45-1-.81-1.67a1.75 1.75 0 0 0 -.16-.27.44.44 0 0 0 -.28-.23 3.42 3.42 0 0 0 -.45 0h-4.29-.15a.5.5 0 0 0 -.37.3l-.3.56c-.3.59-.59 1.2-.89 1.8-.11.21-.22.42-.32.65-.32.74-.67 1.43-1 2.12-.12.24-.24.48-.35.73a2.33 2.33 0 0 0 -.21.69h-.2a2.55 2.55 0 0 0 -.12-.44c-.06-.13-.11-.26-.17-.38-.9-1.79-1.79-3.59-2.69-5.39a3.65 3.65 0 0 0 -.18-.34c-.11-.18-.23-.29-.37-.3h-.51-3.78c-.11 0-.23 0-.35 0s-.47.15-.64.52a.43.43 0 0 1 0 .07l-1.92 3.9v.07c-.24.57-.5 1.1-.76 1.62a5.66 5.66 0 0 0 -.3.7h-.2a2 2 0 0 0 -.14-.53c-.09-.2-.18-.4-.28-.59-.32-.65-.64-1.3-1-2-.11-.24-.24-.48-.35-.73-.37-.84-.77-1.61-1.16-2.41-.07-.14-.15-.27-.23-.4a.46.46 0 0 0 -.28-.23 1.54 1.54 0 0 0 -.3 0h-4.34a1.55 1.55 0 0 0 -.31 0 .5.5 0 0 0 -.28.23 2 2 0 0 0 -.11.2c-.39.77-.78 1.52-1.15 2.31-.29.62-.58 1.23-.88 1.83s-.47 1-.71 1.44a8 8 0 0 0 -.37.83h-.11a4.89 4.89 0 0 0 -.4-1c-.35-.7-.69-1.4-1-2.09-.46-.94-.93-1.88-1.4-2.81-.1-.22-.22-.43-.33-.63a.45.45 0 0 0 -.33-.27 2.92 2.92 0 0 0 -.51 0h-3.88a3.57 3.57 0 0 0 -.46 0c-.12 0-.23.11-.33.27l-.33.62-1.65 3.33-.9 1.92a1.11 1.11 0 0 1 -.07.16 2.67 2.67 0 0 0 -.13.54h-.2a6.68 6.68 0 0 0 -.34-.76c-.45-.92-.9-1.83-1.34-2.77s-.9-1.83-1.36-2.74a2.27 2.27 0 0 0 -.19-.34.45.45 0 0 0 -.27-.23 1.76 1.76 0 0 0 -.31 0h-4.34a1.54 1.54 0 0 0 -.3 0 .46.46 0 0 0 -.28.24c-.1.18-.2.36-.29.56-.23.54-.49 1-.74 1.54l-1.64 3.32c-.11.21-.21.43-.32.66a2 2 0 0 0 -.15.52h-.2a5 5 0 0 0 -.33-.9c-.08-.17-.16-.34-.25-.5-.61-1.23-1.21-2.45-1.82-3.67l-.57-1.17a2.31 2.31 0 0 0 -.18-.35.46.46 0 0 0 -.27-.25 5.27 5.27 0 0 0 -.56 0h-4a2.85 2.85 0 0 0 -.41 0 .48.48 0 0 0 -.28.22c-.06.11-.13.22-.19.34l-1.71 3.45-.11.23c-.2.49-.43.94-.66 1.4-.09.19-.19.38-.28.58a2.25 2.25 0 0 0 -.16.62h-.31a2.25 2.25 0 0 0 -.17-.62 2.29 2.29 0 0 0 -.1-.23c-.34-.66-.67-1.35-1-2.05 0-.08-.07-.15-.11-.22l-1.47-3c-.08-.17-.17-.33-.26-.49a.45.45 0 0 0 -.32-.27 4.38 4.38 0 0 0 -.51 0h-3.88a2.32 2.32 0 0 0 -.46 0 .44.44 0 0 0 -.33.27l-.33.62c-.66 1.32-1.32 2.65-2 4-.26.53-.5 1.09-.75 1.64a3.21 3.21 0 0 0 -.12.33h-.21a2 2 0 0 0 -.15-.52c-.09-.2-.18-.4-.28-.59-.49-1-1-2-1.46-3-.34-.68-.68-1.34-1-2a4.48 4.48 0 0 0 -.26-.49.47.47 0 0 0 -.27-.24 1.76 1.76 0 0 0 -.31 0h-4.34a1.54 1.54 0 0 0 -.3 0 .44.44 0 0 0 -.28.23l-.3.55-1.14 2.3c-.1.2-.19.39-.28.59-.2.46-.42.9-.63 1.33l-.54 1.08a5.27 5.27 0 0 0 -.33.76h-.21a2.05 2.05 0 0 0 -.2-.7c-.26-.57-.52-1.15-.79-1.7l-1.86-3.76c-.08-.14-.15-.28-.23-.41a.45.45 0 0 0 -.32-.27 2.92 2.92 0 0 0 -.51 0h-3.89a2.45 2.45 0 0 0 -.46 0 .45.45 0 0 0 -.32.27l-.3.55c-.72 1.45-1.43 2.89-2.15 4.33-.26.54-.51 1.09-.73 1.69h-.2a2 2 0 0 0 -.14-.53l-.21-.45-1-2.09c-.12-.24-.24-.47-.35-.73-.37-.84-.77-1.61-1.16-2.4-.08-.14-.15-.28-.23-.41a.46.46 0 0 0 -.28-.23 1.54 1.54 0 0 0 -.3 0h-4.34a1.76 1.76 0 0 0 -.31 0 .47.47 0 0 0 -.27.24 2.26 2.26 0 0 0 -.16.26c-.19.39-.38.77-.56 1.17s-.4.84-.6 1.24l-1.35 2.74c-.11.22-.22.44-.32.66a2 2 0 0 0 -.15.53h-.2c-.05-.14-.1-.28-.15-.4-.21-.46-.41-.92-.62-1.35-.73-1.48-1.46-2.94-2.18-4.41-.08-.14-.15-.28-.23-.41a.45.45 0 0 0 -.32-.27 2.92 2.92 0 0 0 -.51 0h-3.89a3.73 3.73 0 0 0 -.46 0 .45.45 0 0 0 -.32.27c-.11.2-.23.41-.33.63l-1.44 2.89-1.12 2.35v.08a2 2 0 0 0 -.16.62h-.31a2.34 2.34 0 0 0 -.24-.76c-.24-.48-.48-1-.71-1.44s-.39-.76-.57-1.17c-.44-1-.91-1.89-1.38-2.83a4 4 0 0 0 -.22-.41.46.46 0 0 0 -.28-.23 4.38 4.38 0 0 0 -.51 0h-4.25a.64.64 0 0 0 -.2 0 .49.49 0 0 0 -.28.24 4.13 4.13 0 0 0 -.22.42c-.22.51-.46 1-.7 1.47l-1.6 3.24c-.11.22-.22.44-.32.66a5.47 5.47 0 0 0 -.3.81h-.21a1.89 1.89 0 0 0 -.12-.44c-.05-.13-.11-.25-.17-.37l-2.68-5.4a3.72 3.72 0 0 0 -.19-.34.5.5 0 0 0 -.37-.3 5.12 5.12 0 0 0 -.56 0h-4.08-.2a.5.5 0 0 0 -.28.23 4 4 0 0 0 -.22.41c-.61 1.22-1.22 2.43-1.82 3.67-.32.65-.63 1.33-1 2-.08.17-.15.37-.22.55h-.2a2.44 2.44 0 0 0 -.18-.61c-.1-.23-.2-.45-.31-.67-.25-.51-.51-1-.75-1.53-.54-1.2-1.13-2.32-1.7-3.49l-.15-.27c-.1-.15-.21-.26-.33-.27a2.71 2.71 0 0 0 -.41 0h-4.09a2 2 0 0 0 -.35 0 .54.54 0 0 0 -.37.33 2.44 2.44 0 0 0 -.14.28c-.82 1.63-1.63 3.27-2.44 4.9a9.13 9.13 0 0 0 -.55 1.34h-.2a6.77 6.77 0 0 0 -.43-1.11c-.66-1.32-1.32-2.64-2-4-.19-.38-.37-.78-.56-1.17l-.18-.35a.44.44 0 0 0 -.28-.25 1.54 1.54 0 0 0 -.3 0h-4.34a1.54 1.54 0 0 0 -.3 0 .48.48 0 0 0 -.28.24l-.12.19c-.32.65-.65 1.29-1 2s-.5 1.09-.77 1.61-.57 1.15-.85 1.73c-.1.19-.19.39-.28.59a1.65 1.65 0 0 0 -.14.53h-.21a9.4 9.4 0 0 0 -.47-1.06c-.22-.43-.43-.86-.63-1.33-.08-.17-.16-.34-.25-.51l-1.57-3.18-.22-.42c-.12-.22-.26-.34-.42-.35a5.12 5.12 0 0 0 -.56 0h-3.93c-.47 0-.53.06-.86.72l-2.37 4.75c-.12.25-.23.5-.33.77a3 3 0 0 0 -.15.64h-.31a4.32 4.32 0 0 0 -.32-.9l-.32-.65c-.73-1.5-1.5-2.94-2.2-4.49-.09-.2-.19-.38-.29-.56a.48.48 0 0 0 -.28-.24 1.54 1.54 0 0 0 -.3 0h-4.27a1.54 1.54 0 0 0 -.3 0 .48.48 0 0 0 -.28.24l-.15.26c-.17.34-.33.68-.49 1s-.32.69-.49 1l-1.53 3.1-.32.66a2 2 0 0 0 -.15.52h-.2l-.12-.33c-.22-.48-.43-1-.65-1.42-.73-1.48-1.46-2.94-2.19-4.4-.07-.15-.15-.28-.22-.42s-.21-.26-.33-.27a2.92 2.92 0 0 0 -.51 0h-3.88a2.32 2.32 0 0 0 -.46 0 .47.47 0 0 0 -.33.27c-.12.23-.25.46-.37.7-.63 1.28-1.27 2.55-1.89 3.83-.28.55-.54 1.14-.8 1.71a3.21 3.21 0 0 0 -.12.33h-.2a2.45 2.45 0 0 0 -.15-.52c-.1-.23-.21-.45-.31-.67-.46-.91-.91-1.82-1.36-2.73-.2-.41-.39-.84-.59-1.25l-.57-1.16-.15-.27a.48.48 0 0 0 -.28-.24 1.54 1.54 0 0 0 -.3 0h-4.31a1.54 1.54 0 0 0 -.3 0 .49.49 0 0 0 -.28.24 5.46 5.46 0 0 0 -.32.64c-.19.39-.37.79-.56 1.17-.58 1.18-1.17 2.35-1.75 3.53l-.18.36a4.32 4.32 0 0 0 -.32.9h-.29a2.18 2.18 0 0 0 -.17-.72c-.1-.23-.21-.46-.31-.67-.35-.7-.7-1.4-1-2.1s-.81-1.63-1.22-2.45l-.33-.63c-.1-.16-.21-.26-.33-.27a4.38 4.38 0 0 0 -.51 0h-3.83a3.44 3.44 0 0 0 -.46 0 .49.49 0 0 0 -.37.29c-.08.14-.16.28-.23.42-.2.41-.4.82-.61 1.23s-.41.81-.6 1.23c-.26.59-.53 1.14-.81 1.69s-.4.82-.61 1.23a7.56 7.56 0 0 0 -.33.76h-.28a1.65 1.65 0 0 0 -.14-.53c-.09-.2-.18-.4-.28-.59-.36-.72-.72-1.44-1.07-2.17-.13-.26-.27-.52-.39-.8-.34-.77-.7-1.47-1.06-2.19-.06-.12-.13-.23-.19-.33a.43.43 0 0 0 -.28-.23 4.38 4.38 0 0 0 -.51 0h-4.19a.8.8 0 0 0 -.21 0 .4.4 0 0 0 -.23.19q-.15.26-.3.54c-.84 1.68-1.67 3.37-2.51 5a6.27 6.27 0 0 0 -.4 1h-.2a8.5 8.5 0 0 0 -.52-1.26l-.89-1.8c-.48-1-1-1.92-1.43-2.88-.11-.22-.22-.43-.34-.63a.48.48 0 0 0 -.32-.27 4.38 4.38 0 0 0 -.51 0h-3.88a3.42 3.42 0 0 0 -.46 0 .41.41 0 0 0 -.28.23 1.61 1.61 0 0 0 -.15.26c-.23.46-.46.92-.68 1.38l-.59 1.26-1.29 2.6c-.09.19-.19.39-.28.59a1.87 1.87 0 0 0 -.15.52h-.2c-.08-.18-.14-.38-.23-.55-.42-.84-.82-1.71-1.23-2.56-.48-1-1-2-1.47-3l-.11-.22c-.26-.5-.34-.57-.73-.59h-4.14a3.57 3.57 0 0 0 -.46 0 .47.47 0 0 0 -.32.28c-.12.2-.23.41-.33.62-.82 1.64-1.63 3.27-2.44 4.91-.09.17-.17.34-.25.51a2.44 2.44 0 0 0 -.16.52h-.2a2.64 2.64 0 0 0 -.19-.6c-.09-.19-.18-.39-.28-.58-.58-1.18-1.16-2.35-1.75-3.53-.24-.48-.48-1-.7-1.46a4.13 4.13 0 0 0 -.22-.42.49.49 0 0 0 -.27-.25 1.65 1.65 0 0 0 -.31 0h-4.33a1.54 1.54 0 0 0 -.3 0 .47.47 0 0 0 -.28.23c-.05.09-.11.17-.16.27-.21.43-.43.85-.63 1.31s-.49 1-.74 1.53-.57 1.15-.86 1.72l-.45 1a3.85 3.85 0 0 0 -.29.83h-.31a2.25 2.25 0 0 0 -.16-.62l-.11-.22c-.33-.67-.66-1.35-1-2.06a1.51 1.51 0 0 0 -.11-.22c-.48-1-1-2-1.46-3-.08-.14-.15-.28-.22-.42s-.26-.34-.42-.35h-.51-4c-.39 0-.47.09-.73.59-.07.15-.14.29-.22.43-.23.49-.47 1-.71 1.45-.35.7-.7 1.38-1 2.12-.09.21-.19.39-.28.59l-.51 1a5.5 5.5 0 0 0 -.29.69h-.2a2.05 2.05 0 0 0 -.14-.53l-.32-.66-1.35-2.73c-.25-.5-.51-1-.74-1.54-.12-.28-.26-.54-.39-.8a1.73 1.73 0 0 0 -.15-.27.52.52 0 0 0 -.36-.32 2.83 2.83 0 0 0 -.41 0h-4a2.69 2.69 0 0 0 -.4 0c-.15 0-.27.13-.37.31s-.15.28-.22.43c-.31.72-.65 1.37-1 2l-1.5 3a4.69 4.69 0 0 0 -.4 1h-.2c-.07-.16-.12-.33-.19-.48-.23-.5-.45-1-.69-1.49q-1-2.1-2.08-4.18l-.18-.35c-.12-.21-.25-.34-.41-.35h-.51-3.83a3.42 3.42 0 0 0 -.46 0 .42.42 0 0 0 -.28.22 2.4 2.4 0 0 0 -.16.27c-.31.62-.62 1.24-.92 1.88s-.51 1.09-.77 1.62l-.9 1.8-.24.52a1.65 1.65 0 0 0 -.14.53h-.31a3 3 0 0 0 -.21-.68l-.25-.51-1.33-2.67c-.16-.34-.32-.69-.49-1s-.47-1-.7-1.46a2.26 2.26 0 0 0 -.16-.26.41.41 0 0 0 -.28-.23 4.38 4.38 0 0 0 -.51 0h-3.88a3.73 3.73 0 0 0 -.46 0 .48.48 0 0 0 -.32.27c-.09.16-.18.32-.26.49l-2.22 4.47c-.15.31-.29.65-.44 1a1.94 1.94 0 0 0 -.15.63h-.32a3.71 3.71 0 0 0 -.15-.4c-.29-.62-.57-1.25-.87-1.85-.63-1.29-1.26-2.56-1.89-3.83l-.23-.42c-.11-.21-.25-.34-.41-.35h-.51-3.83a3.73 3.73 0 0 0 -.46 0c-.1 0-.19.1-.28.22l-.12.2c-.35.69-.7 1.37-1 2.1-.18.4-.37.79-.56 1.18-.28.58-.57 1.14-.86 1.72-.13.27-.26.54-.38.81a2.57 2.57 0 0 0 -.18.61h-.31a2.09 2.09 0 0 0 -.17-.61c-.08-.18-.16-.35-.25-.52l-.82-1.65c-.13-.27-.27-.53-.39-.81-.4-.91-.84-1.75-1.27-2.62a3.81 3.81 0 0 0 -.23-.4.38.38 0 0 0 -.28-.23 4.38 4.38 0 0 0 -.51 0h-3.83a3.55 3.55 0 0 0 -.46 0c-.16 0-.29.14-.41.35s-.17.33-.26.5c-.61 1.22-1.21 2.45-1.82 3.67l-.18.37-.66 1.41a3.94 3.94 0 0 0 -.22.55h-.2a2.44 2.44 0 0 0 -.16-.52l-.24-.52-.86-1.72c-.53-1.06-1-2.12-1.58-3.17-.08-.17-.17-.33-.25-.5s-.31-.42-.51-.43h-.51-3.89a3.73 3.73 0 0 0 -.46 0c-.1 0-.19.1-.28.23a3 3 0 0 0 -.15.26l-.6 1.24c-.17.34-.32.69-.49 1l-.72 1.44c-.27.56-.54 1.11-.82 1.66a4.88 4.88 0 0 0 -.36 1h-.3a2 2 0 0 0 -.14-.53c-.12-.25-.23-.5-.35-.74-.42-.84-.84-1.66-1.23-2.56-.05-.1-.1-.19-.14-.29-.33-.65-.65-1.3-1-2-.08-.16-.17-.33-.26-.48a.48.48 0 0 0 -.37-.3h-.51-4c-.39 0-.47.09-.73.59l-.18.36c-.27.56-.55 1.11-.82 1.66-.11.22-.22.44-.32.66-.21.49-.43.95-.66 1.4l-.57 1.16-.24.52a1.65 1.65 0 0 0 -.14.53h-.31a4.93 4.93 0 0 0 -.43-1.12c-.59-1.17-1.17-2.35-1.76-3.53-.25-.5-.5-1-.74-1.54a3.36 3.36 0 0 0 -.22-.42c-.08-.13-.17-.22-.27-.23a4.38 4.38 0 0 0 -.51 0h-3.89a2.69 2.69 0 0 0 -.4 0c-.16 0-.3.14-.42.35l-.22.42-2.43 4.91-.21.44a2 2 0 0 0 -.16.73h-.31c-.07-.18-.14-.38-.22-.55-.42-.83-.82-1.71-1.23-2.56-.48-1-1-2-1.47-3l-.18-.36c-.15-.31-.34-.44-.55-.44h-4.14-.46a.58.58 0 0 0 -.46.37l-.26.49-.78 1.59-.42.88c-.19.39-.37.79-.56 1.18l-.65 1.29-.21.45a2.09 2.09 0 0 0 -.17.61h-.31a2.49 2.49 0 0 0 -.18-.6c-.09-.2-.18-.4-.28-.59-.46-.94-.93-1.87-1.39-2.81-.28-.55-.56-1.1-.81-1.69-.1-.23-.21-.43-.32-.65l-.11-.2c-.11-.18-.23-.3-.37-.31h-.51-4.09a.69.69 0 0 0 -.2 0 .53.53 0 0 0 -.32.28c-.13.22-.25.46-.37.7q-1.07 2.11-2.11 4.25c-.19.38-.38.78-.55 1.2l-.15.41h-.3a2.63 2.63 0 0 0 -.2-.7c-.28-.59-.55-1.19-.83-1.77-.6-1.21-1.19-2.41-1.79-3.61l-.22-.42c-.12-.21-.25-.34-.41-.35h-.51-4.09a.69.69 0 0 0 -.2 0 .44.44 0 0 0 -.28.23 1.64 1.64 0 0 0 -.16.26c-.31.63-.62 1.24-.92 1.88s-.51 1.09-.77 1.62l-.83 1.65-.24.51a2.33 2.33 0 0 0 -.21.69h-.31a2 2 0 0 0 -.15-.52c-.09-.2-.18-.4-.28-.59-.76-1.57-1.56-3.08-2.29-4.7-.11-.25-.24-.48-.36-.71a.54.54 0 0 0 -.42-.34h-.5-2.34v-43.98h576.56v44.12h-1.58a2.83 2.83 0 0 0 -.41 0 .49.49 0 0 0 -.32.26l-.12.2c-.32.64-.64 1.28-1 1.94s-.49 1-.74 1.54l-.89 1.79-.24.52a2.36 2.36 0 0 0 -.18.6h-.2a2.44 2.44 0 0 0 -.16-.52c-.09-.2-.18-.39-.28-.59-.47-1-.95-1.93-1.42-2.9-.28-.55-.56-1.1-.81-1.69-.09-.2-.19-.39-.28-.59-.18-.39-.4-.61-.68-.59-.1 0-.2 0-.31 0h-4.24a1.2 1.2 0 0 0 -.2 0 .46.46 0 0 0 -.28.24l-.27.47q-1.24 2.54-2.5 5.07l-.18.35c-.19.33-.4.34-.6 0a3.57 3.57 0 0 1 -.3-.55c-.13-.28-.25-.56-.38-.82-.66-1.33-1.31-2.65-2-4l-.18-.36c-.17-.34-.37-.48-.6-.48h-4.6a.65.65 0 0 0 -.2 0 .41.41 0 0 0 -.24.2 1.61 1.61 0 0 0 -.15.26c-.21.41-.41.82-.61 1.23-.11.25-.22.51-.34.75-.53 1.06-1.05 2.12-1.58 3.17-.08.17-.17.34-.26.49a1 1 0 0 1 -.17.22.18.18 0 0 1 -.29 0 1 1 0 0 1 -.17-.22c-.09-.16-.18-.32-.26-.49l-1.26-2.53-.24-.51c-.3-.7-.63-1.33-1-2l-.15-.27a.54.54 0 0 0 -.42-.34h-.41-4.19c-.41 0-.49.07-.77.65-.57 1.16-1.16 2.28-1.7 3.5-.09.21-.18.4-.28.59l-.36 1.29-.24.52a2 2 0 0 0 -.17.48z" fill="#494949"/></svg>