<svg height="122" viewBox="0 0 198 122" width="198" xmlns="http://www.w3.org/2000/svg"><g fill="#717172"><path d="m193.73 44.75c-.43-1.11-5.54-3.1-5.54-3.1l-8.8-11.25s-16.29-1.48-17.64-1.71l-28.62-5.48-10.41-10-15.32-4.58-5.74-8.73 1.14 10.88 9.34 4.44-21 12.78-6.14-5.73-2.73-13.77-2 15.82 29 28.92c-2.48 11.29-6.25 30.4-5.61 30.14.91-.34 14.18-26 14.18-26l8.4-.17 13.6 24.56-5.51-26.17s23.11-6.88 23.58-6.21 0 27.44 0 27.44 8.1-26.33 8.77-25.43 17.43 21 17.43 21l-16.75-40.62 10.95.91 7.36 8.93.84 3.76 8.33 5.34a42.49 42.49 0 0 0 -1.11-5.97z"/><path d="m41.2 65.62 10.9 8.82-10.38-11.21c.57-.73 3.16-5.29 1.66-6.28s-5.5-2.64-8.2 0c-.72.73-1.71 3.89-.72 5.55l-3.94-.67-5.52-7.47 18.51-16.7s-32.6 25.34-41.11 31.59c5.55-3.48 20.65-12 20.65-12l5.34 6.18 7.11 2.57-1.2 23.27s4.15-11.67 4.52-11.62 7.41 16.91 7.41 15.82-5.18-17.32-5.18-17.32z"/><path d="m82.67 91.81c.72-1.29 2.38-5.29.88-6.07s-5.71-2.17-8.15.73c-.62.78-1.35 4-.26 5.6l-4-.31-6.17-7 2.18-2.7.51 1 2.18-3.27-3.11-1.66-.93 1 .84 1.87c-1.77 2-5.55 6.33-7 7.83a16.86 16.86 0 0 1 3.74-1l5.86 5.7 7.26 2 .83 23.3s3.12-12 3.48-11.94 8.86 16.11 8.75 15.11-6.69-16.81-6.69-16.81l-.72-10.53 12.76-2.75z"/></g></svg>