<svg height="333" viewBox="0 0 459 333" width="459" xmlns="http://www.w3.org/2000/svg"><g stroke-miterlimit="10"><path d="m82.97 175.49-5.63-.26 4.47-109.48 5.64.25z" fill="#5c6971" stroke="#5c6971" stroke-width="4"/><path d="m360.79 187.98-5.69-.25 4.2-102.85 5.69.26z" fill="#5c6971" stroke="#5c6971" stroke-width="4"/><path d="m395.37 113.62-336.94-15.16a2.59 2.59 0 0 1 -2.43-2.76 2.58 2.58 0 0 1 2.63-2.53l336.93 15.16a2.6 2.6 0 0 1 2.42 2.76 2.58 2.58 0 0 1 -2.61 2.53z" fill="#8ea2ad" stroke="#8ea2ad" stroke-width="6"/><g fill="#5c6971" stroke="#5c6971" stroke-width="4"><path d="m78.08 286.48-5.5-.25 7.3-178.85 5.51.25z"/><path d="m355.84 298.98-5.51-.25 7.31-178.85 5.51.24z"/><ellipse cx="75.06" cy="289.5" rx="17.15" ry="14.5"/><ellipse cx="353.3" cy="293.5" rx="17.15" ry="14.5"/></g><path d="m89.65 110.82-14.02-.63.9-22.19 14.03.63z" fill="#8ea2ad" stroke="#8ea2ad" stroke-width="5"/></g><ellipse cx="83.09" cy="99.41" fill="#a9c1ce" rx="7.16" ry="6.39" transform="matrix(.02460666 -.99969721 .99969721 .02460666 -18.33 180.02)"/><path d="m366.94 123.82-14.03-.63.91-22.19 14.02.63z" fill="#8ea2ad" stroke="#8ea2ad" stroke-miterlimit="10" stroke-width="5"/><ellipse cx="360.38" cy="112.41" fill="#a9c1ce" rx="7.16" ry="6.39" transform="matrix(.02460666 -.99969721 .99969721 .02460666 239.13 469.91)"/><path d="m283 57.19c-.36-6-.37-12.77 3.32-17.18 2.18-2.61 5.34-4 7.48-6.61 1.21-1.5 2-3.34 3.12-5s2.58-3.07 4.38-3.25c-1.22 3.24-1.13 6.86-1.54 10.34-1.11 9.35-6.17 18-13.37 23z" fill="#ef8989"/><path d="m283.38 57.19c-.36-6.3-.54-13.68 4.56-18.28 2-1.83 4.46-3.16 6.18-5.31 2.22-2.78 3.3-7.27 7.26-8l-.49-.49c-1.31 3.89-1.1 7.89-1.76 11.89a33.92 33.92 0 0 1 -3.58 10.5 31.19 31.19 0 0 1 -6.55 8.44 9.1 9.1 0 0 1 -2.2 1.78c-.69.28-.48.31-1.3 0l-2.38-.9c-.48-.19-.69.59-.21.77a21.63 21.63 0 0 0 2.77 1.06c1.08.23 1 .16 2.11-.66a30.94 30.94 0 0 0 7.34-8.13 34.42 34.42 0 0 0 4.43-10.75c1-4.55.63-9.35 2.14-13.8.11-.31-.21-.55-.49-.49-3 .56-4.49 3.15-5.92 5.59a17.69 17.69 0 0 1 -4 4.86c-1.48 1.22-3.11 2.25-4.48 3.61-4.75 4.74-4.58 12.11-4.23 18.32.02.51.82.51.8-.01z" fill="#ef8989"/><path d="m293.55 61.28c.09-3.05 2.18-5.58 4.43-7.32s4.81-3 6.74-5.2c4.76-5.37 4.19-14 3.28-21.52-7.36 4.54-15.16 9.58-18.9 18-1.63 3.67-2.73 8.23-6.09 9.86a8.76 8.76 0 0 1 -4.27.62c-7.78-.39-15.13-4-22.81-5.4-17.61-3.27-35.79 4.89-53.39 1.54-6.31-1.2-12.32-3.85-18.59-5.32a52.23 52.23 0 0 0 -41.22 8l-7.38 6.46c-3.34 3.6-5 8.68-6.27 13.68-3.23 13-4 27.72 2.07 39.41 0 0 2.82 5.44-4.5 8.6-3.21 1.38-6.64-3.45-6.49-7.3a7.89 7.89 0 0 0 -.07-3 2.62 2.62 0 0 0 -3.29-1.39 7.21 7.21 0 0 0 -3.07 2.55 11.73 11.73 0 0 0 -15.42-1 20.28 20.28 0 0 1 10.69 8.68c2.37 3.86 3.61 8.51 6.09 12.28a25 25 0 0 0 12 9.16 40.57 40.57 0 0 0 30.59-.84c9.76-4.12 20.93-14 20.93-14a96.09 96.09 0 0 0 77.39-1.32s9.26 9.76 17.44 13.45c3.54 1.59 7.47 2 10.88 4 3.16 1.79 5.69 4.74 8.79 6.65 4.91 3 10.88 3.16 16.39 2s10.73-3.64 16.07-5.61a9.88 9.88 0 0 1 4.34-.86c1.4.15 2.74.87 4.14.71s2.8-1.87 2.05-3.2a11.58 11.58 0 0 0 11.81-2.68 2.17 2.17 0 0 0 .81-1.39c0-.83-.7-1.42-1.34-1.83-6.49-4.13-13.55-8.39-21-7.42-6.84.9-13.28 6.22-20 4.72-4.45-1-7.92-4.76-11.11-8.36l3.73-3.69c3 1 5.79-2.34 8.88-3.06a14.89 14.89 0 0 1 4.52 0c3.84.29 7.93-.48 10.91-3.22a2.23 2.23 0 0 0 .75-1.08 2.14 2.14 0 0 0 -1.16-2.15 6.53 6.53 0 0 1 -2.05-1.39l-1-3.9 7.53-.79c2.81-.3 5.84-.69 8-2.8a15.59 15.59 0 0 0 2.92-5.05l3.58-8.46a4 4 0 0 0 .43-1.75c-.13-2.11-2.81-2.2-4.68-1.94a18 18 0 0 1 -15.37-5.64c-2.65-2.8-4.52-6.38-7-9.36-4.49-5.4-10.77-8.55-17.17-10.31z" fill="#f69f93"/><path d="m293.55 61.28c.09-3.05 2.18-5.58 4.43-7.32s4.81-3 6.74-5.2c4.76-5.37 4.19-14 3.28-21.52-7.36 4.54-15.16 9.58-18.9 18-1.63 3.67-2.73 8.23-6.09 9.86a8.76 8.76 0 0 1 -4.27.62c-7.78-.39-15.13-4-22.81-5.4-17.61-3.27-35.79 4.89-53.39 1.54-6.31-1.2-12.32-3.85-18.59-5.32a52.23 52.23 0 0 0 -41.22 8l-7.38 6.46c-3.34 3.6-5 8.68-6.27 13.68-3.23 13-4 27.72 2.07 39.41 0 0 2.82 5.44-4.5 8.6-3.21 1.38-6.64-3.45-6.49-7.3a7.89 7.89 0 0 0 -.07-3 2.62 2.62 0 0 0 -3.29-1.39 7.21 7.21 0 0 0 -3.07 2.55 11.73 11.73 0 0 0 -15.42-1 20.28 20.28 0 0 1 10.69 8.68c2.37 3.86 3.61 8.51 6.09 12.28a25 25 0 0 0 12 9.16 40.57 40.57 0 0 0 30.59-.84c9.76-4.12 20.93-14 20.93-14a96.09 96.09 0 0 0 77.39-1.32s9.26 9.76 17.44 13.45c3.54 1.59 7.47 2 10.88 4 3.16 1.79 5.69 4.74 8.79 6.65 4.91 3 10.88 3.16 16.39 2s10.73-3.64 16.07-5.61a9.88 9.88 0 0 1 4.34-.86c1.4.15 2.74.87 4.14.71s2.8-1.87 2.05-3.2a11.58 11.58 0 0 0 11.81-2.68 2.17 2.17 0 0 0 .81-1.39c0-.83-.7-1.42-1.34-1.83-6.49-4.13-13.55-8.39-21-7.42-6.84.9-13.28 6.22-20 4.72-4.45-1-7.92-4.76-11.11-8.36l3.73-3.69c3 1 5.79-2.34 8.88-3.06a14.89 14.89 0 0 1 4.52 0c3.84.29 7.93-.48 10.91-3.22a2.23 2.23 0 0 0 .75-1.08 2.14 2.14 0 0 0 -1.16-2.15 6.53 6.53 0 0 1 -2.05-1.39l-1-3.9 7.53-.79c2.81-.3 5.84-.69 8-2.8a15.59 15.59 0 0 0 2.92-5.05l3.58-8.46a4 4 0 0 0 .43-1.75c-.13-2.11-2.81-2.2-4.68-1.94a18 18 0 0 1 -15.37-5.64c-2.65-2.8-4.52-6.38-7-9.36-4.49-5.4-10.77-8.55-17.17-10.31z" fill="#f69f93"/><path d="m293.55 61.28c.09-3.05 2.18-5.58 4.43-7.32s4.81-3 6.74-5.2c4.76-5.37 4.19-14 3.28-21.52-7.36 4.54-15.16 9.58-18.9 18-1.63 3.67-2.73 8.23-6.09 9.86a8.76 8.76 0 0 1 -4.27.62c-7.78-.39-15.13-4-22.81-5.4-17.61-3.27-35.79 4.89-53.39 1.54-6.31-1.2-12.32-3.85-18.59-5.32a52.23 52.23 0 0 0 -41.22 8l-7.38 6.46c-3.34 3.6-5 8.68-6.27 13.68-3.23 13-4 27.72 2.07 39.41 0 0 2.82 5.44-4.5 8.6-3.21 1.38-6.64-3.45-6.49-7.3a7.89 7.89 0 0 0 -.07-3 2.62 2.62 0 0 0 -3.29-1.39 7.21 7.21 0 0 0 -3.07 2.55 11.73 11.73 0 0 0 -15.42-1 20.28 20.28 0 0 1 10.69 8.68c2.37 3.86 3.61 8.51 6.09 12.28a25 25 0 0 0 12 9.16 40.57 40.57 0 0 0 30.59-.84c9.76-4.12 20.93-14 20.93-14a96.09 96.09 0 0 0 77.39-1.32s9.26 9.76 17.44 13.45c3.54 1.59 7.47 2 10.88 4 3.16 1.79 5.69 4.74 8.79 6.65 4.91 3 10.88 3.16 16.39 2s10.73-3.64 16.07-5.61a9.88 9.88 0 0 1 4.34-.86c1.4.15 2.74.87 4.14.71s2.8-1.87 2.05-3.2a11.58 11.58 0 0 0 11.81-2.68 2.17 2.17 0 0 0 .81-1.39c0-.83-.7-1.42-1.34-1.83-6.49-4.13-13.55-8.39-21-7.42-6.84.9-13.28 6.22-20 4.72-4.45-1-7.92-4.76-11.11-8.36l3.73-3.69c3 1 5.79-2.34 8.88-3.06a14.89 14.89 0 0 1 4.52 0c3.84.29 7.93-.48 10.91-3.22a2.23 2.23 0 0 0 .75-1.08 2.14 2.14 0 0 0 -1.16-2.15 6.53 6.53 0 0 1 -2.05-1.39l-1-3.9 7.53-.79c2.81-.3 5.84-.69 8-2.8a15.59 15.59 0 0 0 2.92-5.05l3.58-8.46a4 4 0 0 0 .43-1.75c-.13-2.11-2.81-2.2-4.68-1.94a18 18 0 0 1 -15.37-5.64c-2.65-2.8-4.52-6.38-7-9.36-4.49-5.4-10.77-8.55-17.17-10.31z" fill="#f69f93"/><g fill="#ef8989"><path d="m168.05 80.64a36.63 36.63 0 0 0 -17.16 2.76 4.5 4.5 0 0 1 1.8-2.75 31 31 0 0 0 -17.12 15.46 12.08 12.08 0 0 0 -1.52 5 4.14 4.14 0 0 1 -1.51-2.11c-2.1 4.46-1 9.82-1.52 14.84 0 .09.09.17.13.26s2.82 5.44-4.5 8.6c-1.82.78-3.71-.44-5-2.34a6.57 6.57 0 0 0 1.11 3.2 5.88 5.88 0 0 0 7.44 1.58c2.5-1.24 4.29-3.81 5.51-6.55.28 1.39.55 2.78.83 4.17 1.84-5.42 1.48-11.5 3.16-17a20.79 20.79 0 0 1 11.95-13.36l-5.14.1c5.36-6.84 13.63-9.75 21.54-11.86z"/><path d="m168.05 79.44a40.48 40.48 0 0 0 -17.48 2.81l1.48 1.47 1.48-2.22c.86-.78 0-2.43-1.16-2-8.87 3.34-18.09 11.46-19.48 21.3l2-.53-1.32-1.84c-.51-1-1.85-.6-2.2.28-1.76 4.55-2 10.68-1.51 15.48 0 .48.46.9.51 1.41.36 4.07-4.51 8.18-7.86 3.94-.81-1-2.23.12-2 1.17.79 3.77 3.26 6.65 7.44 6.31 4.36-.36 7.06-4.2 8.81-7.79l-2.19-.29c.28 1.39.56 2.78.83 4.17a1.21 1.21 0 0 0 2.32 0c1.65-5.55 1.4-11.48 3.16-17a20.16 20.16 0 0 1 11.4-12.64c1.13-.49.51-2.26-.61-2.24l-5.14.1.85 2c5.44-6.56 13-9.4 21-11.58a1.2 1.2 0 0 0 -.64-2.32c-8.35 2.28-16.38 5.37-22 12.21a1.21 1.21 0 0 0 .85 2l5.14-.1-.6-2.23a21.91 21.91 0 0 0 -11.33 11c-2.93 6.29-2.38 13.48-4.34 20h2.32l-.84-4.17a1.21 1.21 0 0 0 -2.19-.28c-2 4.17-9.82 11.8-11.87 2l-2 1.17c3.61 4.56 10.29 2.79 11.83-2.9.46-1.68-.09-2.86-.31-4.45-.6-4.42-.26-10.38 1.36-14.54l-2.19.29a5.62 5.62 0 0 0 1.63 2.57 1.2 1.2 0 0 0 2-.53c1.27-9 9.68-16.56 17.8-19.62l-1.16-2a7.09 7.09 0 0 0 -2.11 3.29 1.21 1.21 0 0 0 1.48 1.47 39.08 39.08 0 0 1 16.84-2.72c1.54.04 1.54-2.36 0-2.45z"/><path d="m308 152.82c-5.85-4.45-15.11-4-20.17-10-3.12-3.69-4-9.19-7-13a7 7 0 0 0 -.45 4.76c-7.19-7.47-17.66-10.1-24.59-17.87a29.82 29.82 0 0 1 -7.23-18.4 14.06 14.06 0 0 0 -2 13.15 6.39 6.39 0 0 1 -4.72-2.91 10.43 10.43 0 0 1 -5.12 7.83c-2.64 1.62-5.66 2.21-8.62 2.78l-7.16.55a31.75 31.75 0 0 1 -32.94-7.16 26.47 26.47 0 0 0 -.49 5.55c-3-1.09-5-4.57-5.32-8.1a21.08 21.08 0 0 1 2-10.27c-2.7 1.44-4.37 4.57-5.47 7.69s-1.85 6.44-3.48 9.26c-3.71 6.42-11 8.68-16.76 12.71a9.42 9.42 0 0 1 -.43-4.83c-4.12 4.77-8.39 9.62-13.78 12.35s-12.22 2.91-16.76-1.29a5.41 5.41 0 0 0 1.57 3.65 20 20 0 0 0 -7.9-3.32c-1.53-.27-3.1-.36-4.65-.49a26.2 26.2 0 0 0 10.55 7.21 40.57 40.57 0 0 0 30.59-.84c9.76-4.12 20.93-14 20.93-14a96.09 96.09 0 0 0 77.4-1.32s9.26 9.76 17.44 13.45c3.54 1.59 7.47 2 10.88 4 3.16 1.79 5.69 4.74 8.79 6.65 4.43 2.72 9.8 3.09 14.89 2.21z"/><path d="m308.61 151.79c-4.7-3.26-10.4-3.78-15.4-6.37-6.68-3.47-7.36-10.53-11.32-16.22a1.22 1.22 0 0 0 -2.2.29 10.67 10.67 0 0 0 -.45 5.4l2-1.17c-5.24-5.15-11.8-8.14-17.83-12.18-8.16-5.48-13-13.33-13.64-23.24a1.21 1.21 0 0 0 -2.24-.6 15.74 15.74 0 0 0 -2.15 14.07l1.48-1.47a5.63 5.63 0 0 1 -4.19-2.61 1.21 1.21 0 0 0 -2 .53c-1.67 10.41-12.47 8.78-20.06 10.32-5.57 1.12-10.18 2.4-16 1.34a32 32 0 0 1 -15.81-8.18c-.6-.55-1.86-.42-2 .53a42.54 42.54 0 0 0 -.53 5.87l1.81-1c-6.67-3.29-5-11.42-2.73-17 .4-1-.93-1.89-1.76-1.35-5.26 3.43-5.93 9.3-8.13 14.71-3.22 7.91-11 10.55-17.59 15l1.76.71a8.67 8.67 0 0 1 -.38-4.51 1.21 1.21 0 0 0 -2.05-.84c-6.67 7.69-18.19 19.8-28.84 11.06a1.21 1.21 0 0 0 -2 1.16 8.16 8.16 0 0 0 1.88 4.17l1.45-1.88c-4.13-2.64-8.32-3.58-13.15-4-1.1-.09-1.5 1.33-.85 2 10.31 11.26 27.93 12.42 41.49 7 6.07-2.42 11.57-6.17 16.73-10.13 1.35-1 3-3.08 4.6-3.68 0 0 .57-.59.7-.6 1.27-.1-4.06-.31.69.75 2.19.49 4.4 1.67 6.55 2.35a97.73 97.73 0 0 0 46.65 2.98 97.15 97.15 0 0 0 11.77-2.89c2.21-.7 4.41-1.47 6.57-2.33.47-.18 4.36-2.23 3.72-2.3.78.09 2.86 2.8 3.4 3.31a85.79 85.79 0 0 0 6.63 5.55c7.28 5.47 16.21 6.6 23.25 12.28 6.12 4.94 12.07 6.55 19.89 5.41 1.52-.22.87-2.53-.64-2.31-7.64 1.11-12.9-1.11-18.76-5.82-4.08-3.27-8-4.42-12.9-6.16-7.43-2.67-13.83-8.38-19.23-14a1.24 1.24 0 0 0 -1.46-.19 96.49 96.49 0 0 1 -76.34 1.14 1.19 1.19 0 0 0 -1.17.31c-6.16 5.4-13.13 10.6-20.72 13.78-12.86 5.38-29.76 4.63-39.65-6.17l-.85 2c4.5.36 8.07 1.17 11.94 3.64 1.24.8 2.23-.89 1.45-1.88l-1.25-3.12-2 1.17c11.87 9.75 24.51-2.15 32.23-11.06l-2-.85a13.72 13.72 0 0 0 .47 5.15 1.21 1.21 0 0 0 1.76.72c5.11-3.41 11.3-5.74 15.34-10.54 4.72-5.6 4-15 10.38-19.13l-1.76-1.35c-2.67 6.61-3.81 16 3.82 19.73a1.22 1.22 0 0 0 1.81-1 26.37 26.37 0 0 1 .44-5.24l-2 .53a34.8 34.8 0 0 0 16.15 8.66c6.42 1.39 11.6.08 17.81-1.16 4-.8 7.8-.38 11.74-1.58 5.18-1.58 9.27-4.89 10.15-10.45l-2 .53a8.39 8.39 0 0 0 5.25 3.22 1.21 1.21 0 0 0 1.47-1.48 13.41 13.41 0 0 1 1.92-12.22l-2.24-.61c.55 8.14 3.64 15.87 9.76 21.43 6.81 6.19 15.82 9.2 22.41 15.69.93.92 2.16 0 2-1.17l.45-4.12-2.19.28c3.59 5.17 4.5 11.91 9.9 15.72s12.3 4 17.68 7.73c1.17.89 2.37-1.19 1.11-2.06z"/></g><path d="m302.74 79.23c.93-1 1.92 1.85 3.15 2.11a6.14 6.14 0 0 0 3.7-.45 5.3 5.3 0 0 1 1.17-.42 1.13 1.13 0 0 1 1.11.44 1.74 1.74 0 0 1 -.45 2 4.78 4.78 0 0 1 -3.33 1.42 10.46 10.46 0 0 1 -3.57-.6 3.82 3.82 0 0 1 -1.59-.81 1.72 1.72 0 0 1 -.45-1.78 1.76 1.76 0 0 1 .26-1.91z" fill="#e67877"/><path d="m285.5 94.9c-.79 4.07-.8 9.51.38 12.22a27.07 27.07 0 0 0 5.05 7l2.77 3.06c.71.79 1.59 1.64 2.58 1.42a3.94 3.94 0 0 1 -1-2.55 14.06 14.06 0 0 0 8.54 3c4.09 0 8-1.85 11.74-3.67a11.67 11.67 0 0 1 -2.84 2.6c2.57.45 5.1-.8 7.57-1.7s5.4-1.4 7.49.31a26.21 26.21 0 0 0 -7.94 3.17 14 14 0 0 1 -4.34 2.13c-2.28.43-4.62-.69-6.91-.31-1.88.31-3.51 1.59-5.26 2.43a11.9 11.9 0 0 1 -10.34-.07 5.63 5.63 0 0 1 -2.3-1.87 3.28 3.28 0 0 1 -.37-3 8.58 8.58 0 0 1 -6.37-4.85l2.57-.2a21.83 21.83 0 0 1 -1.46-22.02l1.23-1.53z" fill="#ef8989"/><path d="m284.35 94.58c-.8 4.74-1.25 10.09 1.15 14.45 2 3.64 6.32 9.75 10.46 10.73a1.22 1.22 0 0 0 1.35-1.77l-.87-2.26-1.76 1.35c7.14 4.94 14.22 2.79 21.49-.7l-1.46-1.88a10.8 10.8 0 0 1 -2.59 2.41 1.21 1.21 0 0 0 .6 2.24c4.72.26 10-4.27 14.46-1.55l.28-2.19a30.47 30.47 0 0 0 -6.71 2.44c-2.4 1.23-4 2.7-7 2.89-1.43.09-2.87-.49-4.32-.41a11.47 11.47 0 0 0 -4.8 1.56 15 15 0 0 1 -5.75 2c-2.28.14-8.27-.74-7.43-4.58a1.22 1.22 0 0 0 -.84-1.48 8.12 8.12 0 0 1 -5.66-4.29l-1 1.8 2.57-.2a1.21 1.21 0 0 0 1-1.8c-4.13-6.21-5.38-15.86-.42-22l-2-1.16-.79 4.41c-.27 1.51 2 2.16 2.31.64l.79-4.42c.19-1-1.17-2.2-2-1.16-5.65 7-4.76 17.71 0 24.93l1-1.81-2.41.23a1.22 1.22 0 0 0 -1 1.81 10.6 10.6 0 0 0 7.09 5.39l-.83-1.47c-1.37 6.22 6.79 8.33 11.56 7.39a22.1 22.1 0 0 0 4.5-1.75 14.41 14.41 0 0 1 5.95-1.52c1.17 0 2.28.37 3.46.29 4.74-.32 8.81-4.21 13.46-5.38a1.21 1.21 0 0 0 .29-2.19c-5.37-3.31-10.11 1.53-15.67 1.22l.61 2.23a17.71 17.71 0 0 0 3.08-2.79 1.2 1.2 0 0 0 -1.45-1.88c-6.47 3.1-12.71 5.1-19.07.7-.93-.64-1.95.42-1.76 1.36a5.1 5.1 0 0 0 1.11 2.83l1.35-1.76c-3.11-.73-7.14-6.44-8.64-9-2.35-4-2-8.79-1.29-13.22.16-1.55-2.15-2.2-2.4-.68z" fill="#ef8989"/><path d="m330.62 107a9.24 9.24 0 0 0 4.73-2.33 15.59 15.59 0 0 0 2.92-5.05l3.58-8.46a4 4 0 0 0 .43-1.75c-.11-1.88-2.27-2.15-4.06-2l-.39.54a17 17 0 0 0 -2.65 8 19.79 19.79 0 0 1 -.49 3.85 15.35 15.35 0 0 1 -2.51 4.3 10.89 10.89 0 0 0 -1.56 2.9z" fill="#e67877"/><path d="m142.73 54.58-7.38 6.42c-3.34 3.6-5 8.68-6.27 13.68-3.22 13-3.94 27.67 2 39.34.95-7.4-2.08-15.28-1.89-23a26.48 26.48 0 0 1 4.89-14.71l2.64 2.21a39.1 39.1 0 0 1 7.15-24.77z" fill="#ef8989"/><path d="m141.88 53.73c-2.41 2.11-5 4.08-7.29 6.37-3.72 3.8-5.41 9.26-6.66 14.29-3.31 13.3-3.94 27.67 2.15 40.27.57 1.17 2.14.46 2.24-.61.56-6.32-1.09-12.28-1.69-18.53a27.37 27.37 0 0 1 4.53-18.52l-1.89.24 2.64 2.21a1.22 1.22 0 0 0 2.05-.85 39.26 39.26 0 0 1 7-24.16 1.21 1.21 0 0 0 -1.64-1.64l-1.19.79c-1.28.85-.08 2.93 1.21 2.07l1.19-.79-1.64-1.64a41.52 41.52 0 0 0 -7.32 25.37l2.05-.85-2.62-2.25a1.22 1.22 0 0 0 -1.88.25 28.34 28.34 0 0 0 -5.12 16.25c0 7.45 2.54 14.61 1.88 22.1l2.23-.61c-6-12.41-5-26.91-1.52-39.91 1.31-4.86 3.13-9.34 6.86-12.79 2-1.82 4.06-3.54 6.09-5.31 1.2-1.07-.54-2.76-1.66-1.75z" fill="#ef8989"/><path d="m123.68 81.82a1.68 1.68 0 0 1 -.91-.5 2.32 2.32 0 0 1 -.25-1.49c.25-5.67-3.92-11.45-9-11.28a8.44 8.44 0 0 0 -7.39 6.27 9.94 9.94 0 0 0 2.75 9.88 8.44 8.44 0 0 0 4.81 2 19.06 19.06 0 0 1 -8.4 13.37c7 .22 13.57-6.7 13.83-14.54a17.54 17.54 0 0 0 14.39-.53l3.16-3.17a10.13 10.13 0 0 1 -4.5 1.4 25.07 25.07 0 0 1 -8.49-1.41zm-7.09-.42-1.1.64a4.6 4.6 0 0 1 -3.39-1.16 4.83 4.83 0 0 1 -1.53-3.53 3.36 3.36 0 0 1 .24-1.26 2.47 2.47 0 0 1 2-1.47 3.23 3.23 0 0 1 2.32.75c1.6 1.3 3.25 4.98 1.46 6.03z" fill="#f69f93"/><path d="m108.9 84.7a8.44 8.44 0 0 0 4.81 2l-.12.74a2 2 0 0 0 .37-.83c.3-1.55-1.24-2.65-2.38-3.57a11.06 11.06 0 0 1 -3.65-10.35 10.35 10.35 0 0 1 .51-1.75 9 9 0 0 0 -2.29 3.9 9.94 9.94 0 0 0 2.75 9.86z" fill="#ef8989"/><path d="m108.62 85a9.91 9.91 0 0 0 5.09 2.1l-.39-.5-.12.73a.4.4 0 0 0 .73.31c1.3-2.13-.58-3.57-2.07-4.89a10.74 10.74 0 0 1 -3-11.71.41.41 0 0 0 -.67-.39 10.21 10.21 0 0 0 .43 14.35c.38.35.94-.21.57-.57a9.39 9.39 0 0 1 -.47-13.21l-.67-.39a11.6 11.6 0 0 0 .25 8.4 10.74 10.74 0 0 0 1.54 2.61c1 1.3 4.68 3.29 3.4 5.4l.73.31.12-.74a.41.41 0 0 0 -.38-.51 8.76 8.76 0 0 1 -4.52-1.87c-.4-.33-.97.23-.57.57z" fill="#ef8989"/><path d="m133.51 85 2-2-4.13 1.38a19 19 0 0 1 -11.71-1 2.26 2.26 0 0 0 -2-.22c-.64.38-.82 1.29-1 2.08a20.92 20.92 0 0 1 -11.13 14.86c6.87 0 13.27-6.81 13.52-14.54a17.54 17.54 0 0 0 14.45-.56z" fill="#ef8989"/><path d="m133.79 85.27 2-2a.4.4 0 0 0 -.39-.66 29.8 29.8 0 0 1 -6.55 1.77 18.67 18.67 0 0 1 -6.65-.58c-1.28-.34-3.23-1.73-4.6-1-.89.45-1 1.49-1.25 2.36a23.61 23.61 0 0 1 -1.94 5.65 20.18 20.18 0 0 1 -9 9 .41.41 0 0 0 .21.75c7.85-.23 13.49-7.48 13.92-14.94l-.51.39a18.55 18.55 0 0 0 14.68-.57c.47-.22.06-.91-.4-.69a17.74 17.74 0 0 1 -14.07.49c-.25-.1-.49.15-.5.38-.4 7-5.72 13.92-13.12 14.14l.2.74a20.81 20.81 0 0 0 7.75-6.68 22.6 22.6 0 0 0 2.23-4c.64-1.51 1-6.07 3.12-6.22.81 0 2.26.87 3.08 1.1a19.25 19.25 0 0 0 2.62.51 19.61 19.61 0 0 0 5.19 0 32.74 32.74 0 0 0 5.81-1.69l-.39-.67-2 2c-.37.21.2.78.56.42z" fill="#ef8989"/></svg>