<svg height="143" viewBox="0 0 115 143" width="115" xmlns="http://www.w3.org/2000/svg"><path d="m83.21 27a3 3 0 1 1 3-3 3 3 0 0 1 -3 3zm13.25 8.67c-.17-2.38-3-2.06-3.75-3.41a5.08 5.08 0 0 0 -.09-1.92l.08-.09c-3.53.33-1.31-3.84.88-4.83l-.08-.05s.41-3.63-2-4.47c0 0-2.46-2.7-.73-5 0 0 1.09-2 .35-2.75 0 0-1.64-.07-2.2 2.52 0 0 1-4-1.54-4.16 0 0-1.63-.38-1.13 2.55 0 0-3.08-2.62-4.4-1.36 0 0-2.82 3.36 1.75 6.76a9.08 9.08 0 0 0 -1.92.34c-4.28 1.59-6.1 5.67-6.49 9.12-.71 6.51 6.81 10.68 11.3 8.95 1.24-.48 3.61-1.25 4.77-1.83a2.89 2.89 0 0 0 0 .71c.22 3 5.41 2.14 5.23-1.09z" fill="#ad4525"/><path d="m41.59 68.84c.23-.21.45-.43.67-.65 0-.14-.09-.28-.13-.42l-.17.08c-.12.34-.25.67-.37 1zm.54-1.07c0-.07-.05-.14-.07-.21 0 .1-.06.19-.1.29z" fill="none" stroke="#433a16" stroke-miterlimit="10"/><path d="m93.58 25.41c-1.57.71-3.16 3.06-2.62 4.21a5 5 0 0 1 4.64.15 8.92 8.92 0 0 1 .89.16 5.63 5.63 0 0 0 -2.91-4.52z" fill="#e5d11d"/><path d="m91 29.62c.21.45.75.72 1.74.62.23-.22 1-.74 2.9-.47a5 5 0 0 0 -4.64-.15z" fill="#c0b11b"/><path d="m94 46.49s-.62-7.67-3-9.24l.26-.5a2.89 2.89 0 0 1 0-.71c-1.16.58-3.53 1.35-4.77 1.83-4.49 1.73-12.01-2.44-11.27-8.87.39-3.45 2.21-7.53 6.49-9.12-3.51.94-11 4.49-15.06 17.82a104.69 104.69 0 0 1 -4 13.26 5.68 5.68 0 0 1 9.38 2.61 5.59 5.59 0 0 1 2.48-.58 5.69 5.69 0 0 1 5.36 3.8 5.68 5.68 0 0 1 7.32.58 5.65 5.65 0 0 1 4-1.65 5.79 5.79 0 0 1 1.51.2 5.66 5.66 0 0 1 4.2-1.92 5.56 5.56 0 0 1 2 .37 39 39 0 0 0 -4.9-7.88z" fill="#fffffd"/><path d="m48.88 132.73s-7.88-1.34-7.57-1.56a18.11 18.11 0 0 0 1.48-2.39l-3 .11s.17-8.68.12-9.48a.09.09 0 0 1 0 0s0 0 0 0a.47.47 0 0 0 .17.07 13.78 13.78 0 0 1 -1.28-1.13c-.29.58-.87.87-1 1.6a4.37 4.37 0 0 1 -1.3-2 5.41 5.41 0 0 1 -2.31-.24l.15.16s1.41 8.47 1.32 9-7.66 1.29-7.26 1.73 5.19.08 5.19.08-.1 5 3.66 4.46l7.22 7.12-3.18-6.87 7.59-.62z" fill="#fbf49c"/><path d="m63.81 134.38 5.72-.84-8.67-2.23-5.79-14.88a1.64 1.64 0 0 1 -.37 0c-.14.29-.58.72-.87 1.15-.29-.29-.86-.14-1.15-.43v-.15a8.24 8.24 0 0 0 -1.1.9l3.54 9.53s-6.48 2.45-5.48 2.47 6.5-.12 6.19.1 2.33 10.17 2.33 10.17l.58-7.43 11 6.9-6-5.31z" fill="#fbf49c"/><path d="m75.94 75.73c-10.06 8.67-29 6-33.68-7.54-.22.22-.44.44-.67.65-2.77 6.9-7.53 10.85-15.35 12.67-4.22.89-7.58-.1-11-.6a3.31 3.31 0 0 0 1.64.93s-2 13.81 4.71 18.5c0 0 1.11 7.52 10.92 9.59 0 0-.64 5.36 1.68 7.75a5.41 5.41 0 0 0 2.31.24 4.37 4.37 0 0 0 1.3 2c.14-.73.72-1 1-1.6a13.78 13.78 0 0 0 1.28 1.13c1.16.29 7.88-.23 11.45-1.66v.13a8.24 8.24 0 0 1 1.1-.9v.15c.29.29.86.14 1.15.43.29-.43.73-.86.87-1.15a1.64 1.64 0 0 0 .37 0l-.11-.28s8.49-3.58 11.81-9.41a7.52 7.52 0 0 1 4.17-3.76s21.33.88 29.36-11.48a53.23 53.23 0 0 0 2.37-11.07c-8.28 5.28-23.49 4.43-26.68-4.68z" fill="#f2f2f2"/><path d="m101.76 62.67a5.7 5.7 0 0 1 -6.36 2.53 5.68 5.68 0 0 1 -8.18.18 5.68 5.68 0 0 1 -9.36-2.15 5.66 5.66 0 0 1 -8.79-3.09 5.59 5.59 0 0 1 -2.48.58 5.68 5.68 0 0 1 -5.68-5.72c0-.16 0-.31 0-.46-.12.37-1 2.47-4.67 2.15 0 0-11.47.33-18.31-2.51 0 0-5.12-3.59-4.87-11.56a11.8 11.8 0 0 0 -1-2.7c-.63.12-1.25.21-1.8.29-4.58 1.1-8.65.65-12.5 3.15-4.85 12.58 12.51 27.64 24.08 23.12v.29c.07.27.14.53.22.79 0 .07 0 .14.07.21s.09.28.13.42c4.64 13.51 23.62 16.21 33.68 7.54 3.19 9.11 18.4 10 26.68 4.68a52.56 52.56 0 0 0 -.86-17.74z" fill="#fffffd"/><path d="m41.84 66.77v-.29c-11.57 4.52-28.93-10.54-24.08-23.09a3.64 3.64 0 0 0 -.35.24 6.14 6.14 0 0 1 -.63 1.66s-5.86 2.37-4.68 8.37c0 0-.13.21-.32.59.56 14.16 18.81 18.54 30.22 13.6 0-.1.07-.19.1-.29-.08-.26-.15-.52-.22-.79z" fill="#e6e6e6"/><path d="m11.78 54.25c-.78 1.45-2.58 5.32-1.73 8.39a7.22 7.22 0 0 0 -1.23 2.65c4.18 12.26 23.18 12.35 32.77 3.55.12-.32.25-.65.37-1-11.37 4.94-29.62.56-30.18-13.6z" fill="#fffffd"/><path d="m8.82 65.29a3.57 3.57 0 0 0 .77 3.26s-2 3.14 2 5.39c0 0 1.48 4.85 3.69 7 3.42.5 6.78 1.49 11 .6 7.82-1.82 12.58-5.77 15.35-12.67-9.63 8.77-28.63 8.68-32.81-3.58z" fill="#e6e6e6"/><path d="m101.71 62.74a5.69 5.69 0 0 1 -6.31 2.46 5.68 5.68 0 0 1 -8.18.18 5.68 5.68 0 0 1 -9.36-2.15 5.66 5.66 0 0 1 -8.79-3.09 5.59 5.59 0 0 1 -2.48.58 5.69 5.69 0 0 1 -5.68-5.52q-.18.33-.36.63v.06.47a5.78 5.78 0 0 0 8.3 5.2 5.79 5.79 0 0 0 8.94 3.15 5.77 5.77 0 0 0 9.52 2.18 5.77 5.77 0 0 0 8.32-.19 5.89 5.89 0 0 0 1.53.21 5.79 5.79 0 0 0 4.94-2.79c-.11-.46-.23-.92-.35-1.38z" fill="#e6e6e6"/><path d="m98.91 54.41a5.56 5.56 0 0 0 -2-.37 5.66 5.66 0 0 0 -4.17 1.83 5.79 5.79 0 0 0 -1.51-.2 5.65 5.65 0 0 0 -4 1.65 5.68 5.68 0 0 0 -7.32-.58 5.69 5.69 0 0 0 -5.36-3.8 5.59 5.59 0 0 0 -2.48.58 5.68 5.68 0 0 0 -9.38-2.61 23.85 23.85 0 0 1 -1.69 3.6.32.32 0 0 0 0 .06v.46.17a5.69 5.69 0 0 0 5.68 5.52 5.59 5.59 0 0 0 2.48-.58 5.66 5.66 0 0 0 8.79 3.09 5.68 5.68 0 0 0 9.36 2.15 5.68 5.68 0 0 0 8.18-.18 5.69 5.69 0 0 0 6.31-2.46l.05-.07a41.52 41.52 0 0 0 -2.85-8.26z" fill="#f2f2f2"/><path d="m86.92 24.36a3.71 3.71 0 1 1 -3.71-3.71 3.71 3.71 0 0 1 3.71 3.71z" fill="#973c1d"/><path d="m83.21 22.12c.83 0 1.5.42 1.5.94s-.71.94-1.5.94-1.49-.42-1.49-.94.67-.94 1.49-.94zm0 4.87a3 3 0 1 0 -3-3 3 3 0 0 0 3 3z" fill="#231f20"/><path d="m83.21 24c.83 0 1.5-.42 1.5-.94s-.67-.94-1.5-.94-1.49.42-1.49.94.67.94 1.49.94z" fill="#828487"/></svg>