<svg height="587" viewBox="0 0 3844 587" width="3844" xmlns="http://www.w3.org/2000/svg"><g fill="#454547"><path d="m664.44 248.72 9.92-19.25c2.81-5.44 16.42-5.12 18.43.44l29.91 82.74c2.08 5.77 16.43 5.81 18.6 0l36.61-97.22c2.08-5.52 15.62-5.82 18.41-.4l19.81 38.44c2.69 5.21 15.55 5.21 18.24 0l66.23-128.47c1.81-3.49-2.76-7-9.11-7h-299.93c-6.36 0-10.92 3.51-9.12 7l63.77 123.72c2.68 5.21 15.55 5.21 18.23 0z"/><path d="m1461.44 269.47 9.92-28.34c2.81-8 16.42-7.54 18.43.64l29.91 121.83c2.08 8.5 16.43 8.55 18.6.06l36.61-143.15c2.08-8.13 15.62-8.56 18.41-.58l19.81 56.59c2.69 7.67 15.55 7.67 18.24 0l66.23-189.21c1.81-5.15-2.76-10.31-9.11-10.31h-299.93c-6.36 0-10.92 5.16-9.12 10.31l63.77 182.16c2.68 7.67 15.54 7.67 18.23 0z"/><path d="m1869.08 280.47 5.79-28.34c1.63-8 9.57-7.54 10.74.64l17.44 121.83c1.21 8.5 9.58 8.55 10.84.06l21.35-143.15c1.21-8.13 9.1-8.56 10.73-.58l11.55 56.59c1.57 7.67 9.07 7.67 10.63 0l38.62-189.21c1-5.14-1.61-10.31-5.32-10.31h-174.86c-3.71 0-6.37 5.17-5.32 10.31l37.18 182.16c1.55 7.67 9.07 7.67 10.63 0z"/><path d="m1998.08 224.47 5.79-28.34c1.63-8 9.57-7.54 10.74.64l17.44 121.83c1.21 8.5 9.58 8.55 10.84.06l21.35-143.15c1.21-8.13 9.1-8.56 10.73-.58l11.55 56.59c1.57 7.67 9.07 7.67 10.63 0l38.62-189.21c1.05-5.15-1.61-10.31-5.32-10.31h-174.86c-3.71 0-6.37 5.16-5.32 10.31l37.18 182.16c1.55 7.67 9.07 7.67 10.63 0z"/><path d="m2606 214.77 13-22.05c3.67-6.24 21.51-5.87 24.15.5l39.19 94.8c2.73 6.61 21.53 6.65 24.37.05l48-111.4c2.72-6.32 20.46-6.66 24.12-.45l26 44c3.52 6 20.38 6 23.9 0l86.75-147.22c2.36-4-3.62-8-11.95-8h-393c-8.32 0-14.31 4-12 8l83.56 141.74c3.55 6 20.41 6 23.91.03z"/><path d="m2896.31 318.82 5.69-34.72c1.61-9.82 9.42-9.23 10.57.79l17.15 149.27c1.2 10.41 9.43 10.47 10.68.07l21-175.39c1.19-10 8.95-10.49 10.56-.72l11.36 69.34c1.54 9.4 8.92 9.4 10.46 0l38-231.82c1-6.31-1.58-12.64-5.23-12.64h-172c-3.64 0-6.26 6.33-5.23 12.64l36.58 223.18c1.49 9.4 8.87 9.4 10.41 0z"/><path d="m3595.38 387.82 6.91-34.72c1.95-9.82 11.42-9.23 12.82.79l20.81 149.26c1.45 10.42 11.44 10.48 12.95.08l25.47-175.39c1.45-10 10.87-10.49 12.82-.72l13.78 69.34c1.87 9.4 10.82 9.4 12.69 0l46.09-231.82c1.26-6.31-1.92-12.64-6.34-12.64h-208.72c-4.42 0-7.59 6.33-6.34 12.64l44.37 223.18c1.87 9.4 10.82 9.4 12.69 0z"/><path d="m92.08 269.47 5.79-28.34c1.63-8 9.57-7.54 10.74.64l17.44 121.83c1.21 8.5 9.58 8.55 10.84.06l21.35-143.15c1.21-8.13 9.1-8.56 10.73-.58l11.55 56.59c1.57 7.67 9.07 7.67 10.63 0l38.62-189.21c1-5.15-1.61-10.31-5.32-10.31h-174.86c-3.71 0-6.37 5.16-5.32 10.31l37.18 182.16c1.55 7.67 9.07 7.67 10.63 0z"/></g></svg>