<svg height="295" viewBox="0 0 363 295" width="363" xmlns="http://www.w3.org/2000/svg"><path d="m215.29 123.75h16.11v24.48h-16.11z" fill="#593e23"/><path d="m215.29 148.23h16.09a11.37 11.37 0 0 0 -16.09 0z" fill="#d0af83"/><path d="m223.34 148.25 8.09-.01-.02-24.48-8.07.01z" fill="#3c2a17"/><path d="m231.38 148.22a11.34 11.34 0 0 0 -8-3.33v3.34h8z" fill="#b39167"/><path d="m226.02 121.64h16.11v24.48h-16.11z" fill="#593e23" transform="matrix(.70710678 -.70710678 .70710678 .70710678 -26.11 204.73)"/><path d="m237 148.23 11.39-11.38a11.37 11.37 0 0 0 -11.39 11.38z" fill="#d0af83"/><path d="m204.07 121.64h16.11v24.48h-16.11z" fill="#77532e" transform="matrix(.70710678 .70710678 -.70710678 .70710678 156.8 -110.78)"/><path d="m197.78 136.85 11.39 11.38a11.37 11.37 0 0 0 -11.39-11.37z" fill="#eece9f"/><path d="m201.33 107.29c.44-3.29.51-9.65-2.71-18.78 0 0 9.62-2.24 10.79 6.89 0 0 10.5-21.4 21.88-23.17-2.53 2.72 3.43 16.4 8.33 25.43 0 0 2.36-8 11.38-5.42 0 0-7.08 4.78-7.79 21.9a23.45 23.45 0 0 1 -3.61 11.74 18.77 18.77 0 0 1 -16.6 8.93c-14.61 0-20.15-6.73-21.69-17.89a36.11 36.11 0 0 1 .02-9.63z" fill="#f6921e"/><path d="m239.62 97.66c-4.9-9-10.86-22.71-8.33-25.43a16.72 16.72 0 0 0 -7.95 4.14v58.43a18.73 18.73 0 0 0 16.26-8.92 23.45 23.45 0 0 0 3.61-11.74c.71-17.14 7.79-21.9 7.79-21.9-9-2.55-11.38 5.42-11.38 5.42z" fill="#ed7c08"/><path d="m209.61 116.25c.78-2 1.37-5.36-.26-10 0 0 5.46.89 6.13 6.07 0 0 6-14.3 12.41-15.3-1.44 1.54 1.94 11.46 4.73 16.58 0 0 1.33-6.68 6.45-5.23 0 0-4 2.68-4.41 12.26a13.77 13.77 0 0 1 -2 6.82 10.68 10.68 0 0 1 -9.45 5.07c-7.52 0-12.06-3.14-13.85-8.45a11.52 11.52 0 0 1 .25-7.82z" fill="#ffe461"/><path d="m232.62 113.63c-2.79-5.12-6.17-15-4.73-16.58a8.65 8.65 0 0 0 -4.55 2.7v32.8a10.65 10.65 0 0 0 9.27-5.07 13.77 13.77 0 0 0 2-6.82c.44-9.58 4.41-12.26 4.41-12.26-5.02-1.4-6.4 5.23-6.4 5.23z" fill="#fbbb40"/><path d="m244.57 95.91 19.61 1.38a2.44 2.44 0 0 0 2.6-2.7 101.79 101.79 0 0 0 -14.33-42.3 5.89 5.89 0 0 0 -9.58-.68 101.93 101.93 0 0 0 -20.1 39.89 2.45 2.45 0 0 0 2.2 3z" fill="#565759"/><path d="m222.77 91.5a101.93 101.93 0 0 1 20.1-39.89 5.86 5.86 0 0 1 5-2.13l-3.26 46.43-19.61-1.37a2.45 2.45 0 0 1 -2.2-3z" fill="#404041"/><path d="m240.79 75.93h4.84v78.65h-4.84z" fill="#29282a" transform="matrix(.99753964 .07010469 -.07010469 .99753964 8.67 -16.75)"/><path d="m205.1 114.13h78.65v2.42h-78.65z" fill="#404041" transform="matrix(.07010469 -.99753964 .99753964 .07010469 112.25 351.09)"/><path d="m231.05 160.4-1 14.28 1.24.09 2 .14 11.46.8 3.23.23.22-3.22.78-11.07-4.54-5.22 1.25-17.8-8.14-.57-1.25 17.79-5.23 4.55zm3.13 1.56 6.13-5.33 5.33 6.13-.68 9.73-11.47-.8z" fill="#77532e"/><path d="m236.28 155.85 1.25-17.79 4.07.28-1.29 18.29-6.13 5.33-.68 9.73 5.73.4-.23 3.22-5.73-.4-1.98-.14-1.24-.09 1-14.28z" fill="#593e23"/><path d="m87.62 57.34 2.65.52-3.41-8.59a17.88 17.88 0 0 0 -20.64-10.81 17.88 17.88 0 0 0 -13.79 18.79l.72 9.22 2.15-1.64-.49-6.93a15.69 15.69 0 0 1 12.11-16.39 15.7 15.7 0 0 1 18.08 9.39z" fill="#77532e"/><path d="m66.39 38.43.71 3a15.68 15.68 0 0 1 17.9 9.47l2.61 6.44 2.65.52-3.41-8.59a17.87 17.87 0 0 0 -20.46-10.84z" fill="#593e23"/><path d="m102.55 75.98-52.38 12.14 7.28-16.73 31.21-7.24z" fill="#95724a"/><path d="m61.6 81.55h39.83v45.49h-39.83z" fill="#7cb5db" transform="matrix(.97417339 -.22580127 .22580127 .97417339 -21.44 21.1)"/><path d="m64.26 126.37h45.88v3.71h-45.88z" fill="#95724a" transform="matrix(.97417339 -.22580127 .22580127 .97417339 -26.7 23)"/><path d="m68.79 129.93h39.82v10.61h-39.82z" fill="#77532e" transform="matrix(.97417339 -.22580127 .22580127 .97417339 -28.24 23.51)"/><path d="m115.79 149.97-44.7 10.36-1.71-7.39 1.11-8.04 38.8-8.99 4.78 6.67z" fill="#95724a"/><path d="m71.09 155.09h45.88v5.22h-45.88z" fill="#3c2a17" transform="matrix(.97417339 -.22580127 .22580127 .97417339 -33.17 25.3)"/><path d="m92.49 107.34a9.87 9.87 0 1 0 -11.7 11.86l1.89 8.17 8.2-1.9-1.88-8.17a9.85 9.85 0 0 0 3.49-9.96z" fill="#ffe461"/><g fill="#fff"><path d="m59.36 96.9 7.89-12.65-3.87.9-4.91 7.88z"/><path d="m60.67 102.55 12.23-19.61-3.56.83-9.49 15.22z"/><path d="m63.99 116.88 1.26 5.43 27.42-43.95-5.44 1.26z"/><path d="m66.68 128.49 29.81-47.8-.58-2.51-29.81 47.8z"/><path d="m88.59 126 13.42-21.51-1.76-7.59-19.25 30.86z"/></g><circle cx="91.53" cy="146.91" fill="#1e150c" r="3.3" transform="matrix(.04658343 -.9989144 .9989144 .04658343 -59.49 231.51)"/><path d="m93.73 152.5h22.94v5.22h-22.94z" fill="#1e150c" transform="matrix(.97417339 -.22580127 .22580127 .97417339 -32.3 27.75)"/><path d="m90.01 140.37 3.43 14.78 22.35-5.18-1.72-7.39-4.78-6.67z" fill="#77532e"/><path d="m90.79 143.7 1.48 6.42a3.29 3.29 0 1 0 -1.48-6.42z"/><path d="m88.56 127.66h19.79v10.61h-19.79z" fill="#593e23" transform="matrix(.97417339 -.22580127 .22580127 .97417339 -27.48 25.66)"/><path d="m81.39 79.29h19.78v45.49h-19.78z" fill="#5690c7" transform="matrix(.97417339 -.22580127 .22580127 .97417339 -20.68 23.24)"/><path d="m86.9 123.78h22.94v3.71h-22.94z" fill="#77532e" transform="matrix(.97417339 -.22580127 .22580127 .97417339 -25.82 25.45)"/><path d="m90.88 125.47-1.88-8.17a9.86 9.86 0 0 0 -8.35-17.3l6.13 26.47z" fill="#fbbb40"/><path d="m86.78 126.42 1.81-.42 13.42-21.51-1.76-7.59-14.81 23.74z" fill="#dbdbdb"/><path d="m81.69 104.43 14.8-23.74-.58-2.51-14.81 23.74z" fill="#dbdbdb"/><path d="m80.25 98.26 12.42-19.9-5.44 1.26-8.23 13.2z" fill="#dbdbdb"/><path d="m76.49 82.02 26.06-6.04-13.89-11.83-15.48 3.59z" fill="#77532e"/><circle cx="91.36" cy="146.17" fill="#3c2a17" r="3.3" transform="matrix(.00314159 -.99999507 .99999507 .00314159 -55.1 237.07)"/><path d="m90.61 143 1.49 6.42a3.3 3.3 0 1 0 -1.49-6.42z" fill="#1e150c"/><rect fill="#77532e" height="1.93" rx=".9" transform="matrix(.97417339 -.22580127 .22580127 .97417339 -16.6 19.37)" width="53.77" x="49.53" y="81.31"/><path d="m87.6 55.05-32.95 7.64 5.82-5.14 19.64-4.55z" fill="#d0af83"/><rect fill="#95724a" height="1.22" rx=".56" transform="matrix(.97417339 -.22580127 .22580127 .97417339 -11.59 17.59)" width="33.83" x="54.22" y="58.88"/><path d="m56.14 59.99h31.96v7.89h-31.96z" fill="#77532e" transform="matrix(.97417339 -.22580127 .22580127 .97417339 -12.57 17.93)"/><path d="m101.45 75.48-25.13 5.82.44 1.88 25.12-5.82a1 1 0 0 0 -.43-1.88z" fill="#593e23"/><path d="m72.09 58.16h15.8v7.89h-15.8z" fill="#593e23" transform="matrix(.97417339 -.22580127 .22580127 .97417339 -11.96 19.66)"/><path d="m86.88 55.21-15.75 3.66.27 1.18 15.76-3.65a.61.61 0 0 0 -.28-1.19z" fill="#77532e"/><path d="m71.13 58.87 16.47-3.82-7.49-2.05-9.82 2.27z" fill="#95724a"/><path d="m86.82 56.59.22.94a2.87 2.87 0 1 1 1.29 5.59l.22.95a3.84 3.84 0 0 0 -1.73-7.48z" fill="#929294"/><path d="m55.69 63.8.22 1a2.86 2.86 0 1 0 1.29 5.58l.22 1a3.84 3.84 0 0 1 -1.73-7.48z" fill="#b6b7b8"/><path d="m132.1 58.46-25.19 3-7.75 83.65 25.2-3z" fill="#fff"/><path d="m156.32 66.04-24.22-7.58-7.74 83.65 24.21 7.58z" fill="#dbdbdb"/><path d="m148.57 149.69 25.2-3 7.75-83.65-25.2 3z" fill="#fff"/><path d="m205.73 70.62-24.21-7.58-7.75 83.65 24.22 7.58z" fill="#dbdbdb"/><path d="m131.78 61.94-22.16 2.87-7.14 77.1 22.16-2.87z" fill="#006837"/><path d="m156.04 69.11-24.26-7.17-7.14 77.1 24.26 7.17z" fill="#004e29"/><path d="m148.9 146.21 25.15-2.59 7.14-77.1-25.15 2.59z" fill="#006837"/><path d="m202.63 73.43-21.44-6.91-7.14 77.1 21.44 6.9z" fill="#004e29"/><path d="m131.89 78.17a9.2 9.2 0 0 0 -17.54 1.93 9.05 9.05 0 0 0 -.08 2.79 2.28 2.28 0 0 1 -.4 1.6 6.68 6.68 0 0 0 -1.3 4.17 6.8 6.8 0 0 0 8.87 6.34 12.26 12.26 0 0 1 7.56 0 6.59 6.59 0 0 0 1.67.32 6.85 6.85 0 0 0 7.15-5.6 6.78 6.78 0 0 0 -2.11-6.18 15.57 15.57 0 0 1 -3.82-5.37z" fill="#5690c7"/><path d="m135.75 83.57a15.57 15.57 0 0 1 -3.86-5.4 9.26 9.26 0 0 0 -1.4-2.29l-1.76 19.06.27.06a6.59 6.59 0 0 0 1.67.32 6.85 6.85 0 0 0 7.15-5.6 6.78 6.78 0 0 0 -2.07-6.15z" fill="#2f6ab2"/><path d="m144 104.82a6 6 0 0 0 -5.85 1.94 8.91 8.91 0 0 1 -2.57 2.08 4.15 4.15 0 0 0 1 7.69 4.35 4.35 0 0 0 1.76 0 9.26 9.26 0 0 1 3.36 0h.41a6 6 0 0 0 1.89-11.71z" fill="#2f6ab2"/><path d="m199.86 103.32a7.8 7.8 0 0 0 -8.94 1.6 7.79 7.79 0 0 0 -2.2 6.08l.62 7.82a7.84 7.84 0 0 1 -1.24 4.87l-3.64 5.61a7.78 7.78 0 0 0 -.5 7.6l1.23 2.59a7.82 7.82 0 0 0 8.81 4.26l2-.46h.2z" fill="#2f6ab2"/><path d="m171.51 103.07-.95-1.14 1.14-1a1.63 1.63 0 1 0 -2.08-2.51l-1.14 1-.95-1.14a1.63 1.63 0 0 0 -2.51 2.08l.95 1.14-1.14 1a1.63 1.63 0 0 0 2.08 2.51l1.14-.95.95 1.14a1.63 1.63 0 1 0 2.51-2.08z" fill="#be1e2d"/><rect fill="#29282a" height="6.37" rx=".91" transform="matrix(.9957408 .0921968 -.0921968 .9957408 11.15 -14.94)" width="2.25" x="166.08" y="109.97"/><rect fill="#29282a" height="6.37" rx=".91" transform="matrix(.34562577 .93837243 -.93837243 .34562577 222.07 -61.83)" width="2.25" x="154.25" y="125.12"/><rect fill="#121112" height="6.37" rx=".91" transform="matrix(-.3955455 .91844638 -.91844638 -.3955455 319.57 44.4)" width="2.25" x="144.05" y="124.18"/><rect fill="#121112" height="6.37" rx=".91" transform="matrix(.21166597 .97734207 -.97734207 .21166597 231.43 -32.5)" width="2.25" x="134.73" y="124.01"/><rect fill="#121112" height="6.37" rx=".91" transform="matrix(.6249702 .78064861 -.78064861 .6249702 151.34 -50.5)" width="2.25" x="127.11" y="129.09"/><rect fill="#29282a" height="6.37" rx=".91" transform="matrix(.87538016 .48343517 -.48343517 .87538016 79.51 -63.82)" width="2.25" x="162.44" y="119.14"/><path d="m211.65 86.12a68.31 68.31 0 0 1 -4-9.06c-2-5.51-1.22-11.87.64-17.42.05-.14.09-.28.13-.41l2.12-8.16-29.66 15.77 8 2.8.31.1c5.79 1.68 11.61 4.69 15.15 9.57a67.51 67.51 0 0 1 5 8.06l33.87 63.71 2.34-1.25z" fill="#fdd050"/><path d="m235.3 130.93-21.3-39.99c-4.11-7.73-13.51-10.28-21.25-6.17s-10.83 13.33-6.75 21.07l21.26 40c4.11 7.74 13.51 10.29 21.25 6.17s10.9-13.34 6.79-21.08zm-26.2 12.9-20.4-38.37a13.33 13.33 0 1 1 23.53-12.52l20.4 38.37a13.33 13.33 0 1 1 -23.53 12.52z" fill="#ffe461"/><rect fill="#ffe461" height="7.93" rx="1.64" transform="matrix(.46947156 .88294759 -.88294759 .46947156 264.31 -135.84)" width="3.55" x="243.42" y="148.05"/><path d="m244 159.35.21-4.79 3.65-1.95 4.09 2.51a1.47 1.47 0 0 1 -.08 2.55l-5.72 3a1.47 1.47 0 0 1 -2.15-1.32z" fill="#ffe461"/><path d="m235.3 130.93-10.63-20-2.24 1.19 10.2 19.18a13.33 13.33 0 1 1 -23.53 12.52l-10.2-19.19-2.24 1.19 10.63 20c4.11 7.74 13.51 10.29 21.25 6.17s10.87-13.32 6.76-21.06z" fill="#fbbb40"/><path d="m232.68 108.9h2.64v44.13h-2.64z" fill="#fdd050" transform="matrix(.88294759 -.46947156 .46947156 .88294759 -34.1 125.18)"/><path d="m339.56 80.56-73.5 8.52 7.38-26.77 7.39-26.76z" fill="#eece9f"/><circle cx="296.48" cy="68.67" fill="#77532e" r="14.19" transform="matrix(.49954648 -.86628708 .86628708 .49954648 88.89 291.2)"/><g fill="#fdd050"><path d="m297.84 75.12-3.84 2.48-2-4.1c1.56-1.52 2.12-1.87 2.4-4l.71-7.24 3.83-2.48 2 4.1-3.1 6.58c-.87 2-.57 2.59 0 4.7z"/><path d="m301.77 76.81c-2.12-.59-3.09-2.68-2.41-5.13s2.94-4 5.07-3.38a3.46 3.46 0 0 1 1.61 1 .21.21 0 0 0 .33-.25 4.16 4.16 0 0 0 -2.48-1.94c-2.35-.65-4.83.89-5.63 3.8s.25 5.42 2.6 6.07c.67.15 1.28-.07.91-.17z"/><path d="m287.76 72.94c2.12.59 4-.72 4.7-3.17s-.5-4.91-2.62-5.49a3.43 3.43 0 0 0 -1.88 0 .21.21 0 0 1 -.16-.38 4.14 4.14 0 0 1 3.12-.4c2.36.65 3.69 3.25 2.89 6.15s-3 4.53-5.34 3.88c-.68-.19-1.08-.69-.71-.59z"/><rect height=".91" rx=".41" transform="matrix(.96400265 .26589263 -.26589263 .96400265 29.7 -76.06)" width="11.05" x="290.14" y="71.16"/></g><path d="m283.09 30.62a3.63 3.63 0 0 0 1.84-2.27 3.68 3.68 0 1 0 -6.68.94 1.51 1.51 0 0 0 -.46 3l.45.12-36.53 132.37a1.7 1.7 0 0 0 3.27.91l36.54-132.42.45.13a1.51 1.51 0 0 0 1.12-2.78z" fill="#565759"/><ellipse cx="93.13" cy="259.34" fill="#283032" rx="18.35" ry="16.39"/><circle cx="132.45" cy="259.99" fill="#283132" r="17.04"/><circle cx="128.52" cy="259.99" fill="#231f20" r="17.04"/><circle cx="237.97" cy="261.96" fill="#283132" r="17.04"/><circle cx="234.04" cy="261.96" fill="#231f20" r="17.04"/><circle cx="89.85" cy="259.34" fill="none" r="1.97" stroke="#8a5d3b" stroke-miterlimit="10"/><rect fill="#556368" height="9.18" rx="3.5" width="155.99" x="74.78" y="253.44"/><ellipse cx="89.52" cy="259.34" fill="#3f4d52" rx="17.37" ry="16.39"/><circle cx="89.85" cy="259.34" fill="#221f20" r="12.45"/><path d="m80.02 250.82 6.55 5.24-1.31 2.62-7.86 2.62 2.62 3.94 6.55-3.94 1.32 1.32v9.17h3.93v-9.17l1.31-1.32 6.55 3.94 2.62-3.94-7.86-2.62-1.31-2.62 5.24-5.24-3.93-2.62-2.62 6.55h-3.93l-3.94-6.55z" fill="#96abb5"/><circle cx="89.85" cy="259.34" fill="none" r="12.45" stroke="#273133" stroke-miterlimit="10" stroke-width="1.5"/><circle cx="89.85" cy="259.34" fill="#221f20" r="1.31"/><ellipse cx="201.93" cy="260.65" fill="#283032" rx="18.35" ry="16.39"/><ellipse cx="198.32" cy="260.65" fill="#3f4d52" rx="17.37" ry="16.39"/><circle cx="198.65" cy="260.65" fill="#221f20" r="12.45"/><path d="m188.82 252.13 6.55 5.24-1.31 2.62-7.86 2.63 2.62 3.93 6.55-3.93 1.31 1.31v9.17h3.94v-9.17l1.31-1.31 6.55 3.93 2.62-3.93-7.86-2.63-1.31-2.62 5.24-5.24-3.93-2.62-2.62 6.55h-3.94l-3.93-6.55z" fill="#96abb5"/><circle cx="198.65" cy="260.65" fill="none" r="12.45" stroke="#273133" stroke-miterlimit="10" stroke-width="1.5"/><circle cx="198.65" cy="260.65" fill="#221f20" r="1.31"/><path d="m36.76 153.82 23.6 91.75h201.86l26.22-94.37z" fill="#5e7683"/><path d="m211.76 149.23v96.34h54.98l23.01-98.31z" fill="#556368"/><path d="m64.29 148.57 17.04 70.79 98.97.65-3.28-75.37z" fill="#3e5360"/><path d="m37.42 158.41 23.59 86.51h150.75v-93.07h-23.6l3.28 72.75h-115.35l-19.66-76.03z" fill="#95a8b0"/><path d="m23 140.05 5.24 19.67h167.79 102.24l5.24-19.67z" fill="#3f4d52"/><path d="m211.76 140.05.39 19.01h86.23l4.48-19.66z" fill="#232b2d"/><path d="m38.95 164.85h245.87l2.12-8-250.83-.41z" fill="#232b2d" opacity=".5"/><g fill="#62757e"><circle cx="186.85" cy="237.05" r="1.97"/><circle cx="200.61" cy="219.36" r="1.97"/><circle cx="201.93" cy="237.71" r="1.97"/><circle cx="200.61" cy="202.32" r="1.97"/><circle cx="200.61" cy="186.59" r="1.97"/><circle cx="200.61" cy="172.17" r="1.97"/><circle cx="167.19" cy="237.05" r="1.97"/><circle cx="147.53" cy="237.05" r="1.97"/><circle cx="127.86" cy="237.05" r="1.97"/><circle cx="108.2" cy="237.05" r="1.97"/><circle cx="88.54" cy="237.05" r="1.97"/><circle cx="68.88" cy="237.05" r="1.97"/><circle cx="63.64" cy="220.01" r="1.97"/><circle cx="58.39" cy="202.97" r="1.97"/><circle cx="54.46" cy="185.93" r="1.97"/><circle cx="50.53" cy="171.51" r="1.97"/></g><g fill="#232b2d"><path d="m95.61 181a3.33 3.33 0 0 1 2.47.67 2.76 2.76 0 0 1 1 2.1 2.86 2.86 0 0 1 -1 2.15 3.24 3.24 0 0 1 -2.45.62h-4.63a5.75 5.75 0 0 1 -2.26-.24 2.72 2.72 0 0 1 -1.7-2.15 7 7 0 0 1 -.11-1.78v-9.75a4.58 4.58 0 0 1 .27-2.26 2.66 2.66 0 0 1 1.43-1.48 5.19 5.19 0 0 1 2.56-.3h3.55a7.4 7.4 0 0 1 2.26.14 2.63 2.63 0 0 1 2 2.58 2.81 2.81 0 0 1 -1 2.18 3.15 3.15 0 0 1 -2.26.65h-3v1.24h2.34a2.15 2.15 0 0 1 2.4 2.13 2.18 2.18 0 0 1 -.79 1.69 2.6 2.6 0 0 1 -1.83.46h-1.97v1.35z" opacity=".69"/><path d="m103.18 186.68a2.93 2.93 0 0 1 -2.94-3 3.76 3.76 0 0 1 .38-1.56l5.63-11.92a3 3 0 0 1 2.72-1.78 3 3 0 0 1 2.77 1.8l5.66 12.06a3.14 3.14 0 0 1 .35 1.43 3 3 0 0 1 -3 2.94c-1.38 0-2.18-.65-3-2.48h-5.49c-.77 1.83-1.65 2.51-3.08 2.51zm6.7-6.76-.91-2.16-.92 2.16z" opacity=".69"/><path d="m129.06 180.38c-1.59 0-2.53-.81-2.53-2.16s1-2.18 2.88-2.15h1.94c2.08.05 2.64.21 3.23.91a3.74 3.74 0 0 1 .76 2.61v1.54a4.39 4.39 0 0 1 -3.15 4.79 9.12 9.12 0 0 1 -4.25 1.05 9.43 9.43 0 1 1 0-18.85 9.74 9.74 0 0 1 5 1.43 3.31 3.31 0 0 1 1.86 2.77 3 3 0 0 1 -3 3 2.15 2.15 0 0 1 -.78-.13l-1.32-.7a4.65 4.65 0 0 0 -1.89-.49 3.53 3.53 0 0 0 .11 7.06 3.52 3.52 0 0 0 2.05-.67z" opacity=".69"/><path d="m146.44 181a3.36 3.36 0 0 1 2.1.53 2.79 2.79 0 0 1 1.13 2.21 2.73 2.73 0 0 1 -3.1 2.8h-5.65a3 3 0 0 1 -2.5-.94c-.73-.81-.81-1.21-.81-3.69v-10.12c0-2 1.16-3.34 2.93-3.34a3 3 0 0 1 2.32 1.07c.54.73.67 1.27.67 3v8.48z" opacity=".69"/><path d="m160.21 181a3.33 3.33 0 0 1 2.47.67 2.76 2.76 0 0 1 1 2.1 2.86 2.86 0 0 1 -1 2.15 3.24 3.24 0 0 1 -2.45.62h-4.6a5.75 5.75 0 0 1 -2.26-.24 2.72 2.72 0 0 1 -1.7-2.15 7 7 0 0 1 -.11-1.78v-9.75a4.58 4.58 0 0 1 .27-2.26 2.7 2.7 0 0 1 1.43-1.48 5.19 5.19 0 0 1 2.56-.3h3.55a7.4 7.4 0 0 1 2.26.14 2.63 2.63 0 0 1 2.05 2.58 2.81 2.81 0 0 1 -1 2.18 3.15 3.15 0 0 1 -2.26.65h-3v1.24h2.34a2.15 2.15 0 0 1 2.4 2.13 2.18 2.18 0 0 1 -.79 1.69 2.6 2.6 0 0 1 -1.83.46h-2.12v1.35z" opacity=".69"/><path d="m86.56 205.52a2.48 2.48 0 0 1 2.5-2.5 2.9 2.9 0 0 1 2 .8c1.2.93 1.35 1 1.75 1a.67.67 0 0 0 .7-.73.78.78 0 0 0 -.42-.7 4.84 4.84 0 0 0 -1.11-.48c-.45-.15-.9-.3-1.35-.47-2.47-.83-3.63-2.44-3.63-4.73 0-3.26 2.5-5.49 6.14-5.49 3 0 5.36 1.6 5.36 3.66a2.14 2.14 0 0 1 -2.16 2.28 3.58 3.58 0 0 1 -2.28-.95c-.57-.48-.85-.61-1.15-.61a.66.66 0 0 0 -.65.65c0 .51.35.73 1.65 1.16a10.64 10.64 0 0 1 3.56 1.75 5.18 5.18 0 0 1 1.68 3.94 5.75 5.75 0 0 1 -1.58 4 6.22 6.22 0 0 1 -4.68 1.68c-3.6-.02-6.33-1.88-6.33-4.26z" opacity=".69"/><path d="m115.38 207.55a9 9 0 0 1 -5.84 2.21 8.77 8.77 0 1 1 0-17.54 8.68 8.68 0 0 1 5.58 2 4.43 4.43 0 0 1 2 3.31 2.75 2.75 0 0 1 -2.75 2.75 2.5 2.5 0 0 1 -1.73-.67l-.8-.88a3.28 3.28 0 1 0 -2.41 5.51 3.4 3.4 0 0 0 2.46-1.1l.57-.6a2.75 2.75 0 0 1 1.91-.8 2.81 2.81 0 0 1 2.75 2.7 4.33 4.33 0 0 1 -1.74 3.11z" opacity=".69"/><path d="m127.44 192.22a8.77 8.77 0 1 1 -8.79 8.67 8.77 8.77 0 0 1 8.79-8.67zm0 12.08a3.32 3.32 0 0 0 3.28-3.31 3.29 3.29 0 0 0 -6.57 0 3.33 3.33 0 0 0 3.32 3.31z" opacity=".69"/><path d="m143.76 202.34c0 1.2.55 1.93 1.51 1.93s1.5-.7 1.5-1.85v-6.67a2.83 2.83 0 0 1 2.73-3.25 2.92 2.92 0 0 1 2.15 1c.53.62.66 1.12.66 2.63v5.94a7.32 7.32 0 0 1 -1.76 5.23 7 7 0 0 1 -12.32-5.23v-5.89c0-1.58.1-2 .57-2.61a2.78 2.78 0 0 1 4.21-.2 3 3 0 0 1 .75 2.38z" opacity=".69"/><path d="m156.75 197.76a2.71 2.71 0 0 1 -2.08-.73 2.55 2.55 0 0 1 .65-4.13c.58-.25.8-.28 3-.28h5.57a11 11 0 0 1 1.88 0 2.51 2.51 0 0 1 2.25 2.51 2.75 2.75 0 0 1 -.9 2 3 3 0 0 1 -2.13.61h-1.23v8.31a3.58 3.58 0 0 1 -.48 2.13 2.6 2.6 0 0 1 -2.28 1.26 2.79 2.79 0 0 1 -2.28-1.16 3.45 3.45 0 0 1 -.47-2.17v-8.37z" opacity=".69"/></g><g fill="#181d1e"><path d="m97.61 182a3.33 3.33 0 0 1 2.47.67 2.76 2.76 0 0 1 1 2.1 2.86 2.86 0 0 1 -1 2.15 3.24 3.24 0 0 1 -2.45.62h-4.63a5.75 5.75 0 0 1 -2.26-.24 2.72 2.72 0 0 1 -1.7-2.15 7 7 0 0 1 -.11-1.78v-9.75a4.58 4.58 0 0 1 .27-2.26 2.66 2.66 0 0 1 1.43-1.48 5.19 5.19 0 0 1 2.56-.3h3.55a7.4 7.4 0 0 1 2.26.14 2.63 2.63 0 0 1 2 2.58 2.81 2.81 0 0 1 -1 2.18 3.15 3.15 0 0 1 -2.26.65h-3v1.24h2.34a2.15 2.15 0 0 1 2.4 2.13 2.18 2.18 0 0 1 -.79 1.69 2.6 2.6 0 0 1 -1.83.46h-1.97v1.35z"/><path d="m105.18 187.68a2.93 2.93 0 0 1 -2.94-3 3.76 3.76 0 0 1 .38-1.56l5.63-11.92a3 3 0 0 1 2.72-1.78 3 3 0 0 1 2.77 1.8l5.66 12.06a3.14 3.14 0 0 1 .35 1.43 3 3 0 0 1 -3 2.94c-1.38 0-2.18-.65-3-2.48h-5.49c-.77 1.83-1.65 2.51-3.08 2.51zm6.7-6.76-.91-2.16-.92 2.16z"/><path d="m131.06 181.38c-1.59 0-2.53-.81-2.53-2.16s1-2.18 2.88-2.15h1.94c2.08.05 2.64.21 3.23.91a3.74 3.74 0 0 1 .76 2.61v1.54a4.39 4.39 0 0 1 -3.15 4.79 9.12 9.12 0 0 1 -4.25 1.05 9.43 9.43 0 1 1 0-18.85 9.74 9.74 0 0 1 5 1.43 3.31 3.31 0 0 1 1.86 2.77 3 3 0 0 1 -3 3 2.15 2.15 0 0 1 -.78-.13l-1.32-.7a4.65 4.65 0 0 0 -1.89-.49 3.53 3.53 0 0 0 .11 7.06 3.52 3.52 0 0 0 2.05-.67z"/><path d="m148.44 182a3.36 3.36 0 0 1 2.1.53 2.79 2.79 0 0 1 1.13 2.21 2.73 2.73 0 0 1 -3.1 2.8h-5.65a3 3 0 0 1 -2.5-.94c-.73-.81-.81-1.21-.81-3.69v-10.12c0-2 1.16-3.34 2.93-3.34a3 3 0 0 1 2.32 1.07c.54.73.67 1.27.67 3v8.48z"/><path d="m162.21 182a3.33 3.33 0 0 1 2.47.67 2.76 2.76 0 0 1 1 2.1 2.86 2.86 0 0 1 -1 2.15 3.24 3.24 0 0 1 -2.45.62h-4.6a5.75 5.75 0 0 1 -2.26-.24 2.72 2.72 0 0 1 -1.7-2.15 7 7 0 0 1 -.11-1.78v-9.75a4.58 4.58 0 0 1 .27-2.26 2.7 2.7 0 0 1 1.43-1.48 5.19 5.19 0 0 1 2.56-.3h3.55a7.4 7.4 0 0 1 2.26.14 2.63 2.63 0 0 1 2.05 2.58 2.81 2.81 0 0 1 -1 2.18 3.15 3.15 0 0 1 -2.26.65h-3v1.24h2.34a2.15 2.15 0 0 1 2.4 2.13 2.18 2.18 0 0 1 -.79 1.69 2.6 2.6 0 0 1 -1.83.46h-2.12v1.35z"/><path d="m88.56 206.52a2.48 2.48 0 0 1 2.5-2.5 2.9 2.9 0 0 1 2 .8c1.2.93 1.35 1 1.75 1a.67.67 0 0 0 .7-.73.78.78 0 0 0 -.42-.7 4.84 4.84 0 0 0 -1.11-.48c-.45-.15-.9-.3-1.35-.47-2.47-.83-3.63-2.44-3.63-4.73 0-3.26 2.5-5.49 6.14-5.49 3 0 5.36 1.6 5.36 3.66a2.14 2.14 0 0 1 -2.16 2.28 3.58 3.58 0 0 1 -2.28-.95c-.57-.48-.85-.61-1.15-.61a.66.66 0 0 0 -.65.65c0 .51.35.73 1.65 1.16a10.64 10.64 0 0 1 3.56 1.75 5.18 5.18 0 0 1 1.68 3.94 5.75 5.75 0 0 1 -1.58 4 6.22 6.22 0 0 1 -4.68 1.68c-3.6-.02-6.33-1.88-6.33-4.26z"/><path d="m117.38 208.55a9 9 0 0 1 -5.84 2.21 8.77 8.77 0 1 1 0-17.54 8.68 8.68 0 0 1 5.58 2 4.43 4.43 0 0 1 2 3.31 2.75 2.75 0 0 1 -2.75 2.75 2.5 2.5 0 0 1 -1.73-.67l-.8-.88a3.28 3.28 0 1 0 -2.41 5.51 3.4 3.4 0 0 0 2.46-1.1l.57-.6a2.75 2.75 0 0 1 1.91-.8 2.81 2.81 0 0 1 2.75 2.7 4.33 4.33 0 0 1 -1.74 3.11z"/><path d="m129.44 193.22a8.77 8.77 0 1 1 -8.79 8.67 8.77 8.77 0 0 1 8.79-8.67zm0 12.08a3.32 3.32 0 0 0 3.28-3.31 3.29 3.29 0 0 0 -6.57 0 3.33 3.33 0 0 0 3.32 3.31z"/><path d="m145.76 203.34c0 1.2.55 1.93 1.51 1.93s1.5-.7 1.5-1.85v-6.67a2.83 2.83 0 0 1 2.73-3.25 2.92 2.92 0 0 1 2.15 1c.53.62.66 1.12.66 2.63v5.94a7.32 7.32 0 0 1 -1.76 5.23 7 7 0 0 1 -12.32-5.23v-5.89c0-1.58.1-2 .57-2.61a2.78 2.78 0 0 1 4.21-.2 3 3 0 0 1 .75 2.38z"/><path d="m158.75 198.76a2.71 2.71 0 0 1 -2.08-.73 2.55 2.55 0 0 1 .65-4.13c.58-.25.8-.28 3-.28h5.57a11 11 0 0 1 1.88 0 2.51 2.51 0 0 1 2.25 2.51 2.75 2.75 0 0 1 -.9 2 3 3 0 0 1 -2.13.61h-1.23v8.31a3.58 3.58 0 0 1 -.48 2.13 2.6 2.6 0 0 1 -2.28 1.26 2.79 2.79 0 0 1 -2.28-1.16 3.45 3.45 0 0 1 -.47-2.17v-8.37z"/></g></svg>