<svg height="471" viewBox="0 0 270 471" width="270" xmlns="http://www.w3.org/2000/svg"><rect fill="#472821" height="295.61" rx="5.11" transform="matrix(.99970574 .0242577 -.0242577 .99970574 7.22 -2.92)" width="13.48" x="117.17" y="147.88"/><g fill="#fdaa04"><path d="m63.32 148.78a2.41 2.41 0 0 1 -2-2.41c.06-.69.36-1.18 1.17-1.15a2.48 2.48 0 0 1 2 2.41c-.05.69-.37 1.19-1.17 1.15z"/><path d="m59.25 143.27a2 2 0 0 1 -1.93-1.76.87.87 0 0 1 1-1.08 2 2 0 0 1 1.86 1.75c.15.74-.36 1.01-.93 1.09z"/><path d="m55.82 138.71a.91.91 0 0 1 -1.13.79c-.77-.12-1.46-.5-1.51-1.35 0-.66.54-.79 1.09-.74a1.56 1.56 0 0 1 1.55 1.3z"/></g><path d="m95.75 187.5c.17-5.63.32-11.26.53-16.89 0-1.12-.44-1-1.24-.89a47 47 0 0 1 -12.7.58c-8.59-.89-15.35-4.82-20.07-12.07-1.47-2.25-2.72-4.65-4-7a24 24 0 0 0 -10.61-10.71 10.44 10.44 0 0 1 -3.44-2.55c-1.19-1.42-.9-2.53.87-3.15 2.8-1 5.56-.5 8.25.47a22.68 22.68 0 0 1 11.79 10.12 31.71 31.71 0 0 0 5.36 7.14c6.63 6.18 14.35 6.81 22.66 4.38.22-.07.43-.15.65-.2a5.56 5.56 0 0 0 4.56-4.35 20.93 20.93 0 0 1 8.52-11.41 106.49 106.49 0 0 1 -21.82-5.13c-9.8-3.59-18.38-8.88-24.52-17.58a52.47 52.47 0 0 1 -2.78-4.54 1.59 1.59 0 0 0 -1.62-.94c-18.37.33-36.58 2-54.48 6.36a2.6 2.6 0 0 1 -.67.15c-.34 0-.81.45-1-.18s.45-.7.83-.79c3.41-.76 6.81-1.57 10.25-2.23a249.06 249.06 0 0 1 43.16-4.2c2.5 0 2.32 0 1.63-2.29-.61-2-1.71-2.57-3.77-2.68a242.77 242.77 0 0 0 -50.54 2.28c-.55.09-1.55.8-1.77-.2s1-.65 1.55-.74a237 237 0 0 1 51.05-2.26h2a73 73 0 0 1 -2.19-9.67c-1.36-10.78-1.93-21.53 1.65-32a44.9 44.9 0 0 1 9.78-16.25 2.1 2.1 0 0 0 .62-2.38c-3.09-10.25-1.79-20.2 2.09-30 .4-1 1.09-1 1.91-1.07a29.87 29.87 0 0 1 11.08 2.17 82.08 82.08 0 0 1 19 10.39 3.53 3.53 0 0 0 3.14.67 116.36 116.36 0 0 1 54.78.7 3.37 3.37 0 0 0 2.87-.47c6.91-4.26 14.06-8 22-9.84a26.5 26.5 0 0 1 7.69-.71 1.94 1.94 0 0 1 2 1.51c3 9.15 3.9 18.39 1.17 27.77a1.8 1.8 0 0 0 .48 2c9 9.91 12.93 21.6 12.48 34.9-.29 8.74-.94 17.41-3.4 26 5.77.07 11.4 0 17 .25a227.77 227.77 0 0 1 37.26 4.52c.61.13 1.77.07 1.64.74-.21 1.15-1.28.32-1.85.2a243.22 243.22 0 0 0 -53.3-4.7c-.8 0-1.25.19-1.49 1-.35 1.14-.79 2.25-1.25 3.52 3.6.29 7.08.55 10.56.86a230.37 230.37 0 0 1 45.33 8.33 4.57 4.57 0 0 1 .66.18c.31.16.87.17.63.78s-.56.25-.85.17c-.72-.19-1.44-.41-2.15-.61a228.69 228.69 0 0 0 -34.72-6.96c-6.17-.77-12.35-1.26-18.54-1.7-.72-.05-1.4-.24-1.86.72-5.22 10.8-14.28 16.93-25.31 20.58a101.66 101.66 0 0 1 -23.96 4.4c-.14.29 0 .43.21.59a23 23 0 0 1 8.61 17.83c.3 8.74-.32 17.48-.41 26.21v2.06c-.07 1.66-.15 3.32-.22 5-.2 5.64 2 9.89 7.18 12.41a2.65 2.65 0 0 1 1.48 3.74l-.61.46-.43.2a25.37 25.37 0 0 1 -12-1.87c-5.24-2.54-8-6.69-7.95-12.56 0-3 .09-6.06.14-9.1.14-5.8.38-11.6.4-17.4a17 17 0 0 0 -1.79-8c-.38-.71-.66-1.55-1.64-1.83l-.65 26.81c-.17 6.41-.48 12.82-.45 19.23 0 3.57 1 6.95 4.47 8.89 1.19 2.49.85 3.49-1.58 4.61l-1.56.15a23 23 0 0 1 -10.2-4.53c-3.45-3.2-4.64-7.16-4.41-11.8.29-5.84.29-11.69.41-17.54l.45-15.49q.16-6.12.31-12.23c0-1.15-.34-2.07-1.72-2.07-1.23 0-1.53.8-1.56 1.83q-.31 14-.64 27.89c-.16 5.78-.43 11.56-.45 17.33 0 4.66-1.41 8.64-4.9 11.8a22.17 22.17 0 0 1 -10.08 4 2.92 2.92 0 0 0 -.51 0c-1.49 0-3 0-3.46-1.83a3.33 3.33 0 0 1 2-3.82c2.58-1.39 3.53-3.76 3.63-6.44.25-6.88.35-13.77.51-20.66l.66-27.32a4.1 4.1 0 0 0 -2 2.05 13.54 13.54 0 0 0 -1.59 4.88c-.88 6.85-.58 13.75-.8 20.63-.1 3.1-.15 6.2-.31 9.29a12.24 12.24 0 0 1 -3.5 8.56c-4.85 4.64-10.87 5.34-17.16 4.68-1.82-.19-2.24-2-1-3.39a5.85 5.85 0 0 1 2.36-1.34c3.75-1.56 6.36-4.13 6.93-8.29a45.26 45.26 0 0 0 .25-8.12zm34-51.36h1.89c9.71.06 19.44.31 29-1.68 8.68-1.8 16.32-5.38 20.77-13.57a36.21 36.21 0 0 0 4-24c-1.63-9.11-9.37-20.26-23.26-21.28-7.64-.57-15.27-.11-22.9.24a156.12 156.12 0 0 1 -19.47-.34c-7.32-.57-14.62-1.4-22-1.51-9.65-.13-17.13 3.65-22.65 11.6-4.26 6.12-5.16 12.84-4.31 20 1.15 9.74 5.64 17.34 14.28 22.3a51.6 51.6 0 0 0 15.14 5.49c9.76 2.07 19.59 2.49 29.48 2.75zm-60.55 17.41a2.74 2.74 0 0 0 -2.37-2.49 1.11 1.11 0 0 0 -1.13 1.4 2.44 2.44 0 0 0 2.3 2.25c.82.09 1.14-.51 1.2-1.16zm4.42 6.14c.59 0 1.37-.29 1.28-1.2a2.27 2.27 0 0 0 -2.24-2c-.83-.1-1.54.11-1.65 1.07s1.18 2.04 2.61 2.13zm6.59 2.31c1 0 1.94-.26 1.9-1.21-.06-1.35-1.2-1.69-2.37-1.7-.84 0-1.75.21-1.66 1.28.11 1.25 1.2 1.47 2.13 1.63zm7.71-2.63c-.87.13-1.92.24-1.94 1.44s1 1.43 2 1.45 2.15-.17 2.1-1.45c-.08-1.14-1.08-1.41-2.16-1.49zm-24.6-10.54c.8 0 1.12-.46 1.19-1.15a2.48 2.48 0 0 0 -2-2.41c-.81 0-1.11.46-1.17 1.15a2.41 2.41 0 0 0 1.98 2.36zm-4.07-5.51c.57-.08 1.08-.35.94-1.09a2 2 0 0 0 -1.86-1.75.87.87 0 0 0 -1 1.08 2 2 0 0 0 1.92 1.71zm36.65 15.53c.08-.55.29-1.11-.45-1.11-.92 0-1.74.33-1.87 1.37s.6 1.37 1.38 1.4c1.39.07.41-1.29.94-1.66zm-40.08-20.14a1.56 1.56 0 0 0 -1.55-1.3c-.55 0-1.13.08-1.09.74 0 .85.74 1.23 1.51 1.35a.91.91 0 0 0 1.13-.79z" fill="#212020"/><path d="m129.72 136.14c-9.89-.26-19.77-.68-29.49-2.74a51.6 51.6 0 0 1 -15.14-5.49c-8.64-5-13.13-12.56-14.28-22.3-.85-7.16 0-13.88 4.31-20 5.52-8 13-11.73 22.65-11.6 7.37.11 14.67.94 22 1.51a156.12 156.12 0 0 0 19.47.34c7.63-.35 15.26-.81 22.9-.24 13.89 1 21.63 12.17 23.26 21.28a36.21 36.21 0 0 1 -4 24c-4.45 8.19-12.09 11.77-20.77 13.57-9.59 2-19.32 1.74-29 1.68-.63.03-1.28 0-1.91-.01z" fill="#fff"/><g fill="#fdaa04"><path d="m69.2 153.55c-.06.65-.38 1.25-1.25 1.16a2.44 2.44 0 0 1 -2.25-2.25 1.11 1.11 0 0 1 1.13-1.4 2.74 2.74 0 0 1 2.37 2.49z"/><path d="m73.62 159.69c-1.43-.09-2.73-1.23-2.61-2.14s.82-1.17 1.65-1.07a2.27 2.27 0 0 1 2.24 2c.1.92-.69 1.23-1.28 1.21z"/><path d="m80.21 162c-.93-.11-2-.33-2.13-1.63-.09-1.07.82-1.28 1.66-1.28 1.17 0 2.31.35 2.37 1.7.04.9-.88 1.21-1.9 1.21z"/><path d="m87.92 159.32c1 .08 2.07.35 2.11 1.44 0 1.28-1.09 1.47-2.1 1.45s-2-.24-2-1.45 1.12-1.31 1.99-1.44z"/><path d="m95.9 158.85c-.53.37.45 1.73-.94 1.66-.78 0-1.49-.47-1.38-1.4s1-1.37 1.87-1.37c.74 0 .55.56.45 1.11z"/></g><path d="m166.22 209.79c-.06.34-.3.45-.61.46z" fill="#7cb9e5"/><path d="m90.16 100a12 12 0 0 1 3.57-7.82c2.82-2.8 6.57-2.66 9.26.26 4.31 4.65 4.11 14.2-.39 18.68-3 3-7 2.79-9.73-.53-1.87-2.32-2.81-5.46-2.71-10.59zm4.84-5.88a2.33 2.33 0 0 0 -2.43 2.15 2.38 2.38 0 0 0 2.13 2.43 2.41 2.41 0 0 0 2.44-2.17 2.34 2.34 0 0 0 -2.14-2.41z" fill="#f5ac2b"/><path d="m159.79 98a1.9 1.9 0 0 1 -2 1.9 2 2 0 0 1 .06-4 1.92 1.92 0 0 1 1.94 2.1z" fill="#fefefe"/><path d="m95 94.12a2.34 2.34 0 0 1 2.18 2.41 2.41 2.41 0 0 1 -2.48 2.17 2.38 2.38 0 0 1 -2.17-2.43 2.33 2.33 0 0 1 2.47-2.15z" fill="#fefefe"/><path d="m119.42 75.51a157.91 157.91 0 0 0 19.46.35c7.63-.36 15.26-.82 22.9-.25 13.9 1 21.64 12.18 23.26 21.28a36.19 36.19 0 0 1 -4 24c-4.46 8.19-12.09 11.77-20.78 13.57-9.58 2-19.31 1.74-29 1.68-.63 0-16.32-1.37-13.24-.26" fill="#e6e6e6"/><path d="m152.13 103.15c.15-3.54 1-6.83 3.56-9.42a6.11 6.11 0 0 1 9.39.22c4.24 4.65 4 14.08-.36 18.57-3 3.1-7.14 2.89-9.85-.51a13.9 13.9 0 0 1 -2.74-8.86zm7.66-5.15a1.92 1.92 0 0 0 -2-2.14 2 2 0 0 0 -.06 4 1.9 1.9 0 0 0 2.06-1.86z" fill="#e39904"/></svg>