<svg height="130" viewBox="0 0 176 130" width="176" xmlns="http://www.w3.org/2000/svg"><g fill="#717172"><path d="m7.44 53.16h82.01v16.52h-82.01z" transform="matrix(.48160072 -.87639075 .87639075 .48160072 -28.71 74.3)"/><circle cx="60.12" cy="23.13" r="13.89" transform="matrix(.48160072 -.87639075 .87639075 .48160072 10.89 64.68)"/><circle cx="74.59" cy="31.01" r="13.89" transform="matrix(.48160072 -.87639075 .87639075 .48160072 11.49 81.45)"/><circle cx="22.36" cy="91.76" r="13.89" transform="matrix(.48160072 -.87639075 .87639075 .48160072 -68.83 67.16)"/><circle cx="36.87" cy="99.76" r="13.89" transform="matrix(.39281868 -.91961594 .91961594 .39281868 -69.35 94.47)"/><path d="m96.44 27.1-14.59 9.1a20.83 20.83 0 0 0 -6.68 28.69l14.52 23.27a22.37 22.37 0 0 0 30.78 7.09l9.42-5.84 3.51 5.68a6.57 6.57 0 1 0 11.26-6.76l-1.75-2.75a1.21 1.21 0 0 1 .41-1.67 1.21 1.21 0 0 1 1.67.42l1.59 2.58a6.56 6.56 0 1 0 11.26-6.75l-1.75-2.76a1.22 1.22 0 0 1 .41-1.67 1.22 1.22 0 0 1 1.67.42l1.59 2.59a6.57 6.57 0 1 0 11.24-6.74l-2.5-4-7.6-12.18-10-16.1a39.52 39.52 0 0 0 -54.46-12.62z"/></g><g fill="#565656"><ellipse cx="126.1" cy="65.47" rx="12.35" ry="15.27" transform="matrix(.84823302 -.52962321 .52962321 .84823302 -15.54 76.71)"/><path d="m143.16 52.71c4.25 6.76 12.09 9.51 17.6 6.09a9.48 9.48 0 0 0 1.42-1.08l-1.26-2-10-16.09a39.36 39.36 0 0 0 -4.5-5.93c-.33.17-.67.34-.92.5-5.6 3.5-6.6 11.8-2.34 18.51z"/><path d="m153.25 70.4-3.09 1.91a1.74 1.74 0 0 1 -2.67-1.16l-.91-4.84a1.79 1.79 0 0 1 2.83-1.75l3.92 2.92a1.72 1.72 0 0 1 -.08 2.92z"/></g><path d="m76.59 67.23 13.1 21a22.39 22.39 0 0 0 30.78 7.09l1.17-.75a32.13 32.13 0 0 0 -4.76-15.44 31.78 31.78 0 0 0 -40.29-11.9z" fill="#666"/></svg>