<svg height="289" viewBox="0 0 302 289" width="302" xmlns="http://www.w3.org/2000/svg"><path d="m134.87 125.85v-35.38h-10.8v35.38zm88.57 0v-35.38h-10.81v35.38z" fill="#b3b3b3" fill-rule="evenodd"/><path d="m136.61 125.85v-35.38a1.71 1.71 0 0 0 -1.74-1.67h-10.8a1.71 1.71 0 0 0 -1.74 1.67v35.38a1.71 1.71 0 0 0 1.74 1.67h10.8a1.71 1.71 0 0 0 1.74-1.67zm-3.47-33.71v32h-7.34v-32zm92 33.71v-35.38a1.7 1.7 0 0 0 -1.73-1.67h-10.78a1.7 1.7 0 0 0 -1.73 1.67v35.38a1.7 1.7 0 0 0 1.73 1.67h10.81a1.7 1.7 0 0 0 1.73-1.67zm-3.44-33.71v32h-7.33v-32z" fill="#333"/><path d="m214.37 93.93h3.63v28.57h-3.63z" fill="#666"/><path d="m129.44 93.93v28.57h-2.4-1.24v-28.57z" fill="#666" fill-rule="evenodd"/><g fill="#70463a"><path d="m257.59 62.62h-189.35v33.06h189.35a3.68 3.68 0 0 0 2.41-.89l17.83-12.87a3.37 3.37 0 0 0 .72-4.84 3.63 3.63 0 0 0 -.78-.74l-18-13a3.67 3.67 0 0 0 -2.16-.69z" fill-rule="evenodd"/><path d="m257.59 61h-189.35a1.71 1.71 0 0 0 -1.74 1.67v33.01a1.71 1.71 0 0 0 1.74 1.67h189.35a5.52 5.52 0 0 0 1.91-.35 5.32 5.32 0 0 0 1.58-.92l17.79-12.84a5.11 5.11 0 0 0 2.13-3.36 5 5 0 0 0 -1-3.8 4.35 4.35 0 0 0 -.53-.59 5.37 5.37 0 0 0 -.62-.51l-.09-.06-17.98-12.92a5.26 5.26 0 0 0 -1.51-.77 5.73 5.73 0 0 0 -1.35-.25h-.33zm-187.59 3.3h187.59a2.08 2.08 0 0 1 .6.09 2 2 0 0 1 .52.27l17.91 12.93.14.11.22.17.19.21a1.75 1.75 0 0 1 -.37 2.5l-17.8 12.88-.11.09a1.9 1.9 0 0 1 -.59.34 2 2 0 0 1 -.67.12h-187.63z"/><path d="m35.74 35.47v230.62a3.53 3.53 0 0 0 3.6 3.47h27.1a3.53 3.53 0 0 0 3.6-3.47v-230.62a3.38 3.38 0 0 0 -.72-2.08l-13.45-19.17a3.68 3.68 0 0 0 -5-.94 3.74 3.74 0 0 0 -1 1l-13.51 19.25a3.36 3.36 0 0 0 -.62 1.94z" fill-rule="evenodd"/><path d="m34 35.47v230.62a5.06 5.06 0 0 0 1.56 3.63 5.43 5.43 0 0 0 3.77 1.5h27.1a5.43 5.43 0 0 0 3.77-1.5 5 5 0 0 0 1.57-3.63v-230.62a5 5 0 0 0 -.28-1.62 5.45 5.45 0 0 0 -.74-1.39l-13.44-19.17a5.32 5.32 0 0 0 -3.41-2.17 5.47 5.47 0 0 0 -4 .78 5.09 5.09 0 0 0 -1.48 1.44l-13.5 19.26a5.16 5.16 0 0 0 -.68 1.4 4.71 4.71 0 0 0 -.24 1.25.82.82 0 0 0 0 .22zm3.47 230.62v-230.62a1.59 1.59 0 0 1 .08-.53 1.9 1.9 0 0 1 .24-.47l13.51-19.26a2.15 2.15 0 0 1 .23-.28 1.73 1.73 0 0 1 .29-.23 1.92 1.92 0 0 1 1.41-.27 1.81 1.81 0 0 1 1.18.75l13.48 19.15v.07a2.12 2.12 0 0 1 .28.51 2 2 0 0 1 .08.57v230.61a1.73 1.73 0 0 1 -.54 1.27 1.88 1.88 0 0 1 -1.32.53h-27.05a1.89 1.89 0 0 1 -1.32-.52 1.77 1.77 0 0 1 -.55-1.28z"/></g><path d="m261.3 118.63h-159.85c-5.14 0-9.35 2.51-9.35 5.57v48.47c0 3.06 4.21 5.56 9.35 5.56h159.85c5.14 0 9.34-2.5 9.34-5.56v-48.47c0-3.06-4.2-5.57-9.34-5.57z" fill="#ea212d" fill-rule="evenodd"/><path d="m261.3 117.23h-159.85a16.37 16.37 0 0 0 -8.27 2c-2.12 1.26-3.44 3-3.44 4.92v48.47c0 1.91 1.32 3.66 3.44 4.92a16.47 16.47 0 0 0 8.27 2h159.85a16.47 16.47 0 0 0 8.27-2c2.12-1.26 3.43-3 3.43-4.92v-48.42c0-1.92-1.31-3.66-3.43-4.92a16.37 16.37 0 0 0 -8.27-2zm-159.85 2.77h159.85a9.85 9.85 0 0 1 4.93 1.22 3.6 3.6 0 0 1 2 2.94v48.47a3.59 3.59 0 0 1 -2 2.93 9.85 9.85 0 0 1 -4.93 1.22h-159.85a9.82 9.82 0 0 1 -4.93-1.22 3.6 3.6 0 0 1 -2.06-2.93v-48.43a3.61 3.61 0 0 1 2.06-2.94 9.82 9.82 0 0 1 4.93-1.26z" fill="none"/><path d="m56.83 18.57-9.83 14.03a5.12 5.12 0 0 0 -.9 2.65 1.62 1.62 0 0 0 0 .22v230.62a4.92 4.92 0 0 0 .34 1.8h-7.1a1.89 1.89 0 0 1 -1.32-.52 1.77 1.77 0 0 1 -.54-1.27v-230.63a1.59 1.59 0 0 1 .08-.53 1.9 1.9 0 0 1 .24-.47l13.5-19.26a2.15 2.15 0 0 1 .23-.28 1.73 1.73 0 0 1 .29-.23 1.92 1.92 0 0 1 1.41-.27 1.81 1.81 0 0 1 1.18.75z" fill="#663f34" fill-rule="evenodd" stroke="#663f34" stroke-miterlimit="10" stroke-width="8"/><path d="m93.77 124.2a3.6 3.6 0 0 1 2-2.94 9.85 9.85 0 0 1 4.93-1.22h7a5.41 5.41 0 0 0 -2.32 4.16v48.47a5.4 5.4 0 0 0 2.32 4.15h-7a9.85 9.85 0 0 1 -4.93-1.22 3.59 3.59 0 0 1 -2-2.93z" fill="#9c0f17" fill-rule="evenodd" stroke="#9c0f17" stroke-miterlimit="10" stroke-width="4.85"/><path d="m71.78 61.18h5.43v36.23h-5.43z" fill="#663f34"/><g fill="#fff"><path d="m131.1 158.54a5.58 5.58 0 0 1 -1.29 4.13 5.32 5.32 0 0 1 -3.76 1.7 5.39 5.39 0 0 1 -3.76-1.61c-1-1-1.28-2.11-1.28-4.22v-18.94c0-2.57.23-3.49 1.28-4.63a4.85 4.85 0 0 1 3.72-1.65 5.08 5.08 0 0 1 3.76 1.6c1 1.15 1.33 2.2 1.33 4.68z"/><path d="m152.88 139.51c0-2 .19-2.94.92-4a5 5 0 0 1 8-.37 5.76 5.76 0 0 1 1.19 4v18.76c0 2.43-.23 3.44-1.1 4.59a5 5 0 0 1 -3.94 1.88 4.82 4.82 0 0 1 -4-2.07l-8-10.23v6.43a5.53 5.53 0 0 1 -1.15 4 5.07 5.07 0 0 1 -7.93-.14c-.83-1.14-1.06-2.06-1.06-4.31v-19.32a5 5 0 0 1 5.28-5.41 4.56 4.56 0 0 1 3.76 2l8 9.86z"/><path d="m171.41 143a5 5 0 0 1 -3.81-1.33 4.69 4.69 0 0 1 1.2-7.57c1-.46 1.46-.5 5.45-.5h10.19a20 20 0 0 1 3.43.09 4.57 4.57 0 0 1 4.13 4.58 5.07 5.07 0 0 1 -1.65 3.63 5.59 5.59 0 0 1 -3.9 1.1h-2.24v15.22a6.66 6.66 0 0 1 -.88 3.9 4.79 4.79 0 0 1 -4.17 2.3 5.07 5.07 0 0 1 -4.17-2.11c-.69-1.06-.87-1.93-.87-4v-15.31z"/><path d="m217.73 156.16a6.24 6.24 0 0 1 1 3.25 4.93 4.93 0 0 1 -5 5 4.69 4.69 0 0 1 -4.17-2.34l-4.18-6.93v4.18a4.94 4.94 0 0 1 -5 5.09 5.14 5.14 0 0 1 -3.95-1.84 6.63 6.63 0 0 1 -1.19-4.31v-18.89c0-2.2.46-3.44 1.65-4.49s2.16-1.33 4.59-1.33h4.22a18.15 18.15 0 0 1 4.91.46 11 11 0 0 1 8 10.54c0 2.94-.92 5.19-3.25 7.8zm-12.43-10h1.1c1.52.05 2.3-.5 2.3-1.6s-.83-1.7-2.34-1.65a9.35 9.35 0 0 1 -1.06 0z"/><path d="m238.05 132.81a16.06 16.06 0 1 1 -16.05 15.87 16.05 16.05 0 0 1 16.05-15.87zm0 22.11a6.07 6.07 0 0 0 6-6.06 6 6 0 0 0 -12 0 6.08 6.08 0 0 0 6.04 6.06z"/></g></svg>