<svg height="202" viewBox="0 0 227 202" width="227" xmlns="http://www.w3.org/2000/svg"><path d="m61.42 172.87c1 3.91 3.63 9.34 10.35 11.44a22.48 22.48 0 0 0 11.17.89c-.78-.32-1.56-.62-2.34-1a92.88 92.88 0 0 1 -19.18-11.37z" fill="#d0181f"/><path d="m29.07 138.84c1.38 3.45 6.2 15.16 9 15.85 1.36.34 3.21-.33 4.74-1.08a93.09 93.09 0 0 1 -10.91-19.93c-1.75 1.32-3.55 3.24-2.78 5.16z" fill="#d0181f"/><path d="m149.54 186.5c4.24 2.11 10.45 4.61 11.78 1.94 2.07-4.13 17.91-11.71 22.73-16.53 2.88-2.89 4-8.47 4.5-12.5a92.46 92.46 0 0 1 -39 27.09" fill="#d0181f"/><path d="m208.1 120.65a28.17 28.17 0 0 0 4.88-5.91c4.13-6.89 3.44-16.54 2.07-21.36s-6.89-20-6.89-26.86c0-3.71-3.39-5.42-6.64-7a92.48 92.48 0 0 1 6.58 61.09" fill="#d0181f"/><path d="m81.42 6.59c-3.45 2.76-15.16 7.58-22 13.78a17.82 17.82 0 0 0 -5.56 12.17 92.89 92.89 0 0 1 40.59-22.71c-3.87-2-10.63-5.16-13-3.24z" fill="#d0181f"/><path d="m25.37 103.62a92.25 92.25 0 0 1 7.75-41.5c.39-.89.82-1.75 1.23-2.61-3.81 1.06-9.59 3.62-10.11 7.7-.68 5.51-2.75 19.29-3.44 27.55-.35 4.18 2.13 6.78 4.57 8.86z" fill="#d0181f"/><path d="m159.73 16.76c-2.84-3.92-5.17-7.43-6-8.79-2.07-3.44-10.33-4.82-15.84-4.82-2.93 0-7 2.14-10.21 4.14a92.72 92.72 0 0 1 27.56 7.35c1.52.67 3 1.38 4.48 2.12" fill="#d0181f"/><path d="m190.25 34.15c-1.36-.68-4.23-.69-7.44-.86a92.44 92.44 0 0 1 11.8 14.17c-1-5.78-2.54-12.4-4.36-13.31" fill="#d0181f"/><path d="m38 102.34 5.51-3.67c6.82 1.23 5.55 15.37-1.12 19.08-7.77 4.31-9.78-1.32-9.14-6.94.5-4.3 2.54-8.61 4.75-8.47m23-60.62v-.92c10.87.08 19.94 5.48 4.8 10.79-11.75 4.11-13.38-.18-11.8-4.48 1.42-3.9 5.48-7.81 7-5.39m16.51-11.94h2.76c9.83-1.27 15 5.45 3.72 9.23-10 3.34-20.1-7.89-6.48-9.23m15.62 30.31 10.1.92h1.06a13.64 13.64 0 0 1 2.47.13c.18 6.69-11.12 15.36-17.39 9.84-4.07-3.57-1.13-13 3.76-10.9m11-40.41 4.59-.92c9.68 1.3 13.48 10 1.84 11.94-6.1 1-10.33-2.25-11.74-5.53s0-6.6 5.31-5.49m16.48 32.14c-6.45 1-17.67-1.42-12.86-10 1.85-.92 1.09.52 1.89.79l11-1.83c10.88-1.85 9.7 9.48-.05 11m4.64 35.82 5.51-.92c5.17 11.32-14.84 9.93-5.51.92m14.77-28.42 11 5.51a7 7 0 0 1 -.16 7.19c-4.86.74-11.87.49-15.45-3.52-4.13-4.61-3.22-11.07 4.59-9.18m1.83-25.71h2.76c6.94-.42 15.27 10.43 13.64 17.31-7.51.77-19.31-2.78-23.09-9.74s1.88-15.5 6.69-7.57m44.86 26.54c-11 1.42-14.6-7.83-14.42-17.19a13.06 13.06 0 0 1 7.21 3.56l.92 1.83c5.42.5 6.75 7.14 6.29 11.8m-6.3 57.1c-14.91 12.48-17.11-14.28-8.26-20.22l7.35-2.76c4.86-7.93 7 .66 7.35 5.57.39 6-1.68 13.43-6.44 17.41m1.84 22.9c-7.88.75-8.14-8.13-.91-8.26l3.67-.92c7.3.39 2.05 8.72-2.76 9.18m11.94-60.61c7.14.88 5.54 10.15.9 13-2.89-3.08-3.74-7.61-3.65-12l2.75-.92m-21.1 86.35c-9.14 3.71-11.23-1.53-9.47-6.77 1.45-4.3 5.49-8.59 10.37-8l3.67-2.75c9-4.29.88 15.26-4.57 17.47m-29.41-68.9 8.26-2.76c12.66 5 0 26.82-9.23 28.49-16.64 3-6.61-21.76 1-25.73m9.43 63.37c-3.61 4.45-15.83 10.53-21.38 5.28-4.72-4.52 2.28-14.1 5.49-18.18l6.43-5.51c12.34 0 19.59 5.85 9.43 18.37m-36.07 17.8c-8.41-.5-12-17.1-2.76-12.87h3.67c7.55 1 8.88 13.47-.91 12.87m-10.1-88.52 5.51-.92c4.88 3.45 5.29 13.86-.92 15.63-9 2.57-9.71-10.85-4.59-14.71m13.58 48c-7 20.7-28.35-8.57-24.6-10.37l1.84-5.51c8.67-10.79 27 3.25 22.76 15.88m-50.31 18.1 4.59-7.35c-1.33-16.81 22 4.72 23.9 11.94 1.71 6.42.92 16.28-7.35 16.55-9.66.32-16.81-14.6-21.14-21.14m-12-45.88c-2.26-5.87 10.48-20.37 15.65-20.25l3.67-.92c4-2.2 14.79-.85 16.37 5.52 1.33 5.35-7.26 14.3-11.57 16.54-4.67 2.43-22 4.69-24.12-.89m-5.47 17.41 3.67.91c5.21-1.25 1.56 9.19-.16 12.7a17.13 17.13 0 0 1 -4.27.5c-.88-4.74-1.65-10.32.76-14.11m0-58.78 3.67-.92c1.13 0 2.38-.09 3.68-.17 5.25-.32 11.24-.67 12.95 4.76 1.53 5-7.09 14-10.4 16.35-13.77 9.85-19.81 1-19.59-7.87.16-6.42 3.59-12.84 9.75-12.15m-27.39 35.29a92.62 92.62 0 0 0 55.23 80.62c.78.34 1.56.64 2.34 1a92.64 92.64 0 0 0 119.79-48.43 93.81 93.81 0 0 0 5.37-16.12 92.56 92.56 0 0 0 -48.37-103.93c-1.46-.74-3-1.45-4.48-2.12a92.52 92.52 0 0 0 -120.9 44.87c-.41.86-.84 1.72-1.23 2.61a92.25 92.25 0 0 0 -7.75 41.5" fill="#ed1c24"/><g fill="#d0181f"><path d="m65.78 51.59c15.14-5.31 6.07-10.71-4.78-10.79v.92c-3.17-5.09-17.59 17.72 4.8 9.87z"/><path d="m110.58 30.7c11.64-1.94 7.84-10.64-1.84-11.94l-4.59.92c-5.3-1.11-6.74 2.19-5.31 5.49s5.64 6.54 11.74 5.53"/><path d="m84 39c11.29-3.78 6.11-10.5-3.72-9.23h-2.77c-13.62 1.35-3.51 12.58 6.49 9.23z"/><path d="m158.2 50.77c1.63-6.88-6.7-17.73-13.64-17.31h-2.76c-4.81-7.93-10.4.76-6.69 7.57s15.58 10.51 23.09 9.74"/><path d="m179.46 46.32a13.06 13.06 0 0 0 -7.21-3.56c-.18 9.36 3.38 18.61 14.42 17.19.46-4.66-.87-11.3-6.29-11.8z"/><path d="m98.66 160.2c-1.93-7.22-25.23-28.75-23.9-11.94l-4.59 7.35c4.33 6.54 11.48 21.46 21.14 21.14 8.27-.27 9.06-10.13 7.35-16.55z"/><path d="m117.92 165.09h-3.67c-9.19-4.23-5.65 12.37 2.76 12.87 9.79.6 8.46-11.83.91-12.87"/><path d="m177.62 148.26-3.62 2.74c-4.88-.64-8.92 3.65-10.37 8-1.76 5.24.33 10.48 9.47 6.77 5.45-2.21 13.56-21.76 4.57-17.47"/><path d="m181.3 131.73c-7.23.13-7 9 .91 8.26 4.81-.46 10.06-8.79 2.76-9.18z"/><path d="m143.64 141.83-6.43 5.51c-3.21 4.08-10.21 13.66-5.52 18.14 5.55 5.25 17.77-.83 21.38-5.28 10.16-12.52 2.91-18.32-9.43-18.37"/><path d="m179.46 94.07-7.35 2.76c-8.85 5.94-6.65 32.7 8.26 20.22 4.76-4 6.83-11.4 6.44-17.41-.32-4.91-2.49-13.5-7.35-5.57"/><path d="m194.15 79.38-2.75.92c-.09 4.44.76 9 3.65 12 4.64-2.82 6.24-12.09-.9-13"/><path d="m62.56 88.38c3.31-2.38 11.93-11.38 10.44-16.38-2.13-6.79-11-4.55-16.61-4.56l-3.67.92c-14.66-1.63-13.9 37 9.84 20z"/><path d="m89.37 71c6.27 5.52 17.57-3.15 17.39-9.84a23 23 0 0 0 -3.53-.14l-10.1-.92c-4.89-2.1-7.83 7.32-3.76 10.9z"/><path d="m150.83 71.87a7 7 0 0 0 .16-7.19l-11-5.51c-7.81-1.89-8.72 4.57-4.59 9.18 3.58 4 10.59 4.26 15.45 3.52"/><path d="m142.67 122.56c9.2-1.67 21.89-23.53 9.23-28.49l-8.26 2.76c-7.58 4-17.61 28.74-1 25.73"/><path d="m130.78 86.72-5.51.92c-9.33 9 10.68 10.4 5.51-.92"/><path d="m93.88 94.08c-1.58-6.37-12.39-7.72-16.37-5.52l-3.67.92c-5.17-.12-17.91 14.38-15.65 20.25 2.14 5.58 19.45 3.32 24.12.89 4.31-2.24 12.9-11.19 11.57-16.54z"/><path d="m56.23 140.75c1.72-3.51 5.37-14 .16-12.7l-3.67-.91c-2.41 3.79-1.64 9.37-.76 14.11a17.13 17.13 0 0 0 4.27-.5z"/><path d="m97.72 121.63-1.84 5.51c-3.75 1.8 17.65 31.07 24.6 10.37 4.24-12.63-14.09-26.67-22.76-15.88"/><path d="m111.49 104.19c6.21-1.77 5.8-12.18.92-15.63l-5.51.92c-5.12 3.86-4.38 17.28 4.59 14.71"/><path d="m42.41 117.75c6.67-3.71 7.94-17.85 1.12-19.08l-5.53 3.67c-5.1-.32-9.32 23 4.39 15.41z"/><path d="m120.68 40.81-11 1.83c-.8-.27 0-1.71-1.89-.79-4.81 8.55 6.41 11 12.86 10 9.75-1.53 10.93-12.86.05-11"/></g></svg>