<svg height="254" viewBox="0 0 206 254" width="206" xmlns="http://www.w3.org/2000/svg"><path d="m60.75 48.17q0-.77-.06-1.53a24.73 24.73 0 0 0 6.66-17v-6.39a2 2 0 0 0 -2-1.95 2 2 0 0 0 -1.93 2v6.36a21 21 0 0 1 -3.79 12.06 18.89 18.89 0 0 0 -17.73-12.42 15 15 0 0 1 -12.7-7.09 9.43 9.43 0 0 0 7.59-6.82 1.92 1.92 0 0 0 -1.86-2.39h-.07a1.93 1.93 0 0 0 -1.86 1.41 5.52 5.52 0 0 1 -5.28 4h-.19a15.07 15.07 0 0 1 -.53-4.02v-1.39a2 2 0 1 0 -4 0v1.42a19.07 19.07 0 0 0 1.22 6.58.76.76 0 0 0 .08.21 19.1 19.1 0 0 0 2.59 4.6h-4.07a7 7 0 0 1 -7-7 2 2 0 1 0 -3.92 0 10.93 10.93 0 0 0 10.92 10.91h8.1a18.77 18.77 0 0 0 11 3.52 14.89 14.89 0 0 1 14.84 15v13.03h3.92v-13.1z" fill="#ad966e"/><path d="m84.18 61.19v-13a14.91 14.91 0 0 1 14.82-14.97 18.77 18.77 0 0 0 11-3.52h8.1a10.93 10.93 0 0 0 10.92-10.92 2 2 0 1 0 -3.92 0 7 7 0 0 1 -7 7h-4a19.41 19.41 0 0 0 2.58-4.6 2 2 0 0 0 .09-.22 19 19 0 0 0 1.23-6.59v-1.37a2 2 0 0 0 -2-2 2 2 0 0 0 -2 2v1.36a14.31 14.31 0 0 1 -.57 4.05h-.19a5.5 5.5 0 0 1 -5.28-4 1.93 1.93 0 0 0 -1.86-1.46h-.07a1.94 1.94 0 0 0 -1.86 2.44 9.37 9.37 0 0 0 7.59 6.82 15 15 0 0 1 -12.7 7.09 18.88 18.88 0 0 0 -17.7 12.42 20.88 20.88 0 0 1 -3.8-12.06v-6.36a2 2 0 1 0 -3.92-.07v6.43a24.8 24.8 0 0 0 6.66 17q-.06.77-.06 1.53v13.1h3.92s0 0 0-.06z" fill="#ad966e"/><path d="m175.9 126.26a12.36 12.36 0 0 0 0-17.5l-14.56 14.57a38.19 38.19 0 0 1 10.66 6.89z" fill="#5a5138"/><path d="m122.07 172.35a34.29 34.29 0 0 0 32.1 22.24v43.13l-4 6.45h10.39l3.94-6.41h-9.12 11.62l-4.58-10.07 1.59-34.24a9.92 9.92 0 0 0 -9.9-10.39v-6a35.34 35.34 0 0 1 -2.16-4.67z" fill="#49412e"/><path d="m63.51 172.33v65.37l-4 6.44h10.49l4-6.4h-9.12 11.52l-4.6-10.14 2.39-55.21h-9.83a6.07 6.07 0 0 1 -.85 0z" fill="#49412e"/><path d="m105.93 120.28a20.18 20.18 0 0 0 -18.57-12.28h-.44v-28.6a16.38 16.38 0 0 1 -8.34 14.29v3.56h-16.2v-3.56a16.43 16.43 0 0 1 -8.33-14.29v82.69a10.28 10.28 0 0 0 9.44 10.24h.84 26.89v65.37l-4 6.44h10.45l3.94-6.4h-9.12 11.62l-4.6-10.14 2.4-55.21h5.64v-44.18a20.14 20.14 0 0 0 -1.62-7.93z" fill="#5a5138"/><path d="m102.22 46a15.3 15.3 0 0 0 -15.3 15.31 15.32 15.32 0 0 0 15.3-15.31z" fill="#6b5a40"/><path d="m62.4 93.67v-2.61a8.1 8.1 0 1 1 16.2 0v2.61a16.42 16.42 0 0 0 8.34-14.29v-18.13h-32.87a15.3 15.3 0 0 0 -15.31-15.31 15.3 15.3 0 0 0 15.31 15.31v18.13a16.43 16.43 0 0 0 8.33 14.29zm18-26.1a6 6 0 1 1 -6 6 6 6 0 0 1 5.98-6zm-25.74 6a6 6 0 1 1 6 6 6 6 0 0 1 -6.02-6.02z" fill="#6b5a40"/><path d="m70.5 83a8.1 8.1 0 0 0 -8.1 8.1v6.17h16.2v-6.21a8.1 8.1 0 0 0 -8.1-8.06zm3.57 1.87-3.57 3.03-3.56-3.07z" fill="#ad966e"/><path d="m66.6 73.55a6 6 0 1 0 -6 6 6 6 0 0 0 6-6zm-7.95 0a2 2 0 1 1 2 2 2 2 0 0 1 -2-2z" fill="#5a5138"/><path d="m62.6 73.55a2 2 0 1 0 -2 2 2 2 0 0 0 2-2z" fill="#322e20"/><path d="m80.38 79.53a6 6 0 1 0 -6-6 6 6 0 0 0 6 6zm0-8a2 2 0 1 1 -2 2 2 2 0 0 1 2-1.96z" fill="#5a5138"/><g fill="#322e20"><path d="m80.38 75.52a2 2 0 1 0 -2-2 2 2 0 0 0 2 2z"/><path d="m74.07 84.83h-7.13l3.56 3.09z"/><path d="m83.35 250.55h10.37l4-6.45h-10.42z"/></g><path d="m192 237.7h5l-4.58-10.07 1.58-34.25a9.93 9.93 0 0 0 -9.9-10.38v-25.09a37.63 37.63 0 0 0 -37.64-37.63h-40.53a20.14 20.14 0 0 1 1.62 7.93v44.14h44.45a35.34 35.34 0 0 0 2.16 4.67 34.3 34.3 0 0 0 29.94 17.57v43.13l-4 6.45h10.38l3.95-6.41h-9.12 6.69z" fill="#6b5a40"/></svg>