<svg height="491" viewBox="0 0 624 491" width="624" xmlns="http://www.w3.org/2000/svg"><path d="m131.21 49.07-14.8 18.96-101.93 130.83-14.68 18.72.12.12h14.56 248.25 92.92l116.73-149.67 14.79-18.96z" fill="#7a4c3f"/><path d="m355.65 217.7h-92.92-248.25-14.56l12.13 11.9h2.43 257.61 74.31 21.39z" fill="#663f34"/><path d="m197.55 4h92v16.41h-92z" fill="#7f4f41"/><path d="m208.53 20.41v65.18l34.9 36.64v-101.82z" fill="#70463a"/><path d="m243.43 20.41v101.82h.11l34.91-36.64v-65.18z" fill="#7f4f41"/><path d="m470.18 98.19 16.99-21.72 119.05 152.67h6.35l-122.51-156.37z" fill="#6b4338"/><path d="m606.22 201.63-104.25-133.6-14.8-18.96-14.79 18.96-116.73 149.67 12.14 11.9 102.39-131.41 19.88-25.42 122.51 156.37 8.44-8.44z" fill="#945b4c"/><path d="m367.79 229.6h-21.39-74.31-257.61v13.41l353.31 4.5z" fill="#dbcb95"/><path d="m14.48 243.01v245.59h353.31v-241.09z" fill="#f0dea4"/><path d="m606.22 246.94v-17.34-.46l-119.05-152.67-119.38 153.13v13.06l119.38-152.9z" fill="#dbcb95"/><path d="m487.17 89.76-119.38 152.9v245.94h238.43v-241.66z" fill="#ffeeb0"/><path d="m58.74 288.43h118.46v123.32h-118.46z" fill="#ccbd8c"/><path d="m72.61 306.22h39.87v96.39h-39.87z" fill="#0082b5"/><path d="m121.38 306.22h46.81v96.39h-46.81z" fill="#0082b5"/><path d="m67.76 297.44v105.29h4.85v-96.5h39.87v96.5h8.9v-96.5h46.81v-8.79z" fill="#00709c"/><path d="m204.94 288.43h118.46v123.32h-118.46z" fill="#ccbd8c"/><path d="m429.16 288.43h118.46v200.17h-118.46z" fill="#ccbd8c"/><path d="m218.81 306.22h39.87v96.39h-39.87z" fill="#0082b5"/><path d="m267.58 306.22h46.81v96.39h-46.81z" fill="#0082b5"/><path d="m214.07 297.44v105.29h4.74v-96.5h39.88v96.5h8.89v-96.5h46.81v-8.79z" fill="#00709c"/><path d="m449.15 178.28h75.7v78.82h-75.7z" fill="#ccbd8c"/><path d="m457.93 189.73h25.54v61.6h-25.54z" fill="#0082b5"/><path d="m489.14 189.73h29.93v61.6h-29.93z" fill="#0082b5"/><path d="m454.93 184.06v67.27h3v-61.6h25.55v61.6h5.66v-61.6h29.93v-5.67z" fill="#00709c"/><g fill="#70463a"><path d="m67.87 171.47a19.61 19.61 0 0 0 39.07 0z"/><path d="m146.23 171.47a19.61 19.61 0 0 0 39.07 0z"/><path d="m224.59 171.47a19.6 19.6 0 0 0 39.06 0z"/><path d="m303 171.47a19.6 19.6 0 0 0 39.06 0z"/><path d="m107.05 133.44a19.61 19.61 0 0 0 39.07 0z"/><path d="m185.41 133.44a19.61 19.61 0 0 0 39.07 0z"/><path d="m263.77 133.44a19.6 19.6 0 0 0 39.06 0z"/><path d="m342.24 133.44a19.61 19.61 0 0 0 39.07 0z"/><path d="m146.23 95.42a19.61 19.61 0 0 0 39.07 0z"/><path d="m303 95.42a19.6 19.6 0 0 0 39.06 0z"/><path d="m381.42 95.42a19.61 19.61 0 0 0 39.07 0z"/></g><path d="m437.25 302.41h91.65v186.19h-91.65z" fill="#816c4a"/><path d="m455.39 317.32h55.82v149.21h-55.82z" fill="#69573c"/><path d="m511.21 317.32v149.2h-55.82v-149.2h-3.12v151.98h61.72v-151.98z" fill="#5e4f36"/><path d="m468.1 404.58a3 3 0 0 1 -3 3h-18.72a3 3 0 0 1 -3-3 3 3 0 0 1 3-3h18.72a2.91 2.91 0 0 1 3 3z" fill="#3f4247"/><path d="m536.87 288.43h10.63v200.17h-10.63z" fill="#f0dfa6"/></svg>