<svg height="116" viewBox="0 0 273 116" width="273" xmlns="http://www.w3.org/2000/svg"><path d="m270.42 89.39a23.76 23.76 0 1 1 -23.76-23.76 23.76 23.76 0 0 1 23.76 23.76z" fill="#f29010"/><path d="m210.75 66.21c-4.68 4.63-13.89 8.41-20.47 8.41h-76.28c-6.58 0-13.93-5-16.34-11.13l-16.91-42.9c-2.41-6.13 1-11.14 7.59-11.14h167.81c6.58 0 8.14 3.79 3.46 8.42z" fill="#ea212d"/><g fill="#333"><path d="m246.66 68.21a21.18 21.18 0 1 0 21.18 21.18 21.2 21.2 0 0 0 -21.18-21.18zm0 47.52a26.34 26.34 0 1 1 26.34-26.34 26.37 26.37 0 0 1 -26.34 26.34z"/><path d="m270.15 12.06c0 2.81-3.13 5.1-7 5.1h-183.66c-3.86 0-7-2.29-7-5.1 0-2.82 3.13-5.1 7-5.1h183.67c3.86 0 7 2.28 7 5.1z"/><path d="m246.66 92.71a3.41 3.41 0 0 1 -1.24-.24l-38.42-15.47-102.74-1.94-67.52-59.68h-33.08a3.32 3.32 0 0 1 0-6.64h35.59l67.58 59.71 101.51 1.88 39.57 16a3.32 3.32 0 0 1 -1.25 6.4z"/><path d="m112.47 109.73a9 9 0 0 1 -2.28-.29c-6.42-1.74-9.63-9-9.54-21.64a103.2 103.2 0 0 1 1.63-16.67 3.32 3.32 0 1 1 6.53 1.25c-2.19 11.42-2.7 29.06 3.12 30.64s22-14.71 33.67-30.67a3.33 3.33 0 1 1 5.4 3.94c-6 8.15-25.59 33.44-38.49 33.44z"/></g><g fill="#f29010"><path d="m156.62 43.74a7.53 7.53 0 1 1 -7.53-7.53 7.53 7.53 0 0 1 7.53 7.53z"/><path d="m185.33 43.74a7.53 7.53 0 1 1 -7.53-7.53 7.53 7.53 0 0 1 7.53 7.53z"/><path d="m216.53 43.74a7.53 7.53 0 1 1 -7.53-7.53 7.53 7.53 0 0 1 7.53 7.53z"/></g></svg>