<svg height="150" viewBox="0 0 115 150" width="115" xmlns="http://www.w3.org/2000/svg"><rect fill="#463f46" height="21" rx="10.5" width="74" x="21" y="112"/><path d="m29 45.24s-7.75 60.25 4.8 62.76l16.63-19.67-6.6-48.21z" fill="#99671d"/><path d="m88.12 45.24s7.71 60.25-4.84 62.75l-16.63-19.66 6.6-48.21z" fill="#99671d"/><path d="m47.67 109.78s-1.08 14.07-7.22 14.07-9-14.71-6-17.65 2.37-1.28 2.37-1.28-2.49-12.16 1.47-12.8l10.14 10.93z" fill="#eda627"/><path d="m69.62 109.78s1.08 14.07 7.22 14.07 9-14.71 6-17.65-2.37-1.28-2.37-1.28 2.53-12.16-1.47-12.8l-10.13 10.93z" fill="#eda627"/><path d="m74.78 103.89-13.37-6.65.41-3.2-3.18 1.71-3.17-1.75.4 3.2-13.37 6.69s1 7.72 15.4 8.29h.74.74c14.38-.57 15.4-8.29 15.4-8.29z" fill="#bc7e1b"/><path d="m73.76 103.38-12.35-6.65.41-3.2-3.18 1.71-3.17-1.71.4 3.2-12.35 6.65s0 8.74 14.38 9.31h.74.74c14.38-.57 14.38-9.31 14.38-9.31z" fill="#eda627"/><path d="m75.31 76.87-16.67 1.13-16.64-1.13s-5.43 10-5.43 15.41 2.44 13.66 5.7 13.66 4.21-.68 7.61-3c2.44-1.66 6.63-2.69 8.79-3.13 2.17.44 6.35 1.47 8.8 3.13 3.39 2.31 4.34 3 7.6 3s5.7-8.29 5.7-13.66-5.46-15.41-5.46-15.41z" fill="#bc7e1b"/><path d="m93 60.47a5.52 5.52 0 1 1 -5.52-5.71 5.61 5.61 0 0 1 5.52 5.71z" fill="#eda627"/><path d="m90.36 60.47a3.39 3.39 0 1 1 -3.36-3.47 3.45 3.45 0 0 1 3.36 3.47z" fill="#bc7e1b"/><path d="m24.28 60.47a5.52 5.52 0 1 1 5.52 5.71 5.62 5.62 0 0 1 -5.52-5.71z" fill="#eda627"/><ellipse cx="30.31" cy="60.47" fill="#bc7e1b" rx="3.39" ry="3.51"/><path d="m75.31 75.85-16.67 1.08-16.64-1.08s-6 10.05-6 15.41 2.95 13.66 6.21 13.66 4.21-.68 7.61-3c2.44-1.66 6.63-2.69 8.79-3.13 2.17.44 6.35 1.47 8.8 3.13 3.39 2.31 4.34 3 7.6 3s6.21-8.29 6.21-13.66-5.91-15.41-5.91-15.41z" fill="#eda627"/><path d="m78.29 77.54s10.88 6.14 10.88 16.56-6.53 4.8-6.53 4.8-3.07-11.65-9.64-11.65z" fill="#bc7e1b"/><path d="m78.8 77.54s10.87 6.14 10.87 16.56-7 4.8-7 4.8-2.56-13.18-9.09-13.18z" fill="#eda627"/><path d="m39 77.54s-10.88 6.14-10.88 16.56 6.52 4.8 6.52 4.8 3.07-11.65 9.6-11.65z" fill="#bc7e1b"/><path d="m38.48 77.54s-10.87 6.14-10.87 16.56 7 4.8 7 4.8 2.56-13.18 9.09-13.18z" fill="#eda627"/><path d="m83.81 63.22h1.53c1.51-4 3.37-8.27 3.37-12.43 0-16.67-13.46-25.59-30.07-25.59s-30.06 8.92-30.06 25.59c0 4.16 1.85 8.4 3.36 12.43h.52c.39 1 .83 2.07 1.31 3.09 1.67 4 3.09 11 5.55 17.22a21.76 21.76 0 0 0 11.9 12.09h14.84a21.76 21.76 0 0 0 11.94-12.08c2.46-6.21 4.4-13.27 6.07-17.22.48-1 .41-2 .8-3.09z" fill="#bc7e1b"/><path d="m86.26 61.69a35.66 35.66 0 0 0 2.35-12.43c0-16.67-13.47-25.59-30.07-25.59s-30.07 8.92-30.07 25.59a35.66 35.66 0 0 0 2.35 12.43c.4 1 .83 2.08 1.32 3.09 1.66 3.95 4.62 11 7.08 17.22a21.76 21.76 0 0 0 11.9 12.1h14.88a21.76 21.76 0 0 0 11.86-12.1c2.46-6.21 5.42-13.27 7.08-17.22q.72-1.52 1.32-3.09z" fill="#eda627"/><path d="m62.67 57.29c-.06-.32-.11-.64-.14-1 0 0 11.32-4.13 15.45 0a8.64 8.64 0 0 1 -.14.89c-3.96-3.62-13.84-.34-15.17.11z" fill="#bc7e1b"/><path d="m71.15 62.24c-5.59-.58-7.87-2.86-8.48-6h-.14c.32 3.6 2.46 6.3 8.62 6.94s6.85-6.86 6.85-6.86a1.79 1.79 0 0 1 -.14-.13c-.42 1.99-1.86 6.54-6.71 6.05z" fill="#bc7e1b"/><path d="m65.74 58.87a3.47 3.47 0 1 1 3.47 3.47 3.47 3.47 0 0 1 -3.47-3.47z" fill="#99671d"/><path d="m54.61 57.29c.06-.32.11-.64.14-1 0 0-11.32-4.13-15.45 0 0 0 0 .35.15.89 3.95-3.62 13.87-.34 15.16.11z" fill="#bc7e1b"/><path d="m46.13 62.24c5.59-.58 7.87-2.86 8.48-6h.14c-.31 3.6-2.46 6.3-8.62 6.94s-6.83-6.94-6.83-6.94l.15-.13c.4 2.07 1.85 6.62 6.68 6.13z" fill="#bc7e1b"/><path d="m51.54 58.87a3.47 3.47 0 1 0 -3.46 3.47 3.47 3.47 0 0 0 3.46-3.47z" fill="#99671d"/><g fill="#bc7e1b"><path d="m59.27 64.81s-1.88-15.55 7.28-15.55 13.16 1.15 14.09 3.82c0 0-18.06-2.19-19.33 3.11a24.83 24.83 0 0 0 -.77 8.62z"/><path d="m59.27 64.81s.64 7.09.89 8.2c0 0 2.27.25 2.27 1.53 0 .76-1.58 1.31-1.58 1.31h-2.31v2.15s1.58-.06 2-1.08c0 0 3.58-.8 3.58-2.81a2.65 2.65 0 0 0 -2.76-1.7l-.77-7.55z"/><path d="m57.81 64.81s1.88-15.55-7.28-15.55-13.16 1.15-14.09 3.82c0 0 18.06-2.19 19.33 3.11a24.63 24.63 0 0 1 .76 8.62z"/><path d="m57.81 64.81s-.64 7.09-.89 8.2c0 0-2.27.25-2.27 1.53 0 .76 1.58 1.31 1.58 1.31h2.31v2.15s-1.58-.06-1.95-1.08c0 0-3.58-.8-3.58-2.81a2.65 2.65 0 0 1 2.76-1.7l.76-7.55z"/></g><path d="m71.39 80c-2.36-2.8-11-2.51-12.34-2.44h-.51-.51c-1.4-.07-10-.36-12.34 2.44l-.88 3.45s1.85 5.78 6.71 7h14c4.85-1.18 6.71-7 6.71-7z" fill="#99671d"/><g fill="#eab763"><path d="m68 85.87h-18.88a13 13 0 0 1 -1.89-.48 8.41 8.41 0 0 0 4.85 3.83h12.92a8.41 8.41 0 0 0 4.85-3.83 13 13 0 0 1 -1.85.48z"/><path d="m50 82.05h17a7.15 7.15 0 0 1 3.87 1.15l-.69-2.69c-2.11-2.51-9.91-2.29-11.18-2.23h-.46-.46c-1.27-.06-9.08-.28-11.22 2.23l-.69 2.69a7.15 7.15 0 0 1 3.83-1.15z"/></g></svg>