<svg xmlns="http://www.w3.org/2000/svg" width="3461" height="1495" viewBox="0 0 3461 1495"><title>World_Cave</title><g id="Layer_6" data-name="Layer 6"><path d="M697.41,468.22,712.35,473a20.21,20.21,0,0,1,13.59,23.81c-4,17,.55,24.06,9.88,39.24,46.74,76,218.52,42.71,269.18,55v68H5V578.71l61.58-30.16A72.45,72.45,0,0,1,124.34,551l15.58,7.58a72.44,72.44,0,0,0,67.16-1.92h0a72.47,72.47,0,0,1,79.86,6l13,10.08A72.42,72.42,0,0,0,356.3,587L375,583.9c45.55-7.59,87.58-18.74,120.23-51.39h0A45.75,45.75,0,0,1,518.59,520h0L557,513c12.65-2.53,45.21-4.67,51.81-15.5a25.14,25.14,0,0,1,12.06-10.29L665,469.43A47.89,47.89,0,0,1,697.41,468.22Z" style="fill:#3d3d3f"/><path d="M1697.41,517.51l14.94,3.17c10,2.14,16,9.06,13.59,15.92-4,11.33.55,16.07,9.88,26.22C1782.56,613.6,1954.34,574,2005,582.18V645H1005V591.35l61.58-20.16a105.69,105.69,0,0,1,57.76,1.66l15.58,5.07c21.35,7,46.44,6.47,67.16-1.28h0c25.41-9.51,56.86-7.94,79.86,4l13,6.74c16,8.28,36.41,11.73,56.36,9.51l18.67-2.08c45.55-5.07,87.58-12.52,120.23-34.34h0a55.59,55.59,0,0,1,23.39-8.36h0l38.41-4.68c12.65-1.69,45.21-3.12,51.81-10.36a25.07,25.07,0,0,1,12.06-6.88L1665,518.31A70.44,70.44,0,0,1,1697.41,517.51Z" style="fill:#3d3d3f"/><path d="M2695.41,509.51l14.94,3.17c10,2.14,16,9.06,13.59,15.92-4,11.33.55,16.07,9.88,26.22C2780.56,605.6,2952.34,566,3003,574.18V637H2003V583.35l61.58-20.16a105.69,105.69,0,0,1,57.76,1.66l15.58,5.07c21.35,7,46.44,6.47,67.16-1.28h0c25.41-9.51,56.86-7.94,79.86,4l13,6.74c16,8.28,36.41,11.73,56.36,9.51l18.67-2.08c45.55-5.07,87.58-12.52,120.23-34.34h0a55.59,55.59,0,0,1,23.39-8.36h0l38.41-4.68c12.65-1.69,45.21-3.12,51.81-10.36a25.07,25.07,0,0,1,12.06-6.88L2663,510.31A70.44,70.44,0,0,1,2695.41,509.51Z" style="fill:#3d3d3f"/><path d="M3462,606c0-23,17.9-29.64-12.79-46.22h0a60.66,60.66,0,0,0-22-6.35h0l-36.11-3.55c-11.89-1.29-13.5-2.38-19.7-7.87a25.24,25.24,0,0,0-11.34-5.23l-41.5-9a81.56,81.56,0,0,0-30.45-.62l-14,2.42c-9.43,1.62-15,6.88-12.77,12.09,3.73,8.61-.52,12.21-9.29,19.92-43.94,38.58-205.41,8.48-253,14.71V624" style="fill:#3d3d3f"/></g><g id="Layer_1" data-name="Layer 1"><rect x="4.51" y="633" width="1153.4" height="114" style="fill:#919191"/><polygon points="4.38 683 54.47 711 102.56 683 149.64 711 197.73 683 246.82 711 292.9 681 342.99 711 391.08 681 439.17 711 486.25 683 536.34 711 582.43 683 631.52 711 679.6 683 727.69 711 775.78 681 825.87 711 871.95 683 920.04 711 968.13 681 1017.22 711 1065.3 683 1113.39 711 1157.47 683 1157.47 645 1115.39 672 1065.3 644 1018.22 673 968.13 644 921.04 672 872.96 644 823.87 672 775.78 644 727.69 674 679.6 644 630.51 673 582.43 644 536.34 672 486.25 644 439.17 673 391.08 644 342.99 672 294.9 644 245.82 673 197.73 644 150.64 672 101.55 644 54.47 672 4.38 645 4.38 683" style="fill:#666"/><polygon points="4.38 714 52.46 739 101.55 711 150.64 739 197.73 711 248.82 739 294.9 711 343.99 739 391.08 711 439.17 739 486.25 711 537.35 739 582.43 711 631.52 739 679.6 711 728.69 739 775.78 711 823.87 739 870.95 711 921.04 739 967.13 711 1018.22 739 1063.3 711 1113.39 739 1157.47 714 1157.47 747 4.38 747 4.38 714" style="fill:#666"/><path d="M538.5,657h-.21a15.33,15.33,0,0,0-.72-1.69l-2-4c-.09-.2-.19-.38-.29-.58-.18-.4-.4-.6-.68-.57h-4.44a1.54,1.54,0,0,0-.3,0,.43.43,0,0,0-.28.24c-.1.18-.2.37-.29.56l-.45,1L527,655.6c-.11.22-.21.43-.33.64a1,1,0,0,1-.16.23.21.21,0,0,1-.34,0,1.46,1.46,0,0,1-.17-.24c-.09-.15-.17-.32-.26-.49l-1-2c-.08-.17-.17-.34-.25-.52-.36-.84-.77-1.61-1.16-2.4a3.9,3.9,0,0,0-.19-.35.52.52,0,0,0-.37-.31l-.51,0h-4.18c-.26,0-.47.15-.64.52l-.18.36-.9,1.8c-.1.22-.21.44-.31.67-.19.39-.37.79-.56,1.17s-.41.82-.61,1.23l-.24.52a2.57,2.57,0,0,0-.18.61h-.2a7,7,0,0,0-.44-1.1l-.72-1.45-1.6-3.24c-.09-.16-.17-.33-.25-.5-.26-.49-.35-.57-.73-.59h-4.43c-.26,0-.47.14-.64.51-.08.18-.17.34-.26.5l-2.1,4.25c-.11.22-.22.44-.32.66s-.27.6-.38,1h-.2a2.58,2.58,0,0,0-.17-.61c-.11-.23-.21-.45-.32-.66-.41-.85-.84-1.67-1.23-2.56a2.59,2.59,0,0,0-.14-.29c-.32-.65-.64-1.3-1-2-.08-.16-.17-.33-.26-.48a.48.48,0,0,0-.37-.3,2.69,2.69,0,0,0-.4,0H494l-.15,0a.47.47,0,0,0-.28.23l-.12.19c-.37.75-.74,1.49-1.1,2.25-.21.44-.42.89-.63,1.32l-.83,1.65-.24.51a2.33,2.33,0,0,0-.21.69h-.21a2,2,0,0,0-.15-.52c-.09-.2-.18-.4-.28-.59-.48-1-1-2-1.46-3-.34-.67-.68-1.33-1-2a2.89,2.89,0,0,0-.22-.43c-.1-.18-.22-.3-.36-.31l-.51,0h-3.88a3.44,3.44,0,0,0-.46,0c-.16,0-.3.14-.41.35s-.18.33-.26.5l-1.61,3.24c-.09.19-.18.39-.28.59-.19.42-.39.84-.59,1.26a9.58,9.58,0,0,0-.4.91h-.21a1.88,1.88,0,0,0-.16-.62l-.24-.51c-.21-.41-.41-.82-.6-1.26-.07-.18-.16-.35-.24-.51-.53-1.06-1.05-2.12-1.58-3.17,0-.1-.09-.19-.14-.29-.16-.33-.35-.51-.59-.51H470l-.16,0a.48.48,0,0,0-.27.23,3.72,3.72,0,0,0-.19.34c-.29.57-.58,1.14-.85,1.75-.12.28-.26.54-.39.81-.43.86-.86,1.73-1.28,2.59-.1.19-.19.39-.28.59a2,2,0,0,0-.15.53h-.2a5,5,0,0,0-.4-1l-1.32-2.66c-.33-.67-.67-1.33-1-2-.09-.2-.19-.39-.29-.58a1.28,1.28,0,0,0-.11-.2.52.52,0,0,0-.37-.31l-.51,0h-4.13c-.38,0-.46.09-.73.59l-.1.22-1.47,3-.21.44c-.23.54-.48,1-.73,1.55a5.46,5.46,0,0,0-.27.6,1.65,1.65,0,0,0-.14.53h-.21l-.18-.48c-.31-.67-.62-1.35-.94-2s-.67-1.34-1-2l-.75-1.51c-.1-.2-.2-.38-.3-.56a.48.48,0,0,0-.37-.3l-.51,0h-4l-.2,0c-.18,0-.33.13-.46.37s-.15.28-.22.42c-.85,1.7-1.69,3.41-2.54,5.11l-.21.44a2,2,0,0,0-.15.52h-.21a2.49,2.49,0,0,0-.18-.6c-.1-.23-.21-.45-.31-.67-.41-.81-.82-1.63-1.22-2.45l-.45-.95c-.27-.56-.54-1.12-.82-1.67a1.73,1.73,0,0,0-.15-.27.44.44,0,0,0-.28-.23,3.42,3.42,0,0,0-.46,0H434l-.16,0a.52.52,0,0,0-.37.3c-.1.18-.19.37-.29.56-.3.59-.6,1.2-.89,1.8-.11.21-.22.42-.32.65-.32.74-.68,1.43-1,2.12l-.36.73a2.66,2.66,0,0,0-.2.69h-.2a1.89,1.89,0,0,0-.13-.44c-.05-.13-.11-.26-.17-.38q-1.33-2.68-2.68-5.39a3.72,3.72,0,0,0-.19-.34.5.5,0,0,0-.37-.3l-.51,0H422c-.26,0-.47.15-.64.52l0,.07-1.92,3.9a.25.25,0,0,0,0,.07c-.24.57-.5,1.1-.76,1.62a5.66,5.66,0,0,0-.3.7h-.2a2,2,0,0,0-.15-.53l-.27-.59-1-2c-.12-.24-.24-.48-.35-.73-.37-.84-.77-1.61-1.17-2.41-.07-.14-.14-.27-.22-.4a.46.46,0,0,0-.28-.23,1.65,1.65,0,0,0-.31,0h-4.34a1.54,1.54,0,0,0-.3,0,.47.47,0,0,0-.28.23l-.12.2c-.38.77-.77,1.52-1.14,2.31-.29.62-.58,1.23-.88,1.83l-.72,1.44a8,8,0,0,0-.37.83h-.1a4.89,4.89,0,0,0-.4-1c-.35-.7-.69-1.4-1-2.09-.47-.94-.93-1.88-1.4-2.81l-.33-.63c-.1-.16-.21-.26-.33-.27a2.92,2.92,0,0,0-.51,0h-3.88a3.42,3.42,0,0,0-.46,0,.45.45,0,0,0-.33.27l-.33.62-1.65,3.33c-.31.63-.6,1.28-.9,1.92a1.11,1.11,0,0,0-.07.16,2.14,2.14,0,0,0-.13.54h-.21a5.27,5.27,0,0,0-.33-.76c-.45-.92-.9-1.83-1.34-2.77s-.9-1.83-1.36-2.74a3.72,3.72,0,0,0-.19-.34.44.44,0,0,0-.28-.23,1.54,1.54,0,0,0-.3,0H386a1.76,1.76,0,0,0-.31,0,.47.47,0,0,0-.27.24c-.1.18-.2.36-.29.56-.24.54-.49,1-.74,1.54-.55,1.11-1.1,2.21-1.64,3.32-.11.21-.22.43-.32.66a2,2,0,0,0-.15.52h-.21a4.32,4.32,0,0,0-.32-.9l-.25-.5c-.61-1.23-1.22-2.45-1.82-3.67l-.57-1.17-.18-.35a.46.46,0,0,0-.27-.25,5.46,5.46,0,0,0-.56,0h-4a2.85,2.85,0,0,0-.41,0,.48.48,0,0,0-.28.22,3.72,3.72,0,0,0-.19.34l-1.71,3.45a2.4,2.4,0,0,0-.11.23c-.21.49-.43.94-.66,1.4-.1.19-.19.38-.28.58a2.25,2.25,0,0,0-.17.62h-.3a2.66,2.66,0,0,0-.17-.62c0-.08-.07-.15-.1-.23-.34-.66-.67-1.35-1-2l-.11-.22-1.47-3c-.08-.17-.17-.33-.26-.49a.45.45,0,0,0-.32-.27,4.38,4.38,0,0,0-.51,0h-3.89a2.45,2.45,0,0,0-.46,0,.43.43,0,0,0-.32.27c-.12.2-.23.41-.33.62-.66,1.32-1.32,2.65-2,4-.26.53-.51,1.09-.76,1.64l-.12.33h-.2a2,2,0,0,0-.15-.52c-.09-.2-.19-.4-.28-.59l-1.47-2.95c-.33-.68-.67-1.34-1-2.05a4.48,4.48,0,0,0-.26-.49.46.46,0,0,0-.28-.24,1.54,1.54,0,0,0-.3,0H350a1.54,1.54,0,0,0-.3,0,.44.44,0,0,0-.28.23,5.86,5.86,0,0,0-.3.55l-1.15,2.3c-.09.2-.19.39-.28.59-.2.46-.41.9-.63,1.33s-.35.72-.53,1.08a6.68,6.68,0,0,0-.34.76H346a2.3,2.3,0,0,0-.2-.7c-.26-.57-.52-1.15-.8-1.7-.61-1.26-1.24-2.51-1.86-3.76-.07-.14-.14-.28-.22-.41a.45.45,0,0,0-.33-.27,2.92,2.92,0,0,0-.51,0h-3.88a2.38,2.38,0,0,0-.46,0,.45.45,0,0,0-.32.27,5.86,5.86,0,0,0-.3.55c-.72,1.45-1.43,2.89-2.15,4.33-.26.54-.51,1.09-.73,1.69H334a1.65,1.65,0,0,0-.14-.53c-.06-.15-.13-.3-.2-.45l-1-2.09c-.12-.24-.24-.47-.35-.73-.37-.84-.78-1.61-1.17-2.4l-.22-.41a.46.46,0,0,0-.28-.23,1.65,1.65,0,0,0-.31,0H326a1.55,1.55,0,0,0-.31,0,.51.51,0,0,0-.28.24l-.15.26c-.19.39-.38.77-.57,1.17s-.39.84-.59,1.24c-.45.92-.91,1.83-1.36,2.74l-.31.66a2,2,0,0,0-.15.53h-.2a3.7,3.7,0,0,0-.16-.4c-.2-.46-.4-.92-.61-1.35l-2.19-4.41c-.07-.14-.14-.28-.22-.41a.45.45,0,0,0-.33-.27,2.92,2.92,0,0,0-.51,0h-3.88a3.57,3.57,0,0,0-.46,0,.45.45,0,0,0-.32.27c-.12.2-.23.41-.34.63-.47,1-.95,1.92-1.43,2.89-.38.77-.75,1.56-1.12,2.35l0,.08a2.25,2.25,0,0,0-.17.62H310a2.61,2.61,0,0,0-.24-.76l-.72-1.44c-.19-.39-.38-.76-.56-1.17-.44-1-.92-1.89-1.38-2.83a4,4,0,0,0-.23-.41.45.45,0,0,0-.27-.23,4.38,4.38,0,0,0-.51,0h-4.23l-.21,0a.51.51,0,0,0-.27.24,2.78,2.78,0,0,0-.22.42c-.22.51-.46,1-.7,1.47l-1.61,3.24-.31.66a3.88,3.88,0,0,0-.3.81H298a2.55,2.55,0,0,0-.12-.44c-.06-.13-.11-.25-.17-.37q-1.35-2.7-2.68-5.4c-.06-.12-.13-.23-.19-.34s-.23-.29-.37-.3a5.25,5.25,0,0,0-.56,0h-4.08a.69.69,0,0,0-.2,0,.5.5,0,0,0-.28.23c-.08.13-.15.26-.23.41-.6,1.22-1.22,2.43-1.82,3.67-.31.65-.62,1.33-.94,2-.08.17-.15.37-.22.55H286a2.09,2.09,0,0,0-.17-.61c-.1-.23-.21-.45-.31-.67-.25-.51-.51-1-.75-1.53-.55-1.2-1.14-2.32-1.71-3.49,0-.09-.1-.18-.15-.27a.48.48,0,0,0-.32-.27,2.85,2.85,0,0,0-.41,0h-4.09l-.36,0c-.14,0-.26.14-.36.33l-.15.28c-.81,1.63-1.62,3.27-2.44,4.9a9.13,9.13,0,0,0-.54,1.34H274a6,6,0,0,0-.44-1.11l-2-4-.57-1.17a2.31,2.31,0,0,0-.18-.35.46.46,0,0,0-.27-.25,1.55,1.55,0,0,0-.31,0H266a1.54,1.54,0,0,0-.3,0,.46.46,0,0,0-.28.24l-.12.19c-.32.65-.65,1.29-1,1.95s-.51,1.09-.77,1.61l-.86,1.73c-.09.19-.18.39-.28.59a2.4,2.4,0,0,0-.14.53H262a9.42,9.42,0,0,0-.48-1.06c-.21-.43-.42-.86-.62-1.33l-.25-.51c-.52-1.06-1.05-2.12-1.58-3.18-.07-.14-.14-.28-.22-.42s-.25-.34-.41-.35a5.25,5.25,0,0,0-.56,0H254c-.46,0-.52.06-.85.72l-2.37,4.75c-.12.25-.23.5-.33.77a2.5,2.5,0,0,0-.15.64H250a4.32,4.32,0,0,0-.32-.9c-.11-.22-.22-.43-.32-.65-.74-1.5-1.5-2.94-2.2-4.49a5,5,0,0,0-.3-.56.44.44,0,0,0-.27-.24,1.55,1.55,0,0,0-.31,0h-4.33a1.54,1.54,0,0,0-.3,0,.46.46,0,0,0-.28.24,2.2,2.2,0,0,0-.15.26c-.17.34-.33.68-.5,1l-.48,1-1.53,3.1c-.11.22-.22.44-.32.66a2,2,0,0,0-.15.52H238c0-.11-.07-.23-.11-.33-.22-.48-.43-1-.66-1.42-.72-1.48-1.45-2.94-2.18-4.4-.07-.15-.15-.28-.23-.42a.45.45,0,0,0-.32-.27,2.92,2.92,0,0,0-.51,0H230.1a2.45,2.45,0,0,0-.46,0,.48.48,0,0,0-.32.27c-.13.23-.25.46-.37.7-.63,1.28-1.27,2.55-1.9,3.83-.27.55-.53,1.14-.79,1.71a3.21,3.21,0,0,0-.12.33h-.21a2.46,2.46,0,0,0-.14-.52c-.11-.23-.21-.45-.32-.67l-1.35-2.73-.6-1.25c-.18-.39-.37-.78-.56-1.16a1.75,1.75,0,0,0-.16-.27.47.47,0,0,0-.27-.24,1.65,1.65,0,0,0-.31,0h-4.33a1.54,1.54,0,0,0-.3,0,.49.49,0,0,0-.28.24c-.12.19-.22.42-.33.64-.18.39-.37.79-.56,1.17-.58,1.18-1.16,2.35-1.75,3.53l-.17.36a4.32,4.32,0,0,0-.33.9h-.3a2.17,2.17,0,0,0-.18-.72c-.1-.23-.2-.46-.31-.67-.34-.7-.69-1.4-1-2.1s-.81-1.63-1.21-2.45c-.11-.21-.22-.42-.34-.63a.45.45,0,0,0-.32-.27,4.38,4.38,0,0,0-.51,0h-3.84l-.46,0a.51.51,0,0,0-.37.29l-.22.42-.61,1.23c-.2.41-.41.81-.6,1.23-.26.59-.54,1.14-.81,1.69l-.61,1.23a7.58,7.58,0,0,0-.34.76h-.2a2,2,0,0,0-.14-.53c-.09-.2-.19-.4-.28-.59l-1.08-2.17c-.13-.26-.26-.52-.38-.8-.34-.77-.71-1.47-1.06-2.19a2.63,2.63,0,0,0-.2-.33.41.41,0,0,0-.28-.23,4.38,4.38,0,0,0-.51,0h-4.19a.84.84,0,0,0-.2,0,.4.4,0,0,0-.23.19c-.1.17-.21.35-.3.54-.84,1.68-1.67,3.37-2.51,5.05a4.89,4.89,0,0,0-.4,1h-.21a8.49,8.49,0,0,0-.51-1.26c-.3-.6-.6-1.2-.89-1.8l-1.44-2.88c-.1-.22-.22-.43-.33-.63a.48.48,0,0,0-.32-.27,4.38,4.38,0,0,0-.51,0H182a3.42,3.42,0,0,0-.45,0,.41.41,0,0,0-.28.23,1.64,1.64,0,0,0-.16.26l-.67,1.38c-.2.42-.39.84-.6,1.26-.42.87-.85,1.73-1.28,2.6-.1.19-.19.39-.28.59a1.87,1.87,0,0,0-.15.52H178c-.08-.18-.15-.38-.23-.55-.42-.84-.82-1.71-1.23-2.56s-1-2-1.47-3l-.11-.22c-.26-.5-.34-.57-.73-.59h-4.14a3.57,3.57,0,0,0-.46,0,.47.47,0,0,0-.32.28c-.12.2-.23.41-.34.62-.81,1.64-1.62,3.27-2.44,4.91l-.24.51a2.44,2.44,0,0,0-.16.52h-.2a2.64,2.64,0,0,0-.19-.6l-.28-.58c-.58-1.18-1.17-2.35-1.75-3.53-.24-.48-.48-.95-.7-1.46a4.13,4.13,0,0,0-.22-.42.48.48,0,0,0-.28-.25,1.54,1.54,0,0,0-.3,0h-4.33a1.65,1.65,0,0,0-.31,0,.48.48,0,0,0-.27.23,2.4,2.4,0,0,0-.16.27c-.21.43-.43.85-.63,1.31s-.49,1-.74,1.53l-.86,1.72c-.15.32-.31.63-.46.95a5.36,5.36,0,0,0-.29.83h-.3a2.25,2.25,0,0,0-.17-.62,1.47,1.47,0,0,0-.1-.22c-.34-.67-.67-1.35-1-2.06l-.11-.22-1.47-3c-.07-.14-.14-.28-.22-.42s-.25-.34-.41-.35l-.51,0h-4c-.38,0-.46.09-.72.59l-.22.43c-.24.49-.48,1-.71,1.45-.35.7-.7,1.38-1,2.12-.09.21-.19.39-.29.59l-.5,1a4.33,4.33,0,0,0-.29.69h-.21a2.05,2.05,0,0,0-.15-.53c-.1-.22-.2-.44-.31-.66-.45-.91-.9-1.82-1.36-2.73-.25-.5-.5-1-.73-1.54-.12-.28-.26-.54-.39-.8q-.07-.15-.15-.27a.54.54,0,0,0-.37-.32,2.69,2.69,0,0,0-.4,0h-4a2.83,2.83,0,0,0-.41,0c-.14,0-.26.13-.36.31s-.15.28-.22.43c-.31.72-.65,1.37-1,2l-1.5,3a4.69,4.69,0,0,0-.4,1h-.21c-.06-.16-.12-.33-.18-.48L129,655c-.69-1.4-1.39-2.79-2.08-4.18l-.18-.35c-.12-.21-.26-.34-.42-.35l-.51,0H122a3.73,3.73,0,0,0-.46,0c-.1,0-.19.1-.28.22l-.15.27c-.31.62-.63,1.24-.93,1.88s-.5,1.09-.77,1.62-.59,1.2-.89,1.8l-.24.52a2,2,0,0,0-.15.53h-.3a2.59,2.59,0,0,0-.22-.68l-.24-.51c-.45-.89-.89-1.78-1.33-2.67-.17-.34-.32-.69-.49-1s-.47-1-.71-1.46a2.2,2.2,0,0,0-.15-.26.43.43,0,0,0-.28-.23,4.38,4.38,0,0,0-.51,0H110a3.57,3.57,0,0,0-.46,0,.48.48,0,0,0-.32.27c-.09.16-.18.32-.26.49l-2.22,4.47c-.15.31-.29.65-.44,1a1.94,1.94,0,0,0-.15.63h-.31c0-.14-.1-.28-.15-.4-.29-.62-.58-1.25-.87-1.85-.63-1.29-1.27-2.56-1.9-3.83-.07-.14-.14-.28-.22-.42s-.25-.34-.41-.35l-.51,0H98a3.57,3.57,0,0,0-.46,0,.44.44,0,0,0-.28.22l-.12.2c-.35.69-.7,1.37-1,2.1-.18.4-.37.79-.56,1.18-.28.58-.58,1.14-.86,1.72-.13.27-.26.54-.38.81a2.57,2.57,0,0,0-.18.61h-.31a2.09,2.09,0,0,0-.17-.61c-.08-.18-.17-.35-.25-.52l-.82-1.65c-.13-.27-.27-.53-.39-.81-.4-.91-.85-1.75-1.27-2.62-.08-.14-.15-.28-.23-.4a.4.4,0,0,0-.28-.23,4.38,4.38,0,0,0-.51,0H86a3.44,3.44,0,0,0-.46,0c-.16,0-.3.14-.41.35s-.18.33-.26.5l-1.83,3.67c0,.12-.11.24-.17.37l-.66,1.41A3.94,3.94,0,0,0,82,657h-.21a2,2,0,0,0-.15-.52l-.24-.52-.86-1.72L79,651.07l-.26-.5c-.14-.27-.3-.42-.5-.43l-.51,0H73.94a3.57,3.57,0,0,0-.46,0,.43.43,0,0,0-.28.23,1.61,1.61,0,0,0-.15.26l-.6,1.24c-.17.34-.33.69-.49,1l-.72,1.44c-.27.56-.55,1.11-.82,1.66a4.34,4.34,0,0,0-.36,1h-.31a1.65,1.65,0,0,0-.13-.53c-.12-.25-.23-.5-.35-.74-.42-.84-.85-1.66-1.24-2.56,0-.1-.09-.19-.14-.29l-1-2c-.09-.16-.17-.33-.26-.48s-.23-.29-.37-.3l-.51,0h-4c-.38,0-.46.09-.72.59l-.18.36L60,652.73c-.11.22-.22.44-.32.66-.21.49-.43,1-.66,1.4L58.48,656c-.09.17-.17.34-.25.52a2.4,2.4,0,0,0-.14.53h-.3a6.08,6.08,0,0,0-.43-1.12c-.59-1.17-1.17-2.35-1.76-3.53-.25-.5-.5-1-.74-1.54-.07-.15-.14-.28-.22-.42a.41.41,0,0,0-.28-.23,4.38,4.38,0,0,0-.51,0H50l-.41,0c-.16,0-.29.14-.41.35l-.22.42-2.43,4.91c-.08.14-.14.29-.21.44a1.82,1.82,0,0,0-.16.73h-.31c-.07-.18-.14-.38-.22-.55-.42-.83-.83-1.71-1.24-2.56s-1-2-1.46-3l-.18-.36c-.15-.31-.34-.44-.55-.44H38l-.46,0c-.18,0-.33.12-.46.37l-.26.49c-.26.53-.52,1.06-.79,1.59l-.42.88c-.18.39-.37.79-.56,1.18l-.64,1.29-.21.45a2.09,2.09,0,0,0-.17.61h-.31a2.49,2.49,0,0,0-.18-.6c-.09-.2-.19-.4-.28-.59L31.89,653c-.27-.55-.55-1.1-.81-1.69-.09-.23-.21-.43-.31-.65l-.12-.2a.52.52,0,0,0-.37-.31l-.51,0H25.69a.64.64,0,0,0-.2,0,.52.52,0,0,0-.33.28c-.12.22-.25.46-.36.7-.71,1.41-1.41,2.83-2.12,4.25q-.29.57-.54,1.2c-.06.13-.1.27-.15.41h-.31a2.31,2.31,0,0,0-.19-.7c-.28-.59-.55-1.19-.84-1.77-.59-1.21-1.19-2.41-1.78-3.61-.08-.14-.15-.28-.22-.42s-.26-.34-.42-.35l-.51,0H13.64l-.21,0a.45.45,0,0,0-.27.23,1.64,1.64,0,0,0-.16.26c-.31.63-.63,1.24-.92,1.88s-.51,1.09-.78,1.62l-.82,1.65-.25.51A3.11,3.11,0,0,0,10,657h-.3a2,2,0,0,0-.15-.52c-.09-.2-.19-.4-.28-.59-.76-1.57-1.56-3.08-2.29-4.7-.12-.25-.24-.48-.36-.71a.54.54,0,0,0-.42-.34l-.51,0H3.38V606H579.92v44.12h-1.57a2.83,2.83,0,0,0-.41,0,.49.49,0,0,0-.32.26l-.12.2c-.32.64-.65,1.28-1,1.94s-.49,1-.74,1.54-.59,1.19-.89,1.79l-.24.52a2.36,2.36,0,0,0-.18.6h-.2a2.44,2.44,0,0,0-.16-.52c-.09-.2-.18-.39-.28-.59-.48-1-1-1.93-1.43-2.9-.27-.55-.55-1.1-.8-1.69-.09-.2-.19-.39-.29-.59-.18-.39-.4-.61-.67-.59h-4.55l-.21,0a.48.48,0,0,0-.28.24c-.09.15-.18.31-.26.47l-2.5,5.07-.18.35c-.2.33-.4.34-.61,0a3.55,3.55,0,0,1-.29-.55c-.13-.28-.25-.56-.38-.82-.66-1.33-1.32-2.65-2-4l-.19-.36c-.16-.34-.36-.48-.59-.48h-4.6a.78.78,0,0,0-.21,0,.42.42,0,0,0-.23.2,3,3,0,0,0-.16.26l-.6,1.23c-.12.25-.23.51-.34.75l-1.58,3.17c-.09.17-.17.34-.26.49a1,1,0,0,1-.17.22.19.19,0,0,1-.3,0,1,1,0,0,1-.17-.22l-.26-.49c-.41-.84-.83-1.68-1.25-2.53-.08-.16-.17-.33-.24-.51-.3-.7-.63-1.33-1-2,0-.09-.1-.18-.15-.27a.52.52,0,0,0-.41-.34l-.41,0h-4.19c-.41,0-.49.07-.77.65-.57,1.16-1.16,2.28-1.7,3.5-.09.21-.19.4-.28.59l-.54,1.09-.24.52A1.65,1.65,0,0,0,538.5,657Z" style="fill:#494949"/><path d="M1116,657h-.21a17.53,17.53,0,0,0-.73-1.69l-2-4c-.09-.2-.19-.38-.28-.58-.19-.4-.41-.6-.69-.57h-4.45a1.54,1.54,0,0,0-.3,0,.43.43,0,0,0-.28.24c-.1.18-.2.37-.29.56l-.45,1-1.83,3.67-.33.64a1.06,1.06,0,0,1-.17.23.21.21,0,0,1-.34,0,2.49,2.49,0,0,1-.17-.24c-.08-.15-.17-.32-.25-.49l-1-2c-.08-.17-.17-.34-.24-.52-.37-.84-.78-1.61-1.17-2.4a3.9,3.9,0,0,0-.19-.35.52.52,0,0,0-.37-.31l-.51,0h-4.19c-.25,0-.47.15-.64.52l-.18.36-.9,1.8c-.11.22-.21.44-.31.67-.19.39-.37.79-.56,1.17s-.41.82-.61,1.23c-.09.17-.17.34-.25.52a2.18,2.18,0,0,0-.17.61h-.21a5.49,5.49,0,0,0-.44-1.1c-.23-.49-.47-1-.71-1.45l-1.61-3.24c-.09-.16-.17-.33-.25-.5-.26-.49-.35-.57-.73-.59h-4.44c-.26,0-.47.14-.64.51-.09.18-.17.34-.26.5-.7,1.42-1.4,2.83-2.11,4.25l-.31.66a6.72,6.72,0,0,0-.38,1h-.21a2.18,2.18,0,0,0-.17-.61c-.1-.23-.21-.45-.32-.66-.41-.85-.84-1.67-1.23-2.56a2.59,2.59,0,0,0-.14-.29c-.32-.65-.64-1.3-1-2-.08-.16-.17-.33-.26-.48a.48.48,0,0,0-.37-.3,2.73,2.73,0,0,0-.41,0h-4.34l-.15,0a.47.47,0,0,0-.28.23l-.12.19c-.37.75-.74,1.49-1.1,2.25-.21.44-.42.89-.64,1.32l-.82,1.65-.25.51a3.11,3.11,0,0,0-.21.69h-.2a2,2,0,0,0-.15-.52c-.09-.2-.19-.4-.28-.59l-1.47-3c-.34-.67-.68-1.33-1-2a4.32,4.32,0,0,0-.22-.43c-.1-.18-.22-.3-.37-.31l-.51,0h-3.88a3.44,3.44,0,0,0-.46,0c-.16,0-.3.14-.42.35l-.25.5c-.54,1.08-1.08,2.16-1.61,3.24-.1.19-.19.39-.28.59-.2.42-.4.84-.59,1.26a9.58,9.58,0,0,0-.41.91h-.2a2.16,2.16,0,0,0-.17-.62q-.12-.27-.24-.51c-.21-.41-.41-.82-.6-1.26-.07-.18-.16-.35-.24-.51-.53-1.06-1-2.12-1.58-3.17,0-.1-.1-.19-.14-.29-.16-.33-.36-.51-.59-.51h-4.66l-.15,0a.5.5,0,0,0-.28.23c-.06.11-.13.22-.19.34-.29.57-.58,1.14-.85,1.75-.12.28-.25.54-.38.81l-1.29,2.59c-.1.19-.19.39-.28.59a2,2,0,0,0-.15.53h-.2a5,5,0,0,0-.39-1c-.45-.88-.89-1.77-1.33-2.66-.33-.67-.67-1.33-1-2a6.19,6.19,0,0,0-.28-.58,1.28,1.28,0,0,0-.11-.2c-.11-.18-.23-.3-.37-.31l-.51,0h-4.14c-.39,0-.47.09-.73.59l-.11.22-1.47,3-.21.44c-.23.54-.48,1-.73,1.55q-.14.28-.27.6a2,2,0,0,0-.14.53h-.21c-.06-.16-.12-.33-.18-.48-.31-.67-.62-1.35-.94-2l-1-2-.75-1.51c-.1-.2-.19-.38-.29-.56a.51.51,0,0,0-.38-.3l-.51,0h-4l-.2,0a.6.6,0,0,0-.47.37l-.22.42c-.84,1.7-1.69,3.41-2.54,5.11l-.21.44a2,2,0,0,0-.15.52h-.21a2.49,2.49,0,0,0-.18-.6c-.1-.23-.21-.45-.32-.67-.4-.81-.81-1.63-1.21-2.45-.16-.31-.3-.64-.46-.95l-.81-1.67a1.75,1.75,0,0,0-.16-.27.45.45,0,0,0-.27-.23,3.73,3.73,0,0,0-.46,0h-4.3l-.15,0a.5.5,0,0,0-.37.3l-.3.56c-.3.59-.59,1.2-.89,1.8-.11.21-.22.42-.32.65-.32.74-.68,1.43-1,2.12l-.36.73a2.66,2.66,0,0,0-.2.69h-.21a1.89,1.89,0,0,0-.12-.44c-.05-.13-.11-.26-.17-.38-.89-1.79-1.79-3.59-2.68-5.39-.06-.12-.13-.23-.19-.34s-.23-.29-.37-.3l-.51,0h-4.14c-.25,0-.47.15-.64.52a.43.43,0,0,1,0,.07l-1.92,3.9a.25.25,0,0,0,0,.07c-.24.57-.5,1.1-.77,1.62a5.67,5.67,0,0,0-.29.7h-.21a1.65,1.65,0,0,0-.14-.53c-.09-.2-.18-.4-.28-.59l-1-2-.36-.73c-.36-.84-.77-1.61-1.16-2.41-.07-.14-.15-.27-.23-.4a.46.46,0,0,0-.28-.23,1.55,1.55,0,0,0-.31,0h-4.34a1.65,1.65,0,0,0-.31,0,.5.5,0,0,0-.28.23,2,2,0,0,0-.11.2c-.39.77-.78,1.52-1.15,2.31-.29.62-.58,1.23-.88,1.83l-.72,1.44a8,8,0,0,0-.37.83h-.1a6.27,6.27,0,0,0-.4-1l-1-2.09c-.46-.94-.93-1.88-1.4-2.81q-.16-.33-.33-.63a.45.45,0,0,0-.33-.27,2.92,2.92,0,0,0-.51,0h-3.89a3.57,3.57,0,0,0-.46,0c-.12,0-.23.11-.33.27l-.33.62c-.55,1.11-1.1,2.21-1.65,3.33-.31.63-.61,1.28-.91,1.92l-.06.16a2.13,2.13,0,0,0-.14.54h-.2a6.68,6.68,0,0,0-.33-.76c-.46-.92-.91-1.83-1.35-2.77s-.9-1.83-1.36-2.74a3.72,3.72,0,0,0-.19-.34.44.44,0,0,0-.28-.23,1.54,1.54,0,0,0-.3,0h-4.35a1.54,1.54,0,0,0-.3,0,.46.46,0,0,0-.28.24c-.1.18-.2.36-.29.56-.24.54-.49,1-.74,1.54L960,655.82c-.11.21-.21.43-.31.66a2,2,0,0,0-.15.52h-.21a4.32,4.32,0,0,0-.33-.9c-.08-.17-.16-.34-.25-.5-.61-1.23-1.22-2.45-1.82-3.67l-.57-1.17-.18-.35a.44.44,0,0,0-.28-.25,5.09,5.09,0,0,0-.56,0h-4a2.85,2.85,0,0,0-.41,0,.48.48,0,0,0-.28.22,3.72,3.72,0,0,0-.19.34l-1.72,3.45c0,.08-.07.15-.1.23-.21.49-.44.94-.67,1.4l-.28.58a2.25,2.25,0,0,0-.16.62h-.31a2.25,2.25,0,0,0-.17-.62,2.29,2.29,0,0,0-.1-.23c-.34-.66-.67-1.35-1-2l-.11-.22-1.47-3c-.08-.17-.17-.33-.26-.49a.45.45,0,0,0-.32-.27,4.38,4.38,0,0,0-.52,0h-3.89a2.45,2.45,0,0,0-.46,0,.43.43,0,0,0-.32.27c-.12.2-.23.41-.34.62-.65,1.32-1.31,2.65-2,4-.26.53-.51,1.09-.76,1.64a3.21,3.21,0,0,0-.12.33h-.21a2,2,0,0,0-.15-.52c-.09-.2-.18-.4-.28-.59l-1.47-2.95c-.33-.68-.67-1.34-1-2.05a4.48,4.48,0,0,0-.26-.49.46.46,0,0,0-.28-.24,1.54,1.54,0,0,0-.3,0h-4.35a1.76,1.76,0,0,0-.31,0,.42.42,0,0,0-.27.23,5.86,5.86,0,0,0-.3.55l-1.15,2.3c-.1.2-.19.39-.28.59-.2.46-.42.9-.63,1.33l-.54,1.08a5.27,5.27,0,0,0-.33.76h-.21a2.05,2.05,0,0,0-.2-.7c-.26-.57-.52-1.15-.8-1.7-.61-1.26-1.24-2.51-1.86-3.76l-.22-.41c-.1-.16-.21-.26-.33-.27a2.92,2.92,0,0,0-.51,0h-3.89a2.38,2.38,0,0,0-.46,0c-.12,0-.23.11-.33.27s-.2.36-.29.55l-2.16,4.33c-.26.54-.51,1.09-.73,1.69h-.2a2.4,2.4,0,0,0-.14-.53l-.21-.45-1-2.09c-.12-.24-.24-.47-.35-.73-.37-.84-.78-1.61-1.17-2.4-.07-.14-.15-.28-.23-.41a.44.44,0,0,0-.28-.23,1.54,1.54,0,0,0-.3,0H903.1a1.54,1.54,0,0,0-.3,0,.48.48,0,0,0-.28.24,2.2,2.2,0,0,0-.15.26l-.57,1.17c-.2.41-.39.84-.6,1.24-.45.92-.9,1.83-1.36,2.74l-.31.66a2,2,0,0,0-.15.53h-.2a3.7,3.7,0,0,0-.16-.4c-.2-.46-.4-.92-.61-1.35l-2.19-4.41c-.07-.14-.15-.28-.23-.41a.45.45,0,0,0-.32-.27,2.92,2.92,0,0,0-.51,0h-3.89a3.42,3.42,0,0,0-.46,0,.45.45,0,0,0-.33.27l-.33.63c-.48,1-1,1.92-1.43,2.89-.38.77-.75,1.56-1.13,2.35l0,.08a2,2,0,0,0-.16.62h-.31a2.61,2.61,0,0,0-.24-.76l-.72-1.44c-.19-.39-.38-.76-.56-1.17-.44-1-.92-1.89-1.38-2.83-.08-.15-.15-.28-.23-.41a.46.46,0,0,0-.28-.23,4.38,4.38,0,0,0-.51,0h-4.24a.69.69,0,0,0-.2,0,.49.49,0,0,0-.28.24,4.13,4.13,0,0,0-.22.42c-.22.51-.46,1-.7,1.47-.53,1.08-1.07,2.16-1.61,3.24l-.31.66a3.88,3.88,0,0,0-.3.81h-.21a2.55,2.55,0,0,0-.12-.44c-.06-.13-.11-.25-.17-.37l-2.69-5.4a3.72,3.72,0,0,0-.19-.34.5.5,0,0,0-.37-.3,5.12,5.12,0,0,0-.56,0h-4.08l-.21,0a.53.53,0,0,0-.28.23c-.07.13-.15.26-.22.41-.61,1.22-1.22,2.43-1.83,3.67-.31.65-.62,1.33-.94,2-.08.17-.15.37-.22.55H863a2.09,2.09,0,0,0-.17-.61c-.1-.23-.21-.45-.32-.67-.25-.51-.51-1-.74-1.53-.55-1.2-1.14-2.32-1.71-3.49l-.15-.27c-.1-.15-.21-.26-.33-.27a2.71,2.71,0,0,0-.41,0h-4.09l-.36,0a.55.55,0,0,0-.37.33,2.44,2.44,0,0,0-.14.28c-.82,1.63-1.63,3.27-2.45,4.9a9.13,9.13,0,0,0-.54,1.34H851a5.35,5.35,0,0,0-.43-1.11l-2-4c-.19-.38-.38-.78-.56-1.17a3.9,3.9,0,0,0-.19-.35.43.43,0,0,0-.27-.25,1.55,1.55,0,0,0-.31,0H843a1.54,1.54,0,0,0-.3,0,.48.48,0,0,0-.28.24l-.12.19c-.32.65-.65,1.29-1,1.95s-.51,1.09-.77,1.61l-.86,1.73c-.09.19-.19.39-.28.59a2,2,0,0,0-.14.53H839a9.42,9.42,0,0,0-.48-1.06c-.21-.43-.43-.86-.63-1.33l-.24-.51c-.53-1.06-1.06-2.12-1.58-3.18-.08-.14-.15-.28-.22-.42s-.26-.34-.42-.35a5.25,5.25,0,0,0-.56,0H831c-.47,0-.53.06-.86.72l-2.37,4.75c-.12.25-.24.5-.34.77a3,3,0,0,0-.15.64H827a5,5,0,0,0-.33-.9c-.1-.22-.21-.43-.32-.65-.73-1.5-1.5-2.94-2.2-4.49a5,5,0,0,0-.3-.56.44.44,0,0,0-.27-.24,1.65,1.65,0,0,0-.31,0h-4.34a1.54,1.54,0,0,0-.3,0,.46.46,0,0,0-.28.24,2.2,2.2,0,0,0-.15.26c-.17.34-.33.68-.5,1l-.48,1-1.54,3.1c-.11.22-.21.44-.31.66a2.44,2.44,0,0,0-.16.52H815a3.21,3.21,0,0,0-.12-.33c-.22-.48-.43-1-.65-1.42-.73-1.48-1.46-2.94-2.19-4.4l-.23-.42a.45.45,0,0,0-.32-.27,2.92,2.92,0,0,0-.51,0H807a2.45,2.45,0,0,0-.46,0,.48.48,0,0,0-.32.27c-.13.23-.25.46-.37.7-.63,1.28-1.27,2.55-1.9,3.83-.27.55-.54,1.14-.8,1.71,0,.1-.08.22-.12.33h-.2a2,2,0,0,0-.15-.52c-.1-.23-.21-.45-.31-.67-.46-.91-.91-1.82-1.36-2.73l-.6-1.25c-.18-.39-.37-.78-.56-1.16a1.75,1.75,0,0,0-.16-.27.47.47,0,0,0-.27-.24,1.76,1.76,0,0,0-.31,0h-4.34a1.76,1.76,0,0,0-.31,0,.51.51,0,0,0-.27.24c-.12.19-.22.42-.33.64-.18.39-.37.79-.56,1.17-.58,1.18-1.17,2.35-1.75,3.53l-.18.36a4.32,4.32,0,0,0-.32.9h-.31a2.18,2.18,0,0,0-.17-.72c-.1-.23-.21-.46-.32-.67-.34-.7-.69-1.4-1-2.1L788,651.06c-.1-.21-.22-.42-.33-.63a.45.45,0,0,0-.32-.27,4.38,4.38,0,0,0-.51,0H783l-.46,0a.51.51,0,0,0-.37.29c-.08.14-.15.28-.22.42-.21.41-.41.82-.61,1.23s-.41.81-.61,1.23c-.26.59-.53,1.14-.81,1.69s-.4.82-.61,1.23a7.56,7.56,0,0,0-.33.76h-.21a2,2,0,0,0-.14-.53c-.09-.2-.19-.4-.28-.59l-1.08-2.17c-.13-.26-.26-.52-.38-.8-.34-.77-.71-1.47-1.07-2.19a2.59,2.59,0,0,0-.19-.33.41.41,0,0,0-.28-.23,4.38,4.38,0,0,0-.51,0h-4.2a.73.73,0,0,0-.2,0,.35.35,0,0,0-.23.19c-.11.17-.21.35-.31.54-.83,1.68-1.67,3.37-2.51,5.05a5.5,5.5,0,0,0-.4,1h-.21a8.49,8.49,0,0,0-.51-1.26c-.3-.6-.6-1.2-.89-1.8L764,651.06l-.33-.63a.49.49,0,0,0-.33-.27,4.38,4.38,0,0,0-.51,0H758.9a3.73,3.73,0,0,0-.46,0c-.1,0-.19.1-.28.23a3,3,0,0,0-.15.26l-.68,1.38-.59,1.26-1.29,2.6c-.09.19-.19.39-.28.59a1.87,1.87,0,0,0-.15.52h-.2c-.08-.18-.15-.38-.23-.55-.42-.84-.82-1.71-1.23-2.56s-1-2-1.48-3l-.11-.22c-.26-.5-.34-.57-.73-.59H746.9a3.42,3.42,0,0,0-.46,0,.47.47,0,0,0-.33.28l-.33.62L743.33,656l-.24.51a2.44,2.44,0,0,0-.16.52h-.2a2.64,2.64,0,0,0-.19-.6l-.28-.58c-.59-1.18-1.17-2.35-1.75-3.53-.24-.48-.48-.95-.71-1.46a2.78,2.78,0,0,0-.22-.42.46.46,0,0,0-.27-.25,1.55,1.55,0,0,0-.31,0h-4.34a1.54,1.54,0,0,0-.3,0,.47.47,0,0,0-.28.23,2.34,2.34,0,0,0-.15.27c-.22.43-.44.85-.64,1.31s-.49,1-.74,1.53-.57,1.15-.86,1.72c-.15.32-.31.63-.46.95a4.48,4.48,0,0,0-.29.83h-.3a2.25,2.25,0,0,0-.17-.62c0-.08-.07-.15-.1-.22-.34-.67-.67-1.35-1-2.06,0-.08-.07-.15-.1-.22l-1.47-3-.22-.42c-.12-.21-.26-.34-.42-.35l-.51,0h-4c-.39,0-.47.09-.73.59-.07.15-.14.29-.22.43-.23.49-.47,1-.71,1.45-.35.7-.7,1.38-1,2.12-.09.21-.19.39-.29.59l-.5,1a5.5,5.5,0,0,0-.3.69h-.2a2.05,2.05,0,0,0-.15-.53l-.31-.66c-.46-.91-.91-1.82-1.36-2.73-.25-.5-.5-1-.74-1.54-.12-.28-.26-.54-.39-.8a1.73,1.73,0,0,0-.15-.27.52.52,0,0,0-.36-.32l-.41,0h-4a2.69,2.69,0,0,0-.4,0,.52.52,0,0,0-.37.31c-.08.14-.15.28-.22.43-.31.72-.65,1.37-1,2-.5,1-1,2-1.51,3a5.25,5.25,0,0,0-.39,1h-.21c-.06-.16-.12-.33-.19-.48-.23-.5-.45-1-.69-1.49q-1-2.1-2.08-4.18l-.18-.35c-.12-.21-.26-.34-.42-.35l-.51,0h-3.83a3.42,3.42,0,0,0-.46,0,.42.42,0,0,0-.28.22,2.4,2.4,0,0,0-.16.27c-.31.62-.63,1.24-.92,1.88l-.78,1.62c-.3.6-.6,1.2-.89,1.8-.09.17-.17.35-.25.52a2,2,0,0,0-.14.53h-.31a3,3,0,0,0-.21-.68c-.08-.18-.17-.35-.25-.51-.44-.89-.88-1.78-1.33-2.67-.16-.34-.32-.69-.49-1s-.47-1-.71-1.46a2.2,2.2,0,0,0-.15-.26.41.41,0,0,0-.28-.23,4.38,4.38,0,0,0-.51,0h-3.89a3.73,3.73,0,0,0-.46,0,.48.48,0,0,0-.32.27c-.09.16-.18.32-.26.49l-2.22,4.47c-.16.31-.3.65-.44,1a2.23,2.23,0,0,0-.16.63h-.31a3.71,3.71,0,0,0-.15-.4c-.29-.62-.57-1.25-.87-1.85-.63-1.29-1.26-2.56-1.9-3.83-.07-.14-.14-.28-.22-.42s-.25-.34-.41-.35l-.51,0h-3.84a3.57,3.57,0,0,0-.46,0,.44.44,0,0,0-.28.22l-.12.2c-.35.69-.7,1.37-1,2.1-.19.4-.37.79-.56,1.18-.29.58-.58,1.14-.86,1.72-.14.27-.26.54-.39.81a2.57,2.57,0,0,0-.18.61h-.31a2.09,2.09,0,0,0-.17-.61l-.24-.52c-.28-.55-.56-1.1-.83-1.65-.13-.27-.27-.53-.39-.81-.4-.91-.85-1.75-1.27-2.62-.08-.14-.15-.28-.23-.4a.4.4,0,0,0-.28-.23,4.38,4.38,0,0,0-.51,0h-3.84a3.55,3.55,0,0,0-.46,0c-.16,0-.3.14-.41.35s-.18.33-.26.5l-1.83,3.67-.18.37-.66,1.41a3.94,3.94,0,0,0-.22.55h-.2a3.22,3.22,0,0,0-.15-.52l-.25-.52-.86-1.72-1.58-3.17-.26-.5c-.14-.27-.3-.42-.5-.43l-.51,0h-3.79a3.57,3.57,0,0,0-.46,0,.43.43,0,0,0-.28.23,1.61,1.61,0,0,0-.15.26c-.21.41-.41.82-.61,1.24s-.32.69-.49,1-.47,1-.71,1.44l-.83,1.66a4.88,4.88,0,0,0-.36,1h-.3a2,2,0,0,0-.14-.53c-.12-.25-.23-.5-.35-.74-.42-.84-.85-1.66-1.24-2.56,0-.1-.09-.19-.14-.29-.32-.65-.64-1.3-1-2l-.25-.48a.51.51,0,0,0-.38-.3l-.51,0h-4c-.38,0-.46.09-.72.59a3,3,0,0,0-.18.36c-.28.56-.55,1.11-.83,1.66l-.31.66c-.21.49-.44,1-.67,1.4l-.57,1.16-.24.52a1.65,1.65,0,0,0-.14.53h-.31a6.08,6.08,0,0,0-.43-1.12c-.59-1.17-1.18-2.35-1.76-3.53-.25-.5-.51-1-.74-1.54-.07-.15-.14-.28-.22-.42a.43.43,0,0,0-.28-.23,4.38,4.38,0,0,0-.51,0H626.6a2.83,2.83,0,0,0-.41,0c-.16,0-.3.14-.41.35s-.15.28-.22.42c-.82,1.64-1.63,3.27-2.44,4.91l-.21.44a2,2,0,0,0-.16.73h-.31c-.07-.18-.14-.38-.22-.55-.42-.83-.83-1.71-1.24-2.56s-1-2-1.47-3c-.06-.12-.12-.23-.18-.36-.15-.31-.34-.44-.55-.44h-4.14l-.46,0a.58.58,0,0,0-.47.37c-.08.16-.17.32-.25.49-.27.53-.53,1.06-.79,1.59l-.42.88c-.19.39-.37.79-.56,1.18l-.65,1.29-.21.45a2.09,2.09,0,0,0-.17.61h-.31a2.49,2.49,0,0,0-.18-.6c-.09-.2-.19-.4-.28-.59l-1.4-2.81c-.28-.55-.55-1.1-.81-1.69-.1-.23-.21-.43-.32-.65a1.28,1.28,0,0,0-.11-.2c-.11-.18-.23-.3-.37-.31l-.51,0h-4.09l-.21,0a.53.53,0,0,0-.32.28c-.13.22-.25.46-.37.7-.71,1.41-1.41,2.83-2.12,4.25q-.28.57-.54,1.2c-.06.13-.1.27-.15.41h-.31a2.31,2.31,0,0,0-.19-.7l-.84-1.77c-.59-1.21-1.19-2.41-1.79-3.61l-.22-.42c-.12-.21-.25-.34-.41-.35a4.41,4.41,0,0,0-.52,0H590.2l-.2,0a.46.46,0,0,0-.28.23,1.61,1.61,0,0,0-.15.26c-.32.63-.63,1.24-.93,1.88s-.51,1.09-.78,1.62-.54,1.1-.82,1.65l-.25.51a3.11,3.11,0,0,0-.21.69h-.31a2,2,0,0,0-.14-.52c-.09-.2-.19-.4-.28-.59-.77-1.57-1.56-3.08-2.3-4.7-.11-.25-.24-.48-.36-.71a.54.54,0,0,0-.42-.34l-.5,0h-2.35V606h577.55v44.12h-1.58a2.69,2.69,0,0,0-.4,0,.53.53,0,0,0-.33.26,1.28,1.28,0,0,0-.11.2c-.32.64-.65,1.28-1,1.94s-.49,1-.74,1.54l-.89,1.79-.24.52a2.36,2.36,0,0,0-.18.6h-.2a2.44,2.44,0,0,0-.16-.52c-.09-.2-.19-.39-.28-.59-.48-1-1-1.93-1.43-2.9-.28-.55-.55-1.1-.81-1.69-.09-.2-.19-.39-.28-.59-.18-.39-.4-.61-.68-.59h-4.56a1.38,1.38,0,0,0-.2,0,.46.46,0,0,0-.28.24c-.09.15-.18.31-.26.47q-1.26,2.53-2.51,5.07a3.9,3.9,0,0,1-.19.35c-.19.33-.4.34-.6,0a4.68,4.68,0,0,1-.3-.55c-.12-.28-.25-.56-.38-.82-.65-1.33-1.31-2.65-2-4l-.18-.36c-.17-.34-.37-.48-.6-.48h-4.61a.65.65,0,0,0-.2,0,.41.41,0,0,0-.24.2,1.61,1.61,0,0,0-.15.26c-.21.41-.41.82-.61,1.23-.11.25-.22.51-.34.75l-1.58,3.17c-.09.17-.17.34-.26.49a1,1,0,0,1-.17.22.19.19,0,0,1-.3,0,1,1,0,0,1-.17-.22l-.26-.49c-.42-.84-.84-1.68-1.25-2.53-.09-.16-.17-.33-.25-.51-.3-.7-.63-1.33-1-2l-.15-.27a.54.54,0,0,0-.42-.34l-.41,0h-4.2c-.41,0-.49.07-.77.65-.57,1.16-1.16,2.28-1.7,3.5-.09.21-.19.4-.28.59l-.54,1.09-.24.52A1.65,1.65,0,0,0,1116,657Z" style="fill:#494949"/><rect x="1156.6" y="633" width="1153.4" height="114" style="fill:#919191"/><polygon points="1156.47 683 1206.56 711 1254.65 683 1301.73 711 1349.82 683 1398.91 711 1444.99 681 1495.09 711 1543.17 681 1591.26 711 1638.35 683 1688.44 711 1734.52 683 1783.61 711 1831.7 683 1879.78 711 1927.87 681 1977.96 711 2024.05 683 2072.13 711 2120.22 681 2169.31 711 2217.4 683 2265.48 711 2309.57 683 2309.57 645 2267.49 672 2217.4 644 2170.31 673 2120.22 644 2073.14 672 2025.05 644 1975.96 672 1927.87 644 1879.78 674 1831.7 644 1782.61 673 1734.52 644 1688.44 672 1638.35 644 1591.26 673 1543.17 644 1495.09 672 1447 644 1397.91 673 1349.82 644 1302.74 672 1253.65 644 1206.56 672 1156.47 645 1156.47 683" style="fill:#666"/><polygon points="1156.47 714 1204.56 739 1253.65 711 1302.74 739 1349.82 711 1400.91 739 1447 711 1496.09 739 1543.17 711 1591.26 739 1638.35 711 1689.44 739 1734.52 711 1783.61 739 1831.7 711 1880.79 739 1927.87 711 1975.96 739 2023.04 711 2073.14 739 2119.22 711 2170.31 739 2215.39 711 2265.48 739 2309.57 714 2309.57 747 1156.47 747 1156.47 714" style="fill:#666"/><path d="M1690.59,657h-.2a17.53,17.53,0,0,0-.73-1.69l-2-4c-.09-.2-.19-.38-.28-.58-.19-.4-.41-.6-.68-.57h-4.45a1.54,1.54,0,0,0-.3,0,.45.45,0,0,0-.28.24c-.1.18-.2.37-.29.56l-.45,1-1.83,3.67c-.1.22-.21.43-.32.64a1.06,1.06,0,0,1-.17.23.21.21,0,0,1-.34,0,1.46,1.46,0,0,1-.17-.24c-.09-.15-.17-.32-.26-.49-.33-.67-.66-1.34-1-2-.08-.17-.17-.34-.24-.52-.37-.84-.78-1.61-1.17-2.4l-.18-.35c-.11-.18-.23-.3-.37-.31l-.51,0h-4.19c-.25,0-.47.15-.64.52-.06.13-.12.24-.18.36-.3.6-.6,1.2-.89,1.8-.11.22-.21.44-.32.67-.19.39-.37.79-.56,1.17s-.4.82-.61,1.23l-.24.52a2.18,2.18,0,0,0-.17.61h-.21a5.49,5.49,0,0,0-.44-1.1c-.24-.49-.47-1-.71-1.45l-1.61-3.24-.25-.5c-.26-.49-.35-.57-.73-.59h-4.43c-.25,0-.47.14-.64.51-.08.18-.17.34-.25.5-.71,1.42-1.41,2.83-2.11,4.25-.11.22-.21.44-.31.66a6.72,6.72,0,0,0-.38,1h-.21a2.18,2.18,0,0,0-.17-.61c-.1-.23-.21-.45-.32-.66-.41-.85-.84-1.67-1.23-2.56a2.59,2.59,0,0,0-.14-.29l-1-2c-.09-.16-.17-.33-.26-.48s-.23-.29-.37-.3l-.41,0h-4.34l-.15,0a.5.5,0,0,0-.28.23l-.12.19c-.37.75-.74,1.49-1.1,2.25-.21.44-.41.89-.63,1.32l-.82,1.65c-.09.17-.17.34-.25.51a3.11,3.11,0,0,0-.21.69h-.2a2,2,0,0,0-.15-.52c-.09-.2-.19-.4-.28-.59l-1.47-3c-.33-.67-.67-1.33-1-2a4.3,4.3,0,0,0-.21-.43c-.11-.18-.23-.3-.37-.31l-.51,0h-3.88a3.55,3.55,0,0,0-.46,0c-.16,0-.3.14-.41.35s-.17.33-.26.5c-.53,1.08-1.07,2.16-1.61,3.24l-.27.59c-.2.42-.4.84-.59,1.26a9.58,9.58,0,0,0-.41.91h-.2a2.16,2.16,0,0,0-.17-.62q-.12-.27-.24-.51c-.2-.41-.41-.82-.59-1.26-.08-.18-.16-.35-.25-.51-.52-1.06-1-2.12-1.57-3.17l-.15-.29c-.16-.33-.35-.51-.59-.51h-4.64l-.15,0a.47.47,0,0,0-.28.23,3.72,3.72,0,0,0-.19.34c-.29.57-.58,1.14-.85,1.75-.12.28-.25.54-.38.81l-1.29,2.59c-.1.19-.19.39-.28.59a1.65,1.65,0,0,0-.14.53h-.21a5,5,0,0,0-.39-1l-1.33-2.66c-.33-.67-.67-1.33-1-2-.09-.2-.19-.39-.28-.58l-.12-.2c-.1-.18-.22-.3-.36-.31l-.51,0h-4.14c-.38,0-.46.09-.72.59a2.26,2.26,0,0,0-.11.22l-1.47,3-.21.44c-.23.54-.48,1-.73,1.55q-.14.28-.27.6a2,2,0,0,0-.14.53h-.21c-.06-.16-.11-.33-.18-.48-.31-.67-.61-1.35-.94-2s-.67-1.34-1-2l-.75-1.51c-.1-.2-.2-.38-.3-.56a.48.48,0,0,0-.37-.3l-.51,0h-4l-.21,0a.6.6,0,0,0-.46.37l-.22.42c-.85,1.7-1.69,3.41-2.54,5.11l-.21.44a3.22,3.22,0,0,0-.15.52h-.2a3,3,0,0,0-.19-.6c-.1-.23-.2-.45-.31-.67-.41-.81-.81-1.63-1.22-2.45l-.45-.95-.81-1.67a1.75,1.75,0,0,0-.16-.27.44.44,0,0,0-.28-.23,3.42,3.42,0,0,0-.45,0h-4.29l-.15,0a.5.5,0,0,0-.37.3l-.3.56c-.3.59-.59,1.2-.89,1.8-.11.21-.22.42-.32.65-.32.74-.67,1.43-1,2.12-.12.24-.24.48-.35.73a2.33,2.33,0,0,0-.21.69h-.2a2.55,2.55,0,0,0-.12-.44c-.06-.13-.11-.26-.17-.38-.9-1.79-1.79-3.59-2.69-5.39a3.65,3.65,0,0,0-.18-.34c-.11-.18-.23-.29-.37-.3l-.51,0h-4.13c-.25,0-.47.15-.64.52a.43.43,0,0,1,0,.07l-1.92,3.9,0,.07c-.24.57-.5,1.1-.76,1.62a5.66,5.66,0,0,0-.3.7h-.2a2,2,0,0,0-.14-.53c-.09-.2-.18-.4-.28-.59-.32-.65-.64-1.3-1-2-.11-.24-.24-.48-.35-.73-.37-.84-.77-1.61-1.16-2.41-.07-.14-.15-.27-.23-.4a.46.46,0,0,0-.28-.23,1.54,1.54,0,0,0-.3,0h-4.34a1.55,1.55,0,0,0-.31,0,.5.5,0,0,0-.28.23,2,2,0,0,0-.11.2c-.39.77-.78,1.52-1.15,2.31-.29.62-.58,1.23-.88,1.83s-.47,1-.71,1.44a8,8,0,0,0-.37.83h-.11a4.89,4.89,0,0,0-.4-1c-.35-.7-.69-1.4-1-2.09-.46-.94-.93-1.88-1.4-2.81-.1-.22-.22-.43-.33-.63a.45.45,0,0,0-.33-.27,2.92,2.92,0,0,0-.51,0h-3.88a3.57,3.57,0,0,0-.46,0c-.12,0-.23.11-.33.27l-.33.62-1.65,3.33-.9,1.92a1.11,1.11,0,0,1-.07.16,2.67,2.67,0,0,0-.13.54h-.2a6.68,6.68,0,0,0-.34-.76c-.45-.92-.9-1.83-1.34-2.77s-.9-1.83-1.36-2.74a2.27,2.27,0,0,0-.19-.34.45.45,0,0,0-.27-.23,1.76,1.76,0,0,0-.31,0h-4.34a1.54,1.54,0,0,0-.3,0,.46.46,0,0,0-.28.24c-.1.18-.2.36-.29.56-.23.54-.49,1-.74,1.54l-1.64,3.32c-.11.21-.21.43-.32.66a2,2,0,0,0-.15.52h-.2a5,5,0,0,0-.33-.9c-.08-.17-.16-.34-.25-.5-.61-1.23-1.21-2.45-1.82-3.67l-.57-1.17a2.31,2.31,0,0,0-.18-.35.46.46,0,0,0-.27-.25,5.27,5.27,0,0,0-.56,0h-4a2.85,2.85,0,0,0-.41,0,.48.48,0,0,0-.28.22c-.06.11-.13.22-.19.34l-1.71,3.45-.11.23c-.2.49-.43.94-.66,1.4-.09.19-.19.38-.28.58a2.25,2.25,0,0,0-.16.62h-.31a2.25,2.25,0,0,0-.17-.62,2.29,2.29,0,0,0-.1-.23c-.34-.66-.67-1.35-1-2l-.11-.22-1.47-3c-.08-.17-.17-.33-.26-.49a.45.45,0,0,0-.32-.27,4.38,4.38,0,0,0-.51,0h-3.88a2.32,2.32,0,0,0-.46,0,.44.44,0,0,0-.33.27l-.33.62c-.66,1.32-1.32,2.65-2,4-.26.53-.5,1.09-.75,1.64a3.21,3.21,0,0,0-.12.33h-.21a2,2,0,0,0-.15-.52c-.09-.2-.18-.4-.28-.59-.49-1-1-2-1.46-2.95-.34-.68-.68-1.34-1-2.05a4.48,4.48,0,0,0-.26-.49.47.47,0,0,0-.27-.24,1.76,1.76,0,0,0-.31,0h-4.34a1.54,1.54,0,0,0-.3,0,.44.44,0,0,0-.28.23l-.3.55-1.14,2.3c-.1.2-.19.39-.28.59-.2.46-.42.9-.63,1.33l-.54,1.08a5.27,5.27,0,0,0-.33.76h-.21a2.05,2.05,0,0,0-.2-.7c-.26-.57-.52-1.15-.79-1.7l-1.86-3.76c-.08-.14-.15-.28-.23-.41a.45.45,0,0,0-.32-.27,2.92,2.92,0,0,0-.51,0h-3.89a2.45,2.45,0,0,0-.46,0,.45.45,0,0,0-.32.27l-.3.55c-.72,1.45-1.43,2.89-2.15,4.33-.26.54-.51,1.09-.73,1.69h-.2a2,2,0,0,0-.14-.53l-.21-.45-1-2.09c-.12-.24-.24-.47-.35-.73-.37-.84-.77-1.61-1.16-2.4-.08-.14-.15-.28-.23-.41a.46.46,0,0,0-.28-.23,1.54,1.54,0,0,0-.3,0h-4.34a1.76,1.76,0,0,0-.31,0,.47.47,0,0,0-.27.24,2.26,2.26,0,0,0-.16.26c-.19.39-.38.77-.56,1.17s-.4.84-.6,1.24l-1.35,2.74c-.11.22-.22.44-.32.66a2,2,0,0,0-.15.53h-.2c-.05-.14-.1-.28-.15-.4-.21-.46-.41-.92-.62-1.35-.73-1.48-1.46-2.94-2.18-4.41-.08-.14-.15-.28-.23-.41a.45.45,0,0,0-.32-.27,2.92,2.92,0,0,0-.51,0h-3.89a3.73,3.73,0,0,0-.46,0,.45.45,0,0,0-.32.27c-.11.2-.23.41-.33.63l-1.44,2.89-1.12,2.35,0,.08a2,2,0,0,0-.16.62h-.31a2.34,2.34,0,0,0-.24-.76c-.24-.48-.48-1-.71-1.44s-.39-.76-.57-1.17c-.44-1-.91-1.89-1.38-2.83a4,4,0,0,0-.22-.41.46.46,0,0,0-.28-.23,4.38,4.38,0,0,0-.51,0H1454a.64.64,0,0,0-.2,0,.49.49,0,0,0-.28.24,4.13,4.13,0,0,0-.22.42c-.22.51-.46,1-.7,1.47l-1.6,3.24c-.11.22-.22.44-.32.66a5.47,5.47,0,0,0-.3.81h-.21a1.89,1.89,0,0,0-.12-.44c0-.13-.11-.25-.17-.37l-2.68-5.4a3.72,3.72,0,0,0-.19-.34.5.5,0,0,0-.37-.3,5.12,5.12,0,0,0-.56,0H1442l-.2,0a.5.5,0,0,0-.28.23,4,4,0,0,0-.22.41c-.61,1.22-1.22,2.43-1.82,3.67-.32.65-.63,1.33-1,2-.08.17-.15.37-.22.55h-.2a2.44,2.44,0,0,0-.18-.61c-.1-.23-.2-.45-.31-.67-.25-.51-.51-1-.75-1.53-.54-1.2-1.13-2.32-1.7-3.49l-.15-.27c-.1-.15-.21-.26-.33-.27a2.71,2.71,0,0,0-.41,0h-4.09a2,2,0,0,0-.35,0,.54.54,0,0,0-.37.33,2.44,2.44,0,0,0-.14.28c-.82,1.63-1.63,3.27-2.44,4.9a9.13,9.13,0,0,0-.55,1.34h-.2a6.77,6.77,0,0,0-.43-1.11c-.66-1.32-1.32-2.64-2-4-.19-.38-.37-.78-.56-1.17l-.18-.35a.44.44,0,0,0-.28-.25,1.54,1.54,0,0,0-.3,0H1418a1.54,1.54,0,0,0-.3,0,.48.48,0,0,0-.28.24l-.12.19c-.32.65-.65,1.29-1,1.95s-.5,1.09-.77,1.61-.57,1.15-.85,1.73c-.1.19-.19.39-.28.59a1.65,1.65,0,0,0-.14.53h-.21a9.4,9.4,0,0,0-.47-1.06c-.22-.43-.43-.86-.63-1.33-.08-.17-.16-.34-.25-.51l-1.57-3.18-.22-.42c-.12-.22-.26-.34-.42-.35a5.12,5.12,0,0,0-.56,0h-3.93c-.47,0-.53.06-.86.72l-2.37,4.75c-.12.25-.23.5-.33.77a3,3,0,0,0-.15.64h-.31a4.32,4.32,0,0,0-.32-.9l-.32-.65c-.73-1.5-1.5-2.94-2.2-4.49-.09-.2-.19-.38-.29-.56a.48.48,0,0,0-.28-.24,1.54,1.54,0,0,0-.3,0H1394a1.54,1.54,0,0,0-.3,0,.48.48,0,0,0-.28.24l-.15.26c-.17.34-.33.68-.49,1s-.32.69-.49,1l-1.53,3.1-.32.66a2,2,0,0,0-.15.52h-.2l-.12-.33c-.22-.48-.43-1-.65-1.42-.73-1.48-1.46-2.94-2.19-4.4-.07-.15-.15-.28-.22-.42s-.21-.26-.33-.27a2.92,2.92,0,0,0-.51,0h-3.88a2.32,2.32,0,0,0-.46,0,.47.47,0,0,0-.33.27c-.12.23-.25.46-.37.7-.63,1.28-1.27,2.55-1.89,3.83-.28.55-.54,1.14-.8,1.71a3.21,3.21,0,0,0-.12.33h-.2a2.45,2.45,0,0,0-.15-.52c-.1-.23-.21-.45-.31-.67-.46-.91-.91-1.82-1.36-2.73-.2-.41-.39-.84-.59-1.25l-.57-1.16-.15-.27a.48.48,0,0,0-.28-.24,1.54,1.54,0,0,0-.3,0H1370a1.54,1.54,0,0,0-.3,0,.49.49,0,0,0-.28.24,5.46,5.46,0,0,0-.32.64c-.19.39-.37.79-.56,1.17-.58,1.18-1.17,2.35-1.75,3.53l-.18.36a4.32,4.32,0,0,0-.32.9H1366a2.18,2.18,0,0,0-.17-.72c-.1-.23-.21-.46-.31-.67-.35-.7-.7-1.4-1-2.1s-.81-1.63-1.22-2.45l-.33-.63c-.1-.16-.21-.26-.33-.27a4.38,4.38,0,0,0-.51,0h-3.83a3.44,3.44,0,0,0-.46,0,.49.49,0,0,0-.37.29c-.08.14-.16.28-.23.42-.2.41-.4.82-.61,1.23s-.41.81-.6,1.23c-.26.59-.53,1.14-.81,1.69s-.4.82-.61,1.23a7.56,7.56,0,0,0-.33.76H1354a1.65,1.65,0,0,0-.14-.53c-.09-.2-.18-.4-.28-.59-.36-.72-.72-1.44-1.07-2.17-.13-.26-.27-.52-.39-.8-.34-.77-.7-1.47-1.06-2.19-.06-.12-.13-.23-.19-.33a.43.43,0,0,0-.28-.23,4.38,4.38,0,0,0-.51,0h-4.19a.8.8,0,0,0-.21,0,.4.4,0,0,0-.23.19q-.15.25-.3.54c-.84,1.68-1.67,3.37-2.51,5.05a6.27,6.27,0,0,0-.4,1h-.2a8.5,8.5,0,0,0-.52-1.26l-.89-1.8c-.48-1-1-1.92-1.43-2.88-.11-.22-.22-.43-.34-.63a.48.48,0,0,0-.32-.27,4.38,4.38,0,0,0-.51,0h-3.88a3.42,3.42,0,0,0-.46,0,.41.41,0,0,0-.28.23,1.61,1.61,0,0,0-.15.26c-.23.46-.46.92-.68,1.38l-.59,1.26-1.29,2.6c-.09.19-.19.39-.28.59a1.87,1.87,0,0,0-.15.52h-.2c-.08-.18-.14-.38-.23-.55-.42-.84-.82-1.71-1.23-2.56s-1-2-1.47-3c0-.07-.07-.15-.11-.22-.26-.5-.34-.57-.73-.59h-4.14a3.57,3.57,0,0,0-.46,0,.47.47,0,0,0-.32.28c-.12.2-.23.41-.33.62-.82,1.64-1.63,3.27-2.44,4.91-.09.17-.17.34-.25.51a2.44,2.44,0,0,0-.16.52h-.2a2.64,2.64,0,0,0-.19-.6c-.09-.19-.18-.39-.28-.58-.58-1.18-1.16-2.35-1.75-3.53-.24-.48-.48-.95-.7-1.46a4.13,4.13,0,0,0-.22-.42.49.49,0,0,0-.27-.25,1.65,1.65,0,0,0-.31,0h-4.33a1.54,1.54,0,0,0-.3,0,.47.47,0,0,0-.28.23c0,.09-.11.17-.16.27-.21.43-.43.85-.63,1.31s-.49,1-.74,1.53-.57,1.15-.86,1.72l-.45.95a3.85,3.85,0,0,0-.29.83h-.31a2.25,2.25,0,0,0-.16-.62l-.11-.22c-.33-.67-.66-1.35-1-2.06a1.51,1.51,0,0,0-.11-.22c-.48-1-1-2-1.46-3-.08-.14-.15-.28-.22-.42s-.26-.34-.42-.35l-.51,0h-4c-.39,0-.47.09-.73.59-.07.15-.14.29-.22.43-.23.49-.47,1-.71,1.45-.35.7-.7,1.38-1,2.12-.09.21-.19.39-.28.59l-.51,1a5.5,5.5,0,0,0-.29.69H1294a2.05,2.05,0,0,0-.14-.53l-.32-.66-1.35-2.73c-.25-.5-.51-1-.74-1.54-.12-.28-.26-.54-.39-.8a1.73,1.73,0,0,0-.15-.27.52.52,0,0,0-.36-.32,2.83,2.83,0,0,0-.41,0h-4a2.69,2.69,0,0,0-.4,0c-.15,0-.27.13-.37.31s-.15.28-.22.43c-.31.72-.65,1.37-1,2l-1.5,3a4.69,4.69,0,0,0-.4,1h-.2c-.07-.16-.12-.33-.19-.48-.23-.5-.45-1-.69-1.49q-1-2.1-2.08-4.18l-.18-.35c-.12-.21-.25-.34-.41-.35l-.51,0h-3.83a3.42,3.42,0,0,0-.46,0,.42.42,0,0,0-.28.22,2.4,2.4,0,0,0-.16.27c-.31.62-.62,1.24-.92,1.88s-.51,1.09-.77,1.62l-.9,1.8-.24.52a1.65,1.65,0,0,0-.14.53h-.31a3,3,0,0,0-.21-.68l-.25-.51-1.33-2.67c-.16-.34-.32-.69-.49-1s-.47-1-.7-1.46a2.26,2.26,0,0,0-.16-.26.41.41,0,0,0-.28-.23,4.38,4.38,0,0,0-.51,0h-3.88a3.73,3.73,0,0,0-.46,0,.48.48,0,0,0-.32.27c-.09.16-.18.32-.26.49l-2.22,4.47c-.15.31-.29.65-.44,1a1.94,1.94,0,0,0-.15.63H1258a3.71,3.71,0,0,0-.15-.4c-.29-.62-.57-1.25-.87-1.85-.63-1.29-1.26-2.56-1.89-3.83l-.23-.42c-.11-.21-.25-.34-.41-.35l-.51,0h-3.83a3.73,3.73,0,0,0-.46,0c-.1,0-.19.1-.28.22l-.12.2c-.35.69-.7,1.37-1,2.1-.18.4-.37.79-.56,1.18-.28.58-.57,1.14-.86,1.72-.13.27-.26.54-.38.81a2.57,2.57,0,0,0-.18.61h-.31a2.09,2.09,0,0,0-.17-.61c-.08-.18-.16-.35-.25-.52l-.82-1.65c-.13-.27-.27-.53-.39-.81-.4-.91-.84-1.75-1.27-2.62a3.81,3.81,0,0,0-.23-.4.38.38,0,0,0-.28-.23,4.38,4.38,0,0,0-.51,0h-3.83a3.55,3.55,0,0,0-.46,0c-.16,0-.29.14-.41.35s-.17.33-.26.5c-.61,1.22-1.21,2.45-1.82,3.67l-.18.37-.66,1.41a3.94,3.94,0,0,0-.22.55h-.2a2.44,2.44,0,0,0-.16-.52l-.24-.52-.86-1.72c-.53-1.06-1.05-2.12-1.58-3.17-.08-.17-.17-.33-.25-.5s-.31-.42-.51-.43l-.51,0H1226a3.73,3.73,0,0,0-.46,0c-.1,0-.19.1-.28.23a3,3,0,0,0-.15.26l-.6,1.24c-.17.34-.32.69-.49,1l-.72,1.44c-.27.56-.54,1.11-.82,1.66a4.88,4.88,0,0,0-.36,1h-.3a2,2,0,0,0-.14-.53c-.12-.25-.23-.5-.35-.74-.42-.84-.84-1.66-1.23-2.56-.05-.1-.1-.19-.14-.29-.33-.65-.65-1.3-1-2-.08-.16-.17-.33-.26-.48a.48.48,0,0,0-.37-.3l-.51,0h-4c-.39,0-.47.09-.73.59l-.18.36c-.27.56-.55,1.11-.82,1.66-.11.22-.22.44-.32.66-.21.49-.43,1-.66,1.4l-.57,1.16-.24.52a1.65,1.65,0,0,0-.14.53h-.31a4.93,4.93,0,0,0-.43-1.12c-.59-1.17-1.17-2.35-1.76-3.53-.25-.5-.5-1-.74-1.54a3.36,3.36,0,0,0-.22-.42c-.08-.13-.17-.22-.27-.23a4.38,4.38,0,0,0-.51,0h-3.89a2.69,2.69,0,0,0-.4,0c-.16,0-.3.14-.42.35l-.22.42-2.43,4.91-.21.44a2,2,0,0,0-.16.73h-.31c-.07-.18-.14-.38-.22-.55-.42-.83-.82-1.71-1.23-2.56s-1-2-1.47-3c-.06-.12-.12-.23-.18-.36-.15-.31-.34-.44-.55-.44h-4.14l-.46,0a.58.58,0,0,0-.46.37l-.26.49-.78,1.59-.42.88c-.19.39-.37.79-.56,1.18l-.65,1.29-.21.45a2.09,2.09,0,0,0-.17.61h-.31a2.49,2.49,0,0,0-.18-.6c-.09-.2-.18-.4-.28-.59-.46-.94-.93-1.87-1.39-2.81-.28-.55-.56-1.1-.81-1.69-.1-.23-.21-.43-.32-.65l-.11-.2c-.11-.18-.23-.3-.37-.31l-.51,0h-4.09a.69.69,0,0,0-.2,0,.53.53,0,0,0-.32.28c-.13.22-.25.46-.37.7q-1.07,2.11-2.11,4.25c-.19.38-.38.78-.55,1.2l-.15.41h-.3a2.63,2.63,0,0,0-.2-.7c-.28-.59-.55-1.19-.83-1.77-.6-1.21-1.19-2.41-1.79-3.61l-.22-.42c-.12-.21-.25-.34-.41-.35l-.51,0h-4.09a.69.69,0,0,0-.2,0,.44.44,0,0,0-.28.23,1.64,1.64,0,0,0-.16.26c-.31.63-.62,1.24-.92,1.88s-.51,1.09-.77,1.62l-.83,1.65-.24.51a2.33,2.33,0,0,0-.21.69h-.31a2,2,0,0,0-.15-.52c-.09-.2-.18-.4-.28-.59-.76-1.57-1.56-3.08-2.29-4.7-.11-.25-.24-.48-.36-.71a.54.54,0,0,0-.42-.34l-.5,0h-2.34V606H1732v44.12h-1.58a2.83,2.83,0,0,0-.41,0,.49.49,0,0,0-.32.26l-.12.2c-.32.64-.64,1.28-.95,1.94s-.49,1-.74,1.54l-.89,1.79-.24.52a2.36,2.36,0,0,0-.18.6h-.2a2.44,2.44,0,0,0-.16-.52c-.09-.2-.18-.39-.28-.59-.47-1-1-1.93-1.42-2.9-.28-.55-.56-1.1-.81-1.69-.09-.2-.19-.39-.28-.59-.18-.39-.4-.61-.68-.59h-4.55a1.2,1.2,0,0,0-.2,0,.46.46,0,0,0-.28.24l-.27.47q-1.24,2.53-2.5,5.07l-.18.35c-.19.33-.4.34-.6,0a3.57,3.57,0,0,1-.3-.55c-.13-.28-.25-.56-.38-.82-.66-1.33-1.31-2.65-2-4l-.18-.36c-.17-.34-.37-.48-.6-.48h-4.6a.65.65,0,0,0-.2,0,.41.41,0,0,0-.24.2,1.61,1.61,0,0,0-.15.26c-.21.41-.41.82-.61,1.23-.11.25-.22.51-.34.75-.53,1.06-1,2.12-1.58,3.17-.08.17-.17.34-.26.49a1,1,0,0,1-.17.22.18.18,0,0,1-.29,0,1,1,0,0,1-.17-.22c-.09-.16-.18-.32-.26-.49l-1.26-2.53-.24-.51c-.3-.7-.63-1.33-1-2l-.15-.27a.54.54,0,0,0-.42-.34l-.41,0h-4.19c-.41,0-.49.07-.77.65-.57,1.16-1.16,2.28-1.7,3.5-.09.21-.18.4-.28.59L1691,656l-.24.52A2,2,0,0,0,1690.59,657Z" style="fill:#494949"/><path d="M2268.07,657h-.21a13.65,13.65,0,0,0-.73-1.69c-.67-1.34-1.33-2.69-2-4-.1-.2-.2-.38-.29-.58-.19-.4-.41-.6-.68-.57h-4.45a1.65,1.65,0,0,0-.31,0,.45.45,0,0,0-.28.24c-.1.18-.19.37-.29.56l-.45,1-1.83,3.67-.33.64a1,1,0,0,1-.16.23.22.22,0,0,1-.35,0,2.5,2.5,0,0,1-.16-.24c-.09-.15-.18-.32-.26-.49l-1-2-.24-.52c-.37-.84-.78-1.61-1.17-2.4l-.18-.35c-.11-.18-.23-.3-.37-.31l-.51,0h-4.2c-.25,0-.47.15-.64.52l-.18.36-.9,1.8c-.1.22-.21.44-.31.67-.19.39-.37.79-.56,1.17s-.41.82-.61,1.23l-.24.52a2.57,2.57,0,0,0-.18.61h-.2a6.16,6.16,0,0,0-.45-1.1c-.23-.49-.47-1-.71-1.45l-1.61-3.24c-.08-.16-.17-.33-.25-.5-.26-.49-.35-.57-.73-.59h-4.44c-.25,0-.47.14-.64.51-.08.18-.17.34-.25.5-.71,1.42-1.41,2.83-2.11,4.25-.11.22-.22.44-.32.66a8.18,8.18,0,0,0-.38,1h-.2a2.57,2.57,0,0,0-.18-.61c-.1-.23-.21-.45-.31-.66-.42-.85-.85-1.67-1.24-2.56a2.59,2.59,0,0,0-.14-.29l-1-2-.26-.48a.5.5,0,0,0-.38-.3,2.69,2.69,0,0,0-.4,0h-4.35l-.15,0a.5.5,0,0,0-.28.23l-.12.19c-.37.75-.74,1.49-1.1,2.25l-.63,1.32-.83,1.65c-.08.17-.16.34-.25.51a3.11,3.11,0,0,0-.21.69h-.2a2,2,0,0,0-.15-.52c-.09-.2-.19-.4-.28-.59l-1.47-3c-.33-.67-.68-1.33-1-2a4.3,4.3,0,0,0-.21-.43c-.11-.18-.23-.3-.37-.31l-.51,0h-3.89a3.55,3.55,0,0,0-.46,0c-.16,0-.3.14-.41.35s-.18.33-.26.5l-1.61,3.24c-.1.19-.19.39-.28.59l-.59,1.26a9.58,9.58,0,0,0-.41.91h-.2a2.16,2.16,0,0,0-.16-.62c-.08-.18-.17-.35-.25-.51-.2-.41-.4-.82-.59-1.26-.08-.18-.16-.35-.25-.51-.52-1.06-1-2.12-1.58-3.17,0-.1-.09-.19-.14-.29-.16-.33-.35-.51-.59-.51h-4.65l-.16,0a.48.48,0,0,0-.27.23,3.72,3.72,0,0,0-.19.34c-.29.57-.58,1.14-.85,1.75l-.39.81-1.29,2.59c-.09.19-.19.39-.28.59a1.65,1.65,0,0,0-.14.53h-.21a5,5,0,0,0-.39-1l-1.33-2.66c-.33-.67-.67-1.33-1-2-.09-.2-.19-.39-.29-.58a1.28,1.28,0,0,0-.11-.2c-.11-.18-.23-.3-.37-.31l-.51,0h-4.14c-.38,0-.46.09-.73.59l-.1.22-1.47,3c-.07.14-.15.29-.21.44-.24.54-.49,1-.74,1.55q-.14.28-.27.6a2,2,0,0,0-.14.53h-.2c-.07-.16-.12-.33-.19-.48-.31-.67-.61-1.35-.94-2s-.67-1.34-1-2c-.26-.51-.5-1-.76-1.51-.09-.2-.19-.38-.29-.56s-.23-.29-.37-.3l-.51,0h-4l-.2,0c-.18,0-.33.13-.46.37s-.15.28-.22.42l-2.55,5.11c-.07.14-.14.29-.2.44a2.44,2.44,0,0,0-.16.52h-.2a3,3,0,0,0-.19-.6c-.1-.23-.21-.45-.31-.67-.41-.81-.81-1.63-1.22-2.45l-.45-.95c-.27-.56-.55-1.12-.82-1.67l-.15-.27a.46.46,0,0,0-.28-.23,3.57,3.57,0,0,0-.46,0h-4.29l-.16,0a.52.52,0,0,0-.37.3c-.1.18-.2.37-.29.56-.3.59-.6,1.2-.9,1.8-.11.21-.22.42-.32.65-.32.74-.67,1.43-1,2.12-.12.24-.24.48-.35.73a2.33,2.33,0,0,0-.21.69h-.2a2.55,2.55,0,0,0-.12-.44l-.17-.38q-1.35-2.68-2.69-5.39a3.72,3.72,0,0,0-.19-.34c-.11-.18-.23-.29-.37-.3l-.51,0h-4.14c-.25,0-.47.15-.64.52l0,.07c-.65,1.3-1.29,2.6-1.93,3.9l0,.07c-.24.57-.5,1.1-.76,1.62a5.66,5.66,0,0,0-.3.7h-.2a2.4,2.4,0,0,0-.14-.53c-.1-.2-.19-.4-.28-.59l-1-2c-.12-.24-.24-.48-.35-.73-.37-.84-.78-1.61-1.17-2.41-.07-.14-.15-.27-.23-.4a.44.44,0,0,0-.28-.23,1.54,1.54,0,0,0-.3,0h-4.35a1.76,1.76,0,0,0-.31,0,.48.48,0,0,0-.27.23,1.06,1.06,0,0,0-.12.2c-.38.77-.78,1.52-1.15,2.31-.28.62-.58,1.23-.88,1.83l-.71,1.44a6.33,6.33,0,0,0-.38.83h-.1a4.89,4.89,0,0,0-.4-1l-1-2.09-1.4-2.81c-.11-.22-.22-.43-.34-.63a.45.45,0,0,0-.32-.27,3,3,0,0,0-.52,0h-3.89a3.57,3.57,0,0,0-.46,0,.45.45,0,0,0-.32.27c-.12.2-.23.41-.34.62l-1.65,3.33c-.31.63-.6,1.28-.9,1.92a1.11,1.11,0,0,0-.07.16,2.14,2.14,0,0,0-.13.54h-.21a6.68,6.68,0,0,0-.33-.76c-.45-.92-.91-1.83-1.35-2.77s-.9-1.83-1.35-2.74c-.06-.12-.13-.23-.19-.34a.49.49,0,0,0-.28-.23,1.76,1.76,0,0,0-.31,0h-4.34a1.55,1.55,0,0,0-.31,0,.48.48,0,0,0-.28.24c-.1.18-.2.36-.29.56-.23.54-.49,1-.74,1.54l-1.65,3.32c-.1.21-.21.43-.31.66a2,2,0,0,0-.15.52h-.21a4.32,4.32,0,0,0-.32-.9c-.09-.17-.17-.34-.25-.5l-1.83-3.67c-.19-.39-.38-.78-.56-1.17a3.9,3.9,0,0,0-.19-.35.46.46,0,0,0-.27-.25,5.46,5.46,0,0,0-.56,0h-4a3,3,0,0,0-.41,0,.51.51,0,0,0-.28.22c-.06.11-.13.22-.19.34l-1.71,3.45a2.4,2.4,0,0,0-.11.23c-.21.49-.44.94-.66,1.4-.1.19-.19.38-.28.58a2.25,2.25,0,0,0-.17.62h-.31a2.25,2.25,0,0,0-.16-.62l-.11-.23c-.33-.66-.66-1.35-1-2a1.51,1.51,0,0,0-.11-.22l-1.47-3c-.08-.17-.17-.33-.26-.49a.45.45,0,0,0-.32-.27,4.38,4.38,0,0,0-.51,0h-3.89a2.32,2.32,0,0,0-.46,0,.43.43,0,0,0-.33.27c-.11.2-.23.41-.33.62-.66,1.32-1.32,2.65-2,4-.26.53-.51,1.09-.76,1.64a3.21,3.21,0,0,0-.12.33h-.2a2.44,2.44,0,0,0-.16-.52c-.09-.2-.18-.4-.28-.59-.49-1-1-2-1.46-2.95-.34-.68-.68-1.34-1-2.05a4.48,4.48,0,0,0-.26-.49.46.46,0,0,0-.28-.24,1.54,1.54,0,0,0-.3,0h-4.35a1.54,1.54,0,0,0-.3,0,.44.44,0,0,0-.28.23c-.1.18-.21.36-.3.55l-1.15,2.3c-.09.2-.19.39-.28.59-.2.46-.41.9-.63,1.33l-.54,1.08a6.68,6.68,0,0,0-.33.76h-.2a2.63,2.63,0,0,0-.2-.7c-.27-.57-.53-1.15-.8-1.7-.62-1.26-1.24-2.51-1.87-3.76-.07-.14-.14-.28-.22-.41a.45.45,0,0,0-.33-.27,2.92,2.92,0,0,0-.51,0h-3.89a2.38,2.38,0,0,0-.46,0,.45.45,0,0,0-.32.27,5.86,5.86,0,0,0-.3.55q-1.08,2.17-2.15,4.33c-.27.54-.51,1.09-.74,1.69h-.2a2,2,0,0,0-.14-.53l-.21-.45c-.34-.7-.69-1.39-1-2.09-.12-.24-.24-.47-.35-.73-.37-.84-.77-1.61-1.17-2.4l-.22-.41a.46.46,0,0,0-.28-.23,1.65,1.65,0,0,0-.31,0h-4.34a1.65,1.65,0,0,0-.31,0,.51.51,0,0,0-.28.24l-.15.26c-.19.39-.38.77-.57,1.17s-.39.84-.59,1.24c-.45.92-.91,1.83-1.36,2.74l-.32.66a1.65,1.65,0,0,0-.14.53h-.21c-.05-.14-.1-.28-.15-.4-.21-.46-.41-.92-.62-1.35l-2.19-4.41-.22-.41c-.1-.16-.21-.26-.33-.27a2.92,2.92,0,0,0-.51,0h-3.89a3.57,3.57,0,0,0-.46,0,.45.45,0,0,0-.32.27c-.12.2-.23.41-.34.63-.48,1-1,1.92-1.43,2.89-.38.77-.75,1.56-1.13,2.35l0,.08a2.25,2.25,0,0,0-.16.62h-.31a2.34,2.34,0,0,0-.24-.76c-.24-.48-.48-1-.71-1.44s-.39-.76-.57-1.17c-.44-1-.92-1.89-1.38-2.83a4,4,0,0,0-.23-.41.44.44,0,0,0-.28-.23,4.38,4.38,0,0,0-.51,0H2031l-.2,0a.52.52,0,0,0-.28.24,4.11,4.11,0,0,0-.21.42c-.23.51-.47,1-.71,1.47l-1.6,3.24c-.11.22-.22.44-.32.66a5.47,5.47,0,0,0-.3.81h-.21a2.55,2.55,0,0,0-.12-.44c-.06-.13-.11-.25-.17-.37l-2.69-5.4-.18-.34c-.11-.18-.23-.29-.37-.3l-.57,0H2019a.64.64,0,0,0-.2,0,.47.47,0,0,0-.28.23,4,4,0,0,0-.23.41c-.61,1.22-1.22,2.43-1.82,3.67-.32.65-.63,1.33-1,2-.08.17-.15.37-.22.55h-.21a2.09,2.09,0,0,0-.17-.61c-.1-.23-.21-.45-.31-.67-.25-.51-.51-1-.75-1.53-.55-1.2-1.14-2.32-1.71-3.49l-.15-.27c-.1-.15-.2-.26-.33-.27a2.71,2.71,0,0,0-.4,0h-4.1l-.36,0c-.14,0-.26.14-.37.33l-.14.28c-.82,1.63-1.63,3.27-2.44,4.9a8.15,8.15,0,0,0-.55,1.34h-.2a6,6,0,0,0-.44-1.11l-2-4c-.19-.38-.37-.78-.56-1.17l-.18-.35a.44.44,0,0,0-.28-.25,1.54,1.54,0,0,0-.3,0h-4.34a1.65,1.65,0,0,0-.31,0,.51.51,0,0,0-.28.24,1.18,1.18,0,0,0-.11.19c-.32.65-.65,1.29-1,1.95s-.51,1.09-.78,1.61-.57,1.15-.86,1.73l-.27.59a2,2,0,0,0-.15.53h-.2a9.42,9.42,0,0,0-.48-1.06c-.21-.43-.43-.86-.63-1.33-.07-.17-.16-.34-.24-.51l-1.58-3.18-.22-.42c-.12-.22-.26-.34-.42-.35a5.12,5.12,0,0,0-.56,0h-3.94c-.47,0-.53.06-.86.72l-2.37,4.75c-.12.25-.23.5-.33.77a2.5,2.5,0,0,0-.15.64H1979a4.32,4.32,0,0,0-.32-.9l-.33-.65c-.73-1.5-1.49-2.94-2.2-4.49-.09-.2-.19-.38-.29-.56a.48.48,0,0,0-.28-.24,1.54,1.54,0,0,0-.3,0H1971a1.55,1.55,0,0,0-.31,0,.48.48,0,0,0-.28.24l-.15.26c-.17.34-.33.68-.49,1s-.33.69-.49,1c-.51,1-1,2.07-1.54,3.1l-.31.66a2,2,0,0,0-.15.52h-.21a3.21,3.21,0,0,0-.12-.33c-.21-.48-.42-1-.65-1.42-.73-1.48-1.46-2.94-2.19-4.4-.07-.15-.15-.28-.23-.42a.45.45,0,0,0-.32-.27,2.92,2.92,0,0,0-.51,0h-3.89a2.32,2.32,0,0,0-.46,0,.47.47,0,0,0-.33.27c-.12.23-.25.46-.37.7-.63,1.28-1.27,2.55-1.9,3.83-.27.55-.53,1.14-.8,1.71,0,.1-.07.22-.11.33H1955a2,2,0,0,0-.15-.52c-.1-.23-.2-.45-.31-.67l-1.36-2.73c-.2-.41-.39-.84-.59-1.25l-.57-1.16q-.07-.15-.15-.27a.51.51,0,0,0-.28-.24,1.55,1.55,0,0,0-.31,0h-4.34a1.54,1.54,0,0,0-.3,0,.49.49,0,0,0-.28.24c-.12.19-.22.42-.33.64-.18.39-.36.79-.55,1.17l-1.76,3.53-.18.36a4.32,4.32,0,0,0-.32.9h-.31a2.18,2.18,0,0,0-.17-.72c-.1-.23-.21-.46-.31-.67-.35-.7-.7-1.4-1-2.1s-.82-1.63-1.22-2.45c-.11-.21-.22-.42-.34-.63a.45.45,0,0,0-.32-.27,4.38,4.38,0,0,0-.51,0h-3.84a3.44,3.44,0,0,0-.46,0,.52.52,0,0,0-.38.29l-.22.42-.61,1.23c-.2.41-.41.81-.6,1.23-.26.59-.54,1.14-.81,1.69s-.41.82-.61,1.23a7.58,7.58,0,0,0-.34.76h-.21a1.65,1.65,0,0,0-.14-.53c-.09-.2-.18-.4-.28-.59-.36-.72-.72-1.44-1.07-2.17-.14-.26-.27-.52-.39-.8-.34-.77-.71-1.47-1.06-2.19a2.63,2.63,0,0,0-.2-.33.41.41,0,0,0-.28-.23,4.38,4.38,0,0,0-.51,0h-4.19a.8.8,0,0,0-.21,0,.4.4,0,0,0-.23.19c-.1.17-.21.35-.3.54L1919.5,656a6.27,6.27,0,0,0-.4,1h-.2a8.5,8.5,0,0,0-.52-1.26l-.89-1.8-1.44-2.88c-.1-.22-.22-.43-.33-.63a.48.48,0,0,0-.32-.27,4.55,4.55,0,0,0-.52,0H1911a3.42,3.42,0,0,0-.46,0,.41.41,0,0,0-.28.23,1.64,1.64,0,0,0-.16.26l-.67,1.38-.6,1.26-1.29,2.6c-.09.19-.18.39-.28.59a2.29,2.29,0,0,0-.15.52h-.2c-.08-.18-.14-.38-.23-.55-.42-.84-.82-1.71-1.23-2.56s-1-2-1.47-3l-.11-.22c-.27-.5-.35-.57-.73-.59H1899a3.42,3.42,0,0,0-.46,0,.51.51,0,0,0-.33.28l-.33.62c-.81,1.64-1.63,3.27-2.44,4.91-.09.17-.17.34-.25.51a2.44,2.44,0,0,0-.16.52h-.2a2.64,2.64,0,0,0-.19-.6c-.09-.19-.18-.39-.28-.58-.58-1.18-1.17-2.35-1.75-3.53-.24-.48-.48-.95-.7-1.46-.07-.15-.15-.29-.22-.42a.48.48,0,0,0-.28-.25,1.54,1.54,0,0,0-.3,0h-4.34a1.55,1.55,0,0,0-.31,0,.5.5,0,0,0-.28.23c-.05.09-.1.17-.15.27-.21.43-.43.85-.64,1.31s-.48,1-.73,1.53l-.87,1.72-.45.95a3.85,3.85,0,0,0-.29.83h-.31a2.25,2.25,0,0,0-.17-.62,1.47,1.47,0,0,0-.1-.22c-.34-.67-.67-1.35-1-2.06,0-.08-.07-.15-.11-.22l-1.47-3-.22-.42c-.12-.21-.25-.34-.41-.35l-.51,0h-4c-.38,0-.46.09-.73.59l-.21.43-.72,1.45c-.35.7-.7,1.38-1,2.12-.09.21-.19.39-.28.59l-.51,1a5.5,5.5,0,0,0-.29.69h-.21a2.05,2.05,0,0,0-.14-.53l-.32-.66-1.36-2.73c-.25-.5-.5-1-.74-1.54-.12-.28-.25-.54-.38-.8q-.08-.15-.15-.27a.56.56,0,0,0-.37-.32,2.83,2.83,0,0,0-.41,0h-4a2.83,2.83,0,0,0-.41,0c-.14,0-.26.13-.37.31s-.15.28-.22.43c-.31.72-.65,1.37-1,2l-1.5,3a4.69,4.69,0,0,0-.4,1h-.21c-.06-.16-.12-.33-.18-.48-.23-.5-.46-1-.7-1.49l-2.07-4.18-.19-.35c-.12-.21-.25-.34-.41-.35l-.51,0h-3.84a3.57,3.57,0,0,0-.46,0,.44.44,0,0,0-.28.22,2.4,2.4,0,0,0-.16.27c-.31.62-.62,1.24-.92,1.88s-.51,1.09-.78,1.62-.59,1.2-.89,1.8l-.24.52a2,2,0,0,0-.15.53h-.31a2.26,2.26,0,0,0-.21-.68c-.08-.18-.16-.35-.25-.51l-1.32-2.67c-.17-.34-.33-.69-.49-1l-.71-1.46a2.26,2.26,0,0,0-.16-.26.41.41,0,0,0-.28-.23,4.38,4.38,0,0,0-.51,0h-3.88a3.42,3.42,0,0,0-.46,0,.47.47,0,0,0-.33.27l-.26.49-2.22,4.47c-.15.31-.3.65-.44,1a2.23,2.23,0,0,0-.16.63h-.3a3.7,3.7,0,0,0-.16-.4c-.28-.62-.57-1.25-.87-1.85-.63-1.29-1.26-2.56-1.89-3.83l-.23-.42c-.11-.21-.25-.34-.41-.35l-.51,0h-3.84a3.73,3.73,0,0,0-.46,0c-.1,0-.19.1-.28.22a1.28,1.28,0,0,0-.11.2c-.36.69-.71,1.37-1,2.1-.18.4-.37.79-.56,1.18-.28.58-.58,1.14-.86,1.72l-.39.81a2.57,2.57,0,0,0-.18.61h-.3a2.44,2.44,0,0,0-.18-.61l-.24-.52-.83-1.65c-.13-.27-.26-.53-.39-.81-.4-.91-.84-1.75-1.27-2.62a3.81,3.81,0,0,0-.23-.4.4.4,0,0,0-.28-.23,4.38,4.38,0,0,0-.51,0h-3.84l-.46,0c-.16,0-.3.14-.41.35s-.17.33-.26.5l-1.83,3.67c-.06.12-.12.24-.17.37l-.66,1.41a4,4,0,0,0-.23.55h-.2a2,2,0,0,0-.15-.52c-.08-.18-.16-.35-.25-.52-.28-.57-.57-1.15-.86-1.72-.53-1.06-1-2.12-1.58-3.17-.08-.17-.17-.33-.26-.5s-.3-.42-.5-.43l-.51,0h-3.79a3.73,3.73,0,0,0-.46,0c-.1,0-.19.1-.28.23a3,3,0,0,0-.15.26l-.6,1.24c-.17.34-.33.69-.49,1l-.72,1.44-.82,1.66a3.91,3.91,0,0,0-.36,1h-.31a2,2,0,0,0-.14-.53c-.11-.25-.23-.5-.35-.74-.41-.84-.84-1.66-1.23-2.56,0-.1-.1-.19-.14-.29-.33-.65-.65-1.3-1-2-.09-.16-.17-.33-.26-.48s-.23-.29-.37-.3l-.51,0h-4c-.39,0-.47.09-.73.59l-.18.36-.82,1.66c-.11.22-.22.44-.32.66-.21.49-.44,1-.66,1.4s-.39.77-.58,1.16l-.24.52a1.65,1.65,0,0,0-.14.53h-.31a4.93,4.93,0,0,0-.43-1.12c-.59-1.17-1.17-2.35-1.76-3.53-.25-.5-.5-1-.74-1.54-.07-.15-.14-.28-.22-.42a.41.41,0,0,0-.28-.23,4.38,4.38,0,0,0-.51,0h-3.89l-.41,0c-.16,0-.29.14-.41.35l-.22.42c-.81,1.64-1.63,3.27-2.44,4.91l-.21.44a2.24,2.24,0,0,0-.16.73h-.31c-.07-.18-.14-.38-.22-.55-.42-.83-.82-1.71-1.23-2.56s-1-2-1.47-3c-.06-.12-.13-.23-.18-.36-.16-.31-.34-.44-.56-.44h-4.14l-.46,0c-.18,0-.33.12-.46.37s-.18.32-.26.49l-.79,1.59-.42.88c-.19.39-.37.79-.56,1.18s-.43.86-.65,1.29l-.21.45a2.09,2.09,0,0,0-.17.61h-.3a3,3,0,0,0-.19-.6c-.09-.2-.18-.4-.28-.59l-1.4-2.81c-.27-.55-.55-1.1-.81-1.69-.1-.23-.21-.43-.32-.65a1.28,1.28,0,0,0-.11-.2c-.11-.18-.23-.3-.37-.31l-.51,0h-4.09l-.21,0a.53.53,0,0,0-.32.28c-.12.22-.25.46-.37.7-.7,1.41-1.41,2.83-2.11,4.25-.19.38-.38.78-.55,1.2l-.15.41h-.3a2.63,2.63,0,0,0-.2-.7c-.28-.59-.55-1.19-.84-1.77-.59-1.21-1.19-2.41-1.79-3.61-.07-.14-.14-.28-.22-.42s-.25-.34-.41-.35l-.51,0h-4.09l-.21,0a.46.46,0,0,0-.28.23,3,3,0,0,0-.15.26c-.31.63-.63,1.24-.93,1.88s-.51,1.09-.77,1.62l-.83,1.65-.24.51a2.33,2.33,0,0,0-.21.69h-.31a2,2,0,0,0-.15-.52c-.09-.2-.18-.4-.28-.59-.76-1.57-1.56-3.08-2.3-4.7-.11-.25-.24-.48-.36-.71a.52.52,0,0,0-.41-.34l-.51,0H1732V606h577.54v44.12H2308a2.83,2.83,0,0,0-.41,0,.53.53,0,0,0-.33.26,1.28,1.28,0,0,0-.11.2c-.32.64-.65,1.28-1,1.94s-.48,1-.73,1.54-.6,1.19-.89,1.79c-.09.17-.17.34-.25.52a2.36,2.36,0,0,0-.18.6h-.2a2.44,2.44,0,0,0-.16-.52c-.09-.2-.18-.39-.28-.59l-1.43-2.9c-.27-.55-.55-1.1-.81-1.69-.08-.2-.19-.39-.28-.59-.18-.39-.4-.61-.68-.59h-4.55l-.21,0a.48.48,0,0,0-.28.24c-.09.15-.18.31-.26.47l-2.51,5.07-.18.35c-.19.33-.4.34-.61,0a3.55,3.55,0,0,1-.29-.55c-.13-.28-.25-.56-.38-.82l-2-4-.18-.36c-.16-.34-.36-.48-.6-.48h-4.61a.79.79,0,0,0-.2,0,.39.39,0,0,0-.23.2,1.64,1.64,0,0,0-.16.26l-.6,1.23c-.12.25-.23.51-.35.75-.53,1.06-1.05,2.12-1.58,3.17-.08.17-.17.34-.26.49a1,1,0,0,1-.17.22.19.19,0,0,1-.3,0,1,1,0,0,1-.17-.22l-.26-.49c-.41-.84-.83-1.68-1.25-2.53-.09-.16-.17-.33-.25-.51-.3-.7-.63-1.33-.95-2l-.15-.27a.54.54,0,0,0-.42-.34l-.41,0h-4.2c-.4,0-.48.07-.77.65-.57,1.16-1.16,2.28-1.7,3.5-.09.21-.19.4-.28.59l-.54,1.09-.24.52A1.65,1.65,0,0,0,2268.07,657Z" style="fill:#494949"/><rect x="2309.51" y="633" width="1153.4" height="114" style="fill:#919191"/><polygon points="2309.38 683 2359.47 711 2407.55 683 2454.64 711 2502.73 683 2551.82 711 2597.9 681 2647.99 711 2696.08 681 2744.17 711 2791.25 683 2841.34 711 2887.43 683 2936.52 711 2984.6 683 3032.69 711 3080.78 681 3130.87 711 3176.95 683 3225.04 711 3273.13 681 3322.22 711 3370.3 683 3418.39 711 3462.47 683 3462.47 645 3420.39 672 3370.3 644 3323.22 673 3273.13 644 3226.04 672 3177.95 644 3128.87 672 3080.78 644 3032.69 674 2984.6 644 2935.51 673 2887.43 644 2841.34 672 2791.25 644 2744.17 673 2696.08 644 2647.99 672 2599.91 644 2550.82 673 2502.73 644 2455.64 672 2406.55 644 2359.47 672 2309.38 645 2309.38 683" style="fill:#666"/><polygon points="2309.38 714 2357.46 739 2406.55 711 2455.64 739 2502.73 711 2553.82 739 2599.91 711 2648.99 739 2696.08 711 2744.17 739 2791.25 711 2842.34 739 2887.43 711 2936.52 739 2984.6 711 3033.69 739 3080.78 711 3128.87 739 3175.95 711 3226.04 739 3272.13 711 3323.22 739 3368.3 711 3418.39 739 3462.47 714 3462.47 747 2309.38 747 2309.38 714" style="fill:#666"/><path d="M2843.5,657h-.21a15.33,15.33,0,0,0-.72-1.69l-2-4c-.09-.2-.19-.38-.29-.58-.18-.4-.4-.6-.68-.57h-4.44a1.54,1.54,0,0,0-.3,0,.43.43,0,0,0-.28.24c-.1.18-.2.37-.29.56l-.45,1L2832,655.6c-.11.22-.21.43-.33.64a1,1,0,0,1-.16.23.21.21,0,0,1-.34,0,1.46,1.46,0,0,1-.17-.24c-.09-.15-.17-.32-.26-.49l-1-2c-.08-.17-.17-.34-.25-.52-.36-.84-.77-1.61-1.16-2.4a3.9,3.9,0,0,0-.19-.35.52.52,0,0,0-.37-.31l-.51,0h-4.18c-.26,0-.47.15-.64.52l-.18.36-.9,1.8c-.1.22-.21.44-.31.67-.19.39-.37.79-.56,1.17s-.41.82-.61,1.23l-.24.52a2.57,2.57,0,0,0-.18.61h-.2a7,7,0,0,0-.44-1.1l-.72-1.45-1.6-3.24c-.09-.16-.17-.33-.25-.5-.26-.49-.35-.57-.73-.59h-4.43c-.26,0-.47.14-.64.51-.08.18-.17.34-.26.5l-2.1,4.25c-.11.22-.22.44-.32.66s-.27.6-.38,1h-.2a2.58,2.58,0,0,0-.17-.61c-.11-.23-.21-.45-.32-.66-.41-.85-.84-1.67-1.23-2.56a2.59,2.59,0,0,0-.14-.29c-.32-.65-.64-1.3-1-2-.08-.16-.17-.33-.26-.48a.48.48,0,0,0-.37-.3,2.69,2.69,0,0,0-.4,0H2799l-.15,0a.47.47,0,0,0-.28.23l-.12.19c-.37.75-.74,1.49-1.1,2.25l-.63,1.32-.83,1.65-.24.51a2.33,2.33,0,0,0-.21.69h-.21a2,2,0,0,0-.15-.52c-.09-.2-.18-.4-.28-.59-.48-1-1-2-1.46-3-.34-.67-.68-1.33-1-2a2.89,2.89,0,0,0-.22-.43c-.1-.18-.22-.3-.36-.31l-.51,0h-3.88a3.44,3.44,0,0,0-.46,0c-.16,0-.3.14-.41.35s-.18.33-.26.5l-1.61,3.24c-.09.19-.18.39-.28.59-.19.42-.39.84-.59,1.26a9.58,9.58,0,0,0-.4.91h-.21a1.88,1.88,0,0,0-.16-.62l-.24-.51c-.21-.41-.41-.82-.6-1.26-.07-.18-.16-.35-.24-.51-.53-1.06-1-2.12-1.58-3.17,0-.1-.09-.19-.14-.29-.16-.33-.35-.51-.59-.51H2775l-.16,0a.48.48,0,0,0-.27.23,3.72,3.72,0,0,0-.19.34c-.29.57-.58,1.14-.85,1.75-.12.28-.26.54-.39.81-.43.86-.86,1.73-1.28,2.59-.1.19-.19.39-.28.59a2,2,0,0,0-.15.53h-.2a5,5,0,0,0-.4-1l-1.32-2.66c-.33-.67-.67-1.33-1-2-.09-.2-.19-.39-.29-.58a1.28,1.28,0,0,0-.11-.2.52.52,0,0,0-.37-.31l-.51,0h-4.13c-.38,0-.46.09-.73.59l-.1.22-1.47,3-.21.44c-.23.54-.48,1-.73,1.55a5.46,5.46,0,0,0-.27.6,1.65,1.65,0,0,0-.14.53h-.21l-.18-.48c-.31-.67-.62-1.35-.94-2s-.67-1.34-1-2l-.75-1.51c-.1-.2-.2-.38-.3-.56a.48.48,0,0,0-.37-.3l-.51,0h-4l-.2,0c-.18,0-.33.13-.46.37s-.15.28-.22.42c-.85,1.7-1.69,3.41-2.54,5.11l-.21.44a2,2,0,0,0-.15.52h-.21a2.49,2.49,0,0,0-.18-.6c-.1-.23-.21-.45-.31-.67-.41-.81-.82-1.63-1.22-2.45l-.45-.95c-.27-.56-.54-1.12-.82-1.67a1.73,1.73,0,0,0-.15-.27.44.44,0,0,0-.28-.23,3.42,3.42,0,0,0-.46,0H2739l-.16,0a.52.52,0,0,0-.37.3c-.1.18-.19.37-.29.56-.3.59-.6,1.2-.89,1.8-.11.21-.22.42-.32.65-.32.74-.68,1.43-1,2.12l-.36.73a2.66,2.66,0,0,0-.2.69h-.2a1.89,1.89,0,0,0-.13-.44c0-.13-.11-.26-.17-.38q-1.33-2.68-2.68-5.39a3.72,3.72,0,0,0-.19-.34.5.5,0,0,0-.37-.3l-.51,0H2727c-.26,0-.47.15-.64.52l0,.07-1.92,3.9a.25.25,0,0,0,0,.07c-.24.57-.5,1.1-.76,1.62a5.66,5.66,0,0,0-.3.7h-.2a2,2,0,0,0-.15-.53l-.27-.59-1-2c-.12-.24-.24-.48-.35-.73-.37-.84-.77-1.61-1.17-2.41-.07-.14-.14-.27-.22-.4a.46.46,0,0,0-.28-.23,1.65,1.65,0,0,0-.31,0h-4.34a1.54,1.54,0,0,0-.3,0,.47.47,0,0,0-.28.23l-.12.2c-.38.77-.77,1.52-1.14,2.31-.29.62-.58,1.23-.88,1.83l-.72,1.44a8,8,0,0,0-.37.83h-.1a4.89,4.89,0,0,0-.4-1c-.35-.7-.69-1.4-1-2.09-.47-.94-.93-1.88-1.4-2.81q-.17-.33-.33-.63c-.1-.16-.21-.26-.33-.27a2.92,2.92,0,0,0-.51,0h-3.88a3.42,3.42,0,0,0-.46,0,.45.45,0,0,0-.33.27l-.33.62-1.65,3.33c-.31.63-.6,1.28-.9,1.92a1.11,1.11,0,0,0-.07.16,2.14,2.14,0,0,0-.13.54h-.21a5.27,5.27,0,0,0-.33-.76c-.45-.92-.9-1.83-1.34-2.77s-.9-1.83-1.36-2.74a3.72,3.72,0,0,0-.19-.34.44.44,0,0,0-.28-.23,1.54,1.54,0,0,0-.3,0H2691a1.76,1.76,0,0,0-.31,0,.47.47,0,0,0-.27.24c-.1.18-.2.36-.29.56-.24.54-.49,1-.74,1.54-.55,1.11-1.1,2.21-1.64,3.32-.11.21-.22.43-.32.66a2,2,0,0,0-.15.52h-.21a4.32,4.32,0,0,0-.32-.9c-.08-.17-.17-.34-.25-.5-.61-1.23-1.22-2.45-1.82-3.67l-.57-1.17-.18-.35a.46.46,0,0,0-.27-.25,5.46,5.46,0,0,0-.56,0h-4a2.85,2.85,0,0,0-.41,0,.48.48,0,0,0-.28.22,3.72,3.72,0,0,0-.19.34l-1.71,3.45a2.4,2.4,0,0,0-.11.23c-.21.49-.43.94-.66,1.4-.1.19-.19.38-.28.58a2.25,2.25,0,0,0-.17.62h-.3a2.66,2.66,0,0,0-.17-.62c0-.08-.07-.15-.1-.23-.34-.66-.67-1.35-1-2,0-.08-.08-.15-.11-.22l-1.47-3c-.08-.17-.17-.33-.26-.49a.45.45,0,0,0-.32-.27,4.38,4.38,0,0,0-.51,0h-3.89a2.45,2.45,0,0,0-.46,0,.43.43,0,0,0-.32.27c-.12.2-.23.41-.33.62-.66,1.32-1.32,2.65-2,4-.26.53-.51,1.09-.76,1.64l-.12.33h-.2a2,2,0,0,0-.15-.52c-.09-.2-.19-.4-.28-.59l-1.47-2.95c-.33-.68-.67-1.34-1-2.05a4.48,4.48,0,0,0-.26-.49.46.46,0,0,0-.28-.24,1.54,1.54,0,0,0-.3,0H2655a1.54,1.54,0,0,0-.3,0,.44.44,0,0,0-.28.23,5.86,5.86,0,0,0-.3.55l-1.15,2.3c-.09.2-.19.39-.28.59-.2.46-.41.9-.63,1.33s-.35.72-.53,1.08a6.68,6.68,0,0,0-.34.76h-.2a2.3,2.3,0,0,0-.2-.7c-.26-.57-.52-1.15-.8-1.7-.61-1.26-1.24-2.51-1.86-3.76-.07-.14-.14-.28-.22-.41a.45.45,0,0,0-.33-.27,2.92,2.92,0,0,0-.51,0h-3.88a2.38,2.38,0,0,0-.46,0,.45.45,0,0,0-.32.27,5.86,5.86,0,0,0-.3.55c-.72,1.45-1.43,2.89-2.15,4.33-.26.54-.51,1.09-.73,1.69H2639a1.65,1.65,0,0,0-.14-.53c-.06-.15-.13-.3-.2-.45l-1-2.09c-.12-.24-.24-.47-.35-.73-.37-.84-.78-1.61-1.17-2.4l-.22-.41a.46.46,0,0,0-.28-.23,1.65,1.65,0,0,0-.31,0H2631a1.55,1.55,0,0,0-.31,0,.51.51,0,0,0-.28.24l-.15.26c-.19.39-.38.77-.57,1.17s-.39.84-.59,1.24c-.45.92-.91,1.83-1.36,2.74l-.31.66a2,2,0,0,0-.15.53h-.2a3.7,3.7,0,0,0-.16-.4c-.2-.46-.4-.92-.61-1.35l-2.19-4.41c-.07-.14-.14-.28-.22-.41a.45.45,0,0,0-.33-.27,2.92,2.92,0,0,0-.51,0h-3.88a3.57,3.57,0,0,0-.46,0,.45.45,0,0,0-.32.27c-.12.2-.23.41-.34.63-.47,1-.95,1.92-1.43,2.89-.38.77-.75,1.56-1.12,2.35l0,.08a2.25,2.25,0,0,0-.17.62h-.3a2.61,2.61,0,0,0-.24-.76l-.72-1.44c-.19-.39-.38-.76-.56-1.17-.44-1-.92-1.89-1.38-2.83a4,4,0,0,0-.23-.41.45.45,0,0,0-.27-.23,4.38,4.38,0,0,0-.51,0h-4.23l-.21,0a.51.51,0,0,0-.27.24,2.78,2.78,0,0,0-.22.42c-.22.51-.46,1-.7,1.47l-1.61,3.24-.31.66a3.88,3.88,0,0,0-.3.81H2603a2.55,2.55,0,0,0-.12-.44c-.06-.13-.11-.25-.17-.37q-1.35-2.7-2.68-5.4c-.06-.12-.13-.23-.19-.34s-.23-.29-.37-.3a5.25,5.25,0,0,0-.56,0h-4.08a.69.69,0,0,0-.2,0,.5.5,0,0,0-.28.23c-.08.13-.15.26-.23.41-.6,1.22-1.22,2.43-1.82,3.67-.31.65-.62,1.33-.94,2-.08.17-.15.37-.22.55H2591a2.09,2.09,0,0,0-.17-.61c-.1-.23-.21-.45-.31-.67-.25-.51-.51-1-.75-1.53-.55-1.2-1.14-2.32-1.71-3.49,0-.09-.1-.18-.15-.27a.48.48,0,0,0-.32-.27,2.85,2.85,0,0,0-.41,0h-4.09l-.36,0c-.14,0-.26.14-.36.33l-.15.28c-.81,1.63-1.62,3.27-2.44,4.9a9.13,9.13,0,0,0-.54,1.34h-.2a6,6,0,0,0-.44-1.11l-2-4-.57-1.17a2.31,2.31,0,0,0-.18-.35.46.46,0,0,0-.27-.25,1.55,1.55,0,0,0-.31,0H2571a1.54,1.54,0,0,0-.3,0,.46.46,0,0,0-.28.24l-.12.19c-.32.65-.65,1.29-1,1.95s-.51,1.09-.77,1.61l-.86,1.73c-.09.19-.18.39-.28.59a2.4,2.4,0,0,0-.14.53h-.2a9.42,9.42,0,0,0-.48-1.06c-.21-.43-.42-.86-.62-1.33l-.25-.51c-.52-1.06-1.05-2.12-1.58-3.18-.07-.14-.14-.28-.22-.42s-.25-.34-.41-.35a5.25,5.25,0,0,0-.56,0H2559c-.46,0-.52.06-.85.72l-2.37,4.75c-.12.25-.23.5-.33.77a2.5,2.5,0,0,0-.15.64H2555a4.32,4.32,0,0,0-.32-.9c-.11-.22-.22-.43-.32-.65-.74-1.5-1.5-2.94-2.2-4.49a5,5,0,0,0-.3-.56.44.44,0,0,0-.27-.24,1.55,1.55,0,0,0-.31,0h-4.33a1.54,1.54,0,0,0-.3,0,.46.46,0,0,0-.28.24,2.2,2.2,0,0,0-.15.26c-.17.34-.33.68-.5,1l-.48,1-1.53,3.1c-.11.22-.22.44-.32.66a2,2,0,0,0-.15.52H2543c0-.11-.07-.23-.11-.33-.22-.48-.43-1-.66-1.42-.72-1.48-1.45-2.94-2.18-4.4-.07-.15-.15-.28-.23-.42a.45.45,0,0,0-.32-.27,2.92,2.92,0,0,0-.51,0h-3.89a2.45,2.45,0,0,0-.46,0,.48.48,0,0,0-.32.27c-.13.23-.25.46-.37.7-.63,1.28-1.27,2.55-1.9,3.83-.27.55-.53,1.14-.79,1.71a3.21,3.21,0,0,0-.12.33h-.21a2.46,2.46,0,0,0-.14-.52c-.11-.23-.21-.45-.32-.67l-1.35-2.73-.6-1.25c-.18-.39-.37-.78-.56-1.16a1.75,1.75,0,0,0-.16-.27.47.47,0,0,0-.27-.24,1.65,1.65,0,0,0-.31,0h-4.33a1.54,1.54,0,0,0-.3,0,.49.49,0,0,0-.28.24c-.12.19-.22.42-.33.64-.18.39-.37.79-.56,1.17-.58,1.18-1.16,2.35-1.75,3.53l-.17.36a4.32,4.32,0,0,0-.33.9h-.3a2.17,2.17,0,0,0-.18-.72c-.1-.23-.2-.46-.31-.67-.34-.7-.69-1.4-1-2.1s-.81-1.63-1.21-2.45c-.11-.21-.22-.42-.34-.63a.45.45,0,0,0-.32-.27,4.38,4.38,0,0,0-.51,0h-3.84l-.46,0a.51.51,0,0,0-.37.29l-.22.42-.61,1.23c-.2.41-.41.81-.6,1.23-.26.59-.54,1.14-.81,1.69l-.61,1.23a7.58,7.58,0,0,0-.34.76h-.2a2,2,0,0,0-.14-.53c-.09-.2-.19-.4-.28-.59l-1.08-2.17c-.13-.26-.26-.52-.38-.8-.34-.77-.71-1.47-1.06-2.19a2.63,2.63,0,0,0-.2-.33.41.41,0,0,0-.28-.23,4.38,4.38,0,0,0-.51,0h-4.19a.84.84,0,0,0-.2,0,.4.4,0,0,0-.23.19c-.1.17-.21.35-.3.54-.84,1.68-1.67,3.37-2.51,5.05a4.89,4.89,0,0,0-.4,1h-.21a8.49,8.49,0,0,0-.51-1.26c-.3-.6-.6-1.2-.89-1.8l-1.44-2.88c-.1-.22-.22-.43-.33-.63a.48.48,0,0,0-.32-.27,4.38,4.38,0,0,0-.51,0H2487a3.42,3.42,0,0,0-.45,0,.41.41,0,0,0-.28.23,1.64,1.64,0,0,0-.16.26l-.67,1.38c-.2.42-.39.84-.6,1.26-.42.87-.85,1.73-1.28,2.6-.1.19-.19.39-.28.59a1.87,1.87,0,0,0-.15.52h-.2c-.08-.18-.15-.38-.23-.55-.42-.84-.82-1.71-1.23-2.56s-1-2-1.47-3l-.11-.22c-.26-.5-.34-.57-.73-.59h-4.14a3.57,3.57,0,0,0-.46,0,.47.47,0,0,0-.32.28c-.12.2-.23.41-.34.62-.81,1.64-1.62,3.27-2.44,4.91l-.24.51a2.44,2.44,0,0,0-.16.52h-.2a2.64,2.64,0,0,0-.19-.6l-.28-.58c-.58-1.18-1.17-2.35-1.75-3.53-.24-.48-.48-.95-.7-1.46a4.13,4.13,0,0,0-.22-.42.48.48,0,0,0-.28-.25,1.54,1.54,0,0,0-.3,0h-4.33a1.65,1.65,0,0,0-.31,0,.48.48,0,0,0-.27.23,2.4,2.4,0,0,0-.16.27c-.21.43-.43.85-.63,1.31s-.49,1-.74,1.53-.57,1.15-.86,1.72c-.15.32-.31.63-.46.95a5.36,5.36,0,0,0-.29.83h-.3a2.25,2.25,0,0,0-.17-.62,1.47,1.47,0,0,0-.1-.22c-.34-.67-.67-1.35-1-2.06,0-.08-.07-.15-.11-.22l-1.47-3c-.07-.14-.14-.28-.22-.42s-.25-.34-.41-.35l-.51,0h-4c-.38,0-.46.09-.72.59l-.22.43c-.24.49-.48,1-.71,1.45-.35.7-.7,1.38-1,2.12-.09.21-.19.39-.29.59l-.5,1a4.33,4.33,0,0,0-.29.69h-.21a2.05,2.05,0,0,0-.15-.53c-.1-.22-.2-.44-.31-.66-.45-.91-.9-1.82-1.36-2.73-.25-.5-.5-1-.73-1.54-.12-.28-.26-.54-.39-.8q-.08-.15-.15-.27a.54.54,0,0,0-.37-.32,2.69,2.69,0,0,0-.4,0h-4a2.83,2.83,0,0,0-.41,0c-.14,0-.26.13-.36.31s-.15.28-.22.43c-.31.72-.65,1.37-1,2l-1.5,3a4.69,4.69,0,0,0-.4,1h-.21l-.18-.48L2434,655c-.69-1.4-1.39-2.79-2.08-4.18l-.18-.35c-.12-.21-.26-.34-.42-.35l-.51,0H2427a3.73,3.73,0,0,0-.46,0c-.1,0-.19.1-.28.22s-.1.17-.15.27c-.31.62-.63,1.24-.93,1.88s-.5,1.09-.77,1.62-.59,1.2-.89,1.8l-.24.52a2,2,0,0,0-.15.53h-.3a2.59,2.59,0,0,0-.22-.68q-.12-.27-.24-.51c-.45-.89-.89-1.78-1.33-2.67-.17-.34-.32-.69-.49-1s-.47-1-.71-1.46a2.2,2.2,0,0,0-.15-.26.43.43,0,0,0-.28-.23,4.38,4.38,0,0,0-.51,0H2415a3.57,3.57,0,0,0-.46,0,.48.48,0,0,0-.32.27c-.09.16-.18.32-.26.49-.74,1.49-1.48,3-2.22,4.47-.15.31-.29.65-.44,1a1.94,1.94,0,0,0-.15.63h-.31c-.05-.14-.1-.28-.15-.4-.29-.62-.58-1.25-.87-1.85-.63-1.29-1.27-2.56-1.9-3.83-.07-.14-.14-.28-.22-.42s-.25-.34-.41-.35l-.51,0H2403a3.57,3.57,0,0,0-.46,0,.44.44,0,0,0-.28.22l-.12.2c-.35.69-.7,1.37-1,2.1-.18.4-.37.79-.56,1.18-.28.58-.58,1.14-.86,1.72-.13.27-.26.54-.38.81a2.57,2.57,0,0,0-.18.61h-.31a2.09,2.09,0,0,0-.17-.61c-.08-.18-.17-.35-.25-.52l-.82-1.65c-.13-.27-.27-.53-.39-.81-.4-.91-.85-1.75-1.27-2.62-.08-.14-.15-.28-.23-.4a.4.4,0,0,0-.28-.23,4.38,4.38,0,0,0-.51,0H2391a3.44,3.44,0,0,0-.46,0c-.16,0-.3.14-.41.35s-.18.33-.26.5l-1.83,3.67c0,.12-.11.24-.17.37l-.66,1.41a3.94,3.94,0,0,0-.22.55h-.21a2,2,0,0,0-.15-.52l-.24-.52c-.29-.57-.58-1.15-.86-1.72l-1.58-3.17-.26-.5c-.14-.27-.3-.42-.5-.43l-.51,0h-3.78a3.57,3.57,0,0,0-.46,0,.43.43,0,0,0-.28.23,1.61,1.61,0,0,0-.15.26l-.6,1.24c-.17.34-.33.69-.49,1l-.72,1.44c-.27.56-.55,1.11-.82,1.66a4.34,4.34,0,0,0-.36,1h-.31a1.65,1.65,0,0,0-.13-.53c-.12-.25-.23-.5-.35-.74-.42-.84-.85-1.66-1.24-2.56,0-.1-.09-.19-.14-.29l-1-2c-.09-.16-.17-.33-.26-.48s-.23-.29-.37-.3l-.51,0h-4c-.38,0-.46.09-.72.59l-.18.36-.82,1.66c-.11.22-.22.44-.32.66-.21.49-.43,1-.66,1.4l-.57,1.16c-.09.17-.17.34-.25.52a2.4,2.4,0,0,0-.14.53h-.3a6.08,6.08,0,0,0-.43-1.12c-.59-1.17-1.17-2.35-1.76-3.53-.25-.5-.5-1-.74-1.54-.07-.15-.14-.28-.22-.42a.41.41,0,0,0-.28-.23,4.38,4.38,0,0,0-.51,0H2355l-.41,0c-.16,0-.29.14-.41.35l-.22.42-2.43,4.91c-.08.14-.14.29-.21.44a1.82,1.82,0,0,0-.16.73h-.31c-.07-.18-.14-.38-.22-.55-.42-.83-.83-1.71-1.24-2.56s-1-2-1.46-3l-.18-.36c-.15-.31-.34-.44-.55-.44H2343l-.46,0c-.18,0-.33.12-.46.37l-.26.49c-.26.53-.52,1.06-.79,1.59l-.42.88c-.18.39-.37.79-.56,1.18l-.64,1.29-.21.45a2.09,2.09,0,0,0-.17.61h-.31a2.49,2.49,0,0,0-.18-.6c-.09-.2-.19-.4-.28-.59l-1.4-2.81c-.27-.55-.55-1.1-.81-1.69-.09-.23-.21-.43-.31-.65l-.12-.2a.52.52,0,0,0-.37-.31l-.51,0h-4.08a.64.64,0,0,0-.2,0,.52.52,0,0,0-.33.28c-.12.22-.25.46-.36.7-.71,1.41-1.41,2.83-2.12,4.25q-.29.57-.54,1.2c-.06.13-.1.27-.15.41h-.31a2.31,2.31,0,0,0-.19-.7c-.28-.59-.55-1.19-.84-1.77-.59-1.21-1.19-2.41-1.78-3.61-.08-.14-.15-.28-.22-.42s-.26-.34-.42-.35l-.51,0h-4.08l-.21,0a.45.45,0,0,0-.27.23,1.64,1.64,0,0,0-.16.26c-.31.63-.63,1.24-.92,1.88s-.51,1.09-.78,1.62l-.82,1.65-.25.51a3.11,3.11,0,0,0-.21.69h-.3a2,2,0,0,0-.15-.52c-.09-.2-.19-.4-.28-.59-.76-1.57-1.56-3.08-2.29-4.7-.12-.25-.24-.48-.36-.71a.54.54,0,0,0-.42-.34l-.51,0h-2.33V606h576.54v44.12h-1.57a2.83,2.83,0,0,0-.41,0,.49.49,0,0,0-.32.26l-.12.2c-.32.64-.65,1.28-.95,1.94s-.49,1-.74,1.54-.59,1.19-.89,1.79l-.24.52a2.36,2.36,0,0,0-.18.6h-.2a2.44,2.44,0,0,0-.16-.52c-.09-.2-.18-.39-.28-.59-.48-1-1-1.93-1.43-2.9-.27-.55-.55-1.1-.8-1.69-.09-.2-.19-.39-.29-.59-.18-.39-.4-.61-.67-.59h-4.55l-.21,0a.48.48,0,0,0-.28.24c-.09.15-.18.31-.26.47l-2.5,5.07-.18.35c-.2.33-.4.34-.61,0a3.55,3.55,0,0,1-.29-.55c-.13-.28-.25-.56-.38-.82-.66-1.33-1.32-2.65-2-4l-.19-.36c-.16-.34-.36-.48-.59-.48h-4.6a.78.78,0,0,0-.21,0,.42.42,0,0,0-.23.2,3,3,0,0,0-.16.26l-.6,1.23c-.12.25-.23.51-.34.75l-1.58,3.17c-.09.17-.17.34-.26.49a1,1,0,0,1-.17.22.19.19,0,0,1-.3,0,1,1,0,0,1-.17-.22l-.26-.49c-.41-.84-.83-1.68-1.25-2.53-.08-.16-.17-.33-.24-.51-.3-.7-.63-1.33-1-2,0-.09-.1-.18-.15-.27a.52.52,0,0,0-.41-.34l-.41,0h-4.19c-.41,0-.49.07-.77.65-.57,1.16-1.16,2.28-1.7,3.5-.09.21-.19.4-.28.59l-.54,1.09-.24.52A1.65,1.65,0,0,0,2843.5,657Z" style="fill:#494949"/><path d="M3421,657h-.21a17.53,17.53,0,0,0-.73-1.69l-2-4c-.09-.2-.19-.38-.28-.58-.19-.4-.41-.6-.69-.57h-4.45a1.54,1.54,0,0,0-.3,0,.43.43,0,0,0-.28.24c-.1.18-.2.37-.29.56l-.45,1-1.83,3.67-.33.64a1.06,1.06,0,0,1-.17.23.21.21,0,0,1-.34,0,2.49,2.49,0,0,1-.17-.24c-.08-.15-.17-.32-.25-.49l-1-2c-.08-.17-.17-.34-.24-.52-.37-.84-.78-1.61-1.17-2.4a3.9,3.9,0,0,0-.19-.35.52.52,0,0,0-.37-.31l-.51,0h-4.19c-.25,0-.47.15-.64.52-.06.13-.12.24-.18.36l-.9,1.8c-.11.22-.21.44-.31.67-.19.39-.37.79-.56,1.17s-.41.82-.61,1.23c-.09.17-.17.34-.25.52a2.18,2.18,0,0,0-.17.61h-.21a5.49,5.49,0,0,0-.44-1.1c-.23-.49-.47-1-.71-1.45l-1.61-3.24c-.09-.16-.17-.33-.25-.5-.26-.49-.35-.57-.73-.59h-4.44c-.26,0-.47.14-.64.51-.09.18-.17.34-.26.5-.7,1.42-1.4,2.83-2.11,4.25l-.31.66a6.72,6.72,0,0,0-.38,1h-.21a2.18,2.18,0,0,0-.17-.61c-.1-.23-.21-.45-.32-.66-.41-.85-.84-1.67-1.23-2.56a2.59,2.59,0,0,0-.14-.29c-.32-.65-.64-1.3-1-2-.08-.16-.17-.33-.26-.48a.48.48,0,0,0-.37-.3,2.73,2.73,0,0,0-.41,0h-4.34l-.15,0a.47.47,0,0,0-.28.23l-.12.19c-.37.75-.74,1.49-1.1,2.25-.21.44-.42.89-.64,1.32l-.82,1.65-.25.51a3.11,3.11,0,0,0-.21.69h-.2a2,2,0,0,0-.15-.52c-.09-.2-.19-.4-.28-.59l-1.47-3c-.34-.67-.68-1.33-1-2a4.32,4.32,0,0,0-.22-.43c-.1-.18-.22-.3-.37-.31l-.51,0h-3.88a3.44,3.44,0,0,0-.46,0c-.16,0-.3.14-.42.35s-.17.33-.25.5c-.54,1.08-1.08,2.16-1.61,3.24-.1.19-.19.39-.28.59-.2.42-.4.84-.59,1.26a9.58,9.58,0,0,0-.41.91h-.2a2.16,2.16,0,0,0-.17-.62q-.12-.27-.24-.51c-.21-.41-.41-.82-.6-1.26-.07-.18-.16-.35-.24-.51-.53-1.06-1.05-2.12-1.58-3.17,0-.1-.1-.19-.14-.29-.16-.33-.36-.51-.59-.51h-4.66l-.15,0a.5.5,0,0,0-.28.23c-.06.11-.13.22-.19.34-.29.57-.58,1.14-.85,1.75-.12.28-.25.54-.38.81l-1.29,2.59c-.1.19-.19.39-.28.59a2,2,0,0,0-.15.53h-.2a5,5,0,0,0-.39-1c-.45-.88-.89-1.77-1.33-2.66-.33-.67-.67-1.33-1-2a6.19,6.19,0,0,0-.28-.58,1.28,1.28,0,0,0-.11-.2c-.11-.18-.23-.3-.37-.31l-.51,0h-4.14c-.39,0-.47.09-.73.59l-.11.22-1.47,3-.21.44c-.23.54-.48,1-.73,1.55q-.14.28-.27.6a2,2,0,0,0-.14.53h-.21l-.18-.48c-.31-.67-.62-1.35-.94-2l-1-2-.75-1.51c-.1-.2-.19-.38-.29-.56a.51.51,0,0,0-.38-.3l-.51,0h-4l-.2,0a.6.6,0,0,0-.47.37l-.22.42c-.84,1.7-1.69,3.41-2.54,5.11l-.21.44a2,2,0,0,0-.15.52h-.21a2.49,2.49,0,0,0-.18-.6c-.1-.23-.21-.45-.32-.67-.4-.81-.81-1.63-1.21-2.45-.16-.31-.3-.64-.46-.95l-.81-1.67a1.75,1.75,0,0,0-.16-.27.45.45,0,0,0-.27-.23,3.73,3.73,0,0,0-.46,0h-4.3l-.15,0a.5.5,0,0,0-.37.3l-.3.56c-.3.59-.59,1.2-.89,1.8-.11.21-.22.42-.32.65-.32.74-.68,1.43-1,2.12l-.36.73a2.66,2.66,0,0,0-.2.69h-.21a1.89,1.89,0,0,0-.12-.44c0-.13-.11-.26-.17-.38-.89-1.79-1.79-3.59-2.68-5.39-.06-.12-.13-.23-.19-.34s-.23-.29-.37-.3l-.51,0h-4.14c-.25,0-.47.15-.64.52a.43.43,0,0,1,0,.07l-1.92,3.9a.25.25,0,0,0,0,.07c-.24.57-.5,1.1-.77,1.62a5.67,5.67,0,0,0-.29.7h-.21a1.65,1.65,0,0,0-.14-.53c-.09-.2-.18-.4-.28-.59l-1-2-.36-.73c-.36-.84-.77-1.61-1.16-2.41-.07-.14-.15-.27-.23-.4a.46.46,0,0,0-.28-.23,1.55,1.55,0,0,0-.31,0h-4.34a1.65,1.65,0,0,0-.31,0,.5.5,0,0,0-.28.23,2,2,0,0,0-.11.2c-.39.77-.78,1.52-1.15,2.31-.29.62-.58,1.23-.88,1.83l-.72,1.44a8,8,0,0,0-.37.83h-.1a6.27,6.27,0,0,0-.4-1l-1.05-2.09c-.46-.94-.93-1.88-1.4-2.81l-.33-.63a.45.45,0,0,0-.33-.27,2.92,2.92,0,0,0-.51,0h-3.89a3.57,3.57,0,0,0-.46,0c-.12,0-.23.11-.33.27l-.33.62-1.65,3.33c-.31.63-.61,1.28-.91,1.92l-.06.16a2.13,2.13,0,0,0-.14.54h-.2a6.68,6.68,0,0,0-.33-.76c-.46-.92-.91-1.83-1.35-2.77s-.9-1.83-1.36-2.74a3.72,3.72,0,0,0-.19-.34.44.44,0,0,0-.28-.23,1.54,1.54,0,0,0-.3,0h-4.35a1.54,1.54,0,0,0-.3,0,.46.46,0,0,0-.28.24c-.1.18-.2.36-.29.56-.24.54-.49,1-.74,1.54l-1.65,3.32c-.11.21-.21.43-.31.66a2,2,0,0,0-.15.52h-.21a4.32,4.32,0,0,0-.33-.9c-.08-.17-.16-.34-.25-.5-.61-1.23-1.22-2.45-1.82-3.67l-.57-1.17-.18-.35a.44.44,0,0,0-.28-.25,5.09,5.09,0,0,0-.56,0h-4a2.85,2.85,0,0,0-.41,0,.48.48,0,0,0-.28.22,3.72,3.72,0,0,0-.19.34l-1.72,3.45c0,.08-.07.15-.1.23-.21.49-.44.94-.67,1.4l-.28.58a2.25,2.25,0,0,0-.16.62h-.31a2.25,2.25,0,0,0-.17-.62,2.29,2.29,0,0,0-.1-.23c-.34-.66-.67-1.35-1-2l-.11-.22-1.47-3c-.08-.17-.17-.33-.26-.49a.45.45,0,0,0-.32-.27,4.38,4.38,0,0,0-.52,0h-3.89a2.45,2.45,0,0,0-.46,0,.43.43,0,0,0-.32.27c-.12.2-.23.41-.34.62-.65,1.32-1.31,2.65-2,4-.26.53-.51,1.09-.76,1.64a3.21,3.21,0,0,0-.12.33h-.21a2,2,0,0,0-.15-.52c-.09-.2-.18-.4-.28-.59l-1.47-2.95c-.33-.68-.67-1.34-1-2.05a4.48,4.48,0,0,0-.26-.49.46.46,0,0,0-.28-.24,1.54,1.54,0,0,0-.3,0h-4.35a1.76,1.76,0,0,0-.31,0,.42.42,0,0,0-.27.23,5.86,5.86,0,0,0-.3.55l-1.15,2.3c-.1.2-.19.39-.28.59-.2.46-.42.9-.63,1.33l-.54,1.08a5.27,5.27,0,0,0-.33.76h-.21a2.05,2.05,0,0,0-.2-.7c-.26-.57-.52-1.15-.8-1.7-.61-1.26-1.24-2.51-1.86-3.76l-.22-.41c-.1-.16-.21-.26-.33-.27a2.92,2.92,0,0,0-.51,0h-3.89a2.38,2.38,0,0,0-.46,0c-.12,0-.23.11-.33.27s-.2.36-.29.55l-2.16,4.33c-.26.54-.51,1.09-.73,1.69h-.2a2.4,2.4,0,0,0-.14-.53l-.21-.45-1-2.09c-.12-.24-.24-.47-.35-.73-.37-.84-.78-1.61-1.17-2.4-.07-.14-.15-.28-.23-.41a.44.44,0,0,0-.28-.23,1.54,1.54,0,0,0-.3,0h-4.35a1.54,1.54,0,0,0-.3,0,.48.48,0,0,0-.28.24,2.2,2.2,0,0,0-.15.26c-.19.39-.38.77-.57,1.17s-.39.84-.6,1.24c-.45.92-.9,1.83-1.36,2.74l-.31.66a2,2,0,0,0-.15.53h-.2a3.7,3.7,0,0,0-.16-.4c-.2-.46-.4-.92-.61-1.35l-2.19-4.41c-.07-.14-.15-.28-.23-.41a.45.45,0,0,0-.32-.27,2.92,2.92,0,0,0-.51,0h-3.89a3.42,3.42,0,0,0-.46,0,.45.45,0,0,0-.33.27q-.17.3-.33.63c-.48,1-1,1.92-1.43,2.89-.38.77-.75,1.56-1.13,2.35l0,.08a2,2,0,0,0-.16.62h-.31a2.61,2.61,0,0,0-.24-.76l-.72-1.44c-.19-.39-.38-.76-.56-1.17-.44-1-.92-1.89-1.38-2.83-.08-.15-.15-.28-.23-.41a.46.46,0,0,0-.28-.23,4.38,4.38,0,0,0-.51,0h-4.24a.69.69,0,0,0-.2,0,.49.49,0,0,0-.28.24,4.13,4.13,0,0,0-.22.42c-.22.51-.46,1-.7,1.47-.53,1.08-1.07,2.16-1.61,3.24l-.31.66a3.88,3.88,0,0,0-.3.81h-.21a2.55,2.55,0,0,0-.12-.44c-.06-.13-.11-.25-.17-.37l-2.69-5.4a3.72,3.72,0,0,0-.19-.34.5.5,0,0,0-.37-.3,5.12,5.12,0,0,0-.56,0h-4.08l-.21,0a.53.53,0,0,0-.28.23c-.07.13-.15.26-.22.41-.61,1.22-1.22,2.43-1.83,3.67-.31.65-.62,1.33-.94,2-.08.17-.15.37-.22.55H3168a2.09,2.09,0,0,0-.17-.61c-.1-.23-.21-.45-.32-.67-.25-.51-.51-1-.74-1.53-.55-1.2-1.14-2.32-1.71-3.49l-.15-.27c-.1-.15-.21-.26-.33-.27a2.71,2.71,0,0,0-.41,0h-4.09l-.36,0a.55.55,0,0,0-.37.33,2.44,2.44,0,0,0-.14.28c-.82,1.63-1.63,3.27-2.45,4.9a9.13,9.13,0,0,0-.54,1.34H3156a5.35,5.35,0,0,0-.43-1.11l-2-4c-.19-.38-.38-.78-.56-1.17a3.9,3.9,0,0,0-.19-.35.43.43,0,0,0-.27-.25,1.55,1.55,0,0,0-.31,0H3148a1.54,1.54,0,0,0-.3,0,.48.48,0,0,0-.28.24l-.12.19c-.32.65-.65,1.29-1,1.95s-.51,1.09-.77,1.61l-.86,1.73c-.09.19-.19.39-.28.59a2,2,0,0,0-.14.53h-.2a9.42,9.42,0,0,0-.48-1.06c-.21-.43-.43-.86-.63-1.33l-.24-.51c-.53-1.06-1.06-2.12-1.58-3.18-.08-.14-.15-.28-.22-.42s-.26-.34-.42-.35a5.25,5.25,0,0,0-.56,0H3136c-.47,0-.53.06-.86.72l-2.37,4.75c-.12.25-.24.5-.34.77a3,3,0,0,0-.15.64h-.3a5,5,0,0,0-.33-.9c-.1-.22-.21-.43-.32-.65-.73-1.5-1.5-2.94-2.2-4.49a5,5,0,0,0-.3-.56.44.44,0,0,0-.27-.24,1.65,1.65,0,0,0-.31,0h-4.34a1.54,1.54,0,0,0-.3,0,.46.46,0,0,0-.28.24,2.2,2.2,0,0,0-.15.26c-.17.34-.33.68-.5,1l-.48,1-1.54,3.1c-.11.22-.21.44-.31.66a2.44,2.44,0,0,0-.16.52h-.2a3.21,3.21,0,0,0-.12-.33c-.22-.48-.43-1-.65-1.42-.73-1.48-1.46-2.94-2.19-4.4l-.23-.42a.45.45,0,0,0-.32-.27,2.92,2.92,0,0,0-.51,0H3112a2.45,2.45,0,0,0-.46,0,.48.48,0,0,0-.32.27c-.13.23-.25.46-.37.7-.63,1.28-1.27,2.55-1.9,3.83-.27.55-.54,1.14-.8,1.71l-.12.33h-.2a2,2,0,0,0-.15-.52c-.1-.23-.21-.45-.31-.67-.46-.91-.91-1.82-1.36-2.73l-.6-1.25c-.18-.39-.37-.78-.56-1.16a1.75,1.75,0,0,0-.16-.27.47.47,0,0,0-.27-.24,1.76,1.76,0,0,0-.31,0h-4.34a1.76,1.76,0,0,0-.31,0,.51.51,0,0,0-.27.24c-.12.19-.22.42-.33.64-.18.39-.37.79-.56,1.17-.58,1.18-1.17,2.35-1.75,3.53l-.18.36a4.32,4.32,0,0,0-.32.9h-.31a2.18,2.18,0,0,0-.17-.72c-.1-.23-.21-.46-.32-.67-.34-.7-.69-1.4-1-2.1l-1.22-2.45c-.1-.21-.22-.42-.33-.63a.45.45,0,0,0-.32-.27,4.38,4.38,0,0,0-.51,0H3088l-.46,0a.51.51,0,0,0-.37.29c-.08.14-.15.28-.22.42-.21.41-.41.82-.61,1.23s-.41.81-.61,1.23c-.26.59-.53,1.14-.81,1.69s-.4.82-.61,1.23a7.56,7.56,0,0,0-.33.76h-.21a2,2,0,0,0-.14-.53c-.09-.2-.19-.4-.28-.59l-1.08-2.17c-.13-.26-.26-.52-.38-.8-.34-.77-.71-1.47-1.07-2.19a2.59,2.59,0,0,0-.19-.33.41.41,0,0,0-.28-.23,4.38,4.38,0,0,0-.51,0h-4.2a.73.73,0,0,0-.2,0,.35.35,0,0,0-.23.19c-.11.17-.21.35-.31.54-.83,1.68-1.67,3.37-2.51,5.05a5.5,5.5,0,0,0-.4,1h-.21a8.49,8.49,0,0,0-.51-1.26c-.3-.6-.6-1.2-.89-1.8l-1.44-2.88-.33-.63a.49.49,0,0,0-.33-.27,4.38,4.38,0,0,0-.51,0h-3.89a3.73,3.73,0,0,0-.46,0c-.1,0-.19.1-.28.23a3,3,0,0,0-.15.26l-.68,1.38-.59,1.26-1.29,2.6c-.09.19-.19.39-.28.59a1.87,1.87,0,0,0-.15.52h-.2c-.08-.18-.15-.38-.23-.55-.42-.84-.82-1.71-1.23-2.56s-1-2-1.48-3l-.11-.22c-.26-.5-.34-.57-.73-.59h-4.14a3.42,3.42,0,0,0-.46,0,.47.47,0,0,0-.33.28l-.33.62-2.45,4.91-.24.51a2.44,2.44,0,0,0-.16.52h-.2a2.64,2.64,0,0,0-.19-.6l-.28-.58c-.59-1.18-1.17-2.35-1.75-3.53-.24-.48-.48-.95-.71-1.46a2.78,2.78,0,0,0-.22-.42.46.46,0,0,0-.27-.25,1.55,1.55,0,0,0-.31,0h-4.34a1.54,1.54,0,0,0-.3,0,.47.47,0,0,0-.28.23,2.34,2.34,0,0,0-.15.27c-.22.43-.44.85-.64,1.31s-.49,1-.74,1.53-.57,1.15-.86,1.72c-.15.32-.31.63-.46.95a4.48,4.48,0,0,0-.29.83h-.3a2.25,2.25,0,0,0-.17-.62c0-.08-.07-.15-.1-.22-.34-.67-.67-1.35-1-2.06,0-.08-.07-.15-.1-.22l-1.47-3-.22-.42c-.12-.21-.26-.34-.42-.35l-.51,0h-4c-.39,0-.47.09-.73.59-.07.15-.14.29-.22.43-.23.49-.47,1-.71,1.45-.35.7-.7,1.38-1,2.12-.09.21-.19.39-.29.59l-.5,1a5.5,5.5,0,0,0-.3.69h-.2a2.05,2.05,0,0,0-.15-.53l-.31-.66c-.46-.91-.91-1.82-1.36-2.73-.25-.5-.5-1-.74-1.54-.12-.28-.26-.54-.39-.8a1.73,1.73,0,0,0-.15-.27.52.52,0,0,0-.36-.32l-.41,0h-4a2.69,2.69,0,0,0-.4,0,.52.52,0,0,0-.37.31c-.08.14-.15.28-.22.43-.31.72-.65,1.37-1,2-.5,1-1,2-1.51,3a5.25,5.25,0,0,0-.39,1h-.21c-.06-.16-.12-.33-.19-.48-.23-.5-.45-1-.69-1.49q-1-2.1-2.08-4.18l-.18-.35c-.12-.21-.26-.34-.42-.35l-.51,0h-3.83a3.42,3.42,0,0,0-.46,0,.42.42,0,0,0-.28.22,2.4,2.4,0,0,0-.16.27c-.31.62-.63,1.24-.92,1.88s-.52,1.09-.78,1.62-.6,1.2-.89,1.8c-.09.17-.17.35-.25.52a2,2,0,0,0-.14.53h-.31a3,3,0,0,0-.21-.68c-.08-.18-.17-.35-.25-.51-.44-.89-.88-1.78-1.33-2.67-.16-.34-.32-.69-.49-1s-.47-1-.71-1.46a2.2,2.2,0,0,0-.15-.26.41.41,0,0,0-.28-.23,4.38,4.38,0,0,0-.51,0h-3.89a3.73,3.73,0,0,0-.46,0,.48.48,0,0,0-.32.27c-.09.16-.18.32-.26.49l-2.22,4.47c-.16.31-.3.65-.44,1a2.23,2.23,0,0,0-.16.63h-.31a3.71,3.71,0,0,0-.15-.4c-.29-.62-.57-1.25-.87-1.85-.63-1.29-1.26-2.56-1.9-3.83-.07-.14-.14-.28-.22-.42s-.25-.34-.41-.35l-.51,0h-3.84a3.57,3.57,0,0,0-.46,0,.44.44,0,0,0-.28.22l-.12.2c-.35.69-.7,1.37-1,2.1-.19.4-.37.79-.56,1.18-.29.58-.58,1.14-.86,1.72-.14.27-.26.54-.39.81a2.57,2.57,0,0,0-.18.61h-.31a2.09,2.09,0,0,0-.17-.61l-.24-.52c-.28-.55-.56-1.1-.83-1.65-.13-.27-.27-.53-.39-.81-.4-.91-.85-1.75-1.27-2.62-.08-.14-.15-.28-.23-.4a.4.4,0,0,0-.28-.23,4.38,4.38,0,0,0-.51,0h-3.84a3.55,3.55,0,0,0-.46,0c-.16,0-.3.14-.41.35s-.18.33-.26.5l-1.83,3.67-.18.37-.66,1.41a3.94,3.94,0,0,0-.22.55h-.2a3.22,3.22,0,0,0-.15-.52l-.25-.52-.86-1.72-1.58-3.17-.26-.5c-.14-.27-.3-.42-.5-.43l-.51,0h-3.79a3.57,3.57,0,0,0-.46,0,.43.43,0,0,0-.28.23,1.61,1.61,0,0,0-.15.26c-.21.41-.41.82-.61,1.24s-.32.69-.49,1-.47,1-.71,1.44-.55,1.11-.83,1.66a4.88,4.88,0,0,0-.36,1h-.3a2,2,0,0,0-.14-.53c-.12-.25-.23-.5-.35-.74-.42-.84-.85-1.66-1.24-2.56,0-.1-.09-.19-.14-.29-.32-.65-.64-1.3-1-2l-.25-.48a.51.51,0,0,0-.38-.3l-.51,0h-4c-.38,0-.46.09-.72.59a3,3,0,0,0-.18.36l-.83,1.66-.31.66c-.21.49-.44,1-.67,1.4l-.57,1.16-.24.52a1.65,1.65,0,0,0-.14.53h-.31a6.08,6.08,0,0,0-.43-1.12c-.59-1.17-1.18-2.35-1.76-3.53-.25-.5-.51-1-.74-1.54-.07-.15-.14-.28-.22-.42a.43.43,0,0,0-.28-.23,4.38,4.38,0,0,0-.51,0h-3.89a2.83,2.83,0,0,0-.41,0c-.16,0-.3.14-.41.35s-.15.28-.22.42c-.82,1.64-1.63,3.27-2.44,4.91l-.21.44a2,2,0,0,0-.16.73h-.31c-.07-.18-.14-.38-.22-.55-.42-.83-.83-1.71-1.24-2.56s-1-2-1.47-3c-.06-.12-.12-.23-.18-.36-.15-.31-.34-.44-.55-.44h-4.14l-.46,0a.58.58,0,0,0-.47.37c-.08.16-.17.32-.25.49-.27.53-.53,1.06-.79,1.59l-.42.88c-.19.39-.37.79-.56,1.18l-.65,1.29-.21.45a2.09,2.09,0,0,0-.17.61h-.31a2.49,2.49,0,0,0-.18-.6c-.09-.2-.19-.4-.28-.59l-1.4-2.81c-.28-.55-.55-1.1-.81-1.69-.1-.23-.21-.43-.32-.65a1.28,1.28,0,0,0-.11-.2c-.11-.18-.23-.3-.37-.31l-.51,0h-4.09l-.21,0a.53.53,0,0,0-.32.28c-.13.22-.25.46-.37.7-.71,1.41-1.41,2.83-2.12,4.25q-.28.57-.54,1.2c-.06.13-.1.27-.15.41h-.31a2.31,2.31,0,0,0-.19-.7c-.28-.59-.56-1.19-.84-1.77-.59-1.21-1.19-2.41-1.79-3.61l-.22-.42c-.12-.21-.25-.34-.41-.35a4.41,4.41,0,0,0-.52,0h-4.09l-.2,0a.46.46,0,0,0-.28.23,1.61,1.61,0,0,0-.15.26c-.32.63-.63,1.24-.93,1.88s-.51,1.09-.78,1.62-.54,1.1-.82,1.65l-.25.51a3.11,3.11,0,0,0-.21.69h-.31a2,2,0,0,0-.14-.52c-.09-.2-.19-.4-.28-.59-.77-1.57-1.56-3.08-2.3-4.7-.11-.25-.24-.48-.36-.71a.54.54,0,0,0-.42-.34l-.5,0h-2.35V606h577.55v44.12h-1.58a2.69,2.69,0,0,0-.4,0,.53.53,0,0,0-.33.26,1.28,1.28,0,0,0-.11.2c-.32.64-.65,1.28-1,1.94s-.49,1-.74,1.54l-.89,1.79-.24.52a2.36,2.36,0,0,0-.18.6h-.2a2.44,2.44,0,0,0-.16-.52c-.09-.2-.19-.39-.28-.59-.48-1-1-1.93-1.43-2.9-.28-.55-.55-1.1-.81-1.69-.09-.2-.19-.39-.28-.59-.18-.39-.4-.61-.68-.59h-4.56a1.38,1.38,0,0,0-.2,0,.46.46,0,0,0-.28.24c-.09.15-.18.31-.26.47q-1.26,2.53-2.51,5.07a3.9,3.9,0,0,1-.19.35c-.19.33-.4.34-.6,0a4.68,4.68,0,0,1-.3-.55c-.12-.28-.25-.56-.38-.82-.65-1.33-1.31-2.65-2-4l-.18-.36c-.17-.34-.37-.48-.6-.48h-4.61a.65.65,0,0,0-.2,0,.41.41,0,0,0-.24.2,1.61,1.61,0,0,0-.15.26c-.21.41-.41.82-.61,1.23-.11.25-.22.51-.34.75l-1.58,3.17c-.09.17-.17.34-.26.49a1,1,0,0,1-.17.22.19.19,0,0,1-.3,0,1,1,0,0,1-.17-.22l-.26-.49c-.42-.84-.84-1.68-1.25-2.53-.09-.16-.17-.33-.25-.51-.3-.7-.63-1.33-1-2l-.15-.27a.54.54,0,0,0-.42-.34l-.41,0h-4.2c-.41,0-.49.07-.77.65-.57,1.16-1.16,2.28-1.7,3.5-.09.21-.19.4-.28.59l-.54,1.09-.24.52A1.65,1.65,0,0,0,3421,657Z" style="fill:#494949"/></g></svg>