<svg height="135" viewBox="0 0 712 135" width="712" xmlns="http://www.w3.org/2000/svg"><path d="m562.54 104.85s59 4.8 139.68 23.15l-32.33-40.48 32.33-13.87s-62.91-23.35-139.68-27.05z" fill="#ea212d"/><path d="m613.28 90.92-50.75 13.93v-34.67l34.52 5.09z" fill="#9c0f17"/><path d="m144.62 104.85s-58.95 4.8-139.69 23.15l32.33-40.48-32.33-13.87s62.91-23.35 139.69-27.05z" fill="#ea212d"/><path d="m93.88 90.92 50.74 13.93v-34.67l-34.52 5.09z" fill="#9c0f17"/><path d="m613.28 90.92a1168.67 1168.67 0 0 0 -519.66 0v-57.69a1169 1169 0 0 1 519.66 0z" fill="#ea212d"/><g fill="#fff"><path d="m278.32 41.15c1.85-.14 2.68 0 3.62.7a4 4 0 0 1 1.62 2.91 4.19 4.19 0 0 1 -1.16 3.24c-.8.75-1.52 1-3.45 1.15l-6.61.49a8.31 8.31 0 0 1 -3.27-.11 3.91 3.91 0 0 1 -2.67-2.91 10.29 10.29 0 0 1 -.34-2.54l-1-14c-.16-2.16-.14-2.43.15-3.27a3.84 3.84 0 0 1 1.89-2.28c.94-.45 1.13-.51 3.64-.69l5.1-.38a11.17 11.17 0 0 1 3.26-.05 3.79 3.79 0 0 1 3.21 3.49 4.06 4.06 0 0 1 -1.16 3.23 4.52 4.52 0 0 1 -3.18 1.17l-4.25.32.13 1.78 3.37-.25c2.08-.16 3.53 1 3.66 2.79a3.19 3.19 0 0 1 -.94 2.52 3.77 3.77 0 0 1 -2.58.85l-3.05.23.14 1.93z"/><path d="m295.37 22.17a13.26 13.26 0 0 1 9.54 2.75 12.88 12.88 0 0 1 4.8 9.35 12.89 12.89 0 0 1 -9.49 13.19 26.31 26.31 0 0 1 -4.36.55l-3.59.21c-2 .11-2.83 0-3.64-.49a3.8 3.8 0 0 1 -1.91-2.22 10.53 10.53 0 0 1 -.31-2.78l-.81-14.19c-.12-2.16-.13-2.4 0-3 .51-1.89 2-2.95 4.52-3.09zm-.58 17.95c2.94-.2 3.63-.36 4.6-1.11a5.2 5.2 0 0 0 1.85-4.22 5 5 0 0 0 -3-4.29 7.19 7.19 0 0 0 -3.31-.36h-.7z"/><path d="m321.54 35.94c.07 1.86 1 3 2.43 2.89s2.28-1.17 2.22-2.95l-.39-10.29c-.07-1.9.07-2.49.81-3.45a4.24 4.24 0 0 1 3.23-1.74 4.48 4.48 0 0 1 3.38 1.42c.85.94 1.08 1.71 1.16 4l.34 9.17c.13 3.49-.63 6-2.41 8.19a10.78 10.78 0 0 1 -17-.06c-1.67-2.11-2.24-3.91-2.36-7.32l-.34-9.1c-.09-2.44 0-3.06.74-4.06a4.57 4.57 0 0 1 3.31-1.79 4.51 4.51 0 0 1 3.18 1.24c.89.86 1.23 1.82 1.3 3.64z"/><path d="m360.67 43.05a13.9 13.9 0 0 1 -9 3.55 13.56 13.56 0 1 1 8.33-24.11c2.12 1.63 3.19 3.36 3.22 5.06a4.27 4.27 0 0 1 -4.22 4.33 3.86 3.86 0 0 1 -2.69-1l-1.26-1.34a5.06 5.06 0 1 0 -3.58 8.58 5.19 5.19 0 0 0 3.76-1.77l.88-.94a4.22 4.22 0 0 1 2.92-1.28 4.36 4.36 0 0 1 4.33 4.11c.04 1.55-.9 3.19-2.69 4.81z"/><path d="m369.27 46a4.19 4.19 0 0 1 -4.19-4.29 5.12 5.12 0 0 1 .56-2.24l8.21-17.1a4.26 4.26 0 0 1 3.93-2.53 4.34 4.34 0 0 1 4 2.62l8 17.41a4.33 4.33 0 0 1 .49 2.06 4.28 4.28 0 0 1 -4.33 4.19c-2 0-3.13-1-4.31-3.6l-7.9-.05c-1.12 2.53-2.41 3.53-4.46 3.53zm9.73-9.68-1.29-3.11-1.34 3.09z"/><path d="m393 28.12a4.15 4.15 0 0 1 -3.18-1.21 4 4 0 0 1 -1.13-2.85 4.09 4.09 0 0 1 2.3-3.51c.9-.36 1.25-.39 4.62-.31l8.6.23a16.72 16.72 0 0 1 2.9.15 3.87 3.87 0 0 1 3.39 4 4.29 4.29 0 0 1 -1.48 3 4.72 4.72 0 0 1 -3.31.84l-1.9-.05-.34 12.86a5.63 5.63 0 0 1 -.82 3.27 4 4 0 0 1 -3.57 1.85 4.28 4.28 0 0 1 -3.48-1.88 5.3 5.3 0 0 1 -.65-3.38l.34-12.94z"/><path d="m421.24 42.25a4.72 4.72 0 0 1 -1.24 3.44 4.33 4.33 0 0 1 -6.35-.19 4.61 4.61 0 0 1 -.93-3.61l.68-16c.09-2.17.32-2.94 1.25-3.87a4.1 4.1 0 0 1 3.19-1.25 4.27 4.27 0 0 1 3.16 1.51c.81 1 1 1.9.95 4z"/><path d="m439.4 21.5a13.56 13.56 0 1 1 -14.4 12.5 13.56 13.56 0 0 1 14.4-12.5zm-1.15 18.64a5.12 5.12 0 0 0 5.39-4.78 5.07 5.07 0 0 0 -10.12-.69 5.13 5.13 0 0 0 4.73 5.47z"/><path d="m470.7 29.66a5.11 5.11 0 0 1 1.08-3.28 4.21 4.21 0 0 1 6.75.31 4.89 4.89 0 0 1 .68 3.49l-1.47 15.74c-.19 2-.46 2.87-1.28 3.77a4.21 4.21 0 0 1 -3.46 1.31 4.07 4.07 0 0 1 -3.19-2.05l-5.91-9.23-.51 5.4a4.64 4.64 0 0 1 -1.28 3.31 4.3 4.3 0 0 1 -3.42 1.24 4.37 4.37 0 0 1 -3.24-2c-.6-1-.72-1.82-.55-3.71l1.52-16.28a4.26 4.26 0 0 1 4.86-4.13 3.84 3.84 0 0 1 3 2l6 8.92z"/></g></svg>