<svg height="47" viewBox="0 0 51 47" width="51" xmlns="http://www.w3.org/2000/svg"><g fill-rule="evenodd"><path d="m22.29 11.43a23.44 23.44 0 0 1 18.52 2.39 17.69 17.69 0 0 1 5.19 12.65c-.12 10-8.78 17.9-19.21 17.73s-18.79-8.38-18.63-18.35c2-4.45 6.1-11.8 14.13-14.42z" fill="#7fb04d"/><path d="m22.29 11.43a20.93 20.93 0 0 1 7.24-.91c2.73 5.24 5.47 14.53 5.41 18.48 0 5.82-1.59 11.4-4.84 15.05a15.77 15.77 0 0 1 -3.31.17c-10.43-.22-18.79-8.4-18.63-18.37 2-4.45 6.1-11.8 14.13-14.42z" fill="#9c6"/><path d="m22.29 11.43a23.44 23.44 0 0 1 18.52 2.39c-6.49 8.32-21.65 14.76-32.71 12.08 2.05-4.5 6.16-11.85 14.19-14.47z" fill="#ffc"/><path d="m22.35 12.74c1.42-.46 2.73-.51 2.85-.06s-.91 1.14-2.34 1.6-2.73.51-2.85.06.86-1.14 2.34-1.6z" fill="#78a2c4"/><path d="m21.32 14.62-6.5-9.69-4.72-.51.05-1.08 5.42.45 7.18 10.49z" fill="#fff"/></g></svg>