<svg height="459" viewBox="0 0 203 459" width="203" xmlns="http://www.w3.org/2000/svg"><rect fill="#472821" height="287.51" rx="5.11" transform="matrix(.99050946 -.13744455 .13744455 .99050946 -40.77 19.82)" width="13.11" x="116.53" y="161.25"/><path d="m111.34 139.71a36.84 36.84 0 0 1 -1.16-6.61 14.16 14.16 0 0 0 -1.53-5.1l-2.89.52c-3.2.61-4.16 2.47-5.68 5.06-2 3.52 1.81 4.58 4.21 6.25 1.64 1.14 2.95 2.67 4.51 3.87.89-1.3 1.75-2.62 2.54-3.99z" fill="none"/><path d="m153.58 39.75c-23.25 8.21-20.85 23-20.85 23l-3.46 3.57c.14-4-5.25-5.63-5.25-5.63a10.8 10.8 0 0 1 -8.22-7.27l-1.8-22.61c4.31-16.23-7-16.37-7-16.37-10.36 4.53-2.13 16.79-2.13 16.79 2.17 10.69-7.63 19.26-7.63 19.26l-9.11 1.27 18 129.6c20.54-21.36 6.83-35.15 6.83-35.15 5-8.93-1-17.84-1-17.84 20.87-9.25 18.8-45.26 18.8-45.26l5.71-5.94c10.16 2.71 15.35-6.94 15.35-6.94l7.92-18.45.62-4.21c1.19-10-6.76-7.82-6.76-7.82z" fill="#d19324"/><path d="m21.79 58c24.61 1.61 26.33 16.49 26.33 16.49l4.3 2.51c-1.21-3.78 3.52-6.84 3.52-6.84a10.84 10.84 0 0 0 5.93-9.25l-4.46-22.24c-8.54-14.45 2.35-17.67 2.35-17.67 11.24 1.53 6.63 15.56 6.63 15.56.83 10.88 12.61 16.44 12.61 16.44l9.1-1.26 18 129.6c-25.59-15-16.16-32-16.16-32-7.21-7.18-3.94-17.34-3.94-17.34-22.6-3.21-30.42-38.42-30.42-38.42l-7.11-4.17c-9 5.38-16.66-2.5-16.66-2.5l-12.65-15.62-1.74-3.88c-3.86-9.26 4.37-9.41 4.37-9.41z" fill="#f5ac2b"/><path d="m36.11 74c-3.52-1.52-11.28-6.87-11.28-6.87a33.42 33.42 0 0 1 7.62 0c6.19.54 8.87 1.77 12.4 7 0 0 4.88 6.12 6 8.65a42.71 42.71 0 0 0 -1.67 4 58.34 58.34 0 0 1 -11.75-3.6c-.1-2.89-1-6.38-1.37-9.13z" fill="#423b00"/><path d="m90.15 66.69c-15.12 9.35-4 47.56-4.89 62.56-.23 3.75-2.53 11.17-2.59 13.41 3.79 5.61 13.33 13.92 19.92 13.62l-12.43-89.59z" fill="#db9926"/><path d="m118.06 137.75c-.67-2.14-4.91-8.66-6.14-12.2-5-14.19-4.65-54-21.75-58.86l12.44 89.59c6.42-1.51 13.33-12.1 15.46-18.53z" fill="#c28721"/><path d="m99.7 135.42c-1.62 2.63-6.45-5.22-8.93-4-1.71.82 4.73 6.7 5.33 9.26.2.88-.67 1.75-.22 2.59.89 1.61 3.7 2.06 5.25 2.51l-1.43-10.35z" fill="#423b00"/><path d="m104.58 139.45c-.12-2.62 4.47-10 2.61-10.36-2.71-.45-5.22 8.4-7.49 6.34l1.43 10.29c1.37-.84 4-2 4.36-3.83.2-.94-.87-1.53-.91-2.44z" fill="#332e00"/><path d="m85.87 141.16a14.83 14.83 0 0 1 .39-3 30.23 30.23 0 0 1 1.3-3.9c2.43 2.33 7.27 5 5.92 9-.44 1.3-1.3 2.83-1.61 4.11a47.86 47.86 0 0 1 -4.73-3.79 3.27 3.27 0 0 1 -1.27-2.49z" fill="#423b00"/><path d="m114.57 137.18a15.64 15.64 0 0 0 -1.19-2.75 28.27 28.27 0 0 0 -2.31-3.4c-1.7 2.91-5.65 6.74-3.23 10.31.77 1.13 2 2.37 2.67 3.51a47.79 47.79 0 0 0 3.51-4.93 3.25 3.25 0 0 0 .55-2.74z" fill="#332e00"/><path d="m68.25 100.13a60 60 0 0 0 -14.66.07 44.82 44.82 0 0 0 9 9.39l-.24-.62.24.62c.48.35 1 .67 1.46 1a12.67 12.67 0 0 0 4.25-10.38z" fill="#423b00"/><path d="m53 96.12a3.71 3.71 0 0 0 .54.08 3.71 3.71 0 0 1 -.54-.08 10.08 10.08 0 0 0 -1.58 1 14.58 14.58 0 0 0 -3.1 3.62c1.74-.2 3.51-.41 5.3-.59l-.16-.22.16.22a60 60 0 0 1 14.66-.07c-2.61-4.84-10-6.72-15.28-4z" fill="#fff"/><path d="m120.34 92.9s0 0 0 0a59.61 59.61 0 0 1 14.13-3.93 45 45 0 0 1 -6.07 11.47l.06-.65-.06.65c-.37.47-.76.92-1.15 1.33a12.67 12.67 0 0 1 -6.92-8.83z" fill="#332e00"/><path d="m134 84.87a3.48 3.48 0 0 1 -.5.22 3.48 3.48 0 0 0 .5-.22 10.51 10.51 0 0 1 1.79.54 14.85 14.85 0 0 1 4 2.64c-1.73.28-3.49.56-5.26.88l.09-.26-.09.26a59.61 59.61 0 0 0 -14.13 3.93c1.19-5.37 7.76-9.19 13.63-8z" fill="#fff"/><path d="m147.18 57.37c2.84-2.4 8.56-9.63 8.56-9.63a31.66 31.66 0 0 0 -7 2c-5.56 2.18-7.69 4.08-9.56 10.06 0 0-2.86 7.19-3.26 9.94a42 42 0 0 1 2.61 3.4 55.55 55.55 0 0 0 9.85-6.6c-.68-2.81-.79-6.41-1.18-9.16z" fill="#423b00"/></svg>