<svg height="312" viewBox="0 0 1250 312" width="1250" xmlns="http://www.w3.org/2000/svg"><g fill="#7a0026"><path d="m384.73 125.6v-15.12h-15.13v-90.78h30.26v90.78h45.39v-90.78h30.26v90.78h-15.13v15.12z"/><path d="m505.77 125.6v-15.12h-15.13v-15.13h30.26v15.13h45.38v-30.26h-60.51v-15.13h-15.13v-30.26h15.13v-15.13h75.64v15.13h15.13v15.17h-30.26v-15.17h-45.38v30.26h60.51v15.13h15.13v30.26h-15.13v15.12z"/><path d="m611.67 125.6v-105.9h105.91v15.13h-75.65v30.26h60.52v15.13h-60.52v30.26h75.65v15.12z"/><path d="m732.71 125.6v-105.9h90.77v15.13h15.13v45.39h-30.26v15.13h15.13v15.13h15.13v15.12h-45.39v-15.12h-15.13v-15.13h-15.09v30.25zm30.29-45.38h30.26v-15.13h15.13v-30.26h-45.39z"/><path d="m6.5 270.85v-105.91h90.78v15.13h15.13v45.39h-30.26v15.13h15.13v15.13h15.13v15.13h-45.41v-15.13h-15.11v-15.13h-15.13v30.26zm30.26-45.39h30.24v-15.13h15.15v-30.26h-45.39z"/><path d="m127.54 270.85v-105.91h105.9v15.13h-75.64v30.26h60.51v15.13h-60.51v30.26h75.64v15.13z"/><path d="m263.7 270.85v-15.13h-15.13v-15.13h30.26v15.13h45.39v-30.26h-60.52v-15.13h-15.13v-30.26h15.13v-15.13h75.65v15.13h15.13v15.13h-30.26v-15.13h-45.39v30.26h60.52v15.13h15.13v30.26h-15.13v15.13z"/><path d="m369.61 270.85v-105.91h105.9v15.13h-75.65v30.26h60.52v15.13h-60.52v30.26h75.65v15.13z"/><path d="m490.64 270.85v-75.65h15.13v-15.13h15.13v-15.13h45.38v15.13h15.13v15.13h15.13v75.65h-30.26v-30.26h-45.38v30.26zm30.26-45.39h45.38v-30.26h-15.12v-15.13h-15.16v15.13h-15.1z"/><path d="m611.67 270.85v-105.91h90.78v15.13h15.13v45.39h-30.26v15.13h15.13v15.13h15.13v15.13h-45.39v-15.13h-15.13v-15.13h-15.13v30.26zm30.26-45.39h30.26v-15.13h15.13v-30.26h-45.39z"/><path d="m763 270.85v-15.13h-15.17v-15.13h-15.12v-45.39h15.12v-15.13h15.17v-15.13h60.52v15.13h15.13v15.13h-30.3v-15.13h-30.26v15.13h-15.09v45.39h15.13v15.13h30.26v-15.13h30.26v15.13h-15.17v15.13z"/><path d="m853.74 270.85v-105.91h30.26v45.39h45.38v-45.39h30.26v105.91h-30.26v-45.39h-45.38v45.39z"/><path d="m974.77 270.85v-105.91h105.91v15.13h-75.68v30.26h60.52v15.13h-60.52v30.26h75.65v15.13z"/><path d="m1095.81 270.85v-105.91h90.77v15.13h15.13v45.39h-30.26v15.13h15.13v15.13h15.13v15.13h-45.39v-15.13h-15.13v-15.13h-15.13v30.26zm30.25-45.39h30.26v-15.13h15.13v-30.26h-45.39z"/></g><path d="m399.73 131.6v-15.12h-15.13v-90.78h30.26v90.78h45.39v-90.78h30.26v90.78h-15.13v15.12z" fill="#9e0039"/><path d="m520.77 131.6v-15.12h-15.13v-15.13h30.26v15.13h45.38v-30.26h-60.51v-15.13h-15.13v-30.26h15.13v-15.13h75.64v15.13h15.13v15.17h-30.26v-15.17h-45.38v30.26h60.51v15.13h15.13v30.26h-15.13v15.12z" fill="#9e0039"/><path d="m626.67 131.6v-105.9h105.91v15.13h-75.65v30.26h60.52v15.13h-60.52v30.26h75.65v15.12z" fill="#9e0039"/><path d="m747.71 131.6v-105.9h90.77v15.13h15.13v45.39h-30.26v15.13h15.13v15.13h15.13v15.12h-45.39v-15.12h-15.13v-15.13h-15.09v30.25zm30.29-45.38h30.26v-15.13h15.13v-30.26h-45.39z" fill="#9e0039"/><path d="m21.5 276.85v-105.91h90.78v15.13h15.13v45.39h-30.26v15.13h15.13v15.13h15.13v15.13h-45.41v-15.13h-15.11v-15.13h-15.13v30.26zm30.26-45.39h30.24v-15.13h15.15v-30.26h-45.39z" fill="#9e0039"/><path d="m142.54 276.85v-105.91h105.9v15.13h-75.64v30.26h60.51v15.13h-60.51v30.26h75.64v15.13z" fill="#9e0039"/><path d="m278.7 276.85v-15.13h-15.13v-15.13h30.26v15.13h45.39v-30.26h-60.52v-15.13h-15.13v-30.26h15.13v-15.13h75.65v15.13h15.13v15.13h-30.26v-15.13h-45.39v30.26h60.52v15.13h15.13v30.26h-15.13v15.13z" fill="#9e0039"/><path d="m384.61 276.85v-105.91h105.9v15.13h-75.65v30.26h60.52v15.13h-60.52v30.26h75.65v15.13z" fill="#9e0039"/><path d="m505.64 276.85v-75.65h15.13v-15.13h15.13v-15.13h45.38v15.13h15.13v15.13h15.13v75.65h-30.26v-30.26h-45.38v30.26zm30.26-45.39h45.38v-30.26h-15.12v-15.13h-15.16v15.13h-15.1z" fill="#9e0039"/><path d="m626.67 276.85v-105.91h90.78v15.13h15.13v45.39h-30.26v15.13h15.13v15.13h15.13v15.13h-45.39v-15.13h-15.13v-15.13h-15.13v30.26zm30.26-45.39h30.26v-15.13h15.13v-30.26h-45.39z" fill="#9e0039"/><path d="m778 276.85v-15.13h-15.17v-15.13h-15.12v-45.39h15.12v-15.13h15.17v-15.13h60.52v15.13h15.13v15.13h-30.3v-15.13h-30.26v15.13h-15.09v45.39h15.13v15.13h30.26v-15.13h30.26v15.13h-15.17v15.13z" fill="#9e0039"/><path d="m868.74 276.85v-105.91h30.26v45.39h45.38v-45.39h30.26v105.91h-30.26v-45.39h-45.38v45.39z" fill="#9e0039"/><path d="m989.77 276.85v-105.91h105.91v15.13h-75.68v30.26h60.52v15.13h-60.52v30.26h75.65v15.13z" fill="#9e0039"/><path d="m1110.81 276.85v-105.91h90.77v15.13h15.13v45.39h-30.26v15.13h15.13v15.13h15.13v15.13h-45.39v-15.13h-15.13v-15.13h-15.13v30.26zm30.25-45.39h30.26v-15.13h15.13v-30.26h-45.39z" fill="#9e0039"/><path d="m412.73 142.6v-15.12h-15.13v-90.78h30.26v90.78h45.39v-90.78h30.26v90.78h-15.13v15.12z" fill="#f26d7d"/><path d="m533.77 142.6v-15.12h-15.13v-15.13h30.26v15.13h45.38v-30.26h-60.51v-15.13h-15.13v-30.26h15.13v-15.13h75.64v15.13h15.13v15.17h-30.26v-15.17h-45.38v30.26h60.51v15.13h15.13v30.26h-15.13v15.12z" fill="#f26d7d"/><path d="m639.67 142.6v-105.9h105.91v15.13h-75.65v30.26h60.52v15.13h-60.52v30.26h75.65v15.12z" fill="#f26d7d"/><path d="m760.71 142.6v-105.9h90.77v15.13h15.13v45.39h-30.26v15.13h15.13v15.13h15.13v15.12h-45.39v-15.12h-15.13v-15.13h-15.09v30.25zm30.29-45.38h30.26v-15.13h15.13v-30.26h-45.39z" fill="#f26d7d"/><path d="m34.5 287.85v-105.91h90.78v15.13h15.13v45.39h-30.26v15.13h15.13v15.13h15.13v15.13h-45.41v-15.13h-15.11v-15.13h-15.13v30.26zm30.26-45.39h30.24v-15.13h15.13v-30.26h-45.37z" fill="#f26d7d"/><path d="m155.54 287.85v-105.91h105.9v15.13h-75.64v30.26h60.51v15.13h-60.51v30.26h75.64v15.13z" fill="#f26d7d"/><path d="m291.7 287.85v-15.13h-15.13v-15.13h30.26v15.13h45.39v-30.26h-60.52v-15.13h-15.13v-30.26h15.13v-15.13h75.65v15.13h15.13v15.13h-30.26v-15.13h-45.39v30.26h60.52v15.13h15.13v30.26h-15.13v15.13z" fill="#f26d7d"/><path d="m397.61 287.85v-105.91h105.9v15.13h-75.65v30.26h60.52v15.13h-60.52v30.26h75.65v15.13z" fill="#f26d7d"/><path d="m518.64 287.85v-75.65h15.13v-15.13h15.13v-15.13h45.38v15.13h15.13v15.13h15.13v75.65h-30.26v-30.26h-45.38v30.26zm30.26-45.39h45.38v-30.26h-15.12v-15.13h-15.16v15.13h-15.1z" fill="#f26d7d"/><path d="m639.67 287.85v-105.91h90.78v15.13h15.13v45.39h-30.26v15.13h15.13v15.13h15.13v15.13h-45.39v-15.13h-15.13v-15.13h-15.13v30.26zm30.26-45.39h30.26v-15.13h15.13v-30.26h-45.39z" fill="#f26d7d"/><path d="m791 287.85v-15.13h-15.17v-15.13h-15.12v-45.39h15.12v-15.13h15.17v-15.13h60.52v15.13h15.13v15.13h-30.3v-15.13h-30.26v15.13h-15.09v45.39h15.13v15.13h30.26v-15.13h30.26v15.13h-15.17v15.13z" fill="#f26d7d"/><path d="m881.74 287.85v-105.91h30.26v45.39h45.38v-45.39h30.26v105.91h-30.26v-45.39h-45.38v45.39z" fill="#f26d7d"/><path d="m1002.77 287.85v-105.91h105.91v15.13h-75.68v30.26h60.52v15.13h-60.52v30.26h75.65v15.13z" fill="#f26d7d"/><path d="m1123.81 287.85v-105.91h90.77v15.13h15.13v45.39h-30.26v15.13h15.13v15.13h15.13v15.13h-45.39v-15.13h-15.13v-15.13h-15.13v30.26zm30.25-45.39h30.26v-15.13h15.13v-30.26h-45.39z" fill="#f26d7d"/></svg>