<svg height="155" viewBox="0 0 1320 155" width="1320" xmlns="http://www.w3.org/2000/svg"><g fill="#2e6082"><path d="m31.8 121.6v-15.12h-15.13v-90.78h30.26v90.78h45.39v-90.78h30.26v90.78h-15.13v15.12z"/><path d="m137.71 121.6v-30.25h15.12v-15.13h15.17v-15.13h-15.17v-15.09h-15.12v-30.3h30.29v30.3h15.13v15.09h15.13v-15.09h15.13v-30.3h30.26v30.3h-15.17v15.09h-15.13v15.13h15.13v15.13h15.13v30.25h-30.26v-30.25h-15.13v-15.13h-15.13v15.13h-15.09v30.25z"/><path d="m328.77 121.6v-105.9h75.65v15.13h15.13v15.17h15.13v45.35h-15.13v15.13h-15.13v15.12zm30.23-15.12h30.26v-15.13h15.13v-45.35h-15.1v-15.17h-30.29z"/><path d="m449.81 121.6v-105.9h105.9v15.13h-75.65v30.26h60.52v15.13h-60.52v30.26h75.65v15.12z"/><path d="m586 121.6v-15.12h-15.16v-15.13h30.26v15.13h45.38v-30.26h-60.48v-15.13h-15.16v-30.26h15.16v-15.13h75.64v15.13h15.13v15.17h-30.29v-15.17h-45.38v30.26h60.51v15.13h15.13v30.26h-15.13v15.12z"/><path d="m707 121.6v-15.12h30.26v-75.65h-30.26v-15.13h90.78v15.13h-30.26v75.65h30.26v15.12z"/><path d="m843.17 121.6v-15.12h-15.17v-15.13h-15.09v-45.35h15.09v-15.17h15.13v-15.13h75.64v15.13h-60.48v15.17h-15.12v45.35h15.12v15.13h30.26v-30.26h-15.13v-15.13h45.39v60.51z"/><path d="m933.94 121.6v-105.9h30.26v15.13h15.13v15.17h15.13v15.09h15.12v-45.39h30.26v105.9h-30.26v-30.25h-15.12v-15.13h-15.13v-15.13h-15.13v60.51z"/><path d="m1055 121.6v-105.9h105.91v15.13h-75.65v30.26h60.52v15.13h-60.52v30.26h75.65v15.12z"/><path d="m1176 121.6v-105.9h90.77v15.13h15.13v45.39h-30.26v15.13h15.13v15.13h15.13v15.12h-45.39v-15.12h-15.13v-15.13h-15.12v30.25zm30.26-45.38h30.25v-15.13h15.13v-30.26h-45.38z"/></g><path d="m43.8 132.6v-15.12h-15.13v-90.78h30.26v90.78h45.39v-90.78h30.26v90.78h-15.13v15.12z" fill="#3b7cb2"/><path d="m149.71 132.6v-30.25h15.12v-15.13h15.17v-15.13h-15.17v-15.09h-15.12v-30.3h30.29v30.3h15.13v15.09h15.13v-15.09h15.13v-30.3h30.26v30.3h-15.17v15.09h-15.13v15.13h15.13v15.13h15.13v30.25h-30.26v-30.25h-15.13v-15.13h-15.13v15.13h-15.09v30.25z" fill="#3b7cb2"/><path d="m340.77 132.6v-105.9h75.65v15.13h15.13v15.17h15.13v45.39h-15.13v15.13h-15.13v15.08zm30.23-15.12h30.26v-15.13h15.13v-45.35h-15.1v-15.17h-30.29z" fill="#3b7cb2"/><path d="m461.81 132.6v-105.9h105.9v15.13h-75.65v30.26h60.52v15.13h-60.52v30.26h75.65v15.12z" fill="#3b7cb2"/><path d="m598 132.6v-15.12h-15.16v-15.13h30.26v15.13h45.38v-30.26h-60.48v-15.13h-15.16v-30.26h15.16v-15.13h75.64v15.13h15.13v15.17h-30.29v-15.17h-45.38v30.26h60.51v15.13h15.13v30.26h-15.13v15.12z" fill="#3b7cb2"/><path d="m719 132.6v-15.12h30.26v-75.65h-30.26v-15.13h90.78v15.13h-30.26v75.65h30.26v15.12z" fill="#3b7cb2"/><path d="m855.17 132.6v-15.12h-15.17v-15.13h-15.09v-45.35h15.09v-15.17h15.13v-15.13h75.64v15.13h-60.48v15.17h-15.12v45.39h15.12v15.13h30.26v-30.3h-15.13v-15.13h45.39v60.51z" fill="#3b7cb2"/><path d="m945.94 132.6v-105.9h30.26v15.13h15.13v15.17h15.13v15.09h15.12v-45.39h30.26v105.9h-30.26v-30.25h-15.12v-15.13h-15.13v-15.13h-15.13v60.51z" fill="#3b7cb2"/><path d="m1067 132.6v-105.9h105.91v15.13h-75.65v30.26h60.52v15.13h-60.52v30.26h75.65v15.12z" fill="#3b7cb2"/><path d="m1188 132.6v-105.9h90.77v15.13h15.13v45.39h-30.26v15.13h15.13v15.13h15.13v15.12h-45.39v-15.12h-15.13v-15.13h-15.12v30.25zm30.26-45.38h30.25v-15.13h15.13v-30.26h-45.38z" fill="#3b7cb2"/><path d="m55.8 142.6v-15.12h-15.13v-90.78h30.26v90.78h45.39v-90.78h30.26v90.78h-15.13v15.12z" fill="#4d9bf7"/><path d="m161.71 142.6v-30.25h15.12v-15.13h15.17v-15.13h-15.17v-15.09h-15.12v-30.3h30.29v30.3h15.13v15.09h15.13v-15.09h15.13v-30.3h30.26v30.3h-15.17v15.09h-15.13v15.13h15.13v15.13h15.13v30.25h-30.26v-30.25h-15.13v-15.13h-15.13v15.13h-15.09v30.25z" fill="#4d9bf7"/><path d="m352.77 142.6v-105.9h75.65v15.13h15.13v15.17h15.13v45.39h-15.13v15.13h-15.13v15.08zm30.23-15.12h30.26v-15.13h15.13v-45.35h-15.1v-15.17h-30.29z" fill="#4d9bf7"/><path d="m473.81 142.6v-105.9h105.9v15.13h-75.65v30.26h60.52v15.13h-60.52v30.26h75.65v15.12z" fill="#4d9bf7"/><path d="m610 142.6v-15.12h-15.16v-15.13h30.26v15.13h45.38v-30.26h-60.48v-15.13h-15.16v-30.26h15.16v-15.13h75.64v15.13h15.13v15.17h-30.29v-15.17h-45.38v30.26h60.51v15.13h15.13v30.26h-15.13v15.12z" fill="#4d9bf7"/><path d="m731 142.6v-15.12h30.26v-75.65h-30.26v-15.13h90.78v15.13h-30.26v75.65h30.26v15.12z" fill="#4d9bf7"/><path d="m867.17 142.6v-15.12h-15.17v-15.13h-15.09v-45.35h15.09v-15.17h15.13v-15.13h75.64v15.13h-60.48v15.17h-15.12v45.39h15.12v15.13h30.26v-30.3h-15.13v-15.13h45.39v60.51z" fill="#4d9bf7"/><path d="m957.94 142.6v-105.9h30.26v15.13h15.13v15.17h15.13v15.09h15.12v-45.39h30.26v105.9h-30.26v-30.25h-15.12v-15.13h-15.13v-15.13h-15.13v60.51z" fill="#4d9bf7"/><path d="m1079 142.6v-105.9h105.91v15.13h-75.65v30.26h60.52v15.13h-60.52v30.26h75.65v15.12z" fill="#4d9bf7"/><path d="m1200 142.6v-105.9h90.77v15.13h15.13v45.39h-30.26v15.13h15.13v15.13h15.13v15.12h-45.39v-15.12h-15.13v-15.13h-15.12v30.25zm30.26-45.38h30.25v-15.13h15.13v-30.26h-45.38z" fill="#4d9bf7"/></svg>