<svg height="203" viewBox="0 0 1241 203" width="1241" xmlns="http://www.w3.org/2000/svg"><path d="m516.45 107.56h-420.56c-7.45 0-13.49 4.58-13.49 10.24v26.1h447.54v-26.1c0-5.66-6.04-10.24-13.49-10.24z" fill="#6e626c"/><path d="m588.64 143.9h-564.94c-7.45 0-13.49 4.58-13.49 10.23v26.1h591.93v-26.1c0-5.65-6.05-10.23-13.5-10.23z" fill="#625861"/><path d="m1133.82 112.65h-420.56c-7.45 0-13.49 4.58-13.49 10.24v26.11h447.54v-26.1c0-5.67-6.04-10.25-13.49-10.25z" fill="#6e626c"/><path d="m1206 149h-564.93c-7.45 0-13.49 4.58-13.49 10.23v26.1h591.93v-26.1c0-5.66-6.04-10.23-13.51-10.23z" fill="#625861"/><path d="m944.43 112.71h-651.86c-8.6 0-15.57 6.24-15.57 14v35.57h683v-35.62c0-7.66-7-13.95-15.57-13.95z" fill="#625861"/><g fill="#857782"><path d="m409.6 38.53v24.65h216.4v-39.53h-176.02z"/><path d="m626 23.65v39.53h201.4v-24.65l-37.58-14.88z"/><path d="m793 84.65v29h290.59v-18.08l-54.22-10.92z"/><path d="m147.13 95.02v18.98h175.87v-30.44h-143.06z"/><path d="m323 84h478v30h-478z"/></g><path d="m409 58h418v26h-418z" fill="#9f8f9d"/></svg>