<svg height="7337" viewBox="0 0 6713 7337" width="6713" xmlns="http://www.w3.org/2000/svg"><g fill="#e6e6e6"><path d="m2115.62 6865.32 5.33 9.4a1 1 0 0 1 -1.41 1.07l-18.94-10.47z"/><path d="m2128.37 6874.62 5.94-9.3h11.45l-16.86 9.81a.38.38 0 0 1 -.53-.51z"/><path d="m5455.91 5932.49 16.98 7.62-16.98 7.62-7.62 16.98-7.62-16.98-16.97-7.62 16.97-7.62 7.62-16.98z"/><path d="m4892.91 5702.49 16.98 7.62-16.98 7.62-7.62 16.98-7.62-16.98-16.97-7.62 16.97-7.62 7.62-16.98z"/><path d="m5455.91 5483.49 16.98 7.62-16.98 7.62-7.62 16.98-7.62-16.98-16.97-7.62 16.97-7.62 7.62-16.98z"/><path d="m4451.91 5300.49 16.98 7.62-16.98 7.62-7.62 16.98-7.62-16.98-16.97-7.62 16.97-7.62 7.62-16.98z"/><path d="m4367.91 5649.49 16.98 7.62-16.98 7.62-7.62 16.98-7.62-16.98-16.97-7.62 16.97-7.62 7.62-16.98z"/><path d="m3577.91 5565.49 16.98 7.62-16.98 7.62-7.62 16.98-7.62-16.98-16.97-7.62 16.97-7.62 7.62-16.98z"/><path d="m3884.91 5120.49 16.98 7.62-16.98 7.62-7.62 16.98-7.62-16.98-16.97-7.62 16.97-7.62 7.62-16.98z"/><path d="m4318.91 4791.49 16.98 7.62-16.98 7.62-7.62 16.98-7.62-16.98-16.97-7.62 16.97-7.62 7.62-16.98z"/><path d="m3249.91 5407.49 16.98 7.62-16.98 7.62-7.62 16.98-7.62-16.98-16.97-7.62 16.97-7.62 7.62-16.98z"/><path d="m2761.91 5212.49 16.98 7.62-16.98 7.62-7.62 16.98-7.62-16.98-16.97-7.62 16.97-7.62 7.62-16.98z"/><path d="m1895.91 5300.49 16.98 7.62-16.98 7.62-7.62 16.98-7.62-16.98-16.97-7.62 16.97-7.62 7.62-16.98z"/><path d="m1427.91 4762.49 16.98 7.62-16.98 7.62-7.62 16.98-7.62-16.98-16.97-7.62 16.97-7.62 7.62-16.98z"/><path d="m1752.91 4481.49 16.98 7.62-16.98 7.62-7.62 16.98-7.62-16.98-16.97-7.62 16.97-7.62 7.62-16.98z"/><path d="m509.91 5702.49 16.98 7.62-16.98 7.62-7.62 16.98-7.62-16.98-16.97-7.62 16.97-7.62 7.62-16.98z"/><path d="m1080.91 5668.49 16.98 7.62-16.98 7.62-7.62 16.98-7.62-16.98-16.97-7.62 16.97-7.62 7.62-16.98z"/><path d="m1427.91 5335.49 16.98 7.62-16.98 7.62-7.62 16.98-7.62-16.98-16.97-7.62 16.97-7.62 7.62-16.98z"/><path d="m841.91 4792.49 16.98 7.62-16.98 7.62-7.62 16.98-7.62-16.98-16.97-7.62 16.97-7.62 7.62-16.98z"/><path d="m534.91 4335.49 16.98 7.62-16.98 7.62-7.62 16.98-7.62-16.98-16.97-7.62 16.97-7.62 7.62-16.98z"/><path d="m1103.91 4293.49 16.98 7.62-16.98 7.62-7.62 16.98-7.62-16.98-16.97-7.62 16.97-7.62 7.62-16.98z"/><path d="m2321.91 5807.49 16.98 7.62-16.98 7.62-7.62 16.98-7.62-16.98-16.97-7.62 16.97-7.62 7.62-16.98z"/><path d="m3146.91 6092.49 16.98 7.62-16.98 7.62-7.62 16.98-7.62-16.98-16.97-7.62 16.97-7.62 7.62-16.98z"/><path d="m5406.91 7014.49 16.98 7.62-16.98 7.62-7.62 16.98-7.62-16.98-16.97-7.62 16.97-7.62 7.62-16.98z"/><path d="m4843.91 6784.49 16.98 7.62-16.98 7.62-7.62 16.98-7.62-16.98-16.97-7.62 16.97-7.62 7.62-16.98z"/><path d="m5406.91 6565.49 16.98 7.62-16.98 7.62-7.62 16.98-7.62-16.98-16.97-7.62 16.97-7.62 7.62-16.98z"/><path d="m4402.91 6382.49 16.98 7.62-16.98 7.62-7.62 16.98-7.62-16.98-16.97-7.62 16.97-7.62 7.62-16.98z"/><path d="m4318.91 6731.49 16.98 7.62-16.98 7.62-7.62 16.98-7.62-16.98-16.97-7.62 16.97-7.62 7.62-16.98z"/><path d="m6070.91 6856.49 16.98 7.62-16.98 7.62-7.62 16.98-7.62-16.98-16.97-7.62 16.97-7.62 7.62-16.98z"/><path d="m5507.91 6626.49 16.98 7.62-16.98 7.62-7.62 16.98-7.62-16.98-16.97-7.62 16.97-7.62 7.62-16.98z"/><path d="m6070.91 6407.49 16.98 7.62-16.98 7.62-7.62 16.98-7.62-16.98-16.97-7.62 16.97-7.62 7.62-16.98z"/><path d="m5066.91 6224.49 16.98 7.62-16.98 7.62-7.62 16.98-7.62-16.98-16.97-7.62 16.97-7.62 7.62-16.98z"/><path d="m4982.91 6573.49 16.98 7.62-16.98 7.62-7.62 16.98-7.62-16.98-16.97-7.62 16.97-7.62 7.62-16.98z"/><path d="m3528.91 6647.49 16.98 7.62-16.98 7.62-7.62 16.98-7.62-16.98-16.97-7.62 16.97-7.62 7.62-16.98z"/><path d="m3200.91 6489.49 16.98 7.62-16.98 7.62-7.62 16.98-7.62-16.98-16.97-7.62 16.97-7.62 7.62-16.98z"/><path d="m2712.91 6294.49 16.98 7.62-16.98 7.62-7.62 16.98-7.62-16.98-16.97-7.62 16.97-7.62 7.62-16.98z"/><path d="m1846.91 6382.49 16.98 7.62-16.98 7.62-7.62 16.98-7.62-16.98-16.97-7.62 16.97-7.62 7.62-16.98z"/><path d="m460.91 6784.49 16.98 7.62-16.98 7.62-7.62 16.98-7.62-16.98-16.97-7.62 16.97-7.62 7.62-16.98z"/><path d="m1031.91 6750.49 16.98 7.62-16.98 7.62-7.62 16.98-7.62-16.98-16.97-7.62 16.97-7.62 7.62-16.98z"/><path d="m1378.91 6417.49 16.98 7.62-16.98 7.62-7.62 16.98-7.62-16.98-16.97-7.62 16.97-7.62 7.62-16.98z"/><path d="m2272.91 6889.49 16.98 7.62-16.98 7.62-7.62 16.98-7.62-16.98-16.97-7.62 16.97-7.62 7.62-16.98z"/><path d="m3097.91 7174.49 16.98 7.62-16.98 7.62-7.62 16.98-7.62-16.98-16.97-7.62 16.97-7.62 7.62-16.98z"/><path d="m2242.91 4827.49 16.98 7.62-16.98 7.62-7.62 16.98-7.62-16.98-16.97-7.62 16.97-7.62 7.62-16.98z"/><path d="m2744.91 4528.49 16.98 7.62-16.98 7.62-7.62 16.98-7.62-16.98-16.97-7.62 16.97-7.62 7.62-16.98z"/><path d="m3249.91 4553.49 16.98 7.62-16.98 7.62-7.62 16.98-7.62-16.98-16.97-7.62 16.97-7.62 7.62-16.98z"/><path d="m4197.91 4164.49 16.98 7.62-16.98 7.62-7.62 16.98-7.62-16.98-16.97-7.62 16.97-7.62 7.62-16.98z"/><path d="m3577.91 4087.49 16.98 7.62-16.98 7.62-7.62 16.98-7.62-16.98-16.97-7.62 16.97-7.62 7.62-16.98z"/><path d="m3909.91 3895.49 16.98 7.62-16.98 7.62-7.62 16.98-7.62-16.98-16.97-7.62 16.97-7.62 7.62-16.98z"/><path d="m3352.91 3058.49 16.98 7.62-16.98 7.62-7.62 16.98-7.62-16.98-16.97-7.62 16.97-7.62 7.62-16.98z"/><path d="m3055.91 3695.49 16.98 7.62-16.98 7.62-7.62 16.98-7.62-16.98-16.97-7.62 16.97-7.62 7.62-16.98z"/><path d="m4510.91 3316.49 16.98 7.62-16.98 7.62-7.62 16.98-7.62-16.98-16.97-7.62 16.97-7.62 7.62-16.98z"/><path d="m4831.91 3900.49 16.98 7.62-16.98 7.62-7.62 16.98-7.62-16.98-16.97-7.62 16.97-7.62 7.62-16.98z"/><path d="m4668.91 4409.49 16.98 7.62-16.98 7.62-7.62 16.98-7.62-16.98-16.97-7.62 16.97-7.62 7.62-16.98z"/><path d="m5526.91 3929.49 16.98 7.62-16.98 7.62-7.62 16.98-7.62-16.98-16.97-7.62 16.97-7.62 7.62-16.98z"/><path d="m5141.91 3381.49 16.98 7.62-16.98 7.62-7.62 16.98-7.62-16.98-16.97-7.62 16.97-7.62 7.62-16.98z"/><path d="m5698.91 3133.49 16.98 7.62-16.98 7.62-7.62 16.98-7.62-16.98-16.97-7.62 16.97-7.62 7.62-16.98z"/><path d="m5039.91 2880.49 16.98 7.62-16.98 7.62-7.62 16.98-7.62-16.98-16.97-7.62 16.97-7.62 7.62-16.98z"/><path d="m4510.91 2787.49 16.98 7.62-16.98 7.62-7.62 16.98-7.62-16.98-16.97-7.62 16.97-7.62 7.62-16.98z"/><path d="m3806.91 3089.49 16.98 7.62-16.98 7.62-7.62 16.98-7.62-16.98-16.97-7.62 16.97-7.62 7.62-16.98z"/><path d="m4000.91 2515.49 16.98 7.62-16.98 7.62-7.62 16.98-7.62-16.98-16.97-7.62 16.97-7.62 7.62-16.98z"/><path d="m4806.91 2379.49 16.98 7.62-16.98 7.62-7.62 16.98-7.62-16.98-16.97-7.62 16.97-7.62 7.62-16.98z"/><path d="m5477.91 2695.49 16.98 7.62-16.98 7.62-7.62 16.98-7.62-16.98-16.97-7.62 16.97-7.62 7.62-16.98z"/><path d="m5743.91 2186.49 16.98 7.62-16.98 7.62-7.62 16.98-7.62-16.98-16.97-7.62 16.97-7.62 7.62-16.98z"/><path d="m6069.91 2633.49 16.98 7.62-16.98 7.62-7.62 16.98-7.62-16.98-16.97-7.62 16.97-7.62 7.62-16.98z"/><path d="m6357.91 1964.49 16.98 7.62-16.98 7.62-7.62 16.98-7.62-16.98-16.97-7.62 16.97-7.62 7.62-16.98z"/><path d="m5866.91 1724.49 16.98 7.62-16.98 7.62-7.62 16.98-7.62-16.98-16.97-7.62 16.97-7.62 7.62-16.98z"/><path d="m6324.91 1337.49 16.98 7.62-16.98 7.62-7.62 16.98-7.62-16.98-16.97-7.62 16.97-7.62 7.62-16.98z"/><path d="m5166.91 1939.49 16.98 7.62-16.98 7.62-7.62 16.98-7.62-16.98-16.97-7.62 16.97-7.62 7.62-16.98z"/><path d="m5304.91 2398.49 16.98 7.62-16.98 7.62-7.62 16.98-7.62-16.98-16.97-7.62 16.97-7.62 7.62-16.98z"/><path d="m6193.91 3319.49 16.98 7.62-16.98 7.62-7.62 16.98-7.62-16.98-16.97-7.62 16.97-7.62 7.62-16.98z"/><path d="m6459.91 2810.49 16.98 7.62-16.98 7.62-7.62 16.98-7.62-16.98-16.97-7.62 16.97-7.62 7.62-16.98z"/><path d="m6020.91 3022.49 16.98 7.62-16.98 7.62-7.62 16.98-7.62-16.98-16.97-7.62 16.97-7.62 7.62-16.98z"/><path d="m5673.91 1430.49 16.98 7.62-16.98 7.62-7.62 16.98-7.62-16.98-16.97-7.62 16.97-7.62 7.62-16.98z"/><path d="m5551.91 837.49 16.98 7.62-16.98 7.62-7.62 16.98-7.62-16.98-16.97-7.62 16.97-7.62 7.62-16.98z"/><path d="m5380.91 1262.49 16.98 7.62-16.98 7.62-7.62 16.98-7.62-16.98-16.97-7.62 16.97-7.62 7.62-16.98z"/><path d="m5215.91 1283.49 16.98 7.62-16.98 7.62-7.62 16.98-7.62-16.98-16.97-7.62 16.97-7.62 7.62-16.98z"/><path d="m6299.91 543.49 16.98 7.62-16.98 7.62-7.62 16.98-7.62-16.98-16.97-7.62 16.97-7.62 7.62-16.98z"/><path d="m6006.91 375.49 16.98 7.62-16.98 7.62-7.62 16.98-7.62-16.98-16.97-7.62 16.97-7.62 7.62-16.98z"/><path d="m5841.91 396.49 16.98 7.62-16.98 7.62-7.62 16.98-7.62-16.98-16.97-7.62 16.97-7.62 7.62-16.98z"/><path d="m4515.91 1017.49 16.98 7.62-16.98 7.62-7.62 16.98-7.62-16.98-16.97-7.62 16.97-7.62 7.62-16.98z"/><path d="m4056.91 733.49 16.98 7.62-16.98 7.62-7.62 16.98-7.62-16.98-16.97-7.62 16.97-7.62 7.62-16.98z"/><path d="m4296.91 1362.49 16.98 7.62-16.98 7.62-7.62 16.98-7.62-16.98-16.97-7.62 16.97-7.62 7.62-16.98z"/><path d="m5011.91 537.49 16.98 7.62-16.98 7.62-7.62 16.98-7.62-16.98-16.97-7.62 16.97-7.62 7.62-16.98z"/><path d="m4552.91 253.49 16.98 7.62-16.98 7.62-7.62 16.98-7.62-16.98-16.97-7.62 16.97-7.62 7.62-16.98z"/><path d="m4792.91 882.49 16.98 7.62-16.98 7.62-7.62 16.98-7.62-16.98-16.97-7.62 16.97-7.62 7.62-16.98z"/><path d="m4219.91 1914.49 16.98 7.62-16.98 7.62-7.62 16.98-7.62-16.98-16.97-7.62 16.97-7.62 7.62-16.98z"/><path d="m3706.91 1650.49 16.98 7.62-16.98 7.62-7.62 16.98-7.62-16.98-16.97-7.62 16.97-7.62 7.62-16.98z"/><path d="m3249.91 2240.49 16.98 7.62-16.98 7.62-7.62 16.98-7.62-16.98-16.97-7.62 16.97-7.62 7.62-16.98z"/><path d="m2655.91 2842.49 16.98 7.62-16.98 7.62-7.62 16.98-7.62-16.98-16.97-7.62 16.97-7.62 7.62-16.98z"/><path d="m2296.91 3611.49 16.98 7.62-16.98 7.62-7.62 16.98-7.62-16.98-16.97-7.62 16.97-7.62 7.62-16.98z"/><path d="m2570.91 4051.49 16.98 7.62-16.98 7.62-7.62 16.98-7.62-16.98-16.97-7.62 16.97-7.62 7.62-16.98z"/><path d="m1777.91 3957.49 16.98 7.62-16.98 7.62-7.62 16.98-7.62-16.98-16.97-7.62 16.97-7.62 7.62-16.98z"/><path d="m890.91 1843.49 16.98 7.62-16.98 7.62-7.62 16.98-7.62-16.98-16.97-7.62 16.97-7.62 7.62-16.98z"/><path d="m226.91 1412.49 16.98 7.62-16.98 7.62-7.62 16.98-7.62-16.98-16.97-7.62 16.97-7.62 7.62-16.98z"/><path d="m559.91 1085.49 16.98 7.62-16.98 7.62-7.62 16.98-7.62-16.98-16.97-7.62 16.97-7.62 7.62-16.98z"/><path d="m201.91 253.49 16.98 7.62-16.98 7.62-7.62 16.98-7.62-16.98-16.97-7.62 16.97-7.62 7.62-16.98z"/><path d="m732.91 562.49 16.98 7.62-16.98 7.62-7.62 16.98-7.62-16.98-16.97-7.62 16.97-7.62 7.62-16.98z"/><path d="m1529.91 3291.49 16.98 7.62-16.98 7.62-7.62 16.98-7.62-16.98-16.97-7.62 16.97-7.62 7.62-16.98z"/><path d="m1287.91 2608.49 16.98 7.62-16.98 7.62-7.62 16.98-7.62-16.98-16.97-7.62 16.97-7.62 7.62-16.98z"/><path d="m1055.91 3737.49 16.98 7.62-16.98 7.62-7.62 16.98-7.62-16.98-16.97-7.62 16.97-7.62 7.62-16.98z"/><path d="m371.91 3611.49 16.98 7.62-16.98 7.62-7.62 16.98-7.62-16.98-16.97-7.62 16.97-7.62 7.62-16.98z"/><path d="m484.91 2905.49 16.98 7.62-16.98 7.62-7.62 16.98-7.62-16.98-16.97-7.62 16.97-7.62 7.62-16.98z"/><path d="m1983.91 2812.49 16.98 7.62-16.98 7.62-7.62 16.98-7.62-16.98-16.97-7.62 16.97-7.62 7.62-16.98z"/><path d="m2455.91 2058.49 16.98 7.62-16.98 7.62-7.62 16.98-7.62-16.98-16.97-7.62 16.97-7.62 7.62-16.98z"/><path d="m1578.91 1699.49 16.98 7.62-16.98 7.62-7.62 16.98-7.62-16.98-16.97-7.62 16.97-7.62 7.62-16.98z"/><path d="m2573.91 1387.49 16.98 7.62-16.98 7.62-7.62 16.98-7.62-16.98-16.97-7.62 16.97-7.62 7.62-16.98z"/><path d="m3160.91 862.49 16.98 7.62-16.98 7.62-7.62 16.98-7.62-16.98-16.97-7.62 16.97-7.62 7.62-16.98z"/><path d="m3681.91 445.49 16.98 7.62-16.98 7.62-7.62 16.98-7.62-16.98-16.97-7.62 16.97-7.62 7.62-16.98z"/><path d="m2869.91 350.49 16.98 7.62-16.98 7.62-7.62 16.98-7.62-16.98-16.97-7.62 16.97-7.62 7.62-16.98z"/><path d="m2372.91 543.49 16.98 7.62-16.98 7.62-7.62 16.98-7.62-16.98-16.97-7.62 16.97-7.62 7.62-16.98z"/><path d="m1238.91 1262.49 16.98 7.62-16.98 7.62-7.62 16.98-7.62-16.98-16.97-7.62 16.97-7.62 7.62-16.98z"/><path d="m2082.91 1110.49 16.98 7.62-16.98 7.62-7.62 16.98-7.62-16.98-16.97-7.62 16.97-7.62 7.62-16.98z"/><path d="m6464.91 5444.49 16.98 7.62-16.98 7.62-7.62 16.98-7.62-16.98-16.97-7.62 16.97-7.62 7.62-16.98z"/><path d="m5792.91 5414.49 16.98 7.62-16.98 7.62-7.62 16.98-7.62-16.98-16.97-7.62 16.97-7.62 7.62-16.98z"/><path d="m5576.91 4852.49 16.98 7.62-16.98 7.62-7.62 16.98-7.62-16.98-16.97-7.62 16.97-7.62 7.62-16.98z"/><path d="m6264.91 4660.49 16.98 7.62-16.98 7.62-7.62 16.98-7.62-16.98-16.97-7.62 16.97-7.62 7.62-16.98z"/><path d="m6382.91 3989.49 16.98 7.62-16.98 7.62-7.62 16.98-7.62-16.98-16.97-7.62 16.97-7.62 7.62-16.98z"/><path d="m5891.91 3712.49 16.98 7.62-16.98 7.62-7.62 16.98-7.62-16.98-16.97-7.62 16.97-7.62 7.62-16.98z"/><path d="m1420.91 568.49 16.98 7.62-16.98 7.62-7.62 16.98-7.62-16.98-16.97-7.62 16.97-7.62 7.62-16.98z"/><path d="m3801.91 1200.49 16.98 7.62-16.98 7.62-7.62 16.98-7.62-16.98-16.97-7.62 16.97-7.62 7.62-16.98z"/><path d="m4985.91 4528.49 16.98 7.62-16.98 7.62-7.62 16.98-7.62-16.98-16.97-7.62 16.97-7.62 7.62-16.98z"/><path d="m4985.91 5107.49 16.98 7.62-16.98 7.62-7.62 16.98-7.62-16.98-16.97-7.62 16.97-7.62 7.62-16.98z"/></g></svg>