<svg height="177" viewBox="0 0 915 177" width="915" xmlns="http://www.w3.org/2000/svg"><g fill="#898989"><path d="m31.2 129.87v-105.87h30.26v45.36h45.39v-45.36h30.26v105.9h-30.26v-45.42h-45.39v45.39z"/><path d="m167.37 129.87v-15.13h30.25v-75.64h-30.25v-15.1h90.77v15.1h-30.26v75.64h30.26v15.13z"/><path d="m273.27 129.87v-105.87h90.78v15.1h15.12v45.38h-30.25v15.13h15.13v15.13h15.12v15.13h-45.38v-15.13h-15.13v-15.13h-15.13v30.26zm30.26-45.39h30.26v-15.12h15.13v-30.26h-45.39z"/><path d="m394.3 129.87v-105.87h105.91v15.1h-75.65v30.26h60.52v15.12h-60.52v30.26h75.65v15.13z"/><path d="m636.37 129.87v-105.87h30.26v15.1h15.13v15.13h15.13v-15.13h15.11v-15.1h30.25v105.9h-30.25v-60.54h-15.11v30.25h-15.13v-30.25h-15.13v60.51z"/><path d="m757.4 129.87v-105.87h105.91v15.1h-75.65v30.26h60.52v15.12h-60.52v30.26h75.65v15.13z"/></g><path d="m42.2 138.87v-105.87h30.26v45.36h45.39v-45.36h30.26v105.9h-30.26v-45.42h-45.39v45.39z" fill="#c9c9c9"/><path d="m178.37 138.87v-15.13h30.25v-75.64h-30.25v-15.1h90.77v15.1h-30.26v75.64h30.26v15.13z" fill="#c9c9c9"/><path d="m284.27 138.87v-105.87h90.78v15.1h15.12v45.38h-30.25v15.13h15.13v15.13h15.12v15.13h-45.38v-15.13h-15.13v-15.13h-15.13v30.26zm30.26-45.39h30.26v-15.12h15.13v-30.26h-45.39z" fill="#c9c9c9"/><path d="m405.3 138.87v-105.87h105.91v15.1h-75.65v30.26h60.52v15.12h-60.52v30.26h75.65v15.13z" fill="#c9c9c9"/><path d="m647.37 138.87v-105.87h30.26v15.1h15.13v15.13h15.13v-15.13h15.11v-15.1h30.25v105.9h-30.25v-60.54h-15.11v30.25h-15.13v-30.25h-15.13v60.51z" fill="#c9c9c9"/><path d="m768.4 138.87v-105.87h105.91v15.1h-75.65v30.26h60.52v15.12h-60.52v30.26h75.65v15.13z" fill="#c9c9c9"/><path d="m52.2 148.87v-105.87h30.26v45.36h45.39v-45.36h30.26v105.9h-30.26v-45.42h-45.39v45.39z" fill="#fff"/><path d="m188.37 148.87v-15.13h30.25v-75.64h-30.25v-15.1h90.77v15.1h-30.26v75.64h30.26v15.13z" fill="#fff"/><path d="m294.27 148.87v-105.87h90.78v15.1h15.12v45.38h-30.25v15.13h15.13v15.13h15.12v15.13h-45.38v-15.13h-15.13v-15.13h-15.13v30.26zm30.26-45.39h30.26v-15.12h15.13v-30.26h-45.39z" fill="#fff"/><path d="m415.3 148.87v-105.87h105.91v15.1h-75.65v30.26h60.52v15.12h-60.52v30.26h75.65v15.13z" fill="#fff"/><path d="m657.37 148.87v-105.87h30.26v15.1h15.13v15.13h15.13v-15.13h15.11v-15.1h30.25v105.9h-30.25v-60.54h-15.11v30.25h-15.13v-30.25h-15.13v60.51z" fill="#fff"/><path d="m778.4 148.87v-105.87h105.91v15.1h-75.65v30.26h60.52v15.12h-60.52v30.26h75.65v15.13z" fill="#fff"/></svg>