<svg xmlns="http://www.w3.org/2000/svg" width="239" height="235" viewBox="0 0 239 235"><title>World_Space</title><g id="Layer_7" data-name="Layer 7"><ellipse cx="121" cy="119" rx="110" ry="111" style="fill:#4e5e91"/><path d="M21,166c-.34-.75-.69-1.49-1-2.25.33.76.68,1.5,1,2.25Z" style="fill:#6b7bbc"/><path d="M26.9,177c-1.06-1.73-2.06-3.49-3-5.26q1.42,2.67,3,5.26Z" style="fill:#6b7bbc"/><path d="M95.09,226.71c-1.49-.37-3-.77-4.48-1.19,1.49.43,3,.82,4.48,1.19Z" style="fill:#6b7bbc"/><path d="M90.14,225.38c-1.35-.4-2.71-.82-4.06-1.27,1.35.46,2.71.87,4.06,1.27Z" style="fill:#6b7bbc"/><path d="M84.53,223.57c-1-.36-2.07-.73-3.09-1.12,1,.4,2.06.75,3.09,1.12Z" style="fill:#6b7bbc"/><path d="M10.72,119.75c0-1.17,0-2.35,0-3.52,0,1.17,0,2.35,0,3.52Z" style="fill:#6b7bbc"/><path d="M10.79,115.63q.11-3.22.42-6.46-.32,3.24-.42,6.46Z" style="fill:#6b7bbc"/><path d="M23.1,170.22c-.4-.79-.8-1.58-1.18-2.37.38.79.78,1.58,1.18,2.37Z" style="fill:#6b7bbc"/><path d="M11.37,131.3a110.53,110.53,0,0,1-.64-11.08,110.53,110.53,0,0,0,.64,11.08Z" style="fill:#6b7bbc"/><path d="M11.28,108.27q.17-1.5.36-3-.2,1.5-.36,3Z" style="fill:#6b7bbc"/><path d="M220.25,71.06q1.26,2.58,2.37,5.21-1.11-2.62-2.37-5.21" style="fill:#6b7bbc"/><path d="M24.27,89.6C38.69,71.24,46.84,49.21,57.91,29l.34-.23a110.54,110.54,0,0,0-45.94,72,67.8,67.8,0,0,0,12-11.15Z" style="fill:#6b7bbc"/><path d="M226.9,88.16q.81,2.72,1.48,5.48-.67-2.76-1.48-5.48" style="fill:#6b7bbc"/><path d="M207.28,50.53A111.18,111.18,0,0,1,220.22,71a111.18,111.18,0,0,0-12.94-20.47" style="fill:#6b7bbc"/><path d="M225.07,82.55q.85,2.42,1.61,4.88-.75-2.46-1.61-4.88" style="fill:#6b7bbc"/><path d="M222.89,76.9q1,2.38,1.88,4.83c-.59-1.63-1.22-3.23-1.88-4.83" style="fill:#6b7bbc"/><path d="M114.63,9.29c1.34-.08,2.68-.14,4-.17-1.34,0-2.68.1-4,.17" style="fill:#6b7bbc"/><path d="M120,9.11c1.1,0,2.2,0,3.3,0-1.1,0-2.2,0-3.3,0" style="fill:#6b7bbc"/><path d="M174.48,22.89c.75.42,1.5.84,2.24,1.27-.74-.43-1.49-.86-2.24-1.27" style="fill:#6b7bbc"/><path d="M178.57,25.27c.82.5,1.66,1,2.47,1.53-.81-.53-1.64-1-2.47-1.53" style="fill:#6b7bbc"/><path d="M170.14,20.61c.61.3,1.21.62,1.81.93-.6-.31-1.2-.63-1.81-.93" style="fill:#6b7bbc"/><path d="M30,153.6c24.62-17.23,46.77-46.77,59.08-74.66C95.67,62.85,114,30.49,109.74,9.69A110.81,110.81,0,0,0,84.68,15.3c.57-.2,1.13-.41,1.69-.59A70.94,70.94,0,0,0,84.17,24c-7.39,35.28-23.8,52.51-48.41,77.95-7.5,7.5-15,21.21-24.39,29.4A111,111,0,0,0,20,163.7a52.55,52.55,0,0,1,10-10.1Z" style="fill:#6b7bbc"/><path d="M28.93,180.15c-.62-.94-1.23-1.88-1.82-2.84.59,1,1.2,1.9,1.82,2.84Z" style="fill:#6b7bbc"/><path d="M80,17.06c.65-.26,1.3-.52,2-.77-.67.25-1.32.51-2,.77Z" style="fill:#6b7bbc"/><path d="M11.86,103.68c.14-1,.29-2,.45-2.93-.16,1-.31,2-.45,2.93Z" style="fill:#6b7bbc"/><path d="M75.62,18.91c.61-.28,1.23-.54,1.85-.81-.62.27-1.24.53-1.85.81Z" style="fill:#6b7bbc"/><path d="M70.29,21.5l1.56-.8-1.56.8Z" style="fill:#6b7bbc"/><path d="M61.65,26.47l1.63-1-1.63,1Z" style="fill:#6b7bbc"/><path d="M65.75,24c.57-.33,1.15-.67,1.73-1-.58.32-1.15.66-1.73,1Z" style="fill:#6b7bbc"/><path d="M225.3,104.37c-8.21,28.72-15.59,55-33.65,79.59-3.94,5.12-13,20.65-23,35a111,111,0,0,1-35.81,10.18c4.46-15.88,18.71-36.92,21.86-41.12,16.41-26.26,29.54-50.06,38.57-80.41,4.46-17.3,11.95-37.64,14-57.13A109.37,109.37,0,0,0,181,26.8c0,2.78,0,5,0,6.19-2.47,64-27.9,125.54-67.28,176.41a114.34,114.34,0,0,1-18.59,17.32,110.35,110.35,0,0,0,133.29-133q-1.54,5.34-3.11,10.62" style="fill:#6b7bbc"/><path d="M98.93,174.94c16.41-27.9,32.83-56.62,44.31-86.16,5.32-14.63,17.64-52.42,12.52-74.09q2.44.83,4.89,1.75a109.7,109.7,0,0,0-34.11-7.21c.56,0,1.12,0,1.68.07-2.53,6.93-3.5,15.48-3.85,20.41C121.91,65,109.6,88.78,93.19,118.32,80.52,142.18,63.1,176.86,36,189.78c-2.37-2.87-4.58-5.86-6.64-8.93a109.71,109.71,0,0,0,43.27,37.76c-1-.52-2.1-1.05-3.13-1.6,6.08-13.76,24.81-34.2,29.4-42.07" style="fill:#6b7bbc"/><path d="M109.78,9.69c1.45-.15,2.9-.27,4.36-.37-1.46.1-2.91.22-4.36.37Z" style="fill:#6b7bbc"/><path d="M222.62,76.27q-1.11-2.62-2.37-5.21,1.26,2.58,2.37,5.21" style="fill:#59679e"/><path d="M228.38,93.64c-.22-.92-.46-1.84-.71-2.75.25.91.49,1.83.71,2.75" style="fill:#59679e"/><path d="M220.22,71a108.89,108.89,0,0,0-5.59-10.08,111.44,111.44,0,0,0-7.35-10.39A109.56,109.56,0,0,1,220.22,71" style="fill:#59679e"/><path d="M226.68,87.43q-.75-2.46-1.61-4.88.85,2.42,1.61,4.88" style="fill:#59679e"/><path d="M176.1,23.8c-.53-.31-1.08-.61-1.62-.91.54.3,1.09.6,1.62.91" style="fill:#59679e"/><path d="M181,26.8c-.81-.53-1.65-1-2.47-1.53.83.5,1.66,1,2.47,1.53" style="fill:#59679e"/></g></svg>