<svg height="297" viewBox="0 0 142 297" width="142" xmlns="http://www.w3.org/2000/svg"><path d="m96.79 7c21.29 2.85 38.69 48.78 23.42 162.83s-41.36 127.5-61.91 124.75-42.2-22.58-26.93-136.58 44.14-153.82 65.42-151z" fill="#d1ba97"/><g fill="#48321b" opacity=".5"><path d="m45.4 289.76 37.3-278.68c-4.55 3.15-9.22 8.14-13.86 15.21l-33.63 251.22a32.64 32.64 0 0 0 10.19 12.25z"/><path d="m118.7 33c-2.62-8-5.82-14.08-9.38-18.32l-37.32 278.64a32.67 32.67 0 0 0 13.06-9.14z"/></g><path d="m74.91 93c-2.07 1.52-1.25 6.11-2.94 8.63 3.03-2.53 1.95-7.57 2.94-8.63zm-9.65 67.81c7.94-6.89.33-17.75 3.54-26.55-4.35 7.53 2.74 19.86-3.54 26.59zm-3.78-7c-14 13-4.65 28.2-10.43 41.57 7.73-14.75-.28-29.57 10.43-41.51zm5.42-6.06c-3.11 9.95-2.34 13.59-9.44 17.32 3.74-2 8.54-2.95 9.44-17.26zm12.7-65.15c1.51 9.43-.07 16-7.2 21.69 3.6-2.14 10.74-5.48 7.2-21.69zm-4.94 2c.66 1-.37 5 1.7 7.7-1.09-2.44-.28-6.11-1.7-7.74zm-11.47 39.12c-3.7 7.68 5 23.06-.71 30 7.31-7.16-1.74-21.04.71-30zm-6.84 14.91c.66 1-.37 5 1.7 7.7-1.05-2.4-.28-6.06-1.7-7.7zm4.16-9.06c.34 2.43-1.65 5.82-.73 7.56-.34-1.06 1.96-4.73.73-7.56zm.78 7.11c1.5 9.43-.08 16-7.21 21.68 3.64-2.13 10.74-5.48 7.21-21.68zm-4.69 10.43c-2.08 1.52-1.25 6.12-2.94 8.64 3.04-2.58 1.95-7.62 2.94-8.64zm12.76-5.74c7.73-14.81-.28-29.64 10.43-41.58-13.97 12.97-4.65 28.21-10.43 41.58zm-11.63 10.7c.12-2.4 2.75-5.58 2.15-7.34.12 1.06-2.88 4.49-2.15 7.34zm6.78-18.87c2.23-6.43-2.17-13.94 3.63-28.23-8.66 11.44-2.14 23.89-3.63 28.23zm-5.6 52.18c-1.91 10.52-10.09 18.37-3.71 29.62-5.08-12.4 5.55-20.09 3.71-29.62zm1 12.05c.33 1.06-2 4.71-.84 7.54-.32-2.43 1.71-5.8.82-7.54zm8.21-37.92c-.85 5.91-5.4 15.4-2.43 24.69-.54-13.2 3.42-19.65 2.41-24.69zm-7.17 27.56c-1.65 1.72.24 6.28-.79 9 2.3-2.9.05-7.88.77-9zm10.71-42.95c.2 1.06-2.61 4.56-1.75 7.41-.04-2.41 2.42-5.65 1.73-7.41zm1.91-5.27c-.46-1.79 2.85-8.49 1.2-13.18.4 4.14-2.47 10.33-1.22 13.18zm2.18-29c.35-1 5-3.59 5.58-6.33-1.26 2.2-5.33 4.62-5.6 6.35zm-10.25 55.34c-2.23 2.28-1.48 6.43-2.21 7.33 1.53-1.36.96-5.15 2.21-7.33zm6.65-27.27c.2 1.06-2.59 4.57-1.71 7.41-.03-2.41 2.4-5.65 1.71-7.41zm-15.72 41.82c.42 4.14-2.44 10.31-1.2 13.18-.45-1.78 2.86-8.49 1.2-13.18zm10.68-19.56c-.06 1.26-5.09 4.75-4.83 8.16.72-2.76 5.21-6.01 4.83-8.16zm-3.11 2.35c-9.3 7.64-7.76 15.64-2.89 23.75-2.71-7.91-4.06-16.98 2.89-23.75zm2.74-42.37c-.4-2.43 1.5-5.85.55-7.58.38 1.06-1.82 4.76-.53 7.58zm-23 47.77c-.47-1.27 2.71-5.59 1-9 .46 2.92-2.29 6.92-1.02 9zm-1-.67c-.94 10.64-8.41 18.81-1.11 30-6.09-12.38 3.78-20.48 1.13-30zm3.46-21c.24-2.39 3.06-5.49 2.56-7.26.11 1.1-3.1 4.44-2.54 7.3zm59.06 45.79c.34 2.43-1.65 5.82-.73 7.56-.32-1.02 1.98-4.7.75-7.52zm-52.89-59.3c-1.74 10.53-10.2 15.22-3.69 26.49-5.2-12.39 5.14-18.82 3.71-26.45zm-2.73 21.94c-.29-2.88 2.71-6.79 1.57-8.88.42 1.31-3.05 5.53-1.55 8.92zm-9 59.46c.22-1.24 5.73-4.43 5.89-7.81-1.06 2.72-5.95 5.71-5.84 7.85zm-5.34-4.37c3-2.57 1.95-7.61 2.93-8.63-2.02 1.56-1.23 6.15-2.88 8.67zm13.1-35.59c-.4-2.43 1.5-5.85.55-7.58.41 1.1-1.79 4.8-.5 7.62zm2 14.14c-4.36 7.5 2.74 19.83-3.55 26.55 8.03-6.88.43-17.7 3.64-26.51zm-5.8 23.32c-1.24 2.17-5.36 4.6-5.59 6.33.44-.98 5.04-3.55 5.68-6.29zm.19-33.89c-3.7 7.67 5 23-.71 30 7.4-7.12-1.66-21.01.8-29.96zm1.32 9.48c2.22-6.43-2.17-13.95 3.63-28.24-8.57 11.49-2.05 23.93-3.54 28.28zm24.59-108.53c-1.7 10.54-10.19 15.22-3.7 26.5-5.2-12.43 5.14-18.86 3.7-26.5zm-2.7 21.94c-.29-2.88 2.71-6.78 1.57-8.88.37 1.23-3.1 5.49-1.57 8.88zm-6 13.21c-.48-1.27 2.7-5.6 1-9 .51 2.92-2.23 6.91-1 9zm2.49-21.64c.24-2.38 3.06-5.48 2.56-7.25.13 1.03-3.05 4.4-2.52 7.25zm21.89 13.22c-.86 5.91-5.4 15.4-2.44 24.68-.48-13.19 3.48-19.64 2.48-24.68zm-27.38 54.67c.22-1.23 5.73-4.42 5.89-7.8-1.11 2.69-6 5.69-5.89 7.8zm-5.57-4.2c.5 1.05-1.21 4.89.42 7.67-.7-2.43.75-5.97-.42-7.67zm-11.86 42.89c.14 1.06-2.86 4.49-2.15 7.34.11-2.4 2.75-5.57 2.15-7.34zm18.43-55.66c-6.11-12.34 3.75-20.44 1.1-30-.97 10.69-8.44 18.86-1.1 30zm-17.8 40.51c.33 2.42-1.65 5.82-.73 7.56-.34-1.06 1.95-4.74.73-7.56zm10.28-27.78c-2.11 4.65-1.8 22.87-5.28 35.55 4.97-8.28 4.8-29.59 5.28-35.55zm10.52 1.74c-1.24 2.18-5.36 4.61-5.59 6.34.35-.95 4.96-3.59 5.59-6.34zm4 27c3.91-16.54 2.12-17.1 3.89-26.39-3.12 8.38-1.89 14.27-3.84 26.44zm28.42-35.79c7.7-7-.68-21 2.24-29.87-4.05 7.61 3.86 23.1-2.19 29.92zm-5.8 45.48c.14 1.27-4.23 5.11-3.41 8.54.29-2.84 4.13-6.4 3.41-8.54zm9.57-70.74c-.63-2.89 1.89-7 .51-9 .54 1.24-2.39 5.65-.51 9zm-5.76 34.57c-.3-2.43 1.74-5.8.85-7.55.33 1.06-2.03 4.72-.85 7.55zm7.57 30.57c-1.79-15 2.38-19.49 0-26 1.47 4.64-5.13 13.12 0 26zm-8.2 9.48c8.79-6.44 2.39-20.7 6.64-29.25-5.22 7.2.49 22.89-6.61 29.25zm4.6-29.43c.07-2.86 3.59-6.56 2.7-8.69.27 1.27-3.75 5.27-2.67 8.69zm-12.5 42.68c-1-2.88 1-7.1-.57-9.11.67 1.25-1.68 5.83.57 9.11zm3.78-49.43c.69 2.43-.76 6 .4 7.66-.49-1.02 1.22-4.86-.4-7.66zm-3.63 35.1c-2.7 2.64-8.25 7 .76 22.78-4.72-9.27-5.52-16.09-.76-22.78zm1.18.17c-.25-1.07 2.4-4.63 1.42-7.47.12 2.42-2.18 5.71-1.42 7.47zm5.27-43.56c-1.11 1.52.45 5.29-.17 7.62 1.55-2.53-.33-6.64.17-7.62zm-.5 55.11c.25-2.39 3.07-5.49 2.57-7.26.06 1.06-3.14 4.44-2.57 7.26zm13.4-50.75c1.47 7.72-1.32 17.43-1.79 26.28 1.78-9.6 4.74-18.81 1.77-26.28zm-8.4 50.29c.4 1.27-3.07 5.5-1.57 8.89-.3-2.88 2.71-6.79 1.57-8.89zm16.74-45.19c-.29-2.88 2.71-6.78 1.57-8.88.4 1.27-3.07 5.49-1.57 8.88zm-13 23.83c-2.22 6.43.61 19.72-5.19 34 8.66-11.4 3.7-29.62 5.19-34zm13.17-19.54c-8.66 11.44-2.13 23.88-3.63 28.23 2.23-6.4-2.17-13.91 3.63-28.2zm-1.13.24c-5.21-12.43 5.13-18.86 3.69-26.5-1.73 10.57-10.2 15.25-3.69 26.53zm-14.62 27.6c-1.74 10.54-10.2 15.23-3.69 26.5-5.22-12.43 5.12-18.86 3.69-26.5zm-8.91 8.17c9.61-14.24 3.2-31 10.18-42.8-8.63 13.42-2.71 29.88-10.18 42.8zm5.06-35.89c5-8.28 3.9-13.41 4.4-19.37-2.11 4.65-.92 6.69-4.4 19.37zm-4 24.75c3.28-16.67 2.7-23 4.11-32.36-3.89 8.37-2.64 20.14-4.14 32.36zm5.9 5.41c-10.1 7.22-9.33 15.19-5.22 23.4-1.99-7.93-2.48-16.96 5.19-23.4zm-12.47 19c1.45 4.67-5.16 13.15 0 26-1.81-14.93 2.35-19.45-.03-26zm-9.23-55.74c-5.07-12.44 5.55-20.13 3.71-29.66-1.87 10.49-10.09 18.33-3.71 29.66zm14.14-54.78c-.37-1.06 1.86-4.75.58-7.57.38 2.4-1.53 5.81-.58 7.54zm-38.86 108.04c0 1.26-5.08 4.74-4.82 8.15.76-2.76 5.21-6.01 4.82-8.15zm30.66-82.06c-2.74-7.9-4.08-17 2.88-23.75-9.33 7.65-7.75 15.64-2.88 23.75zm1.15-17.94c.76-2.76 5.2-6 4.82-8.15-.06 1.25-5.09 4.74-4.82 8.15zm-12.93 70.91c-4.87 7.33 1.57 23-5.19 29.49 8.44-6.66 1.38-20.82 5.19-29.49zm5-23.79c-1.08 5.88-5.42 27.06-2.8 36.36-.95-14.83 3.63-31.32 2.82-36.36zm5.52-18c.32 1.06-2 4.72-.85 7.55-.28-2.46 1.76-5.84.87-7.58zm2.46-28.23c-1.57 6.55 2.52 19.82-1.83 34.41 7.48-11.87.79-30.01 1.85-34.44zm3.14-4c-2.23 2.28-1.48 6.44-2.2 7.33 1.54-1.39.98-5.19 2.22-7.37zm-2.63 111.85c-5.25 7.21.46 22.89-6.64 29.26 8.79-6.45 2.39-20.7 6.64-29.26zm-1.92-90c-1.65 1.73.24 6.29-.79 9 2.33-2.9.08-7.89.79-9zm-10.52 71.67c-.61-2.43 1-5.94-.15-7.65.43 1.05-1.39 4.86.15 7.65zm8.47-63.67c-6.34 14.07 1.17 15.54-4.1 29 7.16-14.9-.87-16.6 4.1-29zm4 41.27c.66 1-.37 5 1.7 7.7-1.14-2.37-.32-6.04-1.74-7.67zm-1.75-9.23c-4.11 7.57 3.81 23.05-2.24 29.87 7.65-6.97-.72-20.97 2.2-29.84zm-4.32 39.16c-.3-2.42 1.74-5.8.85-7.54.32 1.06-2.04 4.72-.85 7.54zm-4.25-7.59c-.18 1-4.27 3.94-4.44 6.75.86-2.27 4.5-4.98 4.44-6.75zm8.53-2.33c-2.11 4.65-.92 6.7-4.4 19.38 5-8.28 3.9-13.42 4.4-19.38zm-.28 20.54c.06-2.85 3.59-6.56 2.7-8.68.24 1.27-3.82 5.26-2.7 8.68zm-4-8.78c-3.87 8.37-2.61 20.14-4.11 32.37 3.24-16.68 2.66-23.05 4.07-32.41zm1.62-32c.63 1.25-2 5.77.15 9.08-.89-2.93 1.33-7.12-.19-9.12zm1.26-19.93c.19 1.09.41 2.23.71 3.51 0-10.38-1.82-14 3.87-18.55-2.7 2.29-6.54 3.8-4.58 15-8.59 13.41-1.58 31.11-9 44 9.51-14.17 2-32.13 9-43.96zm2.84-1.53c8.44-6.64 1.38-20.82 5.19-29.48-4.92 7.33 1.52 22.96-5.24 29.48zm.08 17.06c-.62-2.89 1.89-7 .52-9 .49 1.24-2.44 5.65-.57 9zm-4 3.62c-2.31-12.54 9.65-17.81 10-25.35-4.31 10.09-13.92 13.81-10.07 25.35zm-38.92 11.45c.66 1-.36 5 1.71 7.7-1.07-2.41-.25-6.07-1.71-7.7zm83.5-89.43c-1-2.88 1-7.09-.57-9.11.71 1.25-1.66 5.83.6 9.11zm-60.42 123.87c-4.1 7.56 3.81 23-2.24 29.87 7.7-7.02-.68-21.02 2.24-29.87zm5.51 38.35c-1-2.88 1-7.09-.57-9.1.69 1.24-1.68 5.82.57 9.1zm-22.54-42.24c-1.58 6.56 2.51 19.82-1.84 34.42 7.46-11.84.79-29.99 1.84-34.42zm1.47 35.74c.31 1.27-3.48 5.37-2.22 8.78-.09-2.84 3.22-6.63 2.22-8.78zm6.09-52.26c.38 2.42-1.54 5.84-.59 7.57-.36-1.03 1.86-4.73.59-7.54zm6.93 38.38c-.84-2.88 1.36-7-.15-9.08.61 1.29-1.96 5.8.15 9.11zm60.89-98.08c.66 1-.37 5 1.7 7.71-1.13-2.38-.28-6.04-1.7-7.68zm.25 8.49c-2.07 1.52-1.25 6.11-2.94 8.63 3.04-2.54 1.95-7.58 2.94-8.6zm-42 106.88c.4 1.27-3.06 5.49-1.56 8.88-.3-2.85 2.71-6.75 1.56-8.85zm44.75-150.71c-4.71-9.27-5.52-16.09-.76-22.78-2.67 2.67-8.25 7.01.76 22.81zm-26.61 146.3c7.73-14.81-.28-29.63 10.43-41.57-13.98 12.92-4.65 28.16-10.43 41.57zm-6.17-17.64c-3.7 7.67 5 23.05-.71 30 7.31-7.2-1.75-21.09.71-30.04zm-32 18.41c.32 1.06-2 4.72-.85 7.55-.29-2.47 1.75-5.85.86-7.59zm-24.74-58.85c.4 1.27-3.06 5.49-1.56 8.88-.3-2.88 2.71-6.8 1.56-8.88zm1.44-39.62c.06-2.85 3.59-6.55 2.7-8.68.24 1.27-3.79 5.26-2.7 8.68zm2.31 18.29c-2.22 6.43.61 19.72-5.19 34 8.66-11.44 3.7-29.66 5.19-34zm1.34 1.66c-1.79-14.95 2.38-19.48 0-26 1.39 4.64-5.22 13.13 0 26zm3.63 71.25c.33 1.06-2 4.72-.85 7.54-.35-2.42 1.69-5.8.8-7.54zm-10.9-30.77c.37 1.06-1.84 4.76-.55 7.57-.44-2.42 1.46-5.84.5-7.57zm5.71-60.25c-5.25 7.21.46 22.9-6.64 29.26 8.74-6.45 2.34-20.74 6.59-29.26zm6.22 80.66c-1.64 1.73.25 6.29-.78 9 2.27-2.9.02-7.88.73-9zm-7.07-23.49c-.7-2.42.74-6-.42-7.66.44 1.01-1.26 4.89.37 7.66zm2.58 16.16c.42 4.15-2.44 10.32-1.2 13.18-.5-1.78 2.81-8.48 1.15-13.18zm-2.6 12.26c.21 1.06-2.58 4.56-1.71 7.41-.08-2.41 2.36-5.65 1.66-7.41zm7.65-38.13c-14 13-4.66 28.2-10.44 41.58 7.68-14.81-.32-29.64 10.39-41.58zm1.34-78.13c3.28-16.67 2.7-23 4.11-32.36-3.91 8.37-2.67 20.14-4.16 32.36zm16.12-81.88c-2.23 6.42.6 19.71-5.2 34 8.66-11.44 3.7-29.66 5.2-34zm-19.24 92.39c.29-2.83 4.14-6.4 3.41-8.53.15 1.27-4.23 5.1-3.41 8.53zm-11 73c-5.22-12.43 5.12-18.86 3.69-26.5-1.79 10.58-10.25 15.26-3.74 26.54zm31.78-167.88c.69 2.42-.76 6 .41 7.66-.5-1.05 1.22-4.89-.41-7.66zm-2.47 40.8c.3-2.83 4.14-6.39 3.42-8.53.14 1.29-4.23 5.11-3.42 8.53zm-11.09 9.37c-.3-2.43 1.74-5.8.85-7.55.33 1.07-2.03 4.72-.85 7.55zm-6.3 6.39c-2.22 6.43.61 19.72-5.19 34 8.66-11.44 3.7-29.66 5.19-34zm29.64-57.92c-8.66 13.42-2.73 29.92-10.21 42.8 9.62-14.24 3.21-30.97 10.21-42.8zm-36.65 108.15c-7.14 11.09-4.35 24.27-7.35 35.77-.06.74-.12 1.46-.19 2.19 5.71-13.04 1.33-27.44 7.54-37.96zm82.15-82.74c-.63-2.89 1.89-7 .51-9 .54 1.24-2.39 5.65-.51 9zm-73.59 30c.69 2.43-.76 6 .4 7.66-.49-1.03 1.23-4.86-.4-7.64zm2.82-8.32c-1.11 1.53.45 5.29-.17 7.62 1.55-2.51-.29-6.62.17-7.6zm-5.27 43.56c-.25-1.06 2.4-4.63 1.42-7.47.12 2.44-2.18 5.74-1.42 7.49zm56.78-29.17c-.09-2.87 3.22-6.66 2.22-8.77.31 1.29-3.46 5.38-2.22 8.79zm7.76-53.44c-.36-1.06 1.86-4.76.58-7.58.35 2.46-1.58 5.84-.58 7.58zm-29.24-11.36c-1-2.88 1-7.09-.57-9.11.68 1.25-1.69 5.83.57 9.11zm28 10.6c-.86 5.91-5.4 15.4-2.44 24.69-.55-13.19 3.41-19.65 2.41-24.69zm4.59 1.87c-1.09 5.88-5.43 27.06-2.81 36.36-.99-14.83 3.59-31.32 2.78-36.36zm4.46 41.56c7.7-7-.68-21 2.24-29.87-4.13 7.57 3.78 23.08-2.27 29.87zm-14.71 11.72c8.44-6.64 1.39-20.82 5.2-29.49-4.88 7.33 1.57 22.98-5.2 29.49zm-12.81-59.93c-.29-2.88 2.71-6.79 1.56-8.88.4 1.3-3.06 5.49-1.56 8.88zm-8.62 2.63c-4.67-9.27-5.53-16.09-.77-22.78-2.69 2.64-8.25 6.98.77 22.78zm21.44-3.61c7.31-7.18-1.75-21.07.71-30-3.7 7.65 4.96 23.03-.71 30zm-1.19-17.07c1.5 9.43-.08 16-7.21 21.68 3.63-2.13 10.74-5.48 7.21-21.68zm-6.32-12.16c-2.23 6.42.6 19.72-5.19 34 8.65-11.44 3.69-29.66 5.19-34zm-21.66 241.17c9.61-14.23 3.2-31 10.18-42.79-8.63 13.41-2.71 29.88-10.18 42.79zm35.9-81.84c-.94 10.65-8.41 18.82-1.11 30-6.11-12.38 3.76-20.48 1.11-30zm-12.07 53.47c.36 1.06-1.85 4.76-.55 7.58-.4-2.43 1.5-5.85.55-7.58zm4.66-10.9c3-2.58 1.95-7.62 2.94-8.64-2.08 1.52-1.26 6.12-2.94 8.64zm2.68-17.12c.67 1-.36 5 1.71 7.7-1.1-2.4-.28-6.06-1.71-7.7zm-16.92 67.51c.11-2.4 2.75-5.57 2.15-7.34.14 1.06-2.86 4.49-2.15 7.34zm-42.9-119c1.48 7.72-1.31 17.43-1.78 26.29 1.8-9.64 4.76-18.86 1.78-26.33zm45.71 96.5c.33 2.43-1.65 5.83-.73 7.56-.38-1.06 1.92-4.72.73-7.56zm24.18-102c8.78-6.45 2.39-20.7 6.63-29.26-5.27 7.16.44 22.85-6.66 29.21zm4.59-29.44c.07-2.85 3.6-6.56 2.71-8.68.21 1.22-3.82 5.21-2.74 8.63zm-12 108c.23-1.24 5.73-4.43 5.89-7.81-1.11 2.6-6 5.59-5.89 7.72zm15.58-88c-1.8-15 2.37-19.48 0-26 1.44 4.54-5.17 13.03 0 25.9zm-11.35 51.52c-3.7 7.68 5 23.06-.71 30 7.27-7.16-1.78-21.04.71-30zm-38-33.55c.38 2.43-1.54 5.84-.59 7.58-.41-1.06 1.79-4.76.51-7.58zm-7.56 16.5c-1.58 6.55 2.52 19.82-1.84 34.42 7.4-11.85.7-29.99 1.76-34.42zm-3.48 25.92c-6.34 14.06 1.17 15.53-4.11 29 7.09-14.93-.94-16.64 4.03-29zm45.64-46.35c.3-2.83 4.14-6.39 3.41-8.53.06 1.27-4.3 5.11-3.49 8.53zm-40.76 56.24c.3 1.27-3.49 5.36-2.23 8.77-.08-2.91 3.22-6.7 2.23-8.77zm-11.21 7.38c-3.18 8.34-1.93 14.23-3.9 26.39 3.92-16.58 2.12-17.14 3.9-26.43zm1.2-20.38c.21 1.06-2.58 4.57-1.71 7.42-.03-2.42 2.41-5.67 1.71-7.42zm19.36 15.8c-1.11 1.52.45 5.29-.18 7.61 1.55-2.54-.28-6.65.18-7.62zm-3.85 36.08c.12 2.42-2.19 5.71-1.42 7.47-.25-1.07 2.4-4.63 1.42-7.48zm-22.15-24.62c-2.24 2.28-1.48 6.44-2.21 7.33 1.53-1.35.96-5.15 2.21-7.33zm42.31 2.23c.47 2.88-2.28 6.88-1 9-.5-1.31 2.7-5.63 1-9zm-12.5-29.6c-1.89 10.51-10.49 15.11-4.16 26.43-5.02-12.44 5.49-18.8 4.16-26.43zm-6.64 24.21c.7 2.43-.75 6 .41 7.67-.49-1.05 1.23-4.89-.41-7.67zm24.24 5.46c-8.66 11.44-2.14 23.89-3.6 28.23 2.19-6.42-2.2-13.94 3.6-28.23zm-16.32-132.49c-6.11-12.34 3.75-20.44 1.1-30-.94 10.68-8.38 18.85-1.1 30zm2.07-29.29c-.48-1.26 2.71-5.59 1-9 .48 2.92-2.27 6.92-1 9zm-7.35-7.44c-5.24 7.2.47 22.89-6.63 29.25 8.79-6.45 2.4-20.7 6.63-29.25zm1.58 19.76c-1.8-14.95 2.37-19.48 0-26 1.42 4.64-5.17 13.13 0 26zm10.49-6c-.39-2.43 1.51-5.85.55-7.58.38 1.04-1.84 4.75-.55 7.56zm-6.25 9.4c.34 2.42-1.64 5.82-.73 7.56-.34-1.06 1.96-4.74.73-7.56zm-24.12 30.91c-5.24 7.2.46 22.89-6.63 29.25 8.78-6.44 2.39-20.66 6.63-29.25zm-2-.18c.07-2.86 3.59-6.56 2.71-8.69.2 1.28-3.83 5.27-2.75 8.69zm18.3-54.08c.07-2.85 3.6-6.55 2.71-8.68.21 1.27-3.82 5.26-2.71 8.68zm12.6 54.62c7.94-6.88.33-17.74 3.54-26.54-4.38 7.49 2.72 19.82-3.57 26.54zm-25.78 15.06c1.8-9.6 4.76-18.81 1.79-26.28 1.47 7.72-1.32 17.45-1.79 26.28zm-1.55 4.35c-1.8-15 2.37-19.49 0-26 1.43 4.64-5.17 13.12 0 26zm35.55-19.29c-5.07-12.44 5.55-20.13 3.72-29.66-1.87 10.52-10.1 18.37-3.72 29.66zm15.18 1.11c.69 2.42-.76 6 .41 7.66-.51-1.09 1.21-4.93-.41-7.66zm-10.48-18.72c.32 1.06-2 4.71-.85 7.54-.3-2.42 1.74-5.82.85-7.54zm8 53.91c-.25-1.06 2.4-4.62 1.42-7.46.14 2.41-2.16 5.71-1.4 7.46zm7.21-39.14c-.31-2.42 1.73-5.8.84-7.54.35 1.06-2.01 4.72-.82 7.54zm-1.94-4.41c-1.11 1.52.45 5.29-.17 7.61 1.57-2.53-.27-6.64.19-7.61zm-7.67-42.64c-2.23 2.28-1.47 6.43-2.2 7.33 1.53-1.33.96-5.11 2.2-7.33zm-5 38.42c7.46-11.85.78-30 1.83-34.42-1.54 6.59 2.55 19.86-1.8 34.46zm-5.26-10.65c-.46-1.78 2.86-8.49 1.2-13.18.42 4.14-2.45 10.31-1.2 13.18zm15.73 53.49c3.28-16.68 2.7-23 4.11-32.37-3.86 8.38-2.61 20.11-4.11 32.37zm-16.19-22.26c7.17-15-.86-16.66 4.1-29-6.33 14 1.18 15.49-4.1 29zm5.37-28.1c2.32-2.88.07-7.86.78-9-1.65 1.74.25 6.3-.78 9zm-8.57 9.55c-.01-2.45 2.44-5.65 1.8-7.45.15 1.1-2.66 4.61-1.8 7.45zm-51.06 24.13-.39 2.08a7.28 7.28 0 0 0 1.33 3.82c-.79-1.72-.59-4.1-.94-5.9zm64.06 120.68c.42 4.14-2.44 10.31-1.2 13.18-.45-1.78 2.86-8.44 1.2-13.18zm-5.94 8.63c-3.12 5.37-.37 13.23-.86 19.72.36-.67.72-1.35 1.07-2.06.05-5.69-2.24-12.08-.21-17.66zm27.57-156.2c.22-2 2.28-4.48 3.14-6.48 0-.39 0-.77 0-1.15-.97 1.71-3.81 4.81-3.14 7.63zm-26.64 172.43c.25-.52.51-1.05.76-1.59.67-1.81 1.6-3.64 1.14-4.82.18.94-1.99 3.79-1.9 6.41zm10.63-28.69c.18-.61.35-1.24.52-1.86a19.32 19.32 0 0 1 -.28-4.44 27 27 0 0 0 -.24 6.3zm-3.51 11.21c.15-.43.29-.87.44-1.31 0-.14 0-.28-.07-.43-.1.59-.23 1.16-.37 1.74zm5.48-24.6c-8.3 6.83-8 13.92-4.33 21.13l.33-1c-1.79-6.97-1.91-14.37 4-20.17zm-32.37 66.24c.48-.28 1-.57 1.46-.89.72-7.47.79-14.81 1.05-17.93-1.26 2.78-1.65 10.42-2.51 18.82zm3.89-11.11c-.7-2.43.74-6-.42-7.66.49 1.05-1.22 4.89.42 7.66zm-4.86 3.07c.37 1.06-1.84 4.77-.55 7.58-.39-2.42 1.51-5.82.55-7.58zm8.46-1.52c3.75-2.06 8.58-3 9.44-17.32-3.1 9.95-2.35 13.6-9.44 17.32zm0-1.18c.35-1 4.95-3.59 5.58-6.34-1.27 2.18-5.39 4.61-5.62 6.34zm4.07-10.08c-6.34 5.87-7.88 12.21-8.22 18.64.68-.51 1.35-1.07 2-1.66.4-6.05 1.52-11.79 6.18-16.98zm19.11-39.6c.39-1.42 1.76-3 2.94-4.44.14-.54.27-1.09.4-1.64-1.52 1.64-3.55 3.87-3.38 6.08zm2.28-1.78a9.77 9.77 0 0 0 -.74 2.89c.21-.97.46-1.91.7-2.89zm15.93-110.73c-.41 1.45-.7 2.79-.23 3.77.04-1.27.12-2.52.19-3.77zm-4.44 42.16a8.89 8.89 0 0 1 1-3.07c.07-.64.15-1.28.22-1.92-.83 1.48-1.68 3.33-1.26 4.99zm2-14.93a5.36 5.36 0 0 1 .45-2.25q.24-2.45.45-4.83a2.74 2.74 0 0 0 -.17-.48c.34 2.42-1.65 5.82-.73 7.56zm2.76-34.7.09-2.24a25.13 25.13 0 0 1 .25-9.78c0-1.16 0-2.32 0-3.46-3.18 4.94-2.61 10.15-.34 15.48zm.38-17.38v-.38c-.34.74-.71 1.48-1.13 2.2.41-.6.78-1.21 1.13-1.82zm-1.85 28.13c-.91 10.38-8 18.41-1.62 29.13v-.23c-5.03-11.75 4.19-19.66 1.62-28.9zm-47.87 154c-4.6 6.08-4.91 12.45-4.42 17.74.43-.15.85-.31 1.27-.49a40.57 40.57 0 0 1 3.15-17.24zm34.65-53.16.09-.4a8.52 8.52 0 0 1 -1 1.29 12.64 12.64 0 0 0 .91-.88zm10-58.19.18-1.44a24.2 24.2 0 0 1 -4 4 24.66 24.66 0 0 0 3.83-2.55zm-7.37 32.53c-2.75 4.74-.93 11.41-.81 17.38.26-1.23.52-2.47.77-3.73-.52-4.56-1.52-9.35.05-13.64zm.56 7.07c.43-.82.8-1.65 1.14-2.47 1-5.4 1.94-11.09 2.87-17.11.2-5.21.35-10.26 2.14-15 .11-.82.22-1.62.32-2.43-8.04 11.91-1.35 25.19-6.46 37.02zm-15.52 50.63c.21 1.06-2.58 4.57-1.71 7.42-.03-2.41 2.41-5.66 1.71-7.42zm-48.36 9.55c-3.51 8.29-10.67 12.3-10.91 19.92l.67.82c.88-9.36 9.93-14.2 10.24-20.74zm-8.92 6.2c.19 1.09.42 2.23.72 3.51 0-10.38-1.82-14 3.87-18.55-2.71 2.29-6.54 3.79-4.59 15a29 29 0 0 0 -4 10.9c.27.41.54.82.82 1.21.32-4.33 1.09-8.51 3.18-12.07zm28.86 14.26c-.47-1.26 2.71-5.59 1-9 .48 2.93-2.27 6.92-1 9zm-29.61-35.34c-6.34 14.07 1.17 15.54-4.11 29 7.17-14.93-.86-16.64 4.11-29zm11 19.39c-6 4.31-6.88 15.62-5.2 21.86l.42.27c-.91-6.86 1.21-19.08 4.82-22.13zm-6.85 8.2c.54 1.26-2.39 5.67-.51 9-.59-2.87 1.93-6.94.55-9zm-4.12-37.31c-1.87 10.52-10.1 18.36-3.72 29.66-5.07-12.44 5.56-20.12 3.72-29.66zm-7.34 20.22c0-2.41 2.44-5.65 1.75-7.42.2 1.07-2.6 4.57-1.75 7.42zm0 1.16c.39 2.43-1.53 5.84-.58 7.58-.34-1.06 1.89-4.76.61-7.58zm1 5.58a33.64 33.64 0 0 0 -1.57 5.47c.21.57.43 1.13.66 1.67a56.91 56.91 0 0 1 .96-7.14zm.45 10.19c.24.47.47.94.71 1.39.53-3.78.87-6.78.6-8.47-.23 1.47-.72 4.02-1.26 7.08zm15.75-3.94c-1.42 4.09-.79 11-1.65 19.14.49.24 1 .46 1.46.66.94-8.67-.71-17.04.24-19.8zm-7.74 8.55a11.91 11.91 0 0 0 -1.22 5.28l.61.59a16.28 16.28 0 0 1 .66-5.87zm21.68-10.41c1.37 4.43-4.47 12.29-.69 24.07h.49c-1.2-13.4 2.47-17.82.2-24.07zm-1.56 6.27c-3.05 4.19-2.39 11.27-2.71 17.7l1 .07c.34-6.1-.72-12.85 1.71-17.77zm3.89-25.91c-2.69 2.64-8.25 7 .77 22.78-4.72-9.27-5.5-16.08-.77-22.78zm-.07 43.46c.57-.08 1.15-.17 1.73-.29 1-3.5 1.82-6.89.82-10.49a53.19 53.19 0 0 1 -2.55 10.78zm-3.15-26.42c.24 1.27-3.79 5.27-2.71 8.69.07-2.9 3.6-6.56 2.71-8.69zm2.49 24.29c1.81-9.6 4.77-18.82 1.79-26.29 1.43 7.72-1.36 17.44-1.79 26.29zm-4.15-23.68c-5.06 7.86-5.12 16.76-5.81 25.38l1.28.23c.96-9.24.2-18.35 4.49-25.61zm-3.14-22.82c-1.91 10.48-10.51 15.1-4.18 26.4-5.02-12.4 5.47-18.8 4.18-26.4zm-3.83 15.9c-1.11 1.52.44 5.29-.18 7.62 1.55-2.52-.29-6.69.18-7.66zm6.21-5.5c-2.11 4.65-.92 6.69-4.4 19.37 4.97-8.32 3.9-13.45 4.4-19.41zm-4.32 11.76c-3.13 6.76-2.91 15.75-3.5 25.4l.61.18c1.92-11.88 1.68-17.69 2.89-25.62zm-4.72 2.06c.69 2.42-.76 6 .41 7.66-.46-1.09 1.22-4.88-.41-7.7zm57.66-208.31c7.17-15-.86-16.66 4.11-29-6.34 14.09 1.18 15.51-4.11 29zm-42.85-10.91c5-8.28 3.9-13.42 4.4-19.37-2.11 4.63-.92 6.68-4.4 19.37zm7.61-32.28a1.47 1.47 0 0 1 -.1.13 5.25 5.25 0 0 0 .33.49 5 5 0 0 1 -.23-.63zm-2.18 2.7c-.31.41-.63.83-.94 1.26.18 3.79-.23 7.22-2.34 9.61 3.05-2.79 3.57-6.66 3.28-10.88zm-12.52 59.25c-.25-1.06 2.4-4.62 1.42-7.46.12 2.42-2.19 5.71-1.42 7.46zm17.23-64.67a52.22 52.22 0 0 1 -3.2 11.86 27.55 27.55 0 0 0 4.94-13.59c-.6.54-1.19 1.12-1.74 1.73zm45.9 73.12c-.25-1.07 2.39-4.63 1.42-7.47.07 2.42-2.23 5.71-1.46 7.47zm-55.97-45.75c-3.86 8.38-2.61 20.14-4.11 32.37 3.28-16.67 2.7-23.04 4.11-32.37zm13.17-10.57c5.14-7.61 5.7-15.93 6.18-23.8-.45.22-.91.46-1.36.72-.64 8.02-.76 16.07-4.82 23.08zm9.58-25.17-.84.28c-.35 7.19.52 15.42-4.15 19.61 6.02-4.42 4.92-12.52 4.99-19.89zm-11.62 24.54c.3-2.83 4.14-6.39 3.42-8.53.14 1.27-4.23 5.1-3.42 8.53zm4.94-21.27c-.35.24-.69.48-1 .74-.16 3.26-.37 6.63-.78 10 .78-4.14 1.31-7.64 1.78-10.74zm-4.91 15.7c-.25-1.06 2.39-4.62 1.42-7.47.12 2.42-2.19 5.71-1.42 7.47zm-11.09 14.94c-.3-2.43 1.74-5.81.84-7.55.31 1.06-2.05 4.72-.84 7.55zm-25.29 58c-.11.49-.22 1-.33 1.47a8.86 8.86 0 0 1 2.1-3.09 10.45 10.45 0 0 0 -1.79 1.6zm-3.21 14.92c-.22 1.11-.43 2.22-.65 3.34a14.83 14.83 0 0 0 1.24 4.2 24.77 24.77 0 0 1 -.59-7.54zm12.07-39.16c-1.92 10.51-10.52 15.13-4.19 26.43-5.02-12.44 5.5-18.8 4.19-26.43zm.14-8.76c-.35 1.06-.7 2.14-1 3.23a6.83 6.83 0 0 0 .72 4.72c-.74-2.43.7-5.75.28-7.95zm-16.08 73.23a16.69 16.69 0 0 0 -1.16 3.53q-1 6.54-1.93 13.45c3.46-6.92 2.64-11.62 3.09-16.98zm1-10c-.47 2.71-.93 5.46-1.38 8.28a15 15 0 0 0 1.43-8.32zm26.1-85.9c-6.86 4.89-7 18.84-4.38 24.1-1.73-6.18.41-20.77 4.43-24.14zm3.27-6.71c-1.11 1.52.44 5.29-.18 7.62 1.6-2.58-.24-6.69.23-7.66zm2.13-8.16c-1.43 2.35-2.86 4.89-4.28 7.65-.82 3.15-.65 6.57 1.85 11-3.29-8.14.08-13.65 2.43-18.65zm-16.43 57.35c6.29-5.72 1.85-16.11 1.61-24.56l-.6 1.73c.29 7.84 3.5 17.74-1.01 22.83zm4-20.64c.66 1-.37 5 1.7 7.7-1.1-2.41-.28-6.07-1.71-7.7zm.65-12.2c-.5 1.29-1 2.62-1.5 4a5.8 5.8 0 0 0 .57 3.49c-.5-2.26.99-5.3.92-7.49zm37.2-46.51c-.54.07-1.09.17-1.65.29a26.67 26.67 0 0 0 2 10.71 58.69 58.69 0 0 1 -.35-11zm24 44.48c-.09-2.87 3.22-6.66 2.22-8.78.31 1.3-3.48 5.4-2.22 8.81zm-1.72-16.28c.33 1.06-2 4.72-.85 7.55-.3-2.43 1.74-5.81.85-7.55zm3.77-2.54c-.38-1.14-.76-2.24-1.16-3.29a50.65 50.65 0 0 1 -2 12 23.26 23.26 0 0 0 3.16-8.71zm-13.07 65.34c9.6-14.21 2.11-32.17 9-44 .19 1.09.42 2.23.72 3.51 0-10.38-1.82-14 3.87-18.55-2.71 2.29-6.54 3.8-4.59 15-8.53 13.4-1.53 31.1-9 44.04zm-74.12 170c.07.21.14.41.2.62a8.28 8.28 0 0 0 -.13-1c-.02.16-.05.3-.07.38zm83.67-234.17c2.11-2.62.45-7 .67-8.58a1.11 1.11 0 0 1 -.07-.16c-1.29 1.91.38 6.16-.6 8.74zm2.34 18.6c2.75-2.16 3.85-5.13 4.22-8.45-.28-1.29-.57-2.55-.88-3.77.04 4.84-.41 9.39-3.34 12.22zm3.06 23.95c-1.56-5.38-.11-17.24 3-22.37 0-.15 0-.29-.07-.44-5.41 5.72-5.36 17.95-2.93 22.81zm-10.31-45.68c-.45-1.79 2.86-8.49 1.2-13.18.42 4.14-2.44 10.31-1.2 13.18zm8.39 59.68c8.66-11.45 3.7-29.67 5.2-34-2.23 6.42.6 19.71-5.2 34zm-5.08-17.27c-2-11 6.92-16.41 9.4-22.66-.06-.33-.11-.68-.17-1-4.54 8.83-12.9 12.78-9.23 23.66zm8.75-26.25a5 5 0 0 0 -.86 2.28 7.07 7.07 0 0 1 1-1.65zm-15.71-3.48c0-2.41 2.43-5.65 1.74-7.41.21 1.03-2.6 4.56-1.74 7.41zm-5.38-18.33c1.52-4.39 0-9.29.65-16.5-.48-.23-1-.43-1.44-.61-.85 7.53 1.8 14.17.79 17.11zm-6.78 18.87c.11-2.4 2.75-5.58 2.15-7.34.14 1.06-2.86 4.49-2.15 7.34zm9.17-34.41-.53-.31a5.52 5.52 0 0 0 .37 2.81 7.42 7.42 0 0 1 .16-2.5zm-7.12 19.49c-.35-1.06 2-4.73.73-7.56.33 2.41-1.65 5.8-.73 7.56zm.18 6c-5.59-11.37 2.29-19.14 1.5-27.73l-.67-.14c-1.6 9.65-7.65 17.46-.83 27.87zm9.77-23.39c-.42-.36-.85-.7-1.27-1a116.71 116.71 0 0 1 -3 18.62c2.41-3.97 3.61-10.85 4.27-17.63zm-4.48 41.1c7.94-6.89.33-17.74 3.55-26.55-4.36 7.49 2.74 19.84-3.55 26.54zm-6-45.77c-.23 0-.46 0-.7 0-.3 2.29-.57 4.56-.68 6.78.37-2.32.86-4.57 1.33-6.79zm18 16.23c-1.87 10.52-10.09 18.36-3.72 29.66-5.1-12.45 5.53-20.14 3.69-29.67zm-10.21 53.34c3.92-16.54 2.12-17.1 3.9-26.39-3.18 8.33-1.93 14.23-3.9 26.39zm2.33-43.29c3.13-6 3.68-12 3.93-17.84-.59-.75-1.19-1.44-1.8-2.08-.06 6.76.61 13.55-2.13 19.92zm1.07 4c0-2.41 2.41-5.65 1.71-7.41.22 1.02-2.59 4.53-1.72 7.37zm-23.24 46.05c5-8.28 4.77-29.59 5.27-35.55-2.1 4.65-1.8 22.87-5.27 35.55zm-35.25 118.61c-3.1 10-2.33 13.59-9.44 17.32 3.75-2.06 8.58-3.01 9.44-17.32zm-5.58-11.13c1.5 9.43-.08 16-7.21 21.69 3.62-2.14 10.72-5.44 7.21-21.69zm12-66.24c-2.22 6.43.61 19.72-5.19 34 8.63-11.43 3.67-29.65 5.19-34zm-9.8 34.12c-2-7.94-2.46-17 5.21-23.41-10.1 7.22-9.32 15.19-5.21 23.41zm.5 58c-9.29 7.65-7.75 15.64-2.88 23.75-2.73-7.94-4.08-17 2.88-23.78zm4.09-3c-.85 5.91-5.4 15.4-2.43 24.68-.53-13.23 3.43-19.68 2.43-24.72zm22.37-104.13c-.69-2.42.75-6-.41-7.66.49 1.05-1.22 4.89.41 7.66zm3.89-11.5c.11-2.4 2.74-5.57 2.14-7.34.15 1.06-2.85 4.48-2.14 7.34zm-12.54 6.56c-2-7.93-2.46-17 5.21-23.4-10.1 7.2-9.32 15.17-5.21 23.39zm-10.19 93.63c.21 1.06-2.6 4.56-1.74 7.41-.02-2.41 2.42-5.6 1.74-7.41zm29.51-119.06c2.22-6.43-2.18-13.95 3.63-28.23-8.67 11.44-2.14 23.88-3.63 28.23zm-9.54-8.69c-2.23 6.43.6 19.72-5.2 34 8.66-11.44 3.7-29.65 5.2-34zm-7.77 66.91c5-8.28 4.77-29.6 5.27-35.55-2.11 4.64-1.79 22.86-5.27 35.55zm3.3 81.24c-2.22 6.43.6 19.72-5.19 34 8.65-11.43 3.69-29.65 5.19-34zm1.1-4.1c-6.86 4.9-7 18.84-4.38 24.11-1.78-6.14.36-20.73 4.38-24.11zm11.59-144.84c-3.7 7.67 5 23.06-.71 30 7.3-7.16-1.75-21.04.71-30zm-19 162.06c-.63-2.89 1.89-7 .52-9 .59 1.29-2.35 5.65-.47 9zm.27 4.66c.66 1-.36 5 1.7 7.7-1.04-2.4-.22-6.07-1.65-7.7zm8.48 12c.14 1.27-4.23 5.1-3.42 8.53.35-2.82 4.16-6.38 3.47-8.52zm5.56 3.43c-10.05 7.2-9.28 15.2-5.17 23.42-1.98-7.93-2.45-16.96 5.22-23.41zm-27.46-12.55c-4.88 7.33 1.57 23-5.19 29.48 8.43-6.64 1.38-20.82 5.19-29.48zm5-23.8c-1.09 5.88-5.42 27.06-2.81 36.36-.94-14.81 3.64-31.32 2.83-36.36zm-4 43.29c-.62-2.43 1-5.94-.15-7.64.51 1.05-1.34 4.9.2 7.64zm9.23-42.56c.19 1.09.41 2.24.71 3.52 0-10.39-1.82-14 3.87-18.56-2.71 2.3-6.54 3.8-4.59 15-8.58 13.41-1.57 31.1-9 44 9.61-14.14 2.13-32.14 9.06-43.96zm-7.08 42.51c-.19 1-4.27 3.94-4.44 6.75.93-2.28 4.54-4.99 4.49-6.75zm16-48.7c-4.25 10-13.9 13.8-10 25.34-2.28-12.53 9.68-17.8 10.04-25.33zm16.81-79.41c3.91-16.54 2.12-17.1 3.89-26.39-3.13 8.33-1.88 14.23-3.85 26.39zm18.76 35.22c-4.72-9.26-5.52-16.08-.76-22.78-2.66 2.64-8.21 6.98.8 22.78zm2.44-16.4c9.62-14.24 3.2-31 10.19-42.8-8.6 13.4-2.71 29.88-10.15 42.8zm5.07-35.89c5-8.28 3.9-13.42 4.39-19.37-2.06 4.64-.88 6.69-4.35 19.37zm-34.28-7.51c.23-1.24 5.73-4.43 5.9-7.81-1.11 2.73-6.01 5.71-5.9 7.81zm17.85 31c-.83-2.88 1.37-7-.14-9.07.63 1.25-1.96 5.76.14 9.07zm6-1.07c-1.09-2.4-.28-6.07-1.7-7.7.66 1.02-.37 5.01 1.7 7.7zm4-34.09c-4.26 10-13.9 13.8-10 25.34-2.31-12.53 9.65-17.8 10.02-25.34zm4.12 52.9c.24-2.38 3.06-5.48 2.56-7.25.16 1.06-3.1 4.4-2.54 7.25zm-1 12.33c-2-7.93-2.46-17 5.21-23.4-10.1 7.21-9.32 15.18-5.21 23.4zm3.8 8c.36 1.07-1.84 4.77-.55 7.59-.39-2.41 1.47-5.83.55-7.57zm6-42.13c-2.22 6.43.61 19.72-5.19 34 8.63-11.42 3.67-29.64 5.16-33.94zm-13.4 74.29c.14 1.06-2.86 4.48-2.15 7.33.09-2.37 2.72-5.56 2.12-7.31zm-1.44-49.9c-1-2.87 1-7.09-.56-9.1.65 1.26-1.68 5.84.53 9.12zm-12.78-73.49c.21 1.06-2.59 4.57-1.71 7.42-.03-2.41 2.41-5.66 1.71-7.42zm-10.54 75.82c-.08-2.87 3.23-6.66 2.23-8.78.31 1.27-3.49 5.37-2.23 8.78zm-7.25 103.23c.24-2.38 3.07-5.48 2.56-7.25.09 1.06-3.12 4.36-2.56 7.25zm21.33-207.09c.35-1 4.95-3.59 5.58-6.34-1.2 2.18-5.31 4.61-5.58 6.34zm-6.33 31.49c7.73-14.8-.27-29.63 10.44-41.57-13.98 12.96-4.66 28.2-10.44 41.57zm-2.46 6.45c-3.11 9.94-2.34 13.58-9.44 17.31 3.74-2.05 8.58-3.05 9.44-17.31zm1.92 70.78c-2.22 6.42.61 19.72-5.19 34 8.66-11.44 3.7-29.66 5.19-34zm-3.27 20c-1.78-6.14.36-20.73 4.37-24.11-6.85 4.91-7.01 18.85-4.37 24.12zm7.29-20.28c-5-12.45 5.5-18.8 4.19-26.44-1.92 10.53-10.52 15.2-4.19 26.45zm-6.4-7c.85-2.28 4.49-5 4.43-6.75-.18 1.08-4.27 3.99-4.43 6.8zm6.25-50c-1.08 5.88-5.42 27.06-2.8 36.36-.96-14.77 3.62-31.26 2.8-36.3zm-4 43.29c-.61-2.43 1-5.93-.15-7.64.49 1.11-1.36 4.91.15 7.7zm23.25 49.28c5-8.29 4.78-29.6 5.28-35.56-2.08 4.75-1.77 22.93-5.25 35.62zm-34.12-132.05c1.81-9.6 4.77-18.82 1.79-26.29 1.47 7.72-1.32 17.43-1.79 26.29zm5.69-17.28c-2-7.94-2.45-17 5.22-23.41-10.11 7.22-9.33 15.19-5.22 23.41zm1-12.33c.24-2.39 3.07-5.48 2.56-7.26.11 1.11-3.1 4.41-2.54 7.26zm2.49 13c-5.2-12.45 5.14-18.88 3.69-26.51-1.72 10.54-10.18 15.22-3.67 26.5zm-41.83 89.85c9.61-14.24 3.2-31 10.18-42.8-8.66 13.37-2.66 29.8-10.18 42.8zm15-46.11c-1-2.88 1-7.1-.57-9.11.65 1.22-1.72 5.77.54 9.06zm.9 8.45c-4.75-9.34-5.55-16.14-.79-22.84-2.69 2.65-8.25 6.99.76 22.79zm36.25-51.34c.22-1.23 5.73-4.42 5.89-7.81-1.11 2.65-6.01 5.64-5.89 7.81zm-2.41-13c-2.07 1.52-1.25 6.12-2.93 8.64 3.03-2.64 1.95-7.64 2.93-8.64zm-2.74 16.43c-.7-2.43.74-6-.42-7.66.49 1.04-1.22 4.89.42 7.66zm17.33 112c.47 2.89-2.28 6.88-1 9-.48-1.32 2.7-5.65 1-9.02zm-4.29-127.77c-3.1 10-2.34 13.59-9.44 17.32 3.74-2.06 8.58-2.98 9.44-17.32zm-10.52-9.18c.66 1-.36 5 1.7 7.7-1.12-2.4-.3-6.06-1.7-7.7zm-66.62 202.22a7.68 7.68 0 0 1 .19-.83c-.08.16-.14.32-.21.49s.01.23.02.34zm1.51 8.65c2.22-6.43-2.17-13.94 3.63-28.23-8.66 11.44-2.14 23.88-3.63 28.23zm.73 14.84c.61-4.33-.82-9.49-1.75-14.42.4 5.31.99 10.1 1.75 14.42zm.27-10.69c5-8.29 4.77-29.6 5.27-35.56-2.1 4.65-1.79 22.87-5.27 35.56zm-2.53-30.57c0 1.25-.06 2.47-.08 3.68.57-1.73 1-3.78.14-5.57a6 6 0 0 1 -.06 1.89zm2.88 44.56c.14.65.27 1.29.41 1.91a45.45 45.45 0 0 0 .62-5.44c-.4 1.28-.73 2.45-1.03 3.53zm19.3-154.43c5-8.28 3.9-13.41 4.4-19.37-2.11 4.65-.94 6.69-4.4 19.37zm-7.54 52.3c-4.72-9.27-5.52-16.09-.76-22.78-2.66 2.64-8.24 6.98.76 22.78zm-.91-8.45c-1-2.88 1-7.09-.56-9.11.72 1.25-1.65 5.83.6 9.11zm-13.6 62.09v.81c.14.29.27.59.42.89-.17-.56-.3-1.13-.42-1.7zm1-17.59-.15 2a17.58 17.58 0 0 1 4.72-6.07 24.26 24.26 0 0 0 -4.53 4.07zm2.94-.29c.08 1.06-3.12 4.4-2.57 7.25.29-2.37 3.14-5.48 2.61-7.25zm75-82.68c-2.23 6.43.6 19.72-5.2 34 8.68-11.44 3.77-29.65 5.22-34zm-8.21 108c-2.1 4.65-1.79 22.87-5.27 35.55 4.99-8.33 4.8-29.64 5.29-35.6zm-11.76 58.26c.22-1.23 5.73-4.42 5.89-7.8-1.11 2.68-6 5.67-5.89 7.8zm12.74-58.27c.5 1-1.21 4.89.42 7.67-.7-2.43.75-5.97-.42-7.67zm7.86-19.23c1.5 9.42-.08 16-7.21 21.68 3.64-2.13 10.74-5.48 7.21-21.68zm-18.31 54.07c1.5 9.43-.08 16-7.21 21.69 3.64-2.14 10.74-5.49 7.21-21.69zm14.43-26.8c.35-1 5-3.59 5.59-6.34-1.24 2.18-5.36 4.6-5.59 6.34zm9.48-16.14c-3.1 9.94-2.33 13.59-9.44 17.32 3.78-2.06 8.58-3.01 9.44-17.32zm-13.9-132.2c-2.73-7.91-4.08-17 2.88-23.75-9.3 7.62-7.75 15.62-2.88 23.75zm-14.71 185.58c-2.07 1.51-1.25 6.11-2.93 8.63 3.03-2.57 1.95-7.61 2.93-8.63zm-1.62-22.6c-2.22 6.43.6 19.72-5.2 34 8.66-11.44 3.7-29.66 5.2-34zm6.09-11.33c-.93 10.64-8.4 18.81-1.1 30-6.11-12.38 3.76-20.48 1.1-30zm-4.72 25.44c.66 1-.36 5 1.7 7.7-1.09-2.4-.27-6.06-1.7-7.7zm3.26-43.08c1.47 7.72-1.31 17.43-1.78 26.28 1.8-9.6 4.72-18.81 1.78-26.28zm19.28-115.62c-.61-2.43 1-5.94-.14-7.65.45 1.06-1.39 4.86.14 7.65zm-2.28 6.7c.85-2.28 4.49-5 4.43-6.76-.18 1.04-4.26 3.95-4.43 6.76zm-70.88 139.23c-3.69 6.33.81 16.12-1.5 23.06l.21.79c3.98-6.82-1.53-16.13 1.29-23.85zm46.67 6.93c-1.74 10.54-10.2 15.22-3.69 26.5-5.22-12.43 5.12-18.88 3.69-26.5zm20.06-189.19c.76-2.76 5.21-6 4.82-8.16-.06 1.26-5.09 4.75-4.82 8.16zm-2.65 47.81c-8.58 13.41-1.57 31.11-9 44 9.6-14.22 2.11-32.18 9-44 .19 1.09.41 2.24.72 3.52 0-10.39-1.83-14 3.87-18.55-2.71 2.32-6.55 3.82-4.59 15.03zm5.91 22.42c-1.78-6.14.36-20.73 4.38-24.1-6.86 4.92-7.02 18.87-4.38 24.13zm20.52-26.42c1.47 7.72-1.32 17.43-1.79 26.29 1.8-9.61 4.77-18.83 1.79-26.29zm-6.18 60.37c.5 1-1.21 4.89.42 7.66-.69-2.43.75-5.97-.42-7.67zm3-82.51c-1.09-2.4-.27-6.06-1.7-7.7.62 1.01-.4 5 1.66 7.69zm-6 1.08c-.84-2.89 1.36-7.05-.15-9.08.64 1.24-1.99 5.76.12 9.07zm-4 27.24c-5-12.44 5.5-18.79 4.19-26.43-1.96 10.5-10.57 15.12-4.24 26.42z" fill="#48321b" opacity=".15"/><path d="m58.3 294.58c-20.55-2.75-42.2-22.58-26.93-136.58s44.14-153.82 65.42-151z" fill="#231f20" opacity=".1"/><g fill="#42210b"><path d="m76 57.32a5.71 5.71 0 0 1 6.66-4.69 6.79 6.79 0 0 1 4.11 2.58c2.35 2.57 2.65 2.86 3.56 3a1.55 1.55 0 0 0 1.87-1.37 1.79 1.79 0 0 0 -.69-1.76 11.32 11.32 0 0 0 -2.3-1.51c-1-.51-1.93-1-2.88-1.6-5.16-2.89-7.26-6.93-6.35-12.2 1.28-7.37 7.82-11.44 16-10 6.81 1.18 11.51 5.73 10.7 10.38a4.92 4.92 0 0 1 -5.68 4.33c-1.7-.3-3-1.1-4.78-3-1.12-1.31-1.7-1.7-2.38-1.82a1.54 1.54 0 0 0 -1.73 1.22c-.19 1.14.51 1.78 3.29 3.26a24.38 24.38 0 0 1 7.36 5.37 11.85 11.85 0 0 1 2.24 9.49 13.13 13.13 0 0 1 -5.14 8.39c-3 2.11-6.61 2.77-11.26 2-8.07-1.39-13.52-6.68-12.6-12.07z" opacity=".94"/><path d="m95.7 79.62a6.26 6.26 0 0 1 6.08-2.39 6.71 6.71 0 0 1 4 2.44 6.61 6.61 0 0 1 1.22 4.48l.08 25.12a10.4 10.4 0 0 1 -.14 2.14 6.14 6.14 0 0 1 -7.17 5 6.05 6.05 0 0 1 -5.36-5.84l-.18-7.33-3.6 6.27c-1.84 3.18-4.36 4.56-7.3 4s-4.77-2.46-5.47-6.2l-1.32-7.18-2.07 5.87c-1.25 3.52-4 5.32-7.25 4.76-3.68-.64-5.8-3.93-5.11-7.89a13.34 13.34 0 0 1 .38-1.51l8.51-23.46c1.25-3.52 3.9-5.33 7.13-4.77a6.91 6.91 0 0 1 5.51 5.27l3.44 13.51z" opacity=".94"/><path d="m90.81 151.91a7.83 7.83 0 0 1 .5 4.23 6.18 6.18 0 0 1 -7.3 5 5.89 5.89 0 0 1 -4.66-3.79l-3.67-9.45-.9 5.16a6.19 6.19 0 0 1 -7.21 5.23 6.46 6.46 0 0 1 -4.49-3.12 8.33 8.33 0 0 1 -.55-5.58l4-23.3c.47-2.72 1.3-4.16 3-5.21s3-1.18 6-.66l5.21.91a23.39 23.39 0 0 1 6 1.62 13.75 13.75 0 0 1 7.66 14.76c-.63 3.63-2.25 6.21-5.7 8.94zm-13.23-15 .51.09.85.14c1.87.38 3-.13 3.18-1.49s-.65-2.27-2.53-2.54c-.29 0-.74-.13-1.3-.28z" opacity=".94"/><path d="m64.74 176.33a6.2 6.2 0 0 1 -4.42-2.46 5.88 5.88 0 0 1 3.1-9.1c1.4-.34 1.92-.31 6.85.55l12.59 2.18a24.72 24.72 0 0 1 4.23.85 5.74 5.74 0 0 1 4.12 6.55 6.33 6.33 0 0 1 -2.81 4.1c-1.13.74-2.79.92-5.06.52l-2.78-.48-3.26 18.86a8.54 8.54 0 0 1 -1.92 4.63 6 6 0 0 1 -5.65 1.94 6.39 6.39 0 0 1 -4.73-3.47c-.63-1.46-.67-2.57-.23-5.12l3.29-18.94z" opacity=".94"/><path d="m49.52 239.56a5.7 5.7 0 0 1 6.65-4.69 6.72 6.72 0 0 1 4.11 2.58c2.36 2.57 2.66 2.86 3.56 3a1.56 1.56 0 0 0 1.88-1.36 1.82 1.82 0 0 0 -.69-1.76 10.76 10.76 0 0 0 -2.31-1.51c-1-.52-1.92-1-2.88-1.61-5.16-2.88-7.26-6.92-6.35-12.2 1.28-7.37 7.83-11.43 16.05-10 6.8 1.18 11.5 5.73 10.69 10.38a4.91 4.91 0 0 1 -5.77 4.31c-1.7-.29-3-1.09-4.78-3.05-1.12-1.3-1.69-1.69-2.37-1.81a1.52 1.52 0 0 0 -1.73 1.22c-.2 1.13.5 1.78 3.29 3.26a24.5 24.5 0 0 1 7.36 5.36 11.89 11.89 0 0 1 2.25 9.56 13.18 13.18 0 0 1 -5.13 8.4c-3 2.11-6.62 2.76-11.26 2-8.09-1.43-13.51-6.7-12.57-12.08z" opacity=".94"/></g></svg>