<svg height="570" viewBox="0 0 266 570" width="266" xmlns="http://www.w3.org/2000/svg"><path d="m191.68 46.92c5.39 3.31 16 7.52 28.3 11s23.41 5.32 29.88 5.35c-.35 65-.11 119.48 4.82 135.35 2.54 8.58 6.41 24.57 4.4 31.73s-6.35 8-7.17 11l-24.52 87.37c-3.74 13.3 2.7 14.7.62 22.67s-10.07 21.32-11.16 24.6c-18.27 51.68-30.85 100.87-35.48 147.01a4.79 4.79 0 0 1 0 3l-7.37 26.43c-3.73 13.31-46.13 14.93-93.25 1.71-46.82-13.14-82.33-36.07-78.45-49.89l7.39-26.35v-.13c20.78-42.47 36-91.75 47.65-146.72.62-3.41.85-18.8 3.07-26.73 2.59-7.85 8.83-5.82 12.59-19.12l24.46-87.2c.86-3.07-2.43-5.92-.42-13.09s13.48-18.85 20.3-24.94c12.11-10.97 40.66-57.37 74.34-113.05z" fill="#babdbc" fill-rule="evenodd" opacity=".28"/><path d="m191.68 46.92c5.39 3.31 16 7.52 28.3 11s23.41 5.32 29.88 5.35c-.35 65-.11 119.48 4.82 135.35 2.54 8.58 6.41 24.57 4.4 31.73s-6.35 8-7.17 11l-24.52 87.37c-3.74 13.3 2.7 14.7.62 22.67s-10.07 21.32-11.16 24.6c-18.27 51.68-30.85 100.87-35.48 147.01a4.79 4.79 0 0 1 0 3l-7.37 26.43c-3.73 13.31-46.13 14.93-93.25 1.71-46.82-13.14-82.33-36.07-78.45-49.89l7.39-26.35v-.13c20.78-42.47 36-91.75 47.65-146.72.62-3.41.85-18.8 3.07-26.73 2.59-7.85 8.83-5.82 12.59-19.12l24.46-87.2c.86-3.07-2.43-5.92-.42-13.09s13.48-18.85 20.3-24.94c12.11-10.97 40.66-57.37 74.34-113.05z" fill="none" stroke="#ea1e26" stroke-miterlimit="2.6131" stroke-width=".720767"/><path d="m72.6 285.92c.41 8.26 32.89 24.41 73.35 35.77 40.16 11.27 75.66 14.19 81.15 8-3.29 12.33 2.91 13.93.91 21.65-2.06 8-10.07 21.32-11.16 24.6-14 39.42-24.55 77.16-30.94 113.32l-15.16 51s-33.38 16.85-85.34-2.15-70.9-43.91-65.95-61.56l20.87-78.6c6.47-21.23 12.05-43.54 17.05-66.85.62-3.41.85-18.8 3.07-26.73 2.31-7.63 8.48-5.9 12.15-18.4z" fill="#121617" fill-rule="evenodd" opacity=".56"/><path d="m240.84 247.3c-14.25 1-41-2.68-70.59-11-29.87-8.38-55.15-19.2-66.59-27.66l3.29-8c.86-3.08-2.43-5.93-.42-13.09s13.47-18.86 20.3-24.95c6.66-6.13 15.69-24.3 28.26-49.06 3.46 4.7 21.64 12.83 44.09 19.13 22 6.17 41.06 8.63 46.9 6.68-2.11 27.56-3.7 47.81-.89 56.61 2.54 8.58 6.41 24.57 4.4 31.73s-6.34 8-7.17 11l-1.58 8.67z" fill="#121617" fill-rule="evenodd" opacity=".56"/><path d="m60.21 530c-14.84-7.88-23.38-13.32-27.55-16.69-7.09-5.72-5.28-8.52-2.89-14.61 23.41-57.87 42.06-106.7 51.83-157.95 1.33-7.77 7.62-15-5.12-26.69m73.86 239.33c13-69.49 25.18-125.56 46.89-179.22 3.21-7.8 1.82-17.43 19.58-20.59" style="fill:none;stroke:#fff;stroke-linecap:round;stroke-linejoin:round;stroke-width:4;opacity:.71"/><path d="m203.32 117.26c25.61 7.18 45.51 16.49 44.33 20.72s-23 1.81-48.63-5.37-45.67-16.54-44.48-20.76 23.18-1.78 48.78 5.41z" fill="#121617" fill-rule="evenodd" opacity=".56"/><path d="m203.32 117.26c25.61 7.18 45.51 16.49 44.33 20.72s-23 1.81-48.63-5.37-45.67-16.54-44.48-20.76 23.18-1.78 48.78 5.41z" fill="none"/><path d="m196.25 64.07a703.94 703.94 0 0 1 -68.36 113.58c-7.24 10-12.41 13.22-2.58 27.43" style="fill:none;stroke:#fff;stroke-linecap:round;stroke-linejoin:round;stroke-width:4;opacity:.71"/><path d="m226.41 325.72c-5.52 5.7-40.75 2.41-80.91-8.86-42-11.8-75.32-28.13-73.24-35.56l21.74-77.48c1.71 7.85 33.61 23 73.77 34.29 42.36 11.88 79 14.93 81.05 7.73l-22.42 79.88z" fill="#fff" fill-rule="evenodd"/><path d="m258.1 37.54c-6.36.15-17.78-1.67-30.74-5.31-13.75-3.86-25.5-8.81-30.14-12.32l-3.81 10.52c-1.35 3.62-4.62 9.19-5.56 12.52-.82 2.94 13.64 9.76 32.29 15s34.55 6.94 35.37 4c.9-3.19.57-9.91 1.06-13.5l1.53-10.89z" fill="#babdbc" fill-rule="evenodd" opacity=".13"/><path d="m258.1 37.54c-6.36.15-17.78-1.67-30.74-5.31-13.75-3.86-25.5-8.81-30.14-12.32l-3.81 10.52c-1.35 3.62-4.62 9.19-5.56 12.52-.82 2.94 13.64 9.76 32.29 15s34.55 6.94 35.37 4c.9-3.19.57-9.91 1.06-13.5l1.53-10.89z" fill="none" stroke="#121617" stroke-miterlimit="2.6131" stroke-width="3"/><path d="m233.32 11c18.65 5.24 33.11 12 32.25 15.12s-16.72 1.25-35.37-4-33.12-12-32.29-15 16.76-1.36 35.41 3.88z" fill="#ea1e26" fill-rule="evenodd"/><path d="m233.32 11c18.65 5.24 33.11 12 32.25 15.12s-16.72 1.25-35.37-4-33.12-12-32.29-15 16.76-1.36 35.41 3.88z" fill="none" stroke="#121617" stroke-miterlimit="2.6131" stroke-width="3"/><path d="m265.3 26.45c-2.53 2.33-17.56.6-35-4.28-18-5.06-32.52-11.75-32.44-15l-2.84 10.1c.44 3.3 13.76 9.94 32.25 15.13s34.43 6.76 35.25 3.81l2.73-9.72z" fill="#ea1e26" fill-rule="evenodd"/><path d="m265.3 26.45c-2.53 2.33-17.56.6-35-4.28-18-5.06-32.52-11.75-32.44-15l-2.84 10.1c.44 3.3 13.76 9.94 32.25 15.13s34.43 6.76 35.25 3.81l2.73-9.72z" fill="none" stroke="#121617" stroke-miterlimit="2.6131" stroke-width="3"/><g fill="#fff"><path d="m200.5 27a161.89 161.89 0 0 0 21.33 8.47 57.61 57.61 0 0 1 -5.74 17.43 177 177 0 0 1 -22.09-8.65c2.25-5.71 5-11.25 6.5-17.25z" fill-rule="evenodd" opacity=".59"/><g font-family="FrankfurterStd, Frankfurter Std" font-size="17"><text transform="matrix(.92796639 .37266388 -.37266388 .92796639 97.9 287.51)">s</text><text transform="matrix(.94 .35 -.35 .94 106.74 291.08)">c</text><text transform="matrix(.94653671 .32259612 -.32259612 .94653671 118.05 295.31)">h</text><text transform="matrix(.9580729 .28652455 -.28652455 .9580729 128.88 299.03)">o</text><text transform="matrix(.97 .24 -.24 .97 141.66 302.81)">l</text><text transform="matrix(.98195871 .18909544 -.18909544 .98195871 150.59 305.1)">a</text><text transform="matrix(.99470282 .10279254 -.10279254 .99470282 162.65 307.4)">r</text></g><text transform="matrix(.99995052 .00994821 -.00994821 .99995052 173.51 308.39)"/><g font-family="FrankfurterStd, Frankfurter Std" font-size="17"><text transform="matrix(.99351245 -.11372343 .11372343 .99351245 179.36 308.53)">2</text><text transform="matrix(.99984154 -.01780142 .01780142 .99984154 188.65 307.4)">0</text><text transform="matrix(1 .03 -.03 1 201.54 307.27)">1</text><text transform="matrix(.99769613 .06784116 -.06784116 .99769613 207.75 307.46)">3</text></g></g><path d="m93 214-18 68s62 39 153 43l18-71s-72 8.45-153-40z" fill="#ea1e26" fill-rule="evenodd"/><path d="m191.1 46.75c5.41 3.32 16.05 7.55 28.44 11s23.53 5.36 30 5.39c-.26 65.07.05 119.53 5 135.42 2.57 8.58 6.47 24.58 4.46 31.75s-6.36 8-7.19 10.95l-24.52 87.38c-3.73 13.3 2.73 14.7.66 22.68s-10.09 21.32-11.18 24.6c-18.29 51.72-30.89 100.91-35.46 147.1a4.72 4.72 0 0 1 0 3l-7.31 26.41c-3.73 13.31-46.33 14.88-93.69 1.59-47-13.2-82.74-36.2-78.86-50l7.39-26.35v-.14c20.83-42.45 36-91.74 47.68-146.7.62-3.42.83-18.81 3-26.74 2.55-7.85 8.83-5.81 12.56-19.12l24.48-87.24c.87-3.07-2.44-5.93-.43-13.1s13.51-18.84 20.36-24.92c12.16-10.94 40.76-57.29 74.55-112.95z" fill="none" stroke="#121617" stroke-miterlimit="2.6131" stroke-width="3"/><g fill="#fff"><path d="m89.55 262.49a1.84 1.84 0 0 1 2.56-.58 2.51 2.51 0 0 1 1.07 1.24c.51 1 .57 1.14.85 1.3a.51.51 0 0 0 .73-.18.54.54 0 0 0 -.06-.59 3.63 3.63 0 0 0 -.59-.71c-.26-.27-.52-.53-.76-.81-1.38-1.45-1.67-2.87-.87-4.29 1.1-2 3.58-2.39 6.06-1 2.06 1.15 3.13 3 2.43 4.28a1.58 1.58 0 0 1 -2.25.57 3.05 3.05 0 0 1 -1.24-1.45c-.23-.51-.38-.69-.58-.81a.51.51 0 0 0 -.67.15c-.17.31 0 .58.74 1.34a8.73 8.73 0 0 1 1.84 2.43 3.45 3.45 0 0 1 -.19 3 3.83 3.83 0 0 1 -2.43 1.83 5.26 5.26 0 0 1 -3.78-.77c-2.41-1.33-3.67-3.5-2.86-4.95z"/><path d="m108.66 274.29a7.6 7.6 0 0 1 -4.78-.71c-3.41-1.74-4.93-5.58-3.39-8.59s5.58-4.05 9-2.31a7.45 7.45 0 0 1 3.25 3.25 3.08 3.08 0 0 1 .37 2.78 2.06 2.06 0 0 1 -2.8.74 2.1 2.1 0 0 1 -1-1l-.29-.83a2.67 2.67 0 0 0 -1.34-1.47 2.29 2.29 0 1 0 -2.09 4 2.86 2.86 0 0 0 2.07.19l.59-.17a2.25 2.25 0 0 1 1.58.18 2.11 2.11 0 0 1 1.07 2.65 3 3 0 0 1 -2.24 1.29z"/><path d="m115.56 276.27c-.42.87-.58 1.07-1 1.33a2.32 2.32 0 0 1 -3.27-1.51 2.39 2.39 0 0 1 .35-1.63l2.94-6.4c.34-.74.58-1 1.07-1.24a2.34 2.34 0 0 1 1.87 0 2.42 2.42 0 0 1 1.27 1.42c.14.53.11.79-.31 1.69l-.68 1.5 2.39 1.1.66-1.45c.39-.84.61-1.13 1.13-1.37a2.17 2.17 0 0 1 1.83 0 2.29 2.29 0 0 1 1.26 1.39 2.18 2.18 0 0 1 -.23 1.64l-3 6.43a2.28 2.28 0 0 1 -1 1.23 2.21 2.21 0 0 1 -2.05.08 2.25 2.25 0 0 1 -1.25-1.42 2.29 2.29 0 0 1 .33-1.7l.71-1.53-2.39-1.1z"/><path d="m133.16 273.54c3.55 1.44 5.38 5.14 4.1 8.26s-5.19 4.52-8.7 3.09-5.37-5.16-4.07-8.35 5.13-4.45 8.67-3zm-3.16 7.82a2.47 2.47 0 0 0 3.25-1.17 2.6 2.6 0 0 0 -4.76-2 2.48 2.48 0 0 0 1.51 3.17z"/><path d="m144.22 286.64a2.65 2.65 0 0 1 1.32.85 1.73 1.73 0 0 1 .3 1.62 1.84 1.84 0 0 1 -1.1 1.08 2.29 2.29 0 0 1 -1.64-.12l-3.88-1.38a2.35 2.35 0 0 1 -1.52-1.19c-.32-.68-.29-.94.25-2.46l2.21-6.2a2 2 0 0 1 2.74-1.32 2.28 2.28 0 0 1 1.36 1.23c.21.57.19.93-.18 2l-1.86 5.21z"/><path d="m148.25 291.92a2 2 0 0 1 -1.49-2.47 2.23 2.23 0 0 1 .56-.89l6.2-6.22a2.2 2.2 0 0 1 2.23-.52 2.24 2.24 0 0 1 1.6 1.71l1.64 8.71a1.82 1.82 0 0 1 0 1 2.07 2.07 0 0 1 -2.65 1.19c-1-.29-1.4-.87-1.63-2.18l-3.85-1.25a2.32 2.32 0 0 1 -2.61.92zm6-2.77-.23-1.54-1 1.15z"/><path d="m170.25 294.75a2.21 2.21 0 0 1 .1 1.31 2 2 0 0 1 -2.55 1.31 2.06 2.06 0 0 1 -1.52-1.3l-1.1-3-.38 1.54a2 2 0 0 1 -2.53 1.38 2.34 2.34 0 0 1 -1.47-1.09 2.29 2.29 0 0 1 -.1-1.72l1.73-7a1.91 1.91 0 0 1 1.1-1.49 2.7 2.7 0 0 1 2 0l1.75.43a8.83 8.83 0 0 1 2 .68 4.29 4.29 0 0 1 2.37 4.73 3.9 3.9 0 0 1 -2.07 2.55zm-4.25-5 .17.05.28.07c.63.17 1 .05 1.1-.36s-.18-.71-.82-.85l-.43-.13z"/><path d="m186.66 297.47a1.71 1.71 0 0 1 .63 1.61 1.79 1.79 0 0 1 -.83 1.26 2.2 2.2 0 0 1 -1.74.17l-4.93-.79c-1.28-.2-2-1-1.79-2.08a1.87 1.87 0 0 1 1-1.38l4.43-3.06c.36-.25.46-.36.49-.55a.54.54 0 0 0 -.49-.57.57.57 0 0 0 -.52.16l-.43.45a2.09 2.09 0 0 1 -1.68.44 2.06 2.06 0 0 1 -1.86-2.21c.28-1.71 2.75-3 5.08-2.63a4.63 4.63 0 0 1 4.15 5.13c-.23 1.4-1 2.22-3.11 3.49a2.87 2.87 0 0 1 1.6.56z"/><path d="m197 289.89c3.8.32 6.64 3.3 6.35 6.68s-3.61 5.85-7.39 5.53-6.63-3.32-6.34-6.72 3.55-5.81 7.38-5.49zm-.71 8.39a2.31 2.31 0 1 0 -2.37-2.54 2.47 2.47 0 0 0 2.35 2.54z"/><path d="m204.51 292.45a1.63 1.63 0 0 1 .82-1.41 2.58 2.58 0 0 1 1.61-.34h.65a2.61 2.61 0 0 1 1.86.51 1.89 1.89 0 0 1 .69 1.81l-.1 7.32a2.06 2.06 0 0 1 -2.17 2.12 2.38 2.38 0 0 1 -1.68-.74 1.88 1.88 0 0 1 -.47-1.44l.08-6.11a1.73 1.73 0 0 1 -1.29-1.72z"/><path d="m221.35 298.15c.11 2.25-2 4.25-4.66 4.38-2.37.12-4.7-1.43-4.79-3.18a2.2 2.2 0 0 1 3.79-1.29c.5.64.52.66.84.64a.56.56 0 0 0 .54-.57c0-.28-.18-.46-.58-.6-.76-.26-1.09-.6-1.12-1.19a1.11 1.11 0 0 1 .58-1.06l.52-.24a.53.53 0 0 0 .36-.49.55.55 0 0 0 -.57-.5c-.24 0-.35.11-.61.47a2.07 2.07 0 0 1 -1.66.9 2 2 0 0 1 -2.23-1.73c-.08-1.62 2-3.29 4.26-3.4 2.53-.12 4.79 1.54 4.89 3.6a2.5 2.5 0 0 1 -.79 1.95 3.06 3.06 0 0 1 1.23 2.31z"/><path d="m115.12 255a7.58 7.58 0 0 1 -4.78-.68c-3.43-1.72-5-5.55-3.46-8.57s5.55-4.09 9-2.37a7.37 7.37 0 0 1 3.28 3.23 3.06 3.06 0 0 1 .38 2.78 2 2 0 0 1 -2.79.75 2.07 2.07 0 0 1 -1-1l-.28-.83a2.76 2.76 0 0 0 -1.36-1.46 2.29 2.29 0 1 0 -2.06 4.06 2.8 2.8 0 0 0 2.07.17l.59-.17a2.26 2.26 0 0 1 1.58.17 2.12 2.12 0 0 1 1.09 2.66 3 3 0 0 1 -2.26 1.26z"/><path d="m127.91 249.09c3.49 1.56 5.19 5.31 3.82 8.4s-5.34 4.34-8.8 2.79-5.19-5.32-3.79-8.47 5.27-4.28 8.77-2.72zm-3.43 7.71a2.46 2.46 0 0 0 3.29-1.06 2.59 2.59 0 0 0 -4.69-2.11 2.47 2.47 0 0 0 1.4 3.17z"/><path d="m141.74 266.34a7.6 7.6 0 0 1 -4.82-.22c-3.57-1.39-5.46-5.06-4.24-8.21s5.15-4.59 8.71-3.21a7.33 7.33 0 0 1 3.57 2.92 3.07 3.07 0 0 1 .64 2.73 2.07 2.07 0 0 1 -2.71 1 2.09 2.09 0 0 1 -1.09-.94l-.37-.8a2.65 2.65 0 0 0 -1.43-1.31 2.29 2.29 0 1 0 -1.67 4.23 2.79 2.79 0 0 0 2.07 0l.57-.23a2.32 2.32 0 0 1 1.6 0 2.11 2.11 0 0 1 1.32 2.55 3 3 0 0 1 -2.15 1.49z"/><path d="m145.76 269.19a2 2 0 0 1 -1.42-2.5 2.15 2.15 0 0 1 .58-.88l6.35-6.05a2.16 2.16 0 0 1 2.25-.47 2.23 2.23 0 0 1 1.54 1.75l1.43 8.74a1.72 1.72 0 0 1 -.05 1 2.06 2.06 0 0 1 -2.67 1.12c-1-.31-1.37-.9-1.58-2.22l-3.8-1.27a2.3 2.3 0 0 1 -2.63.78zm6-2.62-.16-1.57-1.08 1.12z"/><path d="m162.29 267c1 .28 1.47.9 1.28 1.58s-1 1-1.91.71l-2.17-.63c-.73-.22-1-.39-1.27-.83a1 1 0 0 1 -.12-.84 1 1 0 0 1 .64-.67 2 2 0 0 1 1.42.05z"/><path d="m175 276.24a7.53 7.53 0 0 1 -4.81.4c-3.72-.91-6.08-4.3-5.28-7.58s4.5-5.23 8.22-4.31a7.37 7.37 0 0 1 3.91 2.42 3 3 0 0 1 1 2.62 2.07 2.07 0 0 1 -2.56 1.36 2.12 2.12 0 0 1 -1.2-.78l-.46-.75a2.68 2.68 0 0 0 -1.65-1.12 2.29 2.29 0 1 0 -1.1 4.41 2.77 2.77 0 0 0 2-.29l.54-.3a2.29 2.29 0 0 1 1.58-.19 2.11 2.11 0 0 1 1.65 2.35 3 3 0 0 1 -1.84 1.76z"/><path d="m186.5 267.56c3.78.66 6.34 3.88 5.76 7.21s-4.12 5.51-7.85 4.86-6.34-3.91-5.74-7.3 4.06-5.44 7.83-4.77zm-1.43 8.31a2.47 2.47 0 0 0 2.93-1.87 2.6 2.6 0 0 0 -5.07-.91 2.48 2.48 0 0 0 2.14 2.78z"/><path d="m200.21 277.87a2.6 2.6 0 0 1 1.48.51 1.76 1.76 0 0 1 .66 1.52 1.82 1.82 0 0 1 -.81 1.3 2.35 2.35 0 0 1 -1.63.26l-4.1-.45a2.33 2.33 0 0 1 -1.75-.81c-.47-.58-.5-.84-.32-2.44l.72-6.54a2 2 0 0 1 2.36-1.93 2.33 2.33 0 0 1 1.6.88c.34.51.4.87.28 2l-.6 5.5z"/><path d="m205.52 282a2 2 0 0 1 -2.06-2 2.3 2.3 0 0 1 .32-1l4.43-7.57a2.17 2.17 0 0 1 2-1.07 2.23 2.23 0 0 1 2 1.25l3.79 8a1.93 1.93 0 0 1 .22.94 2.06 2.06 0 0 1 -2.26 1.81c-1 0-1.57-.48-2.13-1.7l-4-.17a2.32 2.32 0 0 1 -2.31 1.51zm5.07-4.18-.61-1.43-.72 1.37z"/></g></svg>