<svg height="378" viewBox="0 0 128 378" width="128" xmlns="http://www.w3.org/2000/svg"><rect fill="#472821" height="222.29" rx="5.11" transform="matrix(.99959536 -.02844503 .02844503 .99959536 -7.09 1.94)" width="11.41" x="59.19" y="139.74"/><path d="m25.3 73.18c-1-1.74-5-7.37-10.6-1.38 0 0-9.53 29.05 11.77 33.83a118.09 118.09 0 0 1 -1.59-13.26 158 158 0 0 1 .42-19.19z" fill="#fdaa04"/><path d="m105.16 69.23c-5.93-5.66-9.58.19-10.5 2a159.59 159.59 0 0 1 1.5 19.13 119.11 119.11 0 0 1 -.83 13.32c21-6 9.83-34.45 9.83-34.45z" fill="#e39904"/><path d="m59.77 67.64.08-.06-1.44-50.72s-8.12 1.78-16.35 10.87l.93 33c4.34 0 10.55 1.28 16.78 6.9z" fill="#fff"/><path d="m53.76 137.6c-.11-4 3.41-7.27 7.86-7.4l-.26-9.11c-7.35 1.55-9.79-3.91-9.79-3.91-1.74-4.29 5.77-7.34 5.77-7.34-8.43-12.61 2.8-31.61 2.81-31.63l-.1-3.42-.05-.06c-1.39 1.27-7.33 6.27-15.54 6.53h-.88l1.9 66.88a31.26 31.26 0 0 0 16.89 8.36l-.34-12c-4.46.13-8.16-3-8.27-6.94z" fill="#fff"/><path d="m76.28 59.79-.93-33c-8.74-8.61-16.92-9.92-16.94-9.93l1.44 50.72c5.95-5.98 12.15-7.58 16.43-7.79z" fill="#e6e6e6"/><path d="m75.83 80.37c-8.07.22-14.22-4.3-15.78-5.58l.1 3.42s12.3 18.34 4.59 31.42c0 0 7.67 2.62 6.19 7 0 0-2.13 5.59-9.56 4.46l.26 9.11c4.46-.12 8.17 3 8.28 6.94s-3.41 7.28-7.87 7.4l.34 12a31.3 31.3 0 0 0 16.39-9.31l-1.9-66.92-1 .06z" fill="#e6e6e6"/><path d="m47.14 76.12a14.91 14.91 0 0 1 -3.7.35 14.15 14.15 0 0 1 -5.19-1.19 20.06 20.06 0 0 1 -7.11-5.51 20 20 0 0 1 8.29-3.88 16.83 16.83 0 0 1 3.7-.36 16.59 16.59 0 0 1 4.54.67 21.48 21.48 0 0 1 8.58 5.1 20.86 20.86 0 0 1 -9.11 4.82zm12.63-8.48c-6.23-5.64-12.44-6.9-16.77-6.9l-.93-33c-6.73 7.42-13.54 19.72-16.17 39.92-.14 1.13-.28 2.28-.4 3.45-.07.69-.13 1.38-.19 2.08a158 158 0 0 0 -.42 19.19 118.09 118.09 0 0 0 1.59 13.26c2.19 12.72 7.3 31.57 19 42.51l-1.9-66.88h.88c8.21-.27 14.15-5.27 15.54-6.54l.07.06-.2-7.21-.08.06z" fill="#472821"/><path d="m81.7 74a14.11 14.11 0 0 1 -5 1.47 14.53 14.53 0 0 1 -3.86-.12 20.79 20.79 0 0 1 -9.37-4.3 21.24 21.24 0 0 1 8.27-5.57 16.93 16.93 0 0 1 4.65-.94 17.37 17.37 0 0 1 3.57.16 20 20 0 0 1 8.5 3.4 20 20 0 0 1 -6.76 5.9zm13-2.82c-.11-.75-.22-1.5-.34-2.23-.17-1.06-.35-2.1-.54-3.13-3.82-20.06-11.32-31.99-18.47-39.03l.93 33c-4.28.21-10.48 1.81-16.43 7.79l.2 7.21c1.56 1.28 7.71 5.8 15.78 5.58l1-.06 1.89 66.88c11.07-11.59 15.1-30.69 16.57-43.52a119.11 119.11 0 0 0 .83-13.32 159.59 159.59 0 0 0 -1.5-19.13z" fill="#472821"/><path d="m83.39 69.86a5.77 5.77 0 0 1 -1.69 4.14 20 20 0 0 0 6.79-5.9 20 20 0 0 0 -8.5-3.4 6 6 0 0 1 3.4 5.12z" fill="#e6e6e6"/><path d="m69.46 70.26a5.9 5.9 0 0 1 2.31-4.74 21.24 21.24 0 0 0 -8.27 5.57 20.79 20.79 0 0 0 9.37 4.3 6.05 6.05 0 0 1 -3.41-5.13z" fill="#e6e6e6"/><path d="m80 64.74a17.37 17.37 0 0 0 -3.57-.16 16.93 16.93 0 0 0 -4.65.94 5.9 5.9 0 0 0 -2.31 4.74 6.05 6.05 0 0 0 3.41 5.13 14.53 14.53 0 0 0 3.86.12 14.11 14.11 0 0 0 5-1.47 5.77 5.77 0 0 0 1.69-4.18 6 6 0 0 0 -3.43-5.12z" fill="#0063db"/><path d="m61.37 121.09c7.43 1.13 9.56-4.46 9.56-4.46 1.48-4.38-6.19-7-6.19-7 7.71-13.08-4.59-31.42-4.59-31.42l1.21 42.88z" fill="#e39904"/><path d="m57.34 109.84s-7.51 3-5.77 7.34c0 0 2.44 5.46 9.79 3.91l-1.21-42.88s-11.24 19-2.81 31.63z" fill="#fdaa04"/><path d="m62 144.54c4.46-.12 8-3.44 7.87-7.4s-3.82-7.06-8.28-6.94z" fill="#cf3b00"/><path d="m53.76 137.6c.11 4 3.81 7.07 8.27 6.94l-.41-14.34c-4.45.13-8 3.44-7.86 7.4z" fill="#e84400"/><path d="m39.43 65.89a20 20 0 0 0 -8.29 3.88 20.06 20.06 0 0 0 7.11 5.51 5.81 5.81 0 0 1 -1.93-4.08 6.06 6.06 0 0 1 3.11-5.31z" fill="#fff"/><path d="m50.25 70.81a6.06 6.06 0 0 1 -3.11 5.31 20.86 20.86 0 0 0 9.11-4.82 21.48 21.48 0 0 0 -8.58-5.1 5.89 5.89 0 0 1 2.58 4.61z" fill="#fff"/><path d="m47.67 66.2a16.59 16.59 0 0 0 -4.54-.67 16.83 16.83 0 0 0 -3.7.36 6.06 6.06 0 0 0 -3.11 5.31 5.81 5.81 0 0 0 1.93 4.08 14.15 14.15 0 0 0 5.19 1.19 14.91 14.91 0 0 0 3.7-.35 6.06 6.06 0 0 0 3.11-5.31 5.89 5.89 0 0 0 -2.58-4.61z" fill="#0072ff"/></svg>