<svg xmlns="http://www.w3.org/2000/svg" width="1772" height="1137" viewBox="0 0 1772 1137"><title>World_Space</title><g id="Layer_7" data-name="Layer 7"><g id="object"><polygon points="1236.17 1000.25 1243.08 814.39 1307.4 729.5 1235.82 649.79 1204.18 397.36 1191.73 382.32 1154.91 480.87 1057.57 700.11 1024.2 478.8 944.84 421.22 892.97 236.57 818.28 316.1 752.58 475.69 681.69 306.77 716.44 191.62 691.72 100.16 642.62 46.38 201 594 345 621 644.35 669.5 769.87 714.11 885.02 894.09 1035.44 1022.21 1179.29 1024.63 1236.17 1000.25" style="fill:#556985;fill-rule:evenodd"/><polygon points="939.65 438.51 800.3 828.22 729.93 733.65 839.37 629.04 939.65 438.51" style="fill:#2e4256;fill-rule:evenodd"/><polygon points="675.64 680.74 752.58 475.69 702.96 357.42 727.68 458.22 675.64 576.31 642.27 604.49 575.36 760.1 675.64 680.74" style="fill:#2e4256;fill-rule:evenodd"/><polygon points="682 307 512.28 780.26 428.6 581.43 682 307" style="fill:#425872;fill-rule:evenodd"/><path d="M1015,487.27l-221.13,402s78.67,22.48,77.8,18.16S1015,487.27,1015,487.27Z" style="fill:#425872;fill-rule:evenodd"/><path d="M893,236.57s-209.38,545.49-211.28,549-24.38-56-24.38-56l95.27-253.81,65.7-159.59Z" style="fill:#627b99;fill-rule:evenodd"/><polygon points="716.44 191.62 681.69 306.77 387 627 716.44 191.62" style="fill:#627b99;fill-rule:evenodd"/><polygon points="694.31 110.01 645.21 92.2 154 704 65 665 642.62 46.38 694.31 110.01" style="fill:#627b99;fill-rule:evenodd"/><polygon points="1057.57 700.11 1154.91 480.87 1103.9 369.35 971.12 285.67 892.97 236.57 944.84 421.22 1024.2 478.8 1057.57 700.11" style="fill:#1a3049;fill-rule:evenodd"/><polygon points="839.37 1000.25 925.82 795.72 1057.57 700.11 1191.73 382.32 1204.18 397.36 1056.18 831.68 988.06 894.96 933.95 995.24 971.98 858.13 1015.03 807.65 1048.06 734.86 938.61 821.3 869.46 1024.63 839.37 1000.25" style="fill:#627b99;fill-rule:evenodd"/><path d="M1243.08,814.39l-219.23,229.26s52.22,25.07,56.88,23C1085.75,1064.74,1243.08,814.39,1243.08,814.39Z" style="fill:#425872;fill-rule:evenodd"/><polygon points="1243.08 814.39 1236.17 1000.25 1713.54 795.72 1612.91 724.48 1472.17 658.78 1385.72 540.52 1204.18 397.36 1235.82 649.79 1307.4 729.5 1243.08 814.39" style="fill:#1a3049;fill-rule:evenodd"/><polygon points="1362.73 647.2 1694.69 913.46 1592.51 923.83 1362.73 647.2" style="fill:#122335;fill-rule:evenodd"/><polygon points="1318.99 594.12 1472.17 658.78 1612.91 724.48 1753.13 821.3 1703.85 837.38 1565.71 729.5 1318.99 594.12" style="fill:#223c56;fill-rule:evenodd"/><polygon points="1307.4 729.5 1545.13 972.24 1437.07 1038.81 1243.08 814.39 1307.4 729.5" style="fill:#122335;fill-rule:evenodd"/><polygon points="752.58 475.69 818.28 316.1 748.08 161.71 691.72 100.16 716.44 191.62 681.69 306.77 752.58 475.69" style="fill:#1a3049;fill-rule:evenodd"/><polygon points="226.8 1095 1015.03 1095 1179.29 1024.63 1035.44 1022.21 885.02 894.09 769.87 714.11 644.35 669.5 520.72 565.76 265 607 191 566 226.8 1095" style="fill:#627b99;fill-rule:evenodd"/><polygon points="442.92 633.37 404.88 658.78 309.79 686.97 226.8 686.97 226.8 1095 1277.49 1095 1179.29 1024.63 1035.44 1022.21 885.02 894.09 769.87 714.11 644.35 669.5 520.72 565.76 442.92 633.37" style="fill:#1a3049;fill-rule:evenodd"/><polygon points="1472.17 658.78 1379.5 535.51 1204.18 397.36 1208.85 434.02 1380.02 576.31 1472.17 658.78" style="fill:#223c56;fill-rule:evenodd"/><polygon points="769.87 714.11 807.21 865.05 921.32 1047.11 1060.68 1095 1133.47 1058.69 998.44 1029.82 825.54 853.46 811.36 778.95 769.87 714.11" style="fill:#122335;fill-rule:evenodd"/><polygon points="442.92 633.37 399.7 658.78 460.56 785.52 619.27 837.38 716.44 1095 839.37 1095 657.31 821.3 501.7 755.26 442.92 633.37" style="fill:#122335;fill-rule:evenodd"/><polygon points="226.8 686.97 309.79 686.97 368.57 875.42 534.55 1095 452.6 1095 309.79 884.07 276.94 714.11 226.8 686.97" style="fill:#122335;fill-rule:evenodd"/></g></g></svg>