<svg height="760" viewBox="0 0 576 760" width="576" xmlns="http://www.w3.org/2000/svg"><path d="m61.26 623.52h188.17 201.67l-.58 120.51h-203.39-186.44z" fill="#bbbdbf" fill-rule="evenodd"/><path d="m183.64 415 125.44 103.25h-125.44-125.44z" fill="#b5282e" fill-rule="evenodd"/><path d="m48.68 518.25h269.92v19.8h-269.92z" fill="#dfdede"/><path d="m61.77 538.05h243.73v87.44h-243.73z" fill="#bbbdbf"/><path d="m285.14 538.05h20.37v105.96h-20.37z" fill="#dfdede"/><path d="m236.99 547.17h38.31v78.31h-38.31z" fill="#41080a"/><path d="m258.92 554.07h12.35v25.96h-12.35z" fill="#dfdede"/><path d="m241.03 554.07h12.35v25.96h-12.35z" fill="#dfdede"/><path d="m91.97 547.17h38.31v78.31h-38.31z" fill="#41080a"/><path d="m113.9 554.07h12.35v25.96h-12.35z" fill="#dfdede"/><path d="m96.01 554.07h12.35v25.96h-12.35z" fill="#dfdede"/><path d="m61.77 538.05h20.36v105.96h-20.36z" fill="#dfdede"/><path d="m154.19 551.77h58.89v92.24h-58.89z" fill="#dfdede"/><path d="m160.21 558.02h46.86v85.99h-46.86z" fill="#41080a"/><path d="m183.64 415 125.44 103.25h-62.72z" fill="#d62229" fill-rule="evenodd"/><path d="m183.64 415-125.44 103.25h62.72z" fill="#95282c" fill-rule="evenodd"/><path d="m285.14 538.05h20.37v5.57h-20.37z" fill="#a6a8ab"/><path d="m61.77 538.05h20.36v5.57h-20.36z" fill="#a6a8ab"/><path d="m82.14 538.05h203v5.57h-203z" fill="#929497"/><path d="m96.01 574.39h12.35v27.46h-12.35z" fill="#dfdede"/><path d="m113.9 574.39h12.35v27.46h-12.35z" fill="#dfdede"/><path d="m241.03 574.39h12.35v27.46h-12.35z" fill="#dfdede"/><path d="m258.92 574.39h12.35v27.46h-12.35z" fill="#dfdede"/><path d="m542.42 708.58h-126.49-126.48v21.59h126.48 126.49z" fill="#b5282e" fill-rule="evenodd"/><path d="m349.07 708.58h-59.62v21.59h58.14z" fill="#d62229" fill-rule="evenodd"/><path d="m542.42 708.58h-59.63l1.48 21.59h58.15z" fill="#95282c" fill-rule="evenodd"/><path d="m563 730.17h-147.07-147.06v21.6h147.06 147.07z" fill="#b5282e" fill-rule="evenodd"/><path d="m347.59 730.17h-78.72v21.6h77.23z" fill="#d62229" fill-rule="evenodd"/><path d="m563 730.17h-78.73l1.49 21.6h77.24z" fill="#95282c" fill-rule="evenodd"/><path d="m268.87 730.17h294.13v4.13h-294.13z" fill="#95282c"/><path d="m484.27 730.17h78.73v4.13h-78.44z" fill="#762022" fill-rule="evenodd"/><path d="m289.45 708.58h252.98v5.36h-252.98z" fill="#95282c"/><path d="m482.79 708.58h59.63v5.36h-59.26z" fill="#762022" fill-rule="evenodd"/><path d="m395.71 639.42h40.44v69.16h-40.44z" fill="#41080a"/><path d="m328.09 175.4h175.69v13.77h-175.69z" fill="#282928"/><g fill-rule="evenodd"><path d="m415.94 65.86h71.53l-71.53-37.71-71.54 37.71z" fill="#393a3a"/><path d="m415.93 708.58h-108.32l14.45-165.04h93.87 93.87l14.45 165.04z" fill="#b5282e"/><path d="m349.08 708.58h-41.47l14.45-165.04h38.37z" fill="#95282c"/><path d="m471.44 543.54h38.36l14.45 165.04h-41.45z" fill="#d62229"/><path d="m321.68 547.89.38-4.35h93.87 93.87l.38 4.35z" fill="#95282c"/><path d="m321.68 547.89.38-4.35h38.37l-.3 4.35z" fill="#762022"/><path d="m415.93 543.54h-101.49l28.21-19.95h73.28 73.28l28.22 19.95z" fill="#b5282e"/><path d="m360.43 543.54h-45.99l28.21-19.95h36.52z" fill="#95282c"/><path d="m452.7 523.59h36.51l28.22 19.95h-45.99z" fill="#d62229"/><path d="m474.47 275.51-3.84-64.75h-109.39l-3.85 64.75zm-126.37 156.49h135.67l5.44 91.63-10.67-179.63h-125.21l-10.68 179.59z" fill="#b5282e"/><path d="m391.22 275.51-1.87 38.64 5-103.39h-33.11l-3.85 64.75zm-43.12 156.49h35.52l4.28-88h-34.57l-10.68 179.59z" fill="#95282c"/><path d="m444 344 4.27 88h35.52l5.44 91.63-10.69-179.63zm-1.45-29.81-1.88-38.64h33.82l-3.84-64.75h-33.14z" fill="#d62229"/><path d="m361 214.75.24-3.99h54.69 54.7l.23 3.99z" fill="#95282c"/><path d="m361 214.75.24-3.99h33.13l-.2 3.99z" fill="#762022"/><path d="m478.54 344-4.07-68.45h-117.08l-4.06 68.45zm10.67 179.63-5.44-91.63h-135.67l-5.45 91.63z" fill="#dfdede"/><path d="m353.33 344 4.06-68.45h33.83l-3.32 68.45zm30.29 88h-35.52l-5.45 91.63h36.52z" fill="#bbbdbf"/><path d="m478.54 344-4.07-68.45h-33.82l3.35 68.45zm-25.84 179.59h36.51l-5.44-91.59h-35.52z" fill="#fff"/><path d="m415.93 210.76h-71.56v-9.65h71.56 71.57v9.65z" fill="#b5282e"/><path d="m394.37 210.76h-50v-9.65h50.46z" fill="#95282c"/><path d="m437.04 201.11h50.46v9.65h-49.99z" fill="#d62229"/><path d="m415.93 201.11h-87.84v-11.94h87.84 87.85v11.94z" fill="#b5282e"/><path d="m394.83 201.11h-66.74v-11.94h67.33z" fill="#95282c"/><path d="m436.46 189.17h67.32v11.94h-66.74z" fill="#d62229"/><path d="m415.94 28.15 35.76 37.71h-35.76-35.77z" fill="#282928"/><path d="m415.94 28.15-35.77 37.71h-35.77z" fill="#161715"/><path d="m475.5 175.4h-119.12v-109.54h119.12z" fill="#b5282e"/><path d="m475.5 65.86h-39.71v16.57l.21 17.57v16l-.21 15.54v43.86h39.71z" fill="#d62229"/><path d="m396.08 65.86h-39.7v109.54h39.7v-43.86l-.08-15.54v-18l.08-15.57z" fill="#95282c"/><path d="m328.09 175.4h3.32v-22.87a1.77 1.77 0 0 1 1.75-1.75h35.93v24.62h3.32v-24.62h41.87v24.62h3.32v-24.62h41.86v24.62h3.32v-24.62h35.93a1.76 1.76 0 0 1 1.75 1.75v22.87h3.32v-22.87a5.09 5.09 0 0 0 -5.07-5.07h-165.55a5.1 5.1 0 0 0 -5.07 5.07z" fill="#282928"/></g><path d="m344.37 201.11h143.13v2.16h-143.13z" fill="#95282c"/><path d="m394.83 201.11h-50.46v2.16h50.36z" fill="#762022" fill-rule="evenodd"/><path d="m361.5 80.43h8.5v44.57h-8.5z" fill="#fff" stroke="#f2f2f2" stroke-miterlimit="10"/></svg>