<svg height="167" viewBox="0 0 254 167" width="254" xmlns="http://www.w3.org/2000/svg"><rect fill="#fff" height="96.9" rx="12" stroke="#1a1a1a" stroke-miterlimit="10" stroke-width="6" transform="matrix(.93636622 -.35102465 .35102465 .93636622 -21.13 42.44)" width="144.71" x="34.11" y="31.05"/><g fill="#0f0f0f"><path d="m81.79 78.47a10.76 10.76 0 0 1 -5.69 4.86 10.52 10.52 0 1 1 0-19.78c2 .67 3.18 1.67 3.63 2.91a3.31 3.31 0 0 1 -2 4.23 3 3 0 0 1 -2.22-.06l-1.22-.63a3.93 3.93 0 1 0 -.48 7.2 4.08 4.08 0 0 0 2.32-2.24l.41-.91a3.27 3.27 0 0 1 1.82-1.68 3.39 3.39 0 0 1 4.21 1.93c.43 1.09.13 2.53-.78 4.17z"/><path d="m89.15 56.28a10.52 10.52 0 1 1 -6.4 13.35 10.51 10.51 0 0 1 6.4-13.35zm4.93 13.61a4 4 0 0 0 2.36-5.06 3.93 3.93 0 0 0 -7.44 2.64 4 4 0 0 0 5.08 2.42z"/><path d="m110.88 48.45a10.52 10.52 0 1 1 -6.4 13.36 10.53 10.53 0 0 1 6.4-13.36zm4.94 13.62a4 4 0 0 0 2.36-5.07 3.94 3.94 0 0 0 -7.42 2.63 4 4 0 0 0 5.06 2.44z"/><path d="m137.36 54.16a3.7 3.7 0 0 1 2.41-.23 3.09 3.09 0 0 1 2 1.89 3.34 3.34 0 0 1 -.16 2.58 3.3 3.3 0 0 1 -2 1.53l-5.94 2.14a3.36 3.36 0 0 1 -3 0c-1.06-.57-1.3-1-2.24-3.56l-3.82-10.63c-.77-2.12 0-3.95 1.81-4.62a3.37 3.37 0 0 1 2.84.26c.84.56 1.19 1.07 1.83 2.85l3.21 8.94z"/><path d="m76.6 116.06a3 3 0 0 1 1.81-3.85 3.53 3.53 0 0 1 2.54.12c1.73.55 1.94.6 2.39.44a.81.81 0 0 0 .5-1.1.94.94 0 0 0 -.77-.62 5.54 5.54 0 0 0 -1.44-.09c-.57 0-1.14 0-1.72 0-3.08 0-5.08-1.26-6-3.89-1.32-3.68.6-7.21 4.7-8.69 3.39-1.22 6.7-.37 7.53 2a2.57 2.57 0 0 1 -1.5 3.45 4.28 4.28 0 0 1 -3-.15c-.84-.3-1.2-.33-1.54-.21a.79.79 0 0 0 -.47 1c.2.57.69.68 2.33.63a12.87 12.87 0 0 1 4.73.53 6.24 6.24 0 0 1 3.49 3.76 6.86 6.86 0 0 1 -.17 5.14 7.46 7.46 0 0 1 -4.6 3.79c-4 1.41-7.84.42-8.81-2.26z"/><path d="m92.19 100.55a3.19 3.19 0 0 1 -2.64 0 3.1 3.1 0 0 1 -1.62-1.74 3.16 3.16 0 0 1 .67-3.18c.55-.52.8-.64 3.25-1.53l6.28-2.25a11.47 11.47 0 0 1 2.14-.71 3 3 0 0 1 3.56 1.91 3.28 3.28 0 0 1 -.21 2.6 3.66 3.66 0 0 1 -2.16 1.54l-1.38.5 3.37 9.39a4.39 4.39 0 0 1 .33 2.59 3.14 3.14 0 0 1 -2.06 2.34 3.34 3.34 0 0 1 -3-.37 4.16 4.16 0 0 1 -1.43-2.27l-3.43-9.37z"/><path d="m114.77 98.27c.49 1.35 1.4 2 2.48 1.56s1.41-1.4.94-2.7l-2.71-7.52c-.5-1.39-.54-1.85-.21-2.73a3.26 3.26 0 0 1 2-2 3.51 3.51 0 0 1 2.84.25c.85.49 1.19 1 1.8 2.71l2.42 6.69a8.87 8.87 0 0 1 .14 6.63 8.35 8.35 0 0 1 -12.56 3.94c-1.73-1.16-2.58-2.36-3.47-4.85l-2.44-6.69c-.64-1.78-.69-2.27-.41-3.17a3.32 3.32 0 0 1 4.67-1.94 3.66 3.66 0 0 1 1.81 2.38z"/><path d="m134.28 95.36c.66 1.84.74 2.23.55 3.12a3.28 3.28 0 0 1 -5.38 1.75c-.59-.59-.78-.93-1.4-2.66l-3.92-10.88c-.6-1.67-.54-2.65.22-3.66a3.64 3.64 0 0 1 1.33-1 16.06 16.06 0 0 1 1.62-.64l3.7-1.39c2-.73 2.45-.82 3.31-.65a2.93 2.93 0 0 1 2.18 1.9 3.06 3.06 0 0 1 -2.27 4.17l-3.13 1.13.46 1.3 1.93-.69a3.74 3.74 0 0 1 2.14-.36 2.27 2.27 0 0 1 1.71 1.49c.53 1.47-.13 2.64-1.92 3.28l-2.23.8z"/><path d="m148.38 90.28c.66 1.84.74 2.23.55 3.13a3.26 3.26 0 0 1 -5.37 1.74c-.6-.58-.79-.93-1.41-2.66l-3.91-10.88c-.61-1.67-.54-2.65.21-3.65a3.54 3.54 0 0 1 1.33-1c.24-.12.8-.35 1.62-.65l3.73-1.31c2-.74 2.45-.82 3.31-.65a2.88 2.88 0 0 1 2.18 1.89 3.42 3.42 0 0 1 -.16 2.65 3.38 3.38 0 0 1 -2.1 1.52l-3.14 1.13.47 1.3 1.92-.69a3.71 3.71 0 0 1 2.14-.35 2.29 2.29 0 0 1 1.72 1.48c.52 1.47-.14 2.64-1.92 3.28l-2.24.81z"/></g><path d="m162.87 77.21 2.4-1.27.51-.17a5.76 5.76 0 0 1 6.85 2.69c1.07 1.91 2.1 3.85 3.14 5.78.92 1.68 1.83 3.37 2.74 5.05l.2.34.18-.08 3-1.63a9.81 9.81 0 0 1 1.29-.66 4.2 4.2 0 0 1 4.53.9l.18.16h.08l3.08-1.67a15.11 15.11 0 0 1 1.44-.75 4.26 4.26 0 0 1 4.67 1l.18.17.2-.1 3.21-1.74a6.55 6.55 0 0 1 1.2-.56 4.29 4.29 0 0 1 5 2.08l2.87 5.29q1.59 2.96 3.18 5.9a1.7 1.7 0 0 0 .15.22l2.3 4.31c0 .13.09.26.12.39.07.41.16.81.2 1.22.15 1.29.27 2.58.41 3.87q1 9.43 2 18.89a1.62 1.62 0 0 1 0 .44 4.21 4.21 0 0 1 -2.11 2.92c-1.2.67-2.41 1.31-3.62 2l-4.9 2.66-5.88 3.14-3.12 1.7a1.58 1.58 0 0 0 -.15.12l-2.74 1.46h-.19a4.3 4.3 0 0 1 -5.31-2.09l-2.85-5.19a2 2 0 0 0 -.74-.77l-9.31-5.69-13.8-8.43a5.72 5.72 0 0 1 -1.8-1.73c-.09-.13-.2-.25-.3-.38l-.09-.17c-.05-.16-.09-.31-.15-.46a5.69 5.69 0 0 1 .19-4.84c.36-.73.76-1.44 1.18-2.14a5.52 5.52 0 0 1 3.3-2.53 5.62 5.62 0 0 1 4.48.51c1.14.62 2.27 1.26 3.4 1.89l.23.11a.57.57 0 0 0 -.08-.24l-1.82-3.43-3.54-6.53q-1.32-2.44-2.66-4.89l-3.3-6.1c-.43-.8-.88-1.61-1.31-2.42a10.75 10.75 0 0 1 -.87-1.85 5.8 5.8 0 0 1 2-6.3zm17.53 15.55.07.16 2.29 4.21 1.68 3.09c.28.51.56 1 .82 1.52a1.75 1.75 0 0 1 -2.75 2.09 2.38 2.38 0 0 1 -.48-.66q-1.82-3.32-3.61-6.65l-2.58-4.75-3.62-6.67q-1.32-2.46-2.66-4.9a2.22 2.22 0 0 0 -3-.92l-1.26.68a7.22 7.22 0 0 0 -.77.43 2.27 2.27 0 0 0 -.64 3l1.84 3.38 2.49 4.57q1.77 3.28 3.55 6.55l2.64 4.88 3.17 5.83 1.84 3.41c.23.44.47.88.71 1.32a1.45 1.45 0 0 1 0 1.44 1.77 1.77 0 0 1 -2.43.79l-.2-.11-1.69-1-7.21-4a2.24 2.24 0 0 0 -3.14.89l-.96 1.66a2.26 2.26 0 0 0 .85 3.1l23.65 14.26a2.56 2.56 0 0 1 .95 1l2.91 5.38c.18.32.35.64.53.95a.71.71 0 0 0 .78.34 1.79 1.79 0 0 0 .32-.13l3.7-2 4.62-2.5 6.65-3.61 4.82-2.61a.71.71 0 0 0 .44-.86q-.94-9-1.9-18c-.12-1.16-.24-2.32-.37-3.48a3.53 3.53 0 0 0 -.4-1.33q-1.2-2.19-2.38-4.38-2.24-4.11-4.46-8.24c-.42-.77-.84-1.53-1.24-2.3a.81.81 0 0 0 -1.2-.35c-.33.2-.68.38-1 .56l-2.43 1.32-.16.11a1.59 1.59 0 0 0 .08.18l1 1.89c.47.86.94 1.72 1.4 2.58a8.13 8.13 0 0 1 .56 1.1 1.73 1.73 0 0 1 -1.93 2.29 1.79 1.79 0 0 1 -1.31-1l-3.44-6.27-.79-1.48a.74.74 0 0 0 -.75-.42 1.07 1.07 0 0 0 -.39.14l-3.73 2a1.36 1.36 0 0 0 -.17.12 2.42 2.42 0 0 0 .12.23l2.56 4.72c.42.78.85 1.54 1.25 2.33a1.75 1.75 0 0 1 -3.11 1.61c-.44-.76-.85-1.54-1.27-2.31-1-1.8-1.95-3.61-2.92-5.41l-.92-1.66a.73.73 0 0 0 -1-.32l-.22.11-3.57 2z"/><path d="m180.4 92.76.2-.12 3.57-2 .22-.11a.73.73 0 0 1 1 .32l.92 1.66c1 1.8 1.94 3.61 2.92 5.41.42.77.83 1.55 1.27 2.31a1.75 1.75 0 0 0 3.11-1.61c-.4-.79-.83-1.55-1.25-2.33l-2.56-4.72a2.42 2.42 0 0 1 -.12-.23 1.36 1.36 0 0 1 .17-.12l3.73-2a1.07 1.07 0 0 1 .39-.14.74.74 0 0 1 .75.42l.79 1.48 3.4 6.26a1.79 1.79 0 0 0 1.31 1 1.73 1.73 0 0 0 1.93-2.29 8.13 8.13 0 0 0 -.56-1.1c-.46-.86-.93-1.72-1.4-2.58l-1-1.89a1.59 1.59 0 0 1 -.08-.18l.16-.11 2.43-1.32c.34-.18.69-.36 1-.56a.81.81 0 0 1 1.2.35c.4.77.82 1.53 1.24 2.3q2.24 4.13 4.46 8.24 1.19 2.19 2.38 4.38a3.53 3.53 0 0 1 .4 1.33c.13 1.16.25 2.32.37 3.48q.94 9 1.9 18a.71.71 0 0 1 -.44.86l-4.82 2.61-6.65 3.61-4.62 2.5-3.7 2a1.79 1.79 0 0 1 -.32.13.71.71 0 0 1 -.78-.34c-.18-.31-.35-.63-.53-.95l-2.91-5.38a2.56 2.56 0 0 0 -.95-1l-23.58-14.23a2.26 2.26 0 0 1 -.85-3.1l.93-1.68a2.24 2.24 0 0 1 3.14-.89l7.21 4 1.69 1 .2.11a1.77 1.77 0 0 0 2.43-.79 1.45 1.45 0 0 0 0-1.44c-.24-.44-.48-.88-.71-1.32l-1.84-3.41-3.17-5.83-2.64-4.88q-1.78-3.27-3.55-6.55l-2.49-4.57-1.84-3.38a2.27 2.27 0 0 1 .64-3 7.22 7.22 0 0 1 .77-.43l1.26-.68a2.22 2.22 0 0 1 3 .92q1.33 2.44 2.66 4.9l3.62 6.67 2.58 4.75q1.8 3.33 3.61 6.65a2.38 2.38 0 0 0 .48.66 1.75 1.75 0 0 0 2.75-2.09c-.26-.51-.54-1-.82-1.52l-1.68-3.09-2.29-4.21z" fill="#fff"/></svg>