<svg id="Layer_1" data-name="Layer 1" xmlns="http://www.w3.org/2000/svg" width="6713" height="7337" viewBox="0 0 6713 7337"><title>World_Space</title><path d="M2115.62,6865.32l5.33,9.4a1,1,0,0,1-1.41,1.07l-18.94-10.47Z" style="fill:#e6e6e6"/><path d="M2128.37,6874.62l5.94-9.3h11.45l-16.86,9.81A.38.38,0,0,1,2128.37,6874.62Z" style="fill:#e6e6e6"/><polygon points="5455.91 5932.49 5472.89 5940.11 5455.91 5947.73 5448.29 5964.71 5440.67 5947.73 5423.7 5940.11 5440.67 5932.49 5448.29 5915.51 5455.91 5932.49" style="fill:#e6e6e6"/><polygon points="4892.91 5702.49 4909.89 5710.11 4892.91 5717.73 4885.29 5734.71 4877.67 5717.73 4860.7 5710.11 4877.67 5702.49 4885.29 5685.51 4892.91 5702.49" style="fill:#e6e6e6"/><polygon points="5455.91 5483.49 5472.89 5491.11 5455.91 5498.73 5448.29 5515.71 5440.67 5498.73 5423.7 5491.11 5440.67 5483.49 5448.29 5466.51 5455.91 5483.49" style="fill:#e6e6e6"/><polygon points="4451.91 5300.49 4468.89 5308.11 4451.91 5315.73 4444.29 5332.71 4436.67 5315.73 4419.7 5308.11 4436.67 5300.49 4444.29 5283.51 4451.91 5300.49" style="fill:#e6e6e6"/><polygon points="4367.91 5649.49 4384.89 5657.11 4367.91 5664.73 4360.29 5681.71 4352.67 5664.73 4335.7 5657.11 4352.67 5649.49 4360.29 5632.51 4367.91 5649.49" style="fill:#e6e6e6"/><polygon points="3577.91 5565.49 3594.89 5573.11 3577.91 5580.73 3570.29 5597.71 3562.67 5580.73 3545.7 5573.11 3562.67 5565.49 3570.29 5548.51 3577.91 5565.49" style="fill:#e6e6e6"/><polygon points="3884.91 5120.49 3901.89 5128.11 3884.91 5135.73 3877.29 5152.71 3869.67 5135.73 3852.7 5128.11 3869.67 5120.49 3877.29 5103.51 3884.91 5120.49" style="fill:#e6e6e6"/><polygon points="4318.91 4791.49 4335.89 4799.11 4318.91 4806.73 4311.29 4823.71 4303.67 4806.73 4286.7 4799.11 4303.67 4791.49 4311.29 4774.51 4318.91 4791.49" style="fill:#e6e6e6"/><polygon points="3249.91 5407.49 3266.89 5415.11 3249.91 5422.73 3242.29 5439.71 3234.67 5422.73 3217.7 5415.11 3234.67 5407.49 3242.29 5390.51 3249.91 5407.49" style="fill:#e6e6e6"/><polygon points="2761.91 5212.49 2778.89 5220.11 2761.91 5227.73 2754.29 5244.71 2746.67 5227.73 2729.7 5220.11 2746.67 5212.49 2754.29 5195.51 2761.91 5212.49" style="fill:#e6e6e6"/><polygon points="1895.91 5300.49 1912.89 5308.11 1895.91 5315.73 1888.29 5332.71 1880.67 5315.73 1863.7 5308.11 1880.67 5300.49 1888.29 5283.51 1895.91 5300.49" style="fill:#e6e6e6"/><polygon points="1427.91 4762.49 1444.89 4770.11 1427.91 4777.73 1420.29 4794.71 1412.67 4777.73 1395.7 4770.11 1412.67 4762.49 1420.29 4745.51 1427.91 4762.49" style="fill:#e6e6e6"/><polygon points="1752.91 4481.49 1769.89 4489.11 1752.91 4496.73 1745.29 4513.71 1737.67 4496.73 1720.7 4489.11 1737.67 4481.49 1745.29 4464.51 1752.91 4481.49" style="fill:#e6e6e6"/><polygon points="509.91 5702.49 526.89 5710.11 509.91 5717.73 502.29 5734.71 494.67 5717.73 477.7 5710.11 494.67 5702.49 502.29 5685.51 509.91 5702.49" style="fill:#e6e6e6"/><polygon points="1080.91 5668.49 1097.89 5676.11 1080.91 5683.73 1073.29 5700.71 1065.67 5683.73 1048.7 5676.11 1065.67 5668.49 1073.29 5651.51 1080.91 5668.49" style="fill:#e6e6e6"/><polygon points="1427.91 5335.49 1444.89 5343.11 1427.91 5350.73 1420.29 5367.71 1412.67 5350.73 1395.7 5343.11 1412.67 5335.49 1420.29 5318.51 1427.91 5335.49" style="fill:#e6e6e6"/><polygon points="841.91 4792.49 858.89 4800.11 841.91 4807.73 834.29 4824.71 826.67 4807.73 809.7 4800.11 826.67 4792.49 834.29 4775.51 841.91 4792.49" style="fill:#e6e6e6"/><polygon points="534.91 4335.49 551.89 4343.11 534.91 4350.73 527.29 4367.71 519.67 4350.73 502.7 4343.11 519.67 4335.49 527.29 4318.51 534.91 4335.49" style="fill:#e6e6e6"/><polygon points="1103.91 4293.49 1120.89 4301.11 1103.91 4308.73 1096.29 4325.71 1088.67 4308.73 1071.7 4301.11 1088.67 4293.49 1096.29 4276.51 1103.91 4293.49" style="fill:#e6e6e6"/><polygon points="2321.91 5807.49 2338.89 5815.11 2321.91 5822.73 2314.29 5839.71 2306.67 5822.73 2289.7 5815.11 2306.67 5807.49 2314.29 5790.51 2321.91 5807.49" style="fill:#e6e6e6"/><polygon points="3146.91 6092.49 3163.89 6100.11 3146.91 6107.73 3139.29 6124.71 3131.67 6107.73 3114.7 6100.11 3131.67 6092.49 3139.29 6075.51 3146.91 6092.49" style="fill:#e6e6e6"/><polygon points="5406.91 7014.49 5423.89 7022.11 5406.91 7029.73 5399.29 7046.71 5391.67 7029.73 5374.7 7022.11 5391.67 7014.49 5399.29 6997.51 5406.91 7014.49" style="fill:#e6e6e6"/><polygon points="4843.91 6784.49 4860.89 6792.11 4843.91 6799.73 4836.29 6816.71 4828.67 6799.73 4811.7 6792.11 4828.67 6784.49 4836.29 6767.51 4843.91 6784.49" style="fill:#e6e6e6"/><polygon points="5406.91 6565.49 5423.89 6573.11 5406.91 6580.73 5399.29 6597.71 5391.67 6580.73 5374.7 6573.11 5391.67 6565.49 5399.29 6548.51 5406.91 6565.49" style="fill:#e6e6e6"/><polygon points="4402.91 6382.49 4419.89 6390.11 4402.91 6397.73 4395.29 6414.71 4387.67 6397.73 4370.7 6390.11 4387.67 6382.49 4395.29 6365.51 4402.91 6382.49" style="fill:#e6e6e6"/><polygon points="4318.91 6731.49 4335.89 6739.11 4318.91 6746.73 4311.29 6763.71 4303.67 6746.73 4286.7 6739.11 4303.67 6731.49 4311.29 6714.51 4318.91 6731.49" style="fill:#e6e6e6"/><polygon points="6070.91 6856.49 6087.89 6864.11 6070.91 6871.73 6063.29 6888.71 6055.67 6871.73 6038.7 6864.11 6055.67 6856.49 6063.29 6839.51 6070.91 6856.49" style="fill:#e6e6e6"/><polygon points="5507.91 6626.49 5524.89 6634.11 5507.91 6641.73 5500.29 6658.71 5492.67 6641.73 5475.7 6634.11 5492.67 6626.49 5500.29 6609.51 5507.91 6626.49" style="fill:#e6e6e6"/><polygon points="6070.91 6407.49 6087.89 6415.11 6070.91 6422.73 6063.29 6439.71 6055.67 6422.73 6038.7 6415.11 6055.67 6407.49 6063.29 6390.51 6070.91 6407.49" style="fill:#e6e6e6"/><polygon points="5066.91 6224.49 5083.89 6232.11 5066.91 6239.73 5059.29 6256.71 5051.67 6239.73 5034.7 6232.11 5051.67 6224.49 5059.29 6207.51 5066.91 6224.49" style="fill:#e6e6e6"/><polygon points="4982.91 6573.49 4999.89 6581.11 4982.91 6588.73 4975.29 6605.71 4967.67 6588.73 4950.7 6581.11 4967.67 6573.49 4975.29 6556.51 4982.91 6573.49" style="fill:#e6e6e6"/><polygon points="3528.91 6647.49 3545.89 6655.11 3528.91 6662.73 3521.29 6679.71 3513.67 6662.73 3496.7 6655.11 3513.67 6647.49 3521.29 6630.51 3528.91 6647.49" style="fill:#e6e6e6"/><polygon points="3200.91 6489.49 3217.89 6497.11 3200.91 6504.73 3193.29 6521.71 3185.67 6504.73 3168.7 6497.11 3185.67 6489.49 3193.29 6472.51 3200.91 6489.49" style="fill:#e6e6e6"/><polygon points="2712.91 6294.49 2729.89 6302.11 2712.91 6309.73 2705.29 6326.71 2697.67 6309.73 2680.7 6302.11 2697.67 6294.49 2705.29 6277.51 2712.91 6294.49" style="fill:#e6e6e6"/><polygon points="1846.91 6382.49 1863.89 6390.11 1846.91 6397.73 1839.29 6414.71 1831.67 6397.73 1814.7 6390.11 1831.67 6382.49 1839.29 6365.51 1846.91 6382.49" style="fill:#e6e6e6"/><polygon points="460.91 6784.49 477.89 6792.11 460.91 6799.73 453.29 6816.71 445.67 6799.73 428.7 6792.11 445.67 6784.49 453.29 6767.51 460.91 6784.49" style="fill:#e6e6e6"/><polygon points="1031.91 6750.49 1048.89 6758.11 1031.91 6765.73 1024.29 6782.71 1016.67 6765.73 999.7 6758.11 1016.67 6750.49 1024.29 6733.51 1031.91 6750.49" style="fill:#e6e6e6"/><polygon points="1378.91 6417.49 1395.89 6425.11 1378.91 6432.73 1371.29 6449.71 1363.67 6432.73 1346.7 6425.11 1363.67 6417.49 1371.29 6400.51 1378.91 6417.49" style="fill:#e6e6e6"/><polygon points="2272.91 6889.49 2289.89 6897.11 2272.91 6904.73 2265.29 6921.71 2257.67 6904.73 2240.7 6897.11 2257.67 6889.49 2265.29 6872.51 2272.91 6889.49" style="fill:#e6e6e6"/><polygon points="3097.91 7174.49 3114.89 7182.11 3097.91 7189.73 3090.29 7206.71 3082.67 7189.73 3065.7 7182.11 3082.67 7174.49 3090.29 7157.51 3097.91 7174.49" style="fill:#e6e6e6"/><polygon points="2242.91 4827.49 2259.89 4835.11 2242.91 4842.73 2235.29 4859.71 2227.67 4842.73 2210.7 4835.11 2227.67 4827.49 2235.29 4810.51 2242.91 4827.49" style="fill:#e6e6e6"/><polygon points="2744.91 4528.49 2761.89 4536.11 2744.91 4543.73 2737.29 4560.71 2729.67 4543.73 2712.7 4536.11 2729.67 4528.49 2737.29 4511.51 2744.91 4528.49" style="fill:#e6e6e6"/><polygon points="3249.91 4553.49 3266.89 4561.11 3249.91 4568.73 3242.29 4585.71 3234.67 4568.73 3217.7 4561.11 3234.67 4553.49 3242.29 4536.51 3249.91 4553.49" style="fill:#e6e6e6"/><polygon points="4197.91 4164.49 4214.89 4172.11 4197.91 4179.73 4190.29 4196.71 4182.67 4179.73 4165.7 4172.11 4182.67 4164.49 4190.29 4147.51 4197.91 4164.49" style="fill:#e6e6e6"/><polygon points="3577.91 4087.49 3594.89 4095.11 3577.91 4102.73 3570.29 4119.71 3562.67 4102.73 3545.7 4095.11 3562.67 4087.49 3570.29 4070.51 3577.91 4087.49" style="fill:#e6e6e6"/><polygon points="3909.91 3895.49 3926.89 3903.11 3909.91 3910.73 3902.29 3927.71 3894.67 3910.73 3877.7 3903.11 3894.67 3895.49 3902.29 3878.51 3909.91 3895.49" style="fill:#e6e6e6"/><polygon points="3352.91 3058.49 3369.89 3066.11 3352.91 3073.73 3345.29 3090.71 3337.67 3073.73 3320.7 3066.11 3337.67 3058.49 3345.29 3041.51 3352.91 3058.49" style="fill:#e6e6e6"/><polygon points="3055.91 3695.49 3072.89 3703.11 3055.91 3710.73 3048.29 3727.71 3040.67 3710.73 3023.7 3703.11 3040.67 3695.49 3048.29 3678.51 3055.91 3695.49" style="fill:#e6e6e6"/><polygon points="4510.91 3316.49 4527.89 3324.11 4510.91 3331.73 4503.29 3348.71 4495.67 3331.73 4478.7 3324.11 4495.67 3316.49 4503.29 3299.51 4510.91 3316.49" style="fill:#e6e6e6"/><polygon points="4831.91 3900.49 4848.89 3908.11 4831.91 3915.73 4824.29 3932.71 4816.67 3915.73 4799.7 3908.11 4816.67 3900.49 4824.29 3883.51 4831.91 3900.49" style="fill:#e6e6e6"/><polygon points="4668.91 4409.49 4685.89 4417.11 4668.91 4424.73 4661.29 4441.71 4653.67 4424.73 4636.7 4417.11 4653.67 4409.49 4661.29 4392.51 4668.91 4409.49" style="fill:#e6e6e6"/><polygon points="5526.91 3929.49 5543.89 3937.11 5526.91 3944.73 5519.29 3961.71 5511.67 3944.73 5494.7 3937.11 5511.67 3929.49 5519.29 3912.51 5526.91 3929.49" style="fill:#e6e6e6"/><polygon points="5141.91 3381.49 5158.89 3389.11 5141.91 3396.73 5134.29 3413.71 5126.67 3396.73 5109.7 3389.11 5126.67 3381.49 5134.29 3364.51 5141.91 3381.49" style="fill:#e6e6e6"/><polygon points="5698.91 3133.49 5715.89 3141.11 5698.91 3148.73 5691.29 3165.71 5683.67 3148.73 5666.7 3141.11 5683.67 3133.49 5691.29 3116.51 5698.91 3133.49" style="fill:#e6e6e6"/><polygon points="5039.91 2880.49 5056.89 2888.11 5039.91 2895.73 5032.29 2912.71 5024.67 2895.73 5007.7 2888.11 5024.67 2880.49 5032.29 2863.51 5039.91 2880.49" style="fill:#e6e6e6"/><polygon points="4510.91 2787.49 4527.89 2795.11 4510.91 2802.73 4503.29 2819.71 4495.67 2802.73 4478.7 2795.11 4495.67 2787.49 4503.29 2770.51 4510.91 2787.49" style="fill:#e6e6e6"/><polygon points="3806.91 3089.49 3823.89 3097.11 3806.91 3104.73 3799.29 3121.71 3791.67 3104.73 3774.7 3097.11 3791.67 3089.49 3799.29 3072.51 3806.91 3089.49" style="fill:#e6e6e6"/><polygon points="4000.91 2515.49 4017.89 2523.11 4000.91 2530.73 3993.29 2547.71 3985.67 2530.73 3968.7 2523.11 3985.67 2515.49 3993.29 2498.51 4000.91 2515.49" style="fill:#e6e6e6"/><polygon points="4806.91 2379.49 4823.89 2387.11 4806.91 2394.73 4799.29 2411.71 4791.67 2394.73 4774.7 2387.11 4791.67 2379.49 4799.29 2362.51 4806.91 2379.49" style="fill:#e6e6e6"/><polygon points="5477.91 2695.49 5494.89 2703.11 5477.91 2710.73 5470.29 2727.71 5462.67 2710.73 5445.7 2703.11 5462.67 2695.49 5470.29 2678.51 5477.91 2695.49" style="fill:#e6e6e6"/><polygon points="5743.91 2186.49 5760.89 2194.11 5743.91 2201.73 5736.29 2218.71 5728.67 2201.73 5711.7 2194.11 5728.67 2186.49 5736.29 2169.51 5743.91 2186.49" style="fill:#e6e6e6"/><polygon points="6069.91 2633.49 6086.89 2641.11 6069.91 2648.73 6062.29 2665.71 6054.67 2648.73 6037.7 2641.11 6054.67 2633.49 6062.29 2616.51 6069.91 2633.49" style="fill:#e6e6e6"/><polygon points="6357.91 1964.49 6374.89 1972.11 6357.91 1979.73 6350.29 1996.71 6342.67 1979.73 6325.7 1972.11 6342.67 1964.49 6350.29 1947.51 6357.91 1964.49" style="fill:#e6e6e6"/><polygon points="5866.91 1724.49 5883.89 1732.11 5866.91 1739.73 5859.29 1756.71 5851.67 1739.73 5834.7 1732.11 5851.67 1724.49 5859.29 1707.51 5866.91 1724.49" style="fill:#e6e6e6"/><polygon points="6324.91 1337.49 6341.89 1345.11 6324.91 1352.73 6317.29 1369.71 6309.67 1352.73 6292.7 1345.11 6309.67 1337.49 6317.29 1320.51 6324.91 1337.49" style="fill:#e6e6e6"/><polygon points="5166.91 1939.49 5183.89 1947.11 5166.91 1954.73 5159.29 1971.71 5151.67 1954.73 5134.7 1947.11 5151.67 1939.49 5159.29 1922.51 5166.91 1939.49" style="fill:#e6e6e6"/><polygon points="5304.91 2398.49 5321.89 2406.11 5304.91 2413.73 5297.29 2430.71 5289.67 2413.73 5272.7 2406.11 5289.67 2398.49 5297.29 2381.51 5304.91 2398.49" style="fill:#e6e6e6"/><polygon points="6193.91 3319.49 6210.89 3327.11 6193.91 3334.73 6186.29 3351.71 6178.67 3334.73 6161.7 3327.11 6178.67 3319.49 6186.29 3302.51 6193.91 3319.49" style="fill:#e6e6e6"/><polygon points="6459.91 2810.49 6476.89 2818.11 6459.91 2825.73 6452.29 2842.71 6444.67 2825.73 6427.7 2818.11 6444.67 2810.49 6452.29 2793.51 6459.91 2810.49" style="fill:#e6e6e6"/><polygon points="6020.91 3022.49 6037.89 3030.11 6020.91 3037.73 6013.29 3054.71 6005.67 3037.73 5988.7 3030.11 6005.67 3022.49 6013.29 3005.51 6020.91 3022.49" style="fill:#e6e6e6"/><polygon points="5673.91 1430.49 5690.89 1438.11 5673.91 1445.73 5666.29 1462.71 5658.67 1445.73 5641.7 1438.11 5658.67 1430.49 5666.29 1413.51 5673.91 1430.49" style="fill:#e6e6e6"/><polygon points="5551.91 837.49 5568.89 845.11 5551.91 852.73 5544.29 869.71 5536.67 852.73 5519.7 845.11 5536.67 837.49 5544.29 820.51 5551.91 837.49" style="fill:#e6e6e6"/><polygon points="5380.91 1262.49 5397.89 1270.11 5380.91 1277.73 5373.29 1294.71 5365.67 1277.73 5348.7 1270.11 5365.67 1262.49 5373.29 1245.51 5380.91 1262.49" style="fill:#e6e6e6"/><polygon points="5215.91 1283.49 5232.89 1291.11 5215.91 1298.73 5208.29 1315.71 5200.67 1298.73 5183.7 1291.11 5200.67 1283.49 5208.29 1266.51 5215.91 1283.49" style="fill:#e6e6e6"/><polygon points="6299.91 543.49 6316.89 551.11 6299.91 558.73 6292.29 575.71 6284.67 558.73 6267.7 551.11 6284.67 543.49 6292.29 526.51 6299.91 543.49" style="fill:#e6e6e6"/><polygon points="6006.91 375.49 6023.89 383.11 6006.91 390.73 5999.29 407.71 5991.67 390.73 5974.7 383.11 5991.67 375.49 5999.29 358.51 6006.91 375.49" style="fill:#e6e6e6"/><polygon points="5841.91 396.49 5858.89 404.11 5841.91 411.73 5834.29 428.71 5826.67 411.73 5809.7 404.11 5826.67 396.49 5834.29 379.51 5841.91 396.49" style="fill:#e6e6e6"/><polygon points="4515.91 1017.49 4532.89 1025.11 4515.91 1032.73 4508.29 1049.71 4500.67 1032.73 4483.7 1025.11 4500.67 1017.49 4508.29 1000.51 4515.91 1017.49" style="fill:#e6e6e6"/><polygon points="4056.91 733.49 4073.89 741.11 4056.91 748.73 4049.29 765.71 4041.67 748.73 4024.7 741.11 4041.67 733.49 4049.29 716.51 4056.91 733.49" style="fill:#e6e6e6"/><polygon points="4296.91 1362.49 4313.89 1370.11 4296.91 1377.73 4289.29 1394.71 4281.67 1377.73 4264.7 1370.11 4281.67 1362.49 4289.29 1345.51 4296.91 1362.49" style="fill:#e6e6e6"/><polygon points="5011.91 537.49 5028.89 545.11 5011.91 552.73 5004.29 569.71 4996.67 552.73 4979.7 545.11 4996.67 537.49 5004.29 520.51 5011.91 537.49" style="fill:#e6e6e6"/><polygon points="4552.91 253.49 4569.89 261.11 4552.91 268.73 4545.29 285.71 4537.67 268.73 4520.7 261.11 4537.67 253.49 4545.29 236.51 4552.91 253.49" style="fill:#e6e6e6"/><polygon points="4792.91 882.49 4809.89 890.11 4792.91 897.73 4785.29 914.71 4777.67 897.73 4760.7 890.11 4777.67 882.49 4785.29 865.51 4792.91 882.49" style="fill:#e6e6e6"/><polygon points="4219.91 1914.49 4236.89 1922.11 4219.91 1929.73 4212.29 1946.71 4204.67 1929.73 4187.7 1922.11 4204.67 1914.49 4212.29 1897.51 4219.91 1914.49" style="fill:#e6e6e6"/><polygon points="3706.91 1650.49 3723.89 1658.11 3706.91 1665.73 3699.29 1682.71 3691.67 1665.73 3674.7 1658.11 3691.67 1650.49 3699.29 1633.51 3706.91 1650.49" style="fill:#e6e6e6"/><polygon points="3249.91 2240.49 3266.89 2248.11 3249.91 2255.73 3242.29 2272.71 3234.67 2255.73 3217.7 2248.11 3234.67 2240.49 3242.29 2223.51 3249.91 2240.49" style="fill:#e6e6e6"/><polygon points="2655.91 2842.49 2672.89 2850.11 2655.91 2857.73 2648.29 2874.71 2640.67 2857.73 2623.7 2850.11 2640.67 2842.49 2648.29 2825.51 2655.91 2842.49" style="fill:#e6e6e6"/><polygon points="2296.91 3611.49 2313.89 3619.11 2296.91 3626.73 2289.29 3643.71 2281.67 3626.73 2264.7 3619.11 2281.67 3611.49 2289.29 3594.51 2296.91 3611.49" style="fill:#e6e6e6"/><polygon points="2570.91 4051.49 2587.89 4059.11 2570.91 4066.73 2563.29 4083.71 2555.67 4066.73 2538.7 4059.11 2555.67 4051.49 2563.29 4034.51 2570.91 4051.49" style="fill:#e6e6e6"/><polygon points="1777.91 3957.49 1794.89 3965.11 1777.91 3972.73 1770.29 3989.71 1762.67 3972.73 1745.7 3965.11 1762.67 3957.49 1770.29 3940.51 1777.91 3957.49" style="fill:#e6e6e6"/><polygon points="890.91 1843.49 907.89 1851.11 890.91 1858.73 883.29 1875.71 875.67 1858.73 858.7 1851.11 875.67 1843.49 883.29 1826.51 890.91 1843.49" style="fill:#e6e6e6"/><polygon points="226.91 1412.49 243.89 1420.11 226.91 1427.73 219.29 1444.71 211.67 1427.73 194.7 1420.11 211.67 1412.49 219.29 1395.51 226.91 1412.49" style="fill:#e6e6e6"/><polygon points="559.91 1085.49 576.89 1093.11 559.91 1100.73 552.29 1117.71 544.67 1100.73 527.7 1093.11 544.67 1085.49 552.29 1068.51 559.91 1085.49" style="fill:#e6e6e6"/><polygon points="201.91 253.49 218.89 261.11 201.91 268.73 194.29 285.71 186.67 268.73 169.7 261.11 186.67 253.49 194.29 236.51 201.91 253.49" style="fill:#e6e6e6"/><polygon points="732.91 562.49 749.89 570.11 732.91 577.73 725.29 594.71 717.67 577.73 700.7 570.11 717.67 562.49 725.29 545.51 732.91 562.49" style="fill:#e6e6e6"/><polygon points="1529.91 3291.49 1546.89 3299.11 1529.91 3306.73 1522.29 3323.71 1514.67 3306.73 1497.7 3299.11 1514.67 3291.49 1522.29 3274.51 1529.91 3291.49" style="fill:#e6e6e6"/><polygon points="1287.91 2608.49 1304.89 2616.11 1287.91 2623.73 1280.29 2640.71 1272.67 2623.73 1255.7 2616.11 1272.67 2608.49 1280.29 2591.51 1287.91 2608.49" style="fill:#e6e6e6"/><polygon points="1055.91 3737.49 1072.89 3745.11 1055.91 3752.73 1048.29 3769.71 1040.67 3752.73 1023.7 3745.11 1040.67 3737.49 1048.29 3720.51 1055.91 3737.49" style="fill:#e6e6e6"/><polygon points="371.91 3611.49 388.89 3619.11 371.91 3626.73 364.29 3643.71 356.67 3626.73 339.7 3619.11 356.67 3611.49 364.29 3594.51 371.91 3611.49" style="fill:#e6e6e6"/><polygon points="484.91 2905.49 501.89 2913.11 484.91 2920.73 477.29 2937.71 469.67 2920.73 452.7 2913.11 469.67 2905.49 477.29 2888.51 484.91 2905.49" style="fill:#e6e6e6"/><polygon points="1983.91 2812.49 2000.89 2820.11 1983.91 2827.73 1976.29 2844.71 1968.67 2827.73 1951.7 2820.11 1968.67 2812.49 1976.29 2795.51 1983.91 2812.49" style="fill:#e6e6e6"/><polygon points="2455.91 2058.49 2472.89 2066.11 2455.91 2073.73 2448.29 2090.71 2440.67 2073.73 2423.7 2066.11 2440.67 2058.49 2448.29 2041.51 2455.91 2058.49" style="fill:#e6e6e6"/><polygon points="1578.91 1699.49 1595.89 1707.11 1578.91 1714.73 1571.29 1731.71 1563.67 1714.73 1546.7 1707.11 1563.67 1699.49 1571.29 1682.51 1578.91 1699.49" style="fill:#e6e6e6"/><polygon points="2573.91 1387.49 2590.89 1395.11 2573.91 1402.73 2566.29 1419.71 2558.67 1402.73 2541.7 1395.11 2558.67 1387.49 2566.29 1370.51 2573.91 1387.49" style="fill:#e6e6e6"/><polygon points="3160.91 862.49 3177.89 870.11 3160.91 877.73 3153.29 894.71 3145.67 877.73 3128.7 870.11 3145.67 862.49 3153.29 845.51 3160.91 862.49" style="fill:#e6e6e6"/><polygon points="3681.91 445.49 3698.89 453.11 3681.91 460.73 3674.29 477.71 3666.67 460.73 3649.7 453.11 3666.67 445.49 3674.29 428.51 3681.91 445.49" style="fill:#e6e6e6"/><polygon points="2869.91 350.49 2886.89 358.11 2869.91 365.73 2862.29 382.71 2854.67 365.73 2837.7 358.11 2854.67 350.49 2862.29 333.51 2869.91 350.49" style="fill:#e6e6e6"/><polygon points="2372.91 543.49 2389.89 551.11 2372.91 558.73 2365.29 575.71 2357.67 558.73 2340.7 551.11 2357.67 543.49 2365.29 526.51 2372.91 543.49" style="fill:#e6e6e6"/><polygon points="1238.91 1262.49 1255.89 1270.11 1238.91 1277.73 1231.29 1294.71 1223.67 1277.73 1206.7 1270.11 1223.67 1262.49 1231.29 1245.51 1238.91 1262.49" style="fill:#e6e6e6"/><polygon points="2082.91 1110.49 2099.89 1118.11 2082.91 1125.73 2075.29 1142.71 2067.67 1125.73 2050.7 1118.11 2067.67 1110.49 2075.29 1093.51 2082.91 1110.49" style="fill:#e6e6e6"/><polygon points="6464.91 5444.49 6481.89 5452.11 6464.91 5459.73 6457.29 5476.71 6449.67 5459.73 6432.7 5452.11 6449.67 5444.49 6457.29 5427.51 6464.91 5444.49" style="fill:#e6e6e6"/><polygon points="5792.91 5414.49 5809.89 5422.11 5792.91 5429.73 5785.29 5446.71 5777.67 5429.73 5760.7 5422.11 5777.67 5414.49 5785.29 5397.51 5792.91 5414.49" style="fill:#e6e6e6"/><polygon points="5576.91 4852.49 5593.89 4860.11 5576.91 4867.73 5569.29 4884.71 5561.67 4867.73 5544.7 4860.11 5561.67 4852.49 5569.29 4835.51 5576.91 4852.49" style="fill:#e6e6e6"/><polygon points="6264.91 4660.49 6281.89 4668.11 6264.91 4675.73 6257.29 4692.71 6249.67 4675.73 6232.7 4668.11 6249.67 4660.49 6257.29 4643.51 6264.91 4660.49" style="fill:#e6e6e6"/><polygon points="6382.91 3989.49 6399.89 3997.11 6382.91 4004.73 6375.29 4021.71 6367.67 4004.73 6350.7 3997.11 6367.67 3989.49 6375.29 3972.51 6382.91 3989.49" style="fill:#e6e6e6"/><polygon points="5891.91 3712.49 5908.89 3720.11 5891.91 3727.73 5884.29 3744.71 5876.67 3727.73 5859.7 3720.11 5876.67 3712.49 5884.29 3695.51 5891.91 3712.49" style="fill:#e6e6e6"/><polygon points="1420.91 568.49 1437.89 576.11 1420.91 583.73 1413.29 600.71 1405.67 583.73 1388.7 576.11 1405.67 568.49 1413.29 551.51 1420.91 568.49" style="fill:#e6e6e6"/><polygon points="3801.91 1200.49 3818.89 1208.11 3801.91 1215.73 3794.29 1232.71 3786.67 1215.73 3769.7 1208.11 3786.67 1200.49 3794.29 1183.51 3801.91 1200.49" style="fill:#e6e6e6"/><polygon points="4985.91 4528.49 5002.89 4536.11 4985.91 4543.73 4978.29 4560.71 4970.67 4543.73 4953.7 4536.11 4970.67 4528.49 4978.29 4511.51 4985.91 4528.49" style="fill:#e6e6e6"/><polygon points="4985.91 5107.49 5002.89 5115.11 4985.91 5122.73 4978.29 5139.71 4970.67 5122.73 4953.7 5115.11 4970.67 5107.49 4978.29 5090.51 4985.91 5107.49" style="fill:#e6e6e6"/></svg>