<svg height="560" viewBox="0 0 697 560" width="697" xmlns="http://www.w3.org/2000/svg"><path d="m523.41 232.82-225.75-161.56-279.55 114.9-1.28-3.11 281.27-115.61 227.27 162.64z" fill="#82bce8"/><path d="m141.73 297.07-3.25.86-13.39-50.42 171.58-179.32 2.43 2.32-170.28 177.96z" fill="#82bce8"/><path d="m230.78 417.84c-1.32-2.48-6.95-2.06-12.57.93-.57.3-1.1.62-1.62.94a21 21 0 0 0 -7.75-2.45c-4.19-.55-8 0-10.16 1.18 1-1.22 1.37-2.43 1-3.45-.89-2.52-6-3-11.72-1.22a2 2 0 0 0 0-.55c-.42-2.77-5.86-4.24-12.17-3.29s-11.07 4-10.65 6.73a2.69 2.69 0 0 0 1 1.68 18.42 18.42 0 0 0 -1.77 1.07 21.77 21.77 0 0 0 -7.51.75c-6.16 1.64-10.57 5.16-9.85 7.86.33 1.25 1.69 2.1 3.66 2.5l-.34.37a20 20 0 0 0 -8.94.53c-5.84 1.55-10.1 4.79-9.92 7.43-6.22 0-11.22 2.25-11.24 5s5.14 5.11 11.51 5.14a21.72 21.72 0 0 0 7.58-1.2c.93 2.55 6.37 3.34 12.38 1.75a20.43 20.43 0 0 0 7.69-3.7 22.88 22.88 0 0 0 16.22-4.3 22.82 22.82 0 0 0 16.21-4.31 22.84 22.84 0 0 0 16.21-4.3 20.82 20.82 0 0 0 8.52-.61c5.41-1.44 9.46-4.33 9.89-6.85 3.5-2.67 5.35-5.73 4.34-7.63z" fill="#3e6272"/><path d="m119 435.12h126.88a0 0 0 0 1 0 0v18.22a25.5 25.5 0 0 1 -25.5 25.5h-75.85a25.5 25.5 0 0 1 -25.5-25.5v-18.22a0 0 0 0 1 -.03 0z" fill="#8eb3e2" transform="matrix(.96651058 -.25662676 .25662676 .96651058 -111.18 62.14)"/><path d="m317.34 312.01h79.38v110.03h-79.38z" fill="#77a7db" transform="matrix(.96651058 -.25662676 .25662676 .96651058 -82.24 103.93)"/><path d="m292.55 292.53h223.61v10.01h-223.61z" fill="#458ac9" transform="matrix(.96651058 -.25662676 .25662676 .96651058 -62.82 113.75)"/><path d="m383.2 245.55h218.01v140.08h-218.01z" fill="#8eb3e2" transform="matrix(.97 -.26 .26 .97 -64.51 136.9)"/><path d="m330.03 364.22h16.63v61.9h-16.63z" fill="#82bce8" transform="matrix(.96651058 -.25662676 .25662676 .96651058 -90.09 100.08)"/><path d="m291.53 348.67h21.53v99.96h-21.53z" fill="#82bce8" transform="matrix(.89563414 .4447915 -.4447915 .89563414 208.88 -92.86)"/><path d="m285.78 1.51h4.85v66.61h-4.85z" fill="#8eb3e2" transform="matrix(.97 -.26 .26 .97 .72 75.14)"/><path d="m337.16 56.27h12.43v368.81h-12.43z" fill="#c3d4ee" transform="matrix(.96651058 -.25662676 .25662676 .96651058 -50.27 96.19)"/><path d="m422.26 409.05-8.82 15.19-398.01-236.13 4.35-7.48z" fill="#d9e5f9"/><path d="m688 258.29-252 66.94-23.23 73.46-304.83 80.94 8.48 31.93s41.73 0 66.13 48.8c51.48-13.67 302.52-80.24 421.9-111.94 8.07-2.14-22.67-24.25-20.29-28.88 8.46-16.43 23.41-25 23.41-25l71.81-36.68z" fill="#c3d4ee"/><path d="m115 506.12 1.44 5.44s41.73 0 66.13 48.8l421.76-112c5.66-1.51-1-17.32 4-18.67 6.18-1.64 7.25-12.66 12.49-14.05 5.62-1.49 13.54 9.76 17.95 8.59 13.12-3.49 6.25-14.83 6.25-14.83l-1.56-10.93 20.29 2.34-6.25-16.39 22.61-28.42z" fill="#1e3c4d"/><path d="m515.66 203.1h10.07v28.84h-10.07z" fill="#c5d0fc" transform="matrix(.96651058 -.25662676 .25662676 .96651058 -38.39 140.93)"/><path d="m492.48 196.82h48.06v9.86h-48.06z" fill="#f44d4d" transform="matrix(.97 -.26 .26 .97 -34.48 139.32)"/><path d="m364.8 240.95h223.61v10.01h-223.61z" fill="#458ac9" transform="matrix(.96651058 -.25662676 .25662676 .96651058 -47.16 130.56)"/><g fill="#97e1f7"><path d="m495.3 256.09h44.27v34.82h-44.27z" transform="matrix(.96651058 -.25662676 .25662676 .96651058 -52.86 141.97)"/><path d="m413.62 280.19h26.11v34.82h-26.11z" transform="matrix(.96651058 -.25662676 .25662676 .96651058 -62.09 119.48)"/><path d="m545.06 242.85h44.45v34.82h-44.45z" transform="matrix(.96651058 -.25662676 .25662676 .96651058 -47.79 154.32)"/><path d="m445.53 269.3h44.27v34.82h-44.27z" transform="matrix(.96651058 -.25662676 .25662676 .96651058 -57.92 129.64)"/></g><circle cx="17.47" cy="184.6" fill="#f44d4d" r="8.7"/><path d="m167.43 327.75c1.82 9.07-2.79 17.44-11.41 20.47-9.91 3-20-2.86-21.45-13.34-.8-8.35 3.27-14.65 14.75-17.49-1.79-7.95-2.95-13.14-4.74-21.08l-7.59 2 4.53 14.78a20.79 20.79 0 0 0 -11.66 22.55c2.55 12.65 15.16 19.72 27.13 15.15a19.34 19.34 0 0 0 11.5-23.34z" fill="#8eb3e2"/><circle cx="140.1" cy="297.5" fill="#f44d4d" r="8.7" transform="matrix(.96651058 -.25662676 .25662676 .96651058 -71.66 45.92)"/><path d="m134.84 65.25c2.94-1.12 6.06-2.1 9.19-3a226.22 226.22 0 0 1 23.42-5.72 169 169 0 0 1 17.23-2.12c5.58-.44 11.22-1 17.37-2a228.85 228.85 0 0 0 23.29-5.5 172.91 172.91 0 0 0 27.94-10.79 153.48 153.48 0 0 1 20.77-8.15q4.54-1.43 9.19-2.66c.7-.18 1.08-.21 1.08 0a1.28 1.28 0 0 0 .07.28q4.67 17.58 9.31 35.17c.15.57.15.57-1.73 1.07a168.38 168.38 0 0 0 -29.49 10.76c-4.87 2.33-9.89 4.61-15.54 6.69a223.57 223.57 0 0 1 -23.54 7 176.2 176.2 0 0 1 -30.47 4.56 153.77 153.77 0 0 0 -23.8 3.62 230.2 230.2 0 0 0 -23.08 6.54l-1.49.49a3.58 3.58 0 0 1 -.24-.48q-4.65-17.6-9.31-35.19c-.01-.21-.11-.39-.17-.57z" fill="#e22433"/><path d="m134.84 65.25c.06.18.12.36.17.54q4.65 17.59 9.31 35.19a3.58 3.58 0 0 0 .24.48c-1.1.51-2.41.93-3.61 1.4-4.52 1.75-8.59 3.63-12.65 5.52-4.46 2.07-9 4.12-14.07 6-5.52 2-11.25 3.79-17.14 5.37-.74.2-1 .22-1 0a.41.41 0 0 0 0-.19q-4.68-17.69-9.39-35.37c-.1-.39.14-.56 1.46-.91a165.52 165.52 0 0 0 28.19-10.07c5.44-2.56 10.87-5.14 17.2-7.44z" fill="#e22433"/><g fill="#fff"><path d="m111.67 99.53a1.5 1.5 0 0 1 -2-1.21c-.22-1 .3-1.72 1.53-2l1.25-.25c1.35-.25 1.74-.21 2.23.21a3 3 0 0 1 .9 1.8l.22 1.11a5.06 5.06 0 0 1 .19 1.46 4.11 4.11 0 0 1 -1.48 2.46 5.33 5.33 0 0 1 -2.51 1.39c-3.39.73-6.8-1.75-7.62-5.54s1.28-7.41 4.66-8.14a6 6 0 0 1 3.47.34 2.51 2.51 0 0 1 1.64 1.76 2.13 2.13 0 0 1 -1.49 2.57 1.59 1.59 0 0 1 -.53 0l-1-.33a2.9 2.9 0 0 0 -1.29-.09 2.64 2.64 0 0 0 1.17 5.11 2.13 2.13 0 0 0 1.22-.78z"/><path d="m126.16 96.73a2.9 2.9 0 0 1 .77 1.25 2 2 0 0 1 -1.26 2.63 1.78 1.78 0 0 1 -1.84-.51l-2.42-2.43.52 1.74a2.05 2.05 0 0 1 -1.21 2.68 1.88 1.88 0 0 1 -1.69-.33 3.12 3.12 0 0 1 -1-1.67l-2.36-7.87a2.5 2.5 0 0 1 .06-2.07 2.12 2.12 0 0 1 1.54-1.06l1.57-.47a6.09 6.09 0 0 1 1.88-.35 4.72 4.72 0 0 1 4.3 3.51 5 5 0 0 1 -.24 3.62zm-5.86-2.73h.15l.26-.07c.57-.15.79-.47.65-.93s-.52-.61-1.07-.43a2.87 2.87 0 0 1 -.4.1z"/><path d="m131.1 98.78a2 2 0 0 1 -2.62-1.31 2.79 2.79 0 0 1 -.21-1.16l.12-9.61a2 2 0 0 1 1.16-1.9 2 2 0 0 1 2.21.55l6.83 6.89a2.55 2.55 0 0 1 .62.9 2.09 2.09 0 0 1 -1 2.76c-.84.34-1.51.1-2.54-1l-3.36 1.36c.01 1.45-.31 2.17-1.21 2.52zm2.22-6.32-1.16-1.25v1.71z"/><path d="m139.57 80.13a5.75 5.75 0 0 1 4.59-.66 7.25 7.25 0 0 1 4.93 8.53 5.66 5.66 0 0 1 -1.62 2.79 10.71 10.71 0 0 1 -1.67 1.14l-1.43.82a2.44 2.44 0 0 1 -1.62.51 2 2 0 0 1 -1.31-.64 5.66 5.66 0 0 1 -.77-1.21l-3.67-6.41a4.72 4.72 0 0 1 -.69-1.38 2 2 0 0 1 1.15-2.33zm4 8.39c1.17-.69 1.42-.9 1.64-1.44a2.8 2.8 0 0 0 -.22-2.32 2.59 2.59 0 0 0 -2.23-1.37 3 3 0 0 0 -1.46.51l-.28.16z"/><path d="m154 80.27c.36.89.95 1.28 1.57 1s.78-.93.43-1.78l-2-4.93a2.42 2.42 0 0 1 -.27-1.79 1.89 1.89 0 0 1 1.09-1.35 2 2 0 0 1 1.72.16c.53.33.76.66 1.22 1.77l1.79 4.39a6.33 6.33 0 0 1 .42 4.35 4.81 4.81 0 0 1 -2.73 3.23 4.9 4.9 0 0 1 -4.62-.62 6.06 6.06 0 0 1 -2.33-3.17l-1.78-4.36c-.47-1.16-.53-1.49-.4-2.08a2 2 0 0 1 1.1-1.38 2 2 0 0 1 1.6.1 2.64 2.64 0 0 1 1.19 1.59z"/><path d="m163.87 82.91a2.06 2.06 0 0 1 -2.38-1.72 3.17 3.17 0 0 1 0-1.19l1.69-9.46a2 2 0 0 1 1.46-1.68 2 2 0 0 1 2.09.91l5.6 7.92a2.48 2.48 0 0 1 .46 1 2.08 2.08 0 0 1 -1.45 2.55c-.88.2-1.51-.15-2.35-1.35l-3.54.79c-.21 1.37-.66 2.02-1.58 2.23zm3.22-5.91-.94-1.43-.24 1.7z"/><path d="m172.67 71.51a1.78 1.78 0 0 1 -1.55-.33 2.27 2.27 0 0 1 -.79-1.35 2.15 2.15 0 0 1 .71-2c.37-.26.53-.31 2.05-.56l3.9-.64a7.16 7.16 0 0 1 1.33-.18 1.93 1.93 0 0 1 1.9 1.72 2.31 2.31 0 0 1 -.38 1.66 2 2 0 0 1 -1.41.72l-.86.14 1.07 6.55a3.23 3.23 0 0 1 -.06 1.73 1.83 1.83 0 0 1 -1.43 1.25 1.92 1.92 0 0 1 -1.75-.65 3 3 0 0 1 -.62-1.66l-1.08-6.59z"/><path d="m188.31 74.45a2.09 2.09 0 0 1 1.69.3 2.28 2.28 0 0 1 .36 3.14c-.34.41-.67.55-1.55.65l-3 .36a3.51 3.51 0 0 1 -1.5 0 2 2 0 0 1 -1.3-1.46 5.55 5.55 0 0 1 -.23-1.31l-.84-7.19a3.79 3.79 0 0 1 0-1.69 1.88 1.88 0 0 1 .81-1.2c.42-.25.5-.28 1.65-.42l2.34-.27a4.54 4.54 0 0 1 1.49-.08 1.93 1.93 0 0 1 1.52 1.72 2.15 2.15 0 0 1 -.45 1.68 1.94 1.94 0 0 1 -1.43.66l-1.94.23.11.91 1.53-.18a1.49 1.49 0 0 1 1.76 1.38 1.72 1.72 0 0 1 -.33 1.32 1.58 1.58 0 0 1 -1.17.48l-1.39.17.11 1z"/><path d="m206.05 73.93a3 3 0 0 1 .43 1.41 2 2 0 0 1 -1.88 2.23 1.82 1.82 0 0 1 -1.66-1l-1.73-3 .07 1.82a2 2 0 0 1 -1.84 2.29 1.92 1.92 0 0 1 -1.56-.75 3.1 3.1 0 0 1 -.53-1.86l-.35-8.13a2.45 2.45 0 0 1 .57-2 2.11 2.11 0 0 1 1.76-.64l1.63-.06a6.3 6.3 0 0 1 1.91.13 4.72 4.72 0 0 1 3.29 4.48 5 5 0 0 1 -1.14 3.45zm-5-4.16h.42c.59 0 .89-.25.87-.73s-.35-.73-.94-.68h-.4z"/><path d="m213.81 73.66a2.05 2.05 0 0 1 1.6.62 2.16 2.16 0 0 1 .53 1.6 2.25 2.25 0 0 1 -.75 1.55 2 2 0 0 1 -1.65.35l-3-.21a3.44 3.44 0 0 1 -1.48-.28 2 2 0 0 1 -1-1.68 5 5 0 0 1 0-1.32l.49-7.23a3.67 3.67 0 0 1 .29-1.66 1.84 1.84 0 0 1 1-1c.45-.17.54-.19 1.7-.11l2.34.17a4.33 4.33 0 0 1 1.49.2 1.93 1.93 0 0 1 1.22 2 2.26 2.26 0 0 1 -.75 1.57 2 2 0 0 1 -1.53.38l-1.95-.14-.06.92 1.54.11a1.49 1.49 0 0 1 1.48 1.68 1.74 1.74 0 0 1 -.61 1.22 1.58 1.58 0 0 1 -1.23.26l-1.4-.1-.07 1z"/><path d="m219.05 73.74a1.89 1.89 0 0 1 1.13-2.43 2 2 0 0 1 1.52.21c1 .46 1.15.51 1.42.42a.51.51 0 0 0 .32-.69.65.65 0 0 0 -.46-.45 2.8 2.8 0 0 0 -.86-.14l-1-.09a3.74 3.74 0 0 1 -3.56-2.89 4.16 4.16 0 0 1 2.91-5.45c2.05-.62 4 .12 4.49 1.69a1.64 1.64 0 0 1 -.94 2.19 2.44 2.44 0 0 1 -1.77-.26c-.5-.25-.72-.29-.92-.23a.52.52 0 0 0 -.3.64c.12.38.41.48 1.39.54a7.28 7.28 0 0 1 2.83.61 4.36 4.36 0 0 1 2 2.66 4.91 4.91 0 0 1 -.15 3.37 4.18 4.18 0 0 1 -2.8 2.24c-2.41.73-4.7-.12-5.25-1.94z"/><path d="m233.93 68a2.06 2.06 0 0 1 1.72 0 2.22 2.22 0 0 1 1.09 1.29 2.26 2.26 0 0 1 -.12 1.72c-.26.46-.55.66-1.39.94l-2.9.94a3.38 3.38 0 0 1 -1.47.29 2 2 0 0 1 -1.57-1.17 6.21 6.21 0 0 1 -.47-1.23l-2.24-6.88a3.85 3.85 0 0 1 -.36-1.66 1.91 1.91 0 0 1 .56-1.34c.36-.32.44-.37 1.54-.73l2.23-.73a4.62 4.62 0 0 1 1.45-.44 1.94 1.94 0 0 1 1.88 1.41 2.26 2.26 0 0 1 -.11 1.74 2 2 0 0 1 -1.27.92l-1.87.61.29.87 1.47-.48a1.5 1.5 0 0 1 2 1 1.76 1.76 0 0 1 -.1 1.36 1.65 1.65 0 0 1 -1.05.7l-1.33.43.3 1z"/><path d="m239.92 70.42a2.06 2.06 0 0 1 -2.56-1.42 3 3 0 0 1 -.16-1.18l.55-9.59a2 2 0 0 1 1.25-1.85 2 2 0 0 1 2.18.65l6.52 7.19a2.57 2.57 0 0 1 .57.92 2.1 2.1 0 0 1 -1.13 2.72c-.86.3-1.52 0-2.5-1.07l-3.42 1.21c-.04 1.4-.41 2.1-1.3 2.42zm2.5-6.22-1.1-1.3v1.71z"/><path d="m256.92 60.27a2.82 2.82 0 0 1 .86 1.18 2 2 0 0 1 -1 2.73 1.8 1.8 0 0 1 -1.88-.37l-2.6-2.22.66 1.7a2 2 0 0 1 -1 2.76 1.87 1.87 0 0 1 -1.71-.19 3.15 3.15 0 0 1 -1.12-1.58l-3-7.66a2.48 2.48 0 0 1 -.12-2.06c.26-.57.57-.84 1.45-1.18l1.53-.6a6 6 0 0 1 1.85-.5 4.73 4.73 0 0 1 4.57 3.15 5.08 5.08 0 0 1 .06 3.63zm-6.07-2.27.15-.06.25-.1c.55-.19.75-.53.57-1s-.57-.58-1.11-.35a1.8 1.8 0 0 1 -.38.13z"/><path d="m269 57.33a6 6 0 0 1 -3.1 3.27c-3.18 1.39-7-.34-8.55-3.88s-.22-7.57 3-9a5.84 5.84 0 0 1 4.28-.1 3.65 3.65 0 0 1 2.37 1.88 2.1 2.1 0 0 1 -.91 2.8 1.69 1.69 0 0 1 -1.34 0l-.8-.41a2.16 2.16 0 0 0 -1.87-.06 2.61 2.61 0 0 0 2.06 4.77 2.32 2.32 0 0 0 1.25-1.5l.18-.61a1.89 1.89 0 0 1 1-1.13 2.14 2.14 0 0 1 2.66 1.2 3.59 3.59 0 0 1 -.23 2.77z"/><path d="m274.71 53.09a3.25 3.25 0 0 1 .54 1.81 1.85 1.85 0 0 1 -2.91 1.47 3.33 3.33 0 0 1 -1.14-1.5l-3.64-7.17a2.7 2.7 0 0 1 -.45-1.8 1.88 1.88 0 0 1 1-1.46 1.94 1.94 0 0 1 1.8.05c.51.28.7.5 1.21 1.51l.85 1.68 2.13-1.08-.83-1.6a3.06 3.06 0 0 1 -.53-1.94 1.86 1.86 0 0 1 1-1.45 2 2 0 0 1 1.78 0 3.07 3.07 0 0 1 1.21 1.43l3.65 7.21a3.05 3.05 0 0 1 .5 1.7 1.9 1.9 0 0 1 -1 1.69 1.86 1.86 0 0 1 -1.8-.08c-.49-.29-.72-.59-1.2-1.54l-.88-1.69-2.13 1.08z"/></g><g fill="#0d2028"><path d="m523.11 331.08a3.37 3.37 0 0 1 .13 2.18 2.52 2.52 0 0 1 -4.06 1.1 3.49 3.49 0 0 1 -1-2l-2.41-8.94a2.87 2.87 0 0 1 0-2.13 2.53 2.53 0 0 1 1.68-1.48 2.68 2.68 0 0 1 2.24.42c.54.43.71.72 1.05 2l.57 2.09 3-.8-.54-2a3.1 3.1 0 0 1 -.07-2.32 2.39 2.39 0 0 1 1.63-1.46 2.61 2.61 0 0 1 2.21.4 3.2 3.2 0 0 1 1.07 1.88l2.42 9a3.23 3.23 0 0 1 .12 2.05 2.51 2.51 0 0 1 -4 1.28 3.26 3.26 0 0 1 -1-2l-.57-2.13-3 .8z"/><path d="m537.2 323.9c.29 1.07.95 1.58 1.8 1.35s1.16-1 .89-2l-1.6-5.92a2.61 2.61 0 0 1 1.65-3.54 2.67 2.67 0 0 1 2.15.38c.62.43.85.84 1.21 2.17l1.42 5.27a6.74 6.74 0 0 1 -.31 5.07 6.48 6.48 0 0 1 -12.19-1.7l-1.41-5.23c-.37-1.4-.38-1.78-.11-2.45a2.69 2.69 0 0 1 1.68-1.47 2.65 2.65 0 0 1 2 .29 2.78 2.78 0 0 1 1.24 1.93z"/><path d="m555.57 311a2.51 2.51 0 0 1 1.8-1.89 2.68 2.68 0 0 1 1.87.21 2.59 2.59 0 0 1 1.19 1.42l4.27 9.1a4.43 4.43 0 0 1 .31.8 2.46 2.46 0 0 1 -1.76 3 2.43 2.43 0 0 1 -2.93-1.22l-1.3-2.63-.25 2.88a2.73 2.73 0 0 1 -2 2.7c-1.2.33-2.15-.09-3-1.33l-1.69-2.38.23 2.47a2.55 2.55 0 1 1 -5 .94c0-.2-.09-.41-.12-.61l-.87-10a2.53 2.53 0 0 1 1.79-2.94 2.77 2.77 0 0 1 2.89 1l3.52 4.32z"/><path d="m569 322.11a2.5 2.5 0 0 1 -3.09-1.8 3.14 3.14 0 0 1 0-1.37l2-11.1a2.52 2.52 0 0 1 1.85-2.07 2.58 2.58 0 0 1 2.69.87l7.36 8.7a2.69 2.69 0 0 1 .6 1.11 2.53 2.53 0 0 1 -1.81 3.08c-1.14.31-2 0-3-1.37l-4.6 1.22c-.24 1.62-.82 2.41-2 2.73zm4-7.07-1.24-1.58-.27 2z"/><path d="m587.62 304.17a3 3 0 0 1 -.08-2.05 2.49 2.49 0 0 1 3.82-1.22 2.89 2.89 0 0 1 1.11 1.8l2.44 9.07a3.22 3.22 0 0 1 .06 2.37 2.47 2.47 0 0 1 -1.66 1.42 2.43 2.43 0 0 1 -2.21-.48l-5.2-3.91.84 3.11a2.79 2.79 0 0 1 0 2.11 2.55 2.55 0 0 1 -1.65 1.39 2.59 2.59 0 0 1 -2.22-.42 3.15 3.15 0 0 1 -1.07-2l-2.56-9.36a2.53 2.53 0 0 1 1.85-3.31 2.3 2.3 0 0 1 2.09.49l5.18 3.73z"/><path d="m599.79 304.21c1.13-.31 2 .07 2.28 1a1.67 1.67 0 0 1 -1.42 2.05l-2.56.69a2 2 0 0 1 -1.8-.11 1.44 1.44 0 0 1 -.66-.88 1.39 1.39 0 0 1 .21-1.17 2.05 2.05 0 0 1 1.44-.87z"/><path d="m615.83 305.23a3.19 3.19 0 0 1 .89 1.45 2.47 2.47 0 0 1 -1.8 3.06 2.35 2.35 0 0 1 -2.33-.58l-2.93-2.82.55 2a2.48 2.48 0 0 1 -1.74 3.11 2.58 2.58 0 0 1 -2.15-.37 3.35 3.35 0 0 1 -1.14-1.94l-2.46-9.14a2.64 2.64 0 0 1 .21-2.39 2.92 2.92 0 0 1 2.07-1.21l2-.56a9 9 0 0 1 2.44-.41 5.49 5.49 0 0 1 5.26 4.06 5.43 5.43 0 0 1 -.56 4.21zm-7.33-3.23h.2l.33-.09c.74-.18 1.05-.55.91-1.08s-.63-.72-1.35-.5c-.11 0-.29.08-.52.12z"/><path d="m622.63 291.26a8.06 8.06 0 1 1 -5.73 9.8 8 8 0 0 1 5.73-9.8zm2.91 10.74a3 3 0 0 0 2.12-3.72 3 3 0 0 0 -3.69-2.08 3 3 0 0 0 -2.14 3.63 3.05 3.05 0 0 0 3.71 2.17z"/><path d="m646.92 296.29a4.5 4.5 0 0 1 -.6 3.71c-.71 1.15-1.35 1.53-3.26 2.05l-3.89 1a2.44 2.44 0 0 1 -2.29-.17 2.7 2.7 0 0 1 -.91-1 10.4 10.4 0 0 1 -.4-1.3l-2.26-8.41-.19-.71a2.53 2.53 0 0 1 1.83-3.19l2.09-.56a12.49 12.49 0 0 1 2.76-.55 4.6 4.6 0 0 1 4.62 3.52 4.08 4.08 0 0 1 -.07 2.46 4.58 4.58 0 0 1 2.57 3.15zm-8.07-2.86.58-.16c.69-.19.87-.4.76-.8s-.42-.51-1.11-.32l-.53.14zm1.23 4.53.82-.22c.84-.23 1-.42.91-.87s-.48-.53-1.26-.32l-.8.21z"/><path d="m653.42 283a8.06 8.06 0 1 1 -5.73 9.79 8.06 8.06 0 0 1 5.73-9.79zm2.91 10.71a3 3 0 0 0 2.12-3.72 3 3 0 0 0 -5.83 1.55 3.06 3.06 0 0 0 3.71 2.14z"/><path d="m665.51 285a2.53 2.53 0 0 1 -2-.15 2.35 2.35 0 0 1 -.41-3.83c.45-.36.64-.43 2.58-.95l4.93-1.33a11.77 11.77 0 0 1 1.68-.41 2.3 2.3 0 0 1 2.6 1.69 2.47 2.47 0 0 1 -.33 2 2.77 2.77 0 0 1 -1.74 1l-1.09.29 2 7.39a3.31 3.31 0 0 1 .08 2 2.42 2.42 0 0 1 -1.72 1.66 2.56 2.56 0 0 1 -2.3-.48 3.16 3.16 0 0 1 -.94-1.82l-2-7.43z"/><path d="m538.91 351.53a3.39 3.39 0 0 1 -2.75-.21 3.2 3.2 0 0 1 -.56-5.2c.62-.49.88-.59 3.52-1.3l6.71-1.81a12.39 12.39 0 0 1 2.29-.55 3.13 3.13 0 0 1 3.54 2.29 3.4 3.4 0 0 1 -.45 2.68 3.73 3.73 0 0 1 -2.37 1.42l-1.49.4 2.71 10.05a4.72 4.72 0 0 1 .12 2.73 3.29 3.29 0 0 1 -2.35 2.25 3.47 3.47 0 0 1 -3.13-.65 4.27 4.27 0 0 1 -1.28-2.48l-2.72-10.15z"/><path d="m566.39 352.43a3.88 3.88 0 0 1 3 0 3.2 3.2 0 0 1 1.72 2.07 3.32 3.32 0 0 1 -.43 2.71c-.52.73-1.06 1-2.57 1.44l-5.18 1.39a6.81 6.81 0 0 1 -2.61.42 3.19 3.19 0 0 1 -2.56-1.91 8 8 0 0 1 -.66-2l-3-10.95a5.41 5.41 0 0 1 -.38-2.63 3.09 3.09 0 0 1 1.16-2.09c.67-.51.81-.58 2.78-1.11l4-1.07a8.7 8.7 0 0 1 2.58-.54 3.08 3.08 0 0 1 3.08 2.29 3.27 3.27 0 0 1 -.43 2.74 3.64 3.64 0 0 1 -2.35 1.41l-3.32.9.37 1.39 2.63-.71a2.5 2.5 0 0 1 3.34 1.67 2.58 2.58 0 0 1 -.36 2.14 3 3 0 0 1 -1.92 1.07l-2.39.64.4 1.52z"/><path d="m576.62 356.53a3.39 3.39 0 0 1 -4.2-2.44 4.34 4.34 0 0 1 0-1.87l2.72-15.11a3.43 3.43 0 0 1 2.52-2.82 3.51 3.51 0 0 1 3.66 1.19l10 11.84a3.62 3.62 0 0 1 .83 1.5 3.47 3.47 0 0 1 -2.47 4.21c-1.54.41-2.65-.07-4.14-1.88l-6.17 1.67c-.37 2.18-1.15 3.28-2.75 3.71zm5.49-9.63-1.69-2.14-.37 2.7z"/><path d="m604.54 329a3.41 3.41 0 0 1 2.45-2.57 3.67 3.67 0 0 1 2.55.28 3.58 3.58 0 0 1 1.62 1.94l5.84 12.35a5.69 5.69 0 0 1 .42 1.09 3.35 3.35 0 0 1 -2.4 4.12 3.3 3.3 0 0 1 -4-1.66l-1.79-3.55-.34 3.92c-.17 2-1.1 3.26-2.68 3.68s-2.92-.12-4.12-1.81l-2.3-3.24.32 3.35a3.48 3.48 0 1 1 -6.83 1.29c-.07-.28-.11-.56-.16-.84l-1.18-13.54c-.18-2 .71-3.53 2.43-4a3.79 3.79 0 0 1 3.94 1.35l4.79 5.84z"/><path d="m626.19 339.06a3.8 3.8 0 0 1 -.12 2.95 3.49 3.49 0 0 1 -4.94 1.4 3.7 3.7 0 0 1 -1.6-2.56l-3.37-12.5c-.45-1.69-.46-2.34 0-3.28a3.32 3.32 0 0 1 2.16-1.75 3.47 3.47 0 0 1 2.76.39c.87.58 1.27 1.22 1.71 2.85z"/><path d="m637.18 322.63a4.12 4.12 0 0 1 -.1-2.8 3.4 3.4 0 0 1 5.2-1.66 3.9 3.9 0 0 1 1.5 2.45l3.33 12.38c.43 1.61.46 2.31.09 3.22a3.38 3.38 0 0 1 -2.27 1.94 3.29 3.29 0 0 1 -3-.65l-7.09-5.33 1.15 4.24a3.8 3.8 0 0 1 0 2.86 3.47 3.47 0 0 1 -5.26 1.32 4.26 4.26 0 0 1 -1.47-2.65l-3.43-12.77a3.44 3.44 0 0 1 2.51-4.51 3.13 3.13 0 0 1 2.84.66l7.05 5.08z"/><path d="m660.91 326.24c-1.79.48-3.09-.15-3.5-1.66s.46-2.75 2.59-3.29l2.19-.56c2.34-.57 3-.56 3.9 0a4.29 4.29 0 0 1 1.64 2.71l.44 1.73a7 7 0 0 1 .38 2.27 6.76 6.76 0 0 1 -2.47 4.07 10.56 10.56 0 0 1 -4.47 2.47 11 11 0 1 1 -5.73-21.18 11.55 11.55 0 0 1 6.09.08 3.88 3.88 0 0 1 2.93 2.56 3.51 3.51 0 0 1 -2.5 4.24 2.54 2.54 0 0 1 -.91.09l-1.7-.39a5.51 5.51 0 0 0 -2.26 0 4.11 4.11 0 0 0 2.25 7.9 4.1 4.1 0 0 0 2.1-1.37z"/></g></svg>