<svg height="710" viewBox="0 0 862 710" width="862" xmlns="http://www.w3.org/2000/svg"><path d="m751.95 41.1h12.62v74.3h-12.62z" fill="#895b24"/><path d="m751.95 115.3v-74.2l-4.48 3.4v70.8z" fill="#d3a272"/><path d="m729.01 115.3h52.87v14.8h-52.87z" fill="#77481d"/><path d="m690.95 41.1h12.62v74.3h-12.62z" fill="#895b24"/><path d="m690.95 115.3v-74.2l-4.48 3.4v70.8z" fill="#d3a272"/><path d="m668.01 115.3h52.87v14.8h-52.87z" fill="#77481d"/><path d="m629.95 41.1h12.62v74.3h-12.62z" fill="#895b24"/><path d="m629.95 115.3v-74.2l-4.49 3.4v70.8z" fill="#d3a272"/><path d="m607.01 115.3h52.87v14.8h-52.87z" fill="#77481d"/><path d="m568.95 41.1h12.62v74.3h-12.62z" fill="#895b24"/><path d="m568.95 115.3v-74.2l-4.49 3.4v70.8z" fill="#d3a272"/><path d="m546.01 115.3h52.87v14.8h-52.87z" fill="#77481d"/><path d="m507.95 41.1h12.62v74.3h-12.62z" fill="#895b24"/><path d="m507.95 115.3v-74.2l-4.49 3.4v70.8z" fill="#d3a272"/><path d="m485.01 115.3h52.87v14.8h-52.87z" fill="#77481d"/><path d="m446.95 41.1h12.62v74.3h-12.62z" fill="#895b24"/><path d="m446.95 115.3v-74.2l-4.49 3.4v70.8z" fill="#d3a272"/><path d="m424.01 115.3h52.87v14.8h-52.87z" fill="#77481d"/><path d="m385.94 41.1h12.62v74.3h-12.62z" fill="#895b24"/><path d="m385.94 115.3v-74.2l-4.48 3.4v70.8z" fill="#d3a272"/><path d="m363 115.3h52.87v14.8h-52.87z" fill="#77481d"/><path d="m324.94 41.1h12.62v74.3h-12.62z" fill="#895b24"/><path d="m324.94 115.3v-74.2l-4.48 3.4v70.8z" fill="#d3a272"/><path d="m302 115.3h52.87v14.8h-52.87z" fill="#77481d"/><path d="m263.94 41.1h12.62v74.3h-12.62z" fill="#895b24"/><path d="m263.94 115.3v-74.2l-4.48 3.4v70.8z" fill="#d3a272"/><path d="m241 115.3h52.87v14.8h-52.87z" fill="#77481d"/><path d="m202.94 41.1h12.62v74.3h-12.62z" fill="#895b24"/><path d="m202.94 115.3v-74.2l-4.48 3.4v70.8z" fill="#d3a272"/><path d="m180 115.3h52.87v14.8h-52.87z" fill="#77481d"/><path d="m141.94 41.1h12.62v74.3h-12.62z" fill="#895b24"/><path d="m141.94 115.3v-74.2l-4.48 3.4v70.8z" fill="#d3a272"/><path d="m119 115.3h52.87v14.8h-52.87z" fill="#77481d"/><path d="m80.94 41.1h12.62v74.3h-12.62z" fill="#895b24"/><path d="m80.94 115.3v-74.2l-4.48 3.4v70.8z" fill="#d3a272"/><path d="m58 115.3h52.87v14.8h-52.87z" fill="#77481d"/><path d="m64.57 130.1h739.83v10.4h-739.83z" fill="#895b24"/><path d="m99.97 140.6h15.69v543.4h-15.69z" fill="#77481d"/><path d="m94.52 140.6h5.58v543.4h-5.58z" fill="#895b24"/><path d="m357.97 133.6h15.69v543.4h-15.69z" fill="#77481d"/><path d="m352.52 133.6h5.58v543.4h-5.58z" fill="#895b24"/><path d="m733.6 163.9c-2.82.2-5.63.5-8.55.8v-24.1h12.61v23.1c-1.46 0-2.81.1-4.06.2z" fill="#77481d"/><path d="m720.46 165.1v-24.5h4.48v24.1c-1.46.1-2.94.2-4.48.4z" fill="#895b24"/></svg>