<svg height="1628" viewBox="0 0 2638 1628" width="2638" xmlns="http://www.w3.org/2000/svg"><g fill-rule="evenodd"><path d="m1931.73 1153.9-41.82-249.64 62.43-130.82-117.3-86.59-111.49-327.79-20.72-16.63-22.03 141.47-69.55 318.96-105.25-285.83-121.59-54.96-119.84-231.89-77.72 126.52-43.76 230.76-140.87-205.7 14.7-163.03-58.07-115.13-80.22-58.19-438.29 851.21 199.36-3.55 412.33-17.54 179.57 24.99 202.91 208.3 235.68 129.47 192.41-36.27z" fill="#556985"/><path d="m1382.24 486.54-78.75 557.73-119.76-106.74 117.16-169.48z" fill="#2e4256"/><path d="m1096.83 881.92 46.26-294.46-98.62-144.01 60.64 127.57-36.95 171.7-36.74 46.72-46.46 225.79z" fill="#2e4256"/><path d="m1002.69 381.99-96.28 677.43-166.13-242.05z" fill="#425872"/><path d="m1496.11 530.84-184.39 596.54s111 8.36 108.7 2.84 75.69-599.38 75.69-599.38z" fill="#425872"/><g fill="#627b99"><path d="m1264.57 230.18s-129.32 784.6-130.9 789.74-47.88-68-47.88-68l57.3-364.48 43.75-230.76z"/><path d="m1016.92 218.73-14.7 163.03-304.89 507.78z"/><path d="m965.01 116.03-70.34-10.26-486.77 950.38-168.9 38.54 639.63-1049.28z"/></g><path d="m1611.25 802.86 69.55-318.96-98.61-134.64-199.97-75.09-117.65-43.99 119.84 231.89 121.59 54.96z" fill="#1a3049"/><path d="m1402.81 1262.86 59.07-296.38 149.37-163.62 91.58-460.43 20.72 16.63-78.02 619.56-73.43 103.06-44.6 148.52 13.06-193.2 43.52-79.11 24.03-106.1-122.14 145.29-36.36 290.01z" fill="#627b99"/><path d="m1889.91 904.26-229.27 365.79s76.48 19.08 82.13 15c6.16-3.88 147.14-380.79 147.14-380.79z" fill="#425872"/><path d="m1889.91 904.26 41.82 249.64 580.15-403.71-153.69-67.32-205.64-48.93-147.7-133.9-281.3-140.98 111.49 327.79 117.3 86.59z" fill="#1a3049"/><path d="m2003.49 648.55 515.6 263.76-133.36 41.89z" fill="#122335"/><path d="m1930.61 589.8 221.94 44.14 205.64 48.93 213.49 90.56-61.27 34.96-213.76-105.88z" fill="#223c56"/><path d="m1952.34 773.44 383.54 258.29-125.77 118.4-320.2-245.87z" fill="#122335"/><path d="m1143.09 587.46 43.76-230.76-135.97-186.53-92.03-66.57 58.07 115.13-14.7 163.03z" fill="#1a3049"/><path d="m612.3 1557.35 1050.68-216.43 199.62-138.9-192.41 36.27-235.68-129.47-202.91-208.3-179.57-24.99-193.26-104.34-329.55 125.19-109.9-34.34z" fill="#627b99"/><path d="m773.62 882.67-43.72 44.32-119.02 63.68-110.62 22.78 112.04 543.9 1400.53-288.5-150.23-66.83-192.41 36.27-235.68-129.47-202.91-208.3-179.57-24.99-193.26-104.34z" fill="#1a3049"/><path d="m2152.55 633.94-157.38-138.88-271.62-136 16.29 47.58 267.23 142.67z" fill="#223c56"/><path d="m1231.6 900.52 91.22 190.94 202.1 211.35 198.9 25.57 87.06-68.38-187.92-1.41-278.89-187.6-39.36-95.44z" fill="#122335"/><path d="m773.62 882.67-50.63 45.74 115.92 152.22 225.8 25.56 200.26 316.71 163.86-33.75-317.83-314.83-225.55-45.31z" fill="#122335"/><path d="m500.26 1013.45 110.62-22.78 130.11 235.06 281.53 247.12-109.24 22.5-248.28-241.95-90.45-217.53z" fill="#122335"/></g></svg>