<svg height="1833" viewBox="0 0 2724 1833" width="2724" xmlns="http://www.w3.org/2000/svg"><path d="m48 918h2617v894h-2617z" fill="#4e4e51"/><g fill-rule="evenodd"><path d="m486.8 678.85-121.8 259.15 174 56 140 46 83 15 112-10 195.8-14.63 212.16 54.01-170.96-333.75 281.86-194.06 120.12-352.57-295.18 213.76-315.48 59.29-210.53 97.47z" fill="#4e4e51"/><path d="m954.18 673.04-46.53 21.11-63.76 52.96-93.27 45.22 63.38 145.67z" fill="#5c5c5e"/><path d="m870.75 831.44 83.43-159.4 45.71 172.42-73.79 93.77z" fill="#343435"/><path d="m601.6 680.08 303.38-161.86 297.85-90.43-267.71 118.58-290.12 258.63z" fill="#343435"/><path d="m1392.86 556.57-281.86 194.06 171.17 333.75 161.73 41.17 43.67-16 657.43-123.55c87.12-26.57 125-25.41 265-43l-629.71-454.16-267.29-284.84z" fill="#4e4e51"/><path d="m2144.56 825.4-356.68-314.22 310.15 349.58z" fill="#343435"/><path d="m1546.6 471.25 374.99 568.04 145.55-26.4z" fill="#343435"/><path d="m1392.86 556.57 325.94 573.9-144.11 21.11-463.69-400.95z" fill="#3d3d3f"/><path d="m1300.41 620.26 380.87 464.12-288.42-527.81z" fill="#343435"/><path d="m954.18 673.04 280.22-173.65 173.43-165.37-168.1 201.79-264.85 215.52z" fill="#5c5c5e"/><path d="m1512.98 204-396.86 331.46 101.68-117.7z" fill="#5c5c5e"/></g></svg>