<svg height="500" viewBox="0 0 220 500" width="220" xmlns="http://www.w3.org/2000/svg"><path d="m41.55 487.92h145.45c2.93 0 6.85 2.08 5.82-2.28l-59.5-259.2c-4.66-26.1-3.73-24.24-7.45-30.76l-1.87-3.68a25.93 25.93 0 0 1 -1-8.32h-11.4a45.32 45.32 0 0 1 -.6 7.32l-1.87 4.66c-4.66 6.52-2.79.93-8.23 28.71z" fill="#deb226" opacity=".7"/><path d="m104.68 206.3a12.62 12.62 0 0 0 25.17 1.45 13 13 0 0 0 -2.47-9.19 22.88 22.88 0 0 1 -4.38-13.74v-1h-11.38v1a23.82 23.82 0 0 1 -4.53 13.93 12.89 12.89 0 0 0 -2.41 7.55z" fill="#ffd54a" opacity=".85"/><path d="m114.15 177.48h6.31v-1.26a1.25 1.25 0 0 0 -1.26-1.22h-3.79a1.25 1.25 0 0 0 -1.26 1.26v1.26z" fill="#3d3d3f"/><path d="m112.25 203.37a5.06 5.06 0 1 1 5 5 5.06 5.06 0 0 1 -5-5z" fill="#ffeeb8"/><path d="m119.41 183.8h-4.21v7a29.22 29.22 0 0 1 -2.88 12.6 13 13 0 0 1 10 0 29.22 29.22 0 0 1 -2.88-12.6v-7zm-4.63-.63h5a.4.4 0 0 1 .42.39v7.2a28.61 28.61 0 0 0 3.32 13.3.37.37 0 0 1 -.08.46.44.44 0 0 1 -.5.06 12.11 12.11 0 0 0 -11.37 0 .44.44 0 0 1 -.5-.06.37.37 0 0 1 -.08-.46 28.61 28.61 0 0 0 3.32-13.3v-7.2a.4.4 0 0 1 .42-.39z" fill="#828282"/><path d="m124.25 212.21a1.9 1.9 0 1 1 -1.89-1.9 1.89 1.89 0 0 1 1.89 1.9z" fill="#fee593"/><path d="m114.15 177.48h6.31a2.53 2.53 0 0 1 2.54 2.52v3.79h-11.38v-3.79a2.53 2.53 0 0 1 2.53-2.53z" fill="#dfdede"/><path d="m114.15 177.48h2.52v6.32h-5v-3.8a2.53 2.53 0 0 1 2.53-2.53z" fill="#c7c7c6"/><path d="m116.97 26h2.53l-.93 148.96h-2.53v-88.92z" fill="#3d3d3f"/></svg>