<svg height="306" viewBox="0 0 1290 306" width="1290" xmlns="http://www.w3.org/2000/svg"><g fill="#da4f0c"><path d="m38.36 121.81v-15.68h-15.67v-15.68h31.31v15.68h47v-94h31.35v94.05h-15.61v15.68z"/><path d="m148.09 121.81v-78.38h15.68v-15.68h15.67v-15.67h47v15.67h15.67v15.68h15.68v78.38h-31.32v-31.36h-47v31.36zm31.35-47h47v-31.38h-15.65v-15.68h-15.67v15.68h-15.68z"/><path d="m320.52 121.81v-15.68h-15.67v-15.68h-15.68v-15.67h-15.67v-62.7h31.35v47h15.67v15.7h15.68v-15.68h15.67v-47h31.35v62.7h-15.67v15.65h-15.68v15.68h-15.67v15.68z"/><path d="m398.9 121.81v-78.38h15.68v-15.68h15.67v-15.67h47v15.67h15.75v15.68h15.68v78.38h-31.4v-31.36h-47v31.36zm31.35-47h47v-31.38h-15.65v-15.68h-15.67v15.68h-15.68z"/><path d="m540 121.81v-15.68h-15.7v-15.68h31.35v15.68h47v-31.35h-62.65v-15.68h-15.7v-31.35h15.7v-15.67h78.38v15.67h15.62v15.68h-31.32v-15.68h-47v31.35h62.71v15.68h15.61v31.35h-15.64v15.68z"/><path d="m681.06 121.81v-15.68h-15.68v-15.68h-15.67v-47h15.67v-15.7h15.68v-15.67h62.7v15.67h15.68v15.68h-31.35v-15.68h-31.36v15.68h-15.67v47h15.67v15.68h31.36v-15.66h31.35v15.68h-15.68v15.68z"/><path d="m775.11 121.81v-109.73h94.06v15.67h15.67v47h-31.35v15.7h15.68v15.68h15.67v15.68h-47v-15.68h-15.7v-15.68h-15.68v31.36zm31.35-47h31.35v-15.71h15.68v-31.35h-47z"/><path d="m916.19 121.81v-15.68h31.35v-78.38h-31.35v-15.67h94.06v15.67h-31.36v78.38h31.36v15.68z"/><path d="m1025.92 121.81v-109.73h94v15.67h15.68v47h-15.6v15.7h-62.7v31.36zm31.35-47h47v-47h-47z"/><path d="m1198.35 121.81v-94.06h-31.35v-15.67h94v15.67h-31.3v94.06z"/><path d="m96.69 272.29v-109.73h78.38v15.68h15.67v15.67h15.68v47h-15.68v15.67h-15.67v15.68zm31.31-15.68h31.35v-15.67h15.68v-47h-15.64v-15.7h-31.39z"/><path d="m222.09 272.29v-109.73h109.73v15.68h-78.38v31.35h62.7v15.67h-62.7v31.35h78.38v15.68z"/><path d="m394.52 272.29v-15.68h-15.67v-15.67h-15.68v-15.68h-15.67v-62.7h31.35v47h15.67v15.67h15.68v-15.64h15.67v-47h31.35v62.7h-15.67v15.68h-15.68v15.67h-15.67v15.68z"/><path d="m472.9 272.29v-109.73h109.73v15.68h-78.38v31.35h62.75v15.67h-62.7v31.35h78.38v15.68z"/><path d="m614 272.29v-109.73h31.35v94.05h62.65v15.68z"/><path d="m739.38 272.29v-15.68h-15.67v-78.37h15.67v-15.68h78.38v15.68h15.68v78.37h-15.68v15.68zm15.68-15.68h47v-78.37h-47z"/><path d="m849.11 272.29v-109.73h94.06v15.68h15.67v47h-15.67v15.68h-62.71v31.35zm31.35-47h47v-47h-47z"/><path d="m974.52 272.29v-109.73h109.73v15.68h-78.38v31.35h62.7v15.67h-62.7v31.35h78.38v15.68z"/><path d="m1099.92 272.29v-109.73h94v15.68h15.68v47h-31.3v15.68h15.7v15.67h15.68v15.68h-47v-15.66h-15.68v-15.67h-15.68v31.35zm31.35-47h31.35v-15.7h15.68v-31.35h-47z"/></g><path d="m43.36 133.81v-15.68h-15.67v-15.68h31.31v15.68h47v-94h31.35v94.05h-15.61v15.68z" fill="#f26522"/><path d="m153.09 133.81v-78.38h15.68v-15.68h15.67v-15.67h47v15.67h15.67v15.68h15.68v78.38h-31.32v-31.36h-47v31.36zm31.35-47h47v-31.38h-15.65v-15.68h-15.67v15.68h-15.68z" fill="#f26522"/><path d="m325.52 133.81v-15.68h-15.67v-15.68h-15.68v-15.67h-15.67v-62.7h31.35v47h15.67v15.7h15.68v-15.68h15.67v-47h31.35v62.7h-15.67v15.67h-15.68v15.68h-15.67v15.68z" fill="#f26522"/><path d="m403.9 133.81v-78.38h15.68v-15.68h15.67v-15.67h47v15.67h15.75v15.68h15.68v78.38h-31.4v-31.36h-47v31.36zm31.35-47h47v-31.38h-15.65v-15.68h-15.67v15.68h-15.68z" fill="#f26522"/><path d="m545 133.81v-15.68h-15.7v-15.68h31.35v15.68h47v-31.35h-62.65v-15.68h-15.7v-31.35h15.7v-15.67h78.38v15.67h15.62v15.68h-31.32v-15.68h-47v31.35h62.71v15.68h15.61v31.35h-15.64v15.68z" fill="#f26522"/><path d="m686.06 133.81v-15.68h-15.68v-15.68h-15.67v-47h15.67v-15.7h15.68v-15.67h62.7v15.67h15.68v15.68h-31.35v-15.68h-31.36v15.68h-15.67v47h15.67v15.68h31.36v-15.66h31.35v15.68h-15.68v15.68z" fill="#f26522"/><path d="m780.11 133.81v-109.73h94.06v15.67h15.67v47h-31.35v15.67h15.68v15.68h15.67v15.68h-47v-15.65h-15.7v-15.68h-15.68v31.36zm31.35-47h31.35v-15.71h15.68v-31.35h-47z" fill="#f26522"/><path d="m921.19 133.81v-15.68h31.35v-78.38h-31.35v-15.67h94.06v15.67h-31.36v78.38h31.36v15.68z" fill="#f26522"/><path d="m1030.92 133.81v-109.73h94v15.67h15.68v47h-15.6v15.67h-62.7v31.36zm31.35-47h47v-47h-47z" fill="#f26522"/><path d="m1203.35 133.81v-94.06h-31.35v-15.67h94v15.67h-31.3v94.06z" fill="#f26522"/><path d="m101.69 284.29v-109.73h78.38v15.68h15.67v15.67h15.68v47h-15.68v15.67h-15.67v15.68zm31.31-15.68h31.35v-15.67h15.68v-47h-15.64v-15.7h-31.39z" fill="#f26522"/><path d="m227.09 284.29v-109.73h109.73v15.68h-78.38v31.35h62.7v15.67h-62.7v31.35h78.38v15.68z" fill="#f26522"/><path d="m399.52 284.29v-15.68h-15.67v-15.67h-15.68v-15.68h-15.67v-62.7h31.35v47h15.67v15.67h15.68v-15.64h15.67v-47h31.35v62.7h-15.67v15.68h-15.68v15.67h-15.67v15.68z" fill="#f26522"/><path d="m477.9 284.29v-109.73h109.73v15.68h-78.38v31.35h62.75v15.67h-62.7v31.35h78.38v15.68z" fill="#f26522"/><path d="m619 284.29v-109.73h31.35v94.05h62.65v15.68z" fill="#f26522"/><path d="m744.38 284.29v-15.68h-15.67v-78.37h15.67v-15.68h78.38v15.68h15.68v78.37h-15.68v15.68zm15.68-15.68h47v-78.37h-47z" fill="#f26522"/><path d="m854.11 284.29v-109.73h94.06v15.68h15.67v47h-15.67v15.68h-62.71v31.35zm31.35-47h47v-47h-47z" fill="#f26522"/><path d="m979.52 284.29v-109.73h109.73v15.68h-78.38v31.35h62.7v15.67h-62.7v31.35h78.38v15.68z" fill="#f26522"/><path d="m1104.92 284.29v-109.73h94v15.68h15.68v47h-31.3v15.68h15.7v15.67h15.68v15.68h-47v-15.66h-15.68v-15.67h-15.68v31.35zm31.35-47h31.35v-15.7h15.68v-31.35h-47z" fill="#f26522"/><path d="m52.36 139.81v-15.68h-15.67v-15.68h31.31v15.68h47v-94h31.35v94.05h-15.61v15.68z" fill="#f7941d"/><path d="m162.09 139.81v-78.38h15.68v-15.68h15.67v-15.67h47v15.67h15.67v15.68h15.68v78.38h-31.32v-31.36h-47v31.36zm31.35-47h47v-31.38h-15.65v-15.68h-15.67v15.68h-15.68z" fill="#f7941d"/><path d="m334.52 139.81v-15.68h-15.67v-15.68h-15.68v-15.67h-15.67v-62.7h31.35v47h15.67v15.7h15.68v-15.68h15.67v-47h31.35v62.7h-15.67v15.67h-15.68v15.68h-15.67v15.68z" fill="#f7941d"/><path d="m412.9 139.81v-78.38h15.68v-15.68h15.67v-15.67h47v15.67h15.75v15.68h15.68v78.38h-31.4v-31.36h-47v31.36zm31.35-47h47v-31.38h-15.65v-15.68h-15.67v15.68h-15.68z" fill="#f7941d"/><path d="m554 139.81v-15.68h-15.7v-15.68h31.35v15.68h47v-31.35h-62.65v-15.68h-15.7v-31.35h15.7v-15.67h78.38v15.67h15.62v15.68h-31.32v-15.68h-47v31.35h62.71v15.68h15.61v31.35h-15.64v15.68z" fill="#f7941d"/><path d="m695.06 139.81v-15.68h-15.68v-15.68h-15.67v-47h15.67v-15.7h15.68v-15.67h62.7v15.67h15.68v15.68h-31.35v-15.68h-31.36v15.68h-15.67v47h15.67v15.68h31.36v-15.66h31.35v15.68h-15.68v15.68z" fill="#f7941d"/><path d="m789.11 139.81v-109.73h94.06v15.67h15.67v47h-31.35v15.67h15.68v15.68h15.67v15.68h-47v-15.65h-15.7v-15.68h-15.68v31.36zm31.35-47h31.35v-15.71h15.68v-31.35h-47z" fill="#f7941d"/><path d="m930.19 139.81v-15.68h31.35v-78.38h-31.35v-15.67h94.06v15.67h-31.36v78.38h31.36v15.68z" fill="#f7941d"/><path d="m1039.92 139.81v-109.73h94v15.67h15.68v47h-15.6v15.67h-62.7v31.36zm31.35-47h47v-47h-47z" fill="#f7941d"/><path d="m1212.35 139.81v-94.06h-31.35v-15.67h94v15.67h-31.3v94.06z" fill="#f7941d"/><path d="m110.69 290.29v-109.73h78.38v15.68h15.67v15.67h15.68v47h-15.68v15.67h-15.67v15.68zm31.31-15.68h31.35v-15.67h15.68v-47h-15.64v-15.7h-31.39z" fill="#f7941d"/><path d="m236.09 290.29v-109.73h109.73v15.68h-78.38v31.35h62.7v15.67h-62.7v31.35h78.38v15.68z" fill="#f7941d"/><path d="m408.52 290.29v-15.68h-15.67v-15.67h-15.68v-15.68h-15.67v-62.7h31.35v47h15.67v15.67h15.68v-15.64h15.67v-47h31.35v62.7h-15.67v15.68h-15.68v15.67h-15.67v15.68z" fill="#f7941d"/><path d="m486.9 290.29v-109.73h109.73v15.68h-78.38v31.35h62.75v15.67h-62.7v31.35h78.38v15.68z" fill="#f7941d"/><path d="m628 290.29v-109.73h31.35v94.05h62.65v15.68z" fill="#f7941d"/><path d="m753.38 290.29v-15.68h-15.67v-78.37h15.67v-15.68h78.38v15.68h15.68v78.37h-15.68v15.68zm15.68-15.68h47v-78.37h-47z" fill="#f7941d"/><path d="m863.11 290.29v-109.73h94.06v15.68h15.67v47h-15.67v15.68h-62.71v31.35zm31.35-47h47v-47h-47z" fill="#f7941d"/><path d="m988.52 290.29v-109.73h109.73v15.68h-78.38v31.35h62.7v15.67h-62.7v31.35h78.38v15.68z" fill="#f7941d"/><path d="m1113.92 290.29v-109.73h94v15.68h15.68v47h-31.3v15.68h15.7v15.67h15.68v15.68h-47v-15.66h-15.68v-15.67h-15.68v31.35zm31.35-47h31.35v-15.7h15.68v-31.35h-47z" fill="#f7941d"/></svg>