<svg height="86" viewBox="0 0 95 86" width="95" xmlns="http://www.w3.org/2000/svg"><path d="m27.74 15.61-11.39 5.28a15.21 15.21 0 0 0 -7.35 20.2l8.44 18.16a16.34 16.34 0 0 0 21.67 7.88l7.35-3.39 2 4.42a4.8 4.8 0 1 0 8.77-3.89l-1-2.15a.89.89 0 0 1 .4-1.12.88.88 0 0 1 1.17.45l.92 2a4.79 4.79 0 1 0 8.76-3.9l-1-2.15a.89.89 0 0 1 .45-1.17.89.89 0 0 1 1.17.45l.92 2a4.79 4.79 0 1 0 8.76-3.89l-1.45-3.13-4.42-9.5-5.83-12.56a28.84 28.84 0 0 0 -38.34-13.99z" fill="#717172"/><g fill="#565656"><ellipse cx="45.8" cy="46.05" rx="9.01" ry="11.14" transform="matrix(.90660261 -.42198544 .42198544 .90660261 -15.15 23.62)"/><path d="m59.3 38.33c2.48 5.28 7.91 8 12.2 6a5.76 5.76 0 0 0 1.13-.66l-.73-1.56-5.81-12.58a29.07 29.07 0 0 0 -2.74-4.69 6.19 6.19 0 0 0 -.71.28c-4.36 2.04-5.82 7.94-3.34 13.21z"/><path d="m65 52-2.41 1.12a1.28 1.28 0 0 1 -1.83-1.09l-.23-3.58a1.31 1.31 0 0 1 2.21-1l2.58 2.47a1.24 1.24 0 0 1 -.32 2.08z"/></g><path d="m9.77 42.91 7.62 16.4a16.32 16.32 0 0 0 21.66 7.88l.92-.44a23.58 23.58 0 0 0 -2.07-11.61 23.21 23.21 0 0 0 -28.13-12.23z" fill="#666"/></svg>