<svg height="85" viewBox="0 0 144 85" width="144" xmlns="http://www.w3.org/2000/svg"><path d="m22.39 24.38 84.16 40.89a3.19 3.19 0 0 0 3.86-.86l1.82-2.22a3.18 3.18 0 0 0 -1-4.85l-84.1-43.51a3.2 3.2 0 0 0 -4.45 1.68l-1.87 4.84a3.2 3.2 0 0 0 1.58 4.03z" fill="#9b978c"/><ellipse cx="20.81" cy="16.02" fill="#c9c3b5" rx="11.33" ry="12" transform="matrix(.98763367 -.15677922 .15677922 .98763367 -2.25 3.46)"/><circle cx="20.92" cy="16.67" fill="#539aad" r="3.33"/><path d="m135.29 78.75-2.29 1.16a2.54 2.54 0 0 1 -3.38-1.08l-8.72-16.18a2.54 2.54 0 0 0 -3.06-1.21l-7.56 2.56a2.53 2.53 0 0 1 -3.15-1.4l-1.29-3a2.54 2.54 0 0 1 1.52-3.42l13.14-4.45a2.56 2.56 0 0 1 3 1.14l12.86 22.33a2.55 2.55 0 0 1 -1.07 3.55z" fill="#9b978c"/></svg>