<svg height="264" viewBox="0 0 312 264" width="312" xmlns="http://www.w3.org/2000/svg"><path d="m47 66.67c-4 1.67-4.72 9.07-4.84 13.36 5.38-2.9 7.75-6.32 8.27-9.17a5.35 5.35 0 0 0 -.09-2.38 3.16 3.16 0 0 0 -.86-1.48 2.16 2.16 0 0 0 -2.48-.33zm-8.85 11.82c.34-5.3 1.76-13.31 7.23-15.61a6.12 6.12 0 0 1 6.95 1.21 6.91 6.91 0 0 1 1.87 3.29 9.73 9.73 0 0 1 .19 4.16c-2 11.52-22.95 20.35-32.57 13.71a9.68 9.68 0 0 1 -2.83-3 7.26 7.26 0 0 1 -1-3.64 6.12 6.12 0 0 1 4-5.82c5.42-2.35 12.12 2.21 16.16 5.7zm-1.7 3.88c-3.11-2.93-8.93-7.57-12.94-5.89a2.23 2.23 0 0 0 -1.51 2 3.59 3.59 0 0 0 .47 1.63 5.62 5.62 0 0 0 1.64 1.73c2.35 1.67 6.47 2.41 12.34.53z" fill="#f8bd2f"/><path d="m17.64 82.8h48.84v10.1h-48.84z" fill="#eb5a44" transform="matrix(.92172783 -.38783735 .38783735 .92172783 -30.77 23.18)"/><path d="m29.75 91.1h42.41v35.78h-42.41z" fill="#eb5a44" transform="matrix(.92172783 -.38783735 .38783735 .92172783 -38.28 28.28)"/><path d="m23.37 92.39h42.41v2.87h-42.41z" fill="#de4938" transform="matrix(.92172783 -.38783735 .38783735 .92172783 -32.89 24.62)"/><path d="m43.03 81.39h11.98v45.87h-11.98z" fill="#f8bd2f" transform="matrix(.92172783 -.38783735 .38783735 .92172783 -36.62 27.17)"/><path d="m38.61 92.38h11.98v2.87h-11.98z" fill="#f0b12d" transform="matrix(.92172783 -.38783735 .38783735 .92172783 -32.89 24.63)"/><path d="m48.78 80.23h5.99v45.87h-5.99z" fill="#f0b12d" transform="matrix(.92172783 -.38783735 .38783735 .92172783 -35.95 28.15)"/><path d="m143.19 33.5h90.6v19.48h-90.6z" fill="#eb5a44"/><path d="m214.88 33.5h12.89l-3.81 12.22-15.66-7.73-10.6 13.94-9.07-9.46 8.69-6.01 8.97 1.24 3.63-.86z" fill="#de4938" fill-rule="evenodd"/><path d="m147.58 52.88h81.82v69.02h-81.82z" fill="#eb5a44"/><path d="m188.44 52.88h40.96v69.02h-40.96z" fill="#de4938"/><path d="m229.4 77.22v-6.11h-81.82v6.11zm0 13.28v-6.11h-81.82v6.11zm0 13.17v-6.11h-81.82v6.11zm0 13.27v-6.11h-81.82v6.11zm0-52.89v-6.11h-81.82v6.11z" fill="#f8f4e7" fill-rule="evenodd"/><path d="m188.44 110.83v6.11h41v-6.11zm0-13.27v6.11h41v-6.11zm0-13.17v6.11h41v-6.11zm0-13.18v6.11h41v-6.11zm41-7.16v-6.11h-41v6.11z" fill="#eee5cf" fill-rule="evenodd"/><path d="m147.58 52.88h81.82v3.72h-81.82z" fill="#de4938"/><path d="m196.08 33.5h23.1v88.5h-23.1z" fill="#f8bd2f"/><path d="m219.18 43.33v-9.83h-4.3l-4.96 3.34-2.29-3.34-10.31 2.96-1.24.86v12.89l1.62 1.72 10.6-13.94z" fill="#f0b12d" fill-rule="evenodd"/><path d="m196.08 52.88h23.1v3.72h-23.1z" fill="#f0b12d"/><path d="m207.63 33.5h11.55v88.5h-11.55z" fill="#f0b12d"/><path d="m205.63 33.21 3.62-.86 22.63-15.46-12.41-12.89-14.32 19-21.29-10.6-5.35 17.09z" fill="#f8bd2f" fill-rule="evenodd"/><path d="m216.79 27.2 10.41 1.53-3.91 12.5-15.66-7.73-10.6 13.94-9.07-9.45 8.69-6.02 8.98 1.24 3.62-.86z" fill="#f8bd2f" fill-rule="evenodd"/><path d="m216.79 27.2 4.97.76-10.6 7.26-3.53-1.72-2.39 3.15-12.79-1.81 4.2-2.87 8.98 1.24 3.62-.86z" fill="#f0b12d" fill-rule="evenodd"/><path d="m220.04 9.35 1.72 1.91-14.99 14.98z" fill="#f0b12d" fill-rule="evenodd"/><path d="m183.38 20.23-.19 2.58 20.91 3.34z" fill="#f0b12d" fill-rule="evenodd"/><circle cx="166.24" cy="64.59" fill="#eb5a44" r="14.13" transform="matrix(.9781476 -.20791169 .20791169 .9781476 -9.8 35.98)"/><path d="m163.3 50.77a14.12 14.12 0 1 1 5.88 27.63z" fill="#de4938" fill-rule="evenodd"/><path d="m171.84 67.4a.69.69 0 0 1 -.75 1.16l-.73-.48.17.83a.7.7 0 1 1 -1.36.29l-.46-2.2-1.52-1 .67 3.15 2.67 1.74a.69.69 0 0 1 -.75 1.15l-1.52-1 .38 1.79a.69.69 0 0 1 -.54.82.7.7 0 0 1 -.83-.53l-.37-1.79-1 1.52a.69.69 0 0 1 -1.15-.75l1.73-2.67-.67-3.15-1 1.52.46 2.2a.7.7 0 1 1 -1.36.29l-.18-.83-.48.74a.69.69 0 1 1 -1.15-.75l.48-.74-.84.18a.7.7 0 0 1 -.29-1.37l2.2-.46 1-1.52-3.15.67-1.73 2.67a.69.69 0 0 1 -1.15-.75l1-1.52-1.78.38a.7.7 0 0 1 -.29-1.37l1.78-.38-1.52-1a.69.69 0 0 1 .75-1.15l2.67 1.73 3.15-.67-1.52-1-2.2.47a.7.7 0 0 1 -.29-1.37l.83-.17-.73-.48a.69.69 0 1 1 .75-1.15l.78.55-.18-.84a.7.7 0 1 1 1.37-.29l.47 2.2 1.52 1-.67-3.15-2.67-1.74a.69.69 0 0 1 .75-1.15l1.51 1-.37-1.78a.68.68 0 0 1 .53-.83.7.7 0 0 1 .74.58l.38 1.78 1-1.52a.69.69 0 0 1 1.15.75l-1.74 2.67.67 3.15 1-1.52-.47-2.2a.7.7 0 0 1 1.37-.29l.18.83.47-.73a.69.69 0 1 1 1.16.74l-.48.74.83-.18a.7.7 0 0 1 .29 1.37l-2.12.45-1 1.52 3.15-.67 1.73-2.67a.69.69 0 0 1 1.16.75l-1 1.52 1.78-.38a.7.7 0 1 1 .29 1.36l-1.78.38 1.52 1a.69.69 0 0 1 -.75 1.15l-2.67-1.73-3.15.67 1.52 1 2.2-.47a.7.7 0 1 1 .29 1.37l-.83.18z" fill="#f8bd2f"/><path d="m171.84 67.4a.69.69 0 0 1 -.75 1.16l-.73-.48.17.83a.7.7 0 1 1 -1.36.29l-.46-2.2-1.52-1 .67 3.15 2.67 1.74a.69.69 0 0 1 -.75 1.15l-1.52-1 .38 1.79a.69.69 0 0 1 -.54.82l-3.85-18.14a.69.69 0 0 1 .82.54l.38 1.78 1-1.52a.69.69 0 1 1 1.15.75l-1.73 2.67.67 3.15 1-1.52-.47-2.2a.7.7 0 0 1 1.37-.29l.18.83.48-.73a.69.69 0 1 1 1.15.75l-.48.73.83-.18a.7.7 0 0 1 .3 1.37l-2.13.45-1 1.52 3.13-.61 1.74-2.67a.69.69 0 0 1 1.15.75l-1 1.52 1.79-.38a.69.69 0 0 1 .82.54.7.7 0 0 1 -.53.83l-1.79.37 1.52 1a.69.69 0 0 1 -.75 1.15l-2.67-1.73-3.18.62 1.52 1 2.2-.46a.7.7 0 1 1 .29 1.36l-.83.18z" fill="#f0b12d"/><path d="m159.83 48.42 5.69-1.22a.54.54 0 0 1 .65.42l.6 2.85a14.3 14.3 0 0 0 -3.47.3 14.05 14.05 0 0 0 -3.3 1.14l-.6-2.85a.55.55 0 0 1 .43-.64z" fill="#f8f4e7" fill-rule="evenodd"/><path d="m162.67 47.81 2.85-.61a.54.54 0 0 1 .65.42l.6 2.85a14.3 14.3 0 0 0 -3.47.3z" fill="#eee5cf" fill-rule="evenodd"/><path d="m164.57 47.41-.34-1.64a1 1 0 0 0 -1.15-.74l-1.9.4a1 1 0 0 0 -.75 1.15l.36 1.67 3.79-.81z" fill="#f8f4e7" fill-rule="evenodd"/><path d="m160.71 47.23h3.84v.58h-3.84z" fill="#eee5cf" transform="matrix(.9781476 -.20791169 .20791169 .9781476 -6.33 34.86)"/><path d="m164.57 47.41-.34-1.64a1 1 0 0 0 -1.15-.74l-1 .2.55 2.62 1.9-.41z" fill="#eee5cf" fill-rule="evenodd"/><path d="m159.42 32.51c2.09-.44 3.55.84 4.45 2.83a10.7 10.7 0 0 1 .82 2.72 18.1 18.1 0 0 1 .31 2.94 10.72 10.72 0 0 1 -.82 4.54.94.94 0 0 0 -1-.49h-.12a9 9 0 0 0 .54-4.05 12 12 0 0 0 -.25-2.69 10.49 10.49 0 0 0 -.7-2.39c-.66-1.4-1.61-2.31-2.9-2s-1.82 1.5-1.81 3a10.11 10.11 0 0 0 .33 2.47 14.81 14.81 0 0 0 .86 2.56 10.3 10.3 0 0 0 2.24 3.45h-.15a1 1 0 0 0 -.77.88 11 11 0 0 1 -2.6-3.81 18.54 18.54 0 0 1 -.94-2.78 10.59 10.59 0 0 1 -.36-2.82c.01-2.16.82-3.87 2.87-4.36z" fill="#834134"/><path d="m254.94 28.58s-13.94 15.13-24.26 20.17l11.54 1.64c-3 4-11.36 14.66-19.71 19.85l12 1.7a163.65 163.65 0 0 1 -21.51 20.43c12.8 3.54 23.17 4.11 32.63 1.37 8.32 5.33 18.44 7.67 31.73 7.75a163.56 163.56 0 0 1 -15-25.6l12 1.7c-6.56-7.37-11.63-19.93-13.36-24.54l11.54 1.63c-8.54-7.68-17.6-26.1-17.6-26.1z" fill="#97b63d" fill-rule="evenodd"/><path d="m234.58 72c-.65.74-1.41 1.67-2.39 2.71l31.7 4.49c-.58-1.26-1.12-2.31-1.54-3.26z" fill="#85a940" fill-rule="evenodd"/><path d="m242.22 50.39c-.52.76-1.28 1.69-2.12 2.75l22.2 3.14c-.52-1.25-1-2.35-1.28-3.22z" fill="#85a940" fill-rule="evenodd"/><path d="m245.7 93.75c8.31 5.33 18.44 7.67 31.72 7.75a164.36 164.36 0 0 1 -15-25.6l12 1.7c-6.57-7.37-11.65-19.93-13.42-24.54l11.54 1.63c-8.54-7.79-17.67-26.12-17.67-26.12l-9.24 65.17z" fill="#85a940" fill-rule="evenodd"/><path d="m256.89 14.74 1.3 7.45 7.47 1.06-6.66 3.49 1.29 7.52-5.41-5.33-6.75 3.61 3.4-6.86-5.49-5.21 7.53 1.07z" fill="#f8bd2f" fill-rule="evenodd"/><path d="m256.89 14.74 1.3 7.45 7.47 1.06-6.66 3.49 1.29 7.52-5.41-5.33z" fill="#f0b12d" fill-rule="evenodd"/><path d="m250.45 96.36-2.45 17.17-10-1.42 2.44-17.18a46.34 46.34 0 0 0 5.29-1.18 41.74 41.74 0 0 0 4.72 2.61z" fill="#8f503b" fill-rule="evenodd"/><path d="m250.45 96.36-2.45 17.17-5-.71 2.7-19.07a41.74 41.74 0 0 0 4.75 2.61z" fill="#834134" fill-rule="evenodd"/><circle cx="251.54" cy="45.2" fill="#eb5a44" r="2.74"/><circle cx="242" cy="66.63" fill="#fff" r="2.74"/><circle cx="234.28" cy="86.38" fill="#f8bd2f" r="2.74"/><circle cx="258.08" cy="83.11" fill="#eb5a44" r="2.74"/><circle cx="256.48" cy="62.17" fill="#f8bd2f" r="2.74"/><g fill-rule="evenodd"><path d="m133.49 27.74 15.82-1.14a.4.4 0 0 1 .42.36l5.62 78.14a.39.39 0 0 1 -.36.41l-15.83 1.14a.39.39 0 0 1 -.41-.36l-5.62-78.14a.4.4 0 0 1 .36-.41z" fill="#5d6343"/><path d="m80.74 31.54 53-3.81a1.28 1.28 0 0 1 1.38 1.19l5.49 76.33a1.3 1.3 0 0 1 -1.2 1.38l-53 3.81a1.29 1.29 0 0 1 -1.41-1.19l-5.45-76.33a1.3 1.3 0 0 1 1.19-1.38z" fill="#494f32"/><path d="m135.79 38.52 1.56 21.7a73.47 73.47 0 0 0 -21.73 1.4 80.74 80.74 0 0 0 -32.92 15.14l-1.07-15c9.73-10.17 24-18.23 40.12-21.63a78.53 78.53 0 0 1 14.04-1.61z" fill="#494f32"/><path d="m135.79 38.52 1.56 21.7a73.47 73.47 0 0 0 -21.73 1.4 80.74 80.74 0 0 0 -32.92 15.14l-1.07-15c9.73-10.17 24-18.23 40.12-21.63a78.53 78.53 0 0 1 14.04-1.61z" fill="#ffcf61"/><path d="m136 42 1.15 16a78.79 78.79 0 0 0 -23.3 2 85.72 85.72 0 0 0 -31.34 14.13l-.74-10.34c8.78-8.67 22.32-16 37.78-19.62a83.28 83.28 0 0 1 16.45-2.17z" fill="#fff"/><path d="m125.22 83.15a14.1 14.1 0 0 1 -28.13 2z" fill="#fff"/><path d="m111.08 83.15c7.78-.56 14.1-.56 14.14 0s-6.23 1.46-14 2-14.1.56-14.14 0 6.23-1.44 14-2z" fill="#ffcf61"/><path d="m110.4 85.23 11.1-12.82a1.24 1.24 0 0 1 1.75-.13 1.25 1.25 0 0 1 .13 1.76l-9.45 10.96-2.7.22z" fill="#e6e6e6"/><path d="m86.59 38.64 6.46-.47a1.77 1.77 0 0 1 1.88 1.63 1.76 1.76 0 0 1 -1.63 1.87l-6.46.47a1.76 1.76 0 0 1 -1.84-1.63 1.75 1.75 0 0 1 1.59-1.87z" fill="#fff"/><g fill="#e6e6e6"><path d="m140.28 33.9 5.1-.37a2.55 2.55 0 0 1 2.71 2.35l2.67 37.24a2.54 2.54 0 0 1 -2.34 2.71l-5.1.37a2.55 2.55 0 0 1 -2.71-2.35l-2.68-37.24a2.55 2.55 0 0 1 2.35-2.71z"/><path d="m144.4 91.93 5.19-.37a2.49 2.49 0 0 1 2.66 2.3l.36 5a2.49 2.49 0 0 1 -2.3 2.65l-5.19.37a2.49 2.49 0 0 1 -2.66-2.29l-.36-5a2.51 2.51 0 0 1 2.3-2.66z"/><path d="m141.7 80 3.75-.27a.66.66 0 0 1 .7.6v.56a.66.66 0 0 1 -.6.69l-3.75.27a.65.65 0 0 1 -.7-.6v-.55a.66.66 0 0 1 .6-.7z"/><path d="m141.94 83.28 3.75-.27a.65.65 0 0 1 .7.6v.56a.66.66 0 0 1 -.6.69l-3.76.27a.65.65 0 0 1 -.69-.6v-.56a.64.64 0 0 1 .6-.69z"/></g><path d="m92 59.62a4.21 4.21 0 0 0 -1.38 1.83 5.15 5.15 0 0 0 -.37 2.34c.06.85.27 1.37.62 1.57s.85.09 1.51-.34a12.72 12.72 0 0 0 2-1.66l.11 1.48a10.65 10.65 0 0 1 -2.12 1.69c-1.13.72-2 1-2.65.74a1.34 1.34 0 0 1 -.76-.69 3.56 3.56 0 0 1 -.33-1.44 5.65 5.65 0 0 1 0-1.16 7.07 7.07 0 0 1 .25-1.23 9.35 9.35 0 0 1 1.12-2.47 8.43 8.43 0 0 1 1.87-2.08 5.39 5.39 0 0 1 2.3-1.09c-.14.61-.29 1.2-.42 1.79a7 7 0 0 0 -.9.24 3.07 3.07 0 0 0 -.86.48zm8.66 2.46c-1.52.67-3 1.39-4.53 2.16l-.35-4.24-.3-4.26q2.23-1.41 4.49-2.65l.11 1.56c-1 .51-1.9 1-2.85 1.56l.14 1.91c.88-.47 1.76-.94 2.65-1.39l.11 1.56c-.89.44-1.77.89-2.65 1.35l.08 1.12.08 1.12c1-.47 1.91-.92 2.86-1.36l.12 1.58zm2.95-6.5.53-.22a2.77 2.77 0 0 0 1.16-.78 1.66 1.66 0 0 0 .3-1.14q0-.67-.45-.81a2 2 0 0 0 -1.22.21l-.5.22.09 1.26zm.11 1.61.13 1.79.13 1.79-1.68.64-.33-4.58-.32-4.58c.76-.37 1.52-.74 2.29-1.08a3 3 0 0 1 2.42-.28 2.09 2.09 0 0 1 .93 1.87 3.66 3.66 0 0 1 -.27 1.66 4.16 4.16 0 0 1 -1 1.41c.67.86 1.23 1.58 1.67 2.16s.76 1 1 1.28l-1.88.55-1.08-1.5c-.35-.5-.71-1-1.07-1.47l-.88.34zm10.53.72c-1.53.32-3.07.67-4.61 1.06l-.35-4.89-.35-4.89c1.52-.51 3-1 4.58-1.42l.13 1.76c-1 .26-1.94.53-2.9.82l.15 2.18c.9-.26 1.8-.5 2.71-.73l.12 1.76c-.9.22-1.8.44-2.7.69l.09 1.27.09 1.28c1-.24 1.94-.46 2.91-.67zm6.61-.91c-.25-.83-.51-1.65-.76-2.47-1 .11-2 .24-2.94.39-.13.86-.27 1.71-.41 2.56l-1.83.3q.53-2.69 1-5.4c.35-1.82.69-3.66 1-5.5l2.08-.41c.6 1.7 1.21 3.4 1.81 5.12l1.82 5.27-1.85.14zm-1.31-4.31c-.35-1.1-.63-2-.82-2.58s-.32-1-.36-1.13-.16-.52-.2-.68c0 .32-.12.87-.24 1.66s-.28 1.8-.47 3c.69-.12 1.39-.23 2.09-.32zm4.18 4.14-.39-5.44-.43-5.39 1.7-.17.33 4.55.32 4.54c1.11 0 2.21 0 3.32.07l.14 2c-1.72-.15-3.36-.18-5.03-.16z" fill="#494f32"/><path d="m258.15 86.93 26.34 6.42a1.11 1.11 0 0 1 .81 1.34l-7.79 32a1.12 1.12 0 0 1 -1.34.81l-26.34-6.42a1.13 1.13 0 0 1 -.82-1.34l7.8-32a1.11 1.11 0 0 1 1.34-.81z" fill="#ffcf61"/><path d="m257.26 86.71 4.74 1.16a.2.2 0 0 1 .15.24l-8.22 33.73a.21.21 0 0 1 -.25.15l-4.68-1.15a.2.2 0 0 1 -.15-.24l8.15-33.74a.22.22 0 0 1 .26-.15z" fill="#ebbe57"/><path d="m279.21 92.06 4.09 1a.19.19 0 0 1 .13.21l-8.24 33.79a.18.18 0 0 1 -.21.13l-4.09-1a.17.17 0 0 1 -.13-.21l8.24-33.79a.18.18 0 0 1 .21-.13z" fill="#ffde91"/><path d="m256.87 86.62 28.89 7a.52.52 0 0 1 .38.62l-.42 1.7a.5.5 0 0 1 -.61.37l-28.9-7a.51.51 0 0 1 -.37-.61l.42-1.71a.5.5 0 0 1 .61-.37z" fill="#e6e6e6"/><path d="m279.67 92.18 3.45.84a.52.52 0 0 1 .38.61l-.42 1.71a.5.5 0 0 1 -.61.37l-3.47-.84a.51.51 0 0 1 -.37-.61l.42-1.71a.5.5 0 0 1 .62-.37z" fill="#fff"/><path d="m256.87 86.62 7 1.71a.52.52 0 0 1 .38.61l-.42 1.71a.5.5 0 0 1 -.61.37l-7-1.71a.5.5 0 0 1 -.37-.61l.41-1.71a.5.5 0 0 1 .61-.37z" fill="#ccc"/><path d="m249.21 118.05 28.89 7a.5.5 0 0 1 .37.61l-.41 1.7a.52.52 0 0 1 -.62.38l-28.89-7.05a.5.5 0 0 1 -.37-.61l.41-1.71a.54.54 0 0 1 .62-.32z" fill="#e6e6e6"/><path d="m272 123.61 3.45.84a.5.5 0 0 1 .37.61l-.41 1.71a.51.51 0 0 1 -.62.37l-3.45-.84a.5.5 0 0 1 -.37-.61l.41-1.71a.51.51 0 0 1 .62-.37z" fill="#fff"/><path d="m249.21 118.05 7 1.71a.51.51 0 0 1 .37.62l-.41 1.7a.51.51 0 0 1 -.62.37l-7-1.71a.51.51 0 0 1 -.38-.61l.42-1.7a.52.52 0 0 1 .62-.38z" fill="#ccc"/><path d="m269.56 99.86 5.22 8.58a.86.86 0 0 1 -.29 1.17l-8.58 5.21a.85.85 0 0 1 -1.16-.28l-5.22-8.54a.87.87 0 0 1 .28-1.17l8.59-5.22a.85.85 0 0 1 1.16.25z" fill="#fff"/><path d="m91.41 71.28-16.34 3c-6.61 1.21-11 8-9.67 15.06l6.5 35.66a2.36 2.36 0 0 0 2.67 2l35.91-6.53a2.37 2.37 0 0 0 1.8-2.8l-6.5-35.67c-1.3-7.11-7.78-11.92-14.37-10.72z" fill="#e34949"/><path d="m82.86 45.93-8.72 1.59a.72.72 0 0 0 -.55.86l9 49.48a.72.72 0 0 0 .82.61l8.72-1.59a.72.72 0 0 0 .55-.86l-9-49.48a.72.72 0 0 0 -.82-.61z" fill="#e34949"/><path d="m84.24 45.68-11.48 2.09a.65.65 0 0 0 -.49.76l1.5 8.21a.64.64 0 0 0 .72.53l11.51-2.09a.65.65 0 0 0 .49-.76l-1.49-8.2a.65.65 0 0 0 -.76-.54z" fill="#fff"/><path d="m83.33 72.75-8.26 1.5c-6.61 1.21-11 8-9.67 15.06l6.5 35.69a2.36 2.36 0 0 0 2.67 2l8.26-1.5a2.36 2.36 0 0 1 -2.67-2l-6.5-35.69c-1.3-7.07 3.06-13.81 9.67-15.06z" fill="#f07676"/><path d="m104.87 84.48-37.75 6.87a1.39 1.39 0 0 0 -1.06 1.65l3.25 17.84a1.39 1.39 0 0 0 1.57 1.16l37.75-6.88a1.39 1.39 0 0 0 1.06-1.65l-3.25-17.83a1.39 1.39 0 0 0 -1.57-1.16z" fill="#fff"/><path d="m105.45 84.37-9.31 1.7a.77.77 0 0 0 -.59.92l3.45 19.09a.78.78 0 0 0 .88.65l9.31-1.7a.77.77 0 0 0 .6-.91l-3.46-19.12a.79.79 0 0 0 -.88-.63z" fill="#e6e6e6"/><path d="m88.4 95.2a4.72 4.72 0 1 0 5.17 3.8 4.55 4.55 0 0 0 -5.17-3.8z" fill="#e34949"/><path d="m87.53 98a4.23 4.23 0 0 0 -1-4.08 3.63 3.63 0 0 0 -3.84-1 4.23 4.23 0 0 0 1 4.08 3.59 3.59 0 0 0 3.84 1z" fill="#3c6"/><path d="m87.26 98a3.17 3.17 0 0 1 -.41-3.15 2.73 2.73 0 0 1 2.47-1.72 3.19 3.19 0 0 1 .41 3.16 2.74 2.74 0 0 1 -2.47 1.71z" fill="#3c6"/><path d="m108.41 94.82h45.79a1.46 1.46 0 0 1 1.45 1.44v27.06a1.46 1.46 0 0 1 -1.45 1.45h-45.79a1.45 1.45 0 0 1 -1.44-1.45v-27.06a1.44 1.44 0 0 1 1.44-1.44z" fill="#90c3ff"/><path d="m135.71 94.82h18.48a1.45 1.45 0 0 1 1.45 1.44v27.06a1.46 1.46 0 0 1 -1.45 1.45h-18.48z" fill="#3c6"/><path d="m145.37 94.82h4.41a.23.23 0 0 1 .23.23v29.48a.23.23 0 0 1 -.23.23h-4.41a.23.23 0 0 1 -.23-.23v-29.48a.23.23 0 0 1 .23-.23z" fill="#67e08f"/><path d="m107.32 94.82h6.68a.35.35 0 0 1 .36.35v29.24a.36.36 0 0 1 -.36.35h-6.65a.35.35 0 0 1 -.35-.35v-29.24a.35.35 0 0 1 .32-.35z" fill="#77a5db"/><path d="m106.5 122.6h49.61a.4.4 0 0 1 .4.39v1.37a.4.4 0 0 1 -.4.4h-49.61a.4.4 0 0 1 -.39-.4v-1.36a.38.38 0 0 1 .39-.4z" fill="#e6e6e6"/><path d="m145 122.6h6.69a.4.4 0 0 1 .39.39v1.37a.4.4 0 0 1 -.39.4h-6.69a.4.4 0 0 1 -.4-.4v-1.36a.4.4 0 0 1 .4-.4z" fill="#fff"/><path d="m106.5 122.6h8.33a.39.39 0 0 1 .39.39v1.37a.39.39 0 0 1 -.39.4h-8.33a.4.4 0 0 1 -.39-.4v-1.36a.38.38 0 0 1 .39-.4z" fill="#ccc"/><path d="m106.5 94.82h49.61a.39.39 0 0 1 .4.39v1.37a.4.4 0 0 1 -.4.39h-49.61a.4.4 0 0 1 -.39-.39v-1.37a.38.38 0 0 1 .39-.39z" fill="#e6e6e6"/><path d="m145 94.82h6.69a.39.39 0 0 1 .39.39v1.37a.4.4 0 0 1 -.39.39h-6.69a.4.4 0 0 1 -.4-.39v-1.37a.39.39 0 0 1 .4-.39z" fill="#fff"/><path d="m106.5 94.82h8.33a.38.38 0 0 1 .39.39v1.37a.39.39 0 0 1 -.39.39h-8.33a.4.4 0 0 1 -.39-.39v-1.37a.38.38 0 0 1 .39-.39z" fill="#ccc"/><path d="m117 106h23.5a1.79 1.79 0 0 1 1.78 1.78v8.14a1.79 1.79 0 0 1 -1.78 1.79h-23.5a1.79 1.79 0 0 1 -1.79-1.79v-8.14a1.79 1.79 0 0 1 1.79-1.78z" fill="#e34949"/><g fill="#fff"><path d="m115.69 119.57h5.61a.52.52 0 0 1 .53.52.53.53 0 0 1 -.53.52h-5.61a.53.53 0 0 1 -.52-.52.52.52 0 0 1 .52-.52z"/><path d="m123.92 119.57h3.08a.52.52 0 0 1 .52.52.53.53 0 0 1 -.52.52h-3.09a.53.53 0 0 1 -.52-.52.52.52 0 0 1 .53-.52z"/><path d="m126.39 109.31a4.39 4.39 0 0 1 4 2.59 4.39 4.39 0 0 1 -8 0 4.39 4.39 0 0 1 4-2.59z"/><path d="m132.77 109.92a3.48 3.48 0 0 1 1.18.21 3.43 3.43 0 0 0 -1.88 1.77 3.45 3.45 0 0 0 1.88 1.76 3.48 3.48 0 0 1 -1.18.21 3.34 3.34 0 0 1 -3.05-2 3.34 3.34 0 0 1 3.05-1.95z"/><path d="m163.27 76h27.92a1.14 1.14 0 0 1 1.14 1.14v48.49a1.14 1.14 0 0 1 -1.14 1.13h-27.92a1.14 1.14 0 0 1 -1.14-1.13v-48.48a1.14 1.14 0 0 1 1.14-1.15z"/></g><path d="m162.34 76h5a.21.21 0 0 1 .2.21v50.35a.2.2 0 0 1 -.2.2h-5a.21.21 0 0 1 -.21-.2v-50.35a.21.21 0 0 1 .21-.21z" fill="#e6e6e6"/><path d="m162.13 76h30.21a.73.73 0 0 1 .72.73v2.53a.73.73 0 0 1 -.72.73h-30.21a.73.73 0 0 1 -.73-.73v-2.53a.73.73 0 0 1 .73-.73z" fill="#e6e6e6"/><path d="m186.29 76h3.24a.73.73 0 0 1 .73.73v2.53a.73.73 0 0 1 -.73.73h-3.24a.73.73 0 0 1 -.73-.73v-2.53a.73.73 0 0 1 .73-.73z" fill="#fff"/><path d="m162.13 76h7a.73.73 0 0 1 .73.73v2.53a.73.73 0 0 1 -.73.73h-7a.73.73 0 0 1 -.73-.73v-2.53a.73.73 0 0 1 .73-.73z" fill="#ccc"/><path d="m163 103.89h28.47a.87.87 0 0 1 .87.87v21.14a.87.87 0 0 1 -.87.87h-28.47a.87.87 0 0 1 -.87-.87v-21.15a.88.88 0 0 1 .87-.86z" fill="#e34949"/><path d="m185.15 103.89h5.1a.21.21 0 0 1 .21.21v22.46a.2.2 0 0 1 -.21.2h-5.1a.2.2 0 0 1 -.21-.2v-22.46a.21.21 0 0 1 .21-.21z" fill="#f07676"/><path d="m162.34 103.89h5a.21.21 0 0 1 .2.21v22.47a.2.2 0 0 1 -.2.2h-5a.21.21 0 0 1 -.21-.2v-22.48a.2.2 0 0 1 .21-.2z" fill="#c74c4c"/><path d="m162.13 122.77h30.21a.72.72 0 0 1 .72.72v2.51a.73.73 0 0 1 -.72.73h-30.21a.73.73 0 0 1 -.73-.73v-2.54a.73.73 0 0 1 .73-.69z" fill="#e6e6e6"/><path d="m186.29 122.77h3.24a.73.73 0 0 1 .73.72v2.51a.73.73 0 0 1 -.73.73h-3.24a.73.73 0 0 1 -.73-.73v-2.54a.73.73 0 0 1 .73-.69z" fill="#fff"/><path d="m162.13 122.77h7a.73.73 0 0 1 .73.72v2.51a.73.73 0 0 1 -.73.73h-7a.73.73 0 0 1 -.73-.73v-2.54a.73.73 0 0 1 .73-.69z" fill="#ccc"/><g fill="#fff"><path d="m172.39 114.26h9.68a.9.9 0 0 1 .89.89.89.89 0 0 1 -.89.89h-9.68a.89.89 0 0 1 -.89-.89.89.89 0 0 1 .89-.89z"/><path d="m174.15 117.38h6.16a.57.57 0 0 1 .56.56.57.57 0 0 1 -.56.57h-6.16a.58.58 0 0 1 -.57-.57.57.57 0 0 1 .57-.56z"/></g></g><circle cx="177.23" cy="101.39" fill="#ffcf61" r="7.11"/><g fill-rule="evenodd"><path d="m189.71 58c.23.79.7 2.61.93 3.42.47-.84 1-1.68 1.45-2.52a2.28 2.28 0 0 1 3.91 2.27c-2.13 3.69-4.26 6.72-3.39 9.91-4.53 1.2-7.25 2-11.79 3.16-1-3.83-3.3-7.31-4.34-11.14-1.37-5.15 1.4-9.47 4.54-10.28a7.12 7.12 0 0 1 8.69 5.18z" fill="#eb5a44"/><path d="m189.71 58c.23.79.7 2.61.93 3.42.47-.84 1-1.68 1.45-2.52a2.28 2.28 0 0 1 3.91 2.27c-2.13 3.69-4.26 6.72-3.39 9.91l-5.91 1.57-5.3-19.94a7.16 7.16 0 0 1 8.31 5.29z" fill="#de4938"/><path d="m181.93 78.42 11.79-3.17c2.24-.61 1.14-4.73-1.12-4.14l-11.79 3.16c-2.24.59-1.12 4.73 1.12 4.15z" fill="#f8f4e7"/><path d="m187.84 76.82 5.9-1.57c2.24-.61 1.15-4.73-1.12-4.14l-5.9 1.57z" fill="#eee5cf"/><path d="m176.5 57.83a11.52 11.52 0 0 1 .47-1.28l9.91-2.66a7.53 7.53 0 0 1 1 .86zm-.37 2.78a7.71 7.71 0 0 1 .06-1.18l12.71-3.43a5.59 5.59 0 0 1 .5 1zm13.69-2.16.28 1.06-13.6 3.64c-.09-.34-.17-.7-.23-1z" fill="#f8f4e7"/><path d="m187.75 54.61.14.14-5.6 1.49zm-5.43 1.66-.32-1.07 4.84-1.29h.16l.08.06h.11.06.05l.08.06h.12l.08.08a.57.57 0 0 1 .11.11zm.67 2.49-.28-1.07 6.19-1.69v.11.11.14.09.06.05.09.05.06.08.06l.06.11v.06zm6.83-.31v.06.05.06.05.06.06.05.06.05.06.06.06.06.06.06l-6.44 1.74-.28-1.06z" fill="#eee5cf"/><path d="m205 65.25c-.23.79-.7 2.61-.93 3.42-.47-.84-1-1.68-1.45-2.52a2.28 2.28 0 1 0 -4 2.27c2.13 3.69 4.26 6.72 3.39 9.91 4.53 1.21 7.25 1.93 11.79 3.17 1-3.84 3.3-7.31 4.34-11.15 1.37-5.15-1.4-9.46-4.54-10.28a7.12 7.12 0 0 0 -8.6 5.18z" fill="#de4938"/><path d="m205 65.25c-.23.79-.7 2.61-.93 3.42-.47-.84-1-1.68-1.45-2.52a2.28 2.28 0 1 0 -4 2.27c2.13 3.69 4.26 6.72 3.39 9.91l5.99 1.57 5.34-19.9a7.18 7.18 0 0 0 -8.34 5.25z" fill="#eb5a44"/><path d="m212.81 85.67-11.81-3.17c-2.24-.61-1.14-4.73 1.12-4.14l11.79 3.16c2.26.62 1.14 4.74-1.1 4.15z" fill="#eee5cf"/><path d="m206.9 84.07-5.9-1.57c-2.24-.61-1.15-4.73 1.12-4.14l5.9 1.57z" fill="#f8f4e7"/><path d="m218.24 65.09c-.14-.45-.3-.87-.47-1.29l-9.91-2.66a7 7 0 0 0 -1 .87zm.37 2.77a7.78 7.78 0 0 0 -.06-1.18l-12.71-3.41a5.19 5.19 0 0 0 -.5 1zm-13.69-2.16-.28 1.07 13.6 3.64v-.06c.09-.34.17-.7.23-1z" fill="#eee5cf"/><path d="m207 61.87-.14.14 5.6 1.48zm5.43 1.65.28-1.07-4.84-1.28h-.09-.08-.11-.06l-.05.06-.08.06h-.12l-.08.08a.44.44 0 0 0 -.11.12zm-.68 2.48.25-1-6.16-1.66v.11l-.06.12v.14.08.06.06.06.08.06.06.08.06l-.06.12zm-6.83-.31v.11.06.06.06.06.06.05.06.05.06.06.05.06.05.06.06l6.44 1.73.28-1.06z" fill="#f8f4e7"/><path d="m230.7 92.76 22.72 3.53a1 1 0 0 1 .79 1.08l-4.28 27.57a1 1 0 0 1 -1.08.79l-22.72-3.53a1 1 0 0 1 -.79-1.08l4.28-27.57a1 1 0 0 1 1.08-.79z" fill="#baabff"/><path d="m229.94 92.64 4.08.63a.18.18 0 0 1 .14.2l-4.52 29.1a.17.17 0 0 1 -.2.14l-4.08-.63a.18.18 0 0 1 -.14-.2l4.52-29.1a.18.18 0 0 1 .2-.14z" fill="#a79be0"/><path d="m248.87 95.58 3.53.55a.16.16 0 0 1 .12.17l-4.52 29.14a.16.16 0 0 1 -.17.12l-3.53-.56a.15.15 0 0 1 -.13-.16l4.53-29.14a.15.15 0 0 1 .17-.12z" fill="#c9bdff"/><path d="m229.6 92.59 24.92 3.87a.43.43 0 0 1 .36.49l-.23 1.47a.44.44 0 0 1 -.49.36l-24.92-3.87a.42.42 0 0 1 -.36-.49l.23-1.47a.43.43 0 0 1 .49-.36z" fill="#e6e6e6"/><path d="m249.27 95.64 3 .47a.42.42 0 0 1 .35.49l-.23 1.47a.42.42 0 0 1 -.49.36l-3-.46a.44.44 0 0 1 -.36-.49l.23-1.48a.43.43 0 0 1 .5-.36z" fill="#fff"/><path d="m229.6 92.59 6.06.94a.42.42 0 0 1 .34.47l-.23 1.47a.42.42 0 0 1 -.49.36l-6-.94a.42.42 0 0 1 -.36-.49l.23-1.47a.43.43 0 0 1 .45-.34z" fill="#ccc"/><path d="m225.39 119.7 24.91 3.87a.44.44 0 0 1 .36.49l-.23 1.48a.43.43 0 0 1 -.49.36l-24.94-3.9a.44.44 0 0 1 -.36-.49l.23-1.48a.43.43 0 0 1 .52-.33z" fill="#e6e6e6"/><path d="m245.05 122.76 3 .46a.43.43 0 0 1 .36.49l-.23 1.48a.42.42 0 0 1 -.49.35l-3-.46a.42.42 0 0 1 -.35-.49l.22-1.47a.43.43 0 0 1 .49-.36z" fill="#fff"/><path d="m225.39 119.7 6.05.94a.44.44 0 0 1 .36.49l-.23 1.48a.43.43 0 0 1 -.49.36l-6.08-.97a.44.44 0 0 1 -.36-.49l.23-1.48a.43.43 0 0 1 .52-.33z" fill="#ccc"/></g><path d="m235.22 97.04h9.04v24.87h-9.04z" fill="#494f32" transform="matrix(.15350325 -.98814814 .98814814 .15350325 94.75 329.57)"/><path d="m225.14 105.68h9.04v4.47h-9.04z" fill="#454a31" transform="matrix(.15350325 -.98814814 .98814814 .15350325 87.76 318.28)"/><path d="m243.79 108.88h9.04v3.87h-9.04z" fill="#565c3f" transform="matrix(.15 -.99 .99 .15 100.69 339.17)"/><path d="m236.94 107.1 6.19 1a.79.79 0 0 1 .66.89l-.19 1.2a.79.79 0 0 1 -.89.66l-6.19-1a.78.78 0 0 1 -.66-.89l.19-1.2a.78.78 0 0 1 .89-.66z" fill="#fff" fill-rule="evenodd"/><path d="m236.39 116.93 4.27.66a.54.54 0 0 1 .45.62l-.11.79a.53.53 0 0 1 -.61.45l-4.28-.66a.55.55 0 0 1 -.45-.62l.13-.83a.55.55 0 0 1 .6-.41z" fill="#ffcf61" fill-rule="evenodd"/><path d="m199 68-9.24-.62a.27.27 0 0 0 -.25.28l-4 59.35a.26.26 0 0 0 .21.3l9.28.69c.12 0 .23-.11.24-.28l4-59.35a.27.27 0 0 0 -.24-.37z" fill="#77a5db" fill-rule="evenodd"/><path d="m229.82 70.08-30.94-2.08c-.41 0-.78.39-.82.92l-3.88 58a.89.89 0 0 0 .69 1l30.93 2.08c.41 0 .78-.39.82-.92l3.88-58a.9.9 0 0 0 -.68-1z" fill="#90c3ff" fill-rule="evenodd"/><path d="m229.82 70.08-30.94-2.08c-.41 0-.78.39-.82.92l-1.66 24.76a33.89 33.89 0 0 0 21.07 9 35.2 35.2 0 0 0 11-1l2.05-30.57a.9.9 0 0 0 -.7-1.03z" fill="#ebbe57" fill-rule="evenodd"/><path d="m229.82 70.08-30.94-2.08a.73.73 0 0 0 -.8.67l-1.22 18.18a42.21 42.21 0 0 0 21.2 7 47.42 47.42 0 0 0 10.94-.54l1.51-22.46a.75.75 0 0 0 -.69-.77z" fill="#ffcf61" fill-rule="evenodd"/><path d="m190.43 82.19 4.25.28a.68.68 0 0 1 .64.73l-.55 8.21a.69.69 0 0 1 -.73.64l-4.25-.29a.68.68 0 0 1 -.63-.73l.55-8.21a.67.67 0 0 1 .72-.63z" fill="#fff" fill-rule="evenodd"/><path d="m190.07 79.69 5.3.36a.14.14 0 0 1 .14.16l-.06 1a.15.15 0 0 1 -.16.14l-5.29-.35a.15.15 0 0 1 -.14-.16l.06-1a.15.15 0 0 1 .15-.15z" fill="#fff" fill-rule="evenodd"/><path d="m187.81 119.89 4.44.3a.58.58 0 0 1 .54.62l-.24 3.63a.58.58 0 0 1 -.62.54l-4.44-.29a.58.58 0 0 1 -.54-.63l.24-3.62a.59.59 0 0 1 .62-.55z" fill="#fff" fill-rule="evenodd"/><path d="m206.9 99.07h8.71v32.51h-8.71z" fill="#fff" transform="matrix(.06679634 -.99776663 .99776663 .06679634 82.08 318.41)"/><ellipse cx="90.13" cy="240.34" fill="#283032" rx="18.35" ry="16.39"/><circle cx="129.45" cy="240.99" fill="#283132" r="17.04"/><circle cx="125.52" cy="240.99" fill="#231f20" r="17.04"/><circle cx="234.97" cy="242.96" fill="#283132" r="17.04"/><circle cx="231.04" cy="242.96" fill="#231f20" r="17.04"/><circle cx="86.85" cy="240.34" fill="none" r="1.97" stroke="#8a5d3b" stroke-miterlimit="10"/><rect fill="#556368" height="9.18" rx="3.5" width="155.99" x="71.78" y="234.44"/><ellipse cx="86.52" cy="240.34" fill="#3f4d52" rx="17.37" ry="16.39"/><circle cx="86.85" cy="240.34" fill="#221f20" r="12.45"/><path d="m77.02 231.82 6.55 5.24-1.31 2.62-7.86 2.62 2.62 3.94 6.55-3.94 1.32 1.32v9.17h3.93v-9.17l1.31-1.32 6.55 3.94 2.62-3.94-7.86-2.62-1.31-2.62 5.24-5.24-3.93-2.62-2.62 6.55h-3.93l-3.94-6.55z" fill="#96abb5"/><circle cx="86.85" cy="240.34" fill="none" r="12.45" stroke="#273133" stroke-miterlimit="10" stroke-width="1.5"/><circle cx="86.85" cy="240.34" fill="#221f20" r="1.31"/><ellipse cx="198.93" cy="241.65" fill="#283032" rx="18.35" ry="16.39"/><ellipse cx="195.32" cy="241.65" fill="#3f4d52" rx="17.37" ry="16.39"/><circle cx="195.65" cy="241.65" fill="#221f20" r="12.45"/><path d="m185.82 233.13 6.55 5.24-1.31 2.62-7.86 2.63 2.62 3.93 6.55-3.93 1.31 1.31v9.17h3.94v-9.17l1.31-1.31 6.55 3.93 2.62-3.93-7.86-2.63-1.31-2.62 5.24-5.24-3.93-2.62-2.62 6.55h-3.94l-3.93-6.55z" fill="#96abb5"/><circle cx="195.65" cy="241.65" fill="none" r="12.45" stroke="#273133" stroke-miterlimit="10" stroke-width="1.5"/><circle cx="195.65" cy="241.65" fill="#221f20" r="1.31"/><path d="m33.76 134.82 23.6 91.75h201.86l26.22-94.37z" fill="#5e7683"/><path d="m208.76 130.23v96.34h54.98l23.01-98.31z" fill="#556368"/><path d="m61.29 129.57 17.04 70.79 98.97.65-3.28-75.37z" fill="#3e5360"/><path d="m34.42 139.41 23.59 86.51h150.75v-93.07h-23.6l3.28 72.75h-115.35l-19.66-76.03z" fill="#95a8b0"/><path d="m20 121.05 5.24 19.67h167.79 102.24l5.24-19.67z" fill="#3f4d52"/><path d="m208.76 121.05.39 19.01h86.23l4.48-19.66z" fill="#232b2d"/><path d="m35.95 145.85h245.87l2.12-8-250.83-.41z" fill="#232b2d" opacity=".5"/><g fill="#62757e"><circle cx="183.85" cy="218.05" r="1.97"/><circle cx="197.61" cy="200.36" r="1.97"/><circle cx="198.93" cy="218.71" r="1.97"/><circle cx="197.61" cy="183.32" r="1.97"/><circle cx="197.61" cy="167.59" r="1.97"/><circle cx="197.61" cy="153.17" r="1.97"/><circle cx="164.19" cy="218.05" r="1.97"/><circle cx="144.53" cy="218.05" r="1.97"/><circle cx="124.86" cy="218.05" r="1.97"/><circle cx="105.2" cy="218.05" r="1.97"/><circle cx="85.54" cy="218.05" r="1.97"/><circle cx="65.88" cy="218.05" r="1.97"/><circle cx="60.64" cy="201.01" r="1.97"/><circle cx="55.39" cy="183.97" r="1.97"/><circle cx="51.46" cy="166.93" r="1.97"/><circle cx="47.53" cy="152.51" r="1.97"/></g><g fill="#232b2d"><path d="m71.39 158.48a1.43 1.43 0 0 1 1.4-1.5 1.62 1.62 0 0 1 1.1.48c.67.55.76.61 1 .61a.39.39 0 0 0 .39-.43.48.48 0 0 0 -.23-.42 2.65 2.65 0 0 0 -.62-.28l-.76-.28a2.81 2.81 0 0 1 -2-2.84 3.2 3.2 0 0 1 3.44-3.27c1.69 0 3 .95 3 2.18a1.25 1.25 0 0 1 -1.21 1.36 1.94 1.94 0 0 1 -1.28-.57c-.32-.28-.47-.36-.64-.36a.39.39 0 0 0 -.37.39c0 .3.2.43.93.69a5.7 5.7 0 0 1 2 1 3.19 3.19 0 0 1 1 2.35 3.55 3.55 0 0 1 -.89 2.37 3.39 3.39 0 0 1 -2.63 1c-2.1.04-3.63-1.07-3.63-2.48z"/><path d="m80.71 153.85a1.49 1.49 0 0 1 -1.17-.43 1.65 1.65 0 0 1 -.44-1.1 1.6 1.6 0 0 1 .81-1.37c.32-.15.45-.16 1.67-.16h3.12a5.63 5.63 0 0 1 1 0 1.45 1.45 0 0 1 1.3 1.52 1.7 1.7 0 0 1 -.51 1.18 1.63 1.63 0 0 1 -1.19.36h-.69v5a2.26 2.26 0 0 1 -.27 1.27 1.45 1.45 0 0 1 -1.28.75 1.53 1.53 0 0 1 -1.28-.69 2.14 2.14 0 0 1 -.26-1.3v-5z"/><path d="m91 156.58c0 .72.31 1.15.85 1.15s.84-.42.84-1.11v-4a1.71 1.71 0 0 1 .34-1.31 1.5 1.5 0 0 1 1.19-.63 1.6 1.6 0 0 1 1.21.6c.29.37.36.67.36 1.57v3.54a4.55 4.55 0 0 1 -1 3.12 3.89 3.89 0 0 1 -3 1.46 3.93 3.93 0 0 1 -3.19-1.73 4.36 4.36 0 0 1 -.76-2.85v-3.51c0-.94 0-1.18.32-1.56a1.63 1.63 0 0 1 1.22-.64 1.57 1.57 0 0 1 1.14.53 1.85 1.85 0 0 1 .42 1.41z"/><path d="m100.84 150.79a4.62 4.62 0 0 1 3.4 1.27 5.06 5.06 0 0 1 1.55 3.7 5.17 5.17 0 0 1 -1.51 3.66 4.65 4.65 0 0 1 -2.2 1.21 9.28 9.28 0 0 1 -1.59.12h-1.31a1.94 1.94 0 0 1 -1.3-.27 1.43 1.43 0 0 1 -.65-.9 4 4 0 0 1 -.06-1.07v-5.51a3.48 3.48 0 0 1 .07-1.15 1.58 1.58 0 0 1 1.7-1.09zm-.58 6.89c1.07 0 1.33-.05 1.69-.32a2.06 2.06 0 0 0 .76-1.59 1.91 1.91 0 0 0 -1-1.71 2.46 2.46 0 0 0 -1.19-.21h-.26z"/><path d="m111.5 157.67a1.68 1.68 0 0 1 1.29.37 1.6 1.6 0 0 1 .51 1.17 1.51 1.51 0 0 1 -1.79 1.54h-2.4a2.72 2.72 0 0 1 -1.18-.14 1.5 1.5 0 0 1 -.89-1.19 4.45 4.45 0 0 1 -.05-1v-5.42a2.66 2.66 0 0 1 .14-1.26 1.43 1.43 0 0 1 .74-.82c.35-.15.42-.16 1.34-.16h1.85a3.82 3.82 0 0 1 1.18.07 1.45 1.45 0 0 1 1.07 1.44 1.47 1.47 0 0 1 -1.68 1.56h-1.55v.69h1.22a1.15 1.15 0 0 1 1.25 1.18 1.26 1.26 0 0 1 -.4.94 1.35 1.35 0 0 1 -1 .25h-1.11v.75z"/><path d="m119.63 152.73a2 2 0 0 1 .28-1.3 1.52 1.52 0 0 1 1.26-.72 1.5 1.5 0 0 1 1.18.6 1.93 1.93 0 0 1 .37 1.31v6.1a2.19 2.19 0 0 1 -.34 1.49 1.48 1.48 0 0 1 -1.21.61 1.44 1.44 0 0 1 -1.22-.67l-2.45-3.33v2.09a1.85 1.85 0 0 1 -.35 1.31 1.5 1.5 0 0 1 -1.19.6 1.56 1.56 0 0 1 -1.24-.64 2.15 2.15 0 0 1 -.32-1.4v-6.31a1.59 1.59 0 0 1 1.61-1.76 1.41 1.41 0 0 1 1.16.66l2.46 3.21z"/><path d="m125.31 153.85a1.49 1.49 0 0 1 -1.17-.43 1.64 1.64 0 0 1 -.43-1.1 1.59 1.59 0 0 1 .8-1.37c.32-.15.45-.16 1.67-.16h3.12a5.63 5.63 0 0 1 1 0 1.45 1.45 0 0 1 1.27 1.49 1.7 1.7 0 0 1 -.51 1.18 1.63 1.63 0 0 1 -1.19.36h-.69v5a2.26 2.26 0 0 1 -.27 1.27 1.45 1.45 0 0 1 -1.28.75 1.53 1.53 0 0 1 -1.28-.69 2.14 2.14 0 0 1 -.26-1.3v-5z"/><path d="m144.16 157.79a3 3 0 0 1 -.94 2.22 2.57 2.57 0 0 1 -2.25.74h-2.46a1.46 1.46 0 0 1 -1.32-.5 1.86 1.86 0 0 1 -.38-.77 7.51 7.51 0 0 1 0-.88v-6.13a1.6 1.6 0 0 1 1.59-1.68h1.32a7 7 0 0 1 1.72.12 3 3 0 0 1 2.16 3 2.75 2.75 0 0 1 -.44 1.53 3 3 0 0 1 1 2.35zm-4.3-3.15h.37c.43 0 .57-.1.57-.37s-.17-.39-.6-.39h-.34zm0 3h.52c.53 0 .68-.08.68-.38s-.2-.42-.69-.42h-.51z"/><path d="m150.11 150.55a5.23 5.23 0 1 1 -4.93 5.16 5.08 5.08 0 0 1 4.93-5.16zm0 7.19a1.92 1.92 0 0 0 1.85-2 1.85 1.85 0 1 0 -3.69 0 1.92 1.92 0 0 0 1.85 2z"/><path d="m159.93 150.79a4.65 4.65 0 0 1 3.4 1.27 5.09 5.09 0 0 1 1.54 3.7 5.2 5.2 0 0 1 -1.5 3.66 4.68 4.68 0 0 1 -2.21 1.21 9.28 9.28 0 0 1 -1.59.12h-1.3a2 2 0 0 1 -1.31-.27 1.47 1.47 0 0 1 -.65-.9 4.82 4.82 0 0 1 -.05-1.07v-5.51a3.48 3.48 0 0 1 .07-1.15 1.57 1.57 0 0 1 1.7-1.09zm-.58 6.89c1.07 0 1.32-.05 1.69-.32a2.05 2.05 0 0 0 .75-1.59 1.92 1.92 0 0 0 -1-1.71 2.5 2.5 0 0 0 -1.2-.21h-.25z"/><path d="m170.54 158.79a2.13 2.13 0 0 1 -.27 1.25 1.5 1.5 0 0 1 -1.29.78 1.55 1.55 0 0 1 -1.29-.76 2.18 2.18 0 0 1 -.27-1.27v-2.21l-2.08-3.27a1.78 1.78 0 0 1 -.31-1 1.57 1.57 0 0 1 1.53-1.6 1.68 1.68 0 0 1 1.37.78l1.07 1.51 1.14-1.59a1.66 1.66 0 0 1 1.3-.73 1.61 1.61 0 0 1 1.55 1.63 1.87 1.87 0 0 1 -.28 1l-2.18 3.32z"/><path d="m84.09 166.53a5.74 5.74 0 1 1 -5.7 5.67 5.71 5.71 0 0 1 5.7-5.67zm0 7.9a2.16 2.16 0 0 0 2.13-2.16 2.13 2.13 0 0 0 -4.26 0 2.16 2.16 0 0 0 2.14 2.16z"/><path d="m94.53 175.26c0 1.07 0 1.28-.29 1.71a1.75 1.75 0 0 1 -1.49.83 1.73 1.73 0 0 1 -1.56-.93 3 3 0 0 1 -.23-1.62v-6.31c0-1 .21-1.46.78-1.83a1.86 1.86 0 0 1 .86-.28 8.22 8.22 0 0 1 .94 0h2.15c1.17 0 1.39 0 1.8.28a1.6 1.6 0 0 1 .76 1.38 1.87 1.87 0 0 1 -.57 1.33 1.82 1.82 0 0 1 -1.34.39h-1.81v.75h1.11a1.93 1.93 0 0 1 1.15.22 1.25 1.25 0 0 1 .6 1.08c0 .85-.55 1.32-1.57 1.32h-1.29z"/><path d="m102.64 175.26c0 1.07 0 1.28-.29 1.71a1.75 1.75 0 0 1 -1.49.83 1.73 1.73 0 0 1 -1.56-.93 3 3 0 0 1 -.23-1.62v-6.31c0-1 .21-1.46.78-1.83a1.82 1.82 0 0 1 .86-.28 8.22 8.22 0 0 1 .94 0h2.15c1.16 0 1.39 0 1.8.28a1.6 1.6 0 0 1 .76 1.38 1.91 1.91 0 0 1 -.57 1.33 1.85 1.85 0 0 1 -1.35.39h-1.8v.75h1.11a2 2 0 0 1 1.15.22 1.25 1.25 0 0 1 .6 1.08c0 .85-.55 1.32-1.57 1.32h-1.29zm8.33.46a2 2 0 0 1 -.45 1.48 1.8 1.8 0 0 1 -2.66 0 1.92 1.92 0 0 1 -.46-1.51v-6.69c0-.92.08-1.25.46-1.66a1.72 1.72 0 0 1 1.31-.59 1.79 1.79 0 0 1 1.33.58 2.15 2.15 0 0 1 .5 1.67z"/><path d="m121.86 176.56a5.73 5.73 0 1 1 -3.77-10 5.58 5.58 0 0 1 3.62 1.33 2.91 2.91 0 0 1 1.29 2.11 1.8 1.8 0 0 1 -1.79 1.8 1.64 1.64 0 0 1 -1.12-.44l-.52-.57a2.06 2.06 0 0 0 -1.54-.66 2.13 2.13 0 0 0 0 4.26 2.21 2.21 0 0 0 1.6-.72l.37-.39a1.78 1.78 0 0 1 1.23-.53 1.84 1.84 0 0 1 1.79 1.77 2.87 2.87 0 0 1 -1.16 2.04z"/><path d="m129.48 174.35a2 2 0 0 1 1.5.41 1.67 1.67 0 0 1 .58 1.27 1.82 1.82 0 0 1 -.58 1.32 2 2 0 0 1 -1.48.37h-2.78a3.31 3.31 0 0 1 -1.36-.15 1.63 1.63 0 0 1 -1-1.31 4 4 0 0 1 -.07-1.08v-5.93a2.84 2.84 0 0 1 .16-1.37 1.62 1.62 0 0 1 .86-.9 3 3 0 0 1 1.55-.19h2.14a4.21 4.21 0 0 1 1.36.09 1.6 1.6 0 0 1 1.24 1.57 1.73 1.73 0 0 1 -.59 1.33 1.91 1.91 0 0 1 -1.36.39h-1.79v.75h1.42a1.3 1.3 0 0 1 1.44 1.3 1.36 1.36 0 0 1 -.47 1 1.6 1.6 0 0 1 -1.1.28h-1.29v.82z"/><path d="m140.81 174.87a2.31 2.31 0 0 1 .34 1.16 1.75 1.75 0 0 1 -1.79 1.77 1.67 1.67 0 0 1 -1.48-.83l-1.47-2.48v1.51a1.76 1.76 0 0 1 -1.76 1.82 1.79 1.79 0 0 1 -1.39-.65 2.34 2.34 0 0 1 -.43-1.54v-6.74a1.9 1.9 0 0 1 .59-1.6 2 2 0 0 1 1.62-.48h1.5a6.21 6.21 0 0 1 1.73.17 3.92 3.92 0 0 1 1.69 6.55zm-4.4-3.55h.39c.53 0 .81-.18.81-.58s-.29-.6-.83-.59h-.37z"/><path d="m152.83 166.53a5.74 5.74 0 1 1 -5.7 5.67 5.71 5.71 0 0 1 5.7-5.67zm0 7.9a2.16 2.16 0 0 0 2.13-2.16 2.13 2.13 0 0 0 -4.26 0 2.16 2.16 0 0 0 2.15 2.16z"/><path d="m163.28 175.26c0 1.07 0 1.28-.29 1.71a1.75 1.75 0 0 1 -1.5.83 1.73 1.73 0 0 1 -1.55-.93 3 3 0 0 1 -.23-1.62v-6.31c0-1 .21-1.46.78-1.83a1.82 1.82 0 0 1 .86-.28 8.09 8.09 0 0 1 .94 0h2.14c1.17 0 1.4 0 1.81.28a1.6 1.6 0 0 1 .76 1.38 1.91 1.91 0 0 1 -.57 1.33 1.85 1.85 0 0 1 -1.35.39h-1.8v.75h1.11a2 2 0 0 1 1.15.22 1.25 1.25 0 0 1 .6 1.08c0 .85-.55 1.32-1.58 1.32h-1.28z"/><path d="m86.39 193.57a2.05 2.05 0 0 1 2.08-2.08 2.42 2.42 0 0 1 1.62.67c1 .77 1.13.85 1.46.85a.56.56 0 0 0 .58-.61.66.66 0 0 0 -.35-.58 4.39 4.39 0 0 0 -.92-.39c-.37-.13-.75-.25-1.12-.4a4 4 0 0 1 -3-4c0-2.7 2.08-4.55 5.1-4.55 2.5 0 4.46 1.33 4.46 3a1.78 1.78 0 0 1 -1.8 1.89 3 3 0 0 1 -1.89-.79c-.48-.4-.71-.5-1-.5a.55.55 0 0 0 -.54.54c0 .42.29.6 1.37 1a8.6 8.6 0 0 1 3 1.46 4.26 4.26 0 0 1 1.4 3.26 4.73 4.73 0 0 1 -1.32 3.31 5.15 5.15 0 0 1 -3.89 1.4c-2.98.04-5.24-1.5-5.24-3.48z"/><path d="m105.19 192.45a2.57 2.57 0 0 1 1.92.52 2.13 2.13 0 0 1 .75 1.62 2.24 2.24 0 0 1 -.75 1.67 2.57 2.57 0 0 1 -1.9.48h-3.56a4.59 4.59 0 0 1 -1.75-.19 2.13 2.13 0 0 1 -1.31-1.67 5.53 5.53 0 0 1 -.08-1.37v-7.51a3.51 3.51 0 0 1 .21-1.75 2 2 0 0 1 1.1-1.14 4 4 0 0 1 2-.23h2.75a6.22 6.22 0 0 1 1.75.1 2 2 0 0 1 1.58 2 2.18 2.18 0 0 1 -.75 1.69 2.48 2.48 0 0 1 -1.75.5h-2.29v1h1.81a1.66 1.66 0 0 1 1.85 1.65 1.68 1.68 0 0 1 -.6 1.31 2 2 0 0 1 -1.42.36h-1.64v1z"/><path d="m119.71 193.11a2.85 2.85 0 0 1 .44 1.48 2.24 2.24 0 0 1 -2.29 2.25 2.16 2.16 0 0 1 -1.9-1.06l-1.89-3.15v1.9a2.24 2.24 0 0 1 -2.25 2.31 2.33 2.33 0 0 1 -1.82-.84 3 3 0 0 1 -.54-2v-8.56a2.4 2.4 0 0 1 .75-2 2.65 2.65 0 0 1 2.08-.6h1.91a8.19 8.19 0 0 1 2.23.21 5 5 0 0 1 2.17 8.33zm-5.64-4.52h.5c.68 0 1-.22 1-.72s-.38-.77-1.06-.75a4.75 4.75 0 0 1 -.48 0z"/><path d="m130.17 184.16a2.32 2.32 0 0 1 2.12-1.42 2.26 2.26 0 0 1 2.29 2.25 2.42 2.42 0 0 1 -.25 1.09l-4.33 9.22a2.37 2.37 0 0 1 -4.39.12l-4.27-9.2a2.91 2.91 0 0 1 -.34-1.22 2.31 2.31 0 0 1 2.33-2.23 2.38 2.38 0 0 1 2.23 1.65l2.21 5.21z"/><path d="m140.59 194.2a2.52 2.52 0 0 1 -.59 1.87 2.38 2.38 0 0 1 -1.7.77 2.42 2.42 0 0 1 -1.71-.73 2.45 2.45 0 0 1 -.58-1.91v-8.6c0-1.17.1-1.59.58-2.11a2.25 2.25 0 0 1 1.69-.75 2.32 2.32 0 0 1 1.7.73 2.74 2.74 0 0 1 .61 2.13z"/><path d="m154.54 195.26a7.49 7.49 0 0 1 -4.85 1.83 7.29 7.29 0 1 1 0-14.57 7.23 7.23 0 0 1 4.64 1.68 3.69 3.69 0 0 1 1.67 2.8 2.3 2.3 0 0 1 -2.29 2.29 2.12 2.12 0 0 1 -1.44-.56l-.66-.73a2.72 2.72 0 1 0 -2 4.58 2.79 2.79 0 0 0 2-.92l.48-.5a2.3 2.3 0 0 1 1.58-.66 2.34 2.34 0 0 1 2.33 2.2 3.63 3.63 0 0 1 -1.46 2.56z"/><path d="m164.31 192.45a2.57 2.57 0 0 1 1.92.52 2.13 2.13 0 0 1 .75 1.62 2.24 2.24 0 0 1 -.75 1.67 2.56 2.56 0 0 1 -1.9.48h-3.56a4.49 4.49 0 0 1 -1.74-.19 2.12 2.12 0 0 1 -1.32-1.67 5.53 5.53 0 0 1 -.08-1.37v-7.51a3.51 3.51 0 0 1 .21-1.75 2 2 0 0 1 1.1-1.14 4 4 0 0 1 2-.23h2.75a6.16 6.16 0 0 1 1.75.1 2 2 0 0 1 1.58 2 2.18 2.18 0 0 1 -.75 1.69 2.46 2.46 0 0 1 -1.75.5h-2.29v1h1.77a1.66 1.66 0 0 1 1.86 1.65 1.69 1.69 0 0 1 -.61 1.31 2 2 0 0 1 -1.41.36h-1.65v1z"/></g><g fill="#181d1e"><path d="m72.39 158.48a1.43 1.43 0 0 1 1.4-1.5 1.62 1.62 0 0 1 1.1.48c.67.55.76.61 1 .61a.39.39 0 0 0 .39-.43.48.48 0 0 0 -.23-.42 2.65 2.65 0 0 0 -.62-.28l-.76-.28a2.81 2.81 0 0 1 -2-2.84 3.2 3.2 0 0 1 3.44-3.27c1.69 0 3 .95 3 2.18a1.25 1.25 0 0 1 -1.21 1.36 1.94 1.94 0 0 1 -1.28-.57c-.32-.28-.47-.36-.64-.36a.39.39 0 0 0 -.37.39c0 .3.2.43.93.69a5.7 5.7 0 0 1 2 1 3.19 3.19 0 0 1 1 2.35 3.55 3.55 0 0 1 -.89 2.37 3.39 3.39 0 0 1 -2.63 1c-2.1.04-3.63-1.07-3.63-2.48z"/><path d="m81.71 153.85a1.49 1.49 0 0 1 -1.17-.43 1.65 1.65 0 0 1 -.44-1.1 1.6 1.6 0 0 1 .81-1.37c.32-.15.45-.16 1.67-.16h3.12a5.63 5.63 0 0 1 1 0 1.45 1.45 0 0 1 1.3 1.52 1.7 1.7 0 0 1 -.51 1.18 1.63 1.63 0 0 1 -1.19.36h-.69v5a2.26 2.26 0 0 1 -.27 1.27 1.45 1.45 0 0 1 -1.28.75 1.53 1.53 0 0 1 -1.28-.69 2.14 2.14 0 0 1 -.26-1.3v-5z"/><path d="m92 156.58c0 .72.31 1.15.85 1.15s.84-.42.84-1.11v-4a1.71 1.71 0 0 1 .34-1.31 1.5 1.5 0 0 1 1.19-.63 1.6 1.6 0 0 1 1.21.6c.29.37.36.67.36 1.57v3.54a4.55 4.55 0 0 1 -1 3.12 3.89 3.89 0 0 1 -3 1.46 3.93 3.93 0 0 1 -3.19-1.73 4.36 4.36 0 0 1 -.76-2.85v-3.51c0-.94 0-1.18.32-1.56a1.63 1.63 0 0 1 1.22-.64 1.57 1.57 0 0 1 1.14.53 1.85 1.85 0 0 1 .42 1.41z"/><path d="m101.84 150.79a4.62 4.62 0 0 1 3.4 1.27 5.06 5.06 0 0 1 1.55 3.7 5.17 5.17 0 0 1 -1.51 3.66 4.65 4.65 0 0 1 -2.2 1.21 9.28 9.28 0 0 1 -1.59.12h-1.31a1.94 1.94 0 0 1 -1.3-.27 1.43 1.43 0 0 1 -.65-.9 4 4 0 0 1 -.06-1.07v-5.51a3.48 3.48 0 0 1 .07-1.15 1.58 1.58 0 0 1 1.7-1.09zm-.58 6.89c1.07 0 1.33-.05 1.69-.32a2.06 2.06 0 0 0 .76-1.59 1.91 1.91 0 0 0 -1-1.71 2.46 2.46 0 0 0 -1.19-.21h-.26z"/><path d="m112.5 157.67a1.68 1.68 0 0 1 1.29.37 1.6 1.6 0 0 1 .51 1.17 1.51 1.51 0 0 1 -1.79 1.54h-2.4a2.72 2.72 0 0 1 -1.18-.14 1.5 1.5 0 0 1 -.89-1.19 4.45 4.45 0 0 1 -.05-1v-5.42a2.66 2.66 0 0 1 .14-1.26 1.43 1.43 0 0 1 .74-.82c.35-.15.42-.16 1.34-.16h1.85a3.82 3.82 0 0 1 1.18.07 1.45 1.45 0 0 1 1.07 1.44 1.47 1.47 0 0 1 -1.68 1.56h-1.55v.69h1.22a1.15 1.15 0 0 1 1.25 1.18 1.26 1.26 0 0 1 -.4.94 1.35 1.35 0 0 1 -1 .25h-1.11v.75z"/><path d="m120.63 152.73a2 2 0 0 1 .28-1.3 1.52 1.52 0 0 1 1.26-.72 1.5 1.5 0 0 1 1.18.6 1.93 1.93 0 0 1 .37 1.31v6.1a2.19 2.19 0 0 1 -.34 1.49 1.48 1.48 0 0 1 -1.21.61 1.44 1.44 0 0 1 -1.22-.67l-2.45-3.33v2.09a1.85 1.85 0 0 1 -.35 1.31 1.5 1.5 0 0 1 -1.19.6 1.56 1.56 0 0 1 -1.24-.64 2.15 2.15 0 0 1 -.32-1.4v-6.31a1.59 1.59 0 0 1 1.61-1.76 1.41 1.41 0 0 1 1.16.66l2.46 3.21z"/><path d="m126.31 153.85a1.49 1.49 0 0 1 -1.17-.43 1.64 1.64 0 0 1 -.43-1.1 1.59 1.59 0 0 1 .8-1.37c.32-.15.45-.16 1.67-.16h3.12a5.63 5.63 0 0 1 1 0 1.45 1.45 0 0 1 1.27 1.49 1.7 1.7 0 0 1 -.51 1.18 1.63 1.63 0 0 1 -1.19.36h-.69v5a2.26 2.26 0 0 1 -.27 1.27 1.45 1.45 0 0 1 -1.28.75 1.53 1.53 0 0 1 -1.28-.69 2.14 2.14 0 0 1 -.26-1.3v-5z"/><path d="m145.16 157.79a3 3 0 0 1 -.94 2.22 2.57 2.57 0 0 1 -2.25.74h-2.46a1.46 1.46 0 0 1 -1.32-.5 1.86 1.86 0 0 1 -.38-.77 7.51 7.51 0 0 1 0-.88v-6.13a1.6 1.6 0 0 1 1.59-1.68h1.32a7 7 0 0 1 1.72.12 3 3 0 0 1 2.16 3 2.75 2.75 0 0 1 -.44 1.53 3 3 0 0 1 1 2.35zm-4.3-3.15h.37c.43 0 .57-.1.57-.37s-.17-.39-.6-.39h-.34zm0 3h.52c.53 0 .68-.08.68-.38s-.2-.42-.69-.42h-.51z"/><path d="m151.11 150.55a5.23 5.23 0 1 1 -4.93 5.16 5.08 5.08 0 0 1 4.93-5.16zm0 7.19a1.92 1.92 0 0 0 1.85-2 1.85 1.85 0 1 0 -3.69 0 1.92 1.92 0 0 0 1.85 2z"/><path d="m160.93 150.79a4.65 4.65 0 0 1 3.4 1.27 5.09 5.09 0 0 1 1.54 3.7 5.2 5.2 0 0 1 -1.5 3.66 4.68 4.68 0 0 1 -2.21 1.21 9.28 9.28 0 0 1 -1.59.12h-1.3a2 2 0 0 1 -1.31-.27 1.47 1.47 0 0 1 -.65-.9 4.82 4.82 0 0 1 -.05-1.07v-5.51a3.48 3.48 0 0 1 .07-1.15 1.57 1.57 0 0 1 1.7-1.09zm-.58 6.89c1.07 0 1.32-.05 1.69-.32a2.05 2.05 0 0 0 .75-1.59 1.92 1.92 0 0 0 -1-1.71 2.5 2.5 0 0 0 -1.2-.21h-.25z"/><path d="m171.54 158.79a2.13 2.13 0 0 1 -.27 1.25 1.5 1.5 0 0 1 -1.29.78 1.55 1.55 0 0 1 -1.29-.76 2.18 2.18 0 0 1 -.27-1.27v-2.21l-2.08-3.27a1.78 1.78 0 0 1 -.31-1 1.57 1.57 0 0 1 1.53-1.6 1.68 1.68 0 0 1 1.37.78l1.07 1.51 1.14-1.59a1.66 1.66 0 0 1 1.3-.73 1.61 1.61 0 0 1 1.55 1.63 1.87 1.87 0 0 1 -.28 1l-2.18 3.32z"/><path d="m85.09 166.53a5.74 5.74 0 1 1 -5.7 5.67 5.71 5.71 0 0 1 5.7-5.67zm0 7.9a2.16 2.16 0 0 0 2.13-2.16 2.13 2.13 0 0 0 -4.26 0 2.16 2.16 0 0 0 2.14 2.16z"/><path d="m95.53 175.26c0 1.07 0 1.28-.29 1.71a1.75 1.75 0 0 1 -1.49.83 1.73 1.73 0 0 1 -1.56-.93 3 3 0 0 1 -.23-1.62v-6.31c0-1 .21-1.46.78-1.83a1.86 1.86 0 0 1 .86-.28 8.22 8.22 0 0 1 .94 0h2.15c1.17 0 1.39 0 1.8.28a1.6 1.6 0 0 1 .76 1.38 1.87 1.87 0 0 1 -.57 1.33 1.82 1.82 0 0 1 -1.34.39h-1.81v.75h1.11a1.93 1.93 0 0 1 1.15.22 1.25 1.25 0 0 1 .6 1.08c0 .85-.55 1.32-1.57 1.32h-1.29z"/><path d="m103.64 175.26c0 1.07 0 1.28-.29 1.71a1.75 1.75 0 0 1 -1.49.83 1.73 1.73 0 0 1 -1.56-.93 3 3 0 0 1 -.23-1.62v-6.31c0-1 .21-1.46.78-1.83a1.82 1.82 0 0 1 .86-.28 8.22 8.22 0 0 1 .94 0h2.15c1.16 0 1.39 0 1.8.28a1.6 1.6 0 0 1 .76 1.38 1.91 1.91 0 0 1 -.57 1.33 1.85 1.85 0 0 1 -1.35.39h-1.8v.75h1.11a2 2 0 0 1 1.15.22 1.25 1.25 0 0 1 .6 1.08c0 .85-.55 1.32-1.57 1.32h-1.29zm8.33.46a2 2 0 0 1 -.45 1.48 1.8 1.8 0 0 1 -2.66 0 1.92 1.92 0 0 1 -.46-1.51v-6.69c0-.92.08-1.25.46-1.66a1.72 1.72 0 0 1 1.31-.59 1.79 1.79 0 0 1 1.33.58 2.15 2.15 0 0 1 .5 1.67z"/><path d="m122.86 176.56a5.73 5.73 0 1 1 -3.77-10 5.58 5.58 0 0 1 3.62 1.33 2.91 2.91 0 0 1 1.29 2.11 1.8 1.8 0 0 1 -1.79 1.8 1.64 1.64 0 0 1 -1.12-.44l-.52-.57a2.06 2.06 0 0 0 -1.54-.66 2.13 2.13 0 0 0 0 4.26 2.21 2.21 0 0 0 1.6-.72l.37-.39a1.78 1.78 0 0 1 1.23-.53 1.84 1.84 0 0 1 1.79 1.77 2.87 2.87 0 0 1 -1.16 2.04z"/><path d="m130.48 174.35a2 2 0 0 1 1.5.41 1.67 1.67 0 0 1 .58 1.27 1.82 1.82 0 0 1 -.58 1.32 2 2 0 0 1 -1.48.37h-2.78a3.31 3.31 0 0 1 -1.36-.15 1.63 1.63 0 0 1 -1-1.31 4 4 0 0 1 -.07-1.08v-5.93a2.84 2.84 0 0 1 .16-1.37 1.62 1.62 0 0 1 .86-.9 3 3 0 0 1 1.55-.19h2.14a4.21 4.21 0 0 1 1.36.09 1.6 1.6 0 0 1 1.24 1.57 1.73 1.73 0 0 1 -.59 1.33 1.91 1.91 0 0 1 -1.36.39h-1.79v.75h1.42a1.3 1.3 0 0 1 1.44 1.3 1.36 1.36 0 0 1 -.47 1 1.6 1.6 0 0 1 -1.1.28h-1.29v.82z"/><path d="m141.81 174.87a2.31 2.31 0 0 1 .34 1.16 1.75 1.75 0 0 1 -1.79 1.77 1.67 1.67 0 0 1 -1.48-.83l-1.47-2.48v1.51a1.76 1.76 0 0 1 -1.76 1.82 1.79 1.79 0 0 1 -1.39-.65 2.34 2.34 0 0 1 -.43-1.54v-6.74a1.9 1.9 0 0 1 .59-1.6 2 2 0 0 1 1.62-.48h1.5a6.21 6.21 0 0 1 1.73.17 3.92 3.92 0 0 1 1.69 6.55zm-4.4-3.55h.39c.53 0 .81-.18.81-.58s-.29-.6-.83-.59h-.37z"/><path d="m153.83 166.53a5.74 5.74 0 1 1 -5.7 5.67 5.71 5.71 0 0 1 5.7-5.67zm0 7.9a2.16 2.16 0 0 0 2.13-2.16 2.13 2.13 0 0 0 -4.26 0 2.16 2.16 0 0 0 2.15 2.16z"/><path d="m164.28 175.26c0 1.07 0 1.28-.29 1.71a1.75 1.75 0 0 1 -1.5.83 1.73 1.73 0 0 1 -1.55-.93 3 3 0 0 1 -.23-1.62v-6.31c0-1 .21-1.46.78-1.83a1.82 1.82 0 0 1 .86-.28 8.09 8.09 0 0 1 .94 0h2.14c1.17 0 1.4 0 1.81.28a1.6 1.6 0 0 1 .76 1.38 1.91 1.91 0 0 1 -.57 1.33 1.85 1.85 0 0 1 -1.35.39h-1.8v.75h1.11a2 2 0 0 1 1.15.22 1.25 1.25 0 0 1 .6 1.08c0 .85-.55 1.32-1.58 1.32h-1.28z"/><path d="m87.39 193.57a2.05 2.05 0 0 1 2.08-2.08 2.42 2.42 0 0 1 1.62.67c1 .77 1.13.85 1.46.85a.56.56 0 0 0 .58-.61.66.66 0 0 0 -.35-.58 4.39 4.39 0 0 0 -.92-.39c-.37-.13-.75-.25-1.12-.4a4 4 0 0 1 -3-4c0-2.7 2.08-4.55 5.1-4.55 2.5 0 4.46 1.33 4.46 3a1.78 1.78 0 0 1 -1.8 1.89 3 3 0 0 1 -1.89-.79c-.48-.4-.71-.5-1-.5a.55.55 0 0 0 -.54.54c0 .42.29.6 1.37 1a8.6 8.6 0 0 1 3 1.46 4.26 4.26 0 0 1 1.4 3.26 4.73 4.73 0 0 1 -1.32 3.31 5.15 5.15 0 0 1 -3.89 1.4c-2.98.04-5.24-1.5-5.24-3.48z"/><path d="m106.19 192.45a2.57 2.57 0 0 1 1.92.52 2.13 2.13 0 0 1 .75 1.62 2.24 2.24 0 0 1 -.75 1.67 2.57 2.57 0 0 1 -1.9.48h-3.56a4.59 4.59 0 0 1 -1.75-.19 2.13 2.13 0 0 1 -1.31-1.67 5.53 5.53 0 0 1 -.08-1.37v-7.51a3.51 3.51 0 0 1 .21-1.75 2 2 0 0 1 1.1-1.14 4 4 0 0 1 2-.23h2.75a6.22 6.22 0 0 1 1.75.1 2 2 0 0 1 1.58 2 2.18 2.18 0 0 1 -.75 1.69 2.48 2.48 0 0 1 -1.75.5h-2.29v1h1.81a1.66 1.66 0 0 1 1.85 1.65 1.68 1.68 0 0 1 -.6 1.31 2 2 0 0 1 -1.42.36h-1.64v1z"/><path d="m120.71 193.11a2.85 2.85 0 0 1 .44 1.48 2.24 2.24 0 0 1 -2.29 2.25 2.16 2.16 0 0 1 -1.9-1.06l-1.89-3.15v1.9a2.24 2.24 0 0 1 -2.25 2.31 2.33 2.33 0 0 1 -1.82-.84 3 3 0 0 1 -.54-2v-8.56a2.4 2.4 0 0 1 .75-2 2.65 2.65 0 0 1 2.08-.6h1.91a8.19 8.19 0 0 1 2.23.21 5 5 0 0 1 2.17 8.33zm-5.64-4.52h.5c.68 0 1-.22 1-.72s-.38-.77-1.06-.75a4.75 4.75 0 0 1 -.48 0z"/><path d="m131.17 184.16a2.32 2.32 0 0 1 2.12-1.42 2.26 2.26 0 0 1 2.29 2.25 2.42 2.42 0 0 1 -.25 1.09l-4.33 9.22a2.37 2.37 0 0 1 -4.39.12l-4.27-9.2a2.91 2.91 0 0 1 -.34-1.22 2.31 2.31 0 0 1 2.33-2.23 2.38 2.38 0 0 1 2.23 1.65l2.21 5.21z"/><path d="m141.59 194.2a2.52 2.52 0 0 1 -.59 1.87 2.38 2.38 0 0 1 -1.7.77 2.42 2.42 0 0 1 -1.71-.73 2.45 2.45 0 0 1 -.58-1.91v-8.6c0-1.17.1-1.59.58-2.11a2.25 2.25 0 0 1 1.69-.75 2.32 2.32 0 0 1 1.7.73 2.74 2.74 0 0 1 .61 2.13z"/><path d="m155.54 195.26a7.49 7.49 0 0 1 -4.85 1.83 7.29 7.29 0 1 1 0-14.57 7.23 7.23 0 0 1 4.64 1.68 3.69 3.69 0 0 1 1.67 2.8 2.3 2.3 0 0 1 -2.29 2.29 2.12 2.12 0 0 1 -1.44-.56l-.66-.73a2.72 2.72 0 1 0 -2 4.58 2.79 2.79 0 0 0 2-.92l.48-.5a2.3 2.3 0 0 1 1.58-.66 2.34 2.34 0 0 1 2.33 2.2 3.63 3.63 0 0 1 -1.46 2.56z"/><path d="m165.31 192.45a2.57 2.57 0 0 1 1.92.52 2.13 2.13 0 0 1 .75 1.62 2.24 2.24 0 0 1 -.75 1.67 2.56 2.56 0 0 1 -1.9.48h-3.56a4.49 4.49 0 0 1 -1.74-.19 2.12 2.12 0 0 1 -1.32-1.67 5.53 5.53 0 0 1 -.08-1.37v-7.51a3.51 3.51 0 0 1 .21-1.75 2 2 0 0 1 1.1-1.14 4 4 0 0 1 2-.23h2.75a6.16 6.16 0 0 1 1.75.1 2 2 0 0 1 1.58 2 2.18 2.18 0 0 1 -.75 1.69 2.46 2.46 0 0 1 -1.75.5h-2.29v1h1.77a1.66 1.66 0 0 1 1.86 1.65 1.69 1.69 0 0 1 -.61 1.31 2 2 0 0 1 -1.41.36h-1.65v1z"/></g></svg>