<svg height="235" viewBox="0 0 239 235" width="239" xmlns="http://www.w3.org/2000/svg"><ellipse cx="121" cy="119" fill="#4e5e91" rx="110" ry="111"/><g fill="#6b7bbc"><path d="m21 166c-.34-.75-.69-1.49-1-2.25.33.76.68 1.5 1 2.25z"/><path d="m26.9 177c-1.06-1.73-2.06-3.49-3-5.26q1.42 2.67 3 5.26z"/><path d="m95.09 226.71c-1.49-.37-3-.77-4.48-1.19 1.49.43 3 .82 4.48 1.19z"/><path d="m90.14 225.38c-1.35-.4-2.71-.82-4.06-1.27 1.35.46 2.71.87 4.06 1.27z"/><path d="m84.53 223.57c-1-.36-2.07-.73-3.09-1.12 1 .4 2.06.75 3.09 1.12z"/><path d="m10.72 119.75c0-1.17 0-2.35 0-3.52z"/><path d="m10.79 115.63q.11-3.22.42-6.46-.32 3.24-.42 6.46z"/><path d="m23.1 170.22c-.4-.79-.8-1.58-1.18-2.37.38.79.78 1.58 1.18 2.37z"/><path d="m11.37 131.3a110.53 110.53 0 0 1 -.64-11.08 110.53 110.53 0 0 0 .64 11.08z"/><path d="m11.28 108.27q.17-1.5.36-3-.2 1.5-.36 3z"/><path d="m220.25 71.06q1.26 2.58 2.37 5.21-1.11-2.62-2.37-5.21"/><path d="m24.27 89.6c14.42-18.36 22.57-40.39 33.64-60.6l.34-.23a110.54 110.54 0 0 0 -45.94 72 67.8 67.8 0 0 0 12-11.15z"/><path d="m226.9 88.16q.81 2.72 1.48 5.48-.67-2.76-1.48-5.48"/><path d="m207.28 50.53a111.18 111.18 0 0 1 12.94 20.47 111.18 111.18 0 0 0 -12.94-20.47"/><path d="m225.07 82.55q.85 2.42 1.61 4.88-.75-2.46-1.61-4.88"/><path d="m222.89 76.9q1 2.38 1.88 4.83c-.59-1.63-1.22-3.23-1.88-4.83"/><path d="m114.63 9.29c1.34-.08 2.68-.14 4-.17-1.34 0-2.68.1-4 .17"/><path d="m120 9.11h3.3c-1.1 0-2.2 0-3.3 0"/><path d="m174.48 22.89c.75.42 1.5.84 2.24 1.27-.74-.43-1.49-.86-2.24-1.27"/><path d="m178.57 25.27c.82.5 1.66 1 2.47 1.53-.81-.53-1.64-1-2.47-1.53"/><path d="m170.14 20.61c.61.3 1.21.62 1.81.93-.6-.31-1.2-.63-1.81-.93"/><path d="m30 153.6c24.62-17.23 46.77-46.77 59.08-74.66 6.59-16.09 24.92-48.45 20.66-69.25a110.81 110.81 0 0 0 -25.06 5.61c.57-.2 1.13-.41 1.69-.59a70.94 70.94 0 0 0 -2.2 9.29c-7.39 35.28-23.8 52.51-48.41 77.95-7.5 7.5-15 21.21-24.39 29.4a111 111 0 0 0 8.63 32.35 52.55 52.55 0 0 1 10-10.1z"/><path d="m28.93 180.15c-.62-.94-1.23-1.88-1.82-2.84.59 1 1.2 1.9 1.82 2.84z"/><path d="m80 17.06c.65-.26 1.3-.52 2-.77-.67.25-1.32.51-2 .77z"/><path d="m11.86 103.68c.14-1 .29-2 .45-2.93-.16 1-.31 2-.45 2.93z"/><path d="m75.62 18.91c.61-.28 1.23-.54 1.85-.81-.62.27-1.24.53-1.85.81z"/><path d="m70.29 21.5 1.56-.8z"/><path d="m61.65 26.47 1.63-1z"/><path d="m65.75 24c.57-.33 1.15-.67 1.73-1-.58.32-1.15.66-1.73 1z"/><path d="m225.3 104.37c-8.21 28.72-15.59 55-33.65 79.59-3.94 5.12-13 20.65-23 35a111 111 0 0 1 -35.81 10.18c4.46-15.88 18.71-36.92 21.86-41.12 16.41-26.26 29.54-50.06 38.57-80.41 4.46-17.3 11.95-37.64 14-57.13a109.37 109.37 0 0 0 -26.27-23.68v6.19c-2.47 64-27.9 125.54-67.28 176.41a114.34 114.34 0 0 1 -18.59 17.32 110.35 110.35 0 0 0 133.29-133q-1.54 5.34-3.11 10.62"/><path d="m98.93 174.94c16.41-27.9 32.83-56.62 44.31-86.16 5.32-14.63 17.64-52.42 12.52-74.09q2.44.83 4.89 1.75a109.7 109.7 0 0 0 -34.11-7.21c.56 0 1.12 0 1.68.07-2.53 6.93-3.5 15.48-3.85 20.41-2.46 35.29-14.77 59.07-31.18 88.61-12.67 23.86-30.09 58.54-57.19 71.46-2.37-2.87-4.58-5.86-6.64-8.93a109.71 109.71 0 0 0 43.27 37.76c-1-.52-2.1-1.05-3.13-1.6 6.08-13.76 24.81-34.2 29.4-42.07"/><path d="m109.78 9.69c1.45-.15 2.9-.27 4.36-.37-1.46.1-2.91.22-4.36.37z"/></g><path d="m222.62 76.27q-1.11-2.62-2.37-5.21 1.26 2.58 2.37 5.21" fill="#59679e"/><path d="m228.38 93.64c-.22-.92-.46-1.84-.71-2.75.25.91.49 1.83.71 2.75" fill="#59679e"/><path d="m220.22 71a108.89 108.89 0 0 0 -5.59-10.08 111.44 111.44 0 0 0 -7.35-10.39 109.56 109.56 0 0 1 12.94 20.47" fill="#59679e"/><path d="m226.68 87.43q-.75-2.46-1.61-4.88.85 2.42 1.61 4.88" fill="#59679e"/><path d="m176.1 23.8c-.53-.31-1.08-.61-1.62-.91.54.3 1.09.6 1.62.91" fill="#59679e"/><path d="m181 26.8c-.81-.53-1.65-1-2.47-1.53.83.5 1.66 1 2.47 1.53" fill="#59679e"/></svg>