<svg height="740" viewBox="0 0 770 740" width="770" xmlns="http://www.w3.org/2000/svg"><path d="m700.7 368c0 181.67-147.33 329-329 329a329.09 329.09 0 0 1 -329-329c0-181.67 147.3-329 329-329a325.33 325.33 0 0 1 119.18 22.35c122.71 47.8 209.82 166.98 209.82 306.65z" fill="#cfd1c1"/><path d="m629.73 323.72c0 175.26-142.16 317.41-317.42 317.41a316.11 316.11 0 0 1 -200.31-71.13 327 327 0 0 1 -69.3-202c0-181.67 147.3-329 329-329a325.33 325.33 0 0 1 119.18 22.35c83.81 57.11 138.85 153.32 138.85 262.37z" fill="#eff0e1"/><path d="m562.89 263.51a47.82 47.82 0 0 1 -33.73 58.55 47.59 47.59 0 0 1 -58.55-33.72 47.82 47.82 0 0 1 73.66-51.53 48.92 48.92 0 0 1 18.62 26.7z" fill="#8e9fb0"/><path d="m562.89 263.51a47.82 47.82 0 0 1 -33.73 58.55 47 47 0 0 1 -32.48-2.69 46.83 46.83 0 0 1 -18.62-26.69 47.83 47.83 0 0 1 33.72-58.56 47.1 47.1 0 0 1 32.49 2.9 47.67 47.67 0 0 1 18.62 26.49z" fill="#a1adba"/><path d="m247.34 490.5a24.86 24.86 0 0 1 -17.59 30.41 24.61 24.61 0 0 1 -30.21-17.59 24.87 24.87 0 0 1 17.59-30.41 24.19 24.19 0 0 1 20.69 3.72 26.62 26.62 0 0 1 9.52 13.87z" fill="#8e9fb0"/><path d="m247.34 490.5a24.86 24.86 0 0 1 -17.59 30.41 24.35 24.35 0 0 1 -16.75-1.45 25.86 25.86 0 0 1 -9.72-13.86 24.87 24.87 0 0 1 17.59-30.42 25.14 25.14 0 0 1 17 1.45 26.62 26.62 0 0 1 9.47 13.87z" fill="#a1adba"/><path d="m265.34 216.12a24.87 24.87 0 0 1 -17.58 30.42 24.39 24.39 0 0 1 -16.76-1.45 24.13 24.13 0 0 1 -13.45-16.09 24.87 24.87 0 0 1 17.58-30.42 24.22 24.22 0 0 1 20.7 3.73 25.1 25.1 0 0 1 9.51 13.81z" fill="#8e9fb0"/><path d="m265.34 216.12a24.87 24.87 0 0 1 -17.58 30.42 24.39 24.39 0 0 1 -16.76-1.45 25.87 25.87 0 0 1 -9.73-13.86 24.91 24.91 0 0 1 34.56-29 25.1 25.1 0 0 1 9.51 13.89z" fill="#a1adba"/><path d="m368.6 238.68a7.22 7.22 0 0 1 -5.18 8.89 8 8 0 0 1 -5-.41 7.1 7.1 0 0 1 -3.93-4.76 7.22 7.22 0 0 1 5.17-8.9 6.85 6.85 0 0 1 6 1 7.29 7.29 0 0 1 2.94 4.18z" fill="#8e9fb0"/><path d="m368.6 238.68a7.22 7.22 0 0 1 -5.18 8.89 8 8 0 0 1 -5-.41 6.66 6.66 0 0 1 -2.9-4.14 7.23 7.23 0 0 1 5.17-8.9 8.14 8.14 0 0 1 5 .42 7.29 7.29 0 0 1 2.91 4.14z" fill="#a1adba"/><path d="m313.76 396.35a7.22 7.22 0 0 1 -5.17 8.9 8.14 8.14 0 0 1 -5-.42 7.1 7.1 0 0 1 -3.93-4.76 7.23 7.23 0 0 1 5.18-8.9 6.86 6.86 0 0 1 6 1 6.19 6.19 0 0 1 2.92 4.18z" fill="#8e9fb0"/><path d="m313.76 396.35a7.22 7.22 0 0 1 -5.17 8.9 8.14 8.14 0 0 1 -5-.42 6.66 6.66 0 0 1 -2.89-4.14 7.21 7.21 0 0 1 5.17-8.89 8.06 8.06 0 0 1 5 .41 6.19 6.19 0 0 1 2.89 4.14z" fill="#a1adba"/><path d="m436.47 105.83a7.22 7.22 0 0 1 -5.18 8.9 8 8 0 0 1 -5-.41 7.11 7.11 0 0 1 -3.94-4.76 7.23 7.23 0 0 1 5.18-8.9 6.82 6.82 0 0 1 6 1 7.3 7.3 0 0 1 2.94 4.17z" fill="#8e9fb0"/><path d="m436.47 105.83a7.22 7.22 0 0 1 -5.18 8.9 8 8 0 0 1 -5-.41 6.69 6.69 0 0 1 -2.9-4.14 7.22 7.22 0 0 1 5.17-8.9 8.14 8.14 0 0 1 5 .42 7.3 7.3 0 0 1 2.91 4.13z" fill="#a1adba"/><path d="m461.71 230.4a7.23 7.23 0 0 1 -5.17 8.9 8.14 8.14 0 0 1 -5-.42 7.08 7.08 0 0 1 -3.93-4.76 7.21 7.21 0 0 1 5.17-8.89 6.84 6.84 0 0 1 6 1 7.28 7.28 0 0 1 2.93 4.17z" fill="#8e9fb0"/><path d="m461.71 230.4a7.23 7.23 0 0 1 -5.17 8.9 8.14 8.14 0 0 1 -5-.42 6.67 6.67 0 0 1 -2.9-4.14 7.22 7.22 0 0 1 5.18-8.89 8 8 0 0 1 5 .41 7.28 7.28 0 0 1 2.89 4.14z" fill="#a1adba"/><path d="m455.5 531.88a7.22 7.22 0 0 1 -5.17 8.9 8.14 8.14 0 0 1 -5-.42 7.08 7.08 0 0 1 -3.93-4.76 7.21 7.21 0 0 1 5.17-8.89 6.87 6.87 0 0 1 6 1 7.31 7.31 0 0 1 2.93 4.17z" fill="#8e9fb0"/><path d="m455.5 531.88a7.22 7.22 0 0 1 -5.17 8.9 8.14 8.14 0 0 1 -5-.42 6.62 6.62 0 0 1 -2.89-4.14 7.21 7.21 0 0 1 5.17-8.89 8.07 8.07 0 0 1 5 .41 7.31 7.31 0 0 1 2.89 4.14z" fill="#a1adba"/><path d="m596.41 545.12a7.22 7.22 0 0 1 -5.17 8.9 8.14 8.14 0 0 1 -5-.41 7.12 7.12 0 0 1 -3.93-4.76 7.22 7.22 0 0 1 5.18-8.9 6.85 6.85 0 0 1 6 1 10.07 10.07 0 0 1 2.92 4.17z" fill="#6c7986"/><path d="m596.41 545.12a7.22 7.22 0 0 1 -5.17 8.9 8.14 8.14 0 0 1 -5-.41 6.71 6.71 0 0 1 -2.89-4.14 7.22 7.22 0 0 1 5.17-8.9 8.14 8.14 0 0 1 5 .41 10.07 10.07 0 0 1 2.89 4.14z" fill="#7d8690"/><path d="m392.81 660.58a7.23 7.23 0 0 1 -5.18 8.9 8.11 8.11 0 0 1 -5-.41 7.1 7.1 0 0 1 -3.93-4.76 7.22 7.22 0 0 1 5.17-8.9 6.85 6.85 0 0 1 6 1 7.36 7.36 0 0 1 2.94 4.17z" fill="#6c7986"/><path d="m392.81 660.58a7.23 7.23 0 0 1 -5.18 8.9 8.11 8.11 0 0 1 -5-.41 6.69 6.69 0 0 1 -2.9-4.14 7.22 7.22 0 0 1 5.17-8.9 8.14 8.14 0 0 1 5 .41 7.36 7.36 0 0 1 2.91 4.14z" fill="#7d8690"/><path d="m565.38 473.94a24.88 24.88 0 0 1 -17.59 30.42 24.39 24.39 0 0 1 -16.79-1.45 24.13 24.13 0 0 1 -13.45-16.14 24.87 24.87 0 0 1 17.59-30.42 24.2 24.2 0 0 1 20.69 3.73 23.22 23.22 0 0 1 9.55 13.86z" fill="#8e9fb0"/><path d="m565.38 473.94a24.88 24.88 0 0 1 -17.59 30.42 24.39 24.39 0 0 1 -16.79-1.45 25.87 25.87 0 0 1 -9.73-13.86 24.91 24.91 0 0 1 34.56-29 23.22 23.22 0 0 1 9.55 13.89z" fill="#a1adba"/><path d="m434.6 426.35a24.87 24.87 0 0 1 -17.6 30.42 24.43 24.43 0 0 1 -16.77-1.45 24.14 24.14 0 0 1 -13.44-16.14 24.87 24.87 0 0 1 17.58-30.42 24.19 24.19 0 0 1 20.69 3.73 26.63 26.63 0 0 1 9.54 13.86z" fill="#8e9fb0"/><path d="m434.6 426.35a24.87 24.87 0 0 1 -17.6 30.42 24.43 24.43 0 0 1 -16.77-1.45 25.86 25.86 0 0 1 -9.72-13.86 24.91 24.91 0 0 1 34.55-29 26.63 26.63 0 0 1 9.54 13.89z" fill="#a1adba"/><path d="m371.7 601.2a14 14 0 0 1 -9.93 17.17 13.62 13.62 0 0 1 -9.52-.83 14 14 0 1 1 13.86-24.21 12.79 12.79 0 0 1 5.59 7.87z" fill="#8e9fb0"/><path d="m371.7 601.2a14 14 0 0 1 -9.93 17.17 13.62 13.62 0 0 1 -9.52-.83 13.29 13.29 0 0 1 -5.38-7.86 14 14 0 0 1 9.93-17.17 14.9 14.9 0 0 1 9.52.82 13.34 13.34 0 0 1 5.38 7.87z" fill="#a1adba"/><path d="m212 390.35a14 14 0 0 1 -10 17.17 13.62 13.62 0 0 1 -9.52-.83 14 14 0 1 1 13.86-24.21 15.05 15.05 0 0 1 5.66 7.87z" fill="#8e9fb0"/><path d="m212 390.35a14 14 0 0 1 -10 17.17 13.62 13.62 0 0 1 -9.52-.83 13.29 13.29 0 0 1 -5.38-7.86 14 14 0 0 1 9.93-17.17 14.9 14.9 0 0 1 9.52.82 15.91 15.91 0 0 1 5.45 7.87z" fill="#a1adba"/><path d="m399.22 172.46a14.05 14.05 0 0 1 -9.93 17.18 13.68 13.68 0 0 1 -9.52-.83 14 14 0 0 1 2.28-26.28 14 14 0 0 1 11.58 2.07 12.74 12.74 0 0 1 5.59 7.86z" fill="#8e9fb0"/><path d="m399.22 172.46a14.05 14.05 0 0 1 -9.93 17.18 13.68 13.68 0 0 1 -9.52-.83 13.29 13.29 0 0 1 -5.38-7.86 14.05 14.05 0 0 1 9.93-17.18 14.9 14.9 0 0 1 9.52.83 13.29 13.29 0 0 1 5.38 7.86z" fill="#a1adba"/><path d="m298 286.27a14.05 14.05 0 0 1 -9.93 17.17 13.61 13.61 0 0 1 -9.52-.83 14 14 0 1 1 13.86-24.21 14.66 14.66 0 0 1 5.59 7.87z" fill="#8e9fb0"/><path d="m298 286.27a14.05 14.05 0 0 1 -9.93 17.17 13.61 13.61 0 0 1 -9.52-.83 13.24 13.24 0 0 1 -5.38-7.86 14 14 0 0 1 9.93-17.17 14.9 14.9 0 0 1 9.52.82 15.5 15.5 0 0 1 5.38 7.87z" fill="#a1adba"/><path d="m556.89 406.69a14.05 14.05 0 0 1 -9.89 17.18 13.62 13.62 0 0 1 -9.52-.83 14 14 0 1 1 13.87-24.21 13.63 13.63 0 0 1 5.54 7.86z" fill="#8e9fb0"/><path d="m556.89 406.69a14.05 14.05 0 0 1 -9.89 17.18 13.62 13.62 0 0 1 -9.52-.83 13.29 13.29 0 0 1 -5.38-7.86 14.05 14.05 0 0 1 9.9-17.18 15 15 0 0 1 9.52.83 14.27 14.27 0 0 1 5.37 7.86z" fill="#a1adba"/><path d="m644.63 224.4a14.06 14.06 0 0 1 -9.94 17.17 13.68 13.68 0 0 1 -9.52-.82 14 14 0 1 1 13.83-24.21 15.37 15.37 0 0 1 5.63 7.86z" fill="#6c7986"/><path d="m644.63 224.4a14.06 14.06 0 0 1 -9.94 17.17 13.68 13.68 0 0 1 -9.52-.82 13.34 13.34 0 0 1 -5.38-7.87 14.06 14.06 0 0 1 9.94-17.17 14.83 14.83 0 0 1 9.52.83 16.31 16.31 0 0 1 5.38 7.86z" fill="#7d8690"/><path d="m426.12 334.07a14 14 0 0 1 -9.93 17.17 13.62 13.62 0 0 1 -9.52-.83 14 14 0 1 1 13.86-24.21 14.59 14.59 0 0 1 5.59 7.87z" fill="#8e9fb0"/><path d="m426.12 334.07a14 14 0 0 1 -9.93 17.17 13.62 13.62 0 0 1 -9.52-.83 13.29 13.29 0 0 1 -5.38-7.86 14.05 14.05 0 0 1 9.93-17.18 15 15 0 0 1 9.52.83 15.41 15.41 0 0 1 5.38 7.87z" fill="#a1adba"/><path d="m142.64 321.44a14.05 14.05 0 0 1 -9.93 17.18 13.62 13.62 0 0 1 -9.52-.83 14 14 0 1 1 13.86-24.21 13.6 13.6 0 0 1 5.59 7.86z" fill="#8e9fb0"/><path d="m142.64 321.44a14.05 14.05 0 0 1 -9.93 17.18 13.62 13.62 0 0 1 -9.52-.83 13.29 13.29 0 0 1 -5.38-7.86 14.05 14.05 0 0 1 9.93-17.18 15 15 0 0 1 9.52.83 14.27 14.27 0 0 1 5.38 7.86z" fill="#a1adba"/><path d="m130.85 515.53a14.06 14.06 0 0 1 -9.93 17.18 13.67 13.67 0 0 1 -9.52-.83 14 14 0 1 1 13.86-24.21 14.6 14.6 0 0 1 5.59 7.86z" fill="#8e9fb0"/><path d="m130.85 515.53a14.06 14.06 0 0 1 -9.93 17.18 13.67 13.67 0 0 1 -9.52-.83 13.24 13.24 0 0 1 -5.4-7.88 14.05 14.05 0 0 1 10-17.16 14.9 14.9 0 0 1 9.52.83 15.43 15.43 0 0 1 5.33 7.86z" fill="#a1adba"/><path d="m244 615.06a14 14 0 0 1 -9.93 17.17 13.62 13.62 0 0 1 -9.52-.82 14 14 0 0 1 2.28-26.28 14 14 0 0 1 11.58 2.07 16.27 16.27 0 0 1 5.59 7.86z" fill="#8e9fb0"/><path d="m244 615.06a14 14 0 0 1 -9.93 17.17 13.62 13.62 0 0 1 -9.52-.82 13.34 13.34 0 0 1 -5.38-7.87 14 14 0 0 1 9.93-17.17 14.9 14.9 0 0 1 9.52.83 17.34 17.34 0 0 1 5.38 7.86z" fill="#a1adba"/><path d="m357.84 529.4a14 14 0 0 1 -9.94 17.17 13.59 13.59 0 0 1 -9.51-.83 14 14 0 1 1 13.86-24.21 14.32 14.32 0 0 1 5.59 7.87z" fill="#8e9fb0"/><path d="m357.84 529.4a14 14 0 0 1 -9.94 17.17 13.59 13.59 0 0 1 -9.51-.83 13.24 13.24 0 0 1 -5.38-7.86 14 14 0 0 1 9.93-17.17 14.9 14.9 0 0 1 9.52.82 15.08 15.08 0 0 1 5.38 7.87z" fill="#a1adba"/><path d="m516.13 615.68a14.05 14.05 0 0 1 -9.93 17.18 13.68 13.68 0 0 1 -9.52-.83 14 14 0 1 1 13.86-24.21 15.07 15.07 0 0 1 5.59 7.86z" fill="#6c7986"/><path d="m516.13 615.68a14.05 14.05 0 0 1 -9.93 17.18 13.68 13.68 0 0 1 -9.52-.83 13.28 13.28 0 0 1 -5.38-7.87 14 14 0 0 1 9.93-17.16 14.9 14.9 0 0 1 9.52.83 15.93 15.93 0 0 1 5.38 7.85z" fill="#7d8690"/><path d="m652.07 393.86a14.05 14.05 0 0 1 -9.93 17.14 13.62 13.62 0 0 1 -9.52-.83 14 14 0 1 1 13.87-24.17 13.54 13.54 0 0 1 5.58 7.86z" fill="#6c7986"/><path d="m652.07 393.86a14.05 14.05 0 0 1 -9.93 17.14 13.62 13.62 0 0 1 -9.52-.83 13.29 13.29 0 0 1 -5.38-7.86 14.06 14.06 0 0 1 9.94-17.18 14.93 14.93 0 0 1 9.51.83 14.17 14.17 0 0 1 5.38 7.9z" fill="#7d8690"/><path d="m530.2 116.8a14.05 14.05 0 0 1 -9.93 17.2 13.68 13.68 0 0 1 -9.52-.83 14 14 0 1 1 13.86-24.21 13.6 13.6 0 0 1 5.59 7.84z" fill="#8e9fb0"/><path d="m530.2 116.8a14.05 14.05 0 0 1 -9.93 17.2 13.68 13.68 0 0 1 -9.52-.83 13.28 13.28 0 0 1 -5.38-7.87 14 14 0 0 1 9.93-17.17 14.9 14.9 0 0 1 9.52.83 14.27 14.27 0 0 1 5.38 7.84z" fill="#a1adba"/><path d="m299.07 102.94a14 14 0 0 1 -9.93 17.17 13.62 13.62 0 0 1 -9.52-.83 14 14 0 1 1 13.86-24.21 13.66 13.66 0 0 1 5.59 7.87z" fill="#8e9fb0"/><path d="m299.07 102.94a14 14 0 0 1 -9.93 17.17 13.62 13.62 0 0 1 -9.52-.83 13.29 13.29 0 0 1 -5.38-7.86 14 14 0 0 1 9.93-17.17 14.9 14.9 0 0 1 9.52.82 14.33 14.33 0 0 1 5.38 7.87z" fill="#a1adba"/></svg>