<svg height="45" viewBox="0 0 42 45" width="42" xmlns="http://www.w3.org/2000/svg"><path d="m31.87 39.41 1.4-2.9a2.31 2.31 0 0 0 -.86-3l-15.1-9.34a2.33 2.33 0 0 1 -1-2.72l2.93-8.45a2.32 2.32 0 0 0 -1.16-2.82l-2.85-1.44a2.32 2.32 0 0 0 -3.23 1.32l-4.79 14.05a2.32 2.32 0 0 0 .91 2.67l20.39 13.54a2.31 2.31 0 0 0 3.36-.91z" fill="#9b978c"/><ellipse cx="15.69" cy="9.84" fill="#c9c3b5" rx="7.76" ry="8.22" transform="matrix(.99 -.16 .16 .99 -1.35 2.58)"/><circle cx="15.76" cy="10.29" fill="#539aad" r="2.28"/></svg>