<svg xmlns="http://www.w3.org/2000/svg" width="420" height="130" viewBox="0 0 420 130"><title>World_Grass</title><g id="Objects"><rect x="107.3" y="11.98" width="189.93" height="17.68" style="fill:#fdf2cd"/><rect x="197.18" y="-5.59" width="10.16" height="156.49" rx="5.08" transform="translate(7.87 164.3) rotate(-45)" style="fill:#fdf2cd"/><rect x="197.18" y="-5.59" width="10.16" height="156.49" rx="5.08" transform="translate(293.91 267.05) rotate(-135)" style="fill:#fdf2cd"/><rect x="107.3" y="3.14" width="189.93" height="8.84" style="fill:#764f1f"/><rect x="57.18" y="50.86" width="5.6" height="86.3" rx="2.8" transform="translate(-48.91 69.95) rotate(-45)" style="fill:#fdf2cd"/><rect x="57.18" y="50.86" width="5.6" height="86.3" rx="2.8" transform="translate(35.91 202.9) rotate(-135)" style="fill:#fdf2cd"/><rect x="12.66" y="51.05" width="94.64" height="17.68" rx="8.84" style="fill:#ea5d4a"/><rect x="362.18" y="51.86" width="5.6" height="86.3" rx="2.8" transform="translate(39.71 285.91) rotate(-45)" style="fill:#fdf2cd"/><rect x="362.18" y="51.86" width="5.6" height="86.3" rx="2.8" transform="translate(555.87 420.28) rotate(-135)" style="fill:#fdf2cd"/><rect x="317.66" y="52.05" width="94.64" height="17.68" rx="8.84" style="fill:#ea5d4a"/></g></svg>