<svg height="334" viewBox="0 0 302 334" width="302" xmlns="http://www.w3.org/2000/svg"><path d="m271.83 132.22c-1.53.37-3.16.62-4.7 1-2.46.48-5.12 1.05-7.15 2.47a30.67 30.67 0 0 1 -2.91 2.14c-2.22 1.21-6.71.9-8-1.72-1.09-2.31 1.29-5.31 2.36-7.22a55.21 55.21 0 0 0 6.06-19.23c.47-4.07.66-8.37 3.07-11.67 1.94-2.54 4.57-2.8 6.93-4.49 1.95-1.36 2.85-3.5 3.51-5.5 1-2.63.71-3.35-1.75-5-3.13-2.09-7-2.94-10.61-3.77-3.05-.68-6.81-1.22-8.94 1.2a10.71 10.71 0 0 0 -1.7 3.75 148.53 148.53 0 0 0 -5 22.64c-.86 7.25-.73 14.69-2.58 21.86a39.91 39.91 0 0 1 -13 20.51c-2.17 1.81-4.52 3.4-6.23 5.66-2.84 3.66-3.59 8.51-5.28 12.77-6 14.72-23.24 21.59-31.69 35.09-1.65 2.66-3 5.55-4.75 8.1-2.65 3.78-6.18 6.07-8.17 10.31-1.24 2.59-3.15 6-5.25 8-2.86 2.86-5 1.86-8.52 1-2.76-.55-5.92 0-8.35-2.06-4.66-3.94-1.6-12.3 1.28-16.35a69.71 69.71 0 0 1 6.72-7.73c4.15-4.74 9.78-9.25 12.89-14.8 4.53-7.82 6.35-16.89 8.13-25.47 1.64-8.08 9.43-15.41 16.66-18.67 4.92-2.26 10.65-3.45 14.7-7.1 5-4.57 6.39-11.87 10.4-17.33 1.16-1.71 4.47-4.92 2.46-7.21a3.87 3.87 0 0 0 -1-.7c-1.45-.63-2.8-1.16-4.25-1.79a4 4 0 0 1 -1.52-.94 14.47 14.47 0 0 0 -1-1.29 4.13 4.13 0 0 0 -2.45-.73c-1.69-.15-3.38-.3-5-.35a1.72 1.72 0 0 0 -.71 0 .94.94 0 0 0 -.44.46c-2 2.93-2.85 5.87-4.23 9-1.26 2.8-2.91 5.56-4.17 8.36-1.89 4.25-6.9 4.1-8.42-.16s2.3-8.73.87-13c-.38-1.34-1.38-2.44-1.56-3.76-.37-2.64 1.82-4.65 3.47-6.21 2.43-2.39 6.27-7.16 5.11-11-.61-2.07-2-1.49-3.57-1.53-2.32.09-4.67-.63-6.95-.93-2.87-.47-5-1.06-7.14 1.26s-2.74 5.91-3.31 8.91c-2.34 11.34-5.56 22.49-6.5 34.06-.47 5.18-.54 10.39-2.1 15.37s-1.76 10.58-1.63 15.82c.13 4.13.93 7.41-1.71 11.09-1.61 2.26-3.7 4.28-4.74 6.9-.64 1.55-.81 3.34-1.84 4.75-2.28 3-6.86 2.59-10.5 1.76a8.67 8.67 0 0 1 -4.07-1.67 7.75 7.75 0 0 1 -2-3.69 31.08 31.08 0 0 1 -1.57-12.6 17 17 0 0 1 5.63-11.14c1.07-.8 2.24-1.5 3.32-2.31 3.23-2.41 4.54-5.81 6.45-9.15s4.27-6.14 5.22-10c1.9-7.66-1.7-15.52-5.72-22.21s-8.7-13.64-9.19-21.51c-.35-6.16 2-12.17 3.55-18.16s2.36-12.74-1-18.06c-1.84-3-4.94-5.37-5.73-8.85-1.15-5 2.92-10.08 2-15.19-9.51.75-19.11 1.49-28.61 2.13 1.38 12.48 20.45 17 21.73 29.48.88 8-6.18 15-6 23.06a26.45 26.45 0 0 0 1.49 6.86c2.37 7.14 5.55 14.16 7.7 21.38 1.25 4 3.49 13.57 1.14 17.37-4.5-.2-10.39.57-11.94-4.49s1.24-10.43-.82-15.34c-1.16-2.72-3.7-4.65-4.86-7.37-1-2.3-.95-5-1.33-7.45-2.5-13.38-20.41-19.62-22.92-33-4.2 4.34-8.41 8.68-12.72 13 6 .55 8.2 8.08 12.54 12.29 3.7 3.54 9.31 4.76 12.56 8.76 7.48 9.42-3.92 25.56 3.88 34.8 2 2.39 4.88 3.75 7 6 3.47 3.83 4 9.5 2.9 14.52-1.81 8.88-6.7 16.36-5.36 25.92 1 6.92 5.06 12.81 8.33 18.93 2.91 5.49 5.35 11.83 4 18.14-1 4.62-1.12 10.14-3.51 14.34a17.16 17.16 0 0 1 -10.35 7.8 8.08 8.08 0 0 1 -4.33.11c-3.41-1.12-4.74-5.25-5.42-8.83-.71-3.28-1.42-6.55-2.12-9.83-1.49-6.86-3.9-13.51-5-20.53-1-6-.5-12.2-2.39-18-1.34-4-3.72-7.67-5.69-11.46a48.63 48.63 0 0 1 -4.76-27.24 137.76 137.76 0 0 0 -22.76 9.58 107.68 107.68 0 0 1 15 26 205 205 0 0 1 6.94 22c.54 1.86 1.07 3.81.4 5.66-1.24 3.7-6.55 4.63-9.87 2.52s-5-6-6.15-9.7-2.17-7.71-4.82-10.62c-4.19-4.7-11.61-5.87-14.63-11.36-.86-1.59-1.86-3.89-3.7-3.55a3.52 3.52 0 0 0 -1.6 1.06c-4.06 3.85-5.73 8.92-8.76 13.56 11 1.6 19.72 12.83 18.62 23.88-.29 3.29-1.33 6.91.42 9.78a9.81 9.81 0 0 0 3.34 3c8.65 5.4 20.41 5.26 28.5 11.32 5.82 4.44 15.33 12.53 13.82 20.33a17.3 17.3 0 0 1 -7.64 11.16 31.91 31.91 0 0 0 -4.37 2.82 4.9 4.9 0 0 0 -1.73 4.67c.56 1.65 2.27 2.71 3.92 3.36 7.25 3.07 12.86 2.07 20.27 2.34 10.81.38 31.76 8.5 40.05-2.09 3.53-4.6 2.4-11 2-16.79-.45-7.17.86-15 5.95-20.25 4.76-4.89 10.9-7.24 15.3-12.57 3.6-4.29 10.11-9.62 16.11-9.38 7.3.36 11.69 5.07 16 10.18a4.91 4.91 0 0 0 3.83 2 5.7 5.7 0 0 0 3.4-1.47 19.29 19.29 0 0 0 7.19-15.11 5.14 5.14 0 0 0 -.48-2.46 4.22 4.22 0 0 0 -2.14-1.8c-5.86-2.94-13-1.78-19-4.23a5.6 5.6 0 0 1 -2.27-1.51c-3.89-4.77 2.89-12 6.68-13.95 8.65-4.54 25.08-3.05 33 2.19 2.75 1.75 5.8 4.64 8.74 3.3a7.32 7.32 0 0 0 2.16-1.71 20.64 20.64 0 0 0 4.79-16.34 6.27 6.27 0 0 0 -1.4-3.34 4.89 4.89 0 0 0 -2.32-1c-7.17-1.76-15.32 1.82-22-1.5a19.5 19.5 0 0 1 2.16-9.44 8.6 8.6 0 0 1 2.16-2.82c2.49-2 6.12-1 8.95-2.3 3.14-1.42 4.25-4.84 6.57-7.14s5.72-3.29 9-3.6a31.28 31.28 0 0 1 7.45.87c2.47.43 9.37 3 11.43 1.34a3.8 3.8 0 0 0 .82-1.33 31.93 31.93 0 0 0 1.1-18.12c-.22-.83-.54-1.76-1.33-1.93a2.05 2.05 0 0 0 -1.1 0c-1.95.46-3.59.81-5.33 1.15z" fill="#d35e66"/><path d="m149.87 272.59s-48.22.25-43.91 30.26c2.4 16.79 24.54 21.71 38.2 23.95 10.19 1.62 20.7 4.18 31 2.9 18.18-2.27 28.65-18.09 21.49-35.5-10.89-26.49-46.78-21.61-46.78-21.61z" fill="#999"/><path d="m89.07 259.85s-61.73 7.56-46.14 41.61c7.71 16.86 30.63 21.05 47.23 21.75 13.81.55 51.74.77 46.8-21.16-1.13-5.23-4.43-9.84-7.76-14.06-9.93-12.35-21.55-30.37-40.13-28.14z" fill="#b3b3b3"/><g fill="#b1274a"><ellipse cx="130.05" cy="35.57" rx="14.4" ry="5.9" transform="matrix(.99951746 -.03106186 .03106186 .99951746 -1.04 4.05)"/><ellipse cx="187.17" cy="91.1" rx="5.9" ry="9.2" transform="matrix(.07167153 -.99742829 .99742829 .07167153 82.87 271.25)"/><ellipse cx="215.16" cy="111.48" rx="5.9" ry="9.2" transform="matrix(.35608571 -.9344533 .9344533 .35608571 34.37 272.84)"/><ellipse cx="260.72" cy="83.27" rx="5.9" ry="12.6" transform="matrix(.23412415 -.97220671 .97220671 .23412415 118.74 317.25)"/><ellipse cx="251.04" cy="189.47" rx="11" ry="5.9" transform="matrix(.2344635 -.97212492 .97212492 .2344635 7.99 389.08)"/><ellipse cx="218.11" cy="224.34" rx="11" ry="5.9" transform="matrix(.47439552 -.88031181 .88031181 .47439552 -82.86 309.9)"/><ellipse cx="92.98" cy="72.68" rx="8.6" ry="4.3" transform="matrix(.80396066 -.59468248 .59468248 .80396066 -25 69.54)"/><ellipse cx="76.55" cy="148.3" rx="12.6" ry="6" transform="matrix(.92104952 -.38944548 .38944548 .92104952 -51.72 41.53)"/><ellipse cx="43.77" cy="182.61" rx="9.9" ry="6" transform="matrix(.75390749 -.65698059 .65698059 .75390749 -109.21 73.71)"/><ellipse cx="280.68" cy="140.56" rx="5.9" ry="11" transform="matrix(.99900978 -.0444912 .0444912 .99900978 -5.98 12.63)"/></g></svg>