<svg height="930" viewBox="0 0 1259 930" width="1259" xmlns="http://www.w3.org/2000/svg"><path d="m152.62 655.01h315.31l12.59-57.49h-340.49z" fill="#7f717d"/><path d="m140.25 597.52h340.04l12.15-31.22h-364.34z" fill="#6e626c"/><path d="m172.57 516.66h275.4l9.83-23.03h-295.06z" fill="#6e626c"/><path d="m174.66 516.66h271.23v49.64h-271.23z" fill="#7f717d"/><path d="m193.99 451.85h232.57l8.31-19.38h-249.19z" fill="#6e626c"/><path d="m195.75 451.85h229.05v41.78h-229.05z" fill="#7f717d"/><path d="m216.03 400.6h188.49l6.73-14.79h-201.96z" fill="#6e626c"/><path d="m217.45 400.6h185.64v31.87h-185.64z" fill="#7f717d"/><path d="m230.51 355.98h159.53l5.69-13.84h-170.92z" fill="#6e626c"/><path d="m231.72 355.98h157.11v29.83h-157.11z" fill="#7f717d"/><path d="m356.89 308.12h-93.24c-5.43 0-9.83 3.34-9.83 7.46s4.4 7.46 9.83 7.46h93.24c5.43 0 9.83-3.34 9.83-7.46s-4.4-7.46-9.83-7.46z" fill="#7f717d"/><path d="m271.81 342.14h76.92l7.2-19.1h-91.31z" fill="#655a63"/><path d="m310.39 277.91s-39.39 10.92-38.46 18.09 8.55 12 8.55 12h59.82s7.65-4.87 8.55-12-38.46-18.09-38.46-18.09z" fill="#625861"/><path d="m195.75 597.52h229.05v57.49h-229.05z" fill="#9f8f9d"/><path d="m152.62 655.01h317.1v183.56h-317.1z" fill="#6e626c"/><path d="m769.99 660.1h315.31l12.59-57.49h-340.49z" fill="#7f717d"/><path d="m757.62 602.61h340.04l12.15-31.22h-364.33z" fill="#6e626c"/><path d="m789.95 521.75h275.39l9.83-23.03h-295.06z" fill="#6e626c"/><path d="m792.03 521.75h271.23v49.64h-271.23z" fill="#7f717d"/><path d="m811.36 456.94h232.57l8.31-19.38h-249.19z" fill="#6e626c"/><path d="m813.12 456.94h229.05v41.78h-229.05z" fill="#7f717d"/><path d="m833.4 405.69h188.49l6.73-14.79h-201.96z" fill="#6e626c"/><path d="m834.82 405.69h185.64v31.87h-185.64z" fill="#7f717d"/><path d="m847.88 361.07h159.53l5.69-13.84h-170.92z" fill="#6e626c"/><path d="m849.09 361.07h157.11v29.83h-157.11z" fill="#7f717d"/><path d="m974.26 313.21h-93.26c-5.43 0-9.84 3.34-9.84 7.46s4.41 7.46 9.84 7.46h93.23c5.43 0 9.83-3.34 9.83-7.46.03-4.12-4.37-7.46-9.8-7.46z" fill="#7f717d"/><path d="m889.19 347.23h76.91l7.2-19.1h-91.31z" fill="#655a63"/><path d="m927.76 283s-39.35 10.92-38.45 18.08 8.54 12 8.54 12h59.82s7.65-4.87 8.55-12-38.46-18.08-38.46-18.08z" fill="#625861"/><path d="m813.12 602.61h229.05v57.49h-229.05z" fill="#9f8f9d"/><path d="m769.99 660.1h317.1v183.56h-317.1z" fill="#6e626c"/><path d="m440.55 543.99h363.82l14.53-78.36h-392.88z" fill="#7f717d"/><path d="m426.28 465.63h392.36l14.02-42.55h-420.39z" fill="#6e626c"/><path d="m463.58 355.42h317.76l11.35-31.39h-340.46z" fill="#6e626c"/><path d="m465.98 355.42h312.96v67.66h-312.96z" fill="#7f717d"/><path d="m488.28 267.09h268.36l9.58-26.42h-287.52z" fill="#6e626c"/><path d="m490.31 267.09h264.29v56.94h-264.29z" fill="#7f717d"/><path d="m513.72 197.23h217.49l7.77-20.15h-233.03z" fill="#6e626c"/><path d="m515.36 197.23h214.2v43.44h-214.2z" fill="#7f717d"/><path d="m530.43 136.41h184.07l6.57-18.86h-197.22z" fill="#6e626c"/><path d="m531.82 136.41h181.29v40.66h-181.29z" fill="#7f717d"/><path d="m676.25 71.18h-107.58c-6.26 0-11.34 4.55-11.34 10.16 0 5.62 5.08 10.17 11.34 10.17h107.58c6.27 0 11.35-4.55 11.35-10.17 0-5.61-5.08-10.16-11.35-10.16z" fill="#7f717d"/><path d="m578.09 117.55h88.75l8.3-26.04h-105.36z" fill="#655a63"/><path d="m622.6 30s-45.41 14.88-44.37 24.65 9.86 16.41 9.86 16.41h69s8.83-6.65 9.86-16.41-44.35-24.65-44.35-24.65z" fill="#625861"/><path d="m490.31 465.63h264.29v78.36h-264.29z" fill="#9f8f9d"/><path d="m440.55 543.99h365.89v250.19h-365.89z" fill="#6e626c"/><path d="m631.3 559.8h-34.6c-68.32 0-123.7 24.57-123.7 54.88v179.5h282v-179.5c0-30.31-55.38-54.88-123.7-54.88z" fill="#463f46"/><path d="m866.13 794.18h-485.26c-8.6 0-15.57 6.25-15.57 14v35.58h516.4v-35.63c0-7.7-6.97-13.95-15.57-13.95z" fill="#6e626c"/><path d="m689.22 690.19c0 49.81 14.06 89.51-77.22 90.81-79.81 1.13-70.67-41-70.67-90.81s33.07-90.19 73.92-90.19 73.97 40.38 73.97 90.19z" fill="#3f2114" opacity=".4"/><g fill="#6e626c"><path d="m508 511.24a4.48 4.48 0 0 1 4.4-4.63 5 5 0 0 1 3.43 1.48c2.11 1.71 2.37 1.9 3.08 1.9a1.23 1.23 0 0 0 1.23-1.34 1.46 1.46 0 0 0 -.75-1.3 8.11 8.11 0 0 0 -1.93-.88c-.8-.28-1.59-.55-2.38-.88-4.26-1.57-6.37-4.49-6.37-8.79 0-6 4.39-10.13 10.77-10.13 5.27 0 9.41 3 9.41 6.75 0 2.46-1.59 4.21-3.79 4.21-1.31 0-2.37-.46-4-1.75-1-.88-1.49-1.11-2-1.11a1.19 1.19 0 0 0 -1.1 1.23c0 .92.61 1.34 2.9 2.13a18.11 18.11 0 0 1 6.24 3.24 9.77 9.77 0 0 1 3 7.26 10.9 10.9 0 0 1 -2.84 7.37c-2 2.08-4.62 3.1-8.22 3.1-6.24-.04-11.08-3.47-11.08-7.86z"/><path d="m536.62 496.89a4.59 4.59 0 0 1 -3.65-1.34 5 5 0 0 1 -1.36-3.37 4.91 4.91 0 0 1 2.51-4.26c1-.46 1.4-.51 5.23-.51h9.76a18.59 18.59 0 0 1 3.3.09 4.54 4.54 0 0 1 4 4.63 4.66 4.66 0 0 1 -5.32 4.76h-2.15v15.37a7 7 0 0 1 -.84 3.93 4.56 4.56 0 0 1 -4 2.31 4.82 4.82 0 0 1 -4-2.13c-.66-1.06-.83-1.94-.83-4v-15.48z"/><path d="m568.85 505.36c0 2.22 1 3.56 2.64 3.56s2.64-1.29 2.64-3.42v-12.31c0-2.26.17-3 1-4.07a4.78 4.78 0 0 1 3.74-1.94 5 5 0 0 1 3.83 1.82c.92 1.16 1.14 2.08 1.14 4.86v11c0 4.17-1 7.17-3.07 9.67a11.86 11.86 0 0 1 -19.26-.83c-1.8-2.59-2.37-4.77-2.37-8.84v-10.86c0-2.92.17-3.66 1-4.81a4.69 4.69 0 0 1 7.38-.37c1 1.06 1.32 2.22 1.32 4.39z"/><path d="m599.59 487.41a14.64 14.64 0 0 1 10.64 3.93 15.74 15.74 0 0 1 4.83 11.48 15.93 15.93 0 0 1 -4.7 11.33 14.49 14.49 0 0 1 -6.91 3.75 27.88 27.88 0 0 1 -5 .37h-4.05c-2.29 0-3.21-.19-4.09-.83a4.5 4.5 0 0 1 -2-2.78 13 13 0 0 1 -.18-3.33v-17c0-2.59 0-2.87.22-3.56.7-2.22 2.51-3.38 5.32-3.38zm-1.81 21.38c3.34-.05 4.14-.19 5.28-1a6.32 6.32 0 0 0 2.37-4.91 6 6 0 0 0 -3.12-5.32 7.85 7.85 0 0 0 -3.74-.65h-.79z"/><path d="m628.52 512.63a5.82 5.82 0 0 1 -1.23 4.16 4.74 4.74 0 0 1 -7.21.09c-.93-1.06-1.23-2.13-1.23-4.25v-19.11c0-2.59.22-3.52 1.23-4.68a4.56 4.56 0 0 1 3.56-1.66 4.76 4.76 0 0 1 3.6 1.62c1 1.15 1.28 2.22 1.28 4.72z"/><path d="m647.64 486.67c8.58 0 15.48 7.22 15.48 16.15s-7 16.24-15.43 16.24-15.48-7.27-15.48-16.38c0-8.89 6.86-16.01 15.43-16.01zm.05 22.3a6 6 0 0 0 5.76-6.11 5.76 5.76 0 1 0 -11.52 0 6 6 0 0 0 5.76 6.14z"/><path d="m689.33 505.36c0 2.22 1 3.56 2.63 3.56s2.64-1.29 2.64-3.42v-12.31c0-2.26.18-3 1.06-4.07a4.75 4.75 0 0 1 3.73-1.94 5.05 5.05 0 0 1 3.79 1.85c.92 1.16 1.14 2.08 1.14 4.86v11c0 4.17-1 7.17-3.08 9.67a12.18 12.18 0 0 1 -9.28 4.54 12.3 12.3 0 0 1 -10-5.37c-1.81-2.59-2.38-4.77-2.38-8.84v-10.89c0-2.92.18-3.66 1-4.81a4.7 4.7 0 0 1 7.39-.37c1 1.06 1.32 2.22 1.32 4.39z"/><path d="m709.73 496.66c-1.41-2-1.93-3.19-1.93-4.39a5.11 5.11 0 0 1 4.92-5.09 5 5 0 0 1 4.09 2.31l3.12 4.35 2.94-3.89c1.5-2 2.64-2.77 4.27-2.77a5 5 0 0 1 4.92 5 7.11 7.11 0 0 1 -1.54 3.89l-4.52 6.28 5.5 7.73a6 6 0 0 1 1.05 3.38 4.9 4.9 0 0 1 -4.75 5 4.77 4.77 0 0 1 -4-2.17l-4-5.46-4 5.41a4.6 4.6 0 0 1 -4 2.22 5 5 0 0 1 -4.84-5 5.88 5.88 0 0 1 1.14-3.47l5.5-7.64z"/></g><path d="m509.93 512.18a4.47 4.47 0 0 1 4.4-4.63 5 5 0 0 1 3.43 1.48c2.11 1.72 2.37 1.9 3.07 1.9a1.22 1.22 0 0 0 1.23-1.34 1.47 1.47 0 0 0 -.74-1.3 8.65 8.65 0 0 0 -1.94-.87c-.79-.28-1.58-.56-2.37-.88-4.27-1.58-6.38-4.49-6.38-8.79 0-6 4.4-10.14 10.77-10.14 5.28 0 9.41 3 9.41 6.76 0 2.45-1.58 4.21-3.78 4.21-1.32 0-2.37-.46-4-1.76-1-.88-1.49-1.11-2-1.11a1.19 1.19 0 0 0 -1.14 1.2c0 .93.61 1.34 2.9 2.13a18.56 18.56 0 0 1 6.24 3.24 9.81 9.81 0 0 1 3 7.26 10.94 10.94 0 0 1 -2.77 7.36c-2 2.08-4.62 3.1-8.23 3.1-6.31 0-11.1-3.42-11.1-7.82z"/><path d="m538.51 497.84a4.62 4.62 0 0 1 -3.65-1.34 5 5 0 0 1 -1.36-3.38 4.92 4.92 0 0 1 2.5-4.26c1-.46 1.41-.51 5.24-.51h9.76a16.68 16.68 0 0 1 3.29.1 4.54 4.54 0 0 1 4 4.62 5.27 5.27 0 0 1 -1.58 3.66 5.18 5.18 0 0 1 -3.74 1.11h-2.15v15.36a7 7 0 0 1 -.84 3.93 4.56 4.56 0 0 1 -4 2.31 4.79 4.79 0 0 1 -4-2.12c-.66-1.07-.84-2-.84-4v-15.48z"/><path d="m570.74 506.3c0 2.23 1 3.57 2.64 3.57s2.63-1.3 2.63-3.43v-12.3c0-2.27.18-3 1.06-4.08a4.76 4.76 0 0 1 3.74-1.94 5 5 0 0 1 3.78 1.85c.92 1.16 1.14 2.08 1.14 4.86v11c0 4.16-1 7.17-3.08 9.67a11.86 11.86 0 0 1 -19.25-.84c-1.8-2.59-2.38-4.76-2.38-8.83v-10.91c0-2.91.18-3.65 1-4.81a5.07 5.07 0 0 1 3.83-2 5 5 0 0 1 3.56 1.62c1 1.07 1.32 2.22 1.32 4.4z"/><path d="m601.47 488.35a14.59 14.59 0 0 1 10.64 3.94 15.68 15.68 0 0 1 4.89 11.47 16 16 0 0 1 -4.71 11.34 14.36 14.36 0 0 1 -6.9 3.74 28 28 0 0 1 -5 .37h-4.08c-2.29 0-3.21-.18-4.09-.83a4.49 4.49 0 0 1 -2-2.78 13.72 13.72 0 0 1 -.17-3.33v-17c0-2.59 0-2.87.22-3.56.7-2.22 2.5-3.38 5.32-3.38zm-1.8 21.38c3.34-.05 4.13-.19 5.28-1a6.31 6.31 0 0 0 2.37-4.9 6 6 0 0 0 -3.12-5.32 7.78 7.78 0 0 0 -3.74-.65h-.79z"/><path d="m630.4 513.57a5.82 5.82 0 0 1 -1.23 4.16 5 5 0 0 1 -3.6 1.71 5 5 0 0 1 -3.61-1.61c-.92-1.07-1.23-2.13-1.23-4.26v-19.11c0-2.59.22-3.52 1.23-4.67a4.56 4.56 0 0 1 3.56-1.67 4.76 4.76 0 0 1 3.61 1.62c1 1.16 1.27 2.22 1.27 4.72z"/><path d="m649.53 487.61c8.57 0 15.48 7.22 15.48 16.15s-7 16.24-15.44 16.24-15.47-7.26-15.47-16.38c0-8.88 6.9-16.01 15.43-16.01zm0 22.3a6 6 0 0 0 5.76-6.1 5.76 5.76 0 1 0 -11.51-.05 6 6 0 0 0 5.79 6.15z"/><path d="m691.21 506.3c0 2.23 1 3.57 2.64 3.57s2.64-1.3 2.64-3.43v-12.3c0-2.27.18-3 1.06-4.08a4.75 4.75 0 0 1 3.73-1.94 5 5 0 0 1 3.78 1.85c.93 1.16 1.15 2.08 1.15 4.86v11c0 4.16-1 7.17-3.08 9.67a11.87 11.87 0 0 1 -19.26-.84c-1.8-2.59-2.37-4.76-2.37-8.83v-10.91c0-2.91.17-3.65 1-4.81a4.7 4.7 0 0 1 7.39-.37c1 1.07 1.31 2.22 1.31 4.4z"/><path d="m711.62 497.61c-1.41-2-1.94-3.2-1.94-4.4a5.12 5.12 0 0 1 4.93-5.09 5 5 0 0 1 4.08 2.31l3.13 4.35 2.94-3.88c1.5-2 2.64-2.78 4.27-2.78a5 5 0 0 1 4.92 5 7.13 7.13 0 0 1 -1.54 3.89l-4.48 6.25 5.49 7.72a5.9 5.9 0 0 1 1.06 3.38 4.89 4.89 0 0 1 -4.75 5 4.78 4.78 0 0 1 -4-2.17l-3.95-5.46-4 5.41a4.59 4.59 0 0 1 -4 2.22 5 5 0 0 1 -4.83-5 5.82 5.82 0 0 1 1.14-3.47l5.5-7.63z"/></svg>