<svg height="324" viewBox="0 0 185 324" width="185" xmlns="http://www.w3.org/2000/svg"><g fill="#472821"><rect height="234.75" rx="3.03" transform="matrix(.97564952 .21933539 -.21933539 .97564952 45.48 -10.88)" width="10.71" x="66.42" y="82.1"/><path d="m96.11 89.85 1.46-6.48-7.47-1.68a7.74 7.74 0 0 0 6 8.16z"/><path d="m96.12 89.85a7.74 7.74 0 0 0 8.94-4.8l-7.49-1.68-1.46 6.48z"/></g><path d="m30.71 43.23h138.85v42.22h-138.85z" fill="#3a1b16" transform="matrix(.97936414 .20210362 -.20210362 .97936414 15.07 -18.91)"/><path d="m37.33 47.64h127.1v33.91h-127.1z" fill="#472821" transform="matrix(.97936414 .20210362 -.20210362 .97936414 15.13 -19.05)"/><g fill="#704528"><path d="m62.79 58.47c-1.6-.33-2.38-1.34-2.1-2.69s1.46-2 3.35-1.57l1.94.43c2.08.48 2.61.76 3.06 1.59a3.76 3.76 0 0 1 .22 2.77l-.35 1.54a6.57 6.57 0 0 1 -.59 1.94 6 6 0 0 1 -3.57 2.23 9.41 9.41 0 0 1 -4.5.17 9.68 9.68 0 1 1 3.89-19 10.2 10.2 0 0 1 4.77 2.48 3.43 3.43 0 0 1 1.29 3.18 3.1 3.1 0 0 1 -3.65 2.35 2.23 2.23 0 0 1 -.76-.29l-1.18-1a4.77 4.77 0 0 0 -1.8-.88 3.62 3.62 0 1 0 .85 6.87z"/><path d="m76.74 64.37a3.4 3.4 0 0 1 -1.26 2.28 3.1 3.1 0 0 1 -4.48-.86 3.28 3.28 0 0 1 -.24-2.65l2.33-11.14c.31-1.52.56-2 1.32-2.58a2.94 2.94 0 0 1 2.4-.52 3.07 3.07 0 0 1 2 1.41 3.61 3.61 0 0 1 .22 2.92z"/><path d="m83.6 56.18a3 3 0 0 1 -2.09-1.25 2.82 2.82 0 0 1 1.63-4.32c.68-.15.93-.12 3.28.36l6 1.24a11.44 11.44 0 0 1 2 .48 2.76 2.76 0 0 1 1.88 3.21 3.07 3.07 0 0 1 -1.42 1.94 3.33 3.33 0 0 1 -2.44.17l-1.32-.27-1.86 9a4 4 0 0 1 -1 2.2 2.88 2.88 0 0 1 -2.74.84 3 3 0 0 1 -2.16-1.78 3.78 3.78 0 0 1 0-2.46l1.87-9.05z"/><path d="m101.83 69.12c-.34 1.48-.49 1.85-1 2.41a3 3 0 0 1 -5-1 4.14 4.14 0 0 1 0-2.62l2.26-10.91a3.4 3.4 0 0 1 1.13-2.31 3 3 0 0 1 2.59-.68 3.18 3.18 0 0 1 2.19 1.66c.36.75.39 1.15.07 2.7l-.53 2.54 3.63.75.51-2.46a3.82 3.82 0 0 1 1.17-2.53 2.9 2.9 0 0 1 2.54-.69 3.11 3.11 0 0 1 2.15 1.63 3.79 3.79 0 0 1 .15 2.6l-2.26 10.94a4 4 0 0 1 -1 2.26 3 3 0 0 1 -5-.77 3.85 3.85 0 0 1 0-2.72l.53-2.6-3.63-.75z"/><path d="m120.83 69c-.27 1.3.16 2.21 1.19 2.42s1.78-.42 2-1.67l1.49-7.2c.27-1.33.46-1.71 1.14-2.25a3 3 0 0 1 2.54-.66 3.19 3.19 0 0 1 2.1 1.56c.43.79.46 1.36.12 3l-1.32 6.42a8.18 8.18 0 0 1 -3.07 5.27 7.78 7.78 0 0 1 -12.12-8.39l1.32-6.37c.35-1.71.55-2.12 1.2-2.69a3.29 3.29 0 0 1 2.6-.68 3.22 3.22 0 0 1 2 1.41 3.38 3.38 0 0 1 .28 2.74z"/><path d="m146.46 76.61a5.42 5.42 0 0 1 -2.64 3.66c-1.39.84-2.28.91-4.61.43l-4.74-1a2.92 2.92 0 0 1 -2.36-1.42 3.2 3.2 0 0 1 -.45-1.55 12.55 12.55 0 0 1 .28-1.61l2.11-10.24.18-.87a3 3 0 0 1 3.69-2.43l2.55.53a14.54 14.54 0 0 1 3.26.89 5.54 5.54 0 0 1 3.05 6.28 4.79 4.79 0 0 1 -1.41 2.59 5.54 5.54 0 0 1 1.09 4.74zm-8.25-1.9 1 .2c1 .22 1.33.11 1.44-.43s-.22-.84-1.17-1l-1-.2zm1.14-5.53.71.15c.84.17 1.15 0 1.25-.45s-.18-.77-1-.95l-.65-.13z"/></g><g fill="#ffe94d" opacity=".86"><path d="m63.79 60.47c-1.6-.33-2.38-1.34-2.1-2.69s1.46-2 3.35-1.57l1.94.43c2.08.48 2.61.76 3.06 1.59a3.76 3.76 0 0 1 .22 2.77l-.35 1.54a6.57 6.57 0 0 1 -.59 1.94 6 6 0 0 1 -3.57 2.23 9.41 9.41 0 0 1 -4.5.17 9.68 9.68 0 1 1 3.89-19 10.2 10.2 0 0 1 4.77 2.48 3.43 3.43 0 0 1 1.29 3.18 3.1 3.1 0 0 1 -3.65 2.35 2.23 2.23 0 0 1 -.76-.29l-1.18-1a4.77 4.77 0 0 0 -1.8-.88 3.62 3.62 0 1 0 .85 6.87z"/><path d="m77.74 66.37a3.4 3.4 0 0 1 -1.26 2.28 3.1 3.1 0 0 1 -4.48-.86 3.28 3.28 0 0 1 -.24-2.65l2.33-11.14c.31-1.52.56-2 1.32-2.58a2.94 2.94 0 0 1 2.4-.52 3.07 3.07 0 0 1 2 1.41 3.61 3.61 0 0 1 .22 2.92z"/><path d="m84.6 58.18a3 3 0 0 1 -2.09-1.25 2.82 2.82 0 0 1 1.63-4.32c.68-.15.93-.12 3.28.36l6 1.24a11.44 11.44 0 0 1 2 .48 2.76 2.76 0 0 1 1.88 3.21 3.07 3.07 0 0 1 -1.42 1.94 3.33 3.33 0 0 1 -2.44.17l-1.32-.27-1.86 9a4 4 0 0 1 -1 2.2 2.88 2.88 0 0 1 -2.74.84 3 3 0 0 1 -2.16-1.78 3.78 3.78 0 0 1 0-2.46l1.87-9.05z"/><path d="m102.83 71.12c-.34 1.48-.49 1.85-1 2.41a3 3 0 0 1 -5-1 4.14 4.14 0 0 1 0-2.62l2.26-10.91a3.4 3.4 0 0 1 1.13-2.31 3 3 0 0 1 2.59-.68 3.18 3.18 0 0 1 2.19 1.66c.36.75.39 1.15.07 2.7l-.53 2.54 3.63.75.51-2.46a3.82 3.82 0 0 1 1.17-2.53 2.9 2.9 0 0 1 2.54-.69 3.11 3.11 0 0 1 2.15 1.63 3.79 3.79 0 0 1 .15 2.6l-2.26 10.94a4 4 0 0 1 -1 2.26 3 3 0 0 1 -5-.77 3.85 3.85 0 0 1 0-2.72l.53-2.6-3.63-.75z"/><path d="m121.83 71c-.27 1.3.16 2.21 1.19 2.42s1.78-.42 2-1.67l1.49-7.2c.27-1.33.46-1.71 1.14-2.25a3 3 0 0 1 2.54-.66 3.19 3.19 0 0 1 2.1 1.56c.43.79.46 1.36.12 3l-1.32 6.42a8.18 8.18 0 0 1 -3.07 5.27 7.78 7.78 0 0 1 -12.12-8.39l1.32-6.37c.35-1.71.55-2.12 1.2-2.69a3.29 3.29 0 0 1 2.6-.68 3.22 3.22 0 0 1 2 1.41 3.38 3.38 0 0 1 .28 2.74z"/><path d="m147.46 78.61a5.42 5.42 0 0 1 -2.64 3.66c-1.39.84-2.28.91-4.61.43l-4.74-1a2.92 2.92 0 0 1 -2.36-1.42 3.2 3.2 0 0 1 -.45-1.55 12.55 12.55 0 0 1 .28-1.61l2.11-10.24.18-.87a3 3 0 0 1 3.69-2.43l2.55.53a14.54 14.54 0 0 1 3.26.89 5.54 5.54 0 0 1 3.05 6.28 4.79 4.79 0 0 1 -1.41 2.59 5.54 5.54 0 0 1 1.09 4.74zm-8.25-1.9 1 .2c1 .22 1.33.11 1.44-.43s-.22-.84-1.17-1l-1-.2zm1.14-5.53.71.15c.84.17 1.15 0 1.25-.45s-.18-.77-1-.95l-.65-.13z"/></g></svg>