<svg height="153" viewBox="0 0 221 153" width="221" xmlns="http://www.w3.org/2000/svg"><g fill="#717172"><path d="m125.53 77.76c-3.46 8-7.25 9.5-16.92 8.4s-22.33 0-21.76-8.38 5.81-14 12.31-13.13c8.07 1.06 12.36-2.78 16.69-3.75"/><path d="m132.67 86.2c.75 4.07 3.13 4.87 6.84 1.94 1.69 2.42-1.66 8-8.9 3.79-3.79-2.19-5-6-5.3-9.08"/><path d="m120.42 59.82c4.38-3.83 16.06-1 13.27 12.65a55 55 0 0 0 -1.28 10.23l-14.17-5.47z"/><path d="m121 60.16c-2.69-1.85-6.66-1-5.35 5.31s5.1 6.1 6.42 3.53"/><path d="m86.93 79.44s-5 7.45-5.58 12.47l5.44 1s3.14-7.69 6.41-8.34"/><path d="m99.72 95.22-3.42-.62s-.25-8.3-3.1-10l6.27-.17z"/><path d="m102.29 85.66c-2.14 3.08-2.71 9-2.58 11.07l6.12.82c.8-4.4 2.45-9.42 5-11.18"/><path d="m120 85.08c.94 3.64-.9 11-1.74 12.92l-6-1.37c.61-3.43.88-7.39.13-10.17"/><path d="m125.53 77.76c3 7.16 22 9.51 25.13-7.92 3.77 9.46-11.21 24.78-27.09 11.68"/><path d="m132.71 78.42c6.11.54 13.73-3 14.42-13.35 3.49 6.54-3.62 17.73-14.68 16.35"/></g><path d="m128.45 67.69a1 1 0 1 1 -2-.35 1 1 0 0 1 2 .35z" fill="#4e4e51"/><g fill="#717172"><path d="m26.13 39.85c1.31 0 2.06-11.17 2.53-13.29s3.41-2.25 3 2.39-2.92 17.05.04 18.05 5-9.8 8.75-7.09c2.32 1.68-2.44 5.59-4.56 10.5-1.5 3.47-4.16 8.65-10.91 7.84s-6.13-5-7.84-9.61-8.38-11.44-6.47-12.64 6.41 8.38 7.84 7.7-7.16-13.7-4.3-14.55 5.8 12.2 7.57 11.79-3.88-15.94-.68-16.29 3.65 15.2 5.03 15.2z"/><path d="m204.87 114.93c1.19.56 6.64-9.23 8-10.94s4-.57 1.69 3.44-9.92 14.16-7.68 16.35 8.71-6.72 10.94-2.67c1.37 2.5-4.61 4-8.62 7.54-2.84 2.5-7.45 6-13.2 2.42s-3.4-7.18-3-12-2.69-13.94-.44-14.23 2.21 10.31 3.8 10.31-.65-15.38 2.32-15 0 13.51 1.8 13.89 3.3-16.08 6.34-15-3.19 15.3-1.95 15.89z"/><path d="m52.79 114.53c1.28-.28-.39-11.36-.38-13.52s2.84-2.93 3.44 1.68.82 17.27 3.93 17.63 2.78-10.65 7-8.8c2.62 1.13-1.19 6-2.2 11.23-.71 3.72-2.2 9.35-9 10s-7.08-3.6-9.72-7.7-10.66-9.37-9.06-11 8.06 6.8 9.32 5.83-9.93-11.77-7.32-13.25 8.28 10.67 9.92 9.88-7.22-14.74-4.17-15.76 6.9 14.08 8.24 13.78z"/><path d="m100.68 23.72c-1.38-.79 3.37-10.95 3.92-13.07s-2.49-4-4.36.25-5.37 16.56-9 15.66-.44-11.56-5.76-11.45c-3.28.05-.18 6.33-.38 11.87-.13 3.93.11 10 7.66 13.41s9-.66 13.07-3.6 14.56-4.86 13.15-7.08-11 3.4-12.13 1.94 14.35-7.5 11.76-10-12.19 7.08-13.86 5.65 12-11.49 8.8-13.73-11.41 10.99-12.87 10.15z"/></g></svg>