<svg height="185" viewBox="0 0 140 185" width="140" xmlns="http://www.w3.org/2000/svg"><path d="m140 59v75c-7.28 8.44-12.79 8.43-20.21-.22-2.34 3.58-5.11 6.29-9.85 6.29s-7.42-2.85-10-6.64c-3.48 6.37-8.52 7.83-14.81 5.72a9 9 0 0 1 -1.87-1.63c-2.16-3.37-3.75-3.15-6.49-.14-3.76 4.14-10.3 3.73-14.19-.68-2.18-2.46-3.33-2.61-5.07.1a13.13 13.13 0 0 1 -2.56 2.35c-6.47 2.33-11.5.36-15-5.81-2.14 3.77-4.53 6.08-8.33 6.64-5.43.81-8.83-2.31-11.67-6.43-6.25 8.78-12.83 8.78-19.95.45v-76c1.81-.94 1.37-2.88 1.78-4.36q11.22-41.07 52.31-51.99c1.63-.44 3.73.2 4.91-1.65h22c.68 1.67 2.29 1 3.46 1.28q43.38 10.89 54.26 54.26c.28 1.17-.39 2.78 1.28 3.46z" fill="#39b44a"/><path d="m55 185-.09-45.85a13.13 13.13 0 0 0 2.56-2.35c1.74-2.71 2.89-2.56 5.07-.1 3.89 4.41 10.43 4.82 14.19.68 2.74-3 4.33-3.23 6.49.14a9 9 0 0 0 1.87 1.63l-.09 45.85z" fill="#a57c52"/></svg>