<svg xmlns="http://www.w3.org/2000/svg" xmlns:xlink="http://www.w3.org/1999/xlink" width="2353" height="600" viewBox="0 0 2353 600"><defs><radialGradient id="radial-gradient" cx="199.55" cy="288.57" r="64.08" gradientUnits="userSpaceOnUse"><stop offset="0" stop-color="#cc4c3d"/><stop offset="0.21" stop-color="#ca4a3b" stop-opacity="0.74"/><stop offset="0.48" stop-color="#c74738" stop-opacity="0.43"/><stop offset="0.72" stop-color="#c64536" stop-opacity="0.2"/><stop offset="0.9" stop-color="#c44334" stop-opacity="0.05"/><stop offset="1" stop-color="#c44334" stop-opacity="0"/></radialGradient><radialGradient id="radial-gradient-2" cx="523.55" cy="288.57" r="64.08" xlink:href="#radial-gradient"/><radialGradient id="radial-gradient-3" cx="847.55" cy="288.57" r="64.08" xlink:href="#radial-gradient"/><radialGradient id="radial-gradient-4" cx="1166.55" cy="288.57" r="64.08" xlink:href="#radial-gradient"/><radialGradient id="radial-gradient-5" cx="1487.55" cy="290.57" r="64.08" xlink:href="#radial-gradient"/><radialGradient id="radial-gradient-6" cx="1803.55" cy="289.57" r="64.08" xlink:href="#radial-gradient"/></defs><title>World_Space</title><g id="Layer_7" data-name="Layer 7"><rect x="36" y="38" width="322" height="515" style="fill:#8e8e8e;stroke:#3d3d3f;stroke-miterlimit:10;stroke-width:6px"/><rect x="55" y="53.06" width="272" height="470.75" style="fill:#636363"/><rect x="64" y="58.71" width="272" height="470.75" style="fill:#a5a5a5;opacity:0.78"/><ellipse cx="90.5" cy="82.72" rx="5.5" ry="5.18" style="fill:#636363;opacity:0.56"/><ellipse cx="165.5" cy="82.72" rx="5.5" ry="5.18" style="fill:#636363;opacity:0.56"/><ellipse cx="89.5" cy="149.57" rx="5.5" ry="5.18" style="fill:#636363;opacity:0.56"/><ellipse cx="89.5" cy="223" rx="5.5" ry="5.18" style="fill:#636363;opacity:0.56"/><ellipse cx="89.5" cy="287.03" rx="5.5" ry="5.18" style="fill:#636363;opacity:0.56"/><ellipse cx="89.5" cy="351.99" rx="5.5" ry="5.18" style="fill:#636363;opacity:0.56"/><ellipse cx="89.5" cy="423.54" rx="5.5" ry="5.18" style="fill:#636363;opacity:0.56"/><ellipse cx="89.5" cy="500.75" rx="5.5" ry="5.18" style="fill:#636363;opacity:0.56"/><ellipse cx="302.5" cy="151.45" rx="5.5" ry="5.18" style="fill:#636363;opacity:0.56"/><ellipse cx="302.5" cy="224.89" rx="5.5" ry="5.18" style="fill:#636363;opacity:0.56"/><ellipse cx="302.5" cy="288.91" rx="5.5" ry="5.18" style="fill:#636363;opacity:0.56"/><ellipse cx="302.5" cy="353.87" rx="5.5" ry="5.18" style="fill:#636363;opacity:0.56"/><ellipse cx="302.5" cy="425.43" rx="5.5" ry="5.18" style="fill:#636363;opacity:0.56"/><ellipse cx="302.5" cy="501.69" rx="5.5" ry="5.18" style="fill:#636363;opacity:0.56"/><ellipse cx="236.5" cy="82.72" rx="5.5" ry="5.18" style="fill:#636363;opacity:0.56"/><ellipse cx="161.5" cy="501.69" rx="5.5" ry="5.18" style="fill:#636363;opacity:0.56"/><ellipse cx="232.5" cy="501.69" rx="5.5" ry="5.18" style="fill:#636363;opacity:0.56"/><ellipse cx="302.5" cy="82.72" rx="5.5" ry="5.18" style="fill:#636363;opacity:0.56"/><circle cx="200.5" cy="286.5" r="19.62" style="fill:#505164;stroke:#000;stroke-miterlimit:10"/><circle cx="202.88" cy="286.5" r="17.24" style="fill:#e2744b"/><ellipse cx="204.96" cy="276.82" rx="5.05" ry="3.99" style="fill:#ea9a81"/><path d="M190.57,298.56s10.63,12.14,25.14-.55C215.71,298,200.84,291.6,190.57,298.56Z" style="fill:#db5f42"/><circle cx="202.88" cy="286.5" r="17.24" style="fill:none;stroke:#000;stroke-miterlimit:10"/><ellipse cx="199.55" cy="288.57" rx="65.55" ry="62.57" style="fill:url(#radial-gradient)"/><rect x="360" y="38" width="322" height="515" style="fill:#8e8e8e;stroke:#3d3d3f;stroke-miterlimit:10;stroke-width:6px"/><rect x="379" y="53.06" width="272" height="470.75" style="fill:#636363"/><rect x="388" y="58.71" width="272" height="470.75" style="fill:#a5a5a5;opacity:0.78"/><ellipse cx="414.5" cy="82.72" rx="5.5" ry="5.18" style="fill:#636363;opacity:0.56"/><ellipse cx="489.5" cy="82.72" rx="5.5" ry="5.18" style="fill:#636363;opacity:0.56"/><ellipse cx="413.5" cy="149.57" rx="5.5" ry="5.18" style="fill:#636363;opacity:0.56"/><ellipse cx="413.5" cy="223" rx="5.5" ry="5.18" style="fill:#636363;opacity:0.56"/><ellipse cx="413.5" cy="287.03" rx="5.5" ry="5.18" style="fill:#636363;opacity:0.56"/><ellipse cx="413.5" cy="351.99" rx="5.5" ry="5.18" style="fill:#636363;opacity:0.56"/><ellipse cx="413.5" cy="423.54" rx="5.5" ry="5.18" style="fill:#636363;opacity:0.56"/><ellipse cx="413.5" cy="500.75" rx="5.5" ry="5.18" style="fill:#636363;opacity:0.56"/><ellipse cx="626.5" cy="151.45" rx="5.5" ry="5.18" style="fill:#636363;opacity:0.56"/><ellipse cx="626.5" cy="224.89" rx="5.5" ry="5.18" style="fill:#636363;opacity:0.56"/><ellipse cx="626.5" cy="288.91" rx="5.5" ry="5.18" style="fill:#636363;opacity:0.56"/><ellipse cx="626.5" cy="353.87" rx="5.5" ry="5.18" style="fill:#636363;opacity:0.56"/><ellipse cx="626.5" cy="425.43" rx="5.5" ry="5.18" style="fill:#636363;opacity:0.56"/><ellipse cx="626.5" cy="501.69" rx="5.5" ry="5.18" style="fill:#636363;opacity:0.56"/><ellipse cx="560.5" cy="82.72" rx="5.5" ry="5.18" style="fill:#636363;opacity:0.56"/><ellipse cx="485.5" cy="501.69" rx="5.5" ry="5.18" style="fill:#636363;opacity:0.56"/><ellipse cx="556.5" cy="501.69" rx="5.5" ry="5.18" style="fill:#636363;opacity:0.56"/><ellipse cx="626.5" cy="82.72" rx="5.5" ry="5.18" style="fill:#636363;opacity:0.56"/><circle cx="524.5" cy="286.5" r="19.62" style="fill:#505164;stroke:#000;stroke-miterlimit:10"/><circle cx="526.88" cy="286.5" r="17.24" style="fill:#e2744b"/><ellipse cx="528.96" cy="276.82" rx="5.05" ry="3.99" style="fill:#ea9a81"/><path d="M514.57,298.56s10.63,12.14,25.14-.55C539.71,298,524.84,291.6,514.57,298.56Z" style="fill:#db5f42"/><circle cx="526.88" cy="286.5" r="17.24" style="fill:none;stroke:#000;stroke-miterlimit:10"/><ellipse cx="523.55" cy="288.57" rx="65.55" ry="62.57" style="fill:url(#radial-gradient-2)"/><rect x="684" y="38" width="322" height="515" style="fill:#8e8e8e;stroke:#3d3d3f;stroke-miterlimit:10;stroke-width:6px"/><rect x="703" y="53.06" width="272" height="470.75" style="fill:#636363"/><rect x="712" y="58.71" width="272" height="470.75" style="fill:#a5a5a5;opacity:0.78"/><ellipse cx="738.5" cy="82.72" rx="5.5" ry="5.18" style="fill:#636363;opacity:0.56"/><ellipse cx="813.5" cy="82.72" rx="5.5" ry="5.18" style="fill:#636363;opacity:0.56"/><ellipse cx="737.5" cy="149.57" rx="5.5" ry="5.18" style="fill:#636363;opacity:0.56"/><ellipse cx="737.5" cy="223" rx="5.5" ry="5.18" style="fill:#636363;opacity:0.56"/><ellipse cx="737.5" cy="287.03" rx="5.5" ry="5.18" style="fill:#636363;opacity:0.56"/><ellipse cx="737.5" cy="351.99" rx="5.5" ry="5.18" style="fill:#636363;opacity:0.56"/><ellipse cx="737.5" cy="423.54" rx="5.5" ry="5.18" style="fill:#636363;opacity:0.56"/><ellipse cx="737.5" cy="500.75" rx="5.5" ry="5.18" style="fill:#636363;opacity:0.56"/><ellipse cx="950.5" cy="151.45" rx="5.5" ry="5.18" style="fill:#636363;opacity:0.56"/><ellipse cx="950.5" cy="224.89" rx="5.5" ry="5.18" style="fill:#636363;opacity:0.56"/><ellipse cx="950.5" cy="288.91" rx="5.5" ry="5.18" style="fill:#636363;opacity:0.56"/><ellipse cx="950.5" cy="353.87" rx="5.5" ry="5.18" style="fill:#636363;opacity:0.56"/><ellipse cx="950.5" cy="425.43" rx="5.5" ry="5.18" style="fill:#636363;opacity:0.56"/><ellipse cx="950.5" cy="501.69" rx="5.5" ry="5.18" style="fill:#636363;opacity:0.56"/><ellipse cx="884.5" cy="82.72" rx="5.5" ry="5.18" style="fill:#636363;opacity:0.56"/><ellipse cx="809.5" cy="501.69" rx="5.5" ry="5.18" style="fill:#636363;opacity:0.56"/><ellipse cx="880.5" cy="501.69" rx="5.5" ry="5.18" style="fill:#636363;opacity:0.56"/><ellipse cx="950.5" cy="82.72" rx="5.5" ry="5.18" style="fill:#636363;opacity:0.56"/><circle cx="848.5" cy="286.5" r="19.62" style="fill:#505164;stroke:#000;stroke-miterlimit:10"/><circle cx="850.88" cy="286.5" r="17.24" style="fill:#e2744b"/><ellipse cx="852.96" cy="276.82" rx="5.05" ry="3.99" style="fill:#ea9a81"/><path d="M838.57,298.56s10.63,12.14,25.14-.55C863.71,298,848.84,291.6,838.57,298.56Z" style="fill:#db5f42"/><circle cx="850.88" cy="286.5" r="17.24" style="fill:none;stroke:#000;stroke-miterlimit:10"/><ellipse cx="847.55" cy="288.57" rx="65.55" ry="62.57" style="fill:url(#radial-gradient-3)"/><rect x="1006" y="38" width="322" height="515" style="fill:#8e8e8e;stroke:#3d3d3f;stroke-miterlimit:10;stroke-width:6px"/><rect x="1025" y="53.06" width="272" height="470.75" style="fill:#636363"/><rect x="1034" y="58.71" width="272" height="470.75" style="fill:#a5a5a5;opacity:0.78"/><ellipse cx="1060.5" cy="82.72" rx="5.5" ry="5.18" style="fill:#636363;opacity:0.56"/><ellipse cx="1135.5" cy="82.72" rx="5.5" ry="5.18" style="fill:#636363;opacity:0.56"/><ellipse cx="1059.5" cy="149.57" rx="5.5" ry="5.18" style="fill:#636363;opacity:0.56"/><ellipse cx="1059.5" cy="223" rx="5.5" ry="5.18" style="fill:#636363;opacity:0.56"/><ellipse cx="1059.5" cy="287.03" rx="5.5" ry="5.18" style="fill:#636363;opacity:0.56"/><ellipse cx="1059.5" cy="351.99" rx="5.5" ry="5.18" style="fill:#636363;opacity:0.56"/><ellipse cx="1059.5" cy="423.54" rx="5.5" ry="5.18" style="fill:#636363;opacity:0.56"/><ellipse cx="1059.5" cy="500.75" rx="5.5" ry="5.18" style="fill:#636363;opacity:0.56"/><ellipse cx="1272.5" cy="151.45" rx="5.5" ry="5.18" style="fill:#636363;opacity:0.56"/><ellipse cx="1272.5" cy="224.89" rx="5.5" ry="5.18" style="fill:#636363;opacity:0.56"/><ellipse cx="1272.5" cy="288.91" rx="5.5" ry="5.18" style="fill:#636363;opacity:0.56"/><ellipse cx="1272.5" cy="353.87" rx="5.5" ry="5.18" style="fill:#636363;opacity:0.56"/><ellipse cx="1272.5" cy="425.43" rx="5.5" ry="5.18" style="fill:#636363;opacity:0.56"/><ellipse cx="1272.5" cy="501.69" rx="5.5" ry="5.18" style="fill:#636363;opacity:0.56"/><ellipse cx="1206.5" cy="82.72" rx="5.5" ry="5.18" style="fill:#636363;opacity:0.56"/><ellipse cx="1131.5" cy="501.69" rx="5.5" ry="5.18" style="fill:#636363;opacity:0.56"/><ellipse cx="1202.5" cy="501.69" rx="5.5" ry="5.18" style="fill:#636363;opacity:0.56"/><ellipse cx="1272.5" cy="82.72" rx="5.5" ry="5.18" style="fill:#636363;opacity:0.56"/><rect x="1328" y="38" width="322" height="515" style="fill:#8e8e8e;stroke:#3d3d3f;stroke-miterlimit:10;stroke-width:6px"/><rect x="1347" y="53.06" width="272" height="470.75" style="fill:#636363"/><rect x="1356" y="58.71" width="272" height="470.75" style="fill:#a5a5a5;opacity:0.78"/><ellipse cx="1382.5" cy="82.72" rx="5.5" ry="5.18" style="fill:#636363;opacity:0.56"/><ellipse cx="1457.5" cy="82.72" rx="5.5" ry="5.18" style="fill:#636363;opacity:0.56"/><ellipse cx="1381.5" cy="149.57" rx="5.5" ry="5.18" style="fill:#636363;opacity:0.56"/><ellipse cx="1381.5" cy="223" rx="5.5" ry="5.18" style="fill:#636363;opacity:0.56"/><ellipse cx="1381.5" cy="287.03" rx="5.5" ry="5.18" style="fill:#636363;opacity:0.56"/><ellipse cx="1381.5" cy="351.99" rx="5.5" ry="5.18" style="fill:#636363;opacity:0.56"/><ellipse cx="1381.5" cy="423.54" rx="5.5" ry="5.18" style="fill:#636363;opacity:0.56"/><ellipse cx="1381.5" cy="500.75" rx="5.5" ry="5.18" style="fill:#636363;opacity:0.56"/><ellipse cx="1594.5" cy="151.45" rx="5.5" ry="5.18" style="fill:#636363;opacity:0.56"/><ellipse cx="1594.5" cy="224.89" rx="5.5" ry="5.18" style="fill:#636363;opacity:0.56"/><ellipse cx="1594.5" cy="288.91" rx="5.5" ry="5.18" style="fill:#636363;opacity:0.56"/><ellipse cx="1594.5" cy="353.87" rx="5.5" ry="5.18" style="fill:#636363;opacity:0.56"/><ellipse cx="1594.5" cy="425.43" rx="5.5" ry="5.18" style="fill:#636363;opacity:0.56"/><ellipse cx="1594.5" cy="501.69" rx="5.5" ry="5.18" style="fill:#636363;opacity:0.56"/><ellipse cx="1528.5" cy="82.72" rx="5.5" ry="5.18" style="fill:#636363;opacity:0.56"/><ellipse cx="1453.5" cy="501.69" rx="5.5" ry="5.18" style="fill:#636363;opacity:0.56"/><ellipse cx="1524.5" cy="501.69" rx="5.5" ry="5.18" style="fill:#636363;opacity:0.56"/><ellipse cx="1594.5" cy="82.72" rx="5.5" ry="5.18" style="fill:#636363;opacity:0.56"/><rect x="1642" y="38" width="322" height="515" style="fill:#8e8e8e;stroke:#3d3d3f;stroke-miterlimit:10;stroke-width:6px"/><rect x="1661" y="53.06" width="272" height="470.75" style="fill:#636363"/><rect x="1670" y="58.71" width="272" height="470.75" style="fill:#a5a5a5;opacity:0.78"/><ellipse cx="1696.5" cy="82.72" rx="5.5" ry="5.18" style="fill:#636363;opacity:0.56"/><ellipse cx="1771.5" cy="82.72" rx="5.5" ry="5.18" style="fill:#636363;opacity:0.56"/><ellipse cx="1695.5" cy="149.57" rx="5.5" ry="5.18" style="fill:#636363;opacity:0.56"/><ellipse cx="1695.5" cy="223" rx="5.5" ry="5.18" style="fill:#636363;opacity:0.56"/><ellipse cx="1695.5" cy="287.03" rx="5.5" ry="5.18" style="fill:#636363;opacity:0.56"/><ellipse cx="1695.5" cy="351.99" rx="5.5" ry="5.18" style="fill:#636363;opacity:0.56"/><ellipse cx="1695.5" cy="423.54" rx="5.5" ry="5.18" style="fill:#636363;opacity:0.56"/><ellipse cx="1695.5" cy="500.75" rx="5.5" ry="5.18" style="fill:#636363;opacity:0.56"/><ellipse cx="1908.5" cy="151.45" rx="5.5" ry="5.18" style="fill:#636363;opacity:0.56"/><ellipse cx="1908.5" cy="224.89" rx="5.5" ry="5.18" style="fill:#636363;opacity:0.56"/><ellipse cx="1908.5" cy="288.91" rx="5.5" ry="5.18" style="fill:#636363;opacity:0.56"/><ellipse cx="1908.5" cy="353.87" rx="5.5" ry="5.18" style="fill:#636363;opacity:0.56"/><ellipse cx="1908.5" cy="425.43" rx="5.5" ry="5.18" style="fill:#636363;opacity:0.56"/><ellipse cx="1908.5" cy="501.69" rx="5.5" ry="5.18" style="fill:#636363;opacity:0.56"/><ellipse cx="1842.5" cy="82.72" rx="5.5" ry="5.18" style="fill:#636363;opacity:0.56"/><ellipse cx="1767.5" cy="501.69" rx="5.5" ry="5.18" style="fill:#636363;opacity:0.56"/><ellipse cx="1838.5" cy="501.69" rx="5.5" ry="5.18" style="fill:#636363;opacity:0.56"/><ellipse cx="1908.5" cy="82.72" rx="5.5" ry="5.18" style="fill:#636363;opacity:0.56"/><rect x="1964" y="38" width="322" height="515" style="fill:#8e8e8e;stroke:#3d3d3f;stroke-miterlimit:10;stroke-width:6px"/><rect x="1983" y="53.06" width="272" height="470.75" style="fill:#636363"/><rect x="1992" y="58.71" width="272" height="470.75" style="fill:#a5a5a5;opacity:0.78"/><ellipse cx="2018.5" cy="82.72" rx="5.5" ry="5.18" style="fill:#636363;opacity:0.56"/><ellipse cx="2093.5" cy="82.72" rx="5.5" ry="5.18" style="fill:#636363;opacity:0.56"/><ellipse cx="2017.5" cy="149.57" rx="5.5" ry="5.18" style="fill:#636363;opacity:0.56"/><ellipse cx="2017.5" cy="223" rx="5.5" ry="5.18" style="fill:#636363;opacity:0.56"/><ellipse cx="2017.5" cy="287.03" rx="5.5" ry="5.18" style="fill:#636363;opacity:0.56"/><ellipse cx="2017.5" cy="351.99" rx="5.5" ry="5.18" style="fill:#636363;opacity:0.56"/><ellipse cx="2017.5" cy="423.54" rx="5.5" ry="5.18" style="fill:#636363;opacity:0.56"/><ellipse cx="2017.5" cy="500.75" rx="5.5" ry="5.18" style="fill:#636363;opacity:0.56"/><ellipse cx="2230.5" cy="151.45" rx="5.5" ry="5.18" style="fill:#636363;opacity:0.56"/><ellipse cx="2230.5" cy="224.89" rx="5.5" ry="5.18" style="fill:#636363;opacity:0.56"/><ellipse cx="2230.5" cy="288.91" rx="5.5" ry="5.18" style="fill:#636363;opacity:0.56"/><ellipse cx="2230.5" cy="353.87" rx="5.5" ry="5.18" style="fill:#636363;opacity:0.56"/><ellipse cx="2230.5" cy="425.43" rx="5.5" ry="5.18" style="fill:#636363;opacity:0.56"/><ellipse cx="2230.5" cy="501.69" rx="5.5" ry="5.18" style="fill:#636363;opacity:0.56"/><ellipse cx="2164.5" cy="82.72" rx="5.5" ry="5.18" style="fill:#636363;opacity:0.56"/><ellipse cx="2089.5" cy="501.69" rx="5.5" ry="5.18" style="fill:#636363;opacity:0.56"/><ellipse cx="2160.5" cy="501.69" rx="5.5" ry="5.18" style="fill:#636363;opacity:0.56"/><ellipse cx="2230.5" cy="82.72" rx="5.5" ry="5.18" style="fill:#636363;opacity:0.56"/><path d="M1146.52,315.69v-7.6h-7.59V300.5h15.19v7.59h22.78V292.91h-22.78v-7.6h7.59v-7.59h7.59v-7.6h-22.78v-7.59h45.56v7.59h-7.59v7.6h-7.59v7.59h7.59v7.6h7.59v15.18h-7.59v7.6Z" style="fill:#505164;stroke:#000;stroke-miterlimit:10"/><path d="M1150,317.19v-7.6h-7.59V302h15.19v7.59h22.78V294.41h-22.78v-7.6h7.59v-7.59h7.59v-7.6H1150V264h45.56v7.59H1188v7.6h-7.59v7.59H1188v7.6h7.59v15.18H1188v7.6Z" style="fill:#e2744b"/><rect x="1150" y="314" width="38" height="3" style="fill:#db5f42"/><rect x="1150" y="264" width="46" height="3" style="fill:#ea9a81"/><path d="M1150,317.19v-7.6h-7.59V302h15.19v7.59h22.78V294.41h-22.78v-7.6h7.59v-7.59h7.59v-7.6H1150V264h45.56v7.59H1188v7.6h-7.59v7.59H1188v7.6h7.59v15.18H1188v7.6Z" style="fill:none;stroke:#000;stroke-miterlimit:10"/><path d="M1454.93,312.69V297.5h7.59v-7.59h7.6v-7.6h15.18v-7.59h7.6v-7.6h-22.78v7.6h-15.19v-7.6h7.59v-7.59h38v7.59h7.59v15.19h-7.59v7.6h-7.59v7.59h-15.19v7.59h30.37v7.6Z" style="fill:#505164;stroke:#000;stroke-miterlimit:10"/><path d="M1458.43,314.19V299H1466v-7.59h7.6v-7.6h15.18v-7.59h7.6v-7.6h-22.78v7.6h-15.19v-7.6H1466V261h38v7.59h7.59v15.19H1504v7.6h-7.59V299h-15.19v7.59h30.37v7.6Z" style="fill:#e2744b"/><rect x="1466" y="261" width="38" height="3" style="fill:#ea9a81"/><rect x="1458" y="311" width="54" height="3" style="fill:#db5f42"/><path d="M1458.43,314.19V299H1466v-7.59h7.6v-7.6h15.18v-7.59h7.6v-7.6h-22.78v7.6h-15.19v-7.6H1466V261h38v7.59h7.59v15.19H1504v7.6h-7.59V299h-15.19v7.59h30.37v7.6Z" style="fill:none;stroke:#000;stroke-miterlimit:10"/><path d="M1778.52,314.69v-7.6h15.19V276.72h-7.59v-7.6h7.59v-7.59h15.19v45.56h15.18v7.6Z" style="fill:#505164;stroke:#000;stroke-miterlimit:10"/><path d="M1781.52,316.69v-7.6h15.19V278.72h-7.59v-7.6h7.59v-7.59h15.19v45.56h15.18v7.6Z" style="fill:#e2744b"/><rect x="1797" y="264" width="15" height="3" style="fill:#ea9a81"/><rect x="1781" y="314" width="46" height="3" style="fill:#db5f42"/><path d="M1781.52,316.69v-7.6h15.19V278.72h-7.59v-7.6h7.59v-7.59h15.19v45.56h15.18v7.6Z" style="fill:none;stroke:#000;stroke-miterlimit:10"/><path d="M2057.93,273.83v-25.3h21.68v3.61h3.61v7.23h-3.61V263h3.61v7.23h-3.61v3.62Zm7.23-14.46H2076v-7.23h-10.84Zm0,10.84H2076V263h-10.84Z" style="fill:#505164;stroke:#000;stroke-miterlimit:10"/><path d="M2090.45,273.83v-3.62h7.23V252.14h-3.62v-3.61h10.85v21.68h7.22v3.62Z" style="fill:#505164;stroke:#000;stroke-miterlimit:10"/><path d="M2119.36,273.83v-3.62h-3.61V266.6h3.61V263h14.45v-3.61h-14.45v-3.61h18.07v3.61H2141v14.46Zm3.61-3.62h10.84V266.6H2123Z" style="fill:#505164;stroke:#000;stroke-miterlimit:10"/><path d="M2144.65,273.83v-3.62h18.07V266.6h-14.45V263h-3.62v-3.61h3.62v-3.61h18.07v3.61h-14.46V263h14.46v3.62H2170v3.61h-3.61v3.62Z" style="fill:#505164;stroke:#000;stroke-miterlimit:10"/><path d="M2184.4,273.83V259.37h-7.22v-3.61h7.22v-7.23h7.23v7.23h7.23v3.61h-7.23v14.46Z" style="fill:#505164;stroke:#000;stroke-miterlimit:10"/><path d="M2060.07,275V249.72h21.68v3.61h3.62v7.23h-3.62v3.61h3.62v7.23h-3.62V275Zm7.23-14.45h10.84v-7.23H2067.3Zm0,10.84h10.84v-7.23H2067.3Z" style="fill:#e2744b"/><path d="M2092.59,275V271.4h7.23V253.33h-3.61v-3.61h10.84V271.4h7.22V275Z" style="fill:#e2744b"/><path d="M2121.5,275V271.4h-3.61v-3.61h3.61v-3.62H2136v-3.61H2121.5V257h18.07v3.61h3.61V275Zm3.61-3.61H2136v-3.61h-10.85Z" style="fill:#e2744b"/><path d="M2146.8,275V271.4h18.06v-3.61h-14.45v-3.62h-3.61v-3.61h3.61V257h18.07v3.61H2154v3.61h14.46v3.62h3.61v3.61h-3.61V275Z" style="fill:#e2744b"/><path d="M2186.55,275V260.56h-7.23V257h7.23v-7.23h7.22V257H2201v3.61h-7.23V275Z" style="fill:#e2744b"/><path d="M2060.07,275V249.72h21.68v3.61h3.62v7.23h-3.62v3.61h3.62v7.23h-3.62V275Zm7.23-14.45h10.84v-7.23H2067.3Zm0,10.84h10.84v-7.23H2067.3Z" style="fill:none;stroke:#000;stroke-miterlimit:10;stroke-width:1.29999995231628px"/><path d="M2092.59,275V271.4h7.23V253.33h-3.61v-3.61h10.84V271.4h7.22V275Z" style="fill:none;stroke:#000;stroke-miterlimit:10;stroke-width:1.29999995231628px"/><path d="M2121.5,275V271.4h-3.61v-3.61h3.61v-3.62H2136v-3.61H2121.5V257h18.07v3.61h3.61V275Zm3.61-3.61H2136v-3.61h-10.85Z" style="fill:none;stroke:#000;stroke-miterlimit:10;stroke-width:1.29999995231628px"/><path d="M2146.8,275V271.4h18.06v-3.61h-14.45v-3.62h-3.61v-3.61h3.61V257h18.07v3.61H2154v3.61h14.46v3.62h3.61v3.61h-3.61V275Z" style="fill:none;stroke:#000;stroke-miterlimit:10;stroke-width:1.29999995231628px"/><path d="M2186.55,275V260.56h-7.23V257h7.23v-7.23h7.22V257H2201v3.61h-7.23V275Z" style="fill:none;stroke:#000;stroke-miterlimit:10;stroke-width:1.29999995231628px"/><path d="M2064.25,323.68v-5.94h-5.94V288.07h5.94v-5.93h29.67v5.93h5.94v29.67h-5.94v5.94Zm5.93-5.94H2088V288.07h-17.81Z" style="fill:#505164;stroke:#000;stroke-miterlimit:10"/><path d="M2123.59,323.68V299.94h-11.86V294h11.86v-5.93h5.94v-5.93h17.8v5.93h-11.87V294h11.87v5.94h-11.87v23.74Z" style="fill:#505164;stroke:#000;stroke-miterlimit:10"/><path d="M2171.07,323.68V299.94H2159.2V294h11.87v-5.93H2177v-5.93h17.81v5.93h-11.87V294h11.87v5.94h-11.87v23.74Z" style="fill:#505164;stroke:#000;stroke-miterlimit:10"/><path d="M2067.77,326v-5.93h-5.93V290.41h5.93v-5.93h29.67v5.93h5.94v29.68h-5.94V326Zm5.94-5.93h17.8V290.41h-17.8Z" style="fill:#e2744b"/><path d="M2127.12,326V302.28h-11.87v-5.93h11.87v-5.94h5.93v-5.93h17.8v5.93H2139v5.94h11.87v5.93H2139V326Z" style="fill:#e2744b"/><path d="M2174.59,326V302.28h-11.87v-5.93h11.87v-5.94h5.94v-5.93h17.8v5.93h-11.87v5.94h11.87v5.93h-11.87V326Z" style="fill:#e2744b"/><path d="M2067.77,326v-5.93h-5.93V290.41h5.93v-5.93h29.67v5.93h5.94v29.68h-5.94V326Zm5.94-5.93h17.8V290.41h-17.8Z" style="fill:none;stroke:#000;stroke-miterlimit:10;stroke-width:1.29999995231628px"/><path d="M2127.12,326V302.28h-11.87v-5.93h11.87v-5.94h5.93v-5.93h17.8v5.93H2139v5.94h11.87v5.93H2139V326Z" style="fill:none;stroke:#000;stroke-miterlimit:10;stroke-width:1.29999995231628px"/><path d="M2174.59,326V302.28h-11.87v-5.93h11.87v-5.94h5.94v-5.93h17.8v5.93h-11.87v5.94h11.87v5.93h-11.87V326Z" style="fill:none;stroke:#000;stroke-miterlimit:10;stroke-width:1.29999995231628px"/><ellipse cx="1166.55" cy="288.57" rx="65.55" ry="62.57" style="fill:url(#radial-gradient-4)"/><ellipse cx="1487.55" cy="290.57" rx="65.55" ry="62.57" style="fill:url(#radial-gradient-5)"/><ellipse cx="1803.55" cy="289.57" rx="65.55" ry="62.57" style="fill:url(#radial-gradient-6)"/></g></svg>