<svg height="126" viewBox="0 0 702 126" width="702" xmlns="http://www.w3.org/2000/svg"><path d="m562.54 102.85s59 4.8 139.68 23.15l-32.33-40.48 32.33-13.87s-62.91-23.35-139.68-27.05z" fill="#ea212d"/><path d="m613.28 88.92-50.75 13.93v-34.67l34.52 5.09z" fill="#9c0f17"/><path d="m144.62 102.85s-58.95 4.8-139.69 23.15l32.33-40.48-32.33-13.87s62.91-23.35 139.69-27.05z" fill="#ea212d"/><path d="m93.88 88.92 50.74 13.93v-34.67l-34.52 5.09z" fill="#9c0f17"/><path d="m613.28 88.92a1168.67 1168.67 0 0 0 -519.66 0v-57.69a1169 1169 0 0 1 519.66 0z" fill="#ea212d"/><g fill="#fff"><path d="m239.3 45.75a4.72 4.72 0 0 1 -.72 3.58 4.33 4.33 0 0 1 -6.31.72c-.9-.81-1.26-1.66-1.45-3.44l-1.62-15.91c-.22-2.16-.11-2.95.68-4a4.11 4.11 0 0 1 3-1.71 4.33 4.33 0 0 1 3.3 1c.94.88 1.3 1.73 1.51 3.81z"/><path d="m256.17 28a5.1 5.1 0 0 1 .48-3.42 4.19 4.19 0 0 1 6.68-.9 4.82 4.82 0 0 1 1.31 3.3l1.36 15.78c.18 2 .07 2.91-.58 3.94a4.17 4.17 0 0 1 -3.18 1.87 4.08 4.08 0 0 1 -3.51-1.44l-7.48-8 .48 5.41a4.68 4.68 0 0 1 -.63 3.46 4.3 4.3 0 0 1 -6.69.47c-.78-.9-1-1.65-1.21-3.55l-1.44-16.28a4.27 4.27 0 0 1 4-4.95 3.87 3.87 0 0 1 3.32 1.42l7.49 7.7z"/><path d="m272.24 29.65a4.19 4.19 0 0 1 -3.29-.9 4 4 0 0 1 -1.39-2.75 4.07 4.07 0 0 1 1.95-3.71c.86-.45 1.21-.52 4.57-.75l8.58-.6a17.08 17.08 0 0 1 2.9-.13 3.87 3.87 0 0 1 3.75 3.62 4.25 4.25 0 0 1 -1.18 3.15 4.73 4.73 0 0 1 -3.22 1.16l-1.89.13.9 12.83a5.65 5.65 0 0 1 -.5 3.33 4.06 4.06 0 0 1 -3.42 2.2 4.3 4.3 0 0 1 -3.64-1.53 5.31 5.31 0 0 1 -1-3.31l-.91-12.9z"/><path d="m312.07 38.38a5.27 5.27 0 0 1 1 2.71 4.15 4.15 0 0 1 -4 4.4 4 4 0 0 1 -3.63-1.79l-3.83-5.65.19 3.52a4.17 4.17 0 0 1 -4 4.52 4.35 4.35 0 0 1 -3.41-1.37 5.65 5.65 0 0 1 -1.2-3.59l-.84-15.89c-.1-1.86.23-2.93 1.19-3.87s1.76-1.22 3.81-1.33l3.55-.19a15.7 15.7 0 0 1 4.1.15 9.26 9.26 0 0 1 7.25 8.54 9.14 9.14 0 0 1 -2.4 6.72zm-10.93-7.83h.35.58c1.28 0 1.91-.53 1.86-1.46s-.77-1.39-2-1.29a8.21 8.21 0 0 1 -.9 0z"/><path d="m328.6 18a13.56 13.56 0 1 1 -13.15 13.84 13.57 13.57 0 0 1 13.15-13.84zm.65 18.66a5.12 5.12 0 0 0 4.9-5.27 5.07 5.07 0 0 0 -10.14.29 5.13 5.13 0 0 0 5.24 5.01z"/><path d="m356.08 18.05a13.29 13.29 0 0 1 9.41 3.2 12.85 12.85 0 0 1 4.35 9.56 12.86 12.86 0 0 1 -10.1 12.72 25.28 25.28 0 0 1 -4.37.36h-3.6c-2 0-2.83-.12-3.61-.66a3.75 3.75 0 0 1 -1.81-2.3 10.84 10.84 0 0 1 -.18-2.79l-.17-14.14c0-2.17 0-2.41.17-3 .6-1.86 2.17-2.85 4.65-2.87zm-1.41 17.95c2.94-.06 3.64-.19 4.64-.89a5.19 5.19 0 0 0 2.05-4.13 5 5 0 0 0 -2.79-4.43 7.33 7.33 0 0 0 -3.3-.5h-.7z"/><path d="m381.59 33.06c0 1.85.81 3 2.29 3s2.33-1.06 2.35-2.84l.13-10.3c0-1.9.18-2.48 1-3.4a4.27 4.27 0 0 1 3.31-1.59 4.53 4.53 0 0 1 3.33 1.6c.81 1 1 1.76 1 4.08l-.11 9.18c0 3.49-.93 6-2.81 8.06a10.77 10.77 0 0 1 -17.08-.85c-1.57-2.19-2.05-4-2-7.43l.12-9.1c0-2.44.19-3.05.94-4a4.26 4.26 0 0 1 6.51-.23c.84.9 1.13 1.87 1.11 3.69z"/><path d="m420.3 42.14a13.91 13.91 0 0 1 -9.15 3.08 13.56 13.56 0 1 1 1-27.09 13.39 13.39 0 0 1 8.52 3.45c2 1.74 3 3.52 2.95 5.22a4.27 4.27 0 0 1 -4.41 4.1 3.84 3.84 0 0 1 -2.63-1.14l-1.19-1.4a5.06 5.06 0 1 0 -4 8.38 5.27 5.27 0 0 0 3.86-1.56l.92-.9a4.28 4.28 0 0 1 3-1.13 4.37 4.37 0 0 1 4.11 4.33c-.08 1.52-1.11 3.14-2.98 4.66z"/><path d="m429 27.44a4.18 4.18 0 0 1 -3.14-1.31 4 4 0 0 1 1.39-6.32c.91-.34 1.26-.35 4.63-.15l8.58.51a18.53 18.53 0 0 1 2.89.25 3.87 3.87 0 0 1 3.25 4.08 4.26 4.26 0 0 1 -1.57 3 4.73 4.73 0 0 1 -3.34.73l-1.9-.11-.79 12.81a5.72 5.72 0 0 1 -.93 3.24 4.07 4.07 0 0 1 -3.64 1.72 4.31 4.31 0 0 1 -3.41-2 5.32 5.32 0 0 1 -.53-3.41l.77-12.91z"/><path d="m456.68 42.54a4.73 4.73 0 0 1 -1.35 3.39 4.32 4.32 0 0 1 -6.34-.42c-.74-.95-.94-1.86-.81-3.64l1.25-15.95c.17-2.16.43-2.92 1.39-3.81a4.09 4.09 0 0 1 3.24-1.11 4.32 4.32 0 0 1 3.06 1.6c.77 1 1 1.94.81 4z"/><path d="m475.6 22.46a13.56 13.56 0 1 1 -14.88 12 13.56 13.56 0 0 1 14.88-12zm-1.85 18.59a5.13 5.13 0 0 0 5.57-4.58 5.07 5.07 0 0 0 -10.09-1.06 5.13 5.13 0 0 0 4.52 5.64z"/><path d="m506.61 31.86a5.13 5.13 0 0 1 1.22-3.23 4.19 4.19 0 0 1 6.72.59 4.83 4.83 0 0 1 .55 3.51l-2.1 15.67c-.28 2-.58 2.85-1.44 3.71a4.2 4.2 0 0 1 -3.56 1.13 4.07 4.07 0 0 1 -3.1-2.18l-5.5-9.46-.72 5.4a4.68 4.68 0 0 1 -1.42 3.24 4.28 4.28 0 0 1 -3.47 1.1 4.38 4.38 0 0 1 -3.16-2.11c-.56-1.05-.65-1.84-.39-3.72l2.18-16.2a4.26 4.26 0 0 1 5-3.94 3.88 3.88 0 0 1 2.92 2.11l5.6 9.16z"/></g></svg>