<svg height="363" viewBox="0 0 399 363" width="399" xmlns="http://www.w3.org/2000/svg"><g fill="#427212"><path d="m121.91 47.84-29.33 16.39a5.1 5.1 0 0 0 -1.5 7.21l85.21 124.28c3.1 4.52 9.43.34 7.37-4.87l-55.88-140.66a4.13 4.13 0 0 0 -5.87-2.35z"/><path d="m67.83 88-20.09 28.92a5.11 5.11 0 0 0 1.45 7.23l125 71c4.55 2.58 8.64-4.25 4.76-7.94l-104.95-99.92a4 4 0 0 0 -6.17.71z"/><path d="m227.4 39.94 28.79 13.58a4.14 4.14 0 0 1 1.81 5.66l-70.28 132.69c-2.22 4.18-8.23 1.46-6.92-3.14l41.45-146.27a3.72 3.72 0 0 1 5.15-2.52z"/><path d="m319.84 104.23 15.75 29.25a4.14 4.14 0 0 1 -1.69 5.68l-150.29 58.67c-4.09 2-7.44-4-3.86-6.92l134.55-87.91a3.65 3.65 0 0 1 5.54 1.23z"/><path d="m349.18 182.26-7.43-24.67a1 1 0 0 0 -1.14-.62l-159.28 38.91a.89.89 0 0 0 .32 1.76l166.71-14.24a.91.91 0 0 0 .82-1.14z"/><path d="m165 27.68-23.15 7.32a1 1 0 0 0 -.6 1.2l40.25 158.54a1.51 1.51 0 0 0 3-.4l-18.5-165.75c0-.59-.5-1.07-1-.91z"/><path d="m37.58 132.52-6.33 25a1 1 0 0 0 .64 1.18l146.73 38.7c1.77.71 2.91-2 1.26-3l-141-62.39a.82.82 0 0 0 -1.3.51z"/><path d="m31.62 188.7 2 25.85a1 1 0 0 0 1 .88l150.18-17.56c1.88 0 2.09-2.93.24-3.24l-152.38-6.83a.87.87 0 0 0 -1.04.9z"/><path d="m37.23 226.43 7.57 24.62a1 1 0 0 0 1.14.62l142.23-54.78c1.83-.46 1.4-3.38-.48-3.21l-149.64 31.61a.9.9 0 0 0 -.82 1.14z"/><path d="m206 27.45-24.12.55a1 1 0 0 0 -.88 1l.29 164.35a1.51 1.51 0 1 0 3 .46l22.48-165.19a.9.9 0 0 0 -.77-1.17z"/><path d="m281.28 63.57 21.92 24.23a4.2 4.2 0 0 1 -.34 6l-111.52 94.47c-3.52 3-8.13-2-5.31-5.7l89.6-118.75a3.62 3.62 0 0 1 5.65-.25z"/><rect height="159.3" rx="1" width="10.34" x="177.74" y="186.53"/></g></svg>