<svg height="741" viewBox="0 0 757 741" width="757" xmlns="http://www.w3.org/2000/svg"><path d="m118.48 276.22h526.84v274.78h-526.84z" fill="#b37e4e"/><path d="m186.66 405.73h78.1v130.26h-78.1z" fill="#6e4723"/><path d="m645.33 276.22h-526.85v90.15l526.85 32.93z" fill="#966a42"/><path d="m709 366.37h-654.19l67.03-276.98h520.13z" fill="#db9b5f"/><g fill="#cc9059"><path d="m675.31 227.16c-205.86 26.7-411.85 57.14-613.48 110.2l-7 29h223.26q208.64-25.25 416.35-60.17z"/><path d="m709 366.37-9.53-39.37c-34.47 13.1-68.73 26.24-103.06 39.37z"/><path d="m673.68 220.41-19.35-79.94c-189.73 23.86-378.76 55.61-567.14 92.12l-6.72 27.77z"/><path d="m103.21 166.36 549.27-33.53-10.48-43.44h-377.36c-50.54 9.87-100.87 20.94-150.93 33.61z"/></g><path d="m374.77 0-87.26 314.27h188.79l-87.26-314.27z" fill="#a17246"/><path d="m476.3 314.27-87.3-314.27h-14.23l-87.26 314.27zm-94.39-269.38 68.59 247.05h-137.19z" fill="#825c38"/><path d="m298.14 405.73h83.5v90.35h-83.5z" fill="#b6eeff"/><path d="m404.54 405.73h83.5v90.35h-83.5z" fill="#b6eeff"/><path d="m512.8 405.73h83.5v90.35h-83.5z" fill="#b6eeff"/><rect fill="#b6eeff" height="74.43" rx="30.99" width="61.98" x="350.91" y="201.79"/><g fill="none" stroke="#91653d" stroke-miterlimit="10" stroke-width="10"><path d="m46.25 479.17h678.39v244.83h-678.39z"/><path d="m173.1 479.17h424.7v244.83h-424.7z"/><path d="m311.9 479.17h147.1v244.83h-147.1z"/><path d="m52.05 551.42h672.59"/><path d="m92.43 479.45v71.97"/><path d="m134.29 479.45v71.97"/><path d="m176.15 479.45v71.97"/><path d="m218.01 479.45v71.97"/><path d="m259.87 479.45v71.97"/><path d="m301.73 479.45v71.97"/><path d="m343.59 479.45v71.97"/><path d="m385.45 479.45v71.97"/><path d="m427.31 479.45v71.97"/><path d="m469.17 479.45v71.97"/><path d="m511.02 479.45v71.97"/><path d="m552.88 479.45v71.97"/><path d="m594.74 479.45v71.97"/><path d="m636.6 479.45v71.97"/><path d="m678.46 479.45v71.97"/></g><path d="m1387.19 702.35h-620.19c-8.18 0-14.81 5-14.81 11.23v28.65h649.81v-28.65c0-6.2-6.63-11.23-14.81-11.23z" fill="#625861"/></svg>