<svg xmlns="http://www.w3.org/2000/svg" xmlns:xlink="http://www.w3.org/1999/xlink" width="2000" height="2000" viewBox="0 0 6569 7413"><defs><radialGradient id="radial-gradient" cx="-22.45" cy="6257.57" r="64.08" gradientUnits="userSpaceOnUse"><stop offset="0" stop-color="#cc4c3d"/><stop offset="0.21" stop-color="#ca4a3b" stop-opacity="0.74"/><stop offset="0.48" stop-color="#c74738" stop-opacity="0.43"/><stop offset="0.72" stop-color="#c64536" stop-opacity="0.2"/><stop offset="0.9" stop-color="#c44334" stop-opacity="0.05"/><stop offset="1" stop-color="#c44334" stop-opacity="0"/></radialGradient><radialGradient id="radial-gradient-2" cx="301.55" cy="6257.57" r="64.08" xlink:href="#radial-gradient"/><radialGradient id="radial-gradient-3" cx="625.55" cy="6257.57" r="64.08" xlink:href="#radial-gradient"/><radialGradient id="radial-gradient-4" cx="944.55" cy="6257.57" r="64.08" xlink:href="#radial-gradient"/><radialGradient id="radial-gradient-5" cx="1265.55" cy="6259.57" r="64.08" xlink:href="#radial-gradient"/><radialGradient id="radial-gradient-6" cx="1581.55" cy="6258.57" r="64.08" xlink:href="#radial-gradient"/><clipPath id="clip-path"><path d="M5538,3386h.86a136.93,136.93,0,0,0,20-1.58h0l.57-.09h0c1.85-.28,3.7-.61,5.54-1l0,0h0c7.47-3.66,14.7-7.75,21.61-11.85h0c-6.91,4.1-14.14,8.19-21.61,11.85l0,0h0l.14,0q1.89-.37,3.78-.81l.42-.1q1.48-.34,3-.72h0l.68-.18h0l1-.24h0l.08,0a139,139,0,0,1-36,4.74m-.07,0h0m.34,0h0m-4.36-.06h0m-.11,0h0m-.12,0h0m40.94-4.85c1.23-.34,2.46-.7,3.69-1.07h0l1.12-.35h0c1.37-.43,2.73-.86,4.08-1.33l.07,0,.51-.18h0q3.44-1.22,6.8-2.6h0l.74-.31h0l.79-.33h0l.81-.34.06,0c1.17-.51,2.32-1,3.47-1.58h0l.07,0h0a140.22,140.22,0,0,1-22.23,8.16" style="fill:none"/></clipPath><clipPath id="clip-path-2"><rect x="5533.62" y="3371.46" width="63.25" height="14.51" style="fill:none"/></clipPath><clipPath id="clip-path-3"><path d="M3650.7,4008.66c1.25-.23,2.49-.48,3.73-.74l.29-.06q2.66-.59,5.3-1.27l.28-.08q2.65-.71,5.26-1.52l.23-.07h0q2.64-.84,5.25-1.79h0l.15-.06c1.76-.64,3.5-1.33,5.23-2.05l.06,0h0q3.49-1.47,6.89-3.15h0a123.67,123.67,0,0,1-32.7,10.81" style="fill:none"/></clipPath><clipPath id="clip-path-4"><rect x="3650.7" y="3997.84" width="32.71" height="10.82" style="fill:none"/></clipPath><clipPath id="clip-path-5"><path d="M3647.23,4009.24l1.59-.25.13,0-1.72.27" style="fill:none"/></clipPath><clipPath id="clip-path-6"><rect x="3647.23" y="4008.97" width="1.72" height="0.27" style="fill:none"/></clipPath></defs><title>World_Space</title><g id="Layer_6" data-name="Layer 6"><path d="M1541.09,6124.41l61.63,33.35a63.34,63.34,0,0,0,26.93-4.48,87.21,87.21,0,0,1,9.77-3.35l33.57-9a89.46,89.46,0,0,0,47.76-31.41h0c20.34-26.32,53.87-12.94,87.94-6.89l68.88,12.24c27.85,4.94,56.47-2.74,77.27-20.75l5.23-4.52c23.2-20.09,56-27.19,86.28-18.69l82.46,23.12c36.48,10.23,75.74-2.23,98.06-31.12l55-71.23c.43-.56.85-1.12,1.26-1.69,14.07-19.71,85.67-7.4,108.84-36.73,11.82-15,155.55-53.07,153.59-99.44l18.15-10.47c67.58,23.5,42.75-64,66.94-100.28,43.85-65.73,4.38-184.29,3.06-194.1-11.1-82.65-322.06-189.94-323.77-190.11-19.36-2-361.5,103.38-382.25,102.51l-786,395.34c-32.77-1.37-60.38,22.54-61.68,53.4l-1.93,45.93c-1.3,30.87,24.21,57,57,58.39l91.6,17a18.6,18.6,0,0,0,7.86-.21c11.33-2.77,34.24-14.65,48.79-14,67.22,2.83,69.9,8.59,88.34,66.68,7.16,22.54,50.28,18.15,65.76,25.67,4.92,2.38,20.41,10.65,25.53,12.62h0a54.72,54.72,0,0,0,39.45-.11h0A46.18,46.18,0,0,1,1541.09,6124.41Z" style="fill:#3d3d3f"/></g></svg>