<svg height="388" viewBox="0 0 454 388" width="454" xmlns="http://www.w3.org/2000/svg"><path d="m134.53 367.42-22.99-329.31-44.33 12.56 22.29 316.75z" fill="#724933"/><path d="m381.53 367.42-26.85-358.42-44.33 11.29 26.15 347.13z" fill="#724933"/><path d="m139.08 370.15-23-329.31-44.32 12.56 22.29 316.75z" fill="#825c38"/><path d="m386.08 370.15-26.86-358.42-44.32 11.29 26.15 347.13z" fill="#825c38"/><path d="m16.58 99-5.58 4.42 4.19 6.58-2.82 1.87-6.32 11.8 16.56 105 7.22.12-6.27 5.94s-.34 5.25 8 5.17l121.17-20.84 36.41-11.21 29.56-.32 210-36.72s11.8-2.75 8.22-14.58l-6.42-5.44 2.9-6.05-10.77-68.65-14.11-28.66 7.84-11.06s-1-7.6-9.49-5.6z" fill="#724933"/><path d="m21.93 101.28-5.54 4.43 4.15 6.54-2.82 1.88-6.31 11.87 16.59 105 7.23.12-6.31 5.88s-.34 5.25 8 5.17l121.18-20.84 36.4-11.21 29.56-.33 210-36.71s11.79-2.75 8.21-14.58l-6.42-5.45 2.9-6-10.75-68.67-14.1-28.66 7.84-11.06s-1.05-7.6-9.5-5.6z" fill="#966a42"/><g fill="#724933"><path d="m57.52 177.42c1 5.87-1.8 10.37-6.9 11.2a8.6 8.6 0 0 1 -7.74-2.7c-1.65-1.87-2-2.69-2.79-7.87l-4.94-30.14c-.6-3.71-.34-5.5 1.13-7.64s3.37-3.17 6.54-3.69l7.11-1.16c8.27-1.36 12-1 16.41 1.36a18.62 18.62 0 0 1 4.59 29.48c-3.05 3.19-6.35 4.84-11.37 5.67l-2.86.46zm-3.4-20.79c4.13-.44 5.55-1.46 5.17-3.78-.28-1.7-2-2.45-4.54-2l-1.54.26z"/><path d="m123.09 162.56a10.6 10.6 0 0 1 2.52 5.22 8.42 8.42 0 0 1 -7.13 9.74 8 8 0 0 1 -7.68-2.79l-8.94-10.52 1.15 7a8.44 8.44 0 0 1 -6.94 9.95 8.8 8.8 0 0 1 -7.16-2c-1.68-1.55-2.66-3.69-3.19-6.93l-5.2-31.76c-.61-3.71-.18-5.93 1.54-8s3.26-2.84 7.36-3.51l7.11-1.16a31.07 31.07 0 0 1 8.39-.58 18.71 18.71 0 0 1 16.44 15.56c.81 4.94-.12 9-3.34 14zm-23.69-13.34.7-.12 1.16-.19c2.56-.34 3.72-1.48 3.42-3.33s-1.86-2.64-4.4-2.14c-.39.06-1 .16-1.79.21z"/><path d="m150.89 117.62a27.41 27.41 0 1 1 -22.75 31.18 27.39 27.39 0 0 1 22.75-31.18zm6.17 37.24a10.37 10.37 0 0 0 8.45-11.86 10.26 10.26 0 0 0 -20.25 3.24 10.37 10.37 0 0 0 11.8 8.62z"/><path d="m207.6 120.87c-.78-4.79-.73-5.91.35-8.07a8.69 8.69 0 0 1 14.1-2.07c1.46 1.67 1.86 2.63 2.63 7.35l2.92 17.85c1.28 7.8 1 11.1-1 15.56a20.58 20.58 0 0 1 -31.44 7.69c-4.27-3.35-6.72-7.63-7.72-13.74-.76-4.63-.47-7.22 1.05-9.61a7.56 7.56 0 0 1 5.5-3.68c5.26-.86 9.43 2.34 10.18 7.86l.47 2.86c.3 2.33 1.85 3.58 3.78 3.26a3.23 3.23 0 0 0 2.69-2.5c.13-.65 0-1.2-.39-3.82z"/><path d="m260.94 137.46c3.71-.61 5.41-.41 7.43.76a8 8 0 0 1 3.76 5.58 8.36 8.36 0 0 1 -1.77 6.63c-1.47 1.67-2.87 2.3-6.74 2.93l-13.21 2.16c-3.94.65-5 .67-6.61.37a7.93 7.93 0 0 1 -5.88-5.38c-.41-1-.56-1.5-1.14-5l-4.58-28c-.71-4.33-.72-4.88-.29-6.62a7.77 7.77 0 0 1 3.4-4.92c1.81-1.09 2.18-1.23 7.2-2l10.2-1.67c4.87-.79 5.35-.79 6.56-.67a7.67 7.67 0 0 1 7.08 6.45 8.19 8.19 0 0 1 -1.75 6.72c-1.33 1.57-3 2.4-6.19 2.92l-8.5 1.39.58 3.55 6.72-1.1c4.18-.68 7.29 1.35 7.88 5a6.42 6.42 0 0 1 -1.44 5.24c-1.15 1.22-2.34 1.73-5 2.17l-6.11 1 .64 3.86z"/><path d="m321.38 138.27a28.06 28.06 0 0 1 -16.89 9.73 27.41 27.41 0 1 1 9.51-50.65c4.72 2.64 7.37 5.78 7.93 9.18a8.64 8.64 0 0 1 -7.11 9.89 7.86 7.86 0 0 1 -5.67-1.21l-2.92-2.3a10.23 10.23 0 1 0 -4.64 18.21 10.53 10.53 0 0 0 7-4.64l1.47-2.14a8.66 8.66 0 0 1 5.47-3.44 8.82 8.82 0 0 1 9.87 7c.5 3.1-.9 6.61-4.02 10.37z"/><path d="m332.05 105.5c-2.94.48-5 .1-6.78-1.19a8 8 0 0 1 -.08-13.08c1.65-1.06 2.33-1.25 9.06-2.35l17.15-2.81c4.79-.79 4.79-.79 5.82-.8a7.82 7.82 0 0 1 8.22 6.59 8.6 8.6 0 0 1 -1.78 6.56c-1.11 1.46-3.17 2.43-6.27 2.93l-3.78.62 4.2 25.66c.5 3.09.39 4.85-.4 6.81a8.2 8.2 0 0 1 -6.4 5 8.66 8.66 0 0 1 -7.61-2.4c-1.45-1.59-2-3-2.57-6.48l-4.22-25.81z"/><path d="m372.52 123.48a7.77 7.77 0 0 1 6.47-9 9.16 9.16 0 0 1 6.43 1.49c4.18 2.25 4.69 2.48 5.93 2.28a2.11 2.11 0 0 0 1.79-2.59 2.43 2.43 0 0 0 -1.66-2 14.14 14.14 0 0 0 -3.64-.91c-1.47-.24-2.94-.48-4.42-.79-7.92-1.4-12.43-5.66-13.61-12.85-1.64-10 5-18.19 16.17-20 9.27-1.52 17.34 2.24 18.38 8.58.67 4.09-1.63 7.48-5.49 8.12-2.32.37-4.3-.09-7.52-1.79-2-1.18-2.93-1.43-3.86-1.27a2.07 2.07 0 0 0 -1.68 2.33c.26 1.55 1.45 2.07 5.69 2.72a33.57 33.57 0 0 1 11.86 3.62c3.59 2.11 6.36 6.41 7.16 11.28a18 18 0 0 1 -2.86 13.09c-2.91 4-7.27 6.5-13.6 7.54-10.98 1.83-20.33-2.51-21.54-9.85z"/></g><g fill="#f9eea6" opacity=".95"><path d="m64.62 180.64c1 5.87-1.79 10.37-6.89 11.21a8.63 8.63 0 0 1 -7.74-2.7c-1.66-1.88-2-2.7-2.8-7.88l-4.93-30.14c-.61-3.71-.35-5.5 1.13-7.64s3.37-3.17 6.53-3.69l7.08-1.16c8.27-1.36 12-1 16.41 1.36a18.62 18.62 0 0 1 4.59 29.48c-3 3.2-6.35 4.85-11.37 5.67l-2.86.47zm-3.4-20.79c4.13-.44 5.55-1.46 5.17-3.78-.28-1.7-2-2.45-4.54-2l-1.54.26z"/><path d="m130.19 165.78a10.6 10.6 0 0 1 2.52 5.22 8.4 8.4 0 0 1 -7.13 9.74 8 8 0 0 1 -7.68-2.74l-8.9-10.57 1.15 7a8.43 8.43 0 0 1 -6.94 9.95 8.77 8.77 0 0 1 -7.15-2c-1.69-1.55-2.67-3.69-3.2-6.93l-5.2-31.76c-.61-3.71-.18-5.92 1.54-8s3.27-2.84 7.36-3.51l7.11-1.16a31.54 31.54 0 0 1 8.4-.58 18.71 18.71 0 0 1 16.39 15.56c.81 4.94-.12 9-3.34 14zm-23.68-13.34.69-.11 1.16-.19c2.56-.34 3.73-1.49 3.42-3.34s-1.86-2.63-4.39-2.14a15.62 15.62 0 0 1 -1.8.22z"/><path d="m158 120.84a27.41 27.41 0 1 1 -22.76 31.16 27.42 27.42 0 0 1 22.76-31.16zm6.17 37.24a10.37 10.37 0 0 0 8.46-11.86 10.26 10.26 0 0 0 -20.26 3.24 10.37 10.37 0 0 0 11.79 8.62z"/><path d="m214.7 124.1c-.78-4.8-.73-5.91.35-8.08a8.75 8.75 0 0 1 6.37-4.69 8.65 8.65 0 0 1 7.73 2.62c1.46 1.67 1.86 2.64 2.63 7.35l2.92 17.85c1.28 7.81 1 11.1-1 15.56a20.57 20.57 0 0 1 -31.43 7.69c-4.28-3.35-6.73-7.63-7.72-13.74-.76-4.63-.47-7.22 1-9.61a7.58 7.58 0 0 1 5.51-3.68c5.25-.86 9.43 2.35 10.17 7.86l.47 2.86c.3 2.33 1.85 3.58 3.79 3.27a3.24 3.24 0 0 0 2.68-2.51c.13-.65 0-1.19-.39-3.82z"/><path d="m268 140.68c3.71-.61 5.41-.41 7.43.77a8 8 0 0 1 3.77 5.57 8.43 8.43 0 0 1 -1.77 6.64c-1.47 1.66-2.88 2.29-6.74 2.92l-13.22 2.17c-3.94.64-5 .66-6.6.36a7.9 7.9 0 0 1 -5.88-5.38c-.41-1-.57-1.5-1.15-5l-4.58-28c-.7-4.32-.72-4.88-.29-6.61a7.72 7.72 0 0 1 3.4-4.92c1.81-1.09 2.18-1.23 7.21-2.06l10.2-1.67c4.86-.79 5.34-.79 6.55-.67a7.67 7.67 0 0 1 7.09 6.46 8.18 8.18 0 0 1 -1.76 6.71c-1.33 1.57-3 2.4-6.19 2.92l-8.5 1.39.58 3.55 6.73-1.1c4.17-.68 7.28 1.35 7.88 5a6.46 6.46 0 0 1 -1.45 5.24c-1.15 1.22-2.33 1.73-5 2.17l-6.1 1 .63 3.87z"/><path d="m328.49 141.5a28.1 28.1 0 0 1 -16.9 9.74 27.4 27.4 0 1 1 9.48-50.67c4.72 2.64 7.38 5.78 7.93 9.18a8.63 8.63 0 0 1 -7.11 9.89 7.81 7.81 0 0 1 -5.67-1.21l-2.92-2.3a10.23 10.23 0 1 0 -4.63 18.21 10.55 10.55 0 0 0 7-4.63l1.48-2.15a8.56 8.56 0 0 1 5.47-3.43 8.8 8.8 0 0 1 9.86 7c.52 3.04-.88 6.6-3.99 10.37z"/><path d="m339.15 108.73c-2.94.48-5 .1-6.78-1.2a8 8 0 0 1 -.08-13.08c1.65-1.06 2.34-1.25 9.06-2.35l17.15-2.81c4.8-.78 4.8-.78 5.83-.79a7.82 7.82 0 0 1 8.22 6.59 8.66 8.66 0 0 1 -1.79 6.56c-1.11 1.45-3.17 2.42-6.26 2.93l-3.79.62 4.2 25.65c.51 3.09.4 4.86-.39 6.81a8.23 8.23 0 0 1 -6.4 5 8.71 8.71 0 0 1 -7.62-2.41c-1.45-1.59-2-3-2.56-6.48l-4.23-25.77z"/><path d="m379.63 126.7a7.76 7.76 0 0 1 6.46-9 9.14 9.14 0 0 1 6.43 1.49c4.18 2.25 4.69 2.49 5.93 2.28a2.12 2.12 0 0 0 1.8-2.59 2.44 2.44 0 0 0 -1.67-1.95 14.5 14.5 0 0 0 -3.64-.91c-1.47-.24-2.93-.47-4.41-.79-7.93-1.4-12.44-5.66-13.61-12.85-1.65-10 4.95-18.18 16.16-20 9.27-1.52 17.35 2.24 18.38 8.58.67 4.09-1.63 7.48-5.49 8.12-2.32.38-4.3-.09-7.51-1.79-2-1.18-2.93-1.42-3.86-1.27a2.07 2.07 0 0 0 -1.68 2.34c.25 1.54 1.45 2.06 5.68 2.72a33.37 33.37 0 0 1 11.86 3.61c3.6 2.11 6.37 6.42 7.16 11.29a17.93 17.93 0 0 1 -2.85 13.02c-2.91 4.05-7.27 6.5-13.61 7.54-10.97 1.84-20.33-2.54-21.53-9.84z"/></g></svg>