<svg height="182" viewBox="0 0 1515 182" width="1515" xmlns="http://www.w3.org/2000/svg"><g fill="#a09b38"><path d="m13.63 131.31v-105.91h105.91v15.13h-75.65v30.26h60.52v15.13h-60.52v30.26h75.65v15.13z"/><path d="m134.66 131.31v-105.91h30.26v15.13h15.13v15.13h15.13v15.13h15.13v-45.39h30.26v105.91h-30.26v-30.26h-15.13v-15.13h-15.13v-15.13h-15.13v60.52z"/><path d="m301.09 131.31v-90.78h-30.26v-15.13h90.77v15.13h-30.26v90.78z"/><path d="m376.73 131.31v-105.91h90.78v15.13h15.13v45.39h-30.26v15.13h15.13v15.13h15.13v15.13h-45.39v-15.13h-15.13v-15.13h-15.12v30.26zm30.27-45.39h30.26v-15.13h15.13v-30.26h-45.39z"/><path d="m497.76 131.31v-105.91h105.91v15.13h-75.67v30.26h60.52v15.13h-60.52v30.26h75.65v15.13z"/><path d="m618.8 131.31v-105.91h90.77v15.13h15.13v45.39h-15.13v15.13h-60.51v30.26zm30.26-45.39h45.38v-45.39h-45.38z"/><path d="m739.83 131.31v-105.91h90.78v15.13h15.13v45.39h-30.26v15.13h15.13v15.13h15.13v15.13h-45.39v-15.13h-15.13v-15.13h-15.13v30.26zm30.26-45.39h30.26v-15.13h15.13v-30.26h-45.39z"/><path d="m860.87 131.31v-105.91h105.9v15.13h-75.65v30.26h60.52v15.13h-60.52v30.26h75.65v15.13z"/><path d="m981.9 131.31v-105.91h30.26v15.13h15.13v15.13h15.13v15.13h15.12v-45.39h30.26v105.91h-30.26v-30.26h-15.12v-15.13h-15.13v-15.13h-15.13v60.52z"/><path d="m1102.93 131.31v-105.91h105.91v15.13h-75.65v30.26h60.52v15.13h-60.52v30.26h75.65v15.13z"/><path d="m1239.09 131.31v-15.13h-15.09v-90.78h30.25v90.78h45.39v-90.78h30.26v90.78h-15.13v15.13z"/><path d="m1345 131.31v-105.91h90.77v15.13h15.13v45.39h-30.26v15.13h15.13v15.13h15.13v15.13h-45.38v-15.13h-15.13v-15.13h-15.13v30.26zm30.26-45.39h30.26v-15.13h15.12v-30.26h-45.38z"/></g><path d="m28.63 139.31v-105.91h105.91v15.13h-75.65v30.26h60.52v15.13h-60.52v30.26h75.65v15.13z" fill="#d3cf3d"/><path d="m149.66 139.31v-105.91h30.26v15.13h15.13v15.13h15.13v15.13h15.13v-45.39h30.26v105.91h-30.26v-30.26h-15.13v-15.13h-15.13v-15.13h-15.13v60.52z" fill="#d3cf3d"/><path d="m316.09 139.31v-90.78h-30.26v-15.13h90.77v15.13h-30.26v90.78z" fill="#d3cf3d"/><path d="m391.73 139.31v-105.91h90.78v15.13h15.13v45.39h-30.26v15.13h15.13v15.13h15.13v15.13h-45.39v-15.13h-15.13v-15.13h-15.12v30.26zm30.27-45.39h30.26v-15.13h15.13v-30.26h-45.39z" fill="#d3cf3d"/><path d="m512.76 139.31v-105.91h105.91v15.13h-75.67v30.26h60.52v15.13h-60.52v30.26h75.65v15.13z" fill="#d3cf3d"/><path d="m633.8 139.31v-105.91h90.77v15.13h15.13v45.39h-15.13v15.13h-60.51v30.26zm30.26-45.39h45.38v-45.39h-45.38z" fill="#d3cf3d"/><path d="m754.83 139.31v-105.91h90.78v15.13h15.13v45.39h-30.26v15.13h15.13v15.13h15.13v15.13h-45.39v-15.13h-15.13v-15.13h-15.13v30.26zm30.26-45.39h30.26v-15.13h15.13v-30.26h-45.39z" fill="#d3cf3d"/><path d="m875.87 139.31v-105.91h105.9v15.13h-75.65v30.26h60.52v15.13h-60.52v30.26h75.65v15.13z" fill="#d3cf3d"/><path d="m996.9 139.31v-105.91h30.26v15.13h15.13v15.13h15.13v15.13h15.12v-45.39h30.26v105.91h-30.26v-30.26h-15.12v-15.13h-15.13v-15.13h-15.13v60.52z" fill="#d3cf3d"/><path d="m1117.93 139.31v-105.91h105.91v15.13h-75.65v30.26h60.52v15.13h-60.52v30.26h75.65v15.13z" fill="#d3cf3d"/><path d="m1254.09 139.31v-15.13h-15.09v-90.78h30.25v90.78h45.39v-90.78h30.26v90.78h-15.13v15.13z" fill="#d3cf3d"/><path d="m1360 139.31v-105.91h90.77v15.13h15.13v45.39h-30.26v15.13h15.13v15.13h15.13v15.13h-45.38v-15.13h-15.13v-15.13h-15.13v30.26zm30.26-45.39h30.26v-15.13h15.12v-30.26h-45.38z" fill="#d3cf3d"/><path d="m45.63 152.31v-105.91h105.91v15.13h-75.65v30.26h60.52v15.13h-60.52v30.26h75.65v15.13z" fill="#f7f237"/><path d="m166.66 152.31v-105.91h30.26v15.13h15.13v15.13h15.13v15.13h15.13v-45.39h30.26v105.91h-30.26v-30.26h-15.13v-15.13h-15.13v-15.13h-15.13v60.52z" fill="#f7f237"/><path d="m333.09 152.31v-90.78h-30.26v-15.13h90.77v15.13h-30.26v90.78z" fill="#f7f237"/><path d="m408.73 152.31v-105.91h90.78v15.13h15.13v45.39h-30.26v15.13h15.13v15.13h15.13v15.13h-45.39v-15.13h-15.13v-15.13h-15.12v30.26zm30.27-45.39h30.26v-15.13h15.13v-30.26h-45.39z" fill="#f7f237"/><path d="m529.76 152.31v-105.91h105.91v15.13h-75.67v30.26h60.52v15.13h-60.52v30.26h75.65v15.13z" fill="#f7f237"/><path d="m650.8 152.31v-105.91h90.77v15.13h15.13v45.39h-15.13v15.13h-60.51v30.26zm30.26-45.39h45.38v-45.39h-45.38z" fill="#f7f237"/><path d="m771.83 152.31v-105.91h90.78v15.13h15.13v45.39h-30.26v15.13h15.13v15.13h15.13v15.13h-45.39v-15.13h-15.13v-15.13h-15.13v30.26zm30.26-45.39h30.26v-15.13h15.13v-30.26h-45.39z" fill="#f7f237"/><path d="m892.87 152.31v-105.91h105.9v15.13h-75.65v30.26h60.52v15.13h-60.52v30.26h75.65v15.13z" fill="#f7f237"/><path d="m1013.9 152.31v-105.91h30.26v15.13h15.13v15.13h15.13v15.13h15.12v-45.39h30.26v105.91h-30.26v-30.26h-15.12v-15.13h-15.13v-15.13h-15.13v60.52z" fill="#f7f237"/><path d="m1134.93 152.31v-105.91h105.91v15.13h-75.65v30.26h60.52v15.13h-60.52v30.26h75.65v15.13z" fill="#f7f237"/><path d="m1271.09 152.31v-15.13h-15.09v-90.78h30.25v90.78h45.39v-90.78h30.26v90.78h-15.13v15.13z" fill="#f7f237"/><path d="m1377 152.31v-105.91h90.77v15.13h15.13v45.39h-30.26v15.13h15.13v15.13h15.13v15.13h-45.38v-15.13h-15.13v-15.13h-15.13v30.26zm30.26-45.39h30.26v-15.13h15.12v-30.26h-45.38z" fill="#f7f237"/></svg>