<svg height="678" viewBox="0 0 2074 678" width="2074" xmlns="http://www.w3.org/2000/svg"><ellipse cx="1029.5" cy="555.5" fill="#5b5434" rx="1006.5" ry="107.5"/><path d="m597.78 447.23c.17-.35.34-.71.52-1.06l-.52 1z" fill="#ddd"/><path d="m765.49 440.34c.2.34.39.69.59 1z" fill="#ddd"/><path d="m700.73 49.32-9.57-3.49-12.36 33.89c3.72-.21 7.42-.48 11.13-.78z" fill="#704528"/><path d="m931.82 464-26.43-10.54-20-8v.06c-2.25.57-4.5 1.1-6.75 1.65l21.97 8.83 30.28 12.08 3.34 1.33 1.18.47 1.51-3.79-.89-.35z" fill="#472821"/><path d="m794.49 463.92 11 16.07 14.21 20.79 3 4.36.7 1 1.59-4.89-.82-1.2-4-5.92-10.17-14.82-11-16.06z" fill="#472821"/><path d="m698.88 302.94q8.49 21.9 18.06 43.24 11.14-5.3 21.92-11.2-20.37-15.45-39.98-32.04z" fill="#fff"/><path d="m741 437.06q-3.28-6.1-6.49-12.26l-.07-.14q-3.33-6.42-6.57-12.89l-.18-.37q-3.26-6.51-6.41-13.08c-13.58-.1-27.21 0-40.91.52s-27.37 1.28-40.94 2.33q-2.67 6.83-5.43 13.49c-.05.13-.1.26-.16.39q-2.77 6.69-5.65 13.32c0 .05 0 .1-.07.14q-2.76 6.38-5.61 12.69c-.07.14-.13.3-.2.45q-2.92 6.45-5.93 12.86c8.3.28 16.63.42 25 .48q20.35.17 40.91-.51h.09c13.7-.47 27.31-1.28 40.84-2.33 8.32-.65 16.63-1.36 24.89-2.22q-3.45-6.18-6.81-12.42c-.13-.16-.21-.3-.3-.45z" fill="#704528"/><path d="m718.62 349.89q5.5 12.21 11.36 24.22c21.34-2.69 40.9-6.78 50.88-9.05q-19.51-13.2-38.43-27.37-11.68 6.45-23.81 12.2z" fill="#fff"/><path d="m786.9 363.65.93-.23-.3.05q16.2-3.87 32.11-8.71-15.12-23.64-28.88-48.23a429 429 0 0 1 -44 28.7q19.69 14.77 40.14 28.42z" fill="#fff"/><path d="m829 390.29-.41 5-3.59 43.51q11.78-2.19 23.45-4.66l2-.45c3.2-.69 6.4-1.37 9.58-2.09q6-1.35 11.91-2.76-6-7.69-11.85-15.53c-.8-1.06-1.58-2.13-2.37-3.2-1.36-1.83-2.73-3.65-4.07-5.49q-12-16.33-23.21-33.2z" fill="#fdaa04"/><path d="m695.51 294.1c1.11 2.95 2.22 5.9 3.37 8.84q19.59 16.59 40 32-10.77 5.91-21.92 11.2c.55 1.24 1.12 2.47 1.68 3.71q12.12-5.75 23.81-12.2 18.89 14.19 38.43 27.37c2.87-.65 4.94-1.14 6-1.41q-20.41-13.61-40.11-28.38a429 429 0 0 0 44-28.7c-.67-1.2-1.32-2.4-2-3.6a426.22 426.22 0 0 1 -45.55 29.64q-24.47-18.48-47.71-38.47z" fill="#472821"/><path d="m777.89 396.58-4.09 50.32q20.79-2.72 41.26-6.3h.06z" fill="#472821"/><path d="m770.44 387.77v-.51h-.1-.09-.21-.09c-2.13.43-4.26.86-6.4 1.26-3.13.61-6.26 1.2-9.41 1.74q-7.41 1.27-14.88 2.33c.46.88.9 1.76 1.35 2.64q1.89 3.65 3.81 7.27 2 3.79 4 7.57l3 5.57q2.67 4.86 5.38 9.69l1.89 3.35q3.3 5.81 6.69 11.56l.59 1z" fill="#fdaa04"/><path d="m817.52 430.79 3.26-40.15.41-5.06.94-11.53c-4.4 1.35-8.8 2.67-13.22 3.9-2 .56-3.95 1.12-5.92 1.66q-11.85 3.18-23.85 5.83z" fill="#472821"/><path d="m535.72 383.63 1.46.35c4.47 1 9 2 13.45 3 2 .42 4 .84 6 1.23q12 2.35 24.19 4.16l.3.05c2.79.41 5.59.77 8.38 1.14l.5.07c2.15.28 4.31.56 6.47.81 3.16.39 6.33.76 9.5 1.08 5 .51 10 .93 15 1.29-.38.91-.76 1.82-1.15 2.72-1.09 2.52-2.19 5-3.3 7.53s-2.31 5.22-3.49 7.82q-1.3 2.89-2.64 5.77-2.32 5-4.69 10.05c-.55 1.15-1.11 2.31-1.66 3.47-1.93 4-3.88 8-5.86 12-.18.35-.35.71-.52 1.06-1.06 2.11-2.09 4.23-3.16 6.33-1.39-.08-2.77-.18-4.16-.27q-20.93-1.26-41.6-3.41h-.06l-1.64-.17h-.11c-2.51-.27-5-.54-7.53-.83h-.08-.39-.27q-11.89-1.38-23.72-3c-.69-.1-1.38-.21-2.08-.3-3.23-.47-6.47-.93-9.69-1.42q-6.06-.93-12.08-1.93-6 8.85-12.14 17.56l-.05.07c2.28.41 4.57.78 6.85 1.17q27.74 4.8 56 8 4.18.46 8.38.9 8.12.84 16.27 1.54c1.5.13 3 .24 4.51.36 4.52.38 9 .74 13.58 1.05q11.13.75 22.34 1.22 4.83-9.66 9.43-19.47 3-6.4 5.93-12.86c.07-.15.13-.31.2-.45q2.85-6.33 5.61-12.69s0-.09.07-.14q2.87-6.63 5.65-13.32c.06-.13.11-.26.16-.39q2.79-6.72 5.48-13.49 2.06-5.16 4.06-10.35c.06-.18.13-.36.2-.54q1.86-4.86 3.68-9.74c.38-1 .74-2 1.11-3 .93-2.53 1.87-5.07 2.78-7.61q2-5.58 3.92-11.18c.44-1.29.89-2.58 1.32-3.87q11.19-33 20-67v.31q11.1 33.16 24.52 65.15c.52 1.26 1.05 2.51 1.58 3.76q2.31 5.46 4.7 10.88c1.09 2.48 2.19 4.94 3.3 7.4l1.31 2.94c1.43 3.16 2.89 6.32 4.35 9.46l.24.52c1.57 3.37 3.16 6.71 4.77 10.05q3.15 6.57 6.41 13.08l.18.37q3.24 6.48 6.57 12.89l.07.14q3.21 6.17 6.49 12.26c.07.15.15.29.23.44q3.36 6.24 6.81 12.42 5.28 9.46 10.76 18.77 11.28-1.41 22.28-2.93c4.5-.62 9-1.3 13.46-2l4.48-.67q8.09-1.28 16.12-2.68 4.15-.72 8.3-1.48 27.95-5.13 55.28-11.87c2.25-.55 4.5-1.08 6.75-1.65v-.06q-6.76-8.26-13.34-16.67-5.94 1.41-11.91 2.76c-3.18.72-6.38 1.4-9.58 2.09l-2 .45q-11.74 2.47-23.56 4.67l-.27.05-.38.07h-.08c-2.48.46-5 .9-7.45 1.34h-.12l-1.62.29h-.06q-20.47 3.58-41.26 6.3c-1.37.18-2.75.38-4.13.55-1.21-2-2.39-4.06-3.59-6.09-.2-.33-.39-.68-.59-1q-3.39-5.74-6.69-11.56l-1.89-3.35q-2.71-4.83-5.38-9.69l-3-5.57q-2-3.78-4-7.57-1.92-3.63-3.81-7.27c-.45-.88-.89-1.76-1.35-2.64q7.47-1.06 14.88-2.33c3.15-.54 6.28-1.13 9.41-1.74 2.14-.4 4.27-.83 6.4-1.26h.09.21.09.1c2.76-.57 5.53-1.12 8.28-1.73l.3-.07q12-2.65 23.85-5.83c2-.54 4-1.1 5.92-1.66 4.42-1.23 8.82-2.55 13.22-3.9l1.43-.45c2.33-.71 4.65-1.43 7-2.18s0 0 0 0c-2.16-3.24-4.27-6.52-6.41-9.79-1.48-2.29-3-4.55-4.47-6.85q-15.92 4.85-32.11 8.71l.3-.05-.93.23c-1.1.27-3.17.76-6 1.41-10 2.27-29.54 6.36-50.88 9.05q-5.85-12-11.36-24.22c-.56-1.24-1.13-2.47-1.68-3.71q-9.54-21.35-18.06-43.24c-1.15-2.94-2.26-5.89-3.37-8.84q-11.46-30.37-20.92-61.72v-.49q-7.25 32.1-16.66 63.38c-.9 3-1.8 6-2.74 9q-7 22.44-15 44.39c-.47 1.28-.95 2.55-1.42 3.83q-4.65 12.56-9.65 24.95c-21.48-1.2-41.27-3.92-51.39-5.49-2.91-.44-5-.79-6.13-1l-.94-.17h.3q-16.41-2.73-32.63-6.45c-1.31 2.4-2.66 4.76-4 7.14-1.9 3.41-3.77 6.83-5.71 10.22q3.51 1.02 7.07 1.83z" fill="#472821"/><path d="m828.57 395.33.41-5 1.54-18.87c-2.31.75-4.63 1.47-7 2.18l-1.43.45-.94 11.53-.41 5.06-3.26 40.15-38.38-45.35-.3.07c-2.75.61-5.52 1.16-8.28 1.73v.51l-4.36 53.58c1.2 2 2.38 4.07 3.59 6.09 1.38-.17 2.76-.37 4.13-.55l4.09-50.32 37.23 44 1.62-.29h.12c2.48-.44 5-.88 7.45-1.34h.08l.38-.07.27-.05z" fill="#ffe94d"/><path d="m770.38 387.28h.1z" fill="#ffe94d"/><path d="m770.29 387.3h.09z" fill="#ffe94d"/><path d="m669.28 80.18c1.67-.06 3.33-.14 5-.22l-1.67-48-5 .18h-.1l-5 .18 1.67 48c1.7 0 3.39-.07 5.09-.13z" fill="#704528"/><path d="m645 47.44-9.31 4.14 12.84 28.8q5.58.08 11.16 0z" fill="#704528"/><g fill="#472821"><path d="m929.93 472.18 2.5.89 1.8-3.69-3.34-1.33z"/><path d="m938.16 461.35-5.29-1.87-1.05 4.55 4.21 1.68z"/><path d="m819.34 507.17 2.62.45.71-2.48-2.98-4.36z"/><path d="m825.58 495.08-5.48-.93 4.04 5.92z"/><path d="m434.04 490.45 2.43-1.07-1.24-4.06-3.24 1.57z"/><path d="m432.66 476.91-5.15 2.24 2.43 4.2 4.08-1.97z"/><path d="m546.65 517.22 2.58-.63-.79-6.36-2.67 4.57z"/><path d="m542.16 504.96 1.79 4.88 3.62-6.19z"/><path d="m479 459.74.05-.07-19.47 9.39-25.58 12.32-4.08 2-.86.42 1.77 3.67 1.14-.55 3.24-1.57 29.32-14.13 21.32-10.28c-2.26-.42-4.55-.79-6.85-1.2z"/><path d="m566.49 471.35-9.84 16.81-9.08 15.5-3.57 6.18-.74 1.25 1.93 4.77.63-1.06 2.67-4.57 12.71-21.71 9.8-16.81c-1.5-.12-3-.23-4.51-.36z"/></g><path d="m671.57 145.84a302.44 302.44 0 0 0 46.31-5.19q-5-15.12-9.48-30.48-15.28 2.42-31.07 3.3-1.47.09-2.94.15c-1.31.07-2.62.15-3.93.2-1.35.05-2.69.05-4 .08l-2.95.06q-15.79.2-31.22-1.14-3.42 15.63-7.33 31.07a302.87 302.87 0 0 0 46.64 2z" fill="#fdaa04"/><path d="m665 103.74c1.67 0 3.34 0 5-.1h.07c1.67-.06 3.33-.16 5-.25 2-.11 4-.22 6-.37q12.36-.88 24.42-2.72-1.45-5.17-2.86-10.37-8.67 1.23-17.5 2c-3.48.3-7 .53-10.48.71h-.63c-1.46.07-2.91.16-4.37.21-1.49.05-3 .07-4.46.1h-.63c-3.51.06-7 .08-10.5 0q-8.85-.13-17.6-.76-1 5.3-2.13 10.55 12.15 1 24.55 1 3.12.06 6.12 0z" fill="#fff"/><path d="m640.18 348.85q8-21.94 15-44.39-18.4 17.93-37.66 34.75 11.16 5.15 22.66 9.64z" fill="#fff"/><path d="m657.92 295.41q9.38-31.28 16.66-63.38v.35q9.43 31.34 20.92 61.72 23.24 20 47.72 38.47a426.22 426.22 0 0 0 45.55-29.64 949.38 949.38 0 0 1 -67.65-152.54 314.33 314.33 0 0 1 -49.2 5.64 314.44 314.44 0 0 1 -49.58-2.2 949.43 949.43 0 0 1 -56.84 156.88 425.74 425.74 0 0 0 47.5 26.4q23.13-20.11 44.92-41.7z" fill="#fff"/><g fill="#704528"><path d="m666.43 113.9c1.34 0 2.68 0 4-.08 1.31 0 2.62-.13 3.93-.2q1.47-.06 2.94-.15 15.76-.9 31.07-3.3-1.44-4.94-2.84-9.87-12.06 1.85-24.42 2.72c-2 .15-4 .26-6 .37-1.66.09-3.32.19-5 .25h-.11c-1.68.06-3.35.07-5 .1q-3 .06-6.06.06-12.39 0-24.55-1-1 5-2.14 10 15.42 1.35 31.22 1.14z"/><path d="m664.63 93h.63c1.49 0 3 0 4.46-.1 1.46 0 2.91-.14 4.37-.21h.63c3.51-.18 7-.41 10.48-.71q8.82-.75 17.5-2c-.35-1.32-.69-2.65-1-4q-7.41 1-14.92 1.72c-3.69.34-7.4.6-11.14.81l-1 .05c-1.67.08-3.32.18-5 .24-1.7.06-3.39.08-5.09.11h-1c-3.73.06-7.46 0-11.17 0-5-.11-10-.33-15-.67-.25 1.34-.49 2.68-.76 4q8.75.63 17.6.76z"/><path d="m671.93 156a314.33 314.33 0 0 0 49.2-5.64q-1.65-4.86-3.25-9.74a302.44 302.44 0 0 1 -46.31 5.19 302.87 302.87 0 0 1 -46.64-2c-.85 3.32-1.7 6.64-2.58 9.94a314.44 314.44 0 0 0 49.58 2.2z"/></g><path d="m721.3 398.32c-1.61-3.34-3.2-6.68-4.77-10.05l-.24-.52c-1.46-3.14-2.92-6.3-4.35-9.46l-1.31-2.94c-1.11-2.46-2.21-4.92-3.3-7.4q-2.39-5.42-4.7-10.88c-.53-1.25-1.06-2.5-1.58-3.76q-13.39-32-24.52-65.15v-.31q-8.79 34-20 67c-.43 1.29-.88 2.58-1.32 3.87q-1.92 5.59-3.92 11.18c-.91 2.54-1.85 5.08-2.78 7.61-.37 1-.73 2-1.11 3q-1.82 4.89-3.68 9.74c-.07.18-.14.36-.2.54q-2 5.19-4.06 10.35 20.35-1.57 40.94-2.33c13.69-.45 27.32-.59 40.9-.49z" fill="#472821"/><path d="m577.72 372.14c10.12 1.57 29.91 4.29 51.39 5.49q5-12.39 9.65-24.95-12.5-4.89-24.61-10.52-17.85 15.47-36.43 29.98z" fill="#fff"/><path d="m570.65 371 .94.17q19.41-15.1 38.06-31.17a431.27 431.27 0 0 1 -45.89-25.57q-12 25.49-25.44 50.13 16.22 3.73 32.68 6.44z" fill="#fff"/><path d="m491.21 442.11q6 1 12.08 1.93c3.22.49 6.46.95 9.69 1.42.7.09 1.39.2 2.08.3q11.82 1.65 23.72 3l-6.55-43.12-.76-5-2.85-18.64q-10.07 17.6-20.84 34.74-1.81 2.88-3.66 5.74c-.72 1.13-1.43 2.26-2.15 3.38q-5.3 8.14-10.76 16.25z" fill="#fdaa04"/><path d="m571.59 371.16c1.13.19 3.22.54 6.13 1q18.56-14.53 36.43-30 12.11 5.63 24.61 10.52c.47-1.28 1-2.55 1.42-3.83q-11.5-4.5-22.66-9.64 19.25-16.83 37.66-34.75c.94-3 1.84-6 2.74-9q-21.78 21.54-44.92 41.65a425.74 425.74 0 0 1 -47.5-26.4c-.58 1.25-1.15 2.49-1.74 3.73a431.27 431.27 0 0 0 45.89 25.56q-18.65 16.08-38.06 31.16z" fill="#472821"/><path d="m663.46 88.91h1c1.7 0 3.39 0 5.09-.11 1.68-.06 3.33-.16 5-.24l1-.05c3.74-.21 7.45-.47 11.14-.81q7.57-.7 14.97-1.7c-.69-2.63-1.4-5.26-2.07-7.91-3.22.33-6.44.62-9.66.89-3.71.3-7.41.57-11.13.78-1.5.09-3 .17-4.52.24-1.67.08-3.33.16-5 .22-1.7.06-3.39.09-5.09.13l-4.53.08q-5.58.06-11.16 0c-3.22 0-6.45-.1-9.69-.21-.49 2.69-1 5.36-1.52 8 5 .34 10 .56 15 .67 3.71.11 7.44.11 11.17.02z" fill="#472821"/><path d="m582.87 403.38-34.07 46.49h.06q20.68 2.14 41.6 3.41z" fill="#472821"/><path d="m597.78 447.21.52-1c2-4 3.93-8 5.86-12 .55-1.16 1.11-2.32 1.66-3.47q2.37-5 4.69-10.05 1.34-2.88 2.64-5.77 1.77-3.9 3.49-7.82c1.11-2.51 2.21-5 3.3-7.53.39-.9.77-1.81 1.15-2.72-5-.36-10-.78-15-1.29-3.17-.32-6.34-.69-9.5-1.08-2.16-.25-4.32-.53-6.47-.81l-.5-.07h.1-.1l.08.51z" fill="#fdaa04"/><path d="m539.68 400.44 6.05 39.83 35.12-47.92q-12.15-1.82-24.19-4.16c-2-.39-4-.81-6-1.23-4.49-.93-9-1.94-13.45-3l1.73 11.44z" fill="#472821"/><path d="m539.44 448.85h.08c2.51.29 5 .56 7.53.83h.11l1.64.17 34.07-46.49 7.59 49.91c1.39.09 2.77.19 4.16.27 1.07-2.1 2.1-4.22 3.16-6.33l-8.08-53.14-.08-.51c-2.79-.37-5.59-.73-8.38-1.14l-.3-.05-35.12 47.92-6.05-39.83-.77-5-1.82-11.46-1.46-.35q-3.56-.81-7.1-1.68l2.85 18.71.76 5 6.55 43.12h.27z" fill="#ffe94d"/><path d="m589.62 393.56h.1z" fill="#ffe94d"/></svg>