<svg height="437" viewBox="0 0 659 437" width="659" xmlns="http://www.w3.org/2000/svg"><path d="m538.69 192.64a66.6 66.6 0 0 0 -8.69.55v-.55c0-91.41-58.26-165.53-130.18-165.56-54.64 0-103.48 43.3-122.3 108.49-53.81-16.51-108.09 24.89-121.95 93-33.12-24.58-75.65-10.39-95 31.7s-8.17 96.15 24.95 120.73 75.48 10.46 94.89-31.46c38.59 51.46 102.75 53.31 143.22 4.21a125 125 0 0 0 11.87-17.23c36.89 26.61 81.65 28.75 120 5.73 16.28 58.4 66.72 89 112.66 68.28s70-84.78 53.73-143.18c-12.48-44.78-45.81-74.72-83.2-74.71z" fill="#617320"/></svg>