<svg height="448" viewBox="0 0 1233 448" width="1233" xmlns="http://www.w3.org/2000/svg"><path d="m1154.59 239.26a93.67 93.67 0 0 0 -85.88-131 94.52 94.52 0 0 0 -17.11 1.56 68.14 68.14 0 0 0 -63.76-44.13 69.17 69.17 0 0 0 -8.44.52 81.59 81.59 0 0 0 -159.34 16 59.6 59.6 0 0 0 -108.24 49 85.15 85.15 0 0 0 -130.52 51.9l-2.32-.32q.24-3.19.24-6.45a86.56 86.56 0 0 0 -169.83-23.63 177.69 177.69 0 0 0 -158.93 22.66 89.49 89.49 0 0 0 -163.08 29.09 80.33 80.33 0 0 0 -42.11 128.45 55.34 55.34 0 1 0 67.73 78.09h1038v-8.48a82.3 82.3 0 0 0 3.59-163.26z" fill="#5f9a3b"/></svg>