<svg height="183" viewBox="0 0 203 183" width="203" xmlns="http://www.w3.org/2000/svg"><path d="m196 52.5v-7.5a37.41 37.41 0 0 0 -3.28-15.34l-34.9 22.84z" fill="#4a4947"/><path d="m160.67 55.37v4.15a35 35 0 0 0 2.75 13.69h32.58v-20.71h-38.2a2.88 2.88 0 0 1 2.87 2.87z" fill="#faf0dd"/><path d="m121.38 93.93h33.55v20.71h-33.55z" fill="#faf0dd"/><path d="m121.38 114.64h33.55v20.7h-33.55z" fill="#4a4947"/><path d="m121.38 176.79a33.53 33.53 0 0 0 31-20.71h-31z" fill="#4a4947"/><path d="m121.38 156.06h31a33.2 33.2 0 0 0 2.55-12.84v-7.86h-33.55z" fill="#faf0dd"/><path d="m121.38 73.23h33.55v20.7h-33.55z" fill="#4a4947"/><path d="m163.42 73.23a35.33 35.33 0 0 0 32.58 21.62v-21.62z" fill="#4a4947"/><path d="m154.93 55.37a2.87 2.87 0 0 1 2.87-2.87h-36.42v20.71h33.55z" fill="#faf0dd"/><path d="m172.58 10.36a37.5 37.5 0 0 0 -29.3.66l14.54 41.48z" fill="#4a4947"/><path d="m192.72 29.66a37.48 37.48 0 0 0 -20.14-19.3l-14.76 42.14z" fill="#faf0dd"/><path d="m157.8 52.5-33.53-21.94a37.34 37.34 0 0 0 -2.91 14.44v7.5z" fill="#4a4947"/><path d="m143.28 11a37.49 37.49 0 0 0 -19 19.54l33.54 21.96z" fill="#faf0dd"/><path d="m36.21 124.14v52.63h52.63a52.65 52.65 0 0 0 -52.63-52.63z" fill="#9e978c"/><path d="m48.18 114.3a5.36 5.36 0 0 0 -5.35 5.34v9a5.35 5.35 0 0 0 10.69 0v-9a5.35 5.35 0 0 0 -5.34-5.34z" fill="#4a4947"/><path d="m37.58 163.23h-.86a13.54 13.54 0 0 0 -13.54 13.54h27.94a13.54 13.54 0 0 0 -13.54-13.54z" fill="#4a4947"/><path d="m52.29 69.31v46.51l37.05-37.06a77 77 0 0 0 -37.05-9.45z" fill="#9e978c"/><path d="m89.34 78.76-37.05 37.06v61h77.3v-30.21a77.29 77.29 0 0 0 -40.25-67.85z" fill="#d1cfbf"/><path d="m20.2 34a20.61 20.61 0 0 0 0 29.18l5.31 5.31 14.59-14.56z" fill="#8c847e"/><path d="m94.15 34-19.9 19.9 14.59 14.62 5.31-5.31a20.63 20.63 0 0 0 0-29.21z" fill="#8c847e"/><path d="m90.94 71.22a19.94 19.94 0 0 1 -20 20h-27.56a20 20 0 1 1 0-39.9h27.62a20 20 0 0 1 20 19.95z" fill="#faf0dd"/><path d="m51.57 65.71-4.27-7.41a5.18 5.18 0 0 0 -9 0l-4.25 7.41a5.17 5.17 0 0 0 4.48 7.76h8.55a5.16 5.16 0 0 0 4.49-7.76z" fill="#4a4947"/><circle cx="42.83" cy="65.52" fill="#fcb419" r="3.66"/><path d="m42.83 67.11a1.59 1.59 0 1 1 1.6-1.59 1.59 1.59 0 0 1 -1.6 1.59z" fill="#353535"/><path d="m62.77 65.71 4.28-7.41a5.17 5.17 0 0 1 9 0l4.28 7.41a5.18 5.18 0 0 1 -4.49 7.76h-8.59a5.17 5.17 0 0 1 -4.48-7.76z" fill="#4a4947"/><circle cx="71.53" cy="65.52" fill="#fcb419" r="3.66"/><path d="m71.53 67.11a1.59 1.59 0 1 0 -1.6-1.59 1.59 1.59 0 0 0 1.6 1.59z" fill="#353535"/><path d="m57.18 91a12.09 12.09 0 0 1 -12.09-12.1v-2.9a12.1 12.1 0 0 1 24.19 0v2.85a12.1 12.1 0 0 1 -12.1 12.15z" fill="#4a4947"/><path d="m59.23 66.34h-4.09a3 3 0 1 0 0 5.93h4.09a3 3 0 0 0 0-5.93z" fill="#353535"/><path d="m77 124.14v52.63h52.62a52.62 52.62 0 0 0 -52.62-52.63z" fill="#9e978c"/><g fill="#4a4947"><path d="m78.32 163.23h-.87a13.54 13.54 0 0 0 -13.54 13.54h28a13.53 13.53 0 0 0 -13.59-13.54z"/><path d="m69.93 114.3a5.35 5.35 0 0 0 -5.34 5.34v9a5.35 5.35 0 0 0 10.69 0v-9a5.35 5.35 0 0 0 -5.35-5.34z"/></g></svg>