<svg height="304" viewBox="0 0 360 304" width="360" xmlns="http://www.w3.org/2000/svg" xmlns:xlink="http://www.w3.org/1999/xlink"><clipPath id="a"><path d="m217.31 142.89-4.54.44-1.24-12.73a3.06 3.06 0 0 1 .68-2.23 1.61 1.61 0 0 1 1.79-.5 2.09 2.09 0 0 1 1.09.82c.72 1.07.94 2 1.15 4.07s1.07 10.13 1.07 10.13z"/></clipPath><clipPath id="b"><path d="m133.54 109.27 9-1.1-1-10a4.54 4.54 0 0 0 -5-4.08 4.54 4.54 0 0 0 -4.08 5z"/></clipPath><clipPath id="c"><path d="m119.08 111.39 8.59-1.33-1-10.38a4 4 0 0 0 -4.67-3.55h-.25a4.48 4.48 0 0 0 -3.68 4.85z"/></clipPath><clipPath id="d"><path d="m106.25 113.56s5.23-1 7.53-1.35l-1-10.82a3.61 3.61 0 0 0 -4.35-3.18h-.15c-1.92.41-3.19 2.6-3 5.07z"/></clipPath><clipPath id="e"><path d="m97.59 100.41a3.81 3.81 0 0 0 -2.89 4.07l1.09 11.2 6.7-1.35-1-10.38a4.33 4.33 0 0 0 -1.77-3.08 2.63 2.63 0 0 0 -1.86-.49z"/></clipPath><clipPath id="f"><path d="m86.92 117.78 5.77-1.35-1.06-10.92s-.57-3.08-3.32-2.81-2.47 4.43-2.36 5.57.97 9.51.97 9.51z"/></clipPath><clipPath id="g"><path d="m79.79 120s2.62-.85 4.73-1.49l-1.18-12.18a1.93 1.93 0 0 0 -2.22-1.75c-1.05.28-1.66 1.55-1.89 2.52a10.11 10.11 0 0 0 -.21 3.15c.04.39.77 9.75.77 9.75z"/></clipPath><clipPath id="h"><path d="m140.89 128c-2.72.27-4.13 3.24-3.9 5.68l1.27 13 8.8-1-1.25-12.84c-.24-2.42-2.48-5.03-4.92-4.84z"/></clipPath><clipPath id="i"><path d="m126.18 129.57c-2.72.26-4 3.4-3.8 5.83l1.26 12.93 8.72-.94-1.44-13c-.24-2.39-2.05-5.09-4.74-4.82z"/></clipPath><clipPath id="j"><path d="m100.21 151.15-1.21-12.71s-.45-4.68 2.89-5.22c1.86-.31 3.4 1.87 3.65 4.45l1.25 12.84-6.44.89z"/></clipPath><clipPath id="k"><path d="m109.58 137 1.25 12.8 7.76-.83-1.41-12.87c-.7-7.26-8.25-5.78-7.6.9z"/></clipPath><clipPath id="l"><path d="m91.25 152.33-1.14-11.75a7.89 7.89 0 0 1 .38-3.35 2.68 2.68 0 0 1 2-1.91c1.62-.16 3.16 1.23 3.62 6l1 10.31z"/></clipPath><clipPath id="m"><path d="m88.69 152.75-1.43-14.67s-.39-1.77-2-1.22c-1.88.65-2.18 3.39-1.82 7.1l.93 9.52z"/></clipPath><clipPath id="n"><path d="m199.28 128.67.1-.12a2.81 2.81 0 0 1 4.09-.31h.05a4.92 4.92 0 0 1 1.57 3.17l1.07 11-6.9.67-1-10.83a5 5 0 0 1 1.02-3.58z"/></clipPath><clipPath id="o"><path d="m222.6 142.46-4.07.31-1.08-11.09a5.38 5.38 0 0 1 .49-3.27 1.44 1.44 0 0 1 1.6-.45 1.89 1.89 0 0 1 1 .73 6.91 6.91 0 0 1 1 3.65c.18 1.87 1.06 10.12 1.06 10.12z"/></clipPath><clipPath id="p"><path d="m129.31 66.3-6.49 1.14-.71-7.27 6.5-1.14z"/></clipPath><clipPath id="q"><path d="m103.6 71.83-5.99 1.68-.71-7.27 5.99-1.68z"/></clipPath><clipPath id="r"><path d="m81.54 78.78-4.73 2.87-.64-6.55 4.74-2.87z"/></clipPath><clipPath id="s"><path d="m65.59 89.69-2.66 3.28-.64-6.55 2.66-3.28z"/></clipPath><clipPath id="t"><path d="m209.58 116.97 3.77.17-.13-4.18-3.78-.17z"/></clipPath><clipPath id="u"><path d="m221.11 117.93 2.7.68-.34-4.17-2.7-.68z"/></clipPath><clipPath id="v"><path d="m228.84 119.81 1.82 1.14-.48-3.73-1.82-1.15z"/></clipPath><circle cx="185.21" cy="96.4" fill="#383731" r="23.4"/><path d="m171.86 92.85a41.11 41.11 0 0 0 -.86 8.49v.14l-5.32 3.14c-.19-.23-.35-.49-.52-.74a19.31 19.31 0 0 1 -1.51-2.5 22.14 22.14 0 0 1 .72-12.38 16.26 16.26 0 0 1 3.1-2.5l.27-.15 4.12 6.47z" fill="#faf1da"/><path d="m201.05 107.74a22.45 22.45 0 0 0 4.21-2.26 22.09 22.09 0 0 1 -11.77 11.36 8.42 8.42 0 0 0 -.09-1l6.95-7.83c.24-.09.47-.17.7-.27z" fill="#faf1da"/><path d="m182.59 104.45a.08.08 0 0 1 0 0q1.83-2 3.64-4.09c.14-.15.26-.31.39-.47l10.23 1.05c.54 1.3 1.07 2.61 1.57 3.92.28.75.52 1.52.76 2.29l-7 8a23 23 0 0 1 -2.88 0c-1.55-.09-3.1-.27-4.65-.42a4.25 4.25 0 0 1 -.6-.12l-2.84-8.58c.39-.6.89-1.09 1.38-1.58z" fill="#faf1da"/><path d="m183.07 75.7-8.91 1.59a22.05 22.05 0 0 1 12-2.9 20 20 0 0 0 -2.83 1.19 1.13 1.13 0 0 0 -.26.12z" fill="#faf1da"/><path d="m178.18 106.2c.54.24 1.1.44 1.64.67l2.66 8a17.54 17.54 0 0 1 -4.39 2.31.23.23 0 0 0 0 .05v.08a22 22 0 0 1 -8.59-5.32c-.27-.27-.52-.54-.77-.81a18.2 18.2 0 0 1 -1-2.07c-.4-.92-.75-1.87-1.1-2.81a1.28 1.28 0 0 1 -.09-.48l5.25-3.11a47.49 47.49 0 0 0 6.39 3.49z" fill="#faf1da"/><path d="m206.71 94.34a24.55 24.55 0 0 0 -4.15-2.34l-5.27-9.82a20.46 20.46 0 0 0 .8-3.63 22.57 22.57 0 0 1 2.65 2.27 21.68 21.68 0 0 1 6.39 13.92 2 2 0 0 0 -.42-.4z" fill="#faf1da"/><path d="m181 89.93a69.71 69.71 0 0 0 -7.84 1.57l-.31.07-4.12-6.45c.21-.45.48-.87.72-1.3a32.5 32.5 0 0 1 3.29-4.76l10.52-1.88c.16.19.32.38.46.58.89 1.18 1.75 2.38 2.61 3.59l-4.93 8.53z" fill="#faf1da"/><path d="m200.51 93.56a58.19 58.19 0 0 1 -3.57 5.85l-10.51-1.08c-.52-1-1-2-1.56-3q-1.17-2.22-2.35-4.42l5.08-8.78a46.53 46.53 0 0 1 8.32.8h.08l5.09 9.49c-.19.39-.38.77-.58 1.14z" fill="#faf1da"/><path d="m174.75 24.27a3 3 0 0 1 3.27 4l-5.11 15.46-1 .3c-4.45 1.34-27.72 9.71-16.77 36.3l-8.32 6.79a3.88 3.88 0 0 1 -5.87-1.21c-24.89-47.3 18.55-59.04 33.8-61.64z" fill="#e62021"/><path d="m166.8 47.39a1.13 1.13 0 0 0 .91-1.32l-2.16-12.07a1.14 1.14 0 0 0 -1.32-.92 1.14 1.14 0 0 0 -.92 1.32l2.16 12.06a1.15 1.15 0 0 0 1.33.93z" fill="#c91c1d"/><rect fill="#c91c1d" height="14.53" rx="1.14" transform="matrix(.17656939 .98428819 -.98428819 .17656939 190.04 -84.73)" width="2.28" x="144.52" y="63.94"/><path d="m153.81 60.86a1.13 1.13 0 0 0 -.68-1.46l-11.53-4.16a1.14 1.14 0 0 0 -1.45.69 1.12 1.12 0 0 0 .68 1.45l11.53 4.16a1.13 1.13 0 0 0 1.45-.68z" fill="#c91c1d"/><path d="m158.23 52.52a1.14 1.14 0 0 0 .13-1.61l-7.9-9.36a1.13 1.13 0 0 0 -1.6-.13 1.14 1.14 0 0 0 -.14 1.6l7.9 9.36a1.15 1.15 0 0 0 1.61.14z" fill="#c91c1d"/><path d="m166.52 86.93c.13-1.69-.49-5.37-5.1-12.44 0 0-5.58-12.21 6.62-20.18 10.72-7 19.84-2.58 24.22 6a1.44 1.44 0 0 1 -.42 1.79l-4.29 3.29a1.94 1.94 0 0 0 -.25 2.85l2.07 2.27 1.76.15a2.1 2.1 0 0 1 1.87 2.17v3.7a2.61 2.61 0 0 0 1.55 2.47l4.47 2a.63.63 0 0 1 .23 1c-1 1.31-3.66 4-7.28 3.63-6.46-.57-9.54-6.21-11.5-12.55s-7.61-1.45-7.16.62 1.91 3.71 1.93 4.28 3.52 4.9-2.87 8c-2.29 1.09-3.73 1.7-4.64 2a.91.91 0 0 1 -1.21-1.05z" fill="#4f473c"/><path d="m172.91 43.69 1.38 7.72a22.27 22.27 0 0 0 -6.25 2.9c-12.2 8-6.62 20.18-6.62 20.18.53.82 1 1.59 1.44 2.32l-7.76 3.48c-12.1-29.29 17.81-36.6 17.81-36.6z" fill="#332e27"/><path d="m169 62.48a4.61 4.61 0 0 1 2.44-.06 2 2 0 0 0 2.19-.87l9.76-15.71a1.1 1.1 0 0 1 1.87 0l6.61 10.69a2.49 2.49 0 0 1 -.88 3.47l-17.64 10.09a4.42 4.42 0 0 1 -2.28 1.14 4.51 4.51 0 0 1 -2.07-8.75z" fill="#6e6353"/><circle cx="170.28" cy="66.79" fill="#d2790a" r="3.01"/><path d="m168.92 67a1.37 1.37 0 0 0 1.6 1.11 1.38 1.38 0 0 0 1.12-1.6 1.4 1.4 0 0 0 -1.64-1.08 1.38 1.38 0 0 0 -1.08 1.57z" fill="#d86441"/><path d="m196 65.13h40.24a3.75 3.75 0 0 1 1.57.34l-.11-.08-15.62-9.74a.76.76 0 0 0 -.64-.07l-26.66 9.74-.13.06a3.81 3.81 0 0 1 1.35-.25z" fill="#e0b70a"/><path d="m226.92 61.2c0 .7-1 1.26-2.2 1.26s-2.21-.56-2.21-1.26 1-1.26 2.21-1.26 2.2.57 2.2 1.26zm0 0" fill="#f79e00"/><path d="m220.86 59.16c0 .48-.67.86-1.5.86s-1.49-.38-1.49-.86.67-.87 1.49-.87 1.5.39 1.5.87zm0 0" fill="#f79e00"/><path d="m210.94 62.54c0 .35-.46.63-1 .63s-1-.28-1-.63.46-.63 1-.63 1 .28 1 .63zm0 0" fill="#f79e00"/><path d="m216.84 63.64c0 .39-.56.71-1.26.71s-1.26-.32-1.26-.71.57-.71 1.26-.71 1.26.32 1.26.71zm0 0" fill="#f79e00"/><path d="m230 64.19c0 .3-.39.55-.87.55s-.87-.25-.87-.55.39-.55.87-.55.87.25.87.55zm0 0" fill="#f79e00"/><path d="m204.17 63.87c0 .31-.39.56-.87.56s-.87-.25-.87-.56.39-.55.87-.55.87.25.87.55zm0 0" fill="#f79e00"/><path d="m216.45 61.2c0 .22-.28.39-.63.39s-.63-.17-.63-.39.28-.39.63-.39.63.18.63.39zm0 0" fill="#f79e00"/><path d="m234.64 64.5c0 .22-.28.4-.63.4s-.63-.18-.63-.4.28-.39.63-.39.63.18.63.39zm0 0" fill="#f79e00"/><rect fill="#ffd00b" height="25.39" rx="3.73" width="47.7" x="192.3" y="65.13"/><path d="m206.3 75.74a3.54 3.54 0 1 1 -3.54-3.53 3.53 3.53 0 0 1 3.54 3.53z" fill="#e0b70a"/><path d="m234.77 83.28a3.54 3.54 0 1 1 -3.54-3.53 3.54 3.54 0 0 1 3.54 3.53z" fill="#e0b70a"/><path d="m220.46 81.21a2.39 2.39 0 1 1 -2.39-2.39 2.39 2.39 0 0 1 2.39 2.39z" fill="#e0b70a"/><path d="m226.69 75a1.69 1.69 0 1 1 -1.69-1.7 1.69 1.69 0 0 1 1.69 1.7z" fill="#e0b70a"/><path d="m214.61 70.51a2.16 2.16 0 1 1 -2.15-2.15 2.16 2.16 0 0 1 2.15 2.15z" fill="#e0b70a"/><path d="m198.22 69.05a1.46 1.46 0 1 1 -1.46-1.46 1.46 1.46 0 0 1 1.46 1.46z" fill="#e0b70a"/><path d="m211.61 78.36a1.46 1.46 0 1 1 -1.46-1.46 1.46 1.46 0 0 1 1.46 1.46z" fill="#e0b70a"/><path d="m215 86.21a1.47 1.47 0 1 1 -1.47-1.46 1.47 1.47 0 0 1 1.47 1.46z" fill="#e0b70a"/><path d="m237.85 73.59a1.47 1.47 0 1 1 -1.47-1.46 1.46 1.46 0 0 1 1.47 1.46z" fill="#e0b70a"/><path d="m197.15 82a1 1 0 1 1 -1-1 1 1 0 0 1 1 1z" fill="#e0b70a"/><path d="m230.31 70.82a1 1 0 1 1 -1-1 1 1 0 0 1 1 1z" fill="#e0b70a"/><path d="m222.23 70.13a1 1 0 1 1 -1-1 1 1 0 0 1 1 1z" fill="#e0b70a"/><path d="m203.84 83.13a.61.61 0 0 1 -.61.62.62.62 0 0 1 0-1.24.61.61 0 0 1 .61.62z" fill="#e0b70a"/><path d="m200.46 86.36a.62.62 0 1 1 -1.23 0 .6.6 0 0 1 .61-.61.61.61 0 0 1 .62.61z" fill="#e0b70a"/><path d="m225.38 84a.62.62 0 0 1 -1.23 0 .62.62 0 1 1 1.23 0z" fill="#e0b70a"/><path d="m227.34 44.75a2 2 0 0 1 -1.22-1.83v-6.92h-6.57a2.1 2.1 0 0 0 -.7.12l-1.71 1.3a.52.52 0 0 0 -.29.68.48.48 0 0 0 .29.27c.84.3 4.08 1.63 4.72 4.38v.19a2 2 0 0 1 -1.23 1.83 7.42 7.42 0 0 0 -.22 13.74h7.15a7.41 7.41 0 0 0 -.22-13.74z" fill="#e0d0bf"/><path d="m220.87 57.58h6.23a6.46 6.46 0 0 0 3.9-5.91c0-3.85-2.82-5.59-5-6.5a1.13 1.13 0 0 1 -.71-1.05v-8.12h-2.71v8.17a1.14 1.14 0 0 1 -.65 1c-2.16 1-5 3.56-5 6.49a6.48 6.48 0 0 0 3.94 5.92z" fill="#ffedd9"/><path d="m226.12 36h.88a1 1 0 0 1 1 1v1.77a1 1 0 0 1 -1 1h-.89z" fill="#b3a698"/><path d="m228 38.56c2.65-.29 4.33.15 5.17 3.5.52 2-2.26 5.68-2.26 5.68a5.75 5.75 0 0 1 .84 1.82 9.42 9.42 0 0 0 3.22-7.5c-1-6.81-7-5.07-7-5.07z" fill="#b3a698"/><path d="m222.54 35.3h3a.58.58 0 0 1 .58.58v.12a0 0 0 0 1 0 0h-4.26a0 0 0 0 1 0 0 .68.68 0 0 1 .68-.7z" fill="#d14a48"/><path d="m225.34 35.3h-2.71l-.68-2a.8.8 0 0 1 .76-1.05h2.56a.79.79 0 0 1 .75 1.05z" fill="#a83c3a"/><path d="m216.94 51.67a6.48 6.48 0 0 0 3.93 5.91h6.23a6.46 6.46 0 0 0 3.9-5.91 6.2 6.2 0 0 0 -1-3.54h-11.7a5.84 5.84 0 0 0 -1.36 3.54z" fill="#f9ad27"/><path d="m205.05 41a16.49 16.49 0 0 0 -.17 3c.5-1.45 2.75-5 3.05-4.88 1.66.94-2.36 4.73-3 5.35a21 21 0 0 0 .79 4.55c.4-2 1.75-7.67 3.73-6.59.43.23-2.45 6.07-3.58 7.09a28.46 28.46 0 0 0 2.31 5.35c.38-2 2.61-7 3-6.89 2.22.86-1.73 6-2.77 7.33a27.06 27.06 0 0 0 1.78 2.69.35.35 0 0 1 -.06.49.36.36 0 0 1 -.51-.06 21.13 21.13 0 0 1 -1.62-2.61c-1.25.41-5.94 1.83-6.67.22-.38-.84 5.09-.47 6.6-.36q-.39-.7-.78-1.53c-1.5-.07-6-.42-6.16-2.13-.06-.86 4.4 1.11 6 1.87a27.28 27.28 0 0 1 -1.84-5.5 8.42 8.42 0 0 1 -2.15 1.11.15.15 0 0 1 -.17-.11.14.14 0 0 1 0-.09.14.14 0 0 1 .1-.08 9.46 9.46 0 0 0 2.21-1.13c-.12-.56-.21-1.14-.29-1.72a7.63 7.63 0 0 1 -1.78-1 .12.12 0 0 1 0-.16h.06a.1.1 0 0 1 .1 0 6.68 6.68 0 0 0 1.59.9 19.64 19.64 0 0 1 .09-5.35c.09-1.32 1.78-5.68 2.12-5.57 1.75.6-1.35 4.93-1.98 5.81z" fill="#249019"/><path d="m200.8 47.24c-1.43-.14-2.69.61-2.79 1.69s1 2.06 2.4 2.2 2.69-.61 2.79-1.68-.96-2.06-2.4-2.21z" fill="#7cbb2f"/><ellipse cx="201.29" cy="44.46" fill="#7cbb2f" rx="1.96" ry="2.61" transform="matrix(.41961051 -.90770426 .90770426 .41961051 76.48 208.53)"/><path d="m208.57 113.39h30.22v32.02h-30.22z" fill="#e6d8c5"/><path d="m246.33 113.39h30.22v32.02h-30.22z" fill="#e6d8c5"/><path d="m284.09 113.39h30.22v32.02h-30.22z" fill="#e6d8c5"/><path d="m218.63 124.06h10.07v10.67h-10.07z" fill="#cc5e29"/><path d="m238.78 113.39h7.55v32.02h-7.55z" fill="#ee6e30"/><path d="m256.39 124.06h10.07v10.67h-10.07z" fill="#cc5e29"/><path d="m276.54 113.39h7.55v32.02h-7.55z" fill="#ee6e30"/><path d="m294.15 124.06h10.07v10.67h-10.07z" fill="#cc5e29"/><path d="m314.3 113.39h7.55v32.02h-7.55z" fill="#ee6e30"/><path d="m200.77 113.39h7.55v32.02h-7.55z" fill="#ee6e30"/><path d="m196.17 145.41h130.53a3.52 3.52 0 0 1 3.77 3.2 3.52 3.52 0 0 1 -3.77 3.19h-130.53a3.52 3.52 0 0 1 -3.77-3.19 3.52 3.52 0 0 1 3.77-3.2z" fill="#cc5e29"/><path d="m200.88 113.39a2.17 2.17 0 0 1 -2.33-2.06c1.27-28.52 28.93-51.33 62.88-51.33s61.62 22.79 62.89 51.31a2.17 2.17 0 0 1 -2.33 2.06zm-2.38 0" fill="#fff0db"/><path d="m276.75 79.23h-10.29v-8.72a2.15 2.15 0 0 0 -2.3-2h-5.5a2.16 2.16 0 0 0 -2.31 2v8.72h-10.24a2.14 2.14 0 0 0 -2.3 2v4.67a2.15 2.15 0 0 0 2.31 2h10.27v20.29a2.16 2.16 0 0 0 2.31 2h5.51a2.15 2.15 0 0 0 2.3-2v-20.38h10.25a2.15 2.15 0 0 0 2.29-2v-4.63a2.14 2.14 0 0 0 -2.3-1.95zm2.3 0" fill="#f9a924"/><path d="m261.43 60a72.93 72.93 0 0 1 17.62 2.14c0-8.24-7.9-14.9-17.62-14.9s-17.59 6.66-17.62 14.9a73 73 0 0 1 17.62-2.14zm0 0" fill="#ee6e30"/><path d="m261.43 47.26a19.56 19.56 0 0 1 11 3.29c-4.79-7.4-10-19.1-10.58-22.23a.48.48 0 0 0 -.9 0c-.58 3.13-5.78 14.83-10.57 22.23a19.53 19.53 0 0 1 11-3.29zm0 0" fill="#ee966b"/><path d="m331.66 59.7s.56-8.5-2.3-9.42a1.84 1.84 0 0 0 -.53-.08s-15.44 5-26.44 11.81c0 0-3.19 2.36-10.67-.52-.17-.06-.35-.14-.52-.22a38.39 38.39 0 0 0 -6.18-1c-2.36-.16-4.86 0-6.41.95a2.28 2.28 0 0 0 -.88 2.77c.53 1.37 2.08 3.59 6.38 6.56a69.27 69.27 0 0 0 8 4.66 12.8 12.8 0 0 0 9.27 1 11.93 11.93 0 0 0 5.62-3.39 20.35 20.35 0 0 1 4-3.33c2.91-1.87 7.32-4.18 9-2.39l-6.73 16.23 2.26 1.06 5.47-11.19a18.24 18.24 0 0 1 5.27-6.49c2.37-1.8 5.25-4.51 5.38-7z" fill="#e62021"/><path d="m322.34 54.81c-4.53 2.17-19.16 10.78-19.16 10.78a11.09 11.09 0 0 1 -10.52.07c-3.18-1.69-2.3-3.19-1-4.17 7.49 2.88 10.68.53 10.68.53 11-6.76 26.45-11.82 26.45-11.82a1.51 1.51 0 0 1 .53.08c-.19.91-2.4 2.31-7 4.53z" fill="#a61718"/><path d="m285 60.29c-2.37-.17-4.87 0-6.41 1a2.28 2.28 0 0 0 -.89 2.77c.54 1.37 2.09 3.58 6.39 6.55a10.1 10.1 0 0 0 1.08-1.8 9.17 9.17 0 0 0 -.17-8.47z" fill="#ced6e0"/><path d="m199.9 107.11s-1.93-1.75.06-3 13.54-.35 20.92 2.11a35.66 35.66 0 0 1 10.43 5.22 1.22 1.22 0 0 1 .47.84v.14a1.2 1.2 0 0 1 -.56 1.15l-.34.49-10.45-.57z" fill="#b77527"/><path d="m200.63 114.06-.7-7.2a1 1 0 0 1 1-1.14c4.14-.23 19.29-.5 29.66 6.85a1 1 0 0 1 .39.67l3 30.94a.85.85 0 0 1 -.67.91 171.05 171.05 0 0 1 -17.51 2.41z" fill="#faac48"/><path d="m199.94 106.9s-1.06-2.16 1.8-2.32 14.11 0 23.93 4.42 4 5 4 5l-7-.76z" fill="#a46321"/><path d="m200.63 114.06-.7-7.2a1 1 0 0 1 1-1.14c4.09-.22 19.19-.46 29.56 6.62a.94.94 0 0 1 .42.71l2.83 28.59s-5 4.6-17.93 5.86z" fill="#faac48"/><path d="m222.6 142.46-4.07.31-1.08-11.09a5.38 5.38 0 0 1 .49-3.27 1.44 1.44 0 0 1 1.6-.45 1.89 1.89 0 0 1 1 .73 6.91 6.91 0 0 1 1 3.65c.18 1.87 1.06 10.12 1.06 10.12z" fill="#914700"/><path d="m217.31 142.89-4.54.44-1.24-12.73a3.06 3.06 0 0 1 .68-2.23 1.61 1.61 0 0 1 1.79-.5 2.09 2.09 0 0 1 1.09.82c.72 1.07.94 2 1.15 4.07s1.07 10.13 1.07 10.13z" fill="#914700"/><g clip-path="url(#a)"><path d="m211.09 129.65a2.12 2.12 0 0 1 3 1.56c.63 2.85 1.47 12.43 1.47 12.43l2-.2-1.15-14.92-1.95-1.58s-3.02.96-3.37 2.71z" fill="#3f120d"/></g><path d="m186.7 121.71-2.97 1.17 1.08 2.1 7.13 20.74 25.14-2.46-11.8-20.72z" fill="#e2a13d"/><path d="m198.36 142.88s8.31-.58 18.32-1.09a2.29 2.29 0 0 1 2.4 2.06l.21 2.2-21.29 1.81z" fill="#93551d"/><path d="m205 122.8c-3.73 0-14.27.19-20.26.77l-2.33-5.24 23.34-.77.45 3.88a1.23 1.23 0 0 1 -1.2 1.36z" fill="#a46321"/><path d="m180.4 114s11.52-1 25.64-1a1.61 1.61 0 0 1 1.62 1.43l.27 2.72a1.6 1.6 0 0 1 -1.59 1.74c-3.94.11-14.06.43-25.35 1.19" fill="#b77527"/><path d="m218.84 145.19s11.74-1 15.11-1.54l.91 1.14a1.36 1.36 0 0 1 -1.09 2l-14.28 1.39z" fill="#93551d"/><path d="m220.55 148.13-22 2.14-.28-2.88 8.07-.7c1.73-.17 3-.21 5.19-.41l7.36-.57a1.43 1.43 0 0 1 1.55 1.3z" fill="#844a1a"/><path d="m195.8 140.66-1-9.69a3.58 3.58 0 0 0 -2.33-3 3.67 3.67 0 0 0 -3.64.83l1.06 3.66 3.3 8.54z" fill="#682401"/><path d="m199.28 128.67.1-.12a2.81 2.81 0 0 1 4.09-.31h.05a4.92 4.92 0 0 1 1.57 3.17l1.07 11-6.9.67-1-10.83a5 5 0 0 1 1.02-3.58z" fill="#722e01"/><path d="m195.07 140.74-.88-9.09a2.88 2.88 0 0 0 -3.56-2.53 2.75 2.75 0 0 0 -1.45.94l2.4 9.65 2.3 2z" fill="#722e01"/><path d="m181.89 114a26.28 26.28 0 0 0 3.41-.25l4 5.78-1.07.11 1 1.69h1.35l13.7 21.27-6.89.67-6.61-3.59z" opacity=".15"/><path d="m60.06 81a2.29 2.29 0 0 1 -1.94-1.91c-.16-1.65-2-10.78 22.23-21.8 18.65-8.5 42.41-11.64 59.5-13.29a2.61 2.61 0 0 1 2.85 2.35 2.61 2.61 0 0 1 -1.7 2.73l-70 25.92z" fill="#b77527"/><path d="m142.12 48.54a.81.81 0 0 0 .63-.94l-.22-1.2a205 205 0 0 0 -46 7.65c-19.72 5.95-37.47 16.61-36.29 26.95l6.4.93 61.08-20.32z" fill="#a46321"/><path d="m62.49 104.09-2.21-22.69a4.28 4.28 0 0 1 .08-1.4c1-4.42 12.66-25.31 81.73-31.76l.21 2.24a25.48 25.48 0 0 0 3.12 10l6.43 11.52 1.18-.11a2.74 2.74 0 0 1 3 2.46l.51 5.26s-32.65 3.64-60.41 10c-15.5 3.56-29.03 8.18-33.64 14.48z" fill="#ffbc59"/><path d="m69.1 95c-2.06 1.21-4.4 3.19-5 .88-.18-.74-.54-3.68-.63-4.54l-1.47-15.17-.76 1.33a7.52 7.52 0 0 0 -.77 1.8 4.25 4.25 0 0 0 -.17 1.88l2.1 20.69a1.27 1.27 0 0 0 -.11.28l.19 1.94 9.14-5 61.38-13.54 23.64-3.7-.54-6c-56.2 5.92-77.37 13.45-87 19.15z" opacity=".1"/><path d="m161.31 81.3a2.74 2.74 0 0 0 -3-2.36c-24.13 2.43-43.94 5.57-59.83 9.12-19.65 4.38-32.37 9.94-36.81 15.68-2.7 3.52 1.12 4.76 1.12 4.76l14.21-.66 80.42-21.51h.29a3.34 3.34 0 0 0 3.74-3.76z" fill="#b77527"/><path d="m62.94 108.78s-2.77-4.24 12.63-10.73 42.18-12 85.74-16.22l.1.62a5 5 0 0 1 -2.47 5.17l-11.74 6.72z" fill="#a46321"/><path d="m161.07 86.2 8.69 19.18 7.85-.65a2.74 2.74 0 0 1 2.95 2.44l.26 2.41c-111 10-115.13 22-115.13 22l-2-20.68-.16-1.65a2.75 2.75 0 0 1 .68-2.09c5.17-5.79 17.71-10.08 32.79-13.76 21.18-5.16 60.48-9.29 60.48-9.29a3.58 3.58 0 0 1 3.59 2.09z" fill="#ffbc59"/><path d="m169.76 105.38s-87.08 6.62-104.68 21.77l-1.87-19.15a24.84 24.84 0 0 1 2.41-2.25l1.26 12.89a2.35 2.35 0 0 0 3.44 1.85c6.88-3.72 28.55-12.85 97.68-18.49" opacity=".15"/><path d="m182.75 108.81a1.93 1.93 0 0 0 -2-1.7c-27.87 1.81-61.3 6.6-77.41 10.19-19.66 4.39-32.58 7.87-37 13.65-2.7 3.52 1.34 7 1.34 7l13.81-5.11 80.9-16.54 19.07-3.54a1.93 1.93 0 0 0 1.54-2.16z" fill="#b77527"/><path d="m65.93 137.67s-5.06-4.07 12.47-10.53c15.68-5.78 55-12.45 104.48-17l.09.64a1.82 1.82 0 0 1 -1.2 2l-31.69 11.22z" fill="#a46321"/><path d="m195.43 141.79-14-28.75a.73.73 0 0 0 -.71-.41c-49.2 4.54-86.5 11-102.13 16.76-12.27 4.53-12.86 7.81-12.74 9.45.25 3.64.21 1.43.5 4.38l1.65 15.67z" fill="#ffbc59"/><path d="m74.81 152.75c-2.22.86-4.49 2.22-5.08-.08-.19-.75-.49-3.17-.58-4l-1.34-13.78-.81.89a8.06 8.06 0 0 0 -1 1.65 5.2 5.2 0 0 0 0 2.12l2.68 28.13 9.15-5 61.39-13.53 56.44-6.9-2.62-5.13c-56.14 5.93-108.04 11.66-118.23 15.63z" opacity=".15"/><path d="m67 160.05s1.64-3.8 19.42-6.92c18.43-3.25 95.51-11.13 111.58-12.73 1.16 0 1.5 1.27 1.67 3l.45 4.62-111.88 11.2a55.24 55.24 0 0 0 -12.51 2.66c-1.72.59-3.76 1.21-4.8 1.63l-3.75 1.54z" fill="#a46321"/><path d="m201.17 156a1.51 1.51 0 0 0 1.36-1.65l-.42-4.28a3.16 3.16 0 0 0 -3.43-2.84c-15.61 1.43-87.23 8.08-102.7 10.47-15.82 2.45-25.87 5.32-29.19 6.4a1.75 1.75 0 0 0 -1.2 1.84l.13 1.39a1.34 1.34 0 0 0 1.46 1.21z" fill="#b77527"/><path d="m86.52 155.73c6.89-1 84.39-9.46 113.16-12.6-.18-1.59-.55-2.72-1.64-2.73-16.11 1.63-93.19 9.48-111.66 12.73-17.78 3.12-19.38 6.92-19.38 6.92v.83c5.31-1.73 14-4.38 19.52-5.15z" fill="#fff" opacity=".05"/><path d="m152 92.51a4.62 4.62 0 0 1 5.05 4.16l1 9.83-9.21.9-1-9.83a4.63 4.63 0 0 1 4.16-5.06z" fill="#777"/><path d="m133.54 109.27 9-1.1-1-10a4.54 4.54 0 0 0 -5-4.08 4.54 4.54 0 0 0 -4.08 5z" fill="none" stroke="#b77527" stroke-miterlimit="10"/><path d="m119.08 111.39 8.59-1.33-1-10.38a4 4 0 0 0 -4.67-3.55h-.25a4.48 4.48 0 0 0 -3.68 4.85z" fill="#777"/><path d="m106.25 113.56s5.23-1 7.53-1.35l-1-10.82a3.61 3.61 0 0 0 -4.35-3.18h-.15c-1.92.41-3.19 2.6-3 5.07z" fill="#777"/><path d="m97.59 100.41a3.81 3.81 0 0 0 -2.89 4.07l1.09 11.2 6.7-1.35-1-10.38a4.33 4.33 0 0 0 -1.77-3.08 2.63 2.63 0 0 0 -1.86-.49z" fill="#777"/><path d="m86.92 117.78 5.77-1.35-1.06-10.92s-.57-3.08-3.32-2.81-2.47 4.43-2.36 5.57.97 9.51.97 9.51z" fill="#777"/><path d="m79.79 120s2.62-.85 4.73-1.49l-1.18-12.18a1.93 1.93 0 0 0 -2.22-1.75c-1.05.28-1.66 1.55-1.89 2.52a10.11 10.11 0 0 0 -.21 3.15c.04.39.77 9.75.77 9.75z" fill="#777"/><path d="m74.14 122.06s2.13-.83 3.49-1.31l-1.19-12.2s0-2-1.92-1.32-1.3 4.72-1.3 4.72z" fill="#602715"/><path d="m69.76 124.07-1.08-11.07s-.24-2.42.94-3.24 1.38 1.14 1.38 1.14l1.17 12s-1.17.55-2.41 1.17z" fill="#5e2313"/><path d="m66.19 126.3 2-1.34-1.19-11.88s0-1.08-.82-1.15-1.14 1.9-1 3.59c.16 1.48 1.01 10.78 1.01 10.78z" fill="#5e2313"/><path d="m133.54 109.27 9-1.1-1-10a4.54 4.54 0 0 0 -5-4.08 4.54 4.54 0 0 0 -4.08 5z" fill="#777"/><g clip-path="url(#b)"><path d="m133.54 109.27 1.06-.16-1-10.33a3.77 3.77 0 0 1 4.68-4 5 5 0 0 1 3 2.22l-.28-2.57-3.4-1.13-4.24.82-1.16 1-.11 3.74 1 10.45z" fill="#722e01"/></g><g clip-path="url(#c)"><path d="m126.1 98a4.5 4.5 0 0 0 -4-1.19 3.51 3.51 0 0 0 -2.73 4.1l1 10.7-1.82.35-1.69-12.84 1.8-3.31 6.05-.76a3.81 3.81 0 0 1 1.39 2.95z" fill="#722e01"/></g><g clip-path="url(#d)"><path d="m107.65 114.08-1.08-11.48a3.43 3.43 0 0 1 3.43-3.78 3.23 3.23 0 0 1 2.56 1.4l.34-1.39-2.79-1.59-4 .64-2.11 3.06.77 8.27 1.18 4.68z" fill="#722e01"/></g><g clip-path="url(#e)"><path d="m101.26 101.89a3.12 3.12 0 0 0 -1.59-.52 2.84 2.84 0 0 0 -3.08 2.88c0 .5 0 1.11.12 1.85l.93 9.61-2.17.65-1.68-12.47.66-2.83 2.94-1.55s3.71.75 3.87 2.38z" fill="#722e01"/></g><g clip-path="url(#f)"><path d="m88.91 117.71-1.06-10.83c-.2-2.07 1-3 2.41-3a1.47 1.47 0 0 1 1.16.45l-.19-2.3-3-.3-4.16 1.27 1.42 14.59 1.11 1.13z" fill="#722e01"/></g><g clip-path="url(#g)"><path d="m83.56 106.26s-2 .38-1.75 3.06l1 10-3.1 1.33-1-3.51v-10.58l1-1.72 2.19-1a3.19 3.19 0 0 1 1.66 2.42z" fill="#722e01"/></g><path d="m171.4 124.91h2.41a3.22 3.22 0 0 1 3.22 3.22v14.87a0 0 0 0 1 0 0h-8.86a0 0 0 0 1 0 0v-14.87a3.22 3.22 0 0 1 3.22-3.22z" fill="#9c5a0e" transform="matrix(.99527836 -.09706179 .09706179 .99527836 -12.18 17.38)"/><path d="m156 126.57a4.44 4.44 0 0 0 -4 4.84l1.33 13.67 8.81-.94-1.32-13.59a4.43 4.43 0 0 0 -4.82-3.98z" fill="#9c5a0e"/><path d="m140.89 128c-2.72.27-4.13 3.24-3.9 5.68l1.27 13 8.8-1-1.25-12.84c-.24-2.42-2.48-5.03-4.92-4.84z" fill="#9c5a0e"/><path d="m126.18 129.57c-2.72.26-4 3.4-3.8 5.83l1.26 12.93 8.72-.94-1.44-13c-.24-2.39-2.05-5.09-4.74-4.82z" fill="#9c5a0e"/><path d="m109.58 137 1.25 12.8 7.76-.83-1.41-12.87c-.7-7.26-8.25-5.78-7.6.9z" fill="#9c5a0e"/><g clip-path="url(#h)"><path d="m145.19 130.31s-1.12-1.61-4.05-1.32-3.34 3.63-3.23 4.77l1.27 13.06-1.21.25-2-15.55 1.16-2.62 5.74-1.67a8.46 8.46 0 0 1 2.32 3.08z" fill="#722e01"/></g><g clip-path="url(#i)"><path d="m130.43 131.44s-1.3-1.9-4.22-1.05c-3.3 1-2.59 6-2.59 6l1.18 12.08-1.74.17-1.66-17 2.72-2.79 4.81-.12z" fill="#722e01"/></g><path d="m100.21 151.15-1.21-12.71s-.45-4.68 2.89-5.22c1.86-.31 3.4 1.87 3.65 4.45l1.25 12.84-6.44.89z" fill="#9c5a0e"/><g clip-path="url(#j)"><path d="m105.42 135.82a2.72 2.72 0 0 0 -2.62-.67c-1.9.57-1.81 3.66-1.65 5.28l1.07 11-3.06.3-1.78-18.26 3.91-1.08 3.43.37a14.57 14.57 0 0 1 .7 3.06z" fill="#722e01"/></g><g clip-path="url(#k)"><path d="m117 134.34a3.11 3.11 0 0 0 -2.93-1.57c-2 .2-3.27 1.73-2.85 6l1.07 11.05-1.62.56-.61-2.68-1.49-15.7 3.56-1.45 3.85.2a7.2 7.2 0 0 1 1.02 3.59z" fill="#722e01"/></g><path d="m91.25 152.33-1.14-11.75a7.89 7.89 0 0 1 .38-3.35 2.68 2.68 0 0 1 2-1.91c1.62-.16 3.16 1.23 3.62 6l1 10.31z" fill="#9c5a0e"/><g clip-path="url(#l)"><path d="m95.43 136.88a2 2 0 0 0 -2.23.62c-.9 1.15-1 2.43-.68 5.27l.94 9.65-2.88.28-1.51-15.06 2.29-2.7 2.77-1z" fill="#722e01"/></g><path d="m88.69 152.75-1.43-14.67s-.07-1.67-2-1.22-2.14 3.83-1.82 7.1l.93 9.52z" fill="#9c5a0e"/><g clip-path="url(#m)"><path d="m87.74 138.47s-2.17.35-1.81 4.06l1.07 10.87-3.16.58-1.42-14.64 2.19-2.85 2.14-.17s.78.01.99 2.15z" fill="#722e01"/></g><path d="m78.36 154.83s1.86-.5 3.48-.81l-1.39-14.31a1.25 1.25 0 0 0 -.35-.75 1.24 1.24 0 0 0 -1-.33c-1 .1-2.15 1.53-1.82 4.88z" fill="#602715"/><path d="m75.31 142.2s0-2.28-1.58-1.79c-1 .32-1 2.72-.79 5.19l1 10.51s1.54-.5 2.66-.78z" fill="#5e2313"/><path d="m72.63 156.63-1.16-12s-.06-3.06-1.4-2.89c-1.16.14-.8 3-.6 4.94l1 10.8s1.12-.4 2.16-.85z" fill="#5e2313"/><path d="m185.76 121.54s16.63-.74 20.44-.76l-.29-2-21.06.91z" opacity=".15"/><g clip-path="url(#n)"><path d="m198.33 130.36a2.91 2.91 0 0 1 2.88-1.69c1.56.11 2.88 1.09 3.2 4.41l.92 9.43 1.14-.11-1.47-14.63-2.35-1-3.66.8z" fill="#682401"/></g><path d="m202.17 105.65 1.07 7.33-2.7.06-.6-6.14a1.07 1.07 0 0 1 .85-1.15z" opacity=".15"/><path d="m227.29 142.18-3.33.25-.92-9.49c-.1-1-.24-3.37.34-4.12 1.56-2 2.66 1.27 2.92 3.93.15 1.54.99 9.43.99 9.43z" fill="#3a1212"/><path d="m230.87 141.92-2.62.19-.86-8.78c-.09-1-.23-3.12.22-3.8 1.21-1.8 2.12 1.21 2.36 3.67.14 1.42.9 8.72.9 8.72z" fill="#381011"/><path d="m233.59 141.77-1.63.12-.89-9.16a6.17 6.17 0 0 1 .11-2.56c.74-1.22 1.33.82 1.49 2.49.1.96.92 9.11.92 9.11z" fill="#3b1411"/><g clip-path="url(#o)"><path d="m217.07 130a1.85 1.85 0 0 1 2.21 1.9l1.09 11.19 2.88-.28-1.38-14.6-2.25-1.45-2.62.24z" fill="#3f120d"/></g><path d="m129.31 66.3-6.49 1.14-.71-7.27 6.5-1.14z" fill="#602715"/><g clip-path="url(#p)"><path d="m130.39 67.18-6.5 1.15-.7-7.27 6.49-1.15z" fill="#777"/></g><path d="m103.6 71.83-5.99 1.68-.71-7.27 5.99-1.68z" fill="#602715"/><g clip-path="url(#q)"><path d="m105.51 73.12-5.99 1.69-.7-7.27 5.98-1.69z" fill="#777"/></g><path d="m81.54 78.78-4.73 2.87-.64-6.55 4.74-2.87z" fill="#602715"/><g clip-path="url(#r)"><path d="m83.72 79.82-4.74 2.86-.63-6.55 4.73-2.86z" fill="#777"/></g><path d="m65.59 89.69-2.66 3.28-.64-6.55 2.66-3.28z" fill="#602715"/><g clip-path="url(#s)"><path d="m68.34 90.58-2.65 3.36-.63-6.55 2.63-3.54z" fill="#777"/></g><path d="m209.58 116.97 3.77.17-.13-4.18-3.78-.17z" fill="#602715"/><g clip-path="url(#t)"><path d="m208.35 117.79 3.78.17-.14-4.18-3.77-.17z" fill="#777"/></g><path d="m221.11 117.93 2.7.68-.34-4.17-2.7-.68z" fill="#602715"/><g clip-path="url(#u)"><path d="m220.33 118.85 2.69.67-.33-4.17-2.7-.67z" fill="#777"/></g><path d="m228.84 119.81 1.82 1.14-.48-3.73-1.82-1.15z" fill="#602715"/><g clip-path="url(#v)"><path d="m227.91 120.75 1.83 1.15-.48-3.74-1.82-1.15z" fill="#777"/></g><path d="m113 47.73s10.63-2.13 26.61-3.73a2.68 2.68 0 0 1 3.09 3.05c0 .23.19.63.09.83a1.43 1.43 0 0 1 -.59.58h-.07s0 0 0 0l.16 1.73c.66 7.87 6.22 15.26 9.57 21.75a4.06 4.06 0 0 0 1.18-.11 2.56 2.56 0 0 1 2.89 2l.56 5.07s-6.53 1.83-6.1 6.3l.92 7.34c-5.47 1.13-3.13 8.39-2.5 14.74 0 .39 3.86-.73 3.9-.33.07.76.17 1.75.25 2.57 0 0-4.49 2.9-.73 6l1.35 11.81-.2.09a4 4 0 0 0 -1.38 3.69c.59 5.12 1.89 13.84 1.11 14-5.09.75-20.25 2.22-29.79 3.27z" opacity=".2"/><path d="m201.76 148.86a3.15 3.15 0 0 0 -3.08-1.67c-15.61 1.43-87.23 8.08-102.7 10.47-15.82 2.45-25.87 5.32-29.19 6.4a1.77 1.77 0 0 0 -1.1 1c16.09-2.06 91.54-11.69 136.07-16.2z" fill="#fff" opacity=".05"/><path d="m50.2 136c-1-8.09-7-9.06-7-9.06a9.58 9.58 0 0 0 -10.52 4 4.73 4.73 0 0 0 -.7 1.51l-1.53 5.83 19.37 4a40.27 40.27 0 0 0 .39-6 2.11 2.11 0 0 0 -.01-.28z" fill="#4d0000"/><path d="m124.91 132.54-3.63-.75a1.59 1.59 0 0 0 -1.68.73l-2.28 3.79a1.5 1.5 0 0 1 -1.91.58c-4.82-2.22-22.64-10.33-27.14-11.45-5.22-1.3-15-3.71-17.5-3.53s-20.42 3.59-20.77 3.47a1.94 1.94 0 0 0 -1.06-.21c-.62 0-15.29-.13-18.69.85s-10.61 3.14-10.88 3.49a41.69 41.69 0 0 0 -2.13 5.25.65.65 0 0 0 .5.84l12.71 2.64 1.55-5.83a4.73 4.73 0 0 1 .7-1.51 9.58 9.58 0 0 1 10.52-4s6 1 7 9.06a2.11 2.11 0 0 1 0 .25 40.27 40.27 0 0 1 -.39 6l41.24 8.55c.53-3 3.13-13.7 12.84-12.5 0 0 10.77.95 8.61 16l3.28.68a2.93 2.93 0 0 0 1.18 0l3.84-.79a2 2 0 0 0 1.54-1.53l3.78-18.25a1.6 1.6 0 0 0 -1.23-1.83z" fill="#d40000"/><path d="m103.91 138.3c-9.71-1.2-12.31 9.48-12.84 12.5l21.45 3.5c2.16-15.05-8.61-16-8.61-16z" fill="#4d0000"/><path d="m18.83 133.34a1.28 1.28 0 0 1 -.76-.85c-.33.84-.64 1.68-.82 2.27a.65.65 0 0 0 .5.84l12.71 2.64.87-3.32c-2.4-.28-11.83-1.4-12.5-1.58z" fill="#8a0000"/><path d="m50.14 139.37a25.4 25.4 0 0 1 -.31 2.88l41.24 8.55a22.2 22.2 0 0 1 .68-2.81z" fill="#8a0000"/><path d="m122.39 152.48c-1.93-.15-7.24-.55-9.62-.65 0 .78-.13 1.6-.25 2.47l3.28.68a2.93 2.93 0 0 0 1.18 0l3.84-.79a2 2 0 0 0 1.54-1.53z" fill="#8a0000"/><path d="m50 134.92c.07.34.12.69.16 1.05a.41.41 0 0 1 0 .11l43.88 6.83c.23-.34.48-.68.75-1z" fill="#4d0000"/><path d="m123.65 146.39-11.9-1.85c.15.37.29.77.42 1.19l11.26 1.76z" fill="#4d0000"/><path d="m21 130.4-1.67-.85a10.46 10.46 0 0 0 -.48 1l1.8.92 11.11 1.73.21-.8.09-.29z" fill="#4d0000"/><path d="m26.6 127.32 1.19.25a1.15 1.15 0 0 0 .61 0l3.77-1.33a.15.15 0 0 0 0-.29l-.46-.15h-.09a10.14 10.14 0 0 0 -1.36.27c-1 .28-2.3.66-3.67 1.07a.12.12 0 0 0 .01.18z" fill="#e8c668"/><path d="m52.67 127.16a1.74 1.74 0 0 0 1.59.26l14.28-4.65a.22.22 0 0 0 -.05-.42h-.5c-5.36.87-16 2.86-17.75 3.07z" fill="#b3b3b3"/><path d="m54.92 129a.43.43 0 0 1 -.07-.79c3.76-1.41 14.59-5.3 15.6-5.46 1.77-.28 13.54 2 15 2.51s3.77 1.34 11.25 8.25c.31.29-.11 1-.53 1-6.06-.73-31.08-3.72-32.52-4-1.28-.24-6.25-1.01-8.73-1.51z" fill="#8a0000"/><path d="m56.49 128.83a.33.33 0 0 1 -.07-.64c3.49-1.3 13.51-5 14.46-5a132.6 132.6 0 0 1 13.85 2.33c1.26.46 3.49 1.24 10.42 7.64a.4.4 0 0 1 -.31.69c-5.62-.67-28.9-3.48-30.24-3.71-1.14-.24-5.83-.96-8.11-1.31z" fill="#b3b3b3"/><path d="m81.94 132.24 1.48.18 3-6.19a11.85 11.85 0 0 0 -1.14-.54z" fill="#8a0000"/><path d="m107.33 135.8 7.89 1c-3.49-1.6-12.8-5.84-19.73-8.7a.16.16 0 0 0 -.15.29l11.23 7.14a1.74 1.74 0 0 0 .76.27z" fill="#b3b3b3"/><circle cx="41.14" cy="135.72" fill="#2b0000" r="8.19" transform="matrix(.2029582 -.9791874 .9791874 .2029582 -100.1 148.47)"/><circle cx="41.14" cy="135.72" fill="#b3b3b3" r="5.32"/><circle cx="41.14" cy="135.72" fill="#d40000" r="1.75"/><circle cx="102.56" cy="148.44" fill="#2b0000" r="8.19"/><circle cx="102.56" cy="148.44" fill="#b3b3b3" r="5.32"/><circle cx="102.56" cy="148.44" fill="#d40000" r="1.75"/><path d="m64.6 130.09.71.1 6.24-7a4.09 4.09 0 0 0 -.67 0h-.08l-6.8 6.81z" fill="#8a0000"/><path d="m120.79 144.94a.35.35 0 0 1 -.27-.42l.85-4.14a.36.36 0 0 1 .43-.28.36.36 0 0 1 .28.42l-.86 4.14a.36.36 0 0 1 -.43.28z" fill="#d45353"/><path d="m119.5 144.67a.35.35 0 0 1 -.28-.42l.86-4.14a.35.35 0 0 1 .42-.28.36.36 0 0 1 .28.42l-.86 4.14a.35.35 0 0 1 -.42.28z" fill="#d45353"/><path d="m118.2 144.4a.36.36 0 0 1 -.28-.42l.86-4.14a.35.35 0 0 1 .42-.28.35.35 0 0 1 .28.42l-.86 4.14a.35.35 0 0 1 -.42.28z" fill="#d45353"/><path d="m121.47 133.27 4.69 1a1.58 1.58 0 0 0 -1.25-1.7l-3.63-.75a1.59 1.59 0 0 0 -1.68.73l-1.13 1.87 1.9-1a1.62 1.62 0 0 1 1.1-.15z" fill="#4d0000"/><path d="m53 129.06-.75-.29h-.11-.81a.36.36 0 0 0 -.33.23c-.06.29-.15.71-.15.79a2.62 2.62 0 0 0 .53 1.5.5.5 0 0 0 .63.13 2.63 2.63 0 0 0 1.09-1.17c0-.07.11-.48.17-.78a.37.37 0 0 0 -.27-.41z" fill="#feff03"/><path d="m58.16 127.1-.54 2.62a.53.53 0 0 1 -.72.39l-1.67-.67a.92.92 0 0 1 -.58-.86v-.49a1.46 1.46 0 0 1 1.3-1.45l1.64-.17a.52.52 0 0 1 .57.63z" fill="#6e0000"/><path d="m234 143a7.89 7.89 0 1 1 -15.78 0 7.81 7.81 0 0 1 .71-3.27h-5.52a13.11 13.11 0 1 0 25.4 0h-5.52a7.81 7.81 0 0 1 .71 3.27z" fill="#4f5052"/><path d="m226.08 150.89a7.9 7.9 0 0 0 7.92-7.89 7.81 7.81 0 0 0 -.71-3.27h-14.39a7.89 7.89 0 0 0 7.18 11.16z" fill="#77787a"/><path d="m230.1 136.23a7.89 7.89 0 0 1 -5.41 13.63 7.73 7.73 0 0 1 -4-1.11l.06.06a7.89 7.89 0 1 0 9.37-12.58z" fill="#68696b"/><path d="m226.08 140.46a2.54 2.54 0 1 0 2.54 2.54 2.53 2.53 0 0 0 -2.54-2.54z" fill="#d1d3d4"/><path d="m295.56 122.83a13.69 13.69 0 0 0 -13.31 10.51h.21a13.68 13.68 0 0 1 23.33-2.54l2.09-.23a13.69 13.69 0 0 0 -12.32-7.74z" fill="#fa6c6f"/><path d="m308 143c0-.22 0-.46 0-.69a13.1 13.1 0 0 0 -7.18-11l-14.19 1.54a13.05 13.05 0 0 0 -4.37 6.74 13.76 13.76 0 0 0 -.46 3.36 13.11 13.11 0 1 0 26.2.05zm-13.11-7.84a7.89 7.89 0 1 1 -7.89 7.84 7.89 7.89 0 0 1 7.89-7.89z" fill="#4f5052"/><path d="m294.89 125.34a13.69 13.69 0 0 0 -12.43 7.95l4.15-.45 14.19-1.54 5-.55a13.67 13.67 0 0 0 -10.91-5.41z" fill="#fa5257"/><path d="m294.89 140.46a2.54 2.54 0 1 0 2.54 2.54 2.53 2.53 0 0 0 -2.54-2.54z" fill="#d1d3d4"/><path d="m298.91 136.23a7.88 7.88 0 0 1 -9.43 12.52s0 0 .06.06a7.89 7.89 0 1 0 9.37-12.58z" fill="#68696b"/><path d="m297.55 148.75a7.9 7.9 0 0 0 3.86-6.78 7.23 7.23 0 1 0 -14.41 1.03 7.94 7.94 0 0 0 2.49 5.75 7.78 7.78 0 0 0 4 1.11 8 8 0 0 0 4.06-1.11zm-5.2-5.75a2.54 2.54 0 1 1 2.54 2.54 2.53 2.53 0 0 1 -2.54-2.54z" fill="#77787a"/><path d="m211.55 119.44h-5.28a1.45 1.45 0 0 0 -1.45 1.45v2.86a1.45 1.45 0 0 0 1.45 1.45h.95a0 0 0 0 0 0 0z" fill="#f54"/><path d="m214.41 118.52a1.73 1.73 0 0 0 -2.42.35l-.44.57-4.31 5.73s0 0 0 0a1.73 1.73 0 0 0 .37 2.39l1 .79 5.75-7.82c.33-.45.68-.88 1-1.28z" fill="#fff"/><path d="m278.64 91.41a4.61 4.61 0 0 0 0 9.21h1.87v-9.21z" fill="#fa5257"/><path d="m282.39 100.62a4.69 4.69 0 0 0 .84-.08v-9a5.83 5.83 0 0 0 -.84-.07h-1.88v9.2h1.88z" fill="#fff"/><path d="m266.47 94.36a1.64 1.64 0 0 0 -.37 0h-3.78a1.7 1.7 0 0 0 0 3.39h3.78a1.64 1.64 0 0 0 .37 0 1.69 1.69 0 0 0 1.33-1.75 1.73 1.73 0 0 0 -1.33-1.64z" fill="#58595b"/><path d="m267.78 96a1.67 1.67 0 0 1 -1.33 1.64 1.49 1.49 0 0 1 -.36 0h11.05a1.69 1.69 0 0 0 1.69-1.64z" fill="#eb4c51"/><path d="m277.16 94.31h-11.06a1.64 1.64 0 0 1 .37 0 1.7 1.7 0 0 1 1.33 1.69h11.06a1.71 1.71 0 0 0 -1.7-1.69z" fill="#fa6c6f"/><path d="m274.31 94.31h-.57v-7.13a4.86 4.86 0 0 0 -3-4.39l.2-.53a5.5 5.5 0 0 1 3.39 4.92v7.13z" fill="#fff"/><path d="m267.87 78.8v7.61a2.13 2.13 0 0 0 2.13-2.14v-3.34a2.13 2.13 0 0 0 -2.13-2.13z" fill="#fff"/><path d="m270 80.87v3.45a1 1 0 0 0 1-1v-1.48a1 1 0 0 0 -1-.97z" fill="#d1d3d4"/><path d="m253 110.85a5.87 5.87 0 0 0 -5.56-4h-25.67a5.88 5.88 0 0 0 -5.88 5.88v2h6.44a16.43 16.43 0 0 1 10.66 0h20.32v-2a5.93 5.93 0 0 0 -.31-1.88z" fill="#fff"/><path d="m222.33 114.71h-6.44v4.07a16.51 16.51 0 0 1 6.44-4.07z" fill="#fa5257"/><path d="m237.42 117a16.47 16.47 0 0 0 -15.08-2.31 16.51 16.51 0 0 0 -6.44 4.07c-.16.16-.31.31-.48.5-.36.4-.71.83-1 1.28l-5.75 7.82-8.33 11.35h40.88a16.48 16.48 0 0 0 -3.8-22.71z" fill="#fa6c6f"/><path d="m207 136.35 10.11-13.79c.26-.35.55-.7.83-1a13.23 13.23 0 0 1 5.51-3.63 13.07 13.07 0 0 1 8.47 0 12.48 12.48 0 0 1 3.5 1.84 13 13 0 0 1 3.87 16.6z" fill="#fa5257"/><path d="m236.69 131.77a1.16 1.16 0 0 0 -1.16-1.17h-19.94a1.17 1.17 0 0 0 -1.17 1.17 1.17 1.17 0 0 0 1.17 1.16h19.94a1.16 1.16 0 0 0 1.16-1.16z" fill="#fa6c6f"/><path d="m236.69 126.78a1.16 1.16 0 0 0 -1.16-1.17h-15.36a1.17 1.17 0 0 0 -1.17 1.17 1.17 1.17 0 0 0 1.17 1.16h15.37a1.15 1.15 0 0 0 1.15-1.16z" fill="#fa6c6f"/><path d="m300.8 131.3-14.19 1.54a12.53 12.53 0 0 0 -2.06 2.12l19.16-1.67a13.51 13.51 0 0 0 -2.91-1.99z" fill="#404142" opacity=".8"/><path d="m238.77 139.73h-25.41a13 13 0 0 0 -.36 2.27l26.16.46a14.37 14.37 0 0 0 -.39-2.73z" fill="#231f20" opacity=".2"/><path d="m279.91 135.67a8.11 8.11 0 0 1 -4.18 5.92 12.82 12.82 0 0 0 5.95-6.15c.12-.26.22-.51.31-.74s.05-.32.08-.49.12-.61.18-.9a13.73 13.73 0 0 1 10.07-10.12 9 9 0 0 0 -.35-2.07c-1.9.36-10.67 2.57-12.06 14.55z" fill="#eb4c51"/><path d="m279.59 124.81a.53.53 0 0 1 -.53.53.53.53 0 0 1 -.53-.53v-16.53a.54.54 0 0 1 .53-.53.54.54 0 0 1 .53.53z" fill="#eb4c51"/><path d="m286.12 93.74a4.31 4.31 0 0 0 -2.58-1.91l.18 7.55s3.64-1.3 2.4-5.64z" fill="#ffd962"/><path d="m286.12 93.74c1.24 4.35-2.4 5.64-2.4 5.64l-.18-7.55c-.09 0-.2 0-.29-.06v8.52a4.34 4.34 0 0 0 3.54-4.29 4.47 4.47 0 0 0 -.67-2.26z" fill="#ebc75a"/><path d="m209.21 121.23a.51.51 0 0 1 -.5.5h-2.1a.5.5 0 0 1 -.5-.5.5.5 0 0 1 .5-.5h2.1a.5.5 0 0 1 .5.5z" fill="#ff7b6e"/><path d="m246.81 132.14s.51 7.74 9.21 6.88h-.61a6.77 6.77 0 0 1 -6.77-6.77v-6.93l4.66-10.63h-2l-4.48 9.59v7.86z" fill="#eb4c51"/><path d="m242.11 140.38a17.48 17.48 0 0 0 -4-24.26 16.33 16.33 0 0 0 -2.25-1.41h-2.86a16.5 16.5 0 0 1 8.18 25h-1.41a8.33 8.33 0 0 0 .88 1.14h1.13z" fill="#eb4c51"/><path d="m227.85 110.58a1.14 1.14 0 0 0 1.13 1.14h18.39a1.13 1.13 0 0 0 1.13-1.14 1.13 1.13 0 0 0 -1.13-1.13h-18.37a1.14 1.14 0 0 0 -1.13 1.13z" fill="#e6e7e8"/><path d="m280.22 100.62h-1.58a4.57 4.57 0 0 1 -1.23-.17v1.47c.62.07 1.92.21 3.22.23z" fill="#eb4c51"/><path d="m284.28 115.74-3.63-13.58a28.29 28.29 0 0 1 -3.22-.23v30.35a7.26 7.26 0 0 1 -.2 1.62 6.76 6.76 0 0 1 -6.56 5.15h-14.62c-8.7.87-9.21-6.88-9.21-6.88v-7.84l4.47-9.59h-15.43a18.35 18.35 0 0 1 2.25 1.41 17.5 17.5 0 0 1 4 24.26l-.33.49h-1.13a6.62 6.62 0 0 0 4.91 2.15h23.68a14.55 14.55 0 0 0 6.5-1.4 8.08 8.08 0 0 0 4.17-5.92c1.38-12 10.16-14.2 12.07-14.53-1.6-5.49-7.72-5.46-7.72-5.46z" fill="#fa5257"/><ellipse cx="117.13" cy="264.34" fill="#283032" rx="18.35" ry="16.39"/><circle cx="156.45" cy="264.99" fill="#283132" r="17.04"/><circle cx="152.52" cy="264.99" fill="#231f20" r="17.04"/><circle cx="261.97" cy="266.96" fill="#283132" r="17.04"/><circle cx="258.04" cy="266.96" fill="#231f20" r="17.04"/><circle cx="113.85" cy="264.34" fill="none" r="1.97" stroke="#8a5d3b" stroke-miterlimit="10"/><rect fill="#556368" height="9.18" rx="3.5" width="155.99" x="98.78" y="258.44"/><ellipse cx="113.52" cy="264.34" fill="#3f4d52" rx="17.37" ry="16.39"/><circle cx="113.85" cy="264.34" fill="#221f20" r="12.45"/><path d="m104.02 255.82 6.55 5.24-1.31 2.62-7.86 2.62 2.62 3.94 6.55-3.94 1.32 1.32v9.17h3.93v-9.17l1.31-1.32 6.55 3.94 2.62-3.94-7.86-2.62-1.31-2.62 5.24-5.24-3.93-2.62-2.62 6.55h-3.93l-3.94-6.55z" fill="#96abb5"/><circle cx="113.85" cy="264.34" fill="none" r="12.45" stroke="#273133" stroke-miterlimit="10" stroke-width="1.5"/><circle cx="113.85" cy="264.34" fill="#221f20" r="1.31"/><ellipse cx="225.93" cy="265.65" fill="#283032" rx="18.35" ry="16.39"/><ellipse cx="222.32" cy="265.65" fill="#3f4d52" rx="17.37" ry="16.39"/><circle cx="222.65" cy="265.65" fill="#221f20" r="12.45"/><path d="m212.82 257.13 6.55 5.24-1.31 2.62-7.86 2.63 2.62 3.93 6.55-3.93 1.31 1.31v9.17h3.94v-9.17l1.31-1.31 6.55 3.93 2.62-3.93-7.86-2.63-1.31-2.62 5.24-5.24-3.93-2.62-2.62 6.55h-3.94l-3.93-6.55z" fill="#96abb5"/><circle cx="222.65" cy="265.65" fill="none" r="12.45" stroke="#273133" stroke-miterlimit="10" stroke-width="1.5"/><circle cx="222.65" cy="265.65" fill="#221f20" r="1.31"/><path d="m60.76 158.82 23.6 91.75h201.86l26.22-94.37z" fill="#5e7683"/><path d="m235.76 154.23v96.34h54.98l23.01-98.31z" fill="#556368"/><path d="m88.29 153.57 17.04 70.79 98.97.65-3.28-75.37z" fill="#3e5360"/><path d="m61.42 163.41 23.59 86.51h150.75v-93.07h-23.6l3.28 72.75h-115.35l-19.66-76.03z" fill="#95a8b0"/><path d="m47 145.05 5.24 19.67h167.79 102.24l5.24-19.67z" fill="#3f4d52"/><path d="m235.76 145.05.39 19.01h86.23l4.48-19.66z" fill="#232b2d"/><path d="m62.95 169.85h245.87l2.12-8-250.83-.41z" fill="#232b2d" opacity=".5"/><g fill="#62757e"><circle cx="210.85" cy="242.05" r="1.97"/><circle cx="224.61" cy="224.36" r="1.97"/><circle cx="225.93" cy="242.71" r="1.97"/><circle cx="224.61" cy="207.32" r="1.97"/><circle cx="224.61" cy="191.59" r="1.97"/><circle cx="224.61" cy="177.17" r="1.97"/><circle cx="191.19" cy="242.05" r="1.97"/><circle cx="171.53" cy="242.05" r="1.97"/><circle cx="151.86" cy="242.05" r="1.97"/><circle cx="132.2" cy="242.05" r="1.97"/><circle cx="112.54" cy="242.05" r="1.97"/><circle cx="92.88" cy="242.05" r="1.97"/><circle cx="87.64" cy="225.01" r="1.97"/><circle cx="82.39" cy="207.97" r="1.97"/><circle cx="78.46" cy="190.93" r="1.97"/><circle cx="74.53" cy="176.51" r="1.97"/></g><path d="m92 21.8a19 19 0 0 0 -4.24 5.08 19 19 0 0 1 1.42 11.52 8.27 8.27 0 0 1 2.44 2.13 19.06 19.06 0 0 0 1.2-18.53.56.56 0 0 0 -.82-.2z" fill="#4fb84a"/><path d="m82.92 21.48a19.2 19.2 0 0 0 -1.92 4.64 19.1 19.1 0 0 1 3.32 11.21 8.29 8.29 0 0 1 4.84 1.07 19.18 19.18 0 0 0 .14-6.06 19 19 0 0 0 -5.51-11 .57.57 0 0 0 -.89.12z" fill="#ffdb6d"/><path d="m81.74 38a8.35 8.35 0 0 1 2.6-.65 19.08 19.08 0 0 0 -9.84-17.16.57.57 0 0 0 -.83.35 19 19 0 0 0 5.82 18.89 8.44 8.44 0 0 1 2.25-1.43z" fill="#4fb84a"/><path d="m79.49 39.43a19 19 0 0 1 -5.94-10.07 19 19 0 0 0 -4.68-1.77.56.56 0 0 0 -.69.56 19 19 0 0 0 8.82 15.56 8.33 8.33 0 0 1 2.52-4.28z" fill="#ffdb6d"/><path d="m77 43.71a19.06 19.06 0 0 1 -7.42-8.94 19.16 19.16 0 0 0 -6.61-.37.57.57 0 0 0 -.46.77 18.94 18.94 0 0 0 8 9.36 18.73 18.73 0 0 0 6.43 2.41 8.16 8.16 0 0 1 .06-3.23z" fill="#4fb84a"/><path d="m80.24 53.46-2.62-4.2c-.1-.19-.19-.38-.28-.57a8.3 8.3 0 0 1 15.22-6.62c.09.2.16.39.23.59l1.49 5.09" fill="#dc4e9c"/><path d="m83.26 41.48a4.25 4.25 0 1 1 -2.21 5.59 4.24 4.24 0 0 1 2.21-5.59z" fill="#fcb867"/><path d="m104.07 47.87a8.2 8.2 0 0 1 -9.58 6.54l-2-.38a8.19 8.19 0 0 1 9.57-6.54l2 .38zm-18.68 10.49a8.18 8.18 0 0 1 -11.31 2.54l1.09-1.72a8.2 8.2 0 0 1 11.32-2.54zm24-21.51a1.31 1.31 0 0 0 -2.37-.11 11.34 11.34 0 0 1 -2.68 3.4 15.56 15.56 0 0 1 -5.13 2.62c-4.19 1.55-5.41 1-7.67 2.32a10.41 10.41 0 0 0 -3.21 2.92 4.27 4.27 0 0 1 -3.82 1.66 10.5 10.5 0 0 0 -4.31.34c-2.49.79-3 2-6.94 4a15.33 15.33 0 0 1 -5.41 2 11.36 11.36 0 0 1 -4.31-.37 1.31 1.31 0 0 0 -1.54 1.82c.1.21.21.41.32.6.79 1.34 2.95 6 8.21 8.58a14.09 14.09 0 0 0 9.25 1.56c5-1.1 8.91-5.39 9.45-6.57a3.39 3.39 0 0 1 1.2-1.5c.09 0 1.44-.64 1.56-.68a3.26 3.26 0 0 1 1.89.16c1.23.42 7 .5 11.24-2.43a14.08 14.08 0 0 0 5.18-7.82c1.72-5.59-.24-10.36-.67-11.86-.06-.21-.14-.43-.22-.64z" fill="#674899"/><path d="m84.6 44.57a.88.88 0 1 1 -.45 1.16.88.88 0 0 1 .45-1.16z" fill="#7858a5"/><path d="m87.94 52.3a.88.88 0 1 1 .7 1.62.9.9 0 0 1 -1.16-.46.88.88 0 0 1 .46-1.16z" fill="#ffdb6d"/><path d="m84.3 52.09a.88.88 0 1 1 -.46 1.16.88.88 0 0 1 .46-1.16z" fill="#ffdb6d"/><path d="m80.54 51.93a.88.88 0 1 1 -.46 1.16.88.88 0 0 1 .46-1.16z" fill="#ffdb6d"/><path d="m77.28 53.22a.88.88 0 1 1 -.46 1.16.87.87 0 0 1 .46-1.16z" fill="#ffdb6d"/><path d="m74.55 55a.88.88 0 1 1 -.46 1.16.88.88 0 0 1 .46-1.16z" fill="#ffdb6d"/><path d="m72 57.05a.88.88 0 1 1 -.46 1.16.87.87 0 0 1 .46-1.16z" fill="#ffdb6d"/><path d="m90.53 49.38a.88.88 0 1 1 .71 1.62.88.88 0 0 1 -.71-1.62z" fill="#ffdb6d"/><path d="m93 46.52a.9.9 0 0 1 1.16.46.88.88 0 1 1 -1.16-.46z" fill="#ffdb6d"/><path d="m96.16 45a.88.88 0 1 1 -.46 1.16.87.87 0 0 1 .46-1.16z" fill="#ffdb6d"/><path d="m99.3 44.22a.88.88 0 1 1 -.46 1.16.87.87 0 0 1 .46-1.16z" fill="#ffdb6d"/><path d="m102.57 43.75a.89.89 0 0 1 1.16.46.88.88 0 1 1 -1.62.7.89.89 0 0 1 .46-1.16z" fill="#ffdb6d"/><g fill="#232b2d" opacity=".69"><path d="m105.22 175.1a1.76 1.76 0 0 1 1.62-1.07 1.71 1.71 0 0 1 1.74 1.7 2 2 0 0 1 -.19.83l-3.28 7a1.8 1.8 0 0 1 -3.34.09l-3.24-7a2.32 2.32 0 0 1 -.25-.95 1.75 1.75 0 0 1 1.77-1.69 1.79 1.79 0 0 1 1.69 1.25l1.68 3.95z"/><path d="m114.91 173.85a5.54 5.54 0 1 1 -5.55 5.48 5.54 5.54 0 0 1 5.55-5.48zm0 7.63a2.09 2.09 0 0 0 2.07-2.09 2.07 2.07 0 0 0 -4.14 0 2.1 2.1 0 0 0 2.09 2.09z"/><path d="m127 181.4a1.91 1.91 0 0 1 1.24.32 1.62 1.62 0 0 1 .66 1.29 1.75 1.75 0 0 1 -.53 1.25 1.73 1.73 0 0 1 -1.29.4h-3.32a1.76 1.76 0 0 1 -1.47-.56c-.43-.47-.48-.71-.48-2.16v-5.94a1.74 1.74 0 0 1 1.73-2 1.76 1.76 0 0 1 1.36.63 2.41 2.41 0 0 1 .4 1.74v5z"/><path d="m132.8 180.24c0 .76.35 1.22.95 1.22s.95-.44.95-1.17v-4.21a1.79 1.79 0 0 1 1.73-2.05 1.86 1.86 0 0 1 1.36.63c.33.39.41.71.41 1.66v3.75a4.67 4.67 0 0 1 -1.11 3.31 4.4 4.4 0 0 1 -6.93-.29 4.42 4.42 0 0 1 -.85-3v-3.72c0-1 .06-1.25.36-1.64a1.81 1.81 0 0 1 1.38-.68 1.85 1.85 0 0 1 1.28.55 1.9 1.9 0 0 1 .47 1.5z"/><path d="m145.63 176.16a2.14 2.14 0 0 1 .31-1.38 1.76 1.76 0 0 1 1.43-.75 1.73 1.73 0 0 1 1.33.63 2 2 0 0 1 .41 1.39v6.46a2.25 2.25 0 0 1 -.38 1.58 1.72 1.72 0 0 1 -1.36.65 1.68 1.68 0 0 1 -1.37-.74l-2.75-3.53v2.21a1.9 1.9 0 0 1 -.4 1.39 1.74 1.74 0 0 1 -1.34.64 1.82 1.82 0 0 1 -1.4-.68 2.19 2.19 0 0 1 -.36-1.49v-6.68a1.74 1.74 0 0 1 1.82-1.86 1.58 1.58 0 0 1 1.3.69l2.77 3.4z"/><path d="m152 177.35a1.64 1.64 0 0 1 -1.81-1.62 1.67 1.67 0 0 1 .9-1.45c.37-.16.51-.18 1.89-.18h3.51a5.52 5.52 0 0 1 1.19 0 1.57 1.57 0 0 1 1.42 1.58 1.74 1.74 0 0 1 -.57 1.25 1.93 1.93 0 0 1 -1.34.38h-.78v5.25a2.35 2.35 0 0 1 -.3 1.35 1.68 1.68 0 0 1 -1.44.79 1.74 1.74 0 0 1 -1.44-.73 2.14 2.14 0 0 1 -.3-1.38v-5.28z"/><path d="m165.31 181.4a1.94 1.94 0 0 1 1.45.39 1.62 1.62 0 0 1 .57 1.24 1.72 1.72 0 0 1 -.57 1.27 2 2 0 0 1 -1.44.36h-2.7a3.41 3.41 0 0 1 -1.33-.14 1.6 1.6 0 0 1 -1-1.27 4 4 0 0 1 -.06-1v-5.73c0-.89 0-1 .16-1.33a1.54 1.54 0 0 1 .83-.87 3.06 3.06 0 0 1 1.51-.18h2.09a4.68 4.68 0 0 1 1.33.08 1.57 1.57 0 0 1 1.2 1.52 1.69 1.69 0 0 1 -.57 1.29 1.91 1.91 0 0 1 -1.33.37h-1.74v.73h1.38a1.26 1.26 0 0 1 1.4 1.25 1.31 1.31 0 0 1 -.45 1 1.59 1.59 0 0 1 -1.08.27h-1.25v.79z"/><path d="m173.63 181.4a2 2 0 0 1 1.46.39 1.65 1.65 0 0 1 .57 1.24 1.72 1.72 0 0 1 -.57 1.27 2 2 0 0 1 -1.44.36h-2.71a3.39 3.39 0 0 1 -1.32-.14 1.6 1.6 0 0 1 -1-1.27 4 4 0 0 1 -.06-1v-5.73a2.73 2.73 0 0 1 .15-1.33 1.59 1.59 0 0 1 .84-.87 3.06 3.06 0 0 1 1.51-.18h2.08a4.57 4.57 0 0 1 1.33.08 1.56 1.56 0 0 1 1.21 1.52 1.69 1.69 0 0 1 -.57 1.29 1.91 1.91 0 0 1 -1.33.37h-1.78v.73h1.37a1.26 1.26 0 0 1 1.41 1.25 1.28 1.28 0 0 1 -.46 1 1.56 1.56 0 0 1 -1.07.27h-1.25v.79z"/><path d="m184.67 181.91a2.14 2.14 0 0 1 .33 1.09 1.7 1.7 0 0 1 -1.74 1.71 1.63 1.63 0 0 1 -1.44-.81l-1.44-2.39v1.49a1.7 1.7 0 0 1 -1.71 1.76 1.77 1.77 0 0 1 -1.36-.64 2.29 2.29 0 0 1 -.41-1.48v-6.51a1.84 1.84 0 0 1 .57-1.55 2 2 0 0 1 1.58-.46h1.46a6.41 6.41 0 0 1 1.69.16 3.78 3.78 0 0 1 2.8 3.62 3.72 3.72 0 0 1 -1.13 2.69zm-4.29-3.44h.38c.52 0 .79-.17.79-.55s-.28-.59-.81-.57a2.71 2.71 0 0 1 -.36 0z"/><path d="m111.59 196.36a1.67 1.67 0 0 1 .25.85 1.29 1.29 0 0 1 -1.32 1.29 1.21 1.21 0 0 1 -1.09-.61l-1.09-1.81v1.09a1.29 1.29 0 0 1 -1.3 1.33 1.33 1.33 0 0 1 -1-.48 1.68 1.68 0 0 1 -.31-1.12v-4.9a1.4 1.4 0 0 1 .43-1.18 1.54 1.54 0 0 1 1.2-.35h1.1a4.94 4.94 0 0 1 1.28.12 2.87 2.87 0 0 1 2.1 2.76 2.83 2.83 0 0 1 -.85 2zm-3.25-2.61h.28c.4 0 .6-.13.6-.42s-.21-.44-.61-.43h-.27z"/><path d="m116.76 196a1.47 1.47 0 0 1 1.1.3 1.23 1.23 0 0 1 .43.94 1.27 1.27 0 0 1 -.43 1 1.48 1.48 0 0 1 -1.09.27h-2a2.47 2.47 0 0 1 -1-.11 1.18 1.18 0 0 1 -.75-1 2.91 2.91 0 0 1 0-.8v-4.34a2 2 0 0 1 .12-1 1.2 1.2 0 0 1 .63-.66 2.29 2.29 0 0 1 1.14-.14h1.59a3.72 3.72 0 0 1 1 .06 1.18 1.18 0 0 1 .92 1.16 1.25 1.25 0 0 1 -.44 1 1.41 1.41 0 0 1 -1 .28h-1.32v.56h1a1 1 0 0 1 1.07.94 1 1 0 0 1 -.35.76 1.16 1.16 0 0 1 -.82.2h-.94v.6z"/><path d="m121.88 197a1.35 1.35 0 0 1 -1.32 1.52 1.3 1.3 0 0 1 -1.1-.6c-.2-.32-.23-.45-.23-1.26v-4.66a1.4 1.4 0 0 1 .36-1.13 1.38 1.38 0 0 1 1.08-.4h1.11a3.44 3.44 0 0 1 2.44.62 2.84 2.84 0 0 1 0 4.56 2.82 2.82 0 0 1 -1.86.58h-.45zm0-3.23c.64 0 .88-.08.88-.44s-.24-.42-.64-.42h-.24z"/><path d="m132.17 196.36a1.67 1.67 0 0 1 .25.85 1.29 1.29 0 0 1 -1.32 1.29 1.21 1.21 0 0 1 -1.09-.61l-1.09-1.81v1.09a1.29 1.29 0 0 1 -1.3 1.33 1.33 1.33 0 0 1 -1-.48 1.68 1.68 0 0 1 -.31-1.12v-4.9a1.4 1.4 0 0 1 .43-1.18 1.54 1.54 0 0 1 1.2-.35h1.06a4.94 4.94 0 0 1 1.28.12 2.87 2.87 0 0 1 2.1 2.76 2.83 2.83 0 0 1 -.85 2zm-3.25-2.61h.28c.4 0 .6-.13.6-.42s-.21-.44-.61-.43h-.27z"/><path d="m137.34 196a1.47 1.47 0 0 1 1.1.3 1.23 1.23 0 0 1 .43.94 1.27 1.27 0 0 1 -.43 1 1.48 1.48 0 0 1 -1.09.27h-2a2.47 2.47 0 0 1 -1-.11 1.18 1.18 0 0 1 -.75-1 2.91 2.91 0 0 1 0-.8v-4.34a2 2 0 0 1 .12-1 1.2 1.2 0 0 1 .63-.66 2.29 2.29 0 0 1 1.14-.14h1.51a3.72 3.72 0 0 1 1 .06 1.18 1.18 0 0 1 .92 1.16 1.25 1.25 0 0 1 -.44 1 1.41 1.41 0 0 1 -1 .28h-1.32v.56h1a1 1 0 0 1 1.07.94 1 1 0 0 1 -.35.76 1.16 1.16 0 0 1 -.82.2h-.94v.6z"/><path d="m139.58 196.62a1.19 1.19 0 0 1 1.2-1.2 1.43 1.43 0 0 1 .94.38c.57.45.65.5.84.5a.33.33 0 0 0 .33-.35.38.38 0 0 0 -.2-.34 2.26 2.26 0 0 0 -.53-.23l-.64-.22a2.28 2.28 0 0 1 -1.74-2.28 2.66 2.66 0 0 1 2.93-2.63c1.44 0 2.57.77 2.57 1.75a1 1 0 0 1 -1 1.09 1.71 1.71 0 0 1 -1.09-.45c-.28-.23-.41-.29-.55-.29a.32.32 0 0 0 -.32.31c0 .24.17.35.8.55a5.28 5.28 0 0 1 1.7.84 2.49 2.49 0 0 1 .8 1.89 2.72 2.72 0 0 1 -.75 1.9 3 3 0 0 1 -2.25.81c-1.73 0-3.04-.89-3.04-2.03z"/><path d="m150.42 196a1.47 1.47 0 0 1 1.1.3 1.23 1.23 0 0 1 .43.94 1.27 1.27 0 0 1 -.43 1 1.48 1.48 0 0 1 -1.09.27h-2.05a2.47 2.47 0 0 1 -1-.11 1.18 1.18 0 0 1 -.75-1 2.91 2.91 0 0 1 -.05-.8v-4.34a2 2 0 0 1 .12-1 1.2 1.2 0 0 1 .63-.66 2.29 2.29 0 0 1 1.14-.14h1.59a3.72 3.72 0 0 1 1 .06 1.18 1.18 0 0 1 .92 1.16 1.25 1.25 0 0 1 -.44 1 1.41 1.41 0 0 1 -1 .28h-1.32v.56h1a1 1 0 0 1 1.07.94 1 1 0 0 1 -.35.76 1.16 1.16 0 0 1 -.82.2h-.94v.6z"/><path d="m157.35 192a1.61 1.61 0 0 1 .24-1 1.3 1.3 0 0 1 2.09-.1 1.51 1.51 0 0 1 .31 1.06v4.89a1.69 1.69 0 0 1 -.29 1.2 1.29 1.29 0 0 1 -1 .49 1.26 1.26 0 0 1 -1-.54l-2.09-2.67v1.67a1.41 1.41 0 0 1 -.3 1.05 1.33 1.33 0 0 1 -1 .48 1.35 1.35 0 0 1 -1.05-.51 1.62 1.62 0 0 1 -.28-1.13v-5.09a1.32 1.32 0 0 1 1.38-1.42 1.19 1.19 0 0 1 1 .53l2.1 2.58z"/><path d="m162.2 192.9a1.29 1.29 0 0 1 -1-.35 1.22 1.22 0 0 1 .31-2c.28-.12.38-.14 1.43-.14h2.66a4.22 4.22 0 0 1 .9 0 1.2 1.2 0 0 1 1.08 1.2 1.32 1.32 0 0 1 -.43.94 1.43 1.43 0 0 1 -1 .29h-.59v4a1.73 1.73 0 0 1 -.23 1 1.24 1.24 0 0 1 -1.09.6 1.32 1.32 0 0 1 -1.09-.55 1.62 1.62 0 0 1 -.23-1v-4z"/><path d="m168.29 198.5a1.3 1.3 0 0 1 -1.31-1.32 1.63 1.63 0 0 1 .17-.69l2.5-5.31a1.33 1.33 0 0 1 2.45 0l2.52 5.37a1.35 1.35 0 0 1 .16.64 1.32 1.32 0 0 1 -1.34 1.3c-.61 0-1-.28-1.34-1.1h-2.45c-.33.79-.73 1.11-1.36 1.11zm3-3-.4-1-.41 1z"/><path d="m175.54 192.9a1.3 1.3 0 0 1 -1-.35 1.22 1.22 0 0 1 .31-2c.28-.12.39-.14 1.43-.14h2.66a4.08 4.08 0 0 1 .9 0 1.19 1.19 0 0 1 1.08 1.2 1.32 1.32 0 0 1 -.43.94 1.43 1.43 0 0 1 -1 .29h-.59v4a1.73 1.73 0 0 1 -.23 1 1.24 1.24 0 0 1 -1.09.6 1.32 1.32 0 0 1 -1.09-.55 1.62 1.62 0 0 1 -.23-1v-4z"/><path d="m184.4 197a1.46 1.46 0 0 1 -.33 1.08 1.43 1.43 0 0 1 -1 .44 1.32 1.32 0 0 1 -1.32-1.52v-5c0-.67.06-.91.34-1.21a1.27 1.27 0 0 1 1-.44 1.33 1.33 0 0 1 1 .42 1.57 1.57 0 0 1 .35 1.23z"/><path d="m190.49 191.2a1.33 1.33 0 0 1 1.22-.82 1.31 1.31 0 0 1 1.32 1.3 1.35 1.35 0 0 1 -.15.62l-2.48 5.32a1.37 1.37 0 0 1 -2.53.07l-2.46-5.3a1.75 1.75 0 0 1 -.19-.72 1.33 1.33 0 0 1 1.34-1.29 1.38 1.38 0 0 1 1.29 1l1.27 3z"/><path d="m197.69 196a1.48 1.48 0 0 1 1.1.3 1.26 1.26 0 0 1 .43.94 1.31 1.31 0 0 1 -.43 1 1.48 1.48 0 0 1 -1.09.27h-2a2.47 2.47 0 0 1 -1-.11 1.21 1.21 0 0 1 -.76-1 3.77 3.77 0 0 1 0-.8v-4.34a2 2 0 0 1 .12-1 1.17 1.17 0 0 1 .63-.66 2.29 2.29 0 0 1 1.14-.14h1.58a3.77 3.77 0 0 1 1 .06 1.19 1.19 0 0 1 .91 1.16 1.24 1.24 0 0 1 -.43 1 1.42 1.42 0 0 1 -1 .28h-1.32v.56h1.05a1 1 0 0 1 1.07.94 1 1 0 0 1 -.35.76 1.17 1.17 0 0 1 -.82.2h-.95v.6z"/><path d="m118.22 214.37a1.77 1.77 0 0 1 .79 1.5 2 2 0 0 1 -.56 1.39 1.84 1.84 0 0 1 -1.52.44h-4.48a1.71 1.71 0 0 1 -1.89-1.78 2 2 0 0 1 .71-1.54l3.49-3.75c.28-.3.35-.43.35-.62a.5.5 0 0 0 -.51-.5.51.51 0 0 0 -.44.25l-.32.51a1.77 1.77 0 0 1 -1.42.71 2 2 0 0 1 -2-1.91c0-1.74 2-3.42 4.12-3.42a4.39 4.39 0 0 1 4.46 4.45c0 1.43-.52 2.36-2.25 4a2.26 2.26 0 0 1 1.47.27z"/><path d="m126.59 205.65a6.18 6.18 0 1 1 -6.2 6.14 6.17 6.17 0 0 1 6.2-6.14zm0 8.49a2.32 2.32 0 1 0 -2.31-2.35 2.34 2.34 0 0 0 2.31 2.35z"/><path d="m133.67 207.73a1.69 1.69 0 0 1 .72-1.43 2.12 2.12 0 0 1 1.45-.37h.58a2.2 2.2 0 0 1 1.68.5 2 2 0 0 1 .63 1.81v7.38a2 2 0 0 1 -1.92 2.17 2 2 0 0 1 -2-2.17v-6.16a1.73 1.73 0 0 1 -1.14-1.73z"/><path d="m148.68 213.82a4.31 4.31 0 0 1 -4.37 4.18c-2.14 0-4.17-1.68-4.17-3.44a1.94 1.94 0 0 1 2-1.89 1.77 1.77 0 0 1 1.5.78c.43.67.44.69.73.69a.53.53 0 0 0 .51-.55c0-.28-.14-.48-.5-.64-.67-.29-1-.65-1-1.25a1.15 1.15 0 0 1 .57-1l.47-.21a.52.52 0 0 0 -.14-1c-.21 0-.32.09-.56.44a1.82 1.82 0 0 1 -1.54.83 1.89 1.89 0 0 1 -1.92-1.85c0-1.64 1.94-3.21 4-3.21a4.14 4.14 0 0 1 4.23 3.86 2.73 2.73 0 0 1 -.79 1.93 3.29 3.29 0 0 1 .98 2.33z"/><path d="m153.47 210.68c.9 0 1.5.46 1.5 1.16s-.58 1.24-1.47 1.24h-2a1.49 1.49 0 0 1 -1.31-.44 1.08 1.08 0 0 1 -.32-.78 1.06 1.06 0 0 1 .39-.83 1.59 1.59 0 0 1 1.24-.35z"/><path d="m163.88 214.37a1.77 1.77 0 0 1 .79 1.5 2 2 0 0 1 -.56 1.39 1.84 1.84 0 0 1 -1.52.44h-4.48a1.71 1.71 0 0 1 -1.89-1.78 2 2 0 0 1 .71-1.54l3.49-3.75c.28-.3.35-.43.35-.62a.5.5 0 0 0 -.51-.5.51.51 0 0 0 -.44.25l-.32.51a1.77 1.77 0 0 1 -1.42.71 2 2 0 0 1 -2-1.91c0-1.74 2-3.42 4.13-3.42a4.39 4.39 0 0 1 4.41 4.45c0 1.43-.53 2.36-2.26 4a2.26 2.26 0 0 1 1.52.27z"/><path d="m172.25 205.65a6.18 6.18 0 1 1 -6.2 6.14 6.17 6.17 0 0 1 6.2-6.14zm0 8.49a2.32 2.32 0 1 0 -2.31-2.35 2.35 2.35 0 0 0 2.31 2.35z"/><path d="m179.33 207.73a1.69 1.69 0 0 1 .72-1.43 2.12 2.12 0 0 1 1.45-.37h.58a2.2 2.2 0 0 1 1.68.5 2 2 0 0 1 .63 1.81v7.38a2 2 0 0 1 -1.92 2.17 2 2 0 0 1 -2-2.17v-6.16a1.73 1.73 0 0 1 -1.14-1.73z"/><path d="m193.23 210.7a3.76 3.76 0 0 1 1.11 2.84 4.4 4.4 0 0 1 -4.34 4.46c-2 0-3.95-1.47-3.95-3a1.82 1.82 0 0 1 1.83-1.84 2.48 2.48 0 0 1 1.34.5c.51.33.64.4.76.4a.54.54 0 0 0 .51-.51.91.91 0 0 0 -.26-.58 2.19 2.19 0 0 0 -1.29-.37c-1.61-.14-1.83-.2-2.21-.57a1.59 1.59 0 0 1 -.38-1.5l.47-3.23c.14-1 .74-1.41 2.12-1.41h3.06c.9 0 1.21.07 1.55.34a1.88 1.88 0 0 1 -1.22 3.32h-1.87a5 5 0 0 1 2.77 1.15z"/></g><g fill="#181d1e"><path d="m106.22 175.1a1.76 1.76 0 0 1 1.62-1.07 1.71 1.71 0 0 1 1.74 1.7 2 2 0 0 1 -.19.83l-3.28 7a1.8 1.8 0 0 1 -3.34.09l-3.24-7a2.32 2.32 0 0 1 -.25-.95 1.75 1.75 0 0 1 1.77-1.69 1.79 1.79 0 0 1 1.69 1.25l1.68 3.95z"/><path d="m115.91 173.85a5.54 5.54 0 1 1 -5.55 5.48 5.54 5.54 0 0 1 5.55-5.48zm0 7.63a2.09 2.09 0 0 0 2.07-2.09 2.07 2.07 0 0 0 -4.14 0 2.1 2.1 0 0 0 2.09 2.09z"/><path d="m128 181.4a1.91 1.91 0 0 1 1.24.32 1.62 1.62 0 0 1 .66 1.29 1.75 1.75 0 0 1 -.53 1.25 1.73 1.73 0 0 1 -1.29.4h-3.32a1.76 1.76 0 0 1 -1.47-.56c-.43-.47-.48-.71-.48-2.16v-5.94a1.74 1.74 0 0 1 1.73-2 1.76 1.76 0 0 1 1.36.63 2.41 2.41 0 0 1 .4 1.74v5z"/><path d="m133.8 180.24c0 .76.35 1.22.95 1.22s.95-.44.95-1.17v-4.21a1.79 1.79 0 0 1 1.73-2.05 1.86 1.86 0 0 1 1.36.63c.33.39.41.71.41 1.66v3.75a4.67 4.67 0 0 1 -1.11 3.31 4.4 4.4 0 0 1 -6.93-.29 4.42 4.42 0 0 1 -.85-3v-3.72c0-1 .06-1.25.36-1.64a1.81 1.81 0 0 1 1.38-.68 1.85 1.85 0 0 1 1.28.55 1.9 1.9 0 0 1 .47 1.5z"/><path d="m146.63 176.16a2.14 2.14 0 0 1 .31-1.38 1.76 1.76 0 0 1 1.43-.75 1.73 1.73 0 0 1 1.33.63 2 2 0 0 1 .41 1.39v6.46a2.25 2.25 0 0 1 -.38 1.58 1.72 1.72 0 0 1 -1.36.65 1.68 1.68 0 0 1 -1.37-.74l-2.75-3.53v2.21a1.9 1.9 0 0 1 -.4 1.39 1.74 1.74 0 0 1 -1.34.64 1.82 1.82 0 0 1 -1.4-.68 2.19 2.19 0 0 1 -.36-1.49v-6.68a1.74 1.74 0 0 1 1.82-1.86 1.58 1.58 0 0 1 1.3.69l2.77 3.4z"/><path d="m153 177.35a1.64 1.64 0 0 1 -1.81-1.62 1.67 1.67 0 0 1 .9-1.45c.37-.16.51-.18 1.89-.18h3.51a5.52 5.52 0 0 1 1.19 0 1.57 1.57 0 0 1 1.42 1.58 1.74 1.74 0 0 1 -.57 1.25 1.93 1.93 0 0 1 -1.34.38h-.78v5.25a2.35 2.35 0 0 1 -.3 1.35 1.68 1.68 0 0 1 -1.44.79 1.74 1.74 0 0 1 -1.44-.73 2.14 2.14 0 0 1 -.3-1.38v-5.28z"/><path d="m166.31 181.4a1.94 1.94 0 0 1 1.45.39 1.62 1.62 0 0 1 .57 1.24 1.72 1.72 0 0 1 -.57 1.27 2 2 0 0 1 -1.44.36h-2.7a3.41 3.41 0 0 1 -1.33-.14 1.6 1.6 0 0 1 -1-1.27 4 4 0 0 1 -.06-1v-5.73c0-.89 0-1 .16-1.33a1.54 1.54 0 0 1 .83-.87 3.06 3.06 0 0 1 1.51-.18h2.09a4.68 4.68 0 0 1 1.33.08 1.57 1.57 0 0 1 1.2 1.52 1.69 1.69 0 0 1 -.57 1.29 1.91 1.91 0 0 1 -1.33.37h-1.74v.73h1.38a1.26 1.26 0 0 1 1.4 1.25 1.31 1.31 0 0 1 -.45 1 1.59 1.59 0 0 1 -1.08.27h-1.25v.79z"/><path d="m174.63 181.4a2 2 0 0 1 1.46.39 1.65 1.65 0 0 1 .57 1.24 1.72 1.72 0 0 1 -.57 1.27 2 2 0 0 1 -1.44.36h-2.71a3.39 3.39 0 0 1 -1.32-.14 1.6 1.6 0 0 1 -1-1.27 4 4 0 0 1 -.06-1v-5.73a2.73 2.73 0 0 1 .15-1.33 1.59 1.59 0 0 1 .84-.87 3.06 3.06 0 0 1 1.51-.18h2.08a4.57 4.57 0 0 1 1.33.08 1.56 1.56 0 0 1 1.21 1.52 1.69 1.69 0 0 1 -.57 1.29 1.91 1.91 0 0 1 -1.33.37h-1.78v.73h1.37a1.26 1.26 0 0 1 1.41 1.25 1.28 1.28 0 0 1 -.46 1 1.56 1.56 0 0 1 -1.07.27h-1.25v.79z"/><path d="m185.67 181.91a2.14 2.14 0 0 1 .33 1.09 1.7 1.7 0 0 1 -1.74 1.71 1.63 1.63 0 0 1 -1.44-.81l-1.44-2.39v1.49a1.7 1.7 0 0 1 -1.71 1.76 1.77 1.77 0 0 1 -1.36-.64 2.29 2.29 0 0 1 -.41-1.48v-6.51a1.84 1.84 0 0 1 .57-1.55 2 2 0 0 1 1.58-.46h1.46a6.41 6.41 0 0 1 1.69.16 3.78 3.78 0 0 1 2.8 3.62 3.72 3.72 0 0 1 -1.13 2.69zm-4.29-3.44h.38c.52 0 .79-.17.79-.55s-.28-.59-.81-.57a2.71 2.71 0 0 1 -.36 0z"/><path d="m112.59 196.36a1.67 1.67 0 0 1 .25.85 1.29 1.29 0 0 1 -1.32 1.29 1.21 1.21 0 0 1 -1.09-.61l-1.09-1.81v1.09a1.29 1.29 0 0 1 -1.3 1.33 1.33 1.33 0 0 1 -1-.48 1.68 1.68 0 0 1 -.31-1.12v-4.9a1.4 1.4 0 0 1 .43-1.18 1.54 1.54 0 0 1 1.2-.35h1.1a4.94 4.94 0 0 1 1.28.12 2.87 2.87 0 0 1 2.1 2.76 2.83 2.83 0 0 1 -.85 2zm-3.25-2.61h.28c.4 0 .6-.13.6-.42s-.21-.44-.61-.43h-.27z"/><path d="m117.76 196a1.47 1.47 0 0 1 1.1.3 1.23 1.23 0 0 1 .43.94 1.27 1.27 0 0 1 -.43 1 1.48 1.48 0 0 1 -1.09.27h-2a2.47 2.47 0 0 1 -1-.11 1.18 1.18 0 0 1 -.75-1 2.91 2.91 0 0 1 0-.8v-4.34a2 2 0 0 1 .12-1 1.2 1.2 0 0 1 .63-.66 2.29 2.29 0 0 1 1.14-.14h1.59a3.72 3.72 0 0 1 1 .06 1.18 1.18 0 0 1 .92 1.16 1.25 1.25 0 0 1 -.44 1 1.41 1.41 0 0 1 -1 .28h-1.32v.56h1a1 1 0 0 1 1.07.94 1 1 0 0 1 -.35.76 1.16 1.16 0 0 1 -.82.2h-.94v.6z"/><path d="m122.88 197a1.35 1.35 0 0 1 -1.32 1.52 1.3 1.3 0 0 1 -1.1-.6c-.2-.32-.23-.45-.23-1.26v-4.66a1.4 1.4 0 0 1 .36-1.13 1.38 1.38 0 0 1 1.08-.4h1.11a3.44 3.44 0 0 1 2.44.62 2.84 2.84 0 0 1 0 4.56 2.82 2.82 0 0 1 -1.86.58h-.45zm0-3.23c.64 0 .88-.08.88-.44s-.24-.42-.64-.42h-.24z"/><path d="m133.17 196.36a1.67 1.67 0 0 1 .25.85 1.29 1.29 0 0 1 -1.32 1.29 1.21 1.21 0 0 1 -1.09-.61l-1.09-1.81v1.09a1.29 1.29 0 0 1 -1.3 1.33 1.33 1.33 0 0 1 -1-.48 1.68 1.68 0 0 1 -.31-1.12v-4.9a1.4 1.4 0 0 1 .43-1.18 1.54 1.54 0 0 1 1.2-.35h1.06a4.94 4.94 0 0 1 1.28.12 2.87 2.87 0 0 1 2.1 2.76 2.83 2.83 0 0 1 -.85 2zm-3.25-2.61h.28c.4 0 .6-.13.6-.42s-.21-.44-.61-.43h-.27z"/><path d="m138.34 196a1.47 1.47 0 0 1 1.1.3 1.23 1.23 0 0 1 .43.94 1.27 1.27 0 0 1 -.43 1 1.48 1.48 0 0 1 -1.09.27h-2a2.47 2.47 0 0 1 -1-.11 1.18 1.18 0 0 1 -.75-1 2.91 2.91 0 0 1 0-.8v-4.34a2 2 0 0 1 .12-1 1.2 1.2 0 0 1 .63-.66 2.29 2.29 0 0 1 1.14-.14h1.51a3.72 3.72 0 0 1 1 .06 1.18 1.18 0 0 1 .92 1.16 1.25 1.25 0 0 1 -.44 1 1.41 1.41 0 0 1 -1 .28h-1.32v.56h1a1 1 0 0 1 1.07.94 1 1 0 0 1 -.35.76 1.16 1.16 0 0 1 -.82.2h-.94v.6z"/><path d="m140.58 196.62a1.19 1.19 0 0 1 1.2-1.2 1.43 1.43 0 0 1 .94.38c.57.45.65.5.84.5a.33.33 0 0 0 .33-.35.38.38 0 0 0 -.2-.34 2.26 2.26 0 0 0 -.53-.23l-.64-.22a2.28 2.28 0 0 1 -1.74-2.28 2.66 2.66 0 0 1 2.93-2.63c1.44 0 2.57.77 2.57 1.75a1 1 0 0 1 -1 1.09 1.71 1.71 0 0 1 -1.09-.45c-.28-.23-.41-.29-.55-.29a.32.32 0 0 0 -.32.31c0 .24.17.35.8.55a5.28 5.28 0 0 1 1.7.84 2.49 2.49 0 0 1 .8 1.89 2.72 2.72 0 0 1 -.75 1.9 3 3 0 0 1 -2.25.81c-1.73 0-3.04-.89-3.04-2.03z"/><path d="m151.42 196a1.47 1.47 0 0 1 1.1.3 1.23 1.23 0 0 1 .43.94 1.27 1.27 0 0 1 -.43 1 1.48 1.48 0 0 1 -1.09.27h-2.05a2.47 2.47 0 0 1 -1-.11 1.18 1.18 0 0 1 -.75-1 2.91 2.91 0 0 1 -.05-.8v-4.34a2 2 0 0 1 .12-1 1.2 1.2 0 0 1 .63-.66 2.29 2.29 0 0 1 1.14-.14h1.59a3.72 3.72 0 0 1 1 .06 1.18 1.18 0 0 1 .92 1.16 1.25 1.25 0 0 1 -.44 1 1.41 1.41 0 0 1 -1 .28h-1.32v.56h1a1 1 0 0 1 1.07.94 1 1 0 0 1 -.35.76 1.16 1.16 0 0 1 -.82.2h-.94v.6z"/><path d="m158.35 192a1.61 1.61 0 0 1 .24-1 1.3 1.3 0 0 1 2.09-.1 1.51 1.51 0 0 1 .31 1.06v4.89a1.69 1.69 0 0 1 -.29 1.2 1.29 1.29 0 0 1 -1 .49 1.26 1.26 0 0 1 -1-.54l-2.09-2.67v1.67a1.41 1.41 0 0 1 -.3 1.05 1.33 1.33 0 0 1 -1 .48 1.35 1.35 0 0 1 -1.05-.51 1.62 1.62 0 0 1 -.28-1.13v-5.09a1.32 1.32 0 0 1 1.38-1.42 1.19 1.19 0 0 1 1 .53l2.1 2.58z"/><path d="m163.2 192.9a1.29 1.29 0 0 1 -1-.35 1.22 1.22 0 0 1 .31-2c.28-.12.38-.14 1.43-.14h2.66a4.22 4.22 0 0 1 .9 0 1.2 1.2 0 0 1 1.08 1.2 1.32 1.32 0 0 1 -.43.94 1.43 1.43 0 0 1 -1 .29h-.59v4a1.73 1.73 0 0 1 -.23 1 1.24 1.24 0 0 1 -1.09.6 1.32 1.32 0 0 1 -1.09-.55 1.62 1.62 0 0 1 -.23-1v-4z"/><path d="m169.29 198.5a1.3 1.3 0 0 1 -1.31-1.32 1.63 1.63 0 0 1 .17-.69l2.5-5.31a1.33 1.33 0 0 1 2.45 0l2.52 5.37a1.35 1.35 0 0 1 .16.64 1.32 1.32 0 0 1 -1.34 1.3c-.61 0-1-.28-1.34-1.1h-2.45c-.33.79-.73 1.11-1.36 1.11zm3-3-.4-1-.41 1z"/><path d="m176.54 192.9a1.3 1.3 0 0 1 -1-.35 1.22 1.22 0 0 1 .31-2c.28-.12.39-.14 1.43-.14h2.66a4.08 4.08 0 0 1 .9 0 1.19 1.19 0 0 1 1.08 1.2 1.32 1.32 0 0 1 -.43.94 1.43 1.43 0 0 1 -1 .29h-.59v4a1.73 1.73 0 0 1 -.23 1 1.24 1.24 0 0 1 -1.09.6 1.32 1.32 0 0 1 -1.09-.55 1.62 1.62 0 0 1 -.23-1v-4z"/><path d="m185.4 197a1.46 1.46 0 0 1 -.33 1.08 1.43 1.43 0 0 1 -1 .44 1.32 1.32 0 0 1 -1.32-1.52v-5c0-.67.06-.91.34-1.21a1.27 1.27 0 0 1 1-.44 1.33 1.33 0 0 1 1 .42 1.57 1.57 0 0 1 .35 1.23z"/><path d="m191.49 191.2a1.33 1.33 0 0 1 1.22-.82 1.31 1.31 0 0 1 1.32 1.3 1.35 1.35 0 0 1 -.15.62l-2.48 5.32a1.37 1.37 0 0 1 -2.53.07l-2.46-5.3a1.75 1.75 0 0 1 -.19-.72 1.33 1.33 0 0 1 1.34-1.29 1.38 1.38 0 0 1 1.29 1l1.27 3z"/><path d="m198.69 196a1.48 1.48 0 0 1 1.1.3 1.26 1.26 0 0 1 .43.94 1.31 1.31 0 0 1 -.43 1 1.48 1.48 0 0 1 -1.09.27h-2a2.47 2.47 0 0 1 -1-.11 1.21 1.21 0 0 1 -.76-1 3.77 3.77 0 0 1 0-.8v-4.34a2 2 0 0 1 .12-1 1.17 1.17 0 0 1 .63-.66 2.29 2.29 0 0 1 1.14-.14h1.58a3.77 3.77 0 0 1 1 .06 1.19 1.19 0 0 1 .91 1.16 1.24 1.24 0 0 1 -.43 1 1.42 1.42 0 0 1 -1 .28h-1.32v.56h1.05a1 1 0 0 1 1.07.94 1 1 0 0 1 -.35.76 1.17 1.17 0 0 1 -.82.2h-.95v.6z"/><path d="m119.22 214.37a1.77 1.77 0 0 1 .79 1.5 2 2 0 0 1 -.56 1.39 1.84 1.84 0 0 1 -1.52.44h-4.48a1.71 1.71 0 0 1 -1.89-1.78 2 2 0 0 1 .71-1.54l3.49-3.75c.28-.3.35-.43.35-.62a.5.5 0 0 0 -.51-.5.51.51 0 0 0 -.44.25l-.32.51a1.77 1.77 0 0 1 -1.42.71 2 2 0 0 1 -2-1.91c0-1.74 2-3.42 4.12-3.42a4.39 4.39 0 0 1 4.46 4.45c0 1.43-.52 2.36-2.25 4a2.26 2.26 0 0 1 1.47.27z"/><path d="m127.59 205.65a6.18 6.18 0 1 1 -6.2 6.14 6.17 6.17 0 0 1 6.2-6.14zm0 8.49a2.32 2.32 0 1 0 -2.31-2.35 2.34 2.34 0 0 0 2.31 2.35z"/><path d="m134.67 207.73a1.69 1.69 0 0 1 .72-1.43 2.12 2.12 0 0 1 1.45-.37h.58a2.2 2.2 0 0 1 1.68.5 2 2 0 0 1 .63 1.81v7.38a2 2 0 0 1 -1.92 2.17 2 2 0 0 1 -2-2.17v-6.16a1.73 1.73 0 0 1 -1.14-1.73z"/><path d="m149.68 213.82a4.31 4.31 0 0 1 -4.37 4.18c-2.14 0-4.17-1.68-4.17-3.44a1.94 1.94 0 0 1 2-1.89 1.77 1.77 0 0 1 1.5.78c.43.67.44.69.73.69a.53.53 0 0 0 .51-.55c0-.28-.14-.48-.5-.64-.67-.29-1-.65-1-1.25a1.15 1.15 0 0 1 .57-1l.47-.21a.52.52 0 0 0 -.14-1c-.21 0-.32.09-.56.44a1.82 1.82 0 0 1 -1.54.83 1.89 1.89 0 0 1 -1.92-1.85c0-1.64 1.94-3.21 4-3.21a4.14 4.14 0 0 1 4.23 3.86 2.73 2.73 0 0 1 -.79 1.93 3.29 3.29 0 0 1 .98 2.33z"/><path d="m154.47 210.68c.9 0 1.5.46 1.5 1.16s-.58 1.24-1.47 1.24h-2a1.49 1.49 0 0 1 -1.31-.44 1.08 1.08 0 0 1 -.32-.78 1.06 1.06 0 0 1 .39-.83 1.59 1.59 0 0 1 1.24-.35z"/><path d="m164.88 214.37a1.77 1.77 0 0 1 .79 1.5 2 2 0 0 1 -.56 1.39 1.84 1.84 0 0 1 -1.52.44h-4.48a1.71 1.71 0 0 1 -1.89-1.78 2 2 0 0 1 .71-1.54l3.49-3.75c.28-.3.35-.43.35-.62a.5.5 0 0 0 -.51-.5.51.51 0 0 0 -.44.25l-.32.51a1.77 1.77 0 0 1 -1.42.71 2 2 0 0 1 -2-1.91c0-1.74 2-3.42 4.13-3.42a4.39 4.39 0 0 1 4.41 4.45c0 1.43-.53 2.36-2.26 4a2.26 2.26 0 0 1 1.52.27z"/><path d="m173.25 205.65a6.18 6.18 0 1 1 -6.2 6.14 6.17 6.17 0 0 1 6.2-6.14zm0 8.49a2.32 2.32 0 1 0 -2.31-2.35 2.35 2.35 0 0 0 2.31 2.35z"/><path d="m180.33 207.73a1.69 1.69 0 0 1 .72-1.43 2.12 2.12 0 0 1 1.45-.37h.58a2.2 2.2 0 0 1 1.68.5 2 2 0 0 1 .63 1.81v7.38a2 2 0 0 1 -1.92 2.17 2 2 0 0 1 -2-2.17v-6.16a1.73 1.73 0 0 1 -1.14-1.73z"/><path d="m194.23 210.7a3.76 3.76 0 0 1 1.11 2.84 4.4 4.4 0 0 1 -4.34 4.46c-2 0-3.95-1.47-3.95-3a1.82 1.82 0 0 1 1.83-1.84 2.48 2.48 0 0 1 1.34.5c.51.33.64.4.76.4a.54.54 0 0 0 .51-.51.91.91 0 0 0 -.26-.58 2.19 2.19 0 0 0 -1.29-.37c-1.61-.14-1.83-.2-2.21-.57a1.59 1.59 0 0 1 -.38-1.5l.47-3.23c.14-1 .74-1.41 2.12-1.41h3.06c.9 0 1.21.07 1.55.34a1.88 1.88 0 0 1 -1.22 3.32h-1.87a5 5 0 0 1 2.77 1.15z"/></g></svg>