<svg height="921" viewBox="0 0 1299 921" width="1299" xmlns="http://www.w3.org/2000/svg"><path d="m183.62 660.01h315.31l12.59-57.49h-340.49z" fill="#7f717d"/><path d="m171.25 602.52h340.04l12.15-31.22h-364.34z" fill="#6e626c"/><path d="m203.57 521.66h275.4l9.83-23.03h-295.06z" fill="#6e626c"/><path d="m205.66 521.66h271.23v49.64h-271.23z" fill="#7f717d"/><path d="m224.99 456.85h232.57l8.31-19.38h-249.19z" fill="#6e626c"/><path d="m226.75 456.85h229.05v41.78h-229.05z" fill="#7f717d"/><path d="m247.03 405.6h188.49l6.73-14.79h-201.96z" fill="#6e626c"/><path d="m248.45 405.6h185.64v31.87h-185.64z" fill="#7f717d"/><path d="m261.51 360.98h159.53l5.69-13.84h-170.92z" fill="#6e626c"/><path d="m262.72 360.98h157.11v29.83h-157.11z" fill="#7f717d"/><path d="m387.89 313.12h-93.24c-5.43 0-9.83 3.34-9.83 7.46s4.4 7.46 9.83 7.46h93.24c5.43 0 9.83-3.34 9.83-7.46s-4.4-7.46-9.83-7.46z" fill="#7f717d"/><path d="m302.81 347.14h76.92l7.2-19.1h-91.31z" fill="#655a63"/><path d="m341.39 282.91s-39.39 10.92-38.46 18.09 8.55 12 8.55 12h59.82s7.65-4.87 8.55-12-38.46-18.09-38.46-18.09z" fill="#625861"/><path d="m226.75 602.52h229.05v57.49h-229.05z" fill="#9f8f9d"/><path d="m183.62 660.01h317.1v183.56h-317.1z" fill="#6e626c"/><path d="m552.45 843.56h-420.56c-7.45 0-13.49 4.58-13.49 10.24v26.1h447.54v-26.1c0-5.66-6.04-10.24-13.49-10.24z" fill="#6e626c"/><path d="m624.64 879.9h-564.94c-7.45 0-13.49 4.58-13.49 10.23v26.1h591.93v-26.1c0-5.65-6.05-10.23-13.5-10.23z" fill="#625861"/><path d="m800.99 665.1h315.31l12.59-57.49h-340.49z" fill="#7f717d"/><path d="m788.62 607.61h340.04l12.15-31.22h-364.33z" fill="#6e626c"/><path d="m820.95 526.75h275.39l9.83-23.03h-295.06z" fill="#6e626c"/><path d="m823.03 526.75h271.23v49.64h-271.23z" fill="#7f717d"/><path d="m842.36 461.94h232.57l8.31-19.38h-249.19z" fill="#6e626c"/><path d="m844.12 461.94h229.05v41.78h-229.05z" fill="#7f717d"/><path d="m864.4 410.69h188.49l6.73-14.79h-201.96z" fill="#6e626c"/><path d="m865.82 410.69h185.64v31.87h-185.64z" fill="#7f717d"/><path d="m878.88 366.07h159.53l5.69-13.84h-170.92z" fill="#6e626c"/><path d="m880.09 366.07h157.11v29.83h-157.11z" fill="#7f717d"/><path d="m1005.26 318.21h-93.26c-5.43 0-9.84 3.34-9.84 7.46s4.41 7.46 9.84 7.46h93.23c5.43 0 9.83-3.34 9.83-7.46.03-4.12-4.37-7.46-9.8-7.46z" fill="#7f717d"/><path d="m920.19 352.23h76.91l7.2-19.1h-91.31z" fill="#655a63"/><path d="m958.76 288s-39.35 10.92-38.45 18.08 8.54 12 8.54 12h59.82s7.65-4.87 8.55-12-38.46-18.08-38.46-18.08z" fill="#625861"/><path d="m844.12 607.61h229.05v57.49h-229.05z" fill="#9f8f9d"/><path d="m800.99 665.1h317.1v183.56h-317.1z" fill="#6e626c"/><path d="m1169.82 848.65h-420.56c-7.45 0-13.49 4.58-13.49 10.24v26.11h447.54v-26.1c0-5.67-6.04-10.25-13.49-10.25z" fill="#6e626c"/><path d="m1242 885h-564.93c-7.45 0-13.49 4.58-13.49 10.23v26.1h591.93v-26.1c0-5.66-6.04-10.23-13.51-10.23z" fill="#625861"/><path d="m471.55 548.99h363.82l14.53-78.36h-392.88z" fill="#7f717d"/><path d="m457.28 470.63h392.36l14.02-42.55h-420.39z" fill="#6e626c"/><path d="m494.58 360.42h317.76l11.35-31.39h-340.46z" fill="#6e626c"/><path d="m496.98 360.42h312.96v67.66h-312.96z" fill="#7f717d"/><path d="m519.28 272.09h268.36l9.58-26.42h-287.52z" fill="#6e626c"/><path d="m521.31 272.09h264.29v56.94h-264.29z" fill="#7f717d"/><path d="m544.72 202.23h217.49l7.77-20.15h-233.03z" fill="#6e626c"/><path d="m546.36 202.23h214.2v43.44h-214.2z" fill="#7f717d"/><path d="m561.43 141.41h184.07l6.57-18.86h-197.22z" fill="#6e626c"/><path d="m562.82 141.41h181.29v40.66h-181.29z" fill="#7f717d"/><path d="m707.25 76.18h-107.58c-6.26 0-11.34 4.55-11.34 10.16 0 5.62 5.08 10.17 11.34 10.17h107.58c6.27 0 11.35-4.55 11.35-10.17 0-5.61-5.08-10.16-11.35-10.16z" fill="#7f717d"/><path d="m609.09 122.55h88.75l8.3-26.04h-105.36z" fill="#655a63"/><path d="m653.6 35s-45.41 14.88-44.37 24.65 9.86 16.41 9.86 16.41h69s8.83-6.65 9.86-16.41-44.35-24.65-44.35-24.65z" fill="#625861"/><path d="m521.31 470.63h264.29v78.36h-264.29z" fill="#9f8f9d"/><path d="m471.55 548.99h365.89v250.19h-365.89z" fill="#6e626c"/><path d="m662.3 564.8h-34.6c-68.32 0-123.7 24.57-123.7 54.88v179.5h282v-179.5c0-30.31-55.38-54.88-123.7-54.88z" fill="#463f46"/><path d="m897.13 799.18h-485.26c-8.6 0-15.57 6.25-15.57 14v35.58h516.4v-35.63c0-7.7-6.97-13.95-15.57-13.95z" fill="#6e626c"/><path d="m980.43 848.71h-651.86c-8.57 0-15.57 6.29-15.57 13.95v35.57h683v-35.57c0-7.66-7-13.95-15.57-13.95z" fill="#625861"/><path d="m720.22 695.19c0 49.81 14.06 89.51-77.22 90.81-79.81 1.13-70.67-41-70.67-90.81s33.07-90.19 73.92-90.19 73.97 40.38 73.97 90.19z" fill="#3f2114" opacity=".4"/><rect fill="#463f46" height="21" rx="10.5" width="74" x="611" y="746"/><path d="m445.6 774.53v24.65h216.4v-39.53h-176.02z" fill="#857782"/><path d="m662 759.65v39.53h201.4v-24.65l-37.58-14.88z" fill="#857782"/><path d="m619 679.24s-7.71 60.25 4.84 62.75l16.63-19.66-6.6-48.21z" fill="#99671d"/><path d="m678.12 679.24s7.71 60.25-4.84 62.75l-16.63-19.66 6.6-48.21z" fill="#99671d"/><path d="m637.67 743.78s-1.08 14.07-7.22 14.07-9-14.71-6-17.65 2.37-1.28 2.37-1.28-2.49-12.16 1.47-12.8l10.14 10.93z" fill="#eda627"/><path d="m659.62 743.78s1.08 14.07 7.22 14.07 9-14.71 6-17.65-2.37-1.28-2.37-1.28 2.5-12.16-1.47-12.8l-10.14 10.93z" fill="#eda627"/><path d="m664.78 737.89-13.37-6.65.41-3.2-3.18 1.71-3.17-1.75.4 3.2-13.37 6.65s1 7.72 15.4 8.29h.74.74c14.38-.53 15.4-8.25 15.4-8.25z" fill="#bc7e1b"/><path d="m663.76 737.38-12.35-6.65.41-3.2-3.18 1.71-3.17-1.71.4 3.2-12.35 6.65s0 8.74 14.38 9.31h.74.74c14.38-.57 14.38-9.31 14.38-9.31z" fill="#eda627"/><path d="m665.31 710.87-16.67 1.13-16.64-1.13s-5.43 10-5.43 15.41 2.44 13.66 5.7 13.66 4.21-.68 7.61-3c2.44-1.66 6.63-2.69 8.79-3.13 2.17.44 6.35 1.47 8.8 3.13 3.39 2.31 4.34 3 7.6 3s5.7-8.29 5.7-13.66-5.46-15.41-5.46-15.41z" fill="#bc7e1b"/><path d="m683 694.47a5.52 5.52 0 1 1 -5.52-5.71 5.61 5.61 0 0 1 5.52 5.71z" fill="#eda627"/><path d="m680.36 694.47a3.39 3.39 0 1 1 -3.36-3.47 3.45 3.45 0 0 1 3.36 3.47z" fill="#bc7e1b"/><path d="m614.28 694.47a5.52 5.52 0 1 1 5.52 5.71 5.62 5.62 0 0 1 -5.52-5.71z" fill="#eda627"/><ellipse cx="620.31" cy="694.47" fill="#bc7e1b" rx="3.39" ry="3.51"/><path d="m665.31 709.85-16.67 1.08-16.64-1.08s-5.94 10-5.94 15.41 3 13.66 6.21 13.66 4.21-.68 7.61-3c2.44-1.66 6.63-2.69 8.79-3.13 2.17.44 6.35 1.47 8.8 3.13 3.39 2.31 4.34 3 7.6 3s6.21-8.29 6.21-13.66-5.97-15.41-5.97-15.41z" fill="#eda627"/><path d="m668.29 711.54s10.88 6.14 10.88 16.56-6.53 4.8-6.53 4.8-3.07-11.65-9.6-11.65z" fill="#bc7e1b"/><path d="m668.8 711.54s10.87 6.14 10.87 16.56-7 4.8-7 4.8-2.56-13.18-9.09-13.18z" fill="#eda627"/><path d="m629 711.54s-10.87 6.14-10.87 16.56 6.52 4.8 6.52 4.8 3.07-11.65 9.6-11.65z" fill="#bc7e1b"/><path d="m628.48 711.54s-10.87 6.14-10.87 16.56 7 4.8 7 4.8 2.56-13.18 9.09-13.18z" fill="#eda627"/><path d="m673.81 697.22h1.53c1.51-4 3.37-8.27 3.37-12.43 0-16.67-13.46-25.59-30.07-25.59s-30.06 8.92-30.06 25.59c0 4.16 1.85 8.4 3.36 12.43h.52c.39 1 .83 2.07 1.31 3.09 1.67 3.95 3.09 11 5.55 17.22a21.76 21.76 0 0 0 11.9 12.09h14.84a21.76 21.76 0 0 0 11.94-12.08c2.46-6.21 4.4-13.27 6.07-17.22.48-1 .41-2.05.8-3.09z" fill="#bc7e1b"/><path d="m676.26 695.69a35.66 35.66 0 0 0 2.35-12.43c0-16.67-13.47-25.59-30.07-25.59s-30.07 8.92-30.07 25.59a35.66 35.66 0 0 0 2.35 12.43c.4 1 .83 2.08 1.32 3.09 1.66 4 4.62 11 7.08 17.22a21.76 21.76 0 0 0 11.9 12.09h14.88a21.76 21.76 0 0 0 11.86-12.09c2.46-6.21 5.42-13.27 7.08-17.22q.72-1.51 1.32-3.09z" fill="#eda627"/><path d="m652.67 691.29c-.06-.32-.11-.64-.14-1 0 0 11.32-4.13 15.45 0a8.64 8.64 0 0 1 -.14.89c-3.96-3.62-13.84-.34-15.17.11z" fill="#bc7e1b"/><path d="m661.15 696.24c-5.59-.58-7.87-2.86-8.48-6l-.14.05c.32 3.6 2.46 6.3 8.62 6.94s6.83-6.94 6.83-6.94a1.79 1.79 0 0 1 -.14-.13c-.4 2.02-1.84 6.57-6.69 6.08z" fill="#bc7e1b"/><path d="m655.74 692.87a3.47 3.47 0 1 1 3.47 3.47 3.47 3.47 0 0 1 -3.47-3.47z" fill="#99671d"/><path d="m644.61 691.29c.06-.32.11-.64.14-1 0 0-11.32-4.13-15.45 0 0 0 0 .35.15.89 3.95-3.62 13.87-.34 15.16.11z" fill="#bc7e1b"/><path d="m636.13 696.24c5.59-.58 7.87-2.86 8.48-6l.14.05c-.31 3.6-2.46 6.3-8.62 6.94s-6.83-6.94-6.83-6.94l.15-.13c.4 2.02 1.85 6.57 6.68 6.08z" fill="#bc7e1b"/><path d="m641.54 692.87a3.47 3.47 0 1 0 -3.46 3.47 3.47 3.47 0 0 0 3.46-3.47z" fill="#99671d"/><g fill="#bc7e1b"><path d="m649.27 698.81s-1.88-15.55 7.28-15.55 13.16 1.15 14.09 3.82c0 0-18.06-2.19-19.33 3.11a24.83 24.83 0 0 0 -.77 8.62z"/><path d="m649.27 698.81s.64 7.09.89 8.2c0 0 2.27.25 2.27 1.53 0 .76-1.58 1.31-1.58 1.31h-2.31v2.15s1.58-.06 2-1.08c0 0 3.58-.8 3.58-2.81a2.65 2.65 0 0 0 -2.76-1.7l-.77-7.55z"/><path d="m647.81 698.81s1.88-15.55-7.28-15.55-13.16 1.15-14.09 3.82c0 0 18.06-2.19 19.33 3.11a24.63 24.63 0 0 1 .76 8.62z"/><path d="m647.81 698.81s-.64 7.09-.89 8.2c0 0-2.27.25-2.27 1.53 0 .76 1.58 1.31 1.58 1.31h2.31v2.15s-1.58-.06-1.95-1.08c0 0-3.58-.8-3.58-2.81a2.65 2.65 0 0 1 2.76-1.7l.76-7.55z"/></g><path d="m661.39 714c-2.36-2.8-10.95-2.51-12.34-2.44h-.51-.51c-1.4-.07-10-.36-12.34 2.44l-.88 3.45s1.85 5.78 6.71 7h14c4.85-1.18 6.71-7 6.71-7z" fill="#99671d"/><path d="m658 719.87h-18.88a13 13 0 0 1 -1.89-.48 8.41 8.41 0 0 0 4.85 3.83h12.92a8.41 8.41 0 0 0 4.85-3.83 13 13 0 0 1 -1.85.48z" fill="#eab763"/><path d="m640 716.05h17a7.15 7.15 0 0 1 3.87 1.15l-.69-2.69c-2.15-2.56-10-2.29-11.22-2.23h-.46-.46c-1.27-.06-9.07-.33-11.22 2.23l-.69 2.69a7.15 7.15 0 0 1 3.87-1.15z" fill="#eab763"/><g fill="#857782"><path d="m829 820.65v29h290.59v-18.08l-54.22-10.92z"/><path d="m183.13 831.02v18.98h175.87v-30.44h-143.06z"/><path d="m359 820h478v30h-478z"/></g><path d="m445 794h418v26h-418z" fill="#9f8f9d"/><g fill="#6e626c"><path d="m539 516.24a4.48 4.48 0 0 1 4.4-4.63 5 5 0 0 1 3.43 1.48c2.11 1.71 2.37 1.9 3.08 1.9a1.23 1.23 0 0 0 1.23-1.34 1.46 1.46 0 0 0 -.75-1.3 8.11 8.11 0 0 0 -1.93-.88c-.8-.28-1.59-.55-2.38-.88-4.26-1.57-6.37-4.49-6.37-8.79 0-6 4.39-10.13 10.77-10.13 5.27 0 9.41 3 9.41 6.75 0 2.46-1.59 4.21-3.79 4.21-1.31 0-2.37-.46-4-1.75-1-.88-1.49-1.11-2-1.11a1.19 1.19 0 0 0 -1.1 1.23c0 .92.61 1.34 2.9 2.13a18.11 18.11 0 0 1 6.24 3.24 9.77 9.77 0 0 1 3 7.26 10.9 10.9 0 0 1 -2.84 7.37c-2 2.08-4.62 3.1-8.22 3.1-6.24-.04-11.08-3.47-11.08-7.86z"/><path d="m567.62 501.89a4.59 4.59 0 0 1 -3.65-1.34 5 5 0 0 1 -1.36-3.37 4.91 4.91 0 0 1 2.51-4.26c1-.46 1.4-.51 5.23-.51h9.76a18.59 18.59 0 0 1 3.3.09 4.54 4.54 0 0 1 4 4.63 4.66 4.66 0 0 1 -5.32 4.76h-2.15v15.37a7 7 0 0 1 -.84 3.93 4.56 4.56 0 0 1 -4 2.31 4.82 4.82 0 0 1 -4-2.13c-.66-1.06-.83-1.94-.83-4v-15.48z"/><path d="m599.85 510.36c0 2.22 1 3.56 2.64 3.56s2.64-1.29 2.64-3.42v-12.31c0-2.26.17-3 1-4.07a4.78 4.78 0 0 1 3.74-1.94 5 5 0 0 1 3.83 1.82c.92 1.16 1.14 2.08 1.14 4.86v11c0 4.17-1 7.17-3.07 9.67a11.86 11.86 0 0 1 -19.26-.83c-1.8-2.59-2.37-4.77-2.37-8.84v-10.86c0-2.92.17-3.66 1-4.81a4.69 4.69 0 0 1 7.38-.37c1 1.06 1.32 2.22 1.32 4.39z"/><path d="m630.59 492.41a14.64 14.64 0 0 1 10.64 3.93 15.74 15.74 0 0 1 4.83 11.48 15.93 15.93 0 0 1 -4.7 11.33 14.49 14.49 0 0 1 -6.91 3.75 27.88 27.88 0 0 1 -5 .37h-4.05c-2.29 0-3.21-.19-4.09-.83a4.5 4.5 0 0 1 -2-2.78 13 13 0 0 1 -.18-3.33v-17c0-2.59 0-2.87.22-3.56.7-2.22 2.51-3.38 5.32-3.38zm-1.81 21.38c3.34 0 4.14-.19 5.28-1a6.32 6.32 0 0 0 2.37-4.91 6 6 0 0 0 -3.12-5.32 7.85 7.85 0 0 0 -3.74-.65h-.79z"/><path d="m659.52 517.63a5.82 5.82 0 0 1 -1.23 4.16 4.74 4.74 0 0 1 -7.21.09c-.93-1.06-1.23-2.13-1.23-4.25v-19.11c0-2.59.22-3.52 1.23-4.68a4.56 4.56 0 0 1 3.56-1.66 4.76 4.76 0 0 1 3.6 1.62c1 1.15 1.28 2.22 1.28 4.72z"/><path d="m678.64 491.67c8.58 0 15.48 7.22 15.48 16.15s-7 16.24-15.43 16.24-15.48-7.27-15.48-16.38c0-8.89 6.86-16.01 15.43-16.01zm.05 22.3a6 6 0 0 0 5.76-6.11 5.76 5.76 0 1 0 -11.52 0 6 6 0 0 0 5.76 6.14z"/><path d="m720.33 510.36c0 2.22 1 3.56 2.63 3.56s2.64-1.29 2.64-3.42v-12.31c0-2.26.18-3 1.06-4.07a4.75 4.75 0 0 1 3.73-1.94 5.05 5.05 0 0 1 3.79 1.85c.92 1.16 1.14 2.08 1.14 4.86v11c0 4.17-1 7.17-3.08 9.67a12.18 12.18 0 0 1 -9.28 4.54 12.3 12.3 0 0 1 -10-5.37c-1.81-2.59-2.38-4.77-2.38-8.84v-10.89c0-2.92.18-3.66 1-4.81a4.7 4.7 0 0 1 7.39-.37c1 1.06 1.32 2.22 1.32 4.39z"/><path d="m740.73 501.66c-1.41-2-1.93-3.19-1.93-4.39a5.11 5.11 0 0 1 4.92-5.09 5 5 0 0 1 4.09 2.31l3.12 4.35 2.94-3.89c1.5-2 2.64-2.77 4.27-2.77a5 5 0 0 1 4.92 5 7.11 7.11 0 0 1 -1.54 3.89l-4.52 6.28 5.5 7.73a6 6 0 0 1 1.05 3.38 4.9 4.9 0 0 1 -4.75 5 4.77 4.77 0 0 1 -4-2.17l-4-5.46-4 5.41a4.6 4.6 0 0 1 -4 2.22 5 5 0 0 1 -4.84-5 5.88 5.88 0 0 1 1.14-3.47l5.5-7.64z"/></g><path d="m540.93 517.18a4.47 4.47 0 0 1 4.4-4.63 5 5 0 0 1 3.43 1.48c2.11 1.72 2.37 1.9 3.07 1.9a1.22 1.22 0 0 0 1.23-1.34 1.47 1.47 0 0 0 -.74-1.3 8.65 8.65 0 0 0 -1.94-.87c-.79-.28-1.58-.56-2.37-.88-4.27-1.58-6.38-4.49-6.38-8.79 0-6 4.4-10.14 10.77-10.14 5.28 0 9.41 3 9.41 6.76 0 2.45-1.58 4.21-3.78 4.21-1.32 0-2.37-.46-4-1.76-1-.88-1.49-1.11-2-1.11a1.19 1.19 0 0 0 -1.14 1.2c0 .93.61 1.34 2.9 2.13a18.56 18.56 0 0 1 6.24 3.24 9.81 9.81 0 0 1 3 7.26 10.94 10.94 0 0 1 -2.77 7.36c-2 2.08-4.62 3.1-8.23 3.1-6.31 0-11.1-3.42-11.1-7.82z"/><path d="m569.51 502.84a4.62 4.62 0 0 1 -3.65-1.34 5 5 0 0 1 -1.36-3.38 4.92 4.92 0 0 1 2.5-4.26c1-.46 1.41-.51 5.24-.51h9.76a16.68 16.68 0 0 1 3.29.1 4.54 4.54 0 0 1 4 4.62 5.27 5.27 0 0 1 -1.58 3.66 5.18 5.18 0 0 1 -3.74 1.11h-2.15v15.36a7 7 0 0 1 -.84 3.93 4.56 4.56 0 0 1 -4 2.31 4.79 4.79 0 0 1 -4-2.12c-.66-1.07-.84-2-.84-4v-15.48z"/><path d="m601.74 511.3c0 2.23 1 3.57 2.64 3.57s2.63-1.3 2.63-3.43v-12.3c0-2.27.18-3 1.06-4.08a4.76 4.76 0 0 1 3.74-1.94 5 5 0 0 1 3.78 1.85c.92 1.16 1.14 2.08 1.14 4.86v11c0 4.16-1 7.17-3.08 9.67a11.86 11.86 0 0 1 -19.25-.84c-1.8-2.59-2.38-4.76-2.38-8.83v-10.91c0-2.91.18-3.65 1-4.81a5.07 5.07 0 0 1 3.83-2 5 5 0 0 1 3.56 1.62c1 1.07 1.32 2.22 1.32 4.4z"/><path d="m632.47 493.35a14.59 14.59 0 0 1 10.64 3.94 15.68 15.68 0 0 1 4.89 11.47 16 16 0 0 1 -4.71 11.34 14.36 14.36 0 0 1 -6.9 3.74 28 28 0 0 1 -5 .37h-4.08c-2.29 0-3.21-.18-4.09-.83a4.49 4.49 0 0 1 -2-2.78 13.72 13.72 0 0 1 -.17-3.33v-17c0-2.59 0-2.87.22-3.56.7-2.22 2.5-3.38 5.32-3.38zm-1.8 21.38c3.34-.05 4.13-.19 5.28-1a6.31 6.31 0 0 0 2.37-4.9 6 6 0 0 0 -3.12-5.32 7.78 7.78 0 0 0 -3.74-.65h-.79z"/><path d="m661.4 518.57a5.82 5.82 0 0 1 -1.23 4.16 5 5 0 0 1 -3.6 1.71 5 5 0 0 1 -3.61-1.61c-.92-1.07-1.23-2.13-1.23-4.26v-19.11c0-2.59.22-3.52 1.23-4.67a4.56 4.56 0 0 1 3.56-1.67 4.76 4.76 0 0 1 3.61 1.62c1 1.16 1.27 2.22 1.27 4.72z"/><path d="m680.53 492.61c8.57 0 15.48 7.22 15.48 16.15s-7 16.24-15.44 16.24-15.47-7.26-15.47-16.38c0-8.88 6.9-16.01 15.43-16.01zm0 22.3a6 6 0 0 0 5.76-6.1 5.76 5.76 0 1 0 -11.51-.05 6 6 0 0 0 5.79 6.15z"/><path d="m722.21 511.3c0 2.23 1 3.57 2.64 3.57s2.64-1.3 2.64-3.43v-12.3c0-2.27.18-3 1.06-4.08a4.75 4.75 0 0 1 3.73-1.94 5 5 0 0 1 3.78 1.85c.93 1.16 1.15 2.08 1.15 4.86v11c0 4.16-1 7.17-3.08 9.67a11.87 11.87 0 0 1 -19.26-.84c-1.8-2.59-2.37-4.76-2.37-8.83v-10.91c0-2.91.17-3.65 1-4.81a4.7 4.7 0 0 1 7.39-.37c1 1.07 1.31 2.22 1.31 4.4z"/><path d="m742.62 502.61c-1.41-2-1.94-3.2-1.94-4.4a5.12 5.12 0 0 1 4.93-5.09 5 5 0 0 1 4.08 2.31l3.13 4.35 2.94-3.88c1.5-2 2.64-2.78 4.27-2.78a5 5 0 0 1 4.92 5 7.13 7.13 0 0 1 -1.54 3.89l-4.48 6.25 5.49 7.72a5.9 5.9 0 0 1 1.06 3.38 4.89 4.89 0 0 1 -4.75 5 4.78 4.78 0 0 1 -4-2.17l-3.95-5.46-4 5.41a4.59 4.59 0 0 1 -4 2.22 5 5 0 0 1 -4.83-5 5.82 5.82 0 0 1 1.14-3.47l5.5-7.63z"/><g fill="#427212"><path d="m69.6 716.06-27.89 3.43a4.15 4.15 0 0 0 -3.22 5.24l32.51 126.37c1.18 4.61 7.39 3.35 7.22-1.45l-4.62-129.81a3.7 3.7 0 0 0 -4-3.78z"/><path d="m15.37 730.28-24.1 16.39a4.36 4.36 0 0 0 -.89 6.21l79.17 97.06c2.89 3.54 8-.54 6-4.74l-55.06-113.46a3.44 3.44 0 0 0 -5.12-1.46z"/><path d="m155.52 744.2 19 20.16a3.58 3.58 0 0 1 -.2 5.06l-93.15 82.35c-2.94 2.6-6.93-1.52-4.6-4.74l74.15-102.52a3.08 3.08 0 0 1 4.8-.31z"/><path d="m210.72 825.35 4.28 28.34a3.35 3.35 0 0 1 -2.94 3.95l-135.83-2.47c-3.8.23-4.76-5.64-1.1-6.75l131.54-25.87a3.24 3.24 0 0 1 4.05 2.8z"/><path d="m212 896.81 1.07-22a.86.86 0 0 0 -.73-.87l-137.34-21.06a.76.76 0 0 0 -.24 1.5l136.24 43.07a.72.72 0 0 0 1-.64z"/><path d="m109.47 714.11-20.42-1.75a.83.83 0 0 0 -.82.75l-12.8 138.89a1.29 1.29 0 0 0 2.5.66l32.07-137.48a.79.79 0 0 0 -.53-1.07z"/><path d="m-21.19 755.73-12.08 17.79a.93.93 0 0 0 .17 1.15l105.5 78.53c1.2 1.13 2.86-.63 1.83-1.94l-94.29-95.49a.68.68 0 0 0 -1.13-.04z"/><path d="m-41.77 798.36-5.7 21.15a.9.9 0 0 0 .53 1l124.1 35.06c1.49.62 2.49-1.65 1.11-2.49l-118.96-55.08a.7.7 0 0 0 -1.08.36z"/><path d="m-48 830.12-.95 22a.85.85 0 0 0 .73.85l128.29 2.94a1.39 1.39 0 0 0 .53-2.7l-127.6-23.74a.73.73 0 0 0 -1 .65z"/><path d="m142.06 727.3-19.28-7.44a.81.81 0 0 0 -1 .5l-46.12 130.48a1.31 1.31 0 0 0 2.25 1.34l64.44-123.69a.81.81 0 0 0 -.29-1.19z"/><path d="m191.6 780.52 10.55 26.36a3.47 3.47 0 0 1 -2 4.61l-115.09 38.62c-3.63 1.21-5.89-4.22-2.6-6.26l104.58-65a3.13 3.13 0 0 1 4.56 1.67z"/><path d="m37.28 973.73-6.62-2.73a.93.93 0 0 1 -.49-1.17l44.24-124.7a.84.84 0 0 1 1.1-.53l6.61 2.71a1 1 0 0 1 .5 1.18l-44.25 124.71a.83.83 0 0 1 -1.09.53z"/></g></svg>