<svg height="549" viewBox="0 0 787 549" width="787" xmlns="http://www.w3.org/2000/svg"><path d="m586.54 191.85s59 4.8 139.68 23.15l-32.33-40.48 32.33-13.87s-62.91-23.35-139.68-27.05z" fill="#ea212d"/><path d="m637.28 177.92-50.75 13.93v-34.67l34.52 5.09z" fill="#9c0f17"/><path d="m168.62 191.85s-58.95 4.8-139.69 23.15l32.33-40.48-32.33-13.87s62.91-23.35 139.69-27.05z" fill="#ea212d"/><path d="m117.88 177.92 50.74 13.93v-34.67l-34.52 5.09z" fill="#9c0f17"/><path d="m134.93 92.56v429.77c0 3.57 1.79 6.47 4 6.47h30.12c2.22 0 4-2.9 4-6.47v-429.77a9.3 9.3 0 0 0 -.8-3.87l-14.93-35.69c-1.24-3-3.73-3.74-5.56-1.74a6 6 0 0 0 -1.12 1.85l-15.02 35.89a9.35 9.35 0 0 0 -.69 3.61z" fill="#70463a" fill-rule="evenodd"/><path d="m133 92.56v429.77a13 13 0 0 0 1.74 6.76 5.16 5.16 0 0 0 4.19 2.8h30.12a5.12 5.12 0 0 0 4.19-2.81 13 13 0 0 0 1.74-6.76v-429.76a15 15 0 0 0 -.31-3 12.37 12.37 0 0 0 -.82-2.6l-15-35.73a6.64 6.64 0 0 0 -3.79-4 4.18 4.18 0 0 0 -4.44 1.46 7.44 7.44 0 0 0 -.92 1.23 10.47 10.47 0 0 0 -.73 1.46l-14.97 35.83a12.7 12.7 0 0 0 -.75 2.56 14.55 14.55 0 0 0 -.25 2.38zm3.86 429.77v-429.77a5.33 5.33 0 0 1 .09-1 3.93 3.93 0 0 1 .27-.89l15-35.88v-.06a3.14 3.14 0 0 1 .25-.52 2.6 2.6 0 0 1 .33-.43 1.46 1.46 0 0 1 1.56-.51 2.29 2.29 0 0 1 1.32 1.41l15 35.73.06.12a4.69 4.69 0 0 1 .3.94 4.93 4.93 0 0 1 .1 1.07v429.79a4.59 4.59 0 0 1 -.6 2.37 1.81 1.81 0 0 1 -1.48 1h-30.12a1.79 1.79 0 0 1 -1.47-1 4.59 4.59 0 0 1 -.61-2.37z" fill="#70463a"/><path d="m158.39 61.08-10.94 26.13a12.7 12.7 0 0 0 -.75 2.56 14.55 14.55 0 0 0 -.25 2.38 2.75 2.75 0 0 0 0 .41v429.77a15 15 0 0 0 .37 3.35h-7.86a1.79 1.79 0 0 1 -1.47-1 4.59 4.59 0 0 1 -.6-2.37v-429.75a5.33 5.33 0 0 1 .09-1 3.93 3.93 0 0 1 .27-.89l15-35.88v-.06a3.14 3.14 0 0 1 .25-.52 2.6 2.6 0 0 1 .33-.43 1.46 1.46 0 0 1 1.56-.51 2.29 2.29 0 0 1 1.32 1.41z" fill="#663f34" fill-rule="evenodd" stroke="#663f34" stroke-miterlimit="10" stroke-width="8"/><path d="m581.93 100.88v429.77c0 3.57 1.79 6.47 4 6.47h30.12c2.22 0 4-2.9 4-6.47v-429.77a9.3 9.3 0 0 0 -.8-3.87l-14.93-35.73c-1.24-3-3.73-3.74-5.56-1.74a6 6 0 0 0 -1.12 1.85l-15 35.88a9.35 9.35 0 0 0 -.69 3.61z" fill="#70463a" fill-rule="evenodd"/><path d="m580 100.88v429.77a13 13 0 0 0 1.74 6.76 5.16 5.16 0 0 0 4.19 2.8h30.12a5.12 5.12 0 0 0 4.19-2.81 13 13 0 0 0 1.74-6.76v-429.76a15 15 0 0 0 -.31-3 12.37 12.37 0 0 0 -.82-2.6l-15-35.73a6.64 6.64 0 0 0 -3.79-4 4.18 4.18 0 0 0 -4.37 1.45 7.88 7.88 0 0 0 -.92 1.23 10.47 10.47 0 0 0 -.73 1.46l-15.04 35.84a12.7 12.7 0 0 0 -.75 2.56 14.55 14.55 0 0 0 -.25 2.38zm3.86 429.77v-429.77a5.33 5.33 0 0 1 .09-1 3.93 3.93 0 0 1 .27-.89l15-35.88v-.06a3.58 3.58 0 0 1 .25-.52 2.6 2.6 0 0 1 .33-.43 1.46 1.46 0 0 1 1.56-.51 2.29 2.29 0 0 1 1.36 1.41l15 35.73.06.12a4.69 4.69 0 0 1 .3.94 4.93 4.93 0 0 1 .1 1.07v429.79a4.59 4.59 0 0 1 -.6 2.37 1.81 1.81 0 0 1 -1.48 1h-30.16a1.79 1.79 0 0 1 -1.47-1 4.59 4.59 0 0 1 -.61-2.37z" fill="#70463a"/><path d="m605.39 69.4-10.94 26.13a12.7 12.7 0 0 0 -.75 2.56 14.55 14.55 0 0 0 -.25 2.38 2.75 2.75 0 0 0 0 .41v429.77a15 15 0 0 0 .37 3.35h-7.86a1.79 1.79 0 0 1 -1.47-1 4.59 4.59 0 0 1 -.6-2.37v-429.75a5.33 5.33 0 0 1 .09-1 3.93 3.93 0 0 1 .27-.89l15-35.88v-.06a3.58 3.58 0 0 1 .25-.52 2.6 2.6 0 0 1 .33-.43 1.46 1.46 0 0 1 1.56-.51 2.29 2.29 0 0 1 1.33 1.41z" fill="#663f34" fill-rule="evenodd" stroke="#663f34" stroke-miterlimit="10" stroke-width="8"/><path d="m637.28 177.92a1168.67 1168.67 0 0 0 -519.66 0v-57.69a1169 1169 0 0 1 519.66 0z" fill="#ea212d"/><g fill="#fff"><path d="m302.32 128.15c1.85-.14 2.68 0 3.62.7a4 4 0 0 1 1.62 2.91 4.19 4.19 0 0 1 -1.16 3.2c-.8.75-1.52 1-3.45 1.15l-6.61.49a8.31 8.31 0 0 1 -3.27-.11 3.91 3.91 0 0 1 -2.67-2.91 10.29 10.29 0 0 1 -.34-2.54l-1-14c-.16-2.16-.14-2.43.15-3.27a3.84 3.84 0 0 1 1.89-2.28c.94-.45 1.13-.51 3.64-.69l5.1-.38a11.17 11.17 0 0 1 3.26-.05 3.79 3.79 0 0 1 3.21 3.49 4.06 4.06 0 0 1 -1.16 3.23 4.52 4.52 0 0 1 -3.18 1.17l-4.25.32.13 1.78 3.37-.25c2.08-.16 3.53 1 3.66 2.79a3.19 3.19 0 0 1 -.94 2.52 3.77 3.77 0 0 1 -2.58.85l-3.05.23.14 1.93z"/><path d="m319.37 109.17a13.26 13.26 0 0 1 9.54 2.75 12.88 12.88 0 0 1 4.8 9.35 12.89 12.89 0 0 1 -9.49 13.19 26.31 26.31 0 0 1 -4.36.55l-3.59.21c-2 .11-2.83 0-3.64-.49a3.8 3.8 0 0 1 -1.91-2.22 10.53 10.53 0 0 1 -.31-2.78l-.81-14.19c-.12-2.16-.13-2.4 0-3 .51-1.89 2-3 4.52-3.09zm-.58 18c2.94-.2 3.63-.36 4.6-1.11a5.2 5.2 0 0 0 1.85-4.22 5 5 0 0 0 -3-4.29 7.19 7.19 0 0 0 -3.31-.36h-.7z"/><path d="m345.54 122.94c.07 1.86 1 3 2.43 2.89s2.28-1.17 2.22-3l-.39-10.29c-.07-1.9.07-2.49.81-3.45a4.24 4.24 0 0 1 3.23-1.74 4.48 4.48 0 0 1 3.38 1.42c.85.94 1.08 1.71 1.16 4l.34 9.17c.13 3.49-.63 6-2.41 8.19a10.78 10.78 0 0 1 -17-.06c-1.67-2.11-2.24-3.91-2.36-7.32l-.34-9.1c-.09-2.44 0-3.06.74-4.06a4.57 4.57 0 0 1 3.31-1.79 4.51 4.51 0 0 1 3.18 1.24c.89.86 1.23 1.82 1.3 3.64z"/><path d="m384.67 130.05a13.9 13.9 0 0 1 -9 3.55 13.56 13.56 0 1 1 8.33-24.11c2.12 1.63 3.19 3.36 3.22 5.06a4.27 4.27 0 0 1 -4.19 4.33 3.86 3.86 0 0 1 -2.69-1l-1.26-1.34a5.06 5.06 0 1 0 -3.58 8.58 5.19 5.19 0 0 0 3.76-1.77l.88-.94a4.22 4.22 0 0 1 2.92-1.28 4.36 4.36 0 0 1 4.33 4.11c.01 1.55-.93 3.19-2.72 4.81z"/><path d="m393.27 133a4.19 4.19 0 0 1 -4.19-4.29 5.12 5.12 0 0 1 .56-2.24l8.21-17.1a4.26 4.26 0 0 1 3.93-2.53 4.34 4.34 0 0 1 4 2.62l8 17.41a4.33 4.33 0 0 1 .49 2.06 4.28 4.28 0 0 1 -4.33 4.19c-2 0-3.13-1-4.31-3.6l-7.9-.05c-1.12 2.53-2.41 3.53-4.46 3.53zm9.71-9.65-1.29-3.11-1.34 3.09z"/><path d="m417 115.12a4.15 4.15 0 0 1 -3.18-1.21 4 4 0 0 1 -1.13-2.85 4.09 4.09 0 0 1 2.3-3.51c.9-.36 1.25-.39 4.62-.31l8.6.23a16.72 16.72 0 0 1 2.9.15 3.87 3.87 0 0 1 3.39 4 4.29 4.29 0 0 1 -1.48 3 4.72 4.72 0 0 1 -3.31.84h-1.9l-.34 12.86a5.63 5.63 0 0 1 -.82 3.27 4 4 0 0 1 -3.57 1.85 4.28 4.28 0 0 1 -3.48-1.88 5.3 5.3 0 0 1 -.65-3.38l.34-12.94z"/><path d="m445.24 129.25a4.72 4.72 0 0 1 -1.23 3.44 4.33 4.33 0 0 1 -6.35-.19 4.61 4.61 0 0 1 -.93-3.61l.68-16c.09-2.17.32-2.94 1.25-3.87a4.1 4.1 0 0 1 3.19-1.25 4.27 4.27 0 0 1 3.12 1.49c.81 1 1 1.9.95 4z"/><path d="m463.4 108.5a13.56 13.56 0 1 1 -14.4 12.5 13.56 13.56 0 0 1 14.4-12.5zm-1.15 18.64a5.12 5.12 0 0 0 5.39-4.78 5.07 5.07 0 0 0 -10.12-.69 5.13 5.13 0 0 0 4.73 5.47z"/><path d="m494.7 116.66a5.11 5.11 0 0 1 1.08-3.28 4.21 4.21 0 0 1 6.75.31 4.89 4.89 0 0 1 .68 3.49l-1.47 15.74c-.19 2-.46 2.87-1.28 3.77a4.21 4.21 0 0 1 -3.46 1.31 4.07 4.07 0 0 1 -3.19-2.05l-5.91-9.23-.51 5.4a4.64 4.64 0 0 1 -1.28 3.31 4.3 4.3 0 0 1 -3.42 1.24 4.37 4.37 0 0 1 -3.24-2c-.6-1-.72-1.82-.55-3.71l1.52-16.28a4.26 4.26 0 0 1 4.86-4.13 3.84 3.84 0 0 1 3 2l6 8.92z"/></g><path d="m642.79 301.26h-140.79v-48.26h140.79a69.86 69.86 0 0 1 30 6.78 77.06 77.06 0 0 1 24.51 18.46 87.2 87.2 0 0 1 16.53 27.39 94.38 94.38 0 0 1 6.07 33.56v5.75h40.1l-59.84 98.06-59.84-98.06h36.42v-5.75c0-20.92-15.23-37.93-33.95-37.93z" fill="#ea212d"/><path d="m700.16 429.47 46.94-76.91h-34v-13.37a86.11 86.11 0 0 0 -5.53-30.59 79.56 79.56 0 0 0 -15.07-25 70.36 70.36 0 0 0 -22.35-16.83 63.64 63.64 0 0 0 -27.38-6.18h-134v33h134c22.48 0 40.77 20.43 40.77 45.55v13.37h-30.32zm38.33-71.83-38.33 62.81-38.33-62.81h26.28v-18.45c0-27.92-20.33-50.63-45.32-50.63h-129.41v-22.86h129.41a59.48 59.48 0 0 1 25.61 5.78 65.64 65.64 0 0 1 20.9 15.74 74.44 74.44 0 0 1 14.1 23.36 80.51 80.51 0 0 1 5.17 28.61v18.45z" fill="#fff"/><circle cx="611.5" cy="277.5" fill="#424242" r="3.5"/><circle cx="587.5" cy="277.5" fill="#353535" r="3.5"/><circle cx="612.5" cy="277.5" fill="#565656" r="3.5"/><circle cx="588.5" cy="277.5" fill="#424242" r="3.5"/></svg>