<svg xmlns="http://www.w3.org/2000/svg" width="259" height="167" viewBox="0 0 259 167"><title>World_Space</title><g id="Layer_7" data-name="Layer 7"><path d="M133.53,94l-90,20.18s31.27,27.22,90,27.22,90-27.22,90-27.22Z" style="fill:#0ca580"/><path d="M228.47,76.37a100.24,100.24,0,0,0-189.88,0Z" style="fill:#0fb996"/><path d="M210.27,78.16a81,81,0,0,0-153.48,0Z" style="fill:#7fdadd"/><path d="M242.36,76.37H24.7a9.42,9.42,0,0,0,0,18.83H36.45a8.92,8.92,0,0,0-8.92,8.92v1A8.91,8.91,0,0,0,36.45,114H230.62a8.91,8.91,0,0,0,8.91-8.91v-1a8.92,8.92,0,0,0-8.91-8.92h11.74a9.42,9.42,0,1,0,0-18.83Z" style="fill:#e6e6e6"/><path d="M73.14,152.85l13.31-24.4-6-3.24L66.56,150.77a10.52,10.52,0,0,0-10.24,10.51,10.41,10.41,0,0,0,.35,2.57H77.05a10.22,10.22,0,0,0-3.91-11Z" style="fill:#0ca580"/><path d="M193.92,152.85l-13.3-24.4,5.94-3.24,13.94,25.56a10.52,10.52,0,0,1,10.25,10.51,10.41,10.41,0,0,1-.35,2.57H190a10.41,10.41,0,0,1-.35-2.57A10.52,10.52,0,0,1,193.92,152.85Z" style="fill:#0ca580"/><path d="M68,94a8,8,0,1,1-8-8A8,8,0,0,1,68,94Z" style="fill:#f15a24"/><circle cx="59.91" cy="94.01" r="4.31" style="fill:#fa0"/><path d="M104.39,94a8,8,0,1,1-8-8A8,8,0,0,1,104.39,94Z" style="fill:#f15a24"/><path d="M140.83,94a8,8,0,1,1-8-8A8,8,0,0,1,140.83,94Z" style="fill:#f15a24"/><path d="M177.27,94a8,8,0,1,1-8.05-8A8,8,0,0,1,177.27,94Z" style="fill:#f15a24"/><path d="M213.7,94a8,8,0,1,1-8-8A8,8,0,0,1,213.7,94Z" style="fill:#f15a24"/><circle cx="96.35" cy="94.01" r="4.31" style="fill:#fa0"/><circle cx="132.79" cy="94.01" r="4.31" style="fill:#fa0"/><circle cx="169.22" cy="94.01" r="4.31" style="fill:#fa0"/><circle cx="205.66" cy="94.01" r="4.31" style="fill:#fa0"/></g></svg>