<svg xmlns="http://www.w3.org/2000/svg" width="820" height="333" viewBox="0 0 820 333"><title>World_Sea</title><g id="GroundMe"><rect x="26.18" y="213" width="784.82" height="114" style="fill:#919191"/><polyline points="811 224 748.42 252 680.39 224 616.45 253 551.15 224 485.84 252 420.54 224 353.88 253 288.57 224 224.63 252 157.97 224 94.02 252 26 225 26 263 94.02 291 159.33 263 223.27 291 288.57 263 355.24 291 417.82 261 485.84 291 551.15 261 616.45 291 680.39 263 748.42 291 811 263" style="fill:#666"/><polyline points="26 327 26 294 91.3 319 157.97 291 224.63 319 288.57 291 357.96 319 420.54 291 487.2 319 551.15 291 616.45 319 680.39 291 749.78 319 811 291 811 327" style="fill:#666"/><path d="M754,237h-.28a14.69,14.69,0,0,0-1-1.69l-2.73-4-.39-.58a1,1,0,0,0-.92-.57h-6a2.85,2.85,0,0,0-.41,0,.59.59,0,0,0-.38.24c-.14.18-.27.37-.4.56s-.4.65-.61,1l-2.48,3.67-.45.64a1.25,1.25,0,0,1-.23.23.34.34,0,0,1-.46,0,1.75,1.75,0,0,1-.23-.24c-.12-.15-.23-.32-.35-.49l-1.36-2c-.11-.17-.23-.34-.33-.52-.5-.84-1.06-1.61-1.59-2.4l-.25-.35a.72.72,0,0,0-.5-.31l-.7,0h-5.69a1,1,0,0,0-.87.52c-.08.13-.17.24-.25.36l-1.22,1.8-.42.67c-.26.39-.51.79-.76,1.17l-.83,1.23-.33.52a1.94,1.94,0,0,0-.24.61H721a4.84,4.84,0,0,0-.6-1.1c-.32-.49-.64-1-1-1.45l-2.18-3.24c-.12-.16-.23-.33-.35-.5-.35-.49-.47-.57-1-.59h-6a.94.94,0,0,0-.87.51c-.11.18-.23.34-.34.5l-2.86,4.25c-.15.22-.29.44-.43.66a7.21,7.21,0,0,0-.52.95h-.27a1.94,1.94,0,0,0-.24-.61c-.14-.23-.29-.45-.43-.66-.56-.85-1.15-1.67-1.68-2.56a2.9,2.9,0,0,0-.19-.29l-1.31-1.95c-.11-.16-.23-.33-.35-.48a.69.69,0,0,0-.51-.3,5.07,5.07,0,0,0-.55,0h-5.9a.76.76,0,0,0-.21,0,.67.67,0,0,0-.38.23c-.05.06-.11.12-.16.19-.5.75-1,1.49-1.5,2.25-.28.44-.56.89-.86,1.32l-1.12,1.65-.33.51a2.14,2.14,0,0,0-.29.69h-.27a1.72,1.72,0,0,0-.21-.52c-.12-.2-.25-.4-.38-.59l-2-3c-.46-.67-.92-1.33-1.34-2a4.67,4.67,0,0,0-.3-.43.71.71,0,0,0-.5-.31q-.35,0-.69,0h-5.28q-.32,0-.63,0a.77.77,0,0,0-.56.35c-.12.16-.23.33-.35.5l-2.18,3.24c-.13.19-.26.39-.38.59l-.81,1.26a8.08,8.08,0,0,0-.54.91h-.28a1.7,1.7,0,0,0-.23-.62c-.1-.18-.22-.35-.33-.51-.28-.41-.55-.82-.81-1.26a4.45,4.45,0,0,0-.33-.51c-.71-1.06-1.42-2.12-2.14-3.17-.06-.1-.13-.19-.2-.29a1,1,0,0,0-.8-.51h-6.32l-.2,0a.67.67,0,0,0-.38.23c-.09.11-.18.22-.26.34-.39.57-.79,1.14-1.15,1.75-.17.28-.35.54-.53.81l-1.75,2.59c-.13.19-.25.39-.38.59a1.45,1.45,0,0,0-.19.53h-.28a4,4,0,0,0-.54-1.05l-1.8-2.66c-.45-.67-.91-1.33-1.33-2l-.39-.58-.15-.2a.72.72,0,0,0-.51-.31q-.35,0-.69,0h-5.62c-.52,0-.63.09-1,.59l-.15.22-2,2.95c-.1.14-.19.29-.28.44-.32.54-.66,1-1,1.55-.13.19-.25.39-.37.6a1.66,1.66,0,0,0-.19.53h-.28c-.08-.16-.16-.33-.25-.48-.42-.67-.84-1.35-1.28-2l-1.36-2-1-1.51c-.13-.2-.27-.38-.41-.56a.66.66,0,0,0-.5-.3q-.35,0-.69,0h-5.48l-.28,0a.82.82,0,0,0-.63.37l-.29.42c-1.16,1.7-2.31,3.41-3.46,5.11l-.28.44a2,2,0,0,0-.21.52h-.28a1.9,1.9,0,0,0-.25-.6l-.42-.67-1.66-2.45c-.21-.31-.41-.64-.61-.95l-1.11-1.67a3.17,3.17,0,0,0-.21-.27.62.62,0,0,0-.38-.23c-.21,0-.42,0-.62,0h-5.83l-.21,0a.69.69,0,0,0-.5.3c-.14.18-.27.37-.41.56l-1.21,1.8a7.31,7.31,0,0,0-.43.65c-.44.74-.92,1.43-1.39,2.12l-.48.73a1.93,1.93,0,0,0-.28.69h-.28a1.91,1.91,0,0,0-.16-.44c-.08-.13-.15-.26-.24-.38l-3.64-5.39c-.08-.12-.17-.23-.26-.34a.69.69,0,0,0-.5-.3c-.23,0-.46,0-.7,0h-5.61a1,1,0,0,0-.87.52l0,.07-2.62,3.9-.05.07c-.33.57-.68,1.1-1,1.62a5.83,5.83,0,0,0-.4.7h-.28a1.45,1.45,0,0,0-.19-.53c-.12-.2-.25-.4-.38-.59l-1.31-1.95c-.16-.24-.33-.48-.48-.73-.5-.84-1.05-1.61-1.59-2.41-.09-.14-.2-.27-.3-.4a.62.62,0,0,0-.38-.23,3,3,0,0,0-.42,0h-5.9a3,3,0,0,0-.42,0,.7.7,0,0,0-.38.23l-.16.2c-.52.77-1,1.52-1.55,2.31q-.59.93-1.2,1.83l-1,1.44a8.33,8.33,0,0,0-.51.83h-.14a4.64,4.64,0,0,0-.54-1c-.47-.7-.94-1.4-1.42-2.09-.63-.94-1.26-1.88-1.9-2.81q-.22-.33-.45-.63a.64.64,0,0,0-.44-.27,5.58,5.58,0,0,0-.7,0h-5.29c-.2,0-.41,0-.62,0a.6.6,0,0,0-.44.27c-.16.2-.31.41-.45.62-.75,1.11-1.5,2.21-2.24,3.33-.42.63-.83,1.28-1.24,1.92l-.09.16a2.14,2.14,0,0,0-.18.54h-.27a7,7,0,0,0-.46-.76c-.61-.92-1.23-1.83-1.82-2.77s-1.23-1.83-1.85-2.74c-.08-.12-.17-.23-.26-.34a.62.62,0,0,0-.38-.23,2.71,2.71,0,0,0-.41,0h-5.9a3,3,0,0,0-.42,0,.59.59,0,0,0-.37.24,5.66,5.66,0,0,0-.4.56c-.32.54-.66,1-1,1.54-.75,1.11-1.5,2.21-2.24,3.32-.15.21-.29.43-.43.66a1.71,1.71,0,0,0-.2.52h-.28a4,4,0,0,0-.45-.9c-.11-.17-.22-.34-.34-.5q-1.23-1.84-2.48-3.67c-.26-.39-.51-.78-.76-1.17-.08-.12-.16-.24-.25-.35a.59.59,0,0,0-.37-.25c-.26,0-.51,0-.77,0H530.4a5.09,5.09,0,0,0-.55,0,.65.65,0,0,0-.38.22c-.09.11-.18.22-.26.34l-2.33,3.45c0,.08-.1.15-.14.23-.29.49-.6.94-.91,1.4l-.38.58a1.76,1.76,0,0,0-.22.62h-.42a1.77,1.77,0,0,0-.23-.62c0-.08-.09-.15-.14-.23-.46-.66-.9-1.35-1.33-2.05l-.15-.22-2-3-.36-.49a.6.6,0,0,0-.44-.27c-.23,0-.46,0-.69,0h-5.29a4.4,4.4,0,0,0-.62,0,.58.58,0,0,0-.44.27c-.16.2-.31.41-.46.62L510,235c-.35.53-.69,1.09-1,1.64a3.36,3.36,0,0,0-.16.33h-.28a1.5,1.5,0,0,0-.21-.52c-.12-.2-.25-.4-.38-.59-.66-1-1.33-2-2-2.95-.45-.68-.92-1.34-1.34-2.05a4.73,4.73,0,0,0-.35-.49.64.64,0,0,0-.38-.24,2.71,2.71,0,0,0-.41,0h-5.9a3,3,0,0,0-.42,0,.62.62,0,0,0-.38.23c-.14.18-.27.36-.4.55l-1.56,2.3c-.13.2-.26.39-.38.59-.27.46-.56.9-.86,1.33l-.73,1.08a5.64,5.64,0,0,0-.45.76h-.28a1.74,1.74,0,0,0-.27-.7c-.36-.57-.71-1.15-1.08-1.7q-1.26-1.89-2.54-3.76c-.09-.14-.2-.28-.3-.41a.64.64,0,0,0-.44-.27,5.37,5.37,0,0,0-.7,0H481.5a4.44,4.44,0,0,0-.63,0,.64.64,0,0,0-.44.27c-.13.18-.27.36-.4.55l-2.92,4.33a15.65,15.65,0,0,0-1,1.69h-.28a1.29,1.29,0,0,0-.19-.53c-.09-.15-.18-.3-.28-.45L474,233.93c-.16-.24-.33-.47-.48-.73-.5-.84-1.05-1.61-1.58-2.4l-.31-.41a.62.62,0,0,0-.38-.23,3,3,0,0,0-.42,0h-5.89a3,3,0,0,0-.42,0,.64.64,0,0,0-.38.24l-.21.26c-.25.39-.51.77-.77,1.17s-.53.84-.8,1.24l-1.85,2.74c-.15.22-.29.44-.43.66a1.67,1.67,0,0,0-.2.53h-.28a3.75,3.75,0,0,0-.21-.4c-.27-.46-.54-.92-.83-1.35-1-1.48-2-2.94-3-4.41-.09-.14-.2-.28-.3-.41a.64.64,0,0,0-.44-.27,5.37,5.37,0,0,0-.7,0h-5.28c-.21,0-.42,0-.63,0a.64.64,0,0,0-.44.27q-.23.3-.45.63l-2,2.89c-.51.77-1,1.56-1.52,2.35a.56.56,0,0,0-.05.08,1.76,1.76,0,0,0-.22.62h-.41a2.19,2.19,0,0,0-.33-.76l-1-1.44c-.26-.39-.53-.76-.77-1.17-.6-1-1.25-1.89-1.88-2.83a4.33,4.33,0,0,0-.3-.41.62.62,0,0,0-.38-.23c-.23,0-.46,0-.69,0h-5.76a1.33,1.33,0,0,0-.28,0,.63.63,0,0,0-.37.24,3.19,3.19,0,0,0-.3.42c-.3.51-.63,1-.95,1.47L428,235.53l-.42.66a4.13,4.13,0,0,0-.42.81h-.27a2.52,2.52,0,0,0-.17-.44l-.23-.37-3.65-5.4c-.08-.12-.17-.23-.25-.34a.73.73,0,0,0-.51-.3c-.25,0-.51,0-.76,0h-5.55a1.24,1.24,0,0,0-.27,0,.67.67,0,0,0-.38.23,4.4,4.4,0,0,0-.31.41c-.83,1.22-1.66,2.43-2.48,3.67-.43.65-.84,1.33-1.28,2-.11.17-.2.37-.3.55h-.28a1.85,1.85,0,0,0-.24-.61l-.42-.67c-.34-.51-.69-1-1-1.53-.74-1.2-1.55-2.32-2.32-3.49a2.47,2.47,0,0,0-.21-.27.64.64,0,0,0-.44-.27,5.09,5.09,0,0,0-.55,0h-5.57a3.87,3.87,0,0,0-.48,0,.74.74,0,0,0-.5.33l-.2.28-3.31,4.9a7.2,7.2,0,0,0-.74,1.34h-.28a5.08,5.08,0,0,0-.59-1.11l-2.67-4c-.26-.38-.51-.78-.77-1.17-.08-.12-.16-.24-.25-.35a.57.57,0,0,0-.37-.25,3,3,0,0,0-.42,0H383.2a2.71,2.71,0,0,0-.41,0,.64.64,0,0,0-.38.24,1.46,1.46,0,0,0-.16.19c-.44.65-.88,1.29-1.31,1.95s-.69,1.09-1.05,1.61-.77,1.15-1.16,1.73c-.13.19-.26.39-.38.59a1.45,1.45,0,0,0-.19.53h-.28a8.57,8.57,0,0,0-.65-1.06c-.29-.43-.58-.86-.85-1.33l-.33-.51-2.15-3.18-.3-.42a.73.73,0,0,0-.56-.35l-.76,0h-5.36c-.63,0-.72.06-1.16.72l-3.23,4.75c-.16.25-.31.5-.45.77a2.18,2.18,0,0,0-.2.64h-.42a3.59,3.59,0,0,0-.44-.9l-.43-.65c-1-1.5-2-2.94-3-4.49-.13-.2-.27-.38-.4-.56a.64.64,0,0,0-.38-.24,3,3,0,0,0-.41,0h-5.9a2.71,2.71,0,0,0-.41,0,.64.64,0,0,0-.38.24l-.21.26c-.22.34-.45.68-.67,1s-.43.69-.66,1l-2.08,3.1c-.15.22-.29.44-.43.66a1.72,1.72,0,0,0-.21.52h-.28a3.36,3.36,0,0,0-.16-.33c-.29-.48-.58-1-.89-1.42-1-1.48-2-2.94-3-4.4-.1-.15-.2-.28-.31-.42a.6.6,0,0,0-.44-.27,5.32,5.32,0,0,0-.69,0h-5.29a4.4,4.4,0,0,0-.62,0,.64.64,0,0,0-.44.27c-.17.23-.34.46-.5.7L330.28,235c-.37.55-.72,1.14-1.08,1.71a3.36,3.36,0,0,0-.16.33h-.28a1.48,1.48,0,0,0-.2-.52l-.42-.67-1.85-2.73-.81-1.25c-.25-.39-.51-.78-.77-1.16a1.89,1.89,0,0,0-.2-.27.64.64,0,0,0-.38-.24,3,3,0,0,0-.42,0h-5.89a2.71,2.71,0,0,0-.41,0,.65.65,0,0,0-.38.24,4.83,4.83,0,0,0-.44.64c-.25.39-.5.79-.76,1.17l-2.38,3.53-.25.36a4,4,0,0,0-.44.9h-.41a1.8,1.8,0,0,0-.24-.72c-.13-.23-.28-.46-.42-.67l-1.41-2.1c-.56-.81-1.11-1.63-1.66-2.45l-.46-.63a.6.6,0,0,0-.43-.27c-.24,0-.47,0-.7,0h-5.22l-.62,0a.71.71,0,0,0-.51.29l-.3.42-.83,1.23c-.27.41-.56.81-.82,1.23-.35.59-.73,1.14-1.1,1.69l-.83,1.23a8.06,8.06,0,0,0-.46.76h-.27a1.46,1.46,0,0,0-.2-.53c-.12-.2-.25-.4-.38-.59L294,233.71c-.18-.26-.36-.52-.52-.8-.46-.77-1-1.47-1.45-2.19a2.91,2.91,0,0,0-.26-.33.58.58,0,0,0-.38-.23c-.23,0-.46,0-.69,0H285a1.37,1.37,0,0,0-.28.05.52.52,0,0,0-.31.19,5.56,5.56,0,0,0-.42.54L280.61,236a4.64,4.64,0,0,0-.54,1h-.28a8,8,0,0,0-.7-1.26l-1.22-1.8-1.94-2.88c-.15-.22-.3-.43-.46-.63a.64.64,0,0,0-.44-.27c-.23,0-.46,0-.69,0h-5.28c-.21,0-.42,0-.63,0a.58.58,0,0,0-.38.23,3,3,0,0,0-.21.26l-.91,1.38-.81,1.26-1.75,2.6c-.13.19-.26.39-.38.59a1.41,1.41,0,0,0-.2.52h-.28a6,6,0,0,0-.31-.55c-.57-.84-1.12-1.71-1.68-2.56s-1.33-2-2-3l-.14-.22c-.36-.5-.47-.57-1-.59h-5.64c-.21,0-.42,0-.62,0a.62.62,0,0,0-.44.28c-.16.2-.31.41-.46.62L247.92,236l-.34.51a2,2,0,0,0-.21.52h-.28a2.3,2.3,0,0,0-.25-.6l-.39-.58-2.38-3.53c-.32-.48-.65-.95-.95-1.46a3.19,3.19,0,0,0-.3-.42.61.61,0,0,0-.37-.25,3,3,0,0,0-.42,0h-5.89a2.71,2.71,0,0,0-.41,0,.67.67,0,0,0-.38.23,2.78,2.78,0,0,0-.21.27c-.29.43-.59.85-.87,1.31s-.66,1-1,1.53l-1.17,1.72-.62.95a3.17,3.17,0,0,0-.39.83h-.42a1.76,1.76,0,0,0-.22-.62l-.14-.22c-.46-.67-.91-1.35-1.34-2.06a1.64,1.64,0,0,0-.14-.22l-2-3-.3-.42a.76.76,0,0,0-.56-.35q-.34,0-.69,0h-5.5c-.52,0-.63.09-1,.59l-.3.43c-.32.49-.65,1-1,1.45-.47.7-.95,1.38-1.39,2.12-.12.21-.26.39-.38.59l-.69,1a5.68,5.68,0,0,0-.4.69h-.28a1.53,1.53,0,0,0-.2-.53l-.42-.66-1.85-2.73c-.34-.5-.68-1-1-1.54-.17-.28-.35-.54-.53-.8a1.89,1.89,0,0,0-.2-.27.72.72,0,0,0-.5-.32,5.07,5.07,0,0,0-.55,0h-5.48a5.25,5.25,0,0,0-.56,0,.69.69,0,0,0-.49.31,4.15,4.15,0,0,0-.3.43c-.42.72-.89,1.37-1.34,2l-2,3a4.43,4.43,0,0,0-.54,1h-.28c-.08-.16-.16-.33-.25-.48-.31-.5-.62-1-.94-1.49l-2.82-4.18c-.09-.12-.17-.24-.26-.35a.74.74,0,0,0-.56-.35q-.34,0-.69,0h-5.21c-.21,0-.42,0-.63,0a.6.6,0,0,0-.38.22l-.21.27c-.42.62-.85,1.24-1.26,1.88s-.69,1.09-1.05,1.62l-1.21,1.8-.33.52a1.67,1.67,0,0,0-.2.53h-.41a2.33,2.33,0,0,0-.29-.68c-.11-.18-.23-.35-.34-.51l-1.8-2.67c-.23-.34-.44-.69-.67-1l-1-1.46-.21-.26a.58.58,0,0,0-.38-.23c-.23,0-.46,0-.69,0h-5.28c-.21,0-.42,0-.63,0a.68.68,0,0,0-.44.27c-.12.16-.24.32-.35.49l-3,4.47c-.21.31-.4.65-.6,1a2,2,0,0,0-.21.63h-.41a3.75,3.75,0,0,0-.21-.4c-.39-.62-.78-1.25-1.18-1.85-.86-1.29-1.72-2.56-2.58-3.83l-.3-.42a.77.77,0,0,0-.56-.35c-.23,0-.47,0-.7,0h-5.21c-.21,0-.41,0-.62,0a.6.6,0,0,0-.38.22,1.56,1.56,0,0,0-.16.2c-.48.69-1,1.37-1.41,2.1-.25.4-.5.79-.76,1.18l-1.17,1.72c-.18.27-.35.54-.52.81a1.94,1.94,0,0,0-.24.61H149a1.85,1.85,0,0,0-.24-.61l-.33-.52-1.12-1.65c-.18-.27-.36-.53-.53-.81-.55-.91-1.15-1.75-1.73-2.62-.1-.14-.21-.28-.31-.4a.54.54,0,0,0-.38-.23c-.23,0-.47,0-.7,0h-5.21c-.21,0-.41,0-.62,0a.74.74,0,0,0-.56.35c-.12.16-.24.33-.35.5l-2.49,3.67-.24.37c-.29.47-.59.94-.89,1.41a3.22,3.22,0,0,0-.3.55h-.28a1.72,1.72,0,0,0-.21-.52l-.33-.52L131,234.24c-.72-1.06-1.43-2.12-2.15-3.17-.11-.17-.23-.33-.35-.5a.85.85,0,0,0-.68-.43l-.69,0H122c-.21,0-.42,0-.63,0a.58.58,0,0,0-.38.23,1.83,1.83,0,0,0-.21.26c-.27.41-.55.82-.82,1.24l-.66,1-1,1.44c-.37.56-.74,1.11-1.12,1.66a3.73,3.73,0,0,0-.48,1h-.42a1.29,1.29,0,0,0-.19-.53c-.15-.25-.31-.5-.47-.74-.57-.84-1.15-1.66-1.68-2.56l-.19-.29-1.32-1.95c-.11-.16-.23-.33-.35-.48a.66.66,0,0,0-.5-.3c-.23,0-.46,0-.7,0h-5.48c-.53,0-.64.09-1,.59l-.25.36-1.11,1.66c-.15.22-.3.44-.43.66-.29.49-.6,1-.9,1.4L101,236l-.33.52a1.45,1.45,0,0,0-.19.53H100a4.41,4.41,0,0,0-.59-1.12l-2.38-3.53c-.34-.5-.69-1-1-1.54a4,4,0,0,0-.3-.42.58.58,0,0,0-.38-.23c-.23,0-.46,0-.69,0H89.39a5.25,5.25,0,0,0-.56,0,.77.77,0,0,0-.56.35l-.3.42-3.31,4.91c-.1.14-.19.29-.28.44a1.57,1.57,0,0,0-.22.73h-.42c-.1-.18-.19-.38-.3-.55-.58-.83-1.12-1.71-1.68-2.56s-1.33-2-2-3c-.08-.12-.17-.23-.25-.36a.87.87,0,0,0-.75-.44H73.14l-.62,0a.78.78,0,0,0-.63.37c-.12.16-.24.32-.35.49l-1.07,1.59-.57.88c-.26.39-.51.79-.76,1.18l-.88,1.29-.29.45a1.65,1.65,0,0,0-.23.61h-.42a1.9,1.9,0,0,0-.25-.6c-.12-.2-.25-.4-.38-.59L64.79,233c-.37-.55-.75-1.1-1.09-1.69-.14-.23-.29-.43-.44-.65l-.15-.2a.72.72,0,0,0-.5-.31l-.7,0H56.36a1.27,1.27,0,0,0-.28,0,.69.69,0,0,0-.44.28c-.17.22-.34.46-.5.7q-1.44,2.12-2.87,4.25-.39.57-.75,1.2c-.07.13-.13.27-.2.41h-.41a1.9,1.9,0,0,0-.27-.7c-.38-.59-.75-1.19-1.14-1.77-.8-1.21-1.62-2.41-2.43-3.61-.09-.14-.2-.28-.3-.42a.76.76,0,0,0-.56-.35q-.35,0-.69,0H40l-.28,0a.65.65,0,0,0-.38.23,3,3,0,0,0-.21.26c-.42.63-.85,1.24-1.25,1.88s-.7,1.09-1.05,1.62l-1.12,1.65c-.12.17-.23.34-.34.51A2.14,2.14,0,0,0,35,237h-.41a1.71,1.71,0,0,0-.2-.52l-.38-.59c-1-1.57-2.12-3.08-3.12-4.7-.16-.25-.33-.48-.49-.71a.73.73,0,0,0-.57-.34l-.69,0H26V186H810.32v44.12h-2.14a5.25,5.25,0,0,0-.56,0,.71.71,0,0,0-.44.26,1.49,1.49,0,0,0-.15.2c-.44.64-.88,1.28-1.3,1.94s-.66,1-1,1.54-.81,1.19-1.21,1.79a5.69,5.69,0,0,0-.33.52,1.8,1.8,0,0,0-.24.6h-.28a1.73,1.73,0,0,0-.22-.52c-.12-.2-.25-.39-.38-.59l-1.94-2.9c-.37-.55-.75-1.1-1.1-1.69-.12-.2-.25-.39-.38-.59a1,1,0,0,0-.92-.59h-6.19l-.28,0a.64.64,0,0,0-.38.24l-.36.47-3.4,5.07c-.08.12-.16.24-.25.35a.47.47,0,0,1-.82,0,3.23,3.23,0,0,1-.4-.55c-.17-.28-.34-.56-.52-.82-.89-1.33-1.79-2.65-2.68-4l-.25-.36a.92.92,0,0,0-.81-.48h-6.26a1.26,1.26,0,0,0-.27,0,.53.53,0,0,0-.32.2,1.83,1.83,0,0,0-.21.26c-.28.41-.55.82-.82,1.23-.16.25-.31.51-.47.75-.72,1.06-1.43,2.12-2.15,3.17-.11.17-.23.34-.35.49a1.19,1.19,0,0,1-.23.22.32.32,0,0,1-.41,0,1.19,1.19,0,0,1-.23-.22l-.35-.49c-.57-.84-1.14-1.68-1.7-2.53-.12-.16-.23-.33-.34-.51-.4-.7-.86-1.33-1.29-2l-.21-.27a.73.73,0,0,0-.56-.34l-.56,0H759c-.56,0-.66.07-1.05.65-.77,1.16-1.58,2.28-2.31,3.5-.12.21-.25.4-.38.59-.24.36-.49.72-.73,1.09l-.33.52A1.45,1.45,0,0,0,754,237Z" style="fill:#494949"/><rect x="368.1" y="72" width="440.9" height="114" style="fill:#919191"/><polyline points="809 83 773.84 111 735.63 83 699.71 112 663.02 83 626.33 111 589.65 83 552.2 112 515.51 83 479.59 111 442.14 83 406.21 111 368 84 368 122 406.21 150 442.9 122 478.82 150 515.51 122 552.96 150 588.12 120 626.33 150 663.02 120 699.71 150 735.63 122 773.84 150 809 122" style="fill:#666"/><polyline points="368 186 368 153 404.69 178 442.14 150 479.59 178 515.51 150 554.49 178 589.65 150 627.1 178 663.02 150 699.71 178 735.63 150 774.61 178 809 150 809 186" style="fill:#666"/><path d="M777,96h-.16a17.64,17.64,0,0,0-.55-1.69l-1.53-4c-.08-.2-.15-.38-.22-.58-.14-.4-.31-.6-.52-.57h-3.4a.93.93,0,0,0-.23,0q-.12,0-.21.24c-.08.18-.16.37-.23.56s-.22.65-.34,1c-.47,1.23-.93,2.45-1.4,3.67-.08.22-.16.43-.25.64a1.61,1.61,0,0,1-.12.23q-.13.18-.27,0l-.12-.24c-.07-.15-.13-.32-.2-.49-.25-.67-.51-1.34-.77-2l-.18-.52c-.28-.84-.59-1.61-.89-2.4l-.15-.35c-.08-.18-.17-.3-.28-.31a2.56,2.56,0,0,0-.39,0h-3.2c-.19,0-.35.15-.49.52,0,.13-.09.24-.13.36L760,91.8l-.24.67c-.14.39-.28.79-.42,1.17l-.47,1.23-.18.52a2.61,2.61,0,0,0-.14.61h-.15a8.44,8.44,0,0,0-.34-1.1c-.18-.49-.36-1-.55-1.45-.41-1.08-.82-2.16-1.22-3.24-.07-.16-.13-.33-.2-.5-.19-.49-.26-.57-.55-.59h-3.39c-.19,0-.36.14-.49.51-.06.18-.13.34-.19.5-.54,1.42-1.08,2.83-1.61,4.25-.08.22-.17.44-.24.66s-.21.6-.29,1h-.16a3.26,3.26,0,0,0-.13-.61l-.24-.66c-.32-.85-.65-1.67-.94-2.56,0-.1-.07-.2-.11-.29l-.74-1.95c-.06-.16-.13-.33-.2-.48s-.17-.29-.28-.3a1.63,1.63,0,0,0-.31,0h-3.32l-.11,0a.45.45,0,0,0-.22.23,1.08,1.08,0,0,0-.08.19c-.29.75-.57,1.49-.85,2.25l-.48,1.32-.63,1.65-.19.51a3.91,3.91,0,0,0-.16.69h-.15a2.49,2.49,0,0,0-.12-.52l-.21-.59c-.37-1-.75-2-1.12-3-.26-.67-.52-1.33-.76-2a4.29,4.29,0,0,0-.16-.43c-.08-.18-.17-.3-.28-.31a2.56,2.56,0,0,0-.39,0h-3l-.35,0c-.12,0-.22.14-.31.35s-.14.33-.2.5L732,93.24l-.21.59-.45,1.26c-.11.29-.22.58-.31.91h-.16a2.62,2.62,0,0,0-.12-.62c-.06-.18-.13-.35-.19-.51-.15-.41-.31-.82-.45-1.26-.06-.18-.13-.35-.19-.51l-1.2-3.17c0-.1-.08-.19-.11-.29-.12-.33-.27-.51-.45-.51h-3.55a.53.53,0,0,0-.12,0,.4.4,0,0,0-.21.23l-.15.34c-.22.57-.44,1.14-.64,1.75-.1.28-.2.54-.3.81-.33.86-.66,1.73-1,2.59-.08.19-.15.39-.22.59a3.28,3.28,0,0,0-.11.53h-.15a5.68,5.68,0,0,0-.3-1c-.34-.88-.68-1.77-1-2.66-.26-.67-.52-1.33-.76-2.05-.06-.2-.14-.39-.21-.58l-.09-.2c-.08-.18-.17-.3-.28-.31a2.56,2.56,0,0,0-.39,0H715.5c-.29,0-.35.09-.55.59l-.09.22c-.37,1-.74,2-1.12,2.95,0,.14-.11.29-.16.44-.17.54-.36,1-.56,1.55-.07.19-.14.39-.2.6a2,2,0,0,0-.11.53h-.16c0-.16-.09-.33-.14-.48-.23-.67-.47-1.35-.72-2l-.76-2c-.19-.51-.38-1-.58-1.51-.07-.2-.14-.38-.22-.56s-.18-.29-.28-.3a2.56,2.56,0,0,0-.39,0h-3.08l-.16,0c-.13,0-.25.13-.35.37l-.17.42c-.64,1.7-1.29,3.41-1.94,5.11,0,.14-.1.29-.16.44a2.5,2.5,0,0,0-.11.52h-.16a3.12,3.12,0,0,0-.14-.6l-.24-.67L702,92.28c-.12-.31-.23-.64-.35-1-.2-.56-.41-1.12-.62-1.67a1.69,1.69,0,0,0-.11-.27c-.07-.13-.14-.21-.22-.23a2,2,0,0,0-.35,0H697.1l-.12,0c-.11,0-.2.11-.28.3s-.15.37-.23.56c-.23.59-.45,1.2-.68,1.8-.08.21-.17.42-.24.65-.25.74-.52,1.43-.78,2.12l-.27.73a2.69,2.69,0,0,0-.16.69h-.16a2.63,2.63,0,0,0-.09-.44c0-.13-.08-.26-.13-.38-.68-1.79-1.37-3.59-2.05-5.39a3.45,3.45,0,0,0-.14-.34c-.08-.18-.18-.29-.29-.3a2.34,2.34,0,0,0-.38,0h-3.16c-.19,0-.36.15-.49.52l0,.07L686,93.61a.19.19,0,0,0,0,.07c-.19.57-.39,1.1-.59,1.62a5.78,5.78,0,0,0-.22.7H685a2.47,2.47,0,0,0-.11-.53l-.21-.59-.74-1.95-.27-.73c-.28-.84-.59-1.61-.89-2.41,0-.14-.11-.27-.17-.4a.38.38,0,0,0-.22-.23.85.85,0,0,0-.23,0h-3.31a1,1,0,0,0-.24,0c-.08,0-.15.11-.21.23l-.09.2c-.29.77-.59,1.52-.87,2.31-.22.62-.45,1.23-.67,1.83s-.37,1-.55,1.44c-.1.26-.2.53-.29.83h-.08a5.56,5.56,0,0,0-.3-1c-.27-.7-.53-1.4-.8-2.09-.35-.94-.71-1.88-1.07-2.81-.08-.22-.16-.43-.25-.63s-.16-.26-.25-.27a1.72,1.72,0,0,0-.39,0h-3a2.09,2.09,0,0,0-.35,0c-.09,0-.18.11-.25.27s-.17.41-.25.62l-1.26,3.33c-.24.63-.46,1.28-.69,1.92a1,1,0,0,0-.05.16,2.16,2.16,0,0,0-.1.54h-.16c-.08-.28-.16-.52-.25-.76-.35-.92-.7-1.83-1-2.77s-.69-1.83-1-2.74a3.45,3.45,0,0,0-.14-.34.38.38,0,0,0-.22-.23.85.85,0,0,0-.23,0h-3.31a1,1,0,0,0-.24,0c-.08,0-.15.11-.21.24s-.15.36-.22.56c-.18.54-.37,1-.56,1.54L658,94.82q-.12.32-.24.66a2.49,2.49,0,0,0-.12.52h-.15a6.1,6.1,0,0,0-.25-.9c-.07-.17-.13-.34-.19-.5-.47-1.23-.93-2.45-1.4-3.67-.14-.39-.28-.78-.43-1.17a3.65,3.65,0,0,0-.14-.35c-.06-.14-.13-.23-.21-.25a3,3,0,0,0-.42,0h-3a1.76,1.76,0,0,0-.31,0,.38.38,0,0,0-.21.22l-.15.34c-.43,1.15-.87,2.3-1.31,3.45a2.09,2.09,0,0,1-.08.23c-.15.49-.33.94-.5,1.4-.07.19-.15.38-.22.58a2.73,2.73,0,0,0-.12.62h-.24a2.73,2.73,0,0,0-.12-.62,2.09,2.09,0,0,1-.08-.23c-.26-.66-.51-1.35-.75-2.05,0-.08-.06-.15-.08-.22-.38-1-.75-2-1.13-3-.06-.17-.13-.33-.2-.49s-.15-.26-.24-.27a2.58,2.58,0,0,0-.39,0h-3a1.39,1.39,0,0,0-.35,0c-.09,0-.18.1-.25.27s-.17.41-.25.62c-.51,1.32-1,2.65-1.51,4-.2.53-.38,1.09-.58,1.64,0,.1-.06.22-.09.33h-.15a3.33,3.33,0,0,0-.12-.52l-.21-.59c-.38-1-.75-2-1.12-3-.26-.68-.52-1.34-.76-2a3.12,3.12,0,0,0-.19-.49c-.06-.13-.13-.22-.21-.24a1,1,0,0,0-.24,0h-3.31a.85.85,0,0,0-.23,0,.38.38,0,0,0-.22.23c-.08.18-.15.36-.23.55l-.87,2.3c-.07.2-.15.39-.21.59-.16.46-.32.9-.49,1.33s-.27.72-.41,1.08A6.77,6.77,0,0,0,630,96h-.16a2.69,2.69,0,0,0-.15-.7c-.2-.57-.4-1.15-.61-1.7-.47-1.26-1-2.51-1.42-3.76,0-.14-.11-.28-.17-.41s-.16-.26-.25-.27a1.72,1.72,0,0,0-.39,0h-3a1.45,1.45,0,0,0-.35,0c-.09,0-.18.11-.25.27s-.15.36-.22.55l-1.65,4.33c-.2.54-.38,1.09-.56,1.69h-.15a2.47,2.47,0,0,0-.11-.53c-.05-.15-.1-.3-.16-.45-.26-.7-.53-1.39-.79-2.09-.09-.24-.18-.47-.27-.73-.28-.84-.59-1.61-.89-2.4,0-.14-.11-.28-.17-.41a.4.4,0,0,0-.21-.23,1,1,0,0,0-.24,0h-3.31a.85.85,0,0,0-.23,0c-.08,0-.15.11-.22.24a2,2,0,0,0-.11.26l-.44,1.17c-.15.41-.3.84-.45,1.24-.35.92-.69,1.83-1,2.74l-.24.66a2.47,2.47,0,0,0-.11.53h-.16c0-.14-.07-.28-.11-.4-.16-.46-.31-.92-.48-1.35-.55-1.48-1.11-2.94-1.66-4.41l-.18-.41c-.07-.16-.15-.26-.24-.27a1.72,1.72,0,0,0-.39,0h-3a2,2,0,0,0-.35,0c-.1,0-.18.11-.25.27s-.17.41-.26.63c-.36,1-.73,1.92-1.09,2.89-.29.77-.57,1.56-.86,2.35,0,0,0,0,0,.08a2.71,2.71,0,0,0-.13.62h-.23a3,3,0,0,0-.18-.76c-.19-.48-.37-1-.55-1.44s-.29-.76-.43-1.17c-.34-1-.7-1.89-1-2.83-.06-.15-.12-.28-.18-.41s-.13-.21-.21-.23a2.58,2.58,0,0,0-.39,0h-3.23a.45.45,0,0,0-.16,0,.43.43,0,0,0-.21.24,4.08,4.08,0,0,0-.17.42c-.17.51-.35,1-.53,1.47l-1.23,3.24-.24.66a5.56,5.56,0,0,0-.23.81h-.16a2.63,2.63,0,0,0-.09-.44c0-.13-.09-.25-.13-.37l-2.05-5.4a3.45,3.45,0,0,0-.14-.34c-.08-.18-.18-.29-.28-.3l-.43,0H587a.4.4,0,0,0-.15,0,.41.41,0,0,0-.22.23,3.89,3.89,0,0,0-.17.41c-.46,1.22-.93,2.43-1.39,3.67l-.72,2a5,5,0,0,0-.17.55H584a2.51,2.51,0,0,0-.13-.61l-.24-.67c-.19-.51-.39-1-.57-1.53-.42-1.2-.87-2.32-1.3-3.49l-.12-.27c-.07-.15-.15-.26-.25-.27a1.65,1.65,0,0,0-.31,0h-3.13a1.24,1.24,0,0,0-.27,0c-.11,0-.2.14-.28.33s-.07.18-.11.28l-1.86,4.9A10.58,10.58,0,0,0,575,96h-.15a7,7,0,0,0-.34-1.11l-1.5-4c-.14-.38-.28-.78-.43-1.17a3.65,3.65,0,0,0-.14-.35c-.06-.14-.13-.23-.21-.25a.85.85,0,0,0-.23,0h-3.31a.85.85,0,0,0-.23,0c-.08,0-.15.11-.22.24a1.08,1.08,0,0,0-.08.19c-.25.65-.5,1.29-.74,2s-.39,1.09-.59,1.61-.44,1.15-.65,1.73c-.08.19-.15.39-.22.59a2.5,2.5,0,0,0-.1.53h-.16c-.11-.39-.23-.72-.36-1.06s-.33-.86-.48-1.33l-.19-.51-1.2-3.18c-.06-.14-.12-.28-.17-.42s-.2-.34-.32-.35a3.11,3.11,0,0,0-.43,0h-3c-.35,0-.4.06-.65.72-.61,1.58-1.21,3.17-1.81,4.75-.09.25-.18.5-.25.77a3,3,0,0,0-.12.64h-.23a6.1,6.1,0,0,0-.25-.9c-.08-.22-.16-.43-.25-.65-.55-1.5-1.14-2.94-1.67-4.49-.07-.2-.15-.38-.23-.56s-.13-.22-.21-.24a1,1,0,0,0-.23,0H550.3a1,1,0,0,0-.23,0c-.08,0-.15.11-.21.24l-.12.26c-.12.34-.25.68-.37,1s-.25.69-.37,1l-1.18,3.1-.24.66a2.5,2.5,0,0,0-.11.52h-.16a3.18,3.18,0,0,0-.09-.33c-.16-.48-.33-1-.5-1.42-.55-1.48-1.11-2.94-1.67-4.4,0-.15-.11-.28-.17-.42s-.15-.26-.25-.27a1.72,1.72,0,0,0-.39,0h-3a1.45,1.45,0,0,0-.35,0,.39.39,0,0,0-.24.27c-.1.23-.2.46-.29.7-.48,1.28-1,2.55-1.45,3.83-.21.55-.4,1.14-.61,1.71,0,.1-.06.22-.09.33h-.15a2.49,2.49,0,0,0-.12-.52c-.07-.23-.15-.45-.23-.67-.35-.91-.7-1.82-1-2.73-.16-.41-.3-.84-.45-1.25s-.29-.78-.44-1.16a1.69,1.69,0,0,0-.11-.27c-.07-.13-.14-.22-.22-.24a.85.85,0,0,0-.23,0h-3.31a.85.85,0,0,0-.23,0c-.08,0-.15.12-.21.24a5.33,5.33,0,0,0-.25.64c-.14.39-.28.79-.43,1.17-.44,1.18-.89,2.35-1.34,3.53l-.13.36a5.08,5.08,0,0,0-.25.9h-.24a2.5,2.5,0,0,0-.13-.72c-.07-.23-.15-.46-.23-.67l-.8-2.1-.93-2.45-.25-.63c-.07-.16-.16-.26-.25-.27a2.58,2.58,0,0,0-.39,0H523a2,2,0,0,0-.35,0c-.11,0-.21.11-.29.29l-.17.42-.46,1.23c-.16.41-.32.81-.46,1.23-.2.59-.41,1.14-.62,1.69l-.47,1.23a7.52,7.52,0,0,0-.25.76h-.16a2.47,2.47,0,0,0-.11-.53l-.21-.59c-.28-.72-.55-1.44-.82-2.17-.1-.26-.21-.52-.3-.8-.26-.77-.54-1.47-.81-2.19l-.15-.33c-.06-.13-.13-.22-.21-.23a2.58,2.58,0,0,0-.39,0h-3.2a.49.49,0,0,0-.16.05.32.32,0,0,0-.17.19q-.12.25-.24.54c-.64,1.68-1.27,3.37-1.91,5a6.41,6.41,0,0,0-.31,1h-.16a9.85,9.85,0,0,0-.39-1.26l-.68-1.8-1.1-2.88c-.08-.22-.16-.43-.25-.63s-.15-.25-.25-.27a2.58,2.58,0,0,0-.39,0h-3a2,2,0,0,0-.35,0c-.08,0-.16.1-.22.23s-.08.16-.12.26L503.35,91c-.15.42-.3.84-.46,1.26-.32.87-.65,1.73-1,2.6l-.21.59a3.08,3.08,0,0,0-.12.52h-.15c-.06-.18-.11-.38-.17-.55-.32-.84-.63-1.71-.95-2.56-.36-1-.74-2-1.12-3,0-.07-.05-.15-.08-.22-.2-.5-.26-.57-.56-.59h-3.16a2.2,2.2,0,0,0-.36,0c-.09,0-.17.11-.24.28s-.18.41-.26.62L492.67,95c-.07.17-.13.34-.19.51a3.33,3.33,0,0,0-.12.52h-.16a3.31,3.31,0,0,0-.14-.6l-.21-.58-1.34-3.53c-.18-.48-.37-1-.54-1.46a4.09,4.09,0,0,0-.16-.42.42.42,0,0,0-.21-.25,1,1,0,0,0-.24,0h-3.31a1,1,0,0,0-.23,0c-.08,0-.15.11-.21.23s-.08.17-.12.27c-.16.43-.33.85-.49,1.31s-.37,1-.56,1.53-.44,1.15-.65,1.72c-.12.32-.24.63-.35,1a4.55,4.55,0,0,0-.22.83H483a2.73,2.73,0,0,0-.12-.62c0-.08-.06-.15-.08-.22-.26-.67-.51-1.35-.75-2.06,0-.08-.06-.15-.08-.22l-1.13-3c-.05-.14-.11-.28-.17-.42s-.19-.34-.31-.35a2.56,2.56,0,0,0-.39,0h-3.09c-.29,0-.35.09-.55.59-.06.15-.11.29-.17.43l-.54,1.45c-.27.7-.54,1.38-.78,2.12-.07.21-.15.39-.22.59s-.25.67-.38,1-.16.44-.23.69h-.15a2.59,2.59,0,0,0-.12-.53q-.11-.33-.24-.66l-1-2.73c-.2-.5-.39-1-.57-1.54-.09-.28-.19-.54-.29-.8q-.06-.15-.12-.27c-.08-.19-.17-.3-.28-.32a1.55,1.55,0,0,0-.31,0h-3.07a1.73,1.73,0,0,0-.32,0c-.1,0-.2.13-.28.31s-.11.28-.16.43c-.24.72-.5,1.37-.75,2-.39,1-.77,2-1.15,3a5.35,5.35,0,0,0-.3,1h-.16c-.05-.16-.09-.33-.14-.48-.18-.5-.35-1-.53-1.49l-1.59-4.18a3.65,3.65,0,0,0-.14-.35c-.09-.21-.19-.34-.31-.35a2.56,2.56,0,0,0-.39,0h-2.93a2.09,2.09,0,0,0-.35,0c-.08,0-.15.1-.22.22a2.18,2.18,0,0,0-.11.27c-.24.62-.48,1.24-.71,1.88s-.39,1.09-.59,1.62-.46,1.2-.68,1.8c-.07.17-.13.35-.19.52a2.47,2.47,0,0,0-.11.53h-.23a3.07,3.07,0,0,0-.17-.68q-.09-.27-.18-.51l-1-2.67c-.12-.34-.24-.69-.37-1l-.54-1.46-.12-.26c-.06-.13-.13-.22-.21-.23a2.58,2.58,0,0,0-.39,0h-3a2.21,2.21,0,0,0-.35,0c-.09,0-.18.11-.25.27s-.13.32-.19.49c-.57,1.49-1.14,3-1.7,4.47-.12.31-.23.65-.34,1a2.74,2.74,0,0,0-.11.63h-.24a3.79,3.79,0,0,0-.12-.4c-.21-.62-.43-1.25-.66-1.85-.48-1.29-1-2.56-1.45-3.83,0-.14-.11-.28-.17-.42s-.19-.34-.31-.35a2.56,2.56,0,0,0-.39,0h-2.93a2.09,2.09,0,0,0-.35,0c-.08,0-.15.1-.21.22a1.21,1.21,0,0,0-.09.2c-.27.69-.54,1.37-.79,2.1-.14.4-.28.79-.43,1.18l-.66,1.72-.29.81a3.23,3.23,0,0,0-.14.61h-.23a3.09,3.09,0,0,0-.13-.61c-.06-.18-.13-.35-.19-.52l-.63-1.65c-.1-.27-.2-.53-.3-.81-.31-.91-.64-1.75-1-2.62a3.7,3.7,0,0,0-.18-.4c-.06-.14-.13-.22-.21-.23a2.58,2.58,0,0,0-.39,0h-2.93l-.35,0c-.12,0-.22.14-.31.35s-.13.33-.2.5l-1.39,3.67c-.05.12-.09.24-.14.37l-.5,1.41c-.06.17-.12.35-.17.55H428a2.5,2.5,0,0,0-.11-.52c-.06-.18-.13-.35-.19-.52L427,93.24l-1.2-3.17-.2-.5c-.1-.27-.23-.42-.38-.43l-.39,0h-2.89a2,2,0,0,0-.35,0c-.08,0-.15.1-.22.23a1.56,1.56,0,0,0-.11.26c-.16.41-.31.82-.46,1.24s-.25.69-.38,1l-.54,1.44L419.24,95a5.73,5.73,0,0,0-.28,1h-.23a2,2,0,0,0-.11-.53c-.08-.25-.17-.5-.26-.74-.32-.84-.65-1.66-.95-2.56,0-.1-.07-.19-.1-.29l-.74-1.95c-.07-.16-.13-.33-.2-.48s-.18-.29-.28-.3a2.56,2.56,0,0,0-.39,0h-3.08c-.3,0-.36.09-.56.59l-.14.36c-.21.56-.42,1.11-.62,1.66-.09.22-.17.44-.25.66-.16.49-.33,1-.5,1.4L410.11,95l-.18.52a2,2,0,0,0-.11.53h-.24a6.19,6.19,0,0,0-.33-1.12c-.44-1.17-.89-2.35-1.34-3.53-.19-.5-.38-1-.56-1.54-.05-.15-.11-.28-.17-.42s-.13-.22-.21-.23a2.58,2.58,0,0,0-.39,0h-3a1.63,1.63,0,0,0-.31,0c-.12,0-.23.14-.32.35s-.11.28-.17.42L401,94.83l-.15.44a2.27,2.27,0,0,0-.13.73h-.23c-.06-.18-.11-.38-.17-.55-.32-.83-.63-1.71-.94-2.56-.37-1-.75-2-1.12-3a3.84,3.84,0,0,1-.14-.36c-.12-.31-.26-.44-.42-.44h-3.17l-.35,0c-.13,0-.25.12-.35.37s-.13.32-.2.49l-.6,1.59c-.11.29-.21.58-.32.88s-.28.79-.43,1.18l-.49,1.29-.16.45a2.51,2.51,0,0,0-.13.61h-.23a3.09,3.09,0,0,0-.15-.6l-.21-.59c-.35-.94-.71-1.87-1.07-2.81-.21-.55-.42-1.1-.61-1.69-.08-.23-.16-.43-.25-.65a1.19,1.19,0,0,0-.08-.2c-.08-.18-.18-.3-.29-.31a2.56,2.56,0,0,0-.39,0h-3.12a.4.4,0,0,0-.15,0,.44.44,0,0,0-.25.28c-.09.22-.19.46-.28.7-.54,1.41-1.08,2.83-1.61,4.25q-.22.57-.42,1.2c0,.13-.08.27-.11.41H382a2.69,2.69,0,0,0-.15-.7c-.21-.59-.42-1.19-.64-1.77-.45-1.21-.91-2.41-1.36-3.61l-.17-.42c-.09-.21-.19-.34-.32-.35a2.56,2.56,0,0,0-.39,0h-3.12l-.15,0c-.08,0-.15.1-.22.23a1.56,1.56,0,0,0-.11.26c-.24.63-.48,1.24-.71,1.88s-.39,1.09-.59,1.62l-.63,1.65-.19.51a3.19,3.19,0,0,0-.16.69h-.23a2.49,2.49,0,0,0-.12-.52l-.21-.59c-.58-1.57-1.19-3.08-1.75-4.7-.09-.25-.18-.48-.28-.71s-.19-.33-.31-.34l-.39,0H368V45H808.62V89.12h-1.21l-.31,0c-.09,0-.17.11-.24.26a.72.72,0,0,0-.09.2c-.25.64-.5,1.28-.73,1.94s-.37,1-.56,1.54-.46,1.19-.68,1.79c-.07.17-.13.34-.19.52a2.43,2.43,0,0,0-.13.6h-.16a3.33,3.33,0,0,0-.12-.52c-.07-.2-.14-.39-.22-.59-.36-1-.72-1.93-1.09-2.9-.21-.55-.42-1.1-.61-1.69-.07-.2-.15-.39-.22-.59-.14-.39-.3-.61-.51-.59h-3.48l-.16,0a.39.39,0,0,0-.21.24c-.07.15-.14.31-.2.47q-1,2.53-1.91,5.07l-.15.35c-.14.33-.3.34-.46,0a4.84,4.84,0,0,1-.22-.55c-.1-.28-.19-.56-.29-.82-.5-1.33-1-2.65-1.51-4,0-.12-.09-.24-.14-.36-.12-.34-.28-.48-.45-.48h-3.52a.53.53,0,0,0-.16,0,.35.35,0,0,0-.17.2,1.57,1.57,0,0,0-.12.26c-.16.41-.31.82-.46,1.23-.09.25-.18.51-.27.75l-1.2,3.17c-.07.17-.13.34-.2.49a1.42,1.42,0,0,1-.13.22c-.08.1-.15.09-.23,0a1.42,1.42,0,0,1-.13-.22c-.07-.16-.13-.32-.19-.49l-1-2.53c-.07-.16-.13-.33-.19-.51-.23-.7-.48-1.33-.73-2,0-.09-.07-.18-.11-.27s-.2-.33-.32-.34l-.31,0h-3.21c-.31,0-.37.07-.58.65-.44,1.16-.89,2.28-1.3,3.5-.07.21-.15.4-.22.59-.13.36-.27.72-.41,1.09l-.18.52A2.47,2.47,0,0,0,777,96Z" style="fill:#494949"/></g></svg>