<svg height="50" viewBox="0 0 2359 50" width="2359" xmlns="http://www.w3.org/2000/svg"><path d="m1169.37 36.8-1154.82-.14 25.64-15.02 1154.83.15z" fill="#121617"/><g fill="#8a5d3b"><path d="m50.53 36.97h-37.67l28.64-16.77h37.67z"/><path d="m126.95 36.98h-37.67l28.64-16.77h37.67z"/><path d="m200.34 36.99h-37.68l28.64-16.77h37.67z"/><path d="m273.71 37-37.67-.01 28.64-16.76h37.68z"/><path d="m347.09 37.01-37.67-.01 28.64-16.76h37.67z"/><path d="m420.47 37.02-37.67-.01 28.64-16.76h37.67z"/><path d="m493.85 37.03-37.67-.01 28.64-16.77 37.67.01z"/><path d="m564.01 37.04-37.67-.01 28.64-16.77 37.67.01z"/><path d="m640.44 37.05-37.68-.01 28.64-16.77 37.68.01z"/><path d="m713.82 37.06-37.68-.01 28.64-16.77 37.68.01z"/><path d="m787.2 37.07-37.68-.01 28.64-16.77 37.68.01z"/><path d="m860.58 37.08-37.68-.01 28.64-16.77 37.68.01z"/><path d="m933.96 37.08h-37.68l28.64-16.77 37.68.01z"/><path d="m1007.34 37.09h-37.68l28.64-16.77h37.68z"/><path d="m1074.31 37.1h-37.67l28.64-16.77h37.67z"/><path d="m1138.24 37.11h-37.67l28.64-16.77h37.67z"/></g><path d="m1195.02 21.79-1156.86-.15 11.34-6.64 1156.86.15z" fill="#c4c5c5"/><path d="m1160.5 42-1156.86-.15 11.34-6.64 1156.86.15z" fill="#c4c5c5"/><path d="m2322.37 36.8-1154.82-.14 25.64-15.02 1154.83.15z" fill="#121617"/><g fill="#8a5d3b"><path d="m1203.53 36.97h-37.67l28.64-16.77h37.67z"/><path d="m1279.95 36.98h-37.67l28.64-16.77h37.68z"/><path d="m1353.34 36.99h-37.68l28.64-16.77h37.67z"/><path d="m1426.71 37-37.67-.01 28.64-16.76h37.68z"/><path d="m1500.09 37.01-37.67-.01 28.64-16.76h37.67z"/><path d="m1573.47 37.02-37.67-.01 28.64-16.76h37.67z"/><path d="m1646.85 37.03-37.67-.01 28.64-16.77 37.67.01z"/><path d="m1717.01 37.04-37.67-.01 28.64-16.77 37.67.01z"/><path d="m1793.44 37.05-37.67-.01 28.63-16.77 37.68.01z"/><path d="m1866.82 37.06-37.68-.01 28.65-16.77 37.67.01z"/><path d="m1940.2 37.07-37.68-.01 28.64-16.77 37.68.01z"/><path d="m2013.58 37.08-37.68-.01 28.64-16.77 37.68.01z"/><path d="m2086.95 37.08h-37.67l28.64-16.77 37.68.01z"/><path d="m2160.34 37.09h-37.68l28.64-16.77h37.68z"/><path d="m2227.31 37.1h-37.67l28.64-16.77h37.67z"/><path d="m2291.24 37.11h-37.67l28.64-16.77h37.67z"/></g><path d="m2348.02 21.79-1156.86-.15 11.34-6.64 1156.86.15z" fill="#c4c5c5"/><path d="m2313.5 42-1156.86-.15 11.34-6.64 1156.86.15z" fill="#c4c5c5"/></svg>