<svg height="171" viewBox="0 0 184 171" width="184" xmlns="http://www.w3.org/2000/svg"><g fill="#c49a6c"><path d="m89 16.53c.63 0 1.26-.08 1.9-.1-.64 0-1.27.06-1.9.1"/><path d="m100.21 16.78 1.6.19z"/><path d="m103.4 17.19 1.58.27z"/><path d="m97 16.51c.55 0 1.09.09 1.63.13-.54 0-1.08-.1-1.63-.13"/><path d="m73.7 19.16c.64-.19 1.29-.36 1.93-.52-.64.16-1.29.33-1.93.52z"/><path d="m157.93 108.86c-.36 1-.73 1.94-1.13 2.9.4-1 .78-1.93 1.13-2.9"/><path d="m41.36 131.34q-1.5-1.69-2.9-3.46c.92 1.18 1.9 2.33 2.9 3.46z"/><path d="m158.9 106c-.29.94-.6 1.87-.94 2.8.33-.93.65-1.86.94-2.8"/><path d="m53.22 141.94c-1.32-.94-2.6-1.94-3.84-2.94 1.24 1 2.52 2 3.84 2.92z"/><path d="m160.51 99.93c-.07.35-.17.7-.25 1 .08-.35.18-.7.25-1"/><path d="m159.76 103c-.2.78-.44 1.56-.67 2.34.23-.78.47-1.56.67-2.34"/><path d="m106.61 17.77 1.54.33z"/><path d="m76.71 18.36c.62-.15 1.25-.29 1.87-.42-.62.13-1.25.27-1.87.42z"/><path d="m79.75 17.69c.62-.12 1.23-.23 1.85-.33-.62.1-1.23.21-1.85.33z"/><path d="m82.83 17.17c.61-.1 1.22-.19 1.84-.26-.62.07-1.23.16-1.84.26z"/><path d="m85.92 16.78c.61-.07 1.23-.13 1.85-.18-.62 0-1.24.11-1.85.18z"/><path d="m27.18 106.41c-.46-1.46-.88-2.94-1.25-4.44.37 1.5.79 3 1.25 4.44z"/><path d="m25.93 102a69.11 69.11 0 0 1 -1.6-9 69.11 69.11 0 0 0 1.6 9z"/><path d="m159 65.2c.17.54.35 1.09.5 1.64-.15-.55-.33-1.1-.5-1.64"/><path d="m159.47 66.85c-23.48.64-78.13 3.19-77-.75.42-1.65 14.38-1.07 26.67-.5 8.19.39 15.64.77 17.83.5 8.55-1.43 19.75-4.51 28.31-10.38q.64 1.34 1.23 2.7a69.36 69.36 0 0 0 -11.95-18.87c.68.77 1.35 1.55 2 2.34a27.13 27.13 0 0 1 -5.89.93c-4.79 0-34.23 1.37-29.43-6.84 2.2-3.15 8.46-3 15.52-2.79a90.15 90.15 0 0 0 11.13-.19c.76.65 1.5 1.31 2.23 2a69 69 0 0 0 -19.33-12.74c-1.42-.63-2.85-1.18-4.29-1.7.36.13.72.24 1.07.38-12.79 1.7-34.86 3-46.82-.85.68-.24 1.37-.44 2.06-.66a69.07 69.07 0 0 0 -33.17 22.17 65.84 65.84 0 0 1 6.59-7 175.67 175.67 0 0 0 21.18 8.18c7.53 2.74 37 .69 26 9.59-6.24 5-16.28 2.14-25.8-.71-6.14-1.79-12.07-3.66-16.61-3.36-6.54.3-11.91 1.11-17 1.32a67.74 67.74 0 0 1 5.64-8 69 69 0 0 0 -15.3 51.15 68.52 68.52 0 0 1 1.5-23.33c11.74 7.87 29 11.18 40.23 12.38 17.11 2 34.91 2 52.71 1.37 2.73 16.43-50.66 7.53-60.24 7.53 7.53 11 32.17 13.69 44.49 15.06a161.89 161.89 0 0 0 44.5-2.06c2.29-.45 8.28-2.76 13-3.81a68.8 68.8 0 0 0 -1-33.08"/><path d="m95.53 16.46c-1.35-.05-2.7-.07-4.06 0z"/><path d="m144.73 131.19q-2.1 2.38-4.39 4.55c-9.1 1.55-17.7 1.38-24.33-7.35 6.16-4.79 13.69 2.05 20.53 2.74a57.07 57.07 0 0 0 8.19.06m-30.73-15.81c-9.58 0-15.74 2.74-24 4.79-11.64 2.06-18.49-3.42-28.76-6.16-11-2.86-22.65-5.39-34-7.59a69.34 69.34 0 0 0 11.24 21.42 154.36 154.36 0 0 0 18 4.65c8.9 2.06 34.92-.68 29.44 13.7-10.27-1.37-20.54-2.74-31.49-4.11l-1.17-.14a69.05 69.05 0 0 0 103-28.66c.22-.5.41-1 .62-1.51-14.37 4.23-27 3.61-42.85 3.61"/><path d="m42 132.05a68.89 68.89 0 0 0 6.76 6.46 68.89 68.89 0 0 1 -6.76-6.46z"/><path d="m156.51 58.45c.37.88.73 1.77 1.07 2.67-.34-.9-.7-1.79-1.07-2.67"/><path d="m157.75 61.59c.28.77.56 1.54.82 2.31-.26-.78-.54-1.54-.82-2.31"/><path d="m142.47 37.31c.7.72 1.39 1.46 2.06 2.21-.67-.75-1.36-1.49-2.06-2.21"/><path d="m113.05 19.4c.47.15.94.28 1.41.44-.47-.16-.94-.29-1.41-.44"/><path d="m109.81 18.5q.75.18 1.5.39-.75-.21-1.5-.39"/><path d="m140.25 35.12q1.06 1 2.1 2.07-1-1.06-2.1-2.07"/></g><path d="m111.22 36c-4.8 8.21 24.64 6.84 29.43 6.84a27.13 27.13 0 0 0 5.89-.93c-.64-.79-1.31-1.57-2-2.34-.67-.75-1.36-1.49-2.06-2.21l-.12-.12q-1-1.06-2.1-2.07l-.13-.12c-.73-.68-1.47-1.34-2.23-2a90.15 90.15 0 0 1 -11.15.18c-7.06-.18-13.32-.36-15.52 2.79" fill="#dca06a"/><path d="m103 105.8c-12.32-1.37-37-4.11-44.49-15.06 9.58 0 63 8.9 60.24-7.53-17.8.68-35.6.68-52.71-1.37-11.21-1.2-28.49-4.51-40.23-12.38a68.52 68.52 0 0 0 -1.5 23.33v.13a69.11 69.11 0 0 0 1.6 9c.37 1.5.79 3 1.25 4.44 11.4 2.2 23.06 4.73 34.05 7.59 10.27 2.74 17.12 8.22 28.76 6.16 8.21-2 14.37-4.79 24-4.79 15.83 0 28.48.62 42.85-3.61.4-1 .77-1.93 1.13-2.9v-.09c.34-.93.65-1.86.94-2.8.07-.2.13-.41.19-.61.23-.78.47-1.56.67-2.34s.34-1.36.5-2c.08-.35.18-.7.25-1-4.73 1-10.72 3.36-13 3.81a161.89 161.89 0 0 1 -44.5 2.02" fill="#dca06a"/><path d="m51 48.3c4.56-.27 10.49 1.57 16.64 3.4 9.52 2.85 19.56 5.7 25.8.71 11-8.9-18.48-6.85-26-9.59a175.67 175.67 0 0 1 -21.18-8.18 65.84 65.84 0 0 0 -6.59 7 67.74 67.74 0 0 0 -5.64 8c5.1-.21 10.47-1 17-1.32" fill="#dca06a"/><path d="m117.57 20.94c-.35-.14-.71-.25-1.07-.38-.68-.25-1.36-.5-2-.72-.47-.16-.94-.29-1.41-.44l-1.74-.51q-.75-.21-1.5-.39c-.55-.14-1.11-.28-1.66-.4l-1.54-.33c-.55-.11-1.09-.22-1.63-.31l-1.58-.27-1.63-.19-1.6-.19c-.53-.06-1-.1-1.57-.14s-1.08-.1-1.63-.13-1 0-1.48-.05c-1.35-.05-2.7-.07-4.06 0h-.57c-.64 0-1.27.06-1.9.1l-1.23.07c-.62 0-1.24.11-1.85.18l-1.25.13c-.62.07-1.23.16-1.84.26l-1.23.19c-.62.1-1.23.21-1.85.33l-1.17.25c-.62.13-1.25.27-1.87.42l-1.08.28c-.64.16-1.29.33-1.93.52l-.89.27c-.69.22-1.38.42-2.06.66 12 3.85 34 2.55 46.82.85" fill="#dca06a"/><path d="m127 66.1c-2.19.27-9.64-.11-17.83-.5-12.29-.57-26.25-1.15-26.67.5-1.12 3.94 53.53 1.39 77 .75-.15-.55-.33-1.1-.5-1.64s-.26-.87-.4-1.3c-.26-.77-.54-1.54-.82-2.31-.06-.16-.11-.32-.17-.47-.34-.9-.7-1.79-1.07-2.67q-.58-1.37-1.23-2.7c-8.56 5.87-19.76 9-28.31 10.38" fill="#dca06a"/><path d="m85.89 146.19c5.48-14.38-20.54-11.64-29.44-13.69a157 157 0 0 1 -18-4.66q1.4 1.77 2.9 3.46l.64.71a68.89 68.89 0 0 0 6.76 6.46l.62.51c1.24 1 2.52 2 3.84 2.92l1.17.14c10.95 1.37 21.22 2.74 31.49 4.11z" fill="#dca06a"/><path d="m116 128.39c6.63 8.73 15.23 8.9 24.33 7.35q2.29-2.16 4.39-4.55a57.07 57.07 0 0 1 -8.19-.06c-6.84-.69-14.37-7.53-20.53-2.74" fill="#dca06a"/><path d="m101.81 17-1.6-.19z" fill="#a28159"/><path d="m105 17.46-1.58-.27z" fill="#a28159"/><path d="m98.64 16.64-1.07-.09z" fill="#a28159"/><path d="m156.8 111.76c.4-1 .77-1.93 1.13-2.9-.35 1-.73 1.94-1.13 2.9" fill="#a28159"/><path d="m158.49 107.25c.14-.43.28-.85.41-1.28-.13.43-.27.85-.41 1.28" fill="#a28159"/><path d="m159.44 104.17c.11-.38.22-.77.32-1.15-.1.38-.21.77-.32 1.15" fill="#a28159"/><path d="m108.15 18.1-1.54-.33z" fill="#a28159"/><path d="m159.47 66.84c-.15-.55-.33-1.1-.5-1.64.17.54.35 1.09.5 1.64" fill="#a28159"/><path d="m157.58 61.12c-.34-.9-.7-1.79-1.07-2.67.37.88.73 1.77 1.07 2.67" fill="#a28159"/><path d="m158.57 63.9c-.22-.65-.45-1.29-.68-1.94.23.65.47 1.29.68 1.94" fill="#a28159"/><path d="m144.53 39.52c-.67-.75-1.36-1.49-2.06-2.21.7.72 1.39 1.46 2.06 2.21" fill="#a28159"/><path d="m114.46 19.84c-.47-.16-.94-.29-1.41-.44.47.15.94.28 1.41.44" fill="#a28159"/><path d="m111.31 18.89q-.75-.21-1.5-.39.75.18 1.5.39" fill="#a28159"/><path d="m95.33 16.45c-.8 0-1.61 0-2.41 0z" fill="#a28159"/></svg>