<svg height="355" viewBox="0 0 345 355" width="345" xmlns="http://www.w3.org/2000/svg"><g fill="#427212"><path d="m156.63 19.71-32.85 4a4.9 4.9 0 0 0 -3.78 6.21l38.3 148.8c1.4 5.41 8.7 3.94 8.5-1.72l-5.47-152.84a4.37 4.37 0 0 0 -4.7-4.45z"/><path d="m92.77 36.46-28.37 19.3a5.14 5.14 0 0 0 -1.05 7.31l93.22 114.28c3.39 4.16 9.47-.64 7.07-5.59l-64.84-133.59a4.05 4.05 0 0 0 -6.03-1.71z"/><path d="m257.78 52.85 22.38 23.73a4.21 4.21 0 0 1 -.23 6l-109.68 97c-3.46 3.06-8.17-1.79-5.42-5.59l87.3-120.7a3.62 3.62 0 0 1 5.65-.44z"/><path d="m322.77 148.39 5 33.37a3.93 3.93 0 0 1 -3.46 4.65l-159.88-2.91c-4.48.27-5.6-6.63-1.3-7.95l154.87-30.45a3.8 3.8 0 0 1 4.77 3.29z"/><path d="m324.25 232.53 1.26-25.89a1 1 0 0 0 -.86-1l-161.71-24.83a.89.89 0 0 0 -.28 1.76l160.45 50.71a.85.85 0 0 0 1.14-.75z"/><path d="m203.57 17.43-24-2.07a1 1 0 0 0 -1 .89l-15.08 163.55a1.52 1.52 0 0 0 2.93.78l37.81-161.9a.91.91 0 0 0 -.66-1.25z"/><path d="m49.72 66.42-14.22 21a1.08 1.08 0 0 0 .2 1.35l124.22 92.47c1.41 1.33 3.37-.75 2.15-2.29l-111.01-112.48a.81.81 0 0 0 -1.34-.05z"/><path d="m25.5 116.61-6.71 24.91a1 1 0 0 0 .62 1.2l146.12 41.28c1.75.73 2.93-1.94 1.29-2.94l-140-64.9a.83.83 0 0 0 -1.32.45z"/><path d="m18.21 154-1.12 25.91a1 1 0 0 0 .86 1l151.05 3.46c1.86.28 2.43-2.62.62-3.18l-150.28-27.94a.84.84 0 0 0 -1.13.75z"/><path d="m241.94 33-22.7-8.75a1 1 0 0 0 -1.16.58l-54.32 153.58c-.8 1.83 1.61 3.27 2.64 1.58l75.87-145.64a1 1 0 0 0 -.33-1.35z"/><path d="m300.26 95.61 12.43 31a4.1 4.1 0 0 1 -2.3 5.43l-135.56 45.5c-4.28 1.44-6.94-5-3.07-7.37l123.14-76.5a3.67 3.67 0 0 1 5.36 1.94z"/><path d="m118.57 323.09-7.79-3.19a1.1 1.1 0 0 1 -.58-1.39l52.09-146.83a1 1 0 0 1 1.29-.62l7.79 3.19a1.12 1.12 0 0 1 .58 1.39l-52.09 146.83a1 1 0 0 1 -1.29.62z"/></g></svg>