<svg height="154" viewBox="0 0 195 154" width="195" xmlns="http://www.w3.org/2000/svg"><rect fill="#fff" height="96.9" rx="12" stroke="#1a1a1a" stroke-miterlimit="10" stroke-width="6" transform="matrix(.94 -.35 .35 .94 -21.39 41.03)" width="144.71" x="30.11" y="31.05"/><g fill="#0f0f0f"><path d="m77.79 78.47a10.76 10.76 0 0 1 -5.69 4.86 10.52 10.52 0 1 1 0-19.78c2 .67 3.18 1.67 3.63 2.91a3.31 3.31 0 0 1 -2 4.23 3 3 0 0 1 -2.22-.06l-1.22-.63a3.93 3.93 0 1 0 -.48 7.2 4.08 4.08 0 0 0 2.32-2.24l.41-.91a3.27 3.27 0 0 1 1.82-1.68 3.39 3.39 0 0 1 4.21 1.93c.43 1.09.13 2.53-.78 4.17z"/><path d="m85.15 56.28a10.52 10.52 0 1 1 -6.4 13.35 10.51 10.51 0 0 1 6.4-13.35zm4.93 13.61a4 4 0 0 0 2.36-5.06 3.93 3.93 0 0 0 -7.44 2.64 4 4 0 0 0 5.08 2.42z"/><path d="m106.88 48.45a10.52 10.52 0 1 1 -6.4 13.36 10.53 10.53 0 0 1 6.4-13.36zm4.94 13.62a4 4 0 0 0 2.36-5.07 3.94 3.94 0 0 0 -7.42 2.63 4 4 0 0 0 5.06 2.44z"/><path d="m133.36 54.16a3.7 3.7 0 0 1 2.41-.23 3.09 3.09 0 0 1 2 1.89 3.34 3.34 0 0 1 -.16 2.58 3.3 3.3 0 0 1 -2 1.53l-5.94 2.14a3.36 3.36 0 0 1 -3 0c-1.06-.57-1.3-1-2.24-3.56l-3.82-10.63c-.77-2.12 0-3.95 1.81-4.62a3.37 3.37 0 0 1 2.84.26c.84.56 1.19 1.07 1.83 2.85l3.21 8.94z"/><path d="m72.6 116.06a3 3 0 0 1 1.81-3.85 3.53 3.53 0 0 1 2.54.12c1.73.55 1.94.6 2.39.44a.81.81 0 0 0 .5-1.1.94.94 0 0 0 -.77-.62 5.54 5.54 0 0 0 -1.44-.09c-.57 0-1.14 0-1.72 0-3.08 0-5.08-1.26-6-3.89-1.32-3.68.6-7.21 4.7-8.69 3.39-1.22 6.7-.37 7.53 2a2.57 2.57 0 0 1 -1.5 3.45 4.28 4.28 0 0 1 -3-.15c-.84-.3-1.2-.33-1.54-.21a.79.79 0 0 0 -.47 1c.2.57.69.68 2.33.63a12.87 12.87 0 0 1 4.73.53 6.24 6.24 0 0 1 3.49 3.76 6.86 6.86 0 0 1 -.17 5.14 7.46 7.46 0 0 1 -4.6 3.79c-4 1.41-7.84.42-8.81-2.26z"/><path d="m88.19 100.55a3.19 3.19 0 0 1 -2.64 0 3.1 3.1 0 0 1 -1.62-1.74 3.16 3.16 0 0 1 .67-3.18c.55-.52.8-.64 3.25-1.53l6.28-2.25a11.47 11.47 0 0 1 2.14-.71 3 3 0 0 1 3.56 1.91 3.28 3.28 0 0 1 -.21 2.6 3.66 3.66 0 0 1 -2.16 1.54l-1.38.5 3.37 9.39a4.39 4.39 0 0 1 .33 2.59 3.14 3.14 0 0 1 -2.06 2.33 3.34 3.34 0 0 1 -3-.37 4.16 4.16 0 0 1 -1.43-2.27l-3.43-9.36z"/><path d="m110.77 98.27c.49 1.35 1.4 2 2.48 1.56s1.41-1.4.94-2.7l-2.71-7.52c-.5-1.39-.54-1.85-.21-2.73a3.26 3.26 0 0 1 2-2 3.51 3.51 0 0 1 2.84.25c.85.49 1.19 1 1.8 2.71l2.42 6.69a8.87 8.87 0 0 1 .14 6.63 8.35 8.35 0 0 1 -12.56 3.94c-1.73-1.16-2.58-2.36-3.47-4.85l-2.44-6.69c-.64-1.78-.69-2.27-.41-3.17a3.32 3.32 0 0 1 4.67-1.94 3.66 3.66 0 0 1 1.81 2.38z"/><path d="m130.28 95.36c.66 1.84.74 2.23.55 3.12a3.28 3.28 0 0 1 -5.38 1.75c-.59-.59-.78-.93-1.4-2.66l-3.92-10.88c-.6-1.67-.54-2.65.22-3.66a3.64 3.64 0 0 1 1.33-1 16.06 16.06 0 0 1 1.62-.64l3.7-1.39c2-.73 2.45-.82 3.31-.65a2.93 2.93 0 0 1 2.18 1.9 3.06 3.06 0 0 1 -2.27 4.17l-3.13 1.13.46 1.3 1.93-.69a3.74 3.74 0 0 1 2.14-.36 2.27 2.27 0 0 1 1.71 1.49c.53 1.47-.13 2.64-1.92 3.28l-2.23.8z"/><path d="m144.38 90.28c.66 1.84.74 2.23.55 3.13a3.26 3.26 0 0 1 -5.37 1.74c-.6-.58-.79-.93-1.41-2.66l-3.91-10.88c-.61-1.67-.54-2.65.21-3.65a3.54 3.54 0 0 1 1.33-1c.24-.12.8-.35 1.62-.65l3.73-1.31c2-.74 2.45-.82 3.31-.65a2.88 2.88 0 0 1 2.18 1.89 3.42 3.42 0 0 1 -.16 2.65 3.38 3.38 0 0 1 -2.1 1.52l-3.14 1.13.47 1.3 1.92-.69a3.71 3.71 0 0 1 2.14-.35 2.29 2.29 0 0 1 1.72 1.48c.52 1.47-.14 2.64-1.92 3.28l-2.24.81z"/></g></svg>