<svg height="849" viewBox="0 0 1458 849" width="1458" xmlns="http://www.w3.org/2000/svg"><g fill="#454547"><path d="m177.08 527.47 5.79-28.34c1.63-8 9.57-7.54 10.74.64l17.44 121.83c1.21 8.5 9.58 8.55 10.84.06l21.35-143.15c1.21-8.13 9.1-8.56 10.73-.58l11.55 56.59c1.57 7.67 9.07 7.67 10.63 0l38.62-189.21c1.05-5.15-1.61-10.31-5.32-10.31h-174.86c-3.71 0-6.37 5.16-5.32 10.31l37.18 182.16c1.55 7.67 9.07 7.67 10.63 0z"/><path d="m335.28 676.38 8-39.08c2.25-11 13.2-10.38 14.81.9l24 168c1.68 11.72 13.21 11.79 15 .09l29.41-197.41c1.67-11.22 12.55-11.81 14.8-.81l15.92 78c2.16 10.59 12.5 10.59 14.66 0l53.25-260.88c1.45-7.1-2.22-14.22-7.33-14.22h-241.11c-5.11 0-8.78 7.12-7.33 14.22l51.26 251.16c2.16 10.65 12.5 10.65 14.66.03z"/><path d="m512.08 727.47 5.79-28.34c1.63-8 9.57-7.54 10.74.64l17.44 121.83c1.21 8.5 9.58 8.55 10.84.06l21.35-143.15c1.21-8.13 9.1-8.56 10.73-.58l11.55 56.59c1.57 7.67 9.07 7.67 10.63 0l38.62-189.21c1.05-5.15-1.61-10.31-5.32-10.31h-174.86c-3.71 0-6.37 5.16-5.32 10.31l37.18 182.16c1.55 7.67 9.07 7.67 10.63 0z"/></g><path d="m990.22 617.17-51.86 22.83a57.3 57.3 0 0 1 -22-4.17 75.9 75.9 0 0 0 -7.93-2.79l-27.31-7.73c-15.62-4.43-29.07-13.16-38.21-24.81-15.83-20.17-43.88-11.28-72.12-7.85l-57.11 6.93c-23.08 2.8-46.37-3.8-62.86-17.81l-4.15-3.52c-18.4-15.63-45.11-21.92-70.36-16.56l-68.65 14.59c-30.37 6.45-62.24-4-79.61-26.16l-42.83-54.58c-.33-.43-.66-.86-1-1.29-10.9-15.07-70.24-8.16-88.29-30.66-9.19-11.47-126.15-44.23-122.93-78.59l-14.58-8.33c-56.42 15.33-33-48.87-51.61-76.52-33.81-50.15 2.77-136.91 4.19-144.15 12-61 271.59-130.93 273-131 16-.85 293.9 88 311 88l633.09 317.93c27 0 48.91 18.61 48.91 41.56v34.15c0 23-21.9 41.55-48.91 41.55l-76 9.8a17.18 17.18 0 0 1 -6.47-.41c-9.22-2.41-27.66-11.94-39.66-11.94-55.41 0-57.81 4.19-75 46.74-6.67 16.5-42 11.89-55 17-4.13 1.62-17.16 7.27-21.44 8.57a49.62 49.62 0 0 1 -32.46-1.31 41.79 41.79 0 0 0 -31.84.53z" fill="#3d3d3f"/></svg>