<svg xmlns="http://www.w3.org/2000/svg" width="2638" height="1628" viewBox="0 0 2638 1628"><title>World_Space</title><g id="Layer_7" data-name="Layer 7"><g id="object"><polygon points="1931.73 1153.9 1889.91 904.26 1952.34 773.44 1835.04 686.85 1723.55 359.06 1702.83 342.43 1680.8 483.9 1611.25 802.86 1506 517.03 1384.41 462.07 1264.57 230.18 1186.85 356.7 1143.09 587.46 1002.22 381.76 1016.92 218.73 958.85 103.6 878.63 45.41 440.34 896.62 639.7 893.07 1052.03 875.53 1231.6 900.52 1434.51 1108.82 1670.19 1238.29 1862.6 1202.02 1931.73 1153.9" style="fill:#556985;fill-rule:evenodd"/><polygon points="1382.24 486.54 1303.49 1044.27 1183.73 937.53 1300.89 768.05 1382.24 486.54" style="fill:#2e4256;fill-rule:evenodd"/><polygon points="1096.83 881.92 1143.09 587.46 1044.47 443.45 1105.11 571.02 1068.16 742.72 1031.42 789.44 984.96 1015.23 1096.83 881.92" style="fill:#2e4256;fill-rule:evenodd"/><polygon points="1002.69 381.99 906.41 1059.42 740.28 817.37 1002.69 381.99" style="fill:#425872;fill-rule:evenodd"/><path d="M1496.11,530.84l-184.39,596.54s111,8.36,108.7,2.84S1496.11,530.84,1496.11,530.84Z" style="fill:#425872;fill-rule:evenodd"/><path d="M1264.57,230.18s-129.32,784.6-130.9,789.74-47.88-68-47.88-68l57.3-364.48,43.75-230.76Z" style="fill:#627b99;fill-rule:evenodd"/><polygon points="1016.92 218.73 1002.22 381.76 697.33 889.54 1016.92 218.73" style="fill:#627b99;fill-rule:evenodd"/><polygon points="965.01 116.03 894.67 105.77 407.9 1056.15 239 1094.69 878.63 45.41 965.01 116.03" style="fill:#627b99;fill-rule:evenodd"/><polygon points="1611.25 802.86 1680.8 483.9 1582.19 349.26 1382.22 274.17 1264.57 230.18 1384.41 462.07 1506 517.03 1611.25 802.86" style="fill:#1a3049;fill-rule:evenodd"/><polygon points="1402.81 1262.86 1461.88 966.48 1611.25 802.86 1702.83 342.43 1723.55 359.06 1645.53 978.62 1572.1 1081.68 1527.5 1230.2 1540.56 1037 1584.08 957.89 1608.11 851.79 1485.97 997.08 1449.61 1287.09 1402.81 1262.86" style="fill:#627b99;fill-rule:evenodd"/><path d="M1889.91,904.26l-229.27,365.79s76.48,19.08,82.13,15C1748.93,1281.17,1889.91,904.26,1889.91,904.26Z" style="fill:#425872;fill-rule:evenodd"/><polygon points="1889.91 904.26 1931.73 1153.9 2511.88 750.19 2358.19 682.87 2152.55 633.94 2004.85 500.04 1723.55 359.06 1835.04 686.85 1952.34 773.44 1889.91 904.26" style="fill:#1a3049;fill-rule:evenodd"/><polygon points="2003.49 648.55 2519.09 912.31 2385.73 954.2 2003.49 648.55" style="fill:#122335;fill-rule:evenodd"/><polygon points="1930.61 589.8 2152.55 633.94 2358.19 682.87 2571.68 773.43 2510.41 808.39 2296.65 702.51 1930.61 589.8" style="fill:#223c56;fill-rule:evenodd"/><polygon points="1952.34 773.44 2335.88 1031.73 2210.11 1150.13 1889.91 904.26 1952.34 773.44" style="fill:#122335;fill-rule:evenodd"/><polygon points="1143.09 587.46 1186.85 356.7 1050.88 170.17 958.85 103.6 1016.92 218.73 1002.22 381.76 1143.09 587.46" style="fill:#1a3049;fill-rule:evenodd"/><polygon points="612.3 1557.35 1662.98 1340.92 1862.6 1202.02 1670.19 1238.29 1434.51 1108.82 1231.6 900.52 1052.03 875.53 858.77 771.19 529.22 896.38 419.32 862.04 612.3 1557.35" style="fill:#627b99;fill-rule:evenodd"/><polygon points="773.62 882.67 729.9 926.99 610.88 990.67 500.26 1013.45 612.3 1557.35 2012.83 1268.85 1862.6 1202.02 1670.19 1238.29 1434.51 1108.82 1231.6 900.52 1052.03 875.53 858.77 771.19 773.62 882.67" style="fill:#1a3049;fill-rule:evenodd"/><polygon points="2152.55 633.94 1995.17 495.06 1723.55 359.06 1739.84 406.64 2007.07 549.31 2152.55 633.94" style="fill:#223c56;fill-rule:evenodd"/><polygon points="1231.6 900.52 1322.82 1091.46 1524.92 1302.81 1723.82 1328.38 1810.88 1260 1622.96 1258.59 1344.07 1070.99 1304.71 975.55 1231.6 900.52" style="fill:#122335;fill-rule:evenodd"/><polygon points="773.62 882.67 722.99 928.41 838.91 1080.63 1064.71 1106.19 1264.97 1422.9 1428.83 1389.15 1111 1074.32 885.45 1029.01 773.62 882.67" style="fill:#122335;fill-rule:evenodd"/><polygon points="500.26 1013.45 610.88 990.67 740.99 1225.73 1022.52 1472.85 913.28 1495.35 665 1253.4 574.55 1035.87 500.26 1013.45" style="fill:#122335;fill-rule:evenodd"/></g></g></svg>