<svg height="77" viewBox="0 0 96 77" width="96" xmlns="http://www.w3.org/2000/svg"><path d="m23.87 8.21 2.4-1.27.51-.17a5.76 5.76 0 0 1 6.85 2.69c1.07 1.91 2.1 3.85 3.14 5.78.92 1.68 1.83 3.37 2.74 5l.2.34.18-.08 3-1.63a9.81 9.81 0 0 1 1.29-.66 4.2 4.2 0 0 1 4.53.9l.18.16h.08l3.08-1.67a15.11 15.11 0 0 1 1.44-.75 4.26 4.26 0 0 1 4.67 1.05l.18.17.2-.1 3.21-1.74a6.55 6.55 0 0 1 1.2-.56 4.29 4.29 0 0 1 5 2.08l2.87 5.29q1.59 2.96 3.18 5.9a1.7 1.7 0 0 0 .15.22l2.3 4.31c0 .13.09.26.12.39.07.41.16.81.2 1.22.15 1.29.27 2.58.41 3.87q1 9.44 2 18.89a1.62 1.62 0 0 1 0 .44 4.21 4.21 0 0 1 -2.11 2.92c-1.2.67-2.41 1.31-3.62 2l-4.9 2.66-5.88 3.14-3.12 1.7a1.58 1.58 0 0 0 -.15.12l-2.74 1.46h-.19a4.3 4.3 0 0 1 -5.31-2.09l-2.85-5.19a2 2 0 0 0 -.74-.77l-9.31-5.69-13.8-8.43a5.72 5.72 0 0 1 -1.8-1.73c-.09-.13-.2-.25-.3-.38l-.09-.17c-.05-.16-.09-.31-.15-.46a5.69 5.69 0 0 1 .19-4.84c.36-.73.76-1.44 1.18-2.14a5.52 5.52 0 0 1 3.3-2.53 5.62 5.62 0 0 1 4.48.51c1.14.62 2.27 1.26 3.4 1.89l.23.11a.57.57 0 0 0 -.08-.24l-1.82-3.43-3.54-6.53q-1.32-2.45-2.66-4.89l-3.3-6.1c-.43-.8-.88-1.61-1.31-2.42a10.75 10.75 0 0 1 -.87-1.85 5.8 5.8 0 0 1 2-6.3zm17.53 15.55.07.16 2.29 4.21 1.68 3.09c.28.51.56 1 .82 1.52a1.75 1.75 0 0 1 -2.75 2.09 2.38 2.38 0 0 1 -.48-.66q-1.81-3.32-3.61-6.65l-2.58-4.75-3.62-6.67q-1.32-2.46-2.66-4.9a2.22 2.22 0 0 0 -3-.92l-1.29.72a7.22 7.22 0 0 0 -.77.43 2.27 2.27 0 0 0 -.64 3l1.84 3.38 2.49 4.57q1.81 3.22 3.55 6.48l2.64 4.88 3.17 5.83 1.84 3.43c.23.44.47.88.71 1.32a1.45 1.45 0 0 1 0 1.44 1.77 1.77 0 0 1 -2.43.79l-.2-.11-1.69-1-7.21-4a2.24 2.24 0 0 0 -3.14.89l-.93 1.67a2.26 2.26 0 0 0 .85 3.1l23.65 14.26a2.56 2.56 0 0 1 .95 1l2.91 5.38c.18.32.35.64.53 1a.71.71 0 0 0 .78.34 1.79 1.79 0 0 0 .32-.13l3.7-2 4.62-2.5 6.65-3.61 4.82-2.61a.71.71 0 0 0 .44-.86q-.95-9-1.9-18c-.12-1.16-.24-2.32-.37-3.48a3.53 3.53 0 0 0 -.4-1.33q-1.2-2.19-2.38-4.38-2.27-4.18-4.5-8.34c-.42-.77-.84-1.53-1.24-2.3a.81.81 0 0 0 -1.2-.35c-.33.2-.68.38-1 .56l-2.43 1.32-.16.11a1.59 1.59 0 0 0 .08.18l1 1.89c.47.86.94 1.72 1.4 2.58a8.13 8.13 0 0 1 .56 1.1 1.73 1.73 0 0 1 -1.93 2.29 1.79 1.79 0 0 1 -1.31-.95l-3.4-6.27-.79-1.48a.74.74 0 0 0 -.75-.42 1.07 1.07 0 0 0 -.39.14l-3.73 2a1.36 1.36 0 0 0 -.17.12 2.42 2.42 0 0 0 .12.23l2.56 4.72c.42.78.85 1.54 1.25 2.33a1.75 1.75 0 0 1 -3.11 1.61c-.44-.76-.85-1.54-1.27-2.31-1-1.8-1.95-3.61-2.92-5.41l-.92-1.66a.73.73 0 0 0 -1-.32l-.22.11-3.6 1.98z"/><path d="m41.4 23.76.2-.12 3.57-1.95.22-.11a.73.73 0 0 1 1 .32l.92 1.66c1 1.8 1.94 3.61 2.92 5.41.42.77.83 1.55 1.27 2.31a1.75 1.75 0 0 0 3.11-1.61c-.4-.79-.83-1.55-1.25-2.33l-2.56-4.72a2.42 2.42 0 0 1 -.12-.23 1.36 1.36 0 0 1 .17-.12l3.73-2a1.07 1.07 0 0 1 .39-.14.74.74 0 0 1 .75.42l.82 1.45 3.4 6.26a1.79 1.79 0 0 0 1.31.95 1.73 1.73 0 0 0 1.93-2.29 8.13 8.13 0 0 0 -.56-1.1c-.46-.86-.93-1.72-1.4-2.58l-1-1.89a1.59 1.59 0 0 1 -.08-.18l.16-.11 2.43-1.32c.34-.18.69-.36 1-.56a.81.81 0 0 1 1.2.35c.4.77.82 1.53 1.24 2.3q2.23 4.13 4.46 8.24 1.19 2.19 2.38 4.38a3.53 3.53 0 0 1 .4 1.33c.13 1.16.25 2.32.37 3.48q.94 9 1.9 18a.71.71 0 0 1 -.44.86l-4.82 2.61-6.65 3.61-4.62 2.5-3.7 2a1.79 1.79 0 0 1 -.32.13.71.71 0 0 1 -.78-.34c-.18-.31-.35-.63-.53-1l-2.91-5.38a2.56 2.56 0 0 0 -.95-1l-23.61-14.15a2.26 2.26 0 0 1 -.85-3.1l.93-1.68a2.24 2.24 0 0 1 3.14-.89l7.21 4 1.69 1 .2.11a1.77 1.77 0 0 0 2.43-.79 1.45 1.45 0 0 0 0-1.44c-.24-.44-.48-.88-.71-1.32l-1.84-3.41-3.17-5.83-2.64-4.88q-1.74-3.28-3.55-6.56l-2.49-4.57-1.84-3.38a2.27 2.27 0 0 1 .64-3 7.22 7.22 0 0 1 .77-.43l1.26-.68a2.22 2.22 0 0 1 3 .92q1.34 2.45 2.66 4.9l3.62 6.67 2.58 4.75q1.8 3.33 3.61 6.65a2.38 2.38 0 0 0 .48.66 1.75 1.75 0 0 0 2.75-2.09c-.26-.51-.54-1-.82-1.52l-1.68-3.09-2.29-4.21z" fill="#fff"/></svg>