<svg xmlns="http://www.w3.org/2000/svg" width="281" height="245" viewBox="0 0 281 245"><title>World_Space</title><g id="Layer_7" data-name="Layer 7"><path d="M130.76,105.71l-5.86-5.63,8.37-8.7a5.93,5.93,0,0,0-.16-8.38L68.21,20.58a5.91,5.91,0,0,0-8.37.16l-24,25A5.92,5.92,0,0,0,36,54.09l64.9,62.42a5.92,5.92,0,0,0,8.37-.16l8.37-8.71,5.86,5.64Z" style="fill:#ff3a61"/><rect x="54.11" y="36.2" width="13.94" height="44.21" transform="translate(-23.28 61.91) rotate(-46.11)" style="fill:#e6e6e6"/><rect x="66.42" y="23.39" width="13.94" height="44.21" transform="translate(-10.28 66.85) rotate(-46.11)" style="fill:#e6e6e6"/><rect x="101.04" y="56.69" width="13.94" height="44.21" transform="translate(-23.65 102.01) rotate(-46.11)" style="fill:#e6e6e6"/><rect x="88.72" y="69.49" width="13.94" height="44.21" transform="translate(-36.66 97.06) rotate(-46.11)" style="fill:#e6e6e6"/><path d="M156.43,130.41l5.85,5.63,8.38-8.7a5.92,5.92,0,0,1,8.37-.17l64.9,62.43a5.92,5.92,0,0,1,.16,8.37l-24,25a5.91,5.91,0,0,1-8.37.16l-64.9-62.42a5.91,5.91,0,0,1-.16-8.37L155,143.6,149.15,138Z" style="fill:#ff3a61"/><rect x="199.54" y="176.08" width="13.94" height="44.21" transform="translate(-79.48 209.63) rotate(-46.11)" style="fill:#e6e6e6"/><rect x="211.85" y="163.28" width="13.94" height="44.21" transform="translate(-66.48 214.57) rotate(-46.11)" style="fill:#e6e6e6"/><rect x="177.24" y="129.99" width="13.94" height="44.21" transform="translate(-53.11 179.42) rotate(-46.11)" style="fill:#e6e6e6"/><rect x="164.93" y="142.79" width="13.94" height="44.21" transform="translate(-66.11 174.47) rotate(-46.11)" style="fill:#e6e6e6"/><rect x="104.15" y="104.14" width="68.04" height="39.11" rx="3.67" transform="translate(-46.76 137.52) rotate(-46.11)" style="fill:#e6e6e6"/><path d="M153,70.9a28.68,28.68,0,0,0,37.39,36Z" style="fill:#e6e6e6"/><path d="M189.33,108.12,151.75,72a4.69,4.69,0,0,1-.13-6.64h0a4.7,4.7,0,0,1,6.64-.13l37.58,36.15A4.69,4.69,0,0,1,196,108h0A4.69,4.69,0,0,1,189.33,108.12Z" style="fill:#ff3a61"/><path d="M180.8,86.89l-7.5-7.22,3.61-3.76a5.21,5.21,0,0,1,7.36-.14h0a5.2,5.2,0,0,1,.14,7.36Z" style="fill:#e6e6e6"/><path d="M110.93,123.81,103,132a3.68,3.68,0,0,0,.1,5.2l22.89,22a3.67,3.67,0,0,0,5.19-.1l7.89-8.2Z" style="fill:#ff3a61"/></g></svg>