<svg viewBox="0 0 6914 1495" width="6914" xmlns="http://www.w3.org/2000/svg"><g fill="#1174b9"><path d="m2767 777.86s10-10 24-10.82c0 0 3-.83 0 5 0 0-2 5.83 7 5.83h7.93a4.92 4.92 0 0 0 3.32-1.23 37.64 37.64 0 0 1 22.75-9.64s4 0 0 5c0 0-2 5.83 7 5.83h13.71a3.19 3.19 0 0 0 2.1-.75c2.65-2.34 11.53-9.38 23.19-10.07 0 0 3-.83 0 5 0 0-2 5.83 7 5.83h7.93a4.92 4.92 0 0 0 3.32-1.23 37.64 37.64 0 0 1 22.75-9.61s4 0 0 5c0 0-2 5.83 7 5.83h11.85a5.45 5.45 0 0 0 3.52-1.24c3.2-2.7 11.69-8.93 22.63-9.58 0 0 3-.83 0 5 0 0-2 5.83 7 5.83h7.93a4.92 4.92 0 0 0 3.32-1.23 37.64 37.64 0 0 1 22.75-9.61s4 0 0 5c0 0-2 5.83 7 5.83h13.71a3.19 3.19 0 0 0 2.1-.75c2.65-2.34 11.53-9.38 23.19-10.07 0 0 3-.83 0 5 0 0-2 5.83 7 5.83h7.93a4.92 4.92 0 0 0 3.32-1.23 37.64 37.64 0 0 1 22.75-9.61s4 0 0 5c0 0-2 5.83 7 5.83h13.41a6.68 6.68 0 0 0 4.23-1.46c3.38-2.8 11.71-8.73 22.36-9.36 0 0 3-.83 0 5 0 0-2 5.83 7 5.83h7.93a4.92 4.92 0 0 0 3.32-1.23 37.64 37.64 0 0 1 22.75-9.61s4 0 0 5c0 0-2 5.83 7 5.83h13.71a3.19 3.19 0 0 0 2.1-.75c2.65-2.34 11.53-9.38 23.19-10.07 0 0 3-.83 0 5 0 0-2 5.83 7 5.83h7.93a4.92 4.92 0 0 0 3.32-1.23 37.64 37.64 0 0 1 22.75-9.61s4 0 0 5c0 0-2 5.83 7 5.83h11.85a5.45 5.45 0 0 0 3.52-1.24c3.2-2.7 11.69-8.93 22.63-9.58 0 0 3-.83 0 5 0 0-2 5.83 7 5.83h7.93a4.92 4.92 0 0 0 3.32-1.23 37.64 37.64 0 0 1 22.75-9.61s4 0 0 5c0 0-2 5.83 7 5.83h13.71a3.19 3.19 0 0 0 2.1-.75c2.65-2.34 11.53-9.38 23.19-10.07 0 0 3-.83 0 5 0 0-2 5.83 7 5.83h7.93a4.92 4.92 0 0 0 3.32-1.23 37.64 37.64 0 0 1 22.75-9.61s4 0 0 5c0 0-2 5.83 7 5.83h19.22a7.22 7.22 0 0 0 4.56-1.57c3.47-2.85 11.72-8.62 22.22-9.25 0 0 3-.83 0 5 0 0-2 5.83 7 5.83h7.93a4.92 4.92 0 0 0 3.32-1.23 37.64 37.64 0 0 1 22.75-9.61s4 0 0 5c0 0-2 5.83 7 5.83h13.71a3.19 3.19 0 0 0 2.1-.75c2.65-2.34 11.53-9.38 23.19-10.07 0 0 3-.83 0 5 0 0-2 5.83 7 5.83h7.93a4.92 4.92 0 0 0 3.32-1.23 37.64 37.64 0 0 1 22.75-9.61s4 0 0 5c0 0-2 5.83 7 5.83h11.85a5.45 5.45 0 0 0 3.52-1.24c3.2-2.7 11.69-8.93 22.63-9.58 0 0 3-.83 0 5 0 0-2 5.83 7 5.83h7.93a4.92 4.92 0 0 0 3.32-1.23 37.64 37.64 0 0 1 22.75-9.61s4 0 0 5c0 0-2 5.83 7 5.83h13.71a3.19 3.19 0 0 0 2.1-.75c2.65-2.34 11.53-9.38 23.19-10.07 0 0 3-.83 0 5 0 0-2 5.83 7 5.83h7.93a4.92 4.92 0 0 0 3.32-1.23 37.64 37.64 0 0 1 22.75-9.61s4 0 0 5c0 0-2 5.83 7 5.83h13.41a6.68 6.68 0 0 0 4.23-1.46c3.38-2.8 11.71-8.73 22.36-9.36 0 0 3-.83 0 5 0 0-2 5.83 7 5.83h7.93a4.92 4.92 0 0 0 3.32-1.23 37.64 37.64 0 0 1 22.75-9.61s4 0 0 5c0 0-2 5.83 7 5.83h13.71a3.19 3.19 0 0 0 2.1-.75c2.65-2.34 11.53-9.38 23.19-10.07 0 0 3-.83 0 5 0 0-2 5.83 7 5.83h7.93a4.92 4.92 0 0 0 3.32-1.23 37.64 37.64 0 0 1 22.75-9.61s4 0 0 5c0 0-2 5.83 7 5.83h11.85a5.45 5.45 0 0 0 3.52-1.24c3.2-2.7 11.69-8.93 22.63-9.58 0 0 3-.83 0 5 0 0-2 5.83 7 5.83h7.93a4.92 4.92 0 0 0 3.32-1.23 37.64 37.64 0 0 1 22.75-9.61s4 0 0 5c0 0-2 5.83 7 5.83h13.71a3.19 3.19 0 0 0 2.1-.75c2.65-2.34 11.53-9.38 23.19-10.07 0 0 3-.83 0 5 0 0-2 5.83 7 5.83h7.93a4.92 4.92 0 0 0 3.32-1.23 37.64 37.64 0 0 1 22.75-9.61s4 0 0 5c0 0-2 5.83 7 5.83h15.17a10.06 10.06 0 0 0 6.2-2.05c3.76-3 11.69-8.18 21.63-8.77 0 0 3-.83 0 5 0 0-2 5.83 7 5.83h7.93a4.92 4.92 0 0 0 3.32-1.23 37.64 37.64 0 0 1 22.75-9.61s4 0 0 5c0 0-2 5.83 7 5.83h13.71a3.19 3.19 0 0 0 2.1-.75c2.65-2.34 11.53-9.38 23.19-10.07 0 0 3-.83 0 5 0 0-2 5.83 7 5.83h7.93a4.92 4.92 0 0 0 3.32-1.23 37.64 37.64 0 0 1 22.75-9.61s4 0 0 5c0 0-2 5.83 7 5.83h11.85a5.45 5.45 0 0 0 3.52-1.24c3.2-2.7 11.69-8.93 22.63-9.58 0 0 3-.83 0 5 0 0-2 5.83 7 5.83h7.93a4.92 4.92 0 0 0 3.32-1.23 37.64 37.64 0 0 1 22.75-9.61s4 0 0 5c0 0-2 5.83 7 5.83h13.71a3.19 3.19 0 0 0 2.1-.75c2.65-2.34 11.53-9.38 23.19-10.07 0 0 3-.83 0 5 0 0-2 5.83 7 5.83h7.93a4.92 4.92 0 0 0 3.32-1.23 37.64 37.64 0 0 1 22.75-9.61s4 0 0 5c0 0-2 5.83 7 5.83h13.41a6.68 6.68 0 0 0 4.23-1.46c3.38-2.8 11.71-8.73 22.36-9.36 0 0 3-.83 0 5 0 0-2 5.83 7 5.83h7.93a4.92 4.92 0 0 0 3.32-1.23 37.64 37.64 0 0 1 22.75-9.61s4 0 0 5c0 0-2 5.83 7 5.83h13.71a3.19 3.19 0 0 0 2.1-.75c2.65-2.34 11.53-9.38 23.19-10.07 0 0 3-.83 0 5 0 0-2 5.83 7 5.83h7.93a4.92 4.92 0 0 0 3.32-1.23 37.64 37.64 0 0 1 22.75-9.61s4 0 0 5c0 0-2 5.83 7 5.83h11.85a5.45 5.45 0 0 0 3.52-1.24c3.2-2.7 11.69-8.93 22.63-9.58 0 0 3-.83 0 5 0 0-2 5.83 7 5.83h7.93a4.92 4.92 0 0 0 3.32-1.23 37.64 37.64 0 0 1 22.75-9.61s4 0 0 5c0 0-2 5.83 7 5.83h13.71a3.19 3.19 0 0 0 2.1-.75c2.65-2.34 11.53-9.38 23.19-10.07 0 0 3-.83 0 5 0 0-2 5.83 7 5.83h7.93a4.92 4.92 0 0 0 3.32-1.23 37.64 37.64 0 0 1 22.75-9.61s4 0 0 5c0 0-2 5.83 7 5.83h19.22a7.22 7.22 0 0 0 4.56-1.57c3.47-2.85 11.72-8.62 22.22-9.25 0 0 3-.83 0 5 0 0-2 5.83 7 5.83h7.93a4.92 4.92 0 0 0 3.32-1.23 37.64 37.64 0 0 1 22.75-9.61s4 0 0 5c0 0-2 5.83 7 5.83h13.71a3.19 3.19 0 0 0 2.1-.75c2.65-2.34 11.53-9.38 23.19-10.07 0 0 3-.83 0 5 0 0-2 5.83 7 5.83h7.93a4.92 4.92 0 0 0 3.32-1.23 37.64 37.64 0 0 1 22.75-9.61s4 0 0 5c0 0-2 5.83 7 5.83h11.85a5.45 5.45 0 0 0 3.52-1.24c3.2-2.7 11.69-8.93 22.63-9.58 0 0 3-.83 0 5 0 0-2 5.83 7 5.83h7.93a4.92 4.92 0 0 0 3.32-1.23 37.64 37.64 0 0 1 22.75-9.61s4 0 0 5c0 0-2 5.83 7 5.83h13.71a3.19 3.19 0 0 0 2.1-.75c2.65-2.34 11.53-9.38 23.19-10.07 0 0 3-.83 0 5 0 0-2 5.83 7 5.83h7.93a4.92 4.92 0 0 0 3.32-1.23 37.64 37.64 0 0 1 22.75-9.61s4 0 0 5c0 0-2 5.83 7 5.83h13.41a6.68 6.68 0 0 0 4.23-1.46c3.38-2.8 11.71-8.73 22.36-9.36 0 0 3-.83 0 5 0 0-2 5.83 7 5.83h7.93a4.92 4.92 0 0 0 3.32-1.23 37.64 37.64 0 0 1 22.75-9.61s4 0 0 5c0 0-2 5.83 7 5.83h13.71a3.19 3.19 0 0 0 2.1-.75c2.65-2.34 11.53-9.38 23.19-10.07 0 0 3-.83 0 5 0 0-2 5.83 7 5.83h7.93a4.92 4.92 0 0 0 3.32-1.23 37.64 37.64 0 0 1 22.75-9.61s4 0 0 5c0 0-2 5.83 7 5.83h11.85a5.45 5.45 0 0 0 3.52-1.24c3.2-2.7 11.69-8.93 22.63-9.58 0 0 3-.83 0 5 0 0-2 5.83 7 5.83h7.93a4.92 4.92 0 0 0 3.32-1.23 37.64 37.64 0 0 1 22.75-9.61s4 0 0 5c0 0-2 5.83 7 5.83h13.71a3.19 3.19 0 0 0 2.1-.75c2.65-2.34 11.53-9.38 23.19-10.07 0 0 3-.83 0 5 0 0-2 5.83 7 5.83h7.93a4.92 4.92 0 0 0 3.32-1.23 37.64 37.64 0 0 1 22.75-9.61s4 0 0 5c0 0-2 5.83 7 5.83l2.26 713-2785.26 4.17z"/><path d="m0 777.86s10-10 24-10.82c0 0 3-.83 0 5 0 0-2 5.83 7 5.83h7.93a4.92 4.92 0 0 0 3.32-1.23 37.64 37.64 0 0 1 22.75-9.64s4 0 0 5c0 0-2 5.83 7 5.83h13.71a3.19 3.19 0 0 0 2.1-.75c2.65-2.34 11.53-9.38 23.19-10.07 0 0 3-.83 0 5 0 0-2 5.83 7 5.83h7.93a4.92 4.92 0 0 0 3.32-1.23 37.64 37.64 0 0 1 22.75-9.61s4 0 0 5c0 0-2 5.83 7 5.83h11.85a5.45 5.45 0 0 0 3.52-1.24c3.2-2.7 11.69-8.93 22.63-9.58 0 0 3-.83 0 5 0 0-2 5.83 7 5.83h7.93a4.92 4.92 0 0 0 3.32-1.23 37.64 37.64 0 0 1 22.75-9.61s4 0 0 5c0 0-2 5.83 7 5.83h13.71a3.19 3.19 0 0 0 2.1-.75c2.65-2.34 11.53-9.38 23.19-10.07 0 0 3-.83 0 5 0 0-2 5.83 7 5.83h7.93a4.92 4.92 0 0 0 3.32-1.23 37.64 37.64 0 0 1 22.75-9.61s4 0 0 5c0 0-2 5.83 7 5.83h13.41a6.68 6.68 0 0 0 4.23-1.46c3.38-2.8 11.71-8.73 22.36-9.36 0 0 3-.83 0 5 0 0-2 5.83 7 5.83h7.93a4.92 4.92 0 0 0 3.32-1.23 37.64 37.64 0 0 1 22.75-9.61s4 0 0 5c0 0-2 5.83 7 5.83h13.71a3.19 3.19 0 0 0 2.1-.75c2.65-2.34 11.53-9.38 23.19-10.07 0 0 3-.83 0 5 0 0-2 5.83 7 5.83h7.93a4.92 4.92 0 0 0 3.32-1.23 37.64 37.64 0 0 1 22.75-9.61s4 0 0 5c0 0-2 5.83 7 5.83h11.85a5.45 5.45 0 0 0 3.52-1.24c3.2-2.7 11.69-8.93 22.63-9.58 0 0 3-.83 0 5 0 0-2 5.83 7 5.83h7.93a4.92 4.92 0 0 0 3.32-1.23 37.64 37.64 0 0 1 22.75-9.61s4 0 0 5c0 0-2 5.83 7 5.83h13.71a3.19 3.19 0 0 0 2.1-.75c2.65-2.34 11.53-9.38 23.19-10.07 0 0 3-.83 0 5 0 0-2 5.83 7 5.83h7.93a4.92 4.92 0 0 0 3.32-1.23 37.64 37.64 0 0 1 22.75-9.61s4 0 0 5c0 0-2 5.83 7 5.83h19.22a7.22 7.22 0 0 0 4.56-1.57c3.47-2.85 11.72-8.62 22.22-9.25 0 0 3-.83 0 5 0 0-2 5.83 7 5.83h7.93a4.92 4.92 0 0 0 3.32-1.23 37.64 37.64 0 0 1 22.75-9.61s4 0 0 5c0 0-2 5.83 7 5.83h13.71a3.19 3.19 0 0 0 2.1-.75c2.65-2.34 11.53-9.38 23.19-10.07 0 0 3-.83 0 5 0 0-2 5.83 7 5.83h7.93a4.92 4.92 0 0 0 3.32-1.23 37.64 37.64 0 0 1 22.75-9.61s4 0 0 5c0 0-2 5.83 7 5.83h11.85a5.45 5.45 0 0 0 3.52-1.24c3.2-2.7 11.69-8.93 22.63-9.58 0 0 3-.83 0 5 0 0-2 5.83 7 5.83h7.93a4.92 4.92 0 0 0 3.32-1.23 37.64 37.64 0 0 1 22.75-9.61s4 0 0 5c0 0-2 5.83 7 5.83h13.71a3.19 3.19 0 0 0 2.1-.75c2.65-2.34 11.53-9.38 23.19-10.07 0 0 3-.83 0 5 0 0-2 5.83 7 5.83h7.93a4.92 4.92 0 0 0 3.32-1.23 37.64 37.64 0 0 1 22.75-9.61s4 0 0 5c0 0-2 5.83 7 5.83h13.41a6.68 6.68 0 0 0 4.23-1.46c3.38-2.8 11.71-8.73 22.36-9.36 0 0 3-.83 0 5 0 0-2 5.83 7 5.83h7.93a4.92 4.92 0 0 0 3.32-1.23 37.64 37.64 0 0 1 22.75-9.61s4 0 0 5c0 0-2 5.83 7 5.83h13.71a3.19 3.19 0 0 0 2.1-.75c2.65-2.34 11.53-9.38 23.19-10.07 0 0 3-.83 0 5 0 0-2 5.83 7 5.83h7.93a4.92 4.92 0 0 0 3.32-1.23 37.64 37.64 0 0 1 22.75-9.61s4 0 0 5c0 0-2 5.83 7 5.83h11.85a5.45 5.45 0 0 0 3.52-1.24c3.2-2.7 11.69-8.93 22.63-9.58 0 0 3-.83 0 5 0 0-2 5.83 7 5.83h7.93a4.92 4.92 0 0 0 3.32-1.23 37.64 37.64 0 0 1 22.75-9.61s4 0 0 5c0 0-2 5.83 7 5.83h13.71a3.19 3.19 0 0 0 2.1-.75c2.65-2.34 11.53-9.38 23.19-10.07 0 0 3-.83 0 5 0 0-2 5.83 7 5.83h7.93a4.92 4.92 0 0 0 3.32-1.23 37.64 37.64 0 0 1 22.75-9.61s4 0 0 5c0 0-2 5.83 7 5.83h15.17a10.06 10.06 0 0 0 6.2-2.05c3.76-3 11.69-8.18 21.63-8.77 0 0 3-.83 0 5 0 0-2 5.83 7 5.83h7.93a4.92 4.92 0 0 0 3.32-1.23 37.64 37.64 0 0 1 22.75-9.61s4 0 0 5c0 0-2 5.83 7 5.83h13.71a3.19 3.19 0 0 0 2.1-.75c2.65-2.34 11.53-9.38 23.19-10.07 0 0 3-.83 0 5 0 0-2 5.83 7 5.83h7.93a4.92 4.92 0 0 0 3.32-1.23 37.64 37.64 0 0 1 22.75-9.61s4 0 0 5c0 0-2 5.83 7 5.83h11.85a5.45 5.45 0 0 0 3.52-1.24c3.2-2.7 11.69-8.93 22.63-9.58 0 0 3-.83 0 5 0 0-2 5.83 7 5.83h7.93a4.92 4.92 0 0 0 3.32-1.23 37.64 37.64 0 0 1 22.75-9.61s4 0 0 5c0 0-2 5.83 7 5.83h13.71a3.19 3.19 0 0 0 2.1-.75c2.65-2.34 11.53-9.38 23.19-10.07 0 0 3-.83 0 5 0 0-2 5.83 7 5.83h7.93a4.92 4.92 0 0 0 3.32-1.23 37.64 37.64 0 0 1 22.75-9.61s4 0 0 5c0 0-2 5.83 7 5.83h13.41a6.68 6.68 0 0 0 4.23-1.46c3.38-2.8 11.71-8.73 22.36-9.36 0 0 3-.83 0 5 0 0-2 5.83 7 5.83h7.93a4.92 4.92 0 0 0 3.32-1.23 37.64 37.64 0 0 1 22.75-9.61s4 0 0 5c0 0-2 5.83 7 5.83h13.71a3.19 3.19 0 0 0 2.1-.75c2.65-2.34 11.53-9.38 23.19-10.07 0 0 3-.83 0 5 0 0-2 5.83 7 5.83h7.93a4.92 4.92 0 0 0 3.32-1.23 37.64 37.64 0 0 1 22.75-9.61s4 0 0 5c0 0-2 5.83 7 5.83h11.85a5.45 5.45 0 0 0 3.52-1.24c3.2-2.7 11.69-8.93 22.63-9.58 0 0 3-.83 0 5 0 0-2 5.83 7 5.83h7.93a4.92 4.92 0 0 0 3.32-1.23 37.64 37.64 0 0 1 22.75-9.61s4 0 0 5c0 0-2 5.83 7 5.83h13.71a3.19 3.19 0 0 0 2.1-.75c2.65-2.34 11.53-9.38 23.19-10.07 0 0 3-.83 0 5 0 0-2 5.83 7 5.83h7.93a4.92 4.92 0 0 0 3.32-1.23 37.64 37.64 0 0 1 22.75-9.61s4 0 0 5c0 0-2 5.83 7 5.83h19.22a7.22 7.22 0 0 0 4.56-1.57c3.47-2.85 11.72-8.62 22.22-9.25 0 0 3-.83 0 5 0 0-2 5.83 7 5.83h7.93a4.92 4.92 0 0 0 3.32-1.23 37.64 37.64 0 0 1 22.75-9.61s4 0 0 5c0 0-2 5.83 7 5.83h13.71a3.19 3.19 0 0 0 2.1-.75c2.65-2.34 11.53-9.38 23.19-10.07 0 0 3-.83 0 5 0 0-2 5.83 7 5.83h7.93a4.92 4.92 0 0 0 3.32-1.23 37.64 37.64 0 0 1 22.75-9.61s4 0 0 5c0 0-2 5.83 7 5.83h11.85a5.45 5.45 0 0 0 3.52-1.24c3.2-2.7 11.69-8.93 22.63-9.58 0 0 3-.83 0 5 0 0-2 5.83 7 5.83h7.93a4.92 4.92 0 0 0 3.32-1.23 37.64 37.64 0 0 1 22.75-9.61s4 0 0 5c0 0-2 5.83 7 5.83h13.71a3.19 3.19 0 0 0 2.1-.75c2.65-2.34 11.53-9.38 23.19-10.07 0 0 3-.83 0 5 0 0-2 5.83 7 5.83h7.93a4.92 4.92 0 0 0 3.32-1.23 37.64 37.64 0 0 1 22.75-9.61s4 0 0 5c0 0-2 5.83 7 5.83h13.41a6.68 6.68 0 0 0 4.23-1.46c3.38-2.8 11.71-8.73 22.36-9.36 0 0 3-.83 0 5 0 0-2 5.83 7 5.83h7.93a4.92 4.92 0 0 0 3.32-1.23 37.64 37.64 0 0 1 22.75-9.61s4 0 0 5c0 0-2 5.83 7 5.83h13.71a3.19 3.19 0 0 0 2.1-.75c2.65-2.34 11.53-9.38 23.19-10.07 0 0 3-.83 0 5 0 0-2 5.83 7 5.83h7.93a4.92 4.92 0 0 0 3.32-1.23 37.64 37.64 0 0 1 22.75-9.61s4 0 0 5c0 0-2 5.83 7 5.83h11.85a5.45 5.45 0 0 0 3.52-1.24c3.2-2.7 11.69-8.93 22.63-9.58 0 0 3-.83 0 5 0 0-2 5.83 7 5.83h7.93a4.92 4.92 0 0 0 3.32-1.23 37.64 37.64 0 0 1 22.75-9.61s4 0 0 5c0 0-2 5.83 7 5.83h13.71a3.19 3.19 0 0 0 2.1-.75c2.65-2.34 11.53-9.38 23.19-10.07 0 0 3-.83 0 5 0 0-2 5.83 7 5.83h7.93a4.92 4.92 0 0 0 3.32-1.23 37.64 37.64 0 0 1 22.75-9.61s4 0 0 5c0 0-2 5.83 7 5.83l2.26 713-2785.26 4.17z"/><path d="m6888 1494.78-1166 .22h-173v-716.93s10-10 24-10.81c0 0 3-.83 0 5 0 0-2 5.82 7 5.82h7.93a5 5 0 0 0 3.32-1.22 37.58 37.58 0 0 1 22.75-9.59s4 0 0 5c0 0-2 5.82 7 5.82h13.71a3.19 3.19 0 0 0 2.1-.75c2.65-2.33 11.53-9.37 23.19-10.06 0 0 3-.83 0 5 0 0-2 5.82 7 5.82h7.93a5 5 0 0 0 3.32-1.22 37.58 37.58 0 0 1 22.75-9.59s4 0 0 5c0 0-2 5.82 7 5.82h11.85a5.5 5.5 0 0 0 3.52-1.23c3.2-2.7 11.69-8.93 22.63-9.58 0 0 3-.83 0 5 0 0-2 5.82 7 5.82h7.93a5 5 0 0 0 3.32-1.22 37.58 37.58 0 0 1 22.75-9.59s4 0 0 5c0 0-2 5.82 7 5.82h13.71a3.19 3.19 0 0 0 2.1-.75c2.65-2.33 11.53-9.37 23.19-10.06 0 0 3-.83 0 5 0 0-2 5.82 7 5.82h7.93a5 5 0 0 0 3.32-1.22 37.58 37.58 0 0 1 22.75-9.59s4 0 0 5c0 0-2 5.82 7 5.82h13.41a6.67 6.67 0 0 0 4.23-1.45c3.38-2.8 11.71-8.73 22.36-9.36 0 0 3-.83 0 5 0 0-2 5.82 7 5.82h7.93a5 5 0 0 0 3.32-1.22 37.58 37.58 0 0 1 22.75-9.59s4 0 0 5c0 0-2 5.82 7 5.82h13.71a3.19 3.19 0 0 0 2.1-.75c2.65-2.33 11.53-9.37 23.19-10.06 0 0 3-.83 0 5 0 0-2 5.82 7 5.82h7.93a5 5 0 0 0 3.32-1.22 37.58 37.58 0 0 1 22.75-9.59s4 0 0 5c0 0-2 5.82 7 5.82h11.85a5.5 5.5 0 0 0 3.52-1.23c3.2-2.7 11.69-8.93 22.63-9.58 0 0 3-.83 0 5 0 0-2 5.82 7 5.82h7.93a5 5 0 0 0 3.32-1.22 37.58 37.58 0 0 1 22.75-9.59s4 0 0 5c0 0-2 5.82 7 5.82h13.71a3.19 3.19 0 0 0 2.1-.75c2.65-2.33 11.53-9.37 23.19-10.06 0 0 3-.83 0 5 0 0-2 5.82 7 5.82h7.93a5 5 0 0 0 3.32-1.22 37.58 37.58 0 0 1 22.75-9.59s4 0 0 5c0 0-2 5.82 7 5.82h19.22a7.22 7.22 0 0 0 4.56-1.57c3.47-2.84 11.72-8.62 22.22-9.24 0 0 3-.83 0 5 0 0-2 5.82 7 5.82h7.93a5 5 0 0 0 3.32-1.22 37.58 37.58 0 0 1 22.75-9.59s4 0 0 5c0 0-2 5.82 7 5.82h13.71a3.19 3.19 0 0 0 2.1-.75c2.65-2.33 11.53-9.37 23.19-10.06 0 0 3-.83 0 5 0 0-2 5.82 7 5.82h7.93a5 5 0 0 0 3.32-1.22 37.58 37.58 0 0 1 22.75-9.59s4 0 0 5c0 0-2 5.82 7 5.82h11.85a5.5 5.5 0 0 0 3.52-1.23c3.2-2.7 11.69-8.93 22.63-9.58 0 0 3-.83 0 5 0 0-2 5.82 7 5.82h7.93a5 5 0 0 0 3.32-1.22 37.58 37.58 0 0 1 22.75-9.59s4 0 0 5c0 0-2 5.82 7 5.82h13.71a3.19 3.19 0 0 0 2.1-.75c2.65-2.33 11.53-9.37 23.19-10.06 0 0 3-.83 0 5 0 0-2 5.82 7 5.82h7.93a5 5 0 0 0 3.32-1.22 37.58 37.58 0 0 1 22.75-9.59s4 0 0 5c0 0-2 5.82 7 5.82h13.41a6.67 6.67 0 0 0 4.23-1.45c3.38-2.8 11.71-8.73 22.36-9.36 0 0 3-.83 0 5 0 0-2 5.82 7 5.82h7.93a5 5 0 0 0 3.32-1.22 37.58 37.58 0 0 1 22.75-9.59s4 0 0 5c0 0-2 5.82 7 5.82h13.71a3.19 3.19 0 0 0 2.1-.75c2.65-2.33 11.53-9.37 23.19-10.06 0 0 3-.83 0 5 0 0-2 5.82 7 5.82h7.93a5 5 0 0 0 3.32-1.22 37.58 37.58 0 0 1 22.75-9.59s4 0 0 5c0 0-2 5.82 7 5.82h11.85a5.5 5.5 0 0 0 3.52-1.23c3.2-2.7 11.69-8.93 22.63-9.58 0 0 3-.83 0 5 0 0-2 5.82 7 5.82h7.93a5 5 0 0 0 3.32-1.22 37.58 37.58 0 0 1 22.75-9.59s4 0 0 5c0 0-2 5.82 7 5.82h13.71a3.19 3.19 0 0 0 2.1-.75c2.65-2.33 16.53-9.63 28.19-10.32v11.07"/></g></svg>