<svg height="126" viewBox="0 0 696 126" width="696" xmlns="http://www.w3.org/2000/svg"><path d="m556.54 102.85s59 4.8 139.68 23.15l-32.33-40.48 32.33-13.87s-62.91-23.35-139.68-27.05z" fill="#ea212d"/><path d="m607.28 88.92-50.75 13.93v-34.67l34.52 5.09z" fill="#9c0f17"/><path d="m138.62 102.85s-58.95 4.8-139.69 23.15l32.33-40.48-32.33-13.87s62.91-23.35 139.69-27.05z" fill="#ea212d"/><path d="m87.88 88.92 50.74 13.93v-34.67l-34.52 5.09z" fill="#9c0f17"/><path d="m607.28 88.92a1168.67 1168.67 0 0 0 -519.66 0v-57.69a1169 1169 0 0 1 519.66 0z" fill="#ea212d"/><g fill="#fff"><path d="m194.55 36.84a4.17 4.17 0 0 1 -3.32-.73 4 4 0 0 1 -1.53-2.66 4.09 4.09 0 0 1 1.76-3.81c.84-.49 1.18-.57 4.53-1l8.53-1a16 16 0 0 1 2.9-.27 3.86 3.86 0 0 1 3.92 3.42 4.27 4.27 0 0 1 -1 3.21 4.75 4.75 0 0 1 -3.15 1.32l-1.89.22 1.54 12.77a5.6 5.6 0 0 1 -.34 3.36 4 4 0 0 1 -3.28 2.33 4.33 4.33 0 0 1 -3.72-1.34 5.37 5.37 0 0 1 -1.13-3.26l-1.55-12.85z"/><path d="m224.51 46.06c.18 2.13.12 2.68-.36 3.66a4.26 4.26 0 0 1 -7.05.73c-.67-.86-.9-1.58-1.1-3.5l-1.61-15.49c-.19-1.81-.08-2.6.52-3.56a4.32 4.32 0 0 1 3.18-2 4.51 4.51 0 0 1 3.61 1.31c.79.85 1 1.37 1.22 3.57l.38 3.62 5.16-.54-.36-3.5c-.21-2-.14-2.83.49-3.87a4.11 4.11 0 0 1 3.11-2 4.38 4.38 0 0 1 3.55 1.27 5.27 5.27 0 0 1 1.29 3.41l1.62 15.57a5.53 5.53 0 0 1 -.35 3.42 4.23 4.23 0 0 1 -6.94 1.07c-.75-.86-1-1.57-1.19-3.61l-.38-3.7-5.17.53z"/><path d="m254.27 40.56c1.86-.16 2.69 0 3.64.65a4 4 0 0 1 1.65 2.89 4.19 4.19 0 0 1 -1.12 3.21c-.79.77-1.51 1-3.44 1.19l-6.59.58a8.26 8.26 0 0 1 -3.28-.07 4 4 0 0 1 -2.7-2.87 10.09 10.09 0 0 1 -.37-2.54l-1.22-14c-.18-2.16-.17-2.43.11-3.27a3.77 3.77 0 0 1 1.86-2.3c.93-.47 1.12-.53 3.63-.75l5.09-.44a11.28 11.28 0 0 1 3.26-.09 3.8 3.8 0 0 1 3.21 3.48 4 4 0 0 1 -1.11 3.25 4.58 4.58 0 0 1 -3.16 1.21l-4.25.37.16 1.77 3.35-.29c2.09-.18 3.54.93 3.7 2.75a3.17 3.17 0 0 1 -.9 2.53 3.86 3.86 0 0 1 -2.57.88l-3 .27.17 1.93z"/><path d="m282.46 41.73c.19 2.94-1.39 5-3.94 5.18a4.27 4.27 0 0 1 -3.68-1.71c-.72-1-.83-1.42-1-4l-1-15.07c-.12-1.86.1-2.72.93-3.71a4.46 4.46 0 0 1 3.4-1.49l3.55-.23c4.14-.26 6 .09 8 1.47a9.2 9.2 0 0 1 .82 14.73 9.08 9.08 0 0 1 -5.87 2.24l-1.43.09zm-.66-10.4c2.05 0 2.8-.45 2.73-1.6 0-.86-.86-1.31-2.14-1.23l-.77.05z"/><path d="m308.49 18.57a13.56 13.56 0 1 1 -13 14 13.56 13.56 0 0 1 13-14zm.85 18.65a5.12 5.12 0 0 0 4.85-5.33 5.08 5.08 0 0 0 -10.14.41 5.13 5.13 0 0 0 5.29 4.92z"/><path d="m345.28 37.17a5.28 5.28 0 0 1 .88 2.73 4.17 4.17 0 0 1 -4.16 4.28 4 4 0 0 1 -3.57-1.9l-3.65-5.76.08 3.52a4.19 4.19 0 0 1 -4.09 4.4 4.34 4.34 0 0 1 -3.37-1.44 5.52 5.52 0 0 1 -1.09-3.62l-.37-15.91c0-1.86.32-2.92 1.31-3.83s1.79-1.16 3.85-1.21l3.56-.08a15.8 15.8 0 0 1 4.15.29 9.24 9.24 0 0 1 7 8.75 9.11 9.11 0 0 1 -2.6 6.65zm-10.69-8.17h.35.58c1.28 0 1.93-.47 1.91-1.4s-.73-1.41-2-1.35a6.8 6.8 0 0 1 -.89 0z"/><path d="m352.13 25.94a4.17 4.17 0 0 1 -3.22-1.11 4 4 0 0 1 1-6.4c.89-.39 1.24-.43 4.61-.44h8.6a15.8 15.8 0 0 1 2.88.01 3.86 3.86 0 0 1 3.5 3.85 4.24 4.24 0 0 1 -1.38 3.07 4.73 4.73 0 0 1 -3.29.95h-1.9l.07 12.89a5.63 5.63 0 0 1 -.72 3.29 4.06 4.06 0 0 1 -3.52 2 4.28 4.28 0 0 1 -3.53-1.76 5.25 5.25 0 0 1 -.75-3.37l-.06-12.94z"/><path d="m380.26 38.11c0 2.52-.12 3-.76 4a4.21 4.21 0 0 1 -7.27-.33c-.45-1-.52-1.48-.49-3.85l.26-14.93c0-2.28.55-3.43 1.92-4.31a4.67 4.67 0 0 1 2.06-.63c.35 0 1.13-.06 2.25 0l5.11.07c2.79 0 3.33.13 4.29.72a3.74 3.74 0 0 1 1.78 3.28 4.47 4.47 0 0 1 -1.4 3.12 4.43 4.43 0 0 1 -3.23.88l-4.3-.06v1.78h2.64a4.81 4.81 0 0 1 2.74.54 3 3 0 0 1 1.4 2.58c0 2-1.36 3.12-3.8 3.08h-3.06z"/><path d="m404.41 18.07a13.56 13.56 0 1 1 -14.06 12.93 13.56 13.56 0 0 1 14.06-12.93zm-.63 18.66a5.13 5.13 0 0 0 5.22-4.93 5.07 5.07 0 0 0 -10.14-.4 5.13 5.13 0 0 0 4.92 5.33z"/><path d="m433.39 38a4.78 4.78 0 0 1 3 1 4 4 0 0 1 1.43 3.27 4 4 0 0 1 -4.72 3.73l-8.1-.51a4.28 4.28 0 0 1 -3.51-1.57c-1-1.22-1.06-1.81-.84-5.36l.85-14.56c.17-2.9 1.95-4.7 4.5-4.54a4.31 4.31 0 0 1 3.23 1.74c.72 1.09.86 1.88.72 4.31l-.74 12.22z"/><path d="m449 42.41a4.73 4.73 0 0 1 -1.35 3.39 4.55 4.55 0 0 1 -3.24 1.2 4.5 4.5 0 0 1 -3.06-1.6 4.59 4.59 0 0 1 -.81-3.64l1.22-15.95c.17-2.16.42-2.92 1.38-3.81a4.09 4.09 0 0 1 3.24-1.15 4.28 4.28 0 0 1 3.06 1.59c.78 1 1 1.94.82 4z"/><path d="m467.92 22.3a13.55 13.55 0 1 1 -14.85 12 13.57 13.57 0 0 1 14.85-12zm-1.8 18.58a5.12 5.12 0 0 0 5.55-4.58 5.07 5.07 0 0 0 -10.09-1 5.12 5.12 0 0 0 4.54 5.58z"/><path d="m509.87 27.48a13.56 13.56 0 1 1 -15.42 11.26 13.57 13.57 0 0 1 15.42-11.26zm-2.71 18.52a5.12 5.12 0 0 0 5.77-4.31 5.07 5.07 0 0 0 -10-1.54 5.13 5.13 0 0 0 4.23 5.85z"/><path d="m531.38 52c-.45 2.48-.61 3-1.4 3.84a4.22 4.22 0 0 1 -7.13-1.53c-.28-1-.27-1.55.15-3.87l2.67-14.68c.41-2.25 1.11-3.3 2.61-3.93a4.37 4.37 0 0 1 2.13-.28 22.49 22.49 0 0 1 2.23.32l5 .92c2.75.5 3.26.67 4.11 1.41a3.74 3.74 0 0 1 1.25 3.49 3.94 3.94 0 0 1 -5.22 3.18l-4.23-.76-.32 1.75 2.59.47a4.84 4.84 0 0 1 2.62 1 2.94 2.94 0 0 1 1 2.77c-.36 2-1.86 2.85-4.26 2.42l-3-.55z"/></g></svg>