<svg height="221" viewBox="0 0 269 221" width="269" xmlns="http://www.w3.org/2000/svg"><g fill-rule="evenodd"><path d="m143.85 47.52 7.24 1.97-43.54 162.51h-7.77z" fill="#78a2c4"/><path d="m132.2 91.02 7.28 1.79-31.93 119.19h-7.77z" fill="#a6c5de"/><path d="m26.4 37.66c31.19-25.91 84.86-38.17 130.93-25.82s86.38 49.82 100.43 87.82z" fill="#ce618f"/><path d="m49.48 43.86c26.66-27.09 70.94-41.86 107.85-32.02s67.79 44.85 77.35 81.62z" fill="#fff"/><path d="m80.89 52.28c20.55-28.75 52.05-47 76.39-40.44s42.54 38 45.94 73.2z" fill="#ce618f"/><path d="m119.59 62.62c13-30.8 28.75-53.18 37.74-50.78s11.43 29.71 7.28 62.86z" fill="#fff"/><path d="m119.59 62.62c2.49 8.29 10.16 16.23 19.11 18.63s19.59-.66 25.87-6.55z" fill="#a6c5de"/><path d="m80.89 52.28c1.88 8.11 8.25 15.7 16 17.76s17-1.36 22.69-7.42z" fill="#a14270"/><path d="m49.48 43.86c1.18 7.9 6.11 15.14 12.35 16.8s14.17-2.14 19.1-8.38z" fill="#a6c5de"/><g fill="#a14270"><path d="m26.4 37.66c.35 7.68 3.58 14.44 8.16 15.71s10.77-3 14.92-9.51z"/><path d="m234.68 93.46c.35 7.68 3.58 14.44 8.16 15.71s10.73-3 14.92-9.51z"/><path d="m164.57 74.7c1.88 8.07 8.24 15.71 16 17.76s17-1.35 22.68-7.42z"/></g><path d="m203.22 85c1.18 7.9 6.07 15.14 12.35 16.8s14.14-2.14 19.11-8.38z" fill="#a6c5de"/></g></svg>