<svg height="343" viewBox="0 0 273 343" width="273" xmlns="http://www.w3.org/2000/svg"><path d="m158.67 87.05s-24.8 96.2-34.2 120.2-104 118.6-104 118.6 7.3 7.3 15.3 11.3 24 0 24 0 74.3-95.6 80.9-116.1 28.5-134 28.5-134z" fill="#6a543f"/><path d="m210.67 33.35c12.4-6 28.8 30.8 28.8 30.8s-7.6 0-15 .7l-9.3-15.5 5.2 15.9a49.71 49.71 0 0 0 -7.2 1.3 55.53 55.53 0 0 0 -9 4.5l-5.6-6 2.2 8c-13.7 8-32.6 20.4-32.6 20.4l1.2-13.6c-.1-.1 28.9-40.5 41.3-46.5z" fill="#628339"/><path d="m156.67 50.75-11 4.3c-.5-.6-.9-1.2-1.3-1.6-1.9-2.2-7.4-8.6-13.6-16l13.6-1.9-17.2-2.3c-10.4-12.4-21.5-25.7-21.5-25.7s35.1 1.5 50 15.7 15.1 57 15.1 57l-2.6 13s-12.9-23.6-20.3-34.8z" fill="#417035"/><path d="m246.47 91.65c21.6 18.7 13.6 55.4 13.6 55.4l-13.6-8-4.8-24.2-3.3 19.5-26.8-15.6 4-20.6-10.4 16.85-37-21.6 1.2-13.6c-.1-.05 55.4-6.8 77.1 11.85z" fill="#417035"/><path d="m114.17 35.65-22.5 15.4c-13-2.2-28.4-4.1-28.4-4.1s30.7-22.3 52.8-19.5 57.5 53.9 57.5 53.9l-5.5 12.1s-17.5-11.7-33.8-22.3l7.3-14.1-12.4 10.7c-9.9-6.4-18.6-11.7-21.5-13a43.73 43.73 0 0 0 -7.7-2.1z" fill="#628339"/><path d="m23.37 116.25s30.2-34.5 52.1-45.3 93.8 8.8 93.8 8.8l-1.2 13.6-41 6.5v-22.4l-7.7 23.7-53.6 8.5 7.6-22.1-14.1 23.1z" fill="#417035"/><path d="m169.27 79.75-1.2 13.6s-22.6 18.2-39.4 32.9l-9.7-10.4 6.2 13.4c-5 4.4-9.2 8.3-11.8 11-4.5 4.8-12.3 14.1-20 23.5l-6.2-24 .9 30.5c-9.9 12.2-18.5 23.2-18.5 23.2s-14.1-42.9 11.4-72.9c29.2-34.1 88.3-40.8 88.3-40.8z" fill="#628339"/><path d="m208.87 99.05c13.3 10.5 40.4 49.1 43.9 63.8s-22.1 58.2-22.1 58.2-2.7-10.1-6.3-23.3l16.1-26.9-18.7 17.5c-1.3-4.7-2.6-9.7-4-14.5l15-11.2-16.3 6.5c-4.4-15.7-8.4-29.3-9.4-31a87.94 87.94 0 0 0 -5.8-7.1l8.4-7.9-11.6 4.2c-11.6-13.35-30.07-33.9-30.07-33.9l1.2-13.6c.07-.1 26.37 8.7 39.67 19.2z" fill="#628339"/><g fill="#987555"><path d="m71.67 321.85c1.8-2.4 3.8-5 5.9-7.8l-27.9-18c-3 3.1-5.8 6.1-8.5 8.8z"/><path d="m80.37 263.15c-2.2 2.5-4.5 4.9-6.8 7.4l27.9 11.2c1.8-2.5 3.6-4.9 5.3-7.4z"/><path d="m111.67 226.75c-1.1 1.3-2.2 2.7-3.3 4.1l16.3 17.9c1.4-2.1 2.7-4.1 4-6z"/><path d="m145.37 203.25c.6-2.5 1.2-5.2 1.8-8l-17-5c-.8 2.4-1.5 4.7-2.2 6.9z"/><path d="m141.27 152.25-2.4 8.4 15.4 1.7c.5-2.5 1-4.9 1.5-7.4z"/><path d="m150.57 118c-.7 2.6-1.4 5.2-2.1 7.9l12.8 2.1c.4-2.2.9-4.4 1.3-6.6z"/></g></svg>