<svg height="392" viewBox="0 0 416 392" width="416" xmlns="http://www.w3.org/2000/svg"><path d="m196.74 85.7h20.26v296.3h-20.26z" fill="#808080"/><path d="m249.39 198.24h-99.15a30.45 30.45 0 0 1 -29.55-23.07l-19-75.93a30.47 30.47 0 0 1 26.14-37.66l153.17-17.25a30.45 30.45 0 0 1 31.92 41l-35 93.19a30.44 30.44 0 0 1 -28.53 19.72z" fill="#d62229"/><path d="m281 44.33-153.15 17.25a30.43 30.43 0 0 0 -24.91 19.06l151.6-17.08a30.46 30.46 0 0 1 31.93 41l-35 93.19-.18.46a30.42 30.42 0 0 0 26.61-19.69l35-93.19a30.45 30.45 0 0 0 -31.9-41z" fill="#b5282e"/><path d="m284.52 52.61a21.43 21.43 0 0 1 10.3 2.6 22.38 22.38 0 0 1 7.65 6.9 21.64 21.64 0 0 1 2.53 20.21l-35 93.19a22 22 0 0 1 -20.57 14.25h-99.19a21.93 21.93 0 0 1 -7.24-1.22 22 22 0 0 1 -11.14-8.7 21.88 21.88 0 0 1 -2.94-6.73l-19-75.93a22 22 0 0 1 18.88-27.18l153.13-17.24a22.49 22.49 0 0 1 2.59-.15m0-8.48a30.25 30.25 0 0 0 -3.54.2l-153.13 17.25a30.47 30.47 0 0 0 -26.14 37.66l19 75.93a30.45 30.45 0 0 0 29.55 23.07h99.15a30.44 30.44 0 0 0 28.51-19.75l35-93.19a30.46 30.46 0 0 0 -28.38-41.17z" fill="#95282c"/><path d="m247.77 183.4a1.63 1.63 0 0 1 1.62-1.63 1.63 1.63 0 0 1 1.61 1.63 1.62 1.62 0 0 1 -1.6 1.6 1.62 1.62 0 0 1 -1.63-1.6zm-8.4 0a1.63 1.63 0 0 1 1.63-1.63 1.63 1.63 0 0 1 1.62 1.63 1.62 1.62 0 0 1 -1.62 1.6 1.62 1.62 0 0 1 -1.63-1.6zm-8.4 0a1.63 1.63 0 0 1 1.63-1.63 1.63 1.63 0 0 1 1.62 1.63 1.62 1.62 0 0 1 -1.62 1.6 1.62 1.62 0 0 1 -1.6-1.6zm-8.4 0a1.63 1.63 0 0 1 1.63-1.63 1.63 1.63 0 0 1 1.62 1.63 1.62 1.62 0 0 1 -1.62 1.6 1.62 1.62 0 0 1 -1.63-1.6zm-8.4 0a1.63 1.63 0 0 1 1.62-1.63 1.63 1.63 0 0 1 1.63 1.63 1.62 1.62 0 0 1 -1.63 1.62 1.62 1.62 0 0 1 -1.62-1.62zm-8.4 0a1.63 1.63 0 0 1 1.62-1.63 1.63 1.63 0 0 1 1.61 1.63 1.62 1.62 0 0 1 -1.63 1.62 1.62 1.62 0 0 1 -1.6-1.62zm-8.4 0a1.63 1.63 0 0 1 1.62-1.63 1.63 1.63 0 0 1 1.63 1.63 1.62 1.62 0 0 1 -1.62 1.6 1.62 1.62 0 0 1 -1.63-1.6zm-8.4 0a1.63 1.63 0 0 1 1.62-1.63 1.63 1.63 0 0 1 1.63 1.63 1.62 1.62 0 0 1 -1.63 1.62 1.62 1.62 0 0 1 -1.59-1.62zm-8.4 0a1.63 1.63 0 0 1 1.62-1.63 1.63 1.63 0 0 1 1.63 1.63 1.62 1.62 0 0 1 -1.63 1.62 1.62 1.62 0 0 1 -1.62-1.62zm-8.4 0a1.62 1.62 0 0 1 1.62-1.63 1.63 1.63 0 0 1 1.63 1.63 1.62 1.62 0 0 1 -1.63 1.62 1.61 1.61 0 0 1 -1.62-1.62zm-8.4 0a1.62 1.62 0 0 1 1.62-1.63 1.63 1.63 0 0 1 1.61 1.63 1.62 1.62 0 0 1 -1.63 1.62 1.61 1.61 0 0 1 -1.6-1.62zm-8.4 0a1.62 1.62 0 0 1 1.62-1.63 1.63 1.63 0 0 1 1.63 1.63 1.62 1.62 0 0 1 -1.62 1.6 1.61 1.61 0 0 1 -1.63-1.6zm-6.94 1.53a1.62 1.62 0 0 1 -1.45-1.79 1.61 1.61 0 0 1 1.78-1.44 1.61 1.61 0 0 1 1.45 1.78 1.62 1.62 0 0 1 -1.61 1.46h-.17zm107.57-2.93a1.63 1.63 0 0 1 .56-2.23 1.63 1.63 0 0 1 2.23.56 1.63 1.63 0 0 1 -.56 2.23 1.68 1.68 0 0 1 -.83.23 1.63 1.63 0 0 1 -1.4-.79zm-116.11-.44a1.64 1.64 0 0 1 -.32-2.28 1.63 1.63 0 0 1 2.28-.33 1.64 1.64 0 0 1 .32 2.28 1.61 1.61 0 0 1 -1.3.65 1.64 1.64 0 0 1 -.98-.29zm122.5-4.96a1.63 1.63 0 0 1 -.66-2.2 1.63 1.63 0 0 1 2.2-.67 1.64 1.64 0 0 1 .67 2.21 1.65 1.65 0 0 1 -1.44.85 1.65 1.65 0 0 1 -.8-.16zm-128.07-2.29a1.63 1.63 0 0 1 .89-2.12 1.62 1.62 0 0 1 2.12.88 1.64 1.64 0 0 1 -.89 2.13 1.67 1.67 0 0 1 -.62.12 1.62 1.62 0 0 1 -1.53-.98zm131.35-5.43a1.62 1.62 0 0 1 -.95-2.09 1.63 1.63 0 0 1 2.1-.95 1.62 1.62 0 0 1 .95 2.09 1.64 1.64 0 0 1 -1.52 1.06 1.7 1.7 0 0 1 -.61-.08zm-133.67-2.88a1.64 1.64 0 0 1 1.19-2 1.62 1.62 0 0 1 2 1.18 1.63 1.63 0 0 1 -1.18 2 1.9 1.9 0 0 1 -.4.05 1.64 1.64 0 0 1 -1.61-1.23zm136.58-5a1.63 1.63 0 0 1 -1-2.1 1.62 1.62 0 0 1 2.09-.95 1.63 1.63 0 0 1 .95 2.1 1.62 1.62 0 0 1 -1.52 1.05 1.63 1.63 0 0 1 -.5-.05zm-138.58-3.14a1.62 1.62 0 0 1 1.18-2 1.62 1.62 0 0 1 2 1.19 1.62 1.62 0 0 1 -1.18 2 1.75 1.75 0 0 1 -.4 0 1.63 1.63 0 0 1 -1.6-1.19zm141.56-4.68a1.62 1.62 0 0 1 -.95-2.09 1.63 1.63 0 0 1 2.1-1 1.62 1.62 0 0 1 .95 2.09 1.65 1.65 0 0 1 -1.53 1.06 1.65 1.65 0 0 1 -.58-.06zm-143.56-3.47a1.62 1.62 0 0 1 1.18-2 1.63 1.63 0 0 1 2 1.18 1.64 1.64 0 0 1 -1.19 2 1.72 1.72 0 0 1 -.39 0 1.63 1.63 0 0 1 -1.6-1.18zm146.56-4.39a1.63 1.63 0 0 1 -.95-2.1 1.62 1.62 0 0 1 2.09-.95 1.63 1.63 0 0 1 1 2.1 1.63 1.63 0 0 1 -1.52 1 1.63 1.63 0 0 1 -.67-.05zm-148.59-3.76a1.62 1.62 0 0 1 1.18-2 1.62 1.62 0 0 1 2 1.18 1.63 1.63 0 0 1 -1.18 2 1.87 1.87 0 0 1 -.4 0 1.61 1.61 0 0 1 -1.65-1.18zm151.54-4.11a1.62 1.62 0 0 1 -.95-2.09 1.62 1.62 0 0 1 2.09-1 1.62 1.62 0 0 1 .95 2.09 1.61 1.61 0 0 1 -1.52 1.06 1.44 1.44 0 0 1 -.62-.06zm-153.58-4a1.62 1.62 0 0 1 1.18-2 1.62 1.62 0 0 1 2 1.18 1.63 1.63 0 0 1 -1.18 2 1.75 1.75 0 0 1 -.4.05 1.63 1.63 0 0 1 -1.65-1.27zm156.53-3.82a1.62 1.62 0 0 1 -1-2.09 1.63 1.63 0 0 1 2.1-1 1.62 1.62 0 0 1 .95 2.09 1.65 1.65 0 0 1 -1.51 1.07 1.65 1.65 0 0 1 -.59-.11zm-158.57-4.33a1.62 1.62 0 0 1 1.19-2 1.62 1.62 0 0 1 2 1.19 1.63 1.63 0 0 1 -1.19 2 1.74 1.74 0 0 1 -.39 0 1.64 1.64 0 0 1 -1.66-1.23zm161.53-3.53a1.63 1.63 0 0 1 -.95-2.1 1.62 1.62 0 0 1 2.09-.95 1.63 1.63 0 0 1 .95 2.1 1.62 1.62 0 0 1 -1.52 1 1.59 1.59 0 0 1 -.62-.09zm-163.56-4.62a1.62 1.62 0 0 1 1.18-2 1.62 1.62 0 0 1 2 1.19 1.62 1.62 0 0 1 -1.18 2 1.83 1.83 0 0 1 -.4 0 1.62 1.62 0 0 1 -1.65-1.23zm166.51-3.25a1.62 1.62 0 0 1 -.95-2.09 1.62 1.62 0 0 1 2.09-1 1.62 1.62 0 0 1 1 2.09 1.62 1.62 0 0 1 -1.52 1.06 1.65 1.65 0 0 1 -.67-.1zm-168.6-4.9a1.62 1.62 0 0 1 1.18-2 1.62 1.62 0 0 1 2 1.19 1.62 1.62 0 0 1 -1.18 2 1.83 1.83 0 0 1 -.4 0 1.63 1.63 0 0 1 -1.6-1.19zm171.5-3a1.64 1.64 0 0 1 -.95-2.1 1.64 1.64 0 0 1 2.1-1 1.64 1.64 0 0 1 .95 2.1 1.64 1.64 0 0 1 -1.53 1 1.67 1.67 0 0 1 -.57 0zm-173.54-5.19a1.62 1.62 0 0 1 1.19-2 1.63 1.63 0 0 1 2 1.19 1.63 1.63 0 0 1 -1.19 2 1.74 1.74 0 0 1 -.39 0 1.64 1.64 0 0 1 -1.61-1.19zm176.5-2.68a1.62 1.62 0 0 1 -1-2.09 1.62 1.62 0 0 1 2.09-1 1.62 1.62 0 0 1 .95 2.09 1.61 1.61 0 0 1 -1.52 1.06 1.44 1.44 0 0 1 -.52-.06zm-178.23-5.88a1.62 1.62 0 0 1 1.58-1.67 1.64 1.64 0 0 1 1.67 1.58 1.63 1.63 0 0 1 -1.59 1.67 1.62 1.62 0 0 1 -1.66-1.58zm181.16-2a1.62 1.62 0 0 1 -.95-2.09 1.62 1.62 0 0 1 2.09-1 1.62 1.62 0 0 1 .95 2.09 1.62 1.62 0 0 1 -1.52 1.05 1.63 1.63 0 0 1 -.55-.03zm-178.3-4.67a1.62 1.62 0 0 1 -.6-2.22 1.63 1.63 0 0 1 2.22-.61 1.62 1.62 0 0 1 .6 2.22 1.64 1.64 0 0 1 -1.41.82 1.72 1.72 0 0 1 -.81-.21zm181.27-3.17a1.64 1.64 0 0 1 -.95-2.1 1.64 1.64 0 0 1 2.1-1 1.64 1.64 0 0 1 1 2.1 1.64 1.64 0 0 1 -1.52 1.05 1.69 1.69 0 0 1 -.63-.05zm-176-3.33a1.63 1.63 0 0 1 .61-2.22 1.62 1.62 0 0 1 2.22.61 1.63 1.63 0 0 1 -.61 2.22 1.65 1.65 0 0 1 -.8.21 1.64 1.64 0 0 1 -1.45-.82zm7.84-2.79a1.63 1.63 0 0 1 1.43-1.8 1.62 1.62 0 0 1 1.8 1.44 1.62 1.62 0 0 1 -1.43 1.79h-.19a1.62 1.62 0 0 1 -1.64-1.43zm8.35-.94a1.63 1.63 0 0 1 1.43-1.8 1.63 1.63 0 0 1 1.8 1.43 1.62 1.62 0 0 1 -1.43 1.8h-.19a1.61 1.61 0 0 1 -1.64-1.43zm8.35-.94a1.62 1.62 0 0 1 1.43-1.8 1.63 1.63 0 0 1 1.8 1.43 1.63 1.63 0 0 1 -1.44 1.8h-.18a1.61 1.61 0 0 1 -1.64-1.43zm8.34-.94a1.62 1.62 0 0 1 1.44-1.8 1.62 1.62 0 0 1 1.79 1.43 1.62 1.62 0 0 1 -1.43 1.8h-.18a1.63 1.63 0 0 1 -1.63-1.43zm143.34-.59a1.63 1.63 0 0 1 1.41-1.82 1.61 1.61 0 0 1 1.81 1.41 1.61 1.61 0 0 1 -1.4 1.81h-.21a1.62 1.62 0 0 1 -1.64-1.4zm-135-.35a1.62 1.62 0 0 1 1.43-1.8 1.62 1.62 0 0 1 1.8 1.43 1.63 1.63 0 0 1 -1.43 1.8h-.19a1.62 1.62 0 0 1 -1.63-1.43zm8.35-1a1.62 1.62 0 0 1 1.43-1.79 1.63 1.63 0 0 1 1.8 1.43 1.63 1.63 0 0 1 -1.43 1.8h-.19a1.63 1.63 0 0 1 -1.63-1.39zm8.35-.94a1.61 1.61 0 0 1 1.43-1.79 1.63 1.63 0 0 1 1.8 1.43 1.64 1.64 0 0 1 -1.44 1.8h-.18a1.62 1.62 0 0 1 -1.66-1.39zm8.34-.94a1.62 1.62 0 0 1 1.44-1.79 1.62 1.62 0 0 1 1.79 1.43 1.63 1.63 0 0 1 -1.43 1.8h-.19a1.64 1.64 0 0 1 -1.63-1.39zm8.35-.94a1.63 1.63 0 0 1 1.43-1.8 1.63 1.63 0 0 1 1.83 1.49 1.63 1.63 0 0 1 -1.43 1.8h-.19a1.63 1.63 0 0 1 -1.66-1.44zm8.35-.94a1.63 1.63 0 0 1 1.41-1.77 1.64 1.64 0 0 1 1.8 1.44 1.63 1.63 0 0 1 -1.43 1.8h-.19a1.62 1.62 0 0 1 -1.61-1.42zm8.35-.94a1.62 1.62 0 0 1 1.43-1.8 1.63 1.63 0 0 1 1.8 1.44 1.62 1.62 0 0 1 -1.44 1.79.55.55 0 0 1 -.18 0 1.61 1.61 0 0 1 -1.63-1.38zm8.34-.94a1.63 1.63 0 0 1 1.44-1.8 1.62 1.62 0 0 1 1.78 1.49 1.62 1.62 0 0 1 -1.43 1.79h-.18a1.63 1.63 0 0 1 -1.63-1.43zm73.67.07a1.61 1.61 0 0 1 .3-2.26 1.61 1.61 0 0 1 2.25.3 1.62 1.62 0 0 1 -.28 2.28 1.63 1.63 0 0 1 -1 .34 1.63 1.63 0 0 1 -1.29-.62zm-65.32-1a1.63 1.63 0 0 1 1.43-1.8 1.62 1.62 0 0 1 1.8 1.44 1.62 1.62 0 0 1 -1.43 1.79h-.19a1.62 1.62 0 0 1 -1.63-1.39zm8.35-.94a1.63 1.63 0 0 1 1.43-1.8 1.63 1.63 0 0 1 1.8 1.43 1.62 1.62 0 0 1 -1.43 1.8h-.19a1.61 1.61 0 0 1 -1.63-1.39zm8.34-.94a1.63 1.63 0 0 1 1.44-1.8 1.63 1.63 0 0 1 1.8 1.43 1.62 1.62 0 0 1 -1.44 1.8h-.18a1.63 1.63 0 0 1 -1.64-1.39zm8.35-.94a1.62 1.62 0 0 1 1.44-1.8 1.62 1.62 0 0 1 1.79 1.43 1.62 1.62 0 0 1 -1.43 1.8h-.18a1.63 1.63 0 0 1 -1.64-1.39zm8.35-.94a1.62 1.62 0 0 1 1.43-1.8 1.62 1.62 0 0 1 1.8 1.43 1.63 1.63 0 0 1 -1.43 1.8h-.19a1.62 1.62 0 0 1 -1.63-1.39zm8.35-.94a1.62 1.62 0 0 1 1.43-1.8 1.63 1.63 0 0 1 1.8 1.43 1.63 1.63 0 0 1 -1.43 1.8h-.19a1.62 1.62 0 0 1 -1.63-1.39zm17.63 1.21a1.62 1.62 0 0 1 -.92-2.1 1.62 1.62 0 0 1 2.11-.92 1.64 1.64 0 0 1 .92 2.11 1.64 1.64 0 0 1 -1.52 1 1.52 1.52 0 0 1 -.61-.05zm-9.29-2.16a1.63 1.63 0 0 1 1.44-1.79 1.63 1.63 0 0 1 1.8 1.43 1.63 1.63 0 0 1 -1.44 1.8h-.18a1.64 1.64 0 0 1 -1.64-1.4z" fill="#ffcc49"/><path d="m339.19 225.47-65.82-38 8.17 28.39-4.83-.84-9.92-1.72-2.48-.43-.62-.11h-.15-.13l-.23-.06-.94-.24c-.63-.14-1.24-.35-1.85-.53s-1.2-.41-1.79-.62a36.47 36.47 0 0 1 -12.22-7.48 33.42 33.42 0 0 1 -7.66-10.67 29.14 29.14 0 0 1 -2.6-11.56 26.94 26.94 0 0 1 .48-5.5l.05-.33v-.63l.06-1.26.12-2.51.23-5 7.61-160.91-109.42 13.75 47.13 154 1.48 4.81.73 2.4.37 1.21.18.6.24.89a78.54 78.54 0 0 0 5 13.78 75.81 75.81 0 0 0 7.35 12.35 73.74 73.74 0 0 0 9.27 10.46 71.68 71.68 0 0 0 22.83 14.34 68 68 0 0 0 25.32 4.59c1.05 0 2.09 0 3.14-.11s2.07-.13 3.1-.27l1.54-.18h.38.19.16l.62-.11 2.48-.43 9.91-1.73 4.9-.85-8.22 28.61z" fill="#e29c00"/><path d="m255.73 232.27c.74 0 1.45 0 2.07-.08h.07l.68-.05c.74 0 1.44-.09 2.05-.17h.09l1.89-.22.63-.11 27.31-4.75-6.67 23.22 42.6-24.61-42.62-24.59 6.63 23-28.09-4.91a4.88 4.88 0 0 1 -.53-.12l-1.09-.27c-.65-.16-1.24-.34-1.71-.48l-.4-.13c-.66-.18-1.23-.39-1.7-.56l-.44-.16h-.11a42.63 42.63 0 0 1 -14.35-8.8 39.92 39.92 0 0 1 -9.13-12.73 35.9 35.9 0 0 1 -3.15-14.07 33.9 33.9 0 0 1 .55-6.59l.43-9.05 7.26-153.33-94.46 11.87 47.46 155.16.25.84.25.93a70.93 70.93 0 0 0 4.58 12.65 69.1 69.1 0 0 0 6.72 11.31 68.23 68.23 0 0 0 8.53 9.58 65.53 65.53 0 0 0 20.8 13.06 61.83 61.83 0 0 0 22.9 4.17z" fill="#ffb500"/><g fill="#fff"><path d="m290.53 229h-.21-.21l-.2-.05-.19-.07-.19-.09-.18-.11-.17-.12-.15-.14a1.07 1.07 0 0 1 -.14-.16l-.13-.17-.1-.17-.09-.19a2.28 2.28 0 0 1 -.12-.4 1.2 1.2 0 0 1 0-.2 2.21 2.21 0 0 1 0-.42 1.52 1.52 0 0 1 0-.21 1.94 1.94 0 0 1 .05-.2 1.46 1.46 0 0 1 .07-.19l.09-.19.1-.18.13-.17.14-.15.15-.14.17-.13.18-.1.19-.09.19-.07.2-.05a.76.76 0 0 1 .21 0 1.48 1.48 0 0 1 .42 0 .69.69 0 0 1 .2 0l.2.05.2.07.19.09.18.1.16.13a1.07 1.07 0 0 1 .16.14l.14.15.12.17a1.74 1.74 0 0 1 .11.18l.09.19.07.19c0 .07 0 .14.05.2v.21a2.21 2.21 0 0 1 0 .42v.2c0 .07 0 .14-.05.2s-.05.14-.07.2l-.09.19a1 1 0 0 1 -.11.17l-.12.17-.14.16-.16.14-.16.12-.18.11-.19.09-.2.07-.2.05h-.2z"/><path d="m285.49 244.38a2.12 2.12 0 0 1 -1.45-2.62 2.13 2.13 0 0 1 2.63-1.46 2.13 2.13 0 0 1 1.45 2.63 2.12 2.12 0 0 1 -2 1.53 2 2 0 0 1 -.63-.08zm2.23-7.74a2.12 2.12 0 0 1 -1.45-2.63 2.12 2.12 0 0 1 2.62-1.45 2.11 2.11 0 0 1 1.45 2.63 2.1 2.1 0 0 1 -2 1.53 2.33 2.33 0 0 1 -.62-.08z"/><path d="m283.86 252.2h-.21a.76.76 0 0 1 -.21 0h-.2l-.19-.07-.19-.09-.18-.1-.17-.13-.15-.14-.14-.15-.13-.17a1.62 1.62 0 0 1 -.1-.18.66.66 0 0 1 -.09-.19 1.46 1.46 0 0 1 -.07-.19 1.94 1.94 0 0 1 -.05-.2.76.76 0 0 1 0-.21 2.21 2.21 0 0 1 0-.42.75.75 0 0 1 0-.2 1.17 1.17 0 0 1 .05-.2 1.59 1.59 0 0 1 .07-.2.82.82 0 0 1 .09-.19 1 1 0 0 1 .1-.17 1.09 1.09 0 0 1 .13-.17 1.07 1.07 0 0 1 .14-.16l.15-.14.17-.12.18-.11.19-.09.19-.07.2-.05h.21.42.2l.2.05.2.07.19.09.17.11.17.12.16.14.14.16.12.17c0 .05.07.11.11.17a1.54 1.54 0 0 1 .08.19 1.59 1.59 0 0 1 .07.2l.06.2v.2.21s0 .14 0 .21v.21l-.06.2a1.46 1.46 0 0 1 -.07.19 1.08 1.08 0 0 1 -.08.19l-.11.18-.12.17-.14.15-.16.14a1.09 1.09 0 0 1 -.17.13l-.17.1-.19.09-.2.07h-.2-.2z"/><path d="m289.12 247a2.12 2.12 0 0 1 .78-2.9 2.12 2.12 0 0 1 2.89.78 2.12 2.12 0 0 1 -.77 2.9 2.16 2.16 0 0 1 -1.06.28 2.12 2.12 0 0 1 -1.84-1.06zm7.1-4.1a2.12 2.12 0 0 1 .78-2.9 2.11 2.11 0 0 1 2.89.78 2.11 2.11 0 0 1 -.77 2.89 2 2 0 0 1 -1.06.29 2.12 2.12 0 0 1 -1.84-1.02zm7.1-4.1a2.13 2.13 0 0 1 .78-2.9 2.12 2.12 0 0 1 2.9.78 2.12 2.12 0 0 1 -.78 2.89 2 2 0 0 1 -1.06.29 2.13 2.13 0 0 1 -1.84-1.02zm7.1-4.1a2.13 2.13 0 0 1 .78-2.9 2.12 2.12 0 0 1 2.9.77 2.13 2.13 0 0 1 -.78 2.9 2.14 2.14 0 0 1 -1.06.29 2.13 2.13 0 0 1 -1.84-1.02zm7.1-4.11a2.12 2.12 0 0 1 .78-2.89 2.12 2.12 0 0 1 2.9.77 2.13 2.13 0 0 1 -.78 2.9 2.13 2.13 0 0 1 -1.06.28 2.13 2.13 0 0 1 -1.84-1.02z"/><path d="m326.46 227.59h-.21-.2l-.2-.05-.2-.07-.19-.09-.18-.11-.16-.12a1.07 1.07 0 0 1 -.12-.15 2.14 2.14 0 0 1 -.62-1.5 1.48 1.48 0 0 1 0-.21v-.2a1.17 1.17 0 0 1 .05-.2c0-.07.05-.14.07-.2l.09-.19a1.74 1.74 0 0 1 .11-.18l.12-.16.18-.16.16-.14.16-.12.18-.11.19-.09.2-.07.2-.05h.2a2.94 2.94 0 0 1 .42 0h.2l.21.05.19.07.19.09.18.11.16.12.16.14a1.07 1.07 0 0 1 .14.16l.12.16a1.74 1.74 0 0 1 .11.18l.09.19a2.28 2.28 0 0 1 .12.4v.2a1.48 1.48 0 0 1 0 .21 2.14 2.14 0 0 1 -.58 1.5 1.07 1.07 0 0 1 -.16.14 1 1 0 0 1 -.16.12l-.18.11-.19.09-.19.07-.21.05h-.2z"/><path d="m318.3 223.21a2.13 2.13 0 0 1 -.78-2.9 2.13 2.13 0 0 1 2.9-.78 2.14 2.14 0 0 1 .78 2.9 2.13 2.13 0 0 1 -1.84 1.06 2.13 2.13 0 0 1 -1.06-.28zm-7.1-4.1a2.11 2.11 0 0 1 -.78-2.9 2.12 2.12 0 0 1 2.9-.77 2.11 2.11 0 0 1 .77 2.89 2.11 2.11 0 0 1 -1.84 1.06 2.09 2.09 0 0 1 -1.05-.28zm-7.11-4.1a2.12 2.12 0 0 1 -.77-2.9 2.11 2.11 0 0 1 2.89-.77 2.11 2.11 0 0 1 .78 2.9 2.12 2.12 0 0 1 -1.84 1.06 2.07 2.07 0 0 1 -1.06-.3zm-7.1-4.1a2.12 2.12 0 0 1 -.78-2.89 2.12 2.12 0 0 1 2.9-.78 2.13 2.13 0 0 1 .78 2.9 2.13 2.13 0 0 1 -1.84 1.06 2 2 0 0 1 -1.05-.29zm-7.1-4.09a2.12 2.12 0 0 1 -.78-2.9 2.13 2.13 0 0 1 2.9-.78 2.12 2.12 0 0 1 .77 2.9 2.11 2.11 0 0 1 -1.78 1.06 2.1 2.1 0 0 1 -1.11-.28z"/><path d="m283.84 203h-.2-.21l-.2-.05-.2-.07-.18-.09a.78.78 0 0 1 -.18-.11l-.17-.12-.16-.14-.14-.16-.12-.16-.11-.18a1.08 1.08 0 0 1 -.08-.19 1.46 1.46 0 0 1 -.07-.19l-.06-.21v-.2c0-.07 0-.14 0-.21s0-.14 0-.21v-.2l.06-.21a1.46 1.46 0 0 1 .07-.19 1.08 1.08 0 0 1 .08-.19l.11-.18.12-.16.14-.16.16-.14.17-.12a.78.78 0 0 1 .18-.11l.18-.09.2-.07h.2.21a2.8 2.8 0 0 1 .41 0h.21.2l.2.07.18.09.18.11.17.12a1 1 0 0 1 .15.14 1.07 1.07 0 0 1 .14.16 1.83 1.83 0 0 1 .13.16 1.62 1.62 0 0 1 .1.18.66.66 0 0 1 .09.19 1.46 1.46 0 0 1 .07.19 1.6 1.6 0 0 1 .05.21.64.64 0 0 1 0 .2 1.11 1.11 0 0 1 0 .42.64.64 0 0 1 0 .2 1.6 1.6 0 0 1 -.05.21 1.46 1.46 0 0 1 -.07.19.66.66 0 0 1 -.09.19 1.62 1.62 0 0 1 -.1.18 1 1 0 0 1 -.13.16 1.07 1.07 0 0 1 -.14.16 1 1 0 0 1 -.15.14l-.17.12-.18.11-.18.09-.2.07-.2.05h-.21z"/><path d="m286.22 216.81a2.13 2.13 0 0 1 1.45-2.63 2.13 2.13 0 0 1 2.63 1.45 2.13 2.13 0 0 1 -1.45 2.63 2.46 2.46 0 0 1 -.59.08 2.14 2.14 0 0 1 -2.04-1.53zm-2.22-7.67a2.13 2.13 0 0 1 1.45-2.63 2.13 2.13 0 0 1 2.63 1.45 2.13 2.13 0 0 1 -1.45 2.63 2.39 2.39 0 0 1 -.59.08 2.12 2.12 0 0 1 -2.04-1.53z"/><path d="m290.47 226h-.21-.21l-.2-.05-.2-.07-.18-.09-.18-.11-.17-.12-.15-.14a1.07 1.07 0 0 1 -.14-.16 1.83 1.83 0 0 1 -.13-.16 1.62 1.62 0 0 1 -.1-.18.82.82 0 0 1 -.09-.19 2.28 2.28 0 0 1 -.12-.4.69.69 0 0 1 0-.2 1.11 1.11 0 0 1 0-.42.76.76 0 0 1 0-.21 1.94 1.94 0 0 1 .05-.2 1.46 1.46 0 0 1 .07-.19.66.66 0 0 1 .09-.19 1.62 1.62 0 0 1 .1-.18l.13-.17.14-.15.15-.14a1.09 1.09 0 0 1 .17-.13l.18-.1.18-.09.2-.07.2-.05h.21a1.48 1.48 0 0 1 .42 0h.2l.2.05.2.07.19.09.17.1a1.09 1.09 0 0 1 .17.13l.16.14.14.15.12.17.11.18a1.08 1.08 0 0 1 .08.19 1.46 1.46 0 0 1 .07.19l.06.2v.21.21s0 .14 0 .21v.2l-.06.2a1.18 1.18 0 0 1 -.07.2 1.54 1.54 0 0 1 -.08.19l-.11.18-.12.16-.14.16-.16.14-.17.12-.17.11-.19.09-.2.07-.2.05h-.2z"/><path d="m281.86 224.55a2.12 2.12 0 0 1 -1.73-2.46 2.12 2.12 0 0 1 2.45-1.72 2.12 2.12 0 0 1 1.73 2.45 2.13 2.13 0 0 1 -2.09 1.76zm-8.25-1.44a2.11 2.11 0 0 1 -1.73-2.45 2.12 2.12 0 0 1 2.45-1.72 2.11 2.11 0 0 1 1.73 2.45 2.12 2.12 0 0 1 -2.09 1.76 1.47 1.47 0 0 1 -.36-.04zm-8.25-1.43a2.13 2.13 0 0 1 -1.73-2.45 2.13 2.13 0 0 1 2.45-1.73 2.12 2.12 0 0 1 1.73 2.46 2.11 2.11 0 0 1 -2.08 1.75 1.54 1.54 0 0 1 -.37-.03zm-8.47-2a2.12 2.12 0 0 1 -1.31-2.7 2.12 2.12 0 0 1 2.7-1.3 2.12 2.12 0 0 1 1.31 2.7 2.13 2.13 0 0 1 -2 1.42 2.15 2.15 0 0 1 -.7-.12zm-8-3.57a2.13 2.13 0 0 1 -.8-2.9 2.13 2.13 0 0 1 2.9-.79 2.12 2.12 0 0 1 .79 2.89 2.11 2.11 0 0 1 -1.84 1.07 2.19 2.19 0 0 1 -1.03-.27zm-7.14-5.11a2.11 2.11 0 0 1 -.21-3 2.12 2.12 0 0 1 3-.21 2.12 2.12 0 0 1 .21 3 2.09 2.09 0 0 1 -1.6.73 2.09 2.09 0 0 1 -1.4-.52zm-6-6.42a2.12 2.12 0 0 1 .41-3 2.12 2.12 0 0 1 3 .41 2.12 2.12 0 0 1 -.41 3 2.1 2.1 0 0 1 -1.28.43 2.12 2.12 0 0 1 -1.73-.81zm-4.55-7.54a2.12 2.12 0 0 1 1-2.82 2.12 2.12 0 0 1 2.81 1 2.13 2.13 0 0 1 -1 2.82 2.17 2.17 0 0 1 -.89.2 2.14 2.14 0 0 1 -1.93-1.17zm-2.78-8.39a2.12 2.12 0 0 1 1.64-2.51 2.11 2.11 0 0 1 2.51 1.64 2.12 2.12 0 0 1 -1.64 2.51 2.18 2.18 0 0 1 -.43.05 2.13 2.13 0 0 1 -2.09-1.66zm1.28-6.65a2.12 2.12 0 0 1 -2-2.2 2.1 2.1 0 0 1 2.2-2 2.11 2.11 0 0 1 2 2.19 2.13 2.13 0 0 1 -2.12 2.05h-.08zm.68-8.33a2.12 2.12 0 0 1 -2-2.22 2.12 2.12 0 0 1 2.22-2 2.12 2.12 0 0 1 2 2.22 2.11 2.11 0 0 1 -2.11 2h-.1zm.39-8.36a2.12 2.12 0 0 1 -2-2.22 2.12 2.12 0 0 1 2.22-2 2.13 2.13 0 0 1 2 2.22 2.12 2.12 0 0 1 -2.12 2zm.39-8.36a2.13 2.13 0 0 1 -2-2.22 2.12 2.12 0 0 1 2.22-2 2.12 2.12 0 0 1 2 2.22 2.12 2.12 0 0 1 -2.11 2zm.4-8.37a2.11 2.11 0 0 1 -2-2.21 2.12 2.12 0 0 1 2.22-2 2.1 2.1 0 0 1 2 2.22 2.12 2.12 0 0 1 -2.11 2h-.1zm.39-8.36a2.12 2.12 0 0 1 -2-2.22 2.12 2.12 0 0 1 2.22-2 2.11 2.11 0 0 1 2 2.21 2.11 2.11 0 0 1 -2.12 2h-.05zm.39-8.36a2.11 2.11 0 0 1 -2-2.22 2.11 2.11 0 0 1 2.21-2 2.12 2.12 0 0 1 2 2.22 2.11 2.11 0 0 1 -2.11 2h-.11zm.4-8.36a2.12 2.12 0 0 1 -2-2.22 2.12 2.12 0 0 1 2.22-2 2.13 2.13 0 0 1 2 2.22 2.12 2.12 0 0 1 -2.12 2zm.39-8.36a2.13 2.13 0 0 1 -2-2.22 2.13 2.13 0 0 1 2.22-2 2.12 2.12 0 0 1 2 2.22 2.12 2.12 0 0 1 -2.12 2zm.4-8.37a2.11 2.11 0 0 1 -2-2.21 2.11 2.11 0 0 1 2.22-2 2.12 2.12 0 0 1 2 2.22 2.12 2.12 0 0 1 -2.11 2h-.1zm.39-8.36a2.11 2.11 0 0 1 -2-2.22 2.12 2.12 0 0 1 2.22-2 2.11 2.11 0 0 1 2 2.21 2.13 2.13 0 0 1 -2.12 2h-.1zm.39-8.36a2.12 2.12 0 0 1 -2-2.22 2.13 2.13 0 0 1 2.22-2 2.12 2.12 0 0 1 2 2.22 2.11 2.11 0 0 1 -2.11 2zm.4-8.36a2.12 2.12 0 0 1 -2-2.22 2.12 2.12 0 0 1 2.22-2 2.12 2.12 0 0 1 2 2.22 2.11 2.11 0 0 1 -2.11 2h-.1zm.39-8.36a2.13 2.13 0 0 1 -2-2.22 2.13 2.13 0 0 1 2.22-2 2.13 2.13 0 0 1 2 2.22 2.11 2.11 0 0 1 -2.12 2zm.39-8.36a2.12 2.12 0 0 1 -2-2.22 2.11 2.11 0 0 1 2.21-2 2.12 2.12 0 0 1 2 2.22 2.12 2.12 0 0 1 -2.11 2h-.11zm.4-8.37a2.11 2.11 0 0 1 -2-2.21 2.12 2.12 0 0 1 2.22-2 2.12 2.12 0 0 1 2 2.22 2.13 2.13 0 0 1 -2.12 2h-.1zm.39-8.36a2.12 2.12 0 0 1 -2-2.22 2.12 2.12 0 0 1 2.22-2 2.11 2.11 0 0 1 2 2.21 2.11 2.11 0 0 1 -2.12 2h-.1zm.4-8.36a2.12 2.12 0 0 1 -2-2.22 2.12 2.12 0 0 1 2.22-2 2.12 2.12 0 0 1 2 2.22 2.11 2.11 0 0 1 -2.11 2h-.1zm.39-8.36a2.12 2.12 0 0 1 -2-2.22 2.13 2.13 0 0 1 2.22-2 2.13 2.13 0 0 1 2 2.22 2.12 2.12 0 0 1 -2.12 2zm.39-8.36a2.13 2.13 0 0 1 -2-2.22 2.13 2.13 0 0 1 2.22-2 2.12 2.12 0 0 1 2 2.22 2.12 2.12 0 0 1 -2.12 2z"/><path d="m238 14.83h-.21-.21-.2l-.19-.07-.19-.09-.18-.1-.17-.13-.15-.14-.14-.15-.13-.17-.1-.18-.09-.19a1.46 1.46 0 0 1 -.07-.19 1.94 1.94 0 0 1 -.05-.2.76.76 0 0 1 0-.21 2.21 2.21 0 0 1 0-.42.64.64 0 0 1 0-.2 2.28 2.28 0 0 1 .12-.4l.09-.19.1-.18a1.83 1.83 0 0 1 .13-.16 1.07 1.07 0 0 1 .14-.16l.15-.14.17-.12.18-.11.19-.09.19-.07h.2.21a2.17 2.17 0 0 1 1.71.61l.14.16.12.16.11.18.09.19c0 .06 0 .13.07.2s0 .13 0 .2v.2.21s0 .14 0 .21v.21.2a1.46 1.46 0 0 0 -.07.19l-.09.19-.11.18-.12.17-.14.15a2.12 2.12 0 0 1 -1.5.45z"/><path d="m150 23.76a2.13 2.13 0 0 1 1.84-2.37 2.13 2.13 0 0 1 2.37 1.84 2.11 2.11 0 0 1 -1.84 2.37h-.27a2.13 2.13 0 0 1 -2.1-1.84zm8.59-1.08a2.12 2.12 0 0 1 1.84-2.37 2.12 2.12 0 0 1 2.36 1.84 2.11 2.11 0 0 1 -1.79 2.37h-.26a2.12 2.12 0 0 1 -2.13-1.84zm8.58-1.08a2.11 2.11 0 0 1 1.83-2.36 2.12 2.12 0 0 1 2.37 1.84 2.12 2.12 0 0 1 -1.84 2.36h-.27a2.12 2.12 0 0 1 -2.07-1.84zm8.58-1.07a2.11 2.11 0 0 1 1.84-2.37 2.12 2.12 0 0 1 2.41 1.84 2.11 2.11 0 0 1 -1.84 2.36 1.23 1.23 0 0 1 -.27 0 2.12 2.12 0 0 1 -2.12-1.83zm8.58-1.08a2.12 2.12 0 0 1 1.84-2.37 2.11 2.11 0 0 1 2.37 1.84 2.12 2.12 0 0 1 -1.84 2.37h-.26a2.12 2.12 0 0 1 -2.09-1.84zm8.59-1.08a2.12 2.12 0 0 1 1.86-2.37 2.12 2.12 0 0 1 2.37 1.84 2.13 2.13 0 0 1 -1.84 2.37h-.27a2.12 2.12 0 0 1 -2.1-1.84zm8.58-1.08a2.12 2.12 0 0 1 1.84-2.37 2.13 2.13 0 0 1 2.37 1.84 2.13 2.13 0 0 1 -1.84 2.37h-.27a2.13 2.13 0 0 1 -2.08-1.84zm8.58-1.08a2.13 2.13 0 0 1 1.84-2.37 2.12 2.12 0 0 1 2.37 1.84 2.11 2.11 0 0 1 -1.84 2.37h-.27a2.13 2.13 0 0 1 -2.08-1.84zm8.59-1.08a2.12 2.12 0 0 1 1.84-2.37 2.12 2.12 0 0 1 2.36 1.84 2.11 2.11 0 0 1 -1.81 2.4h-.27a2.12 2.12 0 0 1 -2.1-1.87zm8.58-1.08a2.11 2.11 0 0 1 1.84-2.36 2.12 2.12 0 0 1 2.37 1.84 2.12 2.12 0 0 1 -1.84 2.36h-.27a2.12 2.12 0 0 1 -2.08-1.84z"/><path d="m143.54 26.7h-.21-.2-.2l-.2-.07-.18-.08-.18-.11a1.09 1.09 0 0 1 -.17-.13l-.16-.14-.14-.15-.12-.17-.11-.18a1.42 1.42 0 0 1 -.08-.18l-.08-.2a1.46 1.46 0 0 0 0-.2v-.21c0-.07 0-.14 0-.21s0-.13 0-.2v-.21a1.46 1.46 0 0 0 0-.2l.08-.2a1.42 1.42 0 0 1 .08-.18c0-.06.07-.13.11-.18l.12-.17.14-.15.16-.14a1.09 1.09 0 0 1 .17-.13.77.77 0 0 1 .18-.1.61.61 0 0 1 .18-.09l.2-.07.2-.05h.2a1.48 1.48 0 0 1 .42 0h.21l.2.05.2.07.18.09.18.1.17.13.15.14a1 1 0 0 1 .14.15 1.09 1.09 0 0 1 .13.17 1 1 0 0 1 .1.18.76.76 0 0 1 .09.18 1.59 1.59 0 0 1 .07.2 1.46 1.46 0 0 1 .05.2.76.76 0 0 1 0 .21 1.41 1.41 0 0 1 0 .2 1.48 1.48 0 0 1 0 .21.76.76 0 0 1 0 .21 1.46 1.46 0 0 1 -.05.2 1.59 1.59 0 0 1 -.07.2.76.76 0 0 1 -.09.18 1 1 0 0 1 -.1.18 1.09 1.09 0 0 1 -.13.17 1 1 0 0 1 -.14.15l-.15.14-.17.13-.18.11-.18.08-.2.07h-.2-.21z"/><path d="m255 232.32a2.11 2.11 0 0 1 2-2.21 2.13 2.13 0 0 1 2.22 2 2.14 2.14 0 0 1 -2 2.22h-.09a2.12 2.12 0 0 1 -2.13-2.01zm-6.53 1.81a2.13 2.13 0 0 1 -1.91-2.32 2.12 2.12 0 0 1 2.31-1.91 2.12 2.12 0 0 1 1.91 2.32 2.12 2.12 0 0 1 -2.11 1.91zm15-2.56a2.12 2.12 0 0 1 1.73-2.45 2.12 2.12 0 0 1 2.45 1.73 2.12 2.12 0 0 1 -1.73 2.45h-.36a2.12 2.12 0 0 1 -2.13-1.73zm-23.58 1.13a2.13 2.13 0 0 1 -1.58-2.55 2.13 2.13 0 0 1 2.55-1.58 2.12 2.12 0 0 1 1.58 2.55 2.12 2.12 0 0 1 -2.06 1.64 2.05 2.05 0 0 1 -.53-.06zm31.91-2.58a2.13 2.13 0 0 1 1.73-2.45 2.12 2.12 0 0 1 2.45 1.73 2.12 2.12 0 0 1 -1.72 2.45h-.37a2.13 2.13 0 0 1 -2.13-1.73zm8.34-1.45a2.12 2.12 0 0 1 1.72-2.45 2.12 2.12 0 0 1 2.46 1.73 2.13 2.13 0 0 1 -1.73 2.45 2.22 2.22 0 0 1 -.37 0 2.12 2.12 0 0 1 -2.12-1.73zm-48.6 1.46a2.12 2.12 0 0 1 -1.22-2.75 2.12 2.12 0 0 1 2.74-1.21 2.12 2.12 0 0 1 1.22 2.74 2.13 2.13 0 0 1 -2 1.36 2.27 2.27 0 0 1 -.78-.14zm-7.92-3.69a2.11 2.11 0 0 1 -.85-2.87 2.13 2.13 0 0 1 2.88-.85 2.12 2.12 0 0 1 .84 2.88 2.11 2.11 0 0 1 -1.86 1.11 2.07 2.07 0 0 1 -1.05-.27zm-7.37-4.67a2.11 2.11 0 0 1 -.47-3 2.12 2.12 0 0 1 3-.47 2.12 2.12 0 0 1 .47 3 2.13 2.13 0 0 1 -1.72.88 2.12 2.12 0 0 1 -1.32-.41zm-6.72-5.57a2.12 2.12 0 0 1 -.08-3 2.13 2.13 0 0 1 3-.09 2.13 2.13 0 0 1 .08 3 2.13 2.13 0 0 1 -1.54.67 2.12 2.12 0 0 1 -1.5-.58zm-6-6.38a2.12 2.12 0 0 1 .29-3 2.12 2.12 0 0 1 3 .29 2.12 2.12 0 0 1 -.29 3 2.1 2.1 0 0 1 -1.35.49 2.13 2.13 0 0 1 -1.64-.78zm-5.11-7.06a2.12 2.12 0 0 1 .66-2.92 2.12 2.12 0 0 1 2.93.65 2.13 2.13 0 0 1 -.66 2.93 2.14 2.14 0 0 1 -1.13.33 2.13 2.13 0 0 1 -1.79-.99zm-4.2-7.63a2.12 2.12 0 0 1 1-2.82 2.11 2.11 0 0 1 2.82 1 2.13 2.13 0 0 1 -1 2.83 2.07 2.07 0 0 1 -.9.2 2.1 2.1 0 0 1 -1.91-1.21zm-3.22-8.08a2.11 2.11 0 0 1 1.33-2.68 2.13 2.13 0 0 1 2.69 1.34 2.12 2.12 0 0 1 -1.34 2.68 2 2 0 0 1 -.67.11 2.11 2.11 0 0 1 -2.01-1.45zm-2.42-8.16a2.12 2.12 0 0 1 1.41-2.65 2.12 2.12 0 0 1 2.65 1.41 2.13 2.13 0 0 1 -1.41 2.65 2.16 2.16 0 0 1 -.62.09 2.13 2.13 0 0 1 -2.05-1.5zm-2.47-8.09a2.12 2.12 0 0 1 1.41-2.65 2.11 2.11 0 0 1 2.64 1.41 2.12 2.12 0 0 1 -1.4 2.65 2.27 2.27 0 0 1 -.62.09 2.13 2.13 0 0 1 -2.05-1.5zm-2.48-8.09a2.12 2.12 0 0 1 1.41-2.65 2.13 2.13 0 0 1 2.65 1.41 2.13 2.13 0 0 1 -1.41 2.65 2.27 2.27 0 0 1 -.62.09 2.13 2.13 0 0 1 -2.05-1.5zm-2.47-8.09a2.11 2.11 0 0 1 1.4-2.65 2.12 2.12 0 0 1 2.65 1.41 2.12 2.12 0 0 1 -1.41 2.65 2.16 2.16 0 0 1 -.62.09 2.11 2.11 0 0 1 -2.04-1.5zm-2.48-8.09a2.13 2.13 0 0 1 1.41-2.65 2.13 2.13 0 0 1 2.65 1.41 2.12 2.12 0 0 1 -1.41 2.65 2.27 2.27 0 0 1 -.62.09 2.11 2.11 0 0 1 -2.05-1.5zm-2.48-8.09a2.13 2.13 0 0 1 1.41-2.65 2.12 2.12 0 0 1 2.65 1.41 2.12 2.12 0 0 1 -1.41 2.65 2.16 2.16 0 0 1 -.62.09 2.11 2.11 0 0 1 -2.05-1.5zm-2.47-8.09a2.12 2.12 0 0 1 1.4-2.65 2.12 2.12 0 0 1 2.65 1.41 2.11 2.11 0 0 1 -1.4 2.65 2.28 2.28 0 0 1 -.63.09 2.11 2.11 0 0 1 -2.04-1.5zm-2.48-8.08a2.12 2.12 0 0 1 1.41-2.65 2.12 2.12 0 0 1 2.65 1.4 2.12 2.12 0 0 1 -1.41 2.65 2 2 0 0 1 -.62.1 2.13 2.13 0 0 1 -2.05-1.5zm-2.48-8.09a2.12 2.12 0 0 1 1.41-2.65 2.11 2.11 0 0 1 2.65 1.4 2.12 2.12 0 0 1 -1.41 2.65 1.87 1.87 0 0 1 -.62.1 2.13 2.13 0 0 1 -2.05-1.5zm-2.47-8.09a2.12 2.12 0 0 1 1.4-2.65 2.11 2.11 0 0 1 2.65 1.4 2.11 2.11 0 0 1 -1.4 2.65 2 2 0 0 1 -.62.1 2.13 2.13 0 0 1 -2.05-1.5zm-2.5-8.09a2.12 2.12 0 0 1 1.41-2.65 2.13 2.13 0 0 1 2.65 1.41 2.11 2.11 0 0 1 -1.41 2.64 2 2 0 0 1 -.62.1 2.13 2.13 0 0 1 -2.03-1.5zm-2.47-8.09a2.11 2.11 0 0 1 1.4-2.65 2.12 2.12 0 0 1 2.65 1.41 2.13 2.13 0 0 1 -1.38 2.65 2.16 2.16 0 0 1 -.62.09 2.11 2.11 0 0 1 -2.05-1.5zm-2.48-8.09a2.12 2.12 0 0 1 1.41-2.65 2.13 2.13 0 0 1 2.65 1.41 2.13 2.13 0 0 1 -1.41 2.65 2.27 2.27 0 0 1 -.62.09 2.13 2.13 0 0 1 -2.03-1.5zm-2.48-8.09a2.13 2.13 0 0 1 1.41-2.65 2.12 2.12 0 0 1 2.65 1.41 2.13 2.13 0 0 1 -1.43 2.65 2.16 2.16 0 0 1 -.62.09 2.13 2.13 0 0 1 -2.01-1.5zm-2.47-8.09a2.12 2.12 0 0 1 1.4-2.64 2.12 2.12 0 0 1 2.7 1.4 2.11 2.11 0 0 1 -1.4 2.65 2.28 2.28 0 0 1 -.63.09 2.12 2.12 0 0 1 -2.07-1.5zm-2.48-8.09a2.13 2.13 0 0 1 1.41-2.65 2.13 2.13 0 0 1 2.65 1.41 2.12 2.12 0 0 1 -1.41 2.69 2.27 2.27 0 0 1 -.62.09 2.11 2.11 0 0 1 -2.03-1.54zm-2.48-8.09a2.11 2.11 0 0 1 1.41-2.64 2.11 2.11 0 0 1 2.65 1.4 2.12 2.12 0 0 1 -1.41 2.65 2.16 2.16 0 0 1 -.59.13 2.11 2.11 0 0 1 -2.06-1.54zm-2.47-8.09a2.11 2.11 0 0 1 1.41-2.64 2.1 2.1 0 0 1 2.64 1.4 2.11 2.11 0 0 1 -1.4 2.65 2.27 2.27 0 0 1 -.62.09 2.11 2.11 0 0 1 -2.03-1.5zm-2.47-8.08a2.12 2.12 0 0 1 1.41-2.65 2.12 2.12 0 0 1 2.65 1.4 2.12 2.12 0 0 1 -1.41 2.65 2 2 0 0 1 -.62.1 2.13 2.13 0 0 1 -2.03-1.5z"/></g><path d="m21.2 121.11h376.95v8.72h-376.95z" fill="#a22"/><ellipse cx="28.36" cy="125.33" fill="#3a74e8" rx="21.36" ry="21.86"/><path d="m28.36 144.37a19 19 0 0 1 0-38.07 19 19 0 0 1 0 38.07zm0-36.58a17.55 17.55 0 0 0 0 35.09 17.55 17.55 0 0 0 0-35.09z" fill="#fff"/><ellipse cx="79.83" cy="125.33" fill="#3a74e8" rx="21.36" ry="21.86"/><path d="m79.83 144.37a19 19 0 1 1 18.6-19 18.84 18.84 0 0 1 -18.6 19zm0-36.58a17.55 17.55 0 1 0 17.17 17.54 17.37 17.37 0 0 0 -17.17-17.54z" fill="#fff"/><ellipse cx="129.81" cy="124.32" fill="#3a74e8" rx="21.36" ry="21.86"/><path d="m129.81 143.36a19 19 0 1 1 18.61-19 18.85 18.85 0 0 1 -18.61 19zm0-36.59a17.55 17.55 0 1 0 17.19 17.55 17.37 17.37 0 0 0 -17.19-17.55z" fill="#fff"/><ellipse cx="180.29" cy="125.84" fill="#3a74e8" rx="21.36" ry="21.86"/><path d="m180.29 144.88a19 19 0 1 1 18.6-19 18.84 18.84 0 0 1 -18.6 19zm0-36.59a17.55 17.55 0 1 0 17.15 17.55 17.38 17.38 0 0 0 -17.15-17.55z" fill="#fff"/><ellipse cx="231.26" cy="125.84" fill="#3a74e8" rx="21.36" ry="21.86"/><path d="m231.26 144.88a19 19 0 1 1 18.61-19 18.85 18.85 0 0 1 -18.61 19zm0-36.59a17.55 17.55 0 1 0 17.15 17.55 17.37 17.37 0 0 0 -17.15-17.55z" fill="#fff"/><ellipse cx="283.72" cy="125.84" fill="#3a74e8" rx="21.36" ry="21.86"/><path d="m283.72 144.88a19 19 0 1 1 18.6-19 18.85 18.85 0 0 1 -18.6 19zm0-36.59a17.55 17.55 0 1 0 17.15 17.55 17.38 17.38 0 0 0 -17.15-17.55z" fill="#fff"/><ellipse cx="336.67" cy="125.33" fill="#3a74e8" rx="21.36" ry="21.86"/><path d="m336.67 144.37a19 19 0 1 1 18.61-19 18.85 18.85 0 0 1 -18.61 19zm0-36.58a17.55 17.55 0 1 0 17.15 17.54 17.36 17.36 0 0 0 -17.15-17.54z" fill="#fff"/><ellipse cx="388.64" cy="125.33" fill="#3a74e8" rx="21.36" ry="21.86"/><g fill="#fff"><path d="m388.64 144.37a19 19 0 1 1 18.6-19 18.84 18.84 0 0 1 -18.6 19zm0-36.58a17.55 17.55 0 1 0 17.15 17.54 17.37 17.37 0 0 0 -17.15-17.54z"/><path d="m25.5 120.1a2.38 2.38 0 0 1 2.4-1.91 2.48 2.48 0 0 1 2.45 2l1.39 4.07 1.64-4.3a2.61 2.61 0 0 1 2.42-1.75 2.46 2.46 0 0 1 2.47 2.51 3.16 3.16 0 0 1 -.29 1.19l-3.55 9.88a2.44 2.44 0 0 1 -4.78 0l-1.66-5-1.64 5a2.44 2.44 0 0 1 -2.36 2 2.38 2.38 0 0 1 -2.33-1.79l-3.82-10.22a3.69 3.69 0 0 1 -.29-1.18 2.45 2.45 0 0 1 2.45-2.41 2.72 2.72 0 0 1 2.54 2l1.59 3.88z"/><path d="m79.86 117.09a8 8 0 1 1 -7.86 7.91 8 8 0 0 1 7.86-7.91zm0 11.07a3 3 0 0 0 3-3 2.95 2.95 0 1 0 -5.89 0 3 3 0 0 0 2.91 3z"/><path d="m135 127.93a3.24 3.24 0 0 1 .47 1.63 2.44 2.44 0 0 1 -2.47 2.49 2.28 2.28 0 0 1 -2-1.18l-2-3.47v2.1a2.45 2.45 0 0 1 -2.42 2.55 2.5 2.5 0 0 1 -1.93-.92 3.35 3.35 0 0 1 -.65-2.13v-9.45a2.69 2.69 0 0 1 .81-2.25 2.86 2.86 0 0 1 2.25-.66h2.06a8.58 8.58 0 0 1 2.41.23 5.55 5.55 0 0 1 2.33 9.19zm-6.09-5h.54c.74 0 1.12-.26 1.12-.81s-.4-.85-1.14-.82a3.81 3.81 0 0 1 -.52 0z"/><path d="m182.41 118.51a2.41 2.41 0 0 1 2-1.17 2.56 2.56 0 0 1 2.5 2.53 2.49 2.49 0 0 1 -.38 1.33l-2.48 3.8 3 4a2.15 2.15 0 0 1 .48 1.38 2.56 2.56 0 0 1 -2.47 2.58 2.23 2.23 0 0 1 -1.73-.76l-3.71-4.8v2.6c0 1.77-1 2.92-2.47 2.92s-2.51-1.13-2.51-2.9v-9.83a2.52 2.52 0 0 1 2.47-2.83 2.46 2.46 0 0 1 1.86.85 2.66 2.66 0 0 1 .65 2v2.46z"/><path d="m232 123.64c1.14 0 1.91.59 1.91 1.51a1.66 1.66 0 0 1 -1.87 1.61h-2.58a1.84 1.84 0 0 1 -1.66-.57 1.41 1.41 0 0 1 -.41-1 1.37 1.37 0 0 1 .5-1.08 2 2 0 0 1 1.57-.46z"/><path d="m286.65 128.9a2.75 2.75 0 0 1 2.06.57 2.39 2.39 0 0 1 .81 1.8 2.45 2.45 0 0 1 -.81 1.83 2.65 2.65 0 0 1 -2 .53h-3.84a4.79 4.79 0 0 1 -1.89-.2 2.34 2.34 0 0 1 -1.41-1.84 5.94 5.94 0 0 1 -.09-1.52v-8.32a4.05 4.05 0 0 1 .22-1.93 2.3 2.3 0 0 1 1.19-1.26 4.3 4.3 0 0 1 2.14-.25h3a6.46 6.46 0 0 1 1.89.11 2.25 2.25 0 0 1 1.7 2.21 2.45 2.45 0 0 1 -.8 1.86 2.61 2.61 0 0 1 -1.89.55h-2.47v1.06h1.95a1.8 1.8 0 0 1 2 1.81 1.9 1.9 0 0 1 -.65 1.45 2.15 2.15 0 0 1 -1.53.39h-1.77v1.15z"/><path d="m331.6 122.9a3.8 3.8 0 0 1 -1-2.18 2.5 2.5 0 0 1 4.61-1.38l1.59 2.16 1.5-1.93c.77-1 1.35-1.38 2.18-1.38a2.55 2.55 0 0 1 2.52 2.51 3.5 3.5 0 0 1 -.79 1.93l-2.29 3.1 2.81 3.84a2.82 2.82 0 0 1 .54 1.67 2.43 2.43 0 0 1 -4.45 1.43l-2-2.71-2 2.68a2.36 2.36 0 0 1 -2 1.11 2.52 2.52 0 0 1 -2.47-2.51 2.85 2.85 0 0 1 .58-1.72l2.81-3.79z"/><path d="m389.2 130.83c0 1.75-1 2.92-2.47 2.92a2.47 2.47 0 0 1 -2.07-1.15c-.38-.62-.42-.87-.42-2.41v-9a2.66 2.66 0 0 1 .67-2.16 2.55 2.55 0 0 1 2-.76h2.09c2.4 0 3.43.27 4.58 1.17a5.53 5.53 0 0 1 -.07 8.75 5.21 5.21 0 0 1 -3.48 1.11h-.83zm0-6.18c1.19.07 1.64-.16 1.64-.85 0-.51-.45-.81-1.19-.81h-.45z"/></g></svg>