<svg height="237" viewBox="0 0 341 237" width="341" xmlns="http://www.w3.org/2000/svg"><path d="m176.27 123.69a16 16 0 0 1 -11-19.14l23.54-87.2a16 16 0 0 1 19.14-11l33.37 9-4.94 18.3-30.68-8.28-22.66 84a3.61 3.61 0 0 0 -2.36-4.1l-4.94 18.3z" fill="#9b978c"/><path d="m203 24.65a16 16 0 0 0 -19.14 11l-18.6 68.9a16 16 0 0 0 11 19.14l4.94-18.3a3.58 3.58 0 0 1 2.35 4.1l17.73-65.67 4.94-18.3z" fill="#7f7c74"/><path d="m238.09 35.85a3.61 3.61 0 0 1 -4.1 2.36 3.61 3.61 0 0 1 -2.36-4.1l5.52-20.46a3.61 3.61 0 0 1 4.1-2.36 3.6 3.6 0 0 1 2.36 4.11z" fill="#7f7c74"/><path d="m229.82 109.27a3.81 3.81 0 0 1 -4.82 2.73l-88.82-24a3.82 3.82 0 0 1 -2.75-4.79l17.08-31.19a3.82 3.82 0 0 1 4.79-2.75l68.4 18.5a3.82 3.82 0 0 1 2.75 4.79z" fill="#ffae0b"/><path d="m245.72 148.79a6.19 6.19 0 0 1 -7.52 4.32l-134.57-36.32a6.19 6.19 0 0 1 -4.32-7.52l25.5-47.4a6.19 6.19 0 0 1 7.52-4.33l104.42 28.19a6.19 6.19 0 0 1 4.33 7.52z" fill="#ffd00d"/><path d="m244.85 152a6.19 6.19 0 0 1 -7.52 4.32l-134.57-36.32a6.19 6.19 0 0 1 -4.32-7.52l25.5-47.4a6.19 6.19 0 0 1 7.52-4.33l104.42 28.25a6.19 6.19 0 0 1 4.33 7.52z" fill="#ffae0b"/><path d="m37.18 155.44c-1 3.77-3 6.71-4.58 6.27-1.08-.29-3.1-7.76-2.08-11.53s4.64-2.21 5.71-1.92c1.62.43 1.97 3.42.95 7.18z" fill="#9b978c"/><path d="m26 166.87c1-3.77 3-6.71 4.58-6.27 1.08.29 3.1 7.76 2.09 11.53s-4.67 2.21-5.67 1.92c-1.8.1-2-3.42-1-7.18z" fill="#9b978c"/><path d="m83.74 175.52a2.41 2.41 0 0 1 -2.74 1.57l-47.9-12.93a2.41 2.41 0 0 1 -1.58-2.74 2.41 2.41 0 0 1 2.74-1.57l47.9 12.93a2.05 2.05 0 0 1 1.58 2.74z" fill="#7f7c74"/><path d="m197.33 212.53a6.19 6.19 0 0 1 -7.52 4.33l-126.5-34.15a6.19 6.19 0 0 1 -4.31-7.52l3.63-13.46a6.19 6.19 0 0 1 7.52-4.32l126.5 34.15a6.19 6.19 0 0 1 4.32 7.52z" fill="#9b978c"/><path d="m204.86 214.57a6.18 6.18 0 0 1 -7.51 4.32l-126.5-34.15a6.18 6.18 0 0 1 -4.32-7.51l3.63-13.46a6.18 6.18 0 0 1 7.52-4.32l126.49 34.14a6.19 6.19 0 0 1 4.33 7.52z" fill="#7f7c74"/><path d="m52.19 97.7c-3.63 13.46-32.52 17.79-40.06 15.75s-10.94-15.08-7.31-28.53 9.46-28.63 17-26.6c8.07 2.18 34 25.93 30.37 39.38z" fill="#ffd00d"/><path d="m41.42 94.8c-3.63 13.45-21.21 20.83-29.29 18.65s-10.94-15.08-7.31-28.53 9.46-28.63 17-26.6c8.07 2.18 23.24 23.02 19.6 36.48z" fill="#ffae0b"/><path d="m333.17 194.92c-6.82 25.3-41.77 49.94-133.82 25.09-91.5-24.7-205.66-89.59-198.83-114.89s86.63-25.7 178.68-.85 160.8 65.35 153.97 90.65z" fill="#ffd00d"/><path d="m333.17 194.92c-6.82 25.3-41.77 49.94-133.82 25.09-91.5-24.7-205.66-89.59-198.83-114.89s97.08-13.06 188.59 11.64c92.04 24.85 150.89 52.86 144.06 78.16z" fill="#ffae0b"/><path d="m333.17 194.92c-6.82 25.3-41.77 49.94-133.82 25.09-91.5-24.7-205.66-89.59-198.83-114.89" fill="#ffae0b"/><path d="m101.59 160.7c-8.07-2.18-11-16.84-8.86-24.91a15 15 0 0 1 29.06 7.84c-2.17 8.08-12.12 19.25-20.2 17.07z" fill="#e56a0e"/><path d="m103.19 154.78a15.05 15.05 0 1 1 18.46-10.61 15 15 0 0 1 -18.46 10.61z" fill="#77acbf"/><path d="m110.75 126.79a13.94 13.94 0 1 1 -17.09 9.83 14.16 14.16 0 0 1 17.09-9.83m.87-3.23a16.73 16.73 0 1 0 11.79 20.51 16.78 16.78 0 0 0 -11.79-20.51z" fill="#e8d918"/><path d="m93.8 136.08a13.94 13.94 0 1 0 26.92 7.26 16.3 16.3 0 0 0 .37-5.67l-24.22-6.54a10.83 10.83 0 0 0 -3.07 4.95z" fill="#539aad"/><path d="m159.73 176.4c-8.08-2.18-11-16.85-8.87-24.92a15.06 15.06 0 1 1 29.07 7.85c-2.18 8.07-12.13 19.25-20.2 17.07z" fill="#e56a0e"/><path d="m161.33 170.48a15.05 15.05 0 1 1 18.45-10.62 15 15 0 0 1 -18.45 10.62z" fill="#77acbf"/><path d="m168.88 142.48a13.94 13.94 0 1 1 -17.09 9.83 14.17 14.17 0 0 1 17.09-9.83m.87-3.22a16.72 16.72 0 1 0 11.79 20.5 16.76 16.76 0 0 0 -11.79-20.5z" fill="#e8d918"/><path d="m151.94 151.77a13.94 13.94 0 0 0 26.91 7.23 16.64 16.64 0 0 0 .38-5.68l-24.23-6.5a10.71 10.71 0 0 0 -3.06 4.95z" fill="#539aad"/><path d="m217.86 192.09c-8.07-2.18-11-16.84-8.86-24.92a15.05 15.05 0 1 1 29.06 7.83c-2.18 8.09-12.12 19.27-20.2 17.09z" fill="#e56a0e"/><path d="m219.46 186.17a15.06 15.06 0 1 1 18.46-10.61 15 15 0 0 1 -18.46 10.61z" fill="#77acbf"/><path d="m227 158.18a13.94 13.94 0 1 1 -17.07 9.82 14.16 14.16 0 0 1 17.07-9.82m.87-3.23a16.72 16.72 0 1 0 11.79 20.5 16.77 16.77 0 0 0 -11.77-20.45z" fill="#e8d918"/><path d="m210.07 167.46a13.94 13.94 0 0 0 26.93 7.27 16.62 16.62 0 0 0 .37-5.68l-24.22-6.53a10.8 10.8 0 0 0 -3.08 4.94z" fill="#539aad"/><path d="m34.75 162.3a3.58 3.58 0 0 1 -4.1 2.35 3.35 3.35 0 1 1 1.75-6.46 3.22 3.22 0 0 1 2.35 4.11z" fill="#9b978c"/><g fill="#fff"><path d="m139.48 76.93a2.31 2.31 0 0 1 -1.15 1.63 2.42 2.42 0 0 1 -2.09.24l-2.18-.38a1.38 1.38 0 0 1 -1.1-.59 1.45 1.45 0 0 1 -.23-.68 4.35 4.35 0 0 1 .1-.71l.78-4.51.06-.38a1.36 1.36 0 0 1 1.64-1.1l1.17.2a7.43 7.43 0 0 1 1.52.35 2.45 2.45 0 0 1 1.5 2.72 2 2 0 0 1 -.6 1.15 2.37 2.37 0 0 1 .58 2.06zm-3.8-.74.46.08c.47.08.61 0 .65-.21s-.11-.36-.55-.44l-.45-.08zm.42-2.43h.32c.39.07.53 0 .57-.21s-.1-.33-.49-.4h-.29z"/><path d="m146.68 78.53a1.67 1.67 0 0 1 .1.9 1.33 1.33 0 0 1 -1.6 1 1.28 1.28 0 0 1 -1-.81l-.8-2-.2 1.09a1.33 1.33 0 0 1 -1.59 1.07 1.39 1.39 0 0 1 -1-.67 1.7 1.7 0 0 1 -.12-1.17l.9-4.9a1.34 1.34 0 0 1 .63-1.04 1.65 1.65 0 0 1 1.31-.12l1.14.21a5.28 5.28 0 0 1 1.31.36 2.9 2.9 0 0 1 1.67 3.13 2.8 2.8 0 0 1 -1.25 1.87zm-2.9-3.19h.11.19c.41.09.64 0 .69-.3s-.14-.48-.55-.55l-.28-.06z"/><path d="m150.67 79.93a1.43 1.43 0 0 1 -.55 1 1.46 1.46 0 0 1 -2-.37 1.37 1.37 0 0 1 -.14-1.16l.93-4.9c.12-.67.23-.9.57-1.14a1.42 1.42 0 0 1 1.09-.24 1.44 1.44 0 0 1 .94.61 1.58 1.58 0 0 1 .09 1.27z"/><path d="m156.86 79.82c-.73-.14-1.09-.58-1-1.18s.65-.87 1.52-.68l.89.19c1 .21 1.2.33 1.41.69a1.64 1.64 0 0 1 .12 1.22l-.15.68a2.51 2.51 0 0 1 -.26.85 2.65 2.65 0 0 1 -1.61 1 4.45 4.45 0 0 1 -2.05.08 4.24 4.24 0 1 1 1.63-8.31 4.81 4.81 0 0 1 2.2 1.09 1.46 1.46 0 0 1 .61 1.39 1.39 1.39 0 0 1 -1.65 1 1.1 1.1 0 0 1 -.34-.13l-.55-.43a2.32 2.32 0 0 0 -.83-.39 1.65 1.65 0 0 0 -1.88 1.25 1.62 1.62 0 0 0 1.34 1.86 1.65 1.65 0 0 0 1-.11z"/><path d="m163.29 82.27c-.15.65-.22.81-.46 1a1.39 1.39 0 0 1 -1.25.35 1.37 1.37 0 0 1 -1-.82 1.77 1.77 0 0 1 0-1.16l1-4.76a1.49 1.49 0 0 1 .51-1 1.42 1.42 0 0 1 1.18-.28 1.52 1.52 0 0 1 1 .74c.16.33.18.51 0 1.18l-.27 1.16 1.66.34.23-1.07c.13-.63.22-.86.52-1.11a1.37 1.37 0 0 1 1.16-.28 1.41 1.41 0 0 1 1 .72 1.58 1.58 0 0 1 .07 1.14l-1 4.79a1.66 1.66 0 0 1 -.44 1 1.38 1.38 0 0 1 -1.28.39 1.36 1.36 0 0 1 -1-.75 1.64 1.64 0 0 1 0-1.19l.24-1.14-1.65-.35z"/><path d="m169.52 85.34a1.35 1.35 0 0 1 -1.06-1.6 1.63 1.63 0 0 1 .33-.64l3.73-4.67a1.43 1.43 0 0 1 2.48.57l1.42 5.87a1.35 1.35 0 0 1 0 .66 1.38 1.38 0 0 1 -1.66 1c-.63-.14-.93-.51-1.14-1.4l-2.51-.55c-.46.68-.94.91-1.59.76zm3.73-2.28-.25-1.06-.63.85z"/><path d="m184.63 81.12a1.4 1.4 0 0 1 1.36-.41 1.54 1.54 0 0 1 .85.57 1.37 1.37 0 0 1 .21 1l-.26 5.29a1.87 1.87 0 0 1 0 .45 1.4 1.4 0 0 1 -2.73-.36v-1.55l-.86 1.27a1.49 1.49 0 0 1 -1.64.74 1.43 1.43 0 0 1 -1.13-1.39l-.21-1.53-.52 1.2a1.4 1.4 0 0 1 -2.67-.85 2.81 2.81 0 0 1 .1-.31l2.12-4.81a1.37 1.37 0 0 1 1.62-.9 1.54 1.54 0 0 1 1.13 1.15l.6 2.9z"/><path d="m195.76 89.93a1.63 1.63 0 0 1 -.48.92 1.41 1.41 0 0 1 -1.29.32 1.44 1.44 0 0 1 -1-.89 1.68 1.68 0 0 1 0-1.06l.45-1.73-1.14-3a1.31 1.31 0 0 1 1.6-1.76 1.57 1.57 0 0 1 1 .92l.62 1.45 1.32-1a1.56 1.56 0 0 1 1.28-.28 1.37 1.37 0 0 1 1 1.63 1.44 1.44 0 0 1 -.44.69l-2.58 2.11z"/><path d="m204.57 85.41a4.24 4.24 0 1 1 -5.41 2.83 4.32 4.32 0 0 1 5.41-2.83zm-1.57 5.59a1.63 1.63 0 0 0 2-1.09 1.66 1.66 0 0 0 -3.18-.91 1.64 1.64 0 0 0 1.18 2z"/><path d="m211.16 92.42c-.17.56 0 1 .46 1.12s.82-.11 1-.64l.94-3.08c.18-.57.28-.73.61-.93a1.41 1.41 0 0 1 1.17-.17 1.52 1.52 0 0 1 .9.78c.17.37.16.62-.06 1.31l-.84 2.74a3.44 3.44 0 0 1 -1.58 2.17 3.68 3.68 0 0 1 -2.9.35 3.62 3.62 0 0 1 -2.33-2.18 3.28 3.28 0 0 1 0-2.41l.83-2.72c.22-.73.33-.9.65-1.12a1.49 1.49 0 0 1 1.2-.18 1.52 1.52 0 0 1 .86.71 1.43 1.43 0 0 1 0 1.21z"/><path d="m222 92.59a1.5 1.5 0 0 1 .57-.91 1.4 1.4 0 0 1 2.11.6 1.43 1.43 0 0 1 0 1.11l-1.56 4.69a1.72 1.72 0 0 1 -.67 1 1.37 1.37 0 0 1 -1.19.12 1.36 1.36 0 0 1 -.87-.86l-1.23-3.26-.54 1.61a1.41 1.41 0 0 1 -.64.91 1.44 1.44 0 0 1 -2.06-.73 1.63 1.63 0 0 1 .08-1.17l1.62-4.84a1.36 1.36 0 0 1 1.83-.89 1.28 1.28 0 0 1 .82.83l1.2 3.2z"/><path d="m229.14 99.12c-.7-.26-1-.75-.77-1.32s.78-.76 1.6-.44l.85.33c.91.37 1.13.53 1.28.92a1.56 1.56 0 0 1 -.08 1.22l-.25.64c-.26.62-.26.64-.39.8a2.65 2.65 0 0 1 -1.75.7 4.43 4.43 0 0 1 -2-.25 4.24 4.24 0 1 1 2.95-7.94 4.73 4.73 0 0 1 2 1.43 1.48 1.48 0 0 1 .38 1.47 1.38 1.38 0 0 1 -1.79.75 1 1 0 0 1 -.32-.18l-.47-.52a2.33 2.33 0 0 0 -.75-.51 1.59 1.59 0 1 0 -1.06 3 1.65 1.65 0 0 0 1 .05z"/><path d="m144.62 90.18c-.09.6.13 1 .6 1.08s.81-.24.9-.81l.52-3.32c.1-.61.18-.79.47-1a1.37 1.37 0 0 1 1.15-.36 1.45 1.45 0 0 1 1 .67c.22.35.24.61.12 1.36l-.47 3a3.71 3.71 0 0 1 -1.28 2.47 3.52 3.52 0 0 1 -5.44-1.08 3.59 3.59 0 0 1 -.3-2.5l.47-2.93c.12-.79.2-1 .49-1.25a1.46 1.46 0 0 1 1.17-.37 1.43 1.43 0 0 1 .94.6 1.52 1.52 0 0 1 .19 1.24z"/><path d="m155.32 88.68a1.68 1.68 0 0 1 .44-1 1.38 1.38 0 0 1 1.23-.39 1.37 1.37 0 0 1 .95.68 1.57 1.57 0 0 1 .13 1.16l-.92 5.07a1.77 1.77 0 0 1 -.52 1.19 1.35 1.35 0 0 1 -1.16.32 1.32 1.32 0 0 1 -1-.76l-1.67-3.16-.31 1.74a1.54 1.54 0 0 1 -.51 1 1.45 1.45 0 0 1 -1.15.31 1.43 1.43 0 0 1 -1-.73 1.74 1.74 0 0 1 -.08-1.23l.95-5.25a1.39 1.39 0 0 1 1.69-1.21 1.26 1.26 0 0 1 .92.74l1.7 3.06z"/><path d="m161.15 95.14a1.58 1.58 0 0 1 -.57 1 1.4 1.4 0 0 1 -2-.38 1.45 1.45 0 0 1 -.12-1.21l1-5.12c.14-.7.25-.93.59-1.19a1.41 1.41 0 0 1 2 .39 1.69 1.69 0 0 1 .11 1.34z"/><path d="m168.7 90.51a1.42 1.42 0 0 1 1.44-.57 1.38 1.38 0 0 1 1.07 1.63 1.44 1.44 0 0 1 -.29.61l-3.74 4.92a1.45 1.45 0 0 1 -2.63-.49l-1.35-6a1.75 1.75 0 0 1 0-.78 1.4 1.4 0 0 1 1.67-1 1.45 1.45 0 0 1 1.13 1.23l.64 3.37z"/><path d="m175 97.15a1.53 1.53 0 0 1 1.06.58 1.33 1.33 0 0 1 .22 1.07 1.37 1.37 0 0 1 -.68.87 1.52 1.52 0 0 1 -1.19 0l-2.1-.51a2.54 2.54 0 0 1 -1-.36 1.26 1.26 0 0 1 -.54-1.17 3.49 3.49 0 0 1 .15-.82l1.08-4.43a2.08 2.08 0 0 1 .37-1 1.22 1.22 0 0 1 .81-.52 2.43 2.43 0 0 1 1.2.14l1.62.39a3.8 3.8 0 0 1 1 .31 1.24 1.24 0 0 1 .65 1.41 1.32 1.32 0 0 1 -.65.89 1.43 1.43 0 0 1 -1.1 0l-1.35-.32-.14.56 1.07.26a1 1 0 0 1 .86 1.24 1 1 0 0 1 -.54.68 1.21 1.21 0 0 1 -.89 0l-1-.23-.15.61z"/><path d="m183.48 99.73a1.78 1.78 0 0 1 0 .94 1.35 1.35 0 0 1 -1.69 1 1.3 1.3 0 0 1 -.95-.92l-.63-2.14-.21 1.09a1.37 1.37 0 0 1 -1.68 1 1.42 1.42 0 0 1 -.92-.77 1.82 1.82 0 0 1 0-1.23l1.32-5a1.42 1.42 0 0 1 .76-1.08 1.59 1.59 0 0 1 1.31 0l1.13.3a4.82 4.82 0 0 1 1.27.47 3 3 0 0 1 0 5.22zm-2.62-3.52h.11l.19.05q.6.17.72-.27c.08-.29-.1-.51-.51-.6l-.28-.09z"/><path d="m184.52 100.31a1.25 1.25 0 0 1 1.56-.87 1.53 1.53 0 0 1 .84.66c.45.62.51.69.71.75a.34.34 0 0 0 .44-.26.4.4 0 0 0 -.11-.4 2.51 2.51 0 0 0 -.47-.38l-.59-.42a2.39 2.39 0 0 1 -1.09-2.82 2.8 2.8 0 0 1 3.74-1.8c1.46.42 2.37 1.53 2.09 2.52a1.09 1.09 0 0 1 -1.37.81 1.83 1.83 0 0 1 -1-.78c-.21-.32-.33-.41-.47-.46a.34.34 0 0 0 -.41.23c-.07.24.07.4.64.79a5.19 5.19 0 0 1 1.48 1.35 2.56 2.56 0 0 1 .26 2.14 2.89 2.89 0 0 1 -1.32 1.71 3.12 3.12 0 0 1 -2.5.16c-1.7-.5-2.76-1.78-2.43-2.93z"/><path d="m194.14 103.56a1.55 1.55 0 0 1 -.68 1 1.41 1.41 0 0 1 -2-.59 1.49 1.49 0 0 1 0-1.21l1.54-5c.21-.67.35-.9.72-1.11a1.35 1.35 0 0 1 1.11-.13 1.4 1.4 0 0 1 .86.73 1.64 1.64 0 0 1 0 1.34z"/><path d="m197.7 100.18a1.4 1.4 0 0 1 -.88-.68 1.35 1.35 0 0 1 -.08-1 1.33 1.33 0 0 1 1-.88c.32 0 .43 0 1.48.34l2.66.89a4.3 4.3 0 0 1 .89.33 1.27 1.27 0 0 1 .69 1.56 1.43 1.43 0 0 1 -.75.8 1.52 1.52 0 0 1 -1.12-.05l-.59-.2-1.33 4a1.85 1.85 0 0 1 -.57.94 1.31 1.31 0 0 1 -1.29.24 1.44 1.44 0 0 1 -.91-.92 1.79 1.79 0 0 1 .12-1.12l1.34-4z"/><path d="m206.82 107.79a1.75 1.75 0 0 1 -.59.91 1.37 1.37 0 0 1 -1.32.22 1.41 1.41 0 0 1 -.87-1 1.72 1.72 0 0 1 .14-1.09l.65-1.76-.81-3.24a1.49 1.49 0 0 1 0-.89 1.37 1.37 0 0 1 1.76-.8 1.5 1.5 0 0 1 .93 1l.47 1.56 1.42-.91a1.53 1.53 0 0 1 1.32-.17 1.4 1.4 0 0 1 .83 1.77 1.53 1.53 0 0 1 -.52.67l-2.81 2z"/></g></svg>