<svg viewBox="0 0 157 185" xmlns="http://www.w3.org/2000/svg"><path d="m121.46 178.63c0-.19 0-.39 0-.58v-28.87c0-.69.08-.59-.6-.59h-12-.49q0 3.74 0 7.46v6.56a1.43 1.43 0 0 1 0 .58q0 7.43 0 14.85a1.63 1.63 0 0 0 0 .58z" fill="#8c6239"/><path d="m67.19 1.33c-.07.08-.16.07-.25.07a43.81 43.81 0 0 0 -9.11 1.38c-.5.12-1 .28-1.47.41a.28.28 0 0 0 -.25.35c.08.69.14 1.39.24 2.09a3 3 0 0 0 .13.93 1 1 0 0 0 .38-.11 8.46 8.46 0 0 1 1.14-.36c.74-.19 1.5-.23 2.25-.37a7.53 7.53 0 0 1 2 0 7.85 7.85 0 0 1 2.94.9 7 7 0 0 1 3.81 5.66 6.38 6.38 0 0 1 -.33 2.7 7.85 7.85 0 0 1 -3.9 4.54 11.47 11.47 0 0 1 -4.46 1.05 7.6 7.6 0 0 1 -2.31-.07c0 .33.07.66.08 1 0 .7.15 1.39.21 2.09.1 1.06.24 2.12.36 3.19l.09 1c.08.7.17 1.39.26 2.08 1.43 0 2.87 0 4.3-.06 2.92 0 5.83-.16 8.75-.12h.45a5.94 5.94 0 0 1 .4-1.5c.46-1.52 1-3 1.44-4.53.78-2.43 1.57-4.86 2.35-7.29l1.44-4.52c.6-1.85 1.19-3.7 1.79-5.54.3-.93.61-1.84.86-2.78-1.24-.39-2.5-.7-3.76-1a46.73 46.73 0 0 0 -5.1-1c-.45-.06-.9-.08-1.34-.13-.14 0-.3.05-.42-.08z" fill="#ffc54c"/><path d="m20.29 75c-.21-.49-.31-1-.51-1.52a9.69 9.69 0 0 0 -3.13-4 8.71 8.71 0 0 0 -3.81-1.7 9.52 9.52 0 0 0 -11.2 7.37c-.07.32 0 .67-.15 1v2a.27.27 0 0 1 .08.24 7.89 7.89 0 0 0 1.16 3.54 8.41 8.41 0 0 0 1.52 2 9.4 9.4 0 0 0 5.05 2.6 8 8 0 0 0 1.82.17 11.3 11.3 0 0 1 1.16-.08l.44-.09a9.83 9.83 0 0 0 2.37-.78 9.41 9.41 0 0 0 4.05-3.75 9.18 9.18 0 0 0 1.26-6 4.82 4.82 0 0 1 -.11-1z" fill="#f9d0a7"/><path d="m155.57 91.78a1.8 1.8 0 0 1 -.17-.82 9.19 9.19 0 0 0 -2-4.78 9.3 9.3 0 0 0 -5.73-3.42 8.82 8.82 0 0 0 -4.8.38c0 .12.17.16.26.23.34.23.34.24.18.61l-1 2.4c-.38.93-.76 1.85-1.15 2.77l-1.55 3.72c-.32.76-.63 1.52-1 2.27-.19.46-.2.46-.64.25a8.44 8.44 0 0 0 -1.18-.55 8.75 8.75 0 0 0 2 3.57 9.52 9.52 0 0 0 2.73 2.16 10.26 10.26 0 0 0 2.75.93 10 10 0 0 0 2.73.07 9.11 9.11 0 0 0 3.68-1.22 10.25 10.25 0 0 0 2.08-1.63 9.31 9.31 0 0 0 2.48-4.79 8.86 8.86 0 0 0 .19-1.37.2.2 0 0 1 .09-.15z" fill="#f9d0a7"/><path d="m108.41 162.62v-6.56q0-3.72 0-7.46h-9c-.57 0-.5 0-.5-.51 0-3.1 0-6.2.1-9.31.05-2.69 0-5.39.09-8.09s0-5.63.09-8.45 0-5.46.09-8.18.06-5.58.08-8.37c0-.89 0-1.79.06-2.69 0-.15.08-.35-.16-.4h-3.26c-.66 0-.57.07-.57-.57v-23.13c0-.14 0-.27 0-.41s0-.41 0-.61-.1-.28-.28-.3-.38.17-.56.27c-.7.39-1.42.75-2.16 1.09a6.68 6.68 0 0 0 -1 .51v.49 22.06c0 .68 0 .57-.59.57h-21.84c-.66 0-.58.07-.58-.56v-21.26c0-.16 0-.33 0-.49s0-.05-.07-.06a33.35 33.35 0 0 1 -3.72-1.52.3.3 0 0 0 -.26 0v2.2 21.12.36s-.07.22-.22.21h-4.69v5.21 4a.73.73 0 0 1 0 .36v4c0 2.8.07 5.61.09 8.41 0 2 0 4.1.06 6.15s.05 4.2.07 6.29a14.6 14.6 0 0 1 0 1.62.61.61 0 0 1 0 .13c0 .31 0 .31-.27.32h-1.88c-2.57.05-5.15.08-7.72.15-1.36 0-2.72.06-4.08.09-.79 0-1.58 0-2.37.07v3.31 10.82h33.52c.64 0 .56-.09.56.58v7.87.36c0 .13.06.19.19.18h30.77zm-43.41-55.49a1.52 1.52 0 0 1 1.49-1.54 1.55 1.55 0 0 1 1.51 1.51 1.5 1.5 0 0 1 -1.51 1.52 1.48 1.48 0 0 1 -1.49-1.49zm27.51 0a1.5 1.5 0 1 1 3 0 1.5 1.5 0 1 1 -3 0z" fill="#385269"/><path d="m59.46 102.6h4.76c.15 0 .22-.06.22-.21s0-.24 0-.36v-21.17c0-.73 0-1.47 0-2.2l-.1-.11a7.24 7.24 0 0 0 -2.11.36c-.53.13-1.06.3-1.6.4a12.34 12.34 0 0 0 -2.57.93 19.2 19.2 0 0 1 -4.06 1.19c-.94.18-1.87.39-2.81.51s-1.75.22-2.62.32a38.67 38.67 0 0 1 -4.93.15 13.82 13.82 0 0 1 -1.82-.15c-.4-.07-.81 0-1.21-.1-1.42-.18-2.83-.38-4.23-.67a55.16 55.16 0 0 1 -7.24-2c-1.37-.48-2.71-1-4.05-1.58a25.38 25.38 0 0 1 -4.65-2.77l-.15-.14a4.82 4.82 0 0 0 .11.93 9.18 9.18 0 0 1 -1.26 6 9.41 9.41 0 0 1 -4.05 3.75 9.83 9.83 0 0 1 -2.37.78l-.44.09a2.41 2.41 0 0 0 .82.53c.83.49 1.68.93 2.51 1.4 1.75 1 3.55 1.87 5.35 2.77s3.44 1.62 5.18 2.37q3.8 1.64 7.73 2.9a61.69 61.69 0 0 0 6.13 1.65q1.5.31 3 .54c.87.13 1.74.22 2.62.28s1.81.18 2.73.17a31.49 31.49 0 0 0 3.75-.25 24.77 24.77 0 0 0 2.9-.52 17.38 17.38 0 0 0 4-1.49c.49-.26.51-.24.51.3-.06 1.8-.06 3.6-.05 5.4z" fill="#e2e2e2"/><path d="m43.5 153.61c0-3.61 0-7.21 0-10.82v-3.31a1.43 1.43 0 0 1 0-.58c0-4.58 0-9.15 0-13.73 0-.63.07-.55-.54-.55q-6 0-12 0c-.56 0-.5-.06-.5.51v28a2.43 2.43 0 0 1 0 .27c0 .17.05.26.23.24h12.81z" fill="#8c6239"/><path d="m59.8 138.67a14.6 14.6 0 0 0 0-1.62c0-2.09 0-4.19-.07-6.29s0-4.1-.06-6.15c0-2.8-.06-5.61-.09-8.41 0-1.33 0-2.66 0-4a.73.73 0 0 0 0-.36c-.12.13-.07.29-.07.43q0 13 0 25.9a.57.57 0 0 0 0 .13c-.06.32-.05.32.29.37z" fill="#e2e2e2"/><path d="m95.47 78.49v.41 23.1c0 .64-.09.57.57.57h3.29c0-1.79.11-3.56.1-5.35 0-.48.08-1 .08-1.47a1 1 0 0 1 .22-.53 13.86 13.86 0 0 1 6.2-5.19 17.34 17.34 0 0 1 3.5-1.1c.81-.16 1.64-.24 2.47-.33 1.1-.11 2.19 0 3.28-.07a19.24 19.24 0 0 1 2 .16c.55 0 1.1.12 1.64.2.93.12 1.86.28 2.77.47 1.3.28 2.59.6 3.86 1s2.63.81 3.92 1.28c.91.33 1.82.67 2.72 1 1.22.5 2.43 1 3.61 1.59a6.61 6.61 0 0 1 1.16.58 8.44 8.44 0 0 1 1.18.55c.44.21.45.21.64-.25.32-.75.63-1.51 1-2.27l1.55-3.72c.39-.92.77-1.84 1.15-2.77l1-2.4c.16-.37.16-.38-.18-.61-.09-.07-.21-.11-.26-.23a11.41 11.41 0 0 1 -1.42-.86c-1.09-.68-2.19-1.34-3.31-2-.9-.49-1.78-1-2.7-1.43a60.54 60.54 0 0 0 -6.29-2.63c-1.62-.54-3.24-1.05-4.9-1.44-1.19-.28-2.39-.5-3.59-.69-.84-.14-1.68-.24-2.53-.33-.54 0-1.1-.09-1.65-.12a23.85 23.85 0 0 0 -3-.06c-.8 0-1.61 0-2.41.15-.38.06-.77 0-1.16.09-.72.08-1.45.18-2.16.3-1.12.19-2.23.41-3.33.7a36.13 36.13 0 0 0 -5.25 1.8 26.54 26.54 0 0 0 -3.27 1.68 2.15 2.15 0 0 1 -.5.22z" fill="#e2e2e2"/><path d="m64.32 78.55.1.11a.3.3 0 0 1 .26 0 33.35 33.35 0 0 0 3.72 1.54s0 0 .07.06a1.05 1.05 0 0 1 .43.11c.72.2 1.43.43 2.16.6 1 .24 2 .43 3 .58a22.62 22.62 0 0 0 2.84.31 33.19 33.19 0 0 0 5.55-.16c.72-.1 1.45-.16 2.17-.29a33.09 33.09 0 0 0 4.88-1.29c.64-.22 1.25-.51 1.9-.67a6.68 6.68 0 0 1 1-.51c.74-.34 1.46-.7 2.16-1.09.18-.1.38-.18.56-.27a5 5 0 0 1 1-.63 34.51 34.51 0 0 0 3.42-2.47 31.82 31.82 0 0 0 3.46-3.26 31.19 31.19 0 0 0 3.76-5.08c.57-1 1.08-2 1.57-3 .19-.38.22-.41.62-.35a5.53 5.53 0 0 0 3.06-.46 6.46 6.46 0 0 0 2.41-10.18 6.37 6.37 0 0 0 -2.62-1.82 1.74 1.74 0 0 0 -.25-.11.31.31 0 0 1 -.26-.35c0-.57 0-1.14-.06-1.7s-.14-1.32-.12-2a.27.27 0 0 0 -.11-.17.36.36 0 0 0 -.06.3c0 1.27-.09 2.54-.12 3.82 0 .5-.06 1-.09 1.52-.08 1-.17 2-.25 3a3.73 3.73 0 0 1 -.09.67 1.25 1.25 0 0 1 -1.42 1 1.31 1.31 0 0 1 -1.28-1.09 40.74 40.74 0 0 0 -2.17-7 59.76 59.76 0 0 0 -2.76-5.9c-1-1.87-2.05-3.69-3.22-5.45l-1.23-1.87a22.17 22.17 0 0 0 -2.57.27 2.09 2.09 0 0 1 -.17.14c-.68.3-1.36.61-2.06.89a65.47 65.47 0 0 1 -8.77 2.84 10.33 10.33 0 0 0 -1.63.44h3.64a14 14 0 0 1 1.71.08 4.9 4.9 0 0 1 4 2.71 7.65 7.65 0 0 1 .66 1.9 19.12 19.12 0 0 1 .35 4.65 9 9 0 0 1 -8.34 8.65 36.06 36.06 0 0 1 -5.3 0 8.79 8.79 0 0 1 -7.33-4.81 8.42 8.42 0 0 1 -.91-2.71c-.08-.5 0-.44-.53-.44h-2.31c-.34 0-.34 0-.39.34a9 9 0 0 1 -3.88 6.12 9.11 9.11 0 0 1 -5.4 1.55c-1.3 0-2.61 0-3.91 0a9.06 9.06 0 0 1 -8.71-8.39 2.34 2.34 0 0 0 0 1 3.68 3.68 0 0 1 0 .58 26.81 26.81 0 0 0 .58 5.2 29.92 29.92 0 0 0 1.12 4.15 31.78 31.78 0 0 0 3.27 6.77 34 34 0 0 0 3.1 4.07 33.59 33.59 0 0 0 2.36 2.41 30.78 30.78 0 0 0 5.64 4.12zm3.6-5a10.06 10.06 0 0 1 -4-.72 6.19 6.19 0 0 1 -2.82-2.03 3.33 3.33 0 0 1 -.66-2.15 1.34 1.34 0 0 1 1.12-1.37 7.23 7.23 0 0 1 2.23.06c.83.08 1.67.18 2.5.22a28 28 0 0 0 4.71-.19c.46-.05.93 0 1.38-.09a5.59 5.59 0 0 1 1.87 0 1.41 1.41 0 0 1 1.26 1.27 3.26 3.26 0 0 1 -.51 1.96 5.93 5.93 0 0 1 -3 2.36 10 10 0 0 1 -4.08.73z" fill="#f9d0a7"/><path d="m80.78 3.51c-.25.94-.56 1.85-.86 2.78-.6 1.84-1.19 3.69-1.79 5.54l-1.44 4.52c-.78 2.43-1.57 4.86-2.35 7.29-.48 1.51-1 3-1.44 4.53a5.94 5.94 0 0 0 -.4 1.5 5.39 5.39 0 0 0 1-.07c1.68 0 3.35 0 5-.08s3.44 0 5.16-.09 3.35 0 5-.09 3.35 0 5-.09 3.5 0 5.25-.09 3.26 0 4.89-.09 3.5 0 5.25-.09c1.35-.07 2.7 0 4 0a16.72 16.72 0 0 0 -.23-3.53 22.42 22.42 0 0 0 -6.43-12.34 31.14 31.14 0 0 0 -12-7.44 37.76 37.76 0 0 0 -8-1.86 35.55 35.55 0 0 0 -5.61-.3z" fill="#fdb61e"/><path d="m95.74 35.27a22.17 22.17 0 0 1 2.57-.27 1.43 1.43 0 0 1 .34-.09 9.71 9.71 0 0 0 1.21-.1c.37 0 .74-.07 1.11-.12l1.77-.24 2.3-.3 1.89-.33c1-.17 2-.39 3-.64a8.83 8.83 0 0 1 1.34-.36c.51-.34 1.1-.53 1.6-.89.11-.2.29-.36.26-.62a6.47 6.47 0 0 0 -1.16.08c-1.67 0-3.35 0-5 .07s-3.29 0-4.93.09-3.5 0-5.26.09-3.32 0-5 .09-3.35 0-5 .09-3.44 0-5.16.09-3.38 0-5.07.09-3.26 0-4.9.09-3.56 0-5.34.09-3.29 0-4.94.09-3.47 0-5.2.09-3.29 0-4.94.09c-1.9.1-3.8 0-5.7.1-1.19.05-2.37 0-3.56 0a3.68 3.68 0 0 0 -.66.06.91.91 0 0 1 -.74-.06.5.5 0 0 0 -.43.25 1.92 1.92 0 0 0 -.46 1.48 2.77 2.77 0 0 0 1.48 1.36 8.67 8.67 0 0 0 1.48.52 31.22 31.22 0 0 0 5.84.81 12.93 12.93 0 0 1 1.65.08h1.53c2.31 0 4.63 0 6.94-.07 1.73-.07 3.47-.1 5.2-.12.59 0 1.19 0 1.79-.08.93-.08 1.87 0 2.82-.08s1.78 0 2.68-.1c.74-.08 1.49 0 2.24-.08s1.57 0 2.37-.1a14.4 14.4 0 0 1 1.61 0c.72-.08 1.45-.12 2.17-.16 1.25-.06 2.5-.1 3.74-.19.58 0 1.16-.07 1.74-.08.76 0 1.51-.11 2.27-.13a8.62 8.62 0 0 0 1.34-.09c.63-.13 1.27-.06 1.91-.13s1.18-.11 1.78-.14c.42 0 .86 0 1.29-.08a11.73 11.73 0 0 1 2.19-.15z" fill="#ffc54c"/><path d="m40.54 32.56a.91.91 0 0 0 .74.06 3.68 3.68 0 0 1 .66-.06h3.56c1.9-.09 3.8 0 5.7-.1 1.65-.09 3.3 0 4.94-.09s3.47 0 5.2-.09 3.3 0 4.94-.09 3.57 0 5.34-.09 3.27 0 4.9-.09 3.38 0 5.07-.09 3.45 0 5.16-.09 3.36 0 5-.09 3.33 0 5-.09 3.51 0 5.26-.09 3.29 0 4.93-.09 3.36 0 5-.07a6.47 6.47 0 0 1 1.16-.08c.06-.78 0-1.57 0-2.36-1.35 0-2.7 0-4 0-1.75.1-3.5 0-5.25.09s-3.27 0-4.89.09-3.51 0-5.25.09-3.36 0-5 .09-3.36 0-5 .09-3.44 0-5.16.09-3.35 0-5 .08a5.39 5.39 0 0 1 -1 .07h-.45c-2.92 0-5.83.09-8.75.12-1.43 0-2.87 0-4.3.06-.08.09-.19.08-.3.08-1.7 0-3.4 0-5.1.08s-3.34 0-5 .09a5.2 5.2 0 0 0 -1.84.27 1 1 0 0 1 -.18 0c0 .09-.13.09-.21.1a14.09 14.09 0 0 1 -2 .72l-3.42 1.21a.94.94 0 0 0 -.46.18z" fill="#ffd477"/><path d="m111.28 32.82a8.83 8.83 0 0 0 -1.34.36c-1 .25-2 .47-3 .64l-1.89.33-2.3.3-1.77.24c-.37.05-.74.1-1.11.12a9.71 9.71 0 0 1 -1.21.1 1.43 1.43 0 0 0 -.34.09l1.23 1.87c1.17 1.76 2.22 3.58 3.22 5.45a59.76 59.76 0 0 1 2.76 5.9 40.74 40.74 0 0 1 2.17 7 1.31 1.31 0 0 0 1.3 1.11 1.25 1.25 0 0 0 1.42-1 3.73 3.73 0 0 0 .09-.67c.08-1 .17-2 .25-3 0-.51.08-1 .09-1.52 0-1.28.16-2.55.12-3.82a.36.36 0 0 1 .03-.32c0-.85 0-1.71 0-2.56 0-1.47-.1-2.93-.16-4.4a4.23 4.23 0 0 1 .16-1.44 9.86 9.86 0 0 0 .48-3c0-.29 0-.57 0-.86a.82.82 0 0 1 -.1-.46.81.81 0 0 0 -.1-.46z" fill="#d1a44a"/><path d="m111.28 32.82a.81.81 0 0 1 .09.46.82.82 0 0 0 .1.46 3.66 3.66 0 0 0 1.19-1.19 1.06 1.06 0 0 0 .22-.62c-.5.36-1.09.55-1.6.89z" fill="#d6972a"/><path d="m46.46 49.21a9.06 9.06 0 0 0 8.71 8.39c1.3.06 2.61 0 3.91 0a9.11 9.11 0 0 0 5.4-1.55 9 9 0 0 0 3.88-6.05c0-.33 0-.34.39-.34h2.25c.54 0 .45-.06.53.44a8.42 8.42 0 0 0 .91 2.71 8.79 8.79 0 0 0 7.33 4.81 36.06 36.06 0 0 0 5.3 0 9 9 0 0 0 8.34-8.65 19.12 19.12 0 0 0 -.35-4.65 7.65 7.65 0 0 0 -.66-1.9 4.9 4.9 0 0 0 -4-2.71 14 14 0 0 0 -1.71-.08h-3.58c-1.47 0-2.94 0-4.4 0-.74 0-1.47 0-2.2.08a5 5 0 0 0 -3.91 2.48 7.26 7.26 0 0 0 -.74 2 14.08 14.08 0 0 0 -.37 3.17c0 .32 0 .33-.32.33-.81 0-1.62 0-2.43 0-.25 0-.3-.09-.3-.32q0-.69-.09-1.38a10.38 10.38 0 0 0 -.69-3.06 4.9 4.9 0 0 0 -3.52-3.06 7.81 7.81 0 0 0 -1.87-.19h-9.18a14.82 14.82 0 0 0 -2.1.14 5.12 5.12 0 0 0 -2.71 1.48 7.49 7.49 0 0 0 -1 1.45c-.16.49-.35 1-.47 1.48a17.47 17.47 0 0 0 -.37 3.68c.03.38.02.84.02 1.3zm11 6.39h-1.74a7.07 7.07 0 0 1 -7.25-6.73 18.32 18.32 0 0 1 .1-2.87 8.2 8.2 0 0 1 .6-2.53 2.89 2.89 0 0 1 2.21-1.77 7.24 7.24 0 0 1 1.39-.11h8.77 1.39a3 3 0 0 1 2.88 2 4.1 4.1 0 0 1 .2.59 13.9 13.9 0 0 1 .44 3.33 9.88 9.88 0 0 1 -.17 2.6 7 7 0 0 1 -6.61 5.44zm25 0h-1.65a10 10 0 0 1 -1.44-.09 7 7 0 0 1 -5.9-6.81 23.41 23.41 0 0 1 .11-2.78 8.2 8.2 0 0 1 .61-2.48 2.87 2.87 0 0 1 2.15-1.72 6.44 6.44 0 0 1 1.38-.12h9.4a9.05 9.05 0 0 1 1 0 3 3 0 0 1 2.58 1.81 6.61 6.61 0 0 1 .3.85 14.53 14.53 0 0 1 .4 3.15 10.52 10.52 0 0 1 -.08 2.59 7 7 0 0 1 -6.69 5.62z" fill="#050404"/><path d="m58 20.5a7.6 7.6 0 0 0 2.28.07 11.47 11.47 0 0 0 4.46-1.05 7.85 7.85 0 0 0 3.9-4.52 6.38 6.38 0 0 0 .33-2.7 7 7 0 0 0 -3.8-5.71 7.85 7.85 0 0 0 -2.94-.9 7.53 7.53 0 0 0 -2 0c-.75.14-1.51.18-2.25.37a8.46 8.46 0 0 0 -1.11.36 1 1 0 0 1 -.38.11 1.53 1.53 0 0 1 -.46.28 7.64 7.64 0 0 0 -3.91 5 6.75 6.75 0 0 0 .36 4.32c.05.12.09.25.14.37.31.46.58.93.93 1.36a7.33 7.33 0 0 0 2.6 2 8.81 8.81 0 0 0 1.85.64zm1-2.78a4.53 4.53 0 0 1 -1.08-.1 4.34 4.34 0 0 1 -2.92-6.45 5 5 0 0 1 6.24-2.17 4.31 4.31 0 0 1 2.41 5.71 5 5 0 0 1 -4.65 3.01z" fill="#d6972a"/><path d="m58 20.5a8.81 8.81 0 0 1 -1.86-.61 7.33 7.33 0 0 1 -2.6-2c-.35-.43-.62-.9-.93-1.36a23.25 23.25 0 0 0 -3.31 5.68 22.2 22.2 0 0 0 -1.53 6.06 1.23 1.23 0 0 0 0 .27 1.29 1.29 0 0 1 -.58 1.22c-.22.18-.52.31-.6.63a1 1 0 0 0 .18 0 5.2 5.2 0 0 1 1.84-.27c1.67-.13 3.34 0 5-.09s3.4 0 5.1-.08c.11 0 .22 0 .3-.08-.09-.69-.18-1.38-.26-2.08l-.09-1c-.12-1.07-.26-2.13-.36-3.19-.06-.7-.17-1.39-.21-2.09-.02-.35-.09-.68-.09-1.01z" fill="#fdb61e"/><path d="m48.45 37a31.22 31.22 0 0 1 -5.84-.81 8.67 8.67 0 0 1 -1.48-.52 2.77 2.77 0 0 1 -1.48-1.36 1.18 1.18 0 0 0 .05 1.08 2.63 2.63 0 0 0 .83.92 9.19 9.19 0 0 0 2.8 1.31 29.44 29.44 0 0 0 4.37 1l.39.08a12.23 12.23 0 0 0 .36-1.7z" fill="#8c6239"/><path d="m48.45 37a12.23 12.23 0 0 1 -.36 1.7c-.31 1.26-.52 2.53-.78 3.8a1.08 1.08 0 0 0 0 .18 7.49 7.49 0 0 1 1-1.45 5.12 5.12 0 0 1 2.69-1.5 1 1 0 0 1 0-.35c.21-.77.4-1.54.6-2.31-.51 0-1 0-1.53 0a12.93 12.93 0 0 0 -1.62-.07z" fill="#d1a44a"/><path d="m46.36 30.49c.08 0 .17 0 .21-.1s-.16.03-.21.1z" fill="#fdb61e"/><path d="m91.42 79.45c-.65.16-1.26.45-1.9.67a33.09 33.09 0 0 1 -4.88 1.29c-.72.13-1.45.19-2.17.29a33.19 33.19 0 0 1 -5.55.16 22.62 22.62 0 0 1 -2.84-.31c-1-.15-2-.34-3-.58-.73-.17-1.44-.4-2.16-.6a1.05 1.05 0 0 0 -.43-.11v.49 21.25c0 .63-.08.56.58.56h21.79c.61 0 .59.11.59-.57v-22.05c0-.17-.02-.33-.03-.49z" fill="#e2e2e2"/><path d="m65 107.13a1.48 1.48 0 0 0 1.52 1.49 1.5 1.5 0 0 0 1.48-1.52 1.55 1.55 0 0 0 -1.54-1.51 1.52 1.52 0 0 0 -1.46 1.54z" fill="#fdb61e"/><path d="m92.46 107.11a1.5 1.5 0 1 0 3 0 1.5 1.5 0 1 0 -3 0z" fill="#fdb61e"/><path d="m67.92 73.6a10 10 0 0 0 4.1-.73 5.93 5.93 0 0 0 3-2.36 3.26 3.26 0 0 0 .46-1.93 1.41 1.41 0 0 0 -1.26-1.27 5.59 5.59 0 0 0 -1.87 0c-.45.07-.92 0-1.38.09a28 28 0 0 1 -4.66.19c-.83 0-1.67-.14-2.5-.22a7.23 7.23 0 0 0 -2.23-.06 1.34 1.34 0 0 0 -1.12 1.37 3.33 3.33 0 0 0 .66 2.15 6.19 6.19 0 0 0 2.81 2.08 10.06 10.06 0 0 0 3.99.69z" fill="#fff"/><path d="m78.71 39.58h4.4a10.33 10.33 0 0 1 1.63-.44 65.47 65.47 0 0 0 8.77-2.84c.7-.28 1.38-.59 2.06-.89a2.09 2.09 0 0 0 .17-.14 11.73 11.73 0 0 0 -2.22.16c-.43 0-.87 0-1.29.08-.6 0-1.2.07-1.78.14s-1.28 0-1.91.13a8.62 8.62 0 0 1 -1.34.09c-.76 0-1.51.11-2.27.13-.58 0-1.16.08-1.74.08a.42.42 0 0 1 -.17.2l-1.65 1.25z" fill="#ddae48"/><path d="m78.71 39.58 2.66-2 1.63-1.3a.42.42 0 0 0 .17-.2c-1.24.09-2.49.13-3.74.19-.72 0-1.45.08-2.17.16 0 0-.07.07-.11.07-.83.13-1.65.26-2.48.37l-3.15.39c-1.24.16-2.49.3-3.73.44-.4 0-.81.07-1.21.11l-2.08.24-1.47.15a6.44 6.44 0 0 1 -.76 0c-.1 0-.19 0-.22-.11a.22.22 0 0 1 .09-.28c.11-.07.24-.12.35-.2a7.67 7.67 0 0 0 1.26-.76c-1.73 0-3.47 0-5.2.12-2.31.09-4.63 0-6.94.07-.2.77-.39 1.54-.6 2.31a1 1 0 0 0 0 .35 14.82 14.82 0 0 1 2.1-.14h9.18a7.81 7.81 0 0 1 1.87.19 4.9 4.9 0 0 1 3.52 3.06 10.38 10.38 0 0 1 .69 3.06q.08.69.09 1.38c0 .23 0 .32.3.32h2.43c.31 0 .31 0 .32-.33a14.08 14.08 0 0 1 .37-3.17 7.26 7.26 0 0 1 .74-2 5 5 0 0 1 3.91-2.48c.71-.02 1.47.03 2.18-.01z" fill="#f9d0a7"/><path d="m63.77 36.88a7.67 7.67 0 0 1 -1.26.76c-.11.08-.24.13-.35.2a.22.22 0 0 0 -.09.28c0 .1.12.11.22.11a6.44 6.44 0 0 0 .76 0l1.47-.15 2.08-.24c.4 0 .81-.06 1.21-.11 1.24-.14 2.49-.28 3.73-.44l3.15-.39c.83-.11 1.65-.24 2.48-.37 0 0 .07 0 .11-.07a14.4 14.4 0 0 0 -1.61 0c-.8.09-1.59 0-2.37.1s-1.5 0-2.24.08c-.9.11-1.8 0-2.68.1s-1.89 0-2.82.08c-.56.04-1.2.05-1.79.06z" fill="#ddae48"/><path d="m57.47 55.6h2.2a7 7 0 0 0 6.61-5.44 9.88 9.88 0 0 0 .17-2.6 13.9 13.9 0 0 0 -.45-3.33 4.1 4.1 0 0 0 -.2-.59 3 3 0 0 0 -2.88-2c-.46 0-.93 0-1.39 0h-8.76a7.24 7.24 0 0 0 -1.39.11 2.89 2.89 0 0 0 -2.21 1.77 8.2 8.2 0 0 0 -.6 2.53 18.32 18.32 0 0 0 -.1 2.87 7.07 7.07 0 0 0 7.25 6.73h1.75zm-2.56-9a1.51 1.51 0 1 1 .1 3 1.51 1.51 0 1 1 -.1-3z" fill="#fefefe"/><path d="m82.47 55.6h2.16a7 7 0 0 0 6.69-5.6 10.52 10.52 0 0 0 .12-2.51 14.53 14.53 0 0 0 -.4-3.15 6.61 6.61 0 0 0 -.3-.85 3 3 0 0 0 -2.58-1.81 9.05 9.05 0 0 0 -1 0h-9.4a6.44 6.44 0 0 0 -1.38.12 2.87 2.87 0 0 0 -2.15 1.72 8.2 8.2 0 0 0 -.61 2.48 23.41 23.41 0 0 0 -.11 2.78 7 7 0 0 0 5.9 6.81 10 10 0 0 0 1.44.09h1.66zm-3.52-6a1.5 1.5 0 0 1 -1.51-1.52 1.52 1.52 0 0 1 1.56-1.48 1.51 1.51 0 0 1 0 3z" fill="#fefefe"/><path d="m59 17.72a5 5 0 0 0 4.65-3 4.31 4.31 0 0 0 -2.41-5.72 5 5 0 0 0 -6.24 2.17 4.34 4.34 0 0 0 2.91 6.45 4.53 4.53 0 0 0 1.09.1z" fill="#f6e8cf"/><path d="m54.91 46.6a1.51 1.51 0 1 0 .1 3 1.51 1.51 0 1 0 -.1-3z" fill="#050404"/><path d="m79 49.62a1.51 1.51 0 0 0 0-3 1.52 1.52 0 0 0 -1.52 1.5 1.5 1.5 0 0 0 1.52 1.5z" fill="#050404"/><g stroke-miterlimit="10"><rect fill="#f9d0a7" height="16" rx="8" stroke="#000" stroke-width="2" width="20" x="72" y="40.5"/><rect fill="#f9d0a7" height="16" rx="8" stroke="#000" stroke-width="2" width="20" x="47" y="40.5"/><path d="m67 48.5h5" fill="none" stroke="#000" stroke-width="2"/><path d="m72.55 47.78 19.17-.01" stroke="#b79274"/><path d="m47.55 47.78 19.17-.01" stroke="#b79274"/><rect fill="none" height="16" rx="8" stroke="#000" stroke-width="2" width="20" x="72" y="40.5"/><rect fill="none" height="16" rx="8" stroke="#000" stroke-width="2" width="20" x="47" y="40.5"/></g></svg>