<svg viewBox="0 0 157 185" xmlns="http://www.w3.org/2000/svg"><path d="m84.52 165.08v.36 12.27.4h30v-12.77c0-.17-.06-.24-.23-.24h-15.23a1.89 1.89 0 0 1 -.58 0h-14z" fill="#8c623a"/><path d="m73.54 178.11a1.35 1.35 0 0 1 0-.53q0-6 0-12a1.58 1.58 0 0 0 0-.53h-14a1.89 1.89 0 0 1 -.58 0h-13.96c-.63 0-.54 0-.54.56v12 .49z" fill="#8c633b"/><path d="m19 130a.25.25 0 0 1 .09.24 7.21 7.21 0 0 0 .78 2.92 9.38 9.38 0 0 0 4.6 4.61 9.35 9.35 0 0 0 4.84.85 9.37 9.37 0 0 0 6-2.86 9.48 9.48 0 0 0 2.49-4.79 9 9 0 0 0 .16-2.54 9.46 9.46 0 0 0 -1.56-4.53l-.24-.38a2 2 0 0 0 -.89-.26l-6-1.21q-2.68-.54-5.36-1.11a.52.52 0 0 0 -.35.06 10.35 10.35 0 0 0 -1.6 1.21 9.41 9.41 0 0 0 -2.8 5 3.44 3.44 0 0 0 -.1.84c0 .13 0 .28-.09.38z" fill="#f9d0a7"/><path d="m120.79 123.48-.55.92a9.22 9.22 0 0 0 -1.17 3.46 9.44 9.44 0 0 0 5.34 9.84 9.92 9.92 0 0 0 2.78.83 9.63 9.63 0 0 0 6-1.15 9.86 9.86 0 0 0 2.21-1.75 9.41 9.41 0 0 0 2.39-4.64c.08-.38 0-.79.26-1.12v-1.53c-.25-.33-.18-.74-.26-1.11a9.61 9.61 0 0 0 -2-4.19 9.24 9.24 0 0 0 -2.17-1.92 1.14 1.14 0 0 1 -.16-.15 1.61 1.61 0 0 0 -.31 0l-5.51 1.11-5.2 1c-.55.16-1.11.23-1.65.4z" fill="#f9d0a7"/><path d="m59.49 165.06h14a1.89 1.89 0 0 0 0-.58v-24.28c0-.69-.06-.59.6-.59q5 0 9.9 0c.54 0 .5-.06.5.51v24.37.59h14q0-8.33 0-16.64c0-3.13 0-6.27 0-9.4 0-3.7.1-7.41.16-11.11 0-2.86.07-5.72.11-8.59l.18-13c0-.78 0-1.56 0-2.34 0-.13 0-.31-.17-.35h-3.22c-.64 0-.56.07-.56-.58q0-11.92 0-23.86a1.22 1.22 0 0 0 0-.57c-.68 0-1.36 0-2 0a14.13 14.13 0 0 0 -1.87.82s0 0 0 .07 0 .3 0 .45v23.17c0 .57.06.52-.54.52h-22.05c-.61 0-.54.06-.54-.56v-22.34c0-.17 0-.33 0-.5a.74.74 0 0 0 -.32-.16 31.45 31.45 0 0 1 -3.35-1.38.7.7 0 0 0 -.34-.1v.58 23.79.36s-.08.26-.27.26h-4.58c-.24 0-.16.25-.16.4 0 .79 0 1.59.05 2.38l.06 5.35.18 13.18c0 2.1 0 4.2.09 6.29.22 11.22.09 22.43.13 33.65zm6.51-55.44a1.51 1.51 0 1 1 1.49-1.54 1.52 1.52 0 0 1 -1.49 1.54zm26-1.5a1.5 1.5 0 1 1 1.52 1.5 1.5 1.5 0 0 1 -1.52-1.5z" fill="#385269"/><path d="m91 79.46s0-.06 0-.07a14.13 14.13 0 0 1 1.87-.82 2.77 2.77 0 0 1 .68-.42 31.87 31.87 0 0 0 5.75-3.88 29.81 29.81 0 0 0 3-2.85 31.67 31.67 0 0 0 4-5.31c.56-.94 1.06-1.91 1.53-2.9a.58.58 0 0 1 .64-.4 6.53 6.53 0 0 0 2.7-.33 6.45 6.45 0 0 0 .06-12.17c-.45-.16-.41-.06-.41-.6 0-1-.08-2-.18-3 0-.06 0-.11-.05-.17-.17.12-.12.3-.12.46 0 1.31-.1 2.62-.17 3.94s-.22 2.68-.3 4a1.44 1.44 0 0 1 -.56 1.17 1.39 1.39 0 0 1 -2.21-.91 39.69 39.69 0 0 0 -1.89-6.3 58.73 58.73 0 0 0 -3-6.6c-.38-.71-.77-1.43-1.17-2.13-1-1.76-2.13-3.46-3.28-5.14-.27 0-.53 0-.8 0-.54.07-1.08.14-1.63.17a.91.91 0 0 1 -.38.22c-.75.34-1.5.69-2.26 1a66.66 66.66 0 0 1 -8.29 2.66 15 15 0 0 0 -1.94.52h.54 4a6.07 6.07 0 0 1 2.45.47 4.94 4.94 0 0 1 2.81 3.21 15.22 15.22 0 0 1 .54 6.5 9 9 0 0 1 -8.93 7.83c-1.35 0-2.7 0-4.05 0a8.82 8.82 0 0 1 -7.73-4.39 8.31 8.31 0 0 1 -1.12-3.22c-.06-.37-.06-.37-.46-.37h-2.29c-.41 0-.41 0-.47.4a9 9 0 0 1 -7 7.4 34.66 34.66 0 0 1 -6.91.14h-.13a9 9 0 0 1 -7.53-6.76c-.09-.34-.16-.69-.23-1a11.45 11.45 0 0 0 0 2.19c.06.41 0 .83.1 1.25a32.09 32.09 0 0 0 1.07 5.49 31.59 31.59 0 0 0 2.57 6.26 30.81 30.81 0 0 0 3 4.54 31.26 31.26 0 0 0 3 3.37 32.64 32.64 0 0 0 5.53 4.27c.73.44 1.47.87 2.23 1.26.12.06.26.09.34.21l.09.06a.7.7 0 0 1 .34.1 31.45 31.45 0 0 0 3.35 1.38.74.74 0 0 1 .32.16l.35.06a32.5 32.5 0 0 0 6 1.32c.87.1 1.75.19 2.62.23a29.09 29.09 0 0 0 4.57-.14c.92-.11 1.83-.22 2.74-.38a31.48 31.48 0 0 0 5.7-1.66 3.28 3.28 0 0 1 1-.32zm-23.5-5.83a10.67 10.67 0 0 1 -4-.75 6 6 0 0 1 -2.67-1.88 3.21 3.21 0 0 1 -.8-2.65 1.21 1.21 0 0 1 1-1.07 8 8 0 0 1 2.49 0c.77.06 1.54.18 2.31.22a29.71 29.71 0 0 0 4.62-.19c.34 0 .68 0 1-.09a7.68 7.68 0 0 1 1.79 0 2.71 2.71 0 0 1 1 .24 1.22 1.22 0 0 1 .71 1 3.05 3.05 0 0 1 -.39 1.89 5.45 5.45 0 0 1 -2.56 2.32 10.68 10.68 0 0 1 -4.53.96z" fill="#f9d0a7"/><path d="m64 78.63-.09-.06a10.07 10.07 0 0 0 -2.56.36c-1.17.22-2.34.43-3.5.7a32.24 32.24 0 0 0 -4.85 1.63c-1.33.55-2.63 1.14-3.9 1.82a51 51 0 0 0 -6.24 3.92c-.7.51-1.38 1-2.06 1.58s-1.11 1-1.66 1.43c-1.08 1-2.07 2-3.08 3a37.68 37.68 0 0 0 -2.61 3 47.76 47.76 0 0 0 -3.16 4.45c-.66 1-1.3 2.08-1.86 3.18-.3.6-.64 1.18-.93 1.79-.8 1.69-1.55 3.4-2.2 5.15a67.71 67.71 0 0 0 -2.39 8c-.14.58-.25 1.17-.37 1.75-.06.26 0 .33.28.39s.35.07.53.09a.28.28 0 0 1 .24.18.52.52 0 0 1 .35-.06q2.67.57 5.36 1.11l6 1.21a2 2 0 0 1 .89.26c.22-.12.43 0 .64 0 .47.11.49 0 .52-.37a22.73 22.73 0 0 1 .84-4.16 29.55 29.55 0 0 1 1.26-3.64c.38-.88.76-1.75 1.21-2.6a33.57 33.57 0 0 1 5.51-7.59 35.27 35.27 0 0 1 6.51-5.3 40.05 40.05 0 0 1 4.78-2.58 7.07 7.07 0 0 1 1.43-.59c.11.07.08.17.08.25.13 1.34 0 2.7.11 4 0 .86 0 1.73.07 2.6h4.58c.19 0 .28-.06.27-.26s0-.24 0-.36v-23.7c0-.21 0-.39 0-.58z" fill="#e2e2e2"/><path d="m94.93 78.59a1.22 1.22 0 0 1 0 .57q.07 11.94.07 23.84c0 .65-.08.58.56.58h3.28c0-.83 0-1.66 0-2.48.11-1.29 0-2.57.09-3.86 0-.46.08-.92.07-1.38 0-.14.07-.2.2-.14.3.11.59.22.88.35a38.21 38.21 0 0 1 4 2.06 34.77 34.77 0 0 1 3.43 2.3c.66.51 1.3 1 1.94 1.59s1.33 1.25 2 1.91a24.47 24.47 0 0 1 1.82 2.1 30.24 30.24 0 0 1 2.49 3.66c.53.92 1 1.87 1.46 2.84s.82 2 1.18 3a25.83 25.83 0 0 1 .85 3 28.42 28.42 0 0 1 .56 3.17c.05.55.13 1.09.16 1.64 0 .2.11.27.28.24a2.43 2.43 0 0 1 .53-.08c.54-.17 1.1-.24 1.66-.36l5.2-1 5.51-1.11a1.61 1.61 0 0 1 .31 0 4.55 4.55 0 0 1 1.2-.28c.31 0 .33-.06.26-.36q-.59-3-1.46-5.86a61.12 61.12 0 0 0 -2.09-5.87c-.65-1.59-1.39-3.15-2.19-4.68a55.28 55.28 0 0 0 -3.63-5.98c-.72-1-1.5-2-2.29-3a52.77 52.77 0 0 0 -4.56-4.89c-.65-.63-1.35-1.22-2-1.82-1-.84-2-1.6-3-2.37-1.29-1-2.63-1.82-4-2.65a48.93 48.93 0 0 0 -4.53-2.39 35.68 35.68 0 0 0 -6-2.27 1.35 1.35 0 0 0 -.35-.06z" fill="#e2e2e2"/><path d="m112.68 29a15.36 15.36 0 0 0 -.22-3.58 22.63 22.63 0 0 0 -7.1-13 30.46 30.46 0 0 0 -9.11-5.91 37.14 37.14 0 0 0 -9.77-2.66 37.61 37.61 0 0 0 -6.19-.33.89.89 0 0 1 -.09.39l-1 3.33-1.62 5c-.47 1.5-1 3-1.43 4.48-.81 2.52-1.61 5-2.42 7.55-.44 1.35-.89 2.7-1.31 4.05a4.42 4.42 0 0 0 -.42 1.37c.24 0 .48-.06.71-.07 1.71 0 3.42 0 5.13-.08s3.29 0 4.94-.09 3.5 0 5.26-.09c1.59-.1 3.2 0 4.8-.08 1.92-.09 3.84 0 5.75-.11 1.5-.07 3 0 4.5-.08 1.73-.09 3.47 0 5.21-.09 1.47-.07 2.93 0 4.38 0z" fill="#fdb61e"/><path d="m72 29.69a4.42 4.42 0 0 1 .35-1.34c.42-1.35.87-2.7 1.31-4.05.81-2.51 1.61-5 2.42-7.55.48-1.49 1-3 1.43-4.48l1.62-5 1-3.33a.89.89 0 0 0 .09-.39c-.83-.3-1.69-.49-2.54-.71-1.62-.43-3.26-.8-4.91-1.07a29.16 29.16 0 0 0 -6-.37 45.6 45.6 0 0 0 -10.41 1.66c-.23.07-.51.07-.66.24s0 .46 0 .69c.09.86.2 1.72.29 2.59a13.9 13.9 0 0 1 2.01-.58l1.41-.21a8.61 8.61 0 0 1 3.12 0 7.53 7.53 0 0 1 4.14 2.28 6.89 6.89 0 0 1 1.52 7 7.6 7.6 0 0 1 -2 3.17 8.1 8.1 0 0 1 -3.32 1.89 8 8 0 0 1 -1.53.31 16.54 16.54 0 0 1 -2.22.23c-.51 0-1-.09-1.52-.1a4.88 4.88 0 0 0 .09.93c.07.67.12 1.33.2 2s.2 1.32.24 2 .15 1.39.21 2.09c0 .32.06.65.1 1a9.1 9.1 0 0 1 .15 1.38c1.33 0 2.66 0 4-.07 1.82-.1 3.65 0 5.48-.09 1.25-.17 2.6-.12 3.93-.12z" fill="#ffc54c"/><path d="m95.41 35.2c.55 0 1.09-.1 1.63-.17h.8c.11-.12.25-.08.38-.09.68-.06 1.36-.12 2-.2s1.27-.16 1.9-.25 1.54-.19 2.3-.3l1.89-.33c1-.17 2-.38 3-.64a8.81 8.81 0 0 1 1.43-.36s.07-.11.12-.13a11.18 11.18 0 0 0 1.5-.77c.09-.2.28-.36.26-.61-.94 0-1.88 0-2.83.06-2 .07-3.92 0-5.88.1-1.42.08-2.84 0-4.26.08-1.78.11-3.56 0-5.34.1-1.62.1-3.23 0-4.85.08-2 .09-4 0-6 .1-1.37.07-2.75 0-4.13.08-1.76.11-3.53 0-5.29.1-1.6.1-3.2 0-4.81.08s-3.5 0-5.25.09-3.29 0-4.94.09-3.41 0-5.11.09-3.38 0-5.08.09-3.38 0-5.07.09c-1 .08-2.07 0-3.1 0-.13 0-.28 0-.38-.09a1.06 1.06 0 0 0 -.66.3 2.06 2.06 0 0 0 -.49 1.12v.39c.16.2.26.43.44.62a4 4 0 0 0 1.52.92 15 15 0 0 0 3 .74c1.26.2 2.54.29 3.81.41 1.06-.06 2.11.13 3.17.1 2 0 4 0 6-.08 1.3-.09 2.6 0 3.9-.09.76-.07 1.53 0 2.29 0a8.09 8.09 0 0 0 1-.08c1 0 2.09 0 3.14-.09.83-.08 1.67 0 2.51-.08s1.76 0 2.64-.1c.67-.07 1.35 0 2-.07.88 0 1.76-.09 2.64-.11s1.79-.17 2.79-.13h.09c.88-.12 1.78-.1 2.67-.16.7 0 1.39-.15 2.1-.1h.09a13.94 13.94 0 0 1 2-.14 11.23 11.23 0 0 1 2.09-.12h.14a12.3 12.3 0 0 1 1.82-.17c.56 0 1.13-.1 1.7-.13.39 0 .8 0 1.2-.09s1.01-.08 1.51-.15z" fill="#ffc54c"/><path d="m46 49.73c.07.35.14.7.23 1a9 9 0 0 0 7.53 6.76h.13a34.66 34.66 0 0 0 6.91-.14 9 9 0 0 0 7-7.4c.06-.4.06-.4.47-.4h2.29c.4 0 .4 0 .46.37a8.31 8.31 0 0 0 1.16 3.23 8.82 8.82 0 0 0 7.82 4.45h4.05a9 9 0 0 0 8.85-7.82 15.22 15.22 0 0 0 -.54-6.5 4.94 4.94 0 0 0 -2.81-3.21 6.07 6.07 0 0 0 -2.45-.47h-4-.54q-2.16 0-4.32 0c-.77 0-1.55 0-2.33.09a4.9 4.9 0 0 0 -3.91 2.75 7.55 7.55 0 0 0 -.6 1.69 15.23 15.23 0 0 0 -.4 3.16c0 .21 0 .33-.3.32h-2.45c-.21 0-.29-.06-.28-.28a12.79 12.79 0 0 0 -.1-1.52 9.65 9.65 0 0 0 -.81-3.26 4.85 4.85 0 0 0 -3.27-2.73 7.48 7.48 0 0 0 -1.79-.21h-9.7a12 12 0 0 0 -1.8.14 4.88 4.88 0 0 0 -3.5 2.65l-.09.09a.16.16 0 0 1 -.07.2 14.34 14.34 0 0 0 -.84 5.42zm11 5.88h-1.9a7 7 0 0 1 -7.1-6.91 22.52 22.52 0 0 1 .17-3.18 7.37 7.37 0 0 1 .62-2.2 2.88 2.88 0 0 1 2-1.58 6 6 0 0 1 1.34-.13h9.54 1a3 3 0 0 1 2.71 2 6.75 6.75 0 0 1 .24.72 15.09 15.09 0 0 1 .38 4.95 7 7 0 0 1 -7 6.33zm25-14h4.67a7.14 7.14 0 0 1 1.13.06 2.91 2.91 0 0 1 2.46 1.7 5.91 5.91 0 0 1 .34.88 15.05 15.05 0 0 1 .4 3.47 9.11 9.11 0 0 1 -.12 2.15 7 7 0 0 1 -7 5.74h-3.79a8.22 8.22 0 0 1 -1-.06 7 7 0 0 1 -6.09-6.86 21.92 21.92 0 0 1 .1-2.69 8.54 8.54 0 0 1 .59-2.49 2.89 2.89 0 0 1 2.16-1.78 6.54 6.54 0 0 1 1.25-.12z" fill="#030302"/><path d="m40.33 32.49c.1.13.25.09.38.09 1 0 2.07.06 3.1 0 1.69-.12 3.39 0 5.07-.09s3.39 0 5.08-.09 3.41 0 5.11-.09 3.3 0 4.94-.09 3.51 0 5.25-.09 3.21 0 4.81-.08c1.76-.12 3.53 0 5.29-.1 1.38-.09 2.76 0 4.13-.08 2-.1 4 0 6-.1 1.62-.08 3.23 0 4.85-.08 1.78-.12 3.56 0 5.34-.1 1.42-.09 2.84 0 4.26-.08 2-.1 3.92 0 5.88-.1 1 0 1.89-.05 2.83-.06 0-.79 0-1.57 0-2.36-1.45 0-2.91 0-4.36 0-1.74.09-3.48 0-5.21.09-1.5.09-3 0-4.5.08-1.91.09-3.83 0-5.75.11-1.6.07-3.21 0-4.8.08-1.76.1-3.51 0-5.26.09s-3.3 0-4.94.09-3.42 0-5.13.08c-.23 0-.47 0-.71.07-1.35 0-2.7-.05-4 0-1.83.09-3.66 0-5.48.09-1.33.08-2.66 0-4 .07-3.75.12-7.5.17-11.25.19a5.84 5.84 0 0 1 -1.36.44s0 .07-.08 0a2.73 2.73 0 0 1 -.61.26l-4.57 1.56c-.1.08-.24.08-.31.2z" fill="#ffd477"/><path d="m110.79 32.84a8.81 8.81 0 0 0 -1.43.36c-1 .26-2 .47-3 .64l-1.89.33c-.76.11-1.53.2-2.3.3s-1.26.18-1.9.25-1.36.14-2 .2c-.13 0-.27 0-.38.09 1.15 1.68 2.26 3.38 3.28 5.14.4.7.79 1.42 1.17 2.13a58.73 58.73 0 0 1 3 6.6 39.69 39.69 0 0 1 1.89 6.3 1.39 1.39 0 0 0 2.21.91 1.44 1.44 0 0 0 .56-1.17c.08-1.34.23-2.68.3-4s.17-2.63.17-3.94c0-.16 0-.34.12-.46-.09-1 0-2.1 0-3.14 0-1.47-.12-2.94-.18-4.4a3.78 3.78 0 0 1 .18-1.37 9.84 9.84 0 0 0 .47-3.41c0-.18 0-.36.1-.51-.21 0-.19-.18-.2-.33s.04-.36-.17-.52z" fill="#d1a44b"/><path d="m57.52 20.52c.51 0 1 .09 1.52.1a16.54 16.54 0 0 0 2.22-.23 8 8 0 0 0 1.53-.31 8.1 8.1 0 0 0 3.32-1.89 7.6 7.6 0 0 0 2-3.17 6.89 6.89 0 0 0 -1.52-6.95 7.53 7.53 0 0 0 -4.09-2.28 8.61 8.61 0 0 0 -3.12 0l-1.38.21a13.9 13.9 0 0 0 -2 .59 4.82 4.82 0 0 1 -.73.43 7.52 7.52 0 0 0 -3.74 5.48 6.58 6.58 0 0 0 .47 3.6 1.26 1.26 0 0 1 .16.46.5.5 0 0 1 .19.24 7.24 7.24 0 0 0 3.76 3.26c.45.19.94.29 1.41.46zm1.06-2.78a4.83 4.83 0 0 1 -1.64-.28 4.31 4.31 0 0 1 -2.43-6.22 5 5 0 0 1 6.11-2.24 4.28 4.28 0 0 1 2.47 6 4.94 4.94 0 0 1 -4.51 2.74z" fill="#d6972a"/><path d="m57.52 20.52c-.47-.17-1-.27-1.43-.46a7.24 7.24 0 0 1 -3.76-3.26.5.5 0 0 0 -.19-.24 23.17 23.17 0 0 0 -3.06 5.1 21.69 21.69 0 0 0 -1.7 6.07c-.07.5-.09 1-.13 1.51v.83c3.75 0 7.5-.07 11.25-.19a9.1 9.1 0 0 0 -.15-1.38c0-.32-.07-.65-.1-1-.06-.7-.17-1.39-.21-2.09s-.17-1.33-.24-2-.13-1.33-.2-2a4.88 4.88 0 0 1 -.08-.89z" fill="#fdb61e"/><path d="m48 37c-1.27-.12-2.55-.21-3.81-.41a15 15 0 0 1 -3-.74 4 4 0 0 1 -1.52-.92c-.18-.19-.28-.42-.44-.62a1.23 1.23 0 0 0 .12 1.16 3 3 0 0 0 .88.9 8.12 8.12 0 0 0 1.77.93 26.21 26.21 0 0 0 5.58 1.33 5.4 5.4 0 0 0 .42-1.63z" fill="#8c623a"/><path d="m48 37a5.4 5.4 0 0 1 -.4 1.64 3.73 3.73 0 0 1 -.18 1c-.15.85-.33 1.7-.49 2.54a1.22 1.22 0 0 0 0 .27l.07-.05a4.88 4.88 0 0 1 3.51-2.66 1 1 0 0 1 .05-.35c.2-.77.39-1.54.59-2.3-1.06.03-2.15-.16-3.15-.09z" fill="#d1a44b"/><path d="m110.79 32.84c.16.14.09.33.1.5s0 .3.2.33a3.36 3.36 0 0 0 1.27-1.47.38.38 0 0 0 0-.26 11.18 11.18 0 0 1 -1.5.77s-.03.09-.07.13z" fill="#d6972a"/><g fill="#d1a44b"><path d="m47.26 30.07c0-.27 0-.55 0-.83l-1.19 1.07a.36.36 0 0 0 -.16.2 5.84 5.84 0 0 0 1.35-.44z"/><path d="m46.84 42.68a.16.16 0 0 0 .07-.2.16.16 0 0 0 -.07.2z"/><path d="m45.83 30.52c0 .05.06 0 .08 0a.08.08 0 0 0 -.08 0z"/></g><path d="m91 79.46a3.28 3.28 0 0 0 -1 .32 31.48 31.48 0 0 1 -5.64 1.58c-.91.16-1.82.27-2.74.38a29.09 29.09 0 0 1 -4.57.14c-.87 0-1.75-.13-2.62-.23a32.5 32.5 0 0 1 -6-1.32l-.43-.06v.5 22.23c0 .62-.07.56.54.56h21.91c.6 0 .54.05.54-.52v-23.13c.01-.15.01-.3.01-.45z" fill="#e2e2e2"/><path d="m66 109.62a1.51 1.51 0 0 0 1.49-1.54 1.51 1.51 0 1 0 -1.49 1.54z" fill="#fdb61e"/><path d="m92 108.12a1.5 1.5 0 1 0 3 0 1.5 1.5 0 1 0 -3 0z" fill="#fdb61e"/><path d="m67.47 73.63a10.68 10.68 0 0 0 4.52-1 5.45 5.45 0 0 0 2.59-2.27 3.05 3.05 0 0 0 .42-1.85 1.22 1.22 0 0 0 -.71-1 2.71 2.71 0 0 0 -1-.24 7.68 7.68 0 0 0 -1.79 0c-.34.06-.68.06-1 .09a29.71 29.71 0 0 1 -4.62.19c-.77 0-1.54-.16-2.31-.22a8 8 0 0 0 -2.49 0 1.21 1.21 0 0 0 -1 1.07 3.21 3.21 0 0 0 .8 2.65 6 6 0 0 0 2.65 1.85 10.67 10.67 0 0 0 3.94.73z" fill="#fff"/><path d="m78.22 39.59q2.16 0 4.32 0a15 15 0 0 1 1.94-.52 66.66 66.66 0 0 0 8.29-2.66c.76-.3 1.51-.65 2.26-1a.91.91 0 0 0 .38-.22c-.5.07-1 0-1.5.15s-.81.06-1.2.09c-.57 0-1.14.08-1.7.13a12.3 12.3 0 0 0 -1.82.15h-.14a11.23 11.23 0 0 0 -2.09.12 13.94 13.94 0 0 0 -2 .14h-.09c-.71 0-1.4.1-2.1.1a.75.75 0 0 1 -.29.27z" fill="#d1a44b"/><path d="m78.22 39.59 4.21-3.22a.75.75 0 0 0 .29-.27c-.89.06-1.79 0-2.67.16h-.05c-.92 0-1.82.11-2.73.11a5 5 0 0 1 -1.09.19c-.94.14-1.88.29-2.83.42s-1.68.19-2.53.3c-1.13.13-2.27.29-3.41.42s-2 .17-3 .3c-.42 0-.83.07-1.25.13s-.86.09-1.29.12c-.1 0-.22 0-.26-.12a.25.25 0 0 1 .13-.3c.12-.07.25-.12.36-.19a8.8 8.8 0 0 0 1.22-.74c-.76 0-1.53 0-2.29 0-1.3.11-2.6 0-3.9.09-2 .12-4 0-6 .08-.2.76-.39 1.53-.59 2.3a1 1 0 0 0 -.05.35 11.79 11.79 0 0 1 1.79-.14h9.72a7.48 7.48 0 0 1 1.82.21 4.85 4.85 0 0 1 3.27 2.73 9.65 9.65 0 0 1 .81 3.26 12.79 12.79 0 0 1 .1 1.52c0 .22.07.29.28.28h2.47c.26 0 .29-.11.3-.32a15.23 15.23 0 0 1 .36-3.16 7.55 7.55 0 0 1 .6-1.69 4.9 4.9 0 0 1 3.91-2.76c.75-.08 1.53-.01 2.3-.06z" fill="#f9d0a7"/><path d="m63.3 36.9a8.8 8.8 0 0 1 -1.22.74c-.11.07-.24.12-.36.19a.25.25 0 0 0 -.13.3c0 .13.16.12.26.12.43 0 .87-.06 1.29-.12s.83-.08 1.25-.13c1-.13 2-.19 3-.3s2.28-.29 3.41-.42c.85-.11 1.69-.19 2.53-.3s1.89-.28 2.83-.42a5 5 0 0 0 1.09-.19c-.88 0-1.76.06-2.64.11-.67 0-1.35 0-2 .07-.88.09-1.77 0-2.64.1s-1.68 0-2.51.08c-1 .11-2.09.05-3.14.09a8.09 8.09 0 0 1 -1.02.08z" fill="#d1a44b"/><path d="m57 55.61h1.94a7 7 0 0 0 7-6.33 15.09 15.09 0 0 0 -.35-4.87 6.75 6.75 0 0 0 -.24-.72 3 3 0 0 0 -2.71-2c-.33 0-.65 0-1 0h-9.51a6 6 0 0 0 -1.34.13 2.88 2.88 0 0 0 -2 1.58 7.37 7.37 0 0 0 -.62 2.2 22.52 22.52 0 0 0 -.17 3.1 7 7 0 0 0 7.11 6.91zm-2.51-6a1.46 1.46 0 0 1 -1.49-1.52 1.47 1.47 0 0 1 1.48-1.48 1.5 1.5 0 1 1 0 3z" fill="#fefefe"/><path d="m82 41.61h-4.9a6.54 6.54 0 0 0 -1.25.12 2.89 2.89 0 0 0 -2.16 1.78 8.54 8.54 0 0 0 -.59 2.49 21.92 21.92 0 0 0 -.1 2.69 7 7 0 0 0 6.1 6.86 8.22 8.22 0 0 0 1 .06h3.78a7 7 0 0 0 7-5.74 9.11 9.11 0 0 0 .12-2.15 15.05 15.05 0 0 0 -.43-3.47 5.91 5.91 0 0 0 -.34-.88 2.91 2.91 0 0 0 -2.46-1.7 7.14 7.14 0 0 0 -1.13-.06zm-3.44 8a1.5 1.5 0 1 1 0-3 1.5 1.5 0 1 1 0 3z" fill="#fefefe"/><path d="m58.58 17.74a4.94 4.94 0 0 0 4.51-2.84 4.28 4.28 0 0 0 -2.47-6 5 5 0 0 0 -6.11 2.29 4.31 4.31 0 0 0 2.43 6.22 4.83 4.83 0 0 0 1.64.33z" fill="#f6e8cf"/><path d="m54.48 49.61a1.5 1.5 0 1 0 -1.48-1.52 1.46 1.46 0 0 0 1.48 1.52z" fill="#030302"/><path d="m78.52 49.61a1.5 1.5 0 1 0 -1.52-1.48 1.5 1.5 0 0 0 1.52 1.48z" fill="#030302"/></svg>