<svg viewBox="0 0 157 184" xmlns="http://www.w3.org/2000/svg"><path d="m44.58 30.75s-.58 6.75 38.42 7.75 34.77-5.41 34.77-5.41l-46.77-8.59z" fill="#af741e"/><path d="m58.5 137h14v40h-14z" fill="#385269"/><path d="m58 164.5h30v13h-30z" fill="#8c6239"/><path d="m83.5 138h14v39h-14z" fill="#385269"/><path d="m83.5 164h29v13h-29z" fill="#8c6239"/><path d="m97.5 96v44h-39v-45c-6.5 17.5 2.5 41.5 2.5 41.5l-15 3c-18-56 17-61 17-61l-4.5-.5h35l5 1 3.5.5s1 38 20 42l-9 10s-18-1-15.5-35.5" fill="#e2e2e2"/><circle cx="122.5" cy="131" fill="#f9d0a7" r="9.5"/><path d="m100 95.5-3 37-13-1 2.75-54h9.25l6 2s1 37 20 42l-8 11s-25-7-14-37" fill="#e2e2e2"/><path d="m65 77.5h6.5l2.5 52-15 8-1-43c-4 24 2 40 2 40l-14 5c-20-59 16-62 16-62z" fill="#e2e2e2"/><path d="m97.5 147.5h-39l-.5-46h40z" fill="#385269"/><path d="m62 76.5h4v32h-4z" fill="#385269"/><path d="m89 76.5h4v32h-4z" fill="#385269"/><circle cx="63.5" cy="106" fill="#fdb61e" r="1.5"/><circle cx="91" cy="106" fill="#fdb61e" r="1.5"/><ellipse cx="78.61" cy="48.64" fill="#f9d0a7" rx="32.39" ry="32.14"/><path d="m97 67.73c0 2.63-3.36 4.77-7.5 4.77s-7.5-2.14-7.5-4.77 3.86-1.23 8-1.23 7-1.41 7 1.23z" fill="#fff"/><circle cx="47.95" cy="55.28" fill="#f9d0a7" r="6.45"/><path d="m79.59 39.32c-2.59-.17-22.91-3.74-28.59-13.82 0 0 6-17 23-20 0 0 10.46-1.7 23.2 7.7.37.28 5.86 6.35 6.12 6.73 1.92 2.73 6.2 9.82 11.94 11.87a.3.3 0 0 1 -.06.58c-5 .54-21 2-29.24-.84l9.36 5.22a.2.2 0 0 1 -.1.38c-4.14-.39-20.88-2-23.17-3.79l7.6 5.79a.1.1 0 0 1 -.06.18z" fill="#ddae47"/><path d="m110.36 43.81c-.5-5.47-1.36-6.81-2.26-11.81a1.09 1.09 0 0 0 -.58-.78l-22.76-11.57a1 1 0 0 0 -.63-.11l-22.37 2.81h-10.3a1.09 1.09 0 0 0 -.81 1.81 1.08 1.08 0 0 1 -.24 1.64c-2 1.21-5.73 4.39-3.93 10.72a1.17 1.17 0 0 0 .09.24c.44.8-.73 4.45.47 17.23a1.37 1.37 0 0 0 2.71.15c2.11-10.14 9.64-21.74 14.07-25.72a1.06 1.06 0 0 1 .92-.23l39.75 5.43a1.08 1.08 0 0 1 .51.26c.54.51 1.72 5.17 2.76 10.3a1.31 1.31 0 0 0 2.6-.37z" fill="#d1a44a"/><path d="m85 47.5h5" fill="none" stroke="#000" stroke-miterlimit="10" stroke-width="2"/><path d="m95 39.5h10a5 5 0 0 1 5 5v3a8 8 0 0 1 -8 8h-4a8 8 0 0 1 -8-8v-3a5 5 0 0 1 5-5z" fill="#fff" stroke="#000" stroke-miterlimit="10" stroke-width="2"/><path d="m70 39.5h10a5 5 0 0 1 5 5v3a8 8 0 0 1 -8 8h-4a8 8 0 0 1 -8-8v-3a5 5 0 0 1 5-5z" fill="#fff" stroke="#000" stroke-miterlimit="10" stroke-width="2"/><circle cx="78.5" cy="47" r="1.5"/><circle cx="102.5" cy="47" r="1.5"/><circle cx="55.5" cy="141" fill="#f9d0a7" r="9.5"/><path d="m76.66 2.39c18.08.32 32.91 12.23 33.11 26.61l-65.49-1.17c-.2-14.37 14.29-25.76 32.38-25.44z" fill="#fdb61e"/><path d="m101.36 2.17-2.9 26.62-13.41-.23-8.39-26.17c3.79-1 8.17-2.22 12.46-2.14a44.77 44.77 0 0 1 12.24 1.92z" fill="#ffc54c"/><path d="m102.13 36c-20.52-.36-57.76-1.83-57.82-5.75l72.81 1.29s5.53 4.83-15 4.46z" fill="#ffc54c"/><path d="m44.31 30.2 72.82 1.29-7.36-2.49-65.49-1.17z" fill="#ffd478"/><ellipse cx="96.3" cy="11.92" fill="#d69629" rx="7.35" ry="7.85" transform="matrix(.24293785 -.97004185 .97004185 .24293785 61.34 102.44)"/><ellipse cx="97.7" cy="12.12" fill="#d69629" rx="7.35" ry="7.85" transform="matrix(.24293785 -.97004185 .97004185 .24293785 62.2 103.95)"/><ellipse cx="98.25" cy="12.08" fill="#fff" opacity=".78" rx="4.5" ry="4.81" transform="matrix(.32176999 -.94681787 .94681787 .32176999 55.2 101.22)"/><g stroke-miterlimit="10"><rect fill="#f9d0a7" height="16" rx="8" stroke="#000" stroke-width="2" width="20" x="90" y="39.5"/><rect fill="#f9d0a7" height="16" rx="8" stroke="#000" stroke-width="2" width="20" x="65" y="39.5"/><path d="m85 47.5h5" fill="none" stroke="#000" stroke-width="2"/><path d="m90.55 46.78 19.17-.01" stroke="#b79274"/><path d="m65.55 46.78 19.17-.01" stroke="#b79274"/><rect fill="none" height="16" rx="8" stroke="#000" stroke-width="2" width="20" x="90" y="39.5"/><rect fill="none" height="16" rx="8" stroke="#000" stroke-width="2" width="20" x="65" y="39.5"/></g></svg>