<svg viewBox="0 0 157 185" xmlns="http://www.w3.org/2000/svg"><path d="m43.54 139c.07-1.19.14-2.39.22-3.58s.18-2.5.26-3.74c.14-2.07.28-4.14.4-6.21 0-.83.24-.78-.73-.84l-7.54-.5c-1.45-.09-2.91-.17-4.36-.28-.27 0-.31.09-.32.31 0 .74-.11 1.47-.16 2.21l-.45 7.12q-.32 4.74-.62 9.48l-.51 7.74c0 .58-.07 1.17-.12 1.75 0 .23 0 .33.29.35 1.53.09 3.05.2 4.57.3l6.76.43a.33.33 0 0 1 .24.08h1.13v-.88a.88.88 0 0 1 0-.16c.17-1.23.17-2.48.28-3.72.09-1.05.14-2.11.21-3.16s.15-2 .2-3c.07-1.17.16-2.41.25-3.7z" fill="#8c633a"/><path d="m0 79a.3.3 0 0 1 .09.27 8.67 8.67 0 0 0 2.1 5 9.36 9.36 0 0 0 3.25 2.51 9 9 0 0 0 2.74.8 9.21 9.21 0 0 0 4.7-.58 9.17 9.17 0 0 0 3.95-2.84c.28-.34.53-.7.78-1.07a3 3 0 0 0 -.45-1.4c-.55-1.32-1.14-2.63-1.7-4l-1.71-4-1.62-3.69c-.11-.27-.07-.36.23-.44a2.39 2.39 0 0 0 .72-.22 9.58 9.58 0 0 0 -2.53-.63 9.2 9.2 0 0 0 -7 2 9.35 9.35 0 0 0 -3.41 5.63c-.06.3.08.62-.12.9z" fill="#f9d0a7"/><path d="m157.08 78.27a1.27 1.27 0 0 1 -.2-.63 9.52 9.52 0 0 0 -7.13-7.75 8.65 8.65 0 0 0 -3.4-.19c-.47.07-.93.18-1.41.24-.06.14-.14.27-.19.42-.45 1.23-.9 2.47-1.34 3.71q-1.46 4.07-2.89 8.15c-.13.37-.28.74-.4 1.11s-.22.31-.46.22a1.36 1.36 0 0 0 -.6-.14 4.83 4.83 0 0 0 .94 1.59 9.34 9.34 0 0 0 6 3.54 9.16 9.16 0 0 0 7.2-1.78 9.38 9.38 0 0 0 3.64-5.76c.07-.33 0-.69.24-1z" fill="#f9d0a7"/><path d="m65.33 1.33v.1h3.59v-.1z" fill="#ffd477"/><path d="m43.54 139c-.09 1.25-.18 2.49-.24 3.73 0 1-.14 2-.2 3s-.12 2.11-.21 3.16c-.11 1.24-.11 2.49-.28 3.72a.88.88 0 0 0 0 .16h5.35 12.39 6.48l10.59-.06c.24 0 .5.09.64-.25 0-.12.25 0 .38 0h4.17 9.67l21.13-.08h.46a1.32 1.32 0 0 0 -.56 0h-3.18c-.77 0-.7.06-.7-.73q0-6.46 0-12.93l-11.14.29c-.7 0-.71 0-.7-.7q.07-7.11.14-14.22c0-2.66.07-5.31.1-8 0-.12 0-.24 0-.36a5 5 0 0 1 .05-1.45.94.94 0 0 1 0-.41 2.42 2.42 0 0 1 0-.25v-4.06q0-3.12.08-6.22c0-.49 0-.49-.46-.49h-2.89c-.65 0-.59.07-.6-.61v-22.64c0-.17 0-.34 0-.51 0-.4 0-.8 0-1.2 0-.15 0-.26-.2-.27a1.33 1.33 0 0 0 -.48.14 35.42 35.42 0 0 1 -3.33 1.64v22.67c0 .6 0 .56-.56.56h-21.85c-.66 0-.6.06-.6-.62v-21.18c0-.17 0-.35 0-.52a.52.52 0 0 0 -.3-.18 32.16 32.16 0 0 1 -3.39-1.39.51.51 0 0 0 -.34-.07v.93.57 21.89c0 .64 0 .56-.59.57h-4.37v4.06l.12 11.45q.06 6 .13 11.92c0 2.93.07 5.85.1 8.78 0 .44 0 .44-.46.44l-7.34-.12c-2.32-.03-4.66-.08-7.01-.16zm48.95-30.42a1.5 1.5 0 1 1 1.51-1.43 1.5 1.5 0 0 1 -1.51 1.47zm-27.49-3a1.5 1.5 0 1 1 -1.51 1.48 1.5 1.5 0 0 1 1.51-1.43z" fill="#385269"/><path d="m94 79.09v.51 22.4c0 .68-.05.6.6.61h2.94c.46 0 .47 0 .46.49q0 3.1-.08 6.22v4.06a2.42 2.42 0 0 0 0 .25c.09 0 .18-.05.19-.14a1.1 1.1 0 0 0 0-.26c-.06-1 .09-2 .13-3.07 0-1.28.13-2.55.2-3.83s.13-2.52.2-3.78.15-2.62.21-3.93c0-.56.08-1.13.09-1.69a.89.89 0 0 1 .19-.52c.61-.84 1.26-1.65 1.93-2.45.8-1 1.72-1.81 2.6-2.69a27.18 27.18 0 0 1 3.15-2.62 31.14 31.14 0 0 1 5.44-3.17 34.41 34.41 0 0 1 5.14-1.9 38.57 38.57 0 0 1 3.83-.87c.94-.16 1.89-.26 2.84-.37a48.61 48.61 0 0 1 6.61-.16 18.35 18.35 0 0 1 2.08.15c.64.09 1.29.15 1.93.23a33.13 33.13 0 0 1 3.71.67 1.55 1.55 0 0 1 .64.16 1.36 1.36 0 0 1 .6.14c.24.09.38 0 .46-.22s.27-.74.4-1.11q1.44-4.08 2.89-8.15c.44-1.24.89-2.48 1.34-3.71.05-.15.13-.28.19-.42.05-.31-.16-.43-.4-.5-.88-.28-1.76-.58-2.64-.83a41.32 41.32 0 0 0 -4.13-1c-.8-.14-1.61-.25-2.42-.38s-1.59-.13-2.38-.28a1.23 1.23 0 0 0 -.2 0c-1.73-.13-3.45-.08-5.18-.11-1 0-2 .08-3.07.14-.76 0-1.52.16-2.28.26a40.88 40.88 0 0 0 -4.91.94 46.5 46.5 0 0 0 -5.88 1.94 49 49 0 0 0 -4.94 2.27 33.24 33.24 0 0 0 -5.23 3.4c-1.07.85-2.1 1.75-3.1 2.68-.19.19-.41.35-.62.53s-.33.09-.5.09z" fill="#e2e2e2"/><path d="m109.46 138.46q0 6.47 0 12.93c0 .79-.07.72.7.73h3.18a1.32 1.32 0 0 1 .56 0h3.24 4.78c.5 0 .5 0 .51-.5v-6q0-10.08.1-20.15c0-1 0-1.92 0-2.88 0-.48 0-.49-.45-.5-1 0-2 0-3 0h-9-.08c-.43 0-.44 0-.45.46v5.19c0 3.51 0 7-.07 10.54-.01.05-.02.11-.02.18z" fill="#8c633a"/><path d="m97.93 114.06a5 5 0 0 0 -.05 1.45s.08 0 .09-.05a2.31 2.31 0 0 0 -.04-1.4z" fill="#e2e2e2"/><path d="m90 79.4a35.42 35.42 0 0 0 3.33-1.64 1.33 1.33 0 0 1 .48-.14c.11-.26.37-.35.58-.48a32.2 32.2 0 0 0 4.33-3.14 33.43 33.43 0 0 0 3-3 31.76 31.76 0 0 0 5.13-7.83.48.48 0 0 1 .54-.34 7.37 7.37 0 0 0 2.29-.18 6.29 6.29 0 0 0 3.91-2.94 6.14 6.14 0 0 0 .89-3.89 6.37 6.37 0 0 0 -3-4.89 6.27 6.27 0 0 0 -1.39-.65.4.4 0 0 1 -.33-.45c0-.34 0-.68 0-1 0-.74-.12-1.47-.12-2.21a.25.25 0 0 0 -.1-.22c-.14.15-.08.33-.08.49 0 .75-.06 1.5-.08 2.25 0 1.37-.19 2.73-.25 4.09 0 .68-.12 1.36-.2 2a1.15 1.15 0 0 1 -.26.6 1.36 1.36 0 0 1 -1.47.48 1.24 1.24 0 0 1 -.95-1 39.07 39.07 0 0 0 -1.07-3.95 55.48 55.48 0 0 0 -3.6-8.48 71.14 71.14 0 0 0 -4.78-7.88c-.2 0-.39.09-.59.1a11.52 11.52 0 0 0 -1.95.21 9 9 0 0 1 -1.8.86 65.53 65.53 0 0 1 -9 3 8.67 8.67 0 0 0 -1.81.5h4a9.79 9.79 0 0 1 1.33.07 4.86 4.86 0 0 1 4.02 2.63 6.1 6.1 0 0 1 .51 1.28 15.67 15.67 0 0 1 .46 6 9 9 0 0 1 -9 8c-1.34 0-2.67 0-4 0a9 9 0 0 1 -8.88-7.65c0-.26-.13-.34-.38-.33h-1.95c-.26 0-.55-.1-.76.05s-.12.45-.16.68a9 9 0 0 1 -8.84 7.23c-1.3 0-2.6 0-3.91 0a10.49 10.49 0 0 1 -1.12 0 9.06 9.06 0 0 1 -7.66-6.74c-.11-.47-.15-.94-.26-1.41a8.09 8.09 0 0 0 0 1.84 2.73 2.73 0 0 1 0 .41 22.4 22.4 0 0 0 .29 2.84 30.39 30.39 0 0 0 .83 3.9 34.38 34.38 0 0 0 1.54 4.3 32.46 32.46 0 0 0 3.29 5.63c.64.9 1.35 1.76 2.08 2.6.56.64 1.16 1.26 1.77 1.85a31.87 31.87 0 0 0 6 4.52 21.51 21.51 0 0 0 1.88 1 .66.66 0 0 1 .32.25.51.51 0 0 1 .34.07 32.16 32.16 0 0 0 3.39 1.39.52.52 0 0 1 .3.18 1.73 1.73 0 0 1 .6.11c.34.11.69.22 1 .31a31.1 31.1 0 0 0 3.69.8 25.54 25.54 0 0 0 2.89.32 26.13 26.13 0 0 0 2.8 0c.76-.06 1.53 0 2.3-.1s1.69-.19 2.53-.32a32.2 32.2 0 0 0 4.9-1.22c.72-.16 1.46-.47 2.21-.76zm-23.29-5.76a15.21 15.21 0 0 1 -1.53-.09 9.16 9.16 0 0 1 -4-1.32 4.35 4.35 0 0 1 -2.18-3.18 1.47 1.47 0 0 1 1.27-1.77 6.51 6.51 0 0 1 1.59 0 31.37 31.37 0 0 0 3.21.29 28.05 28.05 0 0 0 3.89-.13c.56-.08 1.13-.08 1.69-.16a9.73 9.73 0 0 1 1.79 0 2 2 0 0 1 .93.28 1.15 1.15 0 0 1 .6.85 3.15 3.15 0 0 1 -.19 1.66 5.29 5.29 0 0 1 -2.78 2.6 10 10 0 0 1 -4.29.97z" fill="#f9d0a7"/><path d="m111.69 29a12.13 12.13 0 0 0 -.1-2.76 21.62 21.62 0 0 0 -4.37-10.61 27.71 27.71 0 0 0 -8.53-7.37 35.6 35.6 0 0 0 -11.8-4.16 42.3 42.3 0 0 0 -7.2-.58h-.36c-.27.86-.53 1.73-.81 2.59-.61 1.89-1.24 3.89-1.86 5.8l-1.66 5.09c-.92 2.87-1.84 5.75-2.77 8.62-.4 1.25-.8 2.5-1.21 3.75a.72.72 0 0 0 -.06.35 7.44 7.44 0 0 0 1.33-.09c1.73 0 3.45 0 5.18-.07 2.08-.11 4.17 0 6.26-.11 1.86-.1 3.73 0 5.6-.1 2.13-.09 4.27 0 6.41-.11 1.69-.08 3.39 0 5.08-.09 2.12-.11 4.24 0 6.36-.11 1.53-.04 3.02-.04 4.51-.04z" fill="#fdb61e"/><path d="m71 29.7a.72.72 0 0 1 .06-.35c.41-1.25.81-2.5 1.21-3.75.93-2.87 1.85-5.75 2.73-8.6l1.62-5.07c.66-1.93 1.29-3.93 1.9-5.82.28-.86.54-1.73.81-2.59a67 67 0 0 0 -7.41-1.75 25.1 25.1 0 0 0 -3-.34h-3.58a34 34 0 0 0 -3.78.34 43.79 43.79 0 0 0 -6.22 1.31c-.77.23-.74.13-.63.91s.17 1.74.3 2.6c.46-.08.86-.32 1.31-.44.69-.19 1.41-.24 2.11-.37a7.57 7.57 0 0 1 3 0 7.34 7.34 0 0 1 5.66 4.63 6.63 6.63 0 0 1 .23 4.08 7.23 7.23 0 0 1 -2.59 4.07 8.82 8.82 0 0 1 -3.12 1.6 21.94 21.94 0 0 1 -2.27.38 4.76 4.76 0 0 1 -1.68.11 7.68 7.68 0 0 0 -1.17-.09 1.4 1.4 0 0 1 .08.34c.07 1 .24 2 .31 2.94s.26 2.23.35 3.34c0 .35.06.71.11 1.07.08.55.11 1.11.17 1.67.94 0 1.87 0 2.81-.08 2.1-.09 4.21 0 6.31-.11 1.46-.08 2.91-.02 4.37-.03z" fill="#ffc54c"/><path d="m94.26 35.28a11.52 11.52 0 0 1 1.95-.21c.2 0 .39-.07.59-.1a4.22 4.22 0 0 0 .62 0c.78-.16 1.59-.16 2.38-.28s1.35-.14 2-.23 1.61-.27 2.42-.39c1.21-.18 2.41-.39 3.6-.69.68-.17 1.35-.37 2-.56a15.14 15.14 0 0 0 1.58-.82 1.24 1.24 0 0 0 .26-.61c-1.6.05-3.21 0-4.82.09-1.89.12-3.79 0-5.69.1s-3.9 0-5.85.1-3.86 0-5.8.1-3.9 0-5.85.11-3.76 0-5.64.1-4 0-6 .1-3.8 0-5.7.11-4 0-6 .1-3.76 0-5.64.1-3.9 0-5.85.11-3.86-.06-5.8.1c-1.09.09-2.19 0-3.29 0-.14 0-.31 0-.42-.11a1.48 1.48 0 0 0 -1.22 1.4v.46a3.13 3.13 0 0 0 1.46 1.3 8.79 8.79 0 0 0 1.59.55 26.47 26.47 0 0 0 5.24.74 1 1 0 0 1 .62.05 27.11 27.11 0 0 1 3.12.11c1.62-.06 3.24 0 4.86-.09s3.18 0 4.77-.1c.85-.07 1.71 0 2.57 0a9.7 9.7 0 0 0 1.42-.11c1 0 2.08 0 3.12-.08s2.08 0 3.12-.11c.83-.09 1.67 0 2.51-.08 1.17 0 2.35-.16 3.53-.13.39 0 .78-.08 1.16-.08 1 0 2-.13 3-.13a4.45 4.45 0 0 0 1-.08.61.61 0 0 1 .58.07 7.05 7.05 0 0 1 1.7-.19c.83 0 1.66-.18 2.5-.13h.1a14 14 0 0 1 2.24-.17c.69-.07 1.39-.12 2.09-.16.47 0 1 0 1.43-.09a15.33 15.33 0 0 1 2.44-.17z" fill="#ffc54c"/><path d="m39.41 32.49c.11.15.28.11.42.11 1.1 0 2.2.07 3.29 0 1.94-.16 3.87 0 5.8-.1s3.91 0 5.85-.11 3.77 0 5.64-.1 4 0 6-.1 3.81 0 5.7-.11 4 0 6-.1 3.77 0 5.64-.1 3.91 0 5.85-.11 3.87 0 5.8-.1 3.9 0 5.85-.1 3.8 0 5.69-.1c1.61-.11 3.22 0 4.82-.09a15.74 15.74 0 0 0 0-2.38c-1.49 0-3 0-4.47 0-2.12.09-4.24 0-6.36.11-1.69.08-3.39 0-5.08.09-2.14.1-4.28 0-6.41.11-1.87.09-3.74 0-5.6.1-2.09.11-4.18 0-6.26.11-1.73.09-3.45.05-5.18.07a7.44 7.44 0 0 1 -1.4.11c-1.46 0-2.91-.05-4.37 0-2.1.12-4.21 0-6.31.11-.94.05-1.87.06-2.81.08-1.19 0-2.39 0-3.58.08-1.8.1-3.61 0-5.42.11-.76.06-1.54 0-2.3 0a5.8 5.8 0 0 1 -1.36.42 23.46 23.46 0 0 1 -2.31.82l-3 1a.25.25 0 0 0 -.13.17z" fill="#ffd477"/><path d="m109.86 32.79c-.67.19-1.34.39-2 .56-1.19.3-2.39.51-3.6.69-.81.12-1.61.28-2.42.39s-1.35.13-2 .23-1.6.12-2.38.28a4.22 4.22 0 0 1 -.62 0 71.14 71.14 0 0 1 4.79 7.89 55.48 55.48 0 0 1 3.6 8.48 39.07 39.07 0 0 1 1.07 3.95 1.24 1.24 0 0 0 .95 1 1.36 1.36 0 0 0 1.47-.48 1.15 1.15 0 0 0 .26-.6c.08-.68.17-1.36.2-2 .06-1.36.2-2.72.25-4.09 0-.75 0-1.5.08-2.25 0-.16-.06-.34.08-.49 0-1.79 0-3.58-.1-5.37 0-.67-.07-1.33-.1-2a3.73 3.73 0 0 1 .18-1.4 9.5 9.5 0 0 0 .46-3.18c0-.22 0-.44 0-.66s-.2-.62-.17-.95z" fill="#d1a44a"/><path d="m109.86 32.79c0 .33.13.64.12 1a3.66 3.66 0 0 0 1.29-1.33.61.61 0 0 0 .13-.47 15.14 15.14 0 0 1 -1.54.8z" fill="#d6972a"/><path d="m58 102.63h4.37c.63 0 .59.07.59-.57v-21.89c0-.19 0-.38 0-.57h-4.57a.79.79 0 0 1 -.65-.31 21.15 21.15 0 0 0 -1.74-1.74 29.37 29.37 0 0 0 -3.25-2.41 39.48 39.48 0 0 0 -3.67-2.14 42.62 42.62 0 0 0 -6.51-2.72 45 45 0 0 0 -5.84-1.48c-1.09-.2-2.18-.39-3.28-.5l-2.75-.25c-1-.08-2 0-3-.08a4.93 4.93 0 0 0 -.86-.1c-1.1.15-2.22.05-3.32.11s-2.45.16-3.67.31c-1.72.22-3.44.44-5.14.78a7.15 7.15 0 0 1 -1.66.24 2.39 2.39 0 0 1 -.72.22c-.3.08-.34.17-.23.44l1.62 3.76 1.71 4c.56 1.32 1.15 2.63 1.7 4a3 3 0 0 1 .45 1.4c.09 0 .18 0 .2.13.08.42.39.39.71.39h3.55c.86 0 1.73.06 2.59.17.51.07 1 0 1.53.11l2.54.29c.74.1 1.48.22 2.22.33 1.38.2 2.74.5 4.11.8a48.79 48.79 0 0 1 5.56 1.56q2.52.87 5 2c1.18.52 2.33 1.09 3.46 1.69a35.46 35.46 0 0 1 5.78 3.78c.77.63 1.54 1.24 2.24 1.94.23.23.52.4.74.64a.77.77 0 0 1 .24.59c-.05 1.65-.05 3.37-.05 5.08z" fill="#e2e2e2"/><path d="m45 49.42c.11.47.15.94.26 1.41a9.06 9.06 0 0 0 7.66 6.74 10.49 10.49 0 0 0 1.12 0h3.91a9 9 0 0 0 8.89-7.25c0-.23 0-.54.16-.68s.5-.05.76-.05h1.95c.25 0 .34.07.38.33a9 9 0 0 0 8.85 7.65h4a9 9 0 0 0 9-8 15.67 15.67 0 0 0 -.46-6 6.1 6.1 0 0 0 -.48-1.2 4.86 4.86 0 0 0 -4-2.68 9.79 9.79 0 0 0 -1.33-.07h-4c-1.47 0-2.94 0-4.41 0-.75.07-1.5 0-2.25.09a4.93 4.93 0 0 0 -4.12 3 9.78 9.78 0 0 0 -.73 2.72c-.11.73-.09 1.46-.17 2.24h-2.78c-.19 0-.23-.1-.23-.26a12.14 12.14 0 0 0 -.11-1.59 9.72 9.72 0 0 0 -.81-3.22 4.8 4.8 0 0 0 -2.94-2.62 7.3 7.3 0 0 0 -2.28-.31h-9.5a14.1 14.1 0 0 0 -1.84.13 5 5 0 0 0 -3.57 2.8 17.09 17.09 0 0 0 -.93 6.82zm36-7.78h5.15a3.18 3.18 0 0 1 3.42 2.57 2.33 2.33 0 0 1 .07.25 16.76 16.76 0 0 1 .36 3.67 7.68 7.68 0 0 1 -.13 1.79 7 7 0 0 1 -7 5.71h-3.7a10.16 10.16 0 0 1 -1.17-.08 7.06 7.06 0 0 1 -5.87-5.64 14.69 14.69 0 0 1 -.05-3.38 10.16 10.16 0 0 1 .47-2.62 3.06 3.06 0 0 1 2.63-2.22 5.56 5.56 0 0 1 .82 0zm-25 0h5.2a3.15 3.15 0 0 1 3.29 2.47c0 .07 0 .13.07.2a16.74 16.74 0 0 1 .44 4.94c0 .21 0 .41-.07.62a7.06 7.06 0 0 1 -7 5.76h-3.55a10.9 10.9 0 0 1 -1.38-.08 7.07 7.07 0 0 1 -5.87-5.63 14.66 14.66 0 0 1 0-3.44 10.3 10.3 0 0 1 .47-2.57 3.06 3.06 0 0 1 2.63-2.22 5.56 5.56 0 0 1 .82 0z" fill="#040403"/><path d="m56.49 20.56a7.68 7.68 0 0 1 1.17.09 4.76 4.76 0 0 0 1.68-.11 21.94 21.94 0 0 0 2.27-.38 8.82 8.82 0 0 0 3.12-1.6 7.23 7.23 0 0 0 2.59-4.07 6.63 6.63 0 0 0 -.23-4.08 7.34 7.34 0 0 0 -5.66-4.63 7.57 7.57 0 0 0 -3 0c-.7.13-1.42.18-2.11.37-.45.12-.85.36-1.31.44a1.81 1.81 0 0 1 -.48.29 7.62 7.62 0 0 0 -4 5.35 6.75 6.75 0 0 0 .47 3.87c.07.17.19.33.14.53a1.1 1.1 0 0 1 .41.52 7.25 7.25 0 0 0 3.71 3 7.07 7.07 0 0 1 1.23.41zm-3.49-7.16a4.45 4.45 0 0 1 1.62-3.47 4.93 4.93 0 0 1 4.25-1.18 4.41 4.41 0 0 1 2.67 1.51 4.3 4.3 0 0 1 .23 5.29 5.07 5.07 0 0 1 -5.16 2.11 4.35 4.35 0 0 1 -3.61-4.26z" fill="#d6972a"/><path d="m56.49 20.56a7.07 7.07 0 0 0 -1.25-.42 7.25 7.25 0 0 1 -3.71-3 1.1 1.1 0 0 0 -.41-.52 13.53 13.53 0 0 0 -1.4 2 22.62 22.62 0 0 0 -3.17 8.07 15.59 15.59 0 0 0 -.26 2 1.81 1.81 0 0 1 -.11.65v.76c.76 0 1.54.05 2.3 0 1.81-.15 3.62 0 5.42-.11 1.19-.06 2.39-.05 3.58-.08-.06-.56-.09-1.12-.17-1.67-.05-.36-.08-.72-.11-1.07-.09-1.11-.26-2.22-.35-3.34s-.24-1.95-.31-2.94a1.4 1.4 0 0 0 -.05-.33z" fill="#fdb61e"/><path d="m47 37a1 1 0 0 0 -.55-.08 26.47 26.47 0 0 1 -5.24-.74 8.79 8.79 0 0 1 -1.59-.55 3.13 3.13 0 0 1 -1.46-1.3 1.21 1.21 0 0 0 .2 1.25 3.45 3.45 0 0 0 1 .93 9.81 9.81 0 0 0 2.19 1 29.69 29.69 0 0 0 5 1.15 9.28 9.28 0 0 0 .45-1.66z" fill="#8c633a"/><path d="m47 37a9.28 9.28 0 0 1 -.42 1.65c-.08.78-.34 1.53-.45 2.3a12.55 12.55 0 0 0 -.26 1.61 5 5 0 0 1 3.57-2.8 2.17 2.17 0 0 1 0-.25l.6-2.37a27.11 27.11 0 0 0 -3.04-.14z" fill="#d1a44a"/><path d="m46.21 30.12v-.76a16.49 16.49 0 0 0 -1.33 1.18 5.8 5.8 0 0 0 1.33-.42z" fill="#ddae48"/><path d="m90 79.4c-.75.29-1.49.59-2.25.84a32.2 32.2 0 0 1 -4.9 1.22c-.84.13-1.69.22-2.53.32s-1.54 0-2.3.1a26.13 26.13 0 0 1 -2.8 0 25.54 25.54 0 0 1 -2.89-.32 31.1 31.1 0 0 1 -3.69-.8c-.34-.09-.69-.2-1-.31a1.73 1.73 0 0 0 -.6-.11v.52 21.14c0 .68-.06.62.6.62h21.8c.6 0 .56 0 .56-.56z" fill="#e2e2e2"/><path d="m92.49 108.62a1.5 1.5 0 1 0 0-3 1.5 1.5 0 1 0 0 3z" fill="#fdb61e"/><path d="m65 105.63a1.5 1.5 0 1 0 1.51 1.49 1.49 1.49 0 0 0 -1.51-1.49z" fill="#fdb61e"/><path d="m66.71 73.64a10 10 0 0 0 4.32-1 5.29 5.29 0 0 0 2.73-2.6 3.15 3.15 0 0 0 .24-1.63 1.15 1.15 0 0 0 -.6-.85 2 2 0 0 0 -.93-.28 9.73 9.73 0 0 0 -1.79 0c-.56.08-1.13.08-1.69.16a28.05 28.05 0 0 1 -3.89.13 31.37 31.37 0 0 1 -3.21-.29 6.51 6.51 0 0 0 -1.59 0 1.47 1.47 0 0 0 -1.3 1.77 4.35 4.35 0 0 0 2.2 3.18 9.16 9.16 0 0 0 4 1.32 15.21 15.21 0 0 0 1.51.09z" fill="#fff"/><path d="m77.26 39.59h4.41a8.67 8.67 0 0 1 1.81-.5 65.53 65.53 0 0 0 9-3 9 9 0 0 0 1.8-.86 15.33 15.33 0 0 0 -2.44.18c-.48.06-1 .07-1.43.09-.7 0-1.4.09-2.09.16a14 14 0 0 0 -2.24.17h-.08c-.84-.05-1.67.12-2.5.13a7.05 7.05 0 0 0 -1.77.18l-1.43 1.11z" fill="#ddae48"/><path d="m77.26 39.59 3-2.34 1.39-1.06a.61.61 0 0 0 -.58-.07 4.45 4.45 0 0 1 -1 .08c-1 0-2 .13-3 .13-.38 0-.77.08-1.16.08a.48.48 0 0 1 -.28.1l-2.48.35-2.84.37-2.17.27-2.19.24-2.26.26c-.85.09-1.69.2-2.54.27-.17 0-.46.14-.52-.14s.21-.31.38-.41c.44-.26.91-.47 1.33-.77-.86 0-1.72-.05-2.57 0-1.59.13-3.18 0-4.77.1s-3.24 0-4.86.09l-.6 2.37a2.17 2.17 0 0 0 0 .25 14.1 14.1 0 0 1 1.84-.13h9.5a7.3 7.3 0 0 1 2.28.31 4.8 4.8 0 0 1 2.94 2.62 9.72 9.72 0 0 1 .81 3.22 12.14 12.14 0 0 1 .09 1.58c0 .16 0 .26.23.26h2.77c.08-.78.06-1.51.17-2.24a9.78 9.78 0 0 1 .73-2.72 4.93 4.93 0 0 1 4.12-3c.74-.07 1.49 0 2.24-.07z" fill="#f9d0a7"/><path d="m62.34 36.92c-.42.3-.89.51-1.33.77-.17.1-.44.17-.38.41s.35.16.52.14c.85-.07 1.69-.18 2.54-.27l2.39-.23 2.19-.24 2.17-.27 2.84-.37 2.48-.35a.48.48 0 0 0 .28-.1c-1.18 0-2.36.08-3.53.13-.84 0-1.68 0-2.51.08-1 .12-2.08 0-3.12.11s-2.08.05-3.12.08a9.7 9.7 0 0 1 -1.42.11z" fill="#ddae48"/><path d="m81 41.64h-5a5.56 5.56 0 0 0 -.82 0 3.06 3.06 0 0 0 -2.63 2.22 10.16 10.16 0 0 0 -.47 2.62 14.69 14.69 0 0 0 .05 3.38 7.06 7.06 0 0 0 5.87 5.69 10.16 10.16 0 0 0 1.23.08h3.7a7 7 0 0 0 7-5.71 7.68 7.68 0 0 0 .07-1.79 16.76 16.76 0 0 0 -.39-3.67 2.33 2.33 0 0 0 -.07-.25 3.18 3.18 0 0 0 -3.42-2.57zm-5 6.48a1.49 1.49 0 0 1 1.5-1.5 1.51 1.51 0 1 1 -1.5 1.5z" fill="#fefefe"/><path d="m56 41.64h-5a5.56 5.56 0 0 0 -.82 0 3.06 3.06 0 0 0 -2.63 2.22 10.3 10.3 0 0 0 -.47 2.57 14.66 14.66 0 0 0 0 3.44 7.07 7.07 0 0 0 5.92 5.68 10.9 10.9 0 0 0 1.39.08h3.55a7.06 7.06 0 0 0 7-5.76c0-.21.06-.41.07-.62a16.74 16.74 0 0 0 -.38-4.94c0-.07 0-.13-.07-.2a3.15 3.15 0 0 0 -3.29-2.47zm-2.54 8a1.51 1.51 0 1 1 1.54-1.48 1.53 1.53 0 0 1 -1.52 1.48z" fill="#fefefe"/><path d="m53 13.4a4.35 4.35 0 0 0 3.61 4.26 5.07 5.07 0 0 0 5.16-2.11 4.3 4.3 0 0 0 -.23-5.29 4.41 4.41 0 0 0 -2.67-1.51 4.93 4.93 0 0 0 -4.25 1.18 4.45 4.45 0 0 0 -1.62 3.47z" fill="#f6e7cf"/><g fill="#040403"><path d="m76 48.12a1.5 1.5 0 1 0 1.5-1.5 1.5 1.5 0 0 0 -1.5 1.5z"/><path d="m53.48 49.64a1.51 1.51 0 1 0 -1.48-1.52 1.53 1.53 0 0 0 1.48 1.52z"/></g></svg>