<svg viewBox="0 0 157 184" xmlns="http://www.w3.org/2000/svg"><path d="m98.5 96v44h-39v-45c-17.5-20.5-43.5-12.5-43.5-12.5l-5-13a44.49 44.49 0 0 1 48.5 8.5l31.5.5h8s11-15 46-10l-6 14s-23-2-40.5 13.5" fill="#e2e2e2"/><circle cx="9.5" cy="78" fill="#f9d0a7" r="9.5"/><circle cx="147.5" cy="77" fill="#f9d0a7" r="9.5"/><path d="m79.07 97.48 4.93-19.98h8.5l-13 20.42a.32.32 0 0 1 -.43-.44z" fill="#e8e4e2"/><path d="m34.59 151.02-.08-14 45.44 1.15.61 13.02z" fill="#385269"/><path d="m26 129.49h30v13h-30z" fill="#8c6239" transform="matrix(.00558502 .9999844 -.9999844 .00558502 176.76 94.23)"/><path d="m126.49 137.72.92 13.97-48.41-.19-1-13z" fill="#385269"/><path d="m105.47 131.15h29v13h-29z" fill="#8c6239" transform="matrix(-.06557729 -.99784749 .99784749 -.06557729 -9.51 266.39)"/><path d="m75 128.5-15 4-2-37c-15-21-41-13-41-13l-5-14c19-7 39.39.35 47.25 9.5h6.75l5.5.5z" fill="#e2e2e2"/><path d="m99 100.5-1 28-15-4 1.75-46h14.25s14-17 46-10l-6 14s-25-1.5-40 13.5" fill="#e2e2e2"/><g fill="#385269"><path d="m98.5 147.5h-39l-.5-46h40z"/><path d="m63 76.5h4v32h-4z"/><path d="m90 76.5h4v32h-4z"/></g><circle cx="64.5" cy="106" fill="#fdb61e" r="1.5"/><circle cx="92" cy="106" fill="#fdb61e" r="1.5"/><path d="m45.58 30.75s-.58 6.75 38.42 7.75 34.77-5.41 34.77-5.41l-46.77-8.59z" fill="#af741e"/><ellipse cx="79.61" cy="48.64" fill="#f9d0a7" rx="32.39" ry="32.14"/><circle cx="48.95" cy="55.28" fill="#f9d0a7" r="6.45"/><path d="m98 67.73c0 2.63-3.36 4.77-7.5 4.77s-7.5-2.14-7.5-4.77 3.86-1.23 8-1.23 7-1.41 7 1.23z" fill="#fff"/><path d="m111.36 43.81c-.5-5.47-1.36-6.81-2.26-11.81a1.09 1.09 0 0 0 -.58-.78l-22.76-11.57a1 1 0 0 0 -.63-.11l-22.37 2.81h-10.3a1.09 1.09 0 0 0 -.81 1.81 1.08 1.08 0 0 1 -.24 1.64c-2 1.21-5.73 4.39-3.93 10.72a1.17 1.17 0 0 0 .09.24c.44.8-.73 4.45.47 17.23a1.37 1.37 0 0 0 2.71.15c2.11-10.14 9.64-21.74 14.07-25.72a1.06 1.06 0 0 1 .92-.23l39.75 5.43a1.08 1.08 0 0 1 .51.26c.54.51 1.72 5.17 2.76 10.3a1.31 1.31 0 0 0 2.6-.37z" fill="#d1a44a"/><path d="m80.59 39.32c-2.59-.17-22.91-3.74-28.59-13.82 0 0 6-17 23-20 0 0 10.46-1.7 23.2 7.7.37.28 5.86 6.35 6.12 6.73 1.92 2.73 6.2 9.82 11.94 11.87a.3.3 0 0 1 -.06.58c-5 .54-21 2-29.24-.84l9.36 5.22a.2.2 0 0 1 -.1.38c-4.14-.39-20.88-2-23.17-3.79l7.6 5.79a.1.1 0 0 1 -.06.18z" fill="#ddae47"/><rect fill="#fff" height="16" rx="8" stroke="#000" stroke-miterlimit="10" stroke-width="2" width="20" x="91" y="39.5"/><rect fill="#fff" height="16" rx="8" stroke="#000" stroke-miterlimit="10" stroke-width="2" width="20" x="66" y="39.5"/><path d="m86 47.5h5" fill="none" stroke="#000" stroke-miterlimit="10" stroke-width="2"/><circle cx="79.5" cy="47" r="1.5"/><circle cx="103.5" cy="47" r="1.5"/><path d="m77.66 2.39c18.08.32 32.91 12.23 33.11 26.61l-65.49-1.17c-.2-14.37 14.29-25.76 32.38-25.44z" fill="#fdb61e"/><path d="m102.36 2.17-2.9 26.62-13.41-.23-8.39-26.17c3.79-1 8.17-2.22 12.46-2.14a44.77 44.77 0 0 1 12.24 1.92z" fill="#ffc54c"/><path d="m103.13 36c-20.52-.36-57.76-1.83-57.82-5.75l72.81 1.29s5.53 4.83-15 4.46z" fill="#ffc54c"/><path d="m45.31 30.2 72.82 1.29-7.36-2.49-65.49-1.17z" fill="#ffd478"/><ellipse cx="97.3" cy="11.92" fill="#d69629" rx="7.35" ry="7.85" transform="matrix(.24293785 -.97004185 .97004185 .24293785 62.09 103.41)"/><ellipse cx="98.7" cy="12.12" fill="#d69629" rx="7.35" ry="7.85" transform="matrix(.24293785 -.97004185 .97004185 .24293785 62.96 104.92)"/><ellipse cx="99.25" cy="12.08" fill="#fff" opacity=".78" rx="4.5" ry="4.81" transform="matrix(.32176999 -.94681787 .94681787 .32176999 55.88 102.17)"/></svg>