<svg viewBox="0 0 157 186" xmlns="http://www.w3.org/2000/svg"><path d="m118.09 107.19c-.1 0-.17-.06-.17-.17s0-.21 0-.31c0-.77-.1-1.52-.16-2.28s-.17-1.57-.29-2.35a38.56 38.56 0 0 0 -.92-4.37 30.26 30.26 0 0 0 -1.17-3.48 27.55 27.55 0 0 0 -1.4-3c-.48-.84-1-1.69-1.53-2.48s-1-1.36-1.57-2a25.25 25.25 0 0 0 -1.9-2 22.48 22.48 0 0 0 -3.55-2.73 25.89 25.89 0 0 0 -2.64-1.44 28.66 28.66 0 0 0 -3-1.2 27.43 27.43 0 0 0 -3.79-.81v.45 23a2.43 2.43 0 0 1 0 .27c0 .21 0 .3.27.29h3.6a47.16 47.16 0 0 1 .13-5c.15.5.29.92.41 1.34a28.94 28.94 0 0 1 .53 3.8c.09.62.12 1.25.17 1.87.08 1 .12 2 .19 3 .06.81 0 1.62.07 2.42a36.71 36.71 0 0 1 0 4.45c-.08.93 0 1.88-.09 2.82 0 .66-.1 1.31-.13 2a5.87 5.87 0 0 1 -.09 1.11c-.09.46-.08.92-.15 1.38-.09.65-.14 1.3-.23 2-.15 1-.37 2-.59 3-.08.34 0 .72-.28 1a4.14 4.14 0 0 0 0 1.11v4.13a2 2 0 0 0 .48-.07 8.29 8.29 0 0 1 1.86-.29 8.73 8.73 0 0 1 2.83.3 9.32 9.32 0 0 1 3.54 1.78 9.52 9.52 0 0 1 3.07 4.33c.18.53.26 1.07.44 1.59.16-.1.17-.27.22-.43.48-1.41.94-2.83 1.38-4.27.57-1.91 1.13-3.83 1.61-5.77.37-1.48.74-3 1-4.45.23-1.15.48-2.3.69-3.46.15-.81.29-1.64.38-2.47.07-.54.17-1.08.24-1.63s.16-1.18.2-1.77.08-.9.12-1.34c.06-.77.16-1.54.16-2.32v-.5c0-.12 0-.2.18-.21z" fill="#e2e2e2"/><path d="m60.44 165.06h-.54-13.9c-.55 0-.51-.06-.51.5v12c0 .57 0 .51.5.51h23.39c.56 0 .56 0 .56.54h.18c.12-.12.28-.08.43-.08h28.84c.14 0 .3 0 .43.08h.18a1 1 0 0 1 0-.49v-12c0-.5 0-.5-.5-.53h-.45-24.05c-.56 0-.56 0-.59-.53h-14z" fill="#8c6239"/><path d="m25.93 132.39c.14.14.08.31.08.47a7.74 7.74 0 0 0 .7 3 9.36 9.36 0 0 0 2.13 3.08 9.21 9.21 0 0 0 5 2.53 9.54 9.54 0 0 0 11-7.63 2.42 2.42 0 0 0 0-.54l-.55.19c-.35.11-.35.11-.55-.17-1.33-1.82-2.65-3.65-4-5.48-.94-1.29-1.89-2.57-2.82-3.87a8.47 8.47 0 0 1 -.93-1.37 9.53 9.53 0 0 0 -9.91 7.85c-.07.41-.05.81-.08 1.21 0 .16 0 .33-.08.47z" fill="#f9d0a7"/><path d="m99.82 178.65c-.13-.12-.29-.08-.43-.08h-28.84c-.15 0-.31 0-.43.08z" fill="#d1a44a"/><path d="m99.46 165.58q0-6.59 0-13.18c0-.4 0-.8 0-1.21a1.44 1.44 0 0 0 -.56-.26 9.45 9.45 0 0 1 -5.76-10.71 9.28 9.28 0 0 1 6.12-7.08.77.77 0 0 0 .39-.2c0-1.37 0-2.75 0-4.13a4.14 4.14 0 0 1 0-1.11 6.43 6.43 0 0 1 0-1.16l.09-8.59c0-1.9 0-3.81 0-5.71 0-3.12.07-6.24.1-9.35 0-.12 0-.25-.12-.31h-3.6c-.22 0-.29-.08-.27-.29a2.43 2.43 0 0 0 0-.27v-23.02c0-.15 0-.3 0-.45s0-.44 0-.66 0-.29-.35-.34c-1.19.66-2.41 1.26-3.66 1.82v.54 22.18c0 .49 0 .49-.49.49h-22c-.62 0-.55.07-.55-.55v-21.26c0-.17 0-.33 0-.5a.46.46 0 0 0 -.26-.15 32.71 32.71 0 0 1 -3.54-1.54v.58 23c0 .39 0 .4-.41.4h-4.46a.17.17 0 0 0 -.19.19 2.44 2.44 0 0 1 0 .27c0 1.74 0 3.48.06 5.22v4.5 3.42c.05 1.89 0 3.78.06 5.67a.41.41 0 0 1 0 .08c.07 2 .09 4 .11 5.93 0 4.32.07 8.63.13 13 .12 8.08.08 16.15.09 24.23h14c0-.18 0-.36 0-.54v-15.33a1.61 1.61 0 0 0 0-.31c0-.25.1-.32.32-.3h10.29c.52 0 .47-.07.47.49v16.5h13.53zm-3.46-58.46a1.51 1.51 0 1 1 -1.51-1.53 1.51 1.51 0 0 1 1.51 1.53zm-30.51 0a1.53 1.53 0 0 1 1.51-1.53 1.52 1.52 0 0 1 0 3 1.51 1.51 0 0 1 -1.56-1.49z" fill="#385269"/><path d="m65 78.58a32.71 32.71 0 0 0 3.72 1.54.46.46 0 0 1 .26.15 2.23 2.23 0 0 1 .36 0c.9.26 1.79.55 2.71.74.63.12 1.25.29 1.89.38.84.11 1.67.23 2.52.31.67.06 1.34.08 2 .13a23.5 23.5 0 0 0 3.84-.15c.92-.08 1.83-.21 2.74-.36a29.68 29.68 0 0 0 4-1c1-.3 1.92-.66 2.87-1 1.25-.56 2.47-1.16 3.66-1.82l1-.62a31.46 31.46 0 0 0 3.7-2.69 30.16 30.16 0 0 0 2.28-2.1 33.59 33.59 0 0 0 5.07-6.78c.41-.75.78-1.52 1.17-2.28.17-.33.17-.31.53-.29a6.47 6.47 0 0 0 5.13-1.8 6.23 6.23 0 0 0 1.87-3.46 6.34 6.34 0 0 0 -1.32-5.19 6.23 6.23 0 0 0 -3-2.07.32.32 0 0 1 -.26-.35c0-.43 0-.87 0-1.3 0-.65-.1-1.29-.1-1.93 0-.09 0-.18-.13-.21-.11.77 0 1.55-.11 2.33-.08 1-.12 2-.19 3s-.15 2.2-.27 3.3a1.33 1.33 0 0 1 -1.26 1.24 1.34 1.34 0 0 1 -1.45-1.08 40.1 40.1 0 0 0 -2-6.52 62.11 62.11 0 0 0 -3.23-6.88c-1-1.74-2-3.44-3-5.09-.38-.58-.77-1.15-1.15-1.72h-.45c-.69 0-1.37.13-2.05.19a12.88 12.88 0 0 1 -2.23 1 64.36 64.36 0 0 1 -9.12 2.97 8.23 8.23 0 0 0 -1.55.41h4.37a9.31 9.31 0 0 1 1.29.08 4.89 4.89 0 0 1 3.8 2.64 7.68 7.68 0 0 1 .53 1.33 16.23 16.23 0 0 1 .51 3.86 12.12 12.12 0 0 1 -.14 2.69 9 9 0 0 1 -8.73 7.4c-1.41 0-2.82 0-4.23 0a9 9 0 0 1 -8.85-7.58c-.06-.36-.06-.36-.4-.36h-2.34c-.36 0-.36 0-.41.35a9 9 0 0 1 -8.93 7.65h-3.92a8.53 8.53 0 0 1 -1.12-.07 8.93 8.93 0 0 1 -7.17-5.39 9.09 9.09 0 0 1 -.72-3 5.71 5.71 0 0 0 0 1.65c.06.54.08 1.08.13 1.61a30.93 30.93 0 0 0 1 5.89 30.57 30.57 0 0 0 2.22 5.77 31.32 31.32 0 0 0 3.81 5.9 34.38 34.38 0 0 0 2.57 2.82 35.86 35.86 0 0 0 3.69 3.06 36.13 36.13 0 0 0 4.3 2.6c.06 0 .14.06.17.13zm8.63-11.35a4.55 4.55 0 0 1 1.21.09 1.41 1.41 0 0 1 1.16 1.46 2.92 2.92 0 0 1 -.15.93 4.47 4.47 0 0 1 -2 2.48 10 10 0 0 1 -5 1.42 10.24 10.24 0 0 1 -2.14-.16 8.27 8.27 0 0 1 -4.28-1.83 3.6 3.6 0 0 1 -1.42-3 1.32 1.32 0 0 1 1.41-1.43 12 12 0 0 1 2.24.11 32 32 0 0 0 3.39.25c.63 0 1.26-.09 1.88-.09a12.81 12.81 0 0 0 1.39-.12 18.38 18.38 0 0 1 2.29-.11z" fill="#f8d0a7"/><path d="m113.67 28.88a20.1 20.1 0 0 0 -1.31-7.52 23.64 23.64 0 0 0 -6.59-9.46 32.63 32.63 0 0 0 -13.55-7.13 39.22 39.22 0 0 0 -6.22-1.1 37.87 37.87 0 0 0 -4.76-.17c-.21.68-.42 1.37-.64 2.05q-.75 2.37-1.52 4.74l-1.53 4.78c-.51 1.57-1 3.15-1.52 4.73l-1.91 5.93c-.12.36-.24.71-.35 1.07l-.9 2.81c1.54 0 3.08 0 4.62-.07s3.32 0 5-.09 3.6 0 5.39-.1c1.55-.07 3.11 0 4.67-.08 1.78-.1 3.56 0 5.34-.09 1.61-.1 3.23 0 4.85-.08 1.88-.1 3.77 0 5.65-.1s3.53 0 5.28-.12z" fill="#fdb61e"/><path d="m65 78.58h-.1-2.58a2.07 2.07 0 0 0 -.66.1l-5.28 1.77c-.48.16-.48.16-.48.66 0 .87-.1 1.73-.16 2.59l-.12 1.43c0 .68-.15 1.36-.23 2 0 .34-.06.68-.11 1-.11.78-.22 1.56-.34 2.34s-.25 1.59-.39 2.38l-.45 2.37c-.3 1.56-.68 3.09-1.08 4.62-.19.72-.41 1.44-.62 2.15a48.33 48.33 0 0 1 -1.75 5 39.82 39.82 0 0 1 -2.47 5.09 33.63 33.63 0 0 1 -2.3 3.47q-.56.73-1.17 1.41c-.35.38-.68.77-1.05 1.12a20.66 20.66 0 0 1 -3.74 2.92 16 16 0 0 1 -3.8 1.58l-.12.06a8.47 8.47 0 0 0 .93 1.37c.93 1.3 1.88 2.58 2.82 3.87 1.33 1.83 2.65 3.66 4 5.48.2.28.2.28.55.17l.55-.19a9.77 9.77 0 0 0 1.74-.71 29.31 29.31 0 0 0 4.55-2.53c.47-.34.91-.71 1.35-1.1s1.14-1.06 1.68-1.62a22.06 22.06 0 0 0 4-5.35 30.49 30.49 0 0 0 1.53-3.59 1.18 1.18 0 0 1 .14.48c0 .39 0 .78.07 1.16a15.24 15.24 0 0 1 .11 1.65c0 .13 0 .25.16.27a.41.41 0 0 0 0-.08c0-1.89 0-3.78-.06-5.67 0-1.14 0-2.28 0-3.42 0-1.5 0-3 0-4.5 0-1.74 0-3.48-.06-5.22a2.44 2.44 0 0 0 0-.27.17.17 0 0 1 .19-.19h4.41c.39 0 .39 0 .41-.4v-23c-.07-.25-.07-.48-.07-.67z" fill="#e2e2e2"/><path d="m72.91 29.61.9-2.81c.11-.36.23-.71.35-1.07l1.91-5.93c.51-1.58 1-3.16 1.52-4.73l1.53-4.78q.76-2.37 1.52-4.74c.22-.68.43-1.37.64-2-1.07-.35-2.16-.61-3.24-.88a47.9 47.9 0 0 0 -5.41-1.07 29.33 29.33 0 0 0 -5.7-.14l-2.28.19c-1.44.15-2.87.39-4.29.68-1.15.24-2.28.53-3.39.86-.37.11-.39.12-.35.5.12 1 .17 2 .35 2.93a14.06 14.06 0 0 1 1.88-.62c.4-.07.8-.1 1.2-.17a9.28 9.28 0 0 1 3.6 0 7.16 7.16 0 0 1 5.08 3.85 6.49 6.49 0 0 1 .69 3.91 7.58 7.58 0 0 1 -.72 2.41 7.68 7.68 0 0 1 -2.11 2.59 9 9 0 0 1 -3.59 1.67c-.35.07-.71.07-1.06.13a11.24 11.24 0 0 1 -2.09.23c-.47 0-.92-.13-1.39-.11a17.62 17.62 0 0 0 .18 1.91c.08.7.12 1.4.2 2.09.1.93.26 1.86.34 2.79s.17 1.71.27 2.57c.91 0 1.82 0 2.73-.06 1.71-.1 3.41 0 5.12-.09s3.75.03 5.61-.11z" fill="#ffc54c"/><path d="m96.32 35.2c.68-.06 1.36-.19 2.05-.19h.45c.22-.18.49-.07.73-.1.66-.1 1.33-.18 2-.26s1.25-.11 1.86-.2c.92-.13 1.82-.3 2.73-.42 1.1-.15 2.17-.38 3.25-.61.81-.17 1.61-.42 2.41-.66.53-.26 1.06-.51 1.56-.81.1-.21.28-.38.26-.63-1.39 0-2.78 0-4.17.07-1.7.12-3.41 0-5.12.09s-3.41 0-5.12.09-3.29 0-4.94.09-3.47 0-5.21.09-3.32 0-5 .09-3.38 0-5.07.09-3.41 0-5.12.09-3.38 0-5.07.09-3.32 0-5 .09-3.44 0-5.16.09-3.35 0-5 .09-3.38 0-5.07.09-3.38-.06-5.07.1c-.64.06-1.29 0-1.94 0-.11 0-.24 0-.32-.09a1.41 1.41 0 0 0 -1.08 1.36v.44a2.62 2.62 0 0 0 1 1.07 5.85 5.85 0 0 0 1 .48 23.64 23.64 0 0 0 6.19 1.07c.21 0 .43-.08.63.08 1-.05 2.09.12 3.13.09 1.54 0 3.08 0 4.62-.07s2.84 0 4.26-.09c1.09-.07 2.19 0 3.28 0a4.91 4.91 0 0 0 .85-.09c1 0 2 0 3-.08.86-.09 1.73 0 2.6-.08s2 0 3-.11c.54 0 1.08 0 1.61-.06.89-.06 1.79-.06 2.69-.12s1.58-.12 2.37-.1h.09c1.06-.1 2.12-.15 3.18-.16a20 20 0 0 1 2-.1h.09a13.94 13.94 0 0 1 2-.15 12.15 12.15 0 0 1 2.25-.13h.09a17.36 17.36 0 0 1 1.91-.17l1.65-.13c.39 0 .8 0 1.2-.08s.97-.11 1.47-.15z" fill="#ffc54c"/><path d="m47 49.14a9.09 9.09 0 0 0 .72 3 8.93 8.93 0 0 0 7.17 5.39 8.53 8.53 0 0 0 1.11.07h4a9 9 0 0 0 8.85-7.6c.05-.35.05-.35.41-.35h2.38c.34 0 .34 0 .4.36a9 9 0 0 0 8.8 7.64h4.23a9 9 0 0 0 8.73-7.4 12.12 12.12 0 0 0 .14-2.69 16.23 16.23 0 0 0 -.51-3.86 7.68 7.68 0 0 0 -.53-1.33 4.89 4.89 0 0 0 -3.8-2.64 9.31 9.31 0 0 0 -1.29-.08h-4.37c-1.44 0-2.88 0-4.32 0-.76 0-1.53 0-2.29.08a4.94 4.94 0 0 0 -4 3 10.17 10.17 0 0 0 -.71 2.77c-.08.61-.1 1.23-.12 1.84 0 .22-.09.28-.3.28h-2.5c-.19 0-.26-.06-.27-.25 0-.42 0-.84-.08-1.26a10.46 10.46 0 0 0 -.71-3.27 5 5 0 0 0 -2.47-2.68 6.29 6.29 0 0 0 -2.67-.56h-9a15.55 15.55 0 0 0 -2.55.11 1.15 1.15 0 0 1 -.17.06 4.77 4.77 0 0 0 -3.25 2.39c-.1.17-.19.34-.28.51a13.76 13.76 0 0 0 -.84 5c.09.52.09 1 .09 1.47zm36 6.47c-.93 0-1.85 0-2.78-.06a7 7 0 0 1 -6.22-6.55 19.42 19.42 0 0 1 .13-3.41 7.28 7.28 0 0 1 .6-2.25 2.85 2.85 0 0 1 2-1.63 5.68 5.68 0 0 1 1.27-.12h9.85a6.38 6.38 0 0 1 1.08.09 2.88 2.88 0 0 1 2.2 1.6 6.12 6.12 0 0 1 .49 1.44 18.63 18.63 0 0 1 .31 3.8 7.61 7.61 0 0 1 -.12 1.48 7.05 7.05 0 0 1 -6 5.59c-.98.05-1.91-.02-2.81.02zm-25-14h4.72a8.32 8.32 0 0 1 1.12.07 2.91 2.91 0 0 1 2.35 1.67 6.56 6.56 0 0 1 .37 1 17.06 17.06 0 0 1 .42 4 7.32 7.32 0 0 1 -.1 1.48 7.05 7.05 0 0 1 -6.98 5.77h-3.33a12 12 0 0 1 -1.34-.05 7 7 0 0 1 -6.23-6.93 24.38 24.38 0 0 1 .11-2.7 7.79 7.79 0 0 1 .63-2.51 2.87 2.87 0 0 1 2-1.68 6.14 6.14 0 0 1 1.26-.14z" fill="#030202"/><path d="m41.23 32.49c.08.12.21.09.32.09.65 0 1.3.05 1.94 0 1.69-.16 3.38 0 5.07-.1s3.39 0 5.07-.09 3.36 0 5-.09 3.45 0 5.16-.09 3.33 0 5-.09 3.38 0 5.07-.09 3.42 0 5.12-.09 3.39 0 5.07-.09 3.33 0 5-.09 3.48 0 5.21-.09 3.3 0 4.94-.09 3.42 0 5.12-.09 3.42 0 5.12-.09c1.39-.09 2.78 0 4.17-.07a.72.72 0 0 0 0-.43c0-.67 0-1.34 0-2-1.75.13-3.51.05-5.26.12s-3.77 0-5.65.1c-1.62.07-3.24 0-4.85.08-1.78.1-3.56 0-5.34.09-1.56.09-3.12 0-4.67.08-1.79.09-3.59 0-5.39.1s-3.32 0-5 .09-3.08.05-4.62.07c-1.86.14-3.72 0-5.57.11s-3.41 0-5.12.09c-.91.05-1.82.06-2.73.06s-1.85 0-2.77.08c-1.66.09-3.32 0-5 .09-1.2.07-2.39 0-3.59 0a5.12 5.12 0 0 1 -1.37.45 13.19 13.19 0 0 1 -1.73.62l-3.52 1.21c0 .03-.13.03-.2.15z" fill="#ffd478"/><path d="m111.79 32.76c-.8.24-1.6.49-2.41.66-1.08.23-2.15.46-3.25.61-.91.12-1.81.29-2.73.42-.61.09-1.24.13-1.86.2s-1.33.16-2 .26c-.24 0-.51-.08-.73.1.38.57.77 1.14 1.15 1.72 1.09 1.65 2.09 3.35 3 5.09a62.11 62.11 0 0 1 3.22 6.92 40.1 40.1 0 0 1 2 6.52 1.34 1.34 0 0 0 1.45 1.08 1.33 1.33 0 0 0 1.26-1.24c.12-1.1.19-2.2.27-3.3s.11-2 .19-3c.06-.78 0-1.56.11-2.33 0-1.47 0-2.93 0-4.4 0-1-.09-2.06-.16-3.09a3 3 0 0 1 .17-1.23 11.23 11.23 0 0 0 .52-3.36 2.51 2.51 0 0 1 0-.67c-.19-.32-.09-.66-.2-.96z" fill="#d1a44a"/><path d="m58.5 20.51c.47 0 .92.11 1.39.11a11.24 11.24 0 0 0 2.11-.23c.35-.06.71-.06 1.06-.13a9 9 0 0 0 3.55-1.65 7.68 7.68 0 0 0 2.09-2.61 7.58 7.58 0 0 0 .72-2.43 6.49 6.49 0 0 0 -.69-3.91 7.16 7.16 0 0 0 -5.08-3.85 9.28 9.28 0 0 0 -3.6 0c-.4.07-.8.1-1.2.17a14.06 14.06 0 0 0 -1.85.59 9 9 0 0 0 -2.46 1.78 7.41 7.41 0 0 0 -2.1 4.84 6.89 6.89 0 0 0 .56 2.94.93.93 0 0 1 .15.42.76.76 0 0 1 .09.09 7.26 7.26 0 0 0 1.7 2.12 7.55 7.55 0 0 0 2.72 1.49zm6-7.48a4.08 4.08 0 0 1 -.54 2.11 5.06 5.06 0 0 1 -5.69 2.41 4.34 4.34 0 0 1 -2.82-6.23 5.06 5.06 0 0 1 5.71-2.53 4.33 4.33 0 0 1 3.3 4.21z" fill="#d6962a"/><path d="m58.5 20.51-.89-.26a7.55 7.55 0 0 1 -2.72-1.49 7.26 7.26 0 0 1 -1.7-2.12.76.76 0 0 0 -.09-.09 16.7 16.7 0 0 0 -1.73 2.51 22.3 22.3 0 0 0 -2.91 7.81 13.07 13.07 0 0 0 -.22 1.87 1.9 1.9 0 0 1 -.1.57v.75c1.2 0 2.39.05 3.59 0 1.65-.11 3.31 0 5-.09.92-.06 1.85 0 2.77-.08-.1-.86-.2-1.71-.27-2.57s-.24-1.86-.34-2.79c-.08-.69-.12-1.39-.2-2.09a17.62 17.62 0 0 1 -.19-1.93z" fill="#fdb61e"/><path d="m48.34 36.91a23.64 23.64 0 0 1 -6.19-1.07 5.85 5.85 0 0 1 -1-.48 2.62 2.62 0 0 1 -1-1.07 1.2 1.2 0 0 0 .17 1.27 3.25 3.25 0 0 0 1 .9 8.28 8.28 0 0 0 1.69.83 27 27 0 0 0 5.53 1.32 4.85 4.85 0 0 0 .46-1.61c-.24 0-.47.06-.66-.09z" fill="#b17621"/><path d="m49 37a4.85 4.85 0 0 1 -.46 1.62 4.2 4.2 0 0 1 -.22 1.32c-.16.92-.38 1.82-.5 2.74.09-.17.18-.34.28-.51a4.77 4.77 0 0 1 3.25-2.39 1.15 1.15 0 0 0 .17-.06 1 1 0 0 1 0-.44c.19-.73.38-1.46.56-2.19-1.01.02-2.08-.15-3.08-.09z" fill="#d1a44a"/><path d="m111.79 32.76c.11.3 0 .64.19.92a3.53 3.53 0 0 0 1.18-1.19 1.17 1.17 0 0 0 .19-.54c-.5.3-1.03.55-1.56.81z" fill="#b17621"/><path d="m48.16 30.06v-.75l-1.35 1.2a5.12 5.12 0 0 0 1.35-.45z" fill="#ddae48"/><path d="m99.65 132.94a.77.77 0 0 1 -.39.2 9.28 9.28 0 0 0 -6.12 7.08 9.45 9.45 0 0 0 5.76 10.71 1.44 1.44 0 0 1 .56.26 1.66 1.66 0 0 1 .49.07 8.23 8.23 0 0 0 2.16.31 9.39 9.39 0 0 0 8.75-5.07 8.83 8.83 0 0 0 1-3 7 7 0 0 0 .05-2.37 2.75 2.75 0 0 1 0-.58c-.18-.52-.26-1.06-.44-1.59a9.52 9.52 0 0 0 -3.07-4.33 9.32 9.32 0 0 0 -3.54-1.78 8.73 8.73 0 0 0 -2.83-.3 8.29 8.29 0 0 0 -1.86.29 2 2 0 0 1 -.52.1z" fill="#f9d0a7"/><path d="m91.94 79.39c-1 .35-1.9.71-2.87 1a29.68 29.68 0 0 1 -4 1c-.91.15-1.82.28-2.74.36a23.5 23.5 0 0 1 -3.84.15c-.67 0-1.34-.07-2-.13-.85-.08-1.68-.2-2.52-.31-.64-.09-1.26-.26-1.89-.38-.92-.19-1.81-.48-2.71-.74a2.23 2.23 0 0 0 -.36 0v.5 21.28c0 .62-.07.55.55.55h22c.48 0 .48 0 .49-.49v-22.25c-.05-.18-.11-.36-.11-.54z" fill="#e2e2e2"/><path d="m96 107.12a1.51 1.51 0 1 0 -1.53 1.5 1.53 1.53 0 0 0 1.53-1.5z" fill="#fdb61e"/><path d="m65.44 107.1a1.51 1.51 0 0 0 1.56 1.52 1.52 1.52 0 1 0 -1.51-1.52z" fill="#fdb61e"/><path d="m73.61 67.23a18.38 18.38 0 0 0 -2.36.15 12.81 12.81 0 0 1 -1.39.12c-.62 0-1.25.11-1.88.09a32 32 0 0 1 -3.39-.25 12 12 0 0 0 -2.24-.11 1.32 1.32 0 0 0 -1.41 1.43 3.6 3.6 0 0 0 1.42 3 8.27 8.27 0 0 0 4.28 1.83 10.24 10.24 0 0 0 2.14.16 10 10 0 0 0 5-1.42 4.47 4.47 0 0 0 2-2.48 2.92 2.92 0 0 0 .15-.93 1.41 1.41 0 0 0 -1.14-1.46 4.55 4.55 0 0 0 -1.18-.13z" fill="#fff"/><path d="m79.12 39.59h4.32a8.23 8.23 0 0 1 1.56-.42 64.36 64.36 0 0 0 9.1-2.94 12.88 12.88 0 0 0 2.23-1c-.5 0-1 .08-1.5.15s-.81 0-1.2.08l-1.63.1a17.36 17.36 0 0 0 -1.91.16h-.09a12.15 12.15 0 0 0 -2.09.11 13.94 13.94 0 0 0 -2 .15h-.09a20 20 0 0 0 -2 .1c-1.63 1.21-3.17 2.36-4.7 3.51z" fill="#ddae48"/><path d="m79.12 39.59c1.53-1.15 3.07-2.3 4.57-3.49-1.06 0-2.12.06-3.18.16h-.09c-.79 0-1.58.07-2.37.1a6.49 6.49 0 0 1 -1.45.26c-1 .14-1.91.29-2.88.39s-1.65.23-2.48.33-1.85.18-2.77.29c-1.11.14-2.22.24-3.33.37-.42 0-.84 0-1.25.13s-.72 0-1.07.11a.22.22 0 0 1 -.14-.41l.35-.22 1.24-.71c-1.09 0-2.19 0-3.28 0-1.42.1-2.84 0-4.26.09s-3.08 0-4.62.07c-.18.73-.37 1.46-.56 2.19a1 1 0 0 0 0 .44 15.55 15.55 0 0 1 2.55-.11h9a6.29 6.29 0 0 1 2.67.54 5 5 0 0 1 2.47 2.68 10.46 10.46 0 0 1 .71 3.27c0 .42.07.84.08 1.26 0 .19.08.26.27.25h2.47c.21 0 .29-.06.3-.28 0-.61 0-1.23.12-1.84a10.17 10.17 0 0 1 .71-2.77 4.94 4.94 0 0 1 4-3c.69-.13 1.46-.06 2.22-.1z" fill="#f8d0a7"/><path d="m64.27 36.9-1.27.71-.35.22a.22.22 0 0 0 .14.41c.35-.1.72 0 1.07-.11s.83-.08 1.25-.13c1.11-.13 2.22-.23 3.33-.37.92-.11 1.85-.18 2.77-.29s1.65-.24 2.48-.33 1.92-.25 2.88-.39a6.49 6.49 0 0 0 1.45-.26c-.9.06-1.8.06-2.69.12-.53 0-1.07 0-1.61.06-1 .08-2 0-3 .11s-1.74 0-2.6.08c-1 .11-2 .05-3 .08a4.91 4.91 0 0 1 -.85.09z" fill="#ddae48"/><path d="m48.34 36.91c.19.15.42.06.63.08-.2-.16-.42-.07-.63-.08z" fill="#d6962a"/><path d="m83 55.61c.93 0 1.86 0 2.79-.07a7.05 7.05 0 0 0 6-5.59 7.61 7.61 0 0 0 .13-1.43 18.63 18.63 0 0 0 -.31-3.8 6.12 6.12 0 0 0 -.49-1.44 2.88 2.88 0 0 0 -2.2-1.6 6.38 6.38 0 0 0 -1.08-.09h-9.84a5.68 5.68 0 0 0 -1.29.15 2.85 2.85 0 0 0 -2 1.63 7.28 7.28 0 0 0 -.6 2.25 19.42 19.42 0 0 0 -.11 3.38 7 7 0 0 0 6.22 6.52c.9.13 1.78.05 2.78.09zm-3.51-6a1.5 1.5 0 1 1 1.48-1.52 1.48 1.48 0 0 1 -1.51 1.5z" fill="#fefefe"/><path d="m58 41.59h-5a6.14 6.14 0 0 0 -1.29.14 2.87 2.87 0 0 0 -2 1.68 7.79 7.79 0 0 0 -.63 2.51 24.38 24.38 0 0 0 -.11 2.7 7 7 0 0 0 6.28 6.93 12 12 0 0 0 1.34.05h3.31a7.05 7.05 0 0 0 6.95-5.86 7.32 7.32 0 0 0 .1-1.48 17.06 17.06 0 0 0 -.42-4 6.56 6.56 0 0 0 -.37-1 2.91 2.91 0 0 0 -2.35-1.67 8.32 8.32 0 0 0 -1.12-.07zm-2.5 8a1.5 1.5 0 1 1 1.5-1.48 1.5 1.5 0 0 1 -1.53 1.48z" fill="#fefefe"/><path d="m64.46 13a4.33 4.33 0 0 0 -3.34-4.24 5.06 5.06 0 0 0 -5.71 2.53 4.34 4.34 0 0 0 2.82 6.23 5.06 5.06 0 0 0 5.69-2.41 4.08 4.08 0 0 0 .54-2.11z" fill="#f6e8cf"/><path d="m79.46 49.59a1.5 1.5 0 0 0 0-3 1.5 1.5 0 1 0 0 3z" fill="#030202"/><path d="m55.47 49.59a1.5 1.5 0 1 0 -1.54-1.48 1.5 1.5 0 0 0 1.54 1.48z" fill="#030202"/><g stroke-miterlimit="10"><rect fill="#f9d0a7" height="16" rx="8" stroke="#000" stroke-width="2" width="20" x="73" y="40.5"/><rect fill="#f9d0a7" height="16" rx="8" stroke="#000" stroke-width="2" width="20" x="48" y="40.5"/><path d="m68 48.5h5" fill="none" stroke="#000" stroke-width="2"/><path d="m73.55 47.78 19.17-.01" stroke="#b79274"/><path d="m48.55 47.78 19.17-.01" stroke="#b79274"/><rect fill="none" height="16" rx="8" stroke="#000" stroke-width="2" width="20" x="73" y="40.5"/><rect fill="none" height="16" rx="8" stroke="#000" stroke-width="2" width="20" x="48" y="40.5"/></g></svg>