<svg viewBox="0 0 157 180" xmlns="http://www.w3.org/2000/svg"><path d="m58.5 133h14v40h-14z" fill="#1b1464"/><path d="m58 160.5h30v13h-30z" fill="#8c6239"/><path d="m83.5 134h14v39h-14z" fill="#1b1464"/><path d="m83.5 160h29v13h-29z" fill="#8c6239"/><path d="m97.5 92v44h-39v-45c-6.5 17.5 2.5 41.5 2.5 41.5l-15 5c-18-56 12.5-63.5 12.5-63.5h35l5 1 3.5.5s1 38 20 42l-9 10s-18-1-15.5-35.5" fill="#fff"/><circle cx="54.5" cy="137" fill="#f9d0a7" r="9.5"/><circle cx="122.5" cy="127" fill="#f9d0a7" r="9.5"/><path d="m72.99 74 4.51 10h5l6-10z" fill="#006837"/><path d="m77.5 84-3 41 5.59 7.34a.53.53 0 0 0 .88 0l4.53-7.34-3-41z" fill="#009245"/><path d="m72.5 74 4.42 8.07a.8.8 0 0 1 -1.17.91l-15.7-9z" fill="#e6e6e6"/><path d="m83.07 82 4.93-8h9.5l-14 8.42a.32.32 0 0 1 -.43-.42z" fill="#e6e6e6"/><ellipse cx="78.61" cy="44.64" fill="#f9d0a7" rx="32.39" ry="32.14"/><circle cx="47.95" cy="51.28" fill="#f9d0a7" r="6.45"/><path d="m97 63.73c0 2.63-3.36 4.77-7.5 4.77s-7.5-2.14-7.5-4.77 3.86-1.23 8-1.23 7-1.41 7 1.23z" fill="#fff"/><path d="m110.36 39.81c-.5-5.47-1.36-6.81-2.26-11.81a1.09 1.09 0 0 0 -.58-.78l-22.76-11.57a1 1 0 0 0 -.63-.11l-22.37 2.81h-10.3a1.09 1.09 0 0 0 -.81 1.81 1.08 1.08 0 0 1 -.24 1.64c-2 1.21-5.73 4.39-3.93 10.72a1.17 1.17 0 0 0 .09.24c.44.8-.73 4.45.47 17.23a1.37 1.37 0 0 0 2.71.15c2.11-10.14 9.64-21.74 14.07-25.72a1.06 1.06 0 0 1 .92-.23l39.75 5.43a1.08 1.08 0 0 1 .51.26c.54.51 1.72 5.17 2.76 10.3a1.31 1.31 0 0 0 2.6-.37z" fill="#d1a44a"/><path d="m79.59 35.32c-2.59-.17-22.91-3.74-28.59-13.82 0 0 6-17 23-20 0 0 10.46-1.7 23.2 7.7.37.28 5.86 6.35 6.12 6.73 1.92 2.73 6.2 9.82 11.94 11.87a.3.3 0 0 1 -.06.58c-5 .54-21 2-29.24-.84l9.36 5.22a.2.2 0 0 1 -.1.38c-4.14-.39-20.88-2-23.17-3.79l7.6 5.79a.1.1 0 0 1 -.06.18z" fill="#ddae47"/><g stroke-miterlimit="10"><rect fill="#f9d0a7" height="16" rx="8" stroke="#000" stroke-width="2" width="20" x="89" y="35.5"/><rect fill="#f9d0a7" height="16" rx="8" stroke="#000" stroke-width="2" width="20" x="64" y="35.5"/><path d="m84 43.5h5" fill="none" stroke="#000" stroke-width="2"/><path d="m64.5 44 18.5-.5" stroke="#b79274"/><path d="m90 44h18" stroke="#b79274"/></g><path d="m64 43.27a5.7 5.7 0 0 0 .2 1.49.64.64 0 0 0 .13.26.44.44 0 0 0 .66-.13 1.23 1.23 0 0 0 .14-.76 1.86 1.86 0 0 0 -.1-.7.7.7 0 0 0 -.51-.45.46.46 0 0 0 -.51.51"/></svg>