<svg viewBox="0 0 157 180" xmlns="http://www.w3.org/2000/svg"><path d="m85.82 133h14v40h-14z" fill="#1b1464" transform="matrix(-1 0 0 -1 185.63 306)"/><path d="m70.32 160.5h30v13h-30z" fill="#8c6239" transform="matrix(-1 0 0 -1 170.63 334)"/><path d="m60.82 134h14v39h-14z" fill="#1b1464" transform="matrix(-1 0 0 -1 135.63 307)"/><path d="m45.82 160h29v13h-29z" fill="#8c6239" transform="matrix(-1 0 0 -1 120.63 333)"/><path d="m60.82 92v44h39v-45c6.5 17.5-2.5 41.5-2.5 41.5l15 5c18-56-12.5-63.5-12.5-63.5h-35l-5 1-3.5.5s-1 38-20 42l9 10s18-1 15.5-35.5" fill="#fff"/><circle cx="103.82" cy="137" fill="#f9d0a7" r="9.5"/><circle cx="35.82" cy="127" fill="#f9d0a7" r="9.5"/><path d="m85.33 74-4.52 10h-5l-6-10z" fill="#006837"/><path d="m80.82 84 3 41-5.59 7.34a.53.53 0 0 1 -.88 0l-4.53-7.34 3-41z" fill="#009245"/><path d="m85.82 74-4.42 8.07a.79.79 0 0 0 1.16.91l15.71-9z" fill="#e6e6e6"/><path d="m75.24 82-4.92-8h-9.5l14 8.42a.32.32 0 0 0 .42-.42z" fill="#e6e6e6"/><ellipse cx="79.71" cy="44.64" fill="#f9d0a7" rx="32.39" ry="32.14"/><circle cx="110.37" cy="51.28" fill="#f9d0a7" r="6.45"/><path d="m61.32 63.73c0 2.63 3.35 4.77 7.5 4.77s7.5-2.14 7.5-4.77-3.86-1.23-8-1.23-7-1.41-7 1.23z" fill="#fff"/><path d="m48 39.81c.46-5.47 1.31-6.81 2.22-11.81a1.07 1.07 0 0 1 .57-.78l22.76-11.57a1.07 1.07 0 0 1 .63-.11l22.37 2.81h10.3a1.09 1.09 0 0 1 .82 1.81 1.08 1.08 0 0 0 .23 1.64c2 1.21 5.74 4.39 3.94 10.72a1.22 1.22 0 0 1 -.1.24c-.43.8.73 4.45-.47 17.23a1.37 1.37 0 0 1 -2.7.15c-2.11-10.14-9.64-21.74-14.07-25.72a1.07 1.07 0 0 0 -.93-.23l-39.74 5.43a1.08 1.08 0 0 0 -.51.26c-.54.51-1.72 5.17-2.77 10.3a1.31 1.31 0 0 1 -2.55-.37z" fill="#d1a44a"/><path d="m78.73 35.32c2.59-.17 22.9-3.74 28.59-13.82 0 0-6-17-23-20 0 0-10.47-1.7-23.21 7.7-.37.28-5.85 6.35-6.12 6.73-1.91 2.73-6.19 9.82-11.93 11.87a.3.3 0 0 0 .06.58c5 .54 21 2 29.23-.84l-9.35 5.22a.2.2 0 0 0 .11.38c4.13-.39 20.88-2 23.17-3.79l-7.61 5.79a.1.1 0 0 0 .06.18z" fill="#ddae47"/><g stroke-miterlimit="10"><rect fill="#f9d0a7" height="16" rx="8" stroke="#000" stroke-width="2" width="20" x="75" y="35.5"/><rect fill="#f9d0a7" height="16" rx="8" stroke="#000" stroke-width="2" width="20" x="50" y="35.5"/><path d="m70 43.5h5" fill="none" stroke="#000" stroke-width="2"/><path d="m50.5 44 18.5-.5" stroke="#b79274"/><path d="m76 44h18" stroke="#b79274"/></g><path d="m50 43.27a5.7 5.7 0 0 0 .2 1.49.64.64 0 0 0 .13.26.44.44 0 0 0 .66-.13 1.23 1.23 0 0 0 .14-.76 1.86 1.86 0 0 0 -.1-.7.7.7 0 0 0 -.51-.45.46.46 0 0 0 -.51.51"/></svg>