<svg viewBox="0 0 157 180" xmlns="http://www.w3.org/2000/svg"><path d="m34.59 147.02-.08-14 45.44 1.15.61 13.02z" fill="#1b1464"/><path d="m26 125.49h30v13h-30z" fill="#8c6239" transform="matrix(.00558502 .9999844 -.9999844 .00558502 172.76 90.25)"/><path d="m126.49 133.72.92 13.97-48.41-.19-1-13z" fill="#1b1464"/><path d="m105.47 127.15h29v13h-29z" fill="#8c6239" transform="matrix(-.06557729 -.99784749 .99784749 -.06557729 -5.51 262.13)"/><path d="m98.5 92v44h-39v-45c-17.5-20.5-43.5-12.5-43.5-12.5l-5-13a44.49 44.49 0 0 1 48.5 8.5l31.5.5h8s11-15 46-10l-6 14s-23-2-40.5 13.5" fill="#fff"/><circle cx="10.5" cy="74" fill="#f9d0a7" r="9.5"/><circle cx="146.5" cy="73" fill="#f9d0a7" r="9.5"/><ellipse cx="79.61" cy="44.64" fill="#f9d0a7" rx="32.39" ry="32.14"/><circle cx="48.95" cy="51.28" fill="#f9d0a7" r="6.45"/><path d="m98 63.73c0 2.63-3.36 4.77-7.5 4.77s-7.5-2.14-7.5-4.77 3.86-1.23 8-1.23 7-1.41 7 1.23z" fill="#fff"/><path d="m111.36 39.81c-.5-5.47-1.36-6.81-2.26-11.81a1.09 1.09 0 0 0 -.58-.78l-22.76-11.57a1 1 0 0 0 -.63-.11l-22.37 2.81h-10.3a1.09 1.09 0 0 0 -.81 1.81 1.08 1.08 0 0 1 -.24 1.64c-2 1.21-5.73 4.39-3.93 10.72a1.17 1.17 0 0 0 .09.24c.44.8-.73 4.45.47 17.23a1.37 1.37 0 0 0 2.71.15c2.11-10.14 9.64-21.74 14.07-25.72a1.06 1.06 0 0 1 .92-.23l39.75 5.43a1.08 1.08 0 0 1 .51.26c.54.51 1.72 5.17 2.76 10.3a1.31 1.31 0 0 0 2.6-.37z" fill="#d1a44a"/><path d="m80.59 35.32c-2.59-.17-22.91-3.74-28.59-13.82 0 0 6-17 23-20 0 0 10.46-1.7 23.2 7.7.37.28 5.86 6.35 6.12 6.73 1.92 2.73 6.2 9.82 11.94 11.87a.3.3 0 0 1 -.06.58c-5 .54-21 2-29.24-.84l9.36 5.22a.2.2 0 0 1 -.1.38c-4.14-.39-20.88-2-23.17-3.79l7.6 5.79a.1.1 0 0 1 -.06.18z" fill="#ddae47"/><path d="m73.49 74.5 4.51 10h5l6-10z" fill="#006837"/><path d="m73 74.5 4.42 8.07a.8.8 0 0 1 -1.17.91l-15.7-9z" fill="#e6e6e6"/><path d="m83.57 82.48 4.93-8h9.5l-14 8.44a.32.32 0 0 1 -.43-.44z" fill="#e6e6e6"/><path d="m78 84.5-38.5-33.5.09-8.16c.1.16.74.15.91.16.46 0 .44.12.86.34l7.14 3.66 34.5 37.5z" fill="#009245"/><g stroke-miterlimit="10"><rect fill="#f9d0a7" height="16" rx="8" stroke="#000" stroke-width="2" width="20" x="90" y="35.5"/><rect fill="#f9d0a7" height="16" rx="8" stroke="#000" stroke-width="2" width="20" x="65" y="35.5"/><path d="m85 43.5h5" fill="none" stroke="#000" stroke-width="2"/><path d="m65.5 44 18.5-.5" stroke="#b79274"/><path d="m91 44h18" stroke="#b79274"/></g><path d="m65 43.27a5.7 5.7 0 0 0 .2 1.49.64.64 0 0 0 .13.26.44.44 0 0 0 .66-.13 1.23 1.23 0 0 0 .14-.76 1.86 1.86 0 0 0 -.1-.7.7.7 0 0 0 -.51-.45.46.46 0 0 0 -.51.51"/></svg>