<svg viewBox="0 0 157 180" xmlns="http://www.w3.org/2000/svg"><path d="m41.76 149.5c-.09-.11-.21-.09-.33-.1l-6.34-.4c-1.62-.1-3.24-.22-4.85-.33-.4 0-.41 0-.39-.48.1-1.65.2-3.31.31-5 .1-1.49.21-3 .31-4.48.19-2.92.39-5.83.58-8.74l.39-6.16c.08-1.24.16-2.48.25-3.71 0-.41 0-.42.47-.4l2.87.17 4.73.32 4.37.28c.55 0 .56 0 .53.6q-.22 3.53-.47 7.06c-.09 1.43-.19 2.87-.26 4.31a19.14 19.14 0 0 0 -.13 2.39 17.16 17.16 0 0 0 -.14 2c-.17 1.42-.2 2.85-.31 4.28-.08 1-.14 2-.18 2.92a19.76 19.76 0 0 1 -.13 2c-.12.85 0 1.71-.19 2.55v.83z" fill="#8c623a"/><path d="m18 78.93c-.38.16-.49.56-.72.84a9.37 9.37 0 0 1 -5.68 3.5 9.18 9.18 0 0 1 -7.32-1.55 9.24 9.24 0 0 1 -3.93-6.25 1.37 1.37 0 0 0 -.23-.73v-1.68a.79.79 0 0 0 .22-.54 9.13 9.13 0 0 1 3-5.63 9.5 9.5 0 0 1 10-1.72l-1.12.3c.44 1 .86 2 1.28 3z" fill="#f9d0a7"/><path d="m109.79 42.34a.35.35 0 0 1 .12.32c0 1 .2 1.91.12 2.87 0 .37.13.51.45.64a6.23 6.23 0 0 1 4.21 5.28 6.41 6.41 0 0 1 -5.2 7.11 8.83 8.83 0 0 1 -1.85.09.54.54 0 0 0 -.59.37 30.09 30.09 0 0 1 -3.42 5.75 31 31 0 0 1 -3.48 3.94 32.53 32.53 0 0 1 -6.42 4.77l-1.32.72a.4.4 0 0 0 -.25.24 1.94 1.94 0 0 0 -.67.21c-.94.45-1.9.83-2.87 1.19s-2 .6-3 .94h-.18a1.53 1.53 0 0 0 -1.44 1.13c-.71 1.86-1.5 3.68-2.27 5.52-1 2.45-2 4.89-3.08 7.33a11 11 0 0 1 -.79 1.72 1 1 0 0 1 -.27-.5c-.2-.58-.41-1.17-.63-1.74q-1.83-4.71-3.69-9.4c-.13-.32-.15-.71-.48-.94a14.36 14.36 0 0 1 -.06-2c0-.55 0-.56-.54-.64a31.88 31.88 0 0 1 -6.19-1.66 1 1 0 0 0 -.7-.12h-.11c0-.19-.19-.24-.33-.3a32 32 0 0 1 -8.1-4.94 32.28 32.28 0 0 1 -10.25-15.64 29.58 29.58 0 0 1 -1-5.2 28.67 28.67 0 0 1 -.22-3.34c0-.14 0-.27 0-.41.09.1.07.22.09.34a9 9 0 0 0 8.09 7.41 38.77 38.77 0 0 0 5.28 0 8.78 8.78 0 0 0 6.77-3.68 8.55 8.55 0 0 0 1.58-3.72c.08-.5.08-.51.58-.51s1.08 0 1.62 0c.32 0 .71-.15.93.07s.15.56.21.85a9 9 0 0 0 7.93 7 38.07 38.07 0 0 0 5.34 0 8.9 8.9 0 0 0 8.39-7.49 16 16 0 0 0 0-4.31 9.28 9.28 0 0 0 -.78-3.18 4.88 4.88 0 0 0 -2.48-2.5 6.28 6.28 0 0 0 -2.57-.48h-4.2a.34.34 0 0 1 .27-.19c1.77-.42 3.52-.89 5.25-1.43 1.43-.44 2.83-.94 4.21-1.51 1.4-.1 2.79-.21 4.19-.28a10.11 10.11 0 0 1 1.91-.11 1 1 0 0 0 .2.43 66.76 66.76 0 0 1 5 9c.72 1.58 1.39 3.18 2 4.82a36.08 36.08 0 0 1 1.35 4.82 1.38 1.38 0 0 0 2.75-.18c.11-1.35.29-2.69.34-4s.2-2.59.15-3.89c0-.21-.06-.42.1-.59zm-43.11 27.13c.52 0 1 0 1.55-.11a9.11 9.11 0 0 0 3.92-1.36 4.24 4.24 0 0 0 2.08-3 1.53 1.53 0 0 0 -1.14-1.82 10 10 0 0 0 -2.62 0c-1.17.12-2.34.19-3.51.31a17 17 0 0 1 -3.1-.14 13.65 13.65 0 0 1 -1.42-.14 7.67 7.67 0 0 0 -2-.06 1.17 1.17 0 0 0 -1.19 1.06 3.44 3.44 0 0 0 .66 2.55 5.35 5.35 0 0 0 1.3 1.21 9.82 9.82 0 0 0 5.47 1.5z" fill="#f9d0a7"/><path d="m65.17 75.43h.11a7.74 7.74 0 0 1 -.35 1.57c-.36 1.32-.72 2.65-1.1 4a.57.57 0 0 0 .23.71l1.1.81c.77.58 1.52 1.16 2.29 1.73a.34.34 0 0 1 .15.5 2.31 2.31 0 0 0 -.1.28q-1 2.67-1.94 5.33c-.56 1.64-1.13 3.17-1.71 4.74a.52.52 0 0 0 .09.58c.62.79 1.36 1.46 2 2.21 1.06 1.11 2.06 2.21 3.06 3.34.78.85 1.59 1.68 2.38 2.52a.9.9 0 0 1 .16.18 8.31 8.31 0 0 0 1.46 1.41v.23c0 1.75.07 3.5.11 5.25v4.19.72q.11 6.06.2 12.11c0 2.5.1 5 .14 7.49v.54 3.12c0 .43 0 .43-.42.45h-13.18c-.65 0-.65 0-.66-.66v-.12c-.06-3.13-.11-6.27-.18-9.4a1.65 1.65 0 0 0 -.09-.88c-.15-6.73-.32-13.46-.45-20.2-.09-4.89-.31-9.78-.24-14.68a1.18 1.18 0 0 0 -.4-.93 40.66 40.66 0 0 0 -11.27-7.57 56.94 56.94 0 0 0 -13.84-4.34 67.08 67.08 0 0 0 -14.07-1.16c-.44 0-.54-.23-.67-.52l-4.47-10.51c-.42-1-.84-2-1.28-3l1.12-.3 3.25-.55a64.59 64.59 0 0 1 8-.81 57.33 57.33 0 0 1 7.18.13 44.27 44.27 0 0 1 21.75 7.41 25.82 25.82 0 0 1 4.47 3.84.72.72 0 0 0 .56.27c2.21-.02 4.44-.02 6.61-.03z" fill="#3f200b"/><path d="m118.66 79.19a21.81 21.81 0 0 0 -3.72 1.11 33.24 33.24 0 0 0 -15.45 11.8 1.4 1.4 0 0 0 -.25.89v40.84.66s0 .2 0 .3v4.21c0 .43 0 .43-.43.45h-13.74c-.25 0-.36-.09-.35-.35 0-.64 0-1.28 0-1.92a14.82 14.82 0 0 0 0-2.21 2.51 2.51 0 0 0 .06-.77l.22-13.87c0-3.66.11-7.31.16-11 0-1.3 0-2.6 0-3.9a11.73 11.73 0 0 0 0-1.19c.24 0 .36-.24.51-.39 3-3 6-6 9-9a.91.91 0 0 0 .33-1.1c-.48-1.22-.92-2.46-1.37-3.7l-1.18-3.19-1-2.93c-.15-.43-.12-.51.22-.76l1.54-1.17c.5-.37 1-.73 1.48-1.11.3-.24.57-.48.43-1-.31-1-.6-2-.85-3a7 7 0 0 1 -.43-1.89h3.47a1.22 1.22 0 0 0 1-.42 31.81 31.81 0 0 1 8.59-6.42 46.82 46.82 0 0 1 10-3.87.49.49 0 0 0 .17 0c1.55-.4 3.12-.71 4.7-1a2 2 0 0 0 1-.22h.3a38.68 38.68 0 0 1 4.16-.35c.72 0 1.43-.06 2.14-.09 1-.07 1.94.15 2.92.13.75 0 1.5.13 2.25.19a6.63 6.63 0 0 0 1.83.14.78.78 0 0 0 .32.15 49.32 49.32 0 0 1 5.52 1.2.44.44 0 0 0 .15.1 20.73 20.73 0 0 1 2.44.73c.25.08.45.18.41.49a1.52 1.52 0 0 0 -.27.59q-2.18 6.06-4.34 12.13a2.14 2.14 0 0 1 -.36.87c-.24.23-.58-.13-.9-.09a4.65 4.65 0 0 0 -1.69-.32 8.22 8.22 0 0 0 -2.19-.46c-.8-.11-1.6-.21-2.41-.27-1.11-.1-2.21-.23-3.32-.22a40.92 40.92 0 0 0 -5.86.25 25.1 25.1 0 0 0 -3.35.52 10.6 10.6 0 0 0 -1.86.43z" fill="#3f200b"/><path d="m48.6 15.7a26.1 26.1 0 0 1 .93-8.06 8.94 8.94 0 0 1 6.62-6.32 18.12 18.12 0 0 1 5.28-.6c1.08 0 2.14.26 3.22.39 1.92.23 3.84.46 5.77.67s3.74.38 5.61.53a35 35 0 0 0 4.91 0c3-.18 6-.56 9-.91 1.74-.2 3.46-.4 5.18-.66a8 8 0 0 1 1.38 0 20.05 20.05 0 0 1 4.49.67 9.09 9.09 0 0 1 6.54 6.43 20.46 20.46 0 0 1 .79 4.17 51.81 51.81 0 0 1 .15 6.71c-1.13 0-2.26.15-3.39.22-1.31.08-2.62.17-3.94.24s-2.78.18-4.17.24c-1.71.07-3.43.14-5.14.25-1 .06-2 0-3 .1-1.57.11-3.15.1-4.72.12-3.18 0-6.36.15-9.53-.08-.79-.06-1.59-.05-2.39-.1-1.51-.1-3-.24-4.52-.37-1.23-.1-2.45-.26-3.68-.4-1.5-.18-3-.45-4.47-.7-2-.34-4-.75-6-1.21-1.67-.4-3.3-.86-4.92-1.33z" fill="#874b15"/><path d="m48.6 15.7c1.62.47 3.25.93 4.9 1.31 2 .46 4 .87 6 1.21 1.49.25 3 .52 4.47.7 1.23.14 2.45.3 3.68.4 1.51.13 3 .27 4.52.37.8 0 1.6 0 2.39.1 3.17.23 6.35.12 9.53.08 1.57 0 3.15 0 4.72-.12 1-.07 2 0 3-.1 1.71-.11 3.43-.18 5.14-.25 1.39-.06 2.78-.17 4.17-.24s2.63-.16 3.94-.24c1.13-.07 2.26-.21 3.39-.22v3.59 2.87a6.45 6.45 0 0 0 -.13 1.58c-1.16 0-2.3.19-3.45.28s-2.38.19-3.56.3c-1.41.13-2.83.15-4.24.24s-2.79.06-4.19.12c-2.85.12-5.71-.06-8.57-.1-1 0-2.11-.17-3.16-.13h-.12a26.84 26.84 0 0 0 -2.68-.2c-.74-.06-1.47-.13-2.21-.17-.47 0-1-.06-1.43-.12l-2.71-.33c-1.14-.14-2.29-.24-3.44-.4s-2.39-.4-3.59-.55c-2-.26-4-.64-5.94-1q-4.22-.81-8.39-1.88a8.8 8.8 0 0 1 -2-.58c0-2 0-3.89 0-5.84-.07-.25-.05-.46-.04-.68z" fill="#3f200b"/><path d="m97.9 31.92a10.11 10.11 0 0 0 -1.9.08c-1.4.07-2.79.18-4.19.28l-2.45.08c-.71 0-1.43 0-2.15 0a28.21 28.21 0 0 1 -3 0c-.94-.05-1.87-.07-2.81-.06-.43 0-.87-.07-1.31-.08-1.08 0-2.15-.19-3.22-.17-1-.21-2-.23-3-.35-1.65-.2-3.29-.42-4.92-.68l-2.72-.43-3.81-.59a.6.6 0 0 0 -.11-.06c-2.46-.5-4.9-1.11-7.33-1.75-2.88-.76-5.73-1.6-8.57-2.48-.19-.05-.38-.15-.57 0 0-.22-.19-.23-.34-.28-.64-.2-1.29-.39-1.93-.61l-7.75-2.61a2.8 2.8 0 0 1 -1.22-.83 1.32 1.32 0 0 1 -.26-1.44 1.86 1.86 0 0 0 .22-.55c.39-.1.64-.49 1.08-.49a.53.53 0 0 0 .33.23c.9.31 1.8.64 2.71.94 3 1 5.94 2 8.94 2.87 1.77.53 3.54 1.08 5.33 1.56 2.23.59 4.47 1.13 6.71 1.68 1.52.38 3.06.68 4.6 1q2.83.55 5.69 1c1.34.21 2.67.39 4 .55 1 .12 2.05.23 3.09.29a13.1 13.1 0 0 1 1.66.11 23.14 23.14 0 0 0 3.21.19c2.9.09 5.8 0 8.7 0a2.55 2.55 0 0 0 .48 0 24.58 24.58 0 0 1 3.1-.2 15 15 0 0 1 2.68-.15.55.55 0 0 0 .18 0 15.77 15.77 0 0 1 2.07-.2c.57-.08 1.15-.11 1.72-.17.89-.1 1.77-.22 2.66-.31 1.13-.11 2.24-.29 3.37-.41s2.51-.37 3.76-.56c1.63-.25 3.26-.48 4.89-.75s3.52-.62 5.27-1c.33-.06.73 0 1-.31a1.62 1.62 0 0 1 1.21 1.67v.41a.36.36 0 0 0 -.3.17 2 2 0 0 1 -1.42.89c-1.51.3-3 .6-4.55.84-1.81.29-3.62.65-5.44.9-.33 0-.73-.05-1 .23a1.68 1.68 0 0 0 -.59 0c-1.79.26-3.58.54-5.37.76q-2.37.3-4.74.54a5.76 5.76 0 0 0 -1.69.25z" fill="#683e12"/><path d="m82.07 35.44h4.2a6.28 6.28 0 0 1 2.57.48 4.88 4.88 0 0 1 2.48 2.5 9.28 9.28 0 0 1 .78 3.18 16 16 0 0 1 0 4.31 8.9 8.9 0 0 1 -8.39 7.49 38.07 38.07 0 0 1 -5.34 0 9 9 0 0 1 -7.93-7c-.06-.29 0-.67-.21-.85s-.61-.07-.93-.07c-.54 0-1.08 0-1.62 0s-.5 0-.58.51a8.55 8.55 0 0 1 -1.6 3.78 8.78 8.78 0 0 1 -6.77 3.68 38.77 38.77 0 0 1 -5.28 0 9 9 0 0 1 -8.09-7.45c0-.12 0-.24-.09-.34a22.11 22.11 0 0 1 .32-5.51 14.19 14.19 0 0 1 .5-1.65.31.31 0 0 0 .12-.35c.09 0 .12-.09.16-.16a4.91 4.91 0 0 1 3.43-2.42 9 9 0 0 1 1.55-.11h9.77 1a4.9 4.9 0 0 1 4.11 2.81 7.5 7.5 0 0 1 .47 1.22 15 15 0 0 1 .48 3.25c0 .72-.11.65.7.66h1s1 .17 1.27-.08.15-.86.18-1.31a10.86 10.86 0 0 1 .83-3.6 4.82 4.82 0 0 1 3.25-2.78 7.64 7.64 0 0 1 1.84-.21 6.38 6.38 0 0 0 1.38-.05c1.46.15 2.95.09 4.44.07zm-.88 16h2.27a7 7 0 0 0 6.68-5.9 15.81 15.81 0 0 0 -.08-4.18 7.11 7.11 0 0 0 -.55-2.08 2.91 2.91 0 0 0 -2.1-1.72 5.7 5.7 0 0 0 -1.25-.13h-10a3.24 3.24 0 0 0 -3.49 2.67 1.55 1.55 0 0 0 -.06.23 16.76 16.76 0 0 0 -.36 4.41 7 7 0 0 0 5.89 6.61 24.06 24.06 0 0 0 3.05.1zm-24.91-14h-5.16a3.24 3.24 0 0 0 -3.47 2.69 10.6 10.6 0 0 0 -.32 1.77 16 16 0 0 0 0 3.59 7 7 0 0 0 6.74 5.95h4.32a7 7 0 0 0 6.56-5 12.5 12.5 0 0 0 .17-4.76 8.32 8.32 0 0 0 -.34-1.68 3.18 3.18 0 0 0 -3-2.52h-.72z" fill="#040403"/><path d="m139.33 79.25c.32 0 .66.32.9.09a2.14 2.14 0 0 0 .36-.87q2.17-6.07 4.34-12.13a1.52 1.52 0 0 1 .27-.59 11.35 11.35 0 0 1 2.66-.29 14.13 14.13 0 0 1 2.43.28 2.24 2.24 0 0 0 .27.13 9.6 9.6 0 0 1 4.26 2.74c.09.1.17.22.32.24a8.36 8.36 0 0 0 .85 1.36 9.4 9.4 0 0 1 1.22 4.26 9.13 9.13 0 0 1 -1.1 5 9.53 9.53 0 0 1 -11.48 4.52l-.29-.07-.27-.14a9.58 9.58 0 0 1 -4-3.12c-.08-.11-.14-.24-.29-.28-.04-.45-.42-.71-.45-1.13z" fill="#f9d0a7"/><path d="m147.86 65.46a11.35 11.35 0 0 0 -2.66.29c0-.31-.16-.41-.41-.49a20.73 20.73 0 0 0 -2.44-.73.44.44 0 0 1 -.15-.1 6.21 6.21 0 0 0 -.14-2.19 7.23 7.23 0 0 0 -2.95-4.76 7.32 7.32 0 0 0 -4.67-1.18 15.43 15.43 0 0 0 -5.18 1.17 12.87 12.87 0 0 0 -6.49 5.53 38.34 38.34 0 0 0 -3.81.64 14.09 14.09 0 0 1 -2 .43 17.9 17.9 0 0 1 9.88-11.63 19.39 19.39 0 0 1 8.78-2 12.13 12.13 0 0 1 11.62 8.56 15.57 15.57 0 0 1 .69 6c-.01.18-.05.32-.07.46z" fill="#522b0c"/><path d="m93.84 75a7 7 0 0 0 .43 1.91c.25 1 .54 2 .85 3 .14.47-.13.71-.43 1-.48.38-1 .74-1.48 1.11l-1.58 1.17c-.34.25-.37.33-.22.76l1 2.93 1.18 3.19c.45 1.24.89 2.48 1.37 3.7a.91.91 0 0 1 -.25 1.15c-3 3-6 6-9 9-.15.15-.27.36-.51.39l-.06-.37a3.16 3.16 0 0 0 0-1 1.22 1.22 0 0 0 .12-.7v-6a2.35 2.35 0 0 1 0-.59 9.83 9.83 0 0 0 .07-2 .28.28 0 0 0 -.14-.24 1.14 1.14 0 0 0 .14-.75c0-1.29 0-2.58 0-3.88a2 2 0 0 0 0-.88 2.57 2.57 0 0 0 .07-.83c0-.79 0-1.59 0-2.39 0-2.6.07-5.21.11-7.81 1-.34 2-.58 3-.94s1.93-.74 2.87-1.19a1.94 1.94 0 0 1 .67-.21h1s.55 0 .61.41c.07-.05.14-.01.18.06z" fill="#683e12"/><path d="m97.9 31.92a5.76 5.76 0 0 1 1.65-.22q2.37-.24 4.74-.54c1.79-.22 3.58-.5 5.37-.76a1.68 1.68 0 0 1 .59 0 15.6 15.6 0 0 1 -.45 3 3.56 3.56 0 0 0 -.2 2.11c.1 1.8.18 3.59.17 5.38v1.44c-.16.17-.1.38-.1.57 0 1.3-.1 2.59-.15 3.89s-.23 2.69-.34 4a1.38 1.38 0 0 1 -2.75.18 36.08 36.08 0 0 0 -1.37-4.88c-.57-1.64-1.24-3.24-2-4.82a66.76 66.76 0 0 0 -5-9 1 1 0 0 1 -.16-.35z" fill="#d1a44a"/><path d="m121.8 25.2c-.27.3-.67.25-1 .31q-2.62.52-5.27 1c-1.63.27-3.26.5-4.89.75-1.25.19-2.5.43-3.76.56s-2.24.3-3.37.41c-.89.09-1.77.21-2.66.31-.57.06-1.15.09-1.72.17a15.77 15.77 0 0 0 -2.07.2.55.55 0 0 1 -.18 0 15 15 0 0 0 -2.68.15 24.58 24.58 0 0 0 -3.1.2 2.55 2.55 0 0 1 -.48 0c-2.9 0-5.8.06-8.7 0a23.14 23.14 0 0 1 -3.21-.26 13.1 13.1 0 0 0 -1.66-.11c-1-.06-2.07-.17-3.09-.29-1.34-.16-2.67-.34-4-.55q-2.85-.43-5.69-1c-1.54-.3-3.08-.6-4.6-1-2.25-.48-4.49-1.05-6.67-1.61-1.79-.48-3.56-1-5.33-1.56-3-.9-6-1.87-8.94-2.87-.91-.3-1.81-.63-2.71-.94a.53.53 0 0 1 -.33-.23 2.68 2.68 0 0 1 1.93 0l4.71 1.55c1.92.62 3.86 1.17 5.8 1.69a1 1 0 0 0 .53.07 8.34 8.34 0 0 0 2 .59q4.17 1.07 8.39 1.88c2 .39 3.94.77 5.94 1 1.2.15 2.39.39 3.59.55s2.3.26 3.44.4l2.78.32c.48.06 1 .09 1.43.12.74 0 1.47.11 2.21.17a26.84 26.84 0 0 1 2.68.2h.12c1 0 2.11.11 3.16.13 2.86 0 5.72.22 8.57.1 1.4-.06 2.8 0 4.19-.12s2.83-.11 4.24-.24c1.18-.11 2.37-.2 3.56-.3s2.29-.3 3.45-.28c.3-.17.68 0 1-.24a6.28 6.28 0 0 0 1.78-.15q4.35-.55 8.66-1.35a2.75 2.75 0 0 1 1.95.27z" fill="#885120"/><path d="m45.84 25.65c.19-.14.38 0 .57 0 2.84.88 5.69 1.72 8.57 2.48 2.43.64 4.87 1.25 7.33 1.75a.6.6 0 0 1 .11.06c-.62.07-1.23.06-1.85.13-1 .1-1.91.05-2.87.11-1.55.09-3.11-.05-4.66.16 0-.25-.21-.26-.4-.25-1.57.09-3.14-.15-4.72-.12a.94.94 0 0 0 -.52-.1c-2-.09-4.09-.33-6.13-.51a.94.94 0 0 1 -.29-.06.29.29 0 0 1 -.06-.52 2.71 2.71 0 0 1 .49-.22 9.7 9.7 0 0 0 2.39-1.34 9.7 9.7 0 0 0 2.04-1.57z" fill="#dcae48"/><path d="m155.14 68.85c-.15 0-.23-.14-.32-.24a9.6 9.6 0 0 0 -4.26-2.74 2.24 2.24 0 0 1 -.27-.13c.25-.29.18-.64.19-1a3.75 3.75 0 0 1 7.45-.6v1.58a3.57 3.57 0 0 1 -2.21 2.74c-.2.13-.47.13-.58.39z" fill="#3f200b"/><path d="m109.8 33.41a15.6 15.6 0 0 0 .45-3c.29-.28.69-.19 1-.23 1.82-.25 3.63-.61 5.44-.9 1.52-.24 3-.54 4.55-.84a2 2 0 0 0 1.42-.89.36.36 0 0 1 .3-.17 3.34 3.34 0 0 1 .11 1.77 2.66 2.66 0 0 1 -2.27 2.17c-.89.2-1.79.38-2.69.56-2.75.52-5.52 1.12-8.31 1.53z" fill="#522b0c"/><path d="m45.84 25.65a9.7 9.7 0 0 1 -2 1.58l-5.36-2c-.93-.36-1.86-.71-2.79-1.09a3.19 3.19 0 0 1 -2-3.07 3.09 3.09 0 0 1 .61-1.6c.09-.14.19-.2.35-.1a1.86 1.86 0 0 1 -.22.55 1.32 1.32 0 0 0 .26 1.44 2.8 2.8 0 0 0 1.22.83l7.75 2.61c.64.22 1.29.41 1.93.61.06.01.24.02.25.24z" fill="#522b0c"/><path d="m47.92 30c1.58 0 3.15.21 4.72.12.19 0 .38 0 .4.25a4.19 4.19 0 0 1 -1.1.21 1.14 1.14 0 0 0 -1 .76 16.89 16.89 0 0 0 -.81 2.56 6.54 6.54 0 0 0 -.36 1.69 4.91 4.91 0 0 0 -3.4 2.41c0 .07-.07.15-.16.16a6.71 6.71 0 0 1 .3-1.94c.41-1.9.87-3.8 1.31-5.7.04-.19.07-.36.1-.52z" fill="#d1a44a"/><path d="m116.93 64.07a14.09 14.09 0 0 0 2-.43 38.34 38.34 0 0 1 3.81-.64 2 2 0 0 1 -1 .22c-1.58.27-3.15.58-4.7 1a.49.49 0 0 1 -.17 0 .16.16 0 0 1 .06-.15z" fill="#a8998f"/><path d="m109.33 26.5c-.29.22-.67.07-1 .24a6.45 6.45 0 0 1 .13-1.58 3.31 3.31 0 0 1 .87 1.34z" fill="#d1a44a"/><path d="m46.21 38.14a.31.31 0 0 1 -.12.35.29.29 0 0 1 .12-.35z" fill="#d1a44a"/><path d="m84.76 135a14.82 14.82 0 0 1 0 2.21v1.92c0 .26.1.36.35.35h13.7c.42 0 .43 0 .43-.45v-4.2c0-.1 0-.2 0-.3 1.45 0 2.9 0 4.35-.05.88 0 1.75-.06 2.63-.06 1.15 0 2.3-.08 3.45-.12q0 6.48 0 12.94v.78a1.43 1.43 0 0 1 -.65.06c-7.38 0-14.75 0-22.13.06l-8.15.06c-.21 0-.44 0-.58.2 0 .09-.18.08-.28.08h-.24c-5.13.07-10.27.09-15.4.09h-18c-.47 0-1 .07-1.43.1.14-.84.07-1.7.19-2.55a19.76 19.76 0 0 0 .13-2c0-1 .1-2 .18-2.92.11-1.43.14-2.86.31-4.28a17.16 17.16 0 0 1 .14-2c3.47 0 6.94.08 10.41.17l4 .07c.6 0 .6 0 .6-.59 0-1.83 0-3.67 0-5.5 0-.21-.08-.44.1-.63a1.65 1.65 0 0 1 .09.88c.07 3.13.12 6.27.18 9.4v.12c0 .65 0 .66.66.66h13.2c.42 0 .43 0 .42-.45 0-1 0-2.08 0-3.12 0-.18 0-.36 0-.54 1 .06 2.07-.05 3.1.11.3.05.64.1.82-.28 0-.1.23-.06.34-.06 1.81.05 3.62-.18 5.43-.13.57-.03 1.11-.03 1.65-.03z" fill="#a8998f"/><path d="m109.71 148c0-.26 0-.52 0-.78q0-6.47 0-12.94c0-1.45 0-2.91 0-4.37 0-3.78 0-7.55.07-11.33 0-.68-.08-.66.64-.65h11.75.24c.37 0 .4 0 .39.43l-.06 9q0 6.24-.05 12.47l-.06 7.55v.36s-.08.21-.22.22h-11.62a.12.12 0 0 0 -.16 0 4 4 0 0 1 -.92.04z" fill="#8c623a"/><path d="m118.66 79.19a10.6 10.6 0 0 1 1.85-.44 25.1 25.1 0 0 1 3.35-.52 1 1 0 0 0 .08.22 12.86 12.86 0 0 0 3.62 4 8.87 8.87 0 0 0 4.62 1.66 11.73 11.73 0 0 0 6.82-1.81c.89.58 1.72 1.25 2.56 1.9a3.83 3.83 0 0 1 1.17 1 18.93 18.93 0 0 1 -5.75 3.13 14 14 0 0 1 -4.93.8 13.09 13.09 0 0 1 -7.91-2.88 18.67 18.67 0 0 1 -5.48-7.06z" fill="#522b0c"/><path d="m142.68 85.18a3.83 3.83 0 0 0 -1.17-1c-.84-.65-1.67-1.32-2.56-1.9-.32-.34-.32-.35-.06-.71l.91-1.26c.15 0 .21.17.29.28a9.58 9.58 0 0 0 4 3.12l.27.14-1.08 1.53c-.28-.02-.37-.25-.6-.2z" fill="#3f200b"/><path d="m110.63 148a.12.12 0 0 1 .16 0 .1.1 0 0 1 -.16 0z" fill="#a8998f"/><path d="m73 105.34a8.31 8.31 0 0 1 -1.37-1.41.9.9 0 0 0 -.16-.18c-.79-.84-1.6-1.67-2.38-2.52-1.09-1.13-2.09-2.23-3.09-3.34-.66-.75-1.4-1.42-2-2.21a.52.52 0 0 1 -.09-.58c.58-1.57 1.14-3.14 1.71-4.72q1-2.66 1.94-5.33a2.31 2.31 0 0 1 .1-.28.34.34 0 0 0 -.15-.5c-.77-.57-1.52-1.15-2.29-1.73l-1.1-.81a.57.57 0 0 1 -.23-.71c.38-1.32.74-2.65 1.1-4a7.74 7.74 0 0 0 .35-1.57 1 1 0 0 1 .7.12 31.88 31.88 0 0 0 6.23 1.69c.52.08.52.09.54.64a14.36 14.36 0 0 0 .06 2v.66 4.56 2.33.84l.09 9.16v5.2c.04.9.04 1.8.04 2.69z" fill="#683e12"/><path d="m72.87 87.45c-.08-.77 0-1.55 0-2.33 0-1.52 0-3 0-4.56 0-.22 0-.44 0-.66.33.23.35.62.48.94q1.86 4.69 3.69 9.4c.22.57.43 1.16.63 1.74a1 1 0 0 0 .27.5 11 11 0 0 0 .79-1.72c1-2.44 2.06-4.88 3.08-7.33.77-1.84 1.56-3.66 2.27-5.52a1.53 1.53 0 0 1 1.47-1.13h.18c0 2.6-.08 5.21-.11 7.81v2.39a2.57 2.57 0 0 1 -.07.83 1.67 1.67 0 0 0 -.45.39c-1.46 1.38-2.75 2.94-4.21 4.33-.74.7-1.36 1.51-2.1 2.21a.77.77 0 0 1 -1.4-.38 1.27 1.27 0 0 0 -.18-.43c-.28-.42-.53-.84-.8-1.26l-3.18-5c-.17-.09-.23-.2-.36-.22z" fill="#e7e3e1"/><path d="m66.68 69.47a9.82 9.82 0 0 1 -5.44-1.54 5.35 5.35 0 0 1 -1.3-1.21 3.44 3.44 0 0 1 -.66-2.55 1.17 1.17 0 0 1 1.19-1.06 7.67 7.67 0 0 1 2 .06 13.65 13.65 0 0 0 1.42.14 17 17 0 0 0 3.1.14c1.17-.12 2.34-.19 3.51-.31a10 10 0 0 1 2.62 0 1.53 1.53 0 0 1 1.11 1.86 4.24 4.24 0 0 1 -2.08 3 9.11 9.11 0 0 1 -3.92 1.37c-.52.05-1.03.09-1.55.1z" fill="#fff"/><path d="m82.07 35.44c-1.49 0-3 .08-4.46 0a3.15 3.15 0 0 1 1-.85c.92-.73 1.88-1.38 2.76-2.16.94 0 1.87 0 2.81.06a28.21 28.21 0 0 0 3 0h2.15l2.45-.08c-1.38.57-2.78 1.07-4.21 1.51-1.73.54-3.48 1-5.25 1.43a.34.34 0 0 0 -.25.09z" fill="#dcae48"/><path d="m84.76 135c-.54 0-1.08 0-1.62 0-1.81-.05-3.62.18-5.43.13-.11 0-.29 0-.34.06-.18.38-.52.33-.82.28-1-.16-2.07-.05-3.1-.11 0-2.49-.1-5-.14-7.49q-.11-6.06-.2-12.11v-.76c.16-.15.32-.29.48-.45l4.52-4.55a3.27 3.27 0 0 1 .54 0 5.39 5.39 0 0 0 4.72-1.4 5.19 5.19 0 0 0 1.63-2.81c0-.16 0-.32.26-.33v3.9c0 3.66-.11 7.31-.16 11l-.21 13.86a2.51 2.51 0 0 1 -.13.78z" fill="#d7cbc2"/><path d="m72.87 87.45c.14 0 .19.13.26.23l3.18 5c.27.42.52.84.8 1.26a1.27 1.27 0 0 1 .18.43.77.77 0 0 0 1.4.38c.74-.7 1.36-1.51 2.1-2.21 1.46-1.39 2.75-3 4.21-4.33a1.67 1.67 0 0 1 .45-.39 2 2 0 0 1 0 .88v3.88a1.14 1.14 0 0 1 -.14.75l-5 5a.75.75 0 0 0 -.09.15 6.28 6.28 0 0 0 -2.66 0 5.54 5.54 0 0 0 -4.35 5.52 10.21 10.21 0 0 1 .12 1.24.59.59 0 0 1 -.37.3v-.23c0-.89 0-1.79 0-2.69v-5.2l-.09-9.16c-.03-.26-.01-.53 0-.81z" fill="#d7cbc2"/><path d="m73 105.57a.59.59 0 0 0 .37-.3c.19.09.19.29.25.45a5.45 5.45 0 0 0 1.16 1.8 8.37 8.37 0 0 0 3.3 2.48s0 0 0 0l-4.52 4.54c-.16.16-.32.3-.48.45 0-1.4 0-2.79 0-4.19-.08-1.73-.17-3.48-.08-5.23z" fill="#522b0c"/><path d="m78.11 110s0 0 0 0a8.37 8.37 0 0 1 -3.34-2.45 5.45 5.45 0 0 1 -1.16-1.8c-.06-.16-.06-.36-.25-.45a10.21 10.21 0 0 0 -.12-1.24 5.54 5.54 0 0 1 4.29-5.57 6.28 6.28 0 0 1 2.66 0 5.63 5.63 0 0 1 2.28 1.35l1 1a5.4 5.4 0 0 1 1.33 2c0 .12 0 .28.21.34v.45c0 .16.06.26.23.28l.06.37a11.73 11.73 0 0 1 0 1.19c-.22 0-.22.17-.26.33a5.19 5.19 0 0 1 -1.58 2.87 5.39 5.39 0 0 1 -4.72 1.4 3.27 3.27 0 0 0 -.63-.07zm2.17-5.31a.48.48 0 0 0 -.13-.38c-.37-.37-.72-.75-1.11-1.09a.64.64 0 0 0 -.86.92c.33.37.7.71 1.06 1a.54.54 0 0 0 .67.07.63.63 0 0 0 .37-.5z" fill="#e7e3e1"/><path d="m129.36 62.62a4.53 4.53 0 0 1 7 .46 6.63 6.63 0 0 1 -1.83-.14c-.75-.06-1.5-.2-2.25-.19-.98.02-1.94-.2-2.92-.13z" fill="#522b0c"/><path d="m137.64 78.93a6.62 6.62 0 0 1 -1.86.43 10.2 10.2 0 0 1 -3.57 0 5.11 5.11 0 0 1 -2.49-1.36c1.11 0 2.21.12 3.32.22.81.06 1.61.16 2.41.27a8.22 8.22 0 0 1 2.19.44z" fill="#522b0c"/><path d="m81.34 32.4c-.88.78-1.84 1.43-2.76 2.16a3.15 3.15 0 0 0 -1 .85 6.38 6.38 0 0 1 -1.38.05 7.64 7.64 0 0 0 -1.84.21 4.82 4.82 0 0 0 -3.25 2.78 10.86 10.86 0 0 0 -.83 3.6c0 .45.14 1-.18 1.31s-.84.06-1.27.08-.64 0-1 0c-.81 0-.67.06-.7-.66a15 15 0 0 0 -.48-3.25 7.5 7.5 0 0 0 -.47-1.22 4.9 4.9 0 0 0 -4.11-2.81c-.34 0-.68 0-1 0h-9.72a9 9 0 0 0 -1.55.11 6.54 6.54 0 0 1 .36-1.69 16.89 16.89 0 0 1 .84-2.6 1.14 1.14 0 0 1 1-.76 4.19 4.19 0 0 0 1.1-.21c1.55-.21 3.11-.07 4.66-.16 1-.06 1.92 0 2.87-.11.56-.08 1.17-.08 1.79-.08l3.72.74a.51.51 0 0 1 -.26.24l-3.45 1.92-1.43.78a.22.22 0 0 0 -.13.25c0 .12.14.13.24.13a4.33 4.33 0 0 0 .72 0c.73-.1 1.46-.16 2.19-.23s1.66-.16 2.49-.26l2.66-.32c.83-.1 1.66-.17 2.48-.28 1.09-.14 2.17-.28 3.25-.46a12.67 12.67 0 0 0 1.92-.34c1.07 0 2.14.14 3.22.17.43-.01.87.03 1.3.06z" fill="#f9d0a7"/><path d="m76.81 32.15a12.67 12.67 0 0 1 -1.92.34c-1.08.18-2.16.32-3.25.46-.82.11-1.65.18-2.48.28l-2.66.32c-.83.1-1.66.19-2.49.26s-1.46.13-2.19.23a4.33 4.33 0 0 1 -.72 0c-.1 0-.21 0-.24-.13a.22.22 0 0 1 .13-.25l1.44-.83 3.45-1.92a.51.51 0 0 0 .26-.24l2.72.43c1.63.26 3.27.48 4.92.68 1 .14 2.03.16 3.03.37z" fill="#dcae48"/><path d="m81.19 51.45a24.06 24.06 0 0 1 -3.06-.09 7 7 0 0 1 -5.89-6.61 16.76 16.76 0 0 1 .36-4.41 1.55 1.55 0 0 1 .06-.23 3.24 3.24 0 0 1 3.49-2.67h10a5.7 5.7 0 0 1 1.25.13 2.91 2.91 0 0 1 2.1 1.72 7.11 7.11 0 0 1 .55 2.08 15.81 15.81 0 0 1 .08 4.18 7 7 0 0 1 -6.68 5.9c-.74.02-1.45 0-2.26 0zm-2-7.49a1.46 1.46 0 0 0 -1.49-1.51 1.5 1.5 0 0 0 -1.48 1.55 1.52 1.52 0 0 0 1.48 1.49 1.48 1.48 0 0 0 1.52-1.49z" fill="#fdfdfd"/><path d="m56.28 37.44h4.8.72a3.18 3.18 0 0 1 3 2.52 8.32 8.32 0 0 1 .32 1.71 12.5 12.5 0 0 1 -.17 4.76 7 7 0 0 1 -6.56 5c-1.44 0-2.88 0-4.32 0a7 7 0 0 1 -6.74-5.95 16 16 0 0 1 0-3.59 10.6 10.6 0 0 1 .32-1.77 3.24 3.24 0 0 1 3.47-2.69zm-1.06 6.56a1.46 1.46 0 0 0 -1.5-1.51 1.5 1.5 0 0 0 -1.5 1.51 1.51 1.51 0 0 0 1.49 1.49 1.48 1.48 0 0 0 1.51-1.49z" fill="#fdfdfd"/><path d="m85 103.17c-.16-.06-.17-.22-.21-.34a5.4 5.4 0 0 0 -1.33-2l-1-1a5.63 5.63 0 0 0 -2.28-1.35.75.75 0 0 1 .09-.15l5-5a.28.28 0 0 1 .14.24 9.83 9.83 0 0 1 -.07 2 2.35 2.35 0 0 0 0 .59v6a1.22 1.22 0 0 1 -.12.7.47.47 0 0 0 -.22.31z" fill="#522b0c"/><path d="m85 103.17a.47.47 0 0 1 .24-.24 3.16 3.16 0 0 1 0 1c-.17 0-.23-.12-.23-.28z" fill="#d7cbc2"/><path d="m80.28 104.71a.63.63 0 0 1 -.37.57.54.54 0 0 1 -.67-.07c-.36-.34-.73-.68-1.06-1a.64.64 0 0 1 .86-.92c.39.34.74.72 1.11 1.09a.48.48 0 0 1 .13.33z" fill="#522b0c"/><path d="m79.22 44a1.48 1.48 0 0 1 -1.52 1.5 1.52 1.52 0 0 1 -1.48-1.5 1.5 1.5 0 0 1 1.51-1.52 1.46 1.46 0 0 1 1.49 1.52z" fill="#040403"/><path d="m55.22 44a1.48 1.48 0 0 1 -1.51 1.5 1.51 1.51 0 0 1 -1.49-1.5 1.5 1.5 0 0 1 1.5-1.52 1.46 1.46 0 0 1 1.5 1.52z" fill="#040403"/><g stroke-miterlimit="10"><rect fill="#f9d0a7" height="16" rx="8" stroke="#000" stroke-width="2" width="20" x="71" y="36.5"/><rect fill="#f9d0a7" height="16" rx="8" stroke="#000" stroke-width="2" width="20" x="46" y="36.5"/><path d="m66 44.5h5" fill="none" stroke="#000" stroke-width="2"/><path d="m71.55 43.78 19.17-.01" stroke="#b79274"/><path d="m46.55 43.78 19.17-.01" stroke="#b79274"/><rect fill="none" height="16" rx="8" stroke="#000" stroke-width="2" width="20" x="71" y="36.5"/><rect fill="none" height="16" rx="8" stroke="#000" stroke-width="2" width="20" x="46" y="36.5"/></g></svg>