<svg viewBox="0 0 157 180" xmlns="http://www.w3.org/2000/svg"><path d="m120.68 174.7v-29.34c0-.21 0-.43 0-.65h-1.38-11c-.6 0-.6 0-.6.59v.36q0 6.13 0 12.28c0 .24.08.48-.09.7a4.73 4.73 0 0 1 0 .53v15a1.06 1.06 0 0 1 -.05.53z" fill="#8c6239"/><path d="m21.08 72.35a.28.28 0 0 0 -.08-.25 4.7 4.7 0 0 0 -.53-.38 2.64 2.64 0 0 1 -1.26-1.62 9.09 9.09 0 0 0 -7.21-6.28 9.15 9.15 0 0 0 -9 3 9.28 9.28 0 0 0 -2.18 4.48c-.07.3.08.64-.14.92v1.78a.3.3 0 0 1 .11.26 8.3 8.3 0 0 0 1.81 4.61 9.43 9.43 0 0 0 6 3.65 8 8 0 0 0 2.84 0 9.27 9.27 0 0 0 5.59-2.87 9.56 9.56 0 0 0 2.54-8c.6.22.99.61 1.51.7z" fill="#f9d0a7"/><path d="m96.56.82a.34.34 0 0 1 0 .1h1.81v-.1z" fill="#d7cbc2"/><path d="m63.21.92s0-.07 0-.1h-1.81v.1z" fill="#d7cbc2"/><path d="m21.08 72.35c-.52-.09-.91-.48-1.48-.62a9.56 9.56 0 0 1 -2.54 8 9.27 9.27 0 0 1 -5.59 2.87c.06.14.21.18.32.25a114.29 114.29 0 0 0 19.19 9 62.42 62.42 0 0 0 10.58 2.78 34.65 34.65 0 0 0 9.32.38 20.65 20.65 0 0 0 7.43-2.16c.08 0 .15-.13.28-.09s.07.25.07.38v41.66.3s0 .24 0 .36v2.46c0 .75-.06.69.72.69h13.18c.25 0 .37-.08.36-.34s0-.76 0-1.14a2.85 2.85 0 0 1 0-.29l-.18-10.36c0-2.78-.09-5.55-.13-8.33 0-1.34 0-2.67 0-4 0-2-.18-4.06-.14-6.09 0-1.06 0-2.12 0-3.18a.41.41 0 0 1 0-.11v-.25a.66.66 0 0 1 -.43-.31 28.78 28.78 0 0 0 -2.04-2.21c-.91-1-1.84-2-2.79-3-1.21-1.27-2.36-2.6-3.6-3.84a.88.88 0 0 1 -.24-1.09c.68-1.79 1.32-3.59 2-5.39.56-1.54 1.1-3.08 1.68-4.61a.49.49 0 0 0 -.21-.68c-1.11-.82-2.19-1.66-3.3-2.47a.53.53 0 0 1 -.24-.7c.22-.7.41-1.41.59-2.13.26-1 .6-2 .79-3a5.32 5.32 0 0 0 -1-.48 17.39 17.39 0 0 0 -4.1.79 7.32 7.32 0 0 0 -1.57.55 27.05 27.05 0 0 1 -6.94 2 38.47 38.47 0 0 1 -8.3.49 49.72 49.72 0 0 1 -12.87-2.44 59.15 59.15 0 0 1 -8.58-3.5z" fill="#40210b"/><path d="m72.94 137.13v1.14s-.11.36-.36.34h-13.2c-.78 0-.72.06-.72-.69v-2.46c0-.12 0-.24 0-.36-1.91.17-3.82.06-5.73.15s-3.83 0-5.74.13c-1.49.07-3 .08-4.48.07v1.14q0 6.51 0 13h.72 32.63c.59 0 .59 0 .59.59v7.68.42s.1.33.33.31h30.63c.17-.22.09-.46.09-.7q0-6.13 0-12.28c0-.12 0-.24 0-.36 0-.58 0-.59.6-.59h11 1.38c-.15-.25-.4-.13-.6-.13-2.56 0-5.11 0-7.67 0h-13.85-.42c-.45 0-.46 0-.46-.48q0-2.49 0-5c0-.42 0-.41.43-.45.2 0 .45.12.58-.14-.53 0-1.07.06-1.61.06h-12.54c-.26 0-.36-.09-.36-.35s0-.75 0-1.13z" fill="#a8998f"/><path d="m42.67 149.6q0-6.49 0-13c0-.38 0-.76 0-1.14s0-.48 0-.72v-13.32c0-.14 0-.29 0-.42 0-.33-.13-.43-.42-.4a1.92 1.92 0 0 1 -.24 0h-11.69c-.65 0-.67-.12-.67.69v27.83c0 .49 0 .5.49.5h11.86z" fill="#8c6239"/><path d="m63.66 74.6a5.32 5.32 0 0 1 1 .48c.09 0 .19 0 .28.09a32.78 32.78 0 0 0 4.39 1.57c.83.23 1.66.43 2.5.58.29.05.41.17.38.47s0 .52 0 .78c.15-.07.18 0 .22.15.63 2.57 1.28 5.14 1.89 7.71.49 2 1 4 1.5 6.08a2.11 2.11 0 0 0 .52 1.18c.43-1 .83-2 1.23-2.9.66-1.57 1.3-3.13 2-4.7l2.13-5c.44-1 .86-2.09 1.3-3.15a.65.65 0 0 1 .54-.47 7.78 7.78 0 0 1 1.59-.2.91.91 0 0 1 .54-.23 27.79 27.79 0 0 0 4.1-1.27c.93-.36 1.84-.77 2.75-1.16s1.53-.85 2.28-1.3a32.21 32.21 0 0 0 4.53-3.31 32.7 32.7 0 0 0 6-6.83 35.7 35.7 0 0 0 2.16-3.87c.26-.54.26-.51.84-.45a5.57 5.57 0 0 0 2-.2 6.3 6.3 0 0 0 4.89-5.57 6.41 6.41 0 0 0 -4.22-6.73c-.63-.26-.55-.25-.53-.82 0-.9-.15-1.79-.13-2.69a.31.31 0 0 0 -.12-.26.34.34 0 0 0 -.1.27c0 1.74-.11 3.46-.25 5.19-.08 1.05-.15 2.11-.25 3.15a1.38 1.38 0 0 1 -2.73 0q-.33-1.58-.81-3.12a50.86 50.86 0 0 0 -2.36-6.19 67.93 67.93 0 0 0 -4.18-7.8 21.23 21.23 0 0 1 -1.2-1.92 9.66 9.66 0 0 0 -1.61.09c-1.54.08-3.09.18-4.64.28a57.05 57.05 0 0 1 -7.23 2.36l-2.69.7h.48 4.32a5 5 0 0 1 4.46 2.41 6.4 6.4 0 0 1 .7 1.58 17.16 17.16 0 0 1 .53 5.29 9 9 0 0 1 -8.84 8.74c-1.42 0-2.84 0-4.26 0a9 9 0 0 1 -8.78-7.61c0-.31-.16-.39-.46-.39-.72 0-1.44 0-2.16 0-.53 0-.53 0-.63.54a9 9 0 0 1 -8.73 7.47c-1.4 0-2.8 0-4.2 0a8.82 8.82 0 0 1 -8-5 10.84 10.84 0 0 1 -.91-2.77 10.67 10.67 0 0 0 0 2.26c.09.79.16 1.58.27 2.37a31.65 31.65 0 0 0 3.22 10 32.61 32.61 0 0 0 4 6c.59.68 1.18 1.36 1.81 2a32.55 32.55 0 0 0 5 4 29.14 29.14 0 0 0 3.1 1.81 1.46 1.46 0 0 1 .57.31zm3.59-5a9.36 9.36 0 0 1 -5.2-1.25 4.14 4.14 0 0 1 -2.38-3.35c-.06-1 .26-1.54 1.13-1.75a4.58 4.58 0 0 1 1.43 0c1 .09 1.94.27 2.91.31a25.91 25.91 0 0 0 4.66-.13c.55-.07 1.11-.1 1.66-.17a4.78 4.78 0 0 1 2.25.16 1.3 1.3 0 0 1 .92 1 2.82 2.82 0 0 1 -.47 2.16 5.56 5.56 0 0 1 -2.59 2.15 9.52 9.52 0 0 1 -4.32.86z" fill="#f9d0a7"/><path d="m84.17 137.13v1.13s.1.37.36.35h12.53c.54 0 1.08 0 1.61-.06 0-.24 0-.48 0-.72q0-22.76 0-45.51a2.18 2.18 0 0 1 .43-1.32 14.38 14.38 0 0 1 8.46-5.79 23.84 23.84 0 0 1 8.33-.55 57.75 57.75 0 0 1 18.53 5.34 12.51 12.51 0 0 1 1.76.87c.52.15.95.51 1.46.68a1.24 1.24 0 0 0 .28-.53q2.24-5.36 4.46-10.71c.29-.68.29-.68-.25-1.15a2.5 2.5 0 0 1 -.67-.39 59.81 59.81 0 0 0 -14.91-7.13 44.39 44.39 0 0 0 -12.74-2 37.51 37.51 0 0 0 -16.61 3.56 21.41 21.41 0 0 0 -2.56 1.43c-.18.18-.41.09-.63.11a2.53 2.53 0 0 0 -.9.07c.06.23.1.45.15.65.44 1.6.87 3.19 1.32 4.78a.5.5 0 0 1 -.22.65c-.49.33-1 .71-1.44 1.07l-2 1.46c-.16.13-.3.23-.2.5.32.83.61 1.68.92 2.52.93 2.55 1.84 5.09 2.8 7.63a.86.86 0 0 1 -.26 1.08q-4.57 4.55-9.12 9.11l-.4.36c0 1.9-.07 3.79-.11 5.69 0 2.49-.06 5-.11 7.48-.11 5.23-.17 10.46-.25 15.69z" fill="#40210b"/><path d="m63.21.92h-1.81a18.58 18.58 0 0 0 -3.78.58 9 9 0 0 0 -6.78 6.73 21.23 21.23 0 0 0 -.7 4.18 27.77 27.77 0 0 0 -.14 3.53 1.93 1.93 0 0 1 .42.05c2.38.73 4.79 1.32 7.23 1.81 1.93.39 3.87.74 5.82 1 1.27.19 2.55.35 3.84.51s2.76.28 4.15.43c1.18.13 2.38.16 3.57.24s2.51.07 3.77.11a50.65 50.65 0 0 0 5.1-.09c1.87-.12 3.75 0 5.63-.11 1.31-.11 2.63-.08 3.94-.12s2.71-.21 4.07-.16a.48.48 0 0 0 .12 0 19.72 19.72 0 0 1 3-.19c1.06-.09 2.14-.15 3.22-.19.69 0 1.39-.05 2.08-.11a33.4 33.4 0 0 1 4-.22 59.14 59.14 0 0 0 -.13-6.1 21.63 21.63 0 0 0 -.83-4.61 9.28 9.28 0 0 0 -3.67-5.29 11 11 0 0 0 -4-1.59 18.21 18.21 0 0 0 -3-.39h-1.78c-2.15.27-4.31.56-6.47.81s-4.28.46-6.43.67c-1.58.15-3.15.13-4.73.15a30.92 30.92 0 0 1 -3.46-.23q-3.22-.32-6.46-.68c-1.92-.22-3.85-.48-5.79-.72z" fill="#874b15"/><path d="m109.94 18.94a33.4 33.4 0 0 0 -4 .22c-.69.06-1.39.08-2.08.11-1.08 0-2.16.1-3.22.19a19.72 19.72 0 0 0 -3 .19.48.48 0 0 1 -.12 0c-1.36 0-2.71.11-4.07.16s-2.63 0-3.94.12c-1.88.15-3.76 0-5.63.11a50.65 50.65 0 0 1 -5.08.07c-1.26 0-2.52 0-3.77-.11s-2.39-.11-3.57-.24c-1.39-.15-2.77-.26-4.15-.43s-2.57-.32-3.84-.51c-2-.28-3.89-.63-5.82-1-2.44-.49-4.85-1.08-7.23-1.81a1.93 1.93 0 0 0 -.42-.05v4.92h.05s0 .07 0 .09v.83c0 .06.08.11.08.16 0 .39.16.52.54.62 1.78.49 3.59.89 5.39 1.31 2.53.58 5.06 1.08 7.61 1.53 1.55.27 3.1.53 4.66.73 1.34.17 2.67.4 4 .56s2.66.23 4 .4c.54.07 1.07.06 1.61.13.89.1 1.78.17 2.67.22s1.68.06 2.51.14c1.33.14 2.67.16 4 .18 3.79.05 7.59.12 11.39-.07 1.17 0 2.34-.13 3.52-.17a14.37 14.37 0 0 0 1.85-.12c.77-.12 1.55-.1 2.32-.2 1-.12 2-.16 3-.28.21 0 .49 0 .64-.25.2-1.73.08-3.46.13-5.19-.03-.85-.04-1.7-.03-2.56z" fill="#40210b"/><path d="m170.4 102v-3.16a13.14 13.14 0 0 0 -1.4-5.11 11.45 11.45 0 0 0 -8-6 13.75 13.75 0 0 0 -6.41.12 9.62 9.62 0 0 1 -.32 2.83 10 10 0 0 1 -2.46 4.24l.19.08.55-.36a9.27 9.27 0 0 1 6.26-1.58 6.49 6.49 0 0 1 4.38 2.21 6.82 6.82 0 0 1 1.54 3.4 14.81 14.81 0 0 1 -1.24 8.94 11.08 11.08 0 0 1 -7.93 6.36 16.74 16.74 0 0 1 -7.42-.1 14.11 14.11 0 0 1 -5.78-2.64 8.89 8.89 0 0 1 -3.57-7.38 13 13 0 0 1 .86-4.44c-.11-.12-.2-.25-.31-.36-.88-.89-1.86-1.66-2.71-2.58a.44.44 0 0 0 -.3-.17 19.19 19.19 0 0 0 -2 6.17 13.21 13.21 0 0 0 6.61 13.75 21 21 0 0 0 7.28 2.64 24.69 24.69 0 0 0 4.29.37 17.67 17.67 0 0 0 16.8-12 21.08 21.08 0 0 0 1.09-5.23z" fill="#522b0c"/><path d="m92.1 32.54c1.55-.1 3.1-.2 4.64-.28a9.66 9.66 0 0 1 1.61-.09c.31-.05.63-.11.94-.13 1.71-.11 3.41-.33 5.11-.53 2-.24 4-.55 6.08-.83a.26.26 0 0 1 .24-.1 6.51 6.51 0 0 0 .77 0l2.69-.44 3.86-.66 3.1-.54c.5-.09 1-.17 1.51-.28a3 3 0 0 0 1.75-1.16c0-.12 0-.24 0-.35a1.54 1.54 0 0 0 -.83-1.57 3.23 3.23 0 0 0 -.54 0l-3.63.68c-1.19.21-2.38.43-3.58.62s-2.38.38-3.58.56-2.43.36-3.65.53c-.73.1-1.47.14-2.19.27s-1.69.23-2.54.31l-2.78.29c-1.14.13-2.29.2-3.44.31s-2.38.18-3.57.24-2.39.1-3.58.12c-2.73.05-5.47.05-8.2-.09-.88 0-1.75-.13-2.62-.16a13.46 13.46 0 0 1 -1.55-.11c-1-.16-1.93-.21-2.9-.32s-2.16-.26-3.24-.41c-1.36-.19-2.71-.43-4-.67q-3.51-.65-6.98-1.44c-2.36-.55-4.71-1.17-7-1.81-3-.83-6-1.72-9-2.69-2.71-.88-5.42-1.74-8.09-2.75a1.25 1.25 0 0 0 -.77.47 1.5 1.5 0 0 0 .27 2.35 4 4 0 0 0 .95.51l5.21 1.76c1.15.39 2.31.76 3.46 1.13a.84.84 0 0 1 .51.3 1.26 1.26 0 0 1 .87.13c4.06 1.28 8.16 2.45 12.3 3.45l4 .92 3.24.65c3 .52 6 1 9 1.33a6.09 6.09 0 0 1 1.59.21c1.45 0 2.88.21 4.32.25.54-.05 1.08.08 1.62.08h3.77c1.58.03 3.22.03 4.85-.06z" fill="#683e11"/><path d="m151.88 94.9a10 10 0 0 0 2.46-4.24 9.62 9.62 0 0 0 .32-2.83 7.71 7.71 0 0 0 -.38-2.43 9.53 9.53 0 0 0 -3.71-5.1c-.11-.08-.25-.13-.29-.28a1.33 1.33 0 0 1 -.49-.21 9.92 9.92 0 0 0 -3.6-1.14 8.91 8.91 0 0 0 -3.81.38.37.37 0 0 0 -.25.15c.54.47.54.47.25 1.15q-2.22 5.36-4.46 10.71a1.24 1.24 0 0 1 -.28.53c-.51-.17-.94-.53-1.46-.68a4.64 4.64 0 0 0 .66 1.83c.22.44.59.79.78 1.26a3 3 0 0 1 .26.24 9.59 9.59 0 0 0 4.1 2.85c.12 0 .27.06.34.21a2.6 2.6 0 0 1 .87.11c.17 0 .29.1.32.28.19-.24.44-.14.66-.11a8.93 8.93 0 0 0 2.78-.11 10 10 0 0 0 3.61-1.47.27.27 0 0 1 .21-.15z" fill="#f9d0a7"/><path d="m84.7 104.62.4-.36q4.56-4.56 9.12-9.11a.86.86 0 0 0 .26-1.08c-1-2.54-1.87-5.08-2.8-7.63-.31-.84-.6-1.69-.92-2.52-.1-.27 0-.37.2-.5l2-1.46c.48-.36 1-.74 1.44-1.07a.5.5 0 0 0 .22-.65c-.45-1.59-.88-3.18-1.32-4.78-.05-.2-.09-.42-.15-.65a2.53 2.53 0 0 1 .9-.07c.22 0 .45.07.63-.11h-2.15c-.91.39-1.82.8-2.75 1.16a27.79 27.79 0 0 1 -4.14 1.21.91.91 0 0 0 -.54.23 3.85 3.85 0 0 1 0 .48l-.1 5.58c0 1.51 0 3-.13 4.53s0 2.84 0 4.27a.73.73 0 0 1 -.14.38.36.36 0 0 1 .15.47 3.38 3.38 0 0 0 -.1 1.18v4.55c0 1-.19 2-.13 3a.93.93 0 0 1 -.12.4c.26.39.1.8.09 1.21a5.36 5.36 0 0 1 0 1.06z" fill="#683e11"/><path d="m110.48 30.68c-2 .28-4 .59-6.08.83-1.7.2-3.4.42-5.11.53-.31 0-.63.08-.94.13a21.23 21.23 0 0 0 1.2 1.92 67.93 67.93 0 0 1 4.18 7.8 50.86 50.86 0 0 1 2.36 6.19q.48 1.55.81 3.12a1.38 1.38 0 0 0 2.73 0c.1-1 .17-2.1.25-3.15.14-1.73.25-3.45.25-5.19a.34.34 0 0 1 .1-.27c0-2 0-4-.12-6 0-.73-.14-1.46-.11-2.2 0-.33.09-.59.44-.68-.3-.08-.18-.29-.14-.47a9.26 9.26 0 0 0 .34-2.57z" fill="#d1a44a"/><path d="m36.92 19.06c2.67 1 5.38 1.87 8.09 2.75 3 1 6 1.86 9 2.69 2.34.64 4.69 1.26 7 1.81s4.58 1 6.89 1.41c1.34.24 2.69.48 4 .67 1.08.15 2.16.29 3.24.41s1.94.16 2.9.32a13.46 13.46 0 0 0 1.55.11c.87 0 1.74.12 2.62.16 2.73.14 5.47.14 8.2.09 1.19 0 2.39-.05 3.58-.12s2.39-.13 3.57-.24 2.3-.18 3.44-.31l2.78-.29c.85-.08 1.7-.15 2.54-.31s1.46-.17 2.19-.27c1.22-.17 2.43-.34 3.65-.53s2.39-.36 3.58-.56 2.39-.41 3.58-.62l3.63-.68a3.23 3.23 0 0 1 .54 0 2.54 2.54 0 0 0 -2-.42c-3.1.58-6.22 1.05-9.34 1.46l-2 .25a.38.38 0 0 1 -.38-.13c-.15.24-.43.23-.64.25-1 .12-2 .16-3 .28-.77.1-1.55.08-2.32.2a14.37 14.37 0 0 1 -1.85.12c-1.18 0-2.35.12-3.52.17-3.8.19-7.6.12-11.39.07-1.33 0-2.67 0-4-.18-.83-.08-1.67-.09-2.51-.14s-1.78-.12-2.67-.22c-.54-.07-1.07-.06-1.61-.13-1.32-.17-2.66-.24-4-.4s-2.67-.39-4-.56c-1.56-.2-3.11-.46-4.66-.73-2.5-.44-5.03-.96-7.6-1.54-1.8-.42-3.61-.82-5.39-1.31-.38-.1-.57-.23-.54-.62 0 0 0-.1-.08-.16-.24.45-.56.49-1 .35-3.29-.94-6.57-1.93-9.81-3.06a2.86 2.86 0 0 0 -2.26-.04z" fill="#895120"/><path d="m110.64 30.69a9.26 9.26 0 0 1 -.34 2.57c0 .18-.16.39.14.47 2.35-.37 4.68-.83 7-1.29 1.64-.32 3.28-.65 4.92-1a2.6 2.6 0 0 0 2.09-1.84 3.34 3.34 0 0 0 -.06-2.12 3 3 0 0 1 -1.75 1.16c-.5.11-1 .19-1.51.28l-3.1.54-3.86.66-2.69.44a6.51 6.51 0 0 1 -.77 0z" fill="#522b0c"/><path d="m150.28 80c0 .15.18.2.29.28a9.53 9.53 0 0 1 3.71 5.1 3.68 3.68 0 0 0 1.51-6.47 3.67 3.67 0 0 0 -5.21.64c-.11.16-.2.32-.3.45z" fill="#40210b"/><path d="m142.32 97.3c-.07-.15-.22-.17-.34-.21a9.59 9.59 0 0 1 -4.1-2.85 3 3 0 0 0 -.26-.24 6.76 6.76 0 0 1 -1.3 1.52c-.22.23-.37.4 0 .65v.17a.44.44 0 0 1 .3.17c.85.92 1.83 1.69 2.71 2.58.11.11.2.24.31.36.38.23.39.23.7-.09z" fill="#40210b"/><path d="m45.72 45.88a10.84 10.84 0 0 0 .91 2.77 8.82 8.82 0 0 0 8 5c1.4.05 2.8 0 4.2 0a9 9 0 0 0 8.73-7.47c.1-.54.1-.54.63-.54h2.16c.3 0 .41.08.46.39a9 9 0 0 0 8.78 7.63h4.26a9 9 0 0 0 8.84-8.74 17.16 17.16 0 0 0 -.53-5.29 6.4 6.4 0 0 0 -.7-1.58 5 5 0 0 0 -4.46-2.41c-1.44 0-2.88 0-4.32 0h-.48c-1.41 0-2.83 0-4.24 0-.85.07-1.71 0-2.57.13a4.88 4.88 0 0 0 -3.6 2.52 7.83 7.83 0 0 0 -.79 2.15 16.42 16.42 0 0 0 -.3 2.62c0 .71 0 .58-.65.59h-1.62c-.91 0-.75.1-.8-.75a11.84 11.84 0 0 0 -.82-4.15 4.84 4.84 0 0 0 -3.58-3 7.82 7.82 0 0 0 -1.67-.17h-8.09a21.76 21.76 0 0 0 -3.23.11l-.34.1a4.79 4.79 0 0 0 -3 2.27c-.06.1-.08.23-.21.27a.23.23 0 0 1 -.1.27 13.44 13.44 0 0 0 -.85 4.61 25.48 25.48 0 0 0 -.02 2.67zm36-8.24h5.1a3.2 3.2 0 0 1 3.46 2.68l.08.29a18.26 18.26 0 0 1 .34 4.17 7 7 0 0 1 -6.53 6.81c-1.58.09-3.16 0-4.74 0a7 7 0 0 1 -6.64-5.91 16.37 16.37 0 0 1 .1-4.31 6.68 6.68 0 0 1 .55-2 2.89 2.89 0 0 1 2.11-1.69 5.8 5.8 0 0 1 1.31-.11zm-25 14c-.64 0-1.28 0-1.92 0a7 7 0 0 1 -7.08-7.13c0-.64 0-1.28 0-1.92a9.71 9.71 0 0 1 .58-2.92 3 3 0 0 1 2.51-2 7.6 7.6 0 0 1 1.07 0h9.54.84a3 3 0 0 1 2.74 1.92 4.84 4.84 0 0 1 .25.73 15.23 15.23 0 0 1 .36 5.12 7 7 0 0 1 -6.35 6.15c-.86.05-1.72.01-2.58.01z" fill="#050404"/><path d="m63.67 30.08-4-.92c-4.14-1-8.24-2.17-12.3-3.45a1.26 1.26 0 0 0 -.87-.13 9.52 9.52 0 0 1 -1.94 1.58 11.08 11.08 0 0 1 -2.69 1.55c-.18.07-.37.15-.55.24a.29.29 0 0 0 -.14.3.27.27 0 0 0 .24.24c.21 0 .43.08.65.1 2.07.18 4.14.39 6.21.51.36 0 .71.13 1.06.11 1.43-.06 2.85.2 4.28.13h1.14c3 .06 5.96-.05 8.91-.26z" fill="#dcae48"/><path d="m44.61 27.16a9.52 9.52 0 0 0 1.94-1.58.84.84 0 0 0 -.51-.3c-1.15-.37-2.31-.74-3.46-1.13l-5.21-1.76a4 4 0 0 1 -.95-.51 1.5 1.5 0 0 1 -.27-2.35c-.26-.15-.42-.06-.58.18a3 3 0 0 0 1.43 4.54c1.32.55 2.67 1 4 1.56z" fill="#522b0c"/><path d="m54.81 30.34c-.38 0-.76 0-1.14 0-1.43.07-2.85-.19-4.28-.13-.35 0-.7-.15-1.06-.11a15.42 15.42 0 0 1 -.54 2.62c-.41 1.69-.82 3.37-1.12 5.07a1.18 1.18 0 0 0 0 .59c.13 0 .15-.17.21-.27a4.79 4.79 0 0 1 3-2.27l.34-.1a1.09 1.09 0 0 1 0-.18 22.8 22.8 0 0 1 1.28-4.27 1 1 0 0 1 .91-.58 11 11 0 0 0 1.17-.15c.42-.11.85 0 1.23-.22z" fill="#d1a44a"/><path d="m46.54 38.65a.23.23 0 0 0 .1-.27c-.12.05-.13.15-.1.27z" fill="#d1a44a"/><path d="m50.05 21s.06-.05 0-.09h-.05z" fill="#895120"/><path d="m84.7 104.62-.06-.25c-.15 0-.18.14-.2.27a5.12 5.12 0 0 1 -2.61 3.92 5.22 5.22 0 0 1 -4.36.51c.07.25-.16.34-.29.47q-1.71 1.75-3.44 3.48a12.27 12.27 0 0 1 -1.16 1.12v4c0 2.78.09 5.55.13 8.33l.18 10.36a2.85 2.85 0 0 0 0 .29h11.28l.06-3.65c.08-5.23.14-10.46.25-15.69 0-2.49.07-5 .11-7.48.04-1.89.08-3.78.11-5.68z" fill="#d7cbc2"/><path d="m72.23 78.57c0-.26 0-.52 0-.78s-.09-.42-.38-.47c-.84-.15-1.67-.35-2.5-.58a32.78 32.78 0 0 1 -4.39-1.57c-.09 0-.19-.06-.28-.09-.19 1-.53 2-.79 3-.18.72-.37 1.43-.59 2.13a.53.53 0 0 0 .24.7c1.11.81 2.19 1.65 3.3 2.47a.49.49 0 0 1 .21.68c-.58 1.53-1.12 3.07-1.68 4.61-.65 1.8-1.29 3.6-2 5.39a.88.88 0 0 0 .24 1.09c1.24 1.24 2.39 2.57 3.6 3.84 1 1 1.88 2 2.79 3a28.78 28.78 0 0 1 2 2.17.66.66 0 0 0 .43.31c0-.28 0-.56 0-.84l-.06-5.38c0-1.42 0-2.83 0-4.25 0-1.23 0-2.47 0-3.7 0-.18 0-.36 0-.54 0-2.15-.06-4.3-.07-6.45-.08-1.56-.07-3.15-.07-4.74z" fill="#683e11"/><path d="m72.34 90.34c-.06 1.23 0 2.47 0 3.7v4.25l.06 5.38v.84.25h.13c.08-.13.17-.26.36-.22a5 5 0 0 1 -.13-2.65 5.34 5.34 0 0 1 3.92-4.18 5.05 5.05 0 0 1 3.05.1c-.19-.16-.06-.27.06-.39l4.93-4.92a.73.73 0 0 0 .14-.38c0-1.43.07-2.85 0-4.27-.23 0-.34.19-.48.32-.73.65-1.31 1.45-2 2.13-.92.91-1.73 1.93-2.68 2.81a.49.49 0 0 0 -.12.13c-.73 1-1.66 1.72-2.44 2.63-.56.66-1.17.48-1.47-.35a4 4 0 0 0 -.37-.75c-.82-1.29-1.63-2.59-2.47-3.88-.1-.23-.16-.53-.49-.55z" fill="#d7cbc2"/><path d="m72.92 104.51c-.19 0-.28.09-.36.22l-.12.14v3.18c0 2 .18 4.06.14 6.09a12.27 12.27 0 0 0 1.16-1.14q1.73-1.72 3.44-3.48c.13-.13.36-.22.29-.47a4.4 4.4 0 0 1 -2-1.08c-.5-.46-1-.93-1.44-1.43a4.5 4.5 0 0 1 -1.11-2.03z" fill="#522b0c"/><path d="m72.44 104.87.12-.14h-.13a.41.41 0 0 0 .01.14z" fill="#683e11"/><path d="m72.34 90.34c.33 0 .39.32.52.52.84 1.29 1.65 2.59 2.47 3.88a4 4 0 0 1 .37.75c.3.83.91 1 1.47.35.78-.91 1.71-1.67 2.44-2.63a.49.49 0 0 1 .12-.13c1-.88 1.76-1.9 2.68-2.81.7-.68 1.28-1.48 2-2.13.14-.13.25-.32.48-.32.09-1.51.1-3 .13-4.53l.09-5.55a3.85 3.85 0 0 0 0-.48 7.78 7.78 0 0 0 -1.59.2.65.65 0 0 0 -.54.47c-.44 1.06-.86 2.11-1.3 3.15l-2.13 5c-.65 1.57-1.29 3.13-2 4.7-.4.95-.8 1.9-1.23 2.9a2.11 2.11 0 0 1 -.52-1.18c-.45-2-1-4.05-1.5-6.08-.61-2.57-1.26-5.14-1.89-7.71 0-.15-.07-.22-.22-.15v4.78c0 2.15 0 4.3.07 6.45.05.21.07.37.08.55z" fill="#e7e3e1"/><path d="m67.25 69.59a9.52 9.52 0 0 0 4.32-.86 5.56 5.56 0 0 0 2.59-2.15 2.82 2.82 0 0 0 .47-2.16 1.3 1.3 0 0 0 -.92-1 4.78 4.78 0 0 0 -2.25-.16c-.55.07-1.11.1-1.66.17a25.91 25.91 0 0 1 -4.66.13c-1 0-1.94-.22-2.91-.31a4.58 4.58 0 0 0 -1.43 0c-.87.21-1.19.71-1.13 1.75a4.14 4.14 0 0 0 2.38 3.31 9.36 9.36 0 0 0 5.2 1.28z" fill="#fff"/><path d="m77.94 35.6h4.24l2.69-.7a57.05 57.05 0 0 0 7.23-2.36c-1.63.09-3.27.09-4.91.09h-3.77c-.54 0-1.08-.13-1.62-.08a2.73 2.73 0 0 1 -.33.35c-.58.45-1.18.87-1.75 1.33a21.91 21.91 0 0 0 -1.78 1.37z" fill="#dcae48"/><path d="m142.32 97.3-2 2.06c-.31.32-.32.32-.7.09a13 13 0 0 0 -.86 4.44 8.89 8.89 0 0 0 3.57 7.38 14.11 14.11 0 0 0 5.78 2.64 16.74 16.74 0 0 0 7.42.1 11.08 11.08 0 0 0 7.93-6.36 14.81 14.81 0 0 0 1.24-8.94 6.82 6.82 0 0 0 -1.54-3.4 6.49 6.49 0 0 0 -4.38-2.21 9.27 9.27 0 0 0 -6.26 1.58l-.52.32-1.19 1.13a10.12 10.12 0 0 0 -1.86 3.19 5.63 5.63 0 0 0 .06 4 3.09 3.09 0 0 0 1.55 1.67 4.64 4.64 0 0 0 3.15.34 5.75 5.75 0 0 0 3.41-1.95 1.47 1.47 0 0 0 -.41-2.53 4.23 4.23 0 0 0 -.47-.25 8.78 8.78 0 0 0 -1.89-.57c-.67-.13-1.35 0-2-.09-.19 0-.46 0-.5-.21s.2-.32.37-.41a10.06 10.06 0 0 1 3-1.1 4.55 4.55 0 0 1 5.43 3.94 3.39 3.39 0 0 1 0 .9 5.49 5.49 0 0 1 -1.39 2.93 11.17 11.17 0 0 1 -4.85 3.29 8 8 0 0 1 -2.27.48 10.3 10.3 0 0 1 -7-2.38 4.68 4.68 0 0 1 -1.66-2.51 12.11 12.11 0 0 1 -.43-4.15 15.79 15.79 0 0 1 .58-3c0-.18-.15-.24-.32-.28a2.6 2.6 0 0 0 -.99-.14z" fill="#fefefe"/><path d="m150.8 96.17 1.2-1.17a.76.76 0 0 0 -.11-.14l-1.11.93c.1 0 .07.08 0 .11z" fill="#895120"/><path d="m77.94 35.6a21.91 21.91 0 0 1 1.78-1.4c.57-.46 1.17-.88 1.75-1.33a2.73 2.73 0 0 0 .33-.35c-1.44 0-2.87-.24-4.32-.25a9.69 9.69 0 0 1 -1.86.35c-1 .15-2 .27-3 .41l-3.31.42c-.89.11-1.79.15-2.67.28-1.32.19-2.66.24-4 .44a6.36 6.36 0 0 0 -1.07.11.22.22 0 0 1 -.27-.09.25.25 0 0 1 .08-.32 1.56 1.56 0 0 1 .25-.17l1.2-.67c1.35-.77 2.74-1.47 4.06-2.3l-3.24-.65c-3 .21-5.91.32-8.86.26-.38.22-.81.11-1.22.22a11 11 0 0 1 -1.17.15 1 1 0 0 0 -.91.58 22.8 22.8 0 0 0 -1.28 4.27 1.09 1.09 0 0 0 0 .18 21.76 21.76 0 0 1 3.23-.11h8.09a7.82 7.82 0 0 1 1.67.17 4.84 4.84 0 0 1 3.58 3 11.84 11.84 0 0 1 .82 4.15c.05.85-.11.74.8.75h1.62c.61 0 .62.12.65-.59a16.42 16.42 0 0 1 .3-2.62 7.83 7.83 0 0 1 .77-2.19 4.88 4.88 0 0 1 3.6-2.52c.89-.2 1.75-.11 2.6-.18z" fill="#f9d0a7"/><path d="m66.91 30.73c-1.32.83-2.71 1.53-4.06 2.3l-1.2.67a1.56 1.56 0 0 0 -.25.17.25.25 0 0 0 -.08.32.22.22 0 0 0 .27.09 6.36 6.36 0 0 1 1.07-.11c1.31-.2 2.65-.25 4-.44.88-.13 1.78-.17 2.67-.28l3.28-.45c1-.14 2-.26 3-.41a9.69 9.69 0 0 0 1.86-.35 6.09 6.09 0 0 0 -1.59-.21c-3.01-.28-5.99-.78-8.97-1.3z" fill="#dcae48"/><path d="m110.64 30.69.08-.11a.26.26 0 0 0 -.24.1z" fill="#895120"/><path d="m150.8 96.17v-.17h-.24a10 10 0 0 1 -3.56 1.47 8.93 8.93 0 0 1 -2.78.11c-.22 0-.47-.13-.66.11a15.79 15.79 0 0 0 -.58 3 12.11 12.11 0 0 0 .43 4.15 4.68 4.68 0 0 0 1.59 2.56 10.3 10.3 0 0 0 7 2.38 8 8 0 0 0 2.27-.48 11.17 11.17 0 0 0 4.85-3.29 5.49 5.49 0 0 0 1.39-2.93 3.39 3.39 0 0 0 0-.9 4.55 4.55 0 0 0 -5.43-3.94 10.06 10.06 0 0 0 -3 1.1c-.17.09-.42.18-.37.41s.31.18.5.21c.68.08 1.36 0 2 .09a8.78 8.78 0 0 1 1.89.57 4.23 4.23 0 0 1 .47.25 1.47 1.47 0 0 1 .41 2.53 5.75 5.75 0 0 1 -3.41 1.95 4.64 4.64 0 0 1 -3.15-.34 3.09 3.09 0 0 1 -1.55-1.67 5.63 5.63 0 0 1 -.06-4 10.12 10.12 0 0 1 1.99-3.17z" fill="#522b0c"/><path d="m150.56 96h.24a.21.21 0 0 1 0-.11.27.27 0 0 0 -.24.11z" fill="#895120"/><path d="m72.92 104.51a4.5 4.5 0 0 0 1.15 2c.46.5.94 1 1.44 1.43a4.4 4.4 0 0 0 2 1.08 5.22 5.22 0 0 0 4.36-.51 5.12 5.12 0 0 0 2.61-3.92c0-.13 0-.24.2-.27a5.36 5.36 0 0 0 0-1.06.21.21 0 0 1 -.2-.24 3.7 3.7 0 0 0 -.13-.74 5.75 5.75 0 0 0 -1.13-2c-.5-.51-1-1-1.53-1.5a4.06 4.06 0 0 0 -1.9-1 5.05 5.05 0 0 0 -3.05-.1 5.34 5.34 0 0 0 -3.92 4.18 5 5 0 0 0 .1 2.65zm6.16 0a.49.49 0 0 1 -.36-.1c-.39-.38-.79-.74-1.15-1.14a.59.59 0 0 1 .07-.77.6.6 0 0 1 .81-.12 11 11 0 0 1 1.18 1.18c.29.37-.05.93-.55.96z" fill="#e7e3e1"/><path d="m79.76 97.78a4.06 4.06 0 0 1 1.9 1c.53.48 1 1 1.53 1.5a5.75 5.75 0 0 1 1.13 2 .39.39 0 0 0 .24-.23.93.93 0 0 0 .12-.4c-.06-1 .16-2 .13-3 0-1.52 0-3 0-4.55a3.38 3.38 0 0 1 .1-1.18.36.36 0 0 0 -.15-.47l-4.93 4.92c-.13.14-.26.25-.07.41z" fill="#522b0c"/><path d="m84.56 102.1a.39.39 0 0 1 -.24.23 3.7 3.7 0 0 1 .13.74.21.21 0 0 0 .2.24c.01-.41.17-.82-.09-1.21z" fill="#d7cbc2"/><path d="m81.69 37.64h-4.86a5.8 5.8 0 0 0 -1.31.11 2.89 2.89 0 0 0 -2.11 1.69 6.68 6.68 0 0 0 -.55 2 16.37 16.37 0 0 0 -.1 4.31 7 7 0 0 0 6.64 5.91c1.58 0 3.16.07 4.74 0a7 7 0 0 0 6.53-6.81 18.26 18.26 0 0 0 -.34-4.17l-.08-.29a3.2 3.2 0 0 0 -3.46-2.68c-1.7 0-3.4 0-5.1 0zm-2 6.45a1.46 1.46 0 0 1 -1.47 1.54 1.5 1.5 0 0 1 -1.53-1.49 1.54 1.54 0 0 1 1.52-1.53 1.5 1.5 0 0 1 1.45 1.48z" fill="#fefefe"/><path d="m56.68 51.6h2.58a7 7 0 0 0 6.35-6.15 15.23 15.23 0 0 0 -.36-5.12 4.84 4.84 0 0 0 -.25-.73 3 3 0 0 0 -2.73-1.93c-.28 0-.56 0-.84 0h-9.54a7.6 7.6 0 0 0 -1.07 0 3 3 0 0 0 -2.51 2 9.71 9.71 0 0 0 -.58 2.92v1.92a7 7 0 0 0 7.08 7.13h1.92zm-1-7.49a1.46 1.46 0 0 1 -1.49 1.52 1.5 1.5 0 0 1 -1.51-1.51 1.53 1.53 0 0 1 1.47-1.51 1.5 1.5 0 0 1 1.51 1.5z" fill="#fefefe"/><path d="m150.81 95.87a.21.21 0 0 0 0 .11c.07.02.1-.06 0-.11z" fill="#522b0c"/><path d="m79.08 104.52c.5 0 .84-.59.55-1a11 11 0 0 0 -1.18-1.18.6.6 0 0 0 -.81.12.59.59 0 0 0 -.07.77c.36.4.76.76 1.15 1.14a.49.49 0 0 0 .36.15z" fill="#522b0c"/><g fill="#050404"><path d="m79.66 44.09a1.5 1.5 0 0 0 -1.48-1.48 1.54 1.54 0 0 0 -1.52 1.53 1.5 1.5 0 0 0 1.53 1.49 1.46 1.46 0 0 0 1.47-1.54z"/><path d="m55.66 44.11a1.5 1.5 0 0 0 -1.53-1.5 1.53 1.53 0 0 0 -1.47 1.51 1.5 1.5 0 0 0 1.51 1.51 1.46 1.46 0 0 0 1.49-1.52z"/></g></svg>