<svg viewBox="0 0 157 180" xmlns="http://www.w3.org/2000/svg"><path d="m5.16 83.88c3.59 3.28 7.29 6.24 9.93 10.44 2.4 3.84 4 8.84 1.72 13-2.92 5.26-11.08 7-16.5 5.4-6.43-1.87-9.19-8.46-8.44-14.72a9.4 9.4 0 0 1 .67-2.31 5.55 5.55 0 0 1 1.33-1.89 6.6 6.6 0 0 1 4.13-1.86c.32 0 .35 0 .09 0a7.3 7.3 0 0 1 .81 0 10.54 10.54 0 0 1 1.4.06c.33 0 .36 0 .1 0 .27 0 .54.13.81.2a11.23 11.23 0 0 1 1.6.56h.09c.26.13.5.27.75.42a11.88 11.88 0 0 1 1.19.81c.28.22.3.24.07 0l.64.61c.21.21.4.44.59.67 0 0 .6.79.27.32a7.4 7.4 0 0 1 1.59 5.34 4.5 4.5 0 0 1 -.94 2.28 4.41 4.41 0 0 1 -3 1.17 7 7 0 0 1 -3.42-1.1c-4.56-3.45 1.89-4.44 2.16-4.43 1.85.06 3.3 0 .7-1.11-2.91-1.22-5.09-1-6.74 1.56-1.76 2.76.22 5.62 2.73 7.38a9.35 9.35 0 0 0 9.36 1.22c3.29-1.47 4.51-2.73 4.85-6.23 1.15-11.79-14.61-20.2-23.55-12.31-5 4.38-4.64 12.35-2.31 18a17.71 17.71 0 0 0 16.47 10.78c6.53 0 14.05-2.73 17-9 2.36-5 1-10.67-1.67-15.29a28.5 28.5 0 0 0 -6.32-7.47c-2.11-1.79-4.87-3.6-7.71-3.62a.64.64 0 0 0 -.45 1.12z" fill="#512a0a"/><path d="m8.48 78.21h5.53v21.44h-5.53z" fill="#3f200a" transform="matrix(.72103502 -.69289862 .69289862 .72103502 -58.48 32.6)"/><path d="m4.88 83.93a3.67 3.67 0 1 1 1.54-5 3.67 3.67 0 0 1 -1.54 5z" fill="#3f200a"/><path d="m48 157.5v-14h11v-10l21 3v21z" fill="#a8998f"/><path d="m27.5 152h30v13h-30z" fill="#8c6239" transform="matrix(0 -1 1 0 -116 201)"/><path d="m120 134.5v14h-46v-15z" fill="#a8998f"/><path d="m106 127.5h29v13h-29z" fill="#8c6239" transform="matrix(0 -1 1 0 -13.5 254.5)"/><path d="m62 73.5h1l30.5.5 5 1s22.5 8.5 40.5-6.5l8 12" fill="#d8ccc3"/><path d="m98 89.5-.5 46.5h-39l-.5-61.5 37 2z" fill="#d8ccc3"/><circle cx="11.5" cy="87" fill="#f9d0a7" r="9.5"/><path d="m120.87 18.29a3 3 0 0 1 -1.27 4.84c-13.49 5.33-27.6 10.2-42 11.41s-29.17-1.25-43.36-4.26c-3.34-1-1.76-4.59-1.76-4.59 1.47-.68 2.66-1.19 3.9-.93 27.42 5.82 55.4 5 81.47-5.31 1.15-.45 3.02-1.16 3.02-1.16z" fill="#512a0a"/><path d="m72 72.5 8 21 9-23z" fill="#f9d0a7"/><path d="m72.5 74 8.42 20.07a.8.8 0 0 1 -1.17.91l-19.7-20.98z" fill="#e8e4e2"/><path d="m80.07 94.48 4.93-19.98h8.5l-13 20.42a.32.32 0 0 1 -.43-.44z" fill="#e8e4e2"/><path d="m75.08 85.28h6.68v34.63h-6.68z" fill="#512a0a" transform="matrix(.70920169 -.70500564 .70500564 .70920169 -49.53 85.13)"/><path d="m80.72 99.68a3 3 0 0 1 0 4.25l-1.06 1a3 3 0 0 1 -4.24-.08 3 3 0 0 1 0-4.25l1.06-1a3 3 0 0 1 4.25.08z" fill="none" stroke="#e8e4e2" stroke-miterlimit="10" stroke-width="4.79"/><path d="m65 73.5h6.5l1 64h-14.5v-47c-10-16-39 0-39 0l-5-12c28-19 48-5 48-5z" fill="#3f200a"/><path d="m98 91.5v46h-14.25l1-64h9.25l4 1s16 9 41-5l11 9s-34 23-52 13" fill="#3f200a"/><path d="m63.64 73.5-1.64 6 4 3-4 11 10 10-.5-30z" fill="#683e11"/><path d="m91.86 73.5 1.64 6-4 3 4 11-9.25 10 .25-30z" fill="#683e11"/><ellipse cx="78.61" cy="44.64" fill="#f9d0a7" rx="32.39" ry="32.14"/><circle cx="47.95" cy="51.28" fill="#f9d0a7" r="6.45"/><path d="m97 63.73c0 2.63-3.36 4.77-7.5 4.77s-7.5-2.14-7.5-4.77 3.86-1.23 8-1.23 7-1.41 7 1.23z" fill="#fff"/><path d="m110.36 39.81c-.5-5.47-1.36-6.81-2.26-11.81a1.09 1.09 0 0 0 -.58-.78l-22.76-11.57a1 1 0 0 0 -.63-.11l-22.37 2.81h-10.3a1.09 1.09 0 0 0 -.81 1.81 1.08 1.08 0 0 1 -.24 1.64c-2 1.21-5.73 4.39-3.93 10.72a1.17 1.17 0 0 0 .09.24c.44.8-.73 4.45.47 17.23a1.37 1.37 0 0 0 2.71.15c2.11-10.14 9.64-21.74 14.07-25.72a1.06 1.06 0 0 1 .92-.23l39.75 5.43a1.08 1.08 0 0 1 .51.26c.54.51 1.72 5.17 2.76 10.3a1.31 1.31 0 0 0 2.6-.37z" fill="#d1a44a"/><path d="m79.59 35.32c-2.59-.17-22.91-3.74-28.59-13.82 0 0 6-17 23-20 0 0 10.46-1.7 23.2 7.7.37.28 5.86 6.35 6.12 6.73 1.92 2.73 6.2 9.82 11.94 11.87a.3.3 0 0 1 -.06.58c-5 .54-21 2-29.24-.84l9.36 5.22a.2.2 0 0 1 -.1.38c-4.14-.39-20.88-2-23.17-3.79l7.6 5.79a.1.1 0 0 1 -.06.18z" fill="#ddae47"/><rect fill="#fff" height="16" rx="8" stroke="#000" stroke-miterlimit="10" stroke-width="2" width="20" x="90" y="35.5"/><rect fill="#fff" height="16" rx="8" stroke="#000" stroke-miterlimit="10" stroke-width="2" width="20" x="65" y="35.5"/><path d="m85 43.5h5" fill="none" stroke="#000" stroke-miterlimit="10" stroke-width="2"/><circle cx="78.5" cy="43" r="1.5"/><circle cx="102.5" cy="43" r="1.5"/><circle cx="146.5" cy="72" fill="#f9d0a7" r="9.5"/><path d="m98 25.41h.26l.84-.2c.45-.12.89-.23 1.35-.32.84-.15 1.68-.27 2.53-.4a30 30 0 0 0 3-.54l.68-.19c0-.13 0-.27 0-.4 0-13 1.88-23.6-12.86-23.6 0 0-12.76 1.72-17 1.72s-16.97-1.72-16.97-1.72c-14.74 0-13 10.57-13 23.6a20.54 20.54 0 0 0 .26 3.64l29.59 2.7 16.67-1.54a5.12 5.12 0 0 1 4.65-2.75z" fill="#874b15"/><path d="m106.58 23.77c0-.14 0-.28 0-.41 0-1.94 0-6.83.07-8.63a108.36 108.36 0 0 1 -30 4.23c-11.5 0-22-.7-30-1.22 0 1.8.06 3.68.06 5.62a20.54 20.54 0 0 0 .38 3.64l29.59 2.7 13.52-1.25c4.91-3.02 10.73-3.56 16.38-4.68z" fill="#3f200a"/><path d="m120.81 18.75c.52.89-.06 2-1.29 2.4-13.5 4.7-27.63 9-42.06 10.07s-29.18-1.09-43.39-3.75c-1.29-.24-2.06-1.22-1.72-2.17a2.52 2.52 0 0 1 2.86-1.3 162.53 162.53 0 0 0 82.53-6.11 2.62 2.62 0 0 1 3.07.85z" fill="#683e11"/><path d="m77.16 28.06c14.43-1.07 28.57-5.24 42.07-9.95a3.48 3.48 0 0 0 .48-.21 3.09 3.09 0 0 0 -2 0 162.53 162.53 0 0 1 -82.5 6.1 3 3 0 0 0 -1.94.28 3.55 3.55 0 0 0 .52.15c14.21 2.66 28.93 4.7 43.37 3.63z" fill="#89511f"/><g stroke-miterlimit="10"><rect fill="#f9d0a7" height="16" rx="8" stroke="#000" stroke-width="2" width="20" x="90" y="35.5"/><rect fill="#f9d0a7" height="16" rx="8" stroke="#000" stroke-width="2" width="20" x="65" y="35.5"/><path d="m85 43.5h5" fill="none" stroke="#000" stroke-width="2"/><path d="m90.55 42.78 19.17-.01" stroke="#b79274"/><path d="m65.55 42.78 19.17-.01" stroke="#b79274"/><rect fill="none" height="16" rx="8" stroke="#000" stroke-width="2" width="20" x="90" y="35.5"/><rect fill="none" height="16" rx="8" stroke="#000" stroke-width="2" width="20" x="65" y="35.5"/></g></svg>