<svg viewBox="0 0 157 180" xmlns="http://www.w3.org/2000/svg"><path d="m57.67 1a16.41 16.41 0 0 0 -4.16.82 8.72 8.72 0 0 0 -5.51 5.43 17.35 17.35 0 0 0 -.91 4 35.22 35.22 0 0 0 -.29 4.75 2 2 0 0 1 .64.09c1.21.34 2.42.68 3.63 1 2.09.52 4.2.92 6.31 1.31 1.21.22 2.42.42 3.64.6s2.21.24 3.32.39 2.29.24 3.44.35c.63.07 1.27.05 1.9.13a30.87 30.87 0 0 0 3.46.2c4.61.06 9.22.06 13.83-.09 1.36-.05 2.71-.2 4.07-.14h.12c1.12-.23 2.27 0 3.4-.21a19.38 19.38 0 0 1 2-.11c1.43-.07 2.86-.18 4.29-.25 1 0 2.07-.21 3.11-.15a.65.65 0 0 0 .24 0c.82-.14 1.66-.1 2.49-.2.06-1.38 0-2.75 0-4.13a30.75 30.75 0 0 0 -.56-5.23 15.56 15.56 0 0 0 -.61-2.12 8.9 8.9 0 0 0 -6-5.69 17.43 17.43 0 0 0 -4-.73h-2.2s0 0-.08-.08h-.12c.01.06-.12.06-.24.06l-3.56.47c-1.94.23-3.88.47-5.83.67-1.56.16-3.13.32-4.71.4a48.62 48.62 0 0 1 -7.53-.26q-5.15-.55-10.25-1.21a1.7 1.7 0 0 1 -.91-.21h-.24a9.11 9.11 0 0 1 -2.18.14z" fill="#874b15"/><path d="m81 161.19v1.32 11.63h30q0-6.27 0-12.53c0-.45 0-.45-.6-.45h-15.4-.71-11.48z" fill="#8c6239"/><path d="m70 174.14a1.58 1.58 0 0 1 0-.65v-11.56c0-.24 0-.48 0-.72-.24 0-.48 0-.71 0h-12.57-.78-1.38-12.94c-.73 0-.66-.07-.66.63v11.76.54z" fill="#8c6239"/><path d="m15.54 126.62c.22.21.08.5.14.74a9.83 9.83 0 0 0 1.81 3.64 9.5 9.5 0 0 0 11.36 2.78 9.17 9.17 0 0 0 2.93-2 9.5 9.5 0 0 0 2.59-5.29 9.3 9.3 0 0 0 -1.4-6.45 1.44 1.44 0 0 1 -.27-.59l-9-1.84-3.57-.7a11.73 11.73 0 0 0 -2.18 1.85 8.48 8.48 0 0 0 -2.27 4.65.27.27 0 0 1 -.11.2z" fill="#f9d0a7"/><path d="m143.87 143.08h.19v-2.52h-.2a16.83 16.83 0 0 1 .01 2.52z" fill="#a8998f"/><path d="m93.3.86s.06.08.08.08h2.2a.2.2 0 0 1 0-.11z" fill="#a8998f"/><path d="m57.67 1a9.11 9.11 0 0 0 2.15-.14h-2.16z" fill="#a8998f"/><path d="m42.46 45.46a8.62 8.62 0 0 0 0 2c.09.59.08 1.19.13 1.78a28.49 28.49 0 0 0 .79 4.41 30.8 30.8 0 0 0 2.62 6.78 32.88 32.88 0 0 0 3.71 5.64 31.64 31.64 0 0 0 3.13 3.31 31 31 0 0 0 6.16 4.44l1 .58a.31.31 0 0 1 .17.23 2.76 2.76 0 0 1 1.18.43l.39.15a32.13 32.13 0 0 0 6.63 2.09c.57.11.57.11.58.72v.36c.17 0 .16.19.2.33.69 2.77 1.4 5.54 2 8.33.51 2.15 1.08 4.28 1.62 6.42 0 .12 0 .29.16.34s.16-.18.21-.28c.87-2.1 1.74-4.19 2.62-6.29l3.69-8.81c.35-.84.34-.84 1.24-1l1.11-.22a32.58 32.58 0 0 0 7-2.41 2.32 2.32 0 0 1 .58-.13c0-.2.18-.25.32-.32a29.75 29.75 0 0 0 4.3-2.59 28.13 28.13 0 0 0 3-2.51 32.24 32.24 0 0 0 4.92-5.77 25.73 25.73 0 0 0 2.35-4.23.6.6 0 0 1 .69-.42 7.2 7.2 0 0 0 2.26-.17 6.12 6.12 0 0 0 4.3-3.9 6.32 6.32 0 0 0 -1.37-6.83 5.94 5.94 0 0 0 -2.44-1.57c-.47-.17-.47-.18-.48-.68s0-1.16 0-1.74c0-.16.05-.37-.16-.47a.45.45 0 0 0 -.18.43c0 1.49-.11 3-.23 4.47-.08 1-.12 1.91-.25 2.85a1.21 1.21 0 0 1 -1 1.14 1.31 1.31 0 0 1 -1.59-.85 8.48 8.48 0 0 1 -.21-.87 46.77 46.77 0 0 0 -2.63-7.8 63.44 63.44 0 0 0 -3.98-7.6c-.61-1-1.27-2-1.9-3a15 15 0 0 0 -1.9.12c-1.45.07-2.9.17-4.34.26a61.23 61.23 0 0 1 -7.2 2.37 20.17 20.17 0 0 0 -2.53.7h4.44a6.18 6.18 0 0 1 2 .3 5 5 0 0 1 3.28 3.47 13.86 13.86 0 0 1 .58 3.78 12.48 12.48 0 0 1 -.15 3.17 9 9 0 0 1 -9 7.27c-1.3 0-2.59 0-3.89 0a8.84 8.84 0 0 1 -6.84-3.19 8.7 8.7 0 0 1 -2-4.29c-.08-.53-.09-.53-.63-.53h-1.8c-.73 0-.73 0-.87.75a9 9 0 0 1 -8.72 7.26h-4.11a9 9 0 0 1 -8.66-6.67c-.14-.52-.17-1-.3-1.54zm21.68 24.17a9.8 9.8 0 0 1 -5.57-1.42 4.09 4.09 0 0 1 -2.06-2.74c-.24-1.31.11-2.24 1.74-2.21 1.08 0 2.15.17 3.22.28a27.71 27.71 0 0 0 5.07-.07 23.72 23.72 0 0 1 3-.2 2.94 2.94 0 0 1 1.1.25 1.27 1.27 0 0 1 .78 1.18 3.29 3.29 0 0 1 -.42 1.88 5.47 5.47 0 0 1 -2.58 2.15 9.21 9.21 0 0 1 -4.28.9z" fill="#f9d0a7"/><path d="m80.94 135.14v3.47h.72 13.34c.45-.05.45-.05.46-.46v-46.48a36 36 0 0 1 10.45 6.33 31.62 31.62 0 0 1 10.56 21.58l.72-.08a3.37 3.37 0 0 1 .34-.1l7-1.41 5.4-1 1.17-.26c.24 0 .31-.13.26-.4-.47-2.25-1-4.47-1.73-6.67a55.11 55.11 0 0 0 -9.11-17.66 51.38 51.38 0 0 0 -22.52-16.54 10.76 10.76 0 0 0 -4.62-.82c-1.15.07-2.31 0-3.47 0a2.4 2.4 0 0 0 .07.65c.45 1.61.87 3.23 1.31 4.84a.64.64 0 0 1 -.27.81c-1.1.79-2.17 1.63-3.26 2.43a.46.46 0 0 0 -.19.61c.07.21.13.42.2.63l1.89 5.17c.51 1.4 1 2.82 1.55 4.21a.88.88 0 0 1 -.21 1.14q-4.55 4.52-9.08 9.07c-.14.14-.25.32-.47.35v.11a2.49 2.49 0 0 1 0 .77q-.12 7.5-.23 15c-.07 4.28-.12 8.55-.18 12.83a9.32 9.32 0 0 1 -.1 1.88z" fill="#3f200b"/><path d="m143.87 143.08a16.83 16.83 0 0 0 0-2.56 11.9 11.9 0 0 0 -5.74-8.73 13.92 13.92 0 0 0 -4.4-1.81l-.46-.12-.25.33a9.47 9.47 0 0 1 -12.78 3.21c-.16-.08-.3-.21-.5-.16s-.19.21-.28.31a12.46 12.46 0 0 0 -3.17 5.16 5.4 5.4 0 0 0 .23 4.19 12.88 12.88 0 0 0 2.37 3.38 8.18 8.18 0 0 0 2.78 1.84 10.76 10.76 0 0 0 5.89.52 8 8 0 0 0 3.33-1.28 4.11 4.11 0 0 0 1.73-2.43 5.33 5.33 0 0 0 0-2 4.08 4.08 0 0 0 -2.66-3.35 9 9 0 0 0 -2.38-.56 9.83 9.83 0 0 0 -1.08-.09c-.19 0-.45 0-.53.17s.16.34.32.45a9.61 9.61 0 0 0 .87.53 6.53 6.53 0 0 1 2.35 2.17 2.59 2.59 0 0 1 .43.92 1.22 1.22 0 0 1 -.39 1.3 2.66 2.66 0 0 1 -1 .52 5.75 5.75 0 0 1 -4.95-.64 3.48 3.48 0 0 1 -1.69-4.26 6 6 0 0 1 2.18-3.08 9.39 9.39 0 0 1 10.73-.56 6.66 6.66 0 0 1 3.18 4.15 6.86 6.86 0 0 1 -.37 4.18 15 15 0 0 1 -5.87 7.24 10.63 10.63 0 0 1 -8.3 1.62 16.34 16.34 0 0 1 -10.85-8 9.42 9.42 0 0 1 -1.3-4.63 9.21 9.21 0 0 1 1.87-5.64 16.67 16.67 0 0 1 2.3-2.52 1.4 1.4 0 0 0 0-.41c-.34-1.18-.7-2.36-1-3.54a.47.47 0 0 0 -.29-.35 18.08 18.08 0 0 0 -6 6.13 12.58 12.58 0 0 0 -1.45 3.73 13.27 13.27 0 0 0 1.14 8.74 21.14 21.14 0 0 0 6.82 7.85 18.31 18.31 0 0 0 7.29 3.35 17.29 17.29 0 0 0 15.37-4 19.49 19.49 0 0 0 5.78-8.19 12.46 12.46 0 0 0 .73-3.08z" fill="#522c0c"/><path d="m106.71 18.87c-.83.1-1.67.06-2.49.2a.65.65 0 0 1 -.24 0c-1-.06-2.07.11-3.11.15-1.43.07-2.86.18-4.29.25a19.38 19.38 0 0 0 -2 .11c-1.13.18-2.28 0-3.4.21h-.18c-1.36-.06-2.71.09-4.07.14-4.61.15-9.22.15-13.83.09a30.87 30.87 0 0 1 -3.46-.2c-.63-.08-1.27-.06-1.9-.13-1.15-.11-2.3-.2-3.44-.35s-2.18-.22-3.3-.34-2.43-.38-3.64-.6c-2.11-.39-4.22-.79-6.31-1.31-1.21-.31-2.42-.65-3.63-1a2 2 0 0 0 -.62-.09 8.76 8.76 0 0 0 0 1.45.55.55 0 0 1 0 .58 7.91 7.91 0 0 0 0 1.54v.18a1 1 0 0 0 0 .42v1.63c.07.67.07.66.74.84 1.61.45 3.24.82 4.87 1.19 2.31.53 4.63 1 6.95 1.42 2.68.49 5.37.9 8.07 1.27 1.73.24 3.47.44 5.21.6 1.42.14 2.85.25 4.28.36s2.74.14 4.11.24c1 .08 2 .1 3.05.11 3.21 0 6.42.14 9.64-.07 1.15-.07 2.31-.05 3.46-.11 1 0 2-.14 3-.18.57 0 1.15-.06 1.72-.11.74-.07 1.47-.16 2.2-.21.54 0 1.07-.13 1.6-.17a1.4 1.4 0 0 0 .86-.21c.16-2.63.17-5.27.15-7.9z" fill="#3f200b"/><path d="m88.86 32.57c1.44-.09 2.89-.19 4.34-.26a15 15 0 0 1 1.9-.12 6.67 6.67 0 0 1 1.18-.14c.54 0 1.07-.09 1.6-.15l3.79-.44c1.08-.13 2.16-.29 3.25-.42a18.14 18.14 0 0 1 2.54-.3 5.92 5.92 0 0 1 1.33-.27c.93-.17 1.87-.3 2.81-.45l3.8-.67c1.16-.21 2.32-.46 3.5-.64a2.7 2.7 0 0 0 2.24-1.33 1.65 1.65 0 0 0 -1.2-2 .24.24 0 0 1 -.23.22l-1 .19c-1.64.3-3.28.62-4.92.88l-4.06.65c-1.49.23-3 .43-4.47.67-1.08.17-2.17.22-3.25.39-1.28.2-2.56.28-3.84.44s-2.73.27-4.1.37-2.7.13-4 .24c-1.17.09-2.35.05-3.52.1a36.74 36.74 0 0 1 -5-.07c-1.2-.12-2.43 0-3.64-.12-.83-.05-1.67-.13-2.5-.17-.47 0-1 0-1.43-.11-.89-.1-1.77-.23-2.66-.34s-1.54-.15-2.3-.27c-1.12-.17-2.23-.39-3.35-.56-1.9-.3-3.79-.68-5.67-1.09q-4.58-1-9.09-2.25c-3.55-1-7.07-2.06-10.57-3.21-2-.65-3.93-1.33-5.89-2-.18-.06-.41-.06-.49-.3a2.29 2.29 0 0 0 -1.06.57c-.06.11-.1.22-.16.32a1.3 1.3 0 0 0 0 1.47 2.1 2.1 0 0 0 1 .85c.43.16.86.33 1.29.47 2.69.87 5.35 1.84 8.06 2.65a.39.39 0 0 1 .27.21 2.13 2.13 0 0 1 .93.2c3.57 1.12 7.17 2.16 10.81 3.07 1.73.43 3.48.83 5.22 1.25l3.32.67c.91.16 1.81.32 2.71.46 2.19.35 4.38.67 6.58.89a4.49 4.49 0 0 1 1.41.19c1.4 0 2.8.18 4.19.26.8 0 1.59.07 2.39.09h4s2.62-.14 3.94-.09z" fill="#683e12"/><path d="m119.73 133.24c.2-.05.34.08.5.16a9.47 9.47 0 0 0 12.77-3.21l.25-.33a15.37 15.37 0 0 0 .85-2.16 9.47 9.47 0 0 0 -.1-5.43 1.8 1.8 0 0 1 -.17-.69c-.25-.45-.5-.9-.76-1.35a9 9 0 0 0 -2.76-2.93 1 1 0 0 1 -.31-.3l-5.4 1-7 1.41a3.37 3.37 0 0 0 -.34.1c-.28.51-.58 1-.82 1.51a8.78 8.78 0 0 0 -.89 3.67c0 .92.09 1.82.15 2.73.15.1.16.27.21.41a9.47 9.47 0 0 0 2.51 4.14c.11.1.26.18.27.37a2.5 2.5 0 0 1 1.04.9z" fill="#f9d0a7"/><path d="m81.47 104.55c.22 0 .33-.21.47-.35q4.53-4.55 9.08-9.07a.88.88 0 0 0 .22-1.13c-.55-1.39-1-2.81-1.55-4.21l-1.89-5.15c-.07-.21-.13-.42-.2-.63a.46.46 0 0 1 .19-.61c1.09-.8 2.16-1.64 3.26-2.43a.64.64 0 0 0 .27-.81c-.44-1.61-.86-3.23-1.31-4.84a2.4 2.4 0 0 1 -.07-.65h-.48a2.32 2.32 0 0 0 -.58.13 32.58 32.58 0 0 1 -7 2.41c-.05 3.1-.09 6.2-.15 9.3a4 4 0 0 1 -.07 1.25 1 1 0 0 1 0 .41c0 1.41 0 2.82-.08 4.24.1 1.65-.1 3.3-.11 5s0 3.23 0 4.85a5.77 5.77 0 0 1 -.11.92c.13.4 0 .89.11 1.37z" fill="#683e12"/><path d="m107.46 30.74a18.14 18.14 0 0 0 -2.54.3c-1.09.13-2.17.29-3.25.42l-3.79.44c-.53.06-1.06.12-1.6.15a6.67 6.67 0 0 0 -1.18.14c.63 1 1.29 2 1.9 3a63.44 63.44 0 0 1 3.92 7.6 46.77 46.77 0 0 1 2.63 7.8 8.48 8.48 0 0 0 .21.87 1.31 1.31 0 0 0 1.59.85 1.21 1.21 0 0 0 1-1.14c.13-.94.17-1.9.25-2.85.12-1.49.24-3 .23-4.47a.45.45 0 0 1 .18-.43c-.14-2 0-4.09-.15-6.14-.07-.87-.09-1.75-.13-2.62a1.39 1.39 0 0 1 .21-.91c0-.14 0-.28.08-.41a13.06 13.06 0 0 0 .44-2.6z" fill="#d1a44b"/><path d="m33.88 19c.08.24.31.24.49.3 2 .67 3.92 1.35 5.89 2 3.5 1.15 7 2.23 10.57 3.21q4.52 1.24 9.09 2.25c1.88.41 3.77.79 5.67 1.09 1.12.17 2.23.39 3.35.56.76.12 1.54.18 2.3.27s1.77.24 2.66.34c.47.06 1 .08 1.43.11.83 0 1.67.12 2.5.17 1.21.08 2.44 0 3.64.12a36.74 36.74 0 0 0 5 .07c1.17-.05 2.35 0 3.52-.1 1.35-.11 2.71-.14 4-.24s2.74-.19 4.1-.37 2.56-.24 3.84-.44c1.08-.17 2.17-.22 3.25-.39 1.49-.24 3-.44 4.47-.67l4.06-.65c1.64-.26 3.28-.58 4.92-.88l1-.19a.24.24 0 0 0 .23-.22 2.34 2.34 0 0 0 -1.68-.21c-3.13.59-6.28 1.06-9.44 1.48l-1.9.22a.35.35 0 0 1 -.33-.08 1.4 1.4 0 0 1 -.86.21c-.53 0-1.06.13-1.6.17-.73.05-1.46.14-2.2.21-.57.05-1.15.08-1.72.11-1 0-2 .13-3 .18-1.15.06-2.31 0-3.46.11-3.22.21-6.43.09-9.64.07-1 0-2 0-3.05-.11-1.37-.1-2.74-.13-4.11-.24s-2.86-.22-4.28-.36c-1.74-.16-3.48-.36-5.21-.6-2.7-.37-5.39-.78-8.07-1.27-2.32-.43-4.64-.89-6.95-1.42-1.63-.37-3.26-.74-4.87-1.19-.67-.18-.67-.17-.74-.84a1.49 1.49 0 0 0 -.12.14.57.57 0 0 1 -.79.28c-1.59-.48-3.18-.92-4.77-1.4-1.78-.52-3.54-1.11-5.29-1.72a2.73 2.73 0 0 0 -1.9-.08z" fill="#895120"/><path d="m107.46 30.74a13.06 13.06 0 0 1 -.4 2.64c0 .13 0 .27-.08.41 2.17-.32 4.33-.75 6.48-1.17q2.76-.54 5.51-1.14a2.77 2.77 0 0 0 2.33-3.48 1.14 1.14 0 0 0 -.16-.57 2.7 2.7 0 0 1 -2.24 1.33c-1.18.18-2.34.43-3.5.64l-3.8.67c-.94.15-1.88.28-2.81.45a5.92 5.92 0 0 0 -1.33.22z" fill="#522c0c"/><path d="m133.84 121.58a1.8 1.8 0 0 0 .17.69 9.47 9.47 0 0 1 .1 5.43 2.27 2.27 0 0 1 1.15.13 3.66 3.66 0 0 0 4.35-5.13 3.53 3.53 0 0 0 -3.43-2.06 3.71 3.71 0 0 0 -2.34.94z" fill="#40210b"/><path d="m61.37 75.06a2.76 2.76 0 0 0 -1.18-.43 18.42 18.42 0 0 0 -3.54.58c-8.82 1.65-16.15 6.09-22.54 12.2a51.12 51.12 0 0 0 -13 21.11 66 66 0 0 0 -2 7.57c0 .1 0 .2-.05.3s0 .28.22.32l.88.21 3.57.7 9 1.84 1 .18a32.4 32.4 0 0 1 10.06-19.64c3.11-3 9.43-6.88 11.6-7.27a2.23 2.23 0 0 1 0 .77v44.58c0 .49 0 .49.51.54h.72 12.46c.61 0 .61 0 .61-.63 0-1 0-1.92 0-2.88 0-1.5-.08-3-.1-4.49 0-2.32-.06-4.64-.1-7l-.15-9.47c-.11-2.23.07-4.46-.14-6.69-.08-.91 0-1.83 0-2.75v-.23a1.94 1.94 0 0 1 -.27-.23c-.87-.9-1.7-1.84-2.55-2.76-1-1.11-2.06-2.23-3.09-3.33s-2-2.23-3.08-3.33a.47.47 0 0 1 -.12-.58c.43-1.13.83-2.28 1.25-3.42s.8-2.16 1.19-3.25.85-2.4 1.3-3.59a.47.47 0 0 0 -.2-.65c-.43-.29-.83-.62-1.24-.93-.68-.51-1.38-1-2.06-1.53-.17-.13-.38-.25-.28-.58.39-1.38.76-2.76 1.14-4.14a3.26 3.26 0 0 0 .18-1.1z" fill="#40210b"/><path d="m42.46 45.46c.13.5.16 1 .3 1.52a9 9 0 0 0 8.66 6.67h4.14a9 9 0 0 0 8.72-7.26c.14-.75.14-.75.87-.75h1.85c.54 0 .55 0 .63.53a8.7 8.7 0 0 0 2 4.29 8.84 8.84 0 0 0 6.84 3.19h3.89a9 9 0 0 0 9-7.27 12.48 12.48 0 0 0 .15-3.17 13.86 13.86 0 0 0 -.58-3.78 5 5 0 0 0 -3.36-3.43 6.18 6.18 0 0 0 -2-.3h-4.44c-1.48 0-2.95 0-4.43 0-.58 0-1.16 0-1.74 0a5 5 0 0 0 -4.39 2.58 6.16 6.16 0 0 0 -.57 1.39 13.77 13.77 0 0 0 -.5 3.55c0 .43 0 .43-.44.44s-1 0-1.44 0-.83.18-1.09-.09-.1-.69-.12-1a11 11 0 0 0 -.84-3.84 4.84 4.84 0 0 0 -3.47-2.86 7.22 7.22 0 0 0 -1.61-.17c-3.11 0-6.23 0-9.35 0-.72 0-1.43.06-2.14.11l-.34.11a4.75 4.75 0 0 0 -3 2.27c-.07.11-.11.25-.23.33 0 .3-.19.52-.28.77a15.13 15.13 0 0 0 -.65 4.43c-.07.54-.04 1.14-.04 1.74zm11 6.18h-2a7 7 0 0 1 -6.63-4.81 11.13 11.13 0 0 1 -.29-4.22 9.83 9.83 0 0 1 .42-2.47 3.06 3.06 0 0 1 3.2-2.46h9.47q.6 0 1.2 0a3.1 3.1 0 0 1 3.17 2.42 5.18 5.18 0 0 1 .14.53 17.68 17.68 0 0 1 .35 4.17 7 7 0 0 1 -7 6.84zm25 0c-.78 0-1.56 0-2.34 0a7 7 0 0 1 -6.6-6 16.73 16.73 0 0 1 .08-4 6.85 6.85 0 0 1 .63-2.3 2.86 2.86 0 0 1 1.94-1.56 7.14 7.14 0 0 1 1.83-.13h8.9 1.08a3 3 0 0 1 2.86 2.09 6.34 6.34 0 0 1 .23.74 16.72 16.72 0 0 1 .37 4.29 7 7 0 0 1 -6.87 6.84z" fill="#050505"/><path d="m60.33 30.08c-1.74-.42-3.49-.82-5.22-1.25-3.64-.91-7.24-1.95-10.81-3.07a2.13 2.13 0 0 0 -.93-.2 7.94 7.94 0 0 1 -1.1 1 2.77 2.77 0 0 1 -.92.62 3.94 3.94 0 0 1 -1.16.82 10.84 10.84 0 0 1 -1.71.84 2 2 0 0 0 -.33.15.27.27 0 0 0 -.15.29.28.28 0 0 0 .23.25c.25.05.51.08.76.11l4.7.39 1.43.11c1 0 2 .16 3.07.14.85 0 1.69.17 2.54.12a.5.5 0 0 1 .21.1c.4 0 .78-.12 1.18-.11 2.15.06 4.29-.05 6.44-.13.59-.04 1.18-.12 1.77-.18z" fill="#dcae48"/><path d="m41.35 27.17a2.77 2.77 0 0 0 .92-.62 7.94 7.94 0 0 0 1.1-1 .39.39 0 0 0 -.27-.21c-2.71-.81-5.37-1.78-8.06-2.65-.43-.14-.86-.31-1.29-.47a2.1 2.1 0 0 1 -1-.85 1.3 1.3 0 0 1 0-1.47c.06-.1.1-.21.16-.32a.42.42 0 0 0 -.51.2 2.81 2.81 0 0 0 -.16 2.95 3.52 3.52 0 0 0 1.9 1.64c2.35.93 4.78 1.87 7.21 2.8z" fill="#522c0c"/><path d="m50.94 30.49a.5.5 0 0 0 -.21-.1c-.85.05-1.69-.14-2.54-.12-1 0-2-.12-3.07-.14-.2 1.46-.62 2.87-1 4.3-.29 1.21-.52 2.42-.76 3.63a1.86 1.86 0 0 0 0 .41c.12-.08.16-.22.23-.33a4.75 4.75 0 0 1 3-2.27l.34-.11a22.19 22.19 0 0 1 1.27-4.38 1.07 1.07 0 0 1 .93-.64c.64-.07 1.22-.17 1.81-.25z" fill="#d1a44b"/><path d="m46.8 18a.55.55 0 0 0 0-.58 1 1 0 0 0 0 .58z" fill="#874b15"/><path d="m46.84 20.32v-.17c-.07.06-.06.11 0 .17z" fill="#874b15"/><path d="m46.83 19.73v-.18a.11.11 0 0 0 0 .18z" fill="#874b15"/><path d="m69.68 135.13v2.88c0 .62 0 .63-.61.63h-12.4-.72v.72 21 .72h.78 12.5.71c0-.16 0-.32 0-.47q0-12.81 0-25.6z" fill="#a8998f"/><path d="m95 138.65h-13.33-.72v.78 21.14.66h1.85 11.49.71c0-.23 0-.47 0-.71v-21.15c0-.24 0-.48 0-.72z" fill="#a8998f"/><path d="m118.62 132.37c0-.19-.16-.27-.27-.37a9.47 9.47 0 0 1 -2.51-4.14c0-.14-.06-.31-.21-.41-.36.11-.72.25-1.08.33s-.43.17-.3.49c0 .1-.07.17-.11.25a.47.47 0 0 1 .29.35c.35 1.18.71 2.36 1 3.54a1.4 1.4 0 0 1 0 .41c.31.38.31.38.8.23z" fill="#40210b"/><path d="m69.68 135.13h11.26a9.32 9.32 0 0 0 .1-1.9c.06-4.28.11-8.55.18-12.83q.11-7.48.23-15a2.49 2.49 0 0 0 0-.77c-.22 0-.21.18-.25.34a5.44 5.44 0 0 1 -5.29 4.35c-.53 0-1-.15-1.55-.13l-3 3c-.68.68-1.33 1.38-2 2l.15 9.47c0 2.32.06 4.64.1 7-.01 1.48.04 2.97.07 4.47z" fill="#d7cbc2"/><path d="m61.37 75.06a3.26 3.26 0 0 1 -.21 1.16c-.38 1.38-.75 2.78-1.16 4.14-.1.33.11.45.28.58.68.52 1.38 1 2.06 1.53.41.31.81.64 1.24.93a.47.47 0 0 1 .2.65c-.45 1.19-.86 2.39-1.3 3.59s-.8 2.17-1.19 3.25-.82 2.29-1.25 3.42a.47.47 0 0 0 .12.58c1 1.1 2 2.22 3.08 3.33s2.06 2.22 3.09 3.33c.85.92 1.68 1.86 2.55 2.76a1.94 1.94 0 0 0 .27.23 1.81 1.81 0 0 0 0-.23q-.06-6.44-.11-12.87a5.93 5.93 0 0 1 0-1.19c0-.28 0-.55 0-.83q0-3.73 0-7.46v-3.58c0-.12 0-.24 0-.36 0-.61 0-.61-.58-.72a32.13 32.13 0 0 1 -6.63-2.09z" fill="#683e12"/><path d="m69 78.38v3.62q0 3.72 0 7.46v.83c.23.09.31.31.42.48l2.83 4.43a.8.8 0 0 1 .18.49.54.54 0 0 0 .27.44.69.69 0 0 0 1-.1c1-1.08 2-2.18 3.07-3.26s1.89-2 2.88-3c.28-.28.54-.57.8-.88a5.42 5.42 0 0 1 1.11-1.08 4 4 0 0 0 .07-1.25c.06-3.1.1-6.2.15-9.3l-1.11.22c-.9.18-.89.18-1.24 1l-3.69 8.81c-.88 2.1-1.75 4.19-2.62 6.29 0 .1-.08.23-.21.28s-.13-.22-.16-.34c-.54-2.14-1.11-4.27-1.62-6.42-.65-2.79-1.36-5.56-2-8.33.03-.2.04-.35-.13-.39z" fill="#e7e3e1"/><path d="m64.14 69.63a9.21 9.21 0 0 0 4.25-.9 5.47 5.47 0 0 0 2.61-2.15 3.29 3.29 0 0 0 .48-1.88 1.27 1.27 0 0 0 -.78-1.18 2.94 2.94 0 0 0 -1.1-.25 23.72 23.72 0 0 0 -3 .2 27.71 27.71 0 0 1 -5.07.07c-1.07-.11-2.14-.26-3.22-.28-1.63 0-2 .9-1.74 2.21a4.09 4.09 0 0 0 2.06 2.74 9.8 9.8 0 0 0 5.51 1.42z" fill="#fffffe"/><path d="m74.7 35.63h4.43a20.17 20.17 0 0 1 2.53-.7 61.23 61.23 0 0 0 7.2-2.37c-1.32 0-2.62.13-3.94.09s-2.66 0-4 0c-.8 0-1.59-.12-2.39-.09a2 2 0 0 1 -.59.58z" fill="#dcae48"/><path d="m74.33 109.22c.52 0 1 .14 1.55.13a5.44 5.44 0 0 0 5.29-4.35c0-.16 0-.32.25-.34v-.11c-.11-.48 0-1-.06-1.45a.24.24 0 0 1 -.23-.27v-.46c-.12 0-.13-.14-.17-.23a8.37 8.37 0 0 0 -4.63-4.44 6.28 6.28 0 0 0 -2.66 0 5.54 5.54 0 0 0 -4.29 5.57 10.21 10.21 0 0 1 .12 1.24c.19.09.19.29.25.45a5.5 5.5 0 0 0 1.25 1.8 8.12 8.12 0 0 0 3.29 2.41s.03.03.04.05zm1.5-4.67a.44.44 0 0 1 -.33-.11c-.37-.36-.76-.71-1.11-1.09a.64.64 0 0 1 .88-.91c.39.35.75.72 1.1 1.1a.53.53 0 0 1 0 .67.62.62 0 0 1 -.54.34z" fill="#e7e3e1"/><path d="m74.7 35.63 3.3-2.5a2 2 0 0 0 .59-.58c-1.39-.08-2.79-.23-4.19-.26a5.09 5.09 0 0 1 -1.28.25l-3 .46-3.2.41c-.85.1-1.7.17-2.55.27s-1.86.23-2.79.32-2.06.18-3.09.28c-.15 0-.33.12-.42-.08s.1-.28.23-.37a1.43 1.43 0 0 1 .21-.12c1.18-.66 2.38-1.29 3.55-2a8.8 8.8 0 0 0 1.59-.95l-3.32-.67c-.59.06-1.18.14-1.77.17-2.15.08-4.29.19-6.44.13-.4 0-.78.09-1.18.11-.59.08-1.17.18-1.76.25a1.07 1.07 0 0 0 -.93.64 22.19 22.19 0 0 0 -1.25 4.37c.71 0 1.42-.11 2.14-.11h9.35a7.22 7.22 0 0 1 1.61.17 4.84 4.84 0 0 1 3.47 2.86 11 11 0 0 1 .84 3.84c0 .35-.11.8.12 1s.72.08 1.09.09 1 0 1.44 0 .43 0 .44-.44a13.77 13.77 0 0 1 .5-3.55 6.16 6.16 0 0 1 .59-1.43 5 5 0 0 1 4.41-2.53c.54-.03 1.12-.02 1.7-.03z" fill="#f9d0a7"/><path d="m63.65 30.75a8.8 8.8 0 0 1 -1.59.95c-1.17.69-2.37 1.32-3.55 2a1.43 1.43 0 0 0 -.21.12c-.13.09-.31.17-.23.37s.27.1.42.08c1-.1 2.07-.17 3.09-.28s1.86-.22 2.79-.32 1.7-.17 2.55-.27l3.2-.41 2.95-.43a5.09 5.09 0 0 0 1.28-.25 4.49 4.49 0 0 0 -1.41-.19c-2.2-.22-4.39-.54-6.58-.89-.9-.16-1.8-.32-2.71-.48z" fill="#dcae48"/><path d="m69.55 104.47a10.21 10.21 0 0 0 -.12-1.24 5.54 5.54 0 0 1 4.29-5.57 6.28 6.28 0 0 1 2.66 0 11.48 11.48 0 0 1 1.22-1.29l4.05-4c0-1.42 0-2.83.08-4.24a1 1 0 0 0 0-.41 5.42 5.42 0 0 0 -1.11 1.08c-.26.31-.52.6-.8.88-1 1-1.92 2-2.88 3s-2 2.18-3.07 3.26a.69.69 0 0 1 -1 .1.54.54 0 0 1 -.27-.44.8.8 0 0 0 -.18-.49l-2.83-4.43c-.11-.17-.19-.39-.42-.48a5.93 5.93 0 0 0 0 1.19q0 6.44.11 12.87a1.81 1.81 0 0 1 0 .23v.23a.59.59 0 0 0 .27-.25z" fill="#d7cbc2"/><path d="m81.65 92.38-4.05 4a11.48 11.48 0 0 0 -1.22 1.29 8.37 8.37 0 0 1 4.62 4.47c0 .09 0 .19.17.23.07-.14.16-.25.34-.19 0-1.62 0-3.23 0-4.85s.24-3.33.14-4.95z" fill="#522c0c"/><path d="m81.52 102.18c-.18-.06-.27 0-.34.19v.46a.24.24 0 0 0 .23.27 5.77 5.77 0 0 0 .11-.92z" fill="#d7cbc2"/><path d="m69.55 104.47a.59.59 0 0 1 -.37.3c0 .92-.07 1.84 0 2.75.21 2.23 0 4.46.14 6.69.71-.64 1.36-1.34 2-2l3-3s0 0 0 0a8.12 8.12 0 0 1 -3.32-2.45 5.5 5.5 0 0 1 -1.21-1.84c-.05-.16-.05-.36-.24-.45z" fill="#522c0c"/><path d="m53.47 51.64h2a7 7 0 0 0 7-6.84 17.68 17.68 0 0 0 -.35-4.17 5.18 5.18 0 0 0 -.12-.53 3.1 3.1 0 0 0 -3.16-2.43q-.6 0-1.2 0c-3.16 0-6.31 0-9.47 0a3.06 3.06 0 0 0 -3.2 2.46 9.83 9.83 0 0 0 -.42 2.47 11.13 11.13 0 0 0 .29 4.22 7 7 0 0 0 6.63 4.81zm-2.5-6a1.48 1.48 0 0 1 -1.53-1.48 1.51 1.51 0 0 1 3 0 1.48 1.48 0 0 1 -1.44 1.48z" fill="#fffffe"/><path d="m78.47 51.64h2.1a7 7 0 0 0 6.87-6.84 16.72 16.72 0 0 0 -.37-4.29 6.34 6.34 0 0 0 -.23-.74 3 3 0 0 0 -2.84-2.09h-1.08-8.92a7.14 7.14 0 0 0 -1.78.15 2.86 2.86 0 0 0 -1.94 1.56 6.85 6.85 0 0 0 -.63 2.3 16.73 16.73 0 0 0 -.08 4 7 7 0 0 0 6.6 6h2.34zm-3.5-6a1.48 1.48 0 0 1 -1.53-1.49 1.51 1.51 0 0 1 3 0 1.48 1.48 0 0 1 -1.44 1.49z" fill="#fffffe"/><path d="m75.83 104.56a.65.65 0 0 0 .59-.35.53.53 0 0 0 0-.67c-.35-.38-.71-.75-1.1-1.1a.64.64 0 0 0 -.88.91c.35.38.74.73 1.11 1.09a.5.5 0 0 0 .28.12z" fill="#522c0c"/><path d="m51 45.64a1.48 1.48 0 0 0 1.49-1.53 1.51 1.51 0 0 0 -3 0 1.48 1.48 0 0 0 1.51 1.53z" fill="#050505"/><path d="m75 45.64a1.48 1.48 0 0 0 1.49-1.52 1.51 1.51 0 0 0 -3 0 1.48 1.48 0 0 0 1.51 1.52z" fill="#050505"/><g stroke-miterlimit="10"><rect fill="#f9d0a7" height="16" rx="8" stroke="#000" stroke-width="2" width="20" x="68" y="36.5"/><rect fill="#f9d0a7" height="16" rx="8" stroke="#000" stroke-width="2" width="20" x="43" y="36.5"/><path d="m63 44.5h5" fill="none" stroke="#000" stroke-width="2"/><path d="m68.55 43.78 19.17-.01" stroke="#b79274"/><path d="m43.55 43.78 19.17-.01" stroke="#b79274"/><rect fill="none" height="16" rx="8" stroke="#000" stroke-width="2" width="20" x="68" y="36.5"/><rect fill="none" height="16" rx="8" stroke="#000" stroke-width="2" width="20" x="43" y="36.5"/></g></svg>