<svg viewBox="0 0 157 180" xmlns="http://www.w3.org/2000/svg"><path d="m3.67 69.9c3.22 3.64 6.59 7 8.76 11.44 2 4.06 3 9.21.33 13.07-3.45 4.92-11.76 5.77-16.97 3.59-6.2-2.55-8.24-9.39-6.83-15.55a9.79 9.79 0 0 1 .91-2.22 5.42 5.42 0 0 1 1.53-1.69 6.57 6.57 0 0 1 4.32-1.39c.33 0 .36 0 .1 0 .27 0 .54 0 .81.08a12.16 12.16 0 0 1 1.37.24c.32.09.36.1.1 0 .27.08.53.18.79.28a11.8 11.8 0 0 1 1.52.73h.09c.25.15.48.32.71.49a13.85 13.85 0 0 1 1.06 1.03c.26.25.28.27.07.06.2.21.38.44.57.67l.52.72s.5.85.23.35a7.4 7.4 0 0 1 1 5.38 4.52 4.52 0 0 1 -1.18 2.17 4.42 4.42 0 0 1 -3.13.84 7 7 0 0 1 -3.28-1.46c-4.13-3.93 2.39-4.24 2.65-4.2 1.84.26 3.29.34.82-1-2.76-1.52-4.95-1.56-6.87.84s-.37 5.63 1.94 7.63a9.34 9.34 0 0 0 9.17 2.2c3.42-1.11 4.77-2.23 5.48-5.67 2.41-11.63-12.36-21.67-22.1-14.78-5.4 3.83-5.92 11.8-4.2 17.63a17.69 17.69 0 0 0 15.23 12.49c6.49.66 14.26-1.22 17.85-7.14 2.88-4.75 2.11-10.5 0-15.38a28.28 28.28 0 0 0 -5.49-8.1c-1.91-2-4.46-4.09-7.29-4.41a.64.64 0 0 0 -.56 1.06z" fill="#512a0a"/><path d="m6.42 64.85h5.53v21.44h-5.53z" fill="#3f200a" transform="matrix(.79058271 -.61235527 .61235527 .79058271 -44.35 21.45)"/><path d="m3.39 69.92a3.67 3.67 0 1 1 2.05-4.77 3.67 3.67 0 0 1 -2.05 4.77z" fill="#3f200a"/><path d="m98.5 92v44h-39v-45c-17.5-20.5-43.5-12.5-43.5-12.5l-5-13a44.49 44.49 0 0 1 48.5 8.5l31.5.5h8s11-15 46-10l-6 14s-23-2-40.5 13.5" fill="#d8ccc3"/><circle cx="9.5" cy="74" fill="#f9d0a7" r="9.5"/><circle cx="147.5" cy="73" fill="#f9d0a7" r="9.5"/><path d="m79.07 93.48 4.93-19.98h8.5l-13 20.42a.32.32 0 0 1 -.43-.44z" fill="#e8e4e2"/><path d="m71 71.5 8 21 9-23z" fill="#f9d0a7"/><path d="m71.5 73 8.42 20.07a.8.8 0 0 1 -1.17.91l-18.75-19.48z" fill="#e8e4e2"/><path d="m34.59 147.02-.08-14 45.44 1.15.61 13.02z" fill="#a8998f"/><path d="m26 125.49h30v13h-30z" fill="#8c6239" transform="matrix(.00558502 .9999844 -.9999844 .00558502 172.76 90.25)"/><path d="m126.49 133.72.92 13.97-48.41-.19-1-13z" fill="#a8998f"/><path d="m105.47 127.15h29v13h-29z" fill="#8c6239" transform="matrix(-.06557729 -.99784749 .99784749 -.06557729 -5.51 262.13)"/><path d="m75.08 86.28h6.68v34.63h-6.68z" fill="#512a0a" transform="matrix(.70920169 -.70500564 .70500564 .70920169 -50.24 85.42)"/><path d="m80.72 100.68a3 3 0 0 1 0 4.25l-1.06 1a3 3 0 0 1 -4.24-.08 3 3 0 0 1 0-4.25l1.06-1a3 3 0 0 1 4.25.08z" fill="none" stroke="#e8e4e2" stroke-miterlimit="10" stroke-width="4.79"/><path d="m72.5 138.5h-14.5v-47c-15-21-41-13-41-13l-5-14c19-7 39.39.35 47.25 9.5h6.75l5.5.5z" fill="#3f200a"/><path d="m99 96.5-1 42h-14.25l1-64h14.25s14-17 46-10l-6 14s-25-1.5-40 13.5" fill="#3f200a"/><path d="m63.64 73.5-1.64 6 4 3-4 11 10 10-.5-30z" fill="#683e11"/><path d="m91.86 74.5 1.64 6-4 3 4 11-9.25 10 .25-30z" fill="#683e11"/><path d="m122.87 18.29a3 3 0 0 1 -1.27 4.84c-13.49 5.33-27.6 10.2-42 11.41s-29.17-1.25-43.36-4.26c-3.34-1-1.76-4.59-1.76-4.59 1.47-.68 2.66-1.19 3.9-.93 27.42 5.82 55.4 5 81.47-5.31 1.15-.45 3.02-1.16 3.02-1.16z" fill="#512a0a"/><ellipse cx="79.61" cy="44.64" fill="#f9d0a7" rx="32.39" ry="32.14"/><circle cx="48.95" cy="51.28" fill="#f9d0a7" r="6.45"/><path d="m98 63.73c0 2.63-3.36 4.77-7.5 4.77s-7.5-2.14-7.5-4.77 3.86-1.23 8-1.23 7-1.41 7 1.23z" fill="#fff"/><path d="m111.36 39.81c-.5-5.47-1.36-6.81-2.26-11.81a1.09 1.09 0 0 0 -.58-.78l-22.76-11.57a1 1 0 0 0 -.63-.11l-22.37 2.81h-10.3a1.09 1.09 0 0 0 -.81 1.81 1.08 1.08 0 0 1 -.24 1.64c-2 1.21-5.73 4.39-3.93 10.72a1.17 1.17 0 0 0 .09.24c.44.8-.73 4.45.47 17.23a1.37 1.37 0 0 0 2.71.15c2.11-10.14 9.64-21.74 14.07-25.72a1.06 1.06 0 0 1 .92-.23l39.75 5.43a1.08 1.08 0 0 1 .51.26c.54.51 1.72 5.17 2.76 10.3a1.31 1.31 0 0 0 2.6-.37z" fill="#d1a44a"/><path d="m80.59 35.32c-2.59-.17-22.91-3.74-28.59-13.82 0 0 6-17 23-20 0 0 10.46-1.7 23.2 7.7.37.28 5.86 6.35 6.12 6.73 1.92 2.73 6.2 9.82 11.94 11.87a.3.3 0 0 1 -.06.58c-5 .54-21 2-29.24-.84l9.36 5.22a.2.2 0 0 1 -.1.38c-4.14-.39-20.88-2-23.17-3.79l7.6 5.79a.1.1 0 0 1 -.06.18z" fill="#ddae47"/><rect fill="#fff" height="16" rx="8" stroke="#000" stroke-miterlimit="10" stroke-width="2" width="20" x="91" y="35.5"/><rect fill="#fff" height="16" rx="8" stroke="#000" stroke-miterlimit="10" stroke-width="2" width="20" x="66" y="35.5"/><path d="m86 43.5h5" fill="none" stroke="#000" stroke-miterlimit="10" stroke-width="2"/><circle cx="79.5" cy="43" r="1.5"/><circle cx="103.5" cy="43" r="1.5"/><path d="m100 25.41h.26l.84-.2c.45-.12.89-.23 1.35-.32.84-.15 1.68-.27 2.53-.4a30 30 0 0 0 3-.54l.68-.19c0-.13 0-.27 0-.4 0-13 1.88-23.6-12.86-23.6 0 0-12.76 1.72-17 1.72s-16.97-1.72-16.97-1.72c-14.74 0-13 10.57-13 23.6a20.54 20.54 0 0 0 .26 3.64l29.59 2.7 16.67-1.54a5.12 5.12 0 0 1 4.65-2.75z" fill="#874b15"/><path d="m108.58 23.77c0-.14 0-.28 0-.41 0-1.94 0-6.83.07-8.63a108.36 108.36 0 0 1 -30 4.23c-11.5 0-22-.7-30-1.22 0 1.8.06 3.68.06 5.62a20.54 20.54 0 0 0 .38 3.64l29.59 2.7 13.52-1.25c4.91-3.02 10.73-3.56 16.38-4.68z" fill="#3f200a"/><path d="m122.81 18.75c.52.89-.06 2-1.29 2.4-13.5 4.7-27.63 9-42.06 10.07s-29.18-1.09-43.39-3.75c-1.29-.24-2.06-1.22-1.72-2.17a2.52 2.52 0 0 1 2.86-1.3 162.53 162.53 0 0 0 82.53-6.11 2.62 2.62 0 0 1 3.07.85z" fill="#683e11"/><path d="m79.16 28.06c14.43-1.07 28.57-5.24 42.07-9.95a3.48 3.48 0 0 0 .48-.21 3.09 3.09 0 0 0 -2 0 162.53 162.53 0 0 1 -82.5 6.1 3 3 0 0 0 -1.94.28 3.55 3.55 0 0 0 .52.15c14.21 2.66 28.93 4.7 43.37 3.63z" fill="#89511f"/><g stroke-miterlimit="10"><rect fill="#f9d0a7" height="16" rx="8" stroke="#000" stroke-width="2" width="20" x="91" y="35.5"/><rect fill="#f9d0a7" height="16" rx="8" stroke="#000" stroke-width="2" width="20" x="66" y="35.5"/><path d="m86 43.5h5" fill="none" stroke="#000" stroke-width="2"/><path d="m91.55 42.78 19.17-.01" stroke="#b79274"/><path d="m66.55 42.78 19.17-.01" stroke="#b79274"/><rect fill="none" height="16" rx="8" stroke="#000" stroke-width="2" width="20" x="91" y="35.5"/><rect fill="none" height="16" rx="8" stroke="#000" stroke-width="2" width="20" x="66" y="35.5"/></g></svg>