<svg viewBox="0 0 157 180" xmlns="http://www.w3.org/2000/svg"><path d="m5.84 67.58c2.66 4.28 5 8.62 8.76 12.07 3.44 3.15 8.22 5.68 12.82 4 5.86-2.08 9.09-10.21 8.49-16.07-.72-7-6.89-11-13.37-11.3a10 10 0 0 0 -2.46.29 5.8 5.8 0 0 0 -2.16 1 7 7 0 0 0 -2.61 4c-.09.33-.11.36 0 .09-.07.27-.11.55-.16.83a14.11 14.11 0 0 0 -.15 1.51c0 .35 0 .39 0 .11a8.46 8.46 0 0 0 0 .89 14.79 14.79 0 0 0 .27 1.75c.09.34.1.38 0 .1.08.29.18.57.28.85a13.94 13.94 0 0 0 .65 1.3c.17.33.19.35 0 .08.16.26.33.52.5.76s.37.5.56.73c0 0 .7.75.28.34a7.46 7.46 0 0 0 5 2.57 4.59 4.59 0 0 0 2.49-.57 4.7 4.7 0 0 0 1.78-2.91 7.28 7.28 0 0 0 -.5-3.72c-2.65-5.31-4.84 1.17-4.88 1.45-.27 1.92-.62 3.4-1.25.53-.7-3.22-.11-5.43 2.81-6.69 3.12-1.33 5.65 1.22 7 4.12a9.9 9.9 0 0 1 -.48 9.87c-2.09 3.13-3.58 4.17-7.19 3.92-12.17-.85-17.81-18.58-8.19-26.48 5.35-4.36 13.37-2.63 18.63.76a18.5 18.5 0 0 1 7.93 18.9c-1.23 6.73-5.34 14-12.22 16-5.52 1.56-11-.85-15.18-4.39a29.2 29.2 0 0 1 -6.41-7.83c-1.42-2.44-2.75-5.66-2.25-8.59a.65.65 0 0 1 1.21-.27z" fill="#512a0a"/><path d="m18.61 82.04-12.93-18.04-4.61 3.45 12.94 18.03z" fill="#3f200a"/><path d="m5.94 67.3a3.87 3.87 0 0 0 -.65-5.39 3.74 3.74 0 0 0 -5.3.72 3.89 3.89 0 0 0 .65 5.37 3.74 3.74 0 0 0 5.3-.7z" fill="#3f200a"/><path d="m98.5 93v44h-39v-45c-17.5-20.5-43.5-12.5-43.5-12.5l-5-13a44.49 44.49 0 0 1 48.5 8.5l31.5.5h8s11-15 46-10l-6 14s-23-2-40.5 13.5" fill="#d8ccc3"/><circle cx="9.5" cy="75" fill="#f9d0a7" r="9.5"/><circle cx="147.5" cy="74" fill="#f9d0a7" r="9.5"/><path d="m79.07 94.48 4.93-19.98h8.5l-13 20.42a.32.32 0 0 1 -.43-.44z" fill="#e8e4e2"/><path d="m71 72.5 8 21 9-23z" fill="#f9d0a7"/><path d="m71.5 74 8.42 20.07a.8.8 0 0 1 -1.17.91l-18.75-19.48z" fill="#e8e4e2"/><path d="m34.59 148.02-.08-14 45.44 1.15.61 13.02z" fill="#a8998f"/><path d="m26 126.49h30v13h-30z" fill="#8c6239" transform="matrix(.00558502 .9999844 -.9999844 .00558502 173.76 91.25)"/><path d="m126.49 134.72.92 13.97-48.41-.19-1-13z" fill="#a8998f"/><path d="m105.47 128.15h29v13h-29z" fill="#8c6239" transform="matrix(-.06557729 -.99784749 .99784749 -.06557729 -6.51 263.2)"/><path d="m75.08 87.28h6.68v34.63h-6.68z" fill="#512a0a" transform="matrix(.70920169 -.70500564 .70500564 .70920169 -50.94 85.71)"/><path d="m80.72 101.68a3 3 0 0 1 0 4.25l-1.06 1a3 3 0 0 1 -4.24-.08 3 3 0 0 1 0-4.25l1.06-1a3 3 0 0 1 4.25.08z" fill="none" stroke="#e8e4e2" stroke-miterlimit="10" stroke-width="4.79"/><path d="m72.5 139.5h-14.5v-47c-15-21-41-13-41-13l-5-14c19-7 39.39.35 47.25 9.5h6.75l5.5.5z" fill="#3f200a"/><path d="m99 97.5-1 42h-14.25l1-64h14.25s14-17 46-10l-6 14s-25-1.5-40 13.5" fill="#3f200a"/><path d="m63.64 74.5-1.64 6 4 3-4 11 10 10-.5-30z" fill="#683e11"/><path d="m91.86 75.5 1.64 6-4 3 4 11-9.25 10 .25-30z" fill="#683e11"/><path d="m122.87 19.29a3 3 0 0 1 -1.27 4.84c-13.49 5.33-27.6 10.2-42 11.41s-29.17-1.25-43.36-4.26c-3.34-1-1.76-4.59-1.76-4.59 1.47-.68 2.66-1.19 3.9-.93 27.42 5.82 55.4 5 81.47-5.31 1.15-.45 3.02-1.16 3.02-1.16z" fill="#512a0a"/><ellipse cx="79.61" cy="45.64" fill="#f9d0a7" rx="32.39" ry="32.14"/><circle cx="48.95" cy="52.28" fill="#f9d0a7" r="6.45"/><path d="m98 64.73c0 2.63-3.36 4.77-7.5 4.77s-7.5-2.14-7.5-4.77 3.86-1.23 8-1.23 7-1.41 7 1.23z" fill="#fff"/><path d="m111.36 40.81c-.5-5.47-1.36-6.81-2.26-11.81a1.09 1.09 0 0 0 -.58-.78l-22.76-11.57a1 1 0 0 0 -.63-.11l-22.37 2.81h-10.3a1.09 1.09 0 0 0 -.81 1.81 1.08 1.08 0 0 1 -.24 1.64c-2 1.21-5.73 4.39-3.93 10.72a1.17 1.17 0 0 0 .09.24c.44.8-.73 4.45.47 17.23a1.37 1.37 0 0 0 2.71.15c2.11-10.14 9.64-21.74 14.07-25.72a1.06 1.06 0 0 1 .92-.23l39.75 5.43a1.08 1.08 0 0 1 .51.26c.54.51 1.72 5.17 2.76 10.3a1.31 1.31 0 0 0 2.6-.37z" fill="#d1a44a"/><path d="m80.59 36.32c-2.59-.17-22.91-3.74-28.59-13.82 0 0 6-17 23-20 0 0 10.46-1.7 23.2 7.7.37.28 5.86 6.35 6.12 6.73 1.92 2.73 6.2 9.82 11.94 11.87a.3.3 0 0 1 -.06.58c-5 .54-21 2-29.24-.84l9.36 5.22a.2.2 0 0 1 -.1.38c-4.14-.39-20.88-2-23.17-3.79l7.6 5.79a.1.1 0 0 1 -.06.18z" fill="#ddae47"/><rect fill="#fff" height="16" rx="8" stroke="#000" stroke-miterlimit="10" stroke-width="2" width="20" x="91" y="36.5"/><rect fill="#fff" height="16" rx="8" stroke="#000" stroke-miterlimit="10" stroke-width="2" width="20" x="66" y="36.5"/><path d="m86 44.5h5" fill="none" stroke="#000" stroke-miterlimit="10" stroke-width="2"/><circle cx="79.5" cy="44" r="1.5"/><circle cx="103.5" cy="44" r="1.5"/><path d="m100 26.41h.26l.84-.2c.45-.12.89-.23 1.35-.32.84-.15 1.68-.27 2.53-.4a30 30 0 0 0 3-.54l.68-.19c0-.13 0-.27 0-.4 0-13 1.88-23.6-12.86-23.6 0 0-12.76 1.72-17 1.72s-16.97-1.72-16.97-1.72c-14.74 0-13 10.57-13 23.6a20.54 20.54 0 0 0 .26 3.64l29.59 2.7 16.67-1.54a5.12 5.12 0 0 1 4.65-2.75z" fill="#874b15"/><path d="m108.58 24.77c0-.14 0-.28 0-.41 0-1.94 0-6.83.07-8.63a108.36 108.36 0 0 1 -30 4.23c-11.5 0-22-.7-30-1.22 0 1.8.06 3.68.06 5.62a20.54 20.54 0 0 0 .38 3.64l29.59 2.7 13.52-1.25c4.91-3.02 10.73-3.56 16.38-4.68z" fill="#3f200a"/><path d="m122.81 19.75c.52.89-.06 2-1.29 2.4-13.5 4.7-27.63 9-42.06 10.07s-29.18-1.09-43.39-3.75c-1.29-.24-2.06-1.22-1.72-2.17a2.52 2.52 0 0 1 2.86-1.3 162.53 162.53 0 0 0 82.53-6.11 2.62 2.62 0 0 1 3.07.85z" fill="#683e11"/><path d="m79.16 29.06c14.43-1.07 28.57-5.24 42.07-9.95a3.48 3.48 0 0 0 .48-.21 3.09 3.09 0 0 0 -2 0 162.53 162.53 0 0 1 -82.5 6.1 3 3 0 0 0 -1.94.28 3.55 3.55 0 0 0 .52.15c14.21 2.66 28.93 4.7 43.37 3.63z" fill="#89511f"/><g stroke-miterlimit="10"><rect fill="#f9d0a7" height="16" rx="8" stroke="#000" stroke-width="2" width="20" x="91" y="36.5"/><rect fill="#f9d0a7" height="16" rx="8" stroke="#000" stroke-width="2" width="20" x="66" y="36.5"/><path d="m86 44.5h5" fill="none" stroke="#000" stroke-width="2"/><path d="m91.55 43.78 19.17-.01" stroke="#b79274"/><path d="m66.55 43.78 19.17-.01" stroke="#b79274"/><rect fill="none" height="16" rx="8" stroke="#000" stroke-width="2" width="20" x="91" y="36.5"/><rect fill="none" height="16" rx="8" stroke="#000" stroke-width="2" width="20" x="66" y="36.5"/></g></svg>