<svg viewBox="0 0 157 180" xmlns="http://www.w3.org/2000/svg"><path d="m65.14 174.44a1.14 1.14 0 0 0 0-.52c-.21-.18-.46-.09-.69-.09h-23-.65c-.15-.1-.1-.25-.1-.38v-12.1c0-.48 0-.49.57-.49h25.06 3.35c.06.47.06.47.51.47h4.91a14.2 14.2 0 0 1 1.36 1.33 17.68 17.68 0 0 0 3.79 2.68 17.93 17.93 0 0 0 8.28 2c.72 0 1.43-.06 2.14-.11.54 0 1.07-.12 1.6-.2 1-.14 1.9-.43 2.84-.65h.1v7.37a1.43 1.43 0 0 0 .05.65h-.26c-.17-.16-.38-.1-.57-.1h-28.43c-.19 0-.4-.06-.57.1z" fill="#8c6239"/><path d="m40.05 129.12a6.33 6.33 0 0 1 -.76 2.8 9.25 9.25 0 0 1 -6.78 5.27 9.14 9.14 0 0 1 -8.41-2.51 9.48 9.48 0 0 1 -2.7-4.77c-.09-.36 0-.76-.3-1.07v-1.92a7.27 7.27 0 0 0 .43-1.6 9.38 9.38 0 0 1 4.32-5.64 8.72 8.72 0 0 1 4.77-1.29 2.39 2.39 0 0 0 .71-.09c-.15.26.09.4.21.56l7.09 9.77c.54.74.54.74 1.42.49z" fill="#f9d0a7"/><path d="m65.38 174.44c.17-.16.38-.1.57-.1h28.5c.19 0 .4-.06.57.1z" fill="#a8998f"/><path d="m93.09.66s0-.07 0-.1h1.8v.1z" fill="#d7cbc2"/><path d="m59.74.56v.1h-1.8v-.1z" fill="#d7cbc2"/><path d="m106.72 42.54c.2.08.18.25.17.41 0 .86.15 1.71.12 2.57 0 .31.12.44.41.55a6.45 6.45 0 0 1 2.94 10 6 6 0 0 1 -3.77 2.36 4 4 0 0 1 -2 .11c-.28-.08-.43.07-.54.32a30.51 30.51 0 0 1 -4.3 6.89 29 29 0 0 1 -3 3.24 31.93 31.93 0 0 1 -6.28 4.55c-.48.26-.93.54-1.4.81a2.24 2.24 0 0 0 -.34.11 33.73 33.73 0 0 1 -7 2.44c-.39.07-.78.18-1.17.21a1.17 1.17 0 0 0 -1.11.81c-.82 2-1.69 4-2.53 6.06-1.17 2.8-2.32 5.59-3.5 8.38a3.55 3.55 0 0 1 -.49 1c-.16-.07-.16-.18-.19-.27-.57-1.49-1.12-3-1.7-4.47q-2.04-4.91-3.97-9.85c-.07-.18-.09-.4-.33-.45a3.78 3.78 0 0 0 -.4-1.43.58.58 0 0 0 -.45-.4 33.62 33.62 0 0 1 -5.69-2.15c-.86-.51-1.77-.92-2.61-1.46a35.87 35.87 0 0 1 -5.09-3.88 32.23 32.23 0 0 1 -6.15-7.75 31.21 31.21 0 0 1 -3.35-8.47 30.23 30.23 0 0 1 -.7-4.36 15 15 0 0 1 -.06-2.68c0 .1.06.19.08.28a9 9 0 0 0 8.9 7.35h4a8.58 8.58 0 0 0 4.5-1.25 8.92 8.92 0 0 0 4.31-6.27c.08-.48.08-.49.55-.49h2.16c.45 0 .45 0 .52.44a9 9 0 0 0 8.89 7.57h3.78a10.34 10.34 0 0 0 1.67-.12 9 9 0 0 0 7.4-7.18 16.72 16.72 0 0 0 .11-4.07 10.25 10.25 0 0 0 -.81-3.61 4.87 4.87 0 0 0 -3.19-2.78 7.59 7.59 0 0 0 -2-.26h-4.43c1.2-.31 2.41-.61 3.61-1a56.27 56.27 0 0 0 6.31-2.11l1.85-.11 4.3-.27.17.24a64.06 64.06 0 0 1 5.1 9.07c.76 1.67 1.46 3.37 2.06 5.1a39.8 39.8 0 0 1 1.35 4.73 1.36 1.36 0 0 0 1.45 1.15 1.41 1.41 0 0 0 1.3-1.41 3.25 3.25 0 0 1 0-.54c.2-1.32.24-2.66.32-4 .06-1.13.19-2.26.15-3.4a1 1 0 0 1 .07-.26zm-43.08 26.79a15.29 15.29 0 0 0 1.91-.11 8.7 8.7 0 0 0 4-1.61 3.57 3.57 0 0 0 1.65-3.26 1.24 1.24 0 0 0 -.86-1.17 3.91 3.91 0 0 0 -1.22-.18 35.21 35.21 0 0 0 -3.7.27 25.85 25.85 0 0 1 -5.42-.1 10.17 10.17 0 0 0 -2.27-.17c-1 .08-1.41.48-1.53 1.29a3 3 0 0 0 .53 2.1 5.63 5.63 0 0 0 2.55 2.1 9.49 9.49 0 0 0 4.36.84z" fill="#f9d0a7"/><path d="m40.05 129.12c-.88.25-.88.25-1.42-.49l-7.09-9.77c-.12-.16-.36-.3-.21-.56a15.6 15.6 0 0 0 5.27-2.5 22.17 22.17 0 0 0 5.4-5.6 40.69 40.69 0 0 0 4.79-9.69 74.36 74.36 0 0 0 3-11.76c.6-3.36 1-6.75 1.28-10.16 0-.64.08-1.28.11-1.92 0-.19 0-.33.26-.4 1.84-.58 3.66-1.26 5.52-1.8h1.43c1 0 .94-.11.66.89-.4 1.48-.81 2.95-1.22 4.43-.16.59-.14.6.36 1l.1.06 3 2.25c.35.26.37.33.22.75-.36 1-.73 2.07-1.11 3.1-.86 2.35-1.72 4.71-2.6 7.06a.6.6 0 0 0 .15.74c1 1 1.86 2 2.81 3 1.31 1.36 2.55 2.8 3.88 4.14.14.15.26.31.39.45.57.64 1.17 1.26 1.75 1.88a.42.42 0 0 0 .12 0v1.27.77c0 2.75.21 5.49.12 8.24v.42c0 1 .06 2.07.07 3.11.06 3.91.11 7.83.17 11.74 0 2.36.09 4.71.14 7.07v.9c0 .58 0 .58-.59.58h-.12c-3.47 0-6.95 0-10.42 0-1 0-2.08 0-3.11-.07 0-3.53 0-7.07 0-10.6 0-2.9 0-5.8 0-8.69a1.71 1.71 0 0 0 0-.64c-.12 0-.14.06-.18.12a24.4 24.4 0 0 1 -11.75 10.15z" fill="#3f200a"/><path d="m57.94.66h1.81c2.17.27 4.35.56 6.53.81s4.33.46 6.49.67a44.24 44.24 0 0 0 6 .09c2-.08 3.9-.31 5.85-.54 2.16-.24 4.32-.51 6.48-.77l2-.26h1.8a16.43 16.43 0 0 1 5.15 1 8.79 8.79 0 0 1 5.18 5.34 18.8 18.8 0 0 1 1 4.91 65.64 65.64 0 0 1 .19 6.58 1.13 1.13 0 0 1 0 .18c-.75 0-1.51 0-2.27.1-1.25.1-2.5.18-3.75.25s-2.7.17-4.06.24c-1.59.07-3.18.14-4.77.25-.94.06-1.87 0-2.81.1-1.21.11-2.43.05-3.65.12-1.93.13-3.87 0-5.81.11a49.67 49.67 0 0 1 -5 0c-1.85-.11-3.7-.13-5.55-.26l-2.15-.17c-.43 0-.87-.06-1.31-.11l-2.66-.34c-1-.13-2-.23-3-.39-1.49-.25-3-.53-4.46-.81-2.33-.43-4.63-1-6.92-1.61a6.84 6.84 0 0 0 -1.67-.43 27.16 27.16 0 0 1 .85-7.83 9 9 0 0 1 7-6.68 18.63 18.63 0 0 1 3.51-.55z" fill="#874b15"/><path d="m46.55 15.68a6.84 6.84 0 0 1 1.67.43c2.29.62 4.59 1.18 6.92 1.61 1.49.28 3 .56 4.46.81 1 .16 2 .26 3 .39l2.66.34c.44 0 .88.08 1.31.11l2.15.17c1.85.13 3.7.15 5.55.26a49.67 49.67 0 0 0 5 0c1.94-.09 3.88 0 5.81-.11 1.22-.07 2.44 0 3.65-.12.94-.08 1.87 0 2.81-.1 1.59-.11 3.18-.18 4.77-.25 1.36-.07 2.71-.17 4.06-.24s2.5-.15 3.75-.25c.76-.06 1.52-.07 2.27-.1 0 2.59.07 5.2-.13 7.79a.37.37 0 0 1 -.25.15 17.11 17.11 0 0 1 -1.89.23l-1.91.16-2.55.2c-.84.05-1.68.07-2.51.15-1.35.14-2.71.16-4.06.18-3.93.06-7.87.11-11.8-.07-1.14-.06-2.27-.15-3.41-.17a13.22 13.22 0 0 1 -1.66-.11c-1.1-.14-2.22-.14-3.4-.27-1.33-.12-2.65-.28-4-.42-1.64-.17-3.26-.46-4.9-.68-1.81-.24-3.62-.55-5.41-.89-3.7-.7-7.37-1.48-11-2.45-.75-.2-.75-.2-1-.88v-5.28c.01-.19.03-.39.04-.59z" fill="#3f200a"/><path d="m94.79 31.9-4.3.27-1.85.11a7 7 0 0 0 -1.37.07h-4c-1.64 0-3.27 0-4.91-.1-.49 0-1-.09-1.48-.1-1 0-1.89-.19-2.84-.16a2.71 2.71 0 0 0 -.7-.13c-1.51-.11-3-.31-4.51-.53-1.8-.26-3.58-.58-5.37-.87l-3.24-.66a21.21 21.21 0 0 0 -2.22-.45 2 2 0 0 0 -.21-.1c-2.34-.52-4.65-1.13-7-1.77l-2.79-.76-4.57-1.42a1.37 1.37 0 0 0 -.35 0 .84.84 0 0 0 -.51-.28l-2.39-.76-5-1.7c-.6-.21-1.2-.41-1.8-.64a1.7 1.7 0 0 1 -1.12-1.92c0-.29.24-.5.25-.79.35-.07.56-.44.94-.45s.59.25.89.35c4.44 1.48 8.87 3 13.37 4.31 2.22.64 4.44 1.25 6.68 1.82 2.4.62 4.82 1.16 7.26 1.65 1.63.33 3.27.65 4.92.88.92.13 1.84.31 2.76.44.69.11 1.38.21 2.07.26.93.06 1.85.21 2.78.28s2 .21 3 .21a2.14 2.14 0 0 1 .36 0 22.1 22.1 0 0 0 3.63.2c2.82.09 5.63.05 8.45-.08a26.91 26.91 0 0 1 3-.14.25.25 0 0 0 .12 0 21.91 21.91 0 0 1 2.43-.2c.69-.08 1.39-.14 2.08-.17.43 0 .87-.06 1.31-.11l2.65-.34c.83-.09 1.66-.16 2.49-.26 1-.14 2-.31 3.06-.46 1.19-.17 2.39-.33 3.59-.52s2.62-.46 3.93-.67 2.61-.47 3.92-.7a9.16 9.16 0 0 1 1.95-.27 1.57 1.57 0 0 1 .83 1.51v.53c-.28 0-.41.23-.57.4a1.68 1.68 0 0 1 -.91.54c-1 .22-2.1.43-3.15.62-1.29.23-2.58.41-3.87.66-1.09.21-2.19.33-3.28.54a16.92 16.92 0 0 0 -2 .35 3.71 3.71 0 0 0 -.47 0c-1.79.28-3.59.5-5.38.73-2.2.35-4.35.55-6.56.78z" fill="#683e12"/><path d="m78.72 35.34h4.43a7.59 7.59 0 0 1 2 .26 4.87 4.87 0 0 1 3.15 2.8 10.25 10.25 0 0 1 .81 3.6 16.72 16.72 0 0 1 -.11 4.07 9 9 0 0 1 -7.39 7.18 10.34 10.34 0 0 1 -1.67.12c-1.26 0-2.52 0-3.78 0a9 9 0 0 1 -8.86-7.57c-.07-.43-.07-.44-.52-.44h-2.16c-.47 0-.47 0-.55.49a8.92 8.92 0 0 1 -4.31 6.27 8.58 8.58 0 0 1 -4.5 1.25h-4a9 9 0 0 1 -8.92-7.37c0-.09-.06-.18-.08-.28a21.09 21.09 0 0 1 .31-5.72 14.77 14.77 0 0 1 .49-1.6 5.29 5.29 0 0 1 3.62-2.89c.54 0 1.07-.12 1.61-.12h9.78a8.25 8.25 0 0 1 1.49.13 4.83 4.83 0 0 1 3.51 2.48 7.21 7.21 0 0 1 .64 1.61 16.08 16.08 0 0 1 .46 3.38c0 .43 0 .44.42.45h2.22c.27 0 .4-.06.4-.36s.05-.87.09-1.31a10.07 10.07 0 0 1 .73-3.2 4.91 4.91 0 0 1 4-3.06c.82-.13 1.64-.05 2.46-.12 1.4 0 2.81-.01 4.23-.05zm-.51 2c-1.82 0-3.64 0-5.46 0a3 3 0 0 0 -3 2.17c-.08.21-.14.42-.2.63a16.7 16.7 0 0 0 -.37 4.23 6.94 6.94 0 0 0 6.55 6.9c1.57.09 3.15.06 4.73 0a7 7 0 0 0 6.66-6.17 17.68 17.68 0 0 0 -.1-3.71 7.51 7.51 0 0 0 -.5-2.09 3 3 0 0 0 -2.46-2 7.6 7.6 0 0 0 -1.07 0c-1.58.07-3.18.08-4.78.08zm-24.95 0c-1.6 0-3.2 0-4.8 0-.28 0-.56 0-.84 0a3 3 0 0 0 -2.79 2c-.08.22-.16.45-.22.68a14.79 14.79 0 0 0 -.42 4.34 7 7 0 0 0 6.81 7h4.38a6.94 6.94 0 0 0 6.7-5.78 13.58 13.58 0 0 0 0-3.82 7.23 7.23 0 0 0 -.66-2.66 2.9 2.9 0 0 0 -2-1.61 5.8 5.8 0 0 0 -1.31-.11c-1.65-.01-3.25 0-4.85 0z" fill="#050404"/><path d="m66.91 104.25a.42.42 0 0 1 -.12 0c-.58-.62-1.18-1.24-1.75-1.88-.13-.14-.25-.3-.39-.45-1.33-1.34-2.57-2.78-3.88-4.14-1-1-1.82-2.06-2.81-3a.6.6 0 0 1 -.15-.74c.88-2.35 1.74-4.71 2.6-7.06.38-1 .75-2.06 1.11-3.1.15-.42.13-.49-.22-.75l-3-2.25-.1-.06c-.5-.37-.52-.38-.36-1 .41-1.48.82-3 1.22-4.43.28-1 .34-.88-.66-.89h-1.4c.18-.18.41-.11.62-.11h2.62a33.62 33.62 0 0 0 5.69 2.15.58.58 0 0 1 .45.4 3.78 3.78 0 0 1 .4 1.43c0 2.08 0 4.17.06 6.25a21.5 21.5 0 0 0 0 2.27v.77l.12 14.84a15.44 15.44 0 0 1 -.05 1.75z" fill="#683e12"/><path d="m120.1 25.28a9.16 9.16 0 0 0 -1.95.27c-1.31.23-2.61.49-3.92.7s-2.62.46-3.93.67-2.4.35-3.59.52c-1 .15-2 .32-3.06.46-.83.1-1.66.17-2.49.26l-2.65.34c-.44.05-.88.08-1.31.11-.69 0-1.39.09-2.08.17a21.91 21.91 0 0 0 -2.43.2.25.25 0 0 1 -.12 0 26.91 26.91 0 0 0 -3 .14c-2.82.13-5.63.17-8.45.08a22.1 22.1 0 0 1 -3.63-.2 2.14 2.14 0 0 0 -.36 0c-1 0-2-.14-3-.21s-1.85-.22-2.78-.28c-.69-.05-1.38-.15-2.07-.26-.92-.13-1.84-.31-2.76-.44-1.65-.23-3.29-.55-4.92-.88-2.44-.49-4.86-1-7.26-1.65-2.24-.57-4.46-1.18-6.68-1.82-4.5-1.3-8.93-2.83-13.37-4.31-.3-.1-.59-.23-.89-.35a2.74 2.74 0 0 1 2.21 0c3.21 1.12 6.47 2.12 9.75 3h.11c.63.17.63.17 1-.34.22.68.22.68 1 .88 3.64 1 7.31 1.75 11 2.45 1.79.34 3.6.65 5.41.89 1.64.22 3.26.51 4.9.68 1.33.14 2.65.3 4 .42 1.15.1 2.3.15 3.45.31a13.22 13.22 0 0 0 1.66.11c1.14 0 2.27.11 3.41.17 3.93.18 7.87.13 11.8.07 1.35 0 2.71 0 4.06-.18.83-.08 1.67-.1 2.51-.15l2.55-.2 1.91-.16a17.11 17.11 0 0 0 1.89-.23.37.37 0 0 0 .25-.15c.14.16.32.11.5.09q5.66-.66 11.24-1.7a2.63 2.63 0 0 1 2.09.52z" fill="#895120"/><path d="m46.68 35.48a5.29 5.29 0 0 0 -3.62 2.89c.19-1.34.47-2.66.78-4s.65-2.72 1-4.08a3.55 3.55 0 0 0 .06-.47 1.74 1.74 0 0 0 .19-.8 1.3 1.3 0 0 1 .82-1.02c.56-.25 1.11-.55 1.66-.82.19-.1.41-.18.41-.45l2.82.76c2.3.64 4.61 1.25 7 1.77a2 2 0 0 1 .21.1 7.62 7.62 0 0 0 -1.07 0c-1.2.19-2.41.34-3.62.51-.28 0-.6 0-.85.19-.37 0-.75 0-1.13.06-.69.08-1.37.26-2.06.29a1.38 1.38 0 0 0 -1.4 1l-.12.34a35.64 35.64 0 0 0 -1.08 3.73z" fill="#d1a44a"/><path d="m48 26.72c0 .27-.22.35-.41.45-.55.27-1.1.57-1.66.82a1.3 1.3 0 0 0 -.88 1.01 1.74 1.74 0 0 1 -.19.8c-2.21-.16-4.42-.31-6.62-.58h-.24a.27.27 0 0 1 -.24-.23.3.3 0 0 1 .17-.35l.55-.23a12.62 12.62 0 0 0 2.36-1.3.53.53 0 0 0 .23-.26.66.66 0 0 0 .33-.12 11.07 11.07 0 0 0 1.68-1.45 1.37 1.37 0 0 1 .35 0z" fill="#dcae48"/><path d="m43.08 25.3a11.07 11.07 0 0 1 -1.68 1.45.66.66 0 0 1 -.33.12c-2.45-.94-4.91-1.86-7.36-2.82a3.25 3.25 0 0 1 -2.07-2.24 2.83 2.83 0 0 1 .58-2.53.17.17 0 0 1 .29 0c0 .29-.23.5-.25.79a1.7 1.7 0 0 0 1.15 1.88c.6.23 1.2.43 1.8.64l5 1.7 2.39.76a.84.84 0 0 1 .48.25z" fill="#522b0b"/><path d="m91.8 74.47a11.45 11.45 0 0 1 2.46.51 24.66 24.66 0 0 1 16.3 14.91 34.64 34.64 0 0 1 2.23 8.55 52.67 52.67 0 0 1 .32 11 89.61 89.61 0 0 1 -2.42 15c-1 3.9-2.09 7.75-3.37 11.55 0 .1-.06.19-.08.29s-.19-.05-.21-.18-.08-.39-.12-.58a9.52 9.52 0 0 0 -15.61-4.71 9.41 9.41 0 0 0 -3.12 7.49c-1.31 0-2.63 0-4 0h-3.53v-.46-.14-5c0-.24 0-.48 0-.72 0-2.16.07-4.31.11-6.47l.21-13.25c0-2.66.1-5.31.14-8l.49-.44 9.06-8.82a2 2 0 0 1 .25-.25.55.55 0 0 0 .16-.74c-.52-1.38-1-2.77-1.52-4.15-.72-2-1.45-4-2.18-6-.17-.48-.14-.55.25-.85l2.87-2.14c.72-.54.71-.54.47-1.38-.42-1.48-.82-3-1.22-4.43-.16-.6-.14-.61.51-.61zm3.42 17.36v31.23a82 82 0 0 0 1.35-15.62 90.51 90.51 0 0 0 -1.35-15.61z" fill="#3f200a"/><path d="m80.73 132.77v5c-.09 0-.19 0-.25.09a9 9 0 0 0 -4.64 5.94 16.57 16.57 0 0 0 1.25 11.81 10.77 10.77 0 0 0 3.53 4.22 9.63 9.63 0 0 0 3.11 1.58 14.16 14.16 0 0 0 4 .7 10.29 10.29 0 0 0 1.84-.13 9.84 9.84 0 0 0 2.73-.57 10.17 10.17 0 0 0 2.51-1 7.66 7.66 0 0 0 1.34-.9 6 6 0 0 0 2.33-4.9 8.81 8.81 0 0 0 -2.52-6.09 4.1 4.1 0 0 0 -1.27-1.07 1.77 1.77 0 0 0 -.75-.57 10 10 0 0 0 -3.83-1.28 5.82 5.82 0 0 0 -3.85.78 3.4 3.4 0 0 0 -1.67 3.9 5.86 5.86 0 0 0 2 3.35 4.78 4.78 0 0 0 1.86 1.05 1.31 1.31 0 0 0 1.75-.82 2.54 2.54 0 0 0 .17-.51 6.53 6.53 0 0 0 -.14-3.37c-.1-.32-.2-.65-.27-1s-.13-.43.06-.56.36.09.5.22a10.11 10.11 0 0 1 1.94 2.57 4.24 4.24 0 0 1 .55 2.3 4.93 4.93 0 0 1 -2.18 3.63 3.66 3.66 0 0 1 -1.67.63 5.13 5.13 0 0 1 -2.63-.37 11.14 11.14 0 0 1 -5.42-4.4c-.09-.15-.12-.35-.32-.42-.09-.24-.17-.48-.27-.72a9.54 9.54 0 0 1 -.51-1.65 11.54 11.54 0 0 1 .61-6s.09-.08.06-.14v-.22a6.21 6.21 0 0 1 2.13-2.22 12.43 12.43 0 0 1 1.72-.84 9.93 9.93 0 0 1 3.84-.8c0 .22.1.43.16.64a9.49 9.49 0 0 0 8.57 6.73 10 10 0 0 0 4.33-.73 14.74 14.74 0 0 1 2.35 5.2 11.67 11.67 0 0 1 -2.91 11.09 13.5 13.5 0 0 1 -5.19 3.23l-.46.16c-.07 0-.12 0-.16.1-.94.22-1.88.51-2.84.65-.53.08-1.06.17-1.6.2-.71.05-1.42.12-2.14.11a17.93 17.93 0 0 1 -8.28-2 17.68 17.68 0 0 1 -3.79-2.68 14.2 14.2 0 0 0 -1.36-1.33 1.83 1.83 0 0 0 -.38-.53 17.24 17.24 0 0 1 -2.4-3.85 22.67 22.67 0 0 1 -1.9-9.5 17.89 17.89 0 0 1 1.67-7.72 18.66 18.66 0 0 1 1.82-2.88 1.49 1.49 0 0 0 .42-.41 12.6 12.6 0 0 1 6.45-3.7z" fill="#522b0b"/><path d="m101.48 146.62a10 10 0 0 1 -4.33.73 9.49 9.49 0 0 1 -8.57-6.73c-.06-.21-.11-.42-.16-.64a11.45 11.45 0 0 1 -.24-1.66 9.41 9.41 0 0 1 3.12-7.49 9.52 9.52 0 0 1 15.61 4.71c0 .19.09.39.12.58s.1.16.21.18a1.32 1.32 0 0 0 -.09.76 10.85 10.85 0 0 1 -.26 3.26 2.54 2.54 0 0 0 -.22.86c-.14.09-.16.27-.22.41a9.91 9.91 0 0 1 -2.25 3.22 9.18 9.18 0 0 0 -.93.83z" fill="#f9d0a7"/><path d="m91.8 74.47h-1.55c-.65 0-.67 0-.51.61.4 1.48.8 3 1.22 4.43.24.84.25.84-.47 1.38l-2.87 2.11c-.39.3-.42.37-.25.85.73 2 1.46 4 2.18 6 .51 1.38 1 2.77 1.52 4.15a.55.55 0 0 1 -.16.74 2 2 0 0 0 -.25.25l-8.94 8.94-.49.44c0-.24 0-.47 0-.71 0-1 0-1.91 0-2.86 0-1.36.18-2.7.14-4.06s0-2.71 0-4.06a2.65 2.65 0 0 1 .09-1c.07-.19 0-.36-.23-.39a1 1 0 0 0 .23-.53c0-1.06.06-2.12 0-3.19s.08-2.31.1-3.47c0-2.39.09-4.79.13-7.18a33.73 33.73 0 0 0 7-2.44 2.24 2.24 0 0 1 .34-.11h2a1.48 1.48 0 0 1 .77.1z" fill="#683e12"/><path d="m94.79 31.9c2.18-.23 4.36-.43 6.53-.71 1.79-.23 3.59-.45 5.38-.73a3.71 3.71 0 0 1 .47 0 10.19 10.19 0 0 1 -.34 2.57c0 .17-.12.34 0 .49a.55.55 0 0 0 -.35.62v1.79c.1 1.72.16 3.43.11 5.15v1.49a1 1 0 0 0 0 .24c0 1.14-.09 2.27-.15 3.4-.08 1.33-.12 2.67-.32 4a3.25 3.25 0 0 0 0 .54 1.41 1.41 0 0 1 -1.3 1.41 1.36 1.36 0 0 1 -1.39-1.16 39.8 39.8 0 0 0 -1.31-4.66c-.6-1.73-1.3-3.43-2.06-5.1a64.06 64.06 0 0 0 -5.06-9.1z" fill="#d1a44a"/><path d="m106.88 33.49c-.17-.15-.1-.32 0-.49a10.19 10.19 0 0 0 .34-2.57 16.92 16.92 0 0 1 2-.35c1.09-.21 2.19-.33 3.28-.54 1.29-.25 2.58-.43 3.87-.66 1-.19 2.1-.4 3.15-.62a1.68 1.68 0 0 0 .91-.54c.16-.17.29-.4.57-.4a3.62 3.62 0 0 1 0 2 2.55 2.55 0 0 1 -2.1 1.83c-1.83.41-3.67.78-5.51 1.14-2.18.44-4.34.85-6.51 1.2z" fill="#522b0b"/><path d="m103.27 145.64a9.18 9.18 0 0 1 .93-.83 9.91 9.91 0 0 0 2.25-3.22c.06-.14.08-.32.22-.41a1.15 1.15 0 0 0 .71 0 3.68 3.68 0 0 1 1.17 7.24 3.56 3.56 0 0 1 -4-1.63 2.6 2.6 0 0 0 -1.28-1.15z" fill="#3f200a"/><path d="m95.11 166.4c0-.06.09-.11.16-.1l-.06.12z" fill="#a8998f"/><path d="m53.19 138.28c1 0 2.07.07 3.11.07h10.42.12c.59 0 .59 0 .59-.58 0-.3 0-.6 0-.9h2.27v23.47.54h-3.35-10.71c0-.22 0-.44 0-.66v-21.22c0-.59 0-.59-.58-.59h-1.53c-.13.02-.3.07-.34-.13z" fill="#a8998f"/><path d="m40.78 173.84h.65 23c.23 0 .48-.09.69.09h-23.82c-.18-.01-.37.07-.52-.09z" fill="#a8998f"/><path d="m81.65 76.9c0 2.39-.08 4.79-.13 7.18 0 1.16-.06 2.32-.1 3.47-.22 0-.33.2-.47.34-.62.62-1.2 1.28-1.81 1.9-1 1.08-2 2.23-3.09 3.25a.85.85 0 0 0 -.16.17c-.66.89-1.52 1.58-2.23 2.42-.52.61-1.21.39-1.43-.39a2 2 0 0 0 -.21-.49c-.64-1-1.27-2-1.9-3-1-1.49-1.89-3-2.84-4.49-.11-.17-.18-.41-.44-.45a21.5 21.5 0 0 1 0-2.27c0-2.08 0-4.17-.06-6.25.24.05.26.27.33.45q2 5 3.89 9.89c.58 1.49 1.13 3 1.7 4.47 0 .09 0 .2.19.27a3.55 3.55 0 0 0 .49-1c1.18-2.79 2.33-5.58 3.5-8.38.84-2 1.71-4 2.53-6.06a1.17 1.17 0 0 1 1.11-.81c.35-.04.74-.12 1.13-.22z" fill="#e8e4e1"/><path d="m63.64 69.33a9.49 9.49 0 0 1 -4.36-.87 5.63 5.63 0 0 1 -2.55-2.1 3 3 0 0 1 -.53-2.1c.12-.81.55-1.21 1.53-1.29a10.17 10.17 0 0 1 2.27.16 25.85 25.85 0 0 0 5.42.1 35.21 35.21 0 0 1 3.7-.27 3.91 3.91 0 0 1 1.17.22 1.24 1.24 0 0 1 .86 1.17 3.57 3.57 0 0 1 -1.65 3.26 8.7 8.7 0 0 1 -4 1.61 15.29 15.29 0 0 1 -1.86.11z" fill="#fff"/><path d="m78.72 35.34c-1.42 0-2.83 0-4.24 0 .6-.58 1.31-1 2-1.55a16.54 16.54 0 0 0 1.91-1.52c1.64.1 3.27.1 4.91.1h4a7 7 0 0 1 1.37-.07 56.27 56.27 0 0 1 -6.31 2.11c-1.23.32-2.44.59-3.64.93z" fill="#dcae48"/><path d="m73.91 136.88h-6.46c0-2.36-.1-4.71-.14-7.07-.06-3.91-.11-7.83-.17-11.74 0-1 0-2.08-.07-3.11l6-6h.36a5.64 5.64 0 0 0 2.42 0 5.44 5.44 0 0 0 3.94-6.87c.22 0 .32-.21.46-.34a7.58 7.58 0 0 1 1-.92v2.86.71c0 2.66-.09 5.31-.14 8l-.21 13.25c0 2.16-.07 4.31-.11 6.47v.72a12.6 12.6 0 0 0 -6.4 3.7 1.49 1.49 0 0 1 -.48.34z" fill="#d7cbc2"/><path d="m66.84 86.84c.26 0 .33.28.44.45 1 1.5 1.89 3 2.84 4.49.63 1 1.26 2 1.9 3a2 2 0 0 1 .21.49c.22.78.91 1 1.43.39.71-.84 1.57-1.53 2.23-2.42a.85.85 0 0 1 .16-.17c1.09-1 2-2.17 3.09-3.25.61-.62 1.19-1.28 1.81-1.9.14-.14.25-.32.47-.34.07 1.07 0 2.13 0 3.19a1 1 0 0 1 -.23.53c-1.19 1.19-2.4 2.38-3.59 3.58-.84.84-1.67 1.69-2.5 2.55a8 8 0 0 0 -2-.12 4.35 4.35 0 0 0 -1.94.52 5.45 5.45 0 0 0 -2.72 3.09 6.4 6.4 0 0 0 -.33 1.92 7.57 7.57 0 0 0 .23 1.4c-.21.06-.31.24-.45.37a11 11 0 0 1 -1 .94v-1.27a15.44 15.44 0 0 0 0-1.8l-.12-14.84c.04-.29.06-.55.07-.8z" fill="#d7cbc2"/><path d="m67 105.52a11 11 0 0 0 1-.94c.14-.13.24-.31.45-.37a8.6 8.6 0 0 0 3.36 4.05 3.82 3.82 0 0 0 .9.46c.14.06.32 0 .42.2l-6 6c0-.14 0-.28 0-.42.09-2.75-.14-5.49-.12-8.24-.07-.26-.01-.48-.01-.74z" fill="#522b0b"/><path d="m78.34 32.27a16.54 16.54 0 0 1 -1.91 1.52c-.64.52-1.35 1-2 1.55-.82.07-1.64 0-2.46.12a4.91 4.91 0 0 0 -4 3.06 10.07 10.07 0 0 0 -.73 3.2c0 .44-.09.87-.09 1.31s-.13.37-.4.36h-2.16c-.4 0-.4 0-.42-.45a16.08 16.08 0 0 0 -.46-3.38 7.21 7.21 0 0 0 -.64-1.56 4.83 4.83 0 0 0 -3.51-2.46 8.25 8.25 0 0 0 -1.49-.13h-9.78c-.54 0-1.07.11-1.61.12a35.64 35.64 0 0 1 1-3.67l.12-.34a1.38 1.38 0 0 1 1.4-1c.69 0 1.37-.21 2.06-.29.38-.05.76 0 1.13-.06 1.58 0 3.15 0 4.73-.08 1-.07 2-.16 3.05-.17l3.24.66-5.21 2.94a1.74 1.74 0 0 0 -.35.22.22.22 0 0 0 0 .28.2.2 0 0 0 .21.09c.83-.08 1.66-.14 2.49-.24l3.85-.44c1.19-.14 2.38-.24 3.57-.39 1.4-.18 2.8-.37 4.19-.59a8.35 8.35 0 0 0 1.84-.45c1 0 1.89.14 2.84.16.52.02 1.01.07 1.5.11z" fill="#f9d0a7"/><path d="m74 32a8.35 8.35 0 0 1 -1.86.34c-1.39.22-2.79.41-4.19.59-1.19.15-2.38.25-3.57.39l-3.85.44c-.83.1-1.66.16-2.49.24a.2.2 0 0 1 -.21-.09.22.22 0 0 1 0-.28 1.74 1.74 0 0 1 .35-.22l5.21-2.94c1.79.29 3.57.61 5.37.87 1.49.22 3 .42 4.51.53a2.71 2.71 0 0 1 .73.13z" fill="#dcae48"/><path d="m60.2 29.82c-1 0-2 .1-3.05.17-1.58.12-3.15.07-4.73.08.25-.21.57-.15.85-.19 1.21-.17 2.42-.32 3.62-.51a7.62 7.62 0 0 1 1.07 0 21.21 21.21 0 0 1 2.24.45z" fill="#dcae48"/><path d="m78.21 37.38h4.8a7.6 7.6 0 0 1 1.07 0 3 3 0 0 1 2.46 2 7.51 7.51 0 0 1 .5 2.09 17.68 17.68 0 0 1 .1 3.71 7 7 0 0 1 -6.66 6.17c-1.58 0-3.16.07-4.73 0a6.94 6.94 0 0 1 -6.55-6.9 16.7 16.7 0 0 1 .37-4.23c.06-.21.12-.42.2-.63a3 3 0 0 1 3-2.17h5.46zm-2 6.47a1.51 1.51 0 0 0 -1.53-1.5 1.54 1.54 0 0 0 -1.48 1.51 1.5 1.5 0 0 0 1.51 1.51 1.47 1.47 0 0 0 1.48-1.52z" fill="#fefefe"/><path d="m53.26 37.38h4.8a5.8 5.8 0 0 1 1.31.11 2.9 2.9 0 0 1 2 1.61 7.23 7.23 0 0 1 .66 2.66 13.58 13.58 0 0 1 0 3.82 6.94 6.94 0 0 1 -6.7 5.78c-1.46 0-2.92 0-4.38 0a7 7 0 0 1 -6.8-6.93 14.79 14.79 0 0 1 .42-4.34c.06-.23.14-.46.22-.68a3 3 0 0 1 2.79-2h.84c1.64-.04 3.24-.03 4.84-.03zm-1.07 6.49a1.51 1.51 0 1 0 -3 0 1.49 1.49 0 0 0 1.5 1.47 1.48 1.48 0 0 0 1.5-1.47z" fill="#fefefe"/><path d="m80.73 143.84a.56.56 0 0 1 -.08-.4v-4.89a.87.87 0 0 1 0-.22h3.53 4a11.45 11.45 0 0 0 .24 1.66 9.93 9.93 0 0 0 -3.84.8 12.43 12.43 0 0 0 -1.72.84 6.21 6.21 0 0 0 -2.13 2.21z" fill="#a8998f"/><path d="m80.69 137.87-.21-.05c.06-.12.16-.1.25-.09z" fill="#a8998f"/><path d="m80.62 159.79a1.44 1.44 0 0 0 .09-.71v-5.81a1.24 1.24 0 0 1 .08-.71c.2.07.23.27.32.42a11.14 11.14 0 0 0 5.35 4.44 5.13 5.13 0 0 0 2.63.37 3.66 3.66 0 0 0 1.67-.63 4.93 4.93 0 0 0 2.18-3.63 4.24 4.24 0 0 0 -.55-2.3 10.11 10.11 0 0 0 -1.94-2.57c-.14-.13-.29-.36-.5-.22s-.1.37-.06.56.17.66.27 1a6.53 6.53 0 0 1 .14 3.37 2.54 2.54 0 0 1 -.17.51 1.31 1.31 0 0 1 -1.75.82 4.78 4.78 0 0 1 -1.86-1.05 5.86 5.86 0 0 1 -2-3.35 3.4 3.4 0 0 1 1.67-3.9 5.82 5.82 0 0 1 3.85-.78 10 10 0 0 1 3.83 1.28 1.77 1.77 0 0 1 .75.57v.6q0 5.83 0 11.67c0 .23-.09.48.1.69a10.17 10.17 0 0 1 -2.51 1h-8.48a9.63 9.63 0 0 1 -3.11-1.64z" fill="#a8998f"/><path d="m83.73 161.37h8.54a9.84 9.84 0 0 1 -2.73.57 10.29 10.29 0 0 1 -1.84.13 14.16 14.16 0 0 1 -3.97-.7z" fill="#8c6239"/><path d="m80.62 144.2a.1.1 0 0 1 .06-.14c.03.06-.01.1-.06.14z" fill="#a8998f"/><path d="m75.11 97.4c.83-.86 1.66-1.71 2.5-2.55 1.19-1.2 2.4-2.39 3.59-3.58.25 0 .3.2.23.39a2.65 2.65 0 0 0 -.09 1v4.06s-.18 2.7-.14 4.06a7.58 7.58 0 0 0 -1 .92c-.14.13-.24.31-.46.34a4.49 4.49 0 0 0 -1.07-2c-.52-.55-1-1.08-1.61-1.58a4.17 4.17 0 0 0 -1.87-1l-.14-.11z" fill="#522b0b"/><path d="m75.24 97.5a4.17 4.17 0 0 1 1.87 1c.56.5 1.09 1 1.61 1.58a4.49 4.49 0 0 1 1.07 2 5.44 5.44 0 0 1 -3.94 6.87 5.64 5.64 0 0 1 -2.42 0c-.12 0-.24 0-.36 0s-.28-.14-.42-.2a3.82 3.82 0 0 1 -.9-.46 8.6 8.6 0 0 1 -3.36-4.05 7.57 7.57 0 0 1 -.23-1.4 6.4 6.4 0 0 1 .33-1.92 5.45 5.45 0 0 1 2.72-3.09 4.35 4.35 0 0 1 1.94-.52 8 8 0 0 1 2 .12.13.13 0 0 0 .09.07zm-.68 6.76a.6.6 0 0 0 .59-.34.55.55 0 0 0 -.07-.71c-.33-.35-.67-.69-1-1a.6.6 0 0 0 -.86 0 .57.57 0 0 0 0 .89c.31.33.65.65 1 1a.53.53 0 0 0 .34.16z" fill="#e8e4e1"/><path d="m76.19 43.85a1.47 1.47 0 0 1 -1.5 1.52 1.5 1.5 0 0 1 -1.51-1.51 1.54 1.54 0 0 1 1.48-1.51 1.51 1.51 0 0 1 1.53 1.5z" fill="#050404"/><path d="m52.19 43.87a1.48 1.48 0 0 1 -1.51 1.5 1.49 1.49 0 0 1 -1.5-1.47 1.51 1.51 0 1 1 3 0z" fill="#050404"/><path d="m75.24 97.5a.13.13 0 0 1 -.14-.11z" fill="#d7cbc2"/><path d="m74.56 104.26a.53.53 0 0 1 -.42-.18c-.32-.32-.66-.64-1-1a.57.57 0 0 1 0-.89.6.6 0 0 1 .86 0c.35.32.69.66 1 1a.55.55 0 0 1 .07.71.6.6 0 0 1 -.51.36z" fill="#522b0b"/><g stroke-miterlimit="10"><rect fill="#f9d0a7" height="16" rx="8" stroke="#000" stroke-width="2" width="20" x="68" y="36.5"/><rect fill="#f9d0a7" height="16" rx="8" stroke="#000" stroke-width="2" width="20" x="43" y="36.5"/><path d="m63 44.5h5" fill="none" stroke="#000" stroke-width="2"/><path d="m68.55 43.78 19.17-.01" stroke="#b79274"/><path d="m43.55 43.78 19.17-.01" stroke="#b79274"/><rect fill="none" height="16" rx="8" stroke="#000" stroke-width="2" width="20" x="68" y="36.5"/><rect fill="none" height="16" rx="8" stroke="#000" stroke-width="2" width="20" x="43" y="36.5"/></g></svg>