<svg viewBox="0 0 157 180" xmlns="http://www.w3.org/2000/svg"><path d="m120.87 18.29a3 3 0 0 1 -1.27 4.84c-13.49 5.33-27.6 10.2-42 11.41s-29.17-1.25-43.36-4.26c-3.34-1-1.76-4.59-1.76-4.59 1.47-.68 2.66-1.19 3.9-.93 27.42 5.82 55.4 5 81.47-5.31 1.15-.45 3.02-1.16 3.02-1.16z" fill="#512a0a"/><path d="m20.44 125c4.74 1.08 9.43 1.82 13.79 4.18 4 2.14 7.85 5.71 7.9 10.42.07 6-6.18 11.54-11.67 12.85-6.52 1.55-12.18-2.82-14.62-8.63a9.47 9.47 0 0 1 -.55-2.34 5.4 5.4 0 0 1 .22-2.3 6.58 6.58 0 0 1 2.71-3.65c.27-.19.29-.21.07-.06a8 8 0 0 1 .71-.47 10 10 0 0 1 1.24-.58c.32-.12.35-.13.09 0 .27-.09.54-.16.81-.23a13.11 13.11 0 0 1 1.66-.3h.1.86a14 14 0 0 1 1.44.12c.35.05.38.06.09 0 .28.06.57.14.85.22s.56.18.84.28c0 0 .91.39.4.15a7.38 7.38 0 0 1 4 3.75 4.56 4.56 0 0 1 .31 2.45 4.37 4.37 0 0 1 -2.06 2.51 6.8 6.8 0 0 1 -3.51.73c-5.67-.74-.56-4.79-.32-4.91 1.64-.86 2.87-1.65.07-1.31-3.14.37-4.94 1.61-5.1 4.68-.16 3.27 3 4.78 6 5.07a9.36 9.36 0 0 0 8.74-3.63c2.13-2.89 2.57-4.59 1.14-7.8-4.82-10.83-22.67-10.36-26.56.91-2.15 6.27 2.07 13 6.88 16.78a17.71 17.71 0 0 0 19.66 1.26c5.65-3.23 10.86-9.29 10.37-16.15-.43-5.54-4.42-9.76-9-12.47a28.51 28.51 0 0 0 -9.19-3.38c-2.72-.51-6-.72-8.49.67a.64.64 0 0 0 .16 1.19z" fill="#512a0a"/><path d="m25.46 115.64h5.53v21.44h-5.53z" fill="#3f200a" transform="matrix(.28 -.96 .96 .28 -100.94 117.44)"/><path d="m20.22 125.15a3.67 3.67 0 1 1 -1.11-5.07 3.66 3.66 0 0 1 1.11 5.07z" fill="#3f200a"/><circle cx="28.5" cy="124" fill="#f9d0a7" r="9.5"/><circle cx="128.5" cy="124" fill="#f9d0a7" r="9.5"/><path d="m58.5 133h14v40h-14z" fill="#a8998f"/><path d="m42.5 160h30v13h-30z" fill="#8c6239"/><path d="m83.5 134h14v39h-14z" fill="#a8998f"/><path d="m83.5 160h29v13h-29z" fill="#8c6239"/><path d="m95 78.5 2.5 55.5h-39l-.5-60.5 33 1z" fill="#d8ccc3"/><path d="m72 73.5 8 21 9-23z" fill="#f9d0a7"/><path d="m72.5 74 8.42 20.07a.8.8 0 0 1 -1.17.91l-19.7-20.98z" fill="#e8e4e2"/><path d="m80.07 94.48 4.93-19.98h8.5l-13 20.42a.32.32 0 0 1 -.43-.44z" fill="#e8e4e2"/><path d="m75.08 85.28h6.68v34.63h-6.68z" fill="#512a0a" transform="matrix(.70920169 -.70500564 .70500564 .70920169 -49.53 85.13)"/><path d="m80.72 99.68a3 3 0 0 1 0 4.25l-1.06 1a3 3 0 0 1 -4.24-.08 3 3 0 0 1 0-4.25l1.06-1a3 3 0 0 1 4.25.08z" fill="none" stroke="#e8e4e2" stroke-miterlimit="10" stroke-width="4.79"/><path d="m72.5 137.5h-14.5v-47c-21 8.53-21 28-21 28l-15-3c7-35 36-42 36-42h13.5z" fill="#3f200a"/><path d="m98 91.5v46h-14.25l1-64h9.25l5 1s28.6 6 35.5 41l-14.79 3s-1-18.47-21.71-27" fill="#3f200a"/><path d="m63.64 73.5-1.64 6 4 3-4 11 10 10-.5-30z" fill="#683e11"/><path d="m91.86 73.5 1.64 6-4 3 4 11-9.25 10 .25-30z" fill="#683e11"/><ellipse cx="78.61" cy="44.64" fill="#f9d0a7" rx="32.39" ry="32.14"/><circle cx="47.95" cy="51.28" fill="#f9d0a7" r="6.45"/><path d="m97 63.73c0 2.63-3.36 4.77-7.5 4.77s-7.5-2.14-7.5-4.77 3.86-1.23 8-1.23 7-1.41 7 1.23z" fill="#fff"/><path d="m110.36 39.81c-.5-5.47-1.36-6.81-2.26-11.81a1.09 1.09 0 0 0 -.58-.78l-22.76-11.57a1 1 0 0 0 -.63-.11l-22.37 2.81h-10.3a1.09 1.09 0 0 0 -.81 1.81 1.08 1.08 0 0 1 -.24 1.64c-2 1.21-5.73 4.39-3.93 10.72a1.17 1.17 0 0 0 .09.24c.44.8-.73 4.45.47 17.23a1.37 1.37 0 0 0 2.71.15c2.11-10.14 9.64-21.74 14.07-25.72a1.06 1.06 0 0 1 .92-.23l39.75 5.43a1.08 1.08 0 0 1 .51.26c.54.51 1.72 5.17 2.76 10.3a1.31 1.31 0 0 0 2.6-.37z" fill="#d1a44a"/><path d="m79.59 35.32c-2.59-.17-22.91-3.74-28.59-13.82 0 0 6-17 23-20 0 0 10.46-1.7 23.2 7.7.37.28 5.86 6.35 6.12 6.73 1.92 2.73 6.2 9.82 11.94 11.87a.3.3 0 0 1 -.06.58c-5 .54-21 2-29.24-.84l9.36 5.22a.2.2 0 0 1 -.1.38c-4.14-.39-20.88-2-23.17-3.79l7.6 5.79a.1.1 0 0 1 -.06.18z" fill="#ddae47"/><g stroke="#000" stroke-miterlimit="10" stroke-width="2"><rect fill="#fff" height="16" rx="8" width="20" x="90" y="35.5"/><rect fill="#fff" height="16" rx="8" width="20" x="65" y="35.5"/><path d="m85 43.5h5" fill="none"/></g><circle cx="78.5" cy="43" r="1.5"/><circle cx="102.5" cy="43" r="1.5"/><path d="m98 25.41h.26l.84-.2c.45-.12.89-.23 1.35-.32.84-.15 1.68-.27 2.53-.4a30 30 0 0 0 3-.54l.68-.19c0-.13 0-.27 0-.4 0-13 1.88-23.6-12.86-23.6 0 0-12.76 1.72-17 1.72s-16.97-1.72-16.97-1.72c-14.74 0-13 10.57-13 23.6a20.54 20.54 0 0 0 .26 3.64l29.59 2.7 16.67-1.54a5.12 5.12 0 0 1 4.65-2.75z" fill="#874b15"/><path d="m106.58 23.77c0-.14 0-.28 0-.41 0-1.94 0-6.83.07-8.63a108.36 108.36 0 0 1 -30 4.23c-11.5 0-22-.7-30-1.22 0 1.8.06 3.68.06 5.62a20.54 20.54 0 0 0 .38 3.64l29.59 2.7 13.52-1.25c4.91-3.02 10.73-3.56 16.38-4.68z" fill="#3f200a"/><path d="m120.81 18.75c.52.89-.06 2-1.29 2.4-13.5 4.7-27.63 9-42.06 10.07s-29.18-1.09-43.39-3.75c-1.29-.24-2.06-1.22-1.72-2.17a2.52 2.52 0 0 1 2.86-1.3 162.53 162.53 0 0 0 82.53-6.11 2.62 2.62 0 0 1 3.07.85z" fill="#683e11"/><path d="m77.16 28.06c14.43-1.07 28.57-5.24 42.07-9.95a3.48 3.48 0 0 0 .48-.21 3.09 3.09 0 0 0 -2 0 162.53 162.53 0 0 1 -82.5 6.1 3 3 0 0 0 -1.94.28 3.55 3.55 0 0 0 .52.15c14.21 2.66 28.93 4.7 43.37 3.63z" fill="#89511f"/></svg>