<svg viewBox="0 0 157 180" xmlns="http://www.w3.org/2000/svg"><path d="m122.41 147.02.08-14-45.44 1.15-.61 13.02z" fill="#1b1464"/><path d="m101 125.49h30v13h-30z" fill="#8c6239" transform="matrix(-.00558502 .9999844 -.9999844 -.00558502 248.62 16.72)"/><path d="m30.51 133.72-.92 13.97 48.41-.19 1-13z" fill="#1b1464"/><path d="m22.53 127.15h29v13h-29z" fill="#8c6239" transform="matrix(.06557729 -.99784749 .99784749 .06557729 -98.76 161.82)"/><path d="m58.5 92v44h39v-45c17.5-20.5 43.5-12.5 43.5-12.5l5-13a44.49 44.49 0 0 0 -48.5 8.5l-31.5.5h-8s-11-15-46-10l6 14s23-2 40.5 13.5" fill="#fff"/><circle cx="147.5" cy="74" fill="#f9d0a7" r="9.5"/><circle cx="9.5" cy="73" fill="#f9d0a7" r="9.5"/><path d="m83.01 74-4.51 10h-5l-6-10z" fill="#006837"/><path d="m78.5 84 3 41-5.59 7.34a.53.53 0 0 1 -.88 0l-4.53-7.34 3-41z" fill="#009245"/><path d="m83.5 74-4.42 8.07a.8.8 0 0 0 1.17.91l15.75-8.98z" fill="#e6e6e6"/><path d="m72.93 82-4.93-8h-9.5l14 8.42a.32.32 0 0 0 .43-.42z" fill="#e6e6e6"/><ellipse cx="77.39" cy="44.64" fill="#f9d0a7" rx="32.39" ry="32.14"/><circle cx="108.05" cy="51.28" fill="#f9d0a7" r="6.45"/><path d="m59 63.73c0 2.63 3.36 4.77 7.5 4.77s7.5-2.14 7.5-4.77-3.86-1.23-8-1.23-7-1.41-7 1.23z" fill="#fff"/><path d="m45.64 39.81c.5-5.47 1.36-6.81 2.26-11.81a1.09 1.09 0 0 1 .58-.78l22.76-11.57a1 1 0 0 1 .63-.11l22.37 2.81h10.3a1.09 1.09 0 0 1 .81 1.81 1.08 1.08 0 0 0 .24 1.64c2 1.21 5.73 4.39 3.93 10.72a1.17 1.17 0 0 1 -.09.24c-.44.8.73 4.45-.47 17.23a1.37 1.37 0 0 1 -2.71.15c-2.11-10.14-9.64-21.74-14.07-25.72a1.06 1.06 0 0 0 -.92-.23l-39.75 5.43a1.08 1.08 0 0 0 -.51.26c-.54.51-1.72 5.17-2.76 10.3a1.31 1.31 0 0 1 -2.6-.37z" fill="#d1a44a"/><path d="m76.41 35.32c2.59-.17 22.91-3.74 28.59-13.82 0 0-6-17-23-20 0 0-10.46-1.7-23.2 7.7-.37.28-5.86 6.35-6.12 6.73-1.92 2.73-6.2 9.82-11.94 11.87a.3.3 0 0 0 .06.58c5 .54 21 2 29.24-.84l-9.36 5.22a.2.2 0 0 0 .1.38c4.14-.39 20.88-2 23.17-3.79l-7.6 5.79a.1.1 0 0 0 .06.18z" fill="#ddae47"/><g stroke="#000" stroke-miterlimit="10" stroke-width="2"><rect fill="#fff" height="16" rx="8" width="20" x="73" y="35.5"/><rect fill="#fff" height="16" rx="8" width="20" x="48" y="35.5"/><path d="m68 43.5h5" fill="none"/></g><circle cx="54.5" cy="43" r="1.5"/><circle cx="78.5" cy="43" r="1.5"/></svg>