<svg viewBox="0 0 157 180" xmlns="http://www.w3.org/2000/svg"><path d="m100.79 53.2h1.81v5.58h-1.81z" fill="#b4b5b5" transform="matrix(.99978432 -.02076792 .02076792 .99978432 -1.14 2.13)"/><path d="m101.7 53.21h.9v5.56h-.9z" fill="#c8c8c9" transform="matrix(.99978068 -.02094242 .02094242 .99978068 -1.15 2.15)"/><path d="m104.18 68.67a2.23 2.23 0 1 1 -4.46.07l-.14-8.74a2.23 2.23 0 1 1 4.46-.06z" fill="#ffa900" fill-rule="evenodd"/><path d="m104.18 68.67a1.82 1.82 0 1 1 -3.56.07l-.13-8.74a1.81 1.81 0 1 1 3.55-.06z" fill="#f2cf1c" fill-rule="evenodd"/><path d="m105.38 63.9a1.17 1.17 0 0 0 -1.18-1.18l-4.68.07a1.2 1.2 0 0 0 -1.18 1.21l.06 3.83 7-.11z" fill="#38303b" fill-rule="evenodd"/><path d="m105.38 63.9a1.17 1.17 0 0 0 -1-1.16h-3.57a1.19 1.19 0 0 0 -1.13 1.26l.06 3.81 5.7-.09z" fill="#3d3d3d" fill-rule="evenodd"/><path d="m99.38 60.56 5-.07a1.66 1.66 0 0 0 -.05-3.31l-5 .07a1.66 1.66 0 1 0 0 3.31" fill="#38303b" fill-rule="evenodd"/><path d="m104.64 57.2h-3.62a1.66 1.66 0 0 0 -.24 3.29h3.62a1.66 1.66 0 0 0 .24-3.29" fill="#444243" fill-rule="evenodd"/><path d="m74.2 53.2h1.81v5.58h-1.81z" fill="#b4b5b5" transform="matrix(.99978432 -.02076792 .02076792 .99978432 -1.15 1.58)"/><path d="m75.1 53.21h.9v5.56h-.9z" fill="#c8c8c9" transform="matrix(.99978068 -.02094242 .02094242 .99978068 -1.15 1.59)"/><g fill-rule="evenodd"><path d="m77.58 68.67a2.23 2.23 0 1 1 -4.46.07l-.12-8.74a2.23 2.23 0 1 1 4.46-.06z" fill="#ffa900"/><path d="m77.58 68.67a2.23 2.23 0 0 1 -1.78 2.22 2.22 2.22 0 0 1 -1.8-2.15l-.11-8.74a2.23 2.23 0 0 1 1.78-2.21 2.23 2.23 0 0 1 1.78 2.15z" fill="#f2cf1c"/><path d="m78.78 63.9a1.17 1.17 0 0 0 -1.18-1.18l-4.67.07a1.2 1.2 0 0 0 -1.18 1.21l.06 3.83 7-.11z" fill="#38303b"/><path d="m78.78 63.9a1.17 1.17 0 0 0 -1-1.16h-3.56a1.2 1.2 0 0 0 -1.14 1.26l.06 3.81 5.7-.09z" fill="#3d3d3d"/><path d="m72.79 60.56 5-.07a1.66 1.66 0 0 0 0-3.31l-5 .07a1.66 1.66 0 1 0 .05 3.31" fill="#38303b"/><path d="m78 57.2h-3.62a1.66 1.66 0 0 0 -.24 3.29h3.62a1.66 1.66 0 0 0 .24-3.29" fill="#444243"/><path d="m90.19 130.94v-52.09a11.67 11.67 0 0 1 11.53-11.67h.15a11.68 11.68 0 0 1 11.67 11.68v52.09h-23.35z" fill="#ffa900"/><path d="m104 67.36a11.68 11.68 0 0 1 9.59 11.49v52.09h-19.28v-52.09a11.67 11.67 0 0 1 9.69-11.49" fill="#fc0"/><path d="m90.19 138.22v-7.28h23.35v7.28a6.8 6.8 0 0 1 -6.8 6.81h-9.74a6.81 6.81 0 0 1 -6.81-6.81" fill="#38303b"/><path d="m94.31 130.94h19.23v7.28a6.8 6.8 0 0 1 -6.8 6.81h-5.63a6.8 6.8 0 0 1 -6.8-6.81z" fill="#3d3d3d"/><path d="m63.59 130.94v-52.09a11.67 11.67 0 0 1 11.53-11.67h.15a11.68 11.68 0 0 1 11.73 11.67v52.09z" fill="#ffa900"/><path d="m77.35 67.36a11.68 11.68 0 0 1 9.65 11.49v52.09h-19.29v-52.09a11.67 11.67 0 0 1 9.64-11.49" fill="#fc0"/><path d="m63.59 138.22v-7.28h23.41v7.28a6.81 6.81 0 0 1 -6.86 6.78h-9.74a6.81 6.81 0 0 1 -6.81-6.81" fill="#38303b"/><path d="m67.71 130.94h19.29v7.28a6.81 6.81 0 0 1 -6.86 6.78h-5.62a6.81 6.81 0 0 1 -6.81-6.81z" fill="#3d3d3d"/></g><path d="m63.59 88.32h23.35v3.56h-23.35z" fill="#ffa900"/><path d="m63.59 88.32h23.35v1.78h-23.35z" fill="#ffa900"/><path d="m67.71 88.32h19.24v3.56h-19.24z" fill="#ffa900"/><path d="m67.71 88.32h19.24v1.78h-19.24z" fill="#ffa900"/><path d="m90.19 88.32h23.35v3.56h-23.35z" fill="#ffa900"/><path d="m90.19 88.32h23.35v1.78h-23.35z" fill="#ffa900"/><path d="m94.31 88.32h19.24v3.56h-19.24z" fill="#ffa900"/><path d="m94.31 88.32h19.24v1.78h-19.24z" fill="#ffa900"/><path d="m61.29 86.54h54.46v3.56h-54.46z" fill="#c2c6c9"/><path d="m61.29 86.54h54.46v1.78h-54.46z" fill="#d8dae6"/><path d="m63.59 116.48h23.35v3.56h-23.35z" fill="#ffa900"/><path d="m63.59 116.48h23.35v1.78h-23.35z" fill="#ffa900"/><path d="m67.71 116.48h19.24v3.56h-19.24z" fill="#ffa900"/><path d="m67.71 116.48h19.24v1.78h-19.24z" fill="#ffa900"/><path d="m90.19 116.48h23.35v3.56h-23.35z" fill="#ffa900"/><path d="m90.19 116.48h23.35v1.78h-23.35z" fill="#ffa900"/><path d="m94.31 116.48h19.24v3.56h-19.24z" fill="#ffa900"/><path d="m94.31 116.48h19.24v1.78h-19.24z" fill="#ffa900"/><path d="m61.29 114.69h54.46v3.56h-54.46z" fill="#c2c6c9"/><path d="m61.29 114.69h54.46v1.78h-54.46z" fill="#d8dae6"/><path d="m83.25 133h14v40h-14z" fill="#004a86" transform="matrix(-1 0 0 -1 180.5 306)"/><path d="m83.25 160h30v13h-30z" fill="#fc0" transform="matrix(-1 0 0 -1 196.5 333)"/><path d="m58.75 134h13.5v39h-13.5z" fill="#004a86" transform="matrix(-1 0 0 -1 131 307)"/><path d="m43.25 160h29v13h-29z" fill="#fc0" transform="matrix(-1 0 0 -1 115.5 333)"/><path d="m58.75 92.5v44h39v-45a32.87 32.87 0 0 1 21 29l15-4c-7-35-36-42-36-42h-35l-5 1s-28.6 6-35.5 41l14.5 4s1.29-19.47 22-28" fill="#f9d0a7"/><path d="m58.75 92.79v44.71h39v-45.73c16.5 9.66 16.5 14.74 16.5 14.74l15.5-3.56c-9-22.35-32-28.45-32-28.45h-35l-5 1s-24 5.09-32 30.49l15 4.06s1-8.12 18-17.27" fill="#004a86" stroke="#004a86" stroke-miterlimit="10"/><circle cx="127.75" cy="123.5" fill="#f9d0a7" r="9.5"/><circle cx="27.75" cy="123.5" fill="#f9d0a7" r="9.5"/><path d="m83.25 74-7.5 2.5c-.21.69-.62 6.36 0 6l23-9z" fill="#51b3ff"/><path d="m75.75 75.5-8-1.5-6 .5 14 8c.25.16.16-6.71 0-7z" fill="#51b3ff"/><ellipse cx="77.14" cy="44.64" fill="#f9d0a7" rx="32.39" ry="32.14"/><circle cx="107.8" cy="51.28" fill="#f9d0a7" r="6.45"/><path d="m45.39 39.81c.5-5.47 1.35-6.86 2.26-11.77a1.09 1.09 0 0 1 .58-.78l22.77-11.61a1 1 0 0 1 .63-.11l22.37 2.81h10.3a1.09 1.09 0 0 1 .81 1.81 1.08 1.08 0 0 0 .24 1.64c2 1.21 5.73 4.39 3.93 10.72a1.17 1.17 0 0 1 -.09.24c-.44.8.73 4.45-.47 17.23a1.37 1.37 0 0 1 -2.71.15c-2.12-10.14-9.65-21.74-14.08-25.72a1.06 1.06 0 0 0 -.92-.23l-39.75 5.43a1.08 1.08 0 0 0 -.51.26c-.54.51-1.72 5.17-2.76 10.3a1.31 1.31 0 0 1 -2.6-.37z" fill="#d1a44a"/><path d="m76.16 35.32c2.59-.17 22.91-3.74 28.59-13.82 0 0-6-17-23-20 0 0-10.46-1.7-23.2 7.7-.37.28-5.86 6.35-6.12 6.73-1.92 2.73-6.2 9.82-11.94 11.87a.3.3 0 0 0 .06.58c5 .54 21 2 29.24-.84l-9.36 5.22a.2.2 0 0 0 .1.38c4.14-.39 20.88-2 23.17-3.79l-7.6 5.79a.1.1 0 0 0 .06.18z" fill="#ddae47"/><rect fill="#38303b" height="5.96" rx="2.5" transform="matrix(.98771563 -.15626208 .15626208 .98771563 -5.26 16.11)" width="22" x="88.82" y="38.49"/><path d="m66 46.32h11.39v8.94a1.41 1.41 0 0 1 -1.59 1.41c-2.55-.13-5.1 0-7.14 1.91a4 4 0 0 1 -2.66.92 4 4 0 0 1 -2.68-.92c-2-1.91-4.58-2-7.13-1.91a1.42 1.42 0 0 1 -1.58-1.41v-8.94z" fill="#38303b"/><path d="m47.19 40.44a1.91 1.91 0 0 1 -1.91-1.9v-.41a10.94 10.94 0 0 1 2.31-7l1.41-1.62a2.85 2.85 0 0 1 2-1.07h.13l8.49-.84h12.73l8.49.84h.16a2.78 2.78 0 0 1 2 1.07l1.37 1.61a11 11 0 0 1 2.32 7v.38a1.91 1.91 0 0 1 -1.91 1.91h-37.59z" fill="#38303b"/><path d="m43.71 34.83 1.65-1.37a4 4 0 0 1 2.51-.9l10.46-.73a7.56 7.56 0 0 1 3.24.73l2.14 1a5.2 5.2 0 0 0 4.46 0l2.14-1a7.59 7.59 0 0 1 3.24-.73l10.45.73a4 4 0 0 1 2.51.9l1.65 1.37a7.73 7.73 0 0 1 2.84 5.94v6.79a7.73 7.73 0 0 1 -3.45 6.44l-.47.32a6.51 6.51 0 0 1 -3.6 1.09l-8.3-.72h-.26a6.33 6.33 0 0 1 -5.14-3.13l-1.65-2.77a2.56 2.56 0 0 0 -4.4 0l-1.65 2.77a6.33 6.33 0 0 1 -5.14 3.13h-.26l-8.29.72a6.48 6.48 0 0 1 -3.6-1.09l-.48-.32a7.73 7.73 0 0 1 -3.43-6.41v-6.82a8 8 0 0 1 2.83-5.94z" fill="#fc0"/><path d="m83.6 52.68a3.72 3.72 0 0 0 2-.64l.47-.32a5.06 5.06 0 0 0 2.23-4.18v-6.8a5 5 0 0 0 -1.82-3.88l-1.65-1.37a1.31 1.31 0 0 0 -.82-.3h-.01l-10.44-.71a5.33 5.33 0 0 0 -2 .48l-2.14 1a8 8 0 0 1 -6.77 0l-2.15-1a5.07 5.07 0 0 0 -2-.48l-10.5.71h-.09a1.27 1.27 0 0 0 -.81.3l-1.65 1.37a5 5 0 0 0 -1.82 3.88v6.82a5 5 0 0 0 2.23 4.18l.47.32a3.69 3.69 0 0 0 2 .64l8.27-.7h.27a3.68 3.68 0 0 0 2.94-1.82l1.65-2.77a5.22 5.22 0 0 1 9 0l1.66 2.77a3.66 3.66 0 0 0 2.93 1.82h.26z" fill="#d5f2f5"/><circle cx="52.25" cy="44" r="1.5"/><circle cx="75.25" cy="44" r="1.5"/><path d="m58.73 61.45c0 3.21 3.36 5.82 7.5 5.82s7.5-2.61 7.5-5.82-3.85-1.45-8-1.45-7-1.76-7 1.45z" fill="#fff"/><path d="m39.08 23.07h4.76v33h-4.76z" fill="#f2c516"/><path d="m56 70.64h6.16a1.19 1.19 0 0 0 1.18-1.2v-3.65h4.76v3.65a6 6 0 0 1 -5.92 6h-6.05c0-1.56-.13-3.19-.13-4.8z" fill="#f2c516"/><path d="m43.84 56.09v3.57a10.89 10.89 0 0 0 10.78 11h1.38c0 1.61.11 3.24.08 4.86h-1.46a15.7 15.7 0 0 1 -15.53-15.84v-3.57c1.58-.02 3.16-.02 4.75-.02z" fill="#3d3d3d"/><path d="m74 60.34a5.3 5.3 0 0 1 -1.28 6.31c-1.84 1.64-4.26 1.85-6.61 1.83s-4.59-.24-6.47-1.74a5.5 5.5 0 0 1 -1.91-5.82 2.31 2.31 0 0 1 2.82-1.63 2.34 2.34 0 0 1 1.6 2.88c-.2.62-.07-.27-.07.35 0-.4.15.32 0 0a1.66 1.66 0 0 0 .55.69 5.06 5.06 0 0 0 2.87.58 11 11 0 0 0 3.5-.25 1.83 1.83 0 0 0 .83-.56c.12-.12 0-.57.17-.27a2.43 2.43 0 0 1 .81-3.2 2.28 2.28 0 0 1 3.14.83z" fill="#3d3d3d"/><path d="m39.38 6.74 5.79 4.93a1 1 0 0 1 .37.77v1.43a.47.47 0 0 1 -.47.47h-.76a1 1 0 0 0 0 2.05h.76a.47.47 0 0 1 .47.47v.39a.47.47 0 0 1 -.47.47h-.71a1 1 0 0 0 0 2.05h.71a.47.47 0 0 1 .47.47v.34a.48.48 0 0 1 -.47.48h-.66a1 1 0 0 0 0 2h.66a.47.47 0 0 1 .47.48v1.3a1 1 0 0 1 -1 1h-5.79a1 1 0 0 1 -1-1v-17.39a1 1 0 0 1 1.63-.71z" fill="#3d3d3d"/><path d="m48.72 53.88a3.6 3.6 0 0 1 -2-.68l-.47-.35a5.48 5.48 0 0 1 -2.25-4.45v-7.23a5.56 5.56 0 0 1 1.82-4.17l1.65-1.46a1.28 1.28 0 0 1 .82-.32h.08l10.44-.75a4.85 4.85 0 0 1 2 .5l2.19 1.13a7.56 7.56 0 0 0 6.77 0l2.12-1.1a4.66 4.66 0 0 1 2-.5l10.44.75h.09a1.23 1.23 0 0 1 .81.32l1.66 1.43a5.52 5.52 0 0 1 1.82 4.14v7.26a5.42 5.42 0 0 1 -2.22 4.45l-.48.34a3.57 3.57 0 0 1 -2 .68l-8.27-.75h-.28a3.63 3.63 0 0 1 -2.94-1.94l-1.65-2.94a5.07 5.07 0 0 0 -9 0l-1.65 2.94a3.64 3.64 0 0 1 -2.94 1.94h-.28z" fill="#f9d0a7"/><rect fill="#b79274" height="2" rx="1" width="21" x="43" y="44.5"/><rect fill="#b79274" height="2" rx="1" width="27" x="63" y="44.5"/><path d="m88.64 35.28-1.64-1.37a4 4 0 0 0 -2.51-.9l-10.49-.73a7.74 7.74 0 0 0 -3.24.73l-2.14 1a5.27 5.27 0 0 1 -4.46 0l-2.16-1.01a7.71 7.71 0 0 0 -3.24-.73l-10.44.73a4 4 0 0 0 -2.51.9l-1.65 1.37a7.73 7.73 0 0 0 -2.79 5.94v6.79a7.72 7.72 0 0 0 3.43 6.41l.48.32a6.49 6.49 0 0 0 3.6 1.1l8.29-.73h.26a6.33 6.33 0 0 0 5.14-3.1l1.65-2.77a2.56 2.56 0 0 1 4.4 0l1.65 2.77a6.33 6.33 0 0 0 5.14 3.13h.26l8.3.73a6.52 6.52 0 0 0 3.6-1.1l.47-.32a7.72 7.72 0 0 0 3.43-6.44v-6.78a7.9 7.9 0 0 0 -2.83-5.94zm-39.89 17.86a3.81 3.81 0 0 1 -2-.65l-.47-.32a5.06 5.06 0 0 1 -2.28-4.17v-6.8a5.06 5.06 0 0 1 1.82-3.88l1.65-1.38a1.31 1.31 0 0 1 .82-.3h.08l10.44-.7a5.1 5.1 0 0 1 2 .47l2.14 1a8 8 0 0 0 6.78 0l2.14-1a4.94 4.94 0 0 1 2-.47l10.44.7h.09a1.27 1.27 0 0 1 .81.3l1.65 1.38a5 5 0 0 1 1.83 3.88v6.8a5 5 0 0 1 -2.23 4.18l-.47.32a3.76 3.76 0 0 1 -2 .65l-8.27-.71h-.28a3.65 3.65 0 0 1 -2.94-1.82l-1.65-2.77a5.22 5.22 0 0 0 -9 0l-1.65 2.77a3.67 3.67 0 0 1 -2.94 1.82h-.26z" fill="#fc0"/></svg>