<svg viewBox="0 0 157 180" xmlns="http://www.w3.org/2000/svg"><path d="m85.82 133h14v40h-14z" fill="#004a86" stroke="#004a86" stroke-miterlimit="10" transform="matrix(-1 0 0 -1 185.63 306)"/><path d="m70.32 160.5h30v13h-30z" fill="#fc0" transform="matrix(-1 0 0 -1 170.63 334)"/><path d="m60.82 134h14v39h-14z" fill="#004a86" stroke="#004a86" stroke-miterlimit="10" transform="matrix(-1 0 0 -1 135.63 307)"/><path d="m47 160.5h29v13h-29z" fill="#fc0" transform="matrix(-1 0 0 -1 123 334)"/><path d="m60.82 92v44h39v-45c6.5 17.5-2.5 41.5-2.5 41.5l15 5c18-56-12.5-63.5-12.5-63.5h-35l-5 1-3.5.5s-1 38-20 42l9 10s18-1 15.5-35.5" fill="#f9d0a7" stroke="#f9d0a7" stroke-miterlimit="10"/><circle cx="35.82" cy="127" fill="#f9d0a7" r="9.5"/><path d="m61.13 92.13-.63 44.87 39.63-.87v-45c5.37 17.87-2.63 33.87-2.63 33.87l18 1c12-44-15.37-51.87-15.37-51.87h-35l-5 1-4.5.5s-1.13 25.37-12.13 37.37l9 12s9-2 8.63-32.87" fill="#004a86" stroke="#004a86" stroke-miterlimit="10"/><circle cx="103.82" cy="137" fill="#f9d0a7" r="9.5"/><path d="m84 74.52-8 2c-.21.69-.17 6.88.46 6.52l21.54-9.54z" fill="#51b3ff"/><path d="m76.46 76-8-1.5-6 .5 14 8c.28.18.16-6.7 0-7z" fill="#51b3ff"/><ellipse cx="79.71" cy="44.64" fill="#f9d0a7" rx="32.39" ry="32.14"/><circle cx="110.37" cy="51.28" fill="#f9d0a7" r="6.45"/><path d="m48 39.81c.46-5.47 1.31-6.81 2.22-11.81a1.07 1.07 0 0 1 .57-.78l22.76-11.57a1.07 1.07 0 0 1 .63-.11l22.37 2.81h10.3a1.09 1.09 0 0 1 .82 1.81 1.08 1.08 0 0 0 .23 1.64c2 1.21 5.74 4.39 3.94 10.72a1.22 1.22 0 0 1 -.1.24c-.43.8.73 4.45-.47 17.23a1.37 1.37 0 0 1 -2.7.15c-2.11-10.14-9.64-21.74-14.07-25.72a1.07 1.07 0 0 0 -.93-.23l-39.74 5.43a1.08 1.08 0 0 0 -.51.26c-.54.51-1.72 5.17-2.77 10.3a1.31 1.31 0 0 1 -2.55-.37z" fill="#d1a44a"/><path d="m78.73 35.32c2.59-.17 22.9-3.74 28.59-13.82 0 0-6-17-23-20 0 0-10.47-1.7-23.21 7.7-.37.28-5.85 6.35-6.12 6.73-1.91 2.73-6.19 9.82-11.93 11.87a.3.3 0 0 0 .06.58c5 .54 21 2 29.23-.84l-9.35 5.22a.2.2 0 0 0 .11.38c4.13-.39 20.88-2 23.17-3.79l-7.61 5.79a.1.1 0 0 0 .06.18z" fill="#ddae47"/><g fill="#38303b"><rect height="5.96" rx="2.5" transform="matrix(.98771563 -.15626208 .15626208 .98771563 -5.39 16.72)" width="22" x="92.64" y="39.67"/><path d="m69.78 47.49h11.42v8.94a1.4 1.4 0 0 1 -1.59 1.41c-2.55-.12-5.1 0-7.14 1.91a3.9 3.9 0 0 1 -2.67.92 4 4 0 0 1 -2.68-.92c-2-1.91-4.59-2-7.14-1.91a1.42 1.42 0 0 1 -1.59-1.41v-8.94z"/><path d="m51 41.62a1.92 1.92 0 0 1 -1.91-1.91v-.41a11 11 0 0 1 2.32-7l1.37-1.6a2.85 2.85 0 0 1 2-1.08h.13l8.49-.83h12.76l8.49.83h.13a2.79 2.79 0 0 1 2 1.08l1.38 1.6a11.08 11.08 0 0 1 2.31 7v.39a1.92 1.92 0 0 1 -1.91 1.91h-37.56z"/></g><path d="m47.53 36 1.65-1.37a4 4 0 0 1 2.5-.9l10.46-.73a7.71 7.71 0 0 1 3.24.73l2.14 1a5.27 5.27 0 0 0 4.46 0l2.15-1a7.66 7.66 0 0 1 3.23-.73l10.49.73a3.91 3.91 0 0 1 2.5.9l1.65 1.37a7.74 7.74 0 0 1 2.79 5.94v6.79a7.71 7.71 0 0 1 -3.43 6.41l-.47.32a6.52 6.52 0 0 1 -3.6 1.1l-8.29-.73h-.25a6.33 6.33 0 0 1 -5.15-3.13l-1.65-2.77a2.55 2.55 0 0 0 -4.39 0l-1.66 2.77a6.36 6.36 0 0 1 -5.15 3.13h-.26l-8.29.73a6.49 6.49 0 0 1 -3.6-1.1l-.47-.32a7.68 7.68 0 0 1 -3.43-6.41v-6.79a7.91 7.91 0 0 1 2.83-5.94z" fill="#fc0"/><path d="m87.42 53.86a3.7 3.7 0 0 0 2-.65l.47-.32a5 5 0 0 0 2.23-4.18v-6.79a5 5 0 0 0 -1.81-3.92l-1.65-1.37a1.23 1.23 0 0 0 -.81-.3h-.09l-10.44-.71a5.05 5.05 0 0 0 -2 .47l-2.15 1a8 8 0 0 1 -6.77 0l-2.15-1a4.9 4.9 0 0 0 -2-.47l-10.44.71h-.08a1.26 1.26 0 0 0 -.82.3l-1.67 1.37a5 5 0 0 0 -1.82 3.88v6.81a5 5 0 0 0 2.23 4.18l.47.33a3.8 3.8 0 0 0 2 .64l8.28-.71h.28a3.64 3.64 0 0 0 2.93-1.82l1.65-2.77a5.23 5.23 0 0 1 9 0l1.65 2.77a3.64 3.64 0 0 0 2.93 1.82h.26z" fill="#d5f2f5"/><circle cx="56.06" cy="45.17" r="1.5"/><circle cx="79.06" cy="45.17" r="1.5"/><path d="m62.55 62.63c0 3.21 3.35 5.81 7.5 5.81s7.5-2.6 7.5-5.81-3.86-1.5-8-1.5-7-1.71-7 1.5z" fill="#fff"/><path d="m42.89 24.24h4.76v33h-4.76z" fill="#f2c516"/><path d="m59.82 71.82h6.18a1.19 1.19 0 0 0 1.18-1.2v-3.62h4.77v3.66a6 6 0 0 1 -5.93 6h-6.08c0-1.61-.08-3.23-.12-4.84z" fill="#f2c516"/><g fill="#3d3d3d"><path d="m47.65 57.27v3.57a10.9 10.9 0 0 0 10.78 11h1.41c0 1.61.12 3.23.08 4.85h-1.49a15.68 15.68 0 0 1 -15.52-15.84v-3.57z"/><path d="m77.8 61.51a5.31 5.31 0 0 1 -1.28 6.32c-1.84 1.64-4.26 1.84-6.6 1.82s-4.6-.23-6.48-1.74a5.52 5.52 0 0 1 -1.91-5.82 2.3 2.3 0 1 1 4.47 1.25c-.2.63-.07-.27-.07.36 0-.41.15.32 0 0a1.71 1.71 0 0 0 .55.7 5.07 5.07 0 0 0 2.87.57 10.53 10.53 0 0 0 3.54-.27 1.86 1.86 0 0 0 .83-.56c.11-.11 0-.57.16-.27a2.43 2.43 0 0 1 .81-3.19 2.27 2.27 0 0 1 3.14.82z"/><path d="m43.19 7.92 5.81 4.92a1 1 0 0 1 .37.78v1.38a.47.47 0 0 1 -.47.47h-.76a1 1 0 0 0 0 2h.76a.47.47 0 0 1 .47.47v.39a.48.48 0 0 1 -.47.48h-.71a1 1 0 0 0 0 2h.71a.47.47 0 0 1 .47.48v.34a.47.47 0 0 1 -.47.47h-.66a1 1 0 0 0 0 2.05h.66a.47.47 0 0 1 .47.47v1.3a1 1 0 0 1 -1 1h-5.81a1 1 0 0 1 -1-1v-17.29a1 1 0 0 1 1.63-.71z"/></g></svg>