<svg viewBox="0 0 157 180" xmlns="http://www.w3.org/2000/svg"><path d="m100.79 54.2h1.81v5.58h-1.81z" fill="#b4b5b5" transform="matrix(.99978432 -.02076792 .02076792 .99978432 -1.16 2.13)"/><path d="m101.7 54.21h.9v5.56h-.9z" fill="#c8c8c9" transform="matrix(.99978068 -.02094242 .02094242 .99978068 -1.17 2.15)"/><path d="m104.18 69.67a2.23 2.23 0 1 1 -4.46.07l-.14-8.74a2.23 2.23 0 1 1 4.46-.06z" fill="#ffa900" fill-rule="evenodd"/><path d="m104.18 69.67a1.82 1.82 0 1 1 -3.56.07l-.13-8.74a1.81 1.81 0 1 1 3.55-.06z" fill="#f2cf1c" fill-rule="evenodd"/><path d="m105.38 64.9a1.17 1.17 0 0 0 -1.18-1.18l-4.68.07a1.2 1.2 0 0 0 -1.18 1.21l.06 3.83 7-.11z" fill="#38303b" fill-rule="evenodd"/><path d="m105.38 64.9a1.17 1.17 0 0 0 -1-1.16h-3.57a1.19 1.19 0 0 0 -1.13 1.26l.06 3.81 5.7-.09z" fill="#3d3d3d" fill-rule="evenodd"/><path d="m99.38 61.56 5-.07a1.66 1.66 0 0 0 -.05-3.31l-5 .07a1.66 1.66 0 1 0 0 3.31" fill="#38303b" fill-rule="evenodd"/><path d="m104.64 58.2h-3.62a1.66 1.66 0 0 0 -.24 3.29h3.62a1.66 1.66 0 0 0 .24-3.29" fill="#444243" fill-rule="evenodd"/><path d="m74.2 54.2h1.81v5.58h-1.81z" fill="#b4b5b5" transform="matrix(.99978432 -.02076792 .02076792 .99978432 -1.17 1.58)"/><path d="m75.1 54.21h.9v5.56h-.9z" fill="#c8c8c9" transform="matrix(.99978068 -.02094242 .02094242 .99978068 -1.17 1.59)"/><g fill-rule="evenodd"><path d="m77.58 69.67a2.23 2.23 0 1 1 -4.46.07l-.12-8.74a2.23 2.23 0 1 1 4.46-.06z" fill="#ffa900"/><path d="m77.58 69.67a2.23 2.23 0 0 1 -1.78 2.22 2.22 2.22 0 0 1 -1.8-2.15l-.11-8.74a2.23 2.23 0 0 1 1.78-2.21 2.23 2.23 0 0 1 1.78 2.15z" fill="#f2cf1c"/><path d="m78.78 64.9a1.17 1.17 0 0 0 -1.18-1.18l-4.67.07a1.2 1.2 0 0 0 -1.18 1.21l.06 3.83 7-.11z" fill="#38303b"/><path d="m78.78 64.9a1.17 1.17 0 0 0 -1-1.16h-3.56a1.2 1.2 0 0 0 -1.14 1.26l.06 3.81 5.7-.09z" fill="#3d3d3d"/><path d="m72.79 61.56 5-.07a1.66 1.66 0 0 0 0-3.31l-5 .07a1.66 1.66 0 1 0 .05 3.31" fill="#38303b"/><path d="m78 58.2h-3.62a1.66 1.66 0 0 0 -.24 3.29h3.62a1.66 1.66 0 0 0 .24-3.29" fill="#444243"/><path d="m90.19 131.94v-52.09a11.67 11.67 0 0 1 11.53-11.67h.15a11.68 11.68 0 0 1 11.67 11.68v52.09h-23.35z" fill="#ffa900"/><path d="m104 68.36a11.68 11.68 0 0 1 9.59 11.49v52.09h-19.28v-52.09a11.67 11.67 0 0 1 9.69-11.49" fill="#fc0"/><path d="m90.19 139.22v-7.28h23.35v7.28a6.8 6.8 0 0 1 -6.8 6.81h-9.74a6.81 6.81 0 0 1 -6.81-6.81" fill="#38303b"/><path d="m94.31 131.94h19.23v7.28a6.8 6.8 0 0 1 -6.8 6.81h-5.63a6.8 6.8 0 0 1 -6.8-6.81z" fill="#3d3d3d"/><path d="m63.59 131.94v-52.09a11.67 11.67 0 0 1 11.53-11.67h.15a11.68 11.68 0 0 1 11.73 11.67v52.09z" fill="#ffa900"/><path d="m77.35 68.36a11.68 11.68 0 0 1 9.65 11.49v52.09h-19.29v-52.09a11.67 11.67 0 0 1 9.64-11.49" fill="#fc0"/><path d="m63.59 139.22v-7.28h23.41v7.28a6.81 6.81 0 0 1 -6.86 6.78h-9.74a6.81 6.81 0 0 1 -6.81-6.81" fill="#38303b"/><path d="m67.71 131.94h19.29v7.28a6.81 6.81 0 0 1 -6.86 6.78h-5.62a6.81 6.81 0 0 1 -6.81-6.81z" fill="#3d3d3d"/></g><path d="m63.59 89.32h23.35v3.56h-23.35z" fill="#ffa900"/><path d="m63.59 89.32h23.35v1.78h-23.35z" fill="#ffa900"/><path d="m67.71 89.32h19.24v3.56h-19.24z" fill="#ffa900"/><path d="m67.71 89.32h19.24v1.78h-19.24z" fill="#ffa900"/><path d="m90.19 89.32h23.35v3.56h-23.35z" fill="#ffa900"/><path d="m90.19 89.32h23.35v1.78h-23.35z" fill="#ffa900"/><path d="m94.31 89.32h19.24v3.56h-19.24z" fill="#ffa900"/><path d="m94.31 89.32h19.24v1.78h-19.24z" fill="#ffa900"/><path d="m61.29 87.54h54.46v3.56h-54.46z" fill="#c2c6c9"/><path d="m61.29 87.54h54.46v1.78h-54.46z" fill="#d8dae6"/><path d="m63.59 117.48h23.35v3.56h-23.35z" fill="#ffa900"/><path d="m63.59 117.48h23.35v1.78h-23.35z" fill="#ffa900"/><path d="m67.71 117.48h19.24v3.56h-19.24z" fill="#ffa900"/><path d="m67.71 117.48h19.24v1.78h-19.24z" fill="#ffa900"/><path d="m90.19 117.48h23.35v3.56h-23.35z" fill="#ffa900"/><path d="m90.19 117.48h23.35v1.78h-23.35z" fill="#ffa900"/><path d="m94.31 117.48h19.24v3.56h-19.24z" fill="#ffa900"/><path d="m94.31 117.48h19.24v1.78h-19.24z" fill="#ffa900"/><path d="m61.29 115.69h54.46v3.56h-54.46z" fill="#c2c6c9"/><path d="m61.29 115.69h54.46v1.78h-54.46z" fill="#d8dae6"/><path d="m109 157.5v-14h-11v-10l-21 3v21z" fill="#004a86" stroke="#004a86" stroke-miterlimit="10"/><path d="m99.5 152h30v13h-30z" fill="#fc0" transform="matrix(0 -1 1 0 -44 273)"/><path d="m37 134.5v14h46v-15z" fill="#004a86" stroke="#004a86" stroke-miterlimit="10"/><path d="m22 128.5h29v13h-29z" fill="#fc0" transform="matrix(0 -1 1 0 -98.5 171.5)"/><path d="m59 89.5.5 46.5h39v-45c8.5-14.5 38.5-.5 38.5-.5l6-12c-27-18-46-6-46-6l-2 1h-1l-30.5.5-5 1s-22.5 8.5-40.5-6.5l-8 12s28.79 20 49.5 11.5" fill="#f9d0a7"/><circle cx="145.5" cy="87" fill="#f9d0a7" r="9.5"/><circle cx="11.5" cy="72" fill="#f9d0a7" r="9.5"/><path d="m58.13 89.17.5 46.5h39v-45c11.87-11.67 29.87-3.67 29.87-3.67l9-12c-19-12-40.37-2.83-40.37-2.83l-2 1h-1l-30.5.5-5 1s-9.13 6.33-29.13-.67l-7 13s23 12 37.13 4.67" fill="#004a86" stroke="#004a86" stroke-miterlimit="10"/><path d="m83 74.52-8 2c-.21.69-.17 6.88.46 6.52l23.54-10.54z" fill="#51b3ff"/><path d="m75.46 76-8-1.5-6 .5 14 8c.28.18.16-6.7 0-7z" fill="#51b3ff"/><ellipse cx="78.39" cy="44.64" fill="#f9d0a7" rx="32.39" ry="32.14"/><circle cx="109.05" cy="51.28" fill="#f9d0a7" r="6.45"/><path d="m46.64 39.81c.5-5.47 1.36-6.81 2.26-11.81a1.09 1.09 0 0 1 .58-.78l22.76-11.57a1 1 0 0 1 .63-.11l22.37 2.81h10.3a1.09 1.09 0 0 1 .81 1.81 1.08 1.08 0 0 0 .24 1.64c2 1.21 5.73 4.39 3.93 10.72a1.17 1.17 0 0 1 -.09.24c-.44.8.73 4.45-.47 17.23a1.37 1.37 0 0 1 -2.71.15c-2.11-10.14-9.64-21.74-14.07-25.72a1.06 1.06 0 0 0 -.92-.23l-39.75 5.43a1.08 1.08 0 0 0 -.51.26c-.54.51-1.72 5.17-2.76 10.3a1.31 1.31 0 0 1 -2.6-.37z" fill="#d1a44a"/><path d="m77.41 35.32c2.59-.17 22.91-3.74 28.59-13.82 0 0-6-17-23-20 0 0-10.46-1.7-23.2 7.7-.37.28-5.86 6.35-6.12 6.73-1.92 2.73-6.2 9.82-11.94 11.87a.3.3 0 0 0 .06.58c5 .54 21 2 29.24-.84l-9.36 5.22a.2.2 0 0 0 .1.38c4.14-.39 20.88-2 23.17-3.79l-7.6 5.79a.1.1 0 0 0 .06.18z" fill="#ddae47"/><rect fill="#38303b" height="5.96" rx="2.5" transform="matrix(.98771563 -.15626208 .15626208 .98771563 -5.4 16.57)" width="22" x="91.64" y="39.67"/><path d="m68.78 47.49h11.42v8.94a1.4 1.4 0 0 1 -1.59 1.41c-2.55-.12-5.1 0-7.14 1.91a3.9 3.9 0 0 1 -2.67.92 4 4 0 0 1 -2.68-.92c-2-1.91-4.59-2-7.14-1.91a1.42 1.42 0 0 1 -1.59-1.41v-8.94z" fill="#38303b"/><path d="m50 41.62a1.92 1.92 0 0 1 -1.91-1.91v-.41a11 11 0 0 1 2.32-7l1.37-1.6a2.85 2.85 0 0 1 2-1.08h.13l8.49-.83h12.76l8.49.83h.13a2.79 2.79 0 0 1 2 1.08l1.38 1.6a11.08 11.08 0 0 1 2.31 7v.39a1.92 1.92 0 0 1 -1.91 1.91h-37.56z" fill="#38303b"/><path d="m46.53 36 1.65-1.37a4 4 0 0 1 2.5-.9l10.46-.73a7.71 7.71 0 0 1 3.24.73l2.14 1a5.27 5.27 0 0 0 4.46 0l2.15-1a7.66 7.66 0 0 1 3.23-.73l10.49.73a3.91 3.91 0 0 1 2.5.9l1.65 1.37a7.74 7.74 0 0 1 2.79 5.94v6.79a7.71 7.71 0 0 1 -3.43 6.41l-.47.32a6.52 6.52 0 0 1 -3.6 1.1l-8.29-.73h-.25a6.33 6.33 0 0 1 -5.15-3.13l-1.65-2.77a2.55 2.55 0 0 0 -4.39 0l-1.66 2.77a6.36 6.36 0 0 1 -5.15 3.13h-.26l-8.29.73a6.49 6.49 0 0 1 -3.6-1.1l-.47-.32a7.68 7.68 0 0 1 -3.43-6.41v-6.79a7.91 7.91 0 0 1 2.83-5.94z" fill="#fc0"/><path d="m86.42 53.86a3.7 3.7 0 0 0 2-.65l.47-.32a5 5 0 0 0 2.23-4.18v-6.79a5 5 0 0 0 -1.81-3.92l-1.65-1.37a1.23 1.23 0 0 0 -.81-.3h-.09l-10.44-.71a5.05 5.05 0 0 0 -2 .47l-2.15 1a8 8 0 0 1 -6.77 0l-2.15-1a4.9 4.9 0 0 0 -2-.47l-10.44.71h-.08a1.26 1.26 0 0 0 -.82.3l-1.67 1.37a5 5 0 0 0 -1.82 3.88v6.81a5 5 0 0 0 2.23 4.18l.47.33a3.8 3.8 0 0 0 2 .64l8.28-.71h.28a3.64 3.64 0 0 0 2.93-1.82l1.65-2.77a5.23 5.23 0 0 1 9 0l1.65 2.77a3.64 3.64 0 0 0 2.93 1.82h.26z" fill="#d5f2f5"/><circle cx="55.06" cy="45.17" r="1.5"/><circle cx="78.06" cy="45.17" r="1.5"/><path d="m61.55 62.63c0 3.21 3.35 5.81 7.5 5.81s7.5-2.6 7.5-5.81-3.86-1.5-8-1.5-7-1.71-7 1.5z" fill="#fff"/><path d="m41.89 24.24h4.76v33h-4.76z" fill="#f2c516"/><path d="m58.82 71.82h6.18a1.19 1.19 0 0 0 1.18-1.2v-3.62h4.77v3.66a6 6 0 0 1 -5.93 6h-6.08c0-1.61-.08-3.23-.12-4.84z" fill="#f2c516"/><path d="m46.65 57.27v3.57a10.9 10.9 0 0 0 10.78 11h1.41c0 1.61.12 3.23.08 4.85h-1.49a15.68 15.68 0 0 1 -15.52-15.84v-3.57z" fill="#3d3d3d"/><path d="m76.8 61.51a5.31 5.31 0 0 1 -1.28 6.32c-1.84 1.64-4.26 1.84-6.6 1.82s-4.6-.23-6.48-1.74a5.52 5.52 0 0 1 -1.91-5.82 2.3 2.3 0 1 1 4.47 1.25c-.2.63-.07-.27-.07.36 0-.41.15.32 0 0a1.71 1.71 0 0 0 .55.7 5.07 5.07 0 0 0 2.87.57 10.53 10.53 0 0 0 3.54-.27 1.86 1.86 0 0 0 .83-.56c.11-.11 0-.57.16-.27a2.43 2.43 0 0 1 .81-3.19 2.27 2.27 0 0 1 3.14.82z" fill="#3d3d3d"/><path d="m42.19 7.92 5.81 4.92a1 1 0 0 1 .37.78v1.38a.47.47 0 0 1 -.47.47h-.76a1 1 0 0 0 0 2h.76a.47.47 0 0 1 .47.47v.39a.48.48 0 0 1 -.47.48h-.71a1 1 0 0 0 0 2h.71a.47.47 0 0 1 .47.48v.34a.47.47 0 0 1 -.47.47h-.66a1 1 0 0 0 0 2.05h.66a.47.47 0 0 1 .47.47v1.3a1 1 0 0 1 -1 1h-5.81a1 1 0 0 1 -1-1v-17.29a1 1 0 0 1 1.63-.71z" fill="#3d3d3d"/><path d="m51.39 54.09a3.57 3.57 0 0 1 -2-.68l-.48-.34a5.52 5.52 0 0 1 -2.23-4.46v-7.23a5.53 5.53 0 0 1 1.83-4.14l1.65-1.46a1.23 1.23 0 0 1 .81-.32h.09l10.44-.75a4.81 4.81 0 0 1 2 .5l2.14 1.1a7.58 7.58 0 0 0 6.78 0l2.14-1.1a4.67 4.67 0 0 1 2-.5l10.44.75h.08a1.28 1.28 0 0 1 .82.32l1.65 1.46a5.56 5.56 0 0 1 1.82 4.14v7.26a5.43 5.43 0 0 1 -2.23 4.45l-.47.34a3.69 3.69 0 0 1 -2 .69l-8.27-.76h-.28a3.64 3.64 0 0 1 -2.94-1.94l-1.65-2.94a5.07 5.07 0 0 0 -9 0l-1.65 2.94a3.63 3.63 0 0 1 -2.94 1.94h-.25z" fill="#f9d0a7"/><rect fill="#b79274" height="2" rx="1" width="21" x="45.67" y="44.71"/><rect fill="#b79274" height="2" rx="1" width="27" x="65.67" y="44.71"/><path d="m91.31 35.49-1.65-1.37a4 4 0 0 0 -2.51-.9l-10.46-.73a7.66 7.66 0 0 0 -3.23.73l-2.15 1a5.27 5.27 0 0 1 -4.46 0l-2.14-1a7.71 7.71 0 0 0 -3.24-.73l-10.47.73a4 4 0 0 0 -2.51.9l-1.65 1.37a7.75 7.75 0 0 0 -2.78 5.94v6.79a7.68 7.68 0 0 0 3.43 6.41l.51.37a6.49 6.49 0 0 0 3.6 1.1l8.3-.73h.25a6.36 6.36 0 0 0 5.15-3.13l1.65-2.77a2.55 2.55 0 0 1 4.39 0l1.65 2.77a6.34 6.34 0 0 0 5.15 3.13h.25l8.3.73a6.49 6.49 0 0 0 3.6-1.1l.47-.32a7.68 7.68 0 0 0 3.43-6.41v-6.84a7.9 7.9 0 0 0 -2.88-5.94zm-39.89 17.86a3.78 3.78 0 0 1 -2-.65l-.48-.32a5.05 5.05 0 0 1 -2.22-4.18v-6.79a5 5 0 0 1 1.82-3.88l1.65-1.37a1.21 1.21 0 0 1 .81-.3h.09l10.44-.71a5.09 5.09 0 0 1 2 .47l2.15 1a8 8 0 0 0 3.38.75 8.1 8.1 0 0 0 3.39-.75l2.14-1a5 5 0 0 1 2-.47l10.44.71h.08a1.26 1.26 0 0 1 .82.3l1.65 1.37a5 5 0 0 1 1.82 3.88v6.81a5 5 0 0 1 -2.23 4.18l-.47.32a3.73 3.73 0 0 1 -2 .65l-8.27-.71h-.28a3.67 3.67 0 0 1 -2.94-1.82l-1.65-2.77a5.22 5.22 0 0 0 -9 0l-1.65 2.77a3.65 3.65 0 0 1 -2.91 1.82h-.25z" fill="#fc0"/></svg>