<svg viewBox="0 0 157 180" xmlns="http://www.w3.org/2000/svg"><path d="m52.51 57.09h5.58v1.81h-5.58z" fill="#b4b5b5" transform="matrix(.02076792 -.99978432 .99978432 .02076792 -3.83 112.08)"/><path d="m52.07 57.54h5.56v.9h-5.56z" fill="#c8c8c9" transform="matrix(.02094242 -.99978068 .99978068 .02094242 -4.28 111.62)"/><path d="m52.82 70.67a2.23 2.23 0 1 0 4.46.07l.14-8.74a2.23 2.23 0 1 0 -4.42-.08z" fill="#ffa900" fill-rule="evenodd"/><path d="m52.82 70.67a2.24 2.24 0 0 0 1.78 2.22 2.24 2.24 0 0 0 1.78-2.15l.13-8.74a2.22 2.22 0 0 0 -1.78-2.21 2.21 2.21 0 0 0 -1.73 2.13z" fill="#f2cf1c" fill-rule="evenodd"/><path d="m51.62 65.9a1.17 1.17 0 0 1 1.18-1.18l4.68.07a1.2 1.2 0 0 1 1.18 1.21l-.06 3.83-7-.11z" fill="#38303b" fill-rule="evenodd"/><path d="m51.62 65.9a1.17 1.17 0 0 1 1-1.16l3.57.05a1.19 1.19 0 0 1 1.13 1.21l-.06 3.81-5.7-.09z" fill="#3d3d3d" fill-rule="evenodd"/><path d="m57.62 62.56-5-.07a1.66 1.66 0 1 1 0-3.31l5 .07a1.66 1.66 0 1 1 -.05 3.31" fill="#38303b" fill-rule="evenodd"/><path d="m52.36 59.2h3.62a1.66 1.66 0 0 1 .24 3.29h-3.62a1.66 1.66 0 0 1 -.24-3.29" fill="#444243" fill-rule="evenodd"/><path d="m79.11 57.09h5.58v1.81h-5.58z" fill="#b4b5b5" transform="matrix(.02076792 -.99978432 .99978432 .02076792 22.21 138.67)"/><path d="m78.67 57.54h5.56v.9h-5.56z" fill="#c8c8c9" transform="matrix(.02094242 -.99978068 .99978068 .02094242 21.76 138.21)"/><g fill-rule="evenodd"><path d="m79.42 70.67a2.23 2.23 0 1 0 4.46.07l.12-8.74a2.23 2.23 0 1 0 -4.46-.06z" fill="#ffa900"/><path d="m79.42 70.67a2.23 2.23 0 0 0 1.78 2.22 2.22 2.22 0 0 0 1.8-2.15l.11-8.74a2.23 2.23 0 0 0 -1.78-2.21 2.23 2.23 0 0 0 -1.78 2.15z" fill="#f2cf1c"/><path d="m78.22 65.9a1.17 1.17 0 0 1 1.18-1.18l4.67.07a1.2 1.2 0 0 1 1.18 1.21l-.06 3.83-7-.11z" fill="#38303b"/><path d="m78.22 65.9a1.17 1.17 0 0 1 1-1.16l3.56.05a1.2 1.2 0 0 1 1.14 1.21l-.06 3.81-5.7-.09z" fill="#3d3d3d"/><path d="m84.21 62.56-5-.07a1.66 1.66 0 0 1 0-3.31l5 .07a1.66 1.66 0 0 1 -.05 3.31" fill="#38303b"/><path d="m79 59.2h3.62a1.66 1.66 0 0 1 .24 3.29h-3.62a1.66 1.66 0 0 1 -.24-3.29" fill="#444243"/><path d="m66.81 132.94v-52.09a11.67 11.67 0 0 0 -11.53-11.67h-.15a11.68 11.68 0 0 0 -11.67 11.67v52.09z" fill="#ffa900"/><path d="m53.05 69.36a11.68 11.68 0 0 0 -9.59 11.49v52.09h19.23v-52.09a11.67 11.67 0 0 0 -9.64-11.49" fill="#fc0"/><path d="m66.81 140.22v-7.28h-23.35v7.28a6.8 6.8 0 0 0 6.8 6.81h9.74a6.81 6.81 0 0 0 6.81-6.81" fill="#38303b"/><path d="m62.69 132.94h-19.23v7.28a6.8 6.8 0 0 0 6.8 6.81h5.63a6.8 6.8 0 0 0 6.8-6.81z" fill="#3d3d3d"/><path d="m93.41 132.94v-52.09a11.67 11.67 0 0 0 -11.53-11.67h-.15a11.68 11.68 0 0 0 -11.68 11.67v52.09z" fill="#ffa900"/><path d="m79.65 69.36a11.68 11.68 0 0 0 -9.6 11.49v52.09h19.24v-52.09a11.67 11.67 0 0 0 -9.64-11.49" fill="#fc0"/><path d="m93.41 140.22v-7.28h-23.36v7.28a6.81 6.81 0 0 0 6.81 6.78h9.74a6.81 6.81 0 0 0 6.81-6.81" fill="#38303b"/><path d="m89.29 132.94h-19.24v7.28a6.81 6.81 0 0 0 6.81 6.78h5.62a6.81 6.81 0 0 0 6.81-6.81z" fill="#3d3d3d"/></g><g fill="#ffa900"><path d="m70.05 90.32h23.35v3.56h-23.35z"/><path d="m70.05 90.32h23.35v1.78h-23.35z"/><path d="m70.05 90.32h19.24v3.56h-19.24z"/><path d="m70.05 90.32h19.24v1.78h-19.24z"/><path d="m43.46 90.32h23.35v3.56h-23.35z"/><path d="m43.46 90.32h23.35v1.78h-23.35z"/><path d="m43.46 90.32h19.24v3.56h-19.24z"/><path d="m43.46 90.32h19.24v1.78h-19.24z"/></g><path d="m41.25 88.54h54.46v3.56h-54.46z" fill="#c2c6c9"/><path d="m41.25 88.54h54.46v1.78h-54.46z" fill="#d8dae6"/><path d="m70.05 118.48h23.35v3.56h-23.35z" fill="#ffa900"/><path d="m70.05 118.48h23.35v1.78h-23.35z" fill="#ffa900"/><path d="m70.05 118.48h19.24v3.56h-19.24z" fill="#ffa900"/><path d="m70.05 118.48h19.24v1.78h-19.24z" fill="#ffa900"/><path d="m43.46 118.48h23.35v3.56h-23.35z" fill="#ffa900"/><path d="m43.46 118.48h23.35v1.78h-23.35z" fill="#ffa900"/><path d="m43.46 118.48h19.24v3.56h-19.24z" fill="#ffa900"/><path d="m43.46 118.48h19.24v1.78h-19.24z" fill="#ffa900"/><path d="m41.25 116.69h54.46v3.56h-54.46z" fill="#c2c6c9"/><path d="m41.25 116.69h54.46v1.78h-54.46z" fill="#d8dae6"/><path d="m48 158.5v-14h11v-10l21 3v21z" fill="#004a86" stroke="#004a86" stroke-miterlimit="10"/><path d="m27.5 153h30v13h-30z" fill="#fc0" transform="matrix(0 -1 1 0 -117 202)"/><path d="m120 135.5v14h-46v-15z" fill="#004a86" stroke="#004a86" stroke-miterlimit="10"/><path d="m106 129.5h29v13h-29z" fill="#fc0" transform="matrix(0 -1 1 0 -15.5 256.5)"/><path d="m98 90.5-.5 46.5h-39v-45c-8.5-14.5-38.5-.5-38.5-.5l-6-12c27-18 46-6 46-6l2 1h1l30.5.5 5 1s22.5 8.5 40.5-6.5l8 12s-28.79 20-49.5 11.5" fill="#f9d0a7"/><circle cx="11.5" cy="88" fill="#f9d0a7" r="9.5"/><circle cx="145.5" cy="73" fill="#f9d0a7" r="9.5"/><path d="m98.87 90.17-.5 46.5h-39v-45c-11.87-11.67-29.87-3.67-29.87-3.67l-9-12c19-12 40.37-2.83 40.37-2.83l2 1h1l30.5.5 5 1s9.13 6.33 29.13-.67l7 13s-23 12-37.13 4.67" fill="#004a86" stroke="#004a86" stroke-miterlimit="10"/><path d="m74 75.52 8 2c.21.69.17 6.88-.46 6.52l-23.54-10.54z" fill="#51b3ff"/><path d="m81.54 77 8-1.5 6 .5-14 8c-.28.18-.16-6.7 0-7z" fill="#51b3ff"/><ellipse cx="78.61" cy="45.64" fill="#f9d0a7" rx="32.39" ry="32.14"/><circle cx="47.95" cy="52.28" fill="#f9d0a7" r="6.45"/><path d="m110.36 40.81c-.5-5.47-1.36-6.81-2.26-11.81a1.09 1.09 0 0 0 -.58-.78l-22.76-11.57a1 1 0 0 0 -.63-.11l-22.37 2.81h-10.3a1.09 1.09 0 0 0 -.81 1.81 1.08 1.08 0 0 1 -.24 1.64c-2 1.21-5.73 4.39-3.93 10.72a1.17 1.17 0 0 0 .09.24c.44.8-.73 4.45.47 17.23a1.37 1.37 0 0 0 2.71.15c2.11-10.14 9.64-21.74 14.07-25.72a1.06 1.06 0 0 1 .92-.23l39.75 5.43a1.08 1.08 0 0 1 .51.26c.54.51 1.72 5.17 2.76 10.3a1.31 1.31 0 0 0 2.6-.37z" fill="#d1a44a"/><path d="m79.59 36.32c-2.59-.17-22.91-3.74-28.59-13.82 0 0 6-17 23-20 0 0 10.46-1.7 23.2 7.7.37.28 5.86 6.35 6.12 6.73 1.92 2.73 6.2 9.82 11.94 11.87a.3.3 0 0 1 -.06.58c-5 .54-21 2-29.24-.84l9.36 5.22a.2.2 0 0 1 -.1.38c-4.14-.39-20.88-2-23.17-3.79l7.6 5.79a.1.1 0 0 1 -.06.18z" fill="#ddae47"/><rect fill="#38303b" height="22" rx="2.5" transform="matrix(.15626208 -.98771563 .98771563 .15626208 2.76 90.52)" width="5.96" x="51.38" y="32.65"/><path d="m88.22 48.49h-11.42v8.94a1.4 1.4 0 0 0 1.59 1.41c2.55-.12 5.1 0 7.14 1.91a3.9 3.9 0 0 0 2.67.92 4 4 0 0 0 2.68-.92c2-1.91 4.59-2 7.14-1.91a1.42 1.42 0 0 0 1.59-1.41v-8.94z" fill="#38303b"/><path d="m107 42.62a1.92 1.92 0 0 0 1.91-1.91v-.41a11 11 0 0 0 -2.32-7l-1.37-1.6a2.85 2.85 0 0 0 -2-1.08h-.13l-8.49-.83h-12.76l-8.49.83h-.13a2.79 2.79 0 0 0 -2 1.08l-1.38 1.6a11.08 11.08 0 0 0 -2.31 7v.39a1.92 1.92 0 0 0 1.91 1.91h37.56z" fill="#38303b"/><path d="m110.47 37-1.65-1.37a4 4 0 0 0 -2.5-.9l-10.46-.73a7.71 7.71 0 0 0 -3.24.73l-2.14 1a5.27 5.27 0 0 1 -4.46 0l-2.15-1a7.66 7.66 0 0 0 -3.23-.73l-10.49.73a3.91 3.91 0 0 0 -2.5.9l-1.65 1.37a7.74 7.74 0 0 0 -2.79 5.94v6.79a7.71 7.71 0 0 0 3.43 6.41l.47.32a6.52 6.52 0 0 0 3.6 1.1l8.3-.73h.25a6.33 6.33 0 0 0 5.15-3.13l1.65-2.77a2.55 2.55 0 0 1 4.39 0l1.65 2.77a6.36 6.36 0 0 0 5.15 3.13h.26l8.29.73a6.49 6.49 0 0 0 3.6-1.1l.47-.32a7.68 7.68 0 0 0 3.43-6.41v-6.79a7.91 7.91 0 0 0 -2.83-5.94z" fill="#fc0"/><path d="m70.58 54.86a3.7 3.7 0 0 1 -2-.65l-.47-.32a5 5 0 0 1 -2.23-4.18v-6.79a5 5 0 0 1 1.81-3.92l1.65-1.37a1.23 1.23 0 0 1 .81-.3h.09l10.44-.71a5.05 5.05 0 0 1 2 .47l2.15 1a8 8 0 0 0 6.77 0l2.15-1a4.9 4.9 0 0 1 2-.47l10.44.71h.08a1.26 1.26 0 0 1 .82.3l1.67 1.37a5 5 0 0 1 1.82 3.88v6.81a5 5 0 0 1 -2.23 4.18l-.47.33a3.8 3.8 0 0 1 -2 .64l-8.28-.71h-.28a3.64 3.64 0 0 1 -2.93-1.82l-1.65-2.77a5.23 5.23 0 0 0 -9 0l-1.65 2.77a3.64 3.64 0 0 1 -2.93 1.82h-.26z" fill="#d5f2f5"/><circle cx="101.94" cy="46.17" r="1.5"/><circle cx="78.94" cy="46.17" r="1.5"/><path d="m95.45 63.63c0 3.21-3.35 5.81-7.5 5.81s-7.5-2.6-7.5-5.81 3.86-1.5 8-1.5 7-1.71 7 1.5z" fill="#fff"/><path d="m115.11 25.24h-4.76v33h4.76z" fill="#f2c516"/><path d="m98.18 72.82h-6.18a1.19 1.19 0 0 1 -1.18-1.2v-3.62h-4.75v3.66a6 6 0 0 0 5.93 6h6.06c0-1.61.08-3.23.12-4.84z" fill="#f2c516"/><path d="m110.35 58.27v3.57a10.9 10.9 0 0 1 -10.78 11h-1.41c0 1.61-.12 3.23-.08 4.85h1.49a15.68 15.68 0 0 0 15.52-15.82v-3.59z" fill="#3d3d3d"/><path d="m80.2 62.51a5.31 5.31 0 0 0 1.28 6.32c1.84 1.64 4.26 1.84 6.6 1.82s4.6-.23 6.48-1.74a5.52 5.52 0 0 0 1.91-5.82 2.3 2.3 0 1 0 -4.42 1.25c.2.63.07-.27.07.36 0-.41-.15.32 0 0a1.71 1.71 0 0 1 -.55.7 5.07 5.07 0 0 1 -2.87.57 10.53 10.53 0 0 1 -3.54-.27 1.86 1.86 0 0 1 -.83-.56c-.11-.11 0-.57-.16-.27a2.43 2.43 0 0 0 -.81-3.19 2.27 2.27 0 0 0 -3.14.82z" fill="#3d3d3d"/><path d="m114.81 8.92-5.81 4.92a1 1 0 0 0 -.37.78v1.38a.47.47 0 0 0 .47.47h.76a1 1 0 0 1 0 2h-.76a.47.47 0 0 0 -.47.47v.39a.48.48 0 0 0 .47.48h.71a1 1 0 0 1 0 2h-.71a.47.47 0 0 0 -.47.48v.34a.47.47 0 0 0 .47.47h.66a1 1 0 0 1 0 2.05h-.66a.47.47 0 0 0 -.47.47v1.3a1 1 0 0 0 1 1h5.79a1 1 0 0 0 1-1v-17.29a1 1 0 0 0 -1.61-.71z" fill="#3d3d3d"/></svg>