<svg viewBox="0 0 157 180" xmlns="http://www.w3.org/2000/svg"><path d="m63.09 133h14.35v40h-14.35z" fill="#004a86" stroke="#004a86" stroke-miterlimit="10"/><path d="m62.58 160.5h30.74v13h-30.74z" fill="#fc0"/><path d="m88.71 134h14.35v39h-14.35z" fill="#004a86" stroke="#004a86" stroke-miterlimit="10"/><path d="m87.5 160.5h29.72v13h-29.72z" fill="#fc0"/><path d="m103.06 92v44h-40v-45c-6.66 17.5 2.56 41.5 2.56 41.5l-15.37 5c-18.41-56 12.84-63.5 12.84-63.5h35.91l5.12 1 3.59.5s1 38 20.5 42l-9.23 10s-18.44-1-15.88-35.5" fill="#f9d0a7" stroke="#f9d0a7" stroke-miterlimit="10"/><ellipse cx="128.68" cy="127" fill="#f9d0a7" rx="9.74" ry="9.5"/><path d="m102.73 92.13.65 44.87-40.61-.87v-45c-5.5 17.87 2.7 33.87 2.7 33.87l-18.47 1c-12.28-44 15.77-51.87 15.77-51.87h35.86l5.13 1 4.61.5s1.16 25.37 12.43 37.37l-9.22 12s-9.22-2-8.85-32.87" fill="#004a86" stroke="#004a86" stroke-miterlimit="10"/><ellipse cx="58.99" cy="137" fill="#f9d0a7" rx="9.74" ry="9.5"/><path d="m79.34 74.52 8.16 2c.21.69.17 6.88-.47 6.52l-22.03-9.54z" fill="#51b3ff"/><path d="m87 76 8.2-1.5 6.15.5-14.35 8c-.26.18-.14-6.7 0-7z" fill="#51b3ff"/><ellipse cx="83.7" cy="44.64" fill="#f9d0a7" rx="33.19" ry="32.14"/><ellipse cx="52.28" cy="51.28" fill="#f9d0a7" rx="6.61" ry="6.45"/><path d="m116.24 39.81c-.52-5.47-1.39-6.86-2.32-11.77a1.07 1.07 0 0 0 -.59-.78l-23.33-11.61a1.13 1.13 0 0 0 -.65-.11l-22.91 2.81h-10.56a1.09 1.09 0 0 0 -.88 1.82 1.06 1.06 0 0 1 -.23 1.64c-2.06 1.21-5.88 4.39-4 10.72a1.22 1.22 0 0 0 .1.24c.45.8-.75 4.45.48 17.23a1.41 1.41 0 0 0 2.77.15c2.16-10.15 9.88-21.75 14.42-25.73a1.12 1.12 0 0 1 .95-.23l40.73 5.43a1.15 1.15 0 0 1 .53.26c.55.51 1.75 5.17 2.83 10.3a1.35 1.35 0 0 0 2.66-.37z" fill="#d1a44a"/><path d="m84.7 35.32c-2.65-.17-23.47-3.74-29.29-13.82 0 0 6.15-17 23.57-20 0 0 10.72-1.7 23.78 7.7.37.28 6 6.35 6.27 6.73 2 2.73 6.34 9.82 12.23 11.87a.3.3 0 0 1 -.06.58c-5.11.54-21.49 2-30-.84l9.59 5.22a.2.2 0 0 1 -.11.38c-4.24-.39-21.39-2-23.74-3.79l7.79 5.79a.1.1 0 0 1 -.03.18z" fill="#ddae47"/><g fill="#38303b"><path d="m67.3 46.92-17.2-2.66a2.51 2.51 0 0 1 -2.1-2.86l.15-.95a2.56 2.56 0 0 1 2.93-2.07l17.18 2.62a2.52 2.52 0 0 1 2.13 2.86l-.16 1a2.57 2.57 0 0 1 -2.93 2.06z"/><path d="m93.88 47.49h-11.71v8.94a1.42 1.42 0 0 0 1.62 1.41c2.61-.12 5.22 0 7.31 1.91a4.56 4.56 0 0 0 5.49 0c2.09-1.91 4.7-2 7.32-1.91a1.44 1.44 0 0 0 1.63-1.41v-8.94z"/><path d="m113.12 41.62a1.94 1.94 0 0 0 2-1.91v-.41a10.76 10.76 0 0 0 -2.38-7l-1.4-1.6a3 3 0 0 0 -2.07-1.08h-.13l-8.7-.83h-13.11l-8.7.83h-.13a2.89 2.89 0 0 0 -2.06 1.08l-1.44 1.59a10.88 10.88 0 0 0 -2.37 7v.39a1.94 1.94 0 0 0 2 1.91h38.51z"/></g><path d="m116.68 36-1.68-1.37a4.16 4.16 0 0 0 -2.57-.9l-10.73-.73a8.07 8.07 0 0 0 -3.32.73l-2.2 1a5.52 5.52 0 0 1 -4.57 0l-2.19-1a8.07 8.07 0 0 0 -3.32-.73l-10.74.73a4.08 4.08 0 0 0 -2.57.9l-1.69 1.37a7.68 7.68 0 0 0 -2.86 5.94v6.79a7.65 7.65 0 0 0 3.52 6.41l.48.32a6.79 6.79 0 0 0 3.69 1.1l8.5-.73h.27a6.52 6.52 0 0 0 5.3-3.13l1.69-2.77a2.65 2.65 0 0 1 4.5 0l1.69 2.77a6.52 6.52 0 0 0 5.28 3.13h.26l8.5.73a6.79 6.79 0 0 0 3.69-1.1l.48-.32a7.65 7.65 0 0 0 3.52-6.41v-6.79a7.88 7.88 0 0 0 -2.93-5.94z" fill="#fc0"/><path d="m75.8 53.86a3.89 3.89 0 0 1 -2.07-.65l-.48-.32a5 5 0 0 1 -2.25-4.18v-6.79a5 5 0 0 1 1.83-3.92l1.69-1.37a1.31 1.31 0 0 1 .84-.3h.09l10.7-.71a5.33 5.33 0 0 1 2.06.47l2.2 1a8.36 8.36 0 0 0 3.47.75 8.49 8.49 0 0 0 3.47-.75l2.19-1a5.18 5.18 0 0 1 2.07-.47l10.7.71h.09a1.28 1.28 0 0 1 .83.3l1.69 1.37a5 5 0 0 1 1.87 3.88v6.81a5 5 0 0 1 -2.29 4.18l-.48.33a3.94 3.94 0 0 1 -2.06.64l-8.48-.71h-.29a3.76 3.76 0 0 1 -3-1.82l-1.69-2.77a5.43 5.43 0 0 0 -9.23 0l-1.69 2.77a3.76 3.76 0 0 1 -3 1.82h-.28z" fill="#d5f2f5"/><ellipse cx="107.93" cy="45.17" rx="1.54" ry="1.5"/><ellipse cx="84.36" cy="45.17" rx="1.54" ry="1.5"/><path d="m101.29 62.63c0 3.21-3.45 5.81-7.69 5.81s-7.69-2.6-7.69-5.81 4-1.5 8.2-1.5 7.18-1.71 7.18 1.5z" fill="#fff"/><path d="m121.43 24.24h-4.88v33h4.88z" fill="#f2c516"/><path d="m104.08 71.82h-6.32a1.2 1.2 0 0 1 -1.2-1.2v-3.62h-4.89v3.66a6.07 6.07 0 0 0 6.08 6h6.25c0-1.61 0-3.23.08-4.84z" fill="#f2c516"/><path d="m116.55 57.27v3.57a11 11 0 0 1 -11 11h-1.44c0 1.61-.12 3.23-.09 4.85h1.53a15.88 15.88 0 0 0 15.91-15.82v-3.59z" fill="#3d3d3d"/><path d="m85.65 61.51a5.23 5.23 0 0 0 1.35 6.32c1.89 1.64 4.37 1.84 6.77 1.82s4.71-.23 6.64-1.74a5.42 5.42 0 0 0 1.95-5.82 2.37 2.37 0 0 0 -2.89-1.62 2.32 2.32 0 0 0 -1.63 2.87c.2.63.07-.27.07.36 0-.41-.16.32 0 0a1.79 1.79 0 0 1 -.56.7 5.33 5.33 0 0 1 -3 .57 11 11 0 0 1 -3.62-.27 1.87 1.87 0 0 1 -.85-.56c-.12-.11 0-.57-.17-.27a2.35 2.35 0 0 0 -4-2.37z" fill="#3d3d3d"/><path d="m121.12 7.92-5.93 4.92a1 1 0 0 0 -.38.78v1.38a.47.47 0 0 0 .48.47h.78a1 1 0 0 1 0 2h-.78a.48.48 0 0 0 -.48.47v.39a.48.48 0 0 0 .48.48h.71a1 1 0 0 1 0 2h-.73a.48.48 0 0 0 -.48.48v.34a.47.47 0 0 0 .48.47h.73a1 1 0 0 1 0 2.05h-.68a.48.48 0 0 0 -.48.47v1.3a1 1 0 0 0 1 1h5.94a1 1 0 0 0 1-1v-17.29a1 1 0 0 0 -1.66-.71z" fill="#3d3d3d"/></svg>