<svg viewBox="0 0 157 180" xmlns="http://www.w3.org/2000/svg"><path d="m122.41 147.02.08-14-45.44 1.15-.61 13.02z" fill="#004a86" stroke="#004a86" stroke-miterlimit="10"/><path d="m102 126.49h30v13h-30z" fill="#fc0" transform="matrix(-.00558502 .9999844 -.9999844 -.00558502 250.63 16.73)"/><path d="m30.51 133.72-.92 13.97 48.41-.19 1-13z" fill="#004a86" stroke="#004a86" stroke-miterlimit="10"/><path d="m21 127.5h29v13h-29z" fill="#fc0" transform="matrix(0 -1 1 0 -98.5 169.5)"/><g fill="#f9d0a7"><path d="m58.5 92v44h39v-45c17.5-20.5 43.5-12.5 43.5-12.5l5-13a44.49 44.49 0 0 0 -48.5 8.5l-31.5.5h-8s-11-15-46-10l6 14s23-2 40.5 13.5"/><circle cx="147.5" cy="74" r="9.5"/><circle cx="9.5" cy="73" r="9.5"/></g><path d="m58.74 92v44h39v-45c17.76-18 35.76-14 35.76-14l-1-15a43.68 43.68 0 0 0 -34.76 12l-31.5.5h-8s-8.74-9.5-32.74-11.5l2 16s9-2 31.24 13" fill="#004a86" stroke="#004a86" stroke-miterlimit="10"/><path d="m84.48 73.71-8 2c-.21.69-.17 6.88.46 6.51l21.06-8.72z" fill="#51b3ff"/><path d="m77 75.21-8-1.5-6 .5 14 8c.26.17.14-6.71 0-7z" fill="#51b3ff"/><ellipse cx="77.39" cy="44.64" fill="#f9d0a7" rx="32.39" ry="32.14"/><circle cx="108.05" cy="51.28" fill="#f9d0a7" r="6.45"/><path d="m45.64 39.81c.5-5.47 1.36-6.81 2.26-11.81a1.09 1.09 0 0 1 .58-.78l22.76-11.57a1 1 0 0 1 .63-.11l22.37 2.81h10.3a1.09 1.09 0 0 1 .81 1.81 1.08 1.08 0 0 0 .24 1.64c2 1.21 5.73 4.39 3.93 10.72a1.17 1.17 0 0 1 -.09.24c-.44.8.73 4.45-.47 17.23a1.37 1.37 0 0 1 -2.71.15c-2.11-10.14-9.64-21.74-14.07-25.72a1.06 1.06 0 0 0 -.92-.23l-39.75 5.43a1.08 1.08 0 0 0 -.51.26c-.54.51-1.72 5.17-2.76 10.3a1.31 1.31 0 0 1 -2.6-.37z" fill="#d1a44a"/><path d="m76.41 35.32c2.59-.17 22.91-3.74 28.59-13.82 0 0-6-17-23-20 0 0-10.46-1.7-23.2 7.7-.37.28-5.86 6.35-6.12 6.73-1.92 2.73-6.2 9.82-11.94 11.87a.3.3 0 0 0 .06.58c5 .54 21 2 29.24-.84l-9.36 5.22a.2.2 0 0 0 .1.38c4.14-.39 20.88-2 23.17-3.79l-7.6 5.79a.1.1 0 0 0 .06.18z" fill="#ddae47"/><rect fill="#38303b" height="5.96" rx="2.5" transform="matrix(.98771563 -.15626208 .15626208 .98771563 -5.42 16.41)" width="22" x="90.64" y="39.67"/><path d="m67.78 47.49h11.42v8.94a1.4 1.4 0 0 1 -1.59 1.41c-2.55-.12-5.1 0-7.14 1.91a3.9 3.9 0 0 1 -2.67.92 4 4 0 0 1 -2.68-.92c-2-1.91-4.59-2-7.14-1.91a1.42 1.42 0 0 1 -1.59-1.41v-8.94z" fill="#38303b"/><path d="m49 41.62a1.92 1.92 0 0 1 -1.91-1.91v-.41a11 11 0 0 1 2.32-7l1.37-1.6a2.85 2.85 0 0 1 2-1.08h.13l8.49-.83h12.76l8.49.83h.13a2.79 2.79 0 0 1 2 1.08l1.38 1.6a11.08 11.08 0 0 1 2.31 7v.39a1.92 1.92 0 0 1 -1.91 1.91h-37.56z" fill="#38303b"/><path d="m45.53 36 1.65-1.37a4 4 0 0 1 2.5-.9l10.46-.73a7.71 7.71 0 0 1 3.24.73l2.14 1a5.27 5.27 0 0 0 4.46 0l2.15-1a7.66 7.66 0 0 1 3.23-.73l10.49.73a3.91 3.91 0 0 1 2.5.9l1.65 1.37a7.74 7.74 0 0 1 2.79 5.94v6.79a7.71 7.71 0 0 1 -3.43 6.41l-.47.32a6.52 6.52 0 0 1 -3.6 1.1l-8.29-.73h-.25a6.33 6.33 0 0 1 -5.15-3.13l-1.65-2.77a2.55 2.55 0 0 0 -4.39 0l-1.66 2.77a6.36 6.36 0 0 1 -5.15 3.13h-.26l-8.29.73a6.49 6.49 0 0 1 -3.6-1.1l-.47-.32a7.68 7.68 0 0 1 -3.43-6.41v-6.79a7.91 7.91 0 0 1 2.83-5.94z" fill="#fc0"/><path d="m85.42 53.86a3.7 3.7 0 0 0 2-.65l.47-.32a5 5 0 0 0 2.23-4.18v-6.79a5 5 0 0 0 -1.81-3.92l-1.65-1.37a1.23 1.23 0 0 0 -.81-.3h-.09l-10.44-.71a5.05 5.05 0 0 0 -2 .47l-2.15 1a8 8 0 0 1 -6.77 0l-2.15-1a4.9 4.9 0 0 0 -2-.47l-10.44.71h-.08a1.26 1.26 0 0 0 -.82.3l-1.67 1.37a5 5 0 0 0 -1.82 3.88v6.81a5 5 0 0 0 2.23 4.18l.47.33a3.8 3.8 0 0 0 2 .64l8.28-.71h.28a3.64 3.64 0 0 0 2.93-1.82l1.65-2.77a5.23 5.23 0 0 1 9 0l1.65 2.77a3.64 3.64 0 0 0 2.93 1.82h.26z" fill="#d5f2f5"/><circle cx="54.06" cy="45.17" r="1.5"/><circle cx="77.06" cy="45.17" r="1.5"/><path d="m60.55 62.63c0 3.21 3.35 5.81 7.5 5.81s7.5-2.6 7.5-5.81-3.86-1.5-8-1.5-7-1.71-7 1.5z" fill="#fff"/><path d="m40.89 24.24h4.76v33h-4.76z" fill="#f2c516"/><path d="m57.82 71.82h6.18a1.19 1.19 0 0 0 1.18-1.2v-3.62h4.77v3.66a6 6 0 0 1 -5.93 6h-6.08c0-1.61-.08-3.23-.12-4.84z" fill="#f2c516"/><path d="m45.65 57.27v3.57a10.9 10.9 0 0 0 10.78 11h1.41c0 1.61.12 3.23.08 4.85h-1.49a15.68 15.68 0 0 1 -15.52-15.84v-3.57z" fill="#3d3d3d"/><path d="m75.8 61.51a5.31 5.31 0 0 1 -1.28 6.32c-1.84 1.64-4.26 1.84-6.6 1.82s-4.6-.23-6.48-1.74a5.52 5.52 0 0 1 -1.91-5.82 2.3 2.3 0 1 1 4.47 1.25c-.2.63-.07-.27-.07.36 0-.41.15.32 0 0a1.71 1.71 0 0 0 .55.7 5.07 5.07 0 0 0 2.87.57 10.53 10.53 0 0 0 3.54-.27 1.86 1.86 0 0 0 .83-.56c.11-.11 0-.57.16-.27a2.43 2.43 0 0 1 .81-3.19 2.27 2.27 0 0 1 3.14.82z" fill="#3d3d3d"/><path d="m41.19 7.92 5.81 4.92a1 1 0 0 1 .37.78v1.38a.47.47 0 0 1 -.47.47h-.76a1 1 0 0 0 0 2h.76a.47.47 0 0 1 .47.47v.39a.48.48 0 0 1 -.47.48h-.71a1 1 0 0 0 0 2h.71a.47.47 0 0 1 .47.48v.34a.47.47 0 0 1 -.47.47h-.66a1 1 0 0 0 0 2.05h.66a.47.47 0 0 1 .47.47v1.3a1 1 0 0 1 -1 1h-5.81a1 1 0 0 1 -1-1v-17.29a1 1 0 0 1 1.63-.71z" fill="#3d3d3d"/><path d="m49.93 54.92a3.6 3.6 0 0 1 -2-.68l-.47-.34a5.5 5.5 0 0 1 -2.23-4.45v-7.24a5.52 5.52 0 0 1 1.77-4.13l1.65-1.46a1.23 1.23 0 0 1 .82-.32h.08l10.45-.76a4.82 4.82 0 0 1 2 .5l2.14 1.1a7.51 7.51 0 0 0 3.39.8 7.61 7.61 0 0 0 3.39-.8l2.18-1.14a4.66 4.66 0 0 1 2-.5l10.44.76h.09a1.19 1.19 0 0 1 .81.32l1.65 1.46a5.49 5.49 0 0 1 1.83 4.13v7.26a5.43 5.43 0 0 1 -2.23 4.45l-.48.34a3.58 3.58 0 0 1 -2 .69l-8.27-.76h-.28a3.63 3.63 0 0 1 -2.94-1.94l-1.65-2.94a5.07 5.07 0 0 0 -9 0l-1.65 2.94a3.64 3.64 0 0 1 -2.94 1.94h-.26z" fill="#f9d0a7"/><rect fill="#b79274" height="2" rx="1" width="21" x="44.21" y="45.54"/><rect fill="#b79274" height="2" rx="1" width="27" x="64.21" y="45.54"/><path d="m89.85 36.32-1.65-1.32a4 4 0 0 0 -2.51-.9l-10.46-.73a7.74 7.74 0 0 0 -3.24.73l-2.14 1a5.27 5.27 0 0 1 -4.46 0l-2.14-1a7.71 7.71 0 0 0 -3.25-.78l-10.48.73a4 4 0 0 0 -2.52.95l-1.65 1.37a7.74 7.74 0 0 0 -2.79 5.94v6.79a7.71 7.71 0 0 0 3.44 6.36l.48.33a6.57 6.57 0 0 0 3.6 1.09l8.29-.73h.26a6.33 6.33 0 0 0 5.15-3.15l1.65-2.76a2.55 2.55 0 0 1 4.4 0l1.65 2.76a6.33 6.33 0 0 0 5.14 3.13h.26l8.3.73a6.59 6.59 0 0 0 3.6-1.09l.47-.33a7.71 7.71 0 0 0 3.43-6.41v-6.77a7.91 7.91 0 0 0 -2.83-5.94zm-39.85 17.86a3.73 3.73 0 0 1 -2-.65l-.47-.32a5 5 0 0 1 -2.29-4.21v-6.76a5.06 5.06 0 0 1 1.82-3.88l1.65-1.36a1.26 1.26 0 0 1 .82-.3h.09l10.43-.7a5.1 5.1 0 0 1 2 .47l2.14 1a8 8 0 0 0 6.78 0l2.14-1a4.94 4.94 0 0 1 2-.47l10.44.71h.09a1.21 1.21 0 0 1 .81.3l1.65 1.37a5 5 0 0 1 1.9 3.86v6.81a5 5 0 0 1 -2.23 4.18l-.47.33a3.8 3.8 0 0 1 -2 .64l-8.3-.71h-.28a3.65 3.65 0 0 1 -2.94-1.82l-1.68-2.77a5.22 5.22 0 0 0 -9 0l-1.65 2.77a3.67 3.67 0 0 1 -2.94 1.82h-.26z" fill="#fc0"/></svg>