<svg viewBox="0 0 157 180" xmlns="http://www.w3.org/2000/svg"><path d="m35.09 147.02-.08-14 45.44 1.15.61 13.02z" fill="#004a86" stroke="#004a86" stroke-miterlimit="10"/><path d="m34 117.99h13v30h-13z" fill="#fc0" transform="matrix(.9999844 -.00558502 .00558502 .9999844 -.73 .23)"/><path d="m126.99 133.72.92 13.97-48.41-.19-1-13z" fill="#004a86" stroke="#004a86" stroke-miterlimit="10"/><path d="m107.5 127.5h29v13h-29z" fill="#fc0" transform="matrix(0 -1 1 0 -12 256)"/><g fill="#f9d0a7"><path d="m99 92v44h-39v-45c-17.5-20.5-43.5-12.5-43.5-12.5l-5-13a44.49 44.49 0 0 1 48.5 8.5l31.5.5h8s11-15 46-10l-6 14s-23-2-40.5 13.5"/><circle cx="10" cy="74" r="9.5"/><circle cx="148" cy="73" r="9.5"/></g><path d="m98.76 92v44h-39v-45c-17.76-18-35.76-14-35.76-14l1-15a43.68 43.68 0 0 1 34.76 12l31.5.5h8s8.74-9.5 32.74-11.5l-2 16s-9-2-31.24 13" fill="#004a86" stroke="#004a86" stroke-miterlimit="10"/><path d="m73 73.71 8 2c.21.69.17 6.88-.46 6.51l-21-8.71z" fill="#51b3ff"/><path d="m80.52 75.21 8-1.5 6 .5-14 8c-.28.17-.16-6.71 0-7z" fill="#51b3ff"/><ellipse cx="80.11" cy="44.64" fill="#f9d0a7" rx="32.39" ry="32.14"/><circle cx="49.45" cy="51.28" fill="#f9d0a7" r="6.45"/><path d="m111.86 39.81c-.5-5.47-1.35-6.86-2.26-11.77a1.09 1.09 0 0 0 -.58-.78l-22.76-11.61a1 1 0 0 0 -.63-.11l-22.37 2.81h-10.26a1.09 1.09 0 0 0 -.81 1.81 1.08 1.08 0 0 1 -.24 1.64c-2.04 1.2-5.77 4.4-3.95 10.73a1.17 1.17 0 0 0 .09.24c.44.8-.73 4.45.47 17.23a1.37 1.37 0 0 0 2.71.15c2.09-10.15 9.62-21.75 14.05-25.73a1.06 1.06 0 0 1 .92-.23l39.76 5.43a1.08 1.08 0 0 1 .51.26c.54.51 1.72 5.17 2.76 10.3a1.31 1.31 0 0 0 2.59-.37z" fill="#d1a44a"/><path d="m81.09 35.32c-2.59-.17-22.91-3.74-28.59-13.82 0 0 6-17 23-20 0 0 10.46-1.7 23.2 7.7.37.28 5.86 6.35 6.12 6.73 1.92 2.73 6.2 9.82 11.94 11.87a.3.3 0 0 1 -.06.58c-5 .54-21 2-29.24-.84l9.36 5.22a.2.2 0 0 1 -.1.38c-4.14-.39-20.88-2-23.17-3.79l7.6 5.79a.1.1 0 0 1 -.06.18z" fill="#ddae47"/><g fill="#38303b"><rect height="22" rx="2.5" transform="matrix(.15626208 -.98771563 .98771563 .15626208 5.01 91.16)" width="5.96" x="52.88" y="31.65"/><path d="m89.72 47.49h-11.42v8.94a1.4 1.4 0 0 0 1.59 1.41c2.55-.12 5.1 0 7.14 1.91a3.9 3.9 0 0 0 2.67.92 4 4 0 0 0 2.68-.92c2-1.91 4.59-2 7.14-1.91a1.42 1.42 0 0 0 1.59-1.41v-8.94z"/><path d="m108.5 41.62a1.92 1.92 0 0 0 1.91-1.91v-.41a11 11 0 0 0 -2.32-7l-1.37-1.6a2.85 2.85 0 0 0 -2-1.08h-.13l-8.49-.83h-12.76l-8.49.83h-.13a2.79 2.79 0 0 0 -2 1.08l-1.38 1.6a11.08 11.08 0 0 0 -2.31 7v.39a1.92 1.92 0 0 0 1.91 1.91h37.56z"/></g><path d="m112 36-1.65-1.37a4 4 0 0 0 -2.5-.9l-10.49-.73a7.71 7.71 0 0 0 -3.24.73l-2.14 1a5.27 5.27 0 0 1 -4.46 0l-2.15-1a7.66 7.66 0 0 0 -3.23-.73l-10.49.73a3.91 3.91 0 0 0 -2.5.9l-1.65 1.37a7.74 7.74 0 0 0 -2.79 5.94v6.79a7.71 7.71 0 0 0 3.43 6.41l.47.32a6.52 6.52 0 0 0 3.6 1.1l8.3-.73h.25a6.33 6.33 0 0 0 5.15-3.13l1.65-2.77a2.55 2.55 0 0 1 4.39 0l1.65 2.77a6.36 6.36 0 0 0 5.15 3.13h.25l8.29.73a6.49 6.49 0 0 0 3.6-1.1l.47-.32a7.68 7.68 0 0 0 3.43-6.41v-6.79a7.91 7.91 0 0 0 -2.79-5.94z" fill="#fc0"/><path d="m72.08 53.86a3.7 3.7 0 0 1 -2-.65l-.47-.32a5 5 0 0 1 -2.23-4.18v-6.79a5 5 0 0 1 1.81-3.92l1.65-1.37a1.23 1.23 0 0 1 .81-.3h.09l10.44-.71a5.05 5.05 0 0 1 2 .47l2.15 1a8 8 0 0 0 6.77 0l2.15-1a4.9 4.9 0 0 1 2-.47l10.44.71h.08a1.26 1.26 0 0 1 .82.3l1.67 1.37a5 5 0 0 1 1.82 3.88v6.81a5 5 0 0 1 -2.23 4.18l-.47.33a3.8 3.8 0 0 1 -2 .64l-8.28-.71h-.28a3.64 3.64 0 0 1 -2.93-1.82l-1.65-2.77a5.23 5.23 0 0 0 -9 0l-1.65 2.77a3.64 3.64 0 0 1 -2.93 1.82h-.26z" fill="#d5f2f5"/><circle cx="103.44" cy="45.17" r="1.5"/><circle cx="80.44" cy="45.17" r="1.5"/><path d="m97 62.63c0 3.21-3.35 5.81-7.5 5.81s-7.5-2.6-7.5-5.81 3.86-1.5 8-1.5 7-1.71 7 1.5z" fill="#fff"/><path d="m116.61 24.24h-4.76v33h4.76z" fill="#f2c516"/><path d="m99.68 71.82h-6.16a1.19 1.19 0 0 1 -1.18-1.2v-3.62h-4.77v3.66a6 6 0 0 0 5.93 6h6.06c0-1.61.08-3.23.12-4.84z" fill="#f2c516"/><path d="m111.85 57.27v3.57a10.9 10.9 0 0 1 -10.78 11h-1.41c0 1.61-.12 3.23-.08 4.85h1.49a15.68 15.68 0 0 0 15.52-15.82v-3.59z" fill="#3d3d3d"/><path d="m81.7 61.51a5.31 5.31 0 0 0 1.3 6.32c1.84 1.64 4.26 1.84 6.6 1.82s4.6-.23 6.48-1.74a5.52 5.52 0 0 0 1.92-5.82 2.3 2.3 0 1 0 -4.42 1.25c.2.63.07-.27.07.36 0-.41-.15.32 0 0a1.71 1.71 0 0 1 -.55.7 5.07 5.07 0 0 1 -2.87.57 10.53 10.53 0 0 1 -3.54-.27 1.86 1.86 0 0 1 -.83-.56c-.11-.11 0-.57-.16-.27a2.43 2.43 0 0 0 -.81-3.19 2.27 2.27 0 0 0 -3.14.82z" fill="#3d3d3d"/><path d="m116.31 7.92-5.79 4.92a1 1 0 0 0 -.37.78v1.38a.47.47 0 0 0 .47.47h.76a1 1 0 0 1 0 2h-.76a.47.47 0 0 0 -.47.47v.39a.48.48 0 0 0 .47.48h.71a1 1 0 0 1 0 2h-.71a.47.47 0 0 0 -.47.48v.34a.47.47 0 0 0 .47.47h.66a1 1 0 0 1 0 2.05h-.66a.47.47 0 0 0 -.47.47v1.3a1 1 0 0 0 1 1h5.79a1 1 0 0 0 1-1v-17.29a1 1 0 0 0 -1.63-.71z" fill="#3d3d3d"/><path d="m72 54.84a3.51 3.51 0 0 1 -2-.69l-.48-.34a5.48 5.48 0 0 1 -2.22-4.45v-7.24a5.52 5.52 0 0 1 1.82-4.12l1.65-1.46a1.23 1.23 0 0 1 .81-.32h.09l10.44-.75a4.81 4.81 0 0 1 2 .5l2.15 1.1a7.59 7.59 0 0 0 3.38.79 7.7 7.7 0 0 0 3.36-.8l2.18-1.06a4.67 4.67 0 0 1 2-.5l10.44.75h.08a1.28 1.28 0 0 1 .82.32l1.67 1.43a5.52 5.52 0 0 1 1.81 4.12v7.26a5.45 5.45 0 0 1 -2.23 4.46l-.47.34a3.6 3.6 0 0 1 -2 .68l-8.3-.75h-.28a3.66 3.66 0 0 1 -2.94-1.94l-1.65-3a5.07 5.07 0 0 0 -9 0l-1.65 3a3.65 3.65 0 0 1 -2.94 1.94h-.25z" fill="#f9d0a7"/><rect fill="#b79274" height="2" rx="1" width="21" x="66.29" y="45.46"/><rect fill="#b79274" height="2" rx="1" width="27" x="86.29" y="45.46"/><path d="m111.93 36.24-1.65-1.37a4 4 0 0 0 -2.5-.9l-10.47-.73a7.55 7.55 0 0 0 -3.23.73l-2.15 1a5.18 5.18 0 0 1 -4.45 0l-2.15-1a7.55 7.55 0 0 0 -3.23-.73l-10.49.76a3.91 3.91 0 0 0 -2.5.9l-1.65 1.37a7.73 7.73 0 0 0 -2.79 5.94v6.79a7.71 7.71 0 0 0 3.43 6.41l.47.32a6.48 6.48 0 0 0 3.6 1.09l8.3-.72h.25a6.34 6.34 0 0 0 5.15-3.13l1.65-2.77a2.55 2.55 0 0 1 4.39 0l1.65 2.77a6.36 6.36 0 0 0 5.15 3.13h.29l8.29.72a6.48 6.48 0 0 0 3.6-1.09l.47-.32a7.71 7.71 0 0 0 3.4-6.41v-6.82a7.9 7.9 0 0 0 -2.83-5.94zm-39.93 17.85a3.69 3.69 0 0 1 -2-.64l-.47-.32a5 5 0 0 1 -2.2-4.13v-6.8a5 5 0 0 1 1.82-3.88l1.65-1.42a1.27 1.27 0 0 1 .81-.3h.09l10.44-.7a5.09 5.09 0 0 1 2 .47l2.15 1a8 8 0 0 0 3.38.75 8.1 8.1 0 0 0 3.39-.75l2.14-1a5 5 0 0 1 2-.47l10.44.7h.08a1.31 1.31 0 0 1 .82.3l1.65 1.37a5 5 0 0 1 1.81 3.88v6.85a5 5 0 0 1 -2.23 4.18l-.47.32a3.81 3.81 0 0 1 -2 .65l-8.27-.71h-.28a3.66 3.66 0 0 1 -2.93-1.82l-1.65-2.77a5.23 5.23 0 0 0 -9 0l-1.65 2.77a3.67 3.67 0 0 1 -2.93 1.82h-.26z" fill="#fc0"/></svg>