<svg viewBox="0 0 157 180" xmlns="http://www.w3.org/2000/svg"><path d="m51.26 55.09h5.58v1.81h-5.58z" fill="#b4b5b5" transform="matrix(.02 -1 1 .02 -3.05 108.87)"/><path d="m50.82 55.54h5.56v.9h-5.56z" fill="#c8c8c9" transform="matrix(.02094242 -.99978068 .99978068 .02094242 -3.5 108.41)"/><path d="m51.57 68.67a2.23 2.23 0 1 0 4.46.07l.14-8.74a2.23 2.23 0 1 0 -4.46-.06z" fill="#ffa900" fill-rule="evenodd"/><path d="m51.57 68.67a2.24 2.24 0 0 0 1.78 2.22 2.24 2.24 0 0 0 1.78-2.15l.13-8.74a2.22 2.22 0 0 0 -1.78-2.21 2.21 2.21 0 0 0 -1.77 2.15z" fill="#f2cf1c" fill-rule="evenodd"/><path d="m50.37 63.9a1.17 1.17 0 0 1 1.18-1.18l4.68.07a1.2 1.2 0 0 1 1.18 1.21l-.06 3.83-7-.11z" fill="#38303b" fill-rule="evenodd"/><path d="m50.37 63.9a1.17 1.17 0 0 1 1-1.16h3.57a1.19 1.19 0 0 1 1.13 1.26l-.07 3.81-5.7-.09z" fill="#3d3d3d" fill-rule="evenodd"/><path d="m56.37 60.56-5-.07a1.66 1.66 0 1 1 0-3.31l5 .07a1.66 1.66 0 1 1 -.05 3.31" fill="#38303b" fill-rule="evenodd"/><path d="m51.11 57.2h3.62a1.66 1.66 0 0 1 .27 3.34h-3.62a1.66 1.66 0 0 1 -.24-3.29" fill="#444243" fill-rule="evenodd"/><path d="m77.86 55.09h5.58v1.81h-5.58z" fill="#b4b5b5" transform="matrix(.02076792 -.99978432 .99978432 .02076792 22.99 135.46)"/><path d="m77.42 55.54h5.56v.9h-5.56z" fill="#c8c8c9" transform="matrix(.02094242 -.99978068 .99978068 .02094242 22.54 135)"/><g fill-rule="evenodd"><path d="m78.17 68.67a2.23 2.23 0 1 0 4.46.07l.13-8.74a2.23 2.23 0 1 0 -4.46-.06z" fill="#ffa900"/><path d="m78.17 68.67a2.23 2.23 0 0 0 1.83 2.22 2.22 2.22 0 0 0 1.77-2.15l.09-8.74a2.23 2.23 0 0 0 -1.78-2.21 2.23 2.23 0 0 0 -1.78 2.15z" fill="#f2cf1c"/><path d="m77 63.9a1.17 1.17 0 0 1 1.18-1.18l4.67.07a1.2 1.2 0 0 1 1.15 1.21l-.06 3.83-7-.11z" fill="#38303b"/><path d="m77 63.9a1.17 1.17 0 0 1 1-1.16h3.56a1.2 1.2 0 0 1 1.11 1.26l-.06 3.81-5.7-.09z" fill="#3d3d3d"/><path d="m83 60.56-5-.07a1.66 1.66 0 0 1 0-3.31l5 .07a1.66 1.66 0 0 1 0 3.31" fill="#38303b"/><path d="m77.71 57.2h3.62a1.66 1.66 0 0 1 .24 3.29h-3.62a1.66 1.66 0 0 1 -.24-3.29" fill="#444243"/><path d="m65.56 130.94v-52.09a11.67 11.67 0 0 0 -11.56-11.67h-.15a11.68 11.68 0 0 0 -11.64 11.67v52.09z" fill="#ffa900"/><path d="m51.8 67.36a11.68 11.68 0 0 0 -9.59 11.49v52.09h19.23v-52.09a11.67 11.67 0 0 0 -9.64-11.49" fill="#fc0"/><path d="m65.56 138.22v-7.28h-23.35v7.28a6.8 6.8 0 0 0 6.79 6.78h9.74a6.81 6.81 0 0 0 6.81-6.81" fill="#38303b"/><path d="m61.44 130.94h-19.23v7.28a6.8 6.8 0 0 0 6.79 6.78h5.63a6.8 6.8 0 0 0 6.8-6.81z" fill="#3d3d3d"/><path d="m92.16 130.94v-52.09a11.67 11.67 0 0 0 -11.53-11.67h-.15a11.68 11.68 0 0 0 -11.68 11.67v52.09z" fill="#ffa900"/><path d="m78.4 67.36a11.68 11.68 0 0 0 -9.6 11.49v52.09h19.2v-52.09a11.67 11.67 0 0 0 -9.6-11.49" fill="#fc0"/><path d="m92.16 138.22v-7.28h-23.36v7.28a6.81 6.81 0 0 0 6.81 6.78h9.74a6.81 6.81 0 0 0 6.81-6.81" fill="#38303b"/><path d="m88 130.94h-19.2v7.28a6.81 6.81 0 0 0 6.81 6.78h5.62a6.81 6.81 0 0 0 6.77-6.78z" fill="#3d3d3d"/></g><g fill="#ffa900"><path d="m68.8 88.32h23.35v3.56h-23.35z"/><path d="m68.8 88.32h23.35v1.78h-23.35z"/><path d="m68.8 88.32h19.24v3.56h-19.24z"/><path d="m68.8 88.32h19.24v1.78h-19.24z"/><path d="m42.21 88.32h23.35v3.56h-23.35z"/><path d="m42.21 88.32h23.35v1.78h-23.35z"/><path d="m42.21 88.32h19.24v3.56h-19.24z"/><path d="m42.21 88.32h19.24v1.78h-19.24z"/></g><path d="m40 86.54h54.46v3.56h-54.46z" fill="#c2c6c9"/><path d="m40 86.54h54.46v1.78h-54.46z" fill="#d8dae6"/><path d="m68.8 116.48h23.35v3.56h-23.35z" fill="#ffa900"/><path d="m68.8 116.48h23.35v1.78h-23.35z" fill="#ffa900"/><path d="m68.8 116.48h19.24v3.56h-19.24z" fill="#ffa900"/><path d="m68.8 116.48h19.24v1.78h-19.24z" fill="#ffa900"/><path d="m42.21 116.48h23.35v3.56h-23.35z" fill="#ffa900"/><path d="m42.21 116.48h23.35v1.78h-23.35z" fill="#ffa900"/><path d="m42.21 116.48h19.24v3.56h-19.24z" fill="#ffa900"/><path d="m42.21 116.48h19.24v1.78h-19.24z" fill="#ffa900"/><path d="m40 114.69h54.46v3.56h-54.46z" fill="#c2c6c9"/><path d="m40 114.69h54.46v1.78h-54.46z" fill="#d8dae6"/><path d="m58.5 133h14v40h-14z" fill="#004a86"/><path d="m42.5 160h30v13h-30z" fill="#fc0"/><path d="m83.5 134h13.5v39h-13.5z" fill="#004a86"/><path d="m83.5 160h29v13h-29z" fill="#fc0"/><path d="m97 92.5v44h-39v-45a32.87 32.87 0 0 0 -21 29l-15-4c7-35 36-42 36-42h35l5 1s28.6 6 35.5 41l-14.5 4s-1.29-19.47-22-28" fill="#f9d0a7"/><path d="m97 92.79v44.71h-39v-45.73c-16.5 9.66-16.5 14.74-16.5 14.74l-15.5-3.51c9-22.4 32-28.5 32-28.5h35l5 1s24 5.1 32 30.5l-15 4.06s-1-8.12-18-17.27" fill="#004a86" stroke="#004a86" stroke-miterlimit="10"/><circle cx="28" cy="123.5" fill="#f9d0a7" r="9.5"/><circle cx="128" cy="123.5" fill="#f9d0a7" r="9.5"/><path d="m72.5 74 7.5 2.5c.21.69.62 6.36 0 6l-23-9z" fill="#51b3ff"/><path d="m80 75.5 8-1.5 6 .5-14 8c-.28.16-.16-6.71 0-7z" fill="#51b3ff"/><ellipse cx="78.61" cy="44.64" fill="#f9d0a7" rx="32.39" ry="32.14"/><circle cx="47.95" cy="51.28" fill="#f9d0a7" r="6.45"/><path d="m110.36 39.81c-.5-5.47-1.36-6.81-2.26-11.81a1.09 1.09 0 0 0 -.58-.78l-22.76-11.57a1 1 0 0 0 -.63-.11l-22.37 2.81h-10.3a1.09 1.09 0 0 0 -.81 1.81 1.08 1.08 0 0 1 -.24 1.64c-2 1.21-5.73 4.39-3.93 10.72a1.17 1.17 0 0 0 .09.24c.44.8-.73 4.45.47 17.23a1.37 1.37 0 0 0 2.71.15c2.11-10.14 9.64-21.74 14.07-25.72a1.06 1.06 0 0 1 .92-.23l39.75 5.43a1.08 1.08 0 0 1 .51.26c.54.51 1.72 5.17 2.76 10.3a1.31 1.31 0 0 0 2.6-.37z" fill="#d1a44a"/><path d="m79.59 35.32c-2.59-.17-22.91-3.74-28.59-13.82 0 0 6-17 23-20 0 0 10.46-1.7 23.2 7.7.37.28 5.86 6.35 6.12 6.73 1.92 2.73 6.2 9.82 11.94 11.87a.3.3 0 0 1 -.06.58c-5 .54-21 2-29.24-.84l9.36 5.22a.2.2 0 0 1 -.1.38c-4.14-.39-20.88-2-23.17-3.79l7.6 5.79a.1.1 0 0 1 -.06.18z" fill="#ddae47"/><rect fill="#38303b" height="5.96" rx="2.5" transform="matrix(.98771563 .15626208 -.15626208 .98771563 7.17 -8.23)" width="22" x="44.93" y="38.49"/><path d="m89.79 46.32h-11.43v8.94a1.41 1.41 0 0 0 1.64 1.41c2.55-.13 5.1 0 7.14 1.91a4 4 0 0 0 2.68.92 4 4 0 0 0 2.68-.92c2-1.91 4.58-2 7.13-1.91a1.42 1.42 0 0 0 1.58-1.41v-8.94z" fill="#38303b"/><path d="m108.56 40.44a1.91 1.91 0 0 0 1.91-1.9v-.41a10.94 10.94 0 0 0 -2.31-7l-1.37-1.61a2.85 2.85 0 0 0 -2-1.07h-.13l-8.49-.84h-12.77l-8.49.84h-.13a2.78 2.78 0 0 0 -2 1.07l-1.38 1.6a11 11 0 0 0 -2.32 7v.38a1.91 1.91 0 0 0 1.92 1.92h37.57z" fill="#38303b"/><path d="m112 34.83-1.65-1.37a4 4 0 0 0 -2.51-.9l-10.46-.73a7.56 7.56 0 0 0 -3.24.73l-2.14 1a5.2 5.2 0 0 1 -4.46 0l-2.14-1a7.59 7.59 0 0 0 -3.24-.73l-10.48.73a4 4 0 0 0 -2.51.9l-1.65 1.37a7.73 7.73 0 0 0 -2.79 5.94v6.79a7.73 7.73 0 0 0 3.47 6.44l.47.32a6.51 6.51 0 0 0 3.6 1.09l8.3-.72h.26a6.33 6.33 0 0 0 5.17-3.16l1.65-2.77a2.56 2.56 0 0 1 4.4 0l1.65 2.77a6.33 6.33 0 0 0 5.14 3.13h.26l8.29.72a6.48 6.48 0 0 0 3.6-1.09l.48-.32a7.73 7.73 0 0 0 3.43-6.41v-6.79a8 8 0 0 0 -2.9-5.94z" fill="#fc0"/><path d="m72.15 52.68a3.72 3.72 0 0 1 -2-.64l-.47-.32a5.06 5.06 0 0 1 -2.23-4.18v-6.8a5 5 0 0 1 1.82-3.88l1.65-1.37a1.31 1.31 0 0 1 .82-.3h.08l10.44-.71a5.33 5.33 0 0 1 2 .48l2.14 1a8 8 0 0 0 6.77 0l2.15-1a5.07 5.07 0 0 1 2-.48l10.44.71h.09a1.27 1.27 0 0 1 .81.3l1.65 1.37a5 5 0 0 1 1.82 3.88v6.82a5 5 0 0 1 -2.23 4.18l-.47.32a3.69 3.69 0 0 1 -2 .64l-8.28-.7h-.27a3.68 3.68 0 0 1 -2.94-1.82l-1.65-2.77a5.22 5.22 0 0 0 -9 0l-1.66 2.77a3.66 3.66 0 0 1 -2.93 1.82h-.26z" fill="#d5f2f5"/><circle cx="103.5" cy="44" r="1.5"/><circle cx="80.5" cy="44" r="1.5"/><path d="m97 61.45c0 3.21-3.36 5.82-7.5 5.82s-7.5-2.61-7.5-5.82 3.87-1.45 8-1.45 7-1.76 7 1.45z" fill="#fff"/><path d="m116.67 23.07h-4.76v33h4.76z" fill="#f2c516"/><path d="m99.74 70.64h-6.16a1.19 1.19 0 0 1 -1.18-1.2v-3.65h-4.76v3.65a6 6 0 0 0 5.92 6h6.06c0-1.56.09-3.19.12-4.8z" fill="#f2c516"/><path d="m111.91 56.09v3.57a10.89 10.89 0 0 1 -10.78 11h-1.41c0 1.61-.11 3.24-.08 4.86h1.49a15.7 15.7 0 0 0 15.53-15.82v-3.59c-1.58-.02-3.16-.02-4.75-.02z" fill="#3d3d3d"/><path d="m81.76 60.34a5.3 5.3 0 0 0 1.24 6.31c1.84 1.64 4.26 1.85 6.61 1.83s4.59-.24 6.47-1.74a5.5 5.5 0 0 0 1.92-5.82 2.31 2.31 0 0 0 -2.82-1.63 2.34 2.34 0 0 0 -1.6 2.88c.2.62.07-.27.07.35 0-.4-.15.32 0 0a1.66 1.66 0 0 1 -.55.69 5.06 5.06 0 0 1 -2.87.58 11 11 0 0 1 -3.53-.27 1.83 1.83 0 0 1 -.83-.56c-.12-.12 0-.57-.17-.27a2.43 2.43 0 0 0 -.81-3.2 2.28 2.28 0 0 0 -3.14.83z" fill="#3d3d3d"/><path d="m116.37 6.74-5.79 4.93a1 1 0 0 0 -.37.77v1.43a.47.47 0 0 0 .47.47h.76a1 1 0 0 1 0 2.05h-.76a.47.47 0 0 0 -.47.47v.39a.47.47 0 0 0 .47.47h.71a1 1 0 0 1 0 2.05h-.71a.47.47 0 0 0 -.47.47v.34a.48.48 0 0 0 .47.48h.66a1 1 0 0 1 0 2h-.66a.47.47 0 0 0 -.47.48v1.3a1 1 0 0 0 1 1h5.79a1 1 0 0 0 1-1v-17.39a1 1 0 0 0 -1.63-.71z" fill="#3d3d3d"/></svg>