<svg viewBox="0 0 157 180" xmlns="http://www.w3.org/2000/svg"><path d="m98.84 92v44h-39v-45c-6.5 17.5 2.5 41.5 2.5 41.5l-15 5c-18-56 12.5-63.5 12.5-63.5l33.82-.5 2-1 5.47 2.68c1.27.19 3.24 1.24 3.33 2.52.56 8.16 3.2 34.8 18.88 39.8l-9 10s-21.68-7-15.5-35.5" fill="#f9d0a7"/><circle cx="123.84" cy="127" fill="#f9d0a7" r="9.5"/><circle cx="55.84" cy="137" fill="#f9d0a7" r="9.5"/><ellipse cx="79.66" cy="117" fill="#eac3a0" rx="1" ry="1.5"/><g fill="#f9d0a7"><path d="m60.66 133.5h14v40h-14z"/><path d="m85.66 134.5h14v39h-14z"/><ellipse cx="79.95" cy="44.64" rx="32.39" ry="32.14"/><circle cx="49.29" cy="51.28" r="6.45"/></g><path d="m98.34 63.73c0 2.63-3.36 4.77-7.5 4.77s-7.5-2.14-7.5-4.77 3.86-1.23 8-1.23 7-1.41 7 1.23z" fill="#fff"/><path d="m111.71 39.81c-.51-5.47-1.36-6.86-2.27-11.77a1.06 1.06 0 0 0 -.58-.78l-22.76-11.61a1 1 0 0 0 -.63-.11l-22.36 2.81h-10.3a1.09 1.09 0 0 0 -.81 1.82 1.09 1.09 0 0 1 -.23 1.64c-2.02 1.19-5.77 4.39-3.95 10.72a.82.82 0 0 0 .1.24c.43.8-.73 4.45.46 17.23a1.37 1.37 0 0 0 2.71.15c2.11-10.15 9.64-21.75 14.07-25.73a1.07 1.07 0 0 1 .93-.23l39.74 5.43a1.08 1.08 0 0 1 .51.26c.54.51 1.72 5.17 2.77 10.3a1.31 1.31 0 0 0 2.6-.37z" fill="#d1a44a"/><path d="m80.93 35.32c-2.59-.17-22.93-3.74-28.59-13.82 0 0 6-17 23-20 0 0 10.46-1.7 23.21 7.7.37.28 5.85 6.35 6.11 6.73 1.92 2.73 6.2 9.82 11.94 11.87a.3.3 0 0 1 -.06.58c-5 .54-21 2-29.23-.84l9.36 5.22a.2.2 0 0 1 -.11.38c-4.13-.39-20.88-2-23.17-3.79l7.61 5.79a.1.1 0 0 1 -.07.18z" fill="#ddae47"/><path d="m60.49 131.4h14v19h-14z" fill="#1b1464"/><path d="m85.49 131.87h14v18.52h-14z" fill="#1b1464"/><path d="m60.43 117.5h39v19.18h-39z" fill="#1b1464" transform="matrix(-1 0 0 -1 159.86 254.18)"/><path d="m57.78 111.8s2.88 18.7 4.88 20.7-14 3-14 3l-5-22z" fill="#f9d0a7"/><circle cx="56.16" cy="137" fill="#f9d0a7" r="9.5"/><path d="m87.58 160.5h23a4.09 4.09 0 0 1 4.09 4.09v8.41a.51.51 0 0 1 -.51.51h-26.58a1.92 1.92 0 0 1 -1.92-1.92v-9.16a1.92 1.92 0 0 1 1.92-1.92z" fill="#f9d0a7"/><path d="m62.58 160.5h23a4.09 4.09 0 0 1 4.09 4.09v8.41a.51.51 0 0 1 -.51.51h-26.58a1.92 1.92 0 0 1 -1.92-1.92v-9.16a1.92 1.92 0 0 1 1.92-1.93z" fill="#f9d0a7"/><circle cx="89.66" cy="93.5" fill="#eac3a0" r="1"/><circle cx="69.66" cy="93.5" fill="#eac3a0" r="1"/><g fill="#fff"><path d="m79.15 117.2a3.11 3.11 0 0 0 -2.31.84 2.85 2.85 0 0 0 -.34 2.08 14.47 14.47 0 0 1 .45 2.67 2.16 2.16 0 0 1 -1 1.9c-.44.2-.06.84.38.65 1.4-.61 1.49-2.63 1.22-3.9a6.32 6.32 0 0 1 -.33-2.4.94.94 0 0 1 .63-.82 3.81 3.81 0 0 1 1.29-.27c.48 0 .48-.77 0-.75z"/><path d="m82.15 118-.16-.09-.06-.45c.06-.12.09-.1 0 0a.48.48 0 0 0 -.11.09.44.44 0 0 0 -.13.38c0 .31.37.38.49.64a4.59 4.59 0 0 1 0 2.44 7.87 7.87 0 0 0 -.11 2.65 2.6 2.6 0 0 0 .89 1.77c.4.27.78-.38.38-.65s-.56-1.24-.59-1.74a13 13 0 0 1 .25-2.48 5.06 5.06 0 0 0 0-2 1.37 1.37 0 0 0 -.43-.71.76.76 0 0 0 -.14-.11c-.17 0-.17.43 0 .37a.42.42 0 0 0 .19-.18.39.39 0 0 0 0-.46.56.56 0 0 0 -.37-.13c-.48 0-.48.71 0 .75z"/><path d="m78.29 117a3 3 0 0 1 -1.94-.79c-.2-.21-.32-.44-.06-.64a1.56 1.56 0 0 1 .95-.2 1.22 1.22 0 0 1 1.19 1.25 1.32 1.32 0 0 0 .19.82 1.28 1.28 0 0 0 .79.44c1.22.31 3 .43 3.58-1a1.45 1.45 0 0 0 -.34-1.63 1.15 1.15 0 0 0 -1.56.2c-.38.33-.81.59-1.21.9a1.58 1.58 0 0 1 -.9.31 2.25 2.25 0 0 0 -1 .4c-.38.29 0 .94.38.65s1.07-.26 1.61-.52a9.52 9.52 0 0 0 1.23-.88c.31-.22.92-.92 1.12-.23s-.45 1.12-1 1.24a3.2 3.2 0 0 1 -1.07 0c-.26 0-.93-.09-1-.37a1.86 1.86 0 0 1 0-.41 1.61 1.61 0 0 0 -.05-.44 1.89 1.89 0 0 0 -.43-.8 2.12 2.12 0 0 0 -1.68-.66 1.82 1.82 0 0 0 -1.52.72c-.37.64.13 1.29.64 1.66a4 4 0 0 0 2.15.75c.48 0 .48-.72 0-.75z"/><g stroke="#000" stroke-miterlimit="10" stroke-width="2"><rect height="16" rx="5.61" transform="matrix(-1 0 0 -1 148 87)" width="20" x="64" y="35.5"/><rect height="16" rx="5.61" transform="matrix(-1 0 0 -1 198 87)" width="20" x="89" y="35.5"/></g></g><path d="m89 43.5h-5" fill="none" stroke="#000" stroke-miterlimit="10" stroke-width="2"/><circle cx="102.5" cy="43" r="1.5"/><circle cx="78.5" cy="43" r="1.5"/></svg>