<svg viewBox="0 0 157 180" xmlns="http://www.w3.org/2000/svg"><g fill="#f9d0a7"><path d="m54.75 133h14v40h-14z"/><path d="m79.75 134h14v39h-14z"/><path d="m82.36 160h20.84a5.55 5.55 0 0 1 5.55 5.55v6.76a.7.7 0 0 1 -.7.7h-25.69a2.61 2.61 0 0 1 -2.61-2.61v-7.79a2.61 2.61 0 0 1 2.61-2.61z"/><path d="m42.36 160h25.7a.7.7 0 0 1 .7.7v6.76a5.55 5.55 0 0 1 -5.56 5.54h-20.84a2.61 2.61 0 0 1 -2.61-2.61v-7.79a2.61 2.61 0 0 1 2.61-2.6z" transform="matrix(-1 0 0 -1 108.5 333)"/><path d="m93.75 92v44h-39v-45c-21 8.53-22.5 29.5-22.5 29.5l-13.5-4.5c7-35 36-42 36-42h35l5 1s28.6 6 35.5 41l-14 4.5a36.35 36.35 0 0 0 -22.5-28.5"/><circle cx="24.25" cy="123.5" r="9.5"/><circle cx="124.25" cy="123.5" r="9.5"/><ellipse cx="74.86" cy="44.64" rx="32.39" ry="32.14"/><circle cx="44.2" cy="51.28" r="6.45"/></g><path d="m93.25 63.73c0 2.63-3.36 4.77-7.5 4.77s-7.5-2.14-7.5-4.77 3.86-1.23 8-1.23 7-1.41 7 1.23z" fill="#fff"/><path d="m106.61 39.81c-.5-5.47-1.35-6.86-2.26-11.77a1.09 1.09 0 0 0 -.58-.78l-22.77-11.61a1 1 0 0 0 -.63-.11l-22.37 2.81h-10.29a1.09 1.09 0 0 0 -.81 1.81 1.08 1.08 0 0 1 -.24 1.64c-2 1.21-5.73 4.39-3.93 10.72a1.17 1.17 0 0 0 .09.24c.44.8-.73 4.45.47 17.23a1.37 1.37 0 0 0 2.71.15c2.11-10.14 9.64-21.74 14.07-25.72a1.06 1.06 0 0 1 .92-.23l39.75 5.43a1.08 1.08 0 0 1 .51.26c.54.51 1.72 5.17 2.76 10.3a1.31 1.31 0 0 0 2.6-.37z" fill="#d1a44a"/><path d="m75.84 35.32c-2.59-.17-22.91-3.74-28.59-13.82 0 0 6-17 23-20 0 0 10.46-1.7 23.2 7.7.37.28 5.86 6.35 6.12 6.73 1.92 2.73 6.2 9.82 11.94 11.87a.3.3 0 0 1 -.06.58c-5 .54-21 2-29.24-.84l9.36 5.22a.2.2 0 0 1 -.1.38c-4.14-.39-20.88-2-23.17-3.79l7.6 5.79a.1.1 0 0 1 -.06.18z" fill="#ddae47"/><path d="m54.81 132.22h14v19h-14z" fill="#1b1464"/><path d="m79.81 132.7h14v18.52h-14z" fill="#1b1464"/><path d="m54.75 118.5h39v18h-39z" fill="#1b1464" transform="matrix(-1 0 0 -1 148.5 255)"/><circle cx="83.25" cy="90.5" fill="#eac3a0" r="1"/><circle cx="65.25" cy="90.5" fill="#eac3a0" r="1"/><ellipse cx="74.25" cy="118" fill="#eac3a0" rx="1" ry="1.5"/><path d="m74.47 119a3.18 3.18 0 0 0 -2.32.83 2.86 2.86 0 0 0 -.33 2.09 15.2 15.2 0 0 1 .45 2.67 2.19 2.19 0 0 1 -1 1.9c-.44.19-.06.84.38.65 1.4-.62 1.49-2.64 1.21-3.9a6.54 6.54 0 0 1 -.32-2.4.9.9 0 0 1 .63-.82 3.76 3.76 0 0 1 1.29-.27c.48 0 .48-.77 0-.75z" fill="#fff"/><path d="m77.47 119.7-.17-.09-.06-.45c.07-.12.1-.1 0 0l-.11.08a.53.53 0 0 0 -.13.38c0 .32.37.39.49.65a4.59 4.59 0 0 1 0 2.44 8.07 8.07 0 0 0 -.1 2.64 2.56 2.56 0 0 0 .89 1.78c.4.26.78-.38.38-.65s-.56-1.25-.59-1.74a12.19 12.19 0 0 1 .24-2.48 4.88 4.88 0 0 0 0-2 1.44 1.44 0 0 0 -.43-.72l-.14-.1c-.17 0-.17.43 0 .37a.5.5 0 0 0 .19-.19.38.38 0 0 0 -.06-.45.49.49 0 0 0 -.36-.13c-.49 0-.48.71 0 .75z" fill="#fff"/><path d="m73.6 118.72a3.06 3.06 0 0 1 -1.93-.79c-.21-.21-.33-.44-.06-.64a1.47 1.47 0 0 1 .94-.2 1.22 1.22 0 0 1 1.2 1.25 1.38 1.38 0 0 0 .18.82 1.31 1.31 0 0 0 .8.44c1.22.31 3 .43 3.57-1a1.46 1.46 0 0 0 -.3-1.6c-.51-.44-1.11-.18-1.56.21s-.81.59-1.2.9a1.71 1.71 0 0 1 -.9.31 2.11 2.11 0 0 0 -1 .4c-.38.29 0 .94.38.65s1.08-.26 1.61-.52a9.8 9.8 0 0 0 1.23-.88c.31-.23.92-.92 1.13-.24s-.46 1.13-1 1.25a2.91 2.91 0 0 1 -1.06 0c-.26 0-.93-.08-1-.36a1.17 1.17 0 0 1 0-.42 2.28 2.28 0 0 0 0-.44 1.87 1.87 0 0 0 -.63-.86 2.12 2.12 0 0 0 -1.68-.66 1.76 1.76 0 0 0 -1.51.72c-.37.64.12 1.28.63 1.66a4.07 4.07 0 0 0 2.15.75c.48 0 .48-.72 0-.75z" fill="#fff"/><g stroke-miterlimit="10"><rect fill="#f9d0a7" height="16" rx="5.61" stroke="#000" stroke-width="2" transform="matrix(-1 0 0 -1 140 87)" width="20" x="60" y="35.5"/><rect fill="#f9d0a7" height="16" rx="5.61" stroke="#000" stroke-width="2" transform="matrix(-1 0 0 -1 190 87)" width="20" x="85" y="35.5"/><path d="m85 43.5h-5" fill="none" stroke="#000" stroke-width="2"/><path d="m60.33 44.01 19.17-.01" stroke="#b79274"/><path d="m85.33 44.01 19.17-.01" stroke="#b79274"/><rect fill="none" height="16" rx="5.61" stroke="#000" stroke-width="2" transform="matrix(-1 0 0 -1 140 87)" width="20" x="60" y="35.5"/><rect fill="none" height="16" rx="5.61" stroke="#000" stroke-width="2" transform="matrix(-1 0 0 -1 190 87)" width="20" x="85" y="35.5"/></g></svg>