<svg viewBox="0 0 157 180" xmlns="http://www.w3.org/2000/svg"><path d="m58.66 92v44h39v-45c6.5 17.5-2.5 41.5-2.5 41.5l15 5c18-56-12.5-63.5-12.5-63.5l-33.82-.5-2-1-5.47 2.68c-1.27.19-3.24 1.24-3.33 2.52-.56 8.16-3.2 34.8-18.88 39.8l9 10s21.68-7 15.5-35.5" fill="#f9d0a7"/><circle cx="33.66" cy="127" fill="#f9d0a7" r="9.5"/><circle cx="101.66" cy="137" fill="#f9d0a7" r="9.5"/><ellipse cx="77.84" cy="117" fill="#eac3a0" rx="1" ry="1.5"/><g fill="#f9d0a7"><path d="m82.84 133.5h14v40h-14z" transform="matrix(-1 0 0 -1 179.68 307)"/><path d="m57.84 134.5h14v39h-14z" transform="matrix(-1 0 0 -1 129.68 308)"/><ellipse cx="77.55" cy="44.64" rx="32.39" ry="32.14"/><circle cx="108.21" cy="51.28" r="6.45"/></g><path d="m59.16 63.73c0 2.63 3.36 4.77 7.5 4.77s7.5-2.14 7.5-4.77-3.86-1.23-8-1.23-7-1.41-7 1.23z" fill="#fff"/><path d="m45.79 39.81c.51-5.47 1.36-6.81 2.27-11.81a1.06 1.06 0 0 1 .58-.78l22.76-11.57a1 1 0 0 1 .63-.11l22.36 2.81h10.3a1.09 1.09 0 0 1 .82 1.81 1.09 1.09 0 0 0 .23 1.64c2 1.21 5.74 4.39 3.94 10.72a.82.82 0 0 1 -.1.24c-.43.8.73 4.45-.46 17.23a1.37 1.37 0 0 1 -2.71.15c-2.11-10.14-9.64-21.74-14.07-25.72a1.07 1.07 0 0 0 -.93-.23l-39.74 5.43a1.08 1.08 0 0 0 -.51.26c-.54.51-1.72 5.17-2.77 10.3a1.31 1.31 0 0 1 -2.6-.37z" fill="#d1a44a"/><path d="m76.57 35.32c2.59-.17 22.9-3.74 28.59-13.82 0 0-6-17-23-20 0 0-10.46-1.7-23.21 7.7-.37.28-5.85 6.35-6.11 6.73-1.92 2.73-6.2 9.82-11.94 11.87a.3.3 0 0 0 .06.58c5 .54 21 2 29.23-.84l-9.36 5.22a.2.2 0 0 0 .11.38c4.13-.39 20.88-2 23.17-3.79l-7.6 5.79a.1.1 0 0 0 .06.18z" fill="#ddae47"/><path d="m83.01 131.4h14v19h-14z" fill="#1b1464" transform="matrix(-1 0 0 -1 180.01 281.79)"/><path d="m58.01 131.87h14v18.52h-14z" fill="#1b1464" transform="matrix(-1 0 0 -1 130.01 282.27)"/><path d="m58.07 117.5h39v19.18h-39z" fill="#1b1464"/><path d="m99.72 111.8s-2.88 18.7-4.88 20.7 14 3 14 3l5-22z" fill="#f9d0a7"/><circle cx="101.34" cy="137" fill="#f9d0a7" r="9.5"/><path d="m43.6 160.5h28a.2.2 0 0 1 .2.2v11.18a1.62 1.62 0 0 1 -1.62 1.62h-26.58a.76.76 0 0 1 -.76-.76v-11.48a.76.76 0 0 1 .76-.76z" fill="#f9d0a7" transform="matrix(-1 0 0 -1 114.68 334)"/><path d="m68.6 160.5h28a.2.2 0 0 1 .2.2v11.18a1.62 1.62 0 0 1 -1.62 1.62h-26.58a.76.76 0 0 1 -.76-.76v-11.48a.76.76 0 0 1 .76-.76z" fill="#f9d0a7" transform="matrix(-1 0 0 -1 164.68 334)"/><circle cx="67.84" cy="93.5" fill="#eac3a0" r="1"/><circle cx="87.84" cy="93.5" fill="#eac3a0" r="1"/><path d="m78.35 118a3.81 3.81 0 0 1 1.29.27.93.93 0 0 1 .63.82 6.32 6.32 0 0 1 -.33 2.4c-.27 1.27-.18 3.29 1.22 3.9.44.19.82-.45.38-.65a2.16 2.16 0 0 1 -1-1.9 14.47 14.47 0 0 1 .45-2.67 2.84 2.84 0 0 0 -.34-2.08 3.11 3.11 0 0 0 -2.31-.84c-.48 0-.48.73 0 .75z" fill="#fff"/><path d="m75.35 117.2a.54.54 0 0 0 -.37.13.39.39 0 0 0 0 .46s.12.16.17.17h.05v-.41a.57.57 0 0 0 -.13.1 1.41 1.41 0 0 0 -.46.69 5 5 0 0 0 -.06 2.1 12.35 12.35 0 0 1 .25 2.42c0 .51-.11 1.48-.59 1.8s0 .92.38.65a2.6 2.6 0 0 0 .89-1.77 7.87 7.87 0 0 0 -.11-2.65 4.59 4.59 0 0 1 0-2.44c.12-.25.43-.32.49-.59a.48.48 0 0 0 -.1-.4.55.55 0 0 0 -.14-.12c-.07-.05-.07-.11 0 0l-.06.45-.16.09c.48 0 .48-.79 0-.75z" fill="#fff"/><path d="m79.21 117.72a4.12 4.12 0 0 0 1.88-.56c.51-.31 1.08-.8 1-1.45a1.33 1.33 0 0 0 -1.09-1.06 2.34 2.34 0 0 0 -1.84.32 1.89 1.89 0 0 0 -.81 1.52 1.88 1.88 0 0 1 0 .41c-.06.16-.23.18-.37.22a5.64 5.64 0 0 1 -1.23.2c-.6 0-1.37-.2-1.54-.87 0-.22 0-.59.21-.71s.47.18.64.32c.4.32.82.61 1.24.92s1.31.27 1.88.69c.39.29.76-.36.38-.65a2.08 2.08 0 0 0 -.83-.37 2.62 2.62 0 0 1 -.87-.2 5 5 0 0 1 -.54-.4l-.63-.45c-.44-.32-.83-.77-1.43-.6a1.3 1.3 0 0 0 -.82 1.36 1.79 1.79 0 0 0 1.06 1.46 3.33 3.33 0 0 0 2 .17c.61-.11 1.42-.22 1.58-.94a6.84 6.84 0 0 1 .08-.9 1.16 1.16 0 0 1 .59-.66 1.69 1.69 0 0 1 1.17-.09c.3.09.63.27.41.62a2.81 2.81 0 0 1 -2.08 1c-.48 0-.48.78 0 .75z" fill="#fff"/><g stroke-miterlimit="10"><g stroke="#000" stroke-width="2"><rect fill="#f9d0a7" height="16" rx=".82" width="20" x="73.47" y="35.56"/><rect fill="#f9d0a7" height="16" rx=".82" width="20" x="48.47" y="35.56"/><path d="m68.47 43.56h5" fill="none"/></g><path d="m93.14 44.07-19.17-.01" stroke="#b79274"/><path d="m68.14 44.07-19.17-.01" stroke="#b79274"/><rect fill="none" height="16" rx=".82" stroke="#000" stroke-width="2" width="20" x="48.5" y="35.48"/><rect fill="none" height="16" rx=".82" stroke="#000" stroke-width="2" width="20" x="73.5" y="35.48"/></g></svg>