<svg viewBox="0 0 157 180" xmlns="http://www.w3.org/2000/svg"><path d="m122.41 147.02.08-14-45.44 1.15-.61 13.02z" fill="#f9d0a7"/><path d="m30.51 133.72-.92 13.97 48.41-.19 1-13z" fill="#f9d0a7"/><path d="m48 133.5v14l30.51-.03 1-13z" fill="#1b1464"/><g fill="#f9d0a7"><path d="m58.5 92v44h39v-45c17.5-20.5 43.5-12.5 43.5-12.5l5-13a44.49 44.49 0 0 0 -48.5 8.5l-31.5.5h-8s-11-15-46-10l6 14s23-2 40.5 13.5"/><circle cx="147.5" cy="74" r="9.5"/><circle cx="9.5" cy="73" r="9.5"/><ellipse cx="77.39" cy="44.64" rx="32.39" ry="32.14"/><circle cx="108.05" cy="51.28" r="6.45"/></g><path d="m59 63.73c0 2.63 3.36 4.77 7.5 4.77s7.5-2.14 7.5-4.77-3.86-1.23-8-1.23-7-1.41-7 1.23z" fill="#fff"/><path d="m45.64 39.81c.5-5.47 1.36-6.81 2.26-11.81a1.09 1.09 0 0 1 .58-.78l22.76-11.57a1 1 0 0 1 .63-.11l22.37 2.81h10.3a1.09 1.09 0 0 1 .81 1.81 1.08 1.08 0 0 0 .24 1.64c2 1.21 5.73 4.39 3.93 10.72a1.17 1.17 0 0 1 -.09.24c-.44.8.73 4.45-.47 17.23a1.37 1.37 0 0 1 -2.71.15c-2.11-10.14-9.64-21.74-14.07-25.72a1.06 1.06 0 0 0 -.92-.23l-39.75 5.43a1.08 1.08 0 0 0 -.51.26c-.54.51-1.72 5.17-2.76 10.3a1.31 1.31 0 0 1 -2.6-.37z" fill="#d1a44a"/><path d="m76.41 35.32c2.59-.17 22.91-3.74 28.59-13.82 0 0-6-17-23-20 0 0-10.46-1.7-23.2 7.7-.37.28-5.86 6.35-6.12 6.73-1.92 2.73-6.2 9.82-11.94 11.87a.3.3 0 0 0 .06.58c5 .54 21 2 29.24-.84l-9.36 5.22a.2.2 0 0 0 .1.38c4.14-.39 20.88-2 23.17-3.79l-7.6 5.79a.1.1 0 0 0 .06.18z" fill="#ddae47"/><path d="m58.38 116.44h39v20.06h-39z" fill="#1b1464"/><path d="m19.44 126.5h28.44a.12.12 0 0 1 .12.12v11.93a.95.95 0 0 1 -.95.95h-27.61a.44.44 0 0 1 -.44-.44v-12.12a.44.44 0 0 1 .44-.44z" fill="#f9d0a7" transform="matrix(0 -1 1 0 -99.5 166.5)"/><path d="m103 147.84v-14.27l-26.44.65-.62 13.28z" fill="#1b1464"/><path d="m102.44 125.5h27.61a.95.95 0 0 1 .95.95v11.93a.12.12 0 0 1 -.12.12h-28.44a.44.44 0 0 1 -.44-.44v-12.12a.44.44 0 0 1 .44-.44z" fill="#f9d0a7" transform="matrix(0 -1 1 0 -15.5 248.5)"/><circle cx="67.5" cy="92.5" fill="#eac3a0" r="1"/><circle cx="87.5" cy="92.5" fill="#eac3a0" r="1"/><path d="m79.18 118.45a2.83 2.83 0 0 0 2.37-1.21 5.26 5.26 0 0 0 .26-2.94 24.1 24.1 0 0 1 -.43-3.59c0-.85.17-2.37 1-2.89.41-.25 0-.9-.38-.64a3 3 0 0 0 -1.14 1.91 8.32 8.32 0 0 0 -.1 3.26 17.48 17.48 0 0 1 .37 3.31 2.42 2.42 0 0 1 -.33 1.38 2.29 2.29 0 0 1 -1.61.66c-.48 0-.48.79 0 .75z" fill="#fff"/><path d="m76.18 117.7h.09l.19.32-.11.27c.17-.19.34-.36.28-.65a1 1 0 0 0 -.23-.35 1.33 1.33 0 0 1 -.3-.66 10.82 10.82 0 0 1 .06-3.36 15.74 15.74 0 0 0 .11-3.63 4.15 4.15 0 0 0 -.82-2.42c-.35-.33-.89.2-.53.54a2 2 0 0 1 .43 1 8.4 8.4 0 0 1 .23 1.66 23.3 23.3 0 0 1 -.23 3.44 11 11 0 0 0 0 2.86 1.92 1.92 0 0 0 .43 1l.09.08c.07.1.1 0 .06-.17l-.08.08a.43.43 0 0 0 -.14.31.37.37 0 0 0 .18.33.77.77 0 0 0 .29.07c.48.07.47-.68 0-.75z" fill="#fff"/><path d="m80.05 118.23a4 4 0 0 0 1.87-.57c.51-.31 1.08-.79 1-1.45a1.31 1.31 0 0 0 -1.15-1 2.34 2.34 0 0 0 -1.84.31 1.89 1.89 0 0 0 -.81 1.52 1.47 1.47 0 0 1 0 .42c-.06.15-.22.18-.37.21a5.11 5.11 0 0 1 -1.22.21c-.61 0-1.38-.2-1.54-.87-.06-.22 0-.59.2-.71s.47.18.64.31c.4.32.82.62 1.24.92.58.43 1.32.27 1.88.7.39.29.77-.36.38-.65a1.84 1.84 0 0 0 -.83-.37 3.24 3.24 0 0 1 -.87-.2c-.19-.11-.36-.27-.54-.4l-.63-.46c-.44-.31-.83-.77-1.43-.59a1.28 1.28 0 0 0 -.81 1.36 1.79 1.79 0 0 0 1.05 1.46 3.34 3.34 0 0 0 2 .16c.61-.1 1.42-.21 1.58-.93a6.69 6.69 0 0 1 .08-.9 1.2 1.2 0 0 1 .6-.67 1.6 1.6 0 0 1 1.16-.08c.31.08.63.27.41.61a2.76 2.76 0 0 1 -2.07 1c-.48 0-.49.78 0 .75z" fill="#fff"/><g stroke-miterlimit="10"><g stroke="#000" stroke-width="2"><rect fill="#f9d0a7" height="16" rx=".82" width="20" x="73.21" y="35.56"/><rect fill="#f9d0a7" height="16" rx=".82" width="20" x="48.21" y="35.56"/><path d="m68.21 43.56h5" fill="none"/></g><path d="m92.88 44.07-19.17-.01" stroke="#b79274"/><path d="m67.88 44.07-19.17-.01" stroke="#b79274"/><rect fill="none" height="16" rx=".82" stroke="#000" stroke-width="2" width="20" x="48.24" y="35.48"/><rect fill="none" height="16" rx=".82" stroke="#000" stroke-width="2" width="20" x="73.24" y="35.48"/></g></svg>