<svg viewBox="0 0 157 180" xmlns="http://www.w3.org/2000/svg"><path d="m107 127.6h25.79a2.18 2.18 0 0 1 2.18 2.18v10.54a.27.27 0 0 1 -.27.27h-27.7a1 1 0 0 1 -1-1v-11a1 1 0 0 1 1-.99z" fill="#f9d0a7" transform="matrix(0 -1 1 0 -13.64 254.55)"/><path d="m47.95 157.6v-14h11v-10l21 3v21z" fill="#f9d0a7"/><path d="m119.95 134.6v14h-46v-15z" fill="#f9d0a7"/><path d="m54.95 157.6v-14h4v-10l21 3v21z" fill="#1b1464"/><path d="m106.95 134.6v14h-33v-15z" fill="#1b1464"/><path d="m98 89.6-.5 46.5h-39v-45c-8.5-14.5-38.5-.5-38.5-.5l-6-12c27-18 46-6 46-6l2 1h1l30.5.5 5 1s22.5 8.5 40.5-6.5l8 12s-28.79 20-49.5 11.5" fill="#f9d0a7"/><circle cx="11.45" cy="87.1" fill="#f9d0a7" r="9.5"/><circle cx="145.45" cy="72.1" fill="#f9d0a7" r="9.5"/><ellipse cx="78.56" cy="44.74" fill="#f9d0a7" rx="32.39" ry="32.14"/><circle cx="47.9" cy="51.37" fill="#f9d0a7" r="6.45"/><path d="m97 63.82c0 2.64-3.35 4.78-7.5 4.78s-7.5-2.14-7.5-4.78 3.86-1.22 8-1.22 7-1.41 7 1.22z" fill="#fff"/><path d="m110.32 39.91c-.51-5.47-1.36-6.87-2.27-11.78a1.1 1.1 0 0 0 -.58-.78l-22.75-11.6a1.07 1.07 0 0 0 -.63-.11l-22.37 2.81h-10.3a1.09 1.09 0 0 0 -.82 1.81 1.08 1.08 0 0 1 -.23 1.64c-2 1.2-5.74 4.39-3.94 10.72a.94.94 0 0 0 .1.23c.43.81-.73 4.46.47 17.23a1.37 1.37 0 0 0 2.7.16c2.11-10.18 9.64-21.76 14.07-25.74a1.07 1.07 0 0 1 .93-.22l39.74 5.43a1 1 0 0 1 .56.29c.54.51 1.72 5.16 2.77 10.3a1.32 1.32 0 0 0 2.55-.39z" fill="#d1a44a"/><path d="m79.54 35.42c-2.54-.17-22.9-3.75-28.54-13.82 0 0 6-17 23-20 0 0 10.47-1.71 23.21 7.7.37.27 5.85 6.35 6.12 6.72 1.91 2.73 6.19 9.83 11.93 11.88a.29.29 0 0 1 -.06.57c-5 .55-21 2-29.23-.84l9.36 5.23a.2.2 0 0 1 -.11.37c-4.22-.38-20.93-2.03-23.22-3.78l7.6 5.79a.1.1 0 0 1 -.06.18z" fill="#ddae47"/><path d="m28.22 151.6h26.55a2.18 2.18 0 0 1 2.23 2.18v10.54a.27.27 0 0 1 -.27.27h-27.73a1 1 0 0 1 -1-1v-11.72a.27.27 0 0 1 .27-.27z" fill="#f9d0a7" transform="matrix(0 1 -1 0 200.55 115.64)"/><circle cx="88.95" cy="95.6" fill="#eac3a0" r="1"/><circle cx="70.95" cy="95.6" fill="#eac3a0" r="1"/><ellipse cx="79.95" cy="119.1" fill="#eac3a0" rx="1" ry="1.5"/><path d="m58.95 119.6h39v18h-39z" fill="#1b1464" transform="matrix(-1 0 0 -1 156.91 257.19)"/><path d="m80.35 120.21a3.11 3.11 0 0 0 -2.31.84 2.85 2.85 0 0 0 -.34 2.08 14.47 14.47 0 0 1 .45 2.67 2.16 2.16 0 0 1 -1 1.9c-.44.2-.06.84.38.65 1.4-.61 1.49-2.63 1.22-3.89a6.4 6.4 0 0 1 -.33-2.41.94.94 0 0 1 .63-.82 4.07 4.07 0 0 1 1.29-.27c.48 0 .48-.77 0-.75z" fill="#fff"/><path d="m83.35 121-.16-.09-.06-.45c.06-.12.09-.1 0 0a.48.48 0 0 0 -.11.09.44.44 0 0 0 -.13.38c0 .31.37.38.49.64a4.59 4.59 0 0 1 0 2.44 7.87 7.87 0 0 0 -.11 2.65 2.6 2.6 0 0 0 .89 1.77c.4.27.78-.38.38-.65s-.54-1.32-.54-1.78a12.85 12.85 0 0 1 .25-2.47 5.1 5.1 0 0 0 0-2.06 1.37 1.37 0 0 0 -.43-.71.76.76 0 0 0 -.14-.11c-.17 0-.17.43 0 .37a.42.42 0 0 0 .19-.18.39.39 0 0 0 0-.46.56.56 0 0 0 -.37-.13c-.48 0-.48.71 0 .75z" fill="#fff"/><path d="m79.49 120a3 3 0 0 1 -1.94-.79c-.2-.2-.32-.44-.06-.64a1.56 1.56 0 0 1 1-.2 1.22 1.22 0 0 1 1.19 1.25 1.32 1.32 0 0 0 .19.82 1.28 1.28 0 0 0 .79.44c1.22.31 3 .43 3.58-1a1.45 1.45 0 0 0 -.34-1.63 1.14 1.14 0 0 0 -1.56.21c-.38.32-.81.58-1.21.89a1.58 1.58 0 0 1 -.9.31 2.25 2.25 0 0 0 -1 .4c-.38.29 0 .94.38.65s1.07-.26 1.61-.52a9.52 9.52 0 0 0 1.23-.88c.31-.22.92-.92 1.12-.23s-.45 1.12-1 1.24a3.2 3.2 0 0 1 -1.07 0c-.26 0-.93-.09-1-.37a1.86 1.86 0 0 1 0-.41 1.61 1.61 0 0 0 0-.44 1.89 1.89 0 0 0 -.43-.8 2.15 2.15 0 0 0 -1.68-.66 1.82 1.82 0 0 0 -1.52.72c-.37.64.13 1.29.64 1.66a3.93 3.93 0 0 0 2.15.75c.48 0 .48-.72 0-.75z" fill="#fff"/><g stroke-miterlimit="10"><rect fill="#f9d0a7" height="16" rx="5.61" stroke="#000" stroke-width="2" transform="matrix(-1 0 0 -1 146.44 84.54)" width="20" x="63.22" y="34.27"/><rect fill="#f9d0a7" height="16" rx="5.61" stroke="#000" stroke-width="2" transform="matrix(-1 0 0 -1 196.44 84.54)" width="20" x="88.22" y="34.27"/><path d="m88.22 42.27h-5" fill="none" stroke="#000" stroke-width="2"/><path d="m63.55 42.78 19.17-.01" stroke="#b79274"/><path d="m88.55 42.78 19.17-.01" stroke="#b79274"/><rect fill="none" height="16" rx="5.61" stroke="#000" stroke-width="2" transform="matrix(-1 0 0 -1 196.38 84.37)" width="20" x="88.19" y="34.18"/><rect fill="none" height="16" rx="5.61" stroke="#000" stroke-width="2" transform="matrix(-1 0 0 -1 146.38 84.37)" width="20" x="63.19" y="34.18"/></g></svg>