<svg viewBox="0 0 157 180" xmlns="http://www.w3.org/2000/svg"><g fill="#f9d0a7"><path d="m87.75 133h14v40h-14z" transform="matrix(-1 0 0 -1 189.5 306)"/><path d="m62.75 134h14v39h-14z" transform="matrix(-1 0 0 -1 139.5 307)"/><path d="m48.51 160h28a.2.2 0 0 1 .2.2v11.18a1.62 1.62 0 0 1 -1.58 1.62h-26.62a.76.76 0 0 1 -.76-.76v-11.48a.76.76 0 0 1 .76-.76z" transform="matrix(-1 0 0 -1 124.5 333)"/><path d="m88.51 160h26.62a1.62 1.62 0 0 1 1.62 1.62v11.18a.2.2 0 0 1 -.2.2h-28a.76.76 0 0 1 -.76-.76v-11.48a.76.76 0 0 1 .76-.76z"/><path d="m62.75 92v44h39v-45c21 8.53 22.5 29.5 22.5 29.5l13.5-4.5c-7-35-36-42-36-42h-35l-5 1s-28.6 6-35.5 41l14 4.5a36.35 36.35 0 0 1 22.5-28.5"/><circle cx="132.25" cy="123.5" r="9.5"/><circle cx="32.25" cy="123.5" r="9.5"/><ellipse cx="81.64" cy="44.64" rx="32.39" ry="32.14"/><circle cx="112.3" cy="51.28" r="6.45"/></g><path d="m63.25 63.73c0 2.63 3.36 4.77 7.5 4.77s7.5-2.14 7.5-4.77-3.86-1.23-8-1.23-7-1.41-7 1.23z" fill="#fff"/><path d="m49.89 39.81c.5-5.47 1.35-6.86 2.26-11.77a1.09 1.09 0 0 1 .58-.78l22.76-11.61a1 1 0 0 1 .63-.11l22.37 2.81h10.3a1.09 1.09 0 0 1 .81 1.81 1.08 1.08 0 0 0 .24 1.64c2 1.21 5.73 4.39 3.93 10.72a1.17 1.17 0 0 1 -.09.24c-.44.8.73 4.45-.47 17.23a1.37 1.37 0 0 1 -2.71.15c-2.11-10.14-9.64-21.74-14.07-25.72a1.06 1.06 0 0 0 -.92-.23l-39.75 5.43a1.08 1.08 0 0 0 -.51.26c-.54.51-1.72 5.17-2.76 10.3a1.31 1.31 0 0 1 -2.6-.37z" fill="#d1a44a"/><path d="m80.66 35.32c2.59-.17 22.91-3.74 28.59-13.82 0 0-6-17-23-20 0 0-10.46-1.7-23.2 7.7-.37.28-5.86 6.35-6.12 6.73-1.93 2.73-6.2 9.82-11.93 11.87a.3.3 0 0 0 .06.58c5 .54 21 2 29.24-.84l-9.36 5.22a.2.2 0 0 0 .1.38c4.14-.39 20.88-2 23.17-3.79l-7.6 5.79a.1.1 0 0 0 .05.18z" fill="#ddae47"/><path d="m87.69 132.22h14v19h-14z" fill="#1b1464" transform="matrix(-1 0 0 -1 189.37 283.44)"/><path d="m62.69 132.7h14v18.52h-14z" fill="#1b1464" transform="matrix(-1 0 0 -1 139.37 283.92)"/><path d="m62.75 118.5h39v18h-39z" fill="#1b1464"/><circle cx="73.25" cy="90.5" fill="#eac3a0" r="1"/><circle cx="91.25" cy="90.5" fill="#eac3a0" r="1"/><ellipse cx="82.25" cy="118" fill="#eac3a0" rx="1" ry="1.5"/><path d="m82 119.7a3.76 3.76 0 0 1 1.29.27.9.9 0 0 1 .63.82 6.31 6.31 0 0 1 -.32 2.4c-.28 1.27-.19 3.28 1.21 3.9.44.19.82-.46.38-.65a2.19 2.19 0 0 1 -1-1.9 15.2 15.2 0 0 1 .45-2.67 2.86 2.86 0 0 0 -.33-2.09 3.18 3.18 0 0 0 -2.31-.78c-.48 0-.48.73 0 .75z" fill="#fff"/><path d="m79 119a.49.49 0 0 0 -.36.13.38.38 0 0 0 -.06.45s.12.17.18.18v-.41s-.12.08-.14.09a1.31 1.31 0 0 0 -.45.7 4.65 4.65 0 0 0 -.06 2.1 13.16 13.16 0 0 1 .25 2.42c0 .5-.11 1.48-.6 1.8s0 .92.38.65a2.56 2.56 0 0 0 .89-1.78 8.07 8.07 0 0 0 -.1-2.64 4.59 4.59 0 0 1 0-2.44c.11-.25.42-.32.48-.6a.47.47 0 0 0 -.1-.39.5.5 0 0 0 -.13-.12c-.08-.06-.07-.11 0 0l-.06.45-.17.09c.48 0 .49-.79 0-.75z" fill="#fff"/><path d="m82.9 119.47a4 4 0 0 0 1.87-.57c.51-.3 1.09-.79 1-1.45a1.33 1.33 0 0 0 -1.15-1 2.34 2.34 0 0 0 -1.84.31 1.9 1.9 0 0 0 -.81 1.52 1.18 1.18 0 0 1 0 .42c-.06.15-.22.18-.37.22a5.65 5.65 0 0 1 -1.22.2c-.61 0-1.37-.2-1.54-.87-.06-.22 0-.59.2-.71s.47.18.64.31c.4.32.83.62 1.24.93.58.42 1.32.26 1.89.69.38.29.76-.36.38-.65a2 2 0 0 0 -.84-.37 2.77 2.77 0 0 1 -.86-.2 3.59 3.59 0 0 1 -.54-.4l-.64-.45c-.43-.32-.83-.77-1.43-.6a1.29 1.29 0 0 0 -.81 1.36 1.8 1.8 0 0 0 1.06 1.46 3.3 3.3 0 0 0 2 .17c.61-.11 1.43-.22 1.58-.94a8.85 8.85 0 0 1 .08-.9 1.2 1.2 0 0 1 .6-.67 1.65 1.65 0 0 1 1.16-.08c.31.08.63.27.41.62a2.79 2.79 0 0 1 -2.07 1c-.48 0-.48.78 0 .75z" fill="#fff"/><rect fill="#f9d0a7" height="16" rx=".82" stroke="#000" stroke-miterlimit="10" stroke-width="2" width="20" x="76.5" y="35.5"/><rect fill="#f9d0a7" height="16" rx=".82" stroke="#000" stroke-miterlimit="10" stroke-width="2" width="20" x="51.5" y="35.5"/><path d="m71.5 43.5h5" fill="none" stroke="#000" stroke-miterlimit="10" stroke-width="2"/><path d="m96.17 44.01-19.17-.01" stroke="#b79274" stroke-miterlimit="10"/><path d="m71.17 44.01-19.17-.01" stroke="#b79274" stroke-miterlimit="10"/><rect fill="none" height="16" rx=".82" stroke="#000" stroke-miterlimit="10" stroke-width="2" width="20" x="76.5" y="35.5"/><rect fill="none" height="16" rx=".82" stroke="#000" stroke-miterlimit="10" stroke-width="2" width="20" x="51.5" y="35.5"/></svg>