<svg viewBox="0 0 157 180" xmlns="http://www.w3.org/2000/svg"><path d="m122.41 147.02.08-14-45.44 1.15-.61 13.02z" fill="#f9d0a7"/><path d="m30.51 133.72-.92 13.97 48.41-.19 1-13z" fill="#f9d0a7"/><path d="m48 133.5v14l30.51-.03 1-13z" fill="#1b1464"/><g fill="#f9d0a7"><path d="m58.5 92v44h39v-45c17.5-20.5 43.5-12.5 43.5-12.5l5-13a44.49 44.49 0 0 0 -48.5 8.5l-31.5.5h-8s-11-15-46-10l6 14s23-2 40.5 13.5"/><circle cx="147.5" cy="74" r="9.5"/><circle cx="9.5" cy="73" r="9.5"/><ellipse cx="77.39" cy="44.64" rx="32.39" ry="32.14"/><circle cx="108.05" cy="51.28" r="6.45"/></g><path d="m59 63.73c0 2.63 3.36 4.77 7.5 4.77s7.5-2.14 7.5-4.77-3.86-1.23-8-1.23-7-1.41-7 1.23z" fill="#fff"/><path d="m45.64 39.81c.5-5.47 1.36-6.81 2.26-11.81a1.09 1.09 0 0 1 .58-.78l22.76-11.57a1 1 0 0 1 .63-.11l22.37 2.81h10.3a1.09 1.09 0 0 1 .81 1.81 1.08 1.08 0 0 0 .24 1.64c2 1.21 5.73 4.39 3.93 10.72a1.17 1.17 0 0 1 -.09.24c-.44.8.73 4.45-.47 17.23a1.37 1.37 0 0 1 -2.71.15c-2.11-10.14-9.64-21.74-14.07-25.72a1.06 1.06 0 0 0 -.92-.23l-39.75 5.43a1.08 1.08 0 0 0 -.51.26c-.54.51-1.72 5.17-2.76 10.3a1.31 1.31 0 0 1 -2.6-.37z" fill="#d1a44a"/><path d="m76.41 35.32c2.59-.17 22.91-3.74 28.59-13.82 0 0-6-17-23-20 0 0-10.46-1.7-23.2 7.7-.37.28-5.86 6.35-6.12 6.73-1.92 2.73-6.2 9.82-11.94 11.87a.3.3 0 0 0 .06.58c5 .54 21 2 29.24-.84l-9.36 5.22a.2.2 0 0 0 .1.38c4.14-.39 20.88-2 23.17-3.79l-7.6 5.79a.1.1 0 0 0 .06.18z" fill="#ddae47"/><rect fill="#fff" height="16" rx="8" stroke="#000" stroke-miterlimit="10" stroke-width="2" width="20" x="73" y="35.5"/><rect fill="#fff" height="16" rx="8" stroke="#000" stroke-miterlimit="10" stroke-width="2" width="20" x="48" y="35.5"/><path d="m68 43.5h5" fill="none" stroke="#000" stroke-miterlimit="10" stroke-width="2"/><circle cx="54.5" cy="43" r="1.5"/><circle cx="78.5" cy="43" r="1.5"/><path d="m58.38 116.44h39v20.06h-39z" fill="#1b1464"/><path d="m21.61 126.5h25.69a.7.7 0 0 1 .7.7v6.8a5.55 5.55 0 0 1 -5.55 5.55h-20.84a2.61 2.61 0 0 1 -2.61-2.66v-7.79a2.61 2.61 0 0 1 2.61-2.61z" fill="#f9d0a7" transform="matrix(0 -1 1 0 -99.5 166.5)"/><path d="m103 147.84v-14.27l-26.44.65-.62 13.28z" fill="#1b1464"/><path d="m103.83 125.5h23.28a3.89 3.89 0 0 1 3.89 3.89v8.61a.49.49 0 0 1 -.49.49h-27.51a1 1 0 0 1 -1-1v-10.16a1.83 1.83 0 0 1 1.83-1.83z" fill="#f9d0a7" transform="matrix(0 -1 1 0 -15.5 248.5)"/><circle cx="87" cy="94.5" fill="#eac3a0" r="1"/><circle cx="67" cy="94.5" fill="#eac3a0" r="1"/><g fill="#fff"><path d="m77.18 116.86a3.19 3.19 0 0 0 -2.31.84 2.85 2.85 0 0 0 -.34 2.08 14.43 14.43 0 0 1 .45 2.68 2.15 2.15 0 0 1 -1 1.9c-.44.19-.06.84.38.64 1.4-.61 1.5-2.63 1.22-3.89a6.6 6.6 0 0 1 -.33-2.41.94.94 0 0 1 .63-.82 4.07 4.07 0 0 1 1.29-.27c.48 0 .49-.77 0-.75z"/><path d="m80.18 117.61-.16-.08-.06-.46c.06-.12.09-.1 0 0l-.11.09a.46.46 0 0 0 -.13.38c0 .31.37.38.49.65a4.56 4.56 0 0 1 0 2.43 8.14 8.14 0 0 0 -.11 2.65 2.58 2.58 0 0 0 .9 1.73c.41.27.78-.38.38-.64s-.56-1.25-.59-1.74a12.88 12.88 0 0 1 .25-2.48 5.1 5.1 0 0 0 0-2.06 1.41 1.41 0 0 0 -.43-.71.36.36 0 0 0 -.14-.1c-.17-.06-.17.43 0 .36a.39.39 0 0 0 .14-.63.5.5 0 0 0 -.37-.14c-.48 0-.48.71 0 .75z"/><path d="m76.32 116.63a3 3 0 0 1 -1.94-.79c-.2-.2-.32-.44-.06-.63a1.52 1.52 0 0 1 1-.21 1.23 1.23 0 0 1 1.19 1.26 1.27 1.27 0 0 0 .19.81 1.3 1.3 0 0 0 .79.45c1.22.3 3 .42 3.58-1a1.46 1.46 0 0 0 -.34-1.63 1.14 1.14 0 0 0 -1.56.21c-.37.33-.81.58-1.2.89a1.72 1.72 0 0 1 -.9.32 2.07 2.07 0 0 0 -1 .4c-.38.28 0 .93.38.65s1.08-.27 1.61-.53a8.65 8.65 0 0 0 1.23-.88c.31-.22.92-.92 1.12-.23s-.45 1.13-1 1.24a2.7 2.7 0 0 1 -1.06 0c-.27-.05-.94-.08-1-.36a1.48 1.48 0 0 1 0-.42 1.61 1.61 0 0 0 0-.44 1.8 1.8 0 0 0 -.43-.79 2.16 2.16 0 0 0 -1.68-.67 1.82 1.82 0 0 0 -1.52.72c-.37.65.13 1.29.64 1.66a4 4 0 0 0 2.15.75c.48 0 .48-.72 0-.75z"/></g></svg>