<svg viewBox="0 0 157 180" xmlns="http://www.w3.org/2000/svg"><path d="m21 127.6h28.43a.12.12 0 0 1 .12.12v11.93a.95.95 0 0 1 -.95.95h-27.6a.44.44 0 0 1 -.44-.44v-12.16a.44.44 0 0 1 .44-.44z" fill="#f9d0a7" transform="matrix(0 -1 1 0 -99.05 169.14)"/><path d="m107.55 157.6v-14h-11v-10l-21 3v21z" fill="#f9d0a7"/><path d="m35.55 134.6v14h46v-15z" fill="#f9d0a7"/><path d="m100.55 157.6v-14h-4v-10l-21 3v21z" fill="#1b1464"/><path d="m48.55 134.6v14h33v-15z" fill="#1b1464"/><g fill="#f9d0a7"><path d="m57.55 89.6.5 46.5h39v-45c8.5-14.5 38.5-.5 38.5-.5l6-12c-27-18-46-6-46-6l-2 1h-1l-30.5.5-5 1s-22.5 8.52-40.5-6.48l-8 12s28.79 20 49.5 11.5"/><circle cx="144.05" cy="87.1" r="9.5"/><circle cx="10.05" cy="72.1" r="9.5"/><ellipse cx="76.94" cy="44.74" rx="32.39" ry="32.14"/><circle cx="107.6" cy="51.37" r="6.45"/></g><path d="m58.55 63.82c0 2.64 3.35 4.78 7.5 4.78s7.5-2.14 7.5-4.78-3.86-1.22-8-1.22-7-1.41-7 1.22z" fill="#fff"/><path d="m45.18 39.91c.51-5.47 1.36-6.87 2.27-11.78a1.1 1.1 0 0 1 .58-.78l22.75-11.6a1.07 1.07 0 0 1 .63-.11l22.37 2.81h10.3a1.09 1.09 0 0 1 .82 1.81 1.08 1.08 0 0 0 .23 1.64c2 1.2 5.74 4.39 3.94 10.72a.94.94 0 0 1 -.1.23c-.43.81.73 4.46-.47 17.23a1.37 1.37 0 0 1 -2.7.16c-2.11-10.18-9.64-21.76-14.07-25.74a1.07 1.07 0 0 0 -.93-.22l-39.74 5.44a1 1 0 0 0 -.51.26c-.54.51-1.72 5.16-2.77 10.3a1.32 1.32 0 0 1 -2.6-.37z" fill="#d1a44a"/><path d="m76 35.42c2.59-.17 22.9-3.75 28.59-13.82 0 0-6-17-23-20 0 0-10.47-1.71-23.21 7.7-.37.27-5.85 6.35-6.12 6.72-1.95 2.73-6.26 9.83-11.97 11.88a.29.29 0 0 0 .06.57c5 .55 21 2 29.23-.84l-9.36 5.23a.2.2 0 0 0 .11.37c4.13-.38 20.88-2 23.17-3.78l-7.6 5.79a.1.1 0 0 0 .1.18z" fill="#ddae47"/><path d="m99 151.6h28.44a.12.12 0 0 1 .12.12v11.93a.95.95 0 0 1 -.95.95h-27.95a.12.12 0 0 1 -.12-.12v-12.48a.44.44 0 0 1 .46-.4z" fill="#f9d0a7" transform="matrix(0 1 -1 0 271.14 45.05)"/><circle cx="66.55" cy="95.6" fill="#eac3a0" r="1"/><circle cx="84.55" cy="95.6" fill="#eac3a0" r="1"/><ellipse cx="75.55" cy="119.1" fill="#eac3a0" rx="1" ry="1.5"/><path d="m57.55 119.6h39v18h-39z" fill="#1b1464"/><path d="m75.15 121a4.07 4.07 0 0 1 1.29.27.94.94 0 0 1 .63.82 6.4 6.4 0 0 1 -.33 2.41c-.27 1.26-.18 3.28 1.22 3.89.44.19.82-.45.38-.65a2.16 2.16 0 0 1 -1-1.9 14.47 14.47 0 0 1 .45-2.67 2.84 2.84 0 0 0 -.34-2.08 3.11 3.11 0 0 0 -2.31-.84c-.48 0-.48.73 0 .75z" fill="#fff"/><path d="m72.15 120.21a.54.54 0 0 0 -.37.13.39.39 0 0 0 0 .46s.12.17.17.17v-.41a.57.57 0 0 0 -.13.1 1.41 1.41 0 0 0 -.46.69 5 5 0 0 0 -.06 2.11 12.17 12.17 0 0 1 .25 2.41c0 .51-.11 1.48-.59 1.8s0 .92.38.65a2.6 2.6 0 0 0 .89-1.77 7.87 7.87 0 0 0 -.11-2.65 4.59 4.59 0 0 1 0-2.44c.12-.25.43-.31.49-.59a.45.45 0 0 0 -.1-.39.44.44 0 0 0 -.14-.13c-.07 0-.07-.1 0 0l-.06.45-.16.09c.48 0 .48-.79 0-.75z" fill="#fff"/><path d="m76 120.73a4.12 4.12 0 0 0 1.88-.56c.51-.31 1.08-.8 1-1.45a1.33 1.33 0 0 0 -1.15-1.06 2.34 2.34 0 0 0 -1.84.32 1.89 1.89 0 0 0 -.81 1.52 1.88 1.88 0 0 1 0 .41c-.06.16-.23.18-.37.22a5.64 5.64 0 0 1 -1.23.2c-.6 0-1.37-.2-1.54-.86 0-.23 0-.6.21-.71s.47.17.64.31c.4.32.82.62 1.24.92s1.31.27 1.88.69c.39.29.76-.36.38-.65a2.08 2.08 0 0 0 -.83-.37 2.62 2.62 0 0 1 -.87-.2 5 5 0 0 1 -.54-.4l-.63-.45c-.44-.32-.83-.77-1.43-.6a1.3 1.3 0 0 0 -.82 1.36 1.79 1.79 0 0 0 1.06 1.46 3.33 3.33 0 0 0 2 .17c.61-.11 1.42-.22 1.58-.94a7 7 0 0 1 .08-.9 1.16 1.16 0 0 1 .59-.66 1.69 1.69 0 0 1 1.17-.09c.3.09.63.27.41.62a2.81 2.81 0 0 1 -2.06.97c-.48 0-.48.78 0 .75z" fill="#fff"/><g stroke-miterlimit="10"><g stroke="#000" stroke-width="2"><rect fill="#f9d0a7" height="16" rx=".82" width="20" x="72.28" y="34.27"/><rect fill="#f9d0a7" height="16" rx=".82" width="20" x="47.28" y="34.27"/><path d="m67.28 42.27h5" fill="none"/></g><path d="m91.95 42.78-19.17-.01" stroke="#b79274"/><path d="m66.95 42.78-19.17-.01" stroke="#b79274"/><rect fill="none" height="16" rx=".82" stroke="#000" stroke-width="2" width="20" x="47.31" y="34.18"/><rect fill="none" height="16" rx=".82" stroke="#000" stroke-width="2" width="20" x="72.31" y="34.18"/></g></svg>