<svg viewBox="0 0 157 180" xmlns="http://www.w3.org/2000/svg"><g fill="#f9d0a7"><path d="m78.5 133h14v40h-14z" transform="matrix(-1 0 0 -1 171 306)"/><path d="m53.5 134h14v39h-14z" transform="matrix(-1 0 0 -1 121 307)"/><path d="m41.11 160h25.69a.7.7 0 0 1 .7.7v6.76a5.55 5.55 0 0 1 -5.5 5.54h-20.89a2.61 2.61 0 0 1 -2.61-2.61v-7.79a2.61 2.61 0 0 1 2.61-2.6z" transform="matrix(-1 0 0 -1 106 333)"/><path d="m81.11 160h20.89a5.55 5.55 0 0 1 5.55 5.55v6.76a.7.7 0 0 1 -.7.7h-25.74a2.61 2.61 0 0 1 -2.61-2.61v-7.79a2.61 2.61 0 0 1 2.61-2.61z"/><path d="m53.5 92v44h39v-45c21 8.53 22.5 29.5 22.5 29.5l13.5-4.5c-7-35-36-42-36-42h-35l-5 1s-28.6 6-35.5 41l14 4.5a36.35 36.35 0 0 1 22.5-28.5"/><circle cx="123" cy="123.5" r="9.5"/><circle cx="23" cy="123.5" r="9.5"/><ellipse cx="72.39" cy="44.64" rx="32.39" ry="32.14"/><circle cx="103.05" cy="51.28" r="6.45"/></g><path d="m54 63.73c0 2.63 3.36 4.77 7.5 4.77s7.5-2.14 7.5-4.77-3.86-1.23-8-1.23-7-1.41-7 1.23z" fill="#fff"/><path d="m40.64 39.81c.5-5.47 1.36-6.81 2.26-11.81a1.09 1.09 0 0 1 .58-.78l22.76-11.57a1 1 0 0 1 .63-.11l22.37 2.81h10.3a1.09 1.09 0 0 1 .81 1.81 1.08 1.08 0 0 0 .24 1.64c2 1.21 5.73 4.39 3.93 10.72a1.17 1.17 0 0 1 -.09.24c-.44.8.73 4.45-.47 17.23a1.37 1.37 0 0 1 -2.71.15c-2.11-10.14-9.64-21.74-14.07-25.72a1.06 1.06 0 0 0 -.92-.23l-39.75 5.43a1.08 1.08 0 0 0 -.51.26c-.54.51-1.72 5.17-2.76 10.3a1.31 1.31 0 0 1 -2.6-.37z" fill="#d1a44a"/><path d="m71.41 35.32c2.59-.17 22.91-3.74 28.59-13.82 0 0-6-17-23-20 0 0-10.46-1.7-23.2 7.7-.37.28-5.86 6.35-6.12 6.73-1.92 2.73-6.2 9.82-11.94 11.87a.3.3 0 0 0 .06.58c5 .54 21 2 29.24-.84l-9.36 5.22a.2.2 0 0 0 .1.38c4.14-.39 20.88-2 23.17-3.79l-7.6 5.79a.1.1 0 0 0 .06.18z" fill="#ddae47"/><rect fill="#fff" height="16" rx="8" stroke="#000" stroke-miterlimit="10" stroke-width="2" width="20" x="67" y="35.5"/><rect fill="#fff" height="16" rx="8" stroke="#000" stroke-miterlimit="10" stroke-width="2" width="20" x="42" y="35.5"/><path d="m62 43.5h5" fill="none" stroke="#000" stroke-miterlimit="10" stroke-width="2"/><circle cx="48.5" cy="43" r="1.5"/><circle cx="72.5" cy="43" r="1.5"/><path d="m78.44 132.22h14v19h-14z" fill="#1b1464" transform="matrix(-1 0 0 -1 170.87 283.44)"/><path d="m53.44 132.7h14v18.52h-14z" fill="#1b1464" transform="matrix(-1 0 0 -1 120.87 283.92)"/><circle cx="64" cy="94.5" fill="#eac3a0" r="1"/><circle cx="82" cy="94.5" fill="#eac3a0" r="1"/><ellipse cx="73" cy="118" fill="#eac3a0" rx="1" ry="1.5"/><path d="m53.5 118.5h39v18h-39z" fill="#1b1464"/><g fill="#fff"><path d="m73 119.12a3.19 3.19 0 0 0 -2.31.84 2.86 2.86 0 0 0 -.34 2.09 14.19 14.19 0 0 1 .45 2.67 2.16 2.16 0 0 1 -1 1.9c-.44.19-.06.84.38.65 1.4-.62 1.49-2.64 1.22-3.9a6.34 6.34 0 0 1 -.33-2.4.94.94 0 0 1 .63-.83 4.07 4.07 0 0 1 1.29-.27c.48 0 .48-.77 0-.75z"/><path d="m76 119.88-.16-.09-.06-.46c.06-.11.09-.1 0 0l-.1.08a.46.46 0 0 0 -.13.38c0 .31.37.39.49.65a4.56 4.56 0 0 1 0 2.43 7.88 7.88 0 0 0 -.11 2.65 2.6 2.6 0 0 0 .89 1.78c.4.26.78-.39.38-.65s-.56-1.25-.59-1.74a13 13 0 0 1 .25-2.48 5.1 5.1 0 0 0 0-2.06 1.45 1.45 0 0 0 -.43-.71s-.09-.09-.14-.1-.17.43 0 .37a.39.39 0 0 0 .19-.19.38.38 0 0 0 0-.45.51.51 0 0 0 -.37-.13c-.48 0-.48.71 0 .75z"/><path d="m72.14 118.9a3 3 0 0 1 -1.94-.8c-.2-.2-.32-.44-.06-.63a1.43 1.43 0 0 1 1-.2 1.22 1.22 0 0 1 1.19 1.25 1.32 1.32 0 0 0 .19.82 1.33 1.33 0 0 0 .79.44c1.22.3 3 .43 3.58-1a1.47 1.47 0 0 0 -.34-1.64 1.15 1.15 0 0 0 -1.56.21c-.38.33-.81.59-1.21.89a1.66 1.66 0 0 1 -.9.32 2 2 0 0 0 -1 .4c-.38.29 0 .94.38.65s1.07-.27 1.61-.53a9.44 9.44 0 0 0 1.23-.87c.31-.23.92-.92 1.12-.24s-.45 1.13-1 1.25a3 3 0 0 1 -1.07 0c-.26 0-.93-.08-1-.36a2 2 0 0 1 0-.42 1.65 1.65 0 0 0 0-.44 1.85 1.85 0 0 0 -.43-.79 2.16 2.16 0 0 0 -1.68-.67 1.84 1.84 0 0 0 -1.52.72c-.37.65.13 1.29.64 1.67a4 4 0 0 0 2.15.75c.48 0 .48-.72 0-.75z"/></g></svg>