<svg height="584" viewBox="0 0 485 584" width="485" xmlns="http://www.w3.org/2000/svg"><path d="m113.71 405.87c16.44-8.95 55.58-25.18 83.55-25.91.59.13 1.19.2 1.78.32l23.55-110c-15.84 3-66.76 15.74-95.75 60.56-34.63 53.51-32.9 85.78-13.13 75z" fill="#8a302e"/><path d="m384.76 463.37c19.36-49.15.69-97.51-6.3-112.68l-76.63 83.75c.31-.31.62-.62.92-.94.23.21.44.46.67.67 15.92 23 25.65 64.83 28 83.55 2.76 22.34 30 4.95 53.37-54.35z" fill="#ceb15d"/><path d="m245.21 418.05c-.35-.17-.66-.35-1-.53v.06c-32.61-16.94-42.26-31.08-45-36.61q-2.37 13.45-4.88 27.77s3.17 14.46 38.81 32.77 49.43 12.58 49.43 12.58l19.24-19.65.44-.47.06-.06c-6.26 1-23.79 1.26-57.08-15.86z" fill="#54648b"/><path d="m384.75 463.31c19.37-49.15.69-97.51-6.29-112.67l-76.63 83.75.91-.95c.24.21.44.46.68.67 15.92 23 25.65 64.83 28 83.54 2.77 22.35 30 5 53.37-54.34z" fill="#8a302e"/><path d="m433 250.44c3.8-12.08 6.81-23.64 9.17-34.65 16.53-77.07.81-127.78-5.9-144.55a38.3 38.3 0 0 1 -11.92-3.46v.08c-.16-.07-.32-.13-.48-.21s-.51-.22-.76-.35a38.5 38.5 0 0 1 -8.48-5.95c-16.15 4.18-54.55 17.59-97.72 57.13a360.18 360.18 0 0 0 -44.52 49.4c-24 32-38.7 64.72-49.63 102.37h-.17l-15 70.28-8.59 39.75.3.05c0 .21-.08.43-.11.64 2.59 5.33 11.64 18.59 41.3 34.66 1.51.83 3 1.65 4.67 2.48 33.34 17.11 50.84 16.89 57.11 15.89l76.19-83.29c24.36-30.97 42.54-62.03 54.54-100.27z" fill="#c4c4c3"/><path d="m447.87 39.88c1.47-7.69.37-12.22-1.83-13.36a3.21 3.21 0 0 0 -.36-.08c-1.63-.57-4.2.19-7.41 2.63a34.85 34.85 0 0 0 -4.18 3.78c-5.32 5.57-13 16.77-19 28.35l-.41.13a38.87 38.87 0 0 0 8.48 6l.77.34a38.6 38.6 0 0 0 12.37 3.63v-.06-.09c5.15-10.34 9.27-21.36 11.06-28.87.2-.83.4-1.66.54-2.4z" fill="#9a3f3e"/><path d="m375.16 161.57a47 47 0 1 0 1.82.69c-.59-.31-1.2-.44-1.8-.72z" fill="#59595b"/><path d="m423.54 67.5.33.15.2.08-.18-.08-.34-.15a3.49 3.49 0 0 1 .34.15l.19.08-.19-.08a2.41 2.41 0 0 0 -.33-.15z" fill="#a4a6a9"/></svg>