<svg viewBox="0 0 157 180" xmlns="http://www.w3.org/2000/svg"><path d="m78.5 133h14v40h-14z" fill="#1b1464" transform="matrix(-1 0 0 -1 171 306)"/><path d="m78.5 160h30v13h-30z" fill="#8c6239" transform="matrix(-1 0 0 -1 187 333)"/><path d="m53.5 134h14v39h-14z" fill="#1b1464" transform="matrix(-1 0 0 -1 121 307)"/><path d="m38.5 160h29v13h-29z" fill="#8c6239" transform="matrix(-1 0 0 -1 106 333)"/><path d="m53.5 92v44h39v-45c21 8.53 21 28 21 28l15-3c-7-35-36-42-36-42h-35l-5 1s-28.6 6-35.5 41l14.79 3s1-18.47 21.71-27" fill="#fff"/><circle cx="123" cy="123.5" fill="#f9d0a7" r="9.5"/><circle cx="23" cy="123.5" fill="#f9d0a7" r="9.5"/><path d="m78.01 74-4.51 10h-5l-6-10z" fill="#006837"/><path d="m73.5 84 3 41-5.59 7.34a.53.53 0 0 1 -.88 0l-4.53-7.34 3-41z" fill="#009245"/><path d="m78.5 74-4.42 8.07a.8.8 0 0 0 1.17.91l15.75-8.98z" fill="#e6e6e6"/><path d="m67.93 82-4.93-8h-9.5l14 8.42a.32.32 0 0 0 .43-.42z" fill="#e6e6e6"/><ellipse cx="72.39" cy="44.64" fill="#f9d0a7" rx="32.39" ry="32.14"/><circle cx="103.05" cy="51.28" fill="#f9d0a7" r="6.45"/><path d="m54 63.73c0 2.63 3.36 4.77 7.5 4.77s7.5-2.14 7.5-4.77-3.86-1.23-8-1.23-7-1.41-7 1.23z" fill="#fff"/><path d="m40.64 39.81c.5-5.47 1.36-6.81 2.26-11.81a1.09 1.09 0 0 1 .58-.78l22.76-11.57a1 1 0 0 1 .63-.11l22.37 2.81h10.3a1.09 1.09 0 0 1 .81 1.81 1.08 1.08 0 0 0 .24 1.64c2 1.21 5.73 4.39 3.93 10.72a1.17 1.17 0 0 1 -.09.24c-.44.8.73 4.45-.47 17.23a1.37 1.37 0 0 1 -2.71.15c-2.11-10.14-9.64-21.74-14.07-25.72a1.06 1.06 0 0 0 -.92-.23l-39.75 5.43a1.08 1.08 0 0 0 -.51.26c-.54.51-1.72 5.17-2.76 10.3a1.31 1.31 0 0 1 -2.6-.37z" fill="#d1a44a"/><path d="m71.41 35.32c2.59-.17 22.91-3.74 28.59-13.82 0 0-6-17-23-20 0 0-10.46-1.7-23.2 7.7-.37.28-5.86 6.35-6.12 6.73-1.92 2.73-6.2 9.82-11.94 11.87a.3.3 0 0 0 .06.58c5 .54 21 2 29.24-.84l-9.36 5.22a.2.2 0 0 0 .1.38c4.14-.39 20.88-2 23.17-3.79l-7.6 5.79a.1.1 0 0 0 .06.18z" fill="#ddae47"/><g stroke-miterlimit="10"><rect fill="#f9d0a7" height="16" rx="8" stroke="#000" stroke-width="2" width="20" x="67" y="35.5"/><rect fill="#f9d0a7" height="16" rx="8" stroke="#000" stroke-width="2" width="20" x="42" y="35.5"/><path d="m62 43.5h5" fill="none" stroke="#000" stroke-width="2"/><path d="m42.5 44 18.5-.5" stroke="#b79274"/><path d="m68 44h18" stroke="#b79274"/></g><path d="m42 43.27a5.7 5.7 0 0 0 .2 1.49.64.64 0 0 0 .13.26.44.44 0 0 0 .66-.13 1.23 1.23 0 0 0 .14-.76 1.86 1.86 0 0 0 -.1-.7.7.7 0 0 0 -.51-.45.46.46 0 0 0 -.51.51"/></svg>