<svg viewBox="0 0 157 180" xmlns="http://www.w3.org/2000/svg"><path d="m109.86 100.5h14v40h-14z" fill="#1b1464" transform="matrix(-.84301613 .53788828 -.53788828 -.84301613 280.18 159.24)"/><path d="m133.71 133.55 22.29-14.14-6.99-10.96-22.29 14.14z" fill="#8c6239"/><path d="m92.16 121.93h14v39h-14z" fill="#1b1464" transform="matrix(-.83971465 .5430279 -.5430279 -.83971465 259.22 206.33)"/><path d="m97.92 154.73h29v14.72h-29z" fill="#8c6239" transform="matrix(.5430279 .83971465 -.83971465 .5430279 187.48 -20.33)"/><path d="m60.86 91.5 22 38 35-20-12-20-8-15c6 11 1 2 1 2v-1a1 1 0 0 1 -1-1l-2-3-3-4-30 9h-23s-11 0-27-1v15s13 2 33.5 1.5z" fill="#fff"/><circle cx="10.36" cy="83" fill="#f9d0a7" r="9.5"/><path d="m78.86 73.13-.14 10.97-4.58 2-11.28-9.6z" fill="#006837"/><path d="m78.72 84.1 19.15 36.38-2.19 9a.53.53 0 0 1 -.79.39l-7.11-5-13.64-38.77z" fill="#009245"/><path d="m79.31 72.94-.83 9.16a.8.8 0 0 0 1.43.37l10.81-14.47z" fill="#e6e6e6"/><path d="m72.81 84.48-10-8h-9l18.72 8.56a.32.32 0 0 0 .28-.56z" fill="#e6e6e6"/><ellipse cx="65.25" cy="44.64" fill="#f9d0a7" rx="32.39" ry="32.14"/><circle cx="95.91" cy="51.28" fill="#f9d0a7" r="6.45"/><path d="m46.86 63.73c0 2.63 3.36 4.77 7.5 4.77s7.5-2.14 7.5-4.77-3.86-1.23-8-1.23-7-1.41-7 1.23z" fill="#fff"/><path d="m33.49 39.81c.51-5.47 1.36-6.81 2.27-11.81a1.09 1.09 0 0 1 .58-.78l22.76-11.57a1 1 0 0 1 .63-.11l22.37 2.81h10.3a1.09 1.09 0 0 1 .81 1.81 1.09 1.09 0 0 0 .23 1.64c2 1.21 5.74 4.39 3.94 10.72a1.17 1.17 0 0 1 -.09.24c-.44.8.72 4.45-.47 17.23a1.37 1.37 0 0 1 -2.71.15c-2.11-10.14-9.64-21.74-14.11-25.72a1.07 1.07 0 0 0 -.93-.23l-39.7 5.43a1.08 1.08 0 0 0 -.51.26c-.54.51-1.72 5.17-2.77 10.3a1.31 1.31 0 0 1 -2.6-.37z" fill="#d1a44a"/><path d="m64.27 35.32c2.59-.17 22.9-3.74 28.59-13.82 0 0-6-17-23-20 0 0-10.46-1.7-23.2 7.7-.37.28-5.86 6.35-6.12 6.73-1.92 2.73-6.2 9.82-11.94 11.87a.3.3 0 0 0 .06.58c5 .54 21 2 29.23-.84l-9.35 5.22a.2.2 0 0 0 .1.38c4.13-.39 20.88-2 23.17-3.79l-7.6 5.79a.1.1 0 0 0 .06.18z" fill="#ddae47"/><g stroke="#000" stroke-miterlimit="10" stroke-width="2"><rect fill="#fff" height="16" rx="8" width="20" x="61" y="35.5"/><rect fill="#fff" height="16" rx="8" width="20" x="36" y="35.5"/><path d="m56 43.5h5" fill="none"/></g><circle cx="42.5" cy="43" r="1.5"/><circle cx="66.5" cy="43" r="1.5"/></svg>