<svg viewBox="0 0 157 180" xmlns="http://www.w3.org/2000/svg"><path d="m86.1 156.3h29v13.87h-29z" fill="#8c6239" transform="matrix(-.53 -.85 .85 -.53 16.13 335.36)"/><path d="m101.53 108.5h14v40h-14z" fill="#1b1464" transform="matrix(-.86637426 .49939528 -.49939528 -.86637426 266.73 185.62)"/><path d="m108.78 147.45h30v13.99h-30z" fill="#8c6239" transform="matrix(-.5 -.8660254 .8660254 -.5 51.91 338.86)"/><path d="m86.15 154.39 2.32 3.11 12-8-8.59-13.2-13.1-22.69-12.13 7z" fill="#1b1464"/><path d="m49 90.84 22 37.66 34.16-20.2-17.7-33.8h6a341.54 341.54 0 0 1 36 0l-1-12c-26-1-34 0-34 0h-12l-35 12-4 2-3 2a16.65 16.65 0 0 1 5 6l2 4s0 1 1.56 2.34" fill="#fff"/><circle cx="134.96" cy="69" fill="#f9d0a7" r="9.5"/><path d="m67.6 69.55.5 10.96-4.46 2.26-9.87-6.21z" fill="#006837"/><path d="m68.1 80.51 21.22 35.21-1.67 9.08a.53.53 0 0 1 -.76.43l-7.38-4.53-15.87-37.93z" fill="#009245"/><path d="m68 69.33-.3 9.19a.8.8 0 0 0 1.46.29l9.98-15.11z" fill="#e6e6e6"/><path d="m62.22 81.23-8-4.89-10.75.16 18.53 5.32a.32.32 0 0 0 .22-.59z" fill="#e6e6e6"/><ellipse cx="51.86" cy="44.64" fill="#f9d0a7" rx="32.39" ry="32.14"/><circle cx="82.52" cy="51.28" fill="#f9d0a7" r="6.45"/><path d="m33.46 63.73c0 2.63 3.36 4.77 7.5 4.77s7.5-2.14 7.5-4.77-3.85-1.23-8-1.23-7-1.41-7 1.23z" fill="#fff"/><path d="m20.1 39.81c.51-5.47 1.36-6.81 2.27-11.81a1.07 1.07 0 0 1 .57-.78l22.76-11.57a1.07 1.07 0 0 1 .63-.11l22.37 2.81h10.3a1.09 1.09 0 0 1 .82 1.81 1.08 1.08 0 0 0 .23 1.64c2 1.21 5.74 4.39 3.94 10.72a1.22 1.22 0 0 1 -.1.24c-.43.8.73 4.45-.47 17.23a1.37 1.37 0 0 1 -2.7.15c-2.11-10.14-9.64-21.74-14.07-25.72a1.07 1.07 0 0 0 -.93-.23l-39.72 5.43a1.11 1.11 0 0 0 -.52.26c-.53.51-1.71 5.17-2.76 10.3a1.31 1.31 0 0 1 -2.62-.37z" fill="#d1a44a"/><path d="m50.88 35.32c2.59-.17 22.9-3.74 28.58-13.82 0 0-6-17-23-20 0 0-10.46-1.7-23.2 7.7-.37.28-5.85 6.35-6.12 6.73-1.91 2.73-6.14 9.82-11.94 11.87a.3.3 0 0 0 .07.58c5 .54 21 2 29.23-.84l-9.36 5.22a.2.2 0 0 0 .1.38c4.14-.39 20.88-2 23.18-3.79l-7.61 5.79a.1.1 0 0 0 .07.18z" fill="#ddae47"/><g stroke="#000" stroke-miterlimit="10" stroke-width="2"><rect fill="#fff" height="16" rx="8" width="20" x="48" y="35.5"/><rect fill="#fff" height="16" rx="8" width="20" x="23" y="35.5"/><path d="m43 43.5h5" fill="none"/></g><circle cx="29.5" cy="43" r="1.5"/><circle cx="53.5" cy="43" r="1.5"/></svg>