<svg viewBox="0 0 157 180" xmlns="http://www.w3.org/2000/svg"><path d="m26 121.5h29v13h-29z" fill="#8c6239" transform="matrix(.8660254 .5 -.5 .8660254 69.43 -3.1)"/><path d="m41.93 108.5h14v40h-14z" fill="#1b1464" transform="matrix(.86637426 .49939528 -.49939528 .86637426 70.71 -7.27)"/><path d="m18.53 147.54h30v13.62h-30z" fill="#8c6239" transform="matrix(.5 -.8660254 .8660254 .5 -116.91 106.21)"/><path d="m71.31 154.39-33.31-19.89 6-11 21.59 12.8 13.1-22.69 12.12 7z" fill="#1b1464"/><path d="m108.45 90.84-22.45 37.66-33.69-20.2 17.69-33.8h-6a341.54 341.54 0 0 0 -36 0l1-12c26-1 34 0 34 0h12l35 12 4 2 3 2a16.65 16.65 0 0 0 -5 6l-2 4s0 1-1.55 2.34" fill="#fff"/><circle cx="22.5" cy="69" fill="#f9d0a7" r="9.5"/><path d="m89.86 69.55-.5 10.96 4.46 2.26 9.88-6.21z" fill="#006837"/><path d="m89.36 80.51-21.21 35.21 1.66 9.08a.54.54 0 0 0 .77.43l7.42-4.53 15.82-37.93z" fill="#009245"/><path d="m89.43 69.33.29 9.19a.79.79 0 0 1 -1.45.29l-10-15.11z" fill="#e6e6e6"/><path d="m95.25 81.23 8-4.89 10.75.16-18.56 5.32a.32.32 0 0 1 -.19-.59z" fill="#e6e6e6"/><ellipse cx="105.61" cy="44.64" fill="#f9d0a7" rx="32.39" ry="32.14"/><circle cx="74.95" cy="51.28" fill="#f9d0a7" r="6.45"/><path d="m124 63.73c0 2.63-3.36 4.77-7.5 4.77s-7.5-2.14-7.5-4.77 3.86-1.23 8-1.23 7-1.41 7 1.23z" fill="#fff"/><path d="m137.36 39.81c-.5-5.47-1.36-6.81-2.26-11.81a1.09 1.09 0 0 0 -.58-.78l-22.76-11.57a1 1 0 0 0 -.63-.11l-22.37 2.81h-10.3a1.09 1.09 0 0 0 -.81 1.81 1.08 1.08 0 0 1 -.24 1.64c-2 1.21-5.73 4.39-3.93 10.72a1.17 1.17 0 0 0 .09.24c.44.8-.73 4.45.47 17.23a1.37 1.37 0 0 0 2.71.15c2.11-10.14 9.64-21.74 14.07-25.72a1.06 1.06 0 0 1 .92-.23l39.75 5.43a1.08 1.08 0 0 1 .51.26c.54.51 1.72 5.17 2.76 10.3a1.31 1.31 0 0 0 2.6-.37z" fill="#d1a44a"/><path d="m106.59 35.32c-2.59-.17-22.91-3.74-28.59-13.82 0 0 6-17 23-20 0 0 10.46-1.7 23.2 7.7.37.28 5.86 6.35 6.12 6.73 1.92 2.73 6.2 9.82 11.94 11.87a.3.3 0 0 1 -.06.58c-5 .54-21 2-29.24-.84l9.36 5.22a.2.2 0 0 1 -.1.38c-4.14-.39-20.88-2-23.17-3.79l7.6 5.79a.1.1 0 0 1 -.06.18z" fill="#ddae47"/><g stroke-miterlimit="10"><rect fill="#f9d0a7" height="16" rx="8" stroke="#000" stroke-width="2" width="20" x="116" y="35.5"/><rect fill="#f9d0a7" height="16" rx="8" stroke="#000" stroke-width="2" width="20" x="91" y="35.5"/><path d="m111 43.5h5" fill="none" stroke="#000" stroke-width="2"/><path d="m91.5 44 18.5-.5" stroke="#b79274"/><path d="m117 44h18" stroke="#b79274"/></g><path d="m91 43.27a5.7 5.7 0 0 0 .2 1.49.64.64 0 0 0 .13.26.44.44 0 0 0 .66-.13 1.23 1.23 0 0 0 .14-.76 1.86 1.86 0 0 0 -.1-.7.7.7 0 0 0 -.51-.45.46.46 0 0 0 -.51.51"/></svg>