<svg viewBox="0 0 157 180" xmlns="http://www.w3.org/2000/svg"><path d="m109 156.5v-14h-11v-10l-21 3v21z" fill="#1b1464"/><path d="m99.5 151h30v13h-30z" fill="#8c6239" transform="matrix(0 -1 1 0 -43 272)"/><path d="m37 133.5v14h46v-15z" fill="#1b1464"/><path d="m22 126.5h29v13h-29z" fill="#8c6239" transform="matrix(0 -1 1 0 -96.5 169.5)"/><path d="m59 88.5.5 46.5h39v-45c8.5-14.5 38.5-.5 38.5-.5l6-12c-27-18-46-6-46-6l-2 1h-1l-30.5.5-5 1s-22.5 8.5-40.5-6.5l-8 12s28.79 20 49.5 11.5" fill="#fff"/><circle cx="145.5" cy="86" fill="#f9d0a7" r="9.5"/><circle cx="11.5" cy="71" fill="#f9d0a7" r="9.5"/><path d="m84.01 73-4.51 10h-5l-6-10z" fill="#006837"/><path d="m79.5 83 3 41-5.59 7.34a.53.53 0 0 1 -.88 0l-4.53-7.34 3-41z" fill="#009245"/><path d="m84.5 73-4.42 8.07a.8.8 0 0 0 1.17.91l13.75-9.48z" fill="#e6e6e6"/><path d="m73.93 81-4.93-8-8 .5 12.49 7.92a.32.32 0 0 0 .44-.42z" fill="#e6e6e6"/><ellipse cx="78.39" cy="43.64" fill="#f9d0a7" rx="32.39" ry="32.14"/><circle cx="109.05" cy="50.28" fill="#f9d0a7" r="6.45"/><path d="m60 62.73c0 2.63 3.36 4.77 7.5 4.77s7.5-2.14 7.5-4.77-3.86-1.23-8-1.23-7-1.41-7 1.23z" fill="#fff"/><path d="m46.64 38.81c.5-5.47 1.36-6.81 2.26-11.81a1.09 1.09 0 0 1 .58-.78l22.76-11.57a1 1 0 0 1 .63-.11l22.37 2.81h10.3a1.09 1.09 0 0 1 .81 1.81 1.08 1.08 0 0 0 .24 1.64c2 1.21 5.73 4.39 3.93 10.72a1.17 1.17 0 0 1 -.09.24c-.44.8.73 4.45-.47 17.23a1.37 1.37 0 0 1 -2.71.15c-2.11-10.14-9.64-21.74-14.07-25.72a1.06 1.06 0 0 0 -.92-.23l-39.75 5.43a1.08 1.08 0 0 0 -.51.26c-.54.51-1.72 5.17-2.76 10.3a1.31 1.31 0 0 1 -2.6-.37z" fill="#d1a44a"/><path d="m77.41 34.32c2.59-.17 22.91-3.74 28.59-13.82 0 0-6-17-23-20 0 0-10.46-1.7-23.2 7.7-.37.28-5.86 6.35-6.12 6.73-1.92 2.73-6.2 9.82-11.94 11.87a.3.3 0 0 0 .06.58c5 .54 21 2 29.24-.84l-9.36 5.22a.2.2 0 0 0 .1.38c4.14-.39 20.88-2 23.17-3.79l-7.6 5.79a.1.1 0 0 0 .06.18z" fill="#ddae47"/><g stroke-miterlimit="10"><rect fill="#f9d0a7" height="16" rx="8" stroke="#000" stroke-width="2" width="20" x="73" y="35.5"/><rect fill="#f9d0a7" height="16" rx="8" stroke="#000" stroke-width="2" width="20" x="48" y="35.5"/><path d="m68 43.5h5" fill="none" stroke="#000" stroke-width="2"/><path d="m48.5 44 18.5-.5" stroke="#b79274"/><path d="m74 44h18" stroke="#b79274"/></g><path d="m48 43.27a5.7 5.7 0 0 0 .2 1.49.64.64 0 0 0 .13.26.44.44 0 0 0 .66-.13 1.23 1.23 0 0 0 .14-.76 1.86 1.86 0 0 0 -.1-.7.7.7 0 0 0 -.51-.45.46.46 0 0 0 -.51.51"/></svg>