<svg viewBox="0 0 8540.26 2950" width="8540.26" xmlns="http://www.w3.org/2000/svg"><path d="m0 0h8540v2934h-8540z" fill="#1fc0f1"/><path d="m5755 2086s10-12 24-13c0 0 3-1 0 6 0 0-2 7 7 7h7.93a4.5 4.5 0 0 0 3.32-1.47c3-3.24 11-10.75 22.75-11.53 0 0 4 0 0 6 0 0-2 7 7 7h13.71a2.87 2.87 0 0 0 2.1-.9c2.65-2.81 11.53-11.27 23.19-12.1 0 0 3-1 0 6 0 0-2 7 7 7h7.93a4.5 4.5 0 0 0 3.32-1.47c3-3.24 11-10.75 22.75-11.53 0 0 4 0 0 6 0 0-2 7 7 7h11.85a5 5 0 0 0 3.52-1.48c3.2-3.25 11.69-10.74 22.63-11.52 0 0 3-1 0 6 0 0-2 7 7 7h7.93a4.5 4.5 0 0 0 3.32-1.47c3-3.24 11-10.75 22.75-11.53 0 0 4 0 0 6 0 0-2 7 7 7h13.71a2.87 2.87 0 0 0 2.1-.9c2.65-2.81 11.53-11.27 23.19-12.1 0 0 3-1 0 6 0 0-2 7 7 7h7.93a4.5 4.5 0 0 0 3.32-1.47c3-3.24 11-10.75 22.75-11.53 0 0 4 0 0 6 0 0-2 7 7 7h13.41a6 6 0 0 0 4.23-1.75c3.38-3.36 11.71-10.49 22.36-11.25 0 0 3-1 0 6 0 0-2 7 7 7h7.93a4.5 4.5 0 0 0 3.32-1.47c3-3.24 11-10.75 22.75-11.53 0 0 4 0 0 6 0 0-2 7 7 7h13.71a2.87 2.87 0 0 0 2.1-.9c2.65-2.81 11.53-11.27 23.19-12.1 0 0 3-1 0 6 0 0-2 7 7 7h7.93a4.5 4.5 0 0 0 3.32-1.47c3-3.24 11-10.75 22.75-11.53 0 0 4 0 0 6 0 0-2 7 7 7h11.85a5 5 0 0 0 3.52-1.48c3.2-3.25 11.69-10.74 22.63-11.52 0 0 3-1 0 6 0 0-2 7 7 7h7.93a4.5 4.5 0 0 0 3.32-1.47c3-3.24 11-10.75 22.75-11.53 0 0 4 0 0 6 0 0-2 7 7 7h13.71a2.87 2.87 0 0 0 2.1-.9c2.65-2.81 11.53-11.27 23.19-12.1 0 0 3-1 0 6 0 0-2 7 7 7h7.93a4.5 4.5 0 0 0 3.32-1.47c3-3.24 11-10.75 22.75-11.53 0 0 4 0 0 6 0 0-2 7 7 7h19.22a6.51 6.51 0 0 0 4.56-1.89c3.47-3.42 11.72-10.36 22.22-11.11 0 0 3-1 0 6 0 0-2 7 7 7h7.93a4.5 4.5 0 0 0 3.32-1.47c3-3.24 11-10.75 22.75-11.53 0 0 4 0 0 6 0 0-2 7 7 7h13.71a2.87 2.87 0 0 0 2.1-.9c2.65-2.81 11.53-11.27 23.19-12.1 0 0 3-1 0 6 0 0-2 7 7 7h7.93a4.5 4.5 0 0 0 3.32-1.47c3-3.24 11-10.75 22.75-11.53 0 0 4 0 0 6 0 0-2 7 7 7h11.85a5 5 0 0 0 3.52-1.48c3.2-3.25 11.69-10.74 22.63-11.52 0 0 3-1 0 6 0 0-2 7 7 7h7.93a4.5 4.5 0 0 0 3.32-1.47c3-3.24 11-10.75 22.75-11.53 0 0 4 0 0 6 0 0-2 7 7 7h13.71a2.87 2.87 0 0 0 2.1-.9c2.65-2.81 11.53-11.27 23.19-12.1 0 0 3-1 0 6 0 0-2 7 7 7h7.93a4.5 4.5 0 0 0 3.32-1.47c3-3.24 11-10.75 22.75-11.53 0 0 4 0 0 6 0 0-2 7 7 7h13.41a6 6 0 0 0 4.23-1.75c3.38-3.36 11.71-10.49 22.36-11.25 0 0 3-1 0 6 0 0-2 7 7 7h7.93a4.5 4.5 0 0 0 3.32-1.47c3-3.24 11-10.75 22.75-11.53 0 0 4 0 0 6 0 0-2 7 7 7h13.71a2.87 2.87 0 0 0 2.1-.9c2.65-2.81 11.53-11.27 23.19-12.1 0 0 3-1 0 6 0 0-2 7 7 7h7.93a4.5 4.5 0 0 0 3.32-1.47c3-3.24 11-10.75 22.75-11.53 0 0 4 0 0 6 0 0-2 7 7 7h11.85a5 5 0 0 0 3.52-1.48c3.2-3.25 11.69-10.74 22.63-11.52 0 0 3-1 0 6 0 0-2 7 7 7h7.93a4.5 4.5 0 0 0 3.32-1.47c3-3.24 11-10.75 22.75-11.53 0 0 4 0 0 6 0 0-2 7 7 7h13.71a2.87 2.87 0 0 0 2.1-.9c2.65-2.81 11.53-11.27 23.19-12.1 0 0 3-1 0 6 0 0-2 7 7 7h7.93a4.5 4.5 0 0 0 3.32-1.47c3-3.24 11-10.75 22.75-11.53 0 0 4 0 0 6 0 0-2 7 7 7h15.17a9 9 0 0 0 6.2-2.46c3.76-3.57 11.69-9.83 21.63-10.54 0 0 3-1 0 6 0 0-2 7 7 7h7.93a4.5 4.5 0 0 0 3.32-1.47c3-3.24 11-10.75 22.75-11.53 0 0 4 0 0 6 0 0-2 7 7 7h13.71a2.87 2.87 0 0 0 2.1-.9c2.65-2.81 11.53-11.27 23.19-12.1 0 0 3-1 0 6 0 0-2 7 7 7h7.93a4.5 4.5 0 0 0 3.32-1.47c3-3.24 11-10.75 22.75-11.53 0 0 4 0 0 6 0 0-2 7 7 7h11.85a5 5 0 0 0 3.52-1.48c3.2-3.25 11.69-10.74 22.63-11.52 0 0 3-1 0 6 0 0-2 7 7 7h7.93a4.5 4.5 0 0 0 3.32-1.47c3-3.24 11-10.75 22.75-11.53 0 0 4 0 0 6 0 0-2 7 7 7h13.71a2.87 2.87 0 0 0 2.1-.9c2.65-2.81 11.53-11.27 23.19-12.1 0 0 3-1 0 6 0 0-2 7 7 7h7.93a4.5 4.5 0 0 0 3.32-1.47c3-3.24 11-10.75 22.75-11.53 0 0 4 0 0 6 0 0-2 7 7 7h13.41a6 6 0 0 0 4.23-1.75c3.38-3.36 11.71-10.49 22.36-11.25 0 0 3-1 0 6 0 0-2 7 7 7h7.93a4.5 4.5 0 0 0 3.32-1.47c3-3.24 11-10.75 22.75-11.53 0 0 4 0 0 6 0 0-2 7 7 7h13.71a2.87 2.87 0 0 0 2.1-.9c2.65-2.81 11.53-11.27 23.19-12.1 0 0 3-1 0 6 0 0-2 7 7 7h7.93a4.5 4.5 0 0 0 3.32-1.47c3-3.24 11-10.75 22.75-11.53 0 0 4 0 0 6 0 0-2 7 7 7h11.85a5 5 0 0 0 3.52-1.48c3.2-3.25 11.69-10.74 22.63-11.52 0 0 3-1 0 6 0 0-2 7 7 7h7.93a4.5 4.5 0 0 0 3.32-1.47c3-3.24 11-10.75 22.75-11.53 0 0 4 0 0 6 0 0-2 7 7 7h13.71a2.87 2.87 0 0 0 2.1-.9c2.65-2.81 11.53-11.27 23.19-12.1 0 0 3-1 0 6 0 0-2 7 7 7h7.93a4.5 4.5 0 0 0 3.32-1.47c3-3.24 11-10.75 22.75-11.53 0 0 4 0 0 6 0 0-2 7 7 7h19.22a6.51 6.51 0 0 0 4.56-1.89c3.47-3.42 11.72-10.36 22.22-11.11 0 0 3-1 0 6 0 0-2 7 7 7h7.93a4.5 4.5 0 0 0 3.32-1.47c3-3.24 11-10.75 22.75-11.53 0 0 4 0 0 6 0 0-2 7 7 7h13.71a2.87 2.87 0 0 0 2.1-.9c2.65-2.81 11.53-11.27 23.19-12.1 0 0 3-1 0 6 0 0-2 7 7 7h7.93a4.5 4.5 0 0 0 3.32-1.47c3-3.24 11-10.75 22.75-11.53 0 0 4 0 0 6 0 0-2 7 7 7h11.85a5 5 0 0 0 3.52-1.48c3.2-3.25 11.69-10.74 22.63-11.52 0 0 3-1 0 6 0 0-2 7 7 7h7.93a4.5 4.5 0 0 0 3.32-1.47c3-3.24 11-10.75 22.75-11.53 0 0 4 0 0 6 0 0-2 7 7 7h13.71a2.87 2.87 0 0 0 2.1-.9c2.65-2.81 11.53-11.27 23.19-12.1 0 0 3-1 0 6 0 0-2 7 7 7h7.93a4.5 4.5 0 0 0 3.32-1.47c3-3.24 11-10.75 22.75-11.53 0 0 4 0 0 6 0 0-2 7 7 7h13.41a6 6 0 0 0 4.23-1.75c3.38-3.36 11.71-10.49 22.36-11.25 0 0 3-1 0 6 0 0-2 7 7 7h7.93a4.5 4.5 0 0 0 3.32-1.47c3-3.24 11-10.75 22.75-11.53 0 0 4 0 0 6 0 0-2 7 7 7h13.71a2.87 2.87 0 0 0 2.1-.9c2.65-2.81 11.53-11.27 23.19-12.1 0 0 3-1 0 6 0 0-2 7 7 7h7.93a4.5 4.5 0 0 0 3.32-1.47c3-3.24 11-10.75 22.75-11.53 0 0 4 0 0 6 0 0-2 7 7 7h11.85a5 5 0 0 0 3.52-1.48c3.2-3.25 11.69-10.74 22.63-11.52 0 0 3-1 0 6 0 0-2 7 7 7h7.93a4.5 4.5 0 0 0 3.32-1.47c3-3.24 11-10.75 22.75-11.53 0 0 4 0 0 6 0 0-2 7 7 7h13.71a2.87 2.87 0 0 0 2.1-.9c2.65-2.81 11.53-11.27 23.19-12.1 0 0 3-1 0 6 0 0-2 7 7 7h7.93a4.5 4.5 0 0 0 3.32-1.47c3-3.24 11-10.75 22.75-11.53 0 0 4 0 0 6 0 0-2 7 7 7l2.26 857-2785.26 5z" fill="#1174b9"/><g fill="#fefefe"><path d="m81 1269h123s21 1 27-29c0 0 2-28-32-31 0 0 11-46-32-60 0 0-31-8-50 22 0 0-38-11-36 28 0 0-30 4-30 35 0 0-3 28 30 35z"/><path d="m995 1235h123s21 1 27-29c0 0 2-28-32-31 0 0 11-46-32-60 0 0-31-8-50 22 0 0-38-11-36 28 0 0-30 4-30 35 0 0-3 28 30 35z"/><path d="m304 916h123s21 1 27-29c0 0 2-28-32-31 0 0 11-46-32-60 0 0-31-8-50 22 0 0-38-11-36 28 0 0-30 4-30 35 0 0-3 28 30 35z"/><path d="m866 712h123s21 1 27-29c0 0 2-28-32-31 0 0 11-46-32-60 0 0-31-8-50 22 0 0-38-11-36 28 0 0-30 4-30 35 0 0-3 28 30 35z"/><path d="m173 407h123s21 1 27-29c0 0 2-28-32-31 0 0 11-46-32-60 0 0-31-8-50 22 0 0-38-11-36 28 0 0-30 4-30 35 0 0-3 28 30 35z"/><path d="m1288 1527h123s21 1 27-29c0 0 2-28-32-31 0 0 11-46-32-60 0 0-31-8-50 22 0 0-38-11-36 28 0 0-30 4-30 35 0 0-3 28 30 35z"/><path d="m2129 1432h123s21 1 27-29c0 0 2-28-32-31 0 0 11-46-32-60 0 0-31-8-50 22 0 0-38-11-36 28 0 0-30 4-30 35 0 0-3 28 30 35z"/><path d="m3093 1250h123s21 1 27-29c0 0 2-28-32-31 0 0 11-46-32-60 0 0-31-8-50 22 0 0-38-11-36 28 0 0-30 4-30 35 0 0-3 28 30 35z"/><path d="m4381 1250h123s21 1 27-29c0 0 2-28-32-31 0 0 11-46-32-60 0 0-31-8-50 22 0 0-38-11-36 28 0 0-30 4-30 35 0 0-3 28 30 35z"/><path d="m1727 1204h123s21 1 27-29c0 0 2-28-32-31 0 0 11-46-32-60 0 0-31-8-50 22 0 0-38-11-36 28 0 0-30 4-30 35 0 0-3 28 30 35z"/><path d="m1431 712h123s21 1 27-29c0 0 2-28-32-31 0 0 11-46-32-60 0 0-31-8-50 22 0 0-38-11-36 28 0 0-30 4-30 35 0 0-3 28 30 35z"/><path d="m2119 541h123s21 1 27-29c0 0 2-28-32-31 0 0 11-46-32-60 0 0-31-8-50 22 0 0-38-11-36 28 0 0-30 4-30 35 0 0-3 28 30 35z"/><path d="m1442 286h123s21 1 27-29c0 0 2-28-32-31 0 0 11-46-32-60 0 0-31-8-50 22 0 0-38-11-36 28 0 0-30 4-30 35 0 0-3 28 30 35z"/></g><g fill="#184087"><path d="m5983 2785.55h589.03v164.45h-589.03z"/><path d="m6918.87 2651v298.89h-448.5v-224.14h75.26v-298.94h74.24v-74.81h149.5a33 33 0 0 0 -.39 3.69q0 70.2 0 140.39c0 1.68.22 3.35.39 5.94h74.74v149z"/><path d="m8481.87 2651v298.89h-448.5v-224.14h75.26v-298.94h74.24v-74.81h149.5a33 33 0 0 0 -.39 3.69q0 70.2 0 140.39c0 1.68.22 3.35.39 5.94h74.74v149z"/><path d="m7824 2799v150h-200v-50.43h-49.93v-249.43h-200v100.3h49.67v6.62q0 93.24 0 186.47c0 2.16.18 4.31.27 6.47h-200.01a14.77 14.77 0 0 0 .26-2q0-47.43 0-94.86a18.73 18.73 0 0 0 -.52-3.17h-49.74v-299.97h50.37v-50h99.63v-50h300v50.39h99.87v50h50.13v249.61z"/><path d="m6030.84 2730.24h101.66v101.66h-101.66z"/><path d="m6036 2665h97v204h-97z"/></g></svg>