<svg height="760" viewBox="0 0 576 760" width="576" xmlns="http://www.w3.org/2000/svg"><path d="m61.26 623.52h188.17 201.67l-.58 120.51h-203.39-186.44z" fill="#bbbdbf" fill-rule="evenodd"/><path d="m183.64 415 125.44 103.25h-125.44-125.44z" fill="#b5282e" fill-rule="evenodd"/><path d="m48.68 518.25h269.92v19.8h-269.92z" fill="#dfdede"/><path d="m61.77 538.05h243.73v87.44h-243.73z" fill="#bbbdbf"/><path d="m285.14 538.05h20.37v105.96h-20.37z" fill="#dfdede"/><path d="m236.99 547.17h38.31v78.31h-38.31z" fill="#41080a"/><path d="m258.92 554.07h12.35v25.96h-12.35z" fill="#dfdede"/><path d="m241.03 554.07h12.35v25.96h-12.35z" fill="#dfdede"/><path d="m91.97 547.17h38.31v78.31h-38.31z" fill="#41080a"/><path d="m113.9 554.07h12.35v25.96h-12.35z" fill="#dfdede"/><path d="m96.01 554.07h12.35v25.96h-12.35z" fill="#dfdede"/><path d="m61.77 538.05h20.36v105.96h-20.36z" fill="#dfdede"/><path d="m154.19 551.77h58.89v92.24h-58.89z" fill="#dfdede"/><path d="m160.21 558.02h46.86v85.99h-46.86z" fill="#41080a"/><path d="m183.64 415 125.44 103.25h-62.72z" fill="#d62229" fill-rule="evenodd"/><path d="m183.64 415-125.44 103.25h62.72z" fill="#95282c" fill-rule="evenodd"/><path d="m285.14 538.05h20.37v5.57h-20.37z" fill="#a6a8ab"/><path d="m61.77 538.05h20.36v5.57h-20.36z" fill="#a6a8ab"/><path d="m82.14 538.05h203v5.57h-203z" fill="#929497"/><path d="m96.01 574.39h12.35v27.46h-12.35z" fill="#dfdede"/><path d="m113.9 574.39h12.35v27.46h-12.35z" fill="#dfdede"/><path d="m241.03 574.39h12.35v27.46h-12.35z" fill="#dfdede"/><path d="m258.92 574.39h12.35v27.46h-12.35z" fill="#dfdede"/><path d="m542.42 708.58h-126.49-126.48v21.59h126.48 126.49z" fill="#b5282e" fill-rule="evenodd"/><path d="m349.07 708.58h-59.62v21.59h58.14z" fill="#d62229" fill-rule="evenodd"/><path d="m542.42 708.58h-59.63l1.48 21.59h58.15z" fill="#95282c" fill-rule="evenodd"/><path d="m563 730.17h-147.07-147.06v21.6h147.06 147.07z" fill="#b5282e" fill-rule="evenodd"/><path d="m347.59 730.17h-78.72v21.6h77.23z" fill="#d62229" fill-rule="evenodd"/><path d="m563 730.17h-78.73l1.49 21.6h77.24z" fill="#95282c" fill-rule="evenodd"/><path d="m268.87 730.17h294.13v4.13h-294.13z" fill="#95282c"/><path d="m484.27 730.17h78.73v4.13h-78.44z" fill="#762022" fill-rule="evenodd"/><path d="m289.45 708.58h252.98v5.36h-252.98z" fill="#95282c"/><path d="m482.79 708.58h59.63v5.36h-59.26z" fill="#762022" fill-rule="evenodd"/><path d="m395.71 639.42h40.44v69.16h-40.44z" fill="#41080a"/><path d="m328.09 175.4h175.69v13.77h-175.69z" fill="#282928"/><g fill-rule="evenodd"><path d="m415.94 65.86h71.53l-71.53-37.71-71.54 37.71z" fill="#393a3a"/><path d="m415.93 708.58h-108.32l14.45-165.04h93.87 93.87l14.45 165.04z" fill="#b5282e"/><path d="m349.08 708.58h-41.47l14.45-165.04h38.37z" fill="#95282c"/><path d="m471.44 543.54h38.36l14.45 165.04h-41.45z" fill="#d62229"/><path d="m321.68 547.89.38-4.35h93.87 93.87l.38 4.35z" fill="#95282c"/><path d="m321.68 547.89.38-4.35h38.37l-.3 4.35z" fill="#762022"/><path d="m415.93 543.54h-101.49l28.21-19.95h73.28 73.28l28.22 19.95z" fill="#b5282e"/><path d="m360.43 543.54h-45.99l28.21-19.95h36.52z" fill="#95282c"/><path d="m452.7 523.59h36.51l28.22 19.95h-45.99z" fill="#d62229"/><path d="m474.47 275.51-3.84-64.75h-109.39l-3.85 64.75zm-126.37 156.49h135.67l5.44 91.63-10.67-179.63h-125.21l-10.68 179.59z" fill="#b5282e"/><path d="m391.22 275.51-1.87 38.64 5-103.39h-33.11l-3.85 64.75zm-43.12 156.49h35.52l4.28-88h-34.57l-10.68 179.59z" fill="#95282c"/><path d="m444 344 4.27 88h35.52l5.44 91.63-10.69-179.63zm-1.45-29.81-1.88-38.64h33.82l-3.84-64.75h-33.14z" fill="#d62229"/><path d="m361 214.75.24-3.99h54.69 54.7l.23 3.99z" fill="#95282c"/><path d="m361 214.75.24-3.99h33.13l-.2 3.99z" fill="#762022"/><path d="m478.54 344-4.07-68.45h-117.08l-4.06 68.45zm10.67 179.63-5.44-91.63h-135.67l-5.45 91.63z" fill="#dfdede"/><path d="m353.33 344 4.06-68.45h33.83l-3.32 68.45zm30.29 88h-35.52l-5.45 91.63h36.52z" fill="#bbbdbf"/><path d="m478.54 344-4.07-68.45h-33.82l3.35 68.45zm-25.84 179.59h36.51l-5.44-91.59h-35.52z" fill="#fff"/><path d="m415.93 210.76h-71.56v-9.65h71.56 71.57v9.65z" fill="#b5282e"/><path d="m394.37 210.76h-50v-9.65h50.46z" fill="#95282c"/><path d="m437.04 201.11h50.46v9.65h-49.99z" fill="#d62229"/><path d="m415.93 201.11h-87.84v-11.94h87.84 87.85v11.94z" fill="#b5282e"/><path d="m394.83 201.11h-66.74v-11.94h67.33z" fill="#95282c"/><path d="m436.46 189.17h67.32v11.94h-66.74z" fill="#d62229"/><path d="m415.94 28.15 35.76 37.71h-35.76-35.77z" fill="#282928"/><path d="m415.94 28.15-35.77 37.71h-35.77z" fill="#161715"/><path d="m475.5 175.4h-119.12v-109.54h119.12z" fill="#b5282e"/><path d="m475.5 65.86h-39.71v16.57l.21 17.57v16l-.21 15.54v43.86h39.71z" fill="#d62229"/><path d="m396.08 65.86h-39.7v109.54h39.7v-43.86l-.08-15.54v-18l.08-15.57z" fill="#95282c"/><path d="m328.09 175.4h3.32v-22.87a1.77 1.77 0 0 1 1.75-1.75h35.93v24.62h3.32v-24.62h41.87v24.62h3.32v-24.62h41.86v24.62h3.32v-24.62h35.93a1.76 1.76 0 0 1 1.75 1.75v22.87h3.32v-22.87a5.09 5.09 0 0 0 -5.07-5.07h-165.55a5.1 5.1 0 0 0 -5.07 5.07z" fill="#282928"/></g><path d="m344.37 201.11h143.13v2.16h-143.13z" fill="#95282c"/><path d="m394.83 201.11h-50.46v2.16h50.36z" fill="#762022" fill-rule="evenodd"/><path class="lighthole" d="m361.5 80.43h8.5v44.57h-8.5z" fill="#fff" stroke="#f2f2f2" stroke-miterlimit="10"/><path d="m106.37 659.06a5.76 5.76 0 0 1 4.9-2.75 6.06 6.06 0 0 1 6 5.93 5.66 5.66 0 0 1 -.91 3.13l-6 8.78 7.33 9.38a4.93 4.93 0 0 1 1.13 3.23 6 6 0 0 1 -5.93 6 5.39 5.39 0 0 1 -4.14-1.78l-8.9-11.26v6.28c0 4.15-2.37 6.85-5.92 6.85-3.72 0-6-2.64-6-6.79v-23.12c0-3.93 2.37-6.63 5.93-6.63a6 6 0 0 1 4.47 2 6.11 6.11 0 0 1 1.46 4.69v5.76z" fill="#070707"/><path d="m134.41 685.14c-.06 3-.22 3.72-1 5a5.92 5.92 0 0 1 -9.86 0c-.81-1.3-1-2.32-1-5v-21.66c0-2.53.27-3.61 1.24-4.85a6 6 0 0 1 4.69-2.32 6.25 6.25 0 0 1 4.79 2.32c1 1.3 1.19 2 1.19 5.12v5.07h7.22v-4.91c0-2.85.21-3.93 1.24-5.28a5.69 5.69 0 0 1 4.58-2.32 6.1 6.1 0 0 1 4.74 2.27c.92 1.18 1.29 2.59 1.29 4.9v21.77c0 2.48-.21 3.45-1 4.69a5.87 5.87 0 0 1 -9.75.49c-.92-1.3-1.13-2.32-1.13-5.18v-5.17h-7.22z" fill="#070707"/><path d="m171 686c0 2.27-.43 3.67-1.51 4.85a6 6 0 0 1 -8.83.11c-1.14-1.24-1.51-2.48-1.51-5v-22.26c0-3 .27-4.1 1.51-5.45a5.69 5.69 0 0 1 4.36-1.94 6 6 0 0 1 4.42 1.89c1.19 1.35 1.56 2.59 1.56 5.5z" fill="#070707"/><path d="m194.41 655.72a18.86 18.86 0 1 1 -18.91 18.65 18.86 18.86 0 0 1 18.91-18.65zm.06 26a7.14 7.14 0 0 0 7.06-7.12 7.06 7.06 0 0 0 -14.12-.05 7.15 7.15 0 0 0 7.06 7.15z" fill="#070707"/><path d="m238 663.59c0-2.37.22-3.45 1.08-4.69a5.83 5.83 0 0 1 9.38-.43 6.76 6.76 0 0 1 1.4 4.74v22c0 2.85-.27 4-1.3 5.39a5.81 5.81 0 0 1 -4.56 2.2 5.68 5.68 0 0 1 -4.69-2.43l-9.38-12v7.55c0 2.37-.32 3.45-1.34 4.74a6 6 0 0 1 -4.59 2.14 6.1 6.1 0 0 1 -4.75-2.32c-1-1.35-1.24-2.43-1.24-5.07v-22.74c0-3.82 2.48-6.36 6.2-6.36a5.35 5.35 0 0 1 4.42 2.38l9.37 11.58z" fill="#070707"/><path d="m272.75 681.43c2.59 0 3.72.32 5 1.34a5.55 5.55 0 0 1 1.94 4.21 5.78 5.78 0 0 1 -1.94 4.31c-1.18 1-2.21 1.24-4.9 1.24h-9.25c-2.75 0-3.51-.11-4.53-.49a5.46 5.46 0 0 1 -3.4-4.31 14.1 14.1 0 0 1 -.21-3.55v-19.51c0-3 0-3.4.54-4.53a5.28 5.28 0 0 1 2.85-3c1.35-.54 1.62-.6 5.12-.6h7.12c3.39 0 3.71.06 4.52.27a5.3 5.3 0 0 1 4.1 5.18 5.62 5.62 0 0 1 -1.94 4.36c-1.08.92-2.32 1.3-4.53 1.3h-5.93v2.47h4.69c2.91 0 4.8 1.73 4.8 4.26a4.43 4.43 0 0 1 -1.57 3.4c-.91.7-1.77.91-3.66.91h-4.26v2.7z" fill="#070707"/><path d="m96.28 700.19a8.91 8.91 0 1 1 -8.93 8.8 8.91 8.91 0 0 1 8.93-8.8zm0 12.26a3.37 3.37 0 0 0 3.33-3.36 3.34 3.34 0 0 0 -6.67 0 3.37 3.37 0 0 0 3.37 3.36z" fill="#070707"/><path d="m112.86 710.47c0 1.22.56 2 1.52 2s1.53-.72 1.53-1.89v-6.77a2.8 2.8 0 0 1 .61-2.24 2.83 2.83 0 0 1 2.17-1.07 3 3 0 0 1 2.18 1c.54.64.67 1.15.67 2.68v6a7.46 7.46 0 0 1 -1.79 5.32 7.08 7.08 0 0 1 -11.14-.46 7.11 7.11 0 0 1 -1.38-4.86v-6c0-1.61.11-2 .59-2.65a3 3 0 0 1 2.21-1.1 2.92 2.92 0 0 1 2.06.9 3.06 3.06 0 0 1 .77 2.41z" fill="#070707"/><path d="m126.05 705.81a2.73 2.73 0 0 1 -2.11-.74 2.6 2.6 0 0 1 .66-4.2c.58-.25.81-.28 3-.28h5.65a11.39 11.39 0 0 1 1.91 0 2.55 2.55 0 0 1 2.29 2.55 2.81 2.81 0 0 1 -.92 2 3.08 3.08 0 0 1 -2.16.61h-1.25v8.45a3.76 3.76 0 0 1 -.48 2.16 2.66 2.66 0 0 1 -2.32 1.27 2.83 2.83 0 0 1 -2.32-1.17 3.49 3.49 0 0 1 -.48-2.21v-8.5z" fill="#070707"/><path d="m145.91 700.59a8.73 8.73 0 0 1 6.16 2.17 8.43 8.43 0 0 1 2.8 6.31 8.55 8.55 0 0 1 -2.73 6.23 8.41 8.41 0 0 1 -4 2.06 16.67 16.67 0 0 1 -2.88.21h-2.36a3.72 3.72 0 0 1 -2.37-.46 2.49 2.49 0 0 1 -1.17-1.53 7.06 7.06 0 0 1 -.1-1.83v-9.34a5.93 5.93 0 0 1 .12-2c.41-1.22 1.45-1.86 3.08-1.86zm-1 11.76c1.94 0 2.4-.1 3.06-.56a3.4 3.4 0 0 0 1.37-2.7 3.26 3.26 0 0 0 -1.8-2.92 4.69 4.69 0 0 0 -2.17-.36h-.46z" fill="#070707"/><path d="m165.51 700.19a8.91 8.91 0 1 1 -8.93 8.8 8.9 8.9 0 0 1 8.93-8.8zm0 12.26a3.37 3.37 0 0 0 3.33-3.36 3.33 3.33 0 0 0 -6.66 0 3.37 3.37 0 0 0 3.36 3.36z" fill="#070707"/><path d="m185.09 700.19a8.91 8.91 0 1 1 -8.93 8.8 8.9 8.9 0 0 1 8.93-8.8zm0 12.26a3.37 3.37 0 0 0 3.33-3.36 3.33 3.33 0 0 0 -6.66 0 3.37 3.37 0 0 0 3.36 3.36z" fill="#070707"/><path d="m208.72 713.14a3.43 3.43 0 0 1 .54 1.81 2.73 2.73 0 0 1 -2.8 2.74 2.6 2.6 0 0 1 -2.32-1.29l-2.31-3.85v2.32a2.74 2.74 0 0 1 -2.75 2.82 2.86 2.86 0 0 1 -2.19-1 3.69 3.69 0 0 1 -.66-2.4v-10.47a2.93 2.93 0 0 1 .91-2.49 3.27 3.27 0 0 1 2.55-.74h2.31a10.16 10.16 0 0 1 2.72.26 6.08 6.08 0 0 1 4.46 5.85 6 6 0 0 1 -1.78 4.3zm-6.89-5.52h.61c.84 0 1.27-.28 1.27-.89s-.46-1-1.3-.92a4.62 4.62 0 0 1 -.58 0z" fill="#070707"/><path d="m228.71 711.74c-1.5 0-2.39-.76-2.39-2s.94-2.06 2.72-2h1.84c2 0 2.49.21 3.05.87a3.46 3.46 0 0 1 .71 2.47v1.45a5.67 5.67 0 0 1 -.18 1.86 5.51 5.51 0 0 1 -2.8 2.67 8.63 8.63 0 0 1 -4 1 8.91 8.91 0 1 1 0-17.81 9.3 9.3 0 0 1 4.76 1.34 3.15 3.15 0 0 1 1.76 2.63 2.85 2.85 0 0 1 -2.85 2.79 2.16 2.16 0 0 1 -.74-.12l-1.25-.66a4.4 4.4 0 0 0 -1.78-.46 3.33 3.33 0 1 0 2 6z" fill="#070707"/><path d="m244.93 712.32a3.16 3.16 0 0 1 2.34.64 2.61 2.61 0 0 1 .92 2 2.71 2.71 0 0 1 -.92 2 3.07 3.07 0 0 1 -2.31.59h-4.35a5.4 5.4 0 0 1 -2.14-.23 2.56 2.56 0 0 1 -1.6-2 6.19 6.19 0 0 1 -.11-1.68v-9.21a4.28 4.28 0 0 1 .26-2.14 2.54 2.54 0 0 1 1.35-1.4 5 5 0 0 1 2.41-.28h3.36a7.23 7.23 0 0 1 2.14.13 2.5 2.5 0 0 1 1.94 2.44 2.66 2.66 0 0 1 -.92 2.06 3 3 0 0 1 -2.14.62h-2.8v1.14h2.22a2 2 0 0 1 2.26 2 2.08 2.08 0 0 1 -.74 1.6 2.48 2.48 0 0 1 -1.73.43h-2v1.27z" fill="#070707"/><path d="m252.09 717.69a2.75 2.75 0 0 1 -2.77-2.8 3.44 3.44 0 0 1 .35-1.47l5.33-11.28a2.81 2.81 0 0 1 2.57-1.68 2.84 2.84 0 0 1 2.62 1.71l5.35 11.4a2.92 2.92 0 0 1 .33 1.35 2.8 2.8 0 0 1 -2.83 2.77c-1.29 0-2.06-.61-2.85-2.34h-5.19c-.72 1.65-1.56 2.34-2.91 2.34zm6.34-6.38-.87-2-.86 2z" fill="#070707"/><path d="m280.15 713.14a3.51 3.51 0 0 1 .53 1.81 2.73 2.73 0 0 1 -2.8 2.74 2.61 2.61 0 0 1 -2.32-1.29l-2.31-3.85v2.32a2.74 2.74 0 0 1 -2.75 2.82 2.86 2.86 0 0 1 -2.19-1 3.69 3.69 0 0 1 -.66-2.4v-10.47a2.91 2.91 0 0 1 .92-2.49 3.23 3.23 0 0 1 2.54-.74h2.34a10.2 10.2 0 0 1 2.73.26 6.07 6.07 0 0 1 4.45 5.85 6 6 0 0 1 -1.81 4.33zm-6.9-5.52h.61c.84 0 1.27-.28 1.27-.89s-.46-1-1.3-.92a4.7 4.7 0 0 1 -.58 0z" fill="#070707"/><g fill="#f2f2f2" opacity=".8"><path d="m417.77 631.83c-.18-.28-.29-.45-.39-.62q-3-5.24-6.05-10.46a1.1 1.1 0 0 1 -.08-1.07q4.69-11.43 9.38-22.85a1.42 1.42 0 0 0 0-1.21c-2.22-5.28-4.41-10.56-6.61-15.84a1.82 1.82 0 0 1 -.18-.72l22.06 20.05c-6.03 10.89-12.05 21.76-18.13 32.72z"/><path d="m411.61 590.21.25.63c.62 1.71 1.23 3.43 1.87 5.13a1.32 1.32 0 0 1 0 1.1q-4.69 11-9.37 22a1.24 1.24 0 0 0 0 1.14q3.56 7.54 7.08 15.1c.09.2.17.4.29.69-.38-.11-.67-.19-1-.29l-15.7-5.23a.89.89 0 0 1 -.68-.68c-1.05-3.71-2.13-7.42-3.21-11.13a.88.88 0 0 1 .14-.85q10-13.67 20.06-27.35z"/><path d="m431.18 647.32c2.11 3.11 4.14 6.12 6.21 9.19l-3.66 1.49-10.17-15 17-6.77 2.22 3.25-10.42 4.17c.34.12.54.21.75.27 1.82.56 3.64 1.1 5.45 1.68a1.52 1.52 0 0 0 1.11 0c1.68-.69 3.37-1.35 5.06-2l.66-.25 2.22 3.23-5.46 2.2 3.22 4.77-3.66 1.43-.4-.58c-1-1.47-2-2.94-3-4.42a1.48 1.48 0 0 0 -.85-.64c-1.88-.56-3.75-1.14-5.62-1.72-.18-.2-.36-.23-.66-.3z"/><path d="m392.82 639.65 2.22-3.24 17 6.77-10.16 15-3.67-1.43 6.2-9.17a3.83 3.83 0 0 0 -.51.09c-1.94.59-3.87 1.2-5.8 1.78a1.31 1.31 0 0 0 -.76.56q-1.5 2.25-3 4.48c-.12.18-.26.36-.41.58l-3.65-1.43 3.22-4.76c-1.8-.78-3.62-1.43-5.46-2.22l2.21-3.21.57.2 5.24 2.09a1.11 1.11 0 0 0 .82.08c2-.63 4-1.23 6-1.85l.41-.17c-3.59-1.42-7.02-2.74-10.47-4.15z"/><path d="m417.91 666.41-3.62 4.49-2.43-3.06c.13-.18.24-.34.37-.5 1.15-1.43 2.3-2.87 3.46-4.3a1.15 1.15 0 0 0 .31-.77c0-2.06 0-4.13 0-6.19a3.31 3.31 0 0 0 -.07-.47l-6.93 8.61-2.45-3.08 11.36-14.14 11.45 14.23-2.44 3.09-7-8.72c0 .27-.06.42-.06.57v6a1.33 1.33 0 0 0 .33.89c1.16 1.42 2.31 2.86 3.46 4.29l.44.57-2.48 3.08z"/><path d="m424 635.86 10.4-21.56c.32.4 5.64 13.35 6 14.66l-16.4 7.04z"/></g></svg>