<svg id="Sky" xmlns="http://www.w3.org/2000/svg" width="6914" height="1495" viewBox="0 0 6914 1495"><title>World_Sea</title><path d="M2767,794.86s10-10,24-10.82c0,0,3-.83,0,5,0,0-2,5.83,7,5.83h7.93a4.92,4.92,0,0,0,3.32-1.23A37.64,37.64,0,0,1,2832,784s4,0,0,5c0,0-2,5.83,7,5.83h13.71a3.19,3.19,0,0,0,2.1-.75c2.65-2.34,11.53-9.38,23.19-10.07,0,0,3-.83,0,5,0,0-2,5.83,7,5.83h7.93a4.92,4.92,0,0,0,3.32-1.23A37.64,37.64,0,0,1,2919,784s4,0,0,5c0,0-2,5.83,7,5.83h11.85a5.45,5.45,0,0,0,3.52-1.24c3.2-2.7,11.69-8.93,22.63-9.58,0,0,3-.83,0,5,0,0-2,5.83,7,5.83h7.93a4.92,4.92,0,0,0,3.32-1.23A37.64,37.64,0,0,1,3005,784s4,0,0,5c0,0-2,5.83,7,5.83h13.71a3.19,3.19,0,0,0,2.1-.75c2.65-2.34,11.53-9.38,23.19-10.07,0,0,3-.83,0,5,0,0-2,5.83,7,5.83h7.93a4.92,4.92,0,0,0,3.32-1.23A37.64,37.64,0,0,1,3092,784s4,0,0,5c0,0-2,5.83,7,5.83h13.41a6.68,6.68,0,0,0,4.23-1.46c3.38-2.8,11.71-8.73,22.36-9.36,0,0,3-.83,0,5,0,0-2,5.83,7,5.83h7.93a4.92,4.92,0,0,0,3.32-1.23A37.64,37.64,0,0,1,3180,784s4,0,0,5c0,0-2,5.83,7,5.83h13.71a3.19,3.19,0,0,0,2.1-.75c2.65-2.34,11.53-9.38,23.19-10.07,0,0,3-.83,0,5,0,0-2,5.83,7,5.83h7.93a4.92,4.92,0,0,0,3.32-1.23A37.64,37.64,0,0,1,3267,784s4,0,0,5c0,0-2,5.83,7,5.83h11.85a5.45,5.45,0,0,0,3.52-1.24c3.2-2.7,11.69-8.93,22.63-9.58,0,0,3-.83,0,5,0,0-2,5.83,7,5.83h7.93a4.92,4.92,0,0,0,3.32-1.23A37.64,37.64,0,0,1,3353,784s4,0,0,5c0,0-2,5.83,7,5.83h13.71a3.19,3.19,0,0,0,2.1-.75c2.65-2.34,11.53-9.38,23.19-10.07,0,0,3-.83,0,5,0,0-2,5.83,7,5.83h7.93a4.92,4.92,0,0,0,3.32-1.23A37.64,37.64,0,0,1,3440,784s4,0,0,5c0,0-2,5.83,7,5.83h19.22a7.22,7.22,0,0,0,4.56-1.57c3.47-2.85,11.72-8.62,22.22-9.25,0,0,3-.83,0,5,0,0-2,5.83,7,5.83h7.93a4.92,4.92,0,0,0,3.32-1.23A37.64,37.64,0,0,1,3534,784s4,0,0,5c0,0-2,5.83,7,5.83h13.71a3.19,3.19,0,0,0,2.1-.75c2.65-2.34,11.53-9.38,23.19-10.07,0,0,3-.83,0,5,0,0-2,5.83,7,5.83h7.93a4.92,4.92,0,0,0,3.32-1.23A37.64,37.64,0,0,1,3621,784s4,0,0,5c0,0-2,5.83,7,5.83h11.85a5.45,5.45,0,0,0,3.52-1.24c3.2-2.7,11.69-8.93,22.63-9.58,0,0,3-.83,0,5,0,0-2,5.83,7,5.83h7.93a4.92,4.92,0,0,0,3.32-1.23A37.64,37.64,0,0,1,3707,784s4,0,0,5c0,0-2,5.83,7,5.83h13.71a3.19,3.19,0,0,0,2.1-.75c2.65-2.34,11.53-9.38,23.19-10.07,0,0,3-.83,0,5,0,0-2,5.83,7,5.83h7.93a4.92,4.92,0,0,0,3.32-1.23A37.64,37.64,0,0,1,3794,784s4,0,0,5c0,0-2,5.83,7,5.83h13.41a6.68,6.68,0,0,0,4.23-1.46c3.38-2.8,11.71-8.73,22.36-9.36,0,0,3-.83,0,5,0,0-2,5.83,7,5.83h7.93a4.92,4.92,0,0,0,3.32-1.23A37.64,37.64,0,0,1,3882,784s4,0,0,5c0,0-2,5.83,7,5.83h13.71a3.19,3.19,0,0,0,2.1-.75c2.65-2.34,11.53-9.38,23.19-10.07,0,0,3-.83,0,5,0,0-2,5.83,7,5.83h7.93a4.92,4.92,0,0,0,3.32-1.23A37.64,37.64,0,0,1,3969,784s4,0,0,5c0,0-2,5.83,7,5.83h11.85a5.45,5.45,0,0,0,3.52-1.24c3.2-2.7,11.69-8.93,22.63-9.58,0,0,3-.83,0,5,0,0-2,5.83,7,5.83h7.93a4.92,4.92,0,0,0,3.32-1.23A37.64,37.64,0,0,1,4055,784s4,0,0,5c0,0-2,5.83,7,5.83h13.71a3.19,3.19,0,0,0,2.1-.75c2.65-2.34,11.53-9.38,23.19-10.07,0,0,3-.83,0,5,0,0-2,5.83,7,5.83h7.93a4.92,4.92,0,0,0,3.32-1.23A37.64,37.64,0,0,1,4142,784s4,0,0,5c0,0-2,5.83,7,5.83h15.17a10.06,10.06,0,0,0,6.2-2.05c3.76-3,11.69-8.18,21.63-8.77,0,0,3-.83,0,5,0,0-2,5.83,7,5.83h7.93a4.92,4.92,0,0,0,3.32-1.23A37.64,37.64,0,0,1,4233,784s4,0,0,5c0,0-2,5.83,7,5.83h13.71a3.19,3.19,0,0,0,2.1-.75c2.65-2.34,11.53-9.38,23.19-10.07,0,0,3-.83,0,5,0,0-2,5.83,7,5.83h7.93a4.92,4.92,0,0,0,3.32-1.23A37.64,37.64,0,0,1,4320,784s4,0,0,5c0,0-2,5.83,7,5.83h11.85a5.45,5.45,0,0,0,3.52-1.24c3.2-2.7,11.69-8.93,22.63-9.58,0,0,3-.83,0,5,0,0-2,5.83,7,5.83h7.93a4.92,4.92,0,0,0,3.32-1.23A37.64,37.64,0,0,1,4406,784s4,0,0,5c0,0-2,5.83,7,5.83h13.71a3.19,3.19,0,0,0,2.1-.75c2.65-2.34,11.53-9.38,23.19-10.07,0,0,3-.83,0,5,0,0-2,5.83,7,5.83h7.93a4.92,4.92,0,0,0,3.32-1.23A37.64,37.64,0,0,1,4493,784s4,0,0,5c0,0-2,5.83,7,5.83h13.41a6.68,6.68,0,0,0,4.23-1.46c3.38-2.8,11.71-8.73,22.36-9.36,0,0,3-.83,0,5,0,0-2,5.83,7,5.83h7.93a4.92,4.92,0,0,0,3.32-1.23A37.64,37.64,0,0,1,4581,784s4,0,0,5c0,0-2,5.83,7,5.83h13.71a3.19,3.19,0,0,0,2.1-.75c2.65-2.34,11.53-9.38,23.19-10.07,0,0,3-.83,0,5,0,0-2,5.83,7,5.83h7.93a4.92,4.92,0,0,0,3.32-1.23A37.64,37.64,0,0,1,4668,784s4,0,0,5c0,0-2,5.83,7,5.83h11.85a5.45,5.45,0,0,0,3.52-1.24c3.2-2.7,11.69-8.93,22.63-9.58,0,0,3-.83,0,5,0,0-2,5.83,7,5.83h7.93a4.92,4.92,0,0,0,3.32-1.23A37.64,37.64,0,0,1,4754,784s4,0,0,5c0,0-2,5.83,7,5.83h13.71a3.19,3.19,0,0,0,2.1-.75c2.65-2.34,11.53-9.38,23.19-10.07,0,0,3-.83,0,5,0,0-2,5.83,7,5.83h7.93a4.92,4.92,0,0,0,3.32-1.23A37.64,37.64,0,0,1,4841,784s4,0,0,5c0,0-2,5.83,7,5.83h19.22a7.22,7.22,0,0,0,4.56-1.57c3.47-2.85,11.72-8.62,22.22-9.25,0,0,3-.83,0,5,0,0-2,5.83,7,5.83h7.93a4.92,4.92,0,0,0,3.32-1.23A37.64,37.64,0,0,1,4935,784s4,0,0,5c0,0-2,5.83,7,5.83h13.71a3.19,3.19,0,0,0,2.1-.75c2.65-2.34,11.53-9.38,23.19-10.07,0,0,3-.83,0,5,0,0-2,5.83,7,5.83h7.93a4.92,4.92,0,0,0,3.32-1.23A37.64,37.64,0,0,1,5022,784s4,0,0,5c0,0-2,5.83,7,5.83h11.85a5.45,5.45,0,0,0,3.52-1.24c3.2-2.7,11.69-8.93,22.63-9.58,0,0,3-.83,0,5,0,0-2,5.83,7,5.83h7.93a4.92,4.92,0,0,0,3.32-1.23A37.64,37.64,0,0,1,5108,784s4,0,0,5c0,0-2,5.83,7,5.83h13.71a3.19,3.19,0,0,0,2.1-.75c2.65-2.34,11.53-9.38,23.19-10.07,0,0,3-.83,0,5,0,0-2,5.83,7,5.83h7.93a4.92,4.92,0,0,0,3.32-1.23A37.64,37.64,0,0,1,5195,784s4,0,0,5c0,0-2,5.83,7,5.83h13.41a6.68,6.68,0,0,0,4.23-1.46c3.38-2.8,11.71-8.73,22.36-9.36,0,0,3-.83,0,5,0,0-2,5.83,7,5.83h7.93a4.92,4.92,0,0,0,3.32-1.23A37.64,37.64,0,0,1,5283,784s4,0,0,5c0,0-2,5.83,7,5.83h13.71a3.19,3.19,0,0,0,2.1-.75c2.65-2.34,11.53-9.38,23.19-10.07,0,0,3-.83,0,5,0,0-2,5.83,7,5.83h7.93a4.92,4.92,0,0,0,3.32-1.23A37.64,37.64,0,0,1,5370,784s4,0,0,5c0,0-2,5.83,7,5.83h11.85a5.45,5.45,0,0,0,3.52-1.24c3.2-2.7,11.69-8.93,22.63-9.58,0,0,3-.83,0,5,0,0-2,5.83,7,5.83h7.93a4.92,4.92,0,0,0,3.32-1.23A37.64,37.64,0,0,1,5456,784s4,0,0,5c0,0-2,5.83,7,5.83h13.71a3.19,3.19,0,0,0,2.1-.75c2.65-2.34,11.53-9.38,23.19-10.07,0,0,3-.83,0,5,0,0-2,5.83,7,5.83h7.93a4.92,4.92,0,0,0,3.32-1.23A37.64,37.64,0,0,1,5543,784s4,0,0,5c0,0-2,5.83,7,5.83l2.26,713L2767,1512Z" style="fill:#1174b9"/><path d="M0,794.86s10-10,24-10.82c0,0,3-.83,0,5,0,0-2,5.83,7,5.83h7.93a4.92,4.92,0,0,0,3.32-1.23A37.64,37.64,0,0,1,65,784s4,0,0,5c0,0-2,5.83,7,5.83H85.71a3.19,3.19,0,0,0,2.1-.75c2.65-2.34,11.53-9.38,23.19-10.07,0,0,3-.83,0,5,0,0-2,5.83,7,5.83h7.93a4.92,4.92,0,0,0,3.32-1.23A37.64,37.64,0,0,1,152,784s4,0,0,5c0,0-2,5.83,7,5.83h11.85a5.45,5.45,0,0,0,3.52-1.24c3.2-2.7,11.69-8.93,22.63-9.58,0,0,3-.83,0,5,0,0-2,5.83,7,5.83h7.93a4.92,4.92,0,0,0,3.32-1.23A37.64,37.64,0,0,1,238,784s4,0,0,5c0,0-2,5.83,7,5.83h13.71a3.19,3.19,0,0,0,2.1-.75c2.65-2.34,11.53-9.38,23.19-10.07,0,0,3-.83,0,5,0,0-2,5.83,7,5.83h7.93a4.92,4.92,0,0,0,3.32-1.23A37.64,37.64,0,0,1,325,784s4,0,0,5c0,0-2,5.83,7,5.83h13.41a6.68,6.68,0,0,0,4.23-1.46c3.38-2.8,11.71-8.73,22.36-9.36,0,0,3-.83,0,5,0,0-2,5.83,7,5.83h7.93a4.92,4.92,0,0,0,3.32-1.23A37.64,37.64,0,0,1,413,784s4,0,0,5c0,0-2,5.83,7,5.83h13.71a3.19,3.19,0,0,0,2.1-.75c2.65-2.34,11.53-9.38,23.19-10.07,0,0,3-.83,0,5,0,0-2,5.83,7,5.83h7.93a4.92,4.92,0,0,0,3.32-1.23A37.64,37.64,0,0,1,500,784s4,0,0,5c0,0-2,5.83,7,5.83h11.85a5.45,5.45,0,0,0,3.52-1.24c3.2-2.7,11.69-8.93,22.63-9.58,0,0,3-.83,0,5,0,0-2,5.83,7,5.83h7.93a4.92,4.92,0,0,0,3.32-1.23A37.64,37.64,0,0,1,586,784s4,0,0,5c0,0-2,5.83,7,5.83h13.71a3.19,3.19,0,0,0,2.1-.75c2.65-2.34,11.53-9.38,23.19-10.07,0,0,3-.83,0,5,0,0-2,5.83,7,5.83h7.93a4.92,4.92,0,0,0,3.32-1.23A37.64,37.64,0,0,1,673,784s4,0,0,5c0,0-2,5.83,7,5.83h19.22a7.22,7.22,0,0,0,4.56-1.57c3.47-2.85,11.72-8.62,22.22-9.25,0,0,3-.83,0,5,0,0-2,5.83,7,5.83h7.93a4.92,4.92,0,0,0,3.32-1.23A37.64,37.64,0,0,1,767,784s4,0,0,5c0,0-2,5.83,7,5.83h13.71a3.19,3.19,0,0,0,2.1-.75c2.65-2.34,11.53-9.38,23.19-10.07,0,0,3-.83,0,5,0,0-2,5.83,7,5.83h7.93a4.92,4.92,0,0,0,3.32-1.23A37.64,37.64,0,0,1,854,784s4,0,0,5c0,0-2,5.83,7,5.83h11.85a5.45,5.45,0,0,0,3.52-1.24c3.2-2.7,11.69-8.93,22.63-9.58,0,0,3-.83,0,5,0,0-2,5.83,7,5.83h7.93a4.92,4.92,0,0,0,3.32-1.23A37.64,37.64,0,0,1,940,784s4,0,0,5c0,0-2,5.83,7,5.83h13.71a3.19,3.19,0,0,0,2.1-.75c2.65-2.34,11.53-9.38,23.19-10.07,0,0,3-.83,0,5,0,0-2,5.83,7,5.83h7.93a4.92,4.92,0,0,0,3.32-1.23A37.64,37.64,0,0,1,1027,784s4,0,0,5c0,0-2,5.83,7,5.83h13.41a6.68,6.68,0,0,0,4.23-1.46c3.38-2.8,11.71-8.73,22.36-9.36,0,0,3-.83,0,5,0,0-2,5.83,7,5.83h7.93a4.92,4.92,0,0,0,3.32-1.23A37.64,37.64,0,0,1,1115,784s4,0,0,5c0,0-2,5.83,7,5.83h13.71a3.19,3.19,0,0,0,2.1-.75c2.65-2.34,11.53-9.38,23.19-10.07,0,0,3-.83,0,5,0,0-2,5.83,7,5.83h7.93a4.92,4.92,0,0,0,3.32-1.23A37.64,37.64,0,0,1,1202,784s4,0,0,5c0,0-2,5.83,7,5.83h11.85a5.45,5.45,0,0,0,3.52-1.24c3.2-2.7,11.69-8.93,22.63-9.58,0,0,3-.83,0,5,0,0-2,5.83,7,5.83h7.93a4.92,4.92,0,0,0,3.32-1.23A37.64,37.64,0,0,1,1288,784s4,0,0,5c0,0-2,5.83,7,5.83h13.71a3.19,3.19,0,0,0,2.1-.75c2.65-2.34,11.53-9.38,23.19-10.07,0,0,3-.83,0,5,0,0-2,5.83,7,5.83h7.93a4.92,4.92,0,0,0,3.32-1.23A37.64,37.64,0,0,1,1375,784s4,0,0,5c0,0-2,5.83,7,5.83h15.17a10.06,10.06,0,0,0,6.2-2.05c3.76-3,11.69-8.18,21.63-8.77,0,0,3-.83,0,5,0,0-2,5.83,7,5.83h7.93a4.92,4.92,0,0,0,3.32-1.23A37.64,37.64,0,0,1,1466,784s4,0,0,5c0,0-2,5.83,7,5.83h13.71a3.19,3.19,0,0,0,2.1-.75c2.65-2.34,11.53-9.38,23.19-10.07,0,0,3-.83,0,5,0,0-2,5.83,7,5.83h7.93a4.92,4.92,0,0,0,3.32-1.23A37.64,37.64,0,0,1,1553,784s4,0,0,5c0,0-2,5.83,7,5.83h11.85a5.45,5.45,0,0,0,3.52-1.24c3.2-2.7,11.69-8.93,22.63-9.58,0,0,3-.83,0,5,0,0-2,5.83,7,5.83h7.93a4.92,4.92,0,0,0,3.32-1.23A37.64,37.64,0,0,1,1639,784s4,0,0,5c0,0-2,5.83,7,5.83h13.71a3.19,3.19,0,0,0,2.1-.75c2.65-2.34,11.53-9.38,23.19-10.07,0,0,3-.83,0,5,0,0-2,5.83,7,5.83h7.93a4.92,4.92,0,0,0,3.32-1.23A37.64,37.64,0,0,1,1726,784s4,0,0,5c0,0-2,5.83,7,5.83h13.41a6.68,6.68,0,0,0,4.23-1.46c3.38-2.8,11.71-8.73,22.36-9.36,0,0,3-.83,0,5,0,0-2,5.83,7,5.83h7.93a4.92,4.92,0,0,0,3.32-1.23A37.64,37.64,0,0,1,1814,784s4,0,0,5c0,0-2,5.83,7,5.83h13.71a3.19,3.19,0,0,0,2.1-.75c2.65-2.34,11.53-9.38,23.19-10.07,0,0,3-.83,0,5,0,0-2,5.83,7,5.83h7.93a4.92,4.92,0,0,0,3.32-1.23A37.64,37.64,0,0,1,1901,784s4,0,0,5c0,0-2,5.83,7,5.83h11.85a5.45,5.45,0,0,0,3.52-1.24c3.2-2.7,11.69-8.93,22.63-9.58,0,0,3-.83,0,5,0,0-2,5.83,7,5.83h7.93a4.92,4.92,0,0,0,3.32-1.23A37.64,37.64,0,0,1,1987,784s4,0,0,5c0,0-2,5.83,7,5.83h13.71a3.19,3.19,0,0,0,2.1-.75c2.65-2.34,11.53-9.38,23.19-10.07,0,0,3-.83,0,5,0,0-2,5.83,7,5.83h7.93a4.92,4.92,0,0,0,3.32-1.23A37.64,37.64,0,0,1,2074,784s4,0,0,5c0,0-2,5.83,7,5.83h19.22a7.22,7.22,0,0,0,4.56-1.57c3.47-2.85,11.72-8.62,22.22-9.25,0,0,3-.83,0,5,0,0-2,5.83,7,5.83h7.93a4.92,4.92,0,0,0,3.32-1.23A37.64,37.64,0,0,1,2168,784s4,0,0,5c0,0-2,5.83,7,5.83h13.71a3.19,3.19,0,0,0,2.1-.75c2.65-2.34,11.53-9.38,23.19-10.07,0,0,3-.83,0,5,0,0-2,5.83,7,5.83h7.93a4.92,4.92,0,0,0,3.32-1.23A37.64,37.64,0,0,1,2255,784s4,0,0,5c0,0-2,5.83,7,5.83h11.85a5.45,5.45,0,0,0,3.52-1.24c3.2-2.7,11.69-8.93,22.63-9.58,0,0,3-.83,0,5,0,0-2,5.83,7,5.83h7.93a4.92,4.92,0,0,0,3.32-1.23A37.64,37.64,0,0,1,2341,784s4,0,0,5c0,0-2,5.83,7,5.83h13.71a3.19,3.19,0,0,0,2.1-.75c2.65-2.34,11.53-9.38,23.19-10.07,0,0,3-.83,0,5,0,0-2,5.83,7,5.83h7.93a4.92,4.92,0,0,0,3.32-1.23A37.64,37.64,0,0,1,2428,784s4,0,0,5c0,0-2,5.83,7,5.83h13.41a6.68,6.68,0,0,0,4.23-1.46c3.38-2.8,11.71-8.73,22.36-9.36,0,0,3-.83,0,5,0,0-2,5.83,7,5.83h7.93a4.92,4.92,0,0,0,3.32-1.23A37.64,37.64,0,0,1,2516,784s4,0,0,5c0,0-2,5.83,7,5.83h13.71a3.19,3.19,0,0,0,2.1-.75c2.65-2.34,11.53-9.38,23.19-10.07,0,0,3-.83,0,5,0,0-2,5.83,7,5.83h7.93a4.92,4.92,0,0,0,3.32-1.23A37.64,37.64,0,0,1,2603,784s4,0,0,5c0,0-2,5.83,7,5.83h11.85a5.45,5.45,0,0,0,3.52-1.24c3.2-2.7,11.69-8.93,22.63-9.58,0,0,3-.83,0,5,0,0-2,5.83,7,5.83h7.93a4.92,4.92,0,0,0,3.32-1.23A37.64,37.64,0,0,1,2689,784s4,0,0,5c0,0-2,5.83,7,5.83h13.71a3.19,3.19,0,0,0,2.1-.75c2.65-2.34,11.53-9.38,23.19-10.07,0,0,3-.83,0,5,0,0-2,5.83,7,5.83h7.93a4.92,4.92,0,0,0,3.32-1.23A37.64,37.64,0,0,1,2776,784s4,0,0,5c0,0-2,5.83,7,5.83l2.26,713L0,1512Z" style="fill:#1174b9"/><path d="M6914,1511.78l-1188.64.22H5549V795.07s10.19-10,24.47-10.81c0,0,3.05-.83,0,5,0,0-2,5.82,7.13,5.82h8.09a5.12,5.12,0,0,0,3.38-1.22,38.68,38.68,0,0,1,23.19-9.59s4.08,0,0,5c0,0-2,5.82,7.14,5.82h14a3.33,3.33,0,0,0,2.15-.75c2.7-2.33,11.75-9.37,23.64-10.06,0,0,3.05-.83,0,5,0,0-2,5.82,7.13,5.82h8.09a5.12,5.12,0,0,0,3.38-1.22,38.65,38.65,0,0,1,23.19-9.59s4.08,0,0,5c0,0-2,5.82,7.14,5.82h12.08a5.69,5.69,0,0,0,3.59-1.23c3.26-2.7,11.92-8.93,23.07-9.58,0,0,3.05-.83,0,5,0,0-2,5.82,7.13,5.82h8.09a5.12,5.12,0,0,0,3.38-1.22,38.65,38.65,0,0,1,23.19-9.59s4.08,0,0,5c0,0-2,5.82,7.14,5.82h14a3.33,3.33,0,0,0,2.15-.75c2.7-2.33,11.75-9.37,23.63-10.06,0,0,3.06-.83,0,5,0,0-2,5.82,7.14,5.82h8.08a5.13,5.13,0,0,0,3.39-1.22,38.65,38.65,0,0,1,23.19-9.59s4.08,0,0,5c0,0-2,5.82,7.14,5.82h13.67a6.87,6.87,0,0,0,4.31-1.45c3.44-2.8,11.94-8.73,22.79-9.36,0,0,3.06-.83,0,5,0,0-2,5.82,7.14,5.82h8.08a5.13,5.13,0,0,0,3.39-1.22,38.65,38.65,0,0,1,23.19-9.59s4.08,0,0,5c0,0-2,5.82,7.14,5.82h14a3.33,3.33,0,0,0,2.15-.75c2.7-2.33,11.75-9.37,23.63-10.06,0,0,3.06-.83,0,5,0,0-2,5.82,7.14,5.82h8.08a5.15,5.15,0,0,0,3.39-1.22,38.65,38.65,0,0,1,23.19-9.59s4.08,0,0,5c0,0-2,5.82,7.13,5.82h12.08a5.7,5.7,0,0,0,3.6-1.23c3.26-2.7,11.92-8.93,23.06-9.58,0,0,3.06-.83,0,5,0,0-2,5.82,7.14,5.82h8.08a5.15,5.15,0,0,0,3.39-1.22,38.65,38.65,0,0,1,23.19-9.59s4.08,0,0,5c0,0-2,5.82,7.13,5.82h14a3.28,3.28,0,0,0,2.14-.75c2.7-2.33,11.76-9.37,23.64-10.06,0,0,3.06-.83,0,5,0,0-2,5.82,7.14,5.82h8.08a5.15,5.15,0,0,0,3.39-1.22,38.62,38.62,0,0,1,23.19-9.59s4.08,0,0,5c0,0-2,5.82,7.13,5.82h19.59a7.43,7.43,0,0,0,4.65-1.57c3.54-2.84,12-8.62,22.66-9.24,0,0,3.06-.83,0,5,0,0-2,5.82,7.13,5.82h8.09a5.12,5.12,0,0,0,3.38-1.22,38.68,38.68,0,0,1,23.19-9.59s4.08,0,0,5c0,0-2,5.82,7.14,5.82h14a3.33,3.33,0,0,0,2.15-.75c2.7-2.33,11.75-9.37,23.64-10.06,0,0,3.05-.83,0,5,0,0-2,5.82,7.13,5.82H6393a5.12,5.12,0,0,0,3.38-1.22,38.68,38.68,0,0,1,23.19-9.59s4.08,0,0,5c0,0-2,5.82,7.14,5.82h12.08a5.69,5.69,0,0,0,3.59-1.23c3.26-2.7,11.92-8.93,23.07-9.58,0,0,3.05-.83,0,5,0,0-2,5.82,7.13,5.82h8.09a5.12,5.12,0,0,0,3.38-1.22,38.68,38.68,0,0,1,23.19-9.59s4.08,0,0,5c0,0-2,5.82,7.14,5.82h14a3.33,3.33,0,0,0,2.15-.75c2.7-2.33,11.75-9.37,23.64-10.06,0,0,3.05-.83,0,5,0,0-2,5.82,7.13,5.82h8.09a5.12,5.12,0,0,0,3.38-1.22,38.68,38.68,0,0,1,23.19-9.59s4.08,0,0,5c0,0-2,5.82,7.14,5.82h13.67a6.87,6.87,0,0,0,4.31-1.45c3.44-2.8,11.94-8.73,22.79-9.36,0,0,3.06-.83,0,5,0,0-2,5.82,7.14,5.82h8.08a5.13,5.13,0,0,0,3.39-1.22,38.65,38.65,0,0,1,23.19-9.59s4.08,0,0,5c0,0-2,5.82,7.14,5.82h14a3.33,3.33,0,0,0,2.15-.75c2.7-2.33,11.75-9.37,23.63-10.06,0,0,3.06-.83,0,5,0,0-2,5.82,7.14,5.82h8.08a5.13,5.13,0,0,0,3.39-1.22,38.65,38.65,0,0,1,23.19-9.59s4.08,0,0,5c0,0-2,5.82,7.14,5.82h12.08a5.69,5.69,0,0,0,3.59-1.23c3.26-2.7,11.92-8.93,23.06-9.58,0,0,3.06-.83,0,5,0,0-2,5.82,7.14,5.82h8.08a5.13,5.13,0,0,0,3.39-1.22,38.65,38.65,0,0,1,23.19-9.59s4.08,0,0,5c0,0-2,5.82,7.14,5.82h14a3.33,3.33,0,0,0,2.15-.75c2.7-2.33,16.85-9.63,28.73-10.32v11.07" style="fill:#1174b9"/></svg>