<svg height="498" viewBox="0 0 6760 498" width="6760" xmlns="http://www.w3.org/2000/svg"><path d="m34 50c-3.32 96.85 6.6 268.6 6.6 268.6s0 21.4 8.56 34.24c0 0 30-8.56 38.51-25.68 0 0-8.56 47.07 0 59.91 0 0 38.52-29.95 42.8-47.07h47.07s-4.28 42.79 17.12 47.07c0 0 21.39-12.84 34.23-51.35 0 0 59.91-30 119.82-8.56 0 0 21.4 25.68 38.52 38.52 20.54 15.4 4.28-47.08 4.28-51.36s17.11 0 21.39 0 30 21.4 47.08 21.4c0 0-12.84 30-8.56 38.51 0 0 25.67-4.27 38.51-30 0 0 149.78 12.84 179.73-4.28 0 0 4.28 34.23 17.12 38.51 0 0 17.12-17.11 4.28-42.79 0 0 34.24 21.4 47.07 12.84s-21.39-42.79-25.67-42.79 29.95-17.12 38.51-30c0 0 47.07 42.79 55.63 30 0 0 12.84-17.12-8.56-42.8 0 0 34 8.87 34-4l37.6 25.6s0 21.4 8.56 34.24c0 0 30-8.56 38.51-25.68 0 0-8.56 47.07 0 59.91 0 0 38.52-29.95 42.8-47.07h47.07s-4.28 42.79 17.12 47.07c0 0 21.39-12.84 34.23-51.35 0 0 59.91-30 119.82-8.56 0 0 21.4 25.68 38.52 38.52 20.54 15.4 4.28-47.08 4.28-51.36s17.11 0 21.39 0 30 21.4 47.08 21.4c0 0-12.84 30-8.56 38.51 0 0 25.67-4.27 38.51-30 0 0 149.78 12.84 179.73-4.28 0 0 4.28 34.23 17.12 38.51 0 0 17.12-17.11 4.28-42.79 0 0 34.24 21.4 47.07 12.84s-21.39-42.79-25.67-42.79 30-17.12 38.51-30c0 0 47.07 42.79 55.63 30 0 0 12.84-17.12-8.56-42.8 0 0 34.24-4.28 34.24-17.12l27.68 2.28c-3.32 96.85 22 134 22 134s1.6 30 10.16 42.84c0 0 29.95-8.56 38.51-25.68 0 0-8.56 47.07 0 59.91 0 0 38.52-29.95 42.8-47.07h47.07s-4.28 42.79 17.12 47.07c0 0 21.39-12.84 34.23-51.35 0 0 59.91-30 119.82-8.56 0 0 21.4 25.68 38.52 38.52 20.54 15.4 4.28-47.08 4.28-51.36s17.11 0 21.39 0 30 21.4 47.08 21.4c0 0-12.84 30-8.56 38.51 0 0 25.67-4.27 38.51-30 0 0 149.78 12.84 179.73-4.28 0 0 4.28 34.23 17.12 38.51 0 0 17.12-17.11 4.28-42.79 0 0 34.24 21.4 47.07 12.84s-21.39-42.79-25.67-42.79 29.95-17.12 38.51-30c0 0 47.07 42.79 55.63 30 0 0 12.84-17.12-8.56-42.8 0 0 34 8.87 34-4l37.6 25.6s0 21.4 8.56 34.24c0 0 30-8.56 38.51-25.68 0 0-8.56 47.07 0 59.91 0 0 38.52-29.95 42.8-47.07h47.07s-4.28 42.79 17.12 47.07c0 0 21.39-12.84 34.23-51.35 0 0 59.91-30 119.82-8.56 0 0 21.4 25.68 38.52 38.52 20.54 15.4 4.28-47.08 4.28-51.36s17.11 0 21.39 0 30 21.4 47.08 21.4c0 0-12.84 30-8.56 38.51 0 0 25.67-4.27 38.51-30 0 0 149.78 12.84 179.73-4.28 0 0 4.28 34.23 17.12 38.51 0 0 17.12-17.11 4.28-42.79 0 0 34.24 21.4 47.07 12.84s-21.39-42.79-25.67-42.79 29.95-17.12 38.51-30c0 0 47.07 42.79 55.63 30 0 0 12.84-17.12-8.56-42.8 0 0 59-46.13 59-59l36.6 92.6s0 21.4 8.56 34.24c0 0 30-8.56 38.51-25.68 0 0-8.56 47.07 0 59.91 0 0 38.52-29.95 42.8-47.07h47.07s-4.28 42.79 17.12 47.07c0 0 21.39-12.84 34.23-51.35 0 0 59.91-30 119.82-8.56 0 0 21.4 25.68 38.52 38.52 20.54 15.4 4.28-47.08 4.28-51.36s17.11 0 21.39 0 30 21.4 47.08 21.4c0 0-12.84 30-8.56 38.51 0 0 25.67-4.27 38.51-30 0 0 149.78 12.84 179.73-4.28 0 0 4.28 34.23 17.12 38.51 0 0 17.12-17.11 4.28-42.79 0 0 34.24 21.4 47.07 12.84s-21.39-42.79-25.67-42.79 29.95-17.12 38.51-30c0 0 47.07 42.79 55.63 30 0 0 12.84-17.12-8.56-42.8 0 0 34 8.87 34-4l37.6 25.6s0 21.4 8.56 34.24c0 0 29.95-8.56 38.51-25.68 0 0-8.56 47.07 0 59.91 0 0 38.52-29.95 42.8-47.07h47.07s-4.28 42.79 17.12 47.07c0 0 21.39-12.84 34.23-51.35 0 0 59.91-30 119.82-8.56 0 0 21.4 25.68 38.52 38.52 20.54 15.4 4.28-47.08 4.28-51.36s17.11 0 21.39 0 30 21.4 47.08 21.4c0 0-12.84 30-8.56 38.51 0 0 25.67-4.27 38.51-30 0 0 149.78 12.84 179.73-4.28 0 0 4.28 34.23 17.12 38.51 0 0 17.12-17.11 4.28-42.79 0 0 34.24 21.4 47.07 12.84s-21.39-42.79-25.67-42.79 29.95-17.12 38.51-30c0 0 47.07 42.79 55.63 30 0 0 12.84-17.12-8.56-42.8 0 0 34.24-4.28 34.24-17.12l27.6 2.44c-3.32 96.85 22 134 22 134s1.6 30 10.16 42.84c0 0 29.95-8.56 38.51-25.68 0 0-8.56 47.07 0 59.91 0 0 38.52-29.95 42.8-47.07h47.07s-4.28 42.79 17.12 47.07c0 0 21.39-12.84 34.23-51.35 0 0 59.91-30 119.82-8.56 0 0 21.4 25.68 38.52 38.52 20.54 15.4 4.28-47.08 4.28-51.36s17.11 0 21.39 0 30 21.4 47.08 21.4c0 0-12.84 30-8.56 38.51 0 0 25.67-4.27 38.51-30 0 0 149.78 12.84 179.73-4.28 0 0 4.28 34.23 17.12 38.51 0 0 17.12-17.11 4.28-42.79 0 0 34.24 21.4 47.07 12.84s-21.39-42.79-25.67-42.79 29.95-17.12 38.51-30c0 0 47.07 42.79 55.63 30 0 0 12.84-17.12-8.56-42.8 0 0 34 8.87 34-4l37.6 25.6s0 21.4 8.56 34.24c0 0 29.95-8.56 38.51-25.68 0 0-8.56 47.07 0 59.91 0 0 38.52-29.95 42.8-47.07h47.07s-4.28 42.79 17.12 47.07c0 0 21.39-12.84 34.23-51.35 0 0 59.91-30 119.82-8.56 0 0 21.4 25.68 38.52 38.52 20.54 15.4 4.28-47.08 4.28-51.36s17.11 0 21.39 0 30 21.4 47.08 21.4c0 0-12.84 30-8.56 38.51 0 0 25.67-4.27 38.51-30 0 0 149.78 12.84 179.73-4.28 0 0 4.28 34.23 17.12 38.51 0 0 17.12-17.11 4.28-42.79 0 0 34.24 21.4 47.07 12.84s-21.39-42.79-25.67-42.79 29.95-17.12 38.51-30c0 0 47.07 42.79 55.63 30 0 0 12.84-17.12-8.56-42.8 0 0 64-236.13 64-249z" fill="#79864e"/></svg>