<svg class="svg" version="1.1" id="Layer_1" xmlns="http://www.w3.org/2000/svg" xmlns:xlink="http://www.w3.org/1999/xlink" x="0px" y="0px"
	 viewBox="0 0 17 46" style="enable-background:new 0 0 17 46;" xml:space="preserve">
    
      <defs>
    <linearGradient id="grad2" x1="0%" y1="0%" x2="0%" y2="100%">
      <stop offset="0%" style="stop-color:#d9d9d9;stop-opacity:1" />
      <stop offset="33%" style="stop-color:#d9d9d9;stop-opacity:0.7" />
      <stop offset="50%" style="stop-color:#ffffff;stop-opacity:1"/>
      <stop offset="66%" style="stop-color:#d9d9d9;stop-opacity:0.7" />
      <stop offset="100%" style="stop-color:#d9d9d9;stop-opacity:1" />
    </linearGradient>
  </defs>
<g>
      <animateTransform 
           xlink:href="#grad2"
           attributeName="gradientTransform" 
           attributeType="XML"
           type="translate"
           from="0 -1"
           to="0 1" 
           dur="2s"
           repeatCount="indefinite"
           restart="whenNotActive"            
           />
	<g>
		<path class="st0" d="M8.5,2C4.9,2,2,4.9,2,8.4v9.1C2,21.1,4.9,24,8.5,24s6.5-2.9,6.5-6.4V8.4C15,4.9,12.1,2,8.5,2z"/>
	</g>
	<path class="st1" d="M8.5,0C3.8,0,0,3.8,0,8.4v9.1C0,22.2,3.8,26,8.5,26s8.5-3.8,8.5-8.4V8.4C17,3.8,13.2,0,8.5,0z M15,17.6
			c0,3.5-2.9,6.4-6.5,6.4S2,21.1,2,17.6V8.4C2,4.9,4.9,2,8.5,2S15,4.9,15,8.4V17.6z M8.5,5.1c-0.5,0-1,0.5-1,1V9c0,0.5,0.5,1,1,1s1-0.5,1-1V6.1C9.5,5.6,9,5.1,8.5,5.1z M13.1,32.1L8,36.6l-5.1-4.5c-0.2-0.2-0.6-0.2-0.8,0.1C1.9,32.4,2,32.8,2.2,33l5.5,4.8c0.1,0.1,0.2,0.1,0.3,0.1
		l0.3-0.1l5.5-4.8c0.2-0.2,0.3-0.6,0.1-0.8C13.7,32,13.4,31.9,13.1,32.1z M13.1,40.1L8,44.5l-5.1-4.5c-0.2-0.2-0.6-0.2-0.8,0.1c-0.2,0.2-0.2,0.6,0.1,0.8l5.5,4.8
		c0.1,0.1,0.2,0.1,0.3,0.1l0.3-0.1l5.5-4.8c0.2-0.2,0.3-0.6,0.1-0.8C13.7,39.9,13.4,39.9,13.1,40.1z"/>
</g>
</svg>