<svg xmlns="http://www.w3.org/2000/svg" width="1154" height="133" viewBox="0 0 1154 133"><title>World_Components</title><g id="GroundMe"><rect x="3.13" y="27" width="1151.3" height="114" style="fill:#a47b55"/><polygon points="3 73 53 105 101 77 148 105 196 77 245 105 291 75 341 105 389 75 437 105 484 77 534 105 580 77 629 105 677 77 725 105 773 75 823 105 869 77 917 105 965 75 1014 105 1062 77 1110 105 1154 77 1154 39 1112 66 1062 38 1015 67 965 38 918 66 870 38 821 66 773 38 725 68 677 38 628 67 580 38 534 66 484 38 437 67 389 38 341 66 293 38 244 67 196 38 149 66 100 38 53 66 4 36 3 73" style="fill:#8b623c"/><polygon points="3 105 51 133 100 105 149 133 196 105 247 133 293 105 342 133 389 105 437 133 484 105 535 133 580 105 629 133 677 105 726 133 773 105 821 133 868 105 918 133 964 105 1015 133 1060 105 1110 133 1154 108 1154 141 3 141 3 105" style="fill:#8b623c"/><path d="M537.15,51H537a17.53,17.53,0,0,0-.73-1.69c-.67-1.34-1.33-2.69-2-4-.1-.2-.2-.38-.29-.58-.18-.4-.4-.6-.68-.57h-4.43a1.54,1.54,0,0,0-.3,0,.43.43,0,0,0-.28.24c-.1.18-.2.37-.29.56s-.3.65-.45,1c-.61,1.23-1.22,2.45-1.82,3.67l-.33.64a1.06,1.06,0,0,1-.17.23.21.21,0,0,1-.34,0,1.46,1.46,0,0,1-.17-.24c-.08-.15-.17-.32-.25-.49-.34-.67-.67-1.34-1-2-.09-.17-.17-.34-.25-.52-.36-.84-.77-1.61-1.16-2.4a3.9,3.9,0,0,0-.19-.35c-.1-.18-.22-.3-.37-.31a4.07,4.07,0,0,0-.5,0h-3.83c-.12,0-.24,0-.35,0s-.47.15-.64.52c-.06.13-.12.24-.18.36-.3.6-.6,1.2-.89,1.8-.11.22-.21.44-.32.67-.18.39-.37.79-.56,1.17s-.4.82-.6,1.23c-.09.17-.17.34-.25.52a2.18,2.18,0,0,0-.17.61H513a7,7,0,0,0-.44-1.1l-.72-1.45-1.6-3.24c-.08-.16-.17-.33-.25-.5-.26-.49-.35-.57-.73-.59H504.8c-.25,0-.47.14-.64.51-.08.18-.17.34-.25.5-.7,1.42-1.4,2.83-2.11,4.25l-.31.66a8.18,8.18,0,0,0-.38,1h-.2a2.57,2.57,0,0,0-.18-.61c-.1-.23-.2-.45-.31-.66-.41-.85-.84-1.67-1.23-2.56a2.59,2.59,0,0,0-.14-.29l-1-2c-.09-.16-.17-.33-.26-.48s-.23-.29-.37-.3a2.83,2.83,0,0,0-.41,0h-4.33l-.15,0a.5.5,0,0,0-.28.23,1.18,1.18,0,0,0-.11.19c-.37.75-.75,1.49-1.11,2.25-.2.44-.41.89-.62,1.32l-.83,1.65-.24.51a2.33,2.33,0,0,0-.21.69H489a2,2,0,0,0-.15-.52l-.27-.59-1.47-3c-.33-.67-.67-1.33-1-2a4.32,4.32,0,0,0-.22-.43.52.52,0,0,0-.37-.31l-.51,0h-3.87l-.46,0c-.16,0-.29.14-.41.35s-.17.33-.25.5l-1.61,3.24c-.09.19-.18.39-.28.59-.19.42-.39.84-.59,1.26a9.58,9.58,0,0,0-.4.91h-.2a2.16,2.16,0,0,0-.17-.62q-.12-.27-.24-.51c-.2-.41-.4-.82-.59-1.26-.08-.18-.16-.35-.25-.51-.52-1.06-1-2.12-1.57-3.17-.05-.1-.1-.19-.14-.29-.16-.33-.35-.51-.59-.51h-4.64l-.15,0a.5.5,0,0,0-.28.23c-.06.11-.13.22-.19.34-.28.57-.57,1.14-.84,1.75-.12.28-.26.54-.39.81-.42.86-.85,1.73-1.28,2.59-.1.19-.19.39-.28.59a1.65,1.65,0,0,0-.14.53H465a5,5,0,0,0-.39-1l-1.32-2.66c-.33-.67-.67-1.33-1-2-.09-.2-.19-.39-.29-.58a1.28,1.28,0,0,0-.11-.2c-.11-.18-.23-.3-.37-.31l-.51,0h-4.12c-.38,0-.46.09-.73.59l-.1.22-1.47,3-.21.44c-.23.54-.48,1-.73,1.55q-.13.29-.27.6a2,2,0,0,0-.14.53H453c-.06-.16-.12-.33-.19-.48-.31-.67-.61-1.35-.93-2s-.67-1.34-1-2L450.16,45c-.1-.2-.2-.38-.3-.56a.48.48,0,0,0-.37-.3l-.51,0h-4l-.2,0c-.18,0-.33.13-.46.37l-.22.42L441.55,50l-.21.44a2.44,2.44,0,0,0-.16.52H441a2.49,2.49,0,0,0-.18-.6c-.1-.23-.21-.45-.32-.67-.4-.81-.8-1.63-1.21-2.45l-.45-1L438,44.66a1.75,1.75,0,0,0-.16-.27.45.45,0,0,0-.27-.23,3.73,3.73,0,0,0-.46,0h-4.28l-.15,0a.5.5,0,0,0-.37.3L432,45l-.89,1.8c-.11.21-.22.42-.32.65-.32.74-.67,1.43-1,2.12l-.36.73a2.66,2.66,0,0,0-.2.69H429a1.89,1.89,0,0,0-.13-.44c-.05-.13-.11-.26-.17-.38l-2.67-5.39c-.06-.12-.13-.23-.19-.34s-.23-.29-.37-.3l-.51,0h-3.76c-.12,0-.24,0-.36,0s-.47.15-.64.52l0,.07c-.65,1.3-1.29,2.6-1.93,3.9l0,.07c-.24.57-.5,1.1-.76,1.62a5.66,5.66,0,0,0-.3.7H417a2.4,2.4,0,0,0-.14-.53c-.09-.2-.19-.4-.28-.59l-1-2c-.12-.24-.25-.48-.36-.73-.36-.84-.77-1.61-1.16-2.41-.07-.14-.15-.27-.23-.4a.45.45,0,0,0-.27-.23,1.76,1.76,0,0,0-.31,0H409a1.76,1.76,0,0,0-.31,0,.48.48,0,0,0-.27.23l-.12.2c-.38.77-.77,1.52-1.14,2.31-.29.62-.58,1.23-.88,1.83l-.71,1.44a8,8,0,0,0-.37.83H405a4.89,4.89,0,0,0-.4-1c-.34-.7-.69-1.4-1-2.09-.47-.94-.93-1.88-1.4-2.81q-.16-.33-.33-.63c-.1-.16-.21-.26-.33-.27a2.92,2.92,0,0,0-.51,0h-3.88a3.73,3.73,0,0,0-.46,0,.45.45,0,0,0-.32.27l-.33.62c-.55,1.11-1.1,2.21-1.65,3.33l-.9,1.92-.06.16a2.13,2.13,0,0,0-.14.54h-.2c-.1-.28-.22-.52-.33-.76-.45-.92-.91-1.83-1.34-2.77s-.9-1.83-1.36-2.74a3.72,3.72,0,0,0-.19-.34.44.44,0,0,0-.28-.23,1.54,1.54,0,0,0-.3,0H385a1.76,1.76,0,0,0-.31,0,.47.47,0,0,0-.27.24c-.1.18-.2.36-.29.56-.24.54-.49,1-.74,1.54-.54,1.11-1.09,2.21-1.64,3.32-.11.21-.21.43-.31.66a2,2,0,0,0-.15.52h-.21a4.32,4.32,0,0,0-.32-.9c-.09-.17-.17-.34-.25-.5-.61-1.23-1.22-2.45-1.82-3.67l-.57-1.17a2.31,2.31,0,0,0-.18-.35.46.46,0,0,0-.27-.25,5.27,5.27,0,0,0-.56,0h-4a2.85,2.85,0,0,0-.41,0,.48.48,0,0,0-.28.22c-.06.11-.13.22-.19.34l-1.71,3.45c0,.08-.07.15-.1.23-.21.49-.44.94-.66,1.4-.1.19-.19.38-.28.58a2.25,2.25,0,0,0-.17.62H369a2.25,2.25,0,0,0-.16-.62c0-.08-.07-.15-.1-.23-.34-.66-.67-1.35-1-2,0-.08-.07-.15-.11-.22l-1.47-3c-.08-.17-.17-.33-.26-.49a.45.45,0,0,0-.32-.27,4.38,4.38,0,0,0-.51,0h-3.87a2.32,2.32,0,0,0-.46,0,.44.44,0,0,0-.33.27l-.33.62c-.65,1.32-1.31,2.65-2,4-.26.53-.51,1.09-.76,1.64,0,.1-.08.22-.12.33h-.2a2,2,0,0,0-.15-.52c-.09-.2-.19-.4-.28-.59-.49-1-1-2-1.46-3-.34-.68-.68-1.34-1-2a3.21,3.21,0,0,0-.25-.49.48.48,0,0,0-.28-.24,1.54,1.54,0,0,0-.3,0H349a1.55,1.55,0,0,0-.31,0,.46.46,0,0,0-.28.23l-.3.55L347,47.24c-.09.2-.19.39-.28.59-.2.46-.41.9-.63,1.33s-.35.72-.53,1.08a5.27,5.27,0,0,0-.33.76H345a2.05,2.05,0,0,0-.2-.7c-.26-.57-.52-1.15-.79-1.7l-1.86-3.76-.22-.41c-.1-.16-.21-.26-.33-.27a2.92,2.92,0,0,0-.51,0h-3.87a2.32,2.32,0,0,0-.46,0c-.12,0-.23.11-.33.27s-.2.36-.29.55c-.72,1.45-1.43,2.89-2.15,4.33-.26.54-.5,1.09-.73,1.69h-.2a2,2,0,0,0-.14-.53l-.21-.45c-.34-.7-.69-1.39-1-2.09-.12-.24-.24-.47-.36-.73-.36-.84-.77-1.61-1.16-2.4l-.22-.41a.46.46,0,0,0-.28-.23,1.55,1.55,0,0,0-.31,0H325a1.55,1.55,0,0,0-.31,0,.48.48,0,0,0-.28.24l-.15.26c-.19.39-.38.77-.56,1.17s-.4.84-.6,1.24l-1.35,2.74-.32.66a2,2,0,0,0-.14.53h-.21a3.71,3.71,0,0,0-.15-.4c-.2-.46-.4-.92-.62-1.35-.72-1.48-1.45-2.94-2.18-4.41-.07-.14-.14-.28-.22-.41a.45.45,0,0,0-.32-.27,2.92,2.92,0,0,0-.51,0h-3.88a3.57,3.57,0,0,0-.46,0,.45.45,0,0,0-.32.27,6.25,6.25,0,0,0-.33.63c-.48,1-1,1.92-1.43,2.89-.38.77-.75,1.56-1.12,2.35l0,.08a2.25,2.25,0,0,0-.16.62h-.3a3,3,0,0,0-.24-.76l-.72-1.44c-.19-.39-.38-.76-.56-1.17-.44-1-.92-1.89-1.38-2.83a4,4,0,0,0-.22-.41.46.46,0,0,0-.28-.23,4.38,4.38,0,0,0-.51,0H301a.64.64,0,0,0-.2,0,.49.49,0,0,0-.28.24,4.13,4.13,0,0,0-.22.42c-.22.51-.46,1-.7,1.47L298,49.53l-.31.66a3.88,3.88,0,0,0-.3.81h-.21a2.55,2.55,0,0,0-.12-.44c-.06-.13-.11-.25-.17-.37l-2.68-5.4-.18-.34c-.11-.18-.23-.29-.37-.3l-.56,0H289l-.21,0a.48.48,0,0,0-.27.23,4,4,0,0,0-.23.41c-.61,1.22-1.22,2.43-1.82,3.67-.31.65-.62,1.33-.94,2-.08.17-.15.37-.22.55h-.21a2.09,2.09,0,0,0-.17-.61c-.1-.23-.21-.45-.31-.67-.25-.51-.51-1-.75-1.53-.54-1.2-1.13-2.32-1.7-3.49l-.15-.27a.48.48,0,0,0-.32-.27,2.85,2.85,0,0,0-.41,0h-4.08l-.36,0c-.14,0-.26.14-.36.33l-.15.28-2.43,4.9a8.15,8.15,0,0,0-.55,1.34h-.2a6,6,0,0,0-.43-1.11l-2-4c-.19-.38-.37-.78-.56-1.17l-.18-.35a.46.46,0,0,0-.27-.25,1.65,1.65,0,0,0-.31,0H265.1a1.76,1.76,0,0,0-.31,0,.47.47,0,0,0-.27.24l-.12.19c-.32.65-.65,1.29-1,1.95s-.51,1.09-.77,1.61-.57,1.15-.85,1.73c-.1.19-.19.39-.28.59a1.65,1.65,0,0,0-.14.53h-.21a7.89,7.89,0,0,0-.47-1.06c-.21-.43-.43-.86-.63-1.33l-.24-.51c-.53-1.06-1.05-2.12-1.57-3.18-.08-.14-.15-.28-.22-.42s-.26-.34-.42-.35a5.12,5.12,0,0,0-.56,0h-3.93c-.46,0-.52.06-.85.72l-2.37,4.75c-.12.25-.23.5-.33.77a3,3,0,0,0-.15.64h-.3a4.32,4.32,0,0,0-.32-.9l-.33-.65c-.73-1.5-1.49-2.94-2.19-4.49-.09-.2-.19-.38-.29-.56a.48.48,0,0,0-.28-.24,1.54,1.54,0,0,0-.3,0h-4.33a1.54,1.54,0,0,0-.3,0,.46.46,0,0,0-.28.24l-.15.26c-.17.34-.33.68-.49,1s-.32.69-.49,1l-1.53,3.1-.31.66a2,2,0,0,0-.15.52h-.21a3.21,3.21,0,0,0-.12-.33c-.21-.48-.42-1-.65-1.42-.72-1.48-1.45-2.94-2.18-4.4-.07-.15-.15-.28-.22-.42s-.2-.26-.33-.27a2.92,2.92,0,0,0-.51,0h-3.87a2.32,2.32,0,0,0-.46,0,.49.49,0,0,0-.33.27l-.36.7c-.64,1.28-1.27,2.55-1.9,3.83-.27.55-.53,1.14-.79,1.71a3.21,3.21,0,0,0-.12.33h-.2a2.45,2.45,0,0,0-.15-.52c-.11-.23-.21-.45-.32-.67l-1.35-2.73c-.2-.41-.39-.84-.59-1.25l-.57-1.16a1.73,1.73,0,0,0-.15-.27.46.46,0,0,0-.28-.24,1.54,1.54,0,0,0-.3,0h-4.32a1.55,1.55,0,0,0-.31,0,.56.56,0,0,0-.28.24,5.46,5.46,0,0,0-.32.64c-.18.39-.37.79-.56,1.17l-1.74,3.53-.18.36a5,5,0,0,0-.33.9h-.3a2.18,2.18,0,0,0-.17-.72c-.1-.23-.21-.46-.31-.67-.35-.7-.7-1.4-1-2.1s-.81-1.63-1.22-2.45c-.1-.21-.22-.42-.33-.63a.45.45,0,0,0-.32-.27,4.38,4.38,0,0,0-.51,0h-3.83a3.55,3.55,0,0,0-.46,0,.51.51,0,0,0-.37.29c-.08.14-.15.28-.22.42-.21.41-.41.82-.61,1.23s-.41.81-.6,1.23c-.26.59-.53,1.14-.81,1.69s-.4.82-.61,1.23a7.56,7.56,0,0,0-.33.76h-.21a1.65,1.65,0,0,0-.14-.53c-.09-.2-.18-.4-.28-.59-.35-.72-.71-1.44-1.07-2.17-.13-.26-.26-.52-.39-.8-.33-.77-.7-1.47-1.05-2.19a2.63,2.63,0,0,0-.2-.33c-.08-.13-.17-.22-.27-.23a4.38,4.38,0,0,0-.51,0h-4.19a.84.84,0,0,0-.2,0,.4.4,0,0,0-.23.19c-.1.17-.21.35-.3.54-.84,1.68-1.67,3.37-2.51,5.05a6.27,6.27,0,0,0-.4,1h-.2a9.73,9.73,0,0,0-.51-1.26l-.9-1.8c-.47-1-.95-1.92-1.43-2.88a6.25,6.25,0,0,0-.33-.63.48.48,0,0,0-.32-.27,4.38,4.38,0,0,0-.51,0h-3.87a3.42,3.42,0,0,0-.46,0,.41.41,0,0,0-.28.23,1.64,1.64,0,0,0-.16.26L179.78,46l-.59,1.26c-.43.87-.86,1.73-1.28,2.6-.1.19-.19.39-.28.59a1.87,1.87,0,0,0-.15.52h-.21c-.07-.18-.14-.38-.22-.55-.42-.84-.82-1.71-1.23-2.56s-1-2-1.47-3l-.11-.22c-.26-.5-.34-.57-.72-.59h-4.14a3.57,3.57,0,0,0-.46,0,.47.47,0,0,0-.32.28c-.11.2-.23.41-.33.62-.82,1.64-1.63,3.27-2.44,4.91l-.24.51a2.44,2.44,0,0,0-.16.52h-.2a2.64,2.64,0,0,0-.19-.6l-.28-.58c-.58-1.18-1.16-2.35-1.75-3.53-.23-.48-.47-.95-.7-1.46a2.78,2.78,0,0,0-.22-.42.46.46,0,0,0-.27-.25,1.54,1.54,0,0,0-.3,0h-4.33a1.54,1.54,0,0,0-.3,0,.47.47,0,0,0-.28.23,2.34,2.34,0,0,0-.15.27c-.22.43-.43.85-.64,1.31s-.48,1-.73,1.53-.58,1.15-.86,1.72c-.16.32-.31.63-.46,1a4.49,4.49,0,0,0-.28.83h-.31a2,2,0,0,0-.17-.62,1.47,1.47,0,0,0-.1-.22c-.33-.67-.66-1.35-1-2.06,0-.08-.07-.15-.1-.22l-1.47-3-.22-.42c-.12-.21-.25-.34-.41-.35l-.51,0h-4c-.38,0-.46.09-.73.59l-.21.43-.72,1.45c-.34.7-.69,1.38-1,2.12-.09.21-.19.39-.29.59l-.5,1a5.5,5.5,0,0,0-.29.69h-.21a1.72,1.72,0,0,0-.14-.53c-.1-.22-.21-.44-.32-.66l-1.35-2.73c-.25-.5-.5-1-.73-1.54-.13-.28-.26-.54-.39-.8l-.15-.27a.56.56,0,0,0-.37-.32,2.69,2.69,0,0,0-.4,0h-4a2.83,2.83,0,0,0-.41,0c-.14,0-.26.13-.36.31a3.48,3.48,0,0,0-.22.43c-.31.72-.65,1.37-1,2l-1.5,3a4.69,4.69,0,0,0-.4,1h-.2c-.06-.16-.12-.33-.19-.48-.23-.5-.45-1-.69-1.49-.68-1.4-1.38-2.79-2.07-4.18l-.18-.35c-.12-.21-.26-.34-.41-.35l-.51,0h-3.83a3.73,3.73,0,0,0-.46,0c-.1,0-.19.1-.28.22s-.1.17-.15.27c-.31.62-.62,1.24-.92,1.88s-.51,1.09-.77,1.62-.6,1.2-.89,1.8c-.09.17-.17.35-.25.52a2,2,0,0,0-.14.53h-.31a2.59,2.59,0,0,0-.21-.68c-.08-.18-.16-.35-.25-.51l-1.32-2.67c-.16-.34-.32-.69-.49-1s-.47-1-.7-1.46a2.26,2.26,0,0,0-.16-.26.41.41,0,0,0-.28-.23,4.38,4.38,0,0,0-.5,0h-3.88a3.73,3.73,0,0,0-.46,0,.48.48,0,0,0-.32.27c-.09.16-.18.32-.26.49-.74,1.49-1.48,3-2.21,4.47-.16.31-.3.65-.44,1a2.23,2.23,0,0,0-.16.63h-.3c0-.14-.1-.28-.15-.4-.29-.62-.58-1.25-.87-1.85-.63-1.29-1.26-2.56-1.89-3.83-.08-.14-.15-.28-.22-.42s-.26-.34-.42-.35l-.51,0H97.42a3.73,3.73,0,0,0-.46,0c-.1,0-.19.1-.28.22a1.28,1.28,0,0,0-.11.2c-.35.69-.7,1.37-1,2.1-.19.4-.37.79-.56,1.18-.29.58-.58,1.14-.86,1.72-.13.27-.26.54-.38.81a2.57,2.57,0,0,0-.18.61h-.31a2.09,2.09,0,0,0-.17-.61c-.08-.18-.16-.35-.25-.52L92,48.22c-.13-.27-.27-.53-.39-.81-.4-.91-.84-1.75-1.27-2.62a3.81,3.81,0,0,0-.23-.4c-.08-.14-.17-.22-.27-.23a4.38,4.38,0,0,0-.51,0H85.51l-.46,0c-.16,0-.29.14-.41.35s-.17.33-.25.5l-1.83,3.67c0,.12-.11.24-.17.37l-.66,1.41a3.94,3.94,0,0,0-.22.55h-.2a2.44,2.44,0,0,0-.16-.52L80.91,50c-.29-.57-.57-1.15-.86-1.72-.53-1.06-1-2.12-1.58-3.17-.08-.17-.16-.33-.25-.5s-.3-.42-.5-.43l-.51,0H73.44a3.42,3.42,0,0,0-.46,0,.43.43,0,0,0-.28.23,1.61,1.61,0,0,0-.15.26c-.21.41-.41.82-.6,1.24s-.33.69-.49,1l-.72,1.44c-.27.56-.54,1.11-.82,1.66a4.88,4.88,0,0,0-.36,1h-.3a2,2,0,0,0-.14-.53c-.11-.25-.23-.5-.35-.74-.41-.84-.84-1.66-1.23-2.56,0-.1-.09-.19-.14-.29l-1-2c-.09-.16-.17-.33-.26-.48s-.23-.29-.37-.3l-.51,0h-4c-.38,0-.46.09-.72.59l-.18.36c-.27.56-.55,1.11-.82,1.66-.11.22-.22.44-.32.66-.21.49-.43,1-.66,1.4L58,50l-.24.52a1.65,1.65,0,0,0-.14.53h-.31a4.93,4.93,0,0,0-.43-1.12c-.58-1.17-1.17-2.35-1.75-3.53-.25-.5-.5-1-.74-1.54a3.36,3.36,0,0,0-.22-.42c-.08-.13-.17-.22-.27-.23a4.38,4.38,0,0,0-.51,0H49.51l-.41,0c-.15,0-.29.14-.41.35l-.22.42L46,49.83l-.21.44a2,2,0,0,0-.15.73h-.31c-.08-.18-.14-.38-.23-.55-.42-.83-.82-1.71-1.23-2.56s-1-2-1.46-3c-.06-.12-.12-.23-.18-.36-.15-.31-.34-.44-.55-.44H37.59l-.46,0a.58.58,0,0,0-.46.37c-.08.16-.17.32-.25.49-.27.53-.53,1.06-.79,1.59l-.42.88c-.19.39-.37.79-.56,1.18L34,49.94l-.21.45a2.09,2.09,0,0,0-.17.61h-.31a2.49,2.49,0,0,0-.18-.6c-.09-.2-.19-.4-.28-.59-.47-.94-.93-1.87-1.39-2.81-.28-.55-.56-1.1-.81-1.69-.1-.23-.21-.43-.32-.65a1.28,1.28,0,0,0-.11-.2c-.11-.18-.23-.3-.37-.31l-.51,0H25.27l-.2,0a.53.53,0,0,0-.32.28c-.13.22-.25.46-.37.7q-1.05,2.11-2.11,4.25-.29.57-.54,1.2c-.06.13-.1.27-.15.41h-.31a2.31,2.31,0,0,0-.19-.7c-.28-.59-.55-1.19-.83-1.77-.6-1.21-1.19-2.41-1.79-3.61-.07-.14-.14-.28-.22-.42s-.25-.34-.41-.35l-.51,0H13.24l-.2,0a.46.46,0,0,0-.28.23,3,3,0,0,0-.15.26c-.31.63-.63,1.24-.92,1.88s-.51,1.09-.78,1.62-.54,1.1-.82,1.65l-.24.51a2.33,2.33,0,0,0-.21.69H9.33a2,2,0,0,0-.15-.52c-.09-.2-.18-.4-.28-.59-.76-1.57-1.55-3.08-2.28-4.7-.12-.25-.24-.48-.37-.71a.52.52,0,0,0-.41-.34l-.51,0H3V0H578.5V44.12h-1.57a2.83,2.83,0,0,0-.41,0,.49.49,0,0,0-.32.26l-.12.2c-.32.64-.64,1.28-1,1.94s-.48,1-.73,1.54-.6,1.19-.89,1.79c-.08.17-.17.34-.24.52a2.36,2.36,0,0,0-.18.6h-.21a2,2,0,0,0-.15-.52c-.09-.2-.19-.39-.28-.59-.48-1-1-1.93-1.43-2.9-.27-.55-.55-1.1-.8-1.69-.09-.2-.19-.39-.28-.59-.18-.39-.4-.61-.68-.59-.1,0-.2,0-.3,0h-4.24a1.2,1.2,0,0,0-.2,0,.46.46,0,0,0-.28.24c-.09.15-.18.31-.26.47q-1.26,2.54-2.5,5.07a3.9,3.9,0,0,1-.19.35c-.19.33-.39.34-.6,0a3.55,3.55,0,0,1-.29-.55c-.13-.28-.25-.56-.38-.82-.66-1.33-1.31-2.65-2-4l-.18-.36c-.16-.34-.36-.48-.6-.48h-4.59a.65.65,0,0,0-.2,0,.37.37,0,0,0-.23.2,1.64,1.64,0,0,0-.16.26l-.6,1.23c-.12.25-.23.51-.35.75-.52,1.06-1,2.12-1.57,3.17-.09.17-.17.34-.26.49a1,1,0,0,1-.17.22.19.19,0,0,1-.3,0,1,1,0,0,1-.16-.22c-.09-.16-.18-.32-.26-.49-.42-.84-.84-1.68-1.25-2.53-.09-.16-.17-.33-.25-.51-.3-.7-.63-1.33-.95-2l-.15-.27a.54.54,0,0,0-.42-.34l-.4,0h-4.19c-.4,0-.48.07-.76.65-.57,1.16-1.16,2.28-1.7,3.5-.09.21-.19.4-.28.59L537.53,50l-.24.52A2,2,0,0,0,537.15,51Z" style="fill:#8ec449"/><path d="M1112.65,51h-.2a17.53,17.53,0,0,0-.73-1.69c-.67-1.34-1.33-2.69-2-4-.1-.2-.2-.38-.29-.58-.18-.4-.4-.6-.68-.57h-4.43a1.54,1.54,0,0,0-.3,0,.43.43,0,0,0-.28.24c-.1.18-.2.37-.29.56s-.3.65-.45,1c-.61,1.23-1.22,2.45-1.82,3.67l-.33.64a1.06,1.06,0,0,1-.17.23.21.21,0,0,1-.34,0,1.46,1.46,0,0,1-.17-.24c-.08-.15-.17-.32-.25-.49-.34-.67-.67-1.34-1-2-.09-.17-.17-.34-.25-.52-.36-.84-.77-1.61-1.16-2.4a3.9,3.9,0,0,0-.19-.35c-.1-.18-.22-.3-.37-.31a4.07,4.07,0,0,0-.5,0h-3.83c-.12,0-.24,0-.35,0s-.47.15-.64.52l-.18.36c-.3.6-.6,1.2-.89,1.8-.11.22-.21.44-.32.67-.18.39-.37.79-.56,1.17s-.4.82-.6,1.23c-.09.17-.17.34-.25.52a2.18,2.18,0,0,0-.17.61h-.2a7,7,0,0,0-.44-1.1l-.72-1.45-1.6-3.24c-.08-.16-.17-.33-.25-.5-.26-.49-.35-.57-.73-.59h-4.42c-.25,0-.47.14-.64.51-.08.18-.17.34-.25.5-.7,1.42-1.4,2.83-2.11,4.25l-.31.66a8.18,8.18,0,0,0-.38,1h-.2a2.57,2.57,0,0,0-.18-.61c-.1-.23-.2-.45-.31-.66-.41-.85-.84-1.67-1.23-2.56a2.59,2.59,0,0,0-.14-.29l-1-2c-.09-.16-.17-.33-.26-.48s-.23-.29-.37-.3a2.83,2.83,0,0,0-.41,0h-4.33a.4.4,0,0,0-.15,0,.5.5,0,0,0-.28.23,1.18,1.18,0,0,0-.11.19c-.37.75-.75,1.49-1.11,2.25-.2.44-.41.89-.62,1.32l-.83,1.65-.24.51a2.33,2.33,0,0,0-.21.69h-.21a2,2,0,0,0-.15-.52l-.27-.59-1.47-3c-.33-.67-.67-1.33-1-2a4.32,4.32,0,0,0-.22-.43.52.52,0,0,0-.37-.31,4.36,4.36,0,0,0-.51,0h-3.87l-.46,0c-.16,0-.29.14-.41.35s-.17.33-.25.5l-1.61,3.24c-.09.19-.18.39-.28.59-.19.42-.39.84-.59,1.26a9.58,9.58,0,0,0-.4.91h-.2a2.16,2.16,0,0,0-.17-.62q-.12-.27-.24-.51c-.2-.41-.4-.82-.59-1.26-.08-.18-.16-.35-.25-.51-.52-1.06-1-2.12-1.57-3.17,0-.1-.1-.19-.14-.29-.16-.33-.35-.51-.59-.51h-4.64l-.15,0a.5.5,0,0,0-.28.23c-.06.11-.13.22-.19.34-.28.57-.57,1.14-.84,1.75-.12.28-.26.54-.39.81-.42.86-.85,1.73-1.28,2.59-.1.19-.19.39-.28.59a1.65,1.65,0,0,0-.14.53h-.21a5,5,0,0,0-.39-1l-1.32-2.66c-.33-.67-.67-1.33-1-2-.09-.2-.19-.39-.29-.58a1.28,1.28,0,0,0-.11-.2c-.11-.18-.23-.3-.37-.31a4.36,4.36,0,0,0-.51,0h-4.12c-.38,0-.46.09-.73.59l-.1.22-1.47,3-.21.44c-.23.54-.48,1-.73,1.55q-.14.29-.27.6a2,2,0,0,0-.14.53h-.2c-.06-.16-.12-.33-.19-.48-.31-.67-.61-1.35-.93-2s-.67-1.34-1-2l-.75-1.51c-.1-.2-.2-.38-.3-.56a.48.48,0,0,0-.37-.3,4.36,4.36,0,0,0-.51,0h-4l-.2,0c-.18,0-.33.13-.46.37l-.22.42L1017.05,50l-.21.44a2.44,2.44,0,0,0-.16.52h-.2a2.49,2.49,0,0,0-.18-.6c-.1-.23-.21-.45-.32-.67-.4-.81-.8-1.63-1.21-2.45l-.45-1-.81-1.67a1.75,1.75,0,0,0-.16-.27.45.45,0,0,0-.27-.23,3.73,3.73,0,0,0-.46,0h-4.28l-.15,0a.5.5,0,0,0-.37.3l-.3.56-.89,1.8c-.11.21-.22.42-.32.65-.32.74-.67,1.43-1,2.12l-.36.73a2.66,2.66,0,0,0-.2.69h-.2a1.89,1.89,0,0,0-.13-.44c0-.13-.11-.26-.17-.38l-2.67-5.39c-.06-.12-.13-.23-.19-.34s-.23-.29-.37-.3l-.51,0h-3.76c-.12,0-.24,0-.36,0s-.47.15-.64.52l0,.07c-.65,1.3-1.29,2.6-1.93,3.9l0,.07c-.24.57-.5,1.1-.76,1.62a5.66,5.66,0,0,0-.3.7h-.2a2.4,2.4,0,0,0-.14-.53c-.09-.2-.19-.4-.28-.59l-1-2c-.12-.24-.25-.48-.36-.73-.36-.84-.77-1.61-1.16-2.41-.07-.14-.15-.27-.23-.4a.45.45,0,0,0-.27-.23,1.76,1.76,0,0,0-.31,0h-4.33a1.76,1.76,0,0,0-.31,0,.48.48,0,0,0-.27.23l-.12.2c-.38.77-.77,1.52-1.14,2.31-.29.62-.58,1.23-.88,1.83L981,50.17a8,8,0,0,0-.37.83h-.11a4.89,4.89,0,0,0-.4-1c-.34-.7-.69-1.4-1-2.09-.47-.94-.93-1.88-1.4-2.81l-.33-.63c-.1-.16-.21-.26-.33-.27a2.92,2.92,0,0,0-.51,0h-3.88a3.73,3.73,0,0,0-.46,0,.45.45,0,0,0-.32.27l-.33.62-1.65,3.33L969,50.3l-.06.16a2.13,2.13,0,0,0-.14.54h-.2c-.1-.28-.22-.52-.33-.76-.45-.92-.91-1.83-1.34-2.77s-.9-1.83-1.36-2.74a3.72,3.72,0,0,0-.19-.34.44.44,0,0,0-.28-.23,1.54,1.54,0,0,0-.3,0h-4.33a1.76,1.76,0,0,0-.31,0,.47.47,0,0,0-.27.24c-.1.18-.2.36-.29.56-.24.54-.49,1-.74,1.54-.54,1.11-1.09,2.21-1.64,3.32-.11.21-.21.43-.31.66a2,2,0,0,0-.15.52h-.21a4.32,4.32,0,0,0-.32-.9c-.09-.17-.17-.34-.25-.5-.61-1.23-1.22-2.45-1.82-3.67l-.57-1.17a2.31,2.31,0,0,0-.18-.35.46.46,0,0,0-.27-.25,5.27,5.27,0,0,0-.56,0h-4a2.85,2.85,0,0,0-.41,0,.48.48,0,0,0-.28.22c-.06.11-.13.22-.19.34L946,48.17c0,.08-.07.15-.1.23-.21.49-.44.94-.66,1.4-.1.19-.19.38-.28.58a2.25,2.25,0,0,0-.17.62h-.31a2.25,2.25,0,0,0-.16-.62c0-.08-.07-.15-.1-.23-.34-.66-.67-1.35-1-2,0-.08-.07-.15-.11-.22l-1.47-3c-.08-.17-.17-.33-.26-.49a.45.45,0,0,0-.32-.27,4.38,4.38,0,0,0-.51,0h-3.87a2.32,2.32,0,0,0-.46,0,.44.44,0,0,0-.33.27l-.33.62c-.65,1.32-1.31,2.65-2,4-.26.53-.51,1.09-.76,1.64l-.12.33h-.2a2,2,0,0,0-.15-.52c-.09-.2-.19-.4-.28-.59-.49-1-1-2-1.46-3-.34-.68-.68-1.34-1-2a3.21,3.21,0,0,0-.25-.49.48.48,0,0,0-.28-.24,1.54,1.54,0,0,0-.3,0h-4.33a1.55,1.55,0,0,0-.31,0,.46.46,0,0,0-.28.23l-.3.55-1.14,2.3c-.09.2-.19.39-.28.59-.2.46-.41.9-.63,1.33s-.35.72-.53,1.08a5.27,5.27,0,0,0-.33.76h-.21a2.05,2.05,0,0,0-.2-.7c-.26-.57-.52-1.15-.79-1.7l-1.86-3.76-.22-.41c-.1-.16-.21-.26-.33-.27a2.92,2.92,0,0,0-.51,0h-3.87a2.32,2.32,0,0,0-.46,0c-.12,0-.23.11-.33.27s-.2.36-.29.55c-.72,1.45-1.43,2.89-2.15,4.33-.26.54-.5,1.09-.73,1.69h-.2a2,2,0,0,0-.14-.53l-.21-.45c-.34-.7-.69-1.39-1-2.09-.12-.24-.24-.47-.36-.73-.36-.84-.77-1.61-1.16-2.4l-.22-.41a.46.46,0,0,0-.28-.23,1.55,1.55,0,0,0-.31,0h-4.32a1.55,1.55,0,0,0-.31,0,.48.48,0,0,0-.28.24l-.15.26c-.19.39-.38.77-.56,1.17s-.4.84-.6,1.24l-1.35,2.74-.32.66a2,2,0,0,0-.14.53h-.21a3.71,3.71,0,0,0-.15-.4c-.2-.46-.4-.92-.62-1.35-.72-1.48-1.45-2.94-2.18-4.41-.07-.14-.14-.28-.22-.41a.45.45,0,0,0-.32-.27,2.92,2.92,0,0,0-.51,0h-3.88a3.57,3.57,0,0,0-.46,0,.45.45,0,0,0-.32.27,6.25,6.25,0,0,0-.33.63c-.48,1-1,1.92-1.43,2.89-.38.77-.75,1.56-1.12,2.35a.59.59,0,0,0,0,.08,2.25,2.25,0,0,0-.16.62h-.3a3,3,0,0,0-.24-.76l-.72-1.44c-.19-.39-.38-.76-.56-1.17-.44-1-.92-1.89-1.38-2.83a4,4,0,0,0-.22-.41.46.46,0,0,0-.28-.23,4.38,4.38,0,0,0-.51,0h-4.22a.64.64,0,0,0-.2,0,.49.49,0,0,0-.28.24,4.13,4.13,0,0,0-.22.42c-.22.51-.46,1-.7,1.47l-1.6,3.24-.31.66a3.88,3.88,0,0,0-.3.81h-.21a2.55,2.55,0,0,0-.12-.44c-.06-.13-.11-.25-.17-.37l-2.68-5.4-.18-.34c-.11-.18-.23-.29-.37-.3l-.56,0h-4.07a.76.76,0,0,0-.21,0,.48.48,0,0,0-.27.23,4,4,0,0,0-.23.41c-.61,1.22-1.22,2.43-1.82,3.67-.31.65-.62,1.33-.94,2-.08.17-.15.37-.22.55h-.21a2.09,2.09,0,0,0-.17-.61c-.1-.23-.21-.45-.31-.67-.25-.51-.51-1-.75-1.53-.54-1.2-1.13-2.32-1.7-3.49l-.15-.27a.48.48,0,0,0-.32-.27,2.85,2.85,0,0,0-.41,0h-4.08l-.36,0c-.14,0-.26.14-.36.33l-.15.28-2.43,4.9a8.15,8.15,0,0,0-.55,1.34h-.2a6,6,0,0,0-.43-1.11l-2-4c-.19-.38-.37-.78-.56-1.17l-.18-.35a.46.46,0,0,0-.27-.25,1.65,1.65,0,0,0-.31,0H840.6a1.76,1.76,0,0,0-.31,0,.47.47,0,0,0-.27.24l-.12.19c-.32.65-.65,1.29-1,1.95s-.51,1.09-.77,1.61-.57,1.15-.85,1.73c-.1.19-.19.39-.28.59a1.65,1.65,0,0,0-.14.53h-.21a7.89,7.89,0,0,0-.47-1.06c-.21-.43-.43-.86-.63-1.33l-.24-.51c-.53-1.06-1.05-2.12-1.57-3.18-.08-.14-.15-.28-.22-.42s-.26-.34-.42-.35a5.12,5.12,0,0,0-.56,0h-3.93c-.46,0-.52.06-.85.72l-2.37,4.75c-.12.25-.23.5-.33.77A3,3,0,0,0,825,51h-.3a4.32,4.32,0,0,0-.32-.9l-.33-.65c-.73-1.5-1.49-2.94-2.19-4.49-.09-.2-.19-.38-.29-.56a.48.48,0,0,0-.28-.24,1.54,1.54,0,0,0-.3,0h-4.33a1.54,1.54,0,0,0-.3,0,.46.46,0,0,0-.28.24l-.15.26c-.17.34-.33.68-.49,1s-.32.69-.49,1l-1.53,3.1-.31.66a2,2,0,0,0-.15.52h-.21a3.21,3.21,0,0,0-.12-.33c-.21-.48-.42-1-.65-1.42-.72-1.48-1.45-2.94-2.18-4.4-.07-.15-.15-.28-.22-.42s-.2-.26-.33-.27a2.92,2.92,0,0,0-.51,0h-3.87a2.32,2.32,0,0,0-.46,0,.49.49,0,0,0-.33.27l-.36.7c-.64,1.28-1.27,2.55-1.9,3.83-.27.55-.53,1.14-.79,1.71a3.21,3.21,0,0,0-.12.33h-.2a2.45,2.45,0,0,0-.15-.52c-.11-.23-.21-.45-.32-.67l-1.35-2.73c-.2-.41-.39-.84-.59-1.25l-.57-1.16a1.73,1.73,0,0,0-.15-.27.46.46,0,0,0-.28-.24,1.54,1.54,0,0,0-.3,0h-4.32a1.55,1.55,0,0,0-.31,0,.56.56,0,0,0-.28.24,5.46,5.46,0,0,0-.32.64c-.18.39-.37.79-.56,1.17l-1.74,3.53-.18.36a5,5,0,0,0-.33.9h-.3a2.18,2.18,0,0,0-.17-.72c-.1-.23-.21-.46-.31-.67-.35-.7-.7-1.4-1-2.1s-.81-1.63-1.22-2.45c-.1-.21-.22-.42-.33-.63a.45.45,0,0,0-.32-.27,4.38,4.38,0,0,0-.51,0h-3.83a3.55,3.55,0,0,0-.46,0,.51.51,0,0,0-.37.29c-.08.14-.15.28-.22.42-.21.41-.41.82-.61,1.23s-.41.81-.6,1.23c-.26.59-.53,1.14-.81,1.69s-.4.82-.61,1.23a7.56,7.56,0,0,0-.33.76h-.21a1.65,1.65,0,0,0-.14-.53c-.09-.2-.18-.4-.28-.59-.35-.72-.71-1.44-1.07-2.17-.13-.26-.26-.52-.39-.8-.33-.77-.7-1.47-1-2.19a2.63,2.63,0,0,0-.2-.33c-.08-.13-.17-.22-.27-.23a4.38,4.38,0,0,0-.51,0h-4.19a.84.84,0,0,0-.2,0,.4.4,0,0,0-.23.19c-.1.17-.21.35-.3.54-.84,1.68-1.67,3.37-2.51,5.05a6.27,6.27,0,0,0-.4,1h-.2a9.73,9.73,0,0,0-.51-1.26l-.9-1.8c-.47-1-.95-1.92-1.43-2.88a6.25,6.25,0,0,0-.33-.63.48.48,0,0,0-.32-.27,4.38,4.38,0,0,0-.51,0h-3.87a3.42,3.42,0,0,0-.46,0,.41.41,0,0,0-.28.23,1.64,1.64,0,0,0-.16.26L755.28,46l-.59,1.26c-.43.87-.86,1.73-1.28,2.6-.1.19-.19.39-.28.59A1.87,1.87,0,0,0,753,51h-.21c-.07-.18-.14-.38-.22-.55-.42-.84-.82-1.71-1.23-2.56s-1-2-1.47-3c0-.07-.07-.15-.11-.22-.26-.5-.34-.57-.72-.59h-4.14a3.57,3.57,0,0,0-.46,0,.47.47,0,0,0-.32.28c-.11.2-.23.41-.33.62-.82,1.64-1.63,3.27-2.44,4.91l-.24.51a2.44,2.44,0,0,0-.16.52h-.2a2.64,2.64,0,0,0-.19-.6l-.28-.58c-.58-1.18-1.16-2.35-1.75-3.53-.23-.48-.47-.95-.7-1.46a2.78,2.78,0,0,0-.22-.42.46.46,0,0,0-.27-.25,1.54,1.54,0,0,0-.3,0h-4.33a1.54,1.54,0,0,0-.3,0,.47.47,0,0,0-.28.23,2.34,2.34,0,0,0-.15.27c-.22.43-.43.85-.64,1.31s-.48,1-.73,1.53-.58,1.15-.86,1.72c-.16.32-.31.63-.46,1A4.49,4.49,0,0,0,729,51h-.31a2,2,0,0,0-.17-.62,1.47,1.47,0,0,0-.1-.22c-.33-.67-.66-1.35-1-2.06,0-.08-.07-.15-.1-.22l-1.47-3-.22-.42c-.12-.21-.25-.34-.41-.35l-.51,0h-4c-.38,0-.46.09-.73.59l-.21.43L719,46.59c-.34.7-.69,1.38-1,2.12-.09.21-.19.39-.29.59l-.5,1a5.5,5.5,0,0,0-.29.69h-.21a1.72,1.72,0,0,0-.14-.53c-.1-.22-.21-.44-.32-.66l-1.35-2.73c-.25-.5-.5-1-.73-1.54-.13-.28-.26-.54-.39-.8q-.07-.15-.15-.27a.56.56,0,0,0-.37-.32,2.69,2.69,0,0,0-.4,0h-4a2.83,2.83,0,0,0-.41,0c-.14,0-.26.13-.36.31a3.48,3.48,0,0,0-.22.43c-.31.72-.65,1.37-1,2l-1.5,3a4.69,4.69,0,0,0-.4,1h-.2c-.06-.16-.12-.33-.19-.48-.23-.5-.45-1-.69-1.49-.68-1.4-1.38-2.79-2.07-4.18l-.18-.35c-.12-.21-.26-.34-.41-.35l-.51,0h-3.83a3.73,3.73,0,0,0-.46,0c-.1,0-.19.1-.28.22l-.15.27c-.31.62-.62,1.24-.92,1.88s-.51,1.09-.77,1.62-.6,1.2-.89,1.8c-.09.17-.17.35-.25.52a2,2,0,0,0-.14.53h-.31a2.59,2.59,0,0,0-.21-.68c-.08-.18-.16-.35-.25-.51L691,47.14c-.16-.34-.32-.69-.49-1s-.47-1-.7-1.46a2.26,2.26,0,0,0-.16-.26.41.41,0,0,0-.28-.23,4.38,4.38,0,0,0-.5,0H685a3.73,3.73,0,0,0-.46,0,.48.48,0,0,0-.32.27c-.09.16-.18.32-.26.49-.74,1.49-1.48,3-2.21,4.47-.16.31-.3.65-.44,1a2.23,2.23,0,0,0-.16.63h-.3c0-.14-.1-.28-.15-.4-.29-.62-.58-1.25-.87-1.85-.63-1.29-1.26-2.56-1.89-3.83-.08-.14-.15-.28-.22-.42s-.26-.34-.42-.35l-.51,0h-3.82a3.73,3.73,0,0,0-.46,0c-.1,0-.19.1-.28.22a1.28,1.28,0,0,0-.11.2c-.35.69-.7,1.37-1,2.1-.19.4-.37.79-.56,1.18-.29.58-.58,1.14-.86,1.72-.13.27-.26.54-.38.81a2.57,2.57,0,0,0-.18.61h-.31a2.09,2.09,0,0,0-.17-.61c-.08-.18-.16-.35-.25-.52l-.82-1.65c-.13-.27-.27-.53-.39-.81-.4-.91-.84-1.75-1.27-2.62a3.81,3.81,0,0,0-.23-.4c-.08-.14-.17-.22-.27-.23a4.38,4.38,0,0,0-.51,0H661l-.46,0c-.16,0-.29.14-.41.35l-.25.5-1.83,3.67c0,.12-.11.24-.17.37l-.66,1.41A3.94,3.94,0,0,0,657,51h-.2a2.44,2.44,0,0,0-.16-.52l-.24-.52c-.29-.57-.57-1.15-.86-1.72-.53-1.06-1-2.12-1.58-3.17l-.25-.5c-.14-.27-.3-.42-.5-.43l-.51,0h-3.77a3.42,3.42,0,0,0-.46,0,.43.43,0,0,0-.28.23,1.61,1.61,0,0,0-.15.26c-.21.41-.41.82-.6,1.24s-.33.69-.49,1l-.72,1.44c-.27.56-.54,1.11-.82,1.66a4.88,4.88,0,0,0-.36,1h-.3a2,2,0,0,0-.14-.53c-.11-.25-.23-.5-.35-.74-.41-.84-.84-1.66-1.23-2.56,0-.1-.09-.19-.14-.29l-1-2c-.09-.16-.17-.33-.26-.48s-.23-.29-.37-.3a4.36,4.36,0,0,0-.51,0h-4c-.38,0-.46.09-.72.59l-.18.36c-.27.56-.55,1.11-.82,1.66-.11.22-.22.44-.32.66-.21.49-.43,1-.66,1.4L633.5,50l-.24.52a1.65,1.65,0,0,0-.14.53h-.31a4.93,4.93,0,0,0-.43-1.12c-.58-1.17-1.17-2.35-1.75-3.53-.25-.5-.5-1-.74-1.54a3.36,3.36,0,0,0-.22-.42c-.08-.13-.17-.22-.27-.23a4.38,4.38,0,0,0-.51,0H625l-.41,0c-.15,0-.29.14-.41.35l-.22.42-2.43,4.91-.21.44a2,2,0,0,0-.15.73h-.31c-.08-.18-.14-.38-.23-.55-.42-.83-.82-1.71-1.23-2.56s-1-2-1.46-3l-.18-.36c-.15-.31-.34-.44-.55-.44h-4.13l-.46,0a.58.58,0,0,0-.46.37c-.08.16-.17.32-.25.49-.27.53-.53,1.06-.79,1.59l-.42.88c-.19.39-.37.79-.56,1.18l-.64,1.29-.21.45a2.09,2.09,0,0,0-.17.61h-.31a2.49,2.49,0,0,0-.18-.6c-.09-.2-.19-.4-.28-.59-.47-.94-.93-1.87-1.39-2.81-.28-.55-.56-1.1-.81-1.69-.1-.23-.21-.43-.32-.65a1.28,1.28,0,0,0-.11-.2c-.11-.18-.23-.3-.37-.31l-.51,0h-4.08l-.2,0a.53.53,0,0,0-.32.28c-.13.22-.25.46-.37.7q-1.05,2.11-2.11,4.25-.28.57-.54,1.2c-.06.13-.1.27-.15.41h-.31a2.31,2.31,0,0,0-.19-.7c-.28-.59-.55-1.19-.83-1.77-.6-1.21-1.19-2.41-1.79-3.61-.07-.14-.14-.28-.22-.42s-.25-.34-.41-.35l-.51,0h-4.08l-.2,0a.46.46,0,0,0-.28.23,3,3,0,0,0-.15.26c-.31.63-.63,1.24-.92,1.88s-.51,1.09-.78,1.62-.54,1.1-.82,1.65l-.24.51a2.33,2.33,0,0,0-.21.69h-.31a2,2,0,0,0-.15-.52c-.09-.2-.18-.4-.28-.59-.76-1.57-1.55-3.08-2.28-4.7-.12-.25-.24-.48-.37-.71a.52.52,0,0,0-.41-.34l-.51,0H578.5V0H1154V44.12h-1.57a2.83,2.83,0,0,0-.41,0,.49.49,0,0,0-.32.26l-.12.2c-.32.64-.64,1.28-.95,1.94s-.48,1-.73,1.54-.6,1.19-.89,1.79c-.08.17-.17.34-.24.52a2.36,2.36,0,0,0-.18.6h-.21a2,2,0,0,0-.15-.52c-.09-.2-.19-.39-.28-.59-.48-1-1-1.93-1.43-2.9-.27-.55-.55-1.1-.8-1.69-.09-.2-.19-.39-.28-.59-.18-.39-.4-.61-.68-.59-.1,0-.2,0-.3,0h-4.24a1.2,1.2,0,0,0-.2,0,.46.46,0,0,0-.28.24c-.09.15-.18.31-.26.47q-1.26,2.54-2.5,5.07a3.9,3.9,0,0,1-.19.35c-.19.33-.39.34-.6,0a3.55,3.55,0,0,1-.29-.55c-.13-.28-.25-.56-.38-.82-.66-1.33-1.31-2.65-2-4l-.18-.36c-.16-.34-.36-.48-.6-.48h-4.59a.65.65,0,0,0-.2,0,.37.37,0,0,0-.23.2,1.64,1.64,0,0,0-.16.26l-.6,1.23c-.12.25-.23.51-.35.75-.52,1.06-1.05,2.12-1.57,3.17-.09.17-.17.34-.26.49a1,1,0,0,1-.17.22.19.19,0,0,1-.3,0,1,1,0,0,1-.16-.22c-.09-.16-.18-.32-.26-.49-.42-.84-.84-1.68-1.25-2.53-.09-.16-.17-.33-.25-.51-.3-.7-.63-1.33-1-2l-.15-.27a.54.54,0,0,0-.42-.34l-.4,0h-4.19c-.4,0-.48.07-.76.65-.57,1.16-1.16,2.28-1.7,3.5-.09.21-.19.4-.28.59L1113,50l-.24.52A2,2,0,0,0,1112.65,51Z" style="fill:#8ec449"/></g></svg>