<svg xmlns="http://www.w3.org/2000/svg" width="3455" height="1068" viewBox="0 0 3455 1068"><title>World_Components</title><g id="GroundMe"><rect x="2.13" y="27" width="1151.3" height="114" style="fill:#a47b55"/><polygon points="2 76 52 105 100 77 147 105 195 77 244 105 290 75 340 105 388 75 436 105 483 77 533 105 579 77 628 105 676 77 724 105 772 75 822 105 868 77 916 105 964 75 1013 105 1061 77 1109 105 1153 77 1153 39 1111 66 1061 38 1014 67 964 38 917 66 869 38 820 66 772 38 724 68 676 38 627 67 579 38 533 66 483 38 436 67 388 38 340 66 292 38 243 67 195 38 148 66 99 38 52 66 0 36 2 76" style="fill:#8b623c"/><polygon points="2 105 50 133 99 105 148 133 195 105 246 133 292 105 341 133 388 105 436 133 483 105 534 133 579 105 628 133 676 105 725 133 772 105 820 133 867 105 917 133 963 105 1014 133 1059 105 1109 133 1153 108 1153 141 2 141 2 105" style="fill:#8b623c"/><path d="M535.08,51h-.2a17.53,17.53,0,0,0-.73-1.69l-2-4c-.09-.2-.19-.38-.28-.58-.19-.4-.41-.6-.68-.57h-4.45a1.54,1.54,0,0,0-.3,0,.43.43,0,0,0-.28.24c-.1.18-.2.37-.29.56l-.45,1-1.83,3.67c-.1.22-.21.43-.33.64a1,1,0,0,1-.16.23.21.21,0,0,1-.34,0,1.46,1.46,0,0,1-.17-.24c-.09-.15-.17-.32-.26-.49l-1-2c-.08-.17-.17-.34-.24-.52-.37-.84-.78-1.61-1.17-2.4a3.9,3.9,0,0,0-.19-.35c-.1-.18-.22-.3-.36-.31l-.51,0H515c-.12,0-.24,0-.36,0s-.47.15-.64.52c-.06.13-.12.24-.18.36l-.9,1.8-.31.67c-.19.39-.37.79-.56,1.17s-.4.82-.61,1.23l-.24.52a2.18,2.18,0,0,0-.17.61h-.21a5.49,5.49,0,0,0-.44-1.1c-.23-.49-.47-1-.71-1.45l-1.61-3.24-.25-.5c-.26-.49-.35-.57-.73-.59h-4.43c-.25,0-.47.14-.64.51-.08.18-.17.34-.25.5-.7,1.42-1.41,2.83-2.11,4.25-.11.22-.21.44-.31.66a6.72,6.72,0,0,0-.38,1h-.21a2.18,2.18,0,0,0-.17-.61c-.1-.23-.21-.45-.31-.66-.42-.85-.85-1.67-1.24-2.56a2.59,2.59,0,0,0-.14-.29l-1-2c-.09-.16-.17-.33-.26-.48s-.23-.29-.37-.3a2.83,2.83,0,0,0-.41,0h-4.34a.4.4,0,0,0-.15,0,.5.5,0,0,0-.28.23,1.18,1.18,0,0,0-.11.19c-.37.75-.75,1.49-1.11,2.25-.21.44-.41.89-.63,1.32l-.82,1.65-.25.51A3.11,3.11,0,0,0,487,51h-.2a2,2,0,0,0-.15-.52c-.09-.2-.19-.4-.28-.59l-1.47-3c-.33-.67-.67-1.33-1-2a4.32,4.32,0,0,0-.22-.43.52.52,0,0,0-.37-.31l-.51,0H479l-.46,0c-.16,0-.29.14-.41.35s-.17.33-.25.5c-.54,1.08-1.08,2.16-1.61,3.24-.1.19-.19.39-.28.59l-.59,1.26a7.57,7.57,0,0,0-.4.91h-.21a2.16,2.16,0,0,0-.16-.62c-.08-.18-.16-.35-.25-.51-.2-.41-.4-.82-.59-1.26-.08-.18-.16-.35-.25-.51-.52-1.06-1-2.12-1.57-3.17-.05-.1-.1-.19-.14-.29-.16-.33-.36-.51-.59-.51h-4.65l-.15,0a.5.5,0,0,0-.28.23c-.06.11-.13.22-.19.34-.29.57-.58,1.14-.84,1.75l-.39.81-1.29,2.59c-.09.19-.19.39-.28.59A2,2,0,0,0,463,51h-.21a4.49,4.49,0,0,0-.39-1l-1.32-2.66c-.33-.67-.67-1.33-1-2-.09-.2-.19-.39-.29-.58a1.28,1.28,0,0,0-.11-.2c-.11-.18-.23-.3-.37-.31l-.51,0h-4.13c-.39,0-.47.09-.73.59a2.26,2.26,0,0,1-.11.22c-.48,1-1,2-1.46,3-.07.14-.15.29-.21.44-.23.54-.48,1-.73,1.55-.1.19-.19.39-.28.6A2.4,2.4,0,0,0,451,51h-.2c-.06-.16-.12-.33-.19-.48-.3-.67-.61-1.35-.93-2l-1-2L447.93,45c-.09-.2-.19-.38-.29-.56s-.23-.29-.37-.3l-.51,0h-4l-.2,0c-.18,0-.33.13-.46.37s-.15.28-.22.42c-.85,1.7-1.7,3.41-2.54,5.11l-.21.44A2,2,0,0,0,439,51h-.21a2.49,2.49,0,0,0-.18-.6c-.1-.23-.21-.45-.32-.67-.4-.81-.81-1.63-1.21-2.45l-.45-1c-.27-.56-.54-1.12-.82-1.67a1.73,1.73,0,0,0-.15-.27.46.46,0,0,0-.28-.23,3.57,3.57,0,0,0-.46,0h-4.28l-.16,0a.52.52,0,0,0-.37.3c-.1.18-.19.37-.29.56-.3.59-.6,1.2-.89,1.8-.11.21-.22.42-.32.65-.32.74-.68,1.43-1,2.12l-.36.73a2.66,2.66,0,0,0-.2.69h-.2a1.89,1.89,0,0,0-.13-.44c0-.13-.11-.26-.17-.38q-1.34-2.68-2.68-5.39a3.72,3.72,0,0,0-.19-.34.5.5,0,0,0-.37-.3l-.51,0H419c-.12,0-.24,0-.35,0s-.47.15-.64.52a.43.43,0,0,1,0,.07L416,48.61a.25.25,0,0,0,0,.07c-.24.57-.5,1.1-.76,1.62a5.66,5.66,0,0,0-.3.7h-.2a2.4,2.4,0,0,0-.14-.53c-.09-.2-.19-.4-.28-.59l-1-2c-.12-.24-.24-.48-.35-.73-.37-.84-.77-1.61-1.17-2.41-.07-.14-.14-.27-.22-.4a.46.46,0,0,0-.28-.23,1.55,1.55,0,0,0-.31,0h-4.34a1.54,1.54,0,0,0-.3,0,.5.5,0,0,0-.28.23l-.12.2c-.38.77-.77,1.52-1.14,2.31-.29.62-.58,1.23-.88,1.83l-.71,1.44a8,8,0,0,0-.38.83h-.1a4.89,4.89,0,0,0-.4-1c-.35-.7-.69-1.4-1-2.09-.46-.94-.93-1.88-1.4-2.81q-.16-.33-.33-.63a.45.45,0,0,0-.33-.27,2.92,2.92,0,0,0-.51,0h-3.88a3.42,3.42,0,0,0-.46,0c-.12,0-.23.11-.33.27l-.33.62c-.55,1.11-1.1,2.21-1.65,3.33-.3.63-.6,1.28-.9,1.92l-.07.16A2.67,2.67,0,0,0,391,51h-.2a6.68,6.68,0,0,0-.34-.76c-.45-.92-.9-1.83-1.34-2.77s-.9-1.83-1.36-2.74a2.27,2.27,0,0,0-.19-.34.45.45,0,0,0-.27-.23,1.76,1.76,0,0,0-.31,0h-4.34a1.54,1.54,0,0,0-.3,0,.46.46,0,0,0-.28.24c-.1.18-.2.36-.29.56-.23.54-.49,1-.74,1.54-.54,1.11-1.09,2.21-1.64,3.32-.11.21-.21.43-.32.66a2,2,0,0,0-.15.52h-.2a4.32,4.32,0,0,0-.33-.9c-.08-.17-.16-.34-.25-.5-.61-1.23-1.21-2.45-1.82-3.67-.19-.39-.38-.78-.56-1.17a3.9,3.9,0,0,0-.19-.35.43.43,0,0,0-.27-.25,5.27,5.27,0,0,0-.56,0h-4a3,3,0,0,0-.41,0,.46.46,0,0,0-.27.22,3.79,3.79,0,0,0-.2.34l-1.71,3.45a2.29,2.29,0,0,0-.1.23c-.21.49-.44.94-.67,1.4-.09.19-.19.38-.28.58A2.25,2.25,0,0,0,367,51h-.31a2.25,2.25,0,0,0-.17-.62,2.29,2.29,0,0,0-.1-.23c-.34-.66-.66-1.35-1-2a1.51,1.51,0,0,0-.11-.22c-.49-1-1-2-1.46-3l-.26-.49c-.1-.16-.21-.26-.33-.27a4.38,4.38,0,0,0-.51,0h-3.88a2.38,2.38,0,0,0-.46,0q-.18,0-.33.27l-.33.62c-.66,1.32-1.31,2.65-2,4-.26.53-.51,1.09-.76,1.64a3.21,3.21,0,0,0-.12.33h-.21a2,2,0,0,0-.15-.52c-.09-.2-.18-.4-.28-.59-.48-1-1-2-1.46-3-.33-.68-.68-1.34-1-2a3.21,3.21,0,0,0-.25-.49.48.48,0,0,0-.28-.24,1.55,1.55,0,0,0-.31,0h-4.33a1.65,1.65,0,0,0-.31,0,.46.46,0,0,0-.28.23l-.3.55-1.14,2.3c-.1.2-.19.39-.28.59-.2.46-.41.9-.63,1.33l-.54,1.08a6.68,6.68,0,0,0-.33.76h-.2a2.3,2.3,0,0,0-.2-.7c-.27-.57-.53-1.15-.8-1.7l-1.86-3.76c-.07-.14-.15-.28-.23-.41a.45.45,0,0,0-.32-.27,2.92,2.92,0,0,0-.51,0h-3.88a2.32,2.32,0,0,0-.46,0c-.12,0-.23.11-.33.27s-.2.36-.29.55q-1.08,2.18-2.15,4.33c-.26.54-.51,1.09-.73,1.69h-.21a1.65,1.65,0,0,0-.14-.53c-.07-.15-.13-.3-.21-.45-.34-.7-.69-1.39-1-2.09-.12-.24-.24-.47-.35-.73-.37-.84-.78-1.61-1.17-2.4-.07-.14-.15-.28-.23-.41a.45.45,0,0,0-.27-.23,1.76,1.76,0,0,0-.31,0h-4.34a1.54,1.54,0,0,0-.3,0,.48.48,0,0,0-.28.24l-.15.26-.57,1.17c-.2.41-.39.84-.59,1.24-.45.92-.91,1.83-1.36,2.74-.11.22-.21.44-.31.66a2,2,0,0,0-.15.53h-.2c-.06-.14-.1-.28-.16-.4-.2-.46-.4-.92-.61-1.35l-2.19-4.41-.22-.41c-.1-.16-.21-.26-.33-.27a2.92,2.92,0,0,0-.51,0h-3.88a3.57,3.57,0,0,0-.46,0,.45.45,0,0,0-.32.27c-.12.2-.23.41-.34.63-.48,1-1,1.92-1.43,2.89-.38.77-.75,1.56-1.12,2.35l0,.08a2.25,2.25,0,0,0-.17.62h-.3a2.61,2.61,0,0,0-.24-.76l-.72-1.44c-.19-.39-.38-.76-.56-1.17-.44-1-.92-1.89-1.38-2.83a4,4,0,0,0-.23-.41.45.45,0,0,0-.27-.23,4.38,4.38,0,0,0-.51,0h-4.23a.76.76,0,0,0-.21,0,.51.51,0,0,0-.27.24,2.78,2.78,0,0,0-.22.42c-.22.51-.46,1-.7,1.47l-1.61,3.24-.31.66a5.47,5.47,0,0,0-.3.81h-.21a2.55,2.55,0,0,0-.12-.44c-.06-.13-.11-.25-.17-.37l-2.68-5.4a3.72,3.72,0,0,0-.19-.34.5.5,0,0,0-.37-.3,5.25,5.25,0,0,0-.56,0h-4.08l-.2,0a.5.5,0,0,0-.28.23,4,4,0,0,0-.22.41c-.61,1.22-1.23,2.43-1.82,3.67-.32.65-.63,1.33-.95,2-.08.17-.15.37-.22.55h-.21a2.09,2.09,0,0,0-.17-.61c-.1-.23-.21-.45-.31-.67-.25-.51-.51-1-.75-1.53-.54-1.2-1.14-2.32-1.7-3.49-.05-.09-.1-.18-.16-.27a.48.48,0,0,0-.32-.27,2.71,2.71,0,0,0-.41,0h-4.09a2,2,0,0,0-.35,0,.54.54,0,0,0-.37.33l-.15.28-2.43,4.9a8.15,8.15,0,0,0-.55,1.34h-.2a6.77,6.77,0,0,0-.43-1.11c-.66-1.32-1.32-2.64-2-4-.19-.38-.38-.78-.56-1.17l-.18-.35a.44.44,0,0,0-.28-.25,1.54,1.54,0,0,0-.3,0h-4.34a1.54,1.54,0,0,0-.3,0,.48.48,0,0,0-.28.24,1.18,1.18,0,0,0-.11.19c-.33.65-.65,1.29-1,1.95s-.51,1.09-.78,1.61-.57,1.15-.85,1.73c-.1.19-.19.39-.28.59a1.65,1.65,0,0,0-.14.53h-.21a9.4,9.4,0,0,0-.47-1.06c-.22-.43-.43-.86-.63-1.33-.08-.17-.16-.34-.25-.51l-1.57-3.18-.22-.42c-.12-.22-.26-.34-.41-.35l-.57,0h-3.93c-.47,0-.53.06-.86.72l-2.37,4.75c-.12.25-.23.5-.33.77a3,3,0,0,0-.15.64h-.31a4.32,4.32,0,0,0-.32-.9c-.1-.22-.21-.43-.32-.65-.73-1.5-1.49-2.94-2.2-4.49-.09-.2-.19-.38-.29-.56a.46.46,0,0,0-.28-.24,1.54,1.54,0,0,0-.3,0h-4.33a1.55,1.55,0,0,0-.31,0,.51.51,0,0,0-.28.24l-.15.26c-.16.34-.33.68-.49,1s-.32.69-.49,1l-1.53,3.1c-.11.22-.21.44-.31.66a2.44,2.44,0,0,0-.16.52h-.2a3.21,3.21,0,0,0-.12-.33c-.21-.48-.43-1-.65-1.42-.73-1.48-1.46-2.94-2.19-4.4-.07-.15-.14-.28-.22-.42a.45.45,0,0,0-.33-.27,2.92,2.92,0,0,0-.51,0h-3.88a2.38,2.38,0,0,0-.46,0,.48.48,0,0,0-.32.27c-.13.23-.25.46-.37.7-.64,1.28-1.27,2.55-1.9,3.83-.27.55-.53,1.14-.8,1.71a3.19,3.19,0,0,0-.11.33h-.21a2,2,0,0,0-.15-.52c-.1-.23-.2-.45-.31-.67l-1.36-2.73c-.2-.41-.39-.84-.59-1.25l-.57-1.16a1.73,1.73,0,0,0-.15-.27.46.46,0,0,0-.28-.24,1.54,1.54,0,0,0-.3,0H214.5a1.65,1.65,0,0,0-.31,0,.51.51,0,0,0-.27.24,4.28,4.28,0,0,0-.33.64c-.18.39-.37.79-.56,1.17-.58,1.18-1.16,2.35-1.75,3.53l-.18.36a4.32,4.32,0,0,0-.32.9h-.31a2.18,2.18,0,0,0-.17-.72c-.1-.23-.2-.46-.31-.67-.34-.7-.69-1.4-1-2.1l-1.22-2.45c-.1-.21-.22-.42-.33-.63a.45.45,0,0,0-.32-.27,4.38,4.38,0,0,0-.51,0h-3.84l-.46,0a.51.51,0,0,0-.37.29c-.08.14-.15.28-.22.42-.21.41-.41.82-.61,1.23s-.41.81-.6,1.23c-.26.59-.54,1.14-.81,1.69s-.41.82-.61,1.23a7.58,7.58,0,0,0-.34.76h-.2a2.4,2.4,0,0,0-.14-.53c-.1-.2-.19-.4-.28-.59L197,47.71c-.13-.26-.26-.52-.38-.8-.34-.77-.71-1.47-1.07-2.19a2.59,2.59,0,0,0-.19-.33.41.41,0,0,0-.28-.23,4.38,4.38,0,0,0-.51,0h-4.19a.84.84,0,0,0-.2,0,.37.37,0,0,0-.23.19,4.68,4.68,0,0,0-.3.54c-.84,1.68-1.67,3.37-2.51,5.05a4.89,4.89,0,0,0-.4,1h-.21a8.49,8.49,0,0,0-.51-1.26c-.3-.6-.6-1.2-.89-1.8l-1.44-2.88c-.1-.22-.22-.43-.33-.63a.48.48,0,0,0-.32-.27,4.38,4.38,0,0,0-.51,0h-3.88a3.42,3.42,0,0,0-.46,0,.41.41,0,0,0-.28.23,1.64,1.64,0,0,0-.16.26L177.09,46c-.2.42-.39.84-.6,1.26-.42.87-.85,1.73-1.28,2.6-.1.19-.19.39-.28.59a1.87,1.87,0,0,0-.15.52h-.2c-.08-.18-.15-.38-.23-.55-.42-.84-.82-1.71-1.23-2.56s-1-2-1.47-3c0-.07-.07-.15-.11-.22-.26-.5-.34-.57-.73-.59h-4.14a3.57,3.57,0,0,0-.46,0,.47.47,0,0,0-.32.28c-.12.2-.23.41-.34.62-.81,1.64-1.62,3.27-2.44,4.91l-.24.51a2.44,2.44,0,0,0-.16.52h-.2a2.64,2.64,0,0,0-.19-.6c-.09-.19-.18-.39-.28-.58-.58-1.18-1.17-2.35-1.75-3.53-.24-.48-.48-.95-.7-1.46a4.13,4.13,0,0,0-.22-.42.49.49,0,0,0-.27-.25,1.65,1.65,0,0,0-.31,0h-4.33a1.54,1.54,0,0,0-.3,0,.47.47,0,0,0-.28.23,2.4,2.4,0,0,0-.16.27c-.21.43-.43.85-.63,1.31s-.49,1-.74,1.53-.57,1.15-.86,1.72l-.45,1a3.85,3.85,0,0,0-.29.83h-.31a2.25,2.25,0,0,0-.16-.62c0-.08-.07-.15-.11-.22-.33-.67-.66-1.35-1-2.06a1.51,1.51,0,0,0-.11-.22c-.48-1-1-2-1.46-3-.08-.14-.15-.28-.22-.42s-.26-.34-.42-.35l-.51,0h-4c-.39,0-.47.09-.73.59-.07.15-.14.29-.22.43-.23.49-.47,1-.71,1.45-.35.7-.7,1.38-1,2.12-.09.21-.19.39-.28.59l-.51,1a5.5,5.5,0,0,0-.29.69h-.21a1.72,1.72,0,0,0-.14-.53c-.1-.22-.21-.44-.32-.66l-1.35-2.73c-.25-.5-.5-1-.74-1.54-.12-.28-.26-.54-.39-.8a1.17,1.17,0,0,0-.15-.27.52.52,0,0,0-.36-.32,2.83,2.83,0,0,0-.41,0h-4a2.69,2.69,0,0,0-.4,0,.52.52,0,0,0-.37.31c-.07.14-.15.28-.22.43-.31.72-.65,1.37-1,2l-1.5,3a4.69,4.69,0,0,0-.4,1h-.2c-.06-.16-.12-.33-.19-.48-.23-.5-.45-1-.69-1.49l-2.07-4.18-.19-.35c-.12-.21-.25-.34-.41-.35l-.51,0h-3.83a3.42,3.42,0,0,0-.46,0,.44.44,0,0,0-.28.22c0,.09-.11.17-.16.27-.31.62-.62,1.24-.92,1.88s-.51,1.09-.77,1.62-.6,1.2-.89,1.8c-.09.17-.17.35-.25.52a2,2,0,0,0-.14.53h-.31a3,3,0,0,0-.21-.68c-.08-.18-.17-.35-.25-.51l-1.32-2.67c-.17-.34-.33-.69-.49-1l-.71-1.46-.15-.26c-.09-.13-.18-.22-.28-.23a4.38,4.38,0,0,0-.51,0h-3.88a3.42,3.42,0,0,0-.46,0,.52.52,0,0,0-.33.27l-.26.49c-.74,1.49-1.48,3-2.21,4.47-.16.31-.3.65-.44,1a2.23,2.23,0,0,0-.16.63h-.3c-.06-.14-.1-.28-.16-.4-.28-.62-.57-1.25-.87-1.85-.62-1.29-1.26-2.56-1.89-3.83l-.22-.42c-.12-.21-.25-.34-.41-.35l-.51,0H94.59a3.42,3.42,0,0,0-.46,0,.42.42,0,0,0-.28.22l-.12.2c-.35.69-.7,1.37-1,2.1-.19.4-.37.79-.56,1.18-.29.58-.58,1.14-.86,1.72l-.39.81a2.57,2.57,0,0,0-.18.61h-.3a2.08,2.08,0,0,0-.18-.61L90,49.87l-.83-1.65c-.13-.27-.26-.53-.38-.81-.41-.91-.85-1.75-1.28-2.62-.07-.14-.15-.28-.22-.4a.4.4,0,0,0-.28-.23,4.38,4.38,0,0,0-.51,0H82.66a3.44,3.44,0,0,0-.46,0c-.16,0-.3.14-.42.35s-.17.33-.25.5L79.7,48.67c-.06.12-.12.24-.17.37l-.66,1.41a3.94,3.94,0,0,0-.22.55h-.21a2,2,0,0,0-.15-.52c-.08-.18-.16-.35-.25-.52l-.86-1.72c-.52-1.06-1.05-2.12-1.57-3.17l-.26-.5c-.14-.27-.3-.42-.5-.43l-.51,0H70.56a3.57,3.57,0,0,0-.46,0,.43.43,0,0,0-.28.23,1.61,1.61,0,0,0-.15.26c-.21.41-.41.82-.6,1.24s-.33.69-.49,1l-.72,1.44c-.27.56-.55,1.11-.82,1.66a4.34,4.34,0,0,0-.36,1h-.31a1.65,1.65,0,0,0-.13-.53l-.35-.74c-.42-.84-.85-1.66-1.24-2.56,0-.1-.09-.19-.14-.29l-1-2c-.09-.16-.17-.33-.26-.48s-.23-.29-.37-.3l-.51,0h-4c-.38,0-.46.09-.72.59l-.18.36-.82,1.66c-.11.22-.22.44-.32.66-.21.49-.43,1-.66,1.4L55.1,50c-.09.17-.17.34-.25.52a2.4,2.4,0,0,0-.14.53h-.3A6.08,6.08,0,0,0,54,49.88c-.59-1.17-1.17-2.35-1.76-3.53-.25-.5-.5-1-.74-1.54a3.36,3.36,0,0,0-.22-.42.41.41,0,0,0-.28-.23,4.38,4.38,0,0,0-.51,0H46.59l-.41,0c-.15,0-.29.14-.41.35l-.22.42-2.43,4.91-.21.44a2,2,0,0,0-.16.73h-.31c-.07-.18-.14-.38-.22-.55-.42-.83-.82-1.71-1.23-2.56s-1-2-1.47-3c-.06-.12-.12-.23-.18-.36-.15-.31-.34-.44-.55-.44H34.65l-.46,0c-.18,0-.33.12-.46.37l-.26.49-.78,1.59c-.15.29-.28.58-.42.88s-.38.79-.56,1.18l-.65,1.29-.21.45a2.09,2.09,0,0,0-.17.61h-.31a2.49,2.49,0,0,0-.18-.6c-.09-.2-.18-.4-.28-.59-.46-.94-.93-1.87-1.4-2.81-.27-.55-.55-1.1-.8-1.69-.1-.23-.21-.43-.32-.65l-.11-.2c-.11-.18-.23-.3-.37-.31l-.51,0H22.31a.69.69,0,0,0-.2,0,.53.53,0,0,0-.32.28c-.13.22-.25.46-.37.7q-1.07,2.11-2.11,4.25c-.19.38-.38.78-.55,1.2l-.15.41h-.3a2.3,2.3,0,0,0-.2-.7c-.28-.59-.55-1.19-.83-1.77-.6-1.21-1.19-2.41-1.79-3.61l-.22-.42c-.12-.21-.25-.34-.41-.35l-.51,0H10.26a.69.69,0,0,0-.2,0,.46.46,0,0,0-.28.23,1.61,1.61,0,0,0-.15.26c-.31.63-.63,1.24-.93,1.88s-.51,1.09-.77,1.62-.55,1.1-.82,1.65c-.09.17-.17.34-.25.51a2.33,2.33,0,0,0-.21.69H6.34a2,2,0,0,0-.15-.52c-.09-.2-.18-.4-.28-.59-.76-1.57-1.55-3.08-2.29-4.7-.11-.25-.24-.48-.36-.71s-.26-.33-.41-.34l-.51,0H0V0H576.5V44.12h-1.58a2.69,2.69,0,0,0-.4,0,.53.53,0,0,0-.33.26,1.28,1.28,0,0,0-.11.2c-.32.64-.65,1.28-1,1.94s-.48,1-.73,1.54-.59,1.19-.89,1.79l-.24.52a2.36,2.36,0,0,0-.18.6h-.2a2.44,2.44,0,0,0-.16-.52c-.09-.2-.19-.39-.28-.59-.48-1-1-1.93-1.43-2.9-.27-.55-.55-1.1-.81-1.69-.08-.2-.19-.39-.28-.59-.18-.39-.4-.61-.67-.59-.11,0-.21,0-.31,0H562.7a1.52,1.52,0,0,0-.21,0,.48.48,0,0,0-.28.24c-.09.15-.18.31-.26.47l-2.5,5.07a3.9,3.9,0,0,1-.19.35c-.19.33-.39.34-.6,0a4.68,4.68,0,0,1-.3-.55c-.12-.28-.24-.56-.37-.82-.66-1.33-1.32-2.65-2-4l-.19-.36c-.16-.34-.36-.48-.59-.48h-4.6a.78.78,0,0,0-.21,0,.42.42,0,0,0-.23.2,3,3,0,0,0-.16.26l-.6,1.23c-.12.25-.23.51-.34.75l-1.58,3.17c-.09.17-.17.34-.26.49a1,1,0,0,1-.17.22.19.19,0,0,1-.3,0,1,1,0,0,1-.17-.22l-.26-.49c-.41-.84-.83-1.68-1.25-2.53-.08-.16-.17-.33-.24-.51-.3-.7-.63-1.33-1-2,0-.09-.1-.18-.15-.27a.52.52,0,0,0-.41-.34l-.41,0h-4.19c-.41,0-.49.07-.77.65-.57,1.16-1.16,2.28-1.7,3.5-.09.21-.19.4-.28.59L535.46,50l-.24.52A2,2,0,0,0,535.08,51Z" style="fill:#8ec449"/><path d="M1111.65,51h-.2a17.53,17.53,0,0,0-.73-1.69c-.67-1.34-1.33-2.69-2-4-.1-.2-.2-.38-.29-.58-.18-.4-.4-.6-.68-.57h-4.43a1.54,1.54,0,0,0-.3,0,.43.43,0,0,0-.28.24c-.1.18-.2.37-.29.56s-.3.65-.45,1c-.61,1.23-1.22,2.45-1.82,3.67l-.33.64a1.06,1.06,0,0,1-.17.23.21.21,0,0,1-.34,0,1.46,1.46,0,0,1-.17-.24c-.08-.15-.17-.32-.25-.49-.34-.67-.67-1.34-1-2-.09-.17-.17-.34-.25-.52-.36-.84-.77-1.61-1.16-2.4a3.9,3.9,0,0,0-.19-.35c-.1-.18-.22-.3-.37-.31a4.07,4.07,0,0,0-.5,0h-3.83c-.12,0-.24,0-.35,0s-.47.15-.64.52l-.18.36c-.3.6-.6,1.2-.89,1.8-.11.22-.21.44-.32.67-.18.39-.37.79-.56,1.17s-.4.82-.6,1.23c-.09.17-.17.34-.25.52a2.18,2.18,0,0,0-.17.61h-.2a7,7,0,0,0-.44-1.1l-.72-1.45-1.6-3.24c-.08-.16-.17-.33-.25-.5-.26-.49-.35-.57-.73-.59h-4.42c-.25,0-.47.14-.64.51-.08.18-.17.34-.25.5-.7,1.42-1.4,2.83-2.11,4.25l-.31.66a8.18,8.18,0,0,0-.38,1h-.2a2.57,2.57,0,0,0-.18-.61c-.1-.23-.2-.45-.31-.66-.41-.85-.84-1.67-1.23-2.56a2.59,2.59,0,0,0-.14-.29l-1-2c-.09-.16-.17-.33-.26-.48s-.23-.29-.37-.3a2.83,2.83,0,0,0-.41,0h-4.33a.4.4,0,0,0-.15,0,.5.5,0,0,0-.28.23,1.18,1.18,0,0,0-.11.19c-.37.75-.75,1.49-1.11,2.25-.2.44-.41.89-.62,1.32l-.83,1.65-.24.51a2.33,2.33,0,0,0-.21.69h-.21a2,2,0,0,0-.15-.52l-.27-.59-1.47-3c-.33-.67-.67-1.33-1-2a4.32,4.32,0,0,0-.22-.43.52.52,0,0,0-.37-.31,4.36,4.36,0,0,0-.51,0h-3.87l-.46,0c-.16,0-.29.14-.41.35s-.17.33-.25.5l-1.61,3.24c-.09.19-.18.39-.28.59-.19.42-.39.84-.59,1.26a9.58,9.58,0,0,0-.4.91h-.2a2.16,2.16,0,0,0-.17-.62q-.12-.27-.24-.51c-.2-.41-.4-.82-.59-1.26-.08-.18-.16-.35-.25-.51-.52-1.06-1-2.12-1.57-3.17,0-.1-.1-.19-.14-.29-.16-.33-.35-.51-.59-.51h-4.64l-.15,0a.5.5,0,0,0-.28.23c-.06.11-.13.22-.19.34-.28.57-.57,1.14-.84,1.75-.12.28-.26.54-.39.81-.42.86-.85,1.73-1.28,2.59-.1.19-.19.39-.28.59a1.65,1.65,0,0,0-.14.53h-.21a5,5,0,0,0-.39-1l-1.32-2.66c-.33-.67-.67-1.33-1-2-.09-.2-.19-.39-.29-.58a1.28,1.28,0,0,0-.11-.2c-.11-.18-.23-.3-.37-.31a4.36,4.36,0,0,0-.51,0h-4.12c-.38,0-.46.09-.73.59l-.1.22-1.47,3-.21.44c-.23.54-.48,1-.73,1.55q-.14.29-.27.6a2,2,0,0,0-.14.53h-.2c-.06-.16-.12-.33-.19-.48-.31-.67-.61-1.35-.93-2s-.67-1.34-1-2l-.75-1.51c-.1-.2-.2-.38-.3-.56a.48.48,0,0,0-.37-.3l-.51,0h-4l-.2,0c-.18,0-.33.13-.46.37l-.22.42L1016.05,50l-.21.44a2.44,2.44,0,0,0-.16.52h-.2a2.49,2.49,0,0,0-.18-.6c-.1-.23-.21-.45-.32-.67-.4-.81-.8-1.63-1.21-2.45l-.45-1-.81-1.67a1.75,1.75,0,0,0-.16-.27.45.45,0,0,0-.27-.23,3.73,3.73,0,0,0-.46,0h-4.28l-.15,0a.5.5,0,0,0-.37.3l-.3.56-.89,1.8c-.11.21-.22.42-.32.65-.32.74-.67,1.43-1,2.12l-.36.73a2.66,2.66,0,0,0-.2.69h-.2a1.89,1.89,0,0,0-.13-.44c0-.13-.11-.26-.17-.38l-2.67-5.39c-.06-.12-.13-.23-.19-.34s-.23-.29-.37-.3l-.51,0h-3.76c-.12,0-.24,0-.36,0s-.47.15-.64.52l0,.07c-.65,1.3-1.29,2.6-1.93,3.9l0,.07c-.24.57-.5,1.1-.76,1.62a5.66,5.66,0,0,0-.3.7h-.2a2.4,2.4,0,0,0-.14-.53c-.09-.2-.19-.4-.28-.59l-1-2c-.12-.24-.25-.48-.36-.73-.36-.84-.77-1.61-1.16-2.41-.07-.14-.15-.27-.23-.4a.45.45,0,0,0-.27-.23,1.76,1.76,0,0,0-.31,0h-4.33a1.76,1.76,0,0,0-.31,0,.48.48,0,0,0-.27.23l-.12.2c-.38.77-.77,1.52-1.14,2.31-.29.62-.58,1.23-.88,1.83L980,50.17a8,8,0,0,0-.37.83h-.11a4.89,4.89,0,0,0-.4-1c-.34-.7-.69-1.4-1-2.09-.47-.94-.93-1.88-1.4-2.81l-.33-.63c-.1-.16-.21-.26-.33-.27a2.92,2.92,0,0,0-.51,0h-3.88a3.73,3.73,0,0,0-.46,0,.45.45,0,0,0-.32.27l-.33.62-1.65,3.33L968,50.3l-.06.16a2.13,2.13,0,0,0-.14.54h-.2c-.1-.28-.22-.52-.33-.76-.45-.92-.91-1.83-1.34-2.77s-.9-1.83-1.36-2.74a3.72,3.72,0,0,0-.19-.34.44.44,0,0,0-.28-.23,1.54,1.54,0,0,0-.3,0h-4.33a1.76,1.76,0,0,0-.31,0,.47.47,0,0,0-.27.24c-.1.18-.2.36-.29.56-.24.54-.49,1-.74,1.54-.54,1.11-1.09,2.21-1.64,3.32-.11.21-.21.43-.31.66a2,2,0,0,0-.15.52h-.21a4.32,4.32,0,0,0-.32-.9c-.09-.17-.17-.34-.25-.5-.61-1.23-1.22-2.45-1.82-3.67l-.57-1.17a2.31,2.31,0,0,0-.18-.35.46.46,0,0,0-.27-.25,5.27,5.27,0,0,0-.56,0h-4a2.85,2.85,0,0,0-.41,0,.48.48,0,0,0-.28.22c-.06.11-.13.22-.19.34L945,48.17c0,.08-.07.15-.1.23-.21.49-.44.94-.66,1.4-.1.19-.19.38-.28.58a2.25,2.25,0,0,0-.17.62h-.31a2.25,2.25,0,0,0-.16-.62c0-.08-.07-.15-.1-.23-.34-.66-.67-1.35-1-2,0-.08-.07-.15-.11-.22l-1.47-3c-.08-.17-.17-.33-.26-.49a.45.45,0,0,0-.32-.27,4.38,4.38,0,0,0-.51,0h-3.87a2.32,2.32,0,0,0-.46,0,.44.44,0,0,0-.33.27l-.33.62c-.65,1.32-1.31,2.65-2,4-.26.53-.51,1.09-.76,1.64l-.12.33h-.2a2,2,0,0,0-.15-.52c-.09-.2-.19-.4-.28-.59-.49-1-1-2-1.46-3-.34-.68-.68-1.34-1-2a3.21,3.21,0,0,0-.25-.49.48.48,0,0,0-.28-.24,1.54,1.54,0,0,0-.3,0h-4.33a1.55,1.55,0,0,0-.31,0,.46.46,0,0,0-.28.23l-.3.55-1.14,2.3c-.09.2-.19.39-.28.59-.2.46-.41.9-.63,1.33s-.35.72-.53,1.08a5.27,5.27,0,0,0-.33.76h-.21a2.05,2.05,0,0,0-.2-.7c-.26-.57-.52-1.15-.79-1.7l-1.86-3.76-.22-.41c-.1-.16-.21-.26-.33-.27a2.92,2.92,0,0,0-.51,0h-3.87a2.32,2.32,0,0,0-.46,0c-.12,0-.23.11-.33.27s-.2.36-.29.55c-.72,1.45-1.43,2.89-2.15,4.33-.26.54-.5,1.09-.73,1.69h-.2a2,2,0,0,0-.14-.53l-.21-.45c-.34-.7-.69-1.39-1-2.09-.12-.24-.24-.47-.36-.73-.36-.84-.77-1.61-1.16-2.4l-.22-.41a.46.46,0,0,0-.28-.23,1.55,1.55,0,0,0-.31,0h-4.32a1.55,1.55,0,0,0-.31,0,.48.48,0,0,0-.28.24l-.15.26c-.19.39-.38.77-.56,1.17s-.4.84-.6,1.24l-1.35,2.74-.32.66a2,2,0,0,0-.14.53h-.21a3.71,3.71,0,0,0-.15-.4c-.2-.46-.4-.92-.62-1.35-.72-1.48-1.45-2.94-2.18-4.41-.07-.14-.14-.28-.22-.41a.45.45,0,0,0-.32-.27,2.92,2.92,0,0,0-.51,0h-3.88a3.57,3.57,0,0,0-.46,0,.45.45,0,0,0-.32.27,6.25,6.25,0,0,0-.33.63c-.48,1-1,1.92-1.43,2.89-.38.77-.75,1.56-1.12,2.35a.59.59,0,0,0,0,.08,2.25,2.25,0,0,0-.16.62h-.3a3,3,0,0,0-.24-.76l-.72-1.44c-.19-.39-.38-.76-.56-1.17-.44-1-.92-1.89-1.38-2.83a4,4,0,0,0-.22-.41.46.46,0,0,0-.28-.23,4.38,4.38,0,0,0-.51,0h-4.22a.64.64,0,0,0-.2,0,.49.49,0,0,0-.28.24,4.13,4.13,0,0,0-.22.42c-.22.51-.46,1-.7,1.47l-1.6,3.24-.31.66a3.88,3.88,0,0,0-.3.81h-.21a2.55,2.55,0,0,0-.12-.44c-.06-.13-.11-.25-.17-.37l-2.68-5.4-.18-.34c-.11-.18-.23-.29-.37-.3l-.56,0h-4.07a.76.76,0,0,0-.21,0,.48.48,0,0,0-.27.23,4,4,0,0,0-.23.41c-.61,1.22-1.22,2.43-1.82,3.67-.31.65-.62,1.33-.94,2-.08.17-.15.37-.22.55h-.21a2.09,2.09,0,0,0-.17-.61c-.1-.23-.21-.45-.31-.67-.25-.51-.51-1-.75-1.53-.54-1.2-1.13-2.32-1.7-3.49l-.15-.27a.48.48,0,0,0-.32-.27,2.85,2.85,0,0,0-.41,0h-4.08l-.36,0c-.14,0-.26.14-.36.33l-.15.28-2.43,4.9a8.15,8.15,0,0,0-.55,1.34h-.2a6,6,0,0,0-.43-1.11l-2-4c-.19-.38-.37-.78-.56-1.17l-.18-.35a.46.46,0,0,0-.27-.25,1.65,1.65,0,0,0-.31,0H839.6a1.76,1.76,0,0,0-.31,0,.47.47,0,0,0-.27.24l-.12.19c-.32.65-.65,1.29-1,1.95s-.51,1.09-.77,1.61-.57,1.15-.85,1.73c-.1.19-.19.39-.28.59a1.65,1.65,0,0,0-.14.53h-.21a7.89,7.89,0,0,0-.47-1.06c-.21-.43-.43-.86-.63-1.33l-.24-.51c-.53-1.06-1.05-2.12-1.57-3.18-.08-.14-.15-.28-.22-.42s-.26-.34-.42-.35a5.12,5.12,0,0,0-.56,0h-3.93c-.46,0-.52.06-.85.72l-2.37,4.75c-.12.25-.23.5-.33.77A3,3,0,0,0,824,51h-.3a4.32,4.32,0,0,0-.32-.9l-.33-.65c-.73-1.5-1.49-2.94-2.19-4.49-.09-.2-.19-.38-.29-.56a.48.48,0,0,0-.28-.24,1.54,1.54,0,0,0-.3,0h-4.33a1.54,1.54,0,0,0-.3,0,.46.46,0,0,0-.28.24l-.15.26c-.17.34-.33.68-.49,1s-.32.69-.49,1l-1.53,3.1-.31.66a2,2,0,0,0-.15.52h-.21a3.21,3.21,0,0,0-.12-.33c-.21-.48-.42-1-.65-1.42-.72-1.48-1.45-2.94-2.18-4.4-.07-.15-.15-.28-.22-.42s-.2-.26-.33-.27a2.92,2.92,0,0,0-.51,0h-3.87a2.32,2.32,0,0,0-.46,0,.49.49,0,0,0-.33.27l-.36.7c-.64,1.28-1.27,2.55-1.9,3.83-.27.55-.53,1.14-.79,1.71a3.21,3.21,0,0,0-.12.33h-.2a2.45,2.45,0,0,0-.15-.52c-.11-.23-.21-.45-.32-.67l-1.35-2.73c-.2-.41-.39-.84-.59-1.25l-.57-1.16a1.73,1.73,0,0,0-.15-.27.46.46,0,0,0-.28-.24,1.54,1.54,0,0,0-.3,0h-4.32a1.55,1.55,0,0,0-.31,0,.56.56,0,0,0-.28.24,5.46,5.46,0,0,0-.32.64c-.18.39-.37.79-.56,1.17l-1.74,3.53-.18.36a5,5,0,0,0-.33.9h-.3a2.18,2.18,0,0,0-.17-.72c-.1-.23-.21-.46-.31-.67-.35-.7-.7-1.4-1-2.1s-.81-1.63-1.22-2.45c-.1-.21-.22-.42-.33-.63a.45.45,0,0,0-.32-.27,4.38,4.38,0,0,0-.51,0h-3.83a3.55,3.55,0,0,0-.46,0,.51.51,0,0,0-.37.29c-.08.14-.15.28-.22.42-.21.41-.41.82-.61,1.23s-.41.81-.6,1.23c-.26.59-.53,1.14-.81,1.69s-.4.82-.61,1.23a7.56,7.56,0,0,0-.33.76h-.21a1.65,1.65,0,0,0-.14-.53c-.09-.2-.18-.4-.28-.59-.35-.72-.71-1.44-1.07-2.17-.13-.26-.26-.52-.39-.8-.33-.77-.7-1.47-1-2.19a2.63,2.63,0,0,0-.2-.33c-.08-.13-.17-.22-.27-.23a4.38,4.38,0,0,0-.51,0h-4.19a.84.84,0,0,0-.2,0,.4.4,0,0,0-.23.19c-.1.17-.21.35-.3.54-.84,1.68-1.67,3.37-2.51,5.05a6.27,6.27,0,0,0-.4,1h-.2a9.73,9.73,0,0,0-.51-1.26l-.9-1.8c-.47-1-.95-1.92-1.43-2.88a6.25,6.25,0,0,0-.33-.63.48.48,0,0,0-.32-.27,4.38,4.38,0,0,0-.51,0h-3.87a3.42,3.42,0,0,0-.46,0,.41.41,0,0,0-.28.23,1.64,1.64,0,0,0-.16.26L754.28,46l-.59,1.26c-.43.87-.86,1.73-1.28,2.6-.1.19-.19.39-.28.59A1.87,1.87,0,0,0,752,51h-.21c-.07-.18-.14-.38-.22-.55-.42-.84-.82-1.71-1.23-2.56s-1-2-1.47-3c0-.07-.07-.15-.11-.22-.26-.5-.34-.57-.72-.59h-4.14a3.57,3.57,0,0,0-.46,0,.47.47,0,0,0-.32.28c-.11.2-.23.41-.33.62-.82,1.64-1.63,3.27-2.44,4.91l-.24.51a2.44,2.44,0,0,0-.16.52h-.2a2.64,2.64,0,0,0-.19-.6l-.28-.58c-.58-1.18-1.16-2.35-1.75-3.53-.23-.48-.47-.95-.7-1.46a2.78,2.78,0,0,0-.22-.42.46.46,0,0,0-.27-.25,1.54,1.54,0,0,0-.3,0h-4.33a1.54,1.54,0,0,0-.3,0,.47.47,0,0,0-.28.23,2.34,2.34,0,0,0-.15.27c-.22.43-.43.85-.64,1.31s-.48,1-.73,1.53-.58,1.15-.86,1.72c-.16.32-.31.63-.46,1A4.49,4.49,0,0,0,728,51h-.31a2,2,0,0,0-.17-.62,1.47,1.47,0,0,0-.1-.22c-.33-.67-.66-1.35-1-2.06,0-.08-.07-.15-.1-.22l-1.47-3-.22-.42c-.12-.21-.25-.34-.41-.35l-.51,0h-4c-.38,0-.46.09-.73.59l-.21.43L718,46.59c-.34.7-.69,1.38-1,2.12-.09.21-.19.39-.29.59l-.5,1a5.5,5.5,0,0,0-.29.69h-.21a1.72,1.72,0,0,0-.14-.53c-.1-.22-.21-.44-.32-.66l-1.35-2.73c-.25-.5-.5-1-.73-1.54-.13-.28-.26-.54-.39-.8q-.07-.15-.15-.27a.56.56,0,0,0-.37-.32,2.69,2.69,0,0,0-.4,0h-4a2.83,2.83,0,0,0-.41,0c-.14,0-.26.13-.36.31a3.48,3.48,0,0,0-.22.43c-.31.72-.65,1.37-1,2l-1.5,3a4.69,4.69,0,0,0-.4,1h-.2c-.06-.16-.12-.33-.19-.48-.23-.5-.45-1-.69-1.49-.68-1.4-1.38-2.79-2.07-4.18l-.18-.35c-.12-.21-.26-.34-.41-.35l-.51,0h-3.83a3.73,3.73,0,0,0-.46,0c-.1,0-.19.1-.28.22l-.15.27c-.31.62-.62,1.24-.92,1.88s-.51,1.09-.77,1.62-.6,1.2-.89,1.8c-.09.17-.17.35-.25.52a2,2,0,0,0-.14.53h-.31a2.59,2.59,0,0,0-.21-.68c-.08-.18-.16-.35-.25-.51L690,47.14c-.16-.34-.32-.69-.49-1s-.47-1-.7-1.46a2.26,2.26,0,0,0-.16-.26.41.41,0,0,0-.28-.23,4.38,4.38,0,0,0-.5,0H684a3.73,3.73,0,0,0-.46,0,.48.48,0,0,0-.32.27c-.09.16-.18.32-.26.49-.74,1.49-1.48,3-2.21,4.47-.16.31-.3.65-.44,1a2.23,2.23,0,0,0-.16.63h-.3c0-.14-.1-.28-.15-.4-.29-.62-.58-1.25-.87-1.85-.63-1.29-1.26-2.56-1.89-3.83-.08-.14-.15-.28-.22-.42s-.26-.34-.42-.35l-.51,0h-3.82a3.73,3.73,0,0,0-.46,0c-.1,0-.19.1-.28.22a1.28,1.28,0,0,0-.11.2c-.35.69-.7,1.37-1,2.1-.19.4-.37.79-.56,1.18-.29.58-.58,1.14-.86,1.72-.13.27-.26.54-.38.81a2.57,2.57,0,0,0-.18.61h-.31a2.09,2.09,0,0,0-.17-.61c-.08-.18-.16-.35-.25-.52l-.82-1.65c-.13-.27-.27-.53-.39-.81-.4-.91-.84-1.75-1.27-2.62a3.81,3.81,0,0,0-.23-.4c-.08-.14-.17-.22-.27-.23a4.38,4.38,0,0,0-.51,0H660l-.46,0c-.16,0-.29.14-.41.35l-.25.5-1.83,3.67c0,.12-.11.24-.17.37l-.66,1.41A3.94,3.94,0,0,0,656,51h-.2a2.44,2.44,0,0,0-.16-.52l-.24-.52c-.29-.57-.57-1.15-.86-1.72-.53-1.06-1-2.12-1.58-3.17l-.25-.5c-.14-.27-.3-.42-.5-.43l-.51,0h-3.77a3.42,3.42,0,0,0-.46,0,.43.43,0,0,0-.28.23,1.61,1.61,0,0,0-.15.26c-.21.41-.41.82-.6,1.24s-.33.69-.49,1l-.72,1.44c-.27.56-.54,1.11-.82,1.66a4.88,4.88,0,0,0-.36,1h-.3a2,2,0,0,0-.14-.53c-.11-.25-.23-.5-.35-.74-.41-.84-.84-1.66-1.23-2.56,0-.1-.09-.19-.14-.29l-1-2c-.09-.16-.17-.33-.26-.48s-.23-.29-.37-.3a4.36,4.36,0,0,0-.51,0h-4c-.38,0-.46.09-.72.59l-.18.36c-.27.56-.55,1.11-.82,1.66-.11.22-.22.44-.32.66-.21.49-.43,1-.66,1.4L632.5,50l-.24.52a1.65,1.65,0,0,0-.14.53h-.31a4.93,4.93,0,0,0-.43-1.12c-.58-1.17-1.17-2.35-1.75-3.53-.25-.5-.5-1-.74-1.54a3.36,3.36,0,0,0-.22-.42c-.08-.13-.17-.22-.27-.23a4.38,4.38,0,0,0-.51,0H624l-.41,0c-.15,0-.29.14-.41.35l-.22.42-2.43,4.91-.21.44a2,2,0,0,0-.15.73h-.31c-.08-.18-.14-.38-.23-.55-.42-.83-.82-1.71-1.23-2.56s-1-2-1.46-3l-.18-.36c-.15-.31-.34-.44-.55-.44h-4.13l-.46,0a.58.58,0,0,0-.46.37c-.08.16-.17.32-.25.49-.27.53-.53,1.06-.79,1.59l-.42.88c-.19.39-.37.79-.56,1.18l-.64,1.29-.21.45a2.09,2.09,0,0,0-.17.61h-.31a2.49,2.49,0,0,0-.18-.6c-.09-.2-.19-.4-.28-.59-.47-.94-.93-1.87-1.39-2.81-.28-.55-.56-1.1-.81-1.69-.1-.23-.21-.43-.32-.65a1.28,1.28,0,0,0-.11-.2c-.11-.18-.23-.3-.37-.31l-.51,0h-4.08l-.2,0a.53.53,0,0,0-.32.28c-.13.22-.25.46-.37.7q-1.05,2.11-2.11,4.25-.28.57-.54,1.2c-.06.13-.1.27-.15.41h-.31a2.31,2.31,0,0,0-.19-.7c-.28-.59-.55-1.19-.83-1.77-.6-1.21-1.19-2.41-1.79-3.61-.07-.14-.14-.28-.22-.42s-.25-.34-.41-.35l-.51,0h-4.08l-.2,0a.46.46,0,0,0-.28.23,3,3,0,0,0-.15.26c-.31.63-.63,1.24-.92,1.88s-.51,1.09-.78,1.62-.54,1.1-.82,1.65l-.24.51a2.33,2.33,0,0,0-.21.69h-.31a2,2,0,0,0-.15-.52c-.09-.2-.18-.4-.28-.59-.76-1.57-1.55-3.08-2.28-4.7-.12-.25-.24-.48-.37-.71a.52.52,0,0,0-.41-.34l-.51,0H577.5V0H1153V44.12h-1.57a2.83,2.83,0,0,0-.41,0,.49.49,0,0,0-.32.26l-.12.2c-.32.64-.64,1.28-.95,1.94s-.48,1-.73,1.54-.6,1.19-.89,1.79c-.08.17-.17.34-.24.52a2.36,2.36,0,0,0-.18.6h-.21a2,2,0,0,0-.15-.52c-.09-.2-.19-.39-.28-.59-.48-1-1-1.93-1.43-2.9-.27-.55-.55-1.1-.8-1.69-.09-.2-.19-.39-.28-.59-.18-.39-.4-.61-.68-.59-.1,0-.2,0-.3,0h-4.24a1.2,1.2,0,0,0-.2,0,.46.46,0,0,0-.28.24c-.09.15-.18.31-.26.47q-1.26,2.54-2.5,5.07a3.9,3.9,0,0,1-.19.35c-.19.33-.39.34-.6,0a3.55,3.55,0,0,1-.29-.55c-.13-.28-.25-.56-.38-.82-.66-1.33-1.31-2.65-2-4l-.18-.36c-.16-.34-.36-.48-.6-.48h-4.59a.65.65,0,0,0-.2,0,.37.37,0,0,0-.23.2,1.64,1.64,0,0,0-.16.26l-.6,1.23c-.12.25-.23.51-.35.75-.52,1.06-1.05,2.12-1.57,3.17-.09.17-.17.34-.26.49a1,1,0,0,1-.17.22.19.19,0,0,1-.3,0,1,1,0,0,1-.16-.22c-.09-.16-.18-.32-.26-.49-.42-.84-.84-1.68-1.25-2.53-.09-.16-.17-.33-.25-.51-.3-.7-.63-1.33-1-2l-.15-.27a.54.54,0,0,0-.42-.34l-.4,0h-4.19c-.4,0-.48.07-.76.65-.57,1.16-1.16,2.28-1.7,3.5-.09.21-.19.4-.28.59L1112,50l-.24.52A2,2,0,0,0,1111.65,51Z" style="fill:#8ec449"/><rect x="1153.13" y="27" width="1151.3" height="114" style="fill:#a47b55"/><polygon points="1153 77 1203 105 1251 77 1298 105 1346 77 1395 105 1441 75 1491 105 1539 75 1587 105 1634 77 1684 105 1730 77 1779 105 1827 77 1875 105 1923 75 1973 105 2019 77 2067 105 2115 75 2164 105 2212 77 2260 105 2304 77 2304 39 2262 66 2212 38 2165 67 2115 38 2068 66 2020 38 1971 66 1923 38 1875 68 1827 38 1778 67 1730 38 1684 66 1634 38 1587 67 1539 38 1491 66 1443 38 1394 67 1346 38 1299 66 1250 38 1203 66 1153 39 1153 77" style="fill:#8b623c"/><polygon points="1153 108 1201 133 1250 105 1299 133 1346 105 1397 133 1443 105 1492 133 1539 105 1587 133 1634 105 1685 133 1730 105 1779 133 1827 105 1876 133 1923 105 1971 133 2018 105 2068 133 2114 105 2165 133 2210 105 2260 133 2304 108 2304 141 1153 141 1153 108" style="fill:#8b623c"/><path d="M1686.15,51h-.2a17.53,17.53,0,0,0-.73-1.69c-.67-1.34-1.33-2.69-2-4-.1-.2-.2-.38-.29-.58-.18-.4-.4-.6-.68-.57h-4.43a1.54,1.54,0,0,0-.3,0,.43.43,0,0,0-.28.24c-.1.18-.2.37-.29.56s-.3.65-.45,1c-.61,1.23-1.22,2.45-1.82,3.67l-.33.64a1.06,1.06,0,0,1-.17.23.21.21,0,0,1-.34,0,1.46,1.46,0,0,1-.17-.24c-.08-.15-.17-.32-.25-.49-.34-.67-.67-1.34-1-2-.09-.17-.17-.34-.25-.52-.36-.84-.77-1.61-1.16-2.4a3.9,3.9,0,0,0-.19-.35c-.1-.18-.22-.3-.37-.31a4.07,4.07,0,0,0-.5,0h-3.83c-.12,0-.24,0-.35,0s-.47.15-.64.52L1665,45c-.3.6-.6,1.2-.89,1.8-.11.22-.21.44-.32.67-.18.39-.37.79-.56,1.17s-.4.82-.6,1.23c-.09.17-.17.34-.25.52a2.18,2.18,0,0,0-.17.61h-.2a7,7,0,0,0-.44-1.1l-.72-1.45-1.6-3.24c-.08-.16-.17-.33-.25-.5-.26-.49-.35-.57-.73-.59h-4.42c-.25,0-.47.14-.64.51-.08.18-.17.34-.25.5-.7,1.42-1.4,2.83-2.11,4.25l-.31.66a8.18,8.18,0,0,0-.38,1h-.2a2.57,2.57,0,0,0-.18-.61c-.1-.23-.2-.45-.31-.66-.41-.85-.84-1.67-1.23-2.56a2.59,2.59,0,0,0-.14-.29l-1-2c-.09-.16-.17-.33-.26-.48s-.23-.29-.37-.3a2.83,2.83,0,0,0-.41,0h-4.33a.4.4,0,0,0-.15,0,.5.5,0,0,0-.28.23,1.18,1.18,0,0,0-.11.19c-.37.75-.75,1.49-1.11,2.25-.2.44-.41.89-.62,1.32l-.83,1.65-.24.51a2.33,2.33,0,0,0-.21.69H1638a2,2,0,0,0-.15-.52l-.27-.59-1.47-3c-.33-.67-.67-1.33-1-2a4.32,4.32,0,0,0-.22-.43.52.52,0,0,0-.37-.31,4.36,4.36,0,0,0-.51,0h-3.87l-.46,0c-.16,0-.29.14-.41.35s-.17.33-.25.5l-1.61,3.24c-.09.19-.18.39-.28.59-.19.42-.39.84-.59,1.26a9.58,9.58,0,0,0-.4.91h-.2a2.16,2.16,0,0,0-.17-.62q-.12-.27-.24-.51c-.2-.41-.4-.82-.59-1.26-.08-.18-.16-.35-.25-.51-.52-1.06-1-2.12-1.57-3.17,0-.1-.1-.19-.14-.29-.16-.33-.35-.51-.59-.51h-4.64l-.15,0a.5.5,0,0,0-.28.23c-.06.11-.13.22-.19.34-.28.57-.57,1.14-.84,1.75-.12.28-.26.54-.39.81-.42.86-.85,1.73-1.28,2.59-.1.19-.19.39-.28.59a1.65,1.65,0,0,0-.14.53H1614a5,5,0,0,0-.39-1l-1.32-2.66c-.33-.67-.67-1.33-1-2-.09-.2-.19-.39-.29-.58a1.28,1.28,0,0,0-.11-.2c-.11-.18-.23-.3-.37-.31a4.36,4.36,0,0,0-.51,0h-4.12c-.38,0-.46.09-.73.59l-.1.22-1.47,3-.21.44c-.23.54-.48,1-.73,1.55q-.14.29-.27.6a2,2,0,0,0-.14.53h-.2c-.06-.16-.12-.33-.19-.48-.31-.67-.61-1.35-.93-2s-.67-1.34-1-2l-.75-1.51c-.1-.2-.2-.38-.3-.56a.48.48,0,0,0-.37-.3,4.36,4.36,0,0,0-.51,0h-4l-.2,0c-.18,0-.33.13-.46.37l-.22.42L1590.55,50l-.21.44a2.44,2.44,0,0,0-.16.52h-.2a2.49,2.49,0,0,0-.18-.6c-.1-.23-.21-.45-.32-.67-.4-.81-.8-1.63-1.21-2.45l-.45-1-.81-1.67a1.75,1.75,0,0,0-.16-.27.45.45,0,0,0-.27-.23,3.73,3.73,0,0,0-.46,0h-4.28l-.15,0a.5.5,0,0,0-.37.3l-.3.56-.89,1.8c-.11.21-.22.42-.32.65-.32.74-.67,1.43-1,2.12l-.36.73a2.66,2.66,0,0,0-.2.69h-.2a1.89,1.89,0,0,0-.13-.44c-.05-.13-.11-.26-.17-.38l-2.67-5.39c-.06-.12-.13-.23-.19-.34s-.23-.29-.37-.3a4.36,4.36,0,0,0-.51,0h-3.76c-.12,0-.24,0-.36,0s-.47.15-.64.52l0,.07c-.65,1.3-1.29,2.6-1.93,3.9l0,.07c-.24.57-.5,1.1-.76,1.62a5.66,5.66,0,0,0-.3.7h-.2a2.4,2.4,0,0,0-.14-.53c-.09-.2-.19-.4-.28-.59l-1-2c-.12-.24-.25-.48-.36-.73-.36-.84-.77-1.61-1.16-2.41-.07-.14-.15-.27-.23-.4a.45.45,0,0,0-.27-.23,1.76,1.76,0,0,0-.31,0H1558a1.76,1.76,0,0,0-.31,0,.48.48,0,0,0-.27.23l-.12.2c-.38.77-.77,1.52-1.14,2.31-.29.62-.58,1.23-.88,1.83l-.71,1.44a8,8,0,0,0-.37.83H1554a4.89,4.89,0,0,0-.4-1c-.34-.7-.69-1.4-1-2.09-.47-.94-.93-1.88-1.4-2.81l-.33-.63c-.1-.16-.21-.26-.33-.27a2.92,2.92,0,0,0-.51,0h-3.88a3.73,3.73,0,0,0-.46,0,.45.45,0,0,0-.32.27l-.33.62c-.55,1.11-1.1,2.21-1.65,3.33-.3.63-.6,1.28-.9,1.92l-.06.16a2.13,2.13,0,0,0-.14.54h-.2c-.1-.28-.22-.52-.33-.76-.45-.92-.91-1.83-1.34-2.77s-.9-1.83-1.36-2.74a3.72,3.72,0,0,0-.19-.34.44.44,0,0,0-.28-.23,1.54,1.54,0,0,0-.3,0H1534a1.76,1.76,0,0,0-.31,0,.47.47,0,0,0-.27.24c-.1.18-.2.36-.29.56-.24.54-.49,1-.74,1.54-.54,1.11-1.09,2.21-1.64,3.32-.11.21-.21.43-.31.66a2,2,0,0,0-.15.52h-.21a4.32,4.32,0,0,0-.32-.9l-.25-.5c-.61-1.23-1.22-2.45-1.82-3.67l-.57-1.17a2.31,2.31,0,0,0-.18-.35.46.46,0,0,0-.27-.25,5.27,5.27,0,0,0-.56,0h-4a2.85,2.85,0,0,0-.41,0,.48.48,0,0,0-.28.22c-.06.11-.13.22-.19.34l-1.71,3.45c0,.08-.07.15-.1.23-.21.49-.44.94-.66,1.4-.1.19-.19.38-.28.58a2.25,2.25,0,0,0-.17.62H1518a2.25,2.25,0,0,0-.16-.62c0-.08-.07-.15-.1-.23-.34-.66-.67-1.35-1-2l-.11-.22-1.47-3c-.08-.17-.17-.33-.26-.49a.45.45,0,0,0-.32-.27,4.38,4.38,0,0,0-.51,0h-3.87a2.32,2.32,0,0,0-.46,0,.44.44,0,0,0-.33.27l-.33.62c-.65,1.32-1.31,2.65-2,4-.26.53-.51,1.09-.76,1.64,0,.1-.08.22-.12.33h-.2a2,2,0,0,0-.15-.52c-.09-.2-.19-.4-.28-.59-.49-1-1-2-1.46-3-.34-.68-.68-1.34-1-2a3.21,3.21,0,0,0-.25-.49.48.48,0,0,0-.28-.24,1.54,1.54,0,0,0-.3,0H1498a1.55,1.55,0,0,0-.31,0,.46.46,0,0,0-.28.23l-.3.55-1.14,2.3c-.09.2-.19.39-.28.59-.2.46-.41.9-.63,1.33s-.35.72-.53,1.08a5.27,5.27,0,0,0-.33.76H1494a2.05,2.05,0,0,0-.2-.7c-.26-.57-.52-1.15-.79-1.7l-1.86-3.76-.22-.41c-.1-.16-.21-.26-.33-.27a2.92,2.92,0,0,0-.51,0h-3.87a2.32,2.32,0,0,0-.46,0c-.12,0-.23.11-.33.27s-.2.36-.29.55c-.72,1.45-1.43,2.89-2.15,4.33-.26.54-.5,1.09-.73,1.69h-.2a2,2,0,0,0-.14-.53l-.21-.45c-.34-.7-.69-1.39-1-2.09-.12-.24-.24-.47-.36-.73-.36-.84-.77-1.61-1.16-2.4l-.22-.41a.46.46,0,0,0-.28-.23,1.55,1.55,0,0,0-.31,0H1474a1.55,1.55,0,0,0-.31,0,.48.48,0,0,0-.28.24l-.15.26c-.19.39-.38.77-.56,1.17s-.4.84-.6,1.24l-1.35,2.74-.32.66a2,2,0,0,0-.14.53h-.21a3.71,3.71,0,0,0-.15-.4c-.2-.46-.4-.92-.62-1.35-.72-1.48-1.45-2.94-2.18-4.41-.07-.14-.14-.28-.22-.41a.45.45,0,0,0-.32-.27,2.92,2.92,0,0,0-.51,0h-3.88a3.57,3.57,0,0,0-.46,0,.45.45,0,0,0-.32.27,6.25,6.25,0,0,0-.33.63c-.48,1-1,1.92-1.43,2.89-.38.77-.75,1.56-1.12,2.35l0,.08a2.25,2.25,0,0,0-.16.62h-.3a3,3,0,0,0-.24-.76l-.72-1.44c-.19-.39-.38-.76-.56-1.17-.44-1-.92-1.89-1.38-2.83a4,4,0,0,0-.22-.41.46.46,0,0,0-.28-.23,4.38,4.38,0,0,0-.51,0H1450a.64.64,0,0,0-.2,0,.49.49,0,0,0-.28.24,4.13,4.13,0,0,0-.22.42c-.22.51-.46,1-.7,1.47l-1.6,3.24-.31.66a3.88,3.88,0,0,0-.3.81h-.21a2.55,2.55,0,0,0-.12-.44c-.06-.13-.11-.25-.17-.37l-2.68-5.4-.18-.34c-.11-.18-.23-.29-.37-.3l-.56,0H1438a.76.76,0,0,0-.21,0,.48.48,0,0,0-.27.23,4,4,0,0,0-.23.41c-.61,1.22-1.22,2.43-1.82,3.67-.31.65-.62,1.33-.94,2-.08.17-.15.37-.22.55h-.21a2.09,2.09,0,0,0-.17-.61c-.1-.23-.21-.45-.31-.67-.25-.51-.51-1-.75-1.53-.54-1.2-1.13-2.32-1.7-3.49l-.15-.27a.48.48,0,0,0-.32-.27,2.85,2.85,0,0,0-.41,0h-4.08a2.19,2.19,0,0,0-.36,0c-.14,0-.26.14-.36.33l-.15.28-2.43,4.9a8.15,8.15,0,0,0-.55,1.34h-.2a6,6,0,0,0-.43-1.11l-2-4c-.19-.38-.37-.78-.56-1.17l-.18-.35a.46.46,0,0,0-.27-.25,1.65,1.65,0,0,0-.31,0h-4.32a1.76,1.76,0,0,0-.31,0,.47.47,0,0,0-.27.24l-.12.19c-.32.65-.65,1.29-1,1.95s-.51,1.09-.77,1.61-.57,1.15-.85,1.73c-.1.19-.19.39-.28.59a1.65,1.65,0,0,0-.14.53h-.21a7.89,7.89,0,0,0-.47-1.06c-.21-.43-.43-.86-.63-1.33l-.24-.51c-.53-1.06-1-2.12-1.57-3.18-.08-.14-.15-.28-.22-.42s-.26-.34-.42-.35a5.12,5.12,0,0,0-.56,0h-3.93c-.46,0-.52.06-.85.72l-2.37,4.75c-.12.25-.23.5-.33.77a3,3,0,0,0-.15.64h-.3a4.32,4.32,0,0,0-.32-.9l-.33-.65c-.73-1.5-1.49-2.94-2.19-4.49-.09-.2-.19-.38-.29-.56a.48.48,0,0,0-.28-.24,1.54,1.54,0,0,0-.3,0h-4.33a1.54,1.54,0,0,0-.3,0,.46.46,0,0,0-.28.24l-.15.26c-.17.34-.33.68-.49,1s-.32.69-.49,1l-1.53,3.1-.31.66a2,2,0,0,0-.15.52h-.21a3.21,3.21,0,0,0-.12-.33c-.21-.48-.42-1-.65-1.42-.72-1.48-1.45-2.94-2.18-4.4-.07-.15-.15-.28-.22-.42s-.2-.26-.33-.27a2.92,2.92,0,0,0-.51,0h-3.87a2.32,2.32,0,0,0-.46,0,.49.49,0,0,0-.33.27l-.36.7c-.64,1.28-1.27,2.55-1.9,3.83-.27.55-.53,1.14-.79,1.71a3.21,3.21,0,0,0-.12.33h-.2a2.45,2.45,0,0,0-.15-.52c-.11-.23-.21-.45-.32-.67l-1.35-2.73c-.2-.41-.39-.84-.59-1.25l-.57-1.16a1.73,1.73,0,0,0-.15-.27.46.46,0,0,0-.28-.24,1.54,1.54,0,0,0-.3,0h-4.32a1.55,1.55,0,0,0-.31,0,.56.56,0,0,0-.28.24,5.46,5.46,0,0,0-.32.64c-.18.39-.37.79-.56,1.17l-1.74,3.53-.18.36a5,5,0,0,0-.33.9h-.3a2.18,2.18,0,0,0-.17-.72c-.1-.23-.21-.46-.31-.67-.35-.7-.7-1.4-1-2.1s-.81-1.63-1.22-2.45c-.1-.21-.22-.42-.33-.63a.45.45,0,0,0-.32-.27,4.38,4.38,0,0,0-.51,0h-3.83a3.55,3.55,0,0,0-.46,0,.51.51,0,0,0-.37.29c-.08.14-.15.28-.22.42-.21.41-.41.82-.61,1.23s-.41.81-.6,1.23c-.26.59-.53,1.14-.81,1.69s-.4.82-.61,1.23a7.56,7.56,0,0,0-.33.76h-.21a1.65,1.65,0,0,0-.14-.53c-.09-.2-.18-.4-.28-.59-.35-.72-.71-1.44-1.07-2.17-.13-.26-.26-.52-.39-.8-.33-.77-.7-1.47-1-2.19a2.63,2.63,0,0,0-.2-.33c-.08-.13-.17-.22-.27-.23a4.38,4.38,0,0,0-.51,0h-4.19a.84.84,0,0,0-.2,0,.4.4,0,0,0-.23.19c-.1.17-.21.35-.3.54-.84,1.68-1.67,3.37-2.51,5.05a6.27,6.27,0,0,0-.4,1h-.2a9.73,9.73,0,0,0-.51-1.26l-.9-1.8c-.47-1-1-1.92-1.43-2.88a6.25,6.25,0,0,0-.33-.63.48.48,0,0,0-.32-.27,4.38,4.38,0,0,0-.51,0h-3.87a3.42,3.42,0,0,0-.46,0,.41.41,0,0,0-.28.23,1.64,1.64,0,0,0-.16.26l-.67,1.38-.59,1.26c-.43.87-.86,1.73-1.28,2.6-.1.19-.19.39-.28.59a1.87,1.87,0,0,0-.15.52h-.21c-.07-.18-.14-.38-.22-.55-.42-.84-.82-1.71-1.23-2.56s-1-2-1.47-3l-.11-.22c-.26-.5-.34-.57-.72-.59h-4.14a3.57,3.57,0,0,0-.46,0,.47.47,0,0,0-.32.28c-.11.2-.23.41-.33.62-.82,1.64-1.63,3.27-2.44,4.91l-.24.51a2.44,2.44,0,0,0-.16.52h-.2a2.64,2.64,0,0,0-.19-.6l-.28-.58c-.58-1.18-1.16-2.35-1.75-3.53-.23-.48-.47-.95-.7-1.46a2.78,2.78,0,0,0-.22-.42.46.46,0,0,0-.27-.25,1.54,1.54,0,0,0-.3,0h-4.33a1.54,1.54,0,0,0-.3,0,.47.47,0,0,0-.28.23,2.34,2.34,0,0,0-.15.27c-.22.43-.43.85-.64,1.31s-.48,1-.73,1.53l-.86,1.72c-.16.32-.31.63-.46,1a4.49,4.49,0,0,0-.28.83h-.31a2,2,0,0,0-.17-.62,1.47,1.47,0,0,0-.1-.22c-.33-.67-.66-1.35-1-2.06,0-.08-.07-.15-.1-.22l-1.47-3-.22-.42c-.12-.21-.25-.34-.41-.35a4.36,4.36,0,0,0-.51,0h-4c-.38,0-.46.09-.73.59l-.21.43-.72,1.45c-.34.7-.69,1.38-1,2.12-.09.21-.19.39-.29.59l-.5,1a5.5,5.5,0,0,0-.29.69h-.21a1.72,1.72,0,0,0-.14-.53c-.1-.22-.21-.44-.32-.66l-1.35-2.73c-.25-.5-.5-1-.73-1.54-.13-.28-.26-.54-.39-.8q-.08-.15-.15-.27a.56.56,0,0,0-.37-.32,2.69,2.69,0,0,0-.4,0h-4a2.83,2.83,0,0,0-.41,0c-.14,0-.26.13-.36.31a3.48,3.48,0,0,0-.22.43c-.31.72-.65,1.37-1,2l-1.5,3a4.69,4.69,0,0,0-.4,1h-.2c-.06-.16-.12-.33-.19-.48-.23-.5-.45-1-.69-1.49-.68-1.4-1.38-2.79-2.07-4.18l-.18-.35c-.12-.21-.26-.34-.41-.35a4.36,4.36,0,0,0-.51,0h-3.83a3.73,3.73,0,0,0-.46,0c-.1,0-.19.1-.28.22s-.1.17-.15.27c-.31.62-.62,1.24-.92,1.88s-.51,1.09-.77,1.62-.6,1.2-.89,1.8c-.09.17-.17.35-.25.52a2,2,0,0,0-.14.53h-.31a2.59,2.59,0,0,0-.21-.68c-.08-.18-.16-.35-.25-.51l-1.32-2.67c-.16-.34-.32-.69-.49-1s-.47-1-.7-1.46a2.26,2.26,0,0,0-.16-.26.41.41,0,0,0-.28-.23,4.38,4.38,0,0,0-.5,0h-3.88a3.73,3.73,0,0,0-.46,0,.48.48,0,0,0-.32.27c-.09.16-.18.32-.26.49-.74,1.49-1.48,3-2.21,4.47-.16.31-.3.65-.44,1a2.23,2.23,0,0,0-.16.63h-.3c0-.14-.1-.28-.15-.4-.29-.62-.58-1.25-.87-1.85-.63-1.29-1.26-2.56-1.89-3.83-.08-.14-.15-.28-.22-.42s-.26-.34-.42-.35a4.36,4.36,0,0,0-.51,0h-3.82a3.73,3.73,0,0,0-.46,0c-.1,0-.19.1-.28.22a1.28,1.28,0,0,0-.11.2c-.35.69-.7,1.37-1,2.1-.19.4-.37.79-.56,1.18-.29.58-.58,1.14-.86,1.72-.13.27-.26.54-.38.81a2.57,2.57,0,0,0-.18.61h-.31a2.09,2.09,0,0,0-.17-.61c-.08-.18-.16-.35-.25-.52l-.82-1.65c-.13-.27-.27-.53-.39-.81-.4-.91-.84-1.75-1.27-2.62a3.81,3.81,0,0,0-.23-.4c-.08-.14-.17-.22-.27-.23a4.38,4.38,0,0,0-.51,0h-3.83l-.46,0c-.16,0-.29.14-.41.35s-.17.33-.25.5l-1.83,3.67c0,.12-.11.24-.17.37l-.66,1.41a3.94,3.94,0,0,0-.22.55h-.2a2.44,2.44,0,0,0-.16-.52l-.24-.52c-.29-.57-.57-1.15-.86-1.72-.53-1.06-1-2.12-1.58-3.17-.08-.17-.16-.33-.25-.5s-.3-.42-.5-.43l-.51,0h-3.77a3.42,3.42,0,0,0-.46,0,.43.43,0,0,0-.28.23,1.61,1.61,0,0,0-.15.26c-.21.41-.41.82-.6,1.24s-.33.69-.49,1l-.72,1.44c-.27.56-.54,1.11-.82,1.66a4.88,4.88,0,0,0-.36,1h-.3a2,2,0,0,0-.14-.53c-.11-.25-.23-.5-.35-.74-.41-.84-.84-1.66-1.23-2.56,0-.1-.09-.19-.14-.29l-1-2c-.09-.16-.17-.33-.26-.48s-.23-.29-.37-.3a4.36,4.36,0,0,0-.51,0h-4c-.38,0-.46.09-.72.59l-.18.36c-.27.56-.55,1.11-.82,1.66-.11.22-.22.44-.32.66-.21.49-.43,1-.66,1.4L1207,50l-.24.52a1.65,1.65,0,0,0-.14.53h-.31a4.93,4.93,0,0,0-.43-1.12c-.58-1.17-1.17-2.35-1.75-3.53-.25-.5-.5-1-.74-1.54a3.36,3.36,0,0,0-.22-.42c-.08-.13-.17-.22-.27-.23a4.38,4.38,0,0,0-.51,0h-3.88l-.41,0c-.15,0-.29.14-.41.35l-.22.42L1195,49.83l-.21.44a2,2,0,0,0-.15.73h-.31c-.08-.18-.14-.38-.23-.55-.42-.83-.82-1.71-1.23-2.56s-1-2-1.46-3c-.06-.12-.12-.23-.18-.36-.15-.31-.34-.44-.55-.44h-4.13l-.46,0a.58.58,0,0,0-.46.37c-.08.16-.17.32-.25.49-.27.53-.53,1.06-.79,1.59l-.42.88c-.19.39-.37.79-.56,1.18l-.64,1.29-.21.45a2.09,2.09,0,0,0-.17.61h-.31a2.49,2.49,0,0,0-.18-.6c-.09-.2-.19-.4-.28-.59-.47-.94-.93-1.87-1.39-2.81-.28-.55-.56-1.1-.81-1.69-.1-.23-.21-.43-.32-.65a1.28,1.28,0,0,0-.11-.2c-.11-.18-.23-.3-.37-.31a4.36,4.36,0,0,0-.51,0h-4.08l-.2,0a.53.53,0,0,0-.32.28c-.13.22-.25.46-.37.7q-1.05,2.11-2.11,4.25-.29.57-.54,1.2c-.06.13-.1.27-.15.41h-.31a2.31,2.31,0,0,0-.19-.7c-.28-.59-.55-1.19-.83-1.77-.6-1.21-1.19-2.41-1.79-3.61-.07-.14-.14-.28-.22-.42s-.25-.34-.41-.35a4.36,4.36,0,0,0-.51,0h-4.08l-.2,0a.46.46,0,0,0-.28.23,3,3,0,0,0-.15.26c-.31.63-.63,1.24-.92,1.88s-.51,1.09-.78,1.62-.54,1.1-.82,1.65l-.24.51a2.33,2.33,0,0,0-.21.69h-.31a2,2,0,0,0-.15-.52c-.09-.2-.18-.4-.28-.59-.76-1.57-1.55-3.08-2.28-4.7-.12-.25-.24-.48-.37-.71a.52.52,0,0,0-.41-.34l-.51,0H1152V0h575.5V44.12h-1.57a2.83,2.83,0,0,0-.41,0,.49.49,0,0,0-.32.26l-.12.2c-.32.64-.64,1.28-.95,1.94s-.48,1-.73,1.54-.6,1.19-.89,1.79c-.08.17-.17.34-.24.52a2.36,2.36,0,0,0-.18.6h-.21a2,2,0,0,0-.15-.52c-.09-.2-.19-.39-.28-.59-.48-1-1-1.93-1.43-2.9-.27-.55-.55-1.1-.8-1.69-.09-.2-.19-.39-.28-.59-.18-.39-.4-.61-.68-.59-.1,0-.2,0-.3,0h-4.24a1.2,1.2,0,0,0-.2,0,.46.46,0,0,0-.28.24c-.09.15-.18.31-.26.47q-1.26,2.54-2.5,5.07a3.9,3.9,0,0,1-.19.35c-.19.33-.39.34-.6,0a3.55,3.55,0,0,1-.29-.55c-.13-.28-.25-.56-.38-.82-.66-1.33-1.31-2.65-2-4l-.18-.36c-.16-.34-.36-.48-.6-.48h-4.59a.65.65,0,0,0-.2,0,.37.37,0,0,0-.23.2,1.64,1.64,0,0,0-.16.26l-.6,1.23c-.12.25-.23.51-.35.75-.52,1.06-1.05,2.12-1.57,3.17-.09.17-.17.34-.26.49a1,1,0,0,1-.17.22.19.19,0,0,1-.3,0,1,1,0,0,1-.16-.22c-.09-.16-.18-.32-.26-.49-.42-.84-.84-1.68-1.25-2.53-.09-.16-.17-.33-.25-.51-.3-.7-.63-1.33-1-2l-.15-.27a.54.54,0,0,0-.42-.34l-.4,0h-4.19c-.4,0-.48.07-.76.65-.57,1.16-1.16,2.28-1.7,3.5-.09.21-.19.4-.28.59l-.54,1.09-.24.52A2,2,0,0,0,1686.15,51Z" style="fill:#8ec449"/><path d="M2262.58,51h-.2a17.53,17.53,0,0,0-.73-1.69l-2-4c-.09-.2-.19-.38-.28-.58-.19-.4-.41-.6-.68-.57h-4.45a1.54,1.54,0,0,0-.3,0,.43.43,0,0,0-.28.24c-.1.18-.2.37-.29.56l-.45,1-1.83,3.67c-.1.22-.21.43-.33.64a1,1,0,0,1-.16.23.21.21,0,0,1-.34,0,1.46,1.46,0,0,1-.17-.24c-.09-.15-.17-.32-.26-.49l-1-2c-.08-.17-.17-.34-.24-.52-.37-.84-.78-1.61-1.17-2.4a3.9,3.9,0,0,0-.19-.35c-.1-.18-.22-.3-.36-.31l-.51,0h-3.83c-.12,0-.24,0-.36,0s-.47.15-.64.52c-.06.13-.12.24-.18.36l-.9,1.8-.31.67c-.19.39-.37.79-.56,1.17s-.4.82-.61,1.23l-.24.52a2.18,2.18,0,0,0-.17.61h-.21a5.49,5.49,0,0,0-.44-1.1c-.23-.49-.47-1-.71-1.45l-1.61-3.24c-.08-.16-.17-.33-.25-.5-.26-.49-.35-.57-.73-.59h-4.43c-.25,0-.47.14-.64.51-.08.18-.17.34-.25.5-.7,1.42-1.41,2.83-2.11,4.25-.11.22-.21.44-.31.66a6.72,6.72,0,0,0-.38,1h-.21a2.18,2.18,0,0,0-.17-.61c-.1-.23-.21-.45-.31-.66-.42-.85-.85-1.67-1.24-2.56a2.59,2.59,0,0,0-.14-.29l-1-2c-.09-.16-.17-.33-.26-.48s-.23-.29-.37-.3a2.83,2.83,0,0,0-.41,0h-4.34a.4.4,0,0,0-.15,0,.5.5,0,0,0-.28.23,1.18,1.18,0,0,0-.11.19c-.37.75-.75,1.49-1.11,2.25-.21.44-.41.89-.63,1.32L2215,49.8l-.25.51a3.11,3.11,0,0,0-.21.69h-.2a2,2,0,0,0-.15-.52c-.09-.2-.19-.4-.28-.59l-1.47-3c-.33-.67-.67-1.33-1-2a4.32,4.32,0,0,0-.22-.43.52.52,0,0,0-.37-.31l-.51,0h-3.88l-.46,0c-.16,0-.29.14-.41.35s-.17.33-.25.5c-.54,1.08-1.08,2.16-1.61,3.24-.1.19-.19.39-.28.59l-.59,1.26a7.57,7.57,0,0,0-.4.91h-.21a2.16,2.16,0,0,0-.16-.62c-.08-.18-.16-.35-.25-.51-.2-.41-.4-.82-.59-1.26-.08-.18-.16-.35-.25-.51-.52-1.06-1-2.12-1.57-3.17-.05-.1-.1-.19-.14-.29-.16-.33-.36-.51-.59-.51H2194a.8.8,0,0,0-.15,0,.5.5,0,0,0-.28.23c-.06.11-.13.22-.19.34-.29.57-.58,1.14-.84,1.75l-.39.81-1.29,2.59c-.09.19-.19.39-.28.59a2,2,0,0,0-.14.53h-.21a4.49,4.49,0,0,0-.39-1l-1.32-2.66c-.33-.67-.67-1.33-1-2-.09-.2-.19-.39-.29-.58a1.28,1.28,0,0,0-.11-.2c-.11-.18-.23-.3-.37-.31l-.51,0h-4.13c-.39,0-.47.09-.73.59l-.11.22c-.48,1-1,2-1.46,3-.07.14-.15.29-.21.44-.23.54-.48,1-.73,1.55-.1.19-.19.39-.28.6a2.4,2.4,0,0,0-.14.53h-.2c-.06-.16-.12-.33-.19-.48-.3-.67-.61-1.35-.93-2l-1-2-.75-1.51c-.09-.2-.19-.38-.29-.56s-.23-.29-.37-.3l-.51,0h-4l-.2,0c-.18,0-.33.13-.46.37s-.15.28-.22.42c-.85,1.7-1.7,3.41-2.54,5.11l-.21.44a2,2,0,0,0-.15.52h-.21a2.49,2.49,0,0,0-.18-.6c-.1-.23-.21-.45-.32-.67-.4-.81-.81-1.63-1.21-2.45l-.45-1c-.27-.56-.54-1.12-.82-1.67a1.73,1.73,0,0,0-.15-.27.46.46,0,0,0-.28-.23,3.57,3.57,0,0,0-.46,0h-4.28l-.16,0a.52.52,0,0,0-.37.3c-.1.18-.19.37-.29.56-.3.59-.6,1.2-.89,1.8-.11.21-.22.42-.32.65-.32.74-.68,1.43-1,2.12l-.36.73a2.66,2.66,0,0,0-.2.69h-.2a1.89,1.89,0,0,0-.13-.44c-.05-.13-.11-.26-.17-.38q-1.33-2.68-2.68-5.39a3.72,3.72,0,0,0-.19-.34.5.5,0,0,0-.37-.3,4.36,4.36,0,0,0-.51,0h-3.77c-.12,0-.24,0-.35,0-.26,0-.47.15-.64.52a.43.43,0,0,1,0,.07l-1.92,3.9a.25.25,0,0,0,0,.07c-.24.57-.5,1.1-.76,1.62a5.66,5.66,0,0,0-.3.7h-.2a2.4,2.4,0,0,0-.14-.53c-.09-.2-.19-.4-.28-.59l-1-2c-.12-.24-.24-.48-.35-.73-.37-.84-.77-1.61-1.17-2.41-.07-.14-.14-.27-.22-.4a.46.46,0,0,0-.28-.23,1.55,1.55,0,0,0-.31,0h-4.34a1.54,1.54,0,0,0-.3,0,.5.5,0,0,0-.28.23l-.12.2c-.38.77-.77,1.52-1.14,2.31-.29.62-.58,1.23-.88,1.83l-.71,1.44a8,8,0,0,0-.38.83h-.1a4.89,4.89,0,0,0-.4-1c-.35-.7-.69-1.4-1-2.09-.46-.94-.93-1.88-1.4-2.81l-.33-.63a.45.45,0,0,0-.33-.27,2.92,2.92,0,0,0-.51,0h-3.88a3.42,3.42,0,0,0-.46,0c-.12,0-.23.11-.33.27l-.33.62-1.65,3.33-.9,1.92-.07.16a2.67,2.67,0,0,0-.13.54h-.2a6.68,6.68,0,0,0-.34-.76c-.45-.92-.9-1.83-1.34-2.77s-.9-1.83-1.36-2.74a2.27,2.27,0,0,0-.19-.34.45.45,0,0,0-.27-.23,1.76,1.76,0,0,0-.31,0h-4.34a1.54,1.54,0,0,0-.3,0,.46.46,0,0,0-.28.24c-.1.18-.2.36-.29.56-.23.54-.49,1-.74,1.54-.54,1.11-1.09,2.21-1.64,3.32-.11.21-.21.43-.32.66a2,2,0,0,0-.15.52h-.2a4.32,4.32,0,0,0-.33-.9c-.08-.17-.16-.34-.25-.5-.61-1.23-1.21-2.45-1.82-3.67-.19-.39-.38-.78-.56-1.17a3.9,3.9,0,0,0-.19-.35.43.43,0,0,0-.27-.25,5.27,5.27,0,0,0-.56,0h-4a3,3,0,0,0-.41,0,.46.46,0,0,0-.27.22,3.79,3.79,0,0,0-.2.34l-1.71,3.45a2.29,2.29,0,0,0-.1.23c-.21.49-.44.94-.67,1.4-.09.19-.19.38-.28.58a2.25,2.25,0,0,0-.16.62h-.31a2.25,2.25,0,0,0-.17-.62,2.29,2.29,0,0,0-.1-.23c-.34-.66-.66-1.35-1-2a1.51,1.51,0,0,0-.11-.22c-.49-1-1-2-1.46-3l-.26-.49c-.1-.16-.21-.26-.33-.27a4.38,4.38,0,0,0-.51,0h-3.88a2.38,2.38,0,0,0-.46,0q-.18,0-.33.27l-.33.62c-.66,1.32-1.31,2.65-2,4-.26.53-.51,1.09-.76,1.64a3.21,3.21,0,0,0-.12.33h-.21a2,2,0,0,0-.15-.52c-.09-.2-.18-.4-.28-.59-.48-1-1-2-1.46-3-.33-.68-.68-1.34-1-2a3.21,3.21,0,0,0-.25-.49.48.48,0,0,0-.28-.24,1.55,1.55,0,0,0-.31,0h-4.33a1.65,1.65,0,0,0-.31,0,.46.46,0,0,0-.28.23l-.3.55-1.14,2.3c-.1.2-.19.39-.28.59-.2.46-.41.9-.63,1.33l-.54,1.08a6.68,6.68,0,0,0-.33.76h-.2a2.3,2.3,0,0,0-.2-.7c-.27-.57-.53-1.15-.8-1.7l-1.86-3.76c-.07-.14-.15-.28-.23-.41a.45.45,0,0,0-.32-.27,2.92,2.92,0,0,0-.51,0h-3.88a2.32,2.32,0,0,0-.46,0c-.12,0-.23.11-.33.27s-.2.36-.29.55q-1.08,2.18-2.15,4.33c-.26.54-.51,1.09-.73,1.69h-.21a1.65,1.65,0,0,0-.14-.53c-.07-.15-.13-.3-.21-.45-.34-.7-.69-1.39-1-2.09-.12-.24-.24-.47-.35-.73-.37-.84-.78-1.61-1.17-2.4-.07-.14-.15-.28-.23-.41a.45.45,0,0,0-.27-.23,1.76,1.76,0,0,0-.31,0h-4.34a1.54,1.54,0,0,0-.3,0,.48.48,0,0,0-.28.24l-.15.26-.57,1.17c-.2.41-.39.84-.59,1.24-.45.92-.91,1.83-1.36,2.74-.11.22-.21.44-.31.66a2,2,0,0,0-.15.53h-.2c-.06-.14-.1-.28-.16-.4-.2-.46-.4-.92-.61-1.35l-2.19-4.41-.22-.41c-.1-.16-.21-.26-.33-.27a2.92,2.92,0,0,0-.51,0h-3.88a3.57,3.57,0,0,0-.46,0,.45.45,0,0,0-.32.27c-.12.2-.23.41-.34.63-.48,1-1,1.92-1.43,2.89-.38.77-.75,1.56-1.12,2.35l0,.08a2.25,2.25,0,0,0-.17.62h-.3a2.61,2.61,0,0,0-.24-.76l-.72-1.44c-.19-.39-.38-.76-.56-1.17-.44-1-.92-1.89-1.38-2.83a4,4,0,0,0-.23-.41.45.45,0,0,0-.27-.23,4.38,4.38,0,0,0-.51,0H2026a.76.76,0,0,0-.21,0,.51.51,0,0,0-.27.24,2.78,2.78,0,0,0-.22.42c-.22.51-.46,1-.7,1.47L2023,49.53l-.31.66a5.47,5.47,0,0,0-.3.81h-.21a2.55,2.55,0,0,0-.12-.44c-.06-.13-.11-.25-.17-.37l-2.68-5.4a3.72,3.72,0,0,0-.19-.34.5.5,0,0,0-.37-.3,5.25,5.25,0,0,0-.56,0H2014l-.2,0a.5.5,0,0,0-.28.23,4,4,0,0,0-.22.41c-.61,1.22-1.23,2.43-1.82,3.67-.32.65-.63,1.33-1,2-.08.17-.15.37-.22.55h-.21a2.09,2.09,0,0,0-.17-.61c-.1-.23-.21-.45-.31-.67-.25-.51-.51-1-.75-1.53-.54-1.2-1.14-2.32-1.7-3.49-.05-.09-.1-.18-.16-.27a.48.48,0,0,0-.32-.27,2.71,2.71,0,0,0-.41,0h-4.09a2,2,0,0,0-.35,0,.54.54,0,0,0-.37.33l-.15.28-2.43,4.9a8.15,8.15,0,0,0-.55,1.34h-.2a6.77,6.77,0,0,0-.43-1.11c-.66-1.32-1.32-2.64-2-4-.19-.38-.38-.78-.56-1.17l-.18-.35a.44.44,0,0,0-.28-.25,1.54,1.54,0,0,0-.3,0h-4.34a1.54,1.54,0,0,0-.3,0,.48.48,0,0,0-.28.24,1.18,1.18,0,0,0-.11.19c-.33.65-.65,1.29-1,1.95s-.51,1.09-.78,1.61-.57,1.15-.85,1.73c-.1.19-.19.39-.28.59a1.65,1.65,0,0,0-.14.53h-.21a9.4,9.4,0,0,0-.47-1.06c-.22-.43-.43-.86-.63-1.33-.08-.17-.16-.34-.25-.51l-1.57-3.18-.22-.42c-.12-.22-.26-.34-.41-.35a5.44,5.44,0,0,0-.57,0h-3.93c-.47,0-.53.06-.86.72l-2.37,4.75c-.12.25-.23.5-.33.77a3,3,0,0,0-.15.64h-.31a4.32,4.32,0,0,0-.32-.9c-.1-.22-.21-.43-.32-.65-.73-1.5-1.49-2.94-2.2-4.49-.09-.2-.19-.38-.29-.56a.46.46,0,0,0-.28-.24,1.54,1.54,0,0,0-.3,0H1966a1.55,1.55,0,0,0-.31,0,.51.51,0,0,0-.28.24l-.15.26c-.16.34-.33.68-.49,1s-.32.69-.49,1l-1.53,3.1c-.11.22-.21.44-.31.66a2.44,2.44,0,0,0-.16.52h-.2a3.21,3.21,0,0,0-.12-.33c-.21-.48-.43-1-.65-1.42-.73-1.48-1.46-2.94-2.19-4.4-.07-.15-.14-.28-.22-.42a.45.45,0,0,0-.33-.27,2.92,2.92,0,0,0-.51,0h-3.88a2.38,2.38,0,0,0-.46,0,.48.48,0,0,0-.32.27c-.13.23-.25.46-.37.7-.64,1.28-1.27,2.55-1.9,3.83-.27.55-.53,1.14-.8,1.71a3.19,3.19,0,0,0-.11.33H1950a2,2,0,0,0-.15-.52c-.1-.23-.2-.45-.31-.67l-1.36-2.73c-.2-.41-.39-.84-.59-1.25l-.57-1.16a1.73,1.73,0,0,0-.15-.27.46.46,0,0,0-.28-.24,1.54,1.54,0,0,0-.3,0H1942a1.65,1.65,0,0,0-.31,0,.51.51,0,0,0-.27.24,4.28,4.28,0,0,0-.33.64c-.18.39-.37.79-.56,1.17-.58,1.18-1.16,2.35-1.75,3.53l-.18.36a4.32,4.32,0,0,0-.32.9H1938a2.18,2.18,0,0,0-.17-.72c-.1-.23-.2-.46-.31-.67-.34-.7-.69-1.4-1-2.1l-1.22-2.45c-.1-.21-.22-.42-.33-.63a.45.45,0,0,0-.32-.27,4.38,4.38,0,0,0-.51,0h-3.84l-.46,0a.51.51,0,0,0-.37.29c-.08.14-.15.28-.22.42-.21.41-.41.82-.61,1.23s-.41.81-.6,1.23c-.26.59-.54,1.14-.81,1.69s-.41.82-.61,1.23a7.58,7.58,0,0,0-.34.76h-.2a2.4,2.4,0,0,0-.14-.53c-.1-.2-.19-.4-.28-.59l-1.08-2.17c-.13-.26-.26-.52-.38-.8-.34-.77-.71-1.47-1.07-2.19a2.59,2.59,0,0,0-.19-.33.41.41,0,0,0-.28-.23,4.38,4.38,0,0,0-.51,0h-4.19a.84.84,0,0,0-.2,0,.37.37,0,0,0-.23.19,4.68,4.68,0,0,0-.3.54c-.84,1.68-1.67,3.37-2.51,5.05a4.89,4.89,0,0,0-.4,1H1914a8.49,8.49,0,0,0-.51-1.26c-.3-.6-.6-1.2-.89-1.8l-1.44-2.88c-.1-.22-.22-.43-.33-.63a.48.48,0,0,0-.32-.27,4.38,4.38,0,0,0-.51,0h-3.88a3.42,3.42,0,0,0-.46,0,.41.41,0,0,0-.28.23,1.64,1.64,0,0,0-.16.26l-.67,1.38c-.2.42-.39.84-.6,1.26-.42.87-.85,1.73-1.28,2.6-.1.19-.19.39-.28.59a1.87,1.87,0,0,0-.15.52h-.2c-.08-.18-.15-.38-.23-.55-.42-.84-.82-1.71-1.23-2.56s-1-2-1.47-3c0-.07-.07-.15-.11-.22-.26-.5-.34-.57-.73-.59h-4.14a3.57,3.57,0,0,0-.46,0,.47.47,0,0,0-.32.28c-.12.2-.23.41-.34.62-.81,1.64-1.62,3.27-2.44,4.91l-.24.51a2.44,2.44,0,0,0-.16.52h-.2a2.64,2.64,0,0,0-.19-.6c-.09-.19-.18-.39-.28-.58-.58-1.18-1.17-2.35-1.75-3.53-.24-.48-.48-.95-.7-1.46a4.13,4.13,0,0,0-.22-.42.49.49,0,0,0-.27-.25,1.65,1.65,0,0,0-.31,0H1882a1.54,1.54,0,0,0-.3,0,.47.47,0,0,0-.28.23,2.4,2.4,0,0,0-.16.27c-.21.43-.43.85-.63,1.31s-.49,1-.74,1.53-.57,1.15-.86,1.72l-.45,1a3.85,3.85,0,0,0-.29.83h-.31a2.25,2.25,0,0,0-.16-.62c0-.08-.07-.15-.11-.22-.33-.67-.66-1.35-1-2.06a1.51,1.51,0,0,0-.11-.22c-.48-1-1-2-1.46-3-.08-.14-.15-.28-.22-.42s-.26-.34-.42-.35a4.36,4.36,0,0,0-.51,0h-4c-.39,0-.47.09-.73.59-.07.15-.14.29-.22.43-.23.49-.47,1-.71,1.45-.35.7-.7,1.38-1,2.12-.09.21-.19.39-.28.59l-.51,1a5.5,5.5,0,0,0-.29.69H1866a1.72,1.72,0,0,0-.14-.53c-.1-.22-.21-.44-.32-.66l-1.35-2.73c-.25-.5-.5-1-.74-1.54-.12-.28-.26-.54-.39-.8a1.17,1.17,0,0,0-.15-.27.52.52,0,0,0-.36-.32,2.83,2.83,0,0,0-.41,0h-4a2.69,2.69,0,0,0-.4,0,.52.52,0,0,0-.37.31c-.07.14-.15.28-.22.43-.31.72-.65,1.37-1,2l-1.5,3a4.69,4.69,0,0,0-.4,1h-.2c-.06-.16-.12-.33-.19-.48-.23-.5-.45-1-.69-1.49l-2.07-4.18-.19-.35c-.12-.21-.25-.34-.41-.35l-.51,0h-3.83a3.42,3.42,0,0,0-.46,0,.44.44,0,0,0-.28.22c-.05.09-.11.17-.16.27-.31.62-.62,1.24-.92,1.88s-.51,1.09-.77,1.62-.6,1.2-.89,1.8c-.09.17-.17.35-.25.52a2,2,0,0,0-.14.53h-.31a3,3,0,0,0-.21-.68c-.08-.18-.17-.35-.25-.51l-1.32-2.67c-.17-.34-.33-.69-.49-1l-.71-1.46-.15-.26c-.09-.13-.18-.22-.28-.23a4.38,4.38,0,0,0-.51,0h-3.88a3.42,3.42,0,0,0-.46,0,.52.52,0,0,0-.33.27l-.26.49c-.74,1.49-1.48,3-2.21,4.47-.16.31-.3.65-.44,1a2.23,2.23,0,0,0-.16.63h-.3c-.06-.14-.1-.28-.16-.4-.28-.62-.57-1.25-.87-1.85-.62-1.29-1.26-2.56-1.89-3.83l-.22-.42c-.12-.21-.25-.34-.41-.35l-.51,0h-3.83a3.42,3.42,0,0,0-.46,0,.42.42,0,0,0-.28.22l-.12.2c-.35.69-.7,1.37-1,2.1-.19.4-.37.79-.56,1.18-.29.58-.58,1.14-.86,1.72l-.39.81a2.57,2.57,0,0,0-.18.61h-.3a2.08,2.08,0,0,0-.18-.61l-.24-.52-.83-1.65c-.13-.27-.26-.53-.38-.81-.41-.91-.85-1.75-1.28-2.62-.07-.14-.15-.28-.22-.4a.4.4,0,0,0-.28-.23,4.38,4.38,0,0,0-.51,0h-3.83a3.44,3.44,0,0,0-.46,0c-.16,0-.3.14-.42.35s-.17.33-.25.5l-1.83,3.67c-.06.12-.12.24-.17.37l-.66,1.41a3.94,3.94,0,0,0-.22.55h-.21a2,2,0,0,0-.15-.52c-.08-.18-.16-.35-.25-.52l-.86-1.72c-.52-1.06-1-2.12-1.57-3.17l-.26-.5c-.14-.27-.3-.42-.5-.43l-.51,0h-3.78a3.57,3.57,0,0,0-.46,0,.43.43,0,0,0-.28.23,1.61,1.61,0,0,0-.15.26c-.21.41-.41.82-.6,1.24s-.33.69-.49,1l-.72,1.44c-.27.56-.55,1.11-.82,1.66a4.34,4.34,0,0,0-.36,1h-.31a1.65,1.65,0,0,0-.13-.53l-.35-.74c-.42-.84-.85-1.66-1.24-2.56,0-.1-.09-.19-.14-.29l-1-2c-.09-.16-.17-.33-.26-.48s-.23-.29-.37-.3l-.51,0h-4c-.38,0-.46.09-.72.59l-.18.36-.82,1.66c-.11.22-.22.44-.32.66-.21.49-.43,1-.66,1.4L1782.6,50c-.09.17-.17.34-.25.52a2.4,2.4,0,0,0-.14.53h-.3a6.08,6.08,0,0,0-.43-1.12c-.59-1.17-1.17-2.35-1.76-3.53-.25-.5-.5-1-.74-1.54a3.36,3.36,0,0,0-.22-.42.41.41,0,0,0-.28-.23,4.38,4.38,0,0,0-.51,0h-3.88l-.41,0c-.15,0-.29.14-.41.35l-.22.42-2.43,4.91-.21.44a2,2,0,0,0-.16.73h-.31c-.07-.18-.14-.38-.22-.55-.42-.83-.82-1.71-1.23-2.56s-1-2-1.47-3l-.18-.36c-.15-.31-.34-.44-.55-.44h-4.14l-.46,0c-.18,0-.33.12-.46.37L1761,45l-.78,1.59c-.15.29-.28.58-.42.88s-.38.79-.56,1.18l-.65,1.29-.21.45a2.09,2.09,0,0,0-.17.61h-.31a2.49,2.49,0,0,0-.18-.6c-.09-.2-.18-.4-.28-.59-.46-.94-.93-1.87-1.4-2.81-.27-.55-.55-1.1-.8-1.69-.1-.23-.21-.43-.32-.65l-.11-.2c-.11-.18-.23-.3-.37-.31l-.51,0h-4.09a.69.69,0,0,0-.2,0,.53.53,0,0,0-.32.28c-.13.22-.25.46-.37.7q-1.07,2.11-2.11,4.25c-.19.38-.38.78-.55,1.2l-.15.41h-.3a2.3,2.3,0,0,0-.2-.7c-.28-.59-.55-1.19-.83-1.77-.6-1.21-1.19-2.41-1.79-3.61l-.22-.42c-.12-.21-.25-.34-.41-.35a4.36,4.36,0,0,0-.51,0h-4.09a.69.69,0,0,0-.2,0,.46.46,0,0,0-.28.23,1.61,1.61,0,0,0-.15.26c-.31.63-.63,1.24-.93,1.88s-.51,1.09-.77,1.62-.55,1.1-.82,1.65c-.09.17-.17.34-.25.51a2.33,2.33,0,0,0-.21.69h-.31a2,2,0,0,0-.15-.52c-.09-.2-.18-.4-.28-.59-.76-1.57-1.55-3.08-2.29-4.7-.11-.25-.24-.48-.36-.71s-.26-.33-.41-.34l-.51,0h-2.34V0H2304V44.12h-1.58a2.69,2.69,0,0,0-.4,0,.53.53,0,0,0-.33.26,1.28,1.28,0,0,0-.11.2c-.32.64-.65,1.28-1,1.94s-.48,1-.73,1.54-.59,1.19-.89,1.79l-.24.52a2.36,2.36,0,0,0-.18.6h-.2a2.44,2.44,0,0,0-.16-.52c-.09-.2-.19-.39-.28-.59-.48-1-1-1.93-1.43-2.9-.27-.55-.55-1.1-.81-1.69-.08-.2-.19-.39-.28-.59-.18-.39-.4-.61-.67-.59-.11,0-.21,0-.31,0h-4.24l-.21,0a.48.48,0,0,0-.28.24c-.09.15-.18.31-.26.47l-2.5,5.07a3.9,3.9,0,0,1-.19.35c-.19.33-.39.34-.6,0a4.68,4.68,0,0,1-.3-.55c-.12-.28-.24-.56-.37-.82-.66-1.33-1.32-2.65-2-4l-.19-.36c-.16-.34-.36-.48-.59-.48h-4.6a.78.78,0,0,0-.21,0,.42.42,0,0,0-.23.2,3,3,0,0,0-.16.26l-.6,1.23c-.12.25-.23.51-.34.75L2275,49.78c-.09.17-.17.34-.26.49a1,1,0,0,1-.17.22.19.19,0,0,1-.3,0,1,1,0,0,1-.17-.22l-.26-.49c-.41-.84-.83-1.68-1.25-2.53-.08-.16-.17-.33-.24-.51-.3-.7-.63-1.33-1-2,0-.09-.1-.18-.15-.27a.52.52,0,0,0-.41-.34l-.41,0h-4.19c-.41,0-.49.07-.77.65-.57,1.16-1.16,2.28-1.7,3.5-.09.21-.19.4-.28.59L2263,50l-.24.52A2,2,0,0,0,2262.58,51Z" style="fill:#8ec449"/><rect x="2304.13" y="27" width="1151.3" height="114" style="fill:#a47b55"/><polygon points="2304 77 2354 105 2402 77 2449 105 2497 77 2546 105 2592 75 2642 105 2690 75 2738 105 2785 77 2835 105 2881 77 2930 105 2978 77 3026 105 3074 75 3124 105 3170 77 3218 105 3266 75 3315 105 3363 77 3411 105 3455 77 3455 39 3413 66 3363 38 3316 67 3266 38 3219 66 3171 38 3122 66 3074 38 3026 68 2978 38 2929 67 2881 38 2835 66 2785 38 2738 67 2690 38 2642 66 2594 38 2545 67 2497 38 2450 66 2401 38 2354 66 2304 39 2304 77" style="fill:#8b623c"/><polygon points="2304 108 2352 133 2401 105 2450 133 2497 105 2548 133 2594 105 2643 133 2690 105 2738 133 2785 105 2836 133 2881 105 2930 133 2978 105 3027 133 3074 105 3122 133 3169 105 3219 133 3265 105 3316 133 3361 105 3411 133 3455 108 3455 141 2304 141 2304 108" style="fill:#8b623c"/><path d="M2837.15,51h-.2a17.53,17.53,0,0,0-.73-1.69c-.67-1.34-1.33-2.69-2-4-.1-.2-.2-.38-.29-.58-.18-.4-.4-.6-.68-.57h-4.43a1.54,1.54,0,0,0-.3,0,.43.43,0,0,0-.28.24c-.1.18-.2.37-.29.56s-.3.65-.45,1c-.61,1.23-1.22,2.45-1.82,3.67l-.33.64a1.06,1.06,0,0,1-.17.23.21.21,0,0,1-.34,0,1.46,1.46,0,0,1-.17-.24c-.08-.15-.17-.32-.25-.49-.34-.67-.67-1.34-1-2-.09-.17-.17-.34-.25-.52-.36-.84-.77-1.61-1.16-2.4a3.9,3.9,0,0,0-.19-.35c-.1-.18-.22-.3-.37-.31a4.07,4.07,0,0,0-.5,0h-3.83c-.12,0-.24,0-.35,0s-.47.15-.64.52c-.06.13-.12.24-.18.36-.3.6-.6,1.2-.89,1.8-.11.22-.21.44-.32.67-.18.39-.37.79-.56,1.17s-.4.82-.6,1.23c-.09.17-.17.34-.25.52a2.18,2.18,0,0,0-.17.61h-.2a7,7,0,0,0-.44-1.1l-.72-1.45-1.6-3.24-.25-.5c-.26-.49-.35-.57-.73-.59h-4.42c-.25,0-.47.14-.64.51-.08.18-.17.34-.25.5-.7,1.42-1.4,2.83-2.11,4.25l-.31.66a8.18,8.18,0,0,0-.38,1h-.2a2.57,2.57,0,0,0-.18-.61c-.1-.23-.2-.45-.31-.66-.41-.85-.84-1.67-1.23-2.56a2.59,2.59,0,0,0-.14-.29l-1-2c-.09-.16-.17-.33-.26-.48s-.23-.29-.37-.3a2.83,2.83,0,0,0-.41,0h-4.33a.4.4,0,0,0-.15,0,.5.5,0,0,0-.28.23,1.18,1.18,0,0,0-.11.19c-.37.75-.75,1.49-1.11,2.25-.2.44-.41.89-.62,1.32l-.83,1.65-.24.51a2.33,2.33,0,0,0-.21.69H2789a2,2,0,0,0-.15-.52l-.27-.59-1.47-3c-.33-.67-.67-1.33-1-2a4.32,4.32,0,0,0-.22-.43.52.52,0,0,0-.37-.31l-.51,0h-3.87l-.46,0c-.16,0-.29.14-.41.35s-.17.33-.25.5l-1.61,3.24c-.09.19-.18.39-.28.59-.19.42-.39.84-.59,1.26a9.58,9.58,0,0,0-.4.91h-.2a2.16,2.16,0,0,0-.17-.62l-.24-.51c-.2-.41-.4-.82-.59-1.26-.08-.18-.16-.35-.25-.51-.52-1.06-1-2.12-1.57-3.17,0-.1-.1-.19-.14-.29-.16-.33-.35-.51-.59-.51h-4.64a.8.8,0,0,0-.15,0,.5.5,0,0,0-.28.23c-.06.11-.13.22-.19.34-.28.57-.57,1.14-.84,1.75-.12.28-.26.54-.39.81-.42.86-.85,1.73-1.28,2.59-.1.19-.19.39-.28.59a1.65,1.65,0,0,0-.14.53H2765a5,5,0,0,0-.39-1l-1.32-2.66c-.33-.67-.67-1.33-1-2-.09-.2-.19-.39-.29-.58a1.28,1.28,0,0,0-.11-.2c-.11-.18-.23-.3-.37-.31l-.51,0h-4.12c-.38,0-.46.09-.73.59l-.1.22-1.47,3-.21.44c-.23.54-.48,1-.73,1.55l-.27.6a2,2,0,0,0-.14.53h-.2c-.06-.16-.12-.33-.19-.48-.31-.67-.61-1.35-.93-2s-.67-1.34-1-2l-.75-1.51c-.1-.2-.2-.38-.3-.56a.48.48,0,0,0-.37-.3,4.36,4.36,0,0,0-.51,0h-4l-.2,0c-.18,0-.33.13-.46.37l-.22.42L2741.55,50l-.21.44a2.44,2.44,0,0,0-.16.52h-.2a2.49,2.49,0,0,0-.18-.6c-.1-.23-.21-.45-.32-.67-.4-.81-.8-1.63-1.21-2.45l-.45-1-.81-1.67a1.75,1.75,0,0,0-.16-.27.45.45,0,0,0-.27-.23,3.73,3.73,0,0,0-.46,0h-4.28l-.15,0a.5.5,0,0,0-.37.3l-.3.56-.89,1.8c-.11.21-.22.42-.32.65-.32.74-.67,1.43-1,2.12l-.36.73a2.66,2.66,0,0,0-.2.69h-.2a1.89,1.89,0,0,0-.13-.44c0-.13-.11-.26-.17-.38l-2.67-5.39c-.06-.12-.13-.23-.19-.34s-.23-.29-.37-.3l-.51,0h-3.76c-.12,0-.24,0-.36,0s-.47.15-.64.52l0,.07c-.65,1.3-1.29,2.6-1.93,3.9l0,.07c-.24.57-.5,1.1-.76,1.62a5.66,5.66,0,0,0-.3.7h-.2a2.4,2.4,0,0,0-.14-.53c-.09-.2-.19-.4-.28-.59l-1-2c-.12-.24-.25-.48-.36-.73-.36-.84-.77-1.61-1.16-2.41-.07-.14-.15-.27-.23-.4a.45.45,0,0,0-.27-.23,1.76,1.76,0,0,0-.31,0H2709a1.76,1.76,0,0,0-.31,0,.48.48,0,0,0-.27.23l-.12.2c-.38.77-.77,1.52-1.14,2.31-.29.62-.58,1.23-.88,1.83l-.71,1.44a8,8,0,0,0-.37.83H2705a4.89,4.89,0,0,0-.4-1c-.34-.7-.69-1.4-1-2.09-.47-.94-.93-1.88-1.4-2.81l-.33-.63c-.1-.16-.21-.26-.33-.27a2.92,2.92,0,0,0-.51,0h-3.88a3.73,3.73,0,0,0-.46,0,.45.45,0,0,0-.32.27l-.33.62c-.55,1.11-1.1,2.21-1.65,3.33-.3.63-.6,1.28-.9,1.92l-.06.16a2.13,2.13,0,0,0-.14.54h-.2c-.1-.28-.22-.52-.33-.76-.45-.92-.91-1.83-1.34-2.77s-.9-1.83-1.36-2.74a3.72,3.72,0,0,0-.19-.34.44.44,0,0,0-.28-.23,1.54,1.54,0,0,0-.3,0H2685a1.76,1.76,0,0,0-.31,0,.47.47,0,0,0-.27.24c-.1.18-.2.36-.29.56-.24.54-.49,1-.74,1.54-.54,1.11-1.09,2.21-1.64,3.32-.11.21-.21.43-.31.66a2,2,0,0,0-.15.52h-.21a4.32,4.32,0,0,0-.32-.9c-.09-.17-.17-.34-.25-.5-.61-1.23-1.22-2.45-1.82-3.67l-.57-1.17a2.31,2.31,0,0,0-.18-.35.46.46,0,0,0-.27-.25,5.27,5.27,0,0,0-.56,0h-4a2.85,2.85,0,0,0-.41,0,.48.48,0,0,0-.28.22c-.06.11-.13.22-.19.34l-1.71,3.45c0,.08-.07.15-.1.23-.21.49-.44.94-.66,1.4-.1.19-.19.38-.28.58a2.25,2.25,0,0,0-.17.62H2669a2.25,2.25,0,0,0-.16-.62c0-.08-.07-.15-.1-.23-.34-.66-.67-1.35-1-2l-.11-.22-1.47-3c-.08-.17-.17-.33-.26-.49a.45.45,0,0,0-.32-.27,4.38,4.38,0,0,0-.51,0h-3.87a2.32,2.32,0,0,0-.46,0,.44.44,0,0,0-.33.27l-.33.62c-.65,1.32-1.31,2.65-2,4-.26.53-.51,1.09-.76,1.64l-.12.33h-.2a2,2,0,0,0-.15-.52c-.09-.2-.19-.4-.28-.59-.49-1-1-2-1.46-3-.34-.68-.68-1.34-1-2a3.21,3.21,0,0,0-.25-.49.48.48,0,0,0-.28-.24,1.54,1.54,0,0,0-.3,0H2649a1.55,1.55,0,0,0-.31,0,.46.46,0,0,0-.28.23l-.3.55-1.14,2.3c-.09.2-.19.39-.28.59-.2.46-.41.9-.63,1.33s-.35.72-.53,1.08a5.27,5.27,0,0,0-.33.76H2645a2.05,2.05,0,0,0-.2-.7c-.26-.57-.52-1.15-.79-1.7l-1.86-3.76-.22-.41c-.1-.16-.21-.26-.33-.27a2.92,2.92,0,0,0-.51,0h-3.87a2.32,2.32,0,0,0-.46,0c-.12,0-.23.11-.33.27s-.2.36-.29.55c-.72,1.45-1.43,2.89-2.15,4.33-.26.54-.5,1.09-.73,1.69h-.2a2,2,0,0,0-.14-.53l-.21-.45c-.34-.7-.69-1.39-1-2.09-.12-.24-.24-.47-.36-.73-.36-.84-.77-1.61-1.16-2.4l-.22-.41a.46.46,0,0,0-.28-.23,1.55,1.55,0,0,0-.31,0H2625a1.55,1.55,0,0,0-.31,0,.48.48,0,0,0-.28.24l-.15.26c-.19.39-.38.77-.56,1.17s-.4.84-.6,1.24l-1.35,2.74-.32.66a2,2,0,0,0-.14.53h-.21a3.71,3.71,0,0,0-.15-.4c-.2-.46-.4-.92-.62-1.35-.72-1.48-1.45-2.94-2.18-4.41-.07-.14-.14-.28-.22-.41a.45.45,0,0,0-.32-.27,2.92,2.92,0,0,0-.51,0h-3.88a3.57,3.57,0,0,0-.46,0,.45.45,0,0,0-.32.27,6.25,6.25,0,0,0-.33.63c-.48,1-1,1.92-1.43,2.89-.38.77-.75,1.56-1.12,2.35l0,.08a2.25,2.25,0,0,0-.16.62h-.3a3,3,0,0,0-.24-.76l-.72-1.44c-.19-.39-.38-.76-.56-1.17-.44-1-.92-1.89-1.38-2.83a4,4,0,0,0-.22-.41.46.46,0,0,0-.28-.23,4.38,4.38,0,0,0-.51,0H2601a.64.64,0,0,0-.2,0,.49.49,0,0,0-.28.24,4.13,4.13,0,0,0-.22.42c-.22.51-.46,1-.7,1.47l-1.6,3.24-.31.66a3.88,3.88,0,0,0-.3.81h-.21a2.55,2.55,0,0,0-.12-.44c-.06-.13-.11-.25-.17-.37l-2.68-5.4-.18-.34c-.11-.18-.23-.29-.37-.3l-.56,0H2589a.76.76,0,0,0-.21,0,.48.48,0,0,0-.27.23,4,4,0,0,0-.23.41c-.61,1.22-1.22,2.43-1.82,3.67-.31.65-.62,1.33-.94,2-.08.17-.15.37-.22.55h-.21a2.09,2.09,0,0,0-.17-.61c-.1-.23-.21-.45-.31-.67-.25-.51-.51-1-.75-1.53-.54-1.2-1.13-2.32-1.7-3.49l-.15-.27a.48.48,0,0,0-.32-.27,2.85,2.85,0,0,0-.41,0h-4.08a2.19,2.19,0,0,0-.36,0c-.14,0-.26.14-.36.33l-.15.28-2.43,4.9a8.15,8.15,0,0,0-.55,1.34h-.2a6,6,0,0,0-.43-1.11l-2-4c-.19-.38-.37-.78-.56-1.17l-.18-.35a.46.46,0,0,0-.27-.25,1.65,1.65,0,0,0-.31,0h-4.32a1.76,1.76,0,0,0-.31,0,.47.47,0,0,0-.27.24l-.12.19c-.32.65-.65,1.29-1,1.95s-.51,1.09-.77,1.61-.57,1.15-.85,1.73c-.1.19-.19.39-.28.59a1.65,1.65,0,0,0-.14.53h-.21a7.89,7.89,0,0,0-.47-1.06c-.21-.43-.43-.86-.63-1.33l-.24-.51c-.53-1.06-1-2.12-1.57-3.18-.08-.14-.15-.28-.22-.42s-.26-.34-.42-.35a5.12,5.12,0,0,0-.56,0h-3.93c-.46,0-.52.06-.85.72l-2.37,4.75c-.12.25-.23.5-.33.77a3,3,0,0,0-.15.64h-.3a4.32,4.32,0,0,0-.32-.9l-.33-.65c-.73-1.5-1.49-2.94-2.19-4.49-.09-.2-.19-.38-.29-.56a.48.48,0,0,0-.28-.24,1.54,1.54,0,0,0-.3,0h-4.33a1.54,1.54,0,0,0-.3,0,.46.46,0,0,0-.28.24l-.15.26c-.17.34-.33.68-.49,1s-.32.69-.49,1l-1.53,3.1-.31.66a2,2,0,0,0-.15.52h-.21a3.21,3.21,0,0,0-.12-.33c-.21-.48-.42-1-.65-1.42-.72-1.48-1.45-2.94-2.18-4.4-.07-.15-.15-.28-.22-.42s-.2-.26-.33-.27a2.92,2.92,0,0,0-.51,0h-3.87a2.32,2.32,0,0,0-.46,0,.49.49,0,0,0-.33.27l-.36.7c-.64,1.28-1.27,2.55-1.9,3.83-.27.55-.53,1.14-.79,1.71a3.21,3.21,0,0,0-.12.33h-.2a2.45,2.45,0,0,0-.15-.52c-.11-.23-.21-.45-.32-.67l-1.35-2.73c-.2-.41-.39-.84-.59-1.25l-.57-1.16a1.73,1.73,0,0,0-.15-.27.46.46,0,0,0-.28-.24,1.54,1.54,0,0,0-.3,0h-4.32a1.55,1.55,0,0,0-.31,0,.56.56,0,0,0-.28.24,5.46,5.46,0,0,0-.32.64c-.18.39-.37.79-.56,1.17l-1.74,3.53-.18.36a5,5,0,0,0-.33.9h-.3a2.18,2.18,0,0,0-.17-.72c-.1-.23-.21-.46-.31-.67-.35-.7-.7-1.4-1-2.1s-.81-1.63-1.22-2.45c-.1-.21-.22-.42-.33-.63a.45.45,0,0,0-.32-.27,4.38,4.38,0,0,0-.51,0h-3.83a3.55,3.55,0,0,0-.46,0,.51.51,0,0,0-.37.29c-.08.14-.15.28-.22.42-.21.41-.41.82-.61,1.23s-.41.81-.6,1.23c-.26.59-.53,1.14-.81,1.69s-.4.82-.61,1.23a7.56,7.56,0,0,0-.33.76h-.21a1.65,1.65,0,0,0-.14-.53c-.09-.2-.18-.4-.28-.59-.35-.72-.71-1.44-1.07-2.17-.13-.26-.26-.52-.39-.8-.33-.77-.7-1.47-1.05-2.19a2.63,2.63,0,0,0-.2-.33c-.08-.13-.17-.22-.27-.23a4.38,4.38,0,0,0-.51,0h-4.19a.84.84,0,0,0-.2,0,.4.4,0,0,0-.23.19c-.1.17-.21.35-.3.54-.84,1.68-1.67,3.37-2.51,5.05a6.27,6.27,0,0,0-.4,1h-.2a9.73,9.73,0,0,0-.51-1.26l-.9-1.8c-.47-1-.95-1.92-1.43-2.88a6.25,6.25,0,0,0-.33-.63.48.48,0,0,0-.32-.27,4.38,4.38,0,0,0-.51,0h-3.87a3.42,3.42,0,0,0-.46,0,.41.41,0,0,0-.28.23,1.64,1.64,0,0,0-.16.26l-.67,1.38-.59,1.26c-.43.87-.86,1.73-1.28,2.6-.1.19-.19.39-.28.59a1.87,1.87,0,0,0-.15.52h-.21c-.07-.18-.14-.38-.22-.55-.42-.84-.82-1.71-1.23-2.56s-1-2-1.47-3c0-.07-.07-.15-.11-.22-.26-.5-.34-.57-.72-.59h-4.14a3.57,3.57,0,0,0-.46,0,.47.47,0,0,0-.32.28c-.11.2-.23.41-.33.62-.82,1.64-1.63,3.27-2.44,4.91l-.24.51a2.44,2.44,0,0,0-.16.52h-.2a2.64,2.64,0,0,0-.19-.6l-.28-.58c-.58-1.18-1.16-2.35-1.75-3.53-.23-.48-.47-.95-.7-1.46a2.78,2.78,0,0,0-.22-.42.46.46,0,0,0-.27-.25,1.54,1.54,0,0,0-.3,0h-4.33a1.54,1.54,0,0,0-.3,0,.47.47,0,0,0-.28.23,2.34,2.34,0,0,0-.15.27c-.22.43-.43.85-.64,1.31s-.48,1-.73,1.53l-.86,1.72c-.16.32-.31.63-.46,1a4.49,4.49,0,0,0-.28.83h-.31a2,2,0,0,0-.17-.62,1.47,1.47,0,0,0-.1-.22c-.33-.67-.66-1.35-1-2.06,0-.08-.07-.15-.1-.22l-1.47-3-.22-.42c-.12-.21-.25-.34-.41-.35l-.51,0h-4c-.38,0-.46.09-.73.59l-.21.43-.72,1.45c-.34.7-.69,1.38-1,2.12-.09.21-.19.39-.29.59l-.5,1a5.5,5.5,0,0,0-.29.69h-.21a1.72,1.72,0,0,0-.14-.53c-.1-.22-.21-.44-.32-.66l-1.35-2.73c-.25-.5-.5-1-.73-1.54-.13-.28-.26-.54-.39-.8l-.15-.27a.56.56,0,0,0-.37-.32,2.69,2.69,0,0,0-.4,0h-4a2.83,2.83,0,0,0-.41,0c-.14,0-.26.13-.36.31a3.48,3.48,0,0,0-.22.43c-.31.72-.65,1.37-1,2l-1.5,3a4.69,4.69,0,0,0-.4,1h-.2c-.06-.16-.12-.33-.19-.48-.23-.5-.45-1-.69-1.49-.68-1.4-1.38-2.79-2.07-4.18l-.18-.35c-.12-.21-.26-.34-.41-.35l-.51,0h-3.83a3.73,3.73,0,0,0-.46,0c-.1,0-.19.1-.28.22l-.15.27c-.31.62-.62,1.24-.92,1.88s-.51,1.09-.77,1.62-.6,1.2-.89,1.8c-.09.17-.17.35-.25.52a2,2,0,0,0-.14.53h-.31a2.59,2.59,0,0,0-.21-.68c-.08-.18-.16-.35-.25-.51l-1.32-2.67c-.16-.34-.32-.69-.49-1s-.47-1-.7-1.46a2.26,2.26,0,0,0-.16-.26.41.41,0,0,0-.28-.23,4.38,4.38,0,0,0-.5,0h-3.88a3.73,3.73,0,0,0-.46,0,.48.48,0,0,0-.32.27c-.09.16-.18.32-.26.49-.74,1.49-1.48,3-2.21,4.47-.16.31-.3.65-.44,1a2.23,2.23,0,0,0-.16.63h-.3c-.05-.14-.1-.28-.15-.4-.29-.62-.58-1.25-.87-1.85-.63-1.29-1.26-2.56-1.89-3.83-.08-.14-.15-.28-.22-.42s-.26-.34-.42-.35l-.51,0h-3.82a3.73,3.73,0,0,0-.46,0c-.1,0-.19.1-.28.22a1.28,1.28,0,0,0-.11.2c-.35.69-.7,1.37-1,2.1-.19.4-.37.79-.56,1.18-.29.58-.58,1.14-.86,1.72-.13.27-.26.54-.38.81a2.57,2.57,0,0,0-.18.61h-.31a2.09,2.09,0,0,0-.17-.61c-.08-.18-.16-.35-.25-.52l-.82-1.65c-.13-.27-.27-.53-.39-.81-.4-.91-.84-1.75-1.27-2.62a3.81,3.81,0,0,0-.23-.4c-.08-.14-.17-.22-.27-.23a4.38,4.38,0,0,0-.51,0h-3.83l-.46,0c-.16,0-.29.14-.41.35s-.17.33-.25.5l-1.83,3.67c0,.12-.11.24-.17.37l-.66,1.41a3.94,3.94,0,0,0-.22.55h-.2a2.44,2.44,0,0,0-.16-.52l-.24-.52c-.29-.57-.57-1.15-.86-1.72-.53-1.06-1.05-2.12-1.58-3.17-.08-.17-.16-.33-.25-.5s-.3-.42-.5-.43l-.51,0h-3.77a3.42,3.42,0,0,0-.46,0,.43.43,0,0,0-.28.23,1.61,1.61,0,0,0-.15.26c-.21.41-.41.82-.6,1.24s-.33.69-.49,1l-.72,1.44c-.27.56-.54,1.11-.82,1.66a4.88,4.88,0,0,0-.36,1h-.3a2,2,0,0,0-.14-.53c-.11-.25-.23-.5-.35-.74-.41-.84-.84-1.66-1.23-2.56,0-.1-.09-.19-.14-.29l-1-2c-.09-.16-.17-.33-.26-.48s-.23-.29-.37-.3l-.51,0h-4c-.38,0-.46.09-.72.59l-.18.36c-.27.56-.55,1.11-.82,1.66-.11.22-.22.44-.32.66-.21.49-.43,1-.66,1.4L2358,50l-.24.52a1.65,1.65,0,0,0-.14.53h-.31a4.93,4.93,0,0,0-.43-1.12c-.58-1.17-1.17-2.35-1.75-3.53-.25-.5-.5-1-.74-1.54a3.36,3.36,0,0,0-.22-.42c-.08-.13-.17-.22-.27-.23a4.38,4.38,0,0,0-.51,0h-3.88l-.41,0c-.15,0-.29.14-.41.35l-.22.42L2346,49.83l-.21.44a2,2,0,0,0-.15.73h-.31c-.08-.18-.14-.38-.23-.55-.42-.83-.82-1.71-1.23-2.56s-1-2-1.46-3c-.06-.12-.12-.23-.18-.36-.15-.31-.34-.44-.55-.44h-4.13l-.46,0a.58.58,0,0,0-.46.37c-.08.16-.17.32-.25.49-.27.53-.53,1.06-.79,1.59l-.42.88c-.19.39-.37.79-.56,1.18l-.64,1.29-.21.45a2.09,2.09,0,0,0-.17.61h-.31a2.49,2.49,0,0,0-.18-.6c-.09-.2-.19-.4-.28-.59-.47-.94-.93-1.87-1.39-2.81-.28-.55-.56-1.1-.81-1.69-.1-.23-.21-.43-.32-.65a1.28,1.28,0,0,0-.11-.2c-.11-.18-.23-.3-.37-.31l-.51,0h-4.08l-.2,0a.53.53,0,0,0-.32.28c-.13.22-.25.46-.37.7q-1.05,2.11-2.11,4.25-.29.57-.54,1.2c-.06.13-.1.27-.15.41h-.31a2.31,2.31,0,0,0-.19-.7c-.28-.59-.55-1.19-.83-1.77-.6-1.21-1.19-2.41-1.79-3.61-.07-.14-.14-.28-.22-.42s-.25-.34-.41-.35l-.51,0h-4.08l-.2,0a.46.46,0,0,0-.28.23,3,3,0,0,0-.15.26c-.31.63-.63,1.24-.92,1.88s-.51,1.09-.78,1.62-.54,1.1-.82,1.65l-.24.51a2.33,2.33,0,0,0-.21.69h-.31a2,2,0,0,0-.15-.52c-.09-.2-.18-.4-.28-.59-.76-1.57-1.55-3.08-2.28-4.7-.12-.25-.24-.48-.37-.71a.52.52,0,0,0-.41-.34l-.51,0H2303V0h575.5V44.12h-1.57a2.83,2.83,0,0,0-.41,0,.49.49,0,0,0-.32.26l-.12.2c-.32.64-.64,1.28-.95,1.94s-.48,1-.73,1.54-.6,1.19-.89,1.79c-.08.17-.17.34-.24.52a2.36,2.36,0,0,0-.18.6h-.21a2,2,0,0,0-.15-.52c-.09-.2-.19-.39-.28-.59-.48-1-.95-1.93-1.43-2.9-.27-.55-.55-1.1-.8-1.69-.09-.2-.19-.39-.28-.59-.18-.39-.4-.61-.68-.59-.1,0-.2,0-.3,0h-4.24a1.2,1.2,0,0,0-.2,0,.46.46,0,0,0-.28.24c-.09.15-.18.31-.26.47q-1.26,2.54-2.5,5.07a3.9,3.9,0,0,1-.19.35c-.19.33-.39.34-.6,0a3.55,3.55,0,0,1-.29-.55c-.13-.28-.25-.56-.38-.82-.66-1.33-1.31-2.65-2-4l-.18-.36c-.16-.34-.36-.48-.6-.48h-4.59a.65.65,0,0,0-.2,0,.37.37,0,0,0-.23.2,1.64,1.64,0,0,0-.16.26l-.6,1.23c-.12.25-.23.51-.35.75-.52,1.06-1,2.12-1.57,3.17-.09.17-.17.34-.26.49a1,1,0,0,1-.17.22.19.19,0,0,1-.3,0,1,1,0,0,1-.16-.22c-.09-.16-.18-.32-.26-.49-.42-.84-.84-1.68-1.25-2.53-.09-.16-.17-.33-.25-.51-.3-.7-.63-1.33-1-2l-.15-.27a.54.54,0,0,0-.42-.34l-.4,0h-4.19c-.4,0-.48.07-.76.65-.57,1.16-1.16,2.28-1.7,3.5-.09.21-.19.4-.28.59l-.54,1.09-.24.52A2,2,0,0,0,2837.15,51Z" style="fill:#8ec449"/><path d="M3413.58,51h-.2a17.53,17.53,0,0,0-.73-1.69l-2-4c-.09-.2-.19-.38-.28-.58-.19-.4-.41-.6-.68-.57h-4.45a1.54,1.54,0,0,0-.3,0,.43.43,0,0,0-.28.24c-.1.18-.2.37-.29.56l-.45,1-1.83,3.67c-.1.22-.21.43-.33.64a1,1,0,0,1-.16.23.21.21,0,0,1-.34,0,1.46,1.46,0,0,1-.17-.24c-.09-.15-.17-.32-.26-.49l-1-2c-.08-.17-.17-.34-.24-.52-.37-.84-.78-1.61-1.17-2.4a3.9,3.9,0,0,0-.19-.35c-.1-.18-.22-.3-.36-.31l-.51,0h-3.83c-.12,0-.24,0-.36,0s-.47.15-.64.52c-.06.13-.12.24-.18.36l-.9,1.8-.31.67c-.19.39-.37.79-.56,1.17s-.4.82-.61,1.23l-.24.52a2.18,2.18,0,0,0-.17.61h-.21a5.49,5.49,0,0,0-.44-1.1c-.23-.49-.47-1-.71-1.45l-1.61-3.24c-.08-.16-.17-.33-.25-.5-.26-.49-.35-.57-.73-.59h-4.43c-.25,0-.47.14-.64.51-.08.18-.17.34-.25.5-.7,1.42-1.41,2.83-2.11,4.25-.11.22-.21.44-.31.66a6.72,6.72,0,0,0-.38,1h-.21a2.18,2.18,0,0,0-.17-.61c-.1-.23-.21-.45-.31-.66-.42-.85-.85-1.67-1.24-2.56a2.59,2.59,0,0,0-.14-.29l-1-2c-.09-.16-.17-.33-.26-.48s-.23-.29-.37-.3a2.83,2.83,0,0,0-.41,0h-4.34a.4.4,0,0,0-.15,0,.5.5,0,0,0-.28.23,1.18,1.18,0,0,0-.11.19c-.37.75-.75,1.49-1.11,2.25-.21.44-.41.89-.63,1.32L3366,49.8l-.25.51a3.11,3.11,0,0,0-.21.69h-.2a2,2,0,0,0-.15-.52c-.09-.2-.19-.4-.28-.59l-1.47-3c-.33-.67-.67-1.33-1-2a4.32,4.32,0,0,0-.22-.43.52.52,0,0,0-.37-.31l-.51,0h-3.88l-.46,0c-.16,0-.29.14-.41.35s-.17.33-.25.5c-.54,1.08-1.08,2.16-1.61,3.24-.1.19-.19.39-.28.59l-.59,1.26a7.57,7.57,0,0,0-.4.91h-.21a2.16,2.16,0,0,0-.16-.62c-.08-.18-.16-.35-.25-.51-.2-.41-.4-.82-.59-1.26-.08-.18-.16-.35-.25-.51-.52-1.06-1-2.12-1.57-3.17-.05-.1-.1-.19-.14-.29-.16-.33-.36-.51-.59-.51H3345a.8.8,0,0,0-.15,0,.5.5,0,0,0-.28.23c-.06.11-.13.22-.19.34-.29.57-.58,1.14-.84,1.75l-.39.81-1.29,2.59c-.09.19-.19.39-.28.59a2,2,0,0,0-.14.53h-.21a4.49,4.49,0,0,0-.39-1l-1.32-2.66c-.33-.67-.67-1.33-1-2-.09-.2-.19-.39-.29-.58a1.28,1.28,0,0,0-.11-.2c-.11-.18-.23-.3-.37-.31l-.51,0h-4.13c-.39,0-.47.09-.73.59l-.11.22c-.48,1-1,2-1.46,3-.07.14-.15.29-.21.44-.23.54-.48,1-.73,1.55-.1.19-.19.39-.28.6a2.4,2.4,0,0,0-.14.53h-.2c-.06-.16-.12-.33-.19-.48-.3-.67-.61-1.35-.93-2l-1-2-.75-1.51c-.09-.2-.19-.38-.29-.56s-.23-.29-.37-.3l-.51,0h-4l-.2,0c-.18,0-.33.13-.46.37s-.15.28-.22.42c-.85,1.7-1.7,3.41-2.54,5.11l-.21.44a2,2,0,0,0-.15.52h-.21a2.49,2.49,0,0,0-.18-.6c-.1-.23-.21-.45-.32-.67-.4-.81-.81-1.63-1.21-2.45l-.45-1c-.27-.56-.54-1.12-.82-1.67a1.73,1.73,0,0,0-.15-.27.46.46,0,0,0-.28-.23,3.57,3.57,0,0,0-.46,0h-4.28l-.16,0a.52.52,0,0,0-.37.3c-.1.18-.19.37-.29.56-.3.59-.6,1.2-.89,1.8-.11.21-.22.42-.32.65-.32.74-.68,1.43-1,2.12l-.36.73a2.66,2.66,0,0,0-.2.69h-.2a1.89,1.89,0,0,0-.13-.44c-.05-.13-.11-.26-.17-.38q-1.33-2.68-2.68-5.39a3.72,3.72,0,0,0-.19-.34.5.5,0,0,0-.37-.3,4.36,4.36,0,0,0-.51,0h-3.77c-.12,0-.24,0-.35,0-.26,0-.47.15-.64.52a.43.43,0,0,1,0,.07l-1.92,3.9a.25.25,0,0,0,0,.07c-.24.57-.5,1.1-.76,1.62a5.66,5.66,0,0,0-.3.7h-.2a2.4,2.4,0,0,0-.14-.53c-.09-.2-.19-.4-.28-.59l-1-2c-.12-.24-.24-.48-.35-.73-.37-.84-.77-1.61-1.17-2.41-.07-.14-.14-.27-.22-.4a.46.46,0,0,0-.28-.23,1.55,1.55,0,0,0-.31,0h-4.34a1.54,1.54,0,0,0-.3,0,.5.5,0,0,0-.28.23l-.12.2c-.38.77-.77,1.52-1.14,2.31-.29.62-.58,1.23-.88,1.83l-.71,1.44a8,8,0,0,0-.38.83h-.1a4.89,4.89,0,0,0-.4-1c-.35-.7-.69-1.4-1-2.09-.46-.94-.93-1.88-1.4-2.81l-.33-.63a.45.45,0,0,0-.33-.27,2.92,2.92,0,0,0-.51,0h-3.88a3.42,3.42,0,0,0-.46,0c-.12,0-.23.11-.33.27l-.33.62-1.65,3.33-.9,1.92-.07.16a2.67,2.67,0,0,0-.13.54h-.2a6.68,6.68,0,0,0-.34-.76c-.45-.92-.9-1.83-1.34-2.77s-.9-1.83-1.36-2.74a2.27,2.27,0,0,0-.19-.34.45.45,0,0,0-.27-.23,1.76,1.76,0,0,0-.31,0h-4.34a1.54,1.54,0,0,0-.3,0,.46.46,0,0,0-.28.24c-.1.18-.2.36-.29.56-.23.54-.49,1-.74,1.54-.54,1.11-1.09,2.21-1.64,3.32-.11.21-.21.43-.32.66a2,2,0,0,0-.15.52h-.2a4.32,4.32,0,0,0-.33-.9c-.08-.17-.16-.34-.25-.5-.61-1.23-1.21-2.45-1.82-3.67-.19-.39-.38-.78-.56-1.17a3.9,3.9,0,0,0-.19-.35.43.43,0,0,0-.27-.25,5.27,5.27,0,0,0-.56,0h-4a3,3,0,0,0-.41,0,.46.46,0,0,0-.27.22,3.79,3.79,0,0,0-.2.34l-1.71,3.45a2.29,2.29,0,0,0-.1.23c-.21.49-.44.94-.67,1.4-.09.19-.19.38-.28.58a2.25,2.25,0,0,0-.16.62h-.31a2.25,2.25,0,0,0-.17-.62,2.29,2.29,0,0,0-.1-.23c-.34-.66-.66-1.35-1-2a1.51,1.51,0,0,0-.11-.22c-.49-1-1-2-1.46-3l-.26-.49c-.1-.16-.21-.26-.33-.27a4.38,4.38,0,0,0-.51,0h-3.88a2.38,2.38,0,0,0-.46,0q-.18,0-.33.27l-.33.62c-.66,1.32-1.31,2.65-2,4-.26.53-.51,1.09-.76,1.64a3.21,3.21,0,0,0-.12.33h-.21a2,2,0,0,0-.15-.52c-.09-.2-.18-.4-.28-.59-.48-1-1-2-1.46-3-.33-.68-.68-1.34-1-2a3.21,3.21,0,0,0-.25-.49.48.48,0,0,0-.28-.24,1.55,1.55,0,0,0-.31,0h-4.33a1.65,1.65,0,0,0-.31,0,.46.46,0,0,0-.28.23l-.3.55-1.14,2.3c-.1.2-.19.39-.28.59-.2.46-.41.9-.63,1.33l-.54,1.08a6.68,6.68,0,0,0-.33.76h-.2a2.3,2.3,0,0,0-.2-.7c-.27-.57-.53-1.15-.8-1.7l-1.86-3.76c-.07-.14-.15-.28-.23-.41a.45.45,0,0,0-.32-.27,2.92,2.92,0,0,0-.51,0h-3.88a2.32,2.32,0,0,0-.46,0c-.12,0-.23.11-.33.27s-.2.36-.29.55q-1.08,2.18-2.15,4.33c-.26.54-.51,1.09-.73,1.69h-.21a1.65,1.65,0,0,0-.14-.53c-.07-.15-.13-.3-.21-.45-.34-.7-.69-1.39-1-2.09-.12-.24-.24-.47-.35-.73-.37-.84-.78-1.61-1.17-2.4-.07-.14-.15-.28-.23-.41a.45.45,0,0,0-.27-.23,1.76,1.76,0,0,0-.31,0h-4.34a1.54,1.54,0,0,0-.3,0,.48.48,0,0,0-.28.24l-.15.26-.57,1.17c-.2.41-.39.84-.59,1.24-.45.92-.91,1.83-1.36,2.74-.11.22-.21.44-.31.66a2,2,0,0,0-.15.53h-.2c-.06-.14-.1-.28-.16-.4-.2-.46-.4-.92-.61-1.35l-2.19-4.41-.22-.41c-.1-.16-.21-.26-.33-.27a2.92,2.92,0,0,0-.51,0h-3.88a3.57,3.57,0,0,0-.46,0,.45.45,0,0,0-.32.27c-.12.2-.23.41-.34.63-.48,1-1,1.92-1.43,2.89-.38.77-.75,1.56-1.12,2.35l0,.08a2.25,2.25,0,0,0-.17.62h-.3a2.61,2.61,0,0,0-.24-.76l-.72-1.44c-.19-.39-.38-.76-.56-1.17-.44-1-.92-1.89-1.38-2.83a4,4,0,0,0-.23-.41.45.45,0,0,0-.27-.23,4.38,4.38,0,0,0-.51,0H3177a.76.76,0,0,0-.21,0,.51.51,0,0,0-.27.24,2.78,2.78,0,0,0-.22.42c-.22.51-.46,1-.7,1.47L3174,49.53l-.31.66a5.47,5.47,0,0,0-.3.81h-.21a2.55,2.55,0,0,0-.12-.44c-.06-.13-.11-.25-.17-.37l-2.68-5.4a3.72,3.72,0,0,0-.19-.34.5.5,0,0,0-.37-.3,5.25,5.25,0,0,0-.56,0H3165l-.2,0a.5.5,0,0,0-.28.23,4,4,0,0,0-.22.41c-.61,1.22-1.23,2.43-1.82,3.67-.32.65-.63,1.33-.95,2-.08.17-.15.37-.22.55h-.21a2.09,2.09,0,0,0-.17-.61c-.1-.23-.21-.45-.31-.67-.25-.51-.51-1-.75-1.53-.54-1.2-1.14-2.32-1.7-3.49,0-.09-.1-.18-.16-.27a.48.48,0,0,0-.32-.27,2.71,2.71,0,0,0-.41,0h-4.09a2,2,0,0,0-.35,0,.54.54,0,0,0-.37.33l-.15.28-2.43,4.9a8.15,8.15,0,0,0-.55,1.34h-.2a6.77,6.77,0,0,0-.43-1.11c-.66-1.32-1.32-2.64-2-4-.19-.38-.38-.78-.56-1.17l-.18-.35a.44.44,0,0,0-.28-.25,1.54,1.54,0,0,0-.3,0h-4.34a1.54,1.54,0,0,0-.3,0,.48.48,0,0,0-.28.24,1.18,1.18,0,0,0-.11.19c-.33.65-.65,1.29-1,1.95s-.51,1.09-.78,1.61-.57,1.15-.85,1.73c-.1.19-.19.39-.28.59a1.65,1.65,0,0,0-.14.53h-.21a9.4,9.4,0,0,0-.47-1.06c-.22-.43-.43-.86-.63-1.33-.08-.17-.16-.34-.25-.51l-1.57-3.18-.22-.42c-.12-.22-.26-.34-.41-.35l-.57,0h-3.93c-.47,0-.53.06-.86.72l-2.37,4.75c-.12.25-.23.5-.33.77a3,3,0,0,0-.15.64h-.31a4.32,4.32,0,0,0-.32-.9c-.1-.22-.21-.43-.32-.65-.73-1.5-1.49-2.94-2.2-4.49-.09-.2-.19-.38-.29-.56a.46.46,0,0,0-.28-.24,1.54,1.54,0,0,0-.3,0H3117a1.55,1.55,0,0,0-.31,0,.51.51,0,0,0-.28.24l-.15.26c-.16.34-.33.68-.49,1s-.32.69-.49,1l-1.53,3.1c-.11.22-.21.44-.31.66a2.44,2.44,0,0,0-.16.52h-.2a3.21,3.21,0,0,0-.12-.33c-.21-.48-.43-1-.65-1.42-.73-1.48-1.46-2.94-2.19-4.4-.07-.15-.14-.28-.22-.42a.45.45,0,0,0-.33-.27,2.92,2.92,0,0,0-.51,0h-3.88a2.38,2.38,0,0,0-.46,0,.48.48,0,0,0-.32.27c-.13.23-.25.46-.37.7-.64,1.28-1.27,2.55-1.9,3.83-.27.55-.53,1.14-.8,1.71a3.19,3.19,0,0,0-.11.33H3101a2,2,0,0,0-.15-.52c-.1-.23-.2-.45-.31-.67l-1.36-2.73c-.2-.41-.39-.84-.59-1.25l-.57-1.16a1.73,1.73,0,0,0-.15-.27.46.46,0,0,0-.28-.24,1.54,1.54,0,0,0-.3,0H3093a1.65,1.65,0,0,0-.31,0,.51.51,0,0,0-.27.24,4.28,4.28,0,0,0-.33.64c-.18.39-.37.79-.56,1.17-.58,1.18-1.16,2.35-1.75,3.53l-.18.36a4.32,4.32,0,0,0-.32.9H3089a2.18,2.18,0,0,0-.17-.72c-.1-.23-.2-.46-.31-.67-.34-.7-.69-1.4-1-2.1l-1.22-2.45c-.1-.21-.22-.42-.33-.63a.45.45,0,0,0-.32-.27,4.38,4.38,0,0,0-.51,0h-3.84l-.46,0a.51.51,0,0,0-.37.29c-.08.14-.15.28-.22.42-.21.41-.41.82-.61,1.23s-.41.81-.6,1.23c-.26.59-.54,1.14-.81,1.69s-.41.82-.61,1.23a7.58,7.58,0,0,0-.34.76h-.2a2.4,2.4,0,0,0-.14-.53c-.1-.2-.19-.4-.28-.59l-1.08-2.17c-.13-.26-.26-.52-.38-.8-.34-.77-.71-1.47-1.07-2.19a2.59,2.59,0,0,0-.19-.33.41.41,0,0,0-.28-.23,4.38,4.38,0,0,0-.51,0h-4.19a.84.84,0,0,0-.2,0,.37.37,0,0,0-.23.19,4.68,4.68,0,0,0-.3.54c-.84,1.68-1.67,3.37-2.51,5.05a4.89,4.89,0,0,0-.4,1H3065a8.49,8.49,0,0,0-.51-1.26c-.3-.6-.6-1.2-.89-1.8l-1.44-2.88c-.1-.22-.22-.43-.33-.63a.48.48,0,0,0-.32-.27,4.38,4.38,0,0,0-.51,0h-3.88a3.42,3.42,0,0,0-.46,0,.41.41,0,0,0-.28.23,1.64,1.64,0,0,0-.16.26l-.67,1.38c-.2.42-.39.84-.6,1.26-.42.87-.85,1.73-1.28,2.6-.1.19-.19.39-.28.59a1.87,1.87,0,0,0-.15.52h-.2c-.08-.18-.15-.38-.23-.55-.42-.84-.82-1.71-1.23-2.56s-1-2-1.47-3l-.11-.22c-.26-.5-.34-.57-.73-.59h-4.14a3.57,3.57,0,0,0-.46,0,.47.47,0,0,0-.32.28c-.12.2-.23.41-.34.62-.81,1.64-1.62,3.27-2.44,4.91l-.24.51a2.44,2.44,0,0,0-.16.52h-.2a2.64,2.64,0,0,0-.19-.6c-.09-.19-.18-.39-.28-.58-.58-1.18-1.17-2.35-1.75-3.53-.24-.48-.48-.95-.7-1.46a4.13,4.13,0,0,0-.22-.42.49.49,0,0,0-.27-.25,1.65,1.65,0,0,0-.31,0H3033a1.54,1.54,0,0,0-.3,0,.47.47,0,0,0-.28.23,2.4,2.4,0,0,0-.16.27c-.21.43-.43.85-.63,1.31s-.49,1-.74,1.53-.57,1.15-.86,1.72l-.45,1a3.85,3.85,0,0,0-.29.83h-.31a2.25,2.25,0,0,0-.16-.62l-.11-.22c-.33-.67-.66-1.35-1-2.06a1.51,1.51,0,0,0-.11-.22c-.48-1-1-2-1.46-3-.08-.14-.15-.28-.22-.42s-.26-.34-.42-.35l-.51,0h-4c-.39,0-.47.09-.73.59-.07.15-.14.29-.22.43-.23.49-.47,1-.71,1.45-.35.7-.7,1.38-1,2.12-.09.21-.19.39-.28.59l-.51,1a5.5,5.5,0,0,0-.29.69H3017a1.72,1.72,0,0,0-.14-.53c-.1-.22-.21-.44-.32-.66l-1.35-2.73c-.25-.5-.5-1-.74-1.54-.12-.28-.26-.54-.39-.8a1.17,1.17,0,0,0-.15-.27.52.52,0,0,0-.36-.32,2.83,2.83,0,0,0-.41,0h-4a2.69,2.69,0,0,0-.4,0,.52.52,0,0,0-.37.31c-.07.14-.15.28-.22.43-.31.72-.65,1.37-1,2l-1.5,3a4.69,4.69,0,0,0-.4,1h-.2c-.06-.16-.12-.33-.19-.48-.23-.5-.45-1-.69-1.49l-2.07-4.18-.19-.35c-.12-.21-.25-.34-.41-.35l-.51,0h-3.83a3.42,3.42,0,0,0-.46,0,.44.44,0,0,0-.28.22c-.05.09-.11.17-.16.27-.31.62-.62,1.24-.92,1.88s-.51,1.09-.77,1.62-.6,1.2-.89,1.8c-.09.17-.17.35-.25.52a2,2,0,0,0-.14.53h-.31a3,3,0,0,0-.21-.68c-.08-.18-.17-.35-.25-.51l-1.32-2.67c-.17-.34-.33-.69-.49-1l-.71-1.46-.15-.26c-.09-.13-.18-.22-.28-.23a4.38,4.38,0,0,0-.51,0h-3.88a3.42,3.42,0,0,0-.46,0,.52.52,0,0,0-.33.27l-.26.49c-.74,1.49-1.48,3-2.21,4.47-.16.31-.3.65-.44,1a2.23,2.23,0,0,0-.16.63h-.3c-.06-.14-.1-.28-.16-.4-.28-.62-.57-1.25-.87-1.85-.62-1.29-1.26-2.56-1.89-3.83l-.22-.42c-.12-.21-.25-.34-.41-.35a4.36,4.36,0,0,0-.51,0h-3.83a3.42,3.42,0,0,0-.46,0,.42.42,0,0,0-.28.22l-.12.2c-.35.69-.7,1.37-1,2.1-.19.4-.37.79-.56,1.18-.29.58-.58,1.14-.86,1.72l-.39.81a2.57,2.57,0,0,0-.18.61h-.3a2.08,2.08,0,0,0-.18-.61l-.24-.52-.83-1.65c-.13-.27-.26-.53-.38-.81-.41-.91-.85-1.75-1.28-2.62-.07-.14-.15-.28-.22-.4a.4.4,0,0,0-.28-.23,4.38,4.38,0,0,0-.51,0h-3.83a3.44,3.44,0,0,0-.46,0c-.16,0-.3.14-.42.35s-.17.33-.25.5l-1.83,3.67c-.06.12-.12.24-.17.37l-.66,1.41a3.94,3.94,0,0,0-.22.55h-.21a2,2,0,0,0-.15-.52c-.08-.18-.16-.35-.25-.52-.28-.57-.57-1.15-.86-1.72-.52-1.06-1-2.12-1.57-3.17l-.26-.5c-.14-.27-.3-.42-.5-.43l-.51,0h-3.78a3.57,3.57,0,0,0-.46,0,.43.43,0,0,0-.28.23,1.61,1.61,0,0,0-.15.26c-.21.41-.41.82-.6,1.24s-.33.69-.49,1l-.72,1.44c-.27.56-.55,1.11-.82,1.66a4.34,4.34,0,0,0-.36,1h-.31a1.65,1.65,0,0,0-.13-.53l-.35-.74c-.42-.84-.85-1.66-1.24-2.56,0-.1-.09-.19-.14-.29l-1-2c-.09-.16-.17-.33-.26-.48s-.23-.29-.37-.3l-.51,0h-4c-.38,0-.46.09-.72.59l-.18.36-.82,1.66c-.11.22-.22.44-.32.66-.21.49-.43,1-.66,1.4L2933.6,50c-.09.17-.17.34-.25.52a2.4,2.4,0,0,0-.14.53h-.3a6.08,6.08,0,0,0-.43-1.12c-.59-1.17-1.17-2.35-1.76-3.53-.25-.5-.5-1-.74-1.54a3.36,3.36,0,0,0-.22-.42.41.41,0,0,0-.28-.23,4.38,4.38,0,0,0-.51,0h-3.88l-.41,0c-.15,0-.29.14-.41.35l-.22.42-2.43,4.91-.21.44a2,2,0,0,0-.16.73h-.31c-.07-.18-.14-.38-.22-.55-.42-.83-.82-1.71-1.23-2.56s-1-2-1.47-3c-.06-.12-.12-.23-.18-.36-.15-.31-.34-.44-.55-.44h-4.14l-.46,0c-.18,0-.33.12-.46.37L2912,45l-.78,1.59c-.15.29-.28.58-.42.88s-.38.79-.56,1.18l-.65,1.29-.21.45a2.09,2.09,0,0,0-.17.61h-.31a2.49,2.49,0,0,0-.18-.6c-.09-.2-.18-.4-.28-.59-.46-.94-.93-1.87-1.4-2.81-.27-.55-.55-1.1-.8-1.69-.1-.23-.21-.43-.32-.65l-.11-.2c-.11-.18-.23-.3-.37-.31a4.36,4.36,0,0,0-.51,0h-4.09a.69.69,0,0,0-.2,0,.53.53,0,0,0-.32.28c-.13.22-.25.46-.37.7q-1.07,2.11-2.11,4.25c-.19.38-.38.78-.55,1.2l-.15.41h-.3a2.3,2.3,0,0,0-.2-.7c-.28-.59-.55-1.19-.83-1.77-.6-1.21-1.19-2.41-1.79-3.61l-.22-.42c-.12-.21-.25-.34-.41-.35l-.51,0h-4.09a.69.69,0,0,0-.2,0,.46.46,0,0,0-.28.23,1.61,1.61,0,0,0-.15.26c-.31.63-.63,1.24-.93,1.88s-.51,1.09-.77,1.62-.55,1.1-.82,1.65c-.09.17-.17.34-.25.51a2.33,2.33,0,0,0-.21.69h-.31a2,2,0,0,0-.15-.52c-.09-.2-.18-.4-.28-.59-.76-1.57-1.55-3.08-2.29-4.7-.11-.25-.24-.48-.36-.71s-.26-.33-.41-.34l-.51,0h-2.34V0H3455V44.12h-1.58a2.69,2.69,0,0,0-.4,0,.53.53,0,0,0-.33.26,1.28,1.28,0,0,0-.11.2c-.32.64-.65,1.28-1,1.94s-.48,1-.73,1.54-.59,1.19-.89,1.79l-.24.52a2.36,2.36,0,0,0-.18.6h-.2a2.44,2.44,0,0,0-.16-.52c-.09-.2-.19-.39-.28-.59-.48-1-1-1.93-1.43-2.9-.27-.55-.55-1.1-.81-1.69-.08-.2-.19-.39-.28-.59-.18-.39-.4-.61-.67-.59-.11,0-.21,0-.31,0h-4.24l-.21,0a.48.48,0,0,0-.28.24c-.09.15-.18.31-.26.47l-2.5,5.07a3.9,3.9,0,0,1-.19.35c-.19.33-.39.34-.6,0a4.68,4.68,0,0,1-.3-.55c-.12-.28-.24-.56-.37-.82-.66-1.33-1.32-2.65-2-4l-.19-.36c-.16-.34-.36-.48-.59-.48h-4.6a.78.78,0,0,0-.21,0,.42.42,0,0,0-.23.2,3,3,0,0,0-.16.26l-.6,1.23c-.12.25-.23.51-.34.75L3426,49.78c-.09.17-.17.34-.26.49a1,1,0,0,1-.17.22.19.19,0,0,1-.3,0,1,1,0,0,1-.17-.22l-.26-.49c-.41-.84-.83-1.68-1.25-2.53-.08-.16-.17-.33-.24-.51-.3-.7-.63-1.33-1-2,0-.09-.1-.18-.15-.27a.52.52,0,0,0-.41-.34l-.41,0h-4.19c-.41,0-.49.07-.77.65-.57,1.16-1.16,2.28-1.7,3.5-.09.21-.19.4-.28.59L3414,50l-.24.52A2,2,0,0,0,3413.58,51Z" style="fill:#8ec449"/><rect x="2304.13" y="139" width="1151.3" height="929" style="fill:#a47b55"/><polygon points="2304 203.56 2354 175.32 2402 203.56 2449 175.32 2497 203.56 2546 175.32 2592 205.58 2642 175.32 2690 205.58 2738 175.32 2785 203.56 2835 175.32 2881 203.56 2930 175.32 2978 203.56 3026 175.32 3074 205.58 3124 175.32 3170 203.56 3218 175.32 3266 205.58 3315 175.32 3363 203.56 3411 175.32 3455 203.56 3455 241.9 3413 214.66 3363 242.9 3316 213.65 3266 242.9 3219 214.66 3171 242.9 3122 214.66 3074 242.9 3026 212.64 2978 242.9 2929 213.65 2881 242.9 2835 214.66 2785 242.9 2738 213.65 2690 242.9 2642 214.66 2594 242.9 2545 213.65 2497 242.9 2450 214.66 2401 242.9 2354 214.66 2304 241.9 2304 203.56" style="fill:#8b623c"/><polygon points="2304 271.56 2354 243.32 2402 271.56 2449 243.32 2497 271.56 2546 243.32 2592 273.58 2642 243.32 2690 273.58 2738 243.32 2785 271.56 2835 243.32 2881 271.56 2930 243.32 2978 271.56 3026 243.32 3074 273.58 3124 243.32 3170 271.56 3218 243.32 3266 273.58 3315 243.32 3363 271.56 3411 243.32 3455 271.56 3455 309.89 3413 282.66 3363 310.9 3316 281.65 3266 310.9 3219 282.66 3171 310.9 3122 282.66 3074 310.9 3026 280.64 2978 310.9 2929 281.65 2881 310.9 2835 282.66 2785 310.9 2738 281.65 2690 310.9 2642 282.66 2594 310.9 2545 281.65 2497 310.9 2450 282.66 2401 310.9 2354 282.66 2304 309.89 2304 271.56" style="fill:#8b623c"/><polygon points="2303 339.56 2353 311.32 2401 339.56 2448 311.32 2496 339.56 2545 311.32 2591 341.58 2641 311.32 2689 341.58 2737 311.32 2784 339.56 2834 311.32 2880 339.56 2929 311.32 2977 339.56 3025 311.32 3073 341.58 3123 311.32 3169 339.56 3217 311.32 3265 341.58 3314 311.32 3362 339.56 3410 311.32 3454 339.56 3454 377.89 3412 350.66 3362 378.9 3315 349.65 3265 378.9 3218 350.66 3170 378.9 3121 350.66 3073 378.9 3025 348.64 2977 378.9 2928 349.65 2880 378.9 2834 350.66 2784 378.9 2737 349.65 2689 378.9 2641 350.66 2593 378.9 2544 349.65 2496 378.9 2449 350.66 2400 378.9 2353 350.66 2303 377.89 2303 339.56" style="fill:#8b623c"/><polygon points="2303 407.56 2353 379.32 2401 407.56 2448 379.32 2496 407.56 2545 379.32 2591 409.58 2641 379.32 2689 409.58 2737 379.32 2784 407.56 2834 379.32 2880 407.56 2929 379.32 2977 407.56 3025 379.32 3073 409.58 3123 379.32 3169 407.56 3217 379.32 3265 409.58 3314 379.32 3362 407.56 3410 379.32 3454 407.56 3454 445.89 3412 418.66 3362 446.9 3315 417.65 3265 446.9 3218 418.66 3170 446.9 3121 418.66 3073 446.9 3025 416.64 2977 446.9 2928 417.65 2880 446.9 2834 418.66 2784 446.9 2737 417.65 2689 446.9 2641 418.66 2593 446.9 2544 417.65 2496 446.9 2449 418.66 2400 446.9 2353 418.66 2303 445.89 2303 407.56" style="fill:#8b623c"/><polygon points="2304 484.56 2354 456.32 2402 484.56 2449 456.32 2497 484.56 2546 456.32 2592 486.58 2642 456.32 2690 486.58 2738 456.32 2785 484.56 2835 456.32 2881 484.56 2930 456.32 2978 484.56 3026 456.32 3074 486.58 3124 456.32 3170 484.56 3218 456.32 3266 486.58 3315 456.32 3363 484.56 3411 456.32 3455 484.56 3455 522.89 3413 495.66 3363 523.9 3316 494.65 3266 523.9 3219 495.66 3171 523.9 3122 495.66 3074 523.9 3026 493.64 2978 523.9 2929 494.65 2881 523.9 2835 495.66 2785 523.9 2738 494.65 2690 523.9 2642 495.66 2594 523.9 2545 494.65 2497 523.9 2450 495.66 2401 523.9 2354 495.66 2304 522.89 2304 484.56" style="fill:#8b623c"/><polygon points="2304 552.56 2354 524.32 2402 552.56 2449 524.32 2497 552.56 2546 524.32 2592 554.58 2642 524.32 2690 554.58 2738 524.32 2785 552.56 2835 524.32 2881 552.56 2930 524.32 2978 552.56 3026 524.32 3074 554.58 3124 524.32 3170 552.56 3218 524.32 3266 554.58 3315 524.32 3363 552.56 3411 524.32 3455 552.56 3455 590.89 3413 563.66 3363 591.9 3316 562.65 3266 591.9 3219 563.66 3171 591.9 3122 563.66 3074 591.9 3026 561.64 2978 591.9 2929 562.65 2881 591.9 2835 563.66 2785 591.9 2738 562.65 2690 591.9 2642 563.66 2594 591.9 2545 562.65 2497 591.9 2450 563.66 2401 591.9 2354 563.66 2304 590.89 2304 552.56" style="fill:#8b623c"/><polygon points="2303 620.56 2353 592.32 2401 620.56 2448 592.32 2496 620.56 2545 592.32 2591 622.58 2641 592.32 2689 622.58 2737 592.32 2784 620.56 2834 592.32 2880 620.56 2929 592.32 2977 620.56 3025 592.32 3073 622.58 3123 592.32 3169 620.56 3217 592.32 3265 622.58 3314 592.32 3362 620.56 3410 592.32 3454 620.56 3454 658.89 3412 631.66 3362 659.9 3315 630.65 3265 659.9 3218 631.66 3170 659.9 3121 631.66 3073 659.9 3025 629.64 2977 659.9 2928 630.65 2880 659.9 2834 631.66 2784 659.9 2737 630.65 2689 659.9 2641 631.66 2593 659.9 2544 630.65 2496 659.9 2449 631.66 2400 659.9 2353 631.66 2303 658.89 2303 620.56" style="fill:#8b623c"/><polygon points="2303 688.56 2353 660.32 2401 688.56 2448 660.32 2496 688.56 2545 660.32 2591 690.58 2641 660.32 2689 690.58 2737 660.32 2784 688.56 2834 660.32 2880 688.56 2929 660.32 2977 688.56 3025 660.32 3073 690.58 3123 660.32 3169 688.56 3217 660.32 3265 690.58 3314 660.32 3362 688.56 3410 660.32 3454 688.56 3454 726.89 3412 699.66 3362 727.9 3315 698.65 3265 727.9 3218 699.66 3170 727.9 3121 699.66 3073 727.9 3025 697.64 2977 727.9 2928 698.65 2880 727.9 2834 699.66 2784 727.9 2737 698.65 2689 727.9 2641 699.66 2593 727.9 2544 698.65 2496 727.9 2449 699.66 2400 727.9 2353 699.66 2303 726.89 2303 688.56" style="fill:#8b623c"/><polygon points="2303 756.56 2353 728.32 2401 756.56 2448 728.32 2496 756.56 2545 728.32 2591 758.58 2641 728.32 2689 758.58 2737 728.32 2784 756.56 2834 728.32 2880 756.56 2929 728.32 2977 756.56 3025 728.32 3073 758.58 3123 728.32 3169 756.56 3217 728.32 3265 758.58 3314 728.32 3362 756.56 3410 728.32 3454 756.56 3454 794.89 3412 767.66 3362 795.9 3315 766.65 3265 795.9 3218 767.66 3170 795.9 3121 767.66 3073 795.9 3025 765.64 2977 795.9 2928 766.65 2880 795.9 2834 767.66 2784 795.9 2737 766.65 2689 795.9 2641 767.66 2593 795.9 2544 766.65 2496 795.9 2449 767.66 2400 795.9 2353 767.66 2303 794.89 2303 756.56" style="fill:#8b623c"/><polygon points="2303 824.56 2353 796.32 2401 824.56 2448 796.32 2496 824.56 2545 796.32 2591 826.58 2641 796.32 2689 826.58 2737 796.32 2784 824.56 2834 796.32 2880 824.56 2929 796.32 2977 824.56 3025 796.32 3073 826.58 3123 796.32 3169 824.56 3217 796.32 3265 826.58 3314 796.32 3362 824.56 3410 796.32 3454 824.56 3454 862.89 3412 835.66 3362 863.9 3315 834.65 3265 863.9 3218 835.66 3170 863.9 3121 835.66 3073 863.9 3025 833.64 2977 863.9 2928 834.65 2880 863.9 2834 835.66 2784 863.9 2737 834.65 2689 863.9 2641 835.66 2593 863.9 2544 834.65 2496 863.9 2449 835.66 2400 863.9 2353 835.66 2303 862.89 2303 824.56" style="fill:#8b623c"/><polygon points="2302 892.56 2352 864.32 2400 892.56 2447 864.32 2495 892.56 2544 864.32 2590 894.58 2640 864.32 2688 894.58 2736 864.32 2783 892.56 2833 864.32 2879 892.56 2928 864.32 2976 892.56 3024 864.32 3072 894.58 3122 864.32 3168 892.56 3216 864.32 3264 894.58 3313 864.32 3361 892.56 3409 864.32 3453 892.56 3453 930.89 3411 903.66 3361 931.9 3314 902.65 3264 931.9 3217 903.66 3169 931.9 3120 903.66 3072 931.9 3024 901.64 2976 931.9 2927 902.65 2879 931.9 2833 903.66 2783 931.9 2736 902.65 2688 931.9 2640 903.66 2592 931.9 2543 902.65 2495 931.9 2448 903.66 2399 931.9 2352 903.66 2302 930.89 2302 892.56" style="fill:#8b623c"/><polygon points="2302 960.56 2352 932.32 2400 960.56 2447 932.32 2495 960.56 2544 932.32 2590 962.58 2640 932.32 2688 962.58 2736 932.32 2783 960.56 2833 932.32 2879 960.56 2928 932.32 2976 960.56 3024 932.32 3072 962.58 3122 932.32 3168 960.56 3216 932.32 3264 962.58 3313 932.32 3361 960.56 3409 932.32 3453 960.56 3453 998.89 3411 971.66 3361 999.9 3314 970.65 3264 999.9 3217 971.66 3169 999.9 3120 971.66 3072 999.9 3024 969.64 2976 999.9 2927 970.65 2879 999.9 2833 971.66 2783 999.9 2736 970.65 2688 999.9 2640 971.66 2592 999.9 2543 970.65 2495 999.9 2448 971.66 2399 999.9 2352 971.66 2302 998.89 2302 960.56" style="fill:#8b623c"/><polygon points="2302 1028.56 2352 1000.32 2400 1028.56 2447 1000.32 2495 1028.56 2544 1000.32 2590 1030.58 2640 1000.32 2688 1030.58 2736 1000.32 2783 1028.56 2833 1000.32 2879 1028.56 2928 1000.32 2976 1028.56 3024 1000.32 3072 1030.58 3122 1000.32 3168 1028.56 3216 1000.32 3264 1030.58 3313 1000.32 3361 1028.56 3409 1000.32 3453 1028.56 3453 1066.89 3411 1039.66 3361 1067.9 3314 1038.65 3264 1067.9 3217 1039.66 3169 1067.9 3120 1039.66 3072 1067.9 3024 1037.64 2976 1067.9 2927 1038.65 2879 1067.9 2833 1039.66 2783 1067.9 2736 1038.65 2688 1067.9 2640 1039.66 2592 1067.9 2543 1038.65 2495 1067.9 2448 1039.66 2399 1067.9 2352 1039.66 2302 1066.89 2302 1028.56" style="fill:#8b623c"/><polygon points="2304 172.04 2352 144.74 2401 175.32 2450 144.74 2497 175.32 2548 144.74 2594 175.32 2643 144.74 2690 175.32 2738 144.74 2785 175.32 2836 144.74 2881 175.32 2930 144.74 2978 175.32 3027 144.74 3074 175.32 3122 144.74 3169 175.32 3219 144.74 3265 175.32 3316 144.74 3361 175.32 3411 144.74 3455 172.04 3455 136 2304 136 2304 172.04" style="fill:#8b623c"/></g></svg>