<svg viewBox="0 0 1724 369" xmlns="http://www.w3.org/2000/svg"><path d="m40.5 136.5h14v40h-14z" fill="#1b1464"/><path d="m24.5 163.5h30v13h-30z" fill="#8c6239"/><path d="m65.5 137.5h14v39h-14z" fill="#1b1464"/><path d="m65.5 163.5h29v13h-29z" fill="#8c6239"/><path d="m79.5 95.5v44h-39v-45c-21 8.53-21 28-21 28l-15-3c7-35 36-42 36-42h35l5 1s28.6 6 35.5 41l-14.79 3s-1-18.47-21.71-27" fill="#fff"/><circle cx="10" cy="127" fill="#f9d0a7" r="9.5"/><circle cx="110" cy="127" fill="#f9d0a7" r="9.5"/><path d="m54.99 77.5 4.51 10h5l6-10z" fill="#006837"/><path d="m59.5 87.5-3 41 5.59 7.34a.53.53 0 0 0 .88 0l4.53-7.38-3-41z" fill="#009245"/><path d="m54.5 77.5 4.42 8.07a.8.8 0 0 1 -1.17.91l-15.7-9z" fill="#e6e6e6"/><path d="m65.07 85.48 4.93-8h9.5l-14 8.42a.32.32 0 0 1 -.43-.42z" fill="#e6e6e6"/><ellipse cx="60.61" cy="48.14" fill="#f9d0a7" rx="32.39" ry="32.14"/><circle cx="29.95" cy="54.78" fill="#f9d0a7" r="6.45"/><path d="m79 67.23c0 2.63-3.36 4.77-7.5 4.77s-7.5-2.14-7.5-4.77 3.86-1.23 8-1.23 7-1.41 7 1.23z" fill="#fff"/><path d="m92.36 43.31c-.5-5.47-1.35-6.86-2.26-11.77a1.09 1.09 0 0 0 -.58-.78l-22.76-11.61a1 1 0 0 0 -.63-.11l-22.37 2.81h-10.3a1.09 1.09 0 0 0 -.81 1.81 1.08 1.08 0 0 1 -.24 1.64c-2 1.21-5.73 4.39-3.93 10.72a1.17 1.17 0 0 0 .09.24c.44.8-.73 4.45.47 17.23a1.37 1.37 0 0 0 2.71.15c2.11-10.18 9.64-21.75 14.07-25.73a1.06 1.06 0 0 1 .92-.23l39.75 5.43a1.08 1.08 0 0 1 .51.26c.54.51 1.72 5.17 2.76 10.3a1.31 1.31 0 0 0 2.6-.36z" fill="#d1a44a"/><path d="m61.59 38.82c-2.59-.17-22.91-3.74-28.59-13.82 0 0 6-17 23-20 0 0 10.46-1.7 23.2 7.7.37.28 5.86 6.35 6.12 6.73 1.92 2.73 6.2 9.82 11.94 11.87a.3.3 0 0 1 -.06.58c-5 .54-21 2-29.24-.84l9.36 5.22a.2.2 0 0 1 -.1.38c-4.14-.39-20.88-2-23.17-3.79l7.6 5.79a.1.1 0 0 1 -.06.18z" fill="#ddae47"/><rect fill="#fff" height="16" rx="8" stroke="#000" stroke-miterlimit="10" stroke-width="2" width="20" x="72" y="39"/><rect fill="#fff" height="16" rx="8" stroke="#000" stroke-miterlimit="10" stroke-width="2" width="20" x="47" y="39"/><path d="m67 47h5" fill="none" stroke="#000" stroke-miterlimit="10" stroke-width="2"/><circle cx="60.5" cy="46.5" r="1.5"/><circle cx="84.5" cy="46.5" r="1.5"/><path d="m598 103h14v40h-14z" fill="#1b1464" transform="matrix(.84301613 .53788828 -.53788828 .84301613 161.11 -306.08)"/><path d="m564 116h30v13h-30z" fill="#8c6239" transform="matrix(.84301613 .53788828 -.53788828 .84301613 156.76 -292.18)"/><path d="m615.7 124.43h14v39h-14z" fill="#1b1464" transform="matrix(.84 .54 -.54 .84 177.98 -315.09)"/><path d="m594.94 157.23h29v14.72h-29z" fill="#8c6239" transform="matrix(-.5430279 .83971465 -.83971465 -.5430279 1078.61 -257.77)"/><path d="m661 94-22 38-35-20 12-20 8-15c-6 11-1 2-1 2v-1a1 1 0 0 0 1-1l2-3 3-4 30 9h23s11 0 27-1v15s-13 2-33.5 1.5" fill="#fff"/><circle cx="714.5" cy="85.5" fill="#f9d0a7" r="9.5"/><path d="m643 75.63.14 10.97 4.58 2 11.28-9.6z" fill="#006837"/><path d="m643.14 86.6-19.14 36.4 2.19 9a.53.53 0 0 0 .79.39l7.1-5 13.64-38.79z" fill="#009245"/><path d="m642.55 75.44.83 9.16a.8.8 0 0 1 -1.44.37l-10.8-14.51z" fill="#e6e6e6"/><path d="m649.05 87 10-8h9l-18.72 8.56a.32.32 0 0 1 -.28-.56z" fill="#e6e6e6"/><ellipse cx="656.61" cy="47.14" fill="#f9d0a7" rx="32.39" ry="32.14"/><circle cx="625.95" cy="53.78" fill="#f9d0a7" r="6.45"/><path d="m675 66.23c0 2.63-3.36 4.77-7.5 4.77s-7.5-2.14-7.5-4.77 3.86-1.23 8-1.23 7-1.41 7 1.23z" fill="#fff"/><path d="m688.36 42.31c-.5-5.47-1.35-6.86-2.26-11.77a1.09 1.09 0 0 0 -.58-.78l-22.76-11.61a1 1 0 0 0 -.63-.11l-22.37 2.81h-10.3a1.09 1.09 0 0 0 -.81 1.81 1.08 1.08 0 0 1 -.24 1.64c-2 1.21-5.73 4.39-3.93 10.72a1.17 1.17 0 0 0 .09.24c.44.8-.73 4.45.47 17.23a1.37 1.37 0 0 0 2.71.15c2.11-10.18 9.64-21.75 14.07-25.73a1.06 1.06 0 0 1 .92-.23l39.75 5.43a1.08 1.08 0 0 1 .51.26c.54.51 1.72 5.17 2.76 10.3a1.31 1.31 0 0 0 2.6-.36z" fill="#d1a44a"/><path d="m657.59 37.82c-2.59-.17-22.91-3.74-28.59-13.82 0 0 6-17 23-20 0 0 10.46-1.7 23.2 7.7.37.28 5.86 6.35 6.12 6.73 1.92 2.73 6.2 9.82 11.94 11.87a.3.3 0 0 1 -.06.58c-5 .54-21 2-29.24-.84l9.36 5.22a.2.2 0 0 1 -.1.38c-4.14-.39-20.88-2-23.17-3.79l7.6 5.79a.1.1 0 0 1 -.06.18z" fill="#ddae47"/><rect fill="#fff" height="16" rx="8" stroke="#000" stroke-miterlimit="10" stroke-width="2" width="20" x="668" y="38"/><rect fill="#fff" height="16" rx="8" stroke="#000" stroke-miterlimit="10" stroke-width="2" width="20" x="643" y="38"/><path d="m663 46h5" fill="none" stroke="#000" stroke-miterlimit="10" stroke-width="2"/><circle cx="656.5" cy="45.5" r="1.5"/><circle cx="680.5" cy="45.5" r="1.5"/><path d="m778 122h29v13h-29z" fill="#8c6239" transform="matrix(.8660254 .5 -.5 .8660254 170.42 -379.03)"/><path d="m793.93 109h14v40h-14z" fill="#1b1464" transform="matrix(.86637426 .49939528 -.49939528 .86637426 171.45 -382.74)"/><path d="m770.53 148.04h30v13.62h-30z" fill="#8c6239" transform="matrix(.5 -.8660254 .8660254 .5 258.66 757.71)"/><path d="m823.31 154.89-33.31-19.89 6-11 21.59 12.8 13.1-22.69 12.12 7z" fill="#1b1464"/><path d="m860.45 91.34-22.77 37.66-33.37-20.2 17.69-33.8h-6a341.54 341.54 0 0 0 -36 0l1-12c26-1 34 0 34 0h12l35 12 4 2 3 2a16.65 16.65 0 0 0 -5 6l-2 4s0 1-1.55 2.34" fill="#fff"/><circle cx="774.5" cy="69.5" fill="#f9d0a7" r="9.5"/><path d="m841.86 70.05-.5 10.96 4.46 2.26 9.88-6.21z" fill="#006837"/><path d="m841.36 81-21.21 35.21 1.66 9.08a.54.54 0 0 0 .77.43l7.42-4.52 15.86-37.93z" fill="#009245"/><path d="m841.43 69.83.29 9.19a.79.79 0 0 1 -1.45.29l-9.95-15.11z" fill="#e6e6e6"/><path d="m847.25 81.73 8-4.89 10.75.16-18.56 5.32a.32.32 0 0 1 -.19-.59z" fill="#e6e6e6"/><ellipse cx="857.61" cy="45.14" fill="#f9d0a7" rx="32.39" ry="32.14"/><circle cx="826.95" cy="51.78" fill="#f9d0a7" r="6.45"/><path d="m876 64.23c0 2.63-3.36 4.77-7.5 4.77s-7.5-2.14-7.5-4.77 3.86-1.23 8-1.23 7-1.41 7 1.23z" fill="#fff"/><path d="m889.36 40.31c-.5-5.47-1.35-6.86-2.26-11.77a1.09 1.09 0 0 0 -.58-.78l-22.76-11.61a1 1 0 0 0 -.63-.11l-22.37 2.81h-10.3a1.09 1.09 0 0 0 -.81 1.81 1.08 1.08 0 0 1 -.24 1.64c-2 1.21-5.73 4.39-3.93 10.72a1.17 1.17 0 0 0 .09.24c.44.8-.73 4.45.47 17.23a1.37 1.37 0 0 0 2.71.15c2.11-10.18 9.64-21.75 14.07-25.73a1.06 1.06 0 0 1 .92-.23l39.75 5.43a1.08 1.08 0 0 1 .51.26c.54.51 1.72 5.17 2.76 10.3a1.31 1.31 0 0 0 2.6-.36z" fill="#d1a44a"/><path d="m858.59 35.82c-2.59-.17-22.91-3.74-28.59-13.82 0 0 6-17 23-20 0 0 10.46-1.7 23.2 7.7.37.28 5.86 6.35 6.12 6.73 1.92 2.73 6.2 9.82 11.94 11.87a.3.3 0 0 1 -.06.58c-5 .54-21 2-29.24-.84l9.36 5.22a.2.2 0 0 1 -.1.38c-4.14-.39-20.88-2-23.17-3.79l7.6 5.79a.1.1 0 0 1 -.06.18z" fill="#ddae47"/><rect fill="#fff" height="16" rx="8" stroke="#000" stroke-miterlimit="10" stroke-width="2" width="20" x="869" y="36"/><rect fill="#fff" height="16" rx="8" stroke="#000" stroke-miterlimit="10" stroke-width="2" width="20" x="844" y="36"/><path d="m864 44h5" fill="none" stroke="#000" stroke-miterlimit="10" stroke-width="2"/><circle cx="857.5" cy="43.5" r="1.5"/><circle cx="881.5" cy="43.5" r="1.5"/><path d="m994.37 156.8h29v13.87h-29z" fill="#8c6239" transform="matrix(.53317162 -.84600711 .84600711 .53317162 332.49 929.98)"/><path d="m993.93 109h14v40h-14z" fill="#1b1464" transform="matrix(.86637426 .49939528 -.49939528 .86637426 198.17 -482.62)"/><path d="m970.69 147.95h30v13.99h-30z" fill="#8c6239" transform="matrix(.5 -.87 .87 .5 358.66 931.1)"/><path d="m1023.31 154.89-2.31 3.11-12-8 8.59-13.2 13.1-22.69 12.12 7z" fill="#1b1464"/><path d="m1060.45 91.34-22.77 37.66-33.37-20.19 17.69-33.81h-6a341.54 341.54 0 0 0 -36 0l1-12c26-1 34 0 34 0h12l35 12 4 2 3 2a16.65 16.65 0 0 0 -5 6l-2 4s0 1-1.55 2.34" fill="#fff"/><circle cx="974.5" cy="69.5" fill="#f9d0a7" r="9.5"/><path d="m1041.86 70.05-.5 10.96 4.46 2.26 9.88-6.21z" fill="#006837"/><path d="m1041.36 81-21.21 35.21 1.66 9.08a.54.54 0 0 0 .77.43l7.38-4.53 15.86-37.93z" fill="#009245"/><path d="m1041.43 69.83.29 9.19a.79.79 0 0 1 -1.45.29l-10-15.11z" fill="#e6e6e6"/><path d="m1047.25 81.73 8-4.89 10.75.16-18.56 5.32a.32.32 0 0 1 -.19-.59z" fill="#e6e6e6"/><ellipse cx="1057.61" cy="45.14" fill="#f9d0a7" rx="32.39" ry="32.14"/><circle cx="1026.95" cy="51.78" fill="#f9d0a7" r="6.45"/><path d="m1076 64.23c0 2.63-3.36 4.77-7.5 4.77s-7.5-2.14-7.5-4.77 3.86-1.23 8-1.23 7-1.41 7 1.23z" fill="#fff"/><path d="m1089.36 40.31c-.5-5.47-1.35-6.86-2.26-11.77a1.09 1.09 0 0 0 -.58-.78l-22.76-11.61a1 1 0 0 0 -.63-.11l-22.37 2.81h-10.3a1.09 1.09 0 0 0 -.81 1.81 1.08 1.08 0 0 1 -.24 1.64c-2 1.21-5.73 4.39-3.93 10.72a1.17 1.17 0 0 0 .09.24c.44.8-.73 4.45.47 17.23a1.37 1.37 0 0 0 2.71.15c2.11-10.18 9.64-21.75 14.07-25.73a1.06 1.06 0 0 1 .92-.23l39.75 5.43a1.08 1.08 0 0 1 .51.26c.54.51 1.72 5.17 2.76 10.3a1.31 1.31 0 0 0 2.6-.36z" fill="#d1a44a"/><path d="m1058.59 35.82c-2.59-.17-22.91-3.74-28.59-13.82 0 0 6-17 23-20 0 0 10.46-1.7 23.2 7.7.37.28 5.86 6.35 6.12 6.73 1.92 2.73 6.2 9.82 11.94 11.87a.3.3 0 0 1 -.06.58c-5 .54-21 2-29.24-.84l9.36 5.22a.2.2 0 0 1 -.1.38c-4.14-.39-20.88-2-23.17-3.79l7.6 5.79a.1.1 0 0 1 -.06.18z" fill="#ddae47"/><rect fill="#fff" height="16" rx="8" stroke="#000" stroke-miterlimit="10" stroke-width="2" width="20" x="1069" y="36"/><rect fill="#fff" height="16" rx="8" stroke="#000" stroke-miterlimit="10" stroke-width="2" width="20" x="1044" y="36"/><path d="m1064 44h5" fill="none" stroke="#000" stroke-miterlimit="10" stroke-width="2"/><circle cx="1057.5" cy="43.5" r="1.5"/><circle cx="1081.5" cy="43.5" r="1.5"/><path d="m1095.1 345.8h29v13.87h-29z" fill="#8c6239" transform="matrix(-.53317162 -.84600711 .84600711 -.53317162 1402.73 1479.54)"/><path d="m1110.53 298h14v40h-14z" fill="#1b1464" transform="matrix(-.86637426 .49939528 -.49939528 -.86637426 2244.54 35.41)"/><path d="m1117.78 336.95h30v13.99h-30z" fill="#8c6239" transform="matrix(-.5 -.8660254 .8660254 -.5 1401.3 1496.93)"/><path d="m1095.15 343.89 2.31 3.11 12-8-8.58-13.2-13.1-22.69-12.13 7z" fill="#1b1464"/><path d="m1058 280.34 22.79 37.66 33.37-20.19-17.7-33.8h6a341.54 341.54 0 0 1 36 0l-1-12c-26-1-34 0-34 0h-12l-35 12-4 2-3 2a16.65 16.65 0 0 1 5 6l2 4s0 1 1.56 2.34" fill="#fff"/><circle cx="1143.96" cy="258.5" fill="#f9d0a7" r="9.5"/><path d="m1076.6 259.05.5 10.96-4.46 2.26-9.87-6.21z" fill="#006837"/><path d="m1077.1 270 21.22 35.21-1.67 9.08a.53.53 0 0 1 -.76.43l-7.38-4.53-15.87-37.93z" fill="#009245"/><path d="m1077 258.83-.3 9.19a.8.8 0 0 0 1.46.29l9.94-15.11z" fill="#e6e6e6"/><path d="m1071.22 270.73-8-4.89-10.75.16 18.56 5.32a.32.32 0 0 0 .19-.59z" fill="#e6e6e6"/><ellipse cx="1060.86" cy="234.14" fill="#f9d0a7" rx="32.39" ry="32.14"/><circle cx="1091.52" cy="240.78" fill="#f9d0a7" r="6.45"/><path d="m1042.46 253.23c0 2.63 3.36 4.77 7.5 4.77s7.5-2.14 7.5-4.77-3.85-1.23-8-1.23-7-1.41-7 1.23z" fill="#fff"/><path d="m1029.1 229.31c.51-5.47 1.36-6.86 2.27-11.77a1.07 1.07 0 0 1 .57-.78l22.76-11.61a1.07 1.07 0 0 1 .63-.11l22.37 2.81h10.3a1.09 1.09 0 0 1 .82 1.81 1.08 1.08 0 0 0 .23 1.64c2 1.21 5.74 4.39 3.94 10.72a1.22 1.22 0 0 1 -.1.24c-.43.8.73 4.45-.47 17.23a1.37 1.37 0 0 1 -2.7.15c-2.11-10.18-9.64-21.75-14.07-25.73a1.07 1.07 0 0 0 -.93-.23l-39.72 5.44a1.11 1.11 0 0 0 -.52.26c-.53.51-1.71 5.17-2.76 10.3a1.31 1.31 0 0 1 -2.62-.37z" fill="#d1a44a"/><path d="m1059.88 224.82c2.59-.17 22.9-3.74 28.58-13.82 0 0-6-17-23-20 0 0-10.46-1.7-23.2 7.7-.37.28-5.85 6.35-6.12 6.73-1.91 2.73-6.19 9.82-11.94 11.87a.3.3 0 0 0 .07.58c5 .54 21 2 29.23-.84l-9.36 5.22a.2.2 0 0 0 .1.38c4.14-.39 20.88-2 23.18-3.79l-7.61 5.79a.1.1 0 0 0 .07.18z" fill="#ddae47"/><rect fill="#fff" height="16" rx="8" stroke="#000" stroke-miterlimit="10" stroke-width="2" transform="matrix(-1 0 0 -1 2078.93 466)" width="20" x="1029.46" y="225"/><rect fill="#fff" height="16" rx="8" stroke="#000" stroke-miterlimit="10" stroke-width="2" transform="matrix(-1 0 0 -1 2128.93 466)" width="20" x="1054.46" y="225"/><path d="m1054.46 233h-5" fill="none" stroke="#000" stroke-miterlimit="10" stroke-width="2"/><circle cx="1060.96" cy="232.5" r="1.5"/><circle cx="1036.96" cy="232.5" r="1.5"/><path d="m436.5 134.5h14v40h-14z" fill="#1b1464"/><path d="m436 162h30v13h-30z" fill="#8c6239"/><path d="m461.5 135.5h14v39h-14z" fill="#1b1464"/><path d="m461.5 161.5h29v13h-29z" fill="#8c6239"/><path d="m475.5 93.5v44h-39v-45c-6.5 17.5 2.5 41.5 2.5 41.5l-15 5c-18-56 12.5-63.5 12.5-63.5h35l5 1 3.5.5s1 38 20 42l-9 10s-18-1-15.5-35.5" fill="#fff"/><circle cx="432.5" cy="138.5" fill="#f9d0a7" r="9.5"/><circle cx="500.5" cy="128.5" fill="#f9d0a7" r="9.5"/><path d="m450.99 75.5 4.51 10h5l6-10z" fill="#006837"/><path d="m455.5 85.5-3 41 5.59 7.34a.53.53 0 0 0 .88 0l4.53-7.38-3-41z" fill="#009245"/><path d="m450.5 75.5 4.42 8.07a.8.8 0 0 1 -1.17.91l-15.7-9z" fill="#e6e6e6"/><path d="m461.07 83.48 4.93-8h9.5l-14 8.42a.32.32 0 0 1 -.43-.42z" fill="#e6e6e6"/><ellipse cx="456.61" cy="46.14" fill="#f9d0a7" rx="32.39" ry="32.14"/><circle cx="425.95" cy="52.78" fill="#f9d0a7" r="6.45"/><path d="m475 65.23c0 2.63-3.36 4.77-7.5 4.77s-7.5-2.14-7.5-4.77 3.86-1.23 8-1.23 7-1.41 7 1.23z" fill="#fff"/><path d="m488.36 41.31c-.5-5.47-1.35-6.86-2.26-11.77a1.09 1.09 0 0 0 -.58-.78l-22.76-11.61a1 1 0 0 0 -.63-.11l-22.37 2.81h-10.3a1.09 1.09 0 0 0 -.81 1.81 1.08 1.08 0 0 1 -.24 1.64c-2 1.21-5.73 4.39-3.93 10.72a1.17 1.17 0 0 0 .09.24c.44.8-.73 4.45.47 17.23a1.37 1.37 0 0 0 2.71.15c2.11-10.18 9.64-21.75 14.07-25.73a1.06 1.06 0 0 1 .92-.23l39.75 5.43a1.08 1.08 0 0 1 .51.26c.54.51 1.72 5.17 2.76 10.3a1.31 1.31 0 0 0 2.6-.36z" fill="#d1a44a"/><path d="m457.59 36.82c-2.59-.17-22.91-3.74-28.59-13.82 0 0 6-17 23-20 0 0 10.46-1.7 23.2 7.7.37.28 5.86 6.35 6.12 6.73 1.92 2.73 6.2 9.82 11.94 11.87a.3.3 0 0 1 -.06.58c-5 .54-21 2-29.24-.84l9.36 5.22a.2.2 0 0 1 -.1.38c-4.14-.39-20.88-2-23.17-3.79l7.6 5.79a.1.1 0 0 1 -.06.18z" fill="#ddae47"/><rect fill="#fff" height="16" rx="8" stroke="#000" stroke-miterlimit="10" stroke-width="2" width="20" x="468" y="37"/><rect fill="#fff" height="16" rx="8" stroke="#000" stroke-miterlimit="10" stroke-width="2" width="20" x="443" y="37"/><path d="m463 45h5" fill="none" stroke="#000" stroke-miterlimit="10" stroke-width="2"/><circle cx="456.5" cy="44.5" r="1.5"/><circle cx="480.5" cy="44.5" r="1.5"/><path d="m230 158v-14h11v-10l21 3v21z" fill="#1b1464"/><path d="m209.5 152.5h30v13h-30z" fill="#8c6239" transform="matrix(0 -1 1 0 65.5 383.5)"/><path d="m302 135v14h-46v-15z" fill="#1b1464"/><path d="m288 128h29v13h-29z" fill="#8c6239" transform="matrix(0 -1 1 0 168 437)"/><path d="m280 90-.5 46.5h-39v-45c-8.5-14.5-38.5-.5-38.5-.5l-6-12c27-18 46-6 46-6l2 1h1l30.5.5 5 1s22.5 8.5 40.5-6.5l8 12s-28.79 20-49.5 11.5" fill="#fff"/><circle cx="193.5" cy="87.5" fill="#f9d0a7" r="9.5"/><circle cx="327.5" cy="72.5" fill="#f9d0a7" r="9.5"/><path d="m254.99 74.5 4.51 10h5l6-10z" fill="#006837"/><path d="m259.5 84.5-3 41 5.59 7.34a.53.53 0 0 0 .88 0l4.53-7.38-3-41z" fill="#009245"/><path d="m254.5 74.5 4.42 8.07a.8.8 0 0 1 -1.17.91l-13.75-9.48z" fill="#e6e6e6"/><path d="m265.07 82.48 4.93-8 8 .5-12.49 7.92a.32.32 0 0 1 -.44-.42z" fill="#e6e6e6"/><ellipse cx="260.61" cy="45.14" fill="#f9d0a7" rx="32.39" ry="32.14"/><circle cx="229.95" cy="51.78" fill="#f9d0a7" r="6.45"/><path d="m279 64.23c0 2.63-3.36 4.77-7.5 4.77s-7.5-2.14-7.5-4.77 3.86-1.23 8-1.23 7-1.41 7 1.23z" fill="#fff"/><path d="m292.36 40.31c-.5-5.47-1.35-6.86-2.26-11.77a1.09 1.09 0 0 0 -.58-.78l-22.76-11.61a1 1 0 0 0 -.63-.11l-22.37 2.81h-10.3a1.09 1.09 0 0 0 -.81 1.81 1.08 1.08 0 0 1 -.24 1.64c-2 1.21-5.73 4.39-3.93 10.72a1.17 1.17 0 0 0 .09.24c.44.8-.73 4.45.47 17.23a1.37 1.37 0 0 0 2.71.15c2.11-10.18 9.64-21.75 14.07-25.73a1.06 1.06 0 0 1 .92-.23l39.75 5.43a1.08 1.08 0 0 1 .51.26c.54.51 1.72 5.17 2.76 10.3a1.31 1.31 0 0 0 2.6-.36z" fill="#d1a44a"/><path d="m261.59 35.82c-2.59-.17-22.91-3.74-28.59-13.82 0 0 6-17 23-20 0 0 10.46-1.7 23.2 7.7.37.28 5.86 6.35 6.12 6.73 1.92 2.73 6.2 9.82 11.94 11.87a.3.3 0 0 1 -.06.58c-5 .54-21 2-29.24-.84l9.36 5.22a.2.2 0 0 1 -.1.38c-4.14-.39-20.88-2-23.17-3.79l7.6 5.79a.1.1 0 0 1 -.06.18z" fill="#ddae47"/><rect fill="#fff" height="16" rx="8" stroke="#000" stroke-miterlimit="10" stroke-width="2" width="20" x="272" y="36"/><rect fill="#fff" height="16" rx="8" stroke="#000" stroke-miterlimit="10" stroke-width="2" width="20" x="247" y="36"/><path d="m267 44h5" fill="none" stroke="#000" stroke-miterlimit="10" stroke-width="2"/><circle cx="260.5" cy="43.5" r="1.5"/><circle cx="284.5" cy="43.5" r="1.5"/><path d="m1218.04 151.19-.49-13.99 45.45-.2 1 13z" fill="#1b1464"/><path d="m1209.01 129.47h30v13h-30z" fill="#8c6239" transform="matrix(.03507392 .99938472 -.99938472 .03507392 1316.88 -1092.06)"/><path d="m1308.49 134.22.92 13.97-45.41 1.81-4-13z" fill="#1b1464"/><path d="m1287.47 127.65h29v13h-29z" fill="#8c6239" transform="matrix(-.07 -1 1 -.07 1253.55 1442.12)"/><path d="m1280.5 92.5v44h-39v-45c-17.5-20.5-43.5-12.5-43.5-12.5l-5-13a44.49 44.49 0 0 1 48.5 8.5l31.5.5h8s11-15 46-10l-6 14s-23-2-40.5 13.5" fill="#fff"/><circle cx="1190.5" cy="74.5" fill="#f9d0a7" r="9.5"/><circle cx="1330.5" cy="73.5" fill="#f9d0a7" r="9.5"/><path d="m1255.99 74.5 4.51 10h5l6-10z" fill="#006837"/><path d="m1260.5 84.5-3 41 5.59 7.34a.53.53 0 0 0 .88 0l4.53-7.38-3-41z" fill="#009245"/><path d="m1255.5 74.5 4.42 8.07a.8.8 0 0 1 -1.17.91l-15.7-9z" fill="#e6e6e6"/><path d="m1266.07 82.48 4.93-8h9.5l-14 8.42a.32.32 0 0 1 -.43-.42z" fill="#e6e6e6"/><ellipse cx="1261.61" cy="45.14" fill="#f9d0a7" rx="32.39" ry="32.14"/><circle cx="1230.95" cy="51.78" fill="#f9d0a7" r="6.45"/><path d="m1280 64.23c0 2.63-3.36 4.77-7.5 4.77s-7.5-2.14-7.5-4.77 3.86-1.23 8-1.23 7-1.41 7 1.23z" fill="#fff"/><path d="m1293.36 40.31c-.5-5.47-1.35-6.86-2.26-11.77a1.09 1.09 0 0 0 -.58-.78l-22.76-11.61a1 1 0 0 0 -.63-.11l-22.37 2.81h-10.3a1.09 1.09 0 0 0 -.81 1.81 1.08 1.08 0 0 1 -.24 1.64c-2 1.21-5.73 4.39-3.93 10.72a1.17 1.17 0 0 0 .09.24c.44.8-.73 4.45.47 17.23a1.37 1.37 0 0 0 2.71.15c2.11-10.18 9.64-21.75 14.07-25.73a1.06 1.06 0 0 1 .92-.23l39.75 5.43a1.08 1.08 0 0 1 .51.26c.54.51 1.72 5.17 2.76 10.3a1.31 1.31 0 0 0 2.6-.36z" fill="#d1a44a"/><path d="m1262.59 35.82c-2.59-.17-22.91-3.74-28.59-13.82 0 0 6-17 23-20 0 0 10.46-1.7 23.2 7.7.37.28 5.86 6.35 6.12 6.73 1.92 2.73 6.2 9.82 11.94 11.87a.3.3 0 0 1 -.06.58c-5 .54-21 2-29.24-.84l9.36 5.22a.2.2 0 0 1 -.1.38c-4.14-.39-20.88-2-23.17-3.79l7.6 5.79a.1.1 0 0 1 -.06.18z" fill="#ddae47"/><rect fill="#fff" height="16" rx="8" stroke="#000" stroke-miterlimit="10" stroke-width="2" width="20" x="1273" y="36"/><rect fill="#fff" height="16" rx="8" stroke="#000" stroke-miterlimit="10" stroke-width="2" width="20" x="1248" y="36"/><path d="m1268 44h5" fill="none" stroke="#000" stroke-miterlimit="10" stroke-width="2"/><circle cx="1261.5" cy="43.5" r="1.5"/><circle cx="1285.5" cy="43.5" r="1.5"/><path d="m1411.59 147.52-.08-14 45.44 1.15.61 13.02z" fill="#1b1464"/><path d="m1403 125.99h30v13h-30z" fill="#8c6239" transform="matrix(.00558502 .9999844 -.9999844 .00558502 1542.66 -1286.23)"/><path d="m1503.49 134.22.92 13.97-48.41-.19-1-13z" fill="#1b1464"/><path d="m1482.47 127.65h29v13h-29z" fill="#8c6239" transform="matrix(-.07 -1 1 -.07 1461.35 1636.7)"/><path d="m1475.5 92.5v44h-39v-45c-17.5-20.5-43.5-12.5-43.5-12.5l-5-13a44.49 44.49 0 0 1 48.5 8.5l31.5.5h8s11-15 46-10l-6 14s-23-2-40.5 13.5" fill="#fff"/><circle cx="1385.5" cy="74.5" fill="#f9d0a7" r="9.5"/><circle cx="1525.5" cy="73.5" fill="#f9d0a7" r="9.5"/><path d="m1450.99 74.5 4.51 10h5l6-10z" fill="#006837"/><path d="m1455.5 84.5-3 41 5.59 7.34a.53.53 0 0 0 .88 0l4.53-7.38-3-41z" fill="#009245"/><path d="m1450.5 74.5 4.42 8.07a.8.8 0 0 1 -1.17.91l-15.7-9z" fill="#e6e6e6"/><path d="m1461.07 82.48 4.93-8h9.5l-14 8.42a.32.32 0 0 1 -.43-.42z" fill="#e6e6e6"/><ellipse cx="1456.61" cy="45.14" fill="#f9d0a7" rx="32.39" ry="32.14"/><circle cx="1425.95" cy="51.78" fill="#f9d0a7" r="6.45"/><path d="m1475 64.23c0 2.63-3.36 4.77-7.5 4.77s-7.5-2.14-7.5-4.77 3.86-1.23 8-1.23 7-1.41 7 1.23z" fill="#fff"/><path d="m1488.36 40.31c-.5-5.47-1.35-6.86-2.26-11.77a1.09 1.09 0 0 0 -.58-.78l-22.76-11.61a1 1 0 0 0 -.63-.11l-22.37 2.81h-10.3a1.09 1.09 0 0 0 -.81 1.81 1.08 1.08 0 0 1 -.24 1.64c-2 1.21-5.73 4.39-3.93 10.72a1.17 1.17 0 0 0 .09.24c.44.8-.73 4.45.47 17.23a1.37 1.37 0 0 0 2.71.15c2.11-10.18 9.64-21.75 14.07-25.73a1.06 1.06 0 0 1 .92-.23l39.75 5.43a1.08 1.08 0 0 1 .51.26c.54.51 1.72 5.17 2.76 10.3a1.31 1.31 0 0 0 2.6-.36z" fill="#d1a44a"/><path d="m1457.59 35.82c-2.59-.17-22.91-3.74-28.59-13.82 0 0 6-17 23-20 0 0 10.46-1.7 23.2 7.7.37.28 5.86 6.35 6.12 6.73 1.92 2.73 6.2 9.82 11.94 11.87a.3.3 0 0 1 -.06.58c-5 .54-21 2-29.24-.84l9.36 5.22a.2.2 0 0 1 -.1.38c-4.14-.39-20.88-2-23.17-3.79l7.6 5.79a.1.1 0 0 1 -.06.18z" fill="#ddae47"/><rect fill="#fff" height="16" rx="8" stroke="#000" stroke-miterlimit="10" stroke-width="2" width="20" x="1468" y="36"/><rect fill="#fff" height="16" rx="8" stroke="#000" stroke-miterlimit="10" stroke-width="2" width="20" x="1443" y="36"/><path d="m1463 44h5" fill="none" stroke="#000" stroke-miterlimit="10" stroke-width="2"/><circle cx="1456.5" cy="43.5" r="1.5"/><circle cx="1480.5" cy="43.5" r="1.5"/><path d="m1640.5 133.5h14v40h-14z" fill="#1b1464"/><path d="m1624.5 160.5h30v13h-30z" fill="#8c6239"/><path d="m1665.5 134.5h14v39h-14z" fill="#1b1464"/><path d="m1665.5 160.5h29v13h-29z" fill="#8c6239"/><path d="m1679.5 92.5v44h-39v-45c-37.5-23.5-35.5-47.5-35.5-47.5h12c9 17 23.5 30.5 23.5 30.5l27.5.5 12.5.5a63.92 63.92 0 0 0 23.5-31.5l12 2s-13 42-36.5 46.5" fill="#fff"/><circle cx="1610.5" cy="38.5" fill="#f9d0a7" r="9.5"/><circle cx="1710.5" cy="38.5" fill="#f9d0a7" r="9.5"/><path d="m1654.99 74.5 4.51 10h5l6-10z" fill="#006837"/><path d="m1659.5 84.5-3 41 5.59 7.34a.53.53 0 0 0 .88 0l4.53-7.38-3-41z" fill="#009245"/><path d="m1654.5 74.5 4.42 8.07a.8.8 0 0 1 -1.17.91l-15.7-9z" fill="#e6e6e6"/><path d="m1665.07 82.48 4.93-8h9.5l-14 8.42a.32.32 0 0 1 -.43-.42z" fill="#e6e6e6"/><ellipse cx="1660.61" cy="45.14" fill="#f9d0a7" rx="32.39" ry="32.14"/><circle cx="1629.95" cy="51.78" fill="#f9d0a7" r="6.45"/><path d="m1678 64.23c0 2.63-2.36 4.77-6.5 4.77s-6.5-2.14-6.5-4.77 2.86-5.23 7-5.23 6 2.59 6 5.23z" fill="#fff"/><path d="m1692.36 40.31c-.5-5.47-1.35-6.86-2.26-11.77a1.09 1.09 0 0 0 -.58-.78l-22.76-11.61a1 1 0 0 0 -.63-.11l-22.37 2.81h-10.3a1.09 1.09 0 0 0 -.81 1.81 1.08 1.08 0 0 1 -.24 1.64c-2 1.21-5.73 4.39-3.93 10.72a1.17 1.17 0 0 0 .09.24c.44.8-.73 4.45.47 17.23a1.37 1.37 0 0 0 2.71.15c2.11-10.18 9.64-21.75 14.07-25.73a1.06 1.06 0 0 1 .92-.23l39.75 5.43a1.08 1.08 0 0 1 .51.26c.54.51 1.72 5.17 2.76 10.3a1.31 1.31 0 0 0 2.6-.36z" fill="#d1a44a"/><path d="m1661.59 35.82c-2.59-.17-22.91-3.74-28.59-13.82 0 0 6-17 23-20 0 0 10.46-1.7 23.2 7.7.37.28 5.86 6.35 6.12 6.73 1.92 2.73 6.2 9.82 11.94 11.87a.3.3 0 0 1 -.06.58c-5 .54-21 2-29.24-.84l9.36 5.22a.2.2 0 0 1 -.1.38c-4.14-.39-20.88-2-23.17-3.79l7.6 5.79a.1.1 0 0 1 -.06.18z" fill="#ddae47"/><g stroke-miterlimit="10"><rect fill="#f9d0a7" height="16" rx="8" stroke="#000" stroke-width="2" width="20" x="1672" y="36"/><rect fill="#f9d0a7" height="16" rx="8" stroke="#000" stroke-width="2" width="20" x="1647" y="36"/><path d="m1667 44h5" fill="none" stroke="#000" stroke-width="2"/><path d="m1647.5 44.5 18.5-.5" stroke="#b79274"/><path d="m1673 44.5h18" stroke="#b79274"/></g><path d="m65.5 322.5h14v40h-14z" fill="#1b1464" transform="matrix(-1 0 0 -1 145 685)"/><path d="m65.5 349.5h30v13h-30z" fill="#8c6239" transform="matrix(-1 0 0 -1 161 712)"/><path d="m40.5 323.5h14v39h-14z" fill="#1b1464" transform="matrix(-1 0 0 -1 95 686)"/><path d="m25.5 349.5h29v13h-29z" fill="#8c6239" transform="matrix(-1 0 0 -1 80 712)"/><path d="m40.5 281.5v44h39v-45c21 8.53 21 28 21 28l15-3c-7-35-36-42-36-42h-35l-5 1s-28.6 6-35.5 41l14.79 3s1-18.47 21.71-27" fill="#fff"/><circle cx="110" cy="313" fill="#f9d0a7" r="9.5"/><circle cx="10" cy="313" fill="#f9d0a7" r="9.5"/><path d="m65.01 263.5-4.51 10h-5l-6-10z" fill="#006837"/><path d="m60.5 273.5 3 41-5.59 7.34a.53.53 0 0 1 -.88 0l-4.53-7.34 3-41z" fill="#009245"/><path d="m65.5 263.5-4.42 8.07a.8.8 0 0 0 1.17.91l15.7-9z" fill="#e6e6e6"/><path d="m54.93 271.48-4.93-8h-9.5l14 8.42a.32.32 0 0 0 .43-.42z" fill="#e6e6e6"/><ellipse cx="59.39" cy="234.14" fill="#f9d0a7" rx="32.39" ry="32.14"/><circle cx="90.05" cy="240.78" fill="#f9d0a7" r="6.45"/><path d="m41 253.23c0 2.63 3.36 4.77 7.5 4.77s7.5-2.14 7.5-4.77-3.86-1.23-8-1.23-7-1.41-7 1.23z" fill="#fff"/><path d="m27.64 229.31c.5-5.47 1.35-6.86 2.26-11.77a1.09 1.09 0 0 1 .58-.78l22.76-11.61a1 1 0 0 1 .63-.11l22.37 2.81h10.3a1.09 1.09 0 0 1 .81 1.81 1.08 1.08 0 0 0 .24 1.64c2 1.21 5.73 4.39 3.93 10.72a1.17 1.17 0 0 1 -.09.24c-.44.8.73 4.45-.47 17.23a1.37 1.37 0 0 1 -2.71.15c-2.11-10.18-9.64-21.75-14.07-25.73a1.06 1.06 0 0 0 -.92-.23l-39.75 5.43a1.08 1.08 0 0 0 -.51.26c-.54.51-1.72 5.17-2.76 10.3a1.31 1.31 0 0 1 -2.6-.36z" fill="#d1a44a"/><path d="m58.41 224.82c2.59-.17 22.91-3.74 28.59-13.82 0 0-6-17-23-20 0 0-10.46-1.7-23.2 7.7-.37.28-5.86 6.35-6.12 6.73-1.92 2.73-6.2 9.82-11.94 11.87a.3.3 0 0 0 .06.58c5 .54 21 2 29.24-.84l-9.36 5.22a.2.2 0 0 0 .1.38c4.14-.39 20.88-2 23.17-3.79l-7.6 5.79a.1.1 0 0 0 .06.18z" fill="#ddae47"/><rect fill="#fff" height="16" rx="8" stroke="#000" stroke-miterlimit="10" stroke-width="2" transform="matrix(-1 0 0 -1 76 466)" width="20" x="28" y="225"/><rect fill="#fff" height="16" rx="8" stroke="#000" stroke-miterlimit="10" stroke-width="2" transform="matrix(-1 0 0 -1 126 466)" width="20" x="53" y="225"/><path d="m53 233h-5" fill="none" stroke="#000" stroke-miterlimit="10" stroke-width="2"/><circle cx="59.5" cy="232.5" r="1.5"/><circle cx="35.5" cy="232.5" r="1.5"/><path d="m707.86 290h14v40h-14z" fill="#1b1464" transform="matrix(-.84 .54 -.54 -.84 1484.25 186.87)"/><path d="m725.86 303h30v13h-30z" fill="#8c6239" transform="matrix(-.84301613 .53788828 -.53788828 -.84301613 1531.9 171.97)"/><path d="m690.16 311.43h14v39h-14z" fill="#1b1464" transform="matrix(-.83971465 .5430279 -.5430279 -.83971465 1462.27 230.21)"/><path d="m695.92 344.23h29v14.72h-29z" fill="#8c6239" transform="matrix(.5430279 .83971465 -.83971465 .5430279 619.85 -435.88)"/><path d="m658.86 281 22 38 35-20-12-20-8-15c6 11 1 2 1 2v-1a1 1 0 0 1 -1-1l-2-3-3-4-30 9h-23s-11 0-27-1v15s13 2 33.5 1.5" fill="#fff"/><circle cx="605.36" cy="272.5" fill="#f9d0a7" r="9.5"/><path d="m676.86 262.63-.14 10.97-4.58 2-11.28-9.6z" fill="#006837"/><path d="m676.72 273.6 19.15 36.4-2.19 9a.53.53 0 0 1 -.79.39l-7.11-4.95-13.64-38.84z" fill="#009245"/><path d="m677.31 262.44-.83 9.16a.8.8 0 0 0 1.43.37l10.81-14.51z" fill="#e6e6e6"/><path d="m670.81 274-9.95-8h-9l18.72 8.56a.32.32 0 0 0 .23-.56z" fill="#e6e6e6"/><ellipse cx="663.25" cy="234.14" fill="#f9d0a7" rx="32.39" ry="32.14"/><circle cx="693.91" cy="240.78" fill="#f9d0a7" r="6.45"/><path d="m644.86 253.23c0 2.63 3.36 4.77 7.5 4.77s7.5-2.14 7.5-4.77-3.86-1.23-8-1.23-7-1.41-7 1.23z" fill="#fff"/><path d="m631.49 229.31c.51-5.47 1.36-6.86 2.27-11.77a1.09 1.09 0 0 1 .58-.78l22.76-11.61a1 1 0 0 1 .63-.11l22.37 2.81h10.3a1.09 1.09 0 0 1 .81 1.81 1.09 1.09 0 0 0 .23 1.64c2 1.21 5.74 4.39 3.94 10.72a1.17 1.17 0 0 1 -.09.24c-.44.8.72 4.45-.47 17.23a1.37 1.37 0 0 1 -2.71.15c-2.11-10.17-9.64-21.74-14.11-25.72a1.07 1.07 0 0 0 -.93-.23l-39.74 5.43a1.08 1.08 0 0 0 -.51.26c-.54.51-1.72 5.17-2.77 10.3a1.31 1.31 0 0 1 -2.56-.37z" fill="#d1a44a"/><path d="m662.27 224.82c2.59-.17 22.9-3.74 28.59-13.82 0 0-6-17-23-20 0 0-10.46-1.7-23.2 7.7-.37.28-5.86 6.35-6.12 6.73-1.92 2.73-6.2 9.82-11.94 11.87a.3.3 0 0 0 .06.58c5 .54 21 2 29.23-.84l-9.35 5.22a.2.2 0 0 0 .1.38c4.13-.39 20.88-2 23.17-3.79l-7.6 5.79a.1.1 0 0 0 .06.18z" fill="#ddae47"/><rect fill="#fff" height="16" rx="8" stroke="#000" stroke-miterlimit="10" stroke-width="2" transform="matrix(-1 0 0 -1 1283.72 466)" width="20" x="631.86" y="225"/><rect fill="#fff" height="16" rx="8" stroke="#000" stroke-miterlimit="10" stroke-width="2" transform="matrix(-1 0 0 -1 1333.72 466)" width="20" x="656.86" y="225"/><path d="m656.86 233h-5" fill="none" stroke="#000" stroke-miterlimit="10" stroke-width="2"/><circle cx="663.36" cy="232.5" r="1.5"/><circle cx="639.36" cy="232.5" r="1.5"/><path d="m911.46 311h29v13h-29z" fill="#8c6239" transform="matrix(-.8660254 .5 -.5 -.8660254 1886.62 129.48)"/><path d="m910.53 298h14v40h-14z" fill="#1b1464" transform="matrix(-.86637426 .49939528 -.49939528 -.86637426 1871.27 135.28)"/><path d="m917.94 337.04h30v13.62h-30z" fill="#8c6239" transform="matrix(-.5 -.8660254 .8660254 -.5 1101.62 1323.72)"/><path d="m895.15 343.89 33.32-19.89-6-11-21.59 12.8-13.1-22.69-12.13 7z" fill="#1b1464"/><path d="m858 280.34 22.79 37.66 33.37-20.19-17.7-33.81h6a341.54 341.54 0 0 1 36 0l-1-12c-26-1-34 0-34 0h-12l-35 12-4 2-3 2a16.65 16.65 0 0 1 5 6l2 4s0 1 1.56 2.34" fill="#fff"/><circle cx="943.96" cy="258.5" fill="#f9d0a7" r="9.5"/><path d="m876.6 259.05.5 10.96-4.46 2.26-9.87-6.21z" fill="#006837"/><path d="m877.1 270 21.22 35.21-1.67 9.08a.53.53 0 0 1 -.76.43l-7.38-4.53-15.87-37.93z" fill="#009245"/><path d="m877 258.83-.3 9.19a.8.8 0 0 0 1.46.29l9.94-15.11z" fill="#e6e6e6"/><path d="m871.22 270.73-8-4.89-10.75.16 18.53 5.32a.32.32 0 0 0 .22-.59z" fill="#e6e6e6"/><ellipse cx="860.86" cy="234.14" fill="#f9d0a7" rx="32.39" ry="32.14"/><circle cx="891.52" cy="240.78" fill="#f9d0a7" r="6.45"/><path d="m842.46 253.23c0 2.63 3.36 4.77 7.5 4.77s7.5-2.14 7.5-4.77-3.85-1.23-8-1.23-7-1.41-7 1.23z" fill="#fff"/><path d="m829.1 229.31c.51-5.47 1.36-6.86 2.27-11.77a1.07 1.07 0 0 1 .57-.78l22.76-11.61a1.07 1.07 0 0 1 .63-.11l22.37 2.81h10.3a1.09 1.09 0 0 1 .82 1.81 1.08 1.08 0 0 0 .23 1.64c2 1.21 5.74 4.39 3.94 10.72a1.22 1.22 0 0 1 -.1.24c-.43.8.73 4.45-.47 17.23a1.37 1.37 0 0 1 -2.7.15c-2.11-10.18-9.64-21.75-14.07-25.73a1.07 1.07 0 0 0 -.93-.23l-39.72 5.44a1.11 1.11 0 0 0 -.52.26c-.53.51-1.71 5.17-2.76 10.3a1.31 1.31 0 0 1 -2.62-.37z" fill="#d1a44a"/><path d="m859.88 224.82c2.59-.17 22.9-3.74 28.58-13.82 0 0-6-17-23-20 0 0-10.46-1.7-23.2 7.7-.37.28-5.85 6.35-6.12 6.73-1.91 2.73-6.19 9.82-11.94 11.87a.3.3 0 0 0 .07.58c5 .54 21 2 29.23-.84l-9.36 5.22a.2.2 0 0 0 .1.38c4.14-.39 20.88-2 23.18-3.79l-7.61 5.79a.1.1 0 0 0 .07.18z" fill="#ddae47"/><rect fill="#fff" height="16" rx="8" stroke="#000" stroke-miterlimit="10" stroke-width="2" transform="matrix(-1 0 0 -1 1678.93 466)" width="20" x="829.46" y="225"/><rect fill="#fff" height="16" rx="8" stroke="#000" stroke-miterlimit="10" stroke-width="2" transform="matrix(-1 0 0 -1 1728.93 466)" width="20" x="854.46" y="225"/><path d="m854.46 233h-5" fill="none" stroke="#000" stroke-miterlimit="10" stroke-width="2"/><circle cx="860.96" cy="232.5" r="1.5"/><circle cx="836.96" cy="232.5" r="1.5"/><path d="m469.82 322.5h14v40h-14z" fill="#1b1464" transform="matrix(-1 0 0 -1 953.63 685)"/><path d="m454.32 350h30v13h-30z" fill="#8c6239" transform="matrix(-1 0 0 -1 938.63 713)"/><path d="m444.82 323.5h14v39h-14z" fill="#1b1464" transform="matrix(-1 0 0 -1 903.63 686)"/><path d="m429.82 349.5h29v13h-29z" fill="#8c6239" transform="matrix(-1 0 0 -1 888.63 712)"/><path d="m444.82 281.5v44h39v-45c6.5 17.5-2.5 41.5-2.5 41.5l15 5c18-56-12.5-63.5-12.5-63.5h-35l-5 1-3.5.5s-1 38-20 42l9 10s18-1 15.5-35.5" fill="#fff"/><circle cx="487.82" cy="326.5" fill="#f9d0a7" r="9.5"/><circle cx="419.82" cy="316.5" fill="#f9d0a7" r="9.5"/><path d="m469.33 263.5-4.52 10h-5l-6-10z" fill="#006837"/><path d="m464.82 273.5 3 41-5.59 7.34a.53.53 0 0 1 -.88 0l-4.53-7.38 3-41z" fill="#009245"/><path d="m469.82 263.5-4.42 8.07a.79.79 0 0 0 1.16.91l15.71-9z" fill="#e6e6e6"/><path d="m459.24 271.48-4.92-8h-9.5l14 8.42a.32.32 0 0 0 .42-.42z" fill="#e6e6e6"/><ellipse cx="463.71" cy="234.14" fill="#f9d0a7" rx="32.39" ry="32.14"/><circle cx="494.37" cy="240.78" fill="#f9d0a7" r="6.45"/><path d="m445.32 253.23c0 2.63 3.35 4.77 7.5 4.77s7.5-2.14 7.5-4.77-3.86-1.23-8-1.23-7-1.41-7 1.23z" fill="#fff"/><path d="m432 229.31c.51-5.47 1.36-6.86 2.27-11.77a1.07 1.07 0 0 1 .57-.78l22.76-11.61a1.07 1.07 0 0 1 .63-.11l22.37 2.81h10.3a1.09 1.09 0 0 1 .82 1.81 1.08 1.08 0 0 0 .23 1.64c2 1.21 5.74 4.39 3.94 10.72a1.22 1.22 0 0 1 -.1.24c-.43.8.73 4.45-.47 17.23a1.37 1.37 0 0 1 -2.7.15c-2.11-10.18-9.64-21.75-14.07-25.73a1.07 1.07 0 0 0 -.93-.23l-39.74 5.43a1.08 1.08 0 0 0 -.51.26c-.54.51-1.72 5.17-2.77 10.3a1.31 1.31 0 0 1 -2.6-.36z" fill="#d1a44a"/><path d="m462.73 224.82c2.59-.17 22.9-3.74 28.59-13.82 0 0-6-17-23-20 0 0-10.47-1.7-23.21 7.7-.37.28-5.85 6.35-6.12 6.73-1.91 2.73-6.19 9.82-11.93 11.87a.3.3 0 0 0 .06.58c5 .54 21 2 29.23-.84l-9.35 5.22a.2.2 0 0 0 .11.38c4.13-.39 20.88-2 23.17-3.79l-7.61 5.79a.1.1 0 0 0 .06.18z" fill="#ddae47"/><rect fill="#fff" height="16" rx="8" stroke="#000" stroke-miterlimit="10" stroke-width="2" transform="matrix(-1 0 0 -1 884.63 466)" width="20" x="432.32" y="225"/><rect fill="#fff" height="16" rx="8" stroke="#000" stroke-miterlimit="10" stroke-width="2" transform="matrix(-1 0 0 -1 934.63 466)" width="20" x="457.32" y="225"/><path d="m457.32 233h-5" fill="none" stroke="#000" stroke-miterlimit="10" stroke-width="2"/><circle cx="463.82" cy="232.5" r="1.5"/><circle cx="439.82" cy="232.5" r="1.5"/><path d="m291 347v-14h-11v-10l-21 3v21z" fill="#1b1464"/><path d="m281.5 341.5h30v13h-30z" fill="#8c6239" transform="matrix(0 -1 1 0 -51.5 644.5)"/><path d="m219 324v14h46v-15z" fill="#1b1464"/><path d="m204 317h29v13h-29z" fill="#8c6239" transform="matrix(0 -1 1 0 -105 542)"/><path d="m241 279 .5 46.5h39v-45c8.5-14.5 38.5-.5 38.5-.5l6-12c-27-18-46-6-46-6l-2 1h-1l-30.5.5-5 1s-22.5 8.5-40.5-6.5l-8 12s28.79 20 49.5 11.5" fill="#fff"/><circle cx="327.5" cy="276.5" fill="#f9d0a7" r="9.5"/><circle cx="193.5" cy="261.5" fill="#f9d0a7" r="9.5"/><path d="m266.01 263.5-4.51 10h-5l-6-10z" fill="#006837"/><path d="m261.5 273.5 3 41-5.59 7.34a.53.53 0 0 1 -.88 0l-4.53-7.38 3-41z" fill="#009245"/><path d="m266.5 263.5-4.42 8.07a.8.8 0 0 0 1.17.91l13.75-9.48z" fill="#e6e6e6"/><path d="m255.93 271.48-4.93-8-8 .5 12.49 7.92a.32.32 0 0 0 .44-.42z" fill="#e6e6e6"/><ellipse cx="260.39" cy="234.14" fill="#f9d0a7" rx="32.39" ry="32.14"/><circle cx="291.05" cy="240.78" fill="#f9d0a7" r="6.45"/><path d="m242 253.23c0 2.63 3.36 4.77 7.5 4.77s7.5-2.14 7.5-4.77-3.86-1.23-8-1.23-7-1.41-7 1.23z" fill="#fff"/><path d="m228.64 229.31c.5-5.47 1.35-6.86 2.26-11.77a1.09 1.09 0 0 1 .58-.78l22.76-11.61a1 1 0 0 1 .63-.11l22.37 2.81h10.3a1.09 1.09 0 0 1 .81 1.81 1.08 1.08 0 0 0 .24 1.64c2 1.21 5.73 4.39 3.93 10.72a1.17 1.17 0 0 1 -.09.24c-.44.8.73 4.45-.47 17.23a1.37 1.37 0 0 1 -2.71.15c-2.11-10.18-9.64-21.75-14.07-25.73a1.06 1.06 0 0 0 -.92-.23l-39.75 5.43a1.08 1.08 0 0 0 -.51.26c-.54.51-1.72 5.17-2.76 10.3a1.31 1.31 0 0 1 -2.6-.36z" fill="#d1a44a"/><path d="m259.41 224.82c2.59-.17 22.91-3.74 28.59-13.82 0 0-6-17-23-20 0 0-10.46-1.7-23.2 7.7-.37.28-5.86 6.35-6.12 6.73-1.92 2.73-6.2 9.82-11.94 11.87a.3.3 0 0 0 .06.58c5 .54 21 2 29.24-.84l-9.36 5.22a.2.2 0 0 0 .1.38c4.14-.39 20.88-2 23.17-3.79l-7.6 5.79a.1.1 0 0 0 .06.18z" fill="#ddae47"/><rect fill="#fff" height="16" rx="8" stroke="#000" stroke-miterlimit="10" stroke-width="2" transform="matrix(-1 0 0 -1 478 466)" width="20" x="229" y="225"/><rect fill="#fff" height="16" rx="8" stroke="#000" stroke-miterlimit="10" stroke-width="2" transform="matrix(-1 0 0 -1 528 466)" width="20" x="254" y="225"/><path d="m254 233h-5" fill="none" stroke="#000" stroke-miterlimit="10" stroke-width="2"/><circle cx="260.5" cy="232.5" r="1.5"/><circle cx="236.5" cy="232.5" r="1.5"/><path d="m1302.96 340.19.49-13.99-45.45-.2-1 13z" fill="#1b1464"/><path d="m1281.99 318.47h30v13h-30z" fill="#8c6239" transform="matrix(-.03507392 .99938472 -.99938472 -.03507392 1667.35 -959.8)"/><path d="m1212.51 323.22-.92 13.97 45.41 1.81 4-13z" fill="#1b1464"/><path d="m1204.53 316.65h29v13h-29z" fill="#8c6239" transform="matrix(.06557729 -.99784749 .99784749 .06557729 816.58 1518.34)"/><path d="m1240.5 281.5v44h39v-45c17.5-20.5 43.5-12.5 43.5-12.5l5-13a44.49 44.49 0 0 0 -48.5 8.5l-31.5.5h-8s-11-15-46-10l6 14s23-2 40.5 13.5" fill="#fff"/><circle cx="1330.5" cy="263.5" fill="#f9d0a7" r="9.5"/><circle cx="1190.5" cy="262.5" fill="#f9d0a7" r="9.5"/><path d="m1265.01 263.5-4.51 10h-5l-6-10z" fill="#006837"/><path d="m1260.5 273.5 3 41-5.59 7.34a.53.53 0 0 1 -.88 0l-4.53-7.38 3-41z" fill="#009245"/><path d="m1265.5 263.5-4.42 8.07a.8.8 0 0 0 1.17.91l15.7-9z" fill="#e6e6e6"/><path d="m1254.93 271.48-4.93-8h-9.5l14 8.42a.32.32 0 0 0 .43-.42z" fill="#e6e6e6"/><ellipse cx="1259.39" cy="234.14" fill="#f9d0a7" rx="32.39" ry="32.14"/><circle cx="1290.05" cy="240.78" fill="#f9d0a7" r="6.45"/><path d="m1241 253.23c0 2.63 3.36 4.77 7.5 4.77s7.5-2.14 7.5-4.77-3.86-1.23-8-1.23-7-1.41-7 1.23z" fill="#fff"/><path d="m1227.64 229.31c.5-5.47 1.35-6.86 2.26-11.77a1.09 1.09 0 0 1 .58-.78l22.76-11.61a1 1 0 0 1 .63-.11l22.37 2.81h10.3a1.09 1.09 0 0 1 .81 1.81 1.08 1.08 0 0 0 .24 1.64c2 1.21 5.73 4.39 3.93 10.72a1.17 1.17 0 0 1 -.09.24c-.44.8.73 4.45-.47 17.23a1.37 1.37 0 0 1 -2.71.15c-2.11-10.18-9.64-21.75-14.07-25.73a1.06 1.06 0 0 0 -.92-.23l-39.75 5.43a1.08 1.08 0 0 0 -.51.26c-.54.51-1.72 5.17-2.76 10.3a1.31 1.31 0 0 1 -2.6-.36z" fill="#d1a44a"/><path d="m1258.41 224.82c2.59-.17 22.91-3.74 28.59-13.82 0 0-6-17-23-20 0 0-10.46-1.7-23.2 7.7-.37.28-5.86 6.35-6.12 6.73-1.92 2.73-6.2 9.82-11.94 11.87a.3.3 0 0 0 .06.58c5 .54 21 2 29.24-.84l-9.36 5.22a.2.2 0 0 0 .1.38c4.14-.39 20.88-2 23.17-3.79l-7.6 5.79a.1.1 0 0 0 .06.18z" fill="#ddae47"/><rect fill="#fff" height="16" rx="8" stroke="#000" stroke-miterlimit="10" stroke-width="2" transform="matrix(-1 0 0 -1 2476 466)" width="20" x="1228" y="225"/><rect fill="#fff" height="16" rx="8" stroke="#000" stroke-miterlimit="10" stroke-width="2" transform="matrix(-1 0 0 -1 2526 466)" width="20" x="1253" y="225"/><path d="m1253 233h-5" fill="none" stroke="#000" stroke-miterlimit="10" stroke-width="2"/><circle cx="1259.5" cy="232.5" r="1.5"/><circle cx="1235.5" cy="232.5" r="1.5"/><path d="m1503.41 336.52.08-14-45.44 1.15-.61 13.02z" fill="#1b1464"/><path d="m1482 314.99h30v13h-30z" fill="#8c6239" transform="matrix(-.00558502 .9999844 -.9999844 -.00558502 1826.74 -1173.71)"/><path d="m1411.51 323.22-.92 13.97 48.41-.19 1-13z" fill="#1b1464"/><path d="m1403.53 316.65h29v13h-29z" fill="#8c6239" transform="matrix(.06557729 -.99784749 .99784749 .06557729 1002.52 1716.91)"/><path d="m1439.5 281.5v44h39v-45c17.5-20.5 43.5-12.5 43.5-12.5l5-13a44.49 44.49 0 0 0 -48.5 8.5l-31.5.5h-8s-11-15-46-10l6 14s23-2 40.5 13.5" fill="#fff"/><circle cx="1529.5" cy="263.5" fill="#f9d0a7" r="9.5"/><circle cx="1389.5" cy="262.5" fill="#f9d0a7" r="9.5"/><path d="m1464.01 263.5-4.51 10h-5l-6-10z" fill="#006837"/><path d="m1459.5 273.5 3 41-5.59 7.34a.53.53 0 0 1 -.88 0l-4.53-7.38 3-41z" fill="#009245"/><path d="m1464.5 263.5-4.42 8.07a.8.8 0 0 0 1.17.91l15.7-9z" fill="#e6e6e6"/><path d="m1453.93 271.48-4.93-8h-9.5l14 8.42a.32.32 0 0 0 .43-.42z" fill="#e6e6e6"/><ellipse cx="1458.39" cy="234.14" fill="#f9d0a7" rx="32.39" ry="32.14"/><circle cx="1489.05" cy="240.78" fill="#f9d0a7" r="6.45"/><path d="m1440 253.23c0 2.63 3.36 4.77 7.5 4.77s7.5-2.14 7.5-4.77-3.86-1.23-8-1.23-7-1.41-7 1.23z" fill="#fff"/><path d="m1426.64 229.31c.5-5.47 1.35-6.86 2.26-11.77a1.09 1.09 0 0 1 .58-.78l22.76-11.61a1 1 0 0 1 .63-.11l22.37 2.81h10.3a1.09 1.09 0 0 1 .81 1.81 1.08 1.08 0 0 0 .24 1.64c2 1.21 5.73 4.39 3.93 10.72a1.17 1.17 0 0 1 -.09.24c-.44.8.73 4.45-.47 17.23a1.37 1.37 0 0 1 -2.71.15c-2.11-10.18-9.64-21.75-14.07-25.73a1.06 1.06 0 0 0 -.92-.23l-39.75 5.43a1.08 1.08 0 0 0 -.51.26c-.54.51-1.72 5.17-2.76 10.3a1.31 1.31 0 0 1 -2.6-.36z" fill="#d1a44a"/><path d="m1457.41 224.82c2.59-.17 22.91-3.74 28.59-13.82 0 0-6-17-23-20 0 0-10.46-1.7-23.2 7.7-.37.28-5.86 6.35-6.12 6.73-1.92 2.73-6.2 9.82-11.94 11.87a.3.3 0 0 0 .06.58c5 .54 21 2 29.24-.84l-9.36 5.22a.2.2 0 0 0 .1.38c4.14-.39 20.88-2 23.17-3.79l-7.6 5.79a.1.1 0 0 0 .06.18z" fill="#ddae47"/><rect fill="#fff" height="16" rx="8" stroke="#000" stroke-miterlimit="10" stroke-width="2" transform="matrix(-1 0 0 -1 2874 466)" width="20" x="1427" y="225"/><rect fill="#fff" height="16" rx="8" stroke="#000" stroke-miterlimit="10" stroke-width="2" transform="matrix(-1 0 0 -1 2924 466)" width="20" x="1452" y="225"/><path d="m1452 233h-5" fill="none" stroke="#000" stroke-miterlimit="10" stroke-width="2"/><circle cx="1458.5" cy="232.5" r="1.5"/><circle cx="1434.5" cy="232.5" r="1.5"/><path d="m1665.5 322.5h14v40h-14z" fill="#1b1464" transform="matrix(-1 0 0 -1 3345 685)"/><path d="m1665.5 349.5h30v13h-30z" fill="#8c6239" transform="matrix(-1 0 0 -1 3361 712)"/><path d="m1640.5 323.5h14v39h-14z" fill="#1b1464" transform="matrix(-1 0 0 -1 3295 686)"/><path d="m1625.5 349.5h29v13h-29z" fill="#8c6239" transform="matrix(-1 0 0 -1 3280 712)"/><path d="m1640.5 281.5v44h39v-45c37.5-23.5 35.5-47.5 35.5-47.5h-12c-9 17-23.5 30.5-23.5 30.5l-27.5.5-12.5.5a63.92 63.92 0 0 1 -23.5-31.5l-12 2s13 42 36.5 46.5" fill="#fff"/><circle cx="1709.5" cy="227.5" fill="#f9d0a7" r="9.5"/><circle cx="1609.5" cy="227.5" fill="#f9d0a7" r="9.5"/><path d="m1665.01 263.5-4.51 10h-5l-6-10z" fill="#006837"/><path d="m1660.5 273.5 3 41-5.59 7.34a.53.53 0 0 1 -.88 0l-4.53-7.38 3-41z" fill="#009245"/><path d="m1665.5 263.5-4.42 8.07a.8.8 0 0 0 1.17.91l15.7-9z" fill="#e6e6e6"/><path d="m1654.93 271.48-4.93-8h-9.5l14 8.42a.32.32 0 0 0 .43-.42z" fill="#e6e6e6"/><ellipse cx="1659.39" cy="234.14" fill="#f9d0a7" rx="32.39" ry="32.14"/><circle cx="1690.05" cy="240.78" fill="#f9d0a7" r="6.45"/><path d="m1642 253.23c0 2.63 2.36 4.77 6.5 4.77s6.5-2.14 6.5-4.77-2.86-5.23-7-5.23-6 2.59-6 5.23z" fill="#fff"/><path d="m1627.64 229.31c.5-5.47 1.35-6.86 2.26-11.77a1.09 1.09 0 0 1 .58-.78l22.76-11.61a1 1 0 0 1 .63-.11l22.37 2.81h10.3a1.09 1.09 0 0 1 .81 1.81 1.08 1.08 0 0 0 .24 1.64c2 1.21 5.73 4.39 3.93 10.72a1.17 1.17 0 0 1 -.09.24c-.44.8.73 4.45-.47 17.23a1.37 1.37 0 0 1 -2.71.15c-2.11-10.18-9.64-21.75-14.07-25.73a1.06 1.06 0 0 0 -.92-.23l-39.75 5.43a1.08 1.08 0 0 0 -.51.26c-.54.51-1.72 5.17-2.76 10.3a1.31 1.31 0 0 1 -2.6-.36z" fill="#d1a44a"/><path d="m1658.41 224.82c2.59-.17 22.91-3.74 28.59-13.82 0 0-6-17-23-20 0 0-10.46-1.7-23.2 7.7-.37.28-5.86 6.35-6.12 6.73-1.92 2.73-6.2 9.82-11.94 11.87a.3.3 0 0 0 .06.58c5 .54 21 2 29.24-.84l-9.36 5.22a.2.2 0 0 0 .1.38c4.14-.39 20.88-2 23.17-3.79l-7.6 5.79a.1.1 0 0 0 .06.18z" fill="#ddae47"/><rect fill="#f9d0a7" height="16" rx="8" stroke="#000" stroke-miterlimit="10" stroke-width="2" transform="matrix(-1 0 0 -1 3276 466)" width="20" x="1628" y="225"/><rect fill="#f9d0a7" height="16" rx="8" stroke="#000" stroke-miterlimit="10" stroke-width="2" transform="matrix(-1 0 0 -1 3326 466)" width="20" x="1653" y="225"/><path d="m1653 233h-5" fill="none" stroke="#000" stroke-miterlimit="10" stroke-width="2"/><path d="m1672.5 233.5-18.5-.5" stroke="#b79274" stroke-miterlimit="10"/><path d="m1647 233.5h-18" stroke="#b79274" stroke-miterlimit="10"/></svg>