<svg viewBox="0 0 3705.78 1591.6" xmlns="http://www.w3.org/2000/svg"><path d="m2124 238h22c.87 1.7 2.64 1.07 4 1.41q42.69 11 53.62 53.62c.34 1.33-.29 3.1 1.41 4v20c-2.74 3-5.28 6.16-10.1 6.07s-7.41-2.87-10.05-6.69c-2.43 4.37-5.49 6.68-10.17 6.67s-7.2-3.19-9.87-6.27c-4.69 6.3-7.48 7.27-14.71 5.36-3-3.66-5.63-5.18-9.85-.74-3.09 3.25-9.17 2.23-12.5-1.48-2.43-2.71-3.8-2.23-5.62.26a13.61 13.61 0 0 1 -2.23 2c-6.3 2.2-11.29.5-14.89-5.65-2.62 4-5.45 6.61-10.19 6.57s-7.34-3-9.81-6.37c-6.79 8.67-12.81 8.65-20 .31v-21.07c1.75-1 1.38-2.89 1.79-4.38 7.53-27.57 25.14-44.86 52.76-52.09 1.41-.39 3.41.25 4.41-1.53z" fill="#8dc540"/><path d="m2120 333q0-5.43-.1-10.86a13.61 13.61 0 0 0 2.23-2c1.82-2.49 3.19-3 5.62-.26 3.33 3.71 9.41 4.73 12.5 1.48 4.22-4.44 6.83-2.92 9.85.74q-.06 5.43-.1 10.86z" fill="#a57c52"/><path d="m1937 299v75c-2.74 3.05-5.28 6.16-10.09 6.07s-7.42-2.87-10.06-6.68c-2.43 4.36-5.48 6.67-10.17 6.67s-7.2-3.2-9.87-6.27c-4.68 6.29-7.48 7.26-14.71 5.35-3-3.66-5.62-5.18-9.85-.74-3.09 3.25-9.17 2.23-12.5-1.48-2.43-2.71-3.8-2.22-5.62.27a14 14 0 0 1 -2.23 1.95c-6.3 2.2-11.29.5-14.9-5.64-2.61 3.95-5.44 6.61-10.18 6.56s-7.34-3-9.81-6.37c-6.78 8.68-12.82 8.66-20 .31v-76c1.75-1 1.38-2.89 1.79-4.38 7.53-27.57 25.14-44.86 52.75-52.09 1.49-.39 3.42.24 4.46-1.53h22c.87 1.7 2.64 1.06 4 1.4q42.69 11 53.63 53.63c.3 1.33-.34 3.1 1.36 3.97z" fill="#8dc53f"/><path d="m1852 425q0-22.94-.1-45.86a14 14 0 0 0 2.23-1.95c1.82-2.49 3.19-3 5.62-.27 3.33 3.71 9.41 4.73 12.5 1.48 4.23-4.44 6.83-2.92 9.85.74q-.06 22.94-.1 45.86z" fill="#a57c52"/><path d="m158 1255h26c.64 1.42 2 .87 3.06 1.08q61.6 12.27 80.51 72.16c1.44 4.52 1.4 9.4 3.43 13.76v107c-2.74 3.06-5.29 6.17-10.11 6.07s-7.4-2.9-9.83-6.36c-6.9 8.62-12.79 8.62-20.28.1-2.34 3.62-5.19 6.28-9.91 6.25s-7.38-2.93-9.83-6.36c-6.9 8.69-12.84 8.67-20 .31-6.77 7.64-10.71 8.07-18.37 1.79-1.32-1.08-2-1.08-3.28 0-7.67 6.28-11.61 5.85-18.37-1.79-2.73 3.06-5.29 6.16-10.11 6.06s-7.39-2.92-9.83-6.36c-6.88 8.62-12.75 8.62-20.35 0-2.19 3.83-5.16 6.3-9.83 6.31s-7.39-2.92-9.83-6.36c-6.86 8.67-12.86 8.65-20 .31v-107.97c1.75-1.44 1.32-3.63 1.75-5.47 9.6-41.29 35-67.19 75.83-78.2 3.06-.84 6.45-.6 9.35-2.33z" fill="#8dc53f"/><path d="m191 1449q0 53 0 106h-40q0-53 0-106c6.76 7.64 10.7 8.07 18.37 1.79 1.32-1.08 2-1.08 3.28 0 7.65 6.29 11.59 5.86 18.35-1.79z" fill="#a57c52"/><path d="m1923 0h26c.64 1.42 2 .87 3.06 1.08q61.61 12.27 80.51 72.16c1.44 4.52 1.4 9.4 3.43 13.76v107c-2.74 3.06-5.29 6.17-10.11 6.07s-7.4-2.9-9.83-6.36c-6.9 8.62-12.79 8.62-20.28.1-2.34 3.62-5.19 6.28-9.91 6.25s-7.38-2.93-9.83-6.36c-6.9 8.69-12.84 8.67-20 .31-6.77 7.64-10.71 8.07-18.37 1.79-1.32-1.08-2-1.08-3.28 0-7.67 6.28-11.61 5.85-18.37-1.79-2.73 3.06-5.29 6.16-10.11 6.06s-7.39-2.92-9.83-6.36c-6.88 8.62-12.75 8.62-20.35 0-2.19 3.83-5.16 6.3-9.83 6.31s-7.39-2.92-9.83-6.36c-6.86 8.67-12.86 8.65-20 .31v-107.97c1.75-1.44 1.32-3.63 1.75-5.47 9.6-41.29 35-67.19 75.83-78.2 3.06-.84 6.45-.6 9.35-2.33z" fill="#8dc53f"/><path d="m1956 194q0 53 0 106h-40q0-53 0-106c6.76 7.64 10.7 8.07 18.37 1.79 1.32-1.08 2-1.08 3.28 0 7.65 6.29 11.59 5.86 18.35-1.79z" fill="#a57c52"/><path d="m1558 427v-238c1.75-1.44 1.32-3.63 1.75-5.47 9.6-41.29 35-67.19 75.83-78.2 3.13-.84 6.52-.6 9.42-2.33h26c.64 1.42 2 .87 3 1.08q61.62 12.27 80.52 72.16c1.44 4.52 1.4 9.4 3.43 13.76v237c-2.74 3.06-5.29 6.17-10.11 6.07s-7.4-2.91-9.83-6.37c-6.9 8.63-12.79 8.63-20.35 0-2.19 3.84-5.17 6.31-9.84 6.32s-7.38-2.92-9.83-6.35c-6.89 8.69-12.84 8.67-20 .31-6.77 7.64-10.71 8.07-18.37 1.79-1.32-1.08-2-1.08-3.28 0-7.67 6.28-11.61 5.85-18.37-1.79-2.73 3.06-5.29 6.16-10.11 6.06s-7.39-2.92-9.83-6.37c-6.88 8.63-12.75 8.63-20.28.12-2.34 3.61-5.19 6.27-9.91 6.24s-7.38-2.93-9.82-6.37c-6.84 8.7-12.84 8.68-20.02.34z" fill="#8dc53f"/><path d="m1678 427q0 53 0 106h-40q0-53 0-106c6.76 7.64 10.7 8.07 18.37 1.79 1.32-1.08 2-1.08 3.28 0 7.65 6.29 11.59 5.86 18.35-1.79z" fill="#a57c52"/><path d="m59 1464h22c.68 1.67 2.29 1 3.46 1.28q43.38 10.9 54.26 54.26c.29 1.17-.39 2.78 1.28 3.46v20c-7.3 8.44-12.78 8.43-20.21-.22-2.34 3.58-5.11 6.29-9.85 6.28s-7.42-2.84-10-6.63c-3.48 6.36-8.52 7.83-14.81 5.72a9 9 0 0 1 -1.87-1.63c-2.16-3.37-3.76-3.14-6.49-.14-3.76 4.13-10.3 3.73-14.19-.67-2.17-2.46-3.32-2.62-5.07.09a13.45 13.45 0 0 1 -2.56 2.35q-9.7 3.49-15.08-5.91c-2 4-4.53 6.14-8.28 6.73-5.43.85-8.83-2.31-11.67-6.42-6.19 8.77-12.75 8.77-19.88.45v-21c1.81-.94 1.38-2.88 1.78-4.36q11.22-41.07 52.32-52c1.59-.42 3.68.21 4.86-1.64z" fill="#3ab54b"/><path d="m55 1559-.09-10.85a13.45 13.45 0 0 0 2.56-2.35c1.75-2.71 2.9-2.55 5.07-.09 3.89 4.4 10.43 4.8 14.19.67 2.73-3 4.33-3.23 6.49.14a9 9 0 0 0 1.87 1.63l-.09 10.85z" fill="#a57c52"/><path d="m331 1431v75c-7.28 8.44-12.79 8.43-20.21-.22-2.34 3.58-5.11 6.29-9.85 6.29s-7.42-2.85-10-6.64c-3.48 6.37-8.52 7.83-14.81 5.72a9 9 0 0 1 -1.87-1.63c-2.16-3.37-3.75-3.15-6.49-.14-3.76 4.14-10.3 3.73-14.19-.68-2.18-2.46-3.33-2.61-5.07.1a13.13 13.13 0 0 1 -2.56 2.35c-6.47 2.33-11.5.36-15-5.81-2.14 3.77-4.53 6.08-8.33 6.64-5.43.81-8.83-2.31-11.67-6.43-6.18 8.78-12.76 8.78-19.88.45v-76c1.81-.94 1.37-2.88 1.78-4.36q11.21-41.07 52.31-52c1.63-.44 3.73.2 4.91-1.65h22c.68 1.67 2.29 1 3.46 1.28q43.38 10.89 54.26 54.26c.21 1.18-.46 2.79 1.21 3.47z" fill="#39b44a"/><path d="m246 1557-.09-45.85a13.13 13.13 0 0 0 2.56-2.35c1.74-2.71 2.89-2.56 5.07-.1 3.89 4.41 10.43 4.82 14.19.68 2.74-3 4.33-3.23 6.49.14a9 9 0 0 0 1.87 1.63l-.09 45.85z" fill="#a57c52"/><path d="m2077 337h22c.68 1.67 2.29 1 3.46 1.28q43.38 10.91 54.26 54.26c.29 1.17-.39 2.78 1.28 3.46v20c-7.3 8.44-12.78 8.43-20.21-.22-2.34 3.58-5.11 6.29-9.85 6.28s-7.42-2.84-10-6.63c-3.48 6.36-8.52 7.83-14.81 5.72a9 9 0 0 1 -1.87-1.63c-2.16-3.37-3.76-3.14-6.49-.14-3.76 4.13-10.3 3.73-14.19-.67-2.17-2.46-3.32-2.62-5.07.09a13.45 13.45 0 0 1 -2.56 2.35q-9.7 3.5-15.08-5.91c-2 4-4.53 6.14-8.28 6.73-5.43.85-8.83-2.31-11.67-6.42-6.19 8.77-12.75 8.77-19.88.45v-21c1.81-.94 1.38-2.88 1.78-4.36q11.22-41.07 52.32-52c1.59-.42 3.68.21 4.86-1.64z" fill="#3ab54b"/><path d="m2073 432-.09-10.85a13.45 13.45 0 0 0 2.56-2.35c1.75-2.71 2.9-2.55 5.07-.09 3.89 4.4 10.43 4.8 14.19.67 2.73-3 4.33-3.23 6.49.14a9 9 0 0 0 1.87 1.63l-.09 10.85z" fill="#a57c52"/><path d="m769 1459h22c.68 1.67 2.29 1 3.46 1.28q43.38 10.9 54.26 54.26c.29 1.17-.39 2.78 1.28 3.46v20c-7.3 8.44-12.78 8.43-20.21-.22-2.34 3.58-5.11 6.29-9.85 6.28s-7.42-2.84-10-6.63c-3.48 6.36-8.52 7.83-14.81 5.72a9 9 0 0 1 -1.87-1.63c-2.16-3.37-3.76-3.14-6.49-.14-3.76 4.13-10.3 3.73-14.19-.67-2.17-2.46-3.32-2.62-5.07.09a13.45 13.45 0 0 1 -2.56 2.35q-9.7 3.49-15.08-5.91c-2 4-4.53 6.14-8.28 6.73-5.43.85-8.83-2.31-11.67-6.42-6.19 8.77-12.75 8.77-19.88.45v-21c1.81-.94 1.38-2.88 1.78-4.36q11.22-41.07 52.32-52c1.59-.42 3.68.21 4.86-1.64z" fill="#3ab54b"/><path d="m765 1554-.09-10.85a13.45 13.45 0 0 0 2.56-2.35c1.75-2.71 2.9-2.55 5.07-.09 3.89 4.4 10.43 4.8 14.19.67 2.73-3 4.33-3.23 6.49.14a9 9 0 0 0 1.87 1.63l-.09 10.85z" fill="#a57c52"/><path d="m2596 399v75c-7.28 8.44-12.79 8.43-20.21-.22-2.34 3.58-5.11 6.29-9.85 6.29s-7.42-2.85-10-6.64c-3.48 6.37-8.52 7.83-14.81 5.72a9 9 0 0 1 -1.87-1.63c-2.16-3.37-3.75-3.15-6.49-.14-3.76 4.14-10.3 3.73-14.19-.68-2.18-2.46-3.33-2.61-5.07.1a13.13 13.13 0 0 1 -2.56 2.35c-6.47 2.33-11.5.36-15-5.81-2.14 3.77-4.53 6.08-8.33 6.64-5.43.81-8.83-2.31-11.67-6.43-6.18 8.78-12.76 8.78-19.88.45v-76c1.81-.94 1.37-2.88 1.78-4.36q11.2-41.07 52.31-52c1.63-.44 3.73.2 4.91-1.65h22c.68 1.67 2.29 1 3.46 1.28q43.38 10.89 54.26 54.26c.21 1.18-.46 2.79 1.21 3.47z" fill="#39b44a"/><path d="m2511 525-.09-45.85a13.13 13.13 0 0 0 2.56-2.35c1.74-2.71 2.89-2.56 5.07-.1 3.89 4.41 10.43 4.82 14.19.68 2.74-3 4.33-3.23 6.49.14a9 9 0 0 0 1.87 1.63l-.09 45.85z" fill="#a57c52"/><path d="m2277 270v-138c1.79-1.41 1.33-3.61 1.74-5.44 9.07-39.69 33.27-65.24 72-77.29 4.36-1.36 9.06-1.27 13.26-3.27h26c.46 1.28 1.61.86 2.52 1 41.38 8 68.31 32.11 81.06 72.23 1.44 4.52 1.34 9.4 3.42 13.74v137.03c-2.75 3-5.26 6.15-10.09 6.08s-7.4-2.95-10-6.58c-2.49 4-5.35 6.59-10.1 6.56s-7.35-3-9.93-6.61c-2.49 4.17-5.42 6.63-10.18 6.61s-7.25-3.17-9.78-6.47c-6.33 8.75-12.73 8.77-19.92.43-6.93 7.8-10.66 8.13-18.61 1.4-1.16-1-1.62-1-2.78 0-8 6.72-11.71 6.39-18.61-1.4-2.76 3-5.27 6.14-10.1 6.06s-7.39-2.95-10-6.58c-2.48 4-5.35 6.59-10.1 6.56s-7.35-3-9.91-6.59c-2.51 4.15-5.44 6.62-10.2 6.59s-7.24-3.18-9.78-6.47c-6.31 8.76-12.75 8.77-19.91.41z" fill="#39b44a"/><path d="m2397 270v16h-40v-16c6.9 7.8 10.65 8.13 18.61 1.41 1.16-1 1.62-1 2.78 0 7.95 6.74 11.68 6.41 18.61-1.41z" fill="#a57c52"/><path d="m1430 1254h26c.46 1.28 1.62.85 2.52 1q62.07 11.94 81.07 72.23c1.43 4.52 1.33 9.4 3.41 13.74v107c-2.74 3-5.26 6.16-10.09 6.08s-7.4-2.94-10-6.57c-2.49 4-5.35 6.58-10.1 6.55s-7.35-3-9.93-6.6c-2.49 4.17-5.42 6.63-10.18 6.61s-7.25-3.17-9.78-6.48c-6.33 8.76-12.74 8.77-19.92.43-6.94 7.81-10.67 8.13-18.61 1.4-1.16-1-1.62-1-2.78 0-7.95 6.72-11.7 6.4-18.61-1.4-2.76 3-5.27 6.14-10.1 6.06s-7.39-2.95-10.09-6.7c-2.3 4.29-5.31 6.66-10 6.67s-7.35-3-9.91-6.57c-2.51 4.15-5.44 6.61-10.2 6.59s-7.24-3.19-9.79-6.47c-6.3 8.75-12.76 8.76-19.9.4v-107.97c1.79-1.41 1.32-3.62 1.74-5.44 9.07-39.69 33.26-65.24 72-77.3 4.34-1.36 9.05-1.26 13.25-3.26z" fill="#39b44a"/><path d="m1463 1448v106h-40v-106c6.91 7.8 10.66 8.12 18.61 1.4 1.16-1 1.62-1 2.78 0 7.94 6.75 11.67 6.43 18.61-1.4z" fill="#a57c52"/><path d="m3635.59 1384.26a93.67 93.67 0 0 0 -85.88-131 94.52 94.52 0 0 0 -17.11 1.56 68.14 68.14 0 0 0 -63.76-44.13 69.17 69.17 0 0 0 -8.44.52 81.59 81.59 0 0 0 -159.34 16 59.6 59.6 0 0 0 -108.24 49 85.15 85.15 0 0 0 -130.52 51.9l-2.32-.32q.24-3.19.24-6.45a86.56 86.56 0 0 0 -169.83-23.63 177.69 177.69 0 0 0 -158.93 22.66 89.49 89.49 0 0 0 -163.08 29.07 80.33 80.33 0 0 0 -42.11 128.45 55.34 55.34 0 1 0 67.73 78.11h1038v-8.48a82.3 82.3 0 0 0 3.59-163.26z" fill="#5f9a3b"/><g fill="#6eb64a"><path d="m3227.87 1493.73a48 48 0 0 0 -4.82.24c0-.08 0-.16 0-.24a72.21 72.21 0 0 0 -140-24.9 56.22 56.22 0 0 0 -67.62 40.58 38.51 38.51 0 1 0 13.77 52.78 56.17 56.17 0 0 0 86-5.68 72.28 72.28 0 0 0 66.54 2.5 48.94 48.94 0 1 0 46.13-65.28z"/><path d="m2522.31 1459a67 67 0 0 0 -7 .37 76.34 76.34 0 0 0 -143.54 14 47.95 47.95 0 1 0 28.14 78.78 76.45 76.45 0 0 0 69.87 11.67 65.56 65.56 0 1 0 52.53-104.82z"/></g></svg>