<svg viewBox="0 0 6849.28 2262.87" xmlns="http://www.w3.org/2000/svg" xmlns:xlink="http://www.w3.org/1999/xlink"><clipPath id="a" transform="translate(7819 -196.99)"><path d="m-7707.89 1102.39h1210.18v415.87h-1210.18z"/></clipPath><g transform="translate(7819 -196.99)"><path d="m-6886.87 962.06-340 349h143.79l325.26-349z" fill="#da4f0c"/><path d="m-6904.77 1018.15-340 349h143.77l325.26-349z" fill="#da4f0c"/><path d="m-6885.77 942-466.23 480.06h132.63l333.6-349.06z" fill="#f26522"/><path d="m-6943 958.48-340 349h41.75l337-346.25z" fill="#da4f0c"/><path d="m-6980 1071.86-340 349h41.75l333.44-346.42z" fill="#da4f0c"/><path d="m-6886.87 1071.86-340 349h143.79l325.26-349z" fill="#da4f0c"/><path d="m-6980.06 958.71-449 462.23h119.34l328.43-347.1z" fill="#f26522"/><path d="m-7019.44 943.19-479.71 478.81h22.55l457.16-460.8z" fill="#f26522"/><path d="m-7079 1055.15-366.25 367h50.79l335.4-346.6z" fill="#da4f0c"/><path d="m-7095.83 946.77-400.93 397.8h110.12l293.2-292z" fill="#f26522"/><path d="m-7093.44 970.64-482.09 451.36h131l351.13-348.45z" fill="#f26522"/><path d="m-7125.56 951.32-488.16 493.36 131-26.26 422.55-420.58z" fill="#da4f0c"/><path d="m-7187.72 980.19-479.71 478.81 131-38.19 348.73-347.25z" fill="#f26522"/><path d="m-7245 943.19-479.72 478.81h131l348.72-347.24z" fill="#f26522"/><path d="m-7292.65 984.74-488.16 493.36h131l427.32-425.36z" fill="#da4f0c"/><path d="m-7017 958.48-457.3 458.65 63.09 3.42 431.48-462.07z" fill="#da4f0c"/><path d="m-7088.67 1030.32-479.7 478.81h131l348.73-347.25z" fill="#f26522"/><path d="m-7090.95 1070.67-342.4 350.21h41.75l333.44-346.42z" fill="#da4f0c"/><path d="m-7339.3 942-479.7 478.81h131l348.73-347.25z" fill="#f26522"/><path d="m-7339.69 1074.77v-131.58h37.6v18.81h18.8v18.8h18.79v18.79h18.8v-56.4h37.6v131.58h-37.6v-37.59h-18.8v-18.8h-18.79v-18.8h-18.8v75.19z" fill="#f7941d"/><path d="m-7189.31 1074.77v-94h18.8v-18.77h18.8v-18.8h56.39v18.8h18.8v18.8h18.79v94h-37.59v-37.59h-56.39v37.59zm37.6-56.39h56.39v-37.59h-18.8v-18.79h-18.8v18.8h-18.79z" fill="#f7941d"/><path d="m-6982.54 1074.77v-112.77h-37.59v-18.8h112.78v18.8h-37.59v112.78z" fill="#f7941d"/><path d="m-6888.55 1074.77v-131.58h131.55v18.81h-94v37.59h75.19v18.8h-75.19v37.61h94v18.79z" fill="#f7941d"/></g><g clip-path="url(#a)"><path d="m-6530.64 1102.39-417.89 417.11 114.1-39.51 303.79-302.5z" fill="#9e0039" transform="translate(7819 -196.99)"/><path d="m-6638.77 1158.53-325.23 318.73h92.65l332.19-318.73z" fill="#7a0026" transform="translate(7819 -196.99)"/><path d="m-6593.61 1145.93-378.18 361.25 52.88 16.51 342.22-377.76z" fill="#7a0026" transform="translate(7819 -196.99)"/><path d="m-6761.45 1166.85-325.28 318.73h109.28l332.19-318.73z" fill="#7a0026" transform="translate(7819 -196.99)"/><path d="m-6745.85 1117-325.28 318.73h109.27l332.2-318.73z" fill="#7a0026" transform="translate(7819 -196.99)"/><path d="m-6743.78 1101.35-417.88 417.11h114.1l303.79-302.5z" fill="#9e0039" transform="translate(7819 -196.99)"/><path d="m-6597.18 1101.35-417.89 417.11 114.1-64.4 303.79-302.49z" fill="#9e0039" transform="translate(7819 -196.99)"/><path d="m-6859.18 1215.71-325.28 318.74h92.65l332.19-318.74z" fill="#7a0026" transform="translate(7819 -196.99)"/><path d="m-6614.85 1166.85-325.28 318.73h92.64l332.19-318.73z" fill="#7a0026" transform="translate(7819 -196.99)"/><path d="m-6745.85 1215.71-325.28 318.74h109.27l332.2-318.74z" fill="#7a0026" transform="translate(7819 -196.99)"/><path d="m-6648.12 1215.71-325.28 318.74h109.27l332.2-318.74z" fill="#7a0026" transform="translate(7819 -196.99)"/><path d="m-6990.18 1101.35-417.88 417.11h114.06l303.79-302.5z" fill="#9e0039" transform="translate(7819 -196.99)"/><path d="m-6859.18 1101.35-417.88 417.11h114.06l303.8-302.5z" fill="#9e0039" transform="translate(7819 -196.99)"/><path d="m-6558.71 1160.61-417.89 417.11 114.1-64 303.79-302.5z" fill="#9e0039" transform="translate(7819 -196.99)"/><path d="m-6578.47 1147.1-417.88 417.1 70.34-46.92 347.54-349z" fill="#9e0039" transform="translate(7819 -196.99)"/><path d="m-7104.54 1117-392.72 402.69h86.66l388-402.69z" fill="#7a0026" transform="translate(7819 -196.99)"/><path d="m-7123.25 1166.85-392.75 402.7h86.67l388-402.7z" fill="#7a0026" transform="translate(7819 -196.99)"/><path d="m-7104.54 1215.71-392.72 402.7h71.07l403.6-402.7z" fill="#7a0026" transform="translate(7819 -196.99)"/><path d="m-6536.88 1151.25-392.72 402.75h26.36l403.6-402.7z" fill="#7a0026" transform="translate(7819 -196.99)"/><path d="m-6992.25 1215.71-330.82 331.53 98.18-12.79 332.19-318.74z" fill="#7a0026" transform="translate(7819 -196.99)"/><path d="m-7136.77 1101.35-417.88 417.11h114.09l303.79-302.5z" fill="#9e0039" transform="translate(7819 -196.99)"/><path d="m-7185.64 1101.35-417.88 417.11h129.69l288.2-302.5z" fill="#9e0039" transform="translate(7819 -196.99)"/><path d="m-7268.81 1205.32-378.49 314.14h114.09l295.4-301.91z" fill="#7a0026" transform="translate(7819 -196.99)"/><path d="m-7202.27 1215.71-299.07 305.83h32.59l314.25-305.83z" fill="#7a0026" transform="translate(7819 -196.99)"/><path d="m-7170.19 1117.6-392.49 400.82 13.88 1 396.35-402.9z" fill="#7a0026" transform="translate(7819 -196.99)"/><path d="m-7219.94 1153.33-311.55 314.14h47.15l298.65-314.14z" fill="#7a0026" transform="translate(7819 -196.99)"/><g fill="#f26d7d"><path d="m-7269.15 1217v-114.61h32.75v49.12h16.4v-16.37h16.37v-16.38h16.38v-16.37h32.75v16.37h-16.38v16.38h-16.37v16.37h-16.38v16.38h16.38v16.37h16.37v16.38h16.38v16.36h-49.13v-16.37h-16.37v-16.38h-16.38v32.75z" transform="translate(7819 -196.99)"/><path d="m-7138.15 1217v-114.61h114.62v16.37h-81.87v32.75h65.5v16.38h-65.5v32.75h81.87v16.36z" transform="translate(7819 -196.99)"/><path d="m-6990.78 1217v-114.61h32.78v98.25h65.5v16.36z" transform="translate(7819 -196.99)"/><path d="m-6859.78 1217v-114.61h32.78v98.25h65.5v16.36z" transform="translate(7819 -196.99)"/><path d="m-6745.15 1217v-114.61h114.62v16.37h-81.87v32.75h65.49v16.38h-65.49v32.75h81.87v16.36z" transform="translate(7819 -196.99)"/><path d="m-6565 1217v-49.12h-16.38v-16.38h-16.37v-49.12h32.75v49.12h32.75v-49.12h32.75v49.12h-16.38v16.38h-16.37v49.12z" transform="translate(7819 -196.99)"/></g><path d="m-7268.81 1101.35-417.88 417.11h114.09l303.8-302.5z" fill="#9e0039" transform="translate(7819 -196.99)"/></g><path d="m-6766.46 888.85s58.95 4.8 139.68 23.15l-32.33-40.48 32.33-13.87s-62.91-23.35-139.68-27z" fill="#ea212d" transform="translate(7819 -196.99)"/><path d="m1103.28 677.93-50.74 13.94v-34.67l34.51 5.08z" fill="#9c0f17"/><path d="m-7184.38 888.85s-58.95 4.8-139.69 23.15l32.33-40.48-32.33-13.87s62.91-23.35 139.69-27z" fill="#ea212d" transform="translate(7819 -196.99)"/><path d="m583.88 677.93 50.74 13.94v-34.67l-34.52 5.08z" fill="#9c0f17"/><path d="m-6715.72 874.92a1168.67 1168.67 0 0 0 -519.66 0v-57.69a1169 1169 0 0 1 519.66 0z" fill="#ea212d" transform="translate(7819 -196.99)"/><path d="m-7128.45 822.84a4.17 4.17 0 0 1 -3.32-.73 4 4 0 0 1 -1.53-2.66 4.09 4.09 0 0 1 1.76-3.81c.84-.49 1.18-.57 4.53-1l8.53-1a16 16 0 0 1 2.9-.27 3.86 3.86 0 0 1 3.92 3.42 4.27 4.27 0 0 1 -1 3.21 4.75 4.75 0 0 1 -3.15 1.32l-1.89.22 1.54 12.77a5.6 5.6 0 0 1 -.34 3.36 4 4 0 0 1 -3.26 2.34 4.33 4.33 0 0 1 -3.72-1.34 5.37 5.37 0 0 1 -1.13-3.26l-1.55-12.85z" fill="#fff" transform="translate(7819 -196.99)"/><path d="m-7098.49 832.06c.18 2.13.12 2.68-.36 3.66a4.12 4.12 0 0 1 -3.31 2.25 4.14 4.14 0 0 1 -3.74-1.52c-.67-.86-.9-1.58-1.1-3.5l-1.61-15.49c-.19-1.81-.08-2.6.52-3.56a4.32 4.32 0 0 1 3.18-2 4.51 4.51 0 0 1 3.61 1.31c.79.85 1 1.37 1.22 3.57l.38 3.62 5.16-.54-.36-3.5c-.21-2-.14-2.83.49-3.87a4.11 4.11 0 0 1 3.11-2 4.38 4.38 0 0 1 3.55 1.27 5.27 5.27 0 0 1 1.29 3.41l1.62 15.57a5.53 5.53 0 0 1 -.35 3.42 4.21 4.21 0 0 1 -3.37 2.41 4.17 4.17 0 0 1 -3.57-1.34c-.75-.86-1-1.57-1.19-3.61l-.38-3.7-5.17.53z" fill="#fff" transform="translate(7819 -196.99)"/><path d="m-7068.73 826.56c1.86-.16 2.69 0 3.64.65a4 4 0 0 1 1.65 2.89 4.19 4.19 0 0 1 -1.12 3.21c-.79.77-1.51 1-3.44 1.19l-6.59.58a8.26 8.26 0 0 1 -3.28-.07 4 4 0 0 1 -2.7-2.87 10.09 10.09 0 0 1 -.37-2.54l-1.22-14c-.18-2.16-.17-2.43.11-3.27a3.77 3.77 0 0 1 1.86-2.3c.93-.47 1.12-.53 3.63-.75l5.09-.44a11.28 11.28 0 0 1 3.26-.09 3.8 3.8 0 0 1 3.25 3.45 4 4 0 0 1 -1.11 3.25 4.58 4.58 0 0 1 -3.16 1.21l-4.25.37.16 1.77 3.35-.29c2.09-.18 3.54.93 3.7 2.75a3.17 3.17 0 0 1 -.9 2.53 3.81 3.81 0 0 1 -2.57.88l-3.05.27.17 1.93z" fill="#fff" transform="translate(7819 -196.99)"/><path d="m-7040.54 827.73c.19 2.94-1.39 5-3.94 5.18a4.27 4.27 0 0 1 -3.68-1.71c-.72-1-.83-1.42-1-4l-1-15.07c-.12-1.86.1-2.72.93-3.71a4.46 4.46 0 0 1 3.4-1.49l3.55-.23c4.14-.26 5.95.09 8 1.47a9.29 9.29 0 0 1 4.1 7.11 9.31 9.31 0 0 1 -3.28 7.62 9.08 9.08 0 0 1 -5.87 2.24l-1.43.09zm-.66-10.4c2.05 0 2.8-.45 2.73-1.6-.05-.85-.86-1.31-2.14-1.23h-.77z" fill="#fff" transform="translate(7819 -196.99)"/><path d="m-7014.51 804.57a13.56 13.56 0 0 1 14.21 12.91 13.64 13.64 0 0 1 -13 14.18 13.6 13.6 0 0 1 -14.22-13.11 13.45 13.45 0 0 1 13.01-13.98zm.85 18.65a5.12 5.12 0 0 0 4.85-5.33 5 5 0 0 0 -5.29-4.77 5 5 0 0 0 -4.85 5.18 5.13 5.13 0 0 0 5.29 4.92z" fill="#fff" transform="translate(7819 -196.99)"/><path d="m-6977.72 823.17a5.28 5.28 0 0 1 .88 2.73 4.17 4.17 0 0 1 -4.17 4.28 4 4 0 0 1 -3.57-1.9l-3.65-5.76.08 3.52a4.19 4.19 0 0 1 -4.09 4.4 4.34 4.34 0 0 1 -3.36-1.48 5.52 5.52 0 0 1 -1.09-3.62l-.37-15.91c0-1.86.32-2.92 1.31-3.83s1.79-1.16 3.85-1.21l3.56-.08a15.8 15.8 0 0 1 4.15.29 9.24 9.24 0 0 1 7 8.75 9.11 9.11 0 0 1 -2.6 6.65zm-10.69-8.17h.35.58c1.28 0 1.93-.47 1.91-1.4s-.73-1.41-2-1.35a6.8 6.8 0 0 1 -.89 0z" fill="#fff" transform="translate(7819 -196.99)"/><path d="m-6970.87 811.94a4.17 4.17 0 0 1 -3.22-1.11 4.12 4.12 0 0 1 -1.21-2.82 4.1 4.1 0 0 1 2.19-3.58c.89-.39 1.24-.43 4.61-.44h8.6a15.8 15.8 0 0 1 2.91.07 3.86 3.86 0 0 1 3.5 3.86 4.24 4.24 0 0 1 -1.38 3.06 4.73 4.73 0 0 1 -3.29.95h-1.9l.06 12.87a5.63 5.63 0 0 1 -.72 3.29 4.06 4.06 0 0 1 -3.52 2 4.28 4.28 0 0 1 -3.53-1.76 5.25 5.25 0 0 1 -.75-3.37l-.06-12.94z" fill="#fff" transform="translate(7819 -196.99)"/><path d="m-6942.74 824.11c0 2.52-.12 3-.76 4a4.19 4.19 0 0 1 -3.59 1.93 4.2 4.2 0 0 1 -3.68-2.26c-.45-1-.52-1.48-.49-3.85l.26-14.93c0-2.28.55-3.43 1.92-4.31a4.67 4.67 0 0 1 2.06-.63c.35 0 1.13-.06 2.25 0l5.11.07c2.79 0 3.33.13 4.29.72a3.74 3.74 0 0 1 1.78 3.28 4.47 4.47 0 0 1 -1.4 3.12 4.43 4.43 0 0 1 -3.23.88l-4.3-.06v1.78h2.64a4.81 4.81 0 0 1 2.74.54 3 3 0 0 1 1.4 2.58c0 2-1.36 3.12-3.8 3.08h-3.06z" fill="#fff" transform="translate(7819 -196.99)"/><path d="m-6918.59 804.07a13.56 13.56 0 0 1 13.15 14 13.65 13.65 0 0 1 -14.08 13.1 13.6 13.6 0 0 1 -13.13-14.2 13.43 13.43 0 0 1 14.06-12.9zm-.63 18.66a5.13 5.13 0 0 0 5.26-4.93 5.06 5.06 0 0 0 -4.89-5.18 5 5 0 0 0 -5.25 4.78 5.13 5.13 0 0 0 4.88 5.33z" fill="#fff" transform="translate(7819 -196.99)"/><path d="m-6889.61 824a4.78 4.78 0 0 1 3 1 4 4 0 0 1 1.43 3.27 4.25 4.25 0 0 1 -1.5 3 4.23 4.23 0 0 1 -3.19.78l-8.12-.49a4.28 4.28 0 0 1 -3.51-1.57c-1-1.22-1.06-1.81-.84-5.36l.87-14.54c.17-2.9 1.95-4.7 4.5-4.54a4.31 4.31 0 0 1 3.23 1.74c.72 1.09.86 1.88.72 4.31l-.74 12.22z" fill="#fff" transform="translate(7819 -196.99)"/><path d="m-6874 828.41a4.73 4.73 0 0 1 -1.35 3.39 4.55 4.55 0 0 1 -3.28 1.19 4.5 4.5 0 0 1 -3.06-1.6 4.59 4.59 0 0 1 -.81-3.64l1.22-16c.17-2.16.42-2.92 1.38-3.81a4.09 4.09 0 0 1 3.24-1.15 4.28 4.28 0 0 1 3.06 1.59c.78 1 1 1.94.82 4z" fill="#fff" transform="translate(7819 -196.99)"/><path d="m-6855.08 808.3a13.57 13.57 0 0 1 12.24 14.8 13.64 13.64 0 0 1 -14.88 12.18 13.6 13.6 0 0 1 -12.21-15 13.45 13.45 0 0 1 14.85-11.98zm-1.8 18.58a5.12 5.12 0 0 0 5.55-4.58 5.06 5.06 0 0 0 -4.55-5.48 5 5 0 0 0 -5.54 4.43 5.12 5.12 0 0 0 4.54 5.63z" fill="#fff" transform="translate(7819 -196.99)"/><path d="m-6813.13 813.48a13.57 13.57 0 0 1 11.5 15.38 13.65 13.65 0 0 1 -15.46 11.45 13.59 13.59 0 0 1 -11.46-15.57 13.45 13.45 0 0 1 15.42-11.26zm-2.71 18.48a5.12 5.12 0 0 0 5.77-4.31 5 5 0 0 0 -4.28-5.69 5 5 0 0 0 -5.75 4.15 5.13 5.13 0 0 0 4.26 5.89z" fill="#fff" transform="translate(7819 -196.99)"/><path d="m-6791.62 838c-.45 2.48-.61 3-1.4 3.84a4.22 4.22 0 0 1 -3.86 1.31 4.19 4.19 0 0 1 -3.27-2.84c-.28-1-.27-1.55.15-3.87l2.67-14.68c.41-2.25 1.11-3.3 2.61-3.93a4.37 4.37 0 0 1 2.13-.28 22.49 22.49 0 0 1 2.23.32l5 .92c2.75.5 3.26.67 4.11 1.41a3.74 3.74 0 0 1 1.21 3.53 4.42 4.42 0 0 1 -1.89 2.85 4.43 4.43 0 0 1 -3.33.34l-4.23-.77-.32 1.75 2.59.47a4.84 4.84 0 0 1 2.62 1 2.94 2.94 0 0 1 .95 2.77c-.36 2-1.86 2.85-4.26 2.42l-3-.55z" fill="#fff" transform="translate(7819 -196.99)"/><path d="m-3317.46 297.85s58.95 4.8 139.68 23.15l-32.33-40.48 32.33-13.87s-62.91-23.35-139.68-27z" fill="#ea212d" transform="translate(7819 -196.99)"/><path d="m4552.28 86.94-50.75 13.93v-34.68l34.52 5.09z" fill="#9c0f17"/><path d="m-3735.38 297.85s-58.95 4.8-139.69 23.15l32.33-40.48-32.33-13.87s62.91-23.35 139.69-27z" fill="#ea212d" transform="translate(7819 -196.99)"/><path d="m4032.88 86.94 50.74 13.93v-34.68l-34.52 5.09z" fill="#9c0f17"/><path d="m-3266.72 283.92a1168.67 1168.67 0 0 0 -519.66 0v-57.69a1169 1169 0 0 1 519.66 0z" fill="#ea212d" transform="translate(7819 -196.99)"/><text fill="#fff" font-family="FrankfurterStd, Frankfurter Std" font-size="38.735081" transform="matrix(.99 -.1 .1 .99 4168.3 49.53)">I</text><text fill="#fff" font-family="FrankfurterStd, Frankfurter Std" font-size="38.735081" transform="matrix(.99611826 -.08802505 .08802505 .99611826 4180.65 48.22)">N</text><text fill="#fff" font-family="FrankfurterStd, Frankfurter Std" font-size="38.735081" transform="matrix(1 -.07 .07 1 4207.4 45.87)">T</text><text fill="#fff" font-family="FrankfurterStd, Frankfurter Std" font-size="38.735081" transform="matrix(.99858348 -.0532074 .0532074 .99858348 4230.43 44.25)">R</text><text fill="#fff" font-family="FrankfurterStd, Frankfurter Std" font-size="38.735081" transform="matrix(.99946173 -.0328063 .0328063 .99946173 4253.58 42.98)">O</text><text fill="#fff" font-family="FrankfurterStd, Frankfurter Std" font-size="38.735081" transform="matrix(.99995052 -.00994821 .00994821 .99995052 4283.21 42.01)">D</text><text fill="#fff" font-family="FrankfurterStd, Frankfurter Std" font-size="38.735081" transform="matrix(.99992322 .01239152 -.01239152 .99992322 4310.15 41.75)">U</text><text fill="#fff" font-family="FrankfurterStd, Frankfurter Std" font-size="38.735081" transform="matrix(1 .04 -.04 1 4335.23 42.04)">C</text><text fill="#fff" font-family="FrankfurterStd, Frankfurter Std" font-size="38.735081" transform="matrix(1 .06 -.06 1 4361.78 43.01)">T</text><text fill="#fff" font-family="FrankfurterStd, Frankfurter Std" font-size="38.735081" transform="matrix(.99694466 .0781111 -.0781111 .99694466 4384.81 44.44)">I</text><text fill="#fff" font-family="FrankfurterStd, Frankfurter Std" font-size="38.735081" transform="matrix(.99 .1 -.1 .99 4397.13 45.3)">O</text><text fill="#fff" font-family="FrankfurterStd, Frankfurter Std" font-size="38.735081" transform="matrix(.99 .13 -.13 .99 4426.56 48.3)">N</text><path d="m-7575 1304v-238c1.75-1.44 1.32-3.63 1.75-5.47 9.6-41.29 35-67.19 75.83-78.2 3.13-.84 6.52-.6 9.42-2.33h26c.64 1.42 2 .87 3.05 1.08q61.62 12.27 80.52 72.16c1.44 4.52 1.4 9.4 3.43 13.76v237c-2.74 3.06-5.29 6.17-10.11 6.07s-7.4-2.91-9.83-6.37c-6.9 8.63-12.79 8.63-20.35 0-2.19 3.84-5.17 6.31-9.84 6.32s-7.38-2.92-9.83-6.35c-6.89 8.69-12.84 8.67-20 .31-6.77 7.64-10.71 8.07-18.37 1.79-1.32-1.08-2-1.08-3.28 0-7.67 6.28-11.61 5.85-18.37-1.79-2.73 3.06-5.29 6.16-10.11 6.06s-7.39-2.92-9.83-6.37c-6.88 8.63-12.75 8.63-20.28.12-2.34 3.61-5.19 6.27-9.91 6.24s-7.38-2.93-9.82-6.37c-6.89 8.7-12.89 8.68-20.07.34z" fill="#8dc53f" transform="translate(7819 -196.99)"/><path d="m-7455 1304q0 53 0 106h-40q0-53 0-106c6.76 7.64 10.7 8.07 18.37 1.79 1.32-1.08 2-1.08 3.28 0 7.65 6.29 11.59 5.86 18.35-1.79z" fill="#a57c52" transform="translate(7819 -196.99)"/><path d="m-7314 1287v75c-7.28 8.44-12.79 8.43-20.21-.22-2.34 3.58-5.11 6.29-9.85 6.29s-7.42-2.85-10-6.64c-3.48 6.37-8.52 7.83-14.81 5.72a9 9 0 0 1 -1.87-1.63c-2.16-3.37-3.75-3.15-6.49-.14-3.76 4.14-10.3 3.73-14.19-.68-2.18-2.46-3.33-2.61-5.07.1a13.13 13.13 0 0 1 -2.56 2.35c-6.47 2.33-11.5.36-15-5.81-2.14 3.77-4.53 6.08-8.33 6.64-5.43.81-8.83-2.31-11.67-6.43-6.18 8.78-12.76 8.78-19.88.45v-76c1.81-.94 1.37-2.88 1.78-4.36q11.21-41.07 52.31-52c1.63-.44 3.73.2 4.91-1.65h22c.68 1.67 2.29 1 3.46 1.28q43.38 10.89 54.26 54.26c.21 1.18-.46 2.79 1.21 3.47z" fill="#39b44a" transform="translate(7819 -196.99)"/><path d="m-7399 1413-.09-45.85a13.13 13.13 0 0 0 2.56-2.35c1.74-2.71 2.89-2.56 5.07-.1 3.89 4.41 10.43 4.82 14.19.68 2.74-3 4.33-3.23 6.49.14a9 9 0 0 0 1.87 1.63l-.09 45.85z" fill="#a57c52" transform="translate(7819 -196.99)"/><path d="m2047.21 776.09-14.8 18.95-101.93 130.83-14.68 18.72.12.12h14.56 248.25 92.92l116.73-149.67 14.79-18.95z" fill="#7a4c3f"/><path d="m2271.65 944.71h-92.92-248.25-14.56l12.13 11.9h2.43 257.61 74.32 21.38z" fill="#663f34"/><path d="m2113.55 731.01h92v16.41h-92z" fill="#7f4f41"/><path d="m2124.53 747.42v65.19l34.9 36.64v-101.83z" fill="#70463a"/><path d="m2159.43 747.42v101.83h.12l34.9-36.64v-65.19z" fill="#7f4f41"/><path d="m2386.18 825.21 16.99-21.73 119.05 152.67h6.35l-122.51-156.37z" fill="#6b4338"/><path d="m2522.22 928.64-104.25-133.6-14.8-18.95-14.79 18.95-116.73 149.67 12.14 11.9 102.39-131.4 19.88-25.43 122.51 156.37 8.44-8.44z" fill="#945b4c"/><path d="m2283.79 956.61h-21.38-74.32-257.61v13.41l353.31 4.51z" fill="#dbcb95"/><path d="m1930.48 970.02v245.59h353.31v-241.08z" fill="#f0dea4"/><path d="m2522.22 973.95v-17.34-.46l-119.05-152.67-119.38 153.13v13.06l119.38-152.9z" fill="#dbcb95"/><path d="m2403.17 816.77-119.38 152.9v245.94h238.43v-241.66z" fill="#ffeeb0"/><path d="m1974.74 1015.44h118.46v123.32h-118.46z" fill="#ccbd8c"/><path d="m1988.61 1033.24h39.87v96.39h-39.87z" fill="#0082b5"/><path d="m2037.38 1033.24h46.81v96.39h-46.81z" fill="#0082b5"/><path d="m1983.76 1024.45v105.29h4.85v-96.5h39.87v96.5h8.9v-96.5h46.81v-8.79z" fill="#00709c"/><path d="m2120.94 1015.44h118.46v123.32h-118.46z" fill="#ccbd8c"/><path d="m2345.16 1015.44h118.46v200.17h-118.46z" fill="#ccbd8c"/><path d="m2134.81 1033.24h39.87v96.39h-39.87z" fill="#0082b5"/><path d="m2183.58 1033.24h46.81v96.39h-46.81z" fill="#0082b5"/><path d="m2130.07 1024.45v105.29h4.74v-96.5h39.87v96.5h8.9v-96.5h46.81v-8.79z" fill="#00709c"/><path d="m2365.15 905.3h75.7v78.82h-75.7z" fill="#ccbd8c"/><path d="m2373.93 916.74h25.54v61.6h-25.54z" fill="#0082b5"/><path d="m2405.14 916.74h29.93v61.6h-29.93z" fill="#0082b5"/><path d="m2370.93 911.08v67.26h3v-61.6h25.54v61.6h5.67v-61.6h29.93v-5.66z" fill="#00709c"/><path d="m-5835.13 1095.47a19.54 19.54 0 0 0 19.53 17.91 19.54 19.54 0 0 0 19.54-17.91z" fill="#70463a" transform="translate(7819 -196.99)"/><path d="m-5756.77 1095.47a19.54 19.54 0 0 0 19.53 17.91 19.54 19.54 0 0 0 19.54-17.91z" fill="#70463a" transform="translate(7819 -196.99)"/><path d="m-5678.41 1095.47a19.54 19.54 0 0 0 19.53 17.91 19.53 19.53 0 0 0 19.53-17.91z" fill="#70463a" transform="translate(7819 -196.99)"/><path d="m-5600 1095.47a19.54 19.54 0 0 0 19.53 17.91 19.53 19.53 0 0 0 19.53-17.91z" fill="#70463a" transform="translate(7819 -196.99)"/><path d="m-5795.95 1057.44a19.54 19.54 0 0 0 19.53 17.92 19.54 19.54 0 0 0 19.54-17.92z" fill="#70463a" transform="translate(7819 -196.99)"/><path d="m-5717.59 1057.44a19.54 19.54 0 0 0 19.53 17.92 19.54 19.54 0 0 0 19.54-17.92z" fill="#70463a" transform="translate(7819 -196.99)"/><path d="m-5639.23 1057.44a19.54 19.54 0 0 0 19.53 17.92 19.53 19.53 0 0 0 19.53-17.92z" fill="#70463a" transform="translate(7819 -196.99)"/><path d="m-5560.76 1057.44a19.54 19.54 0 0 0 19.54 17.92 19.54 19.54 0 0 0 19.53-17.92z" fill="#70463a" transform="translate(7819 -196.99)"/><path d="m-5756.77 1019.42a19.54 19.54 0 0 0 19.53 17.91 19.54 19.54 0 0 0 19.54-17.91z" fill="#70463a" transform="translate(7819 -196.99)"/><path d="m-5600 1019.42a19.54 19.54 0 0 0 19.53 17.91 19.53 19.53 0 0 0 19.53-17.91z" fill="#70463a" transform="translate(7819 -196.99)"/><path d="m-5521.58 1019.42a19.54 19.54 0 0 0 19.54 17.91 19.54 19.54 0 0 0 19.53-17.91z" fill="#70463a" transform="translate(7819 -196.99)"/><path d="m2353.25 1029.42h91.65v186.19h-91.65z" fill="#816c4a"/><path d="m2371.39 1044.33h55.82v149.21h-55.82z" fill="#69573c"/><path d="m2427.21 1044.33v149.21h-55.82v-149.21h-3.12v151.98h61.72v-151.98z" fill="#5e4f36"/><path d="m-5434.9 1328.58a3 3 0 0 1 -3 3h-18.72a3 3 0 0 1 -3-3 3 3 0 0 1 3-3h18.72a2.91 2.91 0 0 1 3 3z" fill="#3f4247" transform="translate(7819 -196.99)"/><path d="m2452.87 1015.44h10.63v200.17h-10.63z" fill="#f0dfa6"/><path d="m-1007.69 2291.67s9.09 10.76 7.52 28-5 39.8-7.52 56.63 2.34 71.36 2.34 71.36l5.36 1.08s8.91-53.75 8.1-69.6 6-54-1-71.63-14.8-15.84-14.8-15.84z" fill="#579835" transform="translate(7819 -196.99)"/><path d="m-1007.69 2323.05c0 .54-16.57 82.16 0 125.65l4.14-2.88s1.8-66.94 1-85.9a211.41 211.41 0 0 0 -5.14-36.87z" fill="#407928" transform="translate(7819 -196.99)"/><path d="m-1007.69 2448.7-10.63 1.13s-3.87-24.81-4.14-46.06-6.48-52.4-8-79.68 16.3-57.09 16.3-57.09-3.61 38.67-1.81 60 4.69 45.92 3.38 67.48 4.9 54.22 4.9 54.22z" fill="#579835" transform="translate(7819 -196.99)"/><path d="m-1035.65 2444.24s-12.51-18.14-16.66-32.95.27-30.34 5.23-35c0 0-.05 9.46 5.67 21.52s14.27 33.59 9.59 50.92z" fill="#407928" transform="translate(7819 -196.99)"/><path d="m-1024.17 2445.82a386.41 386.41 0 0 1 -9.18-53.21c-2.07-20.76 2.61-37 8.55-44.93 0 0 2.84 29.62 6 47.81s2.83 50.33 2.83 50.33z" fill="#407928" transform="translate(7819 -196.99)"/><path d="m-1030.79 2444.24s-4.14-34.26-7.79-49-9.86-35.61-8.28-52.18 10.4-26.16 10.4-26.16.32 26.52 2.61 39.35 7.29 36.42 9 47.09 0 40 0 40z" fill="#579835" transform="translate(7819 -196.99)"/><path d="m-994.95 2353.57s-11.93 33.72-12.7 54.57 2.61 43.26 2.61 43.26l5.14-2.65s7.79-32 10.31-50.65-5.36-44.53-5.36-44.53z" fill="#407928" transform="translate(7819 -196.99)"/><path d="m-975.77 2319.63c-.05-.86-15.85 31.2-18.42 54.83s-7 71.36-7 71.36l6.21 1.58s3.65-25.44 8.29-38.14 14.29-53.07 10.92-89.63z" fill="#579835" transform="translate(7819 -196.99)"/><path d="m-973.43 2362c-.59-.85-2 19.27-10 36.51s-14.18 35.48-12.33 50.25h3.38s14-18.73 19-41.83 4.9-37.42-.05-44.93z" fill="#407928" transform="translate(7819 -196.99)"/><path d="m-1041.95 2441.5c-1.89 1.71 1.57 16.07 3.1 17.38s54.48 1.3 56.32 0 4.69-15.31 3.11-17.38-59.92-2.34-62.53 0z" fill="#b16b63" transform="translate(7819 -196.99)"/><path d="m-4660.46 893.85s58.95 4.8 139.68 23.15l-32.33-40.48 32.33-13.87s-62.91-23.35-139.68-27z" fill="#ea212d" transform="translate(7819 -196.99)"/><path d="m3209.28 682.93-50.75 13.94v-34.67l34.52 5.08z" fill="#9c0f17"/><path d="m-5078.38 893.85s-58.95 4.8-139.69 23.15l32.33-40.48-32.33-13.87s62.91-23.35 139.69-27z" fill="#ea212d" transform="translate(7819 -196.99)"/><path d="m2689.88 682.93 50.74 13.94v-34.67l-34.52 5.08z" fill="#9c0f17"/><path d="m-4609.72 879.92a1168.67 1168.67 0 0 0 -519.66 0v-57.69a1169 1169 0 0 1 519.66 0z" fill="#ea212d" transform="translate(7819 -196.99)"/><path d="m-4983.7 836.75a4.72 4.72 0 0 1 -.72 3.58 4.5 4.5 0 0 1 -3 1.74 4.5 4.5 0 0 1 -3.29-1c-.9-.81-1.26-1.66-1.45-3.44l-1.62-15.91c-.22-2.16-.11-3 .68-4a4.11 4.11 0 0 1 3-1.71 4.33 4.33 0 0 1 3.3 1c.94.88 1.3 1.73 1.51 3.81z" fill="#fff" transform="translate(7819 -196.99)"/><path d="m-4966.83 819a5.1 5.1 0 0 1 .48-3.42 4.22 4.22 0 0 1 3.31-2.16 4.2 4.2 0 0 1 3.37 1.26 4.82 4.82 0 0 1 1.31 3.3l1.39 15.75c.18 2 .07 2.91-.58 3.94a4.17 4.17 0 0 1 -3.18 1.87 4.08 4.08 0 0 1 -3.51-1.44l-7.48-8 .48 5.41a4.68 4.68 0 0 1 -.66 3.48 4.33 4.33 0 0 1 -3.15 1.83 4.33 4.33 0 0 1 -3.54-1.36c-.78-.9-1-1.65-1.21-3.55l-1.44-16.28a4.27 4.27 0 0 1 4-4.95 3.87 3.87 0 0 1 3.32 1.42l7.49 7.7z" fill="#fff" transform="translate(7819 -196.99)"/><path d="m-4950.76 820.65a4.19 4.19 0 0 1 -3.29-.9 4 4 0 0 1 -1.39-2.73 4.07 4.07 0 0 1 1.95-3.71c.86-.45 1.21-.52 4.57-.75l8.58-.6a17.08 17.08 0 0 1 2.9-.13 3.87 3.87 0 0 1 3.75 3.62 4.25 4.25 0 0 1 -1.18 3.15 4.73 4.73 0 0 1 -3.22 1.16l-1.89.13.9 12.83a5.65 5.65 0 0 1 -.5 3.33 4.06 4.06 0 0 1 -3.38 2.18 4.3 4.3 0 0 1 -3.64-1.53 5.31 5.31 0 0 1 -1-3.31l-.91-12.9z" fill="#fff" transform="translate(7819 -196.99)"/><path d="m-4910.93 829.38a5.27 5.27 0 0 1 1 2.71 4.15 4.15 0 0 1 -4 4.4 4 4 0 0 1 -3.63-1.79l-3.83-5.65.19 3.52a4.17 4.17 0 0 1 -3.95 4.52 4.35 4.35 0 0 1 -3.41-1.37 5.65 5.65 0 0 1 -1.2-3.59l-.84-15.89c-.1-1.86.23-2.93 1.19-3.87s1.76-1.22 3.81-1.33l3.55-.19a15.7 15.7 0 0 1 4.16.17 9.26 9.26 0 0 1 7.25 8.54 9.14 9.14 0 0 1 -2.4 6.72zm-10.93-7.83h.35.58c1.28 0 1.91-.53 1.86-1.46s-.77-1.39-2-1.29a8.21 8.21 0 0 1 -.9 0z" fill="#fff" transform="translate(7819 -196.99)"/><path d="m-4894.4 809a13.57 13.57 0 0 1 14.07 13.07 13.64 13.64 0 0 1 -13.15 14 13.6 13.6 0 0 1 -14.07-13.26 13.45 13.45 0 0 1 13.15-13.81zm.65 18.66a5.12 5.12 0 0 0 4.9-5.27 5 5 0 0 0 -5.23-4.83 5 5 0 0 0 -4.91 5.12 5.13 5.13 0 0 0 5.24 5.01z" fill="#fff" transform="translate(7819 -196.99)"/><path d="m-4866.92 809.05a13.29 13.29 0 0 1 9.41 3.2 12.85 12.85 0 0 1 4.35 9.56 13 13 0 0 1 -4.05 9.53 12.9 12.9 0 0 1 -6.05 3.19 25.28 25.28 0 0 1 -4.37.36h-3.6c-2 0-2.83-.12-3.61-.66a3.75 3.75 0 0 1 -1.81-2.3 10.84 10.84 0 0 1 -.18-2.79l-.17-14.14c0-2.17 0-2.41.17-3 .6-1.86 2.17-2.85 4.65-2.87zm-1.41 17.9c2.94-.06 3.64-.19 4.64-.89a5.19 5.19 0 0 0 2-4.13 5 5 0 0 0 -2.79-4.43 7.19 7.19 0 0 0 -3.3-.5h-.7z" fill="#fff" transform="translate(7819 -196.99)"/><path d="m-4841.41 824.06c0 1.85.81 3 2.29 3s2.33-1.06 2.35-2.84l.13-10.3c0-1.9.18-2.48 1-3.4a4.27 4.27 0 0 1 3.31-1.59 4.53 4.53 0 0 1 3.31 1.59c.81 1 1 1.76 1 4.08l-.11 9.18c0 3.49-.93 6-2.81 8.06a11 11 0 0 1 -8.22 3.7 11 11 0 0 1 -8.84-4.54c-1.57-2.19-2.05-4-2-7.43l.12-9.1c0-2.44.19-3 .94-4a4.52 4.52 0 0 1 3.39-1.63 4.51 4.51 0 0 1 3.12 1.4c.84.9 1.13 1.87 1.11 3.69z" fill="#fff" transform="translate(7819 -196.99)"/><path d="m-4802.7 833.14a13.91 13.91 0 0 1 -9.15 3.08 13.58 13.58 0 0 1 -13.17-14 13.66 13.66 0 0 1 14.19-13.09 13.39 13.39 0 0 1 8.52 3.45c2 1.74 3 3.52 3 5.22a4.27 4.27 0 0 1 -4.41 4.1 3.84 3.84 0 0 1 -2.63-1.14l-1.19-1.4a5 5 0 0 0 -3.62-1.68 5 5 0 0 0 -5.26 4.85 5 5 0 0 0 4.85 5.21 5.27 5.27 0 0 0 3.86-1.56l.92-.9a4.28 4.28 0 0 1 3-1.13 4.37 4.37 0 0 1 4.11 4.33c-.12 1.52-1.15 3.14-3.02 4.66z" fill="#fff" transform="translate(7819 -196.99)"/><path d="m-4794 818.44a4.18 4.18 0 0 1 -3.14-1.31 4.1 4.1 0 0 1 -1-2.9 4.08 4.08 0 0 1 2.42-3.42c.91-.34 1.26-.35 4.63-.15l8.58.51a18.53 18.53 0 0 1 2.89.25 3.87 3.87 0 0 1 3.25 4.08 4.26 4.26 0 0 1 -1.57 3 4.73 4.73 0 0 1 -3.34.73l-1.9-.11-.77 12.84a5.72 5.72 0 0 1 -.93 3.24 4.07 4.07 0 0 1 -3.64 1.72 4.31 4.31 0 0 1 -3.41-2 5.32 5.32 0 0 1 -.53-3.41l.77-12.91z" fill="#fff" transform="translate(7819 -196.99)"/><path d="m-4766.32 833.54a4.73 4.73 0 0 1 -1.35 3.39 4.49 4.49 0 0 1 -3.28 1.18 4.5 4.5 0 0 1 -3.06-1.6c-.74-1-.94-1.86-.81-3.64l1.25-16c.17-2.16.43-2.92 1.39-3.81a4.09 4.09 0 0 1 3.24-1.15 4.32 4.32 0 0 1 3.06 1.6c.77 1 1 1.94.81 4z" fill="#fff" transform="translate(7819 -196.99)"/><path d="m-4747.4 813.46a13.56 13.56 0 0 1 12.2 14.83 13.64 13.64 0 0 1 -14.9 12.16 13.6 13.6 0 0 1 -12.18-15 13.45 13.45 0 0 1 14.88-11.99zm-1.85 18.59a5.13 5.13 0 0 0 5.57-4.58 5 5 0 0 0 -4.55-5.48 5 5 0 0 0 -5.54 4.42 5.13 5.13 0 0 0 4.52 5.64z" fill="#fff" transform="translate(7819 -196.99)"/><path d="m-4716.39 822.86a5.13 5.13 0 0 1 1.22-3.23 4.23 4.23 0 0 1 3.71-1.38 4.21 4.21 0 0 1 3 2 4.83 4.83 0 0 1 .55 3.51l-2.09 15.64c-.28 2-.58 2.85-1.44 3.71a4.2 4.2 0 0 1 -3.52 1.13 4.07 4.07 0 0 1 -3.1-2.18l-5.53-9.46-.72 5.38a4.68 4.68 0 0 1 -1.42 3.24 4.28 4.28 0 0 1 -3.47 1.1 4.38 4.38 0 0 1 -3.16-2.11c-.56-1.05-.65-1.84-.39-3.72l2.18-16.2a4.26 4.26 0 0 1 5-3.94 3.88 3.88 0 0 1 2.92 2.11l5.6 9.16z" fill="#fff" transform="translate(7819 -196.99)"/><circle cx="2934.39" cy="1161.68" fill="#f29224" r="12.5"/><circle cx="2987.57" cy="1161.68" fill="#ea5d4a" r="12.5"/><circle cx="3040.75" cy="1161.68" fill="#f29224" r="12.5"/><circle cx="3093.93" cy="1161.68" fill="#ea5d4a" r="12.5"/><path d="m2914.86 1173.74h198.6v29.3h-198.6z" fill="#613a14"/><path d="m2892.1 1190.99h244.12v24.12h-244.12z" fill="#764f1f"/><path d="m2892.1 1161.68h244.12v24.12h-244.12z" fill="#764f1f"/><path d="m2907.62 1144.37h14.48v70.73h-14.48z" fill="#764f1f"/><path d="m2957.27 1144.37h14.48v70.73h-14.48z" fill="#764f1f"/><path d="m3006.92 1144.37h14.48v70.73h-14.48z" fill="#764f1f"/><path d="m3056.57 1144.37h14.48v70.73h-14.48z" fill="#764f1f"/><path d="m3106.22 1144.37h14.48v70.73h-14.48z" fill="#764f1f"/><path d="m3686.3 1105.99h189.93v17.68h-189.93z" fill="#fdf2cd"/><rect fill="#fdf2cd" height="156.49" rx="5.08" transform="matrix(.70710678 -.70710678 .70710678 .70710678 5672.13 -2652.69)" width="10.16" x="-4042.82" y="1285.41"/><rect fill="#fdf2cd" height="156.49" rx="5.08" transform="matrix(-.70710678 -.70710678 .70710678 -.70710678 -38.1 -724.19)" width="10.16" x="-4042.82" y="1285.41"/><path d="m3686.3 1097.15h189.93v8.84h-189.93z" fill="#764f1f"/><rect fill="#fdf2cd" height="86.3" rx="2.8" transform="matrix(.70710678 -.70710678 .70710678 .70710678 5615.35 -2747.04)" width="5.6" x="-4182.82" y="1341.86"/><rect fill="#fdf2cd" height="86.3" rx="2.8" transform="matrix(-.70710678 -.70710678 .70710678 -.70710678 -296.1 -788.34)" width="5.6" x="-4182.82" y="1341.86"/><rect fill="#ea5d4a" height="17.68" rx="8.84" width="94.64" x="3591.66" y="1145.06"/><rect fill="#fdf2cd" height="86.3" rx="2.8" transform="matrix(.70710678 -.70710678 .70710678 .70710678 5703.98 -2531.08)" width="5.6" x="-3877.82" y="1342.86"/><rect fill="#fdf2cd" height="86.3" rx="2.8" transform="matrix(-.70710678 -.70710678 .70710678 -.70710678 223.86 -570.96)" width="5.6" x="-3877.82" y="1342.86"/><rect fill="#ea5d4a" height="17.68" rx="8.84" width="94.64" x="3896.66" y="1146.06"/></svg>