<svg viewBox="0 0 157 180" xmlns="http://www.w3.org/2000/svg"><path d="m60.82 92v44h39v-45c6.5 17.5-2.5 41.5-2.5 41.5l15 5c18-56-12.5-63.5-12.5-63.5l-33.82-.5-2-1-5.47 2.68c-1.28.19-3.24 1.24-3.33 2.52-.56 8.16-3.2 34.8-18.88 39.8l9 10s21.68-7 15.5-35.5" fill="#f9d0a7"/><circle cx="35.82" cy="127" fill="#f9d0a7" r="9.5"/><circle cx="103.82" cy="137" fill="#f9d0a7" r="9.5"/><ellipse cx="80" cy="117" fill="#eac3a0" rx="1" ry="1.5"/><g fill="#f9d0a7"><path d="m85 133.5h14v40h-14z" transform="matrix(-1 0 0 -1 184 307)"/><path d="m60 134.5h14v39h-14z" transform="matrix(-1 0 0 -1 134 308)"/><ellipse cx="79.71" cy="44.64" rx="32.39" ry="32.14"/><circle cx="110.37" cy="51.28" r="6.45"/></g><path d="m61.32 63.73c0 2.63 3.35 4.77 7.5 4.77s7.5-2.14 7.5-4.77-3.86-1.23-8-1.23-7-1.41-7 1.23z" fill="#fff"/><path d="m48 39.81c.46-5.47 1.31-6.81 2.22-11.81a1.07 1.07 0 0 1 .57-.78l22.76-11.57a1.07 1.07 0 0 1 .63-.11l22.37 2.81h10.3a1.09 1.09 0 0 1 .82 1.81 1.08 1.08 0 0 0 .23 1.64c2 1.21 5.74 4.39 3.94 10.72a1.22 1.22 0 0 1 -.1.24c-.43.8.73 4.45-.47 17.23a1.37 1.37 0 0 1 -2.7.15c-2.11-10.14-9.64-21.74-14.07-25.72a1.07 1.07 0 0 0 -.93-.23l-39.74 5.43a1.08 1.08 0 0 0 -.51.26c-.54.51-1.72 5.17-2.77 10.3a1.31 1.31 0 0 1 -2.55-.37z" fill="#d1a44a"/><path d="m78.73 35.32c2.59-.17 22.9-3.74 28.59-13.82 0 0-6-17-23-20 0 0-10.47-1.7-23.21 7.7-.37.28-5.85 6.35-6.12 6.73-1.91 2.73-6.19 9.82-11.93 11.87a.3.3 0 0 0 .06.58c5 .54 21 2 29.23-.84l-9.35 5.22a.2.2 0 0 0 .11.38c4.13-.39 20.88-2 23.17-3.79l-7.61 5.79a.1.1 0 0 0 .06.18z" fill="#ddae47"/><rect fill="#fff" height="16" rx="8" stroke="#000" stroke-miterlimit="10" stroke-width="2" width="20" x="75" y="35.5"/><rect fill="#fff" height="16" rx="8" stroke="#000" stroke-miterlimit="10" stroke-width="2" width="20" x="50" y="35.5"/><path d="m70 43.5h5" fill="none" stroke="#000" stroke-miterlimit="10" stroke-width="2"/><circle cx="56.5" cy="43" r="1.5"/><circle cx="80.5" cy="43" r="1.5"/><path d="m85.16 131.4h14v19h-14z" fill="#1b1464" transform="matrix(-1 0 0 -1 184.33 281.79)"/><path d="m60.16 131.87h14v18.52h-14z" fill="#1b1464" transform="matrix(-1 0 0 -1 134.33 282.27)"/><path d="m60.23 117.5h39v19.18h-39z" fill="#1b1464"/><path d="m101.88 111.8s-2.88 18.7-4.88 20.7 14 3 14 3l5-22z" fill="#f9d0a7"/><circle cx="103.5" cy="137" fill="#f9d0a7" r="9.5"/><path d="m47.61 160.5h25.69a.7.7 0 0 1 .7.7v6.8a5.55 5.55 0 0 1 -5.55 5.55h-20.84a2.61 2.61 0 0 1 -2.61-2.66v-7.79a2.61 2.61 0 0 1 2.61-2.61z" fill="#f9d0a7" transform="matrix(-1 0 0 -1 119 334)"/><path d="m72.61 160.5h25.69a.7.7 0 0 1 .7.7v6.8a5.55 5.55 0 0 1 -5.55 5.55h-20.84a2.61 2.61 0 0 1 -2.61-2.66v-7.79a2.61 2.61 0 0 1 2.61-2.61z" fill="#f9d0a7" transform="matrix(-1 0 0 -1 169 334)"/><circle cx="70" cy="93.5" fill="#eac3a0" r="1"/><circle cx="90" cy="93.5" fill="#eac3a0" r="1"/><path d="m78 118.28a3.22 3.22 0 0 0 -2.31.84 2.86 2.86 0 0 0 -.34 2.09 13.43 13.43 0 0 1 .45 2.67 2.14 2.14 0 0 1 -1 1.9c-.44.19-.06.84.38.64 1.41-.61 1.5-2.63 1.22-3.89a6.58 6.58 0 0 1 -.33-2.4 1 1 0 0 1 .63-.83 4.13 4.13 0 0 1 1.3-.3c.48 0 .49-.77 0-.75z" fill="#fff"/><path d="m81 119-.16-.08-.06-.46c.07-.12.1-.1 0 0l-.11.09a.49.49 0 0 0 -.13.38c0 .31.37.38.49.65a4.56 4.56 0 0 1 0 2.43 8.15 8.15 0 0 0 -.11 2.65 2.6 2.6 0 0 0 .89 1.77c.41.27.78-.38.38-.64s-.55-1.25-.59-1.74a12.88 12.88 0 0 1 .25-2.48 5.29 5.29 0 0 0 0-2.06 1.4 1.4 0 0 0 -.44-.71.41.41 0 0 0 -.13-.1c-.18-.06-.17.43 0 .36a.41.41 0 0 0 .19-.18.38.38 0 0 0 -.06-.45.5.5 0 0 0 -.37-.14c-.48 0-.47.72 0 .75z" fill="#fff"/><path d="m77.16 118.06a3.12 3.12 0 0 1 -1.94-.8c-.2-.2-.32-.44 0-.63a1.47 1.47 0 0 1 .94-.21 1.25 1.25 0 0 1 1.2 1.26 1.33 1.33 0 0 0 .18.81 1.3 1.3 0 0 0 .79.45c1.22.3 3 .42 3.58-1a1.46 1.46 0 0 0 -.34-1.63c-.52-.44-1.11-.18-1.56.21s-.81.58-1.2.89a1.72 1.72 0 0 1 -.9.32 2.07 2.07 0 0 0 -1 .4c-.38.28 0 .94.38.65s1.08-.27 1.61-.53a9.44 9.44 0 0 0 1.23-.87c.31-.23.92-.93 1.13-.24s-.46 1.13-1 1.24a2.7 2.7 0 0 1 -1.06 0c-.27 0-.93-.08-1.05-.36a1.19 1.19 0 0 1 0-.42 2.22 2.22 0 0 0 -.06-.44 1.85 1.85 0 0 0 -.43-.79 2.16 2.16 0 0 0 -1.68-.67 1.79 1.79 0 0 0 -1.51.72c-.37.65.12 1.29.63 1.66a4 4 0 0 0 2.15.76c.48 0 .48-.73 0-.75z" fill="#fff"/></svg>