<svg viewBox="0 0 157 180" xmlns="http://www.w3.org/2000/svg"><path d="m34.09 147.02-.08-14 45.44 1.15.61 13.02z" fill="#f9d0a7"/><path d="m125.99 133.72.92 13.97-48.41-.19-1-13z" fill="#f9d0a7"/><path d="m108.5 133.5v14l-30.51-.03-1-13z" fill="#1b1464"/><path d="m98 92v44h-39v-45c-17.5-20.5-43.5-12.5-43.5-12.5l-5-13a44.49 44.49 0 0 1 48.5 8.5l31.5.5h8s11-15 46-10l-6 14s-23-2-40.5 13.5" fill="#f9d0a7"/><circle cx="9" cy="74" fill="#f9d0a7" r="9.5"/><circle cx="147" cy="73" fill="#f9d0a7" r="9.5"/><ellipse cx="79.11" cy="44.64" fill="#f9d0a7" rx="32.39" ry="32.14"/><circle cx="48.45" cy="51.28" fill="#f9d0a7" r="6.45"/><path d="m97.5 63.73c0 2.63-3.36 4.77-7.5 4.77s-7.5-2.14-7.5-4.77 3.86-1.23 8-1.23 7-1.41 7 1.23z" fill="#fff"/><path d="m110.86 39.81c-.5-5.47-1.35-6.86-2.26-11.77a1.09 1.09 0 0 0 -.58-.78l-22.76-11.61a1 1 0 0 0 -.63-.11l-22.37 2.81h-10.26a1.09 1.09 0 0 0 -.81 1.81 1.08 1.08 0 0 1 -.24 1.64c-2.04 1.2-5.77 4.4-3.95 10.73a1.17 1.17 0 0 0 .09.24c.44.8-.73 4.45.47 17.23a1.37 1.37 0 0 0 2.71.15c2.09-10.15 9.62-21.75 14.05-25.73a1.06 1.06 0 0 1 .92-.23l39.76 5.43a1.08 1.08 0 0 1 .51.26c.54.51 1.72 5.17 2.76 10.3a1.31 1.31 0 0 0 2.59-.37z" fill="#d1a44a"/><path d="m80.09 35.32c-2.59-.17-22.91-3.74-28.59-13.82 0 0 6-17 23-20 0 0 10.46-1.7 23.2 7.7.37.28 5.86 6.35 6.12 6.73 1.92 2.73 6.2 9.82 11.94 11.87a.3.3 0 0 1 -.06.58c-5 .54-21 2-29.24-.84l9.36 5.22a.2.2 0 0 1 -.1.38c-4.14-.39-20.88-2-23.17-3.79l7.6 5.79a.1.1 0 0 1 -.06.18z" fill="#ddae47"/><path d="m59.12 116.44h39v20.06h-39z" fill="#1b1464" transform="matrix(-1 0 0 -1 157.23 252.94)"/><path d="m111.11 126.5h20.89a5.55 5.55 0 0 1 5.5 5.5v6.76a.7.7 0 0 1 -.7.7h-25.7a2.61 2.61 0 0 1 -2.61-2.61v-7.79a2.61 2.61 0 0 1 2.61-2.61z" fill="#f9d0a7" transform="matrix(0 -1 1 0 -10 256)"/><path d="m53.5 147.84v-14.27l26.44.65.62 13.28z" fill="#1b1464"/><path d="m27.33 125.5h26.67a.49.49 0 0 1 .49.49v8.62a3.89 3.89 0 0 1 -3.89 3.89h-23.27a1.83 1.83 0 0 1 -1.83-1.83v-9.34a1.83 1.83 0 0 1 1.83-1.83z" fill="#f9d0a7" transform="matrix(0 -1 1 0 -92 172)"/><circle cx="89" cy="92.5" fill="#eac3a0" r="1"/><circle cx="69" cy="92.5" fill="#eac3a0" r="1"/><path d="m77.32 117.7a3.19 3.19 0 0 0 -2.31.84 2.86 2.86 0 0 0 -.34 2.09 14.19 14.19 0 0 1 .45 2.67 2.16 2.16 0 0 1 -1 1.9c-.44.19-.06.84.38.65 1.4-.62 1.49-2.64 1.22-3.9a6.34 6.34 0 0 1 -.33-2.4.94.94 0 0 1 .63-.83 4.07 4.07 0 0 1 1.29-.27c.48 0 .48-.77 0-.75z" fill="#fff"/><path d="m80.32 118.45-.17-.08-.05-.46c.06-.11.09-.1 0 0l-.1.09a.5.5 0 0 0 -.14.38c0 .31.38.38.49.65a4.56 4.56 0 0 1 0 2.43 8.14 8.14 0 0 0 -.1 2.65 2.56 2.56 0 0 0 .89 1.78c.4.26.78-.39.38-.65s-.56-1.25-.59-1.74a11.53 11.53 0 0 1 .25-2.48 5.1 5.1 0 0 0 0-2.06 1.45 1.45 0 0 0 -.43-.71s-.09-.09-.14-.1-.17.43 0 .37a.44.44 0 0 0 .19-.19.36.36 0 0 0 -.06-.45.52.52 0 0 0 -.36-.14c-.48 0-.48.72 0 .75z" fill="#fff"/><path d="m76.45 117.48a3 3 0 0 1 -1.93-.8c-.2-.2-.33-.44-.06-.63a1.49 1.49 0 0 1 1-.21 1.23 1.23 0 0 1 1.19 1.26 1.08 1.08 0 0 0 1 1.26c1.22.3 3 .43 3.57-1a1.44 1.44 0 0 0 -.33-1.63 1.15 1.15 0 0 0 -1.56.21c-.38.33-.82.59-1.21.89a1.69 1.69 0 0 1 -.9.32 2 2 0 0 0 -1 .4c-.38.29 0 .94.38.65s1.07-.27 1.61-.53a9.44 9.44 0 0 0 1.23-.87c.31-.23.92-.92 1.12-.24s-.46 1.13-1 1.24a2.7 2.7 0 0 1 -1.06 0c-.26 0-.93-.08-1-.36a1.19 1.19 0 0 1 0-.42 2.2 2.2 0 0 0 0-.44 1.85 1.85 0 0 0 -.43-.79 2.19 2.19 0 0 0 -1.69-.67 1.81 1.81 0 0 0 -1.51.72c-.37.65.13 1.29.63 1.66a4 4 0 0 0 2.15.76c.49 0 .48-.72 0-.75z" fill="#fff"/><g stroke-miterlimit="10"><rect fill="#f9d0a7" height="16" rx="5.61" stroke="#000" stroke-width="2" transform="matrix(-1 0 0 -1 147.77 87.48)" width="20" x="63.88" y="35.74"/><rect fill="#f9d0a7" height="16" rx="5.61" stroke="#000" stroke-width="2" transform="matrix(-1 0 0 -1 197.77 87.48)" width="20" x="88.88" y="35.74"/><path d="m88.88 43.74h-5" fill="none" stroke="#000" stroke-width="2"/><path d="m64.21 44.25 19.17-.01" stroke="#b79274"/><path d="m89.21 44.25 19.17-.01" stroke="#b79274"/><rect fill="none" height="16" rx="5.61" stroke="#000" stroke-width="2" transform="matrix(-1 0 0 -1 197.71 87.32)" width="20" x="88.85" y="35.66"/><rect fill="none" height="16" rx="5.61" stroke="#000" stroke-width="2" transform="matrix(-1 0 0 -1 147.71 87.32)" width="20" x="63.85" y="35.66"/></g></svg>