<svg viewBox="0 0 157 180" xmlns="http://www.w3.org/2000/svg"><path d="m24.61 126.5h25.69a.7.7 0 0 1 .7.7v6.8a5.55 5.55 0 0 1 -5.55 5.55h-20.84a2.61 2.61 0 0 1 -2.61-2.66v-7.79a2.61 2.61 0 0 1 2.61-2.61z" fill="#f9d0a7" transform="matrix(0 -1 1 0 -96.5 169.5)"/><path d="m109 156.5v-14h-11v-10l-21 3v21z" fill="#f9d0a7"/><path d="m37 133.5v14h46v-15z" fill="#f9d0a7"/><path d="m102 156.5v-14h-4v-10l-21 3v21z" fill="#1b1464"/><path d="m50 133.5v14h33v-15z" fill="#1b1464"/><g fill="#f9d0a7"><path d="m59 88.5.5 46.5h39v-45c8.5-14.5 38.5-.5 38.5-.5l6-12c-27-18-46-6-46-6l-2 1h-1l-30.5.5-5 1s-22.5 8.5-40.5-6.5l-8 12s28.79 20 49.5 11.5"/><circle cx="145.5" cy="86" r="9.5"/><circle cx="11.5" cy="71" r="9.5"/><ellipse cx="78.39" cy="43.64" rx="32.39" ry="32.14"/><circle cx="109.05" cy="50.28" r="6.45"/></g><path d="m60 62.73c0 2.63 3.36 4.77 7.5 4.77s7.5-2.14 7.5-4.77-3.86-1.23-8-1.23-7-1.41-7 1.23z" fill="#fff"/><path d="m46.64 38.81c.5-5.47 1.36-6.81 2.26-11.81a1.09 1.09 0 0 1 .58-.78l22.76-11.57a1 1 0 0 1 .63-.11l22.37 2.81h10.3a1.09 1.09 0 0 1 .81 1.81 1.08 1.08 0 0 0 .24 1.64c2 1.21 5.73 4.39 3.93 10.72a1.17 1.17 0 0 1 -.09.24c-.44.8.73 4.45-.47 17.23a1.37 1.37 0 0 1 -2.71.15c-2.11-10.14-9.64-21.74-14.07-25.72a1.06 1.06 0 0 0 -.92-.23l-39.75 5.43a1.08 1.08 0 0 0 -.51.26c-.54.51-1.72 5.17-2.76 10.3a1.31 1.31 0 0 1 -2.6-.37z" fill="#d1a44a"/><path d="m77.41 34.32c2.59-.17 22.91-3.74 28.59-13.82 0 0-6-17-23-20 0 0-10.46-1.7-23.2 7.7-.37.28-5.86 6.35-6.12 6.73-1.92 2.73-6.2 9.82-11.94 11.87a.3.3 0 0 0 .06.58c5 .54 21 2 29.24-.84l-9.36 5.22a.2.2 0 0 0 .1.38c4.14-.39 20.88-2 23.17-3.79l-7.6 5.79a.1.1 0 0 0 .06.18z" fill="#ddae47"/><rect fill="#fff" height="16" rx="8" stroke="#000" stroke-miterlimit="10" stroke-width="2" width="20" x="73" y="35.5"/><rect fill="#fff" height="16" rx="8" stroke="#000" stroke-miterlimit="10" stroke-width="2" width="20" x="48" y="35.5"/><path d="m68 43.5h5" fill="none" stroke="#000" stroke-miterlimit="10" stroke-width="2"/><circle cx="54.5" cy="43" r="1.5"/><circle cx="78.5" cy="43" r="1.5"/><path d="m102.61 150.5h25.7a.7.7 0 0 1 .7.7v6.8a5.55 5.55 0 0 1 -5.55 5.55h-22.77a.69.69 0 0 1 -.69-.69v-9.71a2.61 2.61 0 0 1 2.61-2.61z" fill="#f9d0a7" transform="matrix(0 1 -1 0 271.5 42.5)"/><circle cx="68" cy="94.5" fill="#eac3a0" r="1"/><circle cx="86" cy="94.5" fill="#eac3a0" r="1"/><ellipse cx="77" cy="118" fill="#eac3a0" rx="1" ry="1.5"/><path d="m59 118.5h39v18h-39z" fill="#1b1464"/><path d="m76.33 118.84a3.15 3.15 0 0 0 -2.31.84 2.85 2.85 0 0 0 -.34 2.08 14.43 14.43 0 0 1 .45 2.68 2.16 2.16 0 0 1 -1 1.89c-.44.2-.06.84.38.65 1.4-.61 1.49-2.63 1.22-3.89a6.4 6.4 0 0 1 -.33-2.41.94.94 0 0 1 .63-.82 4.07 4.07 0 0 1 1.29-.27c.48 0 .48-.77 0-.75z" fill="#fff"/><path d="m79.33 119.59-.17-.09v-.45c.06-.12.09-.1 0 0l-.1.09a.49.49 0 0 0 -.14.38c0 .31.38.38.49.64a4.5 4.5 0 0 1 0 2.44 8.13 8.13 0 0 0 -.1 2.65 2.54 2.54 0 0 0 .89 1.77c.4.27.78-.38.38-.65s-.56-1.24-.59-1.73a11.47 11.47 0 0 1 .25-2.48 5.1 5.1 0 0 0 -.05-2.06 1.41 1.41 0 0 0 -.43-.71s-.09-.09-.14-.1-.17.42 0 .36a.34.34 0 0 0 .19-.18.38.38 0 0 0 -.06-.46.52.52 0 0 0 -.36-.13c-.48 0-.48.71 0 .75z" fill="#fff"/><path d="m75.47 118.61a3 3 0 0 1 -1.94-.79c-.2-.2-.33-.44-.06-.63a1.49 1.49 0 0 1 1-.21 1.22 1.22 0 0 1 1.19 1.25 1.29 1.29 0 0 0 .19.82 1.35 1.35 0 0 0 .79.45c1.22.3 3 .42 3.58-1a1.46 1.46 0 0 0 -.34-1.63 1.14 1.14 0 0 0 -1.56.21c-.38.33-.82.58-1.21.89a1.69 1.69 0 0 1 -.9.32 2 2 0 0 0 -1 .4c-.38.28 0 .93.38.64s1.07-.26 1.61-.52a8.65 8.65 0 0 0 1.23-.88c.31-.22.92-.92 1.12-.23s-.46 1.12-1 1.24a2.91 2.91 0 0 1 -1.06 0c-.26 0-.93-.09-1-.37a1.13 1.13 0 0 1 0-.41 1.61 1.61 0 0 0 0-.44 1.89 1.89 0 0 0 -.43-.8 2.16 2.16 0 0 0 -1.69-.66 1.79 1.79 0 0 0 -1.51.72c-.37.65.13 1.29.63 1.66a4 4 0 0 0 2.16.75c.48 0 .48-.72 0-.75z" fill="#fff"/></svg>