<svg height="57" viewBox="0 0 174 57" width="174" xmlns="http://www.w3.org/2000/svg"><circle cx="29.15" cy="28.63" fill="#fff" r="24.43"/><circle cx="22.17" cy="31.42" fill="#033155" r="6.28"/><circle cx="143.87" cy="30.02" fill="#fff" r="24.43"/><circle cx="136.89" cy="32.82" fill="#033155" r="6.28"/><g fill="#7a2c68"><path d="m24.26 2.81-12.56 6.98-9.77 18.14 51.64-1.39-8.37-18.15-9.77-5.58z"/><path d="m26.04 51.81-12.76-4.08-10.31-11.64 51.63-1.42-7.81 12.47-9.59 4.16z"/><path d="m138.99 4.2-12.56 6.98-9.77 18.15 51.64-1.4-8.38-18.14-9.77-5.59z"/><path d="m140.77 53.2-12.76-4.07-10.31-11.64 51.63-1.42-7.82 12.46-9.59 4.17z"/></g><g fill="none" stroke="#9b3273" stroke-miterlimit="10" stroke-width="5"><circle cx="143.18" cy="29.33" r="24.43"/><circle cx="28.45" cy="27.93" r="24.43"/></g></svg>