<svg height="197" viewBox="0 0 259 197" width="259" xmlns="http://www.w3.org/2000/svg"><path d="m20.53 61.36h221.69v113.38h-221.69z" fill="#6c534f" transform="matrix(.9961947 -.08715574 .08715574 .9961947 -9.79 11.91)"/><rect fill="#a06b52" height="24.29" rx="3.13" transform="matrix(.9961947 -.08715574 .08715574 .9961947 -14.7 12.55)" width="235.36" x="18.64" y="162.38"/><circle cx="33.89" cy="183.49" fill="#c49a6c" r="2.51"/><g fill="#ba9b4d" opacity=".23"><path d="m45.9 161.17a11.55 11.55 0 0 1 -12.6-10.67 14.56 14.56 0 0 1 1-6.29l18.07-49a11.73 11.73 0 0 1 10.11-8 12 12 0 0 1 11.52 6.23l26.46 45.62a12.2 12.2 0 0 1 1.87 5.5 11.76 11.76 0 0 1 -10.77 12.61c-5.42.47-8.83-1.8-12.75-8.73l-21.66 1.9c-2.37 7.16-5.62 10.33-11.25 10.83zm24.1-28.97-4.35-8.2-2.87 8.81z"/><path d="m107.3 139a10.56 10.56 0 0 1 9.7-11.56c2.87-.25 5.39.49 8.58 2.68 5.44 3.48 6.11 3.85 7.81 3.7a2.88 2.88 0 0 0 2.71-3.34 3.34 3.34 0 0 0 -2.07-2.82c-.67-.36-1-.55-4.85-1.6-2-.47-3.93-.94-5.91-1.52-10.61-2.71-16.3-9-17.16-18.83-1.21-13.8 8.58-24.18 24-25.53 12.74-1.12 23.32 4.81 24.08 13.51.49 5.63-3 10-8.29 10.47-3.18.28-5.82-.56-10-3.19-2.62-1.81-3.83-2.24-5.11-2.12a2.82 2.82 0 0 0 -2.52 3c.19 2.12 1.76 3 7.44 4.27 6.21 1.28 12.19 3.64 15.73 6.11 4.67 3.23 8 9.36 8.57 16a24.37 24.37 0 0 1 -5.21 17.47c-4.36 5.2-10.53 8.09-19.24 8.86-15.11 1.37-27.38-5.48-28.26-15.56z"/><path d="m190.75 118.1c.45 5.1 3.05 8 7.09 7.62s6.11-3.53 5.68-8.42l-2.47-28.25c-.46-5.2-.17-6.83 1.73-9.56a11.7 11.7 0 0 1 8.64-5.25 12.45 12.45 0 0 1 9.5 3.44c2.46 2.46 3.18 4.54 3.74 10.91l2.2 25.17c.84 9.56-.89 16.66-5.49 22.84a29.66 29.66 0 0 1 -46.68 2.16c-4.87-5.56-6.69-10.43-7.51-19.78l-2.18-24.98c-.59-6.69-.31-8.43 1.47-11.26a11.77 11.77 0 0 1 17.77-2.41c2.55 2.24 3.63 4.82 4.07 9.81z"/></g><path d="m49.46 159.37a11.54 11.54 0 0 1 -12.59-10.67 14.55 14.55 0 0 1 .94-6.29l18.08-49a11.73 11.73 0 0 1 10.11-7.93 12 12 0 0 1 11.56 6.15l26.44 45.62a12.4 12.4 0 0 1 1.87 5.51 11.77 11.77 0 0 1 -10.78 12.61c-5.41.47-8.82-1.8-12.74-8.73l-21.67 1.9c-2.34 7.16-5.59 10.33-11.22 10.83zm24.11-29-4.35-8.18-2.87 8.81z" fill="#ba9b4d"/><path d="m110.87 137.19a10.55 10.55 0 0 1 9.68-11.55c2.87-.25 5.4.49 8.59 2.68 5.44 3.48 6.11 3.85 7.81 3.7a2.89 2.89 0 0 0 2.7-3.34 3.32 3.32 0 0 0 -2.06-2.82c-.68-.37-1-.55-4.85-1.61-2-.47-3.94-.94-5.91-1.51-10.62-2.71-16.3-8.95-17.17-18.83-1.2-13.8 8.59-24.18 24-25.53 12.74-1.12 23.31 4.8 24.08 13.51.49 5.63-3 10-8.29 10.46-3.18.28-5.83-.56-10-3.18-2.61-1.81-3.83-2.24-5.1-2.13a2.83 2.83 0 0 0 -2.52 3c.18 2.12 1.75 3 7.43 4.27 6.21 1.27 12.2 3.64 15.73 6.11 4.67 3.23 8 9.36 8.58 16a24.42 24.42 0 0 1 -5.25 17.58c-4.36 5.2-10.52 8.09-19.23 8.85-15.09 1.27-27.34-5.57-28.22-15.66z" fill="#ba9b4d"/><path d="m194.32 116.3c.44 5.09 3.05 8 7.08 7.61s6.12-3.53 5.69-8.41l-2.47-28.25c-.46-5.2-.17-6.83 1.73-9.57a11.74 11.74 0 0 1 8.65-5.25 12.51 12.51 0 0 1 9.51 3.45c2.46 2.46 3.18 4.54 3.73 10.91l2.19 25.21c.83 9.56-.9 16.66-5.49 22.84a29.66 29.66 0 0 1 -46.68 2.16c-4.88-5.56-6.69-10.43-7.51-19.78l-2.19-25c-.56-6.68-.31-8.42 1.44-11.22a11.76 11.76 0 0 1 17.76-2.41c2.55 2.24 3.64 4.82 4.07 9.81z" fill="#ba9b4d"/><path d="m16.69 61.53h221.69v25.31h-221.69z" fill="#8c7261" opacity=".25" transform="matrix(.9961947 -.08715574 .08715574 .9961947 -5.98 11.4)"/><rect fill="#a06b52" height="24.29" rx="3.13" transform="matrix(.9961947 -.08715574 .08715574 .9961947 -2.35 10.93)" width="235.36" x="6.2" y="20.19"/><rect fill="#a06b52" height="24.29" rx="3.13" transform="matrix(.9961947 -.08715574 .08715574 .9961947 -4.45 11.2)" width="235.36" x="8.32" y="44.39"/><path d="m8 57.82.35 4.06 234.44-20.52-.35-4.07a3.13 3.13 0 0 0 -3.4-2.84l-228.22 20a3.13 3.13 0 0 0 -2.82 3.37z" fill="#875a45"/><path d="m123.35 26.29c-4.81.42-8.48 3.31-8.2 6.45l3.57 40.84c.28 3.15 4.39 5.36 9.2 4.93s8.47-3.31 8.2-6.45l-3.58-40.84c-.27-3.15-4.39-5.36-9.19-4.93z" fill="#a7a9ac"/><g fill="#c49a6c"><path d="m232.24 20.33a2.51 2.51 0 1 0 2.76 2.28 2.51 2.51 0 0 0 -2.76-2.28z"/><path d="m178.28 25.05a2.51 2.51 0 1 0 2.72 2.28 2.51 2.51 0 0 0 -2.72-2.28z"/><path d="m234.35 44.53a2.51 2.51 0 1 0 2.73 2.28 2.51 2.51 0 0 0 -2.73-2.28z"/><path d="m180.4 49.25a2.51 2.51 0 1 0 2.73 2.29 2.51 2.51 0 0 0 -2.73-2.29z"/><path d="m75.17 34.07a2.52 2.52 0 1 0 2.73 2.29 2.53 2.53 0 0 0 -2.73-2.29z"/><path d="m21.22 38.8a2.51 2.51 0 1 0 2.78 2.28 2.5 2.5 0 0 0 -2.78-2.28z"/><circle cx="77.51" cy="60.78" r="2.51"/><circle cx="23.56" cy="65.5" r="2.51"/><path d="m244.68 162.51a2.51 2.51 0 1 0 2.73 2.29 2.51 2.51 0 0 0 -2.73-2.29z"/><path d="m190.73 167.24a2.51 2.51 0 1 0 2.73 2.28 2.5 2.5 0 0 0 -2.73-2.28z"/><circle cx="136.32" cy="174.52" r="2.51"/><circle cx="87.84" cy="178.77" r="2.51"/></g><path d="m137.1 88.74-16.8 1.47-1.06-12a8.43 8.43 0 1 1 16.76-1.51zm-14.44-1.36 11.61-1-.82-9.45a5.83 5.83 0 0 0 -11.61 1z" fill="#bcbec0"/><path d="m133.31 81.55-10.53.92a4.78 4.78 0 0 0 -4.34 5.18l.66 7.57a10.05 10.05 0 0 0 10.9 9.14 10.05 10.05 0 0 0 9.14-10.9l-.66-7.57a4.77 4.77 0 0 0 -5.17-4.34z" fill="#898077"/><path d="m129.66 91.19a1.68 1.68 0 1 0 -2.61-1.25 1.69 1.69 0 0 0 1 1.39l-.65 3.82 1.79-.16 1.79-.16z" fill="#231f20"/><path d="m126.33 58.51a1.41 1.41 0 0 0 -1.28 1.54l1 12a1.42 1.42 0 1 0 2.82-.24l-1-12a1.43 1.43 0 0 0 -1.54-1.3z" fill="#8c7261"/></svg>