<svg height="401" viewBox="0 0 333 401" width="333" xmlns="http://www.w3.org/2000/svg"><path d="m4.76 349s75.39 14.1 98.85-34.32c21.61-44.6.58-156.64-3.09-176.92-.38-2.07-1.94-22.15-2-24.25-.06-18.73 4.82-105.18 103.48-109.88 0 0 128.88-9.22 122.84 130.3 0 0-4.74 102.34-113.36 105.11 0 0-20.47 4.15-25-20.92 0 0-1.85-20.68 20.92-25 0 0 86.05 3.88 68.22-91.8 0 0-2.64-55.36-74.08-51.28 0 0-74.85.09-50.5 122.1 1.3 6.5 2.75 17.25 3.34 23.85l7.37 82.29s2.56 106.32-119 119.51l-36.81 3.21z" fill="#d54989"/></svg>